<?xml version="1.0" encoding="UTF-8" standalone="no"?>
<!DOCTYPE svg PUBLIC "-//W3C//DTD SVG 1.1//EN"
 "http://www.w3.org/Graphics/SVG/1.1/DTD/svg11.dtd">
<!-- Generated by graphviz version 8.1.0 (20230707.0739)
 -->
<!-- Title: mal&#45;packet&#45;weaver/mal&#45;packet&#45;weaver/crypto/crypto.hpp Pages: 1 -->
<svg width="298pt" height="271pt"
 viewBox="0.00 0.00 298.44 270.75" xmlns="http://www.w3.org/2000/svg" xmlns:xlink="http://www.w3.org/1999/xlink">
<g id="graph0" class="graph" transform="scale(1 1) rotate(0) translate(4 266.75)">
<title>mal&#45;packet&#45;weaver/mal&#45;packet&#45;weaver/crypto/crypto.hpp</title>
<!-- Node1 -->
<g id="Node000001" class="node">
<title>Node1</title>
<g id="a_Node000001"><a xlink:title=" ">
<polygon fill="#999999" stroke="#666666" points="174,-262.75 66.5,-262.75 66.5,-221 174,-221 174,-262.75"/>
<text text-anchor="start" x="74.5" y="-249.25" font-family="Times,serif" font-size="10.00">mal&#45;packet&#45;weaver/mal</text>
<text text-anchor="start" x="74.5" y="-238" font-family="Times,serif" font-size="10.00">&#45;packet&#45;weaver/crypto</text>
<text text-anchor="middle" x="120.25" y="-226.75" font-family="Times,serif" font-size="10.00">/crypto.hpp</text>
</a>
</g>
</g>
<!-- Node2 -->
<g id="Node000002" class="node">
<title>Node2</title>
<g id="a_Node000002"><a xlink:href="../../de/d3a/crypto-common_8hpp.html" target="_top" xlink:title=" ">
<polygon fill="white" stroke="#666666" points="122.5,-74.5 0,-74.5 0,-55.25 122.5,-55.25 122.5,-74.5"/>
<text text-anchor="middle" x="61.25" y="-61" font-family="Times,serif" font-size="10.00">detail/crypto&#45;common.hpp</text>
</a>
</g>
</g>
<!-- Node1&#45;&gt;Node2 -->
<g id="edge1_Node000001_Node000002" class="edge">
<title>Node1&#45;&gt;Node2</title>
<g id="a_edge1_Node000001_Node000002"><a xlink:title=" ">
<path fill="none" stroke="#63b8ff" d="M88.06,-220.55C74.4,-210.89 58.96,-198.5 47.25,-185 28.8,-163.73 23.37,-156.99 16.25,-129.75 14.09,-121.47 12.96,-118.4 16.25,-110.5 20.95,-99.23 30.03,-89.34 38.81,-81.76"/>
<polygon fill="#63b8ff" stroke="#63b8ff" points="40.69,-83.94 46.32,-74.97 36.32,-78.47 40.69,-83.94"/>
</a>
</g>
</g>
<!-- Node4 -->
<g id="Node000004" class="node">
<title>Node4</title>
<g id="a_Node000004"><a xlink:href="../../df/d27/aes_8hpp.html" target="_top" xlink:title=" ">
<polygon fill="white" stroke="#666666" points="97.38,-129.75 25.12,-129.75 25.12,-110.5 97.38,-110.5 97.38,-129.75"/>
<text text-anchor="middle" x="61.25" y="-116.25" font-family="Times,serif" font-size="10.00">detail/aes.hpp</text>
</a>
</g>
</g>
<!-- Node1&#45;&gt;Node4 -->
<g id="edge3_Node000001_Node000004" class="edge">
<title>Node1&#45;&gt;Node4</title>
<g id="a_edge3_Node000001_Node000004"><a xlink:title=" ">
<path fill="none" stroke="#63b8ff" d="M85.72,-220.68C73.41,-211.5 60.94,-199.44 54.25,-185 47.72,-170.91 50.36,-153.25 54.13,-140.08"/>
<polygon fill="#63b8ff" stroke="#63b8ff" points="57.7,-141.45 57.53,-130.85 51.05,-139.24 57.7,-141.45"/>
</a>
</g>
</g>
<!-- Node5 -->
<g id="Node000005" class="node">
<title>Node5</title>
<g id="a_Node000005"><a xlink:href="../../dc/db5/diffie-hellman_8hpp.html" target="_top" xlink:title=" ">
<polygon fill="white" stroke="#666666" points="177.38,-185 63.12,-185 63.12,-165.75 177.38,-165.75 177.38,-185"/>
<text text-anchor="middle" x="120.25" y="-171.5" font-family="Times,serif" font-size="10.00">detail/diffie&#45;hellman.hpp</text>
</a>
</g>
</g>
<!-- Node1&#45;&gt;Node5 -->
<g id="edge5_Node000001_Node000005" class="edge">
<title>Node1&#45;&gt;Node5</title>
<g id="a_edge5_Node000001_Node000005"><a xlink:title=" ">
<path fill="none" stroke="#63b8ff" d="M120.25,-220.82C120.25,-213.05 120.25,-204.18 120.25,-196.42"/>
<polygon fill="#63b8ff" stroke="#63b8ff" points="123.75,-196.45 120.25,-186.45 116.75,-196.45 123.75,-196.45"/>
</a>
</g>
</g>
<!-- Node6 -->
<g id="Node000006" class="node">
<title>Node6</title>
<g id="a_Node000006"><a xlink:href="../../d4/d28/ecdsa_8hpp.html" target="_top" xlink:title=" ">
<polygon fill="white" stroke="#666666" points="277.25,-185 195.25,-185 195.25,-165.75 277.25,-165.75 277.25,-185"/>
<text text-anchor="middle" x="236.25" y="-171.5" font-family="Times,serif" font-size="10.00">detail/ecdsa.hpp</text>
</a>
</g>
</g>
<!-- Node1&#45;&gt;Node6 -->
<g id="edge6_Node000001_Node000006" class="edge">
<title>Node1&#45;&gt;Node6</title>
<g id="a_edge6_Node000001_Node000006"><a xlink:title=" ">
<path fill="none" stroke="#63b8ff" d="M156.63,-220.64C174.24,-210.85 194.95,-199.34 210.83,-190.51"/>
<polygon fill="#63b8ff" stroke="#63b8ff" points="211.99,-193.31 219.03,-185.39 208.59,-187.2 211.99,-193.31"/>
</a>
</g>
</g>
<!-- Node7 -->
<g id="Node000007" class="node">
<title>Node7</title>
<g id="a_Node000007"><a xlink:href="../../d8/d6d/sha_8hpp.html" target="_top" xlink:title=" ">
<polygon fill="white" stroke="#666666" points="260,-129.75 212.5,-129.75 212.5,-110.5 260,-110.5 260,-129.75"/>
<text text-anchor="middle" x="236.25" y="-116.25" font-family="Times,serif" font-size="10.00">sha.hpp</text>
</a>
</g>
</g>
<!-- Node1&#45;&gt;Node7 -->
<g id="edge9_Node000001_Node000007" class="edge">
<title>Node1&#45;&gt;Node7</title>
<g id="a_edge9_Node000001_Node000007"><a xlink:title=" ">
<path fill="none" stroke="#63b8ff" d="M174.3,-238.42C212.39,-233.52 260.97,-220.19 286.25,-185 298.57,-167.86 279.32,-148.9 261.25,-136.12"/>
<polygon fill="#63b8ff" stroke="#63b8ff" points="263.35,-132.65 253.08,-130.04 259.49,-138.48 263.35,-132.65"/>
</a>
</g>
</g>
<!-- Node3 -->
<g id="Node000003" class="node">
<title>Node3</title>
<g id="a_Node000003"><a xlink:title=" ">
<polygon fill="#e0e0e0" stroke="#999999" points="122.5,-19.25 0,-19.25 0,0 122.5,0 122.5,-19.25"/>
<text text-anchor="middle" x="61.25" y="-5.75" font-family="Times,serif" font-size="10.00">mal&#45;toolkit/mal&#45;toolkit.hpp</text>
</a>
</g>
</g>
<!-- Node2&#45;&gt;Node3 -->
<g id="edge2_Node000002_Node000003" class="edge">
<title>Node2&#45;&gt;Node3</title>
<g id="a_edge2_Node000002_Node000003"><a xlink:title=" ">
<path fill="none" stroke="#63b8ff" d="M61.25,-55.08C61.25,-48.42 61.25,-38.99 61.25,-30.53"/>
<polygon fill="#63b8ff" stroke="#63b8ff" points="64.75,-30.61 61.25,-20.61 57.75,-30.61 64.75,-30.61"/>
</a>
</g>
</g>
<!-- Node4&#45;&gt;Node2 -->
<g id="edge4_Node000004_Node000002" class="edge">
<title>Node4&#45;&gt;Node2</title>
<g id="a_edge4_Node000004_Node000002"><a xlink:title=" ">
<path fill="none" stroke="#63b8ff" d="M61.25,-110.33C61.25,-103.67 61.25,-94.24 61.25,-85.78"/>
<polygon fill="#63b8ff" stroke="#63b8ff" points="64.75,-85.86 61.25,-75.86 57.75,-85.86 64.75,-85.86"/>
</a>
</g>
</g>
<!-- Node6&#45;&gt;Node7 -->
<g id="edge7_Node000006_Node000007" class="edge">
<title>Node6&#45;&gt;Node7</title>
<g id="a_edge7_Node000006_Node000007"><a xlink:title=" ">
<path fill="none" stroke="#63b8ff" d="M236.25,-165.58C236.25,-158.92 236.25,-149.49 236.25,-141.03"/>
<polygon fill="#63b8ff" stroke="#63b8ff" points="239.75,-141.11 236.25,-131.11 232.75,-141.11 239.75,-141.11"/>
</a>
</g>
</g>
<!-- Node7&#45;&gt;Node2 -->
<g id="edge8_Node000007_Node000002" class="edge">
<title>Node7&#45;&gt;Node2</title>
<g id="a_edge8_Node000007_Node000002"><a xlink:title=" ">
<path fill="none" stroke="#63b8ff" d="M212.28,-111.83C183.69,-103.13 135.47,-88.46 101.21,-78.04"/>
<polygon fill="#63b8ff" stroke="#63b8ff" points="102.65,-74.51 92.07,-74.95 100.61,-81.21 102.65,-74.51"/>
</a>
</g>
</g>
</g>
</svg>
