<?xml version="1.0" encoding="UTF-8" standalone="no"?>
<!DOCTYPE svg PUBLIC "-//W3C//DTD SVG 1.1//EN"
 "http://www.w3.org/Graphics/SVG/1.1/DTD/svg11.dtd">
<!-- Generated by graphviz version 8.1.0 (20230707.0739)
 -->
<!-- Title: mal&#45;packet&#45;weaver/mal&#45;packet&#45;weaver/packet_impl/packet.hpp Pages: 1 -->
<svg width="580pt" height="116pt"
 viewBox="0.00 0.00 580.00 116.25" xmlns="http://www.w3.org/2000/svg" xmlns:xlink="http://www.w3.org/1999/xlink">
<g id="graph0" class="graph" transform="scale(1 1) rotate(0) translate(4 112.25)">
<title>mal&#45;packet&#45;weaver/mal&#45;packet&#45;weaver/packet_impl/packet.hpp</title>
<!-- Node1 -->
<g id="Node000001" class="node">
<title>Node1</title>
<g id="a_Node000001"><a xlink:title=" ">
<polygon fill="#999999" stroke="#666666" points="361,-108.25 253.5,-108.25 253.5,-66.5 361,-66.5 361,-108.25"/>
<text text-anchor="start" x="261.5" y="-94.75" font-family="Times,serif" font-size="10.00">mal&#45;packet&#45;weaver/mal</text>
<text text-anchor="start" x="261.5" y="-83.5" font-family="Times,serif" font-size="10.00">&#45;packet&#45;weaver/packet</text>
<text text-anchor="middle" x="307.25" y="-72.25" font-family="Times,serif" font-size="10.00">_impl/packet.hpp</text>
</a>
</g>
</g>
<!-- Node2 -->
<g id="Node000002" class="node">
<title>Node2</title>
<g id="a_Node000002"><a xlink:title=" ">
<polygon fill="#e0e0e0" stroke="#999999" points="122.5,-24.88 0,-24.88 0,-5.63 122.5,-5.63 122.5,-24.88"/>
<text text-anchor="middle" x="61.25" y="-11.38" font-family="Times,serif" font-size="10.00">mal&#45;toolkit/mal&#45;toolkit.hpp</text>
</a>
</g>
</g>
<!-- Node1&#45;&gt;Node2 -->
<g id="edge1_Node000001_Node000002" class="edge">
<title>Node1&#45;&gt;Node2</title>
<g id="a_edge1_Node000001_Node000002"><a xlink:title=" ">
<path fill="none" stroke="#63b8ff" d="M253.26,-70.99C208.21,-58.14 144.9,-40.09 103.48,-28.29"/>
<polygon fill="#63b8ff" stroke="#63b8ff" points="104.51,-24.66 93.93,-25.28 102.59,-31.39 104.51,-24.66"/>
</a>
</g>
</g>
<!-- Node3 -->
<g id="Node000003" class="node">
<title>Node3</title>
<g id="a_Node000003"><a xlink:title=" ">
<polygon fill="#e0e0e0" stroke="#999999" points="239.5,-30.5 141,-30.5 141,0 239.5,0 239.5,-30.5"/>
<text text-anchor="start" x="149" y="-17" font-family="Times,serif" font-size="10.00">boost/archive/binary</text>
<text text-anchor="middle" x="190.25" y="-5.75" font-family="Times,serif" font-size="10.00">_iarchive.hpp</text>
</a>
</g>
</g>
<!-- Node1&#45;&gt;Node3 -->
<g id="edge2_Node000001_Node000003" class="edge">
<title>Node1&#45;&gt;Node3</title>
<g id="a_edge2_Node000001_Node000003"><a xlink:title=" ">
<path fill="none" stroke="#63b8ff" d="M273.41,-66.09C257.87,-56.78 239.49,-45.76 223.97,-36.46"/>
<polygon fill="#63b8ff" stroke="#63b8ff" points="226.1,-33.06 215.73,-30.92 222.5,-39.06 226.1,-33.06"/>
</a>
</g>
</g>
<!-- Node4 -->
<g id="Node000004" class="node">
<title>Node4</title>
<g id="a_Node000004"><a xlink:title=" ">
<polygon fill="#e0e0e0" stroke="#999999" points="356.5,-30.5 258,-30.5 258,0 356.5,0 356.5,-30.5"/>
<text text-anchor="start" x="266" y="-17" font-family="Times,serif" font-size="10.00">boost/archive/binary</text>
<text text-anchor="middle" x="307.25" y="-5.75" font-family="Times,serif" font-size="10.00">_oarchive.hpp</text>
</a>
</g>
</g>
<!-- Node1&#45;&gt;Node4 -->
<g id="edge3_Node000001_Node000004" class="edge">
<title>Node1&#45;&gt;Node4</title>
<g id="a_edge3_Node000001_Node000004"><a xlink:title=" ">
<path fill="none" stroke="#63b8ff" d="M307.25,-66.09C307.25,-58.39 307.25,-49.53 307.25,-41.44"/>
<polygon fill="#63b8ff" stroke="#63b8ff" points="310.75,-41.7 307.25,-31.7 303.75,-41.7 310.75,-41.7"/>
</a>
</g>
</g>
<!-- Node5 -->
<g id="Node000005" class="node">
<title>Node5</title>
<g id="a_Node000005"><a xlink:title=" ">
<polygon fill="#e0e0e0" stroke="#999999" points="464,-30.5 374.5,-30.5 374.5,0 464,0 464,-30.5"/>
<text text-anchor="start" x="382.5" y="-17" font-family="Times,serif" font-size="10.00">boost/serialization</text>
<text text-anchor="middle" x="419.25" y="-5.75" font-family="Times,serif" font-size="10.00">/base_object.hpp</text>
</a>
</g>
</g>
<!-- Node1&#45;&gt;Node5 -->
<g id="edge4_Node000001_Node000005" class="edge">
<title>Node1&#45;&gt;Node5</title>
<g id="a_edge4_Node000001_Node000005"><a xlink:title=" ">
<path fill="none" stroke="#63b8ff" d="M339.65,-66.09C354.38,-56.87 371.78,-45.97 386.55,-36.72"/>
<polygon fill="#63b8ff" stroke="#63b8ff" points="388.2,-39.19 394.82,-30.92 384.49,-33.26 388.2,-39.19"/>
</a>
</g>
</g>
<!-- Node6 -->
<g id="Node000006" class="node">
<title>Node6</title>
<g id="a_Node000006"><a xlink:title=" ">
<polygon fill="#e0e0e0" stroke="#999999" points="572,-30.5 482.5,-30.5 482.5,0 572,0 572,-30.5"/>
<text text-anchor="start" x="490.5" y="-17" font-family="Times,serif" font-size="10.00">boost/serialization</text>
<text text-anchor="middle" x="527.25" y="-5.75" font-family="Times,serif" font-size="10.00">/serialization.hpp</text>
</a>
</g>
</g>
<!-- Node1&#45;&gt;Node6 -->
<g id="edge5_Node000001_Node000006" class="edge">
<title>Node1&#45;&gt;Node6</title>
<g id="a_edge5_Node000001_Node000006"><a xlink:title=" ">
<path fill="none" stroke="#63b8ff" d="M361.35,-69.13C395.02,-58.4 438.2,-44.63 472.07,-33.84"/>
<polygon fill="#63b8ff" stroke="#63b8ff" points="472.79,-36.96 481.26,-30.59 470.67,-30.29 472.79,-36.96"/>
</a>
</g>
</g>
</g>
</svg>
