<?xml version="1.0" encoding="UTF-8" standalone="no"?>
<!DOCTYPE svg PUBLIC "-//W3C//DTD SVG 1.1//EN"
 "http://www.w3.org/Graphics/SVG/1.1/DTD/svg11.dtd">
<!-- Generated by graphviz version 9.0.0 (20230911.1827)
 -->
<!-- Title: mal_toolkit::non_copyable_non_movable Pages: 1 -->
<svg width="418pt" height="137pt"
 viewBox="0.00 0.00 418.25 136.50" xmlns="http://www.w3.org/2000/svg" xmlns:xlink="http://www.w3.org/1999/xlink">
<g id="graph0" class="graph" transform="scale(1 1) rotate(0) translate(4 132.5)">
<title>mal_toolkit::non_copyable_non_movable</title>
<!-- Node1 -->
<g id="Node000001" class="node">
<title>Node1</title>
<g id="a_Node000001"><a xlink:title="A class that can&#39;t be copied neither moved.">
<polygon fill="#999999" stroke="#666666" points="275,-79.5 155.5,-79.5 155.5,-49 275,-49 275,-79.5"/>
<text text-anchor="start" x="163.5" y="-66" font-family="Times,serif" font-size="10.00">mal_toolkit::non_copyable</text>
<text text-anchor="middle" x="215.25" y="-54.75" font-family="Times,serif" font-size="10.00">_non_movable</text>
</a>
</g>
</g>
<!-- Node4 -->
<g id="Node000004" class="node">
<title>Node4</title>
<g id="a_Node000004"><a xlink:href="../../d3/dbd/classmal__packet__weaver_1_1_dispatcher_session.html" target="_top" xlink:title="Represents a session with packet dispatching functionality.">
<polygon fill="white" stroke="#666666" points="410.25,-128.5 311,-128.5 311,-98 410.25,-98 410.25,-128.5"/>
<text text-anchor="start" x="319" y="-115" font-family="Times,serif" font-size="10.00">mal_packet_weaver::</text>
<text text-anchor="middle" x="360.62" y="-103.75" font-family="Times,serif" font-size="10.00">DispatcherSession</text>
</a>
</g>
</g>
<!-- Node1&#45;&gt;Node4 -->
<g id="edge3_Node000001_Node000004" class="edge">
<title>Node1&#45;&gt;Node4</title>
<g id="a_edge3_Node000001_Node000004"><a xlink:title=" ">
<path fill="none" stroke="#63b8ff" d="M272.73,-83.55C286.35,-88.21 300.74,-93.13 313.81,-97.59"/>
<polygon fill="#63b8ff" stroke="#63b8ff" points="274.04,-80.3 263.44,-80.38 271.77,-86.92 274.04,-80.3"/>
</a>
</g>
</g>
<!-- Node5 -->
<g id="Node000005" class="node">
<title>Node5</title>
<g id="a_Node000005"><a xlink:href="../../d4/d61/classmal__packet__weaver_1_1_packet_dispatcher.html" target="_top" xlink:title="The PacketDispatcher class is responsible for managing packet dispatching and handling.">
<polygon fill="white" stroke="#666666" points="410.25,-79.5 311,-79.5 311,-49 410.25,-49 410.25,-79.5"/>
<text text-anchor="start" x="319" y="-66" font-family="Times,serif" font-size="10.00">mal_packet_weaver::</text>
<text text-anchor="middle" x="360.62" y="-54.75" font-family="Times,serif" font-size="10.00">PacketDispatcher</text>
</a>
</g>
</g>
<!-- Node1&#45;&gt;Node5 -->
<g id="edge4_Node000001_Node000005" class="edge">
<title>Node1&#45;&gt;Node5</title>
<g id="a_edge4_Node000001_Node000005"><a xlink:title=" ">
<path fill="none" stroke="#63b8ff" d="M286.76,-64.25C294.84,-64.25 302.94,-64.25 310.65,-64.25"/>
<polygon fill="#63b8ff" stroke="#63b8ff" points="286.91,-60.75 276.91,-64.25 286.91,-67.75 286.91,-60.75"/>
</a>
</g>
</g>
<!-- Node6 -->
<g id="Node000006" class="node">
<title>Node6</title>
<g id="a_Node000006"><a xlink:href="../../d8/d39/classmal__packet__weaver_1_1_session.html" target="_top" xlink:title="Represents a network session for sending and receiving packets.">
<polygon fill="white" stroke="#666666" points="410.25,-30.5 311,-30.5 311,0 410.25,0 410.25,-30.5"/>
<text text-anchor="start" x="319" y="-17" font-family="Times,serif" font-size="10.00">mal_packet_weaver::</text>
<text text-anchor="middle" x="360.62" y="-5.75" font-family="Times,serif" font-size="10.00">Session</text>
</a>
</g>
</g>
<!-- Node1&#45;&gt;Node6 -->
<g id="edge5_Node000001_Node000006" class="edge">
<title>Node1&#45;&gt;Node6</title>
<g id="a_edge5_Node000001_Node000006"><a xlink:title=" ">
<path fill="none" stroke="#63b8ff" d="M272.73,-44.95C286.35,-40.29 300.74,-35.37 313.81,-30.91"/>
<polygon fill="#63b8ff" stroke="#63b8ff" points="271.77,-41.58 263.44,-48.12 274.04,-48.2 271.77,-41.58"/>
</a>
</g>
</g>
<!-- Node2 -->
<g id="Node000002" class="node">
<title>Node2</title>
<g id="a_Node000002"><a xlink:href="../../d1/dd3/classmal__toolkit_1_1non__copyable.html" target="_top" xlink:title="A class that can&#39;t be copied.">
<polygon fill="white" stroke="#666666" points="119.5,-92.88 0,-92.88 0,-73.62 119.5,-73.62 119.5,-92.88"/>
<text text-anchor="middle" x="59.75" y="-79.38" font-family="Times,serif" font-size="10.00">mal_toolkit::non_copyable</text>
</a>
</g>
</g>
<!-- Node2&#45;&gt;Node1 -->
<g id="edge1_Node000001_Node000002" class="edge">
<title>Node2&#45;&gt;Node1</title>
<g id="a_edge1_Node000001_Node000002"><a xlink:title=" ">
<path fill="none" stroke="#63b8ff" d="M131.01,-74.55C139.11,-73.55 147.31,-72.54 155.25,-71.55"/>
<polygon fill="#63b8ff" stroke="#63b8ff" points="130.65,-71.07 121.16,-75.77 131.51,-78.02 130.65,-71.07"/>
</a>
</g>
</g>
<!-- Node3 -->
<g id="Node000003" class="node">
<title>Node3</title>
<g id="a_Node000003"><a xlink:href="../../db/d86/classmal__toolkit_1_1non__movable.html" target="_top" xlink:title="A class that can&#39;t be moved.">
<polygon fill="white" stroke="#666666" points="118.75,-55.88 0.75,-55.88 0.75,-36.62 118.75,-36.62 118.75,-55.88"/>
<text text-anchor="middle" x="59.75" y="-42.38" font-family="Times,serif" font-size="10.00">mal_toolkit::non_movable</text>
</a>
</g>
</g>
<!-- Node3&#45;&gt;Node1 -->
<g id="edge2_Node000001_Node000003" class="edge">
<title>Node3&#45;&gt;Node1</title>
<g id="a_edge2_Node000001_Node000003"><a xlink:title=" ">
<path fill="none" stroke="#63b8ff" d="M130.4,-54.42C138.68,-55.39 147.07,-56.37 155.18,-57.32"/>
<polygon fill="#63b8ff" stroke="#63b8ff" points="131.06,-50.97 120.72,-53.28 130.25,-57.92 131.06,-50.97"/>
</a>
</g>
</g>
</g>
</svg>
