<?xml version="1.0" encoding="UTF-8" standalone="no"?>
<!DOCTYPE svg PUBLIC "-//W3C//DTD SVG 1.1//EN"
 "http://www.w3.org/Graphics/SVG/1.1/DTD/svg11.dtd">
<!-- Generated by graphviz version 8.1.0 (20230707.0739)
 -->
<!-- Title: mal_packet_weaver::Session::Session Pages: 1 -->
<!--zoomable 456 -->

<svg id="main" version="1.1" xmlns="http://www.w3.org/2000/svg" xmlns:xlink="http://www.w3.org/1999/xlink" xml:space="preserve" onload="init(evt)">
<style type="text/css"><![CDATA[
.node, .edge {opacity: 0.7;}
.node.selected, .edge.selected {opacity: 1;}
.edge:hover path { stroke: red; }
.edge:hover polygon { stroke: red; fill: red; }
]]></style>

<defs>
  <circle id="rim" cx="0" cy="0" r="7"/>
  <circle id="rim2" cx="0" cy="0" r="3.5"/>
  <g id="zoomPlus">
    <use xlink:href="#rim" fill="#404040"><set attributeName="fill" to="#808080" begin="zoomplus.mouseover" end="zoomplus.mouseout"/></use>
    <path d="M-4,0h8M0,-4v8" fill="none" stroke="white" stroke-width="1.5" pointer-events="none"/>
  </g>
  <g id="zoomMin">
    <use xlink:href="#rim" fill="#404040"><set attributeName="fill" to="#808080" begin="zoomminus.mouseover" end="zoomminus.mouseout"/></use>
    <path d="M-4,0h8" fill="none" stroke="white" stroke-width="1.5" pointer-events="none"/>
  </g>
  <g id="arrowUp" transform="translate(30 24)">
    <use xlink:href="#rim"/>
    <path pointer-events="none" fill="none" stroke="white" stroke-width="1.5" d="M0,-3.0v7 M-2.5,-0.5L0,-3.0L2.5,-0.5"/>
  </g>
  <g id="arrowRight" transform="rotate(90) translate(36 -43)">
    <use xlink:href="#rim"/>
    <path pointer-events="none" fill="none" stroke="white" stroke-width="1.5" d="M0,-3.0v7 M-2.5,-0.5L0,-3.0L2.5,-0.5"/>
  </g>
  <g id="arrowDown" transform="rotate(180) translate(-30 -48)">
    <use xlink:href="#rim"/>
    <path pointer-events="none" fill="none" stroke="white" stroke-width="1.5" d="M0,-3.0v7 M-2.5,-0.5L0,-3.0L2.5,-0.5"/>
  </g>
  <g id="arrowLeft" transform="rotate(270) translate(-36 17)">
    <use xlink:href="#rim"/>
    <path pointer-events="none" fill="none" stroke="white" stroke-width="1.5" d="M0,-3.0v7 M-2.5,-0.5L0,-3.0L2.5,-0.5"/>
  </g>
  <g id="resetDef">
    <use xlink:href="#rim2" fill="#404040"><set attributeName="fill" to="#808080" begin="reset.mouseover" end="reset.mouseout"/></use>
  </g>
</defs>
<script type="application/ecmascript">
var viewWidth = 716;
var viewHeight = 456;
var sectionId = 'dynsection-2';
</script>
<script type="application/ecmascript" xlink:href="../../svg.min.js"/>
<svg id="graph" class="graph">
<g id="viewport">
<title>mal_packet_weaver::Session::Session</title>
<!-- Node1 -->
<g id="Node000001" class="node">
<title>Node1</title>
<g id="a_Node000001"><a xlink:title="Constructor for the Session class.">
<polygon fill="#999999" stroke="#666666" points="99.25,-312.5 0,-312.5 0,-282 99.25,-282 99.25,-312.5"/>
<text text-anchor="start" x="8" y="-299" font-family="Times,serif" font-size="10.00">mal_packet_weaver::</text>
<text text-anchor="middle" x="49.62" y="-287.75" font-family="Times,serif" font-size="10.00">Session::Session</text>
</a>
</g>
</g>
<!-- Node2 -->
<g id="Node000002" class="node">
<title>Node2</title>
<g id="a_Node000002"><a xlink:href="../../d8/d39/classmal__packet__weaver_1_1_session.html#ab8d02d6502bb180c3b0f383b3fddc6ca" target="_top" xlink:title="Asynchronously forges new packets from the buffer.">
<polygon fill="white" stroke="#666666" points="381.75,-378.12 278.75,-378.12 278.75,-336.38 381.75,-336.38 381.75,-378.12"/>
<text text-anchor="start" x="286.75" y="-364.62" font-family="Times,serif" font-size="10.00">mal_packet_weaver::</text>
<text text-anchor="start" x="286.75" y="-353.38" font-family="Times,serif" font-size="10.00">Session::async_packet</text>
<text text-anchor="middle" x="330.25" y="-342.12" font-family="Times,serif" font-size="10.00">_forger</text>
</a>
</g>
</g>
<!-- Node1&#45;&gt;Node2 -->
<g id="edge1_Node000001_Node000002" class="edge">
<title>Node1&#45;&gt;Node2</title>
<g id="a_edge1_Node000001_Node000002"><a xlink:title=" ">
<path fill="none" stroke="#63b8ff" d="M99.48,-307.77C146.39,-317.87 217.43,-333.17 268.09,-344.08"/>
<polygon fill="#63b8ff" stroke="#63b8ff" points="267.06,-347.65 277.57,-346.34 268.53,-340.81 267.06,-347.65"/>
</a>
</g>
</g>
<!-- Node9 -->
<g id="Node000009" class="node">
<title>Node9</title>
<g id="a_Node000009"><a xlink:href="../../d8/d39/classmal__packet__weaver_1_1_session.html#a95349691831542cec27090d0ab21ca88" target="_top" xlink:title="Asynchronously receives and processes incoming packets from the network.">
<polygon fill="white" stroke="#666666" points="381.75,-318.12 278.75,-318.12 278.75,-276.38 381.75,-276.38 381.75,-318.12"/>
<text text-anchor="start" x="286.75" y="-304.62" font-family="Times,serif" font-size="10.00">mal_packet_weaver::</text>
<text text-anchor="start" x="286.75" y="-293.38" font-family="Times,serif" font-size="10.00">Session::async_packet</text>
<text text-anchor="middle" x="330.25" y="-282.12" font-family="Times,serif" font-size="10.00">_sender</text>
</a>
</g>
</g>
<!-- Node1&#45;&gt;Node9 -->
<g id="edge8_Node000001_Node000009" class="edge">
<title>Node1&#45;&gt;Node9</title>
<g id="a_edge8_Node000001_Node000009"><a xlink:title=" ">
<path fill="none" stroke="#63b8ff" d="M99.48,-297.25C146.3,-297.25 217.13,-297.25 267.77,-297.25"/>
<polygon fill="#63b8ff" stroke="#63b8ff" points="267.57,-300.75 277.57,-297.25 267.57,-293.75 267.57,-300.75"/>
</a>
</g>
</g>
<!-- Node11 -->
<g id="Node000011" class="node">
<title>Node11</title>
<g id="a_Node000011"><a xlink:href="../../d8/d39/classmal__packet__weaver_1_1_session.html#a71ede34f71a6dc30d56d99015997caa3" target="_top" xlink:title="Asynchronously sends all packets in the queue through the network.">
<polygon fill="white" stroke="#666666" points="234.5,-199.5 135.25,-199.5 135.25,-169 234.5,-169 234.5,-199.5"/>
<text text-anchor="start" x="143.25" y="-186" font-family="Times,serif" font-size="10.00">mal_packet_weaver::</text>
<text text-anchor="middle" x="184.88" y="-174.75" font-family="Times,serif" font-size="10.00">Session::send_all</text>
</a>
</g>
</g>
<!-- Node1&#45;&gt;Node11 -->
<g id="edge14_Node000001_Node000011" class="edge">
<title>Node1&#45;&gt;Node11</title>
<g id="a_edge14_Node000001_Node000011"><a xlink:title=" ">
<path fill="none" stroke="#63b8ff" d="M69.15,-281.54C92.03,-262.14 131.09,-229.01 157.19,-206.88"/>
<polygon fill="#63b8ff" stroke="#63b8ff" points="159.14,-208.97 164.5,-199.83 154.61,-203.63 159.14,-208.97"/>
</a>
</g>
</g>
<!-- Node3 -->
<g id="Node000003" class="node">
<title>Node3</title>
<g id="a_Node000003"><a xlink:href="../../df/df5/namespacemal__toolkit.html#a8405b24c94e717d8a57da64b1483a4a9" target="_top" xlink:title="Always asserts a condition with customizable behavior.">
<polygon fill="white" stroke="#666666" points="547.38,-398.88 427.12,-398.88 427.12,-379.62 547.38,-379.62 547.38,-398.88"/>
<text text-anchor="middle" x="487.25" y="-385.38" font-family="Times,serif" font-size="10.00">mal_toolkit::AlwaysAssert</text>
</a>
</g>
</g>
<!-- Node2&#45;&gt;Node3 -->
<g id="edge2_Node000002_Node000003" class="edge">
<title>Node2&#45;&gt;Node3</title>
<g id="a_edge2_Node000002_Node000003"><a xlink:title=" ">
<path fill="none" stroke="#63b8ff" d="M382,-367.73C396.28,-370.68 411.94,-373.91 426.69,-376.95"/>
<polygon fill="#63b8ff" stroke="#63b8ff" points="425.73,-380.54 436.23,-379.13 427.14,-373.68 425.73,-380.54"/>
</a>
</g>
</g>
<!-- Node5 -->
<g id="Node000005" class="node">
<title>Node5</title>
<g id="a_Node000005"><a xlink:href="../../df/df5/namespacemal__toolkit.html#a5c77c699bb81839f37c2b5d956d8e2df" target="_top" xlink:title="Convert a byte array to a uint32_t value using little&#45;endian byte order.">
<polygon fill="white" stroke="#666666" points="530.12,-361.5 444.38,-361.5 444.38,-331 530.12,-331 530.12,-361.5"/>
<text text-anchor="start" x="452.38" y="-348" font-family="Times,serif" font-size="10.00">mal_toolkit::bytes</text>
<text text-anchor="middle" x="487.25" y="-336.75" font-family="Times,serif" font-size="10.00">_to_uint32</text>
</a>
</g>
</g>
<!-- Node2&#45;&gt;Node5 -->
<g id="edge4_Node000002_Node000005" class="edge">
<title>Node2&#45;&gt;Node5</title>
<g id="a_edge4_Node000002_Node000005"><a xlink:title=" ">
<path fill="none" stroke="#63b8ff" d="M382,-353.65C398.44,-352.48 416.71,-351.18 433.31,-350.01"/>
<polygon fill="#63b8ff" stroke="#63b8ff" points="433.21,-353.45 442.94,-349.25 432.71,-346.47 433.21,-353.45"/>
</a>
</g>
</g>
<!-- Node6 -->
<g id="Node000006" class="node">
<title>Node6</title>
<g id="a_Node000006"><a xlink:href="../../d1/da7/classmal__toolkit_1_1_exponential_backoff.html#aa83694a9b15273a1abbf95722b71fcca" target="_top" xlink:title="Decrease the backoff delay using divisor factor.">
<polygon fill="white" stroke="#666666" points="542.88,-447.5 431.62,-447.5 431.62,-417 542.88,-417 542.88,-447.5"/>
<text text-anchor="start" x="439.62" y="-434" font-family="Times,serif" font-size="10.00">mal_toolkit::Exponential</text>
<text text-anchor="middle" x="487.25" y="-422.75" font-family="Times,serif" font-size="10.00">Backoff::decrease_delay</text>
</a>
</g>
</g>
<!-- Node2&#45;&gt;Node6 -->
<g id="edge5_Node000002_Node000006" class="edge">
<title>Node2&#45;&gt;Node6</title>
<g id="a_edge5_Node000002_Node000006"><a xlink:title=" ">
<path fill="none" stroke="#63b8ff" d="M368.55,-378.61C385.8,-388.15 406.7,-399.25 426,-408.25 428.97,-409.63 432.03,-411.01 435.14,-412.37"/>
<polygon fill="#63b8ff" stroke="#63b8ff" points="433.57,-415.93 444.14,-416.61 436.3,-409.48 433.57,-415.93"/>
</a>
</g>
</g>
<!-- Node7 -->
<g id="Node000007" class="node">
<title>Node7</title>
<g id="a_Node000007"><a xlink:href="../../d1/da7/classmal__toolkit_1_1_exponential_backoff.html#a161c6f3c2d6e611ec15e3c6511182ec8" target="_top" xlink:title="Get the current backoff delay.">
<polygon fill="white" stroke="#666666" points="548.5,-214.5 426,-214.5 426,-184 548.5,-184 548.5,-214.5"/>
<text text-anchor="start" x="434" y="-201" font-family="Times,serif" font-size="10.00">mal_toolkit::Exponential</text>
<text text-anchor="middle" x="487.25" y="-189.75" font-family="Times,serif" font-size="10.00">Backoff::get_current_delay</text>
</a>
</g>
</g>
<!-- Node2&#45;&gt;Node7 -->
<g id="edge6_Node000002_Node000007" class="edge">
<title>Node2&#45;&gt;Node7</title>
<g id="a_edge6_Node000002_Node000007"><a xlink:title=" ">
<path fill="none" stroke="#63b8ff" d="M380.56,-335.96C384.01,-333.34 387.21,-330.44 390,-327.25 421.88,-290.71 392.7,-259.5 426,-224.25 426.96,-223.23 427.97,-222.25 429.02,-221.31"/>
<polygon fill="#63b8ff" stroke="#63b8ff" points="430.81,-223.6 436.77,-214.84 426.65,-217.98 430.81,-223.6"/>
</a>
</g>
</g>
<!-- Node8 -->
<g id="Node000008" class="node">
<title>Node8</title>
<g id="a_Node000008"><a xlink:href="../../d1/da7/classmal__toolkit_1_1_exponential_backoff.html#ad9374a1e0241fcbae8c9fa4d7c3175f8" target="_top" xlink:title="Increase the backoff delay using exponential factor.">
<polygon fill="white" stroke="#666666" points="542.88,-263.5 431.62,-263.5 431.62,-233 542.88,-233 542.88,-263.5"/>
<text text-anchor="start" x="439.62" y="-250" font-family="Times,serif" font-size="10.00">mal_toolkit::Exponential</text>
<text text-anchor="middle" x="487.25" y="-238.75" font-family="Times,serif" font-size="10.00">Backoff::increase_delay</text>
</a>
</g>
</g>
<!-- Node2&#45;&gt;Node8 -->
<g id="edge7_Node000002_Node000008" class="edge">
<title>Node2&#45;&gt;Node8</title>
<g id="a_edge7_Node000002_Node000008"><a xlink:title=" ">
<path fill="none" stroke="#63b8ff" d="M378.54,-335.92C382.6,-333.26 386.49,-330.37 390,-327.25 411.54,-308.07 403.72,-291.57 426,-273.25 427.61,-271.93 429.29,-270.67 431.04,-269.47"/>
<polygon fill="#63b8ff" stroke="#63b8ff" points="432.44,-272.11 439.19,-263.94 428.82,-266.12 432.44,-272.11"/>
</a>
</g>
</g>
<!-- Node4 -->
<g id="Node000004" class="node">
<title>Node4</title>
<g id="a_Node000004"><a xlink:href="../../df/df5/namespacemal__toolkit.html#a27bf9441da264c7f90650042e9e30f40" target="_top" xlink:title="Returns an empty string representing the current source location.">
<polygon fill="white" stroke="#666666" points="707.75,-404.5 584.5,-404.5 584.5,-374 707.75,-374 707.75,-404.5"/>
<text text-anchor="start" x="592.5" y="-391" font-family="Times,serif" font-size="10.00">mal_toolkit::CurrentSource</text>
<text text-anchor="middle" x="646.12" y="-379.75" font-family="Times,serif" font-size="10.00">Location</text>
</a>
</g>
</g>
<!-- Node3&#45;&gt;Node4 -->
<g id="edge3_Node000003_Node000004" class="edge">
<title>Node3&#45;&gt;Node4</title>
<g id="a_edge3_Node000003_Node000004"><a xlink:title=" ">
<path fill="none" stroke="#63b8ff" d="M547.56,-389.25C555.98,-389.25 564.71,-389.25 573.33,-389.25"/>
<polygon fill="#63b8ff" stroke="#63b8ff" points="573.17,-392.75 583.17,-389.25 573.17,-385.75 573.17,-392.75"/>
</a>
</g>
</g>
<!-- Node9&#45;&gt;Node5 -->
<g id="edge9_Node000009_Node000005" class="edge">
<title>Node9&#45;&gt;Node5</title>
<g id="a_edge9_Node000009_Node000005"><a xlink:title=" ">
<path fill="none" stroke="#63b8ff" d="M382,-313.29C398.6,-318.54 417.06,-324.38 433.78,-329.66"/>
<polygon fill="#63b8ff" stroke="#63b8ff" points="432.35,-333.2 442.94,-332.87 434.46,-326.52 432.35,-333.2"/>
</a>
</g>
</g>
<!-- Node9&#45;&gt;Node6 -->
<g id="edge10_Node000009_Node000006" class="edge">
<title>Node9&#45;&gt;Node6</title>
<g id="a_edge10_Node000009_Node000006"><a xlink:title=" ">
<path fill="none" stroke="#63b8ff" d="M379.99,-318.59C383.61,-321.21 387.01,-324.09 390,-327.25 417.1,-355.85 397.6,-380.94 426,-408.25 426.73,-408.95 427.48,-409.63 428.25,-410.29"/>
<polygon fill="#63b8ff" stroke="#63b8ff" points="426.01,-413.71 436.18,-416.67 430.08,-408.01 426.01,-413.71"/>
</a>
</g>
</g>
<!-- Node9&#45;&gt;Node7 -->
<g id="edge11_Node000009_Node000007" class="edge">
<title>Node9&#45;&gt;Node7</title>
<g id="a_edge11_Node000009_Node000007"><a xlink:title=" ">
<path fill="none" stroke="#63b8ff" d="M354.93,-276.16C373.38,-260.46 400.12,-239.23 426,-224.25 428.8,-222.63 431.73,-221.06 434.72,-219.55"/>
<polygon fill="#63b8ff" stroke="#63b8ff" points="435.88,-222.39 443.4,-214.93 432.86,-216.07 435.88,-222.39"/>
</a>
</g>
</g>
<!-- Node9&#45;&gt;Node8 -->
<g id="edge12_Node000009_Node000008" class="edge">
<title>Node9&#45;&gt;Node8</title>
<g id="a_edge12_Node000009_Node000008"><a xlink:title=" ">
<path fill="none" stroke="#63b8ff" d="M382,-281.21C396.07,-276.76 411.48,-271.89 426.03,-267.29"/>
<polygon fill="#63b8ff" stroke="#63b8ff" points="426.96,-270.35 435.44,-264 424.85,-263.67 426.96,-270.35"/>
</a>
</g>
</g>
<!-- Node10 -->
<g id="Node000010" class="node">
<title>Node10</title>
<g id="a_Node000010"><a xlink:href="../../d8/d99/structmal__toolkit_1_1_byte_array.html#a33b603234734c1cdddee3fb854988181" target="_top" xlink:title="Create a ByteView of a subsequence of the byte array.">
<polygon fill="white" stroke="#666666" points="540.62,-312.5 433.88,-312.5 433.88,-282 540.62,-282 540.62,-312.5"/>
<text text-anchor="start" x="441.88" y="-299" font-family="Times,serif" font-size="10.00">mal_toolkit::ByteArray</text>
<text text-anchor="middle" x="487.25" y="-287.75" font-family="Times,serif" font-size="10.00">::view</text>
</a>
</g>
</g>
<!-- Node9&#45;&gt;Node10 -->
<g id="edge13_Node000009_Node000010" class="edge">
<title>Node9&#45;&gt;Node10</title>
<g id="a_edge13_Node000009_Node000010"><a xlink:title=" ">
<path fill="none" stroke="#63b8ff" d="M382,-297.25C395.03,-297.25 409.21,-297.25 422.79,-297.25"/>
<polygon fill="#63b8ff" stroke="#63b8ff" points="422.52,-300.75 432.52,-297.25 422.52,-293.75 422.52,-300.75"/>
</a>
</g>
</g>
<!-- Node11&#45;&gt;Node6 -->
<g id="edge18_Node000011_Node000006" class="edge">
<title>Node11&#45;&gt;Node6</title>
<g id="a_edge18_Node000011_Node000006"><a xlink:title=" ">
<path fill="none" stroke="#63b8ff" d="M187.5,-199.83C192.37,-238.18 210.46,-337.62 270.5,-387.25 312.27,-421.78 373.87,-431.87 420.57,-434"/>
<polygon fill="#63b8ff" stroke="#63b8ff" points="420.38,-437.53 430.49,-434.37 420.61,-430.54 420.38,-437.53"/>
</a>
</g>
</g>
<!-- Node11&#45;&gt;Node7 -->
<g id="edge19_Node000011_Node000007" class="edge">
<title>Node11&#45;&gt;Node7</title>
<g id="a_edge19_Node000011_Node000007"><a xlink:title=" ">
<path fill="none" stroke="#63b8ff" d="M234.64,-182.23C246.38,-181.82 258.89,-181.46 270.5,-181.25 323.6,-180.31 337.12,-176.35 390,-181.25 398.15,-182.01 406.64,-183.11 415.06,-184.42"/>
<polygon fill="#63b8ff" stroke="#63b8ff" points="414.21,-187.99 424.65,-186.16 415.35,-181.08 414.21,-187.99"/>
</a>
</g>
</g>
<!-- Node11&#45;&gt;Node8 -->
<g id="edge23_Node000011_Node000008" class="edge">
<title>Node11&#45;&gt;Node8</title>
<g id="a_edge23_Node000011_Node000008"><a xlink:title=" ">
<path fill="none" stroke="#63b8ff" d="M209.21,-199.96C225.61,-210.16 248.48,-222.72 270.5,-229.25 319.42,-243.76 377.09,-248.22 420.49,-249.22"/>
<polygon fill="#63b8ff" stroke="#63b8ff" points="420.43,-252.73 430.49,-249.4 420.55,-245.73 420.43,-252.73"/>
</a>
</g>
</g>
<!-- Node12 -->
<g id="Node000012" class="node">
<title>Node12</title>
<g id="a_Node000012"><a xlink:href="../../d8/d99/structmal__toolkit_1_1_byte_array.html#aa3d43592b3a16ad73860e290f28b9ce9" target="_top" xlink:title="Append multiple data sources to the byte array.">
<polygon fill="white" stroke="#666666" points="383.62,-116.5 276.88,-116.5 276.88,-86 383.62,-86 383.62,-116.5"/>
<text text-anchor="start" x="284.88" y="-103" font-family="Times,serif" font-size="10.00">mal_toolkit::ByteArray</text>
<text text-anchor="middle" x="330.25" y="-91.75" font-family="Times,serif" font-size="10.00">::append</text>
</a>
</g>
</g>
<!-- Node11&#45;&gt;Node12 -->
<g id="edge15_Node000011_Node000012" class="edge">
<title>Node11&#45;&gt;Node12</title>
<g id="a_edge15_Node000011_Node000012"><a xlink:title=" ">
<path fill="none" stroke="#63b8ff" d="M212.84,-168.64C235.47,-155.54 268,-136.71 292.92,-122.28"/>
<polygon fill="#63b8ff" stroke="#63b8ff" points="294.5,-124.83 301.4,-116.79 291,-118.77 294.5,-124.83"/>
</a>
</g>
</g>
<!-- Node13 -->
<g id="Node000013" class="node">
<title>Node13</title>
<g id="a_Node000013"><a xlink:href="../../d8/d99/structmal__toolkit_1_1_byte_array.html#ab23437254557962a474e4ba7c5e25fe4" target="_top" xlink:title="Convert the ByteArray to a typed pointer.">
<polygon fill="white" stroke="#666666" points="390,-67.88 270.5,-67.88 270.5,-48.62 390,-48.62 390,-67.88"/>
<text text-anchor="middle" x="330.25" y="-54.38" font-family="Times,serif" font-size="10.00">mal_toolkit::ByteArray::as</text>
</a>
</g>
</g>
<!-- Node11&#45;&gt;Node13 -->
<g id="edge17_Node000011_Node000013" class="edge">
<title>Node11&#45;&gt;Node13</title>
<g id="a_edge17_Node000011_Node000013"><a xlink:title=" ">
<path fill="none" stroke="#63b8ff" d="M194.13,-168.76C207.26,-145.55 235.1,-101.84 270.5,-77.25 272.77,-75.67 275.18,-74.22 277.68,-72.88"/>
<polygon fill="#63b8ff" stroke="#63b8ff" points="279.04,-75.65 286.65,-68.28 276.1,-69.29 279.04,-75.65"/>
</a>
</g>
</g>
<!-- Node14 -->
<g id="Node000014" class="node">
<title>Node14</title>
<g id="a_Node000014"><a xlink:href="../../d8/d39/classmal__packet__weaver_1_1_session.html#a44aae33be31d6dd7db9feb4142b3239e" target="_top" xlink:title="Retrieves a shared pointer to the current session.">
<polygon fill="white" stroke="#666666" points="385.5,-220.5 275,-220.5 275,-190 385.5,-190 385.5,-220.5"/>
<text text-anchor="start" x="283" y="-207" font-family="Times,serif" font-size="10.00">mal_packet_weaver::</text>
<text text-anchor="middle" x="330.25" y="-195.75" font-family="Times,serif" font-size="10.00">Session::get_shared_ptr</text>
</a>
</g>
</g>
<!-- Node11&#45;&gt;Node14 -->
<g id="edge20_Node000011_Node000014" class="edge">
<title>Node11&#45;&gt;Node14</title>
<g id="a_edge20_Node000011_Node000014"><a xlink:title=" ">
<path fill="none" stroke="#63b8ff" d="M234.82,-191.42C244.13,-192.78 254.01,-194.23 263.74,-195.66"/>
<polygon fill="#63b8ff" stroke="#63b8ff" points="263.22,-199.26 273.63,-197.25 264.24,-192.34 263.22,-199.26"/>
</a>
</g>
</g>
<!-- Node15 -->
<g id="Node000015" class="node">
<title>Node15</title>
<g id="a_Node000015"><a xlink:href="../../df/df5/namespacemal__toolkit.html#a205f8d4452e595ed3943f0d083c6033f" target="_top" xlink:title="Convert a uint32_t value to a ByteArray using little&#45;endian byte order.">
<polygon fill="white" stroke="#666666" points="375.75,-30.5 284.75,-30.5 284.75,0 375.75,0 375.75,-30.5"/>
<text text-anchor="start" x="292.75" y="-17" font-family="Times,serif" font-size="10.00">mal_toolkit::uint32</text>
<text text-anchor="middle" x="330.25" y="-5.75" font-family="Times,serif" font-size="10.00">_to_bytes</text>
</a>
</g>
</g>
<!-- Node11&#45;&gt;Node15 -->
<g id="edge24_Node000011_Node000015" class="edge">
<title>Node11&#45;&gt;Node15</title>
<g id="a_edge24_Node000011_Node000015"><a xlink:title=" ">
<path fill="none" stroke="#63b8ff" d="M191.01,-168.93C201.5,-139.82 228.03,-76.14 270.5,-39.25 272.06,-37.9 273.71,-36.61 275.42,-35.39"/>
<polygon fill="#63b8ff" stroke="#63b8ff" points="276.75,-38.07 283.43,-29.84 273.08,-32.11 276.75,-38.07"/>
</a>
</g>
</g>
<!-- Node12&#45;&gt;Node12 -->
<g id="edge16_Node000012_Node000012" class="edge">
<title>Node12&#45;&gt;Node12</title>
<g id="a_edge16_Node000012_Node000012"><a xlink:title=" ">
<path fill="none" stroke="#63b8ff" d="M304.49,-116.99C299.23,-126.06 307.82,-134.5 330.25,-134.5 342.87,-134.5 351.1,-131.83 354.96,-127.88"/>
<polygon fill="#63b8ff" stroke="#63b8ff" points="358.54,-128.28 356.01,-117.99 351.57,-127.6 358.54,-128.28"/>
</a>
</g>
</g>
<!-- Node14&#45;&gt;Node7 -->
<g id="edge21_Node000014_Node000007" class="edge">
<title>Node14&#45;&gt;Node7</title>
<g id="a_edge21_Node000014_Node000007"><a xlink:title=" ">
<path fill="none" stroke="#63b8ff" d="M385.9,-203.13C395.27,-202.77 405.13,-202.39 414.86,-202.01"/>
<polygon fill="#63b8ff" stroke="#63b8ff" points="414.91,-205.48 424.76,-201.59 414.64,-198.48 414.91,-205.48"/>
</a>
</g>
</g>
<!-- Node14&#45;&gt;Node8 -->
<g id="edge22_Node000014_Node000008" class="edge">
<title>Node14&#45;&gt;Node8</title>
<g id="a_edge22_Node000014_Node000008"><a xlink:title=" ">
<path fill="none" stroke="#63b8ff" d="M385.9,-220.41C397.17,-223.54 409.16,-226.86 420.78,-230.09"/>
<polygon fill="#63b8ff" stroke="#63b8ff" points="419.74,-233.71 430.31,-233.01 421.61,-226.96 419.74,-233.71"/>
</a>
</g>
</g>
</g>
</svg>

<g id="navigator" transform="translate(0 0)" fill="#404254">
  <rect fill="#f2f5e9" fill-opacity="0.5" stroke="#606060" stroke-width=".5" x="0" y="0" width="60" height="60"/>
  <use id="zoomplus" xlink:href="#zoomPlus" x="17" y="9" onmousedown="handleZoom(evt,'in')"/>
  <use id="zoomminus" xlink:href="#zoomMin" x="42" y="9" onmousedown="handleZoom(evt,'out')"/>
  <use id="reset" xlink:href="#resetDef" x="30" y="36" onmousedown="handleReset()"/>
   <use id="arrowup" xlink:href="#arrowUp" x="0" y="0" onmousedown="handlePan(0,-1)"/>
  <use id="arrowright" xlink:href="#arrowRight" x="0" y="0" onmousedown="handlePan(1,0)"/>
  <use id="arrowdown" xlink:href="#arrowDown" x="0" y="0" onmousedown="handlePan(0,1)"/>
  <use id="arrowleft" xlink:href="#arrowLeft" x="0" y="0" onmousedown="handlePan(-1,0)"/>
</g>
<svg viewBox="0 0 15 15" width="100%" height="30px" preserveAspectRatio="xMaxYMin meet">
 <g id="arrow_out" transform="scale(0.3 0.3)">
  <a xlink:href="classmal__packet__weaver_1_1_session_a5cf271c70d7ec610cfb01d0ed8655693_cgraph_org.svg" target="_base">
   <rect id="button" ry="5" rx="5" y="6" x="6" height="38" width="38"
        fill="#f2f5e9" fill-opacity="0.5" stroke="#606060" stroke-width="1.0"/>
   <path id="arrow"
     d="M 11.500037,31.436501 C 11.940474,20.09759 22.043105,11.32322 32.158766,21.979434 L 37.068811,17.246167 C 37.068811,17.246167 37.088388,32 37.088388,32 L 22.160133,31.978069 C 22.160133,31.978069 26.997745,27.140456 26.997745,27.140456 C 18.528582,18.264221 13.291696,25.230495 11.500037,31.436501 z"
     style="fill:#404040;"/>
  </a>
 </g>
</svg>

<style type='text/css'>
<![CDATA[
[data-mouse-over-selected='false'] { opacity: 0.7; }
[data-mouse-over-selected='true']  { opacity: 1.0; }
]]>
</style>
<script type="application/ecmascript"><![CDATA[
document.addEventListener('DOMContentLoaded', (event) => {
  highlightEdges();
  highlightAdjacentNodes();
});
]]></script>
</svg>
