<?xml version="1.0" encoding="UTF-8" standalone="no"?>
<!DOCTYPE svg PUBLIC "-//W3C//DTD SVG 1.1//EN"
 "http://www.w3.org/Graphics/SVG/1.1/DTD/svg11.dtd">
<!-- Generated by graphviz version 9.0.0 (20230911.1827)
 -->
<!-- Title: mal_packet_weaver::Session::send_all Pages: 1 -->
<svg width="413pt" height="315pt"
 viewBox="0.00 0.00 413.00 314.50" xmlns="http://www.w3.org/2000/svg" xmlns:xlink="http://www.w3.org/1999/xlink">
<g id="graph0" class="graph" transform="scale(1 1) rotate(0) translate(4 310.5)">
<title>mal_packet_weaver::Session::send_all</title>
<!-- Node1 -->
<g id="Node000001" class="node">
<title>Node1</title>
<g id="a_Node000001"><a xlink:title="Asynchronously sends all packets in the queue through the network.">
<polygon fill="#999999" stroke="#666666" points="99.25,-159.5 0,-159.5 0,-129 99.25,-129 99.25,-159.5"/>
<text text-anchor="start" x="8" y="-146" font-family="Times,serif" font-size="10.00">mal_packet_weaver::</text>
<text text-anchor="middle" x="49.62" y="-134.75" font-family="Times,serif" font-size="10.00">Session::send_all</text>
</a>
</g>
</g>
<!-- Node2 -->
<g id="Node000002" class="node">
<title>Node2</title>
<g id="a_Node000002"><a xlink:href="../../d8/d99/structmal__toolkit_1_1_byte_array.html#aa3d43592b3a16ad73860e290f28b9ce9" target="_top" xlink:title="Append multiple data sources to the byte array.">
<polygon fill="white" stroke="#666666" points="244.25,-288.5 137.5,-288.5 137.5,-258 244.25,-258 244.25,-288.5"/>
<text text-anchor="start" x="145.5" y="-275" font-family="Times,serif" font-size="10.00">mal_toolkit::ByteArray</text>
<text text-anchor="middle" x="190.88" y="-263.75" font-family="Times,serif" font-size="10.00">::append</text>
</a>
</g>
</g>
<!-- Node1&#45;&gt;Node2 -->
<g id="edge1_Node000001_Node000002" class="edge">
<title>Node1&#45;&gt;Node2</title>
<g id="a_edge1_Node000001_Node000002"><a xlink:title=" ">
<path fill="none" stroke="#63b8ff" d="M60.87,-159.73C75.45,-180.86 103.9,-218.99 135.25,-244.25 138.49,-246.86 142.01,-249.35 145.63,-251.69"/>
<polygon fill="#63b8ff" stroke="#63b8ff" points="143.72,-254.62 154.1,-256.74 147.31,-248.61 143.72,-254.62"/>
</a>
</g>
</g>
<!-- Node3 -->
<g id="Node000003" class="node">
<title>Node3</title>
<g id="a_Node000003"><a xlink:href="../../d8/d99/structmal__toolkit_1_1_byte_array.html#ab23437254557962a474e4ba7c5e25fe4" target="_top" xlink:title="Convert the ByteArray to a typed pointer.">
<polygon fill="white" stroke="#666666" points="403.5,-260.88 284,-260.88 284,-241.62 403.5,-241.62 403.5,-260.88"/>
<text text-anchor="middle" x="343.75" y="-247.38" font-family="Times,serif" font-size="10.00">mal_toolkit::ByteArray::as</text>
</a>
</g>
</g>
<!-- Node1&#45;&gt;Node3 -->
<g id="edge4_Node000001_Node000003" class="edge">
<title>Node1&#45;&gt;Node3</title>
<g id="a_edge4_Node000001_Node000003"><a xlink:title=" ">
<path fill="none" stroke="#63b8ff" d="M65.61,-159.89C81.43,-175.41 107.83,-198.67 135.25,-211.25 178.38,-231.03 230.9,-241.04 272.3,-246.09"/>
<polygon fill="#63b8ff" stroke="#63b8ff" points="271.83,-249.56 282.17,-247.22 272.63,-242.61 271.83,-249.56"/>
</a>
</g>
</g>
<!-- Node4 -->
<g id="Node000004" class="node">
<title>Node4</title>
<g id="a_Node000004"><a xlink:href="../../d1/da7/classmal__toolkit_1_1_exponential_backoff.html#aa83694a9b15273a1abbf95722b71fcca" target="_top" xlink:title="Decrease the backoff delay using divisor factor.">
<polygon fill="white" stroke="#666666" points="246.5,-202.5 135.25,-202.5 135.25,-172 246.5,-172 246.5,-202.5"/>
<text text-anchor="start" x="143.25" y="-189" font-family="Times,serif" font-size="10.00">mal_toolkit::Exponential</text>
<text text-anchor="middle" x="190.88" y="-177.75" font-family="Times,serif" font-size="10.00">Backoff::decrease_delay</text>
</a>
</g>
</g>
<!-- Node1&#45;&gt;Node4 -->
<g id="edge5_Node000001_Node000004" class="edge">
<title>Node1&#45;&gt;Node4</title>
<g id="a_edge5_Node000001_Node000004"><a xlink:title=" ">
<path fill="none" stroke="#63b8ff" d="M99.72,-159.41C109.05,-162.29 118.92,-165.34 128.57,-168.32"/>
<polygon fill="#63b8ff" stroke="#63b8ff" points="127.31,-171.59 137.89,-171.2 129.37,-164.9 127.31,-171.59"/>
</a>
</g>
</g>
<!-- Node5 -->
<g id="Node000005" class="node">
<title>Node5</title>
<g id="a_Node000005"><a xlink:href="../../d1/da7/classmal__toolkit_1_1_exponential_backoff.html#a161c6f3c2d6e611ec15e3c6511182ec8" target="_top" xlink:title="Get the current backoff delay.">
<polygon fill="white" stroke="#666666" points="405,-141.5 282.5,-141.5 282.5,-111 405,-111 405,-141.5"/>
<text text-anchor="start" x="290.5" y="-128" font-family="Times,serif" font-size="10.00">mal_toolkit::Exponential</text>
<text text-anchor="middle" x="343.75" y="-116.75" font-family="Times,serif" font-size="10.00">Backoff::get_current_delay</text>
</a>
</g>
</g>
<!-- Node1&#45;&gt;Node5 -->
<g id="edge6_Node000001_Node000005" class="edge">
<title>Node1&#45;&gt;Node5</title>
<g id="a_edge6_Node000001_Node000005"><a xlink:title=" ">
<path fill="none" stroke="#63b8ff" d="M99.52,-141.24C146.28,-138.36 217.35,-133.98 270.61,-130.69"/>
<polygon fill="#63b8ff" stroke="#63b8ff" points="270.76,-134.19 280.52,-130.08 270.32,-127.21 270.76,-134.19"/>
</a>
</g>
</g>
<!-- Node6 -->
<g id="Node000006" class="node">
<title>Node6</title>
<g id="a_Node000006"><a xlink:href="../../d8/d39/classmal__packet__weaver_1_1_session.html#a44aae33be31d6dd7db9feb4142b3239e" target="_top" xlink:title="Retrieves a shared pointer to the current session.">
<polygon fill="white" stroke="#666666" points="246.12,-116.5 135.62,-116.5 135.62,-86 246.12,-86 246.12,-116.5"/>
<text text-anchor="start" x="143.62" y="-103" font-family="Times,serif" font-size="10.00">mal_packet_weaver::</text>
<text text-anchor="middle" x="190.88" y="-91.75" font-family="Times,serif" font-size="10.00">Session::get_shared_ptr</text>
</a>
</g>
</g>
<!-- Node1&#45;&gt;Node6 -->
<g id="edge7_Node000001_Node000006" class="edge">
<title>Node1&#45;&gt;Node6</title>
<g id="a_edge7_Node000001_Node000006"><a xlink:title=" ">
<path fill="none" stroke="#63b8ff" d="M99.72,-129.09C109.05,-126.21 118.92,-123.16 128.57,-120.18"/>
<polygon fill="#63b8ff" stroke="#63b8ff" points="129.37,-123.6 137.89,-117.3 127.31,-116.91 129.37,-123.6"/>
</a>
</g>
</g>
<!-- Node7 -->
<g id="Node000007" class="node">
<title>Node7</title>
<g id="a_Node000007"><a xlink:href="../../d1/da7/classmal__toolkit_1_1_exponential_backoff.html#ad9374a1e0241fcbae8c9fa4d7c3175f8" target="_top" xlink:title="Increase the backoff delay using exponential factor.">
<polygon fill="white" stroke="#666666" points="399.38,-83.5 288.12,-83.5 288.12,-53 399.38,-53 399.38,-83.5"/>
<text text-anchor="start" x="296.12" y="-70" font-family="Times,serif" font-size="10.00">mal_toolkit::Exponential</text>
<text text-anchor="middle" x="343.75" y="-58.75" font-family="Times,serif" font-size="10.00">Backoff::increase_delay</text>
</a>
</g>
</g>
<!-- Node1&#45;&gt;Node7 -->
<g id="edge10_Node000001_Node000007" class="edge">
<title>Node1&#45;&gt;Node7</title>
<g id="a_edge10_Node000001_Node000007"><a xlink:title=" ">
<path fill="none" stroke="#63b8ff" d="M64.4,-128.67C79.82,-112.46 106.45,-87.98 135.25,-77.25 180.34,-60.46 234.81,-58.73 276.63,-60.92"/>
<polygon fill="#63b8ff" stroke="#63b8ff" points="276.36,-64.41 286.56,-61.54 276.79,-57.42 276.36,-64.41"/>
</a>
</g>
</g>
<!-- Node8 -->
<g id="Node000008" class="node">
<title>Node8</title>
<g id="a_Node000008"><a xlink:href="../../df/df5/namespacemal__toolkit.html#a205f8d4452e595ed3943f0d083c6033f" target="_top" xlink:title="Convert a uint32_t value to a ByteArray using little&#45;endian byte order.">
<polygon fill="white" stroke="#666666" points="236.38,-30.5 145.38,-30.5 145.38,0 236.38,0 236.38,-30.5"/>
<text text-anchor="start" x="153.38" y="-17" font-family="Times,serif" font-size="10.00">mal_toolkit::uint32</text>
<text text-anchor="middle" x="190.88" y="-5.75" font-family="Times,serif" font-size="10.00">_to_bytes</text>
</a>
</g>
</g>
<!-- Node1&#45;&gt;Node8 -->
<g id="edge11_Node000001_Node000008" class="edge">
<title>Node1&#45;&gt;Node8</title>
<g id="a_edge11_Node000001_Node000008"><a xlink:title=" ">
<path fill="none" stroke="#63b8ff" d="M60.87,-128.77C75.45,-107.64 103.9,-69.51 135.25,-44.25 138.49,-41.64 142.01,-39.15 145.63,-36.81"/>
<polygon fill="#63b8ff" stroke="#63b8ff" points="147.31,-39.89 154.1,-31.76 143.72,-33.88 147.31,-39.89"/>
</a>
</g>
</g>
<!-- Node2&#45;&gt;Node2 -->
<g id="edge2_Node000002_Node000002" class="edge">
<title>Node2&#45;&gt;Node2</title>
<g id="a_edge2_Node000002_Node000002"><a xlink:title=" ">
<path fill="none" stroke="#63b8ff" d="M165.85,-288.99C160.74,-298.06 169.08,-306.5 190.88,-306.5 202.79,-306.5 210.69,-303.97 214.56,-300.2"/>
<polygon fill="#63b8ff" stroke="#63b8ff" points="218.01,-300.83 215.72,-290.49 211.06,-300 218.01,-300.83"/>
</a>
</g>
</g>
<!-- Node2&#45;&gt;Node3 -->
<g id="edge3_Node000002_Node000003" class="edge">
<title>Node2&#45;&gt;Node3</title>
<g id="a_edge3_Node000002_Node000003"><a xlink:title=" ">
<path fill="none" stroke="#63b8ff" d="M244.64,-265.56C253.58,-264.25 262.99,-262.88 272.3,-261.52"/>
<polygon fill="#63b8ff" stroke="#63b8ff" points="272.68,-265 282.07,-260.1 271.67,-258.08 272.68,-265"/>
</a>
</g>
</g>
<!-- Node6&#45;&gt;Node5 -->
<g id="edge8_Node000006_Node000005" class="edge">
<title>Node6&#45;&gt;Node5</title>
<g id="a_edge8_Node000006_Node000005"><a xlink:title=" ">
<path fill="none" stroke="#63b8ff" d="M246.34,-110.28C254.35,-111.6 262.7,-112.99 270.99,-114.36"/>
<polygon fill="#63b8ff" stroke="#63b8ff" points="270.29,-117.79 280.73,-115.97 271.44,-110.89 270.29,-117.79"/>
</a>
</g>
</g>
<!-- Node6&#45;&gt;Node7 -->
<g id="edge9_Node000006_Node000007" class="edge">
<title>Node6&#45;&gt;Node7</title>
<g id="a_edge9_Node000006_Node000007"><a xlink:title=" ">
<path fill="none" stroke="#63b8ff" d="M246.34,-89.34C256.26,-87.17 266.71,-84.88 276.91,-82.65"/>
<polygon fill="#63b8ff" stroke="#63b8ff" points="277.35,-86.14 286.38,-80.58 275.86,-79.3 277.35,-86.14"/>
</a>
</g>
</g>
</g>
</svg>
