<?xml version="1.0" encoding="UTF-8" standalone="no"?>
<!DOCTYPE svg PUBLIC "-//W3C//DTD SVG 1.1//EN"
 "http://www.w3.org/Graphics/SVG/1.1/DTD/svg11.dtd">
<!-- Generated by graphviz version 9.0.0 (20230911.1827)
 -->
<!-- Title: mal_packet_weaver::Session::send_all Pages: 1 -->
<svg width="412pt" height="192pt"
 viewBox="0.00 0.00 412.25 191.50" xmlns="http://www.w3.org/2000/svg" xmlns:xlink="http://www.w3.org/1999/xlink">
<g id="graph0" class="graph" transform="scale(1 1) rotate(0) translate(4 187.5)">
<title>mal_packet_weaver::Session::send_all</title>
<!-- Node1 -->
<g id="Node000001" class="node">
<title>Node1</title>
<g id="a_Node000001"><a xlink:title="Asynchronously sends all packets in the queue through the network.">
<polygon fill="#999999" stroke="#666666" points="99.25,-100.5 0,-100.5 0,-70 99.25,-70 99.25,-100.5"/>
<text text-anchor="start" x="8" y="-87" font-family="Times,serif" font-size="10.00">mal_packet_weaver::</text>
<text text-anchor="middle" x="49.62" y="-75.75" font-family="Times,serif" font-size="10.00">Session::send_all</text>
</a>
</g>
</g>
<!-- Node2 -->
<g id="Node000002" class="node">
<title>Node2</title>
<g id="a_Node000002"><a xlink:href="../../d8/d99/structmal__toolkit_1_1_byte_array.html#aeee7ab5aa07bb08377a74f42375b59c8" target="_top" xlink:title="Append multiple data sources to the byte array.">
<polygon fill="white" stroke="#666666" points="243.88,-165.5 137.12,-165.5 137.12,-135 243.88,-135 243.88,-165.5"/>
<text text-anchor="start" x="145.12" y="-152" font-family="Times,serif" font-size="10.00">mal_toolkit::ByteArray</text>
<text text-anchor="middle" x="190.5" y="-140.75" font-family="Times,serif" font-size="10.00">::append</text>
</a>
</g>
</g>
<!-- Node1&#45;&gt;Node2 -->
<g id="edge1_Node000001_Node000002" class="edge">
<title>Node1&#45;&gt;Node2</title>
<g id="a_edge1_Node000001_Node000002"><a xlink:title=" ">
<path fill="none" stroke="#63b8ff" d="M84.24,-100.98C102.75,-109.65 125.93,-120.5 145.83,-129.81"/>
<polygon fill="#63b8ff" stroke="#63b8ff" points="144.28,-132.95 154.82,-134.02 147.25,-126.61 144.28,-132.95"/>
</a>
</g>
</g>
<!-- Node3 -->
<g id="Node000003" class="node">
<title>Node3</title>
<g id="a_Node000003"><a xlink:href="../../d8/d99/structmal__toolkit_1_1_byte_array.html#ab23437254557962a474e4ba7c5e25fe4" target="_top" xlink:title="Convert the ByteArray to a typed pointer.">
<polygon fill="white" stroke="#666666" points="402.75,-148.88 283.25,-148.88 283.25,-129.62 402.75,-129.62 402.75,-148.88"/>
<text text-anchor="middle" x="343" y="-135.38" font-family="Times,serif" font-size="10.00">mal_toolkit::ByteArray::as</text>
</a>
</g>
</g>
<!-- Node1&#45;&gt;Node3 -->
<g id="edge4_Node000001_Node000003" class="edge">
<title>Node1&#45;&gt;Node3</title>
<g id="a_edge4_Node000001_Node000003"><a xlink:title=" ">
<path fill="none" stroke="#63b8ff" d="M99.72,-94.35C148.25,-103.34 222.81,-117.16 276.39,-127.09"/>
<polygon fill="#63b8ff" stroke="#63b8ff" points="275.53,-130.49 286,-128.87 276.81,-123.61 275.53,-130.49"/>
</a>
</g>
</g>
<!-- Node4 -->
<g id="Node000004" class="node">
<title>Node4</title>
<g id="a_Node000004"><a xlink:href="../../d8/d39/classmal__packet__weaver_1_1_session.html#a44aae33be31d6dd7db9feb4142b3239e" target="_top" xlink:title="Retrieves a shared pointer to the current session.">
<polygon fill="white" stroke="#666666" points="245.75,-79.5 135.25,-79.5 135.25,-49 245.75,-49 245.75,-79.5"/>
<text text-anchor="start" x="143.25" y="-66" font-family="Times,serif" font-size="10.00">mal_packet_weaver::</text>
<text text-anchor="middle" x="190.5" y="-54.75" font-family="Times,serif" font-size="10.00">Session::get_shared_ptr</text>
</a>
</g>
</g>
<!-- Node1&#45;&gt;Node4 -->
<g id="edge5_Node000001_Node000004" class="edge">
<title>Node1&#45;&gt;Node4</title>
<g id="a_edge5_Node000001_Node000004"><a xlink:title=" ">
<path fill="none" stroke="#63b8ff" d="M99.59,-77.85C107.34,-76.67 115.46,-75.45 123.52,-74.23"/>
<polygon fill="#63b8ff" stroke="#63b8ff" points="123.97,-77.7 133.33,-72.74 122.92,-70.78 123.97,-77.7"/>
</a>
</g>
</g>
<!-- Node7 -->
<g id="Node000007" class="node">
<title>Node7</title>
<g id="a_Node000007"><a xlink:href="../../df/df5/namespacemal__toolkit.html#a205f8d4452e595ed3943f0d083c6033f" target="_top" xlink:title="Convert a uint32_t value to a ByteArray using little&#45;endian byte order.">
<polygon fill="white" stroke="#666666" points="236,-30.5 145,-30.5 145,0 236,0 236,-30.5"/>
<text text-anchor="start" x="153" y="-17" font-family="Times,serif" font-size="10.00">mal_toolkit::uint32</text>
<text text-anchor="middle" x="190.5" y="-5.75" font-family="Times,serif" font-size="10.00">_to_bytes</text>
</a>
</g>
</g>
<!-- Node1&#45;&gt;Node7 -->
<g id="edge8_Node000001_Node000007" class="edge">
<title>Node1&#45;&gt;Node7</title>
<g id="a_edge8_Node000001_Node000007"><a xlink:title=" ">
<path fill="none" stroke="#63b8ff" d="M79.01,-69.64C95.34,-60.79 116.32,-49.64 135.25,-40.25 138.17,-38.8 141.19,-37.34 144.24,-35.87"/>
<polygon fill="#63b8ff" stroke="#63b8ff" points="145.72,-39.04 153.26,-31.61 142.73,-32.72 145.72,-39.04"/>
</a>
</g>
</g>
<!-- Node2&#45;&gt;Node2 -->
<g id="edge2_Node000002_Node000002" class="edge">
<title>Node2&#45;&gt;Node2</title>
<g id="a_edge2_Node000002_Node000002"><a xlink:title=" ">
<path fill="none" stroke="#63b8ff" d="M165.54,-165.99C160.44,-175.06 168.76,-183.5 190.5,-183.5 202.39,-183.5 210.26,-180.97 214.12,-177.2"/>
<polygon fill="#63b8ff" stroke="#63b8ff" points="217.57,-177.83 215.28,-167.49 210.62,-177 217.57,-177.83"/>
</a>
</g>
</g>
<!-- Node2&#45;&gt;Node3 -->
<g id="edge3_Node000002_Node000003" class="edge">
<title>Node2&#45;&gt;Node3</title>
<g id="a_edge3_Node000002_Node000003"><a xlink:title=" ">
<path fill="none" stroke="#63b8ff" d="M244.14,-146.4C253.06,-145.75 262.44,-145.06 271.73,-144.39"/>
<polygon fill="#63b8ff" stroke="#63b8ff" points="271.74,-147.89 281.45,-143.68 271.23,-140.91 271.74,-147.89"/>
</a>
</g>
</g>
<!-- Node5 -->
<g id="Node000005" class="node">
<title>Node5</title>
<g id="a_Node000005"><a xlink:href="../../d1/da7/classmal__toolkit_1_1_exponential_backoff.html#a161c6f3c2d6e611ec15e3c6511182ec8" target="_top" xlink:title="Get the current backoff delay.">
<polygon fill="white" stroke="#666666" points="404.25,-90.5 281.75,-90.5 281.75,-60 404.25,-60 404.25,-90.5"/>
<text text-anchor="start" x="289.75" y="-77" font-family="Times,serif" font-size="10.00">mal_toolkit::Exponential</text>
<text text-anchor="middle" x="343" y="-65.75" font-family="Times,serif" font-size="10.00">Backoff::get_current_delay</text>
</a>
</g>
</g>
<!-- Node4&#45;&gt;Node5 -->
<g id="edge6_Node000004_Node000005" class="edge">
<title>Node4&#45;&gt;Node5</title>
<g id="a_edge6_Node000004_Node000005"><a xlink:title=" ">
<path fill="none" stroke="#63b8ff" d="M245.83,-68.22C253.67,-68.79 261.84,-69.39 269.96,-69.98"/>
<polygon fill="#63b8ff" stroke="#63b8ff" points="269.63,-73.47 279.86,-70.71 270.14,-66.49 269.63,-73.47"/>
</a>
</g>
</g>
<!-- Node6 -->
<g id="Node000006" class="node">
<title>Node6</title>
<g id="a_Node000006"><a xlink:href="../../d1/da7/classmal__toolkit_1_1_exponential_backoff.html#ad9374a1e0241fcbae8c9fa4d7c3175f8" target="_top" xlink:title="Increase the backoff delay using exponential factor.">
<polygon fill="white" stroke="#666666" points="398.62,-41.5 287.38,-41.5 287.38,-11 398.62,-11 398.62,-41.5"/>
<text text-anchor="start" x="295.38" y="-28" font-family="Times,serif" font-size="10.00">mal_toolkit::Exponential</text>
<text text-anchor="middle" x="343" y="-16.75" font-family="Times,serif" font-size="10.00">Backoff::increase_delay</text>
</a>
</g>
</g>
<!-- Node4&#45;&gt;Node6 -->
<g id="edge7_Node000004_Node000006" class="edge">
<title>Node4&#45;&gt;Node6</title>
<g id="a_edge7_Node000004_Node000006"><a xlink:title=" ">
<path fill="none" stroke="#63b8ff" d="M245.83,-50.53C255.67,-48.05 266.01,-45.44 276.13,-42.88"/>
<polygon fill="#63b8ff" stroke="#63b8ff" points="276.68,-46.35 285.52,-40.51 274.97,-39.57 276.68,-46.35"/>
</a>
</g>
</g>
</g>
</svg>
