<?xml version="1.0" encoding="UTF-8" standalone="no"?>
<!DOCTYPE svg PUBLIC "-//W3C//DTD SVG 1.1//EN"
 "http://www.w3.org/Graphics/SVG/1.1/DTD/svg11.dtd">
<!-- Generated by graphviz version 11.0.0 (20240428.1522)
 -->
<!-- Title: mal_packet_weaver::Session::Session Pages: 1 -->
<svg width="562pt" height="333pt"
 viewBox="0.00 0.00 561.75 332.50" xmlns="http://www.w3.org/2000/svg" xmlns:xlink="http://www.w3.org/1999/xlink">
<g id="graph0" class="graph" transform="scale(1 1) rotate(0) translate(4 328.5)">
<title>mal_packet_weaver::Session::Session</title>
<!-- Node1 -->
<g id="Node000001" class="node">
<title>Node1</title>
<g id="a_Node000001"><a xlink:title="Constructor for the Session class.">
<polygon fill="#999999" stroke="#666666" points="99.25,-226.5 0,-226.5 0,-196 99.25,-196 99.25,-226.5"/>
<text text-anchor="start" x="8" y="-213" font-family="Times,serif" font-size="10.00">mal_packet_weaver::</text>
<text text-anchor="middle" x="49.62" y="-201.75" font-family="Times,serif" font-size="10.00">Session::Session</text>
</a>
</g>
</g>
<!-- Node2 -->
<g id="Node000002" class="node">
<title>Node2</title>
<g id="a_Node000002"><a xlink:href="../../d8/d39/classmal__packet__weaver_1_1_session.html#ab8d02d6502bb180c3b0f383b3fddc6ca" target="_top" xlink:title="Asynchronously forges new packets from the buffer.">
<polygon fill="white" stroke="#666666" points="238.25,-292.12 135.25,-292.12 135.25,-250.38 238.25,-250.38 238.25,-292.12"/>
<text text-anchor="start" x="143.25" y="-278.62" font-family="Times,serif" font-size="10.00">mal_packet_weaver::</text>
<text text-anchor="start" x="143.25" y="-267.38" font-family="Times,serif" font-size="10.00">Session::async_packet</text>
<text text-anchor="middle" x="186.75" y="-256.12" font-family="Times,serif" font-size="10.00">_forger</text>
</a>
</g>
</g>
<!-- Node1&#45;&gt;Node2 -->
<g id="edge1_Node000001_Node000002" class="edge">
<title>Node1&#45;&gt;Node2</title>
<g id="a_edge1_Node000001_Node000002"><a xlink:title=" ">
<path fill="none" stroke="#63b8ff" d="M85.77,-226.86C98.55,-232.53 113.35,-239.1 127.58,-245.42"/>
<polygon fill="#63b8ff" stroke="#63b8ff" points="125.86,-248.49 136.42,-249.35 128.7,-242.09 125.86,-248.49"/>
</a>
</g>
</g>
<!-- Node7 -->
<g id="Node000007" class="node">
<title>Node7</title>
<g id="a_Node000007"><a xlink:href="../../d8/d39/classmal__packet__weaver_1_1_session.html#a95349691831542cec27090d0ab21ca88" target="_top" xlink:title="Asynchronously receives and processes incoming packets from the network.">
<polygon fill="white" stroke="#666666" points="238.25,-232.12 135.25,-232.12 135.25,-190.38 238.25,-190.38 238.25,-232.12"/>
<text text-anchor="start" x="143.25" y="-218.62" font-family="Times,serif" font-size="10.00">mal_packet_weaver::</text>
<text text-anchor="start" x="143.25" y="-207.38" font-family="Times,serif" font-size="10.00">Session::async_packet</text>
<text text-anchor="middle" x="186.75" y="-196.12" font-family="Times,serif" font-size="10.00">_sender</text>
</a>
</g>
</g>
<!-- Node1&#45;&gt;Node7 -->
<g id="edge6_Node000001_Node000007" class="edge">
<title>Node1&#45;&gt;Node7</title>
<g id="a_edge6_Node000001_Node000007"><a xlink:title=" ">
<path fill="none" stroke="#63b8ff" d="M99.41,-211.25C107.22,-211.25 115.39,-211.25 123.46,-211.25"/>
<polygon fill="#63b8ff" stroke="#63b8ff" points="123.25,-214.75 133.25,-211.25 123.25,-207.75 123.25,-214.75"/>
</a>
</g>
</g>
<!-- Node9 -->
<g id="Node000009" class="node">
<title>Node9</title>
<g id="a_Node000009"><a xlink:href="../../d8/d39/classmal__packet__weaver_1_1_session.html#a71ede34f71a6dc30d56d99015997caa3" target="_top" xlink:title="Asynchronously sends all packets in the queue through the network.">
<polygon fill="white" stroke="#666666" points="236.38,-128.5 137.12,-128.5 137.12,-98 236.38,-98 236.38,-128.5"/>
<text text-anchor="start" x="145.12" y="-115" font-family="Times,serif" font-size="10.00">mal_packet_weaver::</text>
<text text-anchor="middle" x="186.75" y="-103.75" font-family="Times,serif" font-size="10.00">Session::send_all</text>
</a>
</g>
</g>
<!-- Node1&#45;&gt;Node9 -->
<g id="edge9_Node000001_Node000009" class="edge">
<title>Node1&#45;&gt;Node9</title>
<g id="a_edge9_Node000001_Node000009"><a xlink:title=" ">
<path fill="none" stroke="#63b8ff" d="M72.34,-195.5C94.69,-179.29 129.74,-153.87 154.96,-135.58"/>
<polygon fill="#63b8ff" stroke="#63b8ff" points="156.83,-138.55 162.87,-129.84 152.72,-132.88 156.83,-138.55"/>
</a>
</g>
</g>
<!-- Node3 -->
<g id="Node000003" class="node">
<title>Node3</title>
<g id="a_Node000003"><a xlink:href="../../df/df5/namespacemal__toolkit.html#a8405b24c94e717d8a57da64b1483a4a9" target="_top" xlink:title="Always asserts a condition with customizable behavior.">
<polygon fill="white" stroke="#666666" points="394.5,-318.88 274.25,-318.88 274.25,-299.62 394.5,-299.62 394.5,-318.88"/>
<text text-anchor="middle" x="334.38" y="-305.38" font-family="Times,serif" font-size="10.00">mal_toolkit::AlwaysAssert</text>
</a>
</g>
</g>
<!-- Node2&#45;&gt;Node3 -->
<g id="edge2_Node000002_Node000003" class="edge">
<title>Node2&#45;&gt;Node3</title>
<g id="a_edge2_Node000002_Node000003"><a xlink:title=" ">
<path fill="none" stroke="#63b8ff" d="M238.68,-284.54C253.32,-288.36 269.26,-292.52 283.82,-296.32"/>
<polygon fill="#63b8ff" stroke="#63b8ff" points="282.61,-299.62 293.17,-298.76 284.38,-292.85 282.61,-299.62"/>
</a>
</g>
</g>
<!-- Node5 -->
<g id="Node000005" class="node">
<title>Node5</title>
<g id="a_Node000005"><a xlink:href="../../d8/d99/structmal__toolkit_1_1_byte_array.html#ab23437254557962a474e4ba7c5e25fe4" target="_top" xlink:title="Convert the ByteArray to a typed pointer.">
<polygon fill="white" stroke="#666666" points="394.12,-183.88 274.62,-183.88 274.62,-164.62 394.12,-164.62 394.12,-183.88"/>
<text text-anchor="middle" x="334.38" y="-170.38" font-family="Times,serif" font-size="10.00">mal_toolkit::ByteArray::as</text>
</a>
</g>
</g>
<!-- Node2&#45;&gt;Node5 -->
<g id="edge4_Node000002_Node000005" class="edge">
<title>Node2&#45;&gt;Node5</title>
<g id="a_edge4_Node000002_Node000005"><a xlink:title=" ">
<path fill="none" stroke="#63b8ff" d="M227.16,-249.95C231.06,-247.23 234.84,-244.32 238.25,-241.25 258.09,-223.43 252.53,-208.73 274.25,-193.25 276.32,-191.78 278.51,-190.41 280.78,-189.15"/>
<polygon fill="#63b8ff" stroke="#63b8ff" points="282.21,-192.34 289.75,-184.9 279.22,-186.02 282.21,-192.34"/>
</a>
</g>
</g>
<!-- Node6 -->
<g id="Node000006" class="node">
<title>Node6</title>
<g id="a_Node000006"><a xlink:href="../../df/df5/namespacemal__toolkit.html#a5c77c699bb81839f37c2b5d956d8e2df" target="_top" xlink:title="Convert a byte array to a uint32_t value using little&#45;endian byte order.">
<polygon fill="white" stroke="#666666" points="377.25,-281.5 291.5,-281.5 291.5,-251 377.25,-251 377.25,-281.5"/>
<text text-anchor="start" x="299.5" y="-268" font-family="Times,serif" font-size="10.00">mal_toolkit::bytes</text>
<text text-anchor="middle" x="334.38" y="-256.75" font-family="Times,serif" font-size="10.00">_to_uint32</text>
</a>
</g>
</g>
<!-- Node2&#45;&gt;Node6 -->
<g id="edge5_Node000002_Node000006" class="edge">
<title>Node2&#45;&gt;Node6</title>
<g id="a_edge5_Node000002_Node000006"><a xlink:title=" ">
<path fill="none" stroke="#63b8ff" d="M238.68,-269.5C252.14,-269.04 266.69,-268.54 280.26,-268.07"/>
<polygon fill="#63b8ff" stroke="#63b8ff" points="280,-271.58 289.87,-267.74 279.76,-264.59 280,-271.58"/>
</a>
</g>
</g>
<!-- Node4 -->
<g id="Node000004" class="node">
<title>Node4</title>
<g id="a_Node000004"><a xlink:href="../../df/df5/namespacemal__toolkit.html#a27bf9441da264c7f90650042e9e30f40" target="_top" xlink:title="Returns an empty string representing the current source location.">
<polygon fill="white" stroke="#666666" points="553.75,-324.5 430.5,-324.5 430.5,-294 553.75,-294 553.75,-324.5"/>
<text text-anchor="start" x="438.5" y="-311" font-family="Times,serif" font-size="10.00">mal_toolkit::CurrentSource</text>
<text text-anchor="middle" x="492.12" y="-299.75" font-family="Times,serif" font-size="10.00">Location</text>
</a>
</g>
</g>
<!-- Node3&#45;&gt;Node4 -->
<g id="edge3_Node000003_Node000004" class="edge">
<title>Node3&#45;&gt;Node4</title>
<g id="a_edge3_Node000003_Node000004"><a xlink:title=" ">
<path fill="none" stroke="#63b8ff" d="M394.7,-309.25C402.59,-309.25 410.75,-309.25 418.82,-309.25"/>
<polygon fill="#63b8ff" stroke="#63b8ff" points="418.64,-312.75 428.64,-309.25 418.64,-305.75 418.64,-312.75"/>
</a>
</g>
</g>
<!-- Node7&#45;&gt;Node6 -->
<g id="edge7_Node000007_Node000006" class="edge">
<title>Node7&#45;&gt;Node6</title>
<g id="a_edge7_Node000007_Node000006"><a xlink:title=" ">
<path fill="none" stroke="#63b8ff" d="M238.68,-230.49C252.54,-235.72 267.56,-241.39 281.47,-246.65"/>
<polygon fill="#63b8ff" stroke="#63b8ff" points="279.84,-249.77 290.44,-250.03 282.32,-243.23 279.84,-249.77"/>
</a>
</g>
</g>
<!-- Node8 -->
<g id="Node000008" class="node">
<title>Node8</title>
<g id="a_Node000008"><a xlink:href="../../d8/d99/structmal__toolkit_1_1_byte_array.html#a33b603234734c1cdddee3fb854988181" target="_top" xlink:title="Create a ByteView of a subsequence of the byte array.">
<polygon fill="white" stroke="#666666" points="387.75,-232.5 281,-232.5 281,-202 387.75,-202 387.75,-232.5"/>
<text text-anchor="start" x="289" y="-219" font-family="Times,serif" font-size="10.00">mal_toolkit::ByteArray</text>
<text text-anchor="middle" x="334.38" y="-207.75" font-family="Times,serif" font-size="10.00">::view</text>
</a>
</g>
</g>
<!-- Node7&#45;&gt;Node8 -->
<g id="edge8_Node000007_Node000008" class="edge">
<title>Node7&#45;&gt;Node8</title>
<g id="a_edge8_Node000007_Node000008"><a xlink:title=" ">
<path fill="none" stroke="#63b8ff" d="M238.68,-213.35C248.57,-213.76 259.06,-214.19 269.31,-214.61"/>
<polygon fill="#63b8ff" stroke="#63b8ff" points="269.1,-218.1 279.23,-215.02 269.38,-211.11 269.1,-218.1"/>
</a>
</g>
</g>
<!-- Node9&#45;&gt;Node5 -->
<g id="edge12_Node000009_Node000005" class="edge">
<title>Node9&#45;&gt;Node5</title>
<g id="a_edge12_Node000009_Node000005"><a xlink:title=" ">
<path fill="none" stroke="#63b8ff" d="M217.31,-128.89C233.81,-137.29 254.88,-147.48 274.25,-155.25 278.88,-157.11 283.76,-158.91 288.66,-160.63"/>
<polygon fill="#63b8ff" stroke="#63b8ff" points="287.29,-163.85 297.88,-163.73 289.52,-157.22 287.29,-163.85"/>
</a>
</g>
</g>
<!-- Node10 -->
<g id="Node000010" class="node">
<title>Node10</title>
<g id="a_Node000010"><a xlink:href="../../d8/d99/structmal__toolkit_1_1_byte_array.html#aeee7ab5aa07bb08377a74f42375b59c8" target="_top" xlink:title="Append multiple data sources to the byte array.">
<polygon fill="white" stroke="#666666" points="387.75,-128.5 281,-128.5 281,-98 387.75,-98 387.75,-128.5"/>
<text text-anchor="start" x="289" y="-115" font-family="Times,serif" font-size="10.00">mal_toolkit::ByteArray</text>
<text text-anchor="middle" x="334.38" y="-103.75" font-family="Times,serif" font-size="10.00">::append</text>
</a>
</g>
</g>
<!-- Node9&#45;&gt;Node10 -->
<g id="edge10_Node000009_Node000010" class="edge">
<title>Node9&#45;&gt;Node10</title>
<g id="a_edge10_Node000009_Node000010"><a xlink:title=" ">
<path fill="none" stroke="#63b8ff" d="M236.65,-113.25C247.13,-113.25 258.36,-113.25 269.33,-113.25"/>
<polygon fill="#63b8ff" stroke="#63b8ff" points="269.1,-116.75 279.1,-113.25 269.1,-109.75 269.1,-116.75"/>
</a>
</g>
</g>
<!-- Node11 -->
<g id="Node000011" class="node">
<title>Node11</title>
<g id="a_Node000011"><a xlink:href="../../d8/d39/classmal__packet__weaver_1_1_session.html#a44aae33be31d6dd7db9feb4142b3239e" target="_top" xlink:title="Retrieves a shared pointer to the current session.">
<polygon fill="white" stroke="#666666" points="389.62,-79.5 279.12,-79.5 279.12,-49 389.62,-49 389.62,-79.5"/>
<text text-anchor="start" x="287.12" y="-66" font-family="Times,serif" font-size="10.00">mal_packet_weaver::</text>
<text text-anchor="middle" x="334.38" y="-54.75" font-family="Times,serif" font-size="10.00">Session::get_shared_ptr</text>
</a>
</g>
</g>
<!-- Node9&#45;&gt;Node11 -->
<g id="edge13_Node000009_Node000011" class="edge">
<title>Node9&#45;&gt;Node11</title>
<g id="a_edge13_Node000009_Node000011"><a xlink:title=" ">
<path fill="none" stroke="#63b8ff" d="M234.23,-97.61C247.49,-93.15 262.11,-88.23 275.95,-83.57"/>
<polygon fill="#63b8ff" stroke="#63b8ff" points="277.04,-86.9 285.41,-80.39 274.81,-80.26 277.04,-86.9"/>
</a>
</g>
</g>
<!-- Node14 -->
<g id="Node000014" class="node">
<title>Node14</title>
<g id="a_Node000014"><a xlink:href="../../df/df5/namespacemal__toolkit.html#a205f8d4452e595ed3943f0d083c6033f" target="_top" xlink:title="Convert a uint32_t value to a ByteArray using little&#45;endian byte order.">
<polygon fill="white" stroke="#666666" points="379.88,-30.5 288.88,-30.5 288.88,0 379.88,0 379.88,-30.5"/>
<text text-anchor="start" x="296.88" y="-17" font-family="Times,serif" font-size="10.00">mal_toolkit::uint32</text>
<text text-anchor="middle" x="334.38" y="-5.75" font-family="Times,serif" font-size="10.00">_to_bytes</text>
</a>
</g>
</g>
<!-- Node9&#45;&gt;Node14 -->
<g id="edge16_Node000009_Node000014" class="edge">
<title>Node9&#45;&gt;Node14</title>
<g id="a_edge16_Node000009_Node000014"><a xlink:title=" ">
<path fill="none" stroke="#63b8ff" d="M203.2,-97.69C219.69,-81.71 247.12,-56.9 274.25,-40.25 276.66,-38.77 279.17,-37.34 281.75,-35.96"/>
<polygon fill="#63b8ff" stroke="#63b8ff" points="283.12,-39.18 290.51,-31.59 280,-32.92 283.12,-39.18"/>
</a>
</g>
</g>
<!-- Node10&#45;&gt;Node10 -->
<g id="edge11_Node000010_Node000010" class="edge">
<title>Node10&#45;&gt;Node10</title>
<g id="a_edge11_Node000010_Node000010"><a xlink:title=" ">
<path fill="none" stroke="#63b8ff" d="M308.22,-128.99C302.88,-138.06 311.6,-146.5 334.38,-146.5 346.83,-146.5 355.08,-143.97 359.13,-140.2"/>
<polygon fill="#63b8ff" stroke="#63b8ff" points="362.58,-140.84 360.35,-130.49 355.63,-139.98 362.58,-140.84"/>
</a>
</g>
</g>
<!-- Node12 -->
<g id="Node000012" class="node">
<title>Node12</title>
<g id="a_Node000012"><a xlink:href="../../d1/da7/classmal__toolkit_1_1_exponential_backoff.html#a161c6f3c2d6e611ec15e3c6511182ec8" target="_top" xlink:title="Get the current backoff delay.">
<polygon fill="white" stroke="#666666" points="553.38,-54.5 430.88,-54.5 430.88,-24 553.38,-24 553.38,-54.5"/>
<text text-anchor="start" x="438.88" y="-41" font-family="Times,serif" font-size="10.00">mal_toolkit::Exponential</text>
<text text-anchor="middle" x="492.12" y="-29.75" font-family="Times,serif" font-size="10.00">Backoff::get_current_delay</text>
</a>
</g>
</g>
<!-- Node11&#45;&gt;Node12 -->
<g id="edge14_Node000011_Node000012" class="edge">
<title>Node11&#45;&gt;Node12</title>
<g id="a_edge14_Node000011_Node000012"><a xlink:title=" ">
<path fill="none" stroke="#63b8ff" d="M389.85,-55.51C399.41,-53.97 409.49,-52.35 419.43,-50.76"/>
<polygon fill="#63b8ff" stroke="#63b8ff" points="419.75,-54.25 429.07,-49.21 418.64,-47.34 419.75,-54.25"/>
</a>
</g>
</g>
<!-- Node13 -->
<g id="Node000013" class="node">
<title>Node13</title>
<g id="a_Node000013"><a xlink:href="../../d1/da7/classmal__toolkit_1_1_exponential_backoff.html#ad9374a1e0241fcbae8c9fa4d7c3175f8" target="_top" xlink:title="Increase the backoff delay using exponential factor.">
<polygon fill="white" stroke="#666666" points="547.75,-103.5 436.5,-103.5 436.5,-73 547.75,-73 547.75,-103.5"/>
<text text-anchor="start" x="444.5" y="-90" font-family="Times,serif" font-size="10.00">mal_toolkit::Exponential</text>
<text text-anchor="middle" x="492.12" y="-78.75" font-family="Times,serif" font-size="10.00">Backoff::increase_delay</text>
</a>
</g>
</g>
<!-- Node11&#45;&gt;Node13 -->
<g id="edge15_Node000011_Node000013" class="edge">
<title>Node11&#45;&gt;Node13</title>
<g id="a_edge15_Node000011_Node000013"><a xlink:title=" ">
<path fill="none" stroke="#63b8ff" d="M389.85,-72.64C401.22,-74.4 413.32,-76.26 425.05,-78.07"/>
<polygon fill="#63b8ff" stroke="#63b8ff" points="424.24,-81.49 434.66,-79.55 425.31,-74.57 424.24,-81.49"/>
</a>
</g>
</g>
</g>
</svg>
