<?xml version="1.0" encoding="UTF-8" standalone="no"?>
<!DOCTYPE svg PUBLIC "-//W3C//DTD SVG 1.1//EN"
 "http://www.w3.org/Graphics/SVG/1.1/DTD/svg11.dtd">
<!-- Generated by graphviz version 8.1.0 (20230707.0739)
 -->
<!-- Title: mal_packet_weaver::Session::Session Pages: 1 -->
<!--zoomable 597 -->

<svg id="main" version="1.1" xmlns="http://www.w3.org/2000/svg" xmlns:xlink="http://www.w3.org/1999/xlink" xml:space="preserve" onload="init(evt)">
<style type="text/css"><![CDATA[
.node, .edge {opacity: 0.7;}
.node.selected, .edge.selected {opacity: 1;}
.edge:hover path { stroke: red; }
.edge:hover polygon { stroke: red; fill: red; }
]]></style>

<defs>
  <circle id="rim" cx="0" cy="0" r="7"/>
  <circle id="rim2" cx="0" cy="0" r="3.5"/>
  <g id="zoomPlus">
    <use xlink:href="#rim" fill="#404040"><set attributeName="fill" to="#808080" begin="zoomplus.mouseover" end="zoomplus.mouseout"/></use>
    <path d="M-4,0h8M0,-4v8" fill="none" stroke="white" stroke-width="1.5" pointer-events="none"/>
  </g>
  <g id="zoomMin">
    <use xlink:href="#rim" fill="#404040"><set attributeName="fill" to="#808080" begin="zoomminus.mouseover" end="zoomminus.mouseout"/></use>
    <path d="M-4,0h8" fill="none" stroke="white" stroke-width="1.5" pointer-events="none"/>
  </g>
  <g id="arrowUp" transform="translate(30 24)">
    <use xlink:href="#rim"/>
    <path pointer-events="none" fill="none" stroke="white" stroke-width="1.5" d="M0,-3.0v7 M-2.5,-0.5L0,-3.0L2.5,-0.5"/>
  </g>
  <g id="arrowRight" transform="rotate(90) translate(36 -43)">
    <use xlink:href="#rim"/>
    <path pointer-events="none" fill="none" stroke="white" stroke-width="1.5" d="M0,-3.0v7 M-2.5,-0.5L0,-3.0L2.5,-0.5"/>
  </g>
  <g id="arrowDown" transform="rotate(180) translate(-30 -48)">
    <use xlink:href="#rim"/>
    <path pointer-events="none" fill="none" stroke="white" stroke-width="1.5" d="M0,-3.0v7 M-2.5,-0.5L0,-3.0L2.5,-0.5"/>
  </g>
  <g id="arrowLeft" transform="rotate(270) translate(-36 17)">
    <use xlink:href="#rim"/>
    <path pointer-events="none" fill="none" stroke="white" stroke-width="1.5" d="M0,-3.0v7 M-2.5,-0.5L0,-3.0L2.5,-0.5"/>
  </g>
  <g id="resetDef">
    <use xlink:href="#rim2" fill="#404040"><set attributeName="fill" to="#808080" begin="reset.mouseover" end="reset.mouseout"/></use>
  </g>
</defs>
<script type="application/ecmascript">
var viewWidth = 562;
var viewHeight = 597;
var sectionId = 'dynsection-2';
</script>
<script type="application/ecmascript" xlink:href="../../svg.min.js"/>
<svg id="graph" class="graph">
<g id="viewport">
<title>mal_packet_weaver::Session::Session</title>
<!-- Node1 -->
<g id="Node000001" class="node">
<title>Node1</title>
<g id="a_Node000001"><a xlink:title="Constructor for the Session class.">
<polygon fill="#999999" stroke="#666666" points="99.25,-378.4 0,-378.4 0,-347.9 99.25,-347.9 99.25,-378.4"/>
<text text-anchor="start" x="8" y="-364.9" font-family="Times,serif" font-size="10.00">mal_packet_weaver::</text>
<text text-anchor="middle" x="49.62" y="-353.65" font-family="Times,serif" font-size="10.00">Session::Session</text>
</a>
</g>
</g>
<!-- Node2 -->
<g id="Node000002" class="node">
<title>Node2</title>
<g id="a_Node000002"><a xlink:href="../../d8/d39/classmal__packet__weaver_1_1_session.html#ab8d02d6502bb180c3b0f383b3fddc6ca" target="_top" xlink:title="Asynchronously forges new packets from the buffer.">
<polygon fill="white" stroke="#666666" points="238.25,-497.03 135.25,-497.03 135.25,-455.28 238.25,-455.28 238.25,-497.03"/>
<text text-anchor="start" x="143.25" y="-483.53" font-family="Times,serif" font-size="10.00">mal_packet_weaver::</text>
<text text-anchor="start" x="143.25" y="-472.28" font-family="Times,serif" font-size="10.00">Session::async_packet</text>
<text text-anchor="middle" x="186.75" y="-461.03" font-family="Times,serif" font-size="10.00">_forger</text>
</a>
</g>
</g>
<!-- Node1&#45;&gt;Node2 -->
<g id="edge1_Node000001_Node000002" class="edge">
<title>Node1&#45;&gt;Node2</title>
<g id="a_edge1_Node000001_Node000002"><a xlink:title=" ">
<path fill="none" stroke="#63b8ff" d="M69.41,-378.86C90.75,-396.7 125.97,-426.16 152.08,-447.99"/>
<polygon fill="#63b8ff" stroke="#63b8ff" points="149.29,-451.06 159.2,-454.79 153.78,-445.69 149.29,-451.06"/>
</a>
</g>
</g>
<!-- Node9 -->
<g id="Node000009" class="node">
<title>Node9</title>
<g id="a_Node000009"><a xlink:href="../../d8/d39/classmal__packet__weaver_1_1_session.html#a95349691831542cec27090d0ab21ca88" target="_top" xlink:title="Asynchronously receives and processes incoming packets from the network.">
<polygon fill="white" stroke="#666666" points="238.25,-384.03 135.25,-384.03 135.25,-342.28 238.25,-342.28 238.25,-384.03"/>
<text text-anchor="start" x="143.25" y="-370.53" font-family="Times,serif" font-size="10.00">mal_packet_weaver::</text>
<text text-anchor="start" x="143.25" y="-359.28" font-family="Times,serif" font-size="10.00">Session::async_packet</text>
<text text-anchor="middle" x="186.75" y="-348.03" font-family="Times,serif" font-size="10.00">_sender</text>
</a>
</g>
</g>
<!-- Node1&#45;&gt;Node9 -->
<g id="edge8_Node000001_Node000009" class="edge">
<title>Node1&#45;&gt;Node9</title>
<g id="a_edge8_Node000001_Node000009"><a xlink:title=" ">
<path fill="none" stroke="#63b8ff" d="M99.41,-363.15C107.4,-363.15 115.77,-363.15 124.02,-363.15"/>
<polygon fill="#63b8ff" stroke="#63b8ff" points="123.76,-366.65 133.76,-363.15 123.76,-359.65 123.76,-366.65"/>
</a>
</g>
</g>
<!-- Node12 -->
<g id="Node000012" class="node">
<title>Node12</title>
<g id="a_Node000012"><a xlink:href="../../d8/d39/classmal__packet__weaver_1_1_session.html#a71ede34f71a6dc30d56d99015997caa3" target="_top" xlink:title="Asynchronously sends all packets in the queue through the network.">
<polygon fill="white" stroke="#666666" points="236.38,-213.4 137.12,-213.4 137.12,-182.9 236.38,-182.9 236.38,-213.4"/>
<text text-anchor="start" x="145.12" y="-199.9" font-family="Times,serif" font-size="10.00">mal_packet_weaver::</text>
<text text-anchor="middle" x="186.75" y="-188.65" font-family="Times,serif" font-size="10.00">Session::send_all</text>
</a>
</g>
</g>
<!-- Node1&#45;&gt;Node12 -->
<g id="edge15_Node000001_Node000012" class="edge">
<title>Node1&#45;&gt;Node12</title>
<g id="a_edge15_Node000001_Node000012"><a xlink:title=" ">
<path fill="none" stroke="#63b8ff" d="M63.34,-347.63C86.98,-318.76 137.86,-256.63 166.01,-222.26"/>
<polygon fill="#63b8ff" stroke="#63b8ff" points="169.35,-224.71 172.97,-214.75 163.93,-220.27 169.35,-224.71"/>
</a>
</g>
</g>
<!-- Node3 -->
<g id="Node000003" class="node">
<title>Node3</title>
<g id="a_Node000003"><a xlink:href="../../df/df5/namespacemal__toolkit.html#a8405b24c94e717d8a57da64b1483a4a9" target="_top" xlink:title="Always asserts a condition with customizable behavior.">
<polygon fill="white" stroke="#666666" points="394.5,-583.78 274.25,-583.78 274.25,-564.53 394.5,-564.53 394.5,-583.78"/>
<text text-anchor="middle" x="334.38" y="-570.28" font-family="Times,serif" font-size="10.00">mal_toolkit::AlwaysAssert</text>
</a>
</g>
</g>
<!-- Node2&#45;&gt;Node3 -->
<g id="edge2_Node000002_Node000003" class="edge">
<title>Node2&#45;&gt;Node3</title>
<g id="a_edge2_Node000002_Node000003"><a xlink:title=" ">
<path fill="none" stroke="#63b8ff" d="M208.63,-497.42C225.27,-513.49 249.77,-535.25 274.25,-550.15 280.15,-553.74 286.68,-557.01 293.19,-559.89"/>
<polygon fill="#63b8ff" stroke="#63b8ff" points="291.72,-563.49 302.3,-564.1 294.42,-557.03 291.72,-563.49"/>
</a>
</g>
</g>
<!-- Node5 -->
<g id="Node000005" class="node">
<title>Node5</title>
<g id="a_Node000005"><a xlink:href="../../df/df5/namespacemal__toolkit.html#a5c77c699bb81839f37c2b5d956d8e2df" target="_top" xlink:title="Convert a byte array to a uint32_t value using little&#45;endian byte order.">
<polygon fill="white" stroke="#666666" points="377.25,-470.4 291.5,-470.4 291.5,-439.9 377.25,-439.9 377.25,-470.4"/>
<text text-anchor="start" x="299.5" y="-456.9" font-family="Times,serif" font-size="10.00">mal_toolkit::bytes</text>
<text text-anchor="middle" x="334.38" y="-445.65" font-family="Times,serif" font-size="10.00">_to_uint32</text>
</a>
</g>
</g>
<!-- Node2&#45;&gt;Node5 -->
<g id="edge4_Node000002_Node000005" class="edge">
<title>Node2&#45;&gt;Node5</title>
<g id="a_edge4_Node000002_Node000005"><a xlink:title=" ">
<path fill="none" stroke="#63b8ff" d="M238.68,-468.81C252.27,-466.85 266.99,-464.72 280.67,-462.75"/>
<polygon fill="#63b8ff" stroke="#63b8ff" points="280.98,-466.1 290.38,-461.21 279.99,-459.17 280.98,-466.1"/>
</a>
</g>
</g>
<!-- Node6 -->
<g id="Node000006" class="node">
<title>Node6</title>
<g id="a_Node000006"><a xlink:href="../../d1/da7/classmal__toolkit_1_1_exponential_backoff.html#aa83694a9b15273a1abbf95722b71fcca" target="_top" xlink:title="Decrease the backoff delay using divisor factor.">
<polygon fill="white" stroke="#666666" points="390,-421.4 278.75,-421.4 278.75,-390.9 390,-390.9 390,-421.4"/>
<text text-anchor="start" x="286.75" y="-407.9" font-family="Times,serif" font-size="10.00">mal_toolkit::Exponential</text>
<text text-anchor="middle" x="334.38" y="-396.65" font-family="Times,serif" font-size="10.00">Backoff::decrease_delay</text>
</a>
</g>
</g>
<!-- Node2&#45;&gt;Node6 -->
<g id="edge5_Node000002_Node000006" class="edge">
<title>Node2&#45;&gt;Node6</title>
<g id="a_edge5_Node000002_Node000006"><a xlink:title=" ">
<path fill="none" stroke="#63b8ff" d="M227.04,-454.87C241.72,-447.14 258.63,-438.5 274.25,-431.15 277.79,-429.49 281.46,-427.81 285.17,-426.15"/>
<polygon fill="#63b8ff" stroke="#63b8ff" points="286.25,-429.06 294.01,-421.85 283.45,-422.65 286.25,-429.06"/>
</a>
</g>
</g>
<!-- Node7 -->
<g id="Node000007" class="node">
<title>Node7</title>
<g id="a_Node000007"><a xlink:href="../../d1/da7/classmal__toolkit_1_1_exponential_backoff.html#a161c6f3c2d6e611ec15e3c6511182ec8" target="_top" xlink:title="Get the current backoff delay.">
<polygon fill="white" stroke="#666666" points="553.38,-343.4 430.88,-343.4 430.88,-312.9 553.38,-312.9 553.38,-343.4"/>
<text text-anchor="start" x="438.88" y="-329.9" font-family="Times,serif" font-size="10.00">mal_toolkit::Exponential</text>
<text text-anchor="middle" x="492.12" y="-318.65" font-family="Times,serif" font-size="10.00">Backoff::get_current_delay</text>
</a>
</g>
</g>
<!-- Node2&#45;&gt;Node7 -->
<g id="edge6_Node000002_Node000007" class="edge">
<title>Node2&#45;&gt;Node7</title>
<g id="a_edge6_Node000002_Node000007"><a xlink:title=" ">
<path fill="none" stroke="#63b8ff" d="M226.07,-497.4C269.88,-518.56 342.27,-543.72 394.5,-512.15 451.8,-477.52 476.8,-396.42 486.22,-354.41"/>
<polygon fill="#63b8ff" stroke="#63b8ff" points="489.84,-355.18 488.48,-344.67 482.99,-353.74 489.84,-355.18"/>
</a>
</g>
</g>
<!-- Node8 -->
<g id="Node000008" class="node">
<title>Node8</title>
<g id="a_Node000008"><a xlink:href="../../d1/da7/classmal__toolkit_1_1_exponential_backoff.html#ad9374a1e0241fcbae8c9fa4d7c3175f8" target="_top" xlink:title="Increase the backoff delay using exponential factor.">
<polygon fill="white" stroke="#666666" points="547.75,-276.4 436.5,-276.4 436.5,-245.9 547.75,-245.9 547.75,-276.4"/>
<text text-anchor="start" x="444.5" y="-262.9" font-family="Times,serif" font-size="10.00">mal_toolkit::Exponential</text>
<text text-anchor="middle" x="492.12" y="-251.65" font-family="Times,serif" font-size="10.00">Backoff::increase_delay</text>
</a>
</g>
</g>
<!-- Node2&#45;&gt;Node8 -->
<g id="edge7_Node000002_Node000008" class="edge">
<title>Node2&#45;&gt;Node8</title>
<g id="a_edge7_Node000002_Node000008"><a xlink:title=" ">
<path fill="none" stroke="#63b8ff" d="M238.32,-493.48C284.25,-505.74 351.23,-514.42 394.5,-479.15 456.05,-428.98 387.09,-370.64 430.5,-304.15 435.83,-295.99 443.3,-288.89 451.17,-282.95"/>
<polygon fill="#63b8ff" stroke="#63b8ff" points="452.92,-285.31 459.15,-276.74 448.93,-279.56 452.92,-285.31"/>
</a>
</g>
</g>
<!-- Node4 -->
<g id="Node000004" class="node">
<title>Node4</title>
<g id="a_Node000004"><a xlink:href="../../df/df5/namespacemal__toolkit.html#a27bf9441da264c7f90650042e9e30f40" target="_top" xlink:title="Returns an empty string representing the current source location.">
<polygon fill="white" stroke="#666666" points="553.75,-589.4 430.5,-589.4 430.5,-558.9 553.75,-558.9 553.75,-589.4"/>
<text text-anchor="start" x="438.5" y="-575.9" font-family="Times,serif" font-size="10.00">mal_toolkit::CurrentSource</text>
<text text-anchor="middle" x="492.12" y="-564.65" font-family="Times,serif" font-size="10.00">Location</text>
</a>
</g>
</g>
<!-- Node3&#45;&gt;Node4 -->
<g id="edge3_Node000003_Node000004" class="edge">
<title>Node3&#45;&gt;Node4</title>
<g id="a_edge3_Node000003_Node000004"><a xlink:title=" ">
<path fill="none" stroke="#63b8ff" d="M394.7,-574.15C402.77,-574.15 411.12,-574.15 419.38,-574.15"/>
<polygon fill="#63b8ff" stroke="#63b8ff" points="419.15,-577.65 429.15,-574.15 419.15,-570.65 419.15,-577.65"/>
</a>
</g>
</g>
<!-- Node9&#45;&gt;Node5 -->
<g id="edge9_Node000009_Node000005" class="edge">
<title>Node9&#45;&gt;Node5</title>
<g id="a_edge9_Node000009_Node000005"><a xlink:title=" ">
<path fill="none" stroke="#63b8ff" d="M211.52,-384.29C228.26,-398.47 251.63,-416.91 274.25,-430.15 276.91,-431.71 279.69,-433.22 282.52,-434.68"/>
<polygon fill="#63b8ff" stroke="#63b8ff" points="280.78,-438.21 291.31,-439.42 283.83,-431.91 280.78,-438.21"/>
</a>
</g>
</g>
<!-- Node9&#45;&gt;Node6 -->
<g id="edge10_Node000009_Node000006" class="edge">
<title>Node9&#45;&gt;Node6</title>
<g id="a_edge10_Node000009_Node000006"><a xlink:title=" ">
<path fill="none" stroke="#63b8ff" d="M238.68,-378.19C248.77,-381.17 259.48,-384.33 269.92,-387.41"/>
<polygon fill="#63b8ff" stroke="#63b8ff" points="268.67,-390.99 279.25,-390.46 270.65,-384.27 268.67,-390.99"/>
</a>
</g>
</g>
<!-- Node9&#45;&gt;Node7 -->
<g id="edge11_Node000009_Node000007" class="edge">
<title>Node9&#45;&gt;Node7</title>
<g id="a_edge11_Node000009_Node000007"><a xlink:title=" ">
<path fill="none" stroke="#63b8ff" d="M238.53,-357.29C288.1,-351.57 364,-342.82 419.66,-336.4"/>
<polygon fill="#63b8ff" stroke="#63b8ff" points="419.97,-339.77 429.51,-335.14 419.17,-332.81 419.97,-339.77"/>
</a>
</g>
</g>
<!-- Node9&#45;&gt;Node8 -->
<g id="edge12_Node000009_Node000008" class="edge">
<title>Node9&#45;&gt;Node8</title>
<g id="a_edge12_Node000009_Node000008"><a xlink:title=" ">
<path fill="none" stroke="#63b8ff" d="M238.53,-346.08C292.68,-327.87 378.22,-299.11 434.51,-280.19"/>
<polygon fill="#63b8ff" stroke="#63b8ff" points="435.3,-283.28 443.67,-276.77 433.07,-276.64 435.3,-283.28"/>
</a>
</g>
</g>
<!-- Node10 -->
<g id="Node000010" class="node">
<title>Node10</title>
<g id="a_Node000010"><a xlink:href="../../d8/d99/structmal__toolkit_1_1_byte_array.html#a33b603234734c1cdddee3fb854988181" target="_top" xlink:title="Create a ByteView of a subsequence of the byte array.">
<polygon fill="white" stroke="#666666" points="387.75,-210.4 281,-210.4 281,-179.9 387.75,-179.9 387.75,-210.4"/>
<text text-anchor="start" x="289" y="-196.9" font-family="Times,serif" font-size="10.00">mal_toolkit::ByteArray</text>
<text text-anchor="middle" x="334.38" y="-185.65" font-family="Times,serif" font-size="10.00">::view</text>
</a>
</g>
</g>
<!-- Node9&#45;&gt;Node10 -->
<g id="edge13_Node000009_Node000010" class="edge">
<title>Node9&#45;&gt;Node10</title>
<g id="a_edge13_Node000009_Node000010"><a xlink:title=" ">
<path fill="none" stroke="#63b8ff" d="M195.65,-341.86C208.04,-311.14 234.76,-254.33 274.25,-220.15 275.8,-218.81 277.43,-217.53 279.12,-216.32"/>
<polygon fill="#63b8ff" stroke="#63b8ff" points="280.4,-219.02 287.02,-210.74 276.69,-213.09 280.4,-219.02"/>
</a>
</g>
</g>
<!-- Node11 -->
<g id="Node000011" class="node">
<title>Node11</title>
<g id="a_Node000011"><a xlink:href="../../d8/d99/structmal__toolkit_1_1_byte_array.html#ab23437254557962a474e4ba7c5e25fe4" target="_top" xlink:title="Convert the ByteArray to a typed pointer.">
<polygon fill="white" stroke="#666666" points="551.88,-51.78 432.38,-51.78 432.38,-32.53 551.88,-32.53 551.88,-51.78"/>
<text text-anchor="middle" x="492.12" y="-38.28" font-family="Times,serif" font-size="10.00">mal_toolkit::ByteArray::as</text>
</a>
</g>
</g>
<!-- Node10&#45;&gt;Node11 -->
<g id="edge14_Node000010_Node000011" class="edge">
<title>Node10&#45;&gt;Node11</title>
<g id="a_edge14_Node000010_Node000011"><a xlink:title=" ">
<path fill="none" stroke="#63b8ff" d="M351.17,-179.64C380.29,-151.03 442.29,-90.12 473.05,-59.91"/>
<polygon fill="#63b8ff" stroke="#63b8ff" points="475.16,-62.76 479.84,-53.25 470.25,-57.76 475.16,-62.76"/>
</a>
</g>
</g>
<!-- Node12&#45;&gt;Node6 -->
<g id="edge20_Node000012_Node000006" class="edge">
<title>Node12&#45;&gt;Node6</title>
<g id="a_edge20_Node000012_Node000006"><a xlink:title=" ">
<path fill="none" stroke="#63b8ff" d="M198.7,-213.78C223.85,-249.71 285.92,-338.37 316.21,-381.63"/>
<polygon fill="#63b8ff" stroke="#63b8ff" points="313.9,-383.43 322.5,-389.62 319.63,-379.42 313.9,-383.43"/>
</a>
</g>
</g>
<!-- Node12&#45;&gt;Node7 -->
<g id="edge21_Node000012_Node000007" class="edge">
<title>Node12&#45;&gt;Node7</title>
<g id="a_edge21_Node000012_Node000007"><a xlink:title=" ">
<path fill="none" stroke="#63b8ff" d="M202.92,-213.74C219.17,-229.61 246.42,-253.83 274.25,-268.15 320.14,-291.76 376.42,-306.98 420.15,-316.18"/>
<polygon fill="#63b8ff" stroke="#63b8ff" points="419.2,-319.76 429.7,-318.34 420.6,-312.91 419.2,-319.76"/>
</a>
</g>
</g>
<!-- Node12&#45;&gt;Node8 -->
<g id="edge25_Node000012_Node000008" class="edge">
<title>Node12&#45;&gt;Node8</title>
<g id="a_edge25_Node000012_Node000008"><a xlink:title=" ">
<path fill="none" stroke="#63b8ff" d="M225.33,-182.46C267.83,-167.14 338.42,-149.08 394.5,-171.15 428.06,-184.36 456.86,-215.32 474.08,-237.23"/>
<polygon fill="#63b8ff" stroke="#63b8ff" points="471.68,-238.86 480.52,-244.7 477.26,-234.62 471.68,-238.86"/>
</a>
</g>
</g>
<!-- Node12&#45;&gt;Node11 -->
<g id="edge19_Node000012_Node000011" class="edge">
<title>Node12&#45;&gt;Node11</title>
<g id="a_edge19_Node000012_Node000011"><a xlink:title=" ">
<path fill="none" stroke="#63b8ff" d="M189.76,-182.48C195.38,-145.95 214.96,-55.44 274.25,-18.15 332.29,18.35 416.66,-8.76 461.13,-27.78"/>
<polygon fill="#63b8ff" stroke="#63b8ff" points="459.46,-31.31 470.02,-32.16 462.29,-24.91 459.46,-31.31"/>
</a>
</g>
</g>
<!-- Node13 -->
<g id="Node000013" class="node">
<title>Node13</title>
<g id="a_Node000013"><a xlink:href="../../d8/d99/structmal__toolkit_1_1_byte_array.html#aa3d43592b3a16ad73860e290f28b9ce9" target="_top" xlink:title="Append multiple data sources to the byte array.">
<polygon fill="white" stroke="#666666" points="387.75,-57.4 281,-57.4 281,-26.9 387.75,-26.9 387.75,-57.4"/>
<text text-anchor="start" x="289" y="-43.9" font-family="Times,serif" font-size="10.00">mal_toolkit::ByteArray</text>
<text text-anchor="middle" x="334.38" y="-32.65" font-family="Times,serif" font-size="10.00">::append</text>
</a>
</g>
</g>
<!-- Node12&#45;&gt;Node13 -->
<g id="edge16_Node000012_Node000013" class="edge">
<title>Node12&#45;&gt;Node13</title>
<g id="a_edge16_Node000012_Node000013"><a xlink:title=" ">
<path fill="none" stroke="#63b8ff" d="M197.43,-182.78C212.26,-159.94 242.24,-116.38 274.25,-85.15 281.94,-77.65 291,-70.41 299.69,-64.08"/>
<polygon fill="#63b8ff" stroke="#63b8ff" points="301.39,-66.46 307.54,-57.84 297.35,-60.74 301.39,-66.46"/>
</a>
</g>
</g>
<!-- Node14 -->
<g id="Node000014" class="node">
<title>Node14</title>
<g id="a_Node000014"><a xlink:href="../../d8/d39/classmal__packet__weaver_1_1_session.html#a44aae33be31d6dd7db9feb4142b3239e" target="_top" xlink:title="Retrieves a shared pointer to the current session.">
<polygon fill="white" stroke="#666666" points="389.62,-259.4 279.12,-259.4 279.12,-228.9 389.62,-228.9 389.62,-259.4"/>
<text text-anchor="start" x="287.12" y="-245.9" font-family="Times,serif" font-size="10.00">mal_packet_weaver::</text>
<text text-anchor="middle" x="334.38" y="-234.65" font-family="Times,serif" font-size="10.00">Session::get_shared_ptr</text>
</a>
</g>
</g>
<!-- Node12&#45;&gt;Node14 -->
<g id="edge22_Node000012_Node000014" class="edge">
<title>Node12&#45;&gt;Node14</title>
<g id="a_edge22_Node000012_Node000014"><a xlink:title=" ">
<path fill="none" stroke="#63b8ff" d="M236.65,-213.6C248.52,-217.35 261.36,-221.4 273.67,-225.29"/>
<polygon fill="#63b8ff" stroke="#63b8ff" points="272.27,-228.84 282.86,-228.51 274.38,-222.16 272.27,-228.84"/>
</a>
</g>
</g>
<!-- Node15 -->
<g id="Node000015" class="node">
<title>Node15</title>
<g id="a_Node000015"><a xlink:href="../../df/df5/namespacemal__toolkit.html#a205f8d4452e595ed3943f0d083c6033f" target="_top" xlink:title="Convert a uint32_t value to a ByteArray using little&#45;endian byte order.">
<polygon fill="white" stroke="#666666" points="379.88,-124.4 288.88,-124.4 288.88,-93.9 379.88,-93.9 379.88,-124.4"/>
<text text-anchor="start" x="296.88" y="-110.9" font-family="Times,serif" font-size="10.00">mal_toolkit::uint32</text>
<text text-anchor="middle" x="334.38" y="-99.65" font-family="Times,serif" font-size="10.00">_to_bytes</text>
</a>
</g>
</g>
<!-- Node12&#45;&gt;Node15 -->
<g id="edge26_Node000012_Node000015" class="edge">
<title>Node12&#45;&gt;Node15</title>
<g id="a_edge26_Node000012_Node000015"><a xlink:title=" ">
<path fill="none" stroke="#63b8ff" d="M208.49,-182.44C225.66,-169.77 250.93,-151.85 274.25,-138.15 279.18,-135.25 284.44,-132.38 289.71,-129.64"/>
<polygon fill="#63b8ff" stroke="#63b8ff" points="290.81,-132.5 298.15,-124.85 287.64,-126.25 290.81,-132.5"/>
</a>
</g>
</g>
<!-- Node13&#45;&gt;Node11 -->
<g id="edge18_Node000013_Node000011" class="edge">
<title>Node13&#45;&gt;Node11</title>
<g id="a_edge18_Node000013_Node000011"><a xlink:title=" ">
<path fill="none" stroke="#63b8ff" d="M388.1,-42.15C398.69,-42.15 409.98,-42.15 421.05,-42.15"/>
<polygon fill="#63b8ff" stroke="#63b8ff" points="421.02,-45.65 431.02,-42.15 421.02,-38.65 421.02,-45.65"/>
</a>
</g>
</g>
<!-- Node13&#45;&gt;Node13 -->
<g id="edge17_Node000013_Node000013" class="edge">
<title>Node13&#45;&gt;Node13</title>
<g id="a_edge17_Node000013_Node000013"><a xlink:title=" ">
<path fill="none" stroke="#63b8ff" d="M308.22,-57.89C302.88,-66.96 311.6,-75.4 334.38,-75.4 347.19,-75.4 355.55,-72.73 359.47,-68.78"/>
<polygon fill="#63b8ff" stroke="#63b8ff" points="363.04,-69.18 360.53,-58.89 356.08,-68.5 363.04,-69.18"/>
</a>
</g>
</g>
<!-- Node14&#45;&gt;Node7 -->
<g id="edge23_Node000014_Node000007" class="edge">
<title>Node14&#45;&gt;Node7</title>
<g id="a_edge23_Node000014_Node000007"><a xlink:title=" ">
<path fill="none" stroke="#63b8ff" d="M368.08,-259.75C376.73,-263.99 386.01,-268.66 394.5,-273.15 414.98,-283.99 437.51,-296.76 455.65,-307.27"/>
<polygon fill="#63b8ff" stroke="#63b8ff" points="453.31,-310.53 463.71,-312.53 456.82,-304.48 453.31,-310.53"/>
</a>
</g>
</g>
<!-- Node14&#45;&gt;Node8 -->
<g id="edge24_Node000014_Node000008" class="edge">
<title>Node14&#45;&gt;Node8</title>
<g id="a_edge24_Node000014_Node000008"><a xlink:title=" ">
<path fill="none" stroke="#63b8ff" d="M389.85,-250.1C401.33,-251.35 413.57,-252.68 425.42,-253.98"/>
<polygon fill="#63b8ff" stroke="#63b8ff" points="424.83,-257.54 435.16,-255.15 425.59,-250.59 424.83,-257.54"/>
</a>
</g>
</g>
</g>
</svg>

<g id="navigator" transform="translate(0 0)" fill="#404254">
  <rect fill="#f2f5e9" fill-opacity="0.5" stroke="#606060" stroke-width=".5" x="0" y="0" width="60" height="60"/>
  <use id="zoomplus" xlink:href="#zoomPlus" x="17" y="9" onmousedown="handleZoom(evt,'in')"/>
  <use id="zoomminus" xlink:href="#zoomMin" x="42" y="9" onmousedown="handleZoom(evt,'out')"/>
  <use id="reset" xlink:href="#resetDef" x="30" y="36" onmousedown="handleReset()"/>
   <use id="arrowup" xlink:href="#arrowUp" x="0" y="0" onmousedown="handlePan(0,-1)"/>
  <use id="arrowright" xlink:href="#arrowRight" x="0" y="0" onmousedown="handlePan(1,0)"/>
  <use id="arrowdown" xlink:href="#arrowDown" x="0" y="0" onmousedown="handlePan(0,1)"/>
  <use id="arrowleft" xlink:href="#arrowLeft" x="0" y="0" onmousedown="handlePan(-1,0)"/>
</g>
<svg viewBox="0 0 15 15" width="100%" height="30px" preserveAspectRatio="xMaxYMin meet">
 <g id="arrow_out" transform="scale(0.3 0.3)">
  <a xlink:href="classmal__packet__weaver_1_1_session_a5cf271c70d7ec610cfb01d0ed8655693_cgraph_org.svg" target="_base">
   <rect id="button" ry="5" rx="5" y="6" x="6" height="38" width="38"
        fill="#f2f5e9" fill-opacity="0.5" stroke="#606060" stroke-width="1.0"/>
   <path id="arrow"
     d="M 11.500037,31.436501 C 11.940474,20.09759 22.043105,11.32322 32.158766,21.979434 L 37.068811,17.246167 C 37.068811,17.246167 37.088388,32 37.088388,32 L 22.160133,31.978069 C 22.160133,31.978069 26.997745,27.140456 26.997745,27.140456 C 18.528582,18.264221 13.291696,25.230495 11.500037,31.436501 z"
     style="fill:#404040;"/>
  </a>
 </g>
</svg>

<style type='text/css'>
<![CDATA[
[data-mouse-over-selected='false'] { opacity: 0.7; }
[data-mouse-over-selected='true']  { opacity: 1.0; }
]]>
</style>
<script type="application/ecmascript"><![CDATA[
document.addEventListener('DOMContentLoaded', (event) => {
  highlightEdges();
  highlightAdjacentNodes();
});
]]></script>
</svg>
