<?xml version="1.0" encoding="UTF-8" standalone="no"?>
<!DOCTYPE svg PUBLIC "-//W3C//DTD SVG 1.1//EN"
 "http://www.w3.org/Graphics/SVG/1.1/DTD/svg11.dtd">
<!-- Generated by graphviz version 8.1.0 (20230707.0739)
 -->
<!-- Title: mal_packet_weaver::Session::Session Pages: 1 -->
<svg width="393pt" height="315pt"
 viewBox="0.00 0.00 392.75 315.12" xmlns="http://www.w3.org/2000/svg" xmlns:xlink="http://www.w3.org/1999/xlink">

<svg id="main" version="1.1" xmlns="http://www.w3.org/2000/svg" xmlns:xlink="http://www.w3.org/1999/xlink" xml:space="preserve" onload="init(evt)">
<style type="text/css"><![CDATA[
.node, .edge {opacity: 0.7;}
.node.selected, .edge.selected {opacity: 1;}
.edge:hover path { stroke: red; }
.edge:hover polygon { stroke: red; fill: red; }
]]></style>
<script type="application/ecmascript" xlink:href="../../svg.min.js"/>
<svg id="graph" class="graph">
<g id="graph0" class="graph" transform="scale(1 1) rotate(0) translate(4 311.12)">
<title>mal_packet_weaver::Session::Session</title>
<!-- Node1 -->
<g id="Node000001" class="node">
<title>Node1</title>
<g id="a_Node000001"><a xlink:title="Constructor for the Session class.">
<polygon fill="#999999" stroke="#666666" points="99.25,-214.5 0,-214.5 0,-184 99.25,-184 99.25,-214.5"/>
<text text-anchor="start" x="8" y="-201" font-family="Times,serif" font-size="10.00">mal_packet_weaver::</text>
<text text-anchor="middle" x="49.62" y="-189.75" font-family="Times,serif" font-size="10.00">Session::Session</text>
</a>
</g>
</g>
<!-- Node2 -->
<g id="Node000002" class="node">
<title>Node2</title>
<g id="a_Node000002"><a xlink:href="../../d8/d39/classmal__packet__weaver_1_1_session.html#ab8d02d6502bb180c3b0f383b3fddc6ca" target="_top" xlink:title="Asynchronously forges new packets from the buffer.">
<polygon fill="white" stroke="#666666" points="238.25,-307.12 135.25,-307.12 135.25,-265.38 238.25,-265.38 238.25,-307.12"/>
<text text-anchor="start" x="143.25" y="-293.62" font-family="Times,serif" font-size="10.00">mal_packet_weaver::</text>
<text text-anchor="start" x="143.25" y="-282.38" font-family="Times,serif" font-size="10.00">Session::async_packet</text>
<text text-anchor="middle" x="186.75" y="-271.12" font-family="Times,serif" font-size="10.00">_forger</text>
</a>
</g>
</g>
<!-- Node1&#45;&gt;Node2 -->
<g id="edge1_Node000001_Node000002" class="edge">
<title>Node1&#45;&gt;Node2</title>
<g id="a_edge1_Node000001_Node000002"><a xlink:title=" ">
<path fill="none" stroke="#63b8ff" d="M73.02,-214.84C89.95,-226.5 113.85,-242.7 135.25,-256.25 136.96,-257.33 138.71,-258.43 140.49,-259.53"/>
<polygon fill="#63b8ff" stroke="#63b8ff" points="138.11,-262.79 148.46,-265.03 141.76,-256.82 138.11,-262.79"/>
</a>
</g>
</g>
<!-- Node4 -->
<g id="Node000004" class="node">
<title>Node4</title>
<g id="a_Node000004"><a xlink:href="../../d8/d39/classmal__packet__weaver_1_1_session.html#a95349691831542cec27090d0ab21ca88" target="_top" xlink:title="Asynchronously receives and processes incoming packets from the network.">
<polygon fill="white" stroke="#666666" points="238.25,-247.12 135.25,-247.12 135.25,-205.38 238.25,-205.38 238.25,-247.12"/>
<text text-anchor="start" x="143.25" y="-233.62" font-family="Times,serif" font-size="10.00">mal_packet_weaver::</text>
<text text-anchor="start" x="143.25" y="-222.38" font-family="Times,serif" font-size="10.00">Session::async_packet</text>
<text text-anchor="middle" x="186.75" y="-211.12" font-family="Times,serif" font-size="10.00">_sender</text>
</a>
</g>
</g>
<!-- Node1&#45;&gt;Node4 -->
<g id="edge3_Node000001_Node000004" class="edge">
<title>Node1&#45;&gt;Node4</title>
<g id="a_edge3_Node000001_Node000004"><a xlink:title=" ">
<path fill="none" stroke="#63b8ff" d="M99.41,-209C107.4,-210.59 115.77,-212.27 124.02,-213.92"/>
<polygon fill="#63b8ff" stroke="#63b8ff" points="123.27,-217.53 133.76,-216.06 124.64,-210.67 123.27,-217.53"/>
</a>
</g>
</g>
<!-- Node6 -->
<g id="Node000006" class="node">
<title>Node6</title>
<g id="a_Node000006"><a xlink:href="../../d8/d39/classmal__packet__weaver_1_1_session.html#a9cb6655f710d023540a11da7b218c5d3" target="_top" xlink:title="Initiates an asynchronous read operation from the socket to receive data.">
<polygon fill="white" stroke="#666666" points="236.38,-187.5 137.12,-187.5 137.12,-157 236.38,-157 236.38,-187.5"/>
<text text-anchor="start" x="145.12" y="-174" font-family="Times,serif" font-size="10.00">mal_packet_weaver::</text>
<text text-anchor="middle" x="186.75" y="-162.75" font-family="Times,serif" font-size="10.00">Session::receive_all</text>
</a>
</g>
</g>
<!-- Node1&#45;&gt;Node6 -->
<g id="edge6_Node000001_Node000006" class="edge">
<title>Node1&#45;&gt;Node6</title>
<g id="a_edge6_Node000001_Node000006"><a xlink:title=" ">
<path fill="none" stroke="#63b8ff" d="M99.41,-189.5C108.21,-187.74 117.47,-185.89 126.54,-184.08"/>
<polygon fill="#63b8ff" stroke="#63b8ff" points="126.92,-187.37 136.04,-181.98 125.55,-180.51 126.92,-187.37"/>
</a>
</g>
</g>
<!-- Node7 -->
<g id="Node000007" class="node">
<title>Node7</title>
<g id="a_Node000007"><a xlink:href="../../d8/d39/classmal__packet__weaver_1_1_session.html#a71ede34f71a6dc30d56d99015997caa3" target="_top" xlink:title="Asynchronously sends all packets in the queue through the network.">
<polygon fill="white" stroke="#666666" points="236.38,-128.5 137.12,-128.5 137.12,-98 236.38,-98 236.38,-128.5"/>
<text text-anchor="start" x="145.12" y="-115" font-family="Times,serif" font-size="10.00">mal_packet_weaver::</text>
<text text-anchor="middle" x="186.75" y="-103.75" font-family="Times,serif" font-size="10.00">Session::send_all</text>
</a>
</g>
</g>
<!-- Node1&#45;&gt;Node7 -->
<g id="edge7_Node000001_Node000007" class="edge">
<title>Node1&#45;&gt;Node7</title>
<g id="a_edge7_Node000001_Node000007"><a xlink:title=" ">
<path fill="none" stroke="#63b8ff" d="M75.1,-183.68C96.58,-170 128.04,-149.98 151.93,-134.77"/>
<polygon fill="#63b8ff" stroke="#63b8ff" points="153.45,-137.32 160.01,-129 149.69,-131.42 153.45,-137.32"/>
</a>
</g>
</g>
<!-- Node3 -->
<g id="Node000003" class="node">
<title>Node3</title>
<g id="a_Node000003"><a xlink:href="../../d6/de9/namespacemal__packet__weaver.html#a02f5130547d5ddf6c16f31fad13cc469" target="_top" xlink:title="Convert a byte array to a uint32_t value using little&#45;endian byte order.">
<polygon fill="white" stroke="#666666" points="379.12,-298.5 279.88,-298.5 279.88,-268 379.12,-268 379.12,-298.5"/>
<text text-anchor="start" x="287.88" y="-285" font-family="Times,serif" font-size="10.00">mal_packet_weaver::</text>
<text text-anchor="middle" x="329.5" y="-273.75" font-family="Times,serif" font-size="10.00">bytes_to_uint32</text>
</a>
</g>
</g>
<!-- Node2&#45;&gt;Node3 -->
<g id="edge2_Node000002_Node000003" class="edge">
<title>Node2&#45;&gt;Node3</title>
<g id="a_edge2_Node000002_Node000003"><a xlink:title=" ">
<path fill="none" stroke="#63b8ff" d="M238.56,-285.17C248.39,-284.96 258.78,-284.74 268.86,-284.52"/>
<polygon fill="#63b8ff" stroke="#63b8ff" points="268.72,-288 278.64,-284.29 268.57,-281.01 268.72,-288"/>
</a>
</g>
</g>
<!-- Node4&#45;&gt;Node3 -->
<g id="edge4_Node000004_Node000003" class="edge">
<title>Node4&#45;&gt;Node3</title>
<g id="a_edge4_Node000004_Node000003"><a xlink:title=" ">
<path fill="none" stroke="#63b8ff" d="M238.56,-246.83C251.99,-252.27 266.45,-258.12 279.77,-263.51"/>
<polygon fill="#63b8ff" stroke="#63b8ff" points="278.11,-267.02 288.69,-267.53 280.74,-260.54 278.11,-267.02"/>
</a>
</g>
</g>
<!-- Node5 -->
<g id="Node000005" class="node">
<title>Node5</title>
<g id="a_Node000005"><a xlink:href="../../d4/d9d/structmal__packet__weaver_1_1_byte_array.html#a88aac09c49f5b82796a94736781626c7" target="_top" xlink:title="Create a ByteView of a subsequence of the byte array.">
<polygon fill="white" stroke="#666666" points="379.12,-244.5 279.88,-244.5 279.88,-214 379.12,-214 379.12,-244.5"/>
<text text-anchor="start" x="287.88" y="-231" font-family="Times,serif" font-size="10.00">mal_packet_weaver::</text>
<text text-anchor="middle" x="329.5" y="-219.75" font-family="Times,serif" font-size="10.00">ByteArray::view</text>
</a>
</g>
</g>
<!-- Node4&#45;&gt;Node5 -->
<g id="edge5_Node000004_Node000005" class="edge">
<title>Node4&#45;&gt;Node5</title>
<g id="a_edge5_Node000004_Node000005"><a xlink:title=" ">
<path fill="none" stroke="#63b8ff" d="M238.56,-227.33C248.39,-227.54 258.78,-227.76 268.86,-227.98"/>
<polygon fill="#63b8ff" stroke="#63b8ff" points="268.57,-231.49 278.64,-228.21 268.72,-224.5 268.57,-231.49"/>
</a>
</g>
</g>
<!-- Node8 -->
<g id="Node000008" class="node">
<title>Node8</title>
<g id="a_Node000008"><a xlink:href="../../d4/d9d/structmal__packet__weaver_1_1_byte_array.html#aed36512e62b9d6d8e45aef241339888b" target="_top" xlink:title="Append multiple data sources to the byte array.">
<polygon fill="white" stroke="#666666" points="379.12,-177.5 279.88,-177.5 279.88,-147 379.12,-147 379.12,-177.5"/>
<text text-anchor="start" x="287.88" y="-164" font-family="Times,serif" font-size="10.00">mal_packet_weaver::</text>
<text text-anchor="middle" x="329.5" y="-152.75" font-family="Times,serif" font-size="10.00">ByteArray::append</text>
</a>
</g>
</g>
<!-- Node7&#45;&gt;Node8 -->
<g id="edge8_Node000007_Node000008" class="edge">
<title>Node7&#45;&gt;Node8</title>
<g id="a_edge8_Node000007_Node000008"><a xlink:title=" ">
<path fill="none" stroke="#63b8ff" d="M232.67,-128.89C245.62,-133.4 259.9,-138.37 273.39,-143.07"/>
<polygon fill="#63b8ff" stroke="#63b8ff" points="271.93,-146.61 282.52,-146.59 274.23,-140 271.93,-146.61"/>
</a>
</g>
</g>
<!-- Node9 -->
<g id="Node000009" class="node">
<title>Node9</title>
<g id="a_Node000009"><a xlink:href="../../d4/d9d/structmal__packet__weaver_1_1_byte_array.html#a5ce0c445aa4f44df9f44ddcfe8bff0ef" target="_top" xlink:title="Convert the ByteArray to a typed pointer.">
<polygon fill="white" stroke="#666666" points="379.12,-128.5 279.88,-128.5 279.88,-98 379.12,-98 379.12,-128.5"/>
<text text-anchor="start" x="287.88" y="-115" font-family="Times,serif" font-size="10.00">mal_packet_weaver::</text>
<text text-anchor="middle" x="329.5" y="-103.75" font-family="Times,serif" font-size="10.00">ByteArray::as</text>
</a>
</g>
</g>
<!-- Node7&#45;&gt;Node9 -->
<g id="edge10_Node000007_Node000009" class="edge">
<title>Node7&#45;&gt;Node9</title>
<g id="a_edge10_Node000007_Node000009"><a xlink:title=" ">
<path fill="none" stroke="#63b8ff" d="M236.58,-113.25C247.06,-113.25 258.25,-113.25 269.08,-113.25"/>
<polygon fill="#63b8ff" stroke="#63b8ff" points="268.75,-116.75 278.75,-113.25 268.75,-109.75 268.75,-116.75"/>
</a>
</g>
</g>
<!-- Node10 -->
<g id="Node000010" class="node">
<title>Node10</title>
<g id="a_Node000010"><a xlink:href="../../d8/d39/classmal__packet__weaver_1_1_session.html#a44aae33be31d6dd7db9feb4142b3239e" target="_top" xlink:title="Retrieves a shared pointer to the current session.">
<polygon fill="white" stroke="#666666" points="384.75,-79.5 274.25,-79.5 274.25,-49 384.75,-49 384.75,-79.5"/>
<text text-anchor="start" x="282.25" y="-66" font-family="Times,serif" font-size="10.00">mal_packet_weaver::</text>
<text text-anchor="middle" x="329.5" y="-54.75" font-family="Times,serif" font-size="10.00">Session::get_shared_ptr</text>
</a>
</g>
</g>
<!-- Node7&#45;&gt;Node10 -->
<g id="edge11_Node000007_Node000010" class="edge">
<title>Node7&#45;&gt;Node10</title>
<g id="a_edge11_Node000007_Node000010"><a xlink:title=" ">
<path fill="none" stroke="#63b8ff" d="M232.67,-97.61C245.62,-93.1 259.9,-88.13 273.39,-83.43"/>
<polygon fill="#63b8ff" stroke="#63b8ff" points="274.23,-86.5 282.52,-79.91 271.93,-79.89 274.23,-86.5"/>
</a>
</g>
</g>
<!-- Node11 -->
<g id="Node000011" class="node">
<title>Node11</title>
<g id="a_Node000011"><a xlink:href="../../d6/de9/namespacemal__packet__weaver.html#a87ac8de4f0992d1a8e99086320febbde" target="_top" xlink:title="Convert a uint32_t value to a ByteArray using little&#45;endian byte order.">
<polygon fill="white" stroke="#666666" points="379.12,-30.5 279.88,-30.5 279.88,0 379.12,0 379.12,-30.5"/>
<text text-anchor="start" x="287.88" y="-17" font-family="Times,serif" font-size="10.00">mal_packet_weaver::</text>
<text text-anchor="middle" x="329.5" y="-5.75" font-family="Times,serif" font-size="10.00">uint32_to_bytes</text>
</a>
</g>
</g>
<!-- Node7&#45;&gt;Node11 -->
<g id="edge12_Node000007_Node000011" class="edge">
<title>Node7&#45;&gt;Node11</title>
<g id="a_edge12_Node000007_Node000011"><a xlink:title=" ">
<path fill="none" stroke="#63b8ff" d="M203.62,-97.57C220.22,-81.72 247.55,-57.23 274.25,-40.25 276.55,-38.79 278.94,-37.37 281.39,-35.99"/>
<polygon fill="#63b8ff" stroke="#63b8ff" points="282.82,-38.67 290.03,-30.9 279.55,-32.47 282.82,-38.67"/>
</a>
</g>
</g>
<!-- Node8&#45;&gt;Node8 -->
<g id="edge9_Node000008_Node000008" class="edge">
<title>Node8&#45;&gt;Node8</title>
<g id="a_edge9_Node000008_Node000008"><a xlink:title=" ">
<path fill="none" stroke="#63b8ff" d="M304.2,-177.99C299.04,-187.06 307.47,-195.5 329.5,-195.5 341.89,-195.5 349.98,-192.83 353.76,-188.88"/>
<polygon fill="#63b8ff" stroke="#63b8ff" points="357.34,-189.27 354.8,-178.99 350.37,-188.61 357.34,-189.27"/>
</a>
</g>
</g>
</g>
</svg>
</svg>

<style type='text/css'>
<![CDATA[
[data-mouse-over-selected='false'] { opacity: 0.7; }
[data-mouse-over-selected='true']  { opacity: 1.0; }
]]>
</style>
<script type="application/ecmascript"><![CDATA[
document.addEventListener('DOMContentLoaded', (event) => {
  highlightEdges();
  highlightAdjacentNodes();
});
]]></script>
</svg>
