<?xml version="1.0" encoding="UTF-8" standalone="no"?>
<!DOCTYPE svg PUBLIC "-//W3C//DTD SVG 1.1//EN"
 "http://www.w3.org/Graphics/SVG/1.1/DTD/svg11.dtd">
<!-- Generated by graphviz version 8.1.0 (20230707.0739)
 -->
<!-- Title: mal_packet_weaver::Session::send_packet Pages: 1 -->
<svg width="266pt" height="186pt"
 viewBox="0.00 0.00 265.75 185.50" xmlns="http://www.w3.org/2000/svg" xmlns:xlink="http://www.w3.org/1999/xlink">

<svg id="main" version="1.1" xmlns="http://www.w3.org/2000/svg" xmlns:xlink="http://www.w3.org/1999/xlink" xml:space="preserve" onload="init(evt)">
<style type="text/css"><![CDATA[
.node, .edge {opacity: 0.7;}
.node.selected, .edge.selected {opacity: 1;}
.edge:hover path { stroke: red; }
.edge:hover polygon { stroke: red; fill: red; }
]]></style>
<script type="application/ecmascript" xlink:href="../../svg.min.js"/>
<svg id="graph" class="graph">
<g id="graph0" class="graph" transform="scale(1 1) rotate(0) translate(4 181.5)">
<title>mal_packet_weaver::Session::send_packet</title>
<!-- Node1 -->
<g id="Node000001" class="node">
<title>Node1</title>
<g id="a_Node000001"><a xlink:title="Sends any packet derived from DerivedPacket through the network.">
<polygon fill="#999999" stroke="#666666" points="99.25,-103.5 0,-103.5 0,-73 99.25,-73 99.25,-103.5"/>
<text text-anchor="start" x="8" y="-90" font-family="Times,serif" font-size="10.00">mal_packet_weaver::</text>
<text text-anchor="middle" x="49.62" y="-78.75" font-family="Times,serif" font-size="10.00">Session::send_packet</text>
</a>
</g>
</g>
<!-- Node2 -->
<g id="Node000002" class="node">
<title>Node2</title>
<g id="a_Node000002"><a xlink:href="../../d1/da7/classmal__toolkit_1_1_exponential_backoff.html#a161c6f3c2d6e611ec15e3c6511182ec8" target="_top" xlink:title="Get the current backoff delay.">
<polygon fill="white" stroke="#666666" points="257.75,-177.5 135.25,-177.5 135.25,-147 257.75,-147 257.75,-177.5"/>
<text text-anchor="start" x="143.25" y="-164" font-family="Times,serif" font-size="10.00">mal_toolkit::Exponential</text>
<text text-anchor="middle" x="196.5" y="-152.75" font-family="Times,serif" font-size="10.00">Backoff::get_current_delay</text>
</a>
</g>
</g>
<!-- Node1&#45;&gt;Node2 -->
<g id="edge1_Node000001_Node000002" class="edge">
<title>Node1&#45;&gt;Node2</title>
<g id="a_edge1_Node000001_Node000002"><a xlink:title=" ">
<path fill="none" stroke="#63b8ff" d="M75.7,-103.94C92.29,-114.02 114.7,-127.09 135.25,-137.25 138.6,-138.91 142.09,-140.55 145.62,-142.16"/>
<polygon fill="#63b8ff" stroke="#63b8ff" points="144.07,-145.74 154.63,-146.58 146.89,-139.34 144.07,-145.74"/>
</a>
</g>
</g>
<!-- Node3 -->
<g id="Node000003" class="node">
<title>Node3</title>
<g id="a_Node000003"><a xlink:href="../../d1/da7/classmal__toolkit_1_1_exponential_backoff.html#ad9374a1e0241fcbae8c9fa4d7c3175f8" target="_top" xlink:title="Increase the backoff delay using exponential factor.">
<polygon fill="white" stroke="#666666" points="252.12,-128.5 140.88,-128.5 140.88,-98 252.12,-98 252.12,-128.5"/>
<text text-anchor="start" x="148.88" y="-115" font-family="Times,serif" font-size="10.00">mal_toolkit::Exponential</text>
<text text-anchor="middle" x="196.5" y="-103.75" font-family="Times,serif" font-size="10.00">Backoff::increase_delay</text>
</a>
</g>
</g>
<!-- Node1&#45;&gt;Node3 -->
<g id="edge2_Node000001_Node000003" class="edge">
<title>Node1&#45;&gt;Node3</title>
<g id="a_edge2_Node000001_Node000003"><a xlink:title=" ">
<path fill="none" stroke="#63b8ff" d="M99.67,-96.71C109.42,-98.4 119.8,-100.19 130,-101.95"/>
<polygon fill="#63b8ff" stroke="#63b8ff" points="129.07,-105.51 139.52,-103.76 130.26,-98.61 129.07,-105.51"/>
</a>
</g>
</g>
<!-- Node4 -->
<g id="Node000004" class="node">
<title>Node4</title>
<g id="a_Node000004"><a xlink:href="../../d4/d9d/structmal__packet__weaver_1_1_byte_array.html#a3bf850167f23c6f5aada32381a29e58f" target="_top" xlink:title="Serialize the byte array using Boost&#39;s serialization framework.">
<polygon fill="white" stroke="#666666" points="246.12,-79.5 146.88,-79.5 146.88,-49 246.12,-49 246.12,-79.5"/>
<text text-anchor="start" x="154.88" y="-66" font-family="Times,serif" font-size="10.00">mal_packet_weaver::</text>
<text text-anchor="middle" x="196.5" y="-54.75" font-family="Times,serif" font-size="10.00">ByteArray::serialize</text>
</a>
</g>
</g>
<!-- Node1&#45;&gt;Node4 -->
<g id="edge3_Node000001_Node000004" class="edge">
<title>Node1&#45;&gt;Node4</title>
<g id="a_edge3_Node000001_Node000004"><a xlink:title=" ">
<path fill="none" stroke="#63b8ff" d="M99.67,-80.12C111.24,-78.21 123.69,-76.15 135.67,-74.16"/>
<polygon fill="#63b8ff" stroke="#63b8ff" points="136.21,-77.45 145.5,-72.37 135.06,-70.55 136.21,-77.45"/>
</a>
</g>
</g>
<!-- Node5 -->
<g id="Node000005" class="node">
<title>Node5</title>
<g id="a_Node000005"><a xlink:href="../../df/df5/namespacemal__toolkit.html#a205f8d4452e595ed3943f0d083c6033f" target="_top" xlink:title="Convert a uint32_t value to a ByteArray using little&#45;endian byte order.">
<polygon fill="white" stroke="#666666" points="242,-30.5 151,-30.5 151,0 242,0 242,-30.5"/>
<text text-anchor="start" x="159" y="-17" font-family="Times,serif" font-size="10.00">mal_toolkit::uint32</text>
<text text-anchor="middle" x="196.5" y="-5.75" font-family="Times,serif" font-size="10.00">_to_bytes</text>
</a>
</g>
</g>
<!-- Node1&#45;&gt;Node5 -->
<g id="edge4_Node000001_Node000005" class="edge">
<title>Node1&#45;&gt;Node5</title>
<g id="a_edge4_Node000001_Node000005"><a xlink:title=" ">
<path fill="none" stroke="#63b8ff" d="M76.11,-72.71C92.68,-62.87 114.92,-50.19 135.25,-40.25 138.61,-38.61 142.1,-36.98 145.64,-35.37"/>
<polygon fill="#63b8ff" stroke="#63b8ff" points="146.91,-38.2 154.65,-30.97 144.09,-31.79 146.91,-38.2"/>
</a>
</g>
</g>
</g>
</svg>
</svg>

<style type='text/css'>
<![CDATA[
[data-mouse-over-selected='false'] { opacity: 0.7; }
[data-mouse-over-selected='true']  { opacity: 1.0; }
]]>
</style>
<script type="application/ecmascript"><![CDATA[
document.addEventListener('DOMContentLoaded', (event) => {
  highlightEdges();
  highlightAdjacentNodes();
});
]]></script>
</svg>
