<?xml version="1.0" encoding="UTF-8" standalone="no"?>
<!DOCTYPE svg PUBLIC "-//W3C//DTD SVG 1.1//EN"
 "http://www.w3.org/Graphics/SVG/1.1/DTD/svg11.dtd">
<!-- Generated by graphviz version 8.1.0 (20230707.0739)
 -->
<!-- Title: mal_packet_weaver::Session::pop_packet_async Pages: 1 -->
<svg width="445pt" height="213pt"
 viewBox="0.00 0.00 444.50 212.50" xmlns="http://www.w3.org/2000/svg" xmlns:xlink="http://www.w3.org/1999/xlink">
<g id="graph0" class="graph" transform="scale(1 1) rotate(0) translate(4 208.5)">
<title>mal_packet_weaver::Session::pop_packet_async</title>
<!-- Node1 -->
<g id="Node000001" class="node">
<title>Node1</title>
<g id="a_Node000001"><a xlink:title=" ">
<polygon fill="#999999" stroke="#666666" points="123.25,-155.5 0,-155.5 0,-125 123.25,-125 123.25,-155.5"/>
<text text-anchor="start" x="8" y="-142" font-family="Times,serif" font-size="10.00">mal_packet_weaver::</text>
<text text-anchor="middle" x="61.62" y="-130.75" font-family="Times,serif" font-size="10.00">Session::pop_packet_async</text>
</a>
</g>
</g>
<!-- Node2 -->
<g id="Node000002" class="node">
<title>Node2</title>
<g id="a_Node000002"><a xlink:href="../../d1/da7/classmal__toolkit_1_1_exponential_backoff.html#a161c6f3c2d6e611ec15e3c6511182ec8" target="_top" xlink:title="Get the current backoff delay.">
<polygon fill="white" stroke="#666666" points="281.75,-204.5 159.25,-204.5 159.25,-174 281.75,-174 281.75,-204.5"/>
<text text-anchor="start" x="167.25" y="-191" font-family="Times,serif" font-size="10.00">mal_toolkit::Exponential</text>
<text text-anchor="middle" x="220.5" y="-179.75" font-family="Times,serif" font-size="10.00">Backoff::get_current_delay</text>
</a>
</g>
</g>
<!-- Node1&#45;&gt;Node2 -->
<g id="edge1_Node000001_Node000002" class="edge">
<title>Node1&#45;&gt;Node2</title>
<g id="a_edge1_Node000001_Node000002"><a xlink:title=" ">
<path fill="none" stroke="#63b8ff" d="M112.69,-155.89C127.34,-160.46 143.51,-165.51 158.74,-170.27"/>
<polygon fill="#63b8ff" stroke="#63b8ff" points="157.51,-173.87 168.1,-173.51 159.6,-167.19 157.51,-173.87"/>
</a>
</g>
</g>
<!-- Node3 -->
<g id="Node000003" class="node">
<title>Node3</title>
<g id="a_Node000003"><a xlink:href="../../d1/da7/classmal__toolkit_1_1_exponential_backoff.html#ad9374a1e0241fcbae8c9fa4d7c3175f8" target="_top" xlink:title="Increase the backoff delay using exponential factor.">
<polygon fill="white" stroke="#666666" points="276.12,-155.5 164.88,-155.5 164.88,-125 276.12,-125 276.12,-155.5"/>
<text text-anchor="start" x="172.88" y="-142" font-family="Times,serif" font-size="10.00">mal_toolkit::Exponential</text>
<text text-anchor="middle" x="220.5" y="-130.75" font-family="Times,serif" font-size="10.00">Backoff::increase_delay</text>
</a>
</g>
</g>
<!-- Node1&#45;&gt;Node3 -->
<g id="edge2_Node000001_Node000003" class="edge">
<title>Node1&#45;&gt;Node3</title>
<g id="a_edge2_Node000001_Node000003"><a xlink:title=" ">
<path fill="none" stroke="#63b8ff" d="M123.73,-140.25C133.48,-140.25 143.6,-140.25 153.46,-140.25"/>
<polygon fill="#63b8ff" stroke="#63b8ff" points="153.45,-143.75 163.45,-140.25 153.45,-136.75 153.45,-143.75"/>
</a>
</g>
</g>
<!-- Node4 -->
<g id="Node000004" class="node">
<title>Node4</title>
<g id="a_Node000004"><a xlink:href="../../d8/d39/classmal__packet__weaver_1_1_session.html#a3b221a320f0fe93e2f463a52f9eab2a0" target="_top" xlink:title="Returns the earliest acquired packet. If packet queue is empty, returns nullptr.">
<polygon fill="white" stroke="#666666" points="279.12,-106.5 161.88,-106.5 161.88,-76 279.12,-76 279.12,-106.5"/>
<text text-anchor="start" x="169.88" y="-93" font-family="Times,serif" font-size="10.00">mal_packet_weaver::</text>
<text text-anchor="middle" x="220.5" y="-81.75" font-family="Times,serif" font-size="10.00">Session::pop_packet_now</text>
</a>
</g>
</g>
<!-- Node1&#45;&gt;Node4 -->
<g id="edge3_Node000001_Node000004" class="edge">
<title>Node1&#45;&gt;Node4</title>
<g id="a_edge3_Node000001_Node000004"><a xlink:title=" ">
<path fill="none" stroke="#63b8ff" d="M112.69,-124.61C127.34,-120.04 143.51,-114.99 158.74,-110.23"/>
<polygon fill="#63b8ff" stroke="#63b8ff" points="159.6,-113.31 168.1,-106.99 157.51,-106.63 159.6,-113.31"/>
</a>
</g>
</g>
<!-- Node5 -->
<g id="Node000005" class="node">
<title>Node5</title>
<g id="a_Node000005"><a xlink:href="../../df/df5/namespacemal__toolkit.html#a5c77c699bb81839f37c2b5d956d8e2df" target="_top" xlink:title="Convert a byte array to a uint32_t value using little&#45;endian byte order.">
<polygon fill="white" stroke="#666666" points="420,-187.5 334.25,-187.5 334.25,-157 420,-157 420,-187.5"/>
<text text-anchor="start" x="342.25" y="-174" font-family="Times,serif" font-size="10.00">mal_toolkit::bytes</text>
<text text-anchor="middle" x="377.12" y="-162.75" font-family="Times,serif" font-size="10.00">_to_uint32</text>
</a>
</g>
</g>
<!-- Node4&#45;&gt;Node5 -->
<g id="edge4_Node000004_Node000005" class="edge">
<title>Node4&#45;&gt;Node5</title>
<g id="a_edge4_Node000004_Node000005"><a xlink:title=" ">
<path fill="none" stroke="#63b8ff" d="M264.2,-106.87C270.26,-109.68 276.28,-112.82 281.75,-116.25 299.89,-127.62 299.59,-136.91 317.75,-148.25 319.79,-149.52 321.91,-150.76 324.08,-151.94"/>
<polygon fill="#63b8ff" stroke="#63b8ff" points="322.32,-155.48 332.82,-156.86 325.47,-149.23 322.32,-155.48"/>
</a>
</g>
</g>
<!-- Node6 -->
<g id="Node000006" class="node">
<title>Node6</title>
<g id="a_Node000006"><a xlink:href="../../d7/d1e/classmal__packet__weaver_1_1packet_1_1_packet_factory.html#a1e6a3cb4e74ee9c34e309c9e3cfbd471" target="_top" xlink:title="Deserialize a byte view into a unique pointer of the specified packet type.">
<polygon fill="white" stroke="#666666" points="428.62,-139.12 325.62,-139.12 325.62,-97.38 428.62,-97.38 428.62,-139.12"/>
<text text-anchor="start" x="333.62" y="-125.62" font-family="Times,serif" font-size="10.00">mal_packet_weaver::</text>
<text text-anchor="start" x="333.62" y="-114.38" font-family="Times,serif" font-size="10.00">packet::PacketFactory</text>
<text text-anchor="middle" x="377.12" y="-103.12" font-family="Times,serif" font-size="10.00">::Deserialize</text>
</a>
</g>
</g>
<!-- Node4&#45;&gt;Node6 -->
<g id="edge5_Node000004_Node000006" class="edge">
<title>Node4&#45;&gt;Node6</title>
<g id="a_edge5_Node000004_Node000006"><a xlink:title=" ">
<path fill="none" stroke="#63b8ff" d="M279.52,-101.38C290.88,-103.37 302.84,-105.45 314.32,-107.46"/>
<polygon fill="#63b8ff" stroke="#63b8ff" points="313.7,-111.08 324.15,-109.35 314.9,-104.18 313.7,-111.08"/>
</a>
</g>
</g>
<!-- Node7 -->
<g id="Node000007" class="node">
<title>Node7</title>
<g id="a_Node000007"><a xlink:href="../../d8/d39/classmal__packet__weaver_1_1_session.html#aa6838781a707ad1f37555d590c0f22c2" target="_top" xlink:title="Pops the packet data from the received packets queue.">
<polygon fill="white" stroke="#666666" points="436.5,-79.5 317.75,-79.5 317.75,-49 436.5,-49 436.5,-79.5"/>
<text text-anchor="start" x="325.75" y="-66" font-family="Times,serif" font-size="10.00">mal_packet_weaver::</text>
<text text-anchor="middle" x="377.12" y="-54.75" font-family="Times,serif" font-size="10.00">Session::pop_packet_data</text>
</a>
</g>
</g>
<!-- Node4&#45;&gt;Node7 -->
<g id="edge6_Node000004_Node000007" class="edge">
<title>Node4&#45;&gt;Node7</title>
<g id="a_edge6_Node000004_Node000007"><a xlink:title=" ">
<path fill="none" stroke="#63b8ff" d="M279.52,-81.12C288.39,-79.57 297.62,-77.96 306.7,-76.37"/>
<polygon fill="#63b8ff" stroke="#63b8ff" points="307.02,-79.7 316.27,-74.53 305.82,-72.8 307.02,-79.7"/>
</a>
</g>
</g>
<!-- Node8 -->
<g id="Node000008" class="node">
<title>Node8</title>
<g id="a_Node000008"><a xlink:href="../../d8/d99/structmal__toolkit_1_1_byte_array.html#a33b603234734c1cdddee3fb854988181" target="_top" xlink:title="Create a ByteView of a subsequence of the byte array.">
<polygon fill="white" stroke="#666666" points="430.5,-30.5 323.75,-30.5 323.75,0 430.5,0 430.5,-30.5"/>
<text text-anchor="start" x="331.75" y="-17" font-family="Times,serif" font-size="10.00">mal_toolkit::ByteArray</text>
<text text-anchor="middle" x="377.12" y="-5.75" font-family="Times,serif" font-size="10.00">::view</text>
</a>
</g>
</g>
<!-- Node4&#45;&gt;Node8 -->
<g id="edge7_Node000004_Node000008" class="edge">
<title>Node4&#45;&gt;Node8</title>
<g id="a_edge7_Node000004_Node000008"><a xlink:title=" ">
<path fill="none" stroke="#63b8ff" d="M249.41,-75.68C268.45,-65.24 294.38,-51.42 317.75,-40.25 321.13,-38.63 324.65,-37 328.2,-35.39"/>
<polygon fill="#63b8ff" stroke="#63b8ff" points="329.52,-38.19 337.24,-30.94 326.68,-31.8 329.52,-38.19"/>
</a>
</g>
</g>
</g>
</svg>
