<?xml version="1.0" encoding="UTF-8" standalone="no"?>
<!DOCTYPE svg PUBLIC "-//W3C//DTD SVG 1.1//EN"
 "http://www.w3.org/Graphics/SVG/1.1/DTD/svg11.dtd">
<!-- Generated by graphviz version 9.0.0 (20230911.1827)
 -->
<!-- Title: mal_packet_weaver::Session::pop_packet_async Pages: 1 -->
<!--zoomable 210 -->

<svg id="main" version="1.1" xmlns="http://www.w3.org/2000/svg" xmlns:xlink="http://www.w3.org/1999/xlink" xml:space="preserve" onload="init(evt)">
<style type="text/css"><![CDATA[
.node, .edge {opacity: 0.7;}
.node.selected, .edge.selected {opacity: 1;}
.edge:hover path { stroke: red; }
.edge:hover polygon { stroke: red; fill: red; }
]]></style>

<defs>
  <circle id="rim" cx="0" cy="0" r="7"/>
  <circle id="rim2" cx="0" cy="0" r="3.5"/>
  <g id="zoomPlus">
    <use xlink:href="#rim" fill="#404040"><set attributeName="fill" to="#808080" begin="zoomplus.mouseover" end="zoomplus.mouseout"/></use>
    <path d="M-4,0h8M0,-4v8" fill="none" stroke="white" stroke-width="1.5" pointer-events="none"/>
  </g>
  <g id="zoomMin">
    <use xlink:href="#rim" fill="#404040"><set attributeName="fill" to="#808080" begin="zoomminus.mouseover" end="zoomminus.mouseout"/></use>
    <path d="M-4,0h8" fill="none" stroke="white" stroke-width="1.5" pointer-events="none"/>
  </g>
  <g id="arrowUp" transform="translate(30 24)">
    <use xlink:href="#rim"/>
    <path pointer-events="none" fill="none" stroke="white" stroke-width="1.5" d="M0,-3.0v7 M-2.5,-0.5L0,-3.0L2.5,-0.5"/>
  </g>
  <g id="arrowRight" transform="rotate(90) translate(36 -43)">
    <use xlink:href="#rim"/>
    <path pointer-events="none" fill="none" stroke="white" stroke-width="1.5" d="M0,-3.0v7 M-2.5,-0.5L0,-3.0L2.5,-0.5"/>
  </g>
  <g id="arrowDown" transform="rotate(180) translate(-30 -48)">
    <use xlink:href="#rim"/>
    <path pointer-events="none" fill="none" stroke="white" stroke-width="1.5" d="M0,-3.0v7 M-2.5,-0.5L0,-3.0L2.5,-0.5"/>
  </g>
  <g id="arrowLeft" transform="rotate(270) translate(-36 17)">
    <use xlink:href="#rim"/>
    <path pointer-events="none" fill="none" stroke="white" stroke-width="1.5" d="M0,-3.0v7 M-2.5,-0.5L0,-3.0L2.5,-0.5"/>
  </g>
  <g id="resetDef">
    <use xlink:href="#rim2" fill="#404040"><set attributeName="fill" to="#808080" begin="reset.mouseover" end="reset.mouseout"/></use>
  </g>
</defs>
<script type="application/ecmascript">
var viewWidth = 603;
var viewHeight = 210;
var sectionId = 'dynsection-9';
</script>
<script type="application/ecmascript" xlink:href="../../svg.min.js"/>
<svg id="graph" class="graph">
<g id="viewport">
<title>mal_packet_weaver::Session::pop_packet_async</title>
<!-- Node1 -->
<g id="Node000001" class="node">
<title>Node1</title>
<g id="a_Node000001"><a xlink:title=" ">
<polygon fill="#999999" stroke="#666666" points="123.25,-152.5 0,-152.5 0,-122 123.25,-122 123.25,-152.5"/>
<text text-anchor="start" x="8" y="-139" font-family="Times,serif" font-size="10.00">mal_packet_weaver::</text>
<text text-anchor="middle" x="61.62" y="-127.75" font-family="Times,serif" font-size="10.00">Session::pop_packet_async</text>
</a>
</g>
</g>
<!-- Node2 -->
<g id="Node000002" class="node">
<title>Node2</title>
<g id="a_Node000002"><a xlink:href="../../d1/da7/classmal__toolkit_1_1_exponential_backoff.html#a161c6f3c2d6e611ec15e3c6511182ec8" target="_top" xlink:title="Get the current backoff delay.">
<polygon fill="white" stroke="#666666" points="281.75,-201.5 159.25,-201.5 159.25,-171 281.75,-171 281.75,-201.5"/>
<text text-anchor="start" x="167.25" y="-188" font-family="Times,serif" font-size="10.00">mal_toolkit::Exponential</text>
<text text-anchor="middle" x="220.5" y="-176.75" font-family="Times,serif" font-size="10.00">Backoff::get_current_delay</text>
</a>
</g>
</g>
<!-- Node1&#45;&gt;Node2 -->
<g id="edge1_Node000001_Node000002" class="edge">
<title>Node1&#45;&gt;Node2</title>
<g id="a_edge1_Node000001_Node000002"><a xlink:title=" ">
<path fill="none" stroke="#63b8ff" d="M112.69,-152.89C127.2,-157.42 143.19,-162.42 158.3,-167.13"/>
<polygon fill="#63b8ff" stroke="#63b8ff" points="157.07,-170.42 167.66,-170.06 159.15,-163.73 157.07,-170.42"/>
</a>
</g>
</g>
<!-- Node3 -->
<g id="Node000003" class="node">
<title>Node3</title>
<g id="a_Node000003"><a xlink:href="../../d1/da7/classmal__toolkit_1_1_exponential_backoff.html#ad9374a1e0241fcbae8c9fa4d7c3175f8" target="_top" xlink:title="Increase the backoff delay using exponential factor.">
<polygon fill="white" stroke="#666666" points="276.12,-152.5 164.88,-152.5 164.88,-122 276.12,-122 276.12,-152.5"/>
<text text-anchor="start" x="172.88" y="-139" font-family="Times,serif" font-size="10.00">mal_toolkit::Exponential</text>
<text text-anchor="middle" x="220.5" y="-127.75" font-family="Times,serif" font-size="10.00">Backoff::increase_delay</text>
</a>
</g>
</g>
<!-- Node1&#45;&gt;Node3 -->
<g id="edge2_Node000001_Node000003" class="edge">
<title>Node1&#45;&gt;Node3</title>
<g id="a_edge2_Node000001_Node000003"><a xlink:title=" ">
<path fill="none" stroke="#63b8ff" d="M123.73,-137.25C133.37,-137.25 143.39,-137.25 153.15,-137.25"/>
<polygon fill="#63b8ff" stroke="#63b8ff" points="152.93,-140.75 162.93,-137.25 152.93,-133.75 152.93,-140.75"/>
</a>
</g>
</g>
<!-- Node4 -->
<g id="Node000004" class="node">
<title>Node4</title>
<g id="a_Node000004"><a xlink:href="../../d8/d39/classmal__packet__weaver_1_1_session.html#a3b221a320f0fe93e2f463a52f9eab2a0" target="_top" xlink:title="Returns the earliest acquired packet. If packet queue is empty, returns nullptr.">
<polygon fill="white" stroke="#666666" points="279.12,-103.5 161.88,-103.5 161.88,-73 279.12,-73 279.12,-103.5"/>
<text text-anchor="start" x="169.88" y="-90" font-family="Times,serif" font-size="10.00">mal_packet_weaver::</text>
<text text-anchor="middle" x="220.5" y="-78.75" font-family="Times,serif" font-size="10.00">Session::pop_packet_now</text>
</a>
</g>
</g>
<!-- Node1&#45;&gt;Node4 -->
<g id="edge3_Node000001_Node000004" class="edge">
<title>Node1&#45;&gt;Node4</title>
<g id="a_edge3_Node000001_Node000004"><a xlink:title=" ">
<path fill="none" stroke="#63b8ff" d="M112.69,-121.61C127.2,-117.08 143.19,-112.08 158.3,-107.37"/>
<polygon fill="#63b8ff" stroke="#63b8ff" points="159.15,-110.77 167.66,-104.44 157.07,-104.08 159.15,-110.77"/>
</a>
</g>
</g>
<!-- Node5 -->
<g id="Node000005" class="node">
<title>Node5</title>
<g id="a_Node000005"><a xlink:href="../../df/df5/namespacemal__toolkit.html#a5c77c699bb81839f37c2b5d956d8e2df" target="_top" xlink:title="Convert a byte array to a uint32_t value using little&#45;endian byte order.">
<polygon fill="white" stroke="#666666" points="421.5,-177.5 335.75,-177.5 335.75,-147 421.5,-147 421.5,-177.5"/>
<text text-anchor="start" x="343.75" y="-164" font-family="Times,serif" font-size="10.00">mal_toolkit::bytes</text>
<text text-anchor="middle" x="378.62" y="-152.75" font-family="Times,serif" font-size="10.00">_to_uint32</text>
</a>
</g>
</g>
<!-- Node4&#45;&gt;Node5 -->
<g id="edge4_Node000004_Node000005" class="edge">
<title>Node4&#45;&gt;Node5</title>
<g id="a_edge4_Node000004_Node000005"><a xlink:title=" ">
<path fill="none" stroke="#63b8ff" d="M262.19,-103.86C268.83,-106.77 275.56,-109.94 281.75,-113.25 298.71,-122.31 300.8,-128.17 317.75,-137.25 320.73,-138.85 323.84,-140.41 327,-141.94"/>
<polygon fill="#63b8ff" stroke="#63b8ff" points="325.27,-144.99 335.82,-145.99 328.19,-138.63 325.27,-144.99"/>
</a>
</g>
</g>
<!-- Node6 -->
<g id="Node000006" class="node">
<title>Node6</title>
<g id="a_Node000006"><a xlink:href="../../da/d61/classmal__packet__weaver_1_1_packet_factory.html#ad82f39abacb042a3900d3ca7e7a8fc47" target="_top" xlink:title="Deserialize a byte view into a unique pointer of the specified packet type.">
<polygon fill="white" stroke="#666666" points="439.5,-128.5 317.75,-128.5 317.75,-98 439.5,-98 439.5,-128.5"/>
<text text-anchor="start" x="325.75" y="-115" font-family="Times,serif" font-size="10.00">mal_packet_weaver::</text>
<text text-anchor="middle" x="378.62" y="-103.75" font-family="Times,serif" font-size="10.00">PacketFactory::Deserialize</text>
</a>
</g>
</g>
<!-- Node4&#45;&gt;Node6 -->
<g id="edge5_Node000004_Node000006" class="edge">
<title>Node4&#45;&gt;Node6</title>
<g id="a_edge5_Node000004_Node000006"><a xlink:title=" ">
<path fill="none" stroke="#63b8ff" d="M279.19,-97.49C287.93,-98.89 297.03,-100.34 306.01,-101.78"/>
<polygon fill="#63b8ff" stroke="#63b8ff" points="305.37,-105.22 315.8,-103.35 306.48,-98.31 305.37,-105.22"/>
</a>
</g>
</g>
<!-- Node8 -->
<g id="Node000008" class="node">
<title>Node8</title>
<g id="a_Node000008"><a xlink:href="../../d8/d39/classmal__packet__weaver_1_1_session.html#aa6838781a707ad1f37555d590c0f22c2" target="_top" xlink:title="Pops the packet data from the received packets queue.">
<polygon fill="white" stroke="#666666" points="438,-79.5 319.25,-79.5 319.25,-49 438,-49 438,-79.5"/>
<text text-anchor="start" x="327.25" y="-66" font-family="Times,serif" font-size="10.00">mal_packet_weaver::</text>
<text text-anchor="middle" x="378.62" y="-54.75" font-family="Times,serif" font-size="10.00">Session::pop_packet_data</text>
</a>
</g>
</g>
<!-- Node4&#45;&gt;Node8 -->
<g id="edge7_Node000004_Node000008" class="edge">
<title>Node4&#45;&gt;Node8</title>
<g id="a_edge7_Node000004_Node000008"><a xlink:title=" ">
<path fill="none" stroke="#63b8ff" d="M279.19,-79.38C288.49,-77.95 298.21,-76.46 307.76,-74.99"/>
<polygon fill="#63b8ff" stroke="#63b8ff" points="308.02,-78.49 317.37,-73.51 306.95,-71.57 308.02,-78.49"/>
</a>
</g>
</g>
<!-- Node9 -->
<g id="Node000009" class="node">
<title>Node9</title>
<g id="a_Node000009"><a xlink:href="../../d8/d99/structmal__toolkit_1_1_byte_array.html#a33b603234734c1cdddee3fb854988181" target="_top" xlink:title="Create a ByteView of a subsequence of the byte array.">
<polygon fill="white" stroke="#666666" points="432,-30.5 325.25,-30.5 325.25,0 432,0 432,-30.5"/>
<text text-anchor="start" x="333.25" y="-17" font-family="Times,serif" font-size="10.00">mal_toolkit::ByteArray</text>
<text text-anchor="middle" x="378.62" y="-5.75" font-family="Times,serif" font-size="10.00">::view</text>
</a>
</g>
</g>
<!-- Node4&#45;&gt;Node9 -->
<g id="edge8_Node000004_Node000009" class="edge">
<title>Node4&#45;&gt;Node9</title>
<g id="a_edge8_Node000004_Node000009"><a xlink:title=" ">
<path fill="none" stroke="#63b8ff" d="M251.59,-72.59C270.45,-62.95 295.34,-50.5 317.75,-40.25 321.29,-38.63 324.96,-36.99 328.67,-35.37"/>
<polygon fill="#63b8ff" stroke="#63b8ff" points="329.94,-38.64 337.74,-31.47 327.17,-32.21 329.94,-38.64"/>
</a>
</g>
</g>
<!-- Node7 -->
<g id="Node000007" class="node">
<title>Node7</title>
<g id="a_Node000007"><a xlink:href="../../da/d61/classmal__packet__weaver_1_1_packet_factory.html#a8fdf5f5e58a23f9e31aa35b2737e355b" target="_top" xlink:title="Instance of the Packet Factory.">
<polygon fill="white" stroke="#666666" points="589.75,-128.5 480.75,-128.5 480.75,-98 589.75,-98 589.75,-128.5"/>
<text text-anchor="start" x="488.75" y="-115" font-family="Times,serif" font-size="10.00">mal_packet_weaver::</text>
<text text-anchor="middle" x="535.25" y="-103.75" font-family="Times,serif" font-size="10.00">PacketFactory::instance</text>
</a>
</g>
</g>
<!-- Node6&#45;&gt;Node7 -->
<g id="edge6_Node000006_Node000007" class="edge">
<title>Node6&#45;&gt;Node7</title>
<g id="a_edge6_Node000006_Node000007"><a xlink:title=" ">
<path fill="none" stroke="#63b8ff" d="M439.85,-113.25C449.48,-113.25 459.48,-113.25 469.22,-113.25"/>
<polygon fill="#63b8ff" stroke="#63b8ff" points="468.97,-116.75 478.97,-113.25 468.97,-109.75 468.97,-116.75"/>
</a>
</g>
</g>
<!-- Node10 -->
<g id="Node000010" class="node">
<title>Node10</title>
<g id="a_Node000010"><a xlink:href="../../d8/d99/structmal__toolkit_1_1_byte_array.html#ab23437254557962a474e4ba7c5e25fe4" target="_top" xlink:title="Convert the ByteArray to a typed pointer.">
<polygon fill="white" stroke="#666666" points="595,-24.88 475.5,-24.88 475.5,-5.62 595,-5.62 595,-24.88"/>
<text text-anchor="middle" x="535.25" y="-11.38" font-family="Times,serif" font-size="10.00">mal_toolkit::ByteArray::as</text>
</a>
</g>
</g>
<!-- Node9&#45;&gt;Node10 -->
<g id="edge9_Node000009_Node000010" class="edge">
<title>Node9&#45;&gt;Node10</title>
<g id="a_edge9_Node000009_Node000010"><a xlink:title=" ">
<path fill="none" stroke="#63b8ff" d="M432.41,-15.25C442.49,-15.25 453.2,-15.25 463.74,-15.25"/>
<polygon fill="#63b8ff" stroke="#63b8ff" points="463.56,-18.75 473.56,-15.25 463.56,-11.75 463.56,-18.75"/>
</a>
</g>
</g>
</g>
</svg>

<g id="navigator" transform="translate(0 0)" fill="#404254">
  <rect fill="#f2f5e9" fill-opacity="0.5" stroke="#606060" stroke-width=".5" x="0" y="0" width="60" height="60"/>
  <use id="zoomplus" xlink:href="#zoomPlus" x="17" y="9" onmousedown="handleZoom(evt,'in')"/>
  <use id="zoomminus" xlink:href="#zoomMin" x="42" y="9" onmousedown="handleZoom(evt,'out')"/>
  <use id="reset" xlink:href="#resetDef" x="30" y="36" onmousedown="handleReset()"/>
   <use id="arrowup" xlink:href="#arrowUp" x="0" y="0" onmousedown="handlePan(0,-1)"/>
  <use id="arrowright" xlink:href="#arrowRight" x="0" y="0" onmousedown="handlePan(1,0)"/>
  <use id="arrowdown" xlink:href="#arrowDown" x="0" y="0" onmousedown="handlePan(0,1)"/>
  <use id="arrowleft" xlink:href="#arrowLeft" x="0" y="0" onmousedown="handlePan(-1,0)"/>
</g>
<svg viewBox="0 0 15 15" width="100%" height="30px" preserveAspectRatio="xMaxYMin meet">
 <g id="arrow_out" transform="scale(0.3 0.3)">
  <a xlink:href="classmal__packet__weaver_1_1_session_a961d49d84fb1426fc605c529df1296d1_cgraph_org.svg" target="_base">
   <rect id="button" ry="5" rx="5" y="6" x="6" height="38" width="38"
        fill="#f2f5e9" fill-opacity="0.5" stroke="#606060" stroke-width="1.0"/>
   <path id="arrow"
     d="M 11.500037,31.436501 C 11.940474,20.09759 22.043105,11.32322 32.158766,21.979434 L 37.068811,17.246167 C 37.068811,17.246167 37.088388,32 37.088388,32 L 22.160133,31.978069 C 22.160133,31.978069 26.997745,27.140456 26.997745,27.140456 C 18.528582,18.264221 13.291696,25.230495 11.500037,31.436501 z"
     style="fill:#404040;"/>
  </a>
 </g>
</svg>

<style type='text/css'>
<![CDATA[
[data-mouse-over-selected='false'] { opacity: 0.7; }
[data-mouse-over-selected='true']  { opacity: 1.0; }
]]>
</style>
<script type="application/ecmascript"><![CDATA[
document.addEventListener('DOMContentLoaded', (event) => {
  highlightEdges();
  highlightAdjacentNodes();
});
]]></script>
</svg>
