<?xml version="1.0" encoding="UTF-8" standalone="no"?>
<!DOCTYPE svg PUBLIC "-//W3C//DTD SVG 1.1//EN"
 "http://www.w3.org/Graphics/SVG/1.1/DTD/svg11.dtd">
<!-- Generated by graphviz version 8.1.0 (20230707.0739)
 -->
<!-- Title: mal_packet_weaver::Session::send_all Pages: 1 -->
<svg width="413pt" height="327pt"
 viewBox="0.00 0.00 413.00 326.50" xmlns="http://www.w3.org/2000/svg" xmlns:xlink="http://www.w3.org/1999/xlink">
<g id="graph0" class="graph" transform="scale(1 1) rotate(0) translate(4 322.5)">
<title>mal_packet_weaver::Session::send_all</title>
<!-- Node1 -->
<g id="Node000001" class="node">
<title>Node1</title>
<g id="a_Node000001"><a xlink:title="Asynchronously sends all packets in the queue through the network.">
<polygon fill="#999999" stroke="#666666" points="99.25,-159.5 0,-159.5 0,-129 99.25,-129 99.25,-159.5"/>
<text text-anchor="start" x="8" y="-146" font-family="Times,serif" font-size="10.00">mal_packet_weaver::</text>
<text text-anchor="middle" x="49.62" y="-134.75" font-family="Times,serif" font-size="10.00">Session::send_all</text>
</a>
</g>
</g>
<!-- Node2 -->
<g id="Node000002" class="node">
<title>Node2</title>
<g id="a_Node000002"><a xlink:href="../../d4/d9d/structmal__packet__weaver_1_1_byte_array.html#aed36512e62b9d6d8e45aef241339888b" target="_top" xlink:title="Append multiple data sources to the byte array.">
<polygon fill="white" stroke="#666666" points="240.5,-300.5 141.25,-300.5 141.25,-270 240.5,-270 240.5,-300.5"/>
<text text-anchor="start" x="149.25" y="-287" font-family="Times,serif" font-size="10.00">mal_packet_weaver::</text>
<text text-anchor="middle" x="190.88" y="-275.75" font-family="Times,serif" font-size="10.00">ByteArray::append</text>
</a>
</g>
</g>
<!-- Node1&#45;&gt;Node2 -->
<g id="edge1_Node000001_Node000002" class="edge">
<title>Node1&#45;&gt;Node2</title>
<g id="a_edge1_Node000001_Node000002"><a xlink:title=" ">
<path fill="none" stroke="#63b8ff" d="M58.51,-159.73C71.55,-184 99.72,-231.24 135.25,-260.25 136.86,-261.56 138.54,-262.82 140.28,-264.03"/>
<polygon fill="#63b8ff" stroke="#63b8ff" points="138.03,-267.36 148.38,-269.62 141.69,-261.4 138.03,-267.36"/>
</a>
</g>
</g>
<!-- Node3 -->
<g id="Node000003" class="node">
<title>Node3</title>
<g id="a_Node000003"><a xlink:href="../../d4/d9d/structmal__packet__weaver_1_1_byte_array.html#a5ce0c445aa4f44df9f44ddcfe8bff0ef" target="_top" xlink:title="Convert the ByteArray to a typed pointer.">
<polygon fill="white" stroke="#666666" points="240.5,-251.5 141.25,-251.5 141.25,-221 240.5,-221 240.5,-251.5"/>
<text text-anchor="start" x="149.25" y="-238" font-family="Times,serif" font-size="10.00">mal_packet_weaver::</text>
<text text-anchor="middle" x="190.88" y="-226.75" font-family="Times,serif" font-size="10.00">ByteArray::as</text>
</a>
</g>
</g>
<!-- Node1&#45;&gt;Node3 -->
<g id="edge3_Node000001_Node000003" class="edge">
<title>Node1&#45;&gt;Node3</title>
<g id="a_edge3_Node000001_Node000003"><a xlink:title=" ">
<path fill="none" stroke="#63b8ff" d="M67.86,-159.95C84.35,-174.44 110.32,-195.98 135.25,-211.25 137.71,-212.76 140.27,-214.23 142.89,-215.66"/>
<polygon fill="#63b8ff" stroke="#63b8ff" points="141.03,-219.15 151.52,-220.61 144.23,-212.92 141.03,-219.15"/>
</a>
</g>
</g>
<!-- Node4 -->
<g id="Node000004" class="node">
<title>Node4</title>
<g id="a_Node000004"><a xlink:href="../../d1/da7/classmal__toolkit_1_1_exponential_backoff.html#aa83694a9b15273a1abbf95722b71fcca" target="_top" xlink:title="Decrease the backoff delay using divisor factor.">
<polygon fill="white" stroke="#666666" points="246.5,-202.5 135.25,-202.5 135.25,-172 246.5,-172 246.5,-202.5"/>
<text text-anchor="start" x="143.25" y="-189" font-family="Times,serif" font-size="10.00">mal_toolkit::Exponential</text>
<text text-anchor="middle" x="190.88" y="-177.75" font-family="Times,serif" font-size="10.00">Backoff::decrease_delay</text>
</a>
</g>
</g>
<!-- Node1&#45;&gt;Node4 -->
<g id="edge4_Node000001_Node000004" class="edge">
<title>Node1&#45;&gt;Node4</title>
<g id="a_edge4_Node000001_Node000004"><a xlink:title=" ">
<path fill="none" stroke="#63b8ff" d="M99.72,-159.41C109.15,-162.32 119.13,-165.4 128.89,-168.42"/>
<polygon fill="#63b8ff" stroke="#63b8ff" points="127.75,-172.04 138.34,-171.65 129.82,-165.35 127.75,-172.04"/>
</a>
</g>
</g>
<!-- Node5 -->
<g id="Node000005" class="node">
<title>Node5</title>
<g id="a_Node000005"><a xlink:href="../../d1/da7/classmal__toolkit_1_1_exponential_backoff.html#a161c6f3c2d6e611ec15e3c6511182ec8" target="_top" xlink:title="Get the current backoff delay.">
<polygon fill="white" stroke="#666666" points="405,-149.5 282.5,-149.5 282.5,-119 405,-119 405,-149.5"/>
<text text-anchor="start" x="290.5" y="-136" font-family="Times,serif" font-size="10.00">mal_toolkit::Exponential</text>
<text text-anchor="middle" x="343.75" y="-124.75" font-family="Times,serif" font-size="10.00">Backoff::get_current_delay</text>
</a>
</g>
</g>
<!-- Node1&#45;&gt;Node5 -->
<g id="edge5_Node000001_Node000005" class="edge">
<title>Node1&#45;&gt;Node5</title>
<g id="a_edge5_Node000001_Node000005"><a xlink:title=" ">
<path fill="none" stroke="#63b8ff" d="M99.52,-142.58C146.47,-140.97 217.95,-138.52 271.28,-136.7"/>
<polygon fill="#63b8ff" stroke="#63b8ff" points="271.16,-140.17 281.03,-136.33 270.92,-133.17 271.16,-140.17"/>
</a>
</g>
</g>
<!-- Node6 -->
<g id="Node000006" class="node">
<title>Node6</title>
<g id="a_Node000006"><a xlink:href="../../d8/d39/classmal__packet__weaver_1_1_session.html#a44aae33be31d6dd7db9feb4142b3239e" target="_top" xlink:title="Retrieves a shared pointer to the current session.">
<polygon fill="white" stroke="#666666" points="246.12,-116.5 135.62,-116.5 135.62,-86 246.12,-86 246.12,-116.5"/>
<text text-anchor="start" x="143.62" y="-103" font-family="Times,serif" font-size="10.00">mal_packet_weaver::</text>
<text text-anchor="middle" x="190.88" y="-91.75" font-family="Times,serif" font-size="10.00">Session::get_shared_ptr</text>
</a>
</g>
</g>
<!-- Node1&#45;&gt;Node6 -->
<g id="edge6_Node000001_Node000006" class="edge">
<title>Node1&#45;&gt;Node6</title>
<g id="a_edge6_Node000001_Node000006"><a xlink:title=" ">
<path fill="none" stroke="#63b8ff" d="M99.72,-129.09C109.15,-126.18 119.13,-123.1 128.89,-120.08"/>
<polygon fill="#63b8ff" stroke="#63b8ff" points="129.82,-123.15 138.34,-116.85 127.75,-116.46 129.82,-123.15"/>
</a>
</g>
</g>
<!-- Node7 -->
<g id="Node000007" class="node">
<title>Node7</title>
<g id="a_Node000007"><a xlink:href="../../d1/da7/classmal__toolkit_1_1_exponential_backoff.html#ad9374a1e0241fcbae8c9fa4d7c3175f8" target="_top" xlink:title="Increase the backoff delay using exponential factor.">
<polygon fill="white" stroke="#666666" points="399.38,-91.5 288.12,-91.5 288.12,-61 399.38,-61 399.38,-91.5"/>
<text text-anchor="start" x="296.12" y="-78" font-family="Times,serif" font-size="10.00">mal_toolkit::Exponential</text>
<text text-anchor="middle" x="343.75" y="-66.75" font-family="Times,serif" font-size="10.00">Backoff::increase_delay</text>
</a>
</g>
</g>
<!-- Node1&#45;&gt;Node7 -->
<g id="edge9_Node000001_Node000007" class="edge">
<title>Node1&#45;&gt;Node7</title>
<g id="a_edge9_Node000001_Node000007"><a xlink:title=" ">
<path fill="none" stroke="#63b8ff" d="M64.04,-128.75C79.35,-112.36 106.07,-87.48 135.25,-77.25 180.66,-61.33 235.17,-61.75 276.92,-65.79"/>
<polygon fill="#63b8ff" stroke="#63b8ff" points="276.48,-69.37 286.79,-66.95 277.22,-62.41 276.48,-69.37"/>
</a>
</g>
</g>
<!-- Node8 -->
<g id="Node000008" class="node">
<title>Node8</title>
<g id="a_Node000008"><a xlink:href="../../df/df5/namespacemal__toolkit.html#a205f8d4452e595ed3943f0d083c6033f" target="_top" xlink:title="Convert a uint32_t value to a ByteArray using little&#45;endian byte order.">
<polygon fill="white" stroke="#666666" points="236.38,-30.5 145.38,-30.5 145.38,0 236.38,0 236.38,-30.5"/>
<text text-anchor="start" x="153.38" y="-17" font-family="Times,serif" font-size="10.00">mal_toolkit::uint32</text>
<text text-anchor="middle" x="190.88" y="-5.75" font-family="Times,serif" font-size="10.00">_to_bytes</text>
</a>
</g>
</g>
<!-- Node1&#45;&gt;Node8 -->
<g id="edge10_Node000001_Node000008" class="edge">
<title>Node1&#45;&gt;Node8</title>
<g id="a_edge10_Node000001_Node000008"><a xlink:title=" ">
<path fill="none" stroke="#63b8ff" d="M60.87,-128.77C75.45,-107.64 103.9,-69.51 135.25,-44.25 138.59,-41.56 142.21,-39 145.95,-36.61"/>
<polygon fill="#63b8ff" stroke="#63b8ff" points="147.6,-39.11 154.4,-30.98 144.02,-33.09 147.6,-39.11"/>
</a>
</g>
</g>
<!-- Node2&#45;&gt;Node2 -->
<g id="edge2_Node000002_Node000002" class="edge">
<title>Node2&#45;&gt;Node2</title>
<g id="a_edge2_Node000002_Node000002"><a xlink:title=" ">
<path fill="none" stroke="#63b8ff" d="M165.85,-300.99C160.74,-310.06 169.08,-318.5 190.88,-318.5 203.13,-318.5 211.14,-315.83 214.88,-311.88"/>
<polygon fill="#63b8ff" stroke="#63b8ff" points="218.46,-312.27 215.9,-301.99 211.49,-311.62 218.46,-312.27"/>
</a>
</g>
</g>
<!-- Node6&#45;&gt;Node5 -->
<g id="edge7_Node000006_Node000005" class="edge">
<title>Node6&#45;&gt;Node5</title>
<g id="a_edge7_Node000006_Node000005"><a xlink:title=" ">
<path fill="none" stroke="#63b8ff" d="M246.34,-113.16C254.53,-114.96 263.08,-116.82 271.56,-118.68"/>
<polygon fill="#63b8ff" stroke="#63b8ff" points="270.71,-122.29 281.23,-121.01 272.2,-115.46 270.71,-122.29"/>
</a>
</g>
</g>
<!-- Node6&#45;&gt;Node7 -->
<g id="edge8_Node000006_Node000007" class="edge">
<title>Node6&#45;&gt;Node7</title>
<g id="a_edge8_Node000006_Node000007"><a xlink:title=" ">
<path fill="none" stroke="#63b8ff" d="M246.34,-92.22C256.37,-90.56 266.93,-88.81 277.24,-87.11"/>
<polygon fill="#63b8ff" stroke="#63b8ff" points="277.56,-90.43 286.85,-85.35 276.42,-83.53 277.56,-90.43"/>
</a>
</g>
</g>
</g>
</svg>
