<?xml version="1.0" encoding="UTF-8" standalone="no"?>
<!DOCTYPE svg PUBLIC "-//W3C//DTD SVG 1.1//EN"
 "http://www.w3.org/Graphics/SVG/1.1/DTD/svg11.dtd">
<!-- Generated by graphviz version 8.1.0 (20230707.0739)
 -->
<!-- Title: mal_packet_weaver::Session::send_packet Pages: 1 -->
<svg width="243pt" height="207pt"
 viewBox="0.00 0.00 242.50 207.12" xmlns="http://www.w3.org/2000/svg" xmlns:xlink="http://www.w3.org/1999/xlink">
<g id="graph0" class="graph" transform="scale(1 1) rotate(0) translate(4 203.12)">
<title>mal_packet_weaver::Session::send_packet</title>
<!-- Node1 -->
<g id="Node000001" class="node">
<title>Node1</title>
<g id="a_Node000001"><a xlink:title="Sends any packet derived from DerivedPacket through the network.">
<polygon fill="#999999" stroke="#666666" points="99.25,-106.5 0,-106.5 0,-76 99.25,-76 99.25,-106.5"/>
<text text-anchor="start" x="8" y="-93" font-family="Times,serif" font-size="10.00">mal_packet_weaver::</text>
<text text-anchor="middle" x="49.62" y="-81.75" font-family="Times,serif" font-size="10.00">Session::send_packet</text>
</a>
</g>
</g>
<!-- Node2 -->
<g id="Node000002" class="node">
<title>Node2</title>
<g id="a_Node000002"><a xlink:href="../../d7/d6c/classmal__packet__weaver_1_1_exponential_backoff.html#aa58aecd9c3c9a893de17afed16c1509f" target="_top" xlink:title="Get the current backoff delay.">
<polygon fill="white" stroke="#666666" points="234.5,-199.12 135.25,-199.12 135.25,-157.38 234.5,-157.38 234.5,-199.12"/>
<text text-anchor="start" x="143.25" y="-185.62" font-family="Times,serif" font-size="10.00">mal_packet_weaver::</text>
<text text-anchor="start" x="143.25" y="-174.38" font-family="Times,serif" font-size="10.00">ExponentialBackoff::</text>
<text text-anchor="middle" x="184.88" y="-163.12" font-family="Times,serif" font-size="10.00">get_current_delay</text>
</a>
</g>
</g>
<!-- Node1&#45;&gt;Node2 -->
<g id="edge1_Node000001_Node000002" class="edge">
<title>Node1&#45;&gt;Node2</title>
<g id="a_edge1_Node000001_Node000002"><a xlink:title=" ">
<path fill="none" stroke="#63b8ff" d="M73.45,-106.98C90.39,-118.57 114.11,-134.62 135.25,-148.25 136.77,-149.23 138.32,-150.22 139.88,-151.22"/>
<polygon fill="#63b8ff" stroke="#63b8ff" points="137.65,-154.58 147.97,-156.95 141.38,-148.66 137.65,-154.58"/>
</a>
</g>
</g>
<!-- Node3 -->
<g id="Node000003" class="node">
<title>Node3</title>
<g id="a_Node000003"><a xlink:href="../../d7/d6c/classmal__packet__weaver_1_1_exponential_backoff.html#a4ce57a126c13af532d74f9c533cbbdf3" target="_top" xlink:title="Increase the backoff delay using exponential factor.">
<polygon fill="white" stroke="#666666" points="234.5,-139.12 135.25,-139.12 135.25,-97.38 234.5,-97.38 234.5,-139.12"/>
<text text-anchor="start" x="143.25" y="-125.62" font-family="Times,serif" font-size="10.00">mal_packet_weaver::</text>
<text text-anchor="start" x="143.25" y="-114.38" font-family="Times,serif" font-size="10.00">ExponentialBackoff::</text>
<text text-anchor="middle" x="184.88" y="-103.12" font-family="Times,serif" font-size="10.00">increase_delay</text>
</a>
</g>
</g>
<!-- Node1&#45;&gt;Node3 -->
<g id="edge2_Node000001_Node000003" class="edge">
<title>Node1&#45;&gt;Node3</title>
<g id="a_edge2_Node000001_Node000003"><a xlink:title=" ">
<path fill="none" stroke="#63b8ff" d="M99.49,-101.15C107.54,-102.78 115.97,-104.49 124.26,-106.17"/>
<polygon fill="#63b8ff" stroke="#63b8ff" points="123.52,-109.8 134.02,-108.35 124.91,-102.93 123.52,-109.8"/>
</a>
</g>
</g>
<!-- Node4 -->
<g id="Node000004" class="node">
<title>Node4</title>
<g id="a_Node000004"><a xlink:href="../../d4/d9d/structmal__packet__weaver_1_1_byte_array.html#a3bf850167f23c6f5aada32381a29e58f" target="_top" xlink:title="Serialize the byte array using Boost&#39;s serialization framework.">
<polygon fill="white" stroke="#666666" points="234.5,-79.5 135.25,-79.5 135.25,-49 234.5,-49 234.5,-79.5"/>
<text text-anchor="start" x="143.25" y="-66" font-family="Times,serif" font-size="10.00">mal_packet_weaver::</text>
<text text-anchor="middle" x="184.88" y="-54.75" font-family="Times,serif" font-size="10.00">ByteArray::serialize</text>
</a>
</g>
</g>
<!-- Node1&#45;&gt;Node4 -->
<g id="edge3_Node000001_Node000004" class="edge">
<title>Node1&#45;&gt;Node4</title>
<g id="a_edge3_Node000001_Node000004"><a xlink:title=" ">
<path fill="none" stroke="#63b8ff" d="M99.49,-81.35C107.54,-79.72 115.97,-78.01 124.26,-76.33"/>
<polygon fill="#63b8ff" stroke="#63b8ff" points="124.91,-79.57 134.02,-74.15 123.52,-72.7 124.91,-79.57"/>
</a>
</g>
</g>
<!-- Node5 -->
<g id="Node000005" class="node">
<title>Node5</title>
<g id="a_Node000005"><a xlink:href="../../d6/de9/namespacemal__packet__weaver.html#a87ac8de4f0992d1a8e99086320febbde" target="_top" xlink:title="Convert a uint32_t value to a ByteArray using little&#45;endian byte order.">
<polygon fill="white" stroke="#666666" points="234.5,-30.5 135.25,-30.5 135.25,0 234.5,0 234.5,-30.5"/>
<text text-anchor="start" x="143.25" y="-17" font-family="Times,serif" font-size="10.00">mal_packet_weaver::</text>
<text text-anchor="middle" x="184.88" y="-5.75" font-family="Times,serif" font-size="10.00">uint32_to_bytes</text>
</a>
</g>
</g>
<!-- Node1&#45;&gt;Node5 -->
<g id="edge4_Node000001_Node000005" class="edge">
<title>Node1&#45;&gt;Node5</title>
<g id="a_edge4_Node000001_Node000005"><a xlink:title=" ">
<path fill="none" stroke="#63b8ff" d="M75.54,-75.63C92.26,-65.29 114.87,-51.61 135.25,-40.25 137.77,-38.85 140.37,-37.42 143.01,-36.01"/>
<polygon fill="#63b8ff" stroke="#63b8ff" points="144.38,-38.71 151.58,-30.94 141.11,-32.52 144.38,-38.71"/>
</a>
</g>
</g>
</g>
</svg>
