<?xml version="1.0" encoding="UTF-8" standalone="no"?>
<!DOCTYPE svg PUBLIC "-//W3C//DTD SVG 1.1//EN"
 "http://www.w3.org/Graphics/SVG/1.1/DTD/svg11.dtd">
<!-- Generated by graphviz version 8.1.0 (20230707.0739)
 -->
<!-- Title: mal_packet_weaver::Session::Session Pages: 1 -->
<svg width="707pt" height="479pt"
 viewBox="0.00 0.00 706.75 478.50" xmlns="http://www.w3.org/2000/svg" xmlns:xlink="http://www.w3.org/1999/xlink">
<g id="graph0" class="graph" transform="scale(1 1) rotate(0) translate(4 474.5)">
<title>mal_packet_weaver::Session::Session</title>
<!-- Node1 -->
<g id="Node000001" class="node">
<title>Node1</title>
<g id="a_Node000001"><a xlink:title="Constructor for the Session class.">
<polygon fill="#999999" stroke="#666666" points="99.25,-253.5 0,-253.5 0,-223 99.25,-223 99.25,-253.5"/>
<text text-anchor="start" x="8" y="-240" font-family="Times,serif" font-size="10.00">mal_packet_weaver::</text>
<text text-anchor="middle" x="49.62" y="-228.75" font-family="Times,serif" font-size="10.00">Session::Session</text>
</a>
</g>
</g>
<!-- Node2 -->
<g id="Node000002" class="node">
<title>Node2</title>
<g id="a_Node000002"><a xlink:href="../../d8/d39/classmal__packet__weaver_1_1_session.html#ab8d02d6502bb180c3b0f383b3fddc6ca" target="_top" xlink:title="Asynchronously forges new packets from the buffer.">
<polygon fill="white" stroke="#666666" points="377.25,-390.12 274.25,-390.12 274.25,-348.38 377.25,-348.38 377.25,-390.12"/>
<text text-anchor="start" x="282.25" y="-376.62" font-family="Times,serif" font-size="10.00">mal_packet_weaver::</text>
<text text-anchor="start" x="282.25" y="-365.38" font-family="Times,serif" font-size="10.00">Session::async_packet</text>
<text text-anchor="middle" x="325.75" y="-354.12" font-family="Times,serif" font-size="10.00">_forger</text>
</a>
</g>
</g>
<!-- Node1&#45;&gt;Node2 -->
<g id="edge1_Node000001_Node000002" class="edge">
<title>Node1&#45;&gt;Node2</title>
<g id="a_edge1_Node000001_Node000002"><a xlink:title=" ">
<path fill="none" stroke="#63b8ff" d="M75.75,-253.83C92.37,-263.88 114.78,-276.94 135.25,-287.25 177.57,-308.57 226.71,-329.73 264.35,-345.22"/>
<polygon fill="#63b8ff" stroke="#63b8ff" points="262.56,-348.68 273.15,-349.23 265.22,-342.2 262.56,-348.68"/>
</a>
</g>
</g>
<!-- Node9 -->
<g id="Node000009" class="node">
<title>Node9</title>
<g id="a_Node000009"><a xlink:href="../../d8/d39/classmal__packet__weaver_1_1_session.html#a95349691831542cec27090d0ab21ca88" target="_top" xlink:title="Asynchronously receives and processes incoming packets from the network.">
<polygon fill="white" stroke="#666666" points="377.25,-330.12 274.25,-330.12 274.25,-288.38 377.25,-288.38 377.25,-330.12"/>
<text text-anchor="start" x="282.25" y="-316.62" font-family="Times,serif" font-size="10.00">mal_packet_weaver::</text>
<text text-anchor="start" x="282.25" y="-305.38" font-family="Times,serif" font-size="10.00">Session::async_packet</text>
<text text-anchor="middle" x="325.75" y="-294.12" font-family="Times,serif" font-size="10.00">_sender</text>
</a>
</g>
</g>
<!-- Node1&#45;&gt;Node9 -->
<g id="edge8_Node000001_Node000009" class="edge">
<title>Node1&#45;&gt;Node9</title>
<g id="a_edge8_Node000001_Node000009"><a xlink:title=" ">
<path fill="none" stroke="#63b8ff" d="M99.63,-250.94C145.4,-262.8 213.88,-280.54 263.29,-293.33"/>
<polygon fill="#63b8ff" stroke="#63b8ff" points="262.29,-296.95 272.84,-296.07 264.04,-290.17 262.29,-296.95"/>
</a>
</g>
</g>
<!-- Node12 -->
<g id="Node000012" class="node">
<title>Node12</title>
<g id="a_Node000012"><a xlink:href="../../d8/d39/classmal__packet__weaver_1_1_session.html#a9cb6655f710d023540a11da7b218c5d3" target="_top" xlink:title="Initiates an asynchronous read operation from the socket to receive data.">
<polygon fill="white" stroke="#666666" points="234.5,-183.5 135.25,-183.5 135.25,-153 234.5,-153 234.5,-183.5"/>
<text text-anchor="start" x="143.25" y="-170" font-family="Times,serif" font-size="10.00">mal_packet_weaver::</text>
<text text-anchor="middle" x="184.88" y="-158.75" font-family="Times,serif" font-size="10.00">Session::receive_all</text>
</a>
</g>
</g>
<!-- Node1&#45;&gt;Node12 -->
<g id="edge15_Node000001_Node000012" class="edge">
<title>Node1&#45;&gt;Node12</title>
<g id="a_edge15_Node000001_Node000012"><a xlink:title=" ">
<path fill="none" stroke="#63b8ff" d="M79.95,-222.53C96.21,-213.84 116.82,-202.89 135.25,-193.25 137.97,-191.83 140.78,-190.37 143.61,-188.9"/>
<polygon fill="#63b8ff" stroke="#63b8ff" points="144.96,-191.62 152.23,-183.92 141.74,-185.41 144.96,-191.62"/>
</a>
</g>
</g>
<!-- Node13 -->
<g id="Node000013" class="node">
<title>Node13</title>
<g id="a_Node000013"><a xlink:href="../../d8/d39/classmal__packet__weaver_1_1_session.html#a71ede34f71a6dc30d56d99015997caa3" target="_top" xlink:title="Asynchronously sends all packets in the queue through the network.">
<polygon fill="white" stroke="#666666" points="234.5,-232.5 135.25,-232.5 135.25,-202 234.5,-202 234.5,-232.5"/>
<text text-anchor="start" x="143.25" y="-219" font-family="Times,serif" font-size="10.00">mal_packet_weaver::</text>
<text text-anchor="middle" x="184.88" y="-207.75" font-family="Times,serif" font-size="10.00">Session::send_all</text>
</a>
</g>
</g>
<!-- Node1&#45;&gt;Node13 -->
<g id="edge16_Node000001_Node000013" class="edge">
<title>Node1&#45;&gt;Node13</title>
<g id="a_edge16_Node000001_Node000013"><a xlink:title=" ">
<path fill="none" stroke="#63b8ff" d="M99.49,-230.55C107.54,-229.28 115.97,-227.95 124.26,-226.65"/>
<polygon fill="#63b8ff" stroke="#63b8ff" points="124.69,-229.96 134.02,-224.95 123.6,-223.05 124.69,-229.96"/>
</a>
</g>
</g>
<!-- Node3 -->
<g id="Node000003" class="node">
<title>Node3</title>
<g id="a_Node000003"><a xlink:href="../../df/df5/namespacemal__toolkit.html#a8405b24c94e717d8a57da64b1483a4a9" target="_top" xlink:title="Always asserts a condition with customizable behavior.">
<polygon fill="white" stroke="#666666" points="538.38,-421.88 418.12,-421.88 418.12,-402.62 538.38,-402.62 538.38,-421.88"/>
<text text-anchor="middle" x="478.25" y="-408.38" font-family="Times,serif" font-size="10.00">mal_toolkit::AlwaysAssert</text>
</a>
</g>
</g>
<!-- Node2&#45;&gt;Node3 -->
<g id="edge2_Node000002_Node000003" class="edge">
<title>Node2&#45;&gt;Node3</title>
<g id="a_edge2_Node000002_Node000003"><a xlink:title=" ">
<path fill="none" stroke="#63b8ff" d="M377.7,-383.81C395.22,-388.81 414.7,-394.38 431.75,-399.25"/>
<polygon fill="#63b8ff" stroke="#63b8ff" points="430.44,-402.8 441.01,-402.18 432.36,-396.07 430.44,-402.8"/>
</a>
</g>
</g>
<!-- Node5 -->
<g id="Node000005" class="node">
<title>Node5</title>
<g id="a_Node000005"><a xlink:href="../../d6/de9/namespacemal__packet__weaver.html#a02f5130547d5ddf6c16f31fad13cc469" target="_top" xlink:title="Convert a byte array to a uint32_t value using little&#45;endian byte order.">
<polygon fill="white" stroke="#666666" points="527.88,-384.5 428.62,-384.5 428.62,-354 527.88,-354 527.88,-384.5"/>
<text text-anchor="start" x="436.62" y="-371" font-family="Times,serif" font-size="10.00">mal_packet_weaver::</text>
<text text-anchor="middle" x="478.25" y="-359.75" font-family="Times,serif" font-size="10.00">bytes_to_uint32</text>
</a>
</g>
</g>
<!-- Node2&#45;&gt;Node5 -->
<g id="edge4_Node000002_Node000005" class="edge">
<title>Node2&#45;&gt;Node5</title>
<g id="a_edge4_Node000002_Node000005"><a xlink:title=" ">
<path fill="none" stroke="#63b8ff" d="M377.7,-369.25C390.43,-369.25 404.19,-369.25 417.31,-369.25"/>
<polygon fill="#63b8ff" stroke="#63b8ff" points="417.13,-372.75 427.13,-369.25 417.13,-365.75 417.13,-372.75"/>
</a>
</g>
</g>
<!-- Node6 -->
<g id="Node000006" class="node">
<title>Node6</title>
<g id="a_Node000006"><a xlink:href="../../d1/da7/classmal__toolkit_1_1_exponential_backoff.html#aa83694a9b15273a1abbf95722b71fcca" target="_top" xlink:title="Decrease the backoff delay using divisor factor.">
<polygon fill="white" stroke="#666666" points="533.88,-470.5 422.62,-470.5 422.62,-440 533.88,-440 533.88,-470.5"/>
<text text-anchor="start" x="430.62" y="-457" font-family="Times,serif" font-size="10.00">mal_toolkit::Exponential</text>
<text text-anchor="middle" x="478.25" y="-445.75" font-family="Times,serif" font-size="10.00">Backoff::decrease_delay</text>
</a>
</g>
</g>
<!-- Node2&#45;&gt;Node6 -->
<g id="edge5_Node000002_Node000006" class="edge">
<title>Node2&#45;&gt;Node6</title>
<g id="a_edge5_Node000002_Node000006"><a xlink:title=" ">
<path fill="none" stroke="#63b8ff" d="M354.18,-390.48C371.56,-403.32 394.87,-419.43 417,-431.25 419.52,-432.6 422.13,-433.91 424.79,-435.19"/>
<polygon fill="#63b8ff" stroke="#63b8ff" points="423.02,-438.68 433.57,-439.63 425.92,-432.31 423.02,-438.68"/>
</a>
</g>
</g>
<!-- Node7 -->
<g id="Node000007" class="node">
<title>Node7</title>
<g id="a_Node000007"><a xlink:href="../../d1/da7/classmal__toolkit_1_1_exponential_backoff.html#a161c6f3c2d6e611ec15e3c6511182ec8" target="_top" xlink:title="Get the current backoff delay.">
<polygon fill="white" stroke="#666666" points="539.5,-188.5 417,-188.5 417,-158 539.5,-158 539.5,-188.5"/>
<text text-anchor="start" x="425" y="-175" font-family="Times,serif" font-size="10.00">mal_toolkit::Exponential</text>
<text text-anchor="middle" x="478.25" y="-163.75" font-family="Times,serif" font-size="10.00">Backoff::get_current_delay</text>
</a>
</g>
</g>
<!-- Node2&#45;&gt;Node7 -->
<g id="edge6_Node000002_Node000007" class="edge">
<title>Node2&#45;&gt;Node7</title>
<g id="a_edge6_Node000002_Node000007"><a xlink:title=" ">
<path fill="none" stroke="#63b8ff" d="M372.33,-348.08C375.55,-345.42 378.5,-342.49 381,-339.25 420.54,-288.07 374.66,-247.14 417,-198.25 417.78,-197.35 418.59,-196.48 419.44,-195.65"/>
<polygon fill="#63b8ff" stroke="#63b8ff" points="421.24,-197.89 426.86,-188.91 416.87,-192.43 421.24,-197.89"/>
</a>
</g>
</g>
<!-- Node8 -->
<g id="Node000008" class="node">
<title>Node8</title>
<g id="a_Node000008"><a xlink:href="../../d1/da7/classmal__toolkit_1_1_exponential_backoff.html#ad9374a1e0241fcbae8c9fa4d7c3175f8" target="_top" xlink:title="Increase the backoff delay using exponential factor.">
<polygon fill="white" stroke="#666666" points="533.88,-237.5 422.62,-237.5 422.62,-207 533.88,-207 533.88,-237.5"/>
<text text-anchor="start" x="430.62" y="-224" font-family="Times,serif" font-size="10.00">mal_toolkit::Exponential</text>
<text text-anchor="middle" x="478.25" y="-212.75" font-family="Times,serif" font-size="10.00">Backoff::increase_delay</text>
</a>
</g>
</g>
<!-- Node2&#45;&gt;Node8 -->
<g id="edge7_Node000002_Node000008" class="edge">
<title>Node2&#45;&gt;Node8</title>
<g id="a_edge7_Node000002_Node000008"><a xlink:title=" ">
<path fill="none" stroke="#63b8ff" d="M371.65,-347.93C375.05,-345.3 378.23,-342.41 381,-339.25 409.93,-306.22 386.27,-278.61 417,-247.25 417.98,-246.25 419.01,-245.29 420.07,-244.36"/>
<polygon fill="#63b8ff" stroke="#63b8ff" points="421.86,-246.67 427.9,-237.97 417.75,-241 421.86,-246.67"/>
</a>
</g>
</g>
<!-- Node4 -->
<g id="Node000004" class="node">
<title>Node4</title>
<g id="a_Node000004"><a xlink:href="../../df/df5/namespacemal__toolkit.html#a27bf9441da264c7f90650042e9e30f40" target="_top" xlink:title="Returns an empty string representing the current source location.">
<polygon fill="white" stroke="#666666" points="698.75,-427.5 575.5,-427.5 575.5,-397 698.75,-397 698.75,-427.5"/>
<text text-anchor="start" x="583.5" y="-414" font-family="Times,serif" font-size="10.00">mal_toolkit::CurrentSource</text>
<text text-anchor="middle" x="637.12" y="-402.75" font-family="Times,serif" font-size="10.00">Location</text>
</a>
</g>
</g>
<!-- Node3&#45;&gt;Node4 -->
<g id="edge3_Node000003_Node000004" class="edge">
<title>Node3&#45;&gt;Node4</title>
<g id="a_edge3_Node000003_Node000004"><a xlink:title=" ">
<path fill="none" stroke="#63b8ff" d="M538.56,-412.25C546.98,-412.25 555.71,-412.25 564.33,-412.25"/>
<polygon fill="#63b8ff" stroke="#63b8ff" points="564.17,-415.75 574.17,-412.25 564.17,-408.75 564.17,-415.75"/>
</a>
</g>
</g>
<!-- Node9&#45;&gt;Node5 -->
<g id="edge9_Node000009_Node000005" class="edge">
<title>Node9&#45;&gt;Node5</title>
<g id="a_edge9_Node000009_Node000005"><a xlink:title=" ">
<path fill="none" stroke="#63b8ff" d="M377.7,-329.56C393.94,-336.04 411.88,-343.19 428,-349.61"/>
<polygon fill="#63b8ff" stroke="#63b8ff" points="426.18,-353.06 436.77,-353.51 428.78,-346.56 426.18,-353.06"/>
</a>
</g>
</g>
<!-- Node9&#45;&gt;Node6 -->
<g id="edge11_Node000009_Node000006" class="edge">
<title>Node9&#45;&gt;Node6</title>
<g id="a_edge11_Node000009_Node000006"><a xlink:title=" ">
<path fill="none" stroke="#63b8ff" d="M371.65,-330.57C375.05,-333.2 378.23,-336.09 381,-339.25 409.93,-372.28 386.05,-400.11 417,-431.25 417.69,-431.95 418.41,-432.63 419.15,-433.29"/>
<polygon fill="#63b8ff" stroke="#63b8ff" points="416.62,-436.51 426.73,-439.65 420.78,-430.88 416.62,-436.51"/>
</a>
</g>
</g>
<!-- Node9&#45;&gt;Node7 -->
<g id="edge12_Node000009_Node000007" class="edge">
<title>Node9&#45;&gt;Node7</title>
<g id="a_edge12_Node000009_Node000007"><a xlink:title=" ">
<path fill="none" stroke="#63b8ff" d="M343.82,-287.99C369.34,-256.25 414.72,-199.95 417,-198.25 418.92,-196.82 420.93,-195.46 423.01,-194.16"/>
<polygon fill="#63b8ff" stroke="#63b8ff" points="424.43,-196.81 431.44,-188.87 421.01,-190.7 424.43,-196.81"/>
</a>
</g>
</g>
<!-- Node9&#45;&gt;Node8 -->
<g id="edge13_Node000009_Node000008" class="edge">
<title>Node9&#45;&gt;Node8</title>
<g id="a_edge13_Node000009_Node000008"><a xlink:title=" ">
<path fill="none" stroke="#63b8ff" d="M360.56,-287.96C367.39,-283.51 374.47,-278.8 381,-274.25 397.41,-262.82 399.63,-257.16 417,-247.25 419.81,-245.65 422.75,-244.09 425.74,-242.59"/>
<polygon fill="#63b8ff" stroke="#63b8ff" points="426.9,-245.44 434.44,-238 423.9,-239.11 426.9,-245.44"/>
</a>
</g>
</g>
<!-- Node10 -->
<g id="Node000010" class="node">
<title>Node10</title>
<g id="a_Node000010"><a xlink:href="../../df/df5/namespacemal__toolkit.html#a5c77c699bb81839f37c2b5d956d8e2df" target="_top" xlink:title="Convert a byte array to a uint32_t value using little&#45;endian byte order.">
<polygon fill="white" stroke="#666666" points="521.12,-335.5 435.38,-335.5 435.38,-305 521.12,-305 521.12,-335.5"/>
<text text-anchor="start" x="443.38" y="-322" font-family="Times,serif" font-size="10.00">mal_toolkit::bytes</text>
<text text-anchor="middle" x="478.25" y="-310.75" font-family="Times,serif" font-size="10.00">_to_uint32</text>
</a>
</g>
</g>
<!-- Node9&#45;&gt;Node10 -->
<g id="edge10_Node000009_Node000010" class="edge">
<title>Node9&#45;&gt;Node10</title>
<g id="a_edge10_Node000009_Node000010"><a xlink:title=" ">
<path fill="none" stroke="#63b8ff" d="M377.7,-312.97C392.8,-314.08 409.36,-315.29 424.56,-316.4"/>
<polygon fill="#63b8ff" stroke="#63b8ff" points="424.12,-319.95 434.35,-317.19 424.63,-312.97 424.12,-319.95"/>
</a>
</g>
</g>
<!-- Node11 -->
<g id="Node000011" class="node">
<title>Node11</title>
<g id="a_Node000011"><a xlink:href="../../d4/d9d/structmal__packet__weaver_1_1_byte_array.html#a88aac09c49f5b82796a94736781626c7" target="_top" xlink:title="Create a ByteView of a subsequence of the byte array.">
<polygon fill="white" stroke="#666666" points="527.88,-286.5 428.62,-286.5 428.62,-256 527.88,-256 527.88,-286.5"/>
<text text-anchor="start" x="436.62" y="-273" font-family="Times,serif" font-size="10.00">mal_packet_weaver::</text>
<text text-anchor="middle" x="478.25" y="-261.75" font-family="Times,serif" font-size="10.00">ByteArray::view</text>
</a>
</g>
</g>
<!-- Node9&#45;&gt;Node11 -->
<g id="edge14_Node000009_Node000011" class="edge">
<title>Node9&#45;&gt;Node11</title>
<g id="a_edge14_Node000009_Node000011"><a xlink:title=" ">
<path fill="none" stroke="#63b8ff" d="M377.7,-296.38C390.55,-293.14 404.47,-289.63 417.7,-286.29"/>
<polygon fill="#63b8ff" stroke="#63b8ff" points="418.29,-289.49 427.13,-283.65 416.58,-282.71 418.29,-289.49"/>
</a>
</g>
</g>
<!-- Node13&#45;&gt;Node6 -->
<g id="edge20_Node000013_Node000006" class="edge">
<title>Node13&#45;&gt;Node6</title>
<g id="a_edge20_Node000013_Node000006"><a xlink:title=" ">
<path fill="none" stroke="#63b8ff" d="M188.55,-232.86C195.42,-268.09 217.07,-354.24 270.5,-399.25 309.91,-432.45 367.24,-446.12 411.53,-451.67"/>
<polygon fill="#63b8ff" stroke="#63b8ff" points="410.88,-455.23 421.21,-452.88 411.67,-448.27 410.88,-455.23"/>
</a>
</g>
</g>
<!-- Node13&#45;&gt;Node7 -->
<g id="edge21_Node000013_Node000007" class="edge">
<title>Node13&#45;&gt;Node7</title>
<g id="a_edge21_Node000013_Node000007"><a xlink:title=" ">
<path fill="none" stroke="#63b8ff" d="M234.74,-201.78C246.37,-198.55 258.79,-195.46 270.5,-193.25 315.13,-184.83 365.89,-179.86 405.95,-176.97"/>
<polygon fill="#63b8ff" stroke="#63b8ff" points="405.95,-180.41 415.68,-176.23 405.47,-173.43 405.95,-180.41"/>
</a>
</g>
</g>
<!-- Node13&#45;&gt;Node8 -->
<g id="edge25_Node000013_Node000008" class="edge">
<title>Node13&#45;&gt;Node8</title>
<g id="a_edge25_Node000013_Node000008"><a xlink:title=" ">
<path fill="none" stroke="#63b8ff" d="M232.38,-232.93C244.64,-236.37 257.95,-239.5 270.5,-241.25 319.14,-248.01 332.12,-246.03 381,-241.25 391,-240.27 401.51,-238.74 411.75,-236.95"/>
<polygon fill="#63b8ff" stroke="#63b8ff" points="412.1,-240.26 421.3,-235.01 410.83,-233.38 412.1,-240.26"/>
</a>
</g>
</g>
<!-- Node14 -->
<g id="Node000014" class="node">
<title>Node14</title>
<g id="a_Node000014"><a xlink:href="../../d4/d9d/structmal__packet__weaver_1_1_byte_array.html#aed36512e62b9d6d8e45aef241339888b" target="_top" xlink:title="Append multiple data sources to the byte array.">
<polygon fill="white" stroke="#666666" points="375.38,-128.5 276.12,-128.5 276.12,-98 375.38,-98 375.38,-128.5"/>
<text text-anchor="start" x="284.12" y="-115" font-family="Times,serif" font-size="10.00">mal_packet_weaver::</text>
<text text-anchor="middle" x="325.75" y="-103.75" font-family="Times,serif" font-size="10.00">ByteArray::append</text>
</a>
</g>
</g>
<!-- Node13&#45;&gt;Node14 -->
<g id="edge17_Node000013_Node000014" class="edge">
<title>Node13&#45;&gt;Node14</title>
<g id="a_edge17_Node000013_Node000014"><a xlink:title=" ">
<path fill="none" stroke="#63b8ff" d="M219.22,-201.53C224.46,-198.66 229.72,-195.52 234.5,-192.25 252.16,-180.15 254.41,-174.37 270.5,-160.25 279.59,-152.28 289.57,-143.6 298.48,-135.89"/>
<polygon fill="#63b8ff" stroke="#63b8ff" points="300.34,-138.05 305.62,-128.86 295.76,-132.75 300.34,-138.05"/>
</a>
</g>
</g>
<!-- Node15 -->
<g id="Node000015" class="node">
<title>Node15</title>
<g id="a_Node000015"><a xlink:href="../../d4/d9d/structmal__packet__weaver_1_1_byte_array.html#a5ce0c445aa4f44df9f44ddcfe8bff0ef" target="_top" xlink:title="Convert the ByteArray to a typed pointer.">
<polygon fill="white" stroke="#666666" points="375.38,-79.5 276.12,-79.5 276.12,-49 375.38,-49 375.38,-79.5"/>
<text text-anchor="start" x="284.12" y="-66" font-family="Times,serif" font-size="10.00">mal_packet_weaver::</text>
<text text-anchor="middle" x="325.75" y="-54.75" font-family="Times,serif" font-size="10.00">ByteArray::as</text>
</a>
</g>
</g>
<!-- Node13&#45;&gt;Node15 -->
<g id="edge19_Node000013_Node000015" class="edge">
<title>Node13&#45;&gt;Node15</title>
<g id="a_edge19_Node000013_Node000015"><a xlink:title=" ">
<path fill="none" stroke="#63b8ff" d="M223.61,-201.69C227.63,-198.97 231.38,-195.83 234.5,-192.25 266.33,-155.67 237.89,-125.14 270.5,-89.25 271.3,-88.37 272.14,-87.51 273.01,-86.69"/>
<polygon fill="#63b8ff" stroke="#63b8ff" points="274.87,-88.9 280.6,-79.99 270.56,-83.38 274.87,-88.9"/>
</a>
</g>
</g>
<!-- Node16 -->
<g id="Node000016" class="node">
<title>Node16</title>
<g id="a_Node000016"><a xlink:href="../../d8/d39/classmal__packet__weaver_1_1_session.html#a44aae33be31d6dd7db9feb4142b3239e" target="_top" xlink:title="Retrieves a shared pointer to the current session.">
<polygon fill="white" stroke="#666666" points="381,-232.5 270.5,-232.5 270.5,-202 381,-202 381,-232.5"/>
<text text-anchor="start" x="278.5" y="-219" font-family="Times,serif" font-size="10.00">mal_packet_weaver::</text>
<text text-anchor="middle" x="325.75" y="-207.75" font-family="Times,serif" font-size="10.00">Session::get_shared_ptr</text>
</a>
</g>
</g>
<!-- Node13&#45;&gt;Node16 -->
<g id="edge22_Node000013_Node000016" class="edge">
<title>Node13&#45;&gt;Node16</title>
<g id="a_edge22_Node000013_Node000016"><a xlink:title=" ">
<path fill="none" stroke="#63b8ff" d="M234.84,-217.25C242.76,-217.25 251.08,-217.25 259.33,-217.25"/>
<polygon fill="#63b8ff" stroke="#63b8ff" points="259.08,-220.75 269.08,-217.25 259.08,-213.75 259.08,-220.75"/>
</a>
</g>
</g>
<!-- Node17 -->
<g id="Node000017" class="node">
<title>Node17</title>
<g id="a_Node000017"><a xlink:href="../../df/df5/namespacemal__toolkit.html#a205f8d4452e595ed3943f0d083c6033f" target="_top" xlink:title="Convert a uint32_t value to a ByteArray using little&#45;endian byte order.">
<polygon fill="white" stroke="#666666" points="371.25,-30.5 280.25,-30.5 280.25,0 371.25,0 371.25,-30.5"/>
<text text-anchor="start" x="288.25" y="-17" font-family="Times,serif" font-size="10.00">mal_toolkit::uint32</text>
<text text-anchor="middle" x="325.75" y="-5.75" font-family="Times,serif" font-size="10.00">_to_bytes</text>
</a>
</g>
</g>
<!-- Node13&#45;&gt;Node17 -->
<g id="edge26_Node000013_Node000017" class="edge">
<title>Node13&#45;&gt;Node17</title>
<g id="a_edge26_Node000013_Node000017"><a xlink:title=" ">
<path fill="none" stroke="#63b8ff" d="M224.45,-201.66C228.23,-198.96 231.69,-195.84 234.5,-192.25 277.3,-137.59 226.54,-93.98 270.5,-40.25 271.24,-39.35 272.02,-38.48 272.83,-37.63"/>
<polygon fill="#63b8ff" stroke="#63b8ff" points="274.53,-39.94 279.96,-30.84 270.04,-34.57 274.53,-39.94"/>
</a>
</g>
</g>
<!-- Node14&#45;&gt;Node14 -->
<g id="edge18_Node000014_Node000014" class="edge">
<title>Node14&#45;&gt;Node14</title>
<g id="a_edge18_Node000014_Node000014"><a xlink:title=" ">
<path fill="none" stroke="#63b8ff" d="M300.79,-128.99C295.69,-138.06 304.01,-146.5 325.75,-146.5 337.98,-146.5 345.96,-143.83 349.7,-139.88"/>
<polygon fill="#63b8ff" stroke="#63b8ff" points="353.27,-140.27 350.71,-129.99 346.3,-139.62 353.27,-140.27"/>
</a>
</g>
</g>
<!-- Node16&#45;&gt;Node7 -->
<g id="edge23_Node000016_Node000007" class="edge">
<title>Node16&#45;&gt;Node7</title>
<g id="a_edge23_Node000016_Node000007"><a xlink:title=" ">
<path fill="none" stroke="#63b8ff" d="M380.23,-201.61C390.86,-198.51 402.12,-195.21 413.07,-192.01"/>
<polygon fill="#63b8ff" stroke="#63b8ff" points="413.81,-195.15 422.43,-188.98 411.85,-188.43 413.81,-195.15"/>
</a>
</g>
</g>
<!-- Node16&#45;&gt;Node8 -->
<g id="edge24_Node000016_Node000008" class="edge">
<title>Node16&#45;&gt;Node8</title>
<g id="a_edge24_Node000016_Node000008"><a xlink:title=" ">
<path fill="none" stroke="#63b8ff" d="M381.08,-219.06C390.92,-219.38 401.26,-219.73 411.38,-220.06"/>
<polygon fill="#63b8ff" stroke="#63b8ff" points="411.13,-223.59 421.24,-220.42 411.36,-216.59 411.13,-223.59"/>
</a>
</g>
</g>
</g>
</svg>
