<?xml version="1.0" encoding="UTF-8" standalone="no"?>
<!DOCTYPE svg PUBLIC "-//W3C//DTD SVG 1.1//EN"
 "http://www.w3.org/Graphics/SVG/1.1/DTD/svg11.dtd">
<!-- Generated by graphviz version 8.1.0 (20230707.0739)
 -->
<!-- Title: mal_packet_weaver::Session::async_packet_forger Pages: 1 -->
<svg width="429pt" height="229pt"
 viewBox="0.00 0.00 428.75 228.50" xmlns="http://www.w3.org/2000/svg" xmlns:xlink="http://www.w3.org/1999/xlink">
<g id="graph0" class="graph" transform="scale(1 1) rotate(0) translate(4 224.5)">
<title>mal_packet_weaver::Session::async_packet_forger</title>
<!-- Node1 -->
<g id="Node000001" class="node">
<title>Node1</title>
<g id="a_Node000001"><a xlink:title="Asynchronously forges new packets from the buffer.">
<polygon fill="#999999" stroke="#666666" points="103,-134.12 0,-134.12 0,-92.38 103,-92.38 103,-134.12"/>
<text text-anchor="start" x="8" y="-120.62" font-family="Times,serif" font-size="10.00">mal_packet_weaver::</text>
<text text-anchor="start" x="8" y="-109.38" font-family="Times,serif" font-size="10.00">Session::async_packet</text>
<text text-anchor="middle" x="51.5" y="-98.12" font-family="Times,serif" font-size="10.00">_forger</text>
</a>
</g>
</g>
<!-- Node2 -->
<g id="Node000002" class="node">
<title>Node2</title>
<g id="a_Node000002"><a xlink:href="../../df/df5/namespacemal__toolkit.html#a8405b24c94e717d8a57da64b1483a4a9" target="_top" xlink:title="Always asserts a condition with customizable behavior.">
<polygon fill="white" stroke="#666666" points="260.38,-214.88 140.12,-214.88 140.12,-195.62 260.38,-195.62 260.38,-214.88"/>
<text text-anchor="middle" x="200.25" y="-201.38" font-family="Times,serif" font-size="10.00">mal_toolkit::AlwaysAssert</text>
</a>
</g>
</g>
<!-- Node1&#45;&gt;Node2 -->
<g id="edge1_Node000001_Node000002" class="edge">
<title>Node1&#45;&gt;Node2</title>
<g id="a_edge1_Node000001_Node000002"><a xlink:title=" ">
<path fill="none" stroke="#63b8ff" d="M72.77,-134.44C89.27,-150.62 113.87,-172.41 139,-186.25 142.27,-188.05 145.73,-189.71 149.29,-191.23"/>
<polygon fill="#63b8ff" stroke="#63b8ff" points="147.84,-194.81 158.43,-195.16 150.37,-188.28 147.84,-194.81"/>
</a>
</g>
</g>
<!-- Node4 -->
<g id="Node000004" class="node">
<title>Node4</title>
<g id="a_Node000004"><a xlink:href="../../d6/de9/namespacemal__packet__weaver.html#a02f5130547d5ddf6c16f31fad13cc469" target="_top" xlink:title="Convert a byte array to a uint32_t value using little&#45;endian byte order.">
<polygon fill="white" stroke="#666666" points="249.88,-177.5 150.62,-177.5 150.62,-147 249.88,-147 249.88,-177.5"/>
<text text-anchor="start" x="158.62" y="-164" font-family="Times,serif" font-size="10.00">mal_packet_weaver::</text>
<text text-anchor="middle" x="200.25" y="-152.75" font-family="Times,serif" font-size="10.00">bytes_to_uint32</text>
</a>
</g>
</g>
<!-- Node1&#45;&gt;Node4 -->
<g id="edge3_Node000001_Node000004" class="edge">
<title>Node1&#45;&gt;Node4</title>
<g id="a_edge3_Node000001_Node000004"><a xlink:title=" ">
<path fill="none" stroke="#63b8ff" d="M103.41,-130.25C115.96,-134.44 129.47,-138.95 142.27,-143.23"/>
<polygon fill="#63b8ff" stroke="#63b8ff" points="140.77,-146.75 151.36,-146.59 142.99,-140.11 140.77,-146.75"/>
</a>
</g>
</g>
<!-- Node5 -->
<g id="Node000005" class="node">
<title>Node5</title>
<g id="a_Node000005"><a xlink:href="../../d1/da7/classmal__toolkit_1_1_exponential_backoff.html#aa83694a9b15273a1abbf95722b71fcca" target="_top" xlink:title="Decrease the backoff delay using divisor factor.">
<polygon fill="white" stroke="#666666" points="255.88,-128.5 144.62,-128.5 144.62,-98 255.88,-98 255.88,-128.5"/>
<text text-anchor="start" x="152.62" y="-115" font-family="Times,serif" font-size="10.00">mal_toolkit::Exponential</text>
<text text-anchor="middle" x="200.25" y="-103.75" font-family="Times,serif" font-size="10.00">Backoff::decrease_delay</text>
</a>
</g>
</g>
<!-- Node1&#45;&gt;Node5 -->
<g id="edge4_Node000001_Node000005" class="edge">
<title>Node1&#45;&gt;Node5</title>
<g id="a_edge4_Node000001_Node000005"><a xlink:title=" ">
<path fill="none" stroke="#63b8ff" d="M103.41,-113.25C113.08,-113.25 123.32,-113.25 133.37,-113.25"/>
<polygon fill="#63b8ff" stroke="#63b8ff" points="133.17,-116.75 143.17,-113.25 133.17,-109.75 133.17,-116.75"/>
</a>
</g>
</g>
<!-- Node6 -->
<g id="Node000006" class="node">
<title>Node6</title>
<g id="a_Node000006"><a xlink:href="../../d1/da7/classmal__toolkit_1_1_exponential_backoff.html#a161c6f3c2d6e611ec15e3c6511182ec8" target="_top" xlink:title="Get the current backoff delay.">
<polygon fill="white" stroke="#666666" points="261.5,-79.5 139,-79.5 139,-49 261.5,-49 261.5,-79.5"/>
<text text-anchor="start" x="147" y="-66" font-family="Times,serif" font-size="10.00">mal_toolkit::Exponential</text>
<text text-anchor="middle" x="200.25" y="-54.75" font-family="Times,serif" font-size="10.00">Backoff::get_current_delay</text>
</a>
</g>
</g>
<!-- Node1&#45;&gt;Node6 -->
<g id="edge5_Node000001_Node000006" class="edge">
<title>Node1&#45;&gt;Node6</title>
<g id="a_edge5_Node000001_Node000006"><a xlink:title=" ">
<path fill="none" stroke="#63b8ff" d="M103.41,-96.25C115.96,-92.06 129.47,-87.55 142.27,-83.27"/>
<polygon fill="#63b8ff" stroke="#63b8ff" points="142.99,-86.39 151.36,-79.91 140.77,-79.75 142.99,-86.39"/>
</a>
</g>
</g>
<!-- Node7 -->
<g id="Node000007" class="node">
<title>Node7</title>
<g id="a_Node000007"><a xlink:href="../../d1/da7/classmal__toolkit_1_1_exponential_backoff.html#ad9374a1e0241fcbae8c9fa4d7c3175f8" target="_top" xlink:title="Increase the backoff delay using exponential factor.">
<polygon fill="white" stroke="#666666" points="255.88,-30.5 144.62,-30.5 144.62,0 255.88,0 255.88,-30.5"/>
<text text-anchor="start" x="152.62" y="-17" font-family="Times,serif" font-size="10.00">mal_toolkit::Exponential</text>
<text text-anchor="middle" x="200.25" y="-5.75" font-family="Times,serif" font-size="10.00">Backoff::increase_delay</text>
</a>
</g>
</g>
<!-- Node1&#45;&gt;Node7 -->
<g id="edge6_Node000001_Node000007" class="edge">
<title>Node1&#45;&gt;Node7</title>
<g id="a_edge6_Node000001_Node000007"><a xlink:title=" ">
<path fill="none" stroke="#63b8ff" d="M73.81,-92.01C90.49,-76.23 114.83,-54.97 139,-40.25 141.5,-38.73 144.11,-37.26 146.77,-35.85"/>
<polygon fill="#63b8ff" stroke="#63b8ff" points="148.2,-38.55 155.62,-31 145.11,-32.27 148.2,-38.55"/>
</a>
</g>
</g>
<!-- Node3 -->
<g id="Node000003" class="node">
<title>Node3</title>
<g id="a_Node000003"><a xlink:href="../../df/df5/namespacemal__toolkit.html#a27bf9441da264c7f90650042e9e30f40" target="_top" xlink:title="Returns an empty string representing the current source location.">
<polygon fill="white" stroke="#666666" points="420.75,-220.5 297.5,-220.5 297.5,-190 420.75,-190 420.75,-220.5"/>
<text text-anchor="start" x="305.5" y="-207" font-family="Times,serif" font-size="10.00">mal_toolkit::CurrentSource</text>
<text text-anchor="middle" x="359.12" y="-195.75" font-family="Times,serif" font-size="10.00">Location</text>
</a>
</g>
</g>
<!-- Node2&#45;&gt;Node3 -->
<g id="edge2_Node000002_Node000003" class="edge">
<title>Node2&#45;&gt;Node3</title>
<g id="a_edge2_Node000002_Node000003"><a xlink:title=" ">
<path fill="none" stroke="#63b8ff" d="M260.56,-205.25C268.98,-205.25 277.71,-205.25 286.33,-205.25"/>
<polygon fill="#63b8ff" stroke="#63b8ff" points="286.17,-208.75 296.17,-205.25 286.17,-201.75 286.17,-208.75"/>
</a>
</g>
</g>
</g>
</svg>
