<?xml version="1.0" encoding="UTF-8" standalone="no"?>
<!DOCTYPE svg PUBLIC "-//W3C//DTD SVG 1.1//EN"
 "http://www.w3.org/Graphics/SVG/1.1/DTD/svg11.dtd">
<!-- Generated by graphviz version 8.1.0 (20230707.0739)
 -->
<!-- Title: mal_packet_weaver::Session::send_all Pages: 1 -->
<svg width="421pt" height="315pt"
 viewBox="0.00 0.00 421.25 314.50" xmlns="http://www.w3.org/2000/svg" xmlns:xlink="http://www.w3.org/1999/xlink">
<g id="graph0" class="graph" transform="scale(1 1) rotate(0) translate(4 310.5)">
<title>mal_packet_weaver::Session::send_all</title>
<!-- Node1 -->
<g id="Node000001" class="node">
<title>Node1</title>
<g id="a_Node000001"><a xlink:title="Asynchronously sends all packets in the queue through the network.">
<polygon fill="#999999" stroke="#666666" points="99.25,-159.5 0,-159.5 0,-129 99.25,-129 99.25,-159.5"/>
<text text-anchor="start" x="8" y="-146" font-family="Times,serif" font-size="10.00">mal_packet_weaver::</text>
<text text-anchor="middle" x="49.62" y="-134.75" font-family="Times,serif" font-size="10.00">Session::send_all</text>
</a>
</g>
</g>
<!-- Node2 -->
<g id="Node000002" class="node">
<title>Node2</title>
<g id="a_Node000002"><a xlink:href="../../d8/d99/structmal__toolkit_1_1_byte_array.html#aa3d43592b3a16ad73860e290f28b9ce9" target="_top" xlink:title="Append multiple data sources to the byte array.">
<polygon fill="white" stroke="#666666" points="248.38,-288.5 141.62,-288.5 141.62,-258 248.38,-258 248.38,-288.5"/>
<text text-anchor="start" x="149.62" y="-275" font-family="Times,serif" font-size="10.00">mal_toolkit::ByteArray</text>
<text text-anchor="middle" x="195" y="-263.75" font-family="Times,serif" font-size="10.00">::append</text>
</a>
</g>
</g>
<!-- Node1&#45;&gt;Node2 -->
<g id="edge1_Node000001_Node000002" class="edge">
<title>Node1&#45;&gt;Node2</title>
<g id="a_edge1_Node000001_Node000002"><a xlink:title=" ">
<path fill="none" stroke="#63b8ff" d="M59.64,-159.86C73.34,-182.39 101.45,-224.08 135.25,-249.25 136.55,-250.22 137.89,-251.15 139.27,-252.05"/>
<polygon fill="#63b8ff" stroke="#63b8ff" points="137.36,-255.58 147.77,-257.56 140.87,-249.52 137.36,-255.58"/>
</a>
</g>
</g>
<!-- Node3 -->
<g id="Node000003" class="node">
<title>Node3</title>
<g id="a_Node000003"><a xlink:href="../../d8/d99/structmal__toolkit_1_1_byte_array.html#ab23437254557962a474e4ba7c5e25fe4" target="_top" xlink:title="Convert the ByteArray to a typed pointer.">
<polygon fill="white" stroke="#666666" points="254.75,-239.88 135.25,-239.88 135.25,-220.62 254.75,-220.62 254.75,-239.88"/>
<text text-anchor="middle" x="195" y="-226.38" font-family="Times,serif" font-size="10.00">mal_toolkit::ByteArray::as</text>
</a>
</g>
</g>
<!-- Node1&#45;&gt;Node3 -->
<g id="edge3_Node000001_Node000003" class="edge">
<title>Node1&#45;&gt;Node3</title>
<g id="a_edge3_Node000001_Node000003"><a xlink:title=" ">
<path fill="none" stroke="#63b8ff" d="M66.55,-159.76C82.7,-174.75 108.98,-197.2 135.25,-211.25 138.71,-213.1 142.39,-214.82 146.15,-216.39"/>
<polygon fill="#63b8ff" stroke="#63b8ff" points="144.6,-219.93 155.19,-220.23 147.1,-213.39 144.6,-219.93"/>
</a>
</g>
</g>
<!-- Node4 -->
<g id="Node000004" class="node">
<title>Node4</title>
<g id="a_Node000004"><a xlink:href="../../d1/da7/classmal__toolkit_1_1_exponential_backoff.html#aa83694a9b15273a1abbf95722b71fcca" target="_top" xlink:title="Decrease the backoff delay using divisor factor.">
<polygon fill="white" stroke="#666666" points="250.62,-202.5 139.38,-202.5 139.38,-172 250.62,-172 250.62,-202.5"/>
<text text-anchor="start" x="147.38" y="-189" font-family="Times,serif" font-size="10.00">mal_toolkit::Exponential</text>
<text text-anchor="middle" x="195" y="-177.75" font-family="Times,serif" font-size="10.00">Backoff::decrease_delay</text>
</a>
</g>
</g>
<!-- Node1&#45;&gt;Node4 -->
<g id="edge4_Node000001_Node000004" class="edge">
<title>Node1&#45;&gt;Node4</title>
<g id="a_edge4_Node000001_Node000004"><a xlink:title=" ">
<path fill="none" stroke="#63b8ff" d="M99.57,-158.93C109.79,-161.99 120.7,-165.27 131.34,-168.46"/>
<polygon fill="#63b8ff" stroke="#63b8ff" points="130.27,-172.09 140.85,-171.61 132.28,-165.38 130.27,-172.09"/>
</a>
</g>
</g>
<!-- Node5 -->
<g id="Node000005" class="node">
<title>Node5</title>
<g id="a_Node000005"><a xlink:href="../../d1/da7/classmal__toolkit_1_1_exponential_backoff.html#a161c6f3c2d6e611ec15e3c6511182ec8" target="_top" xlink:title="Get the current backoff delay.">
<polygon fill="white" stroke="#666666" points="413.25,-149.5 290.75,-149.5 290.75,-119 413.25,-119 413.25,-149.5"/>
<text text-anchor="start" x="298.75" y="-136" font-family="Times,serif" font-size="10.00">mal_toolkit::Exponential</text>
<text text-anchor="middle" x="352" y="-124.75" font-family="Times,serif" font-size="10.00">Backoff::get_current_delay</text>
</a>
</g>
</g>
<!-- Node1&#45;&gt;Node5 -->
<g id="edge5_Node000001_Node000005" class="edge">
<title>Node1&#45;&gt;Node5</title>
<g id="a_edge5_Node000001_Node000005"><a xlink:title=" ">
<path fill="none" stroke="#63b8ff" d="M99.55,-142.62C148.41,-140.99 224.03,-138.48 279.59,-136.63"/>
<polygon fill="#63b8ff" stroke="#63b8ff" points="279.54,-140.1 289.42,-136.27 279.31,-133.1 279.54,-140.1"/>
</a>
</g>
</g>
<!-- Node6 -->
<g id="Node000006" class="node">
<title>Node6</title>
<g id="a_Node000006"><a xlink:href="../../d8/d39/classmal__packet__weaver_1_1_session.html#a44aae33be31d6dd7db9feb4142b3239e" target="_top" xlink:title="Retrieves a shared pointer to the current session.">
<polygon fill="white" stroke="#666666" points="250.25,-116.5 139.75,-116.5 139.75,-86 250.25,-86 250.25,-116.5"/>
<text text-anchor="start" x="147.75" y="-103" font-family="Times,serif" font-size="10.00">mal_packet_weaver::</text>
<text text-anchor="middle" x="195" y="-91.75" font-family="Times,serif" font-size="10.00">Session::get_shared_ptr</text>
</a>
</g>
</g>
<!-- Node1&#45;&gt;Node6 -->
<g id="edge6_Node000001_Node000006" class="edge">
<title>Node1&#45;&gt;Node6</title>
<g id="a_edge6_Node000001_Node000006"><a xlink:title=" ">
<path fill="none" stroke="#63b8ff" d="M99.57,-129.57C109.79,-126.51 120.7,-123.23 131.34,-120.04"/>
<polygon fill="#63b8ff" stroke="#63b8ff" points="132.28,-123.12 140.85,-116.89 130.27,-116.41 132.28,-123.12"/>
</a>
</g>
</g>
<!-- Node7 -->
<g id="Node000007" class="node">
<title>Node7</title>
<g id="a_Node000007"><a xlink:href="../../d1/da7/classmal__toolkit_1_1_exponential_backoff.html#ad9374a1e0241fcbae8c9fa4d7c3175f8" target="_top" xlink:title="Increase the backoff delay using exponential factor.">
<polygon fill="white" stroke="#666666" points="407.62,-91.5 296.38,-91.5 296.38,-61 407.62,-61 407.62,-91.5"/>
<text text-anchor="start" x="304.38" y="-78" font-family="Times,serif" font-size="10.00">mal_toolkit::Exponential</text>
<text text-anchor="middle" x="352" y="-66.75" font-family="Times,serif" font-size="10.00">Backoff::increase_delay</text>
</a>
</g>
</g>
<!-- Node1&#45;&gt;Node7 -->
<g id="edge9_Node000001_Node000007" class="edge">
<title>Node1&#45;&gt;Node7</title>
<g id="a_edge9_Node000001_Node000007"><a xlink:title=" ">
<path fill="none" stroke="#63b8ff" d="M64.04,-128.75C79.35,-112.35 106.07,-87.48 135.25,-77.25 183.48,-60.34 241.58,-61.17 285.34,-65.64"/>
<polygon fill="#63b8ff" stroke="#63b8ff" points="284.81,-69.21 295.14,-66.84 285.58,-62.26 284.81,-69.21"/>
</a>
</g>
</g>
<!-- Node8 -->
<g id="Node000008" class="node">
<title>Node8</title>
<g id="a_Node000008"><a xlink:href="../../df/df5/namespacemal__toolkit.html#a205f8d4452e595ed3943f0d083c6033f" target="_top" xlink:title="Convert a uint32_t value to a ByteArray using little&#45;endian byte order.">
<polygon fill="white" stroke="#666666" points="240.5,-30.5 149.5,-30.5 149.5,0 240.5,0 240.5,-30.5"/>
<text text-anchor="start" x="157.5" y="-17" font-family="Times,serif" font-size="10.00">mal_toolkit::uint32</text>
<text text-anchor="middle" x="195" y="-5.75" font-family="Times,serif" font-size="10.00">_to_bytes</text>
</a>
</g>
</g>
<!-- Node1&#45;&gt;Node8 -->
<g id="edge10_Node000001_Node000008" class="edge">
<title>Node1&#45;&gt;Node8</title>
<g id="a_edge10_Node000001_Node000008"><a xlink:title=" ">
<path fill="none" stroke="#63b8ff" d="M60.77,-128.64C75.22,-107.36 103.54,-69.04 135.25,-44.25 138.98,-41.33 143.05,-38.6 147.25,-36.06"/>
<polygon fill="#63b8ff" stroke="#63b8ff" points="148.56,-38.78 155.58,-30.84 145.14,-32.67 148.56,-38.78"/>
</a>
</g>
</g>
<!-- Node2&#45;&gt;Node2 -->
<g id="edge2_Node000002_Node000002" class="edge">
<title>Node2&#45;&gt;Node2</title>
<g id="a_edge2_Node000002_Node000002"><a xlink:title=" ">
<path fill="none" stroke="#63b8ff" d="M169.24,-288.99C163.98,-298.06 172.57,-306.5 195,-306.5 207.62,-306.5 215.85,-303.83 219.71,-299.88"/>
<polygon fill="#63b8ff" stroke="#63b8ff" points="223.29,-300.28 220.76,-289.99 216.32,-299.6 223.29,-300.28"/>
</a>
</g>
</g>
<!-- Node6&#45;&gt;Node5 -->
<g id="edge7_Node000006_Node000005" class="edge">
<title>Node6&#45;&gt;Node5</title>
<g id="a_edge7_Node000006_Node000005"><a xlink:title=" ">
<path fill="none" stroke="#63b8ff" d="M250.65,-112.88C260.12,-114.9 270.09,-117.02 279.93,-119.12"/>
<polygon fill="#63b8ff" stroke="#63b8ff" points="279,-122.71 289.51,-121.37 280.46,-115.87 279,-122.71"/>
</a>
</g>
</g>
<!-- Node6&#45;&gt;Node7 -->
<g id="edge8_Node000006_Node000007" class="edge">
<title>Node6&#45;&gt;Node7</title>
<g id="a_edge8_Node000006_Node000007"><a xlink:title=" ">
<path fill="none" stroke="#63b8ff" d="M250.65,-92.44C261.92,-90.62 273.91,-88.68 285.53,-86.81"/>
<polygon fill="#63b8ff" stroke="#63b8ff" points="285.75,-90.16 295.06,-85.11 284.63,-83.25 285.75,-90.16"/>
</a>
</g>
</g>
</g>
</svg>
