<?xml version="1.0" encoding="UTF-8" standalone="no"?>
<!DOCTYPE svg PUBLIC "-//W3C//DTD SVG 1.1//EN"
 "http://www.w3.org/Graphics/SVG/1.1/DTD/svg11.dtd">
<!-- Generated by graphviz version 8.1.0 (20230707.0739)
 -->
<!-- Title: mal_packet_weaver::Session::async_packet_sender Pages: 1 -->
<svg width="270pt" height="284pt"
 viewBox="0.00 0.00 269.50 283.50" xmlns="http://www.w3.org/2000/svg" xmlns:xlink="http://www.w3.org/1999/xlink">

<svg id="main" version="1.1" xmlns="http://www.w3.org/2000/svg" xmlns:xlink="http://www.w3.org/1999/xlink" xml:space="preserve" onload="init(evt)">
<style type="text/css"><![CDATA[
.node, .edge {opacity: 0.7;}
.node.selected, .edge.selected {opacity: 1;}
.edge:hover path { stroke: red; }
.edge:hover polygon { stroke: red; fill: red; }
]]></style>
<script type="application/ecmascript" xlink:href="../../svg.min.js"/>
<svg id="graph" class="graph">
<g id="graph0" class="graph" transform="scale(1 1) rotate(0) translate(4 279.5)">
<title>mal_packet_weaver::Session::async_packet_sender</title>
<!-- Node1 -->
<g id="Node000001" class="node">
<title>Node1</title>
<g id="a_Node000001"><a xlink:title="Asynchronously receives and processes incoming packets from the network.">
<polygon fill="#999999" stroke="#666666" points="103,-158.12 0,-158.12 0,-116.38 103,-116.38 103,-158.12"/>
<text text-anchor="start" x="8" y="-144.62" font-family="Times,serif" font-size="10.00">mal_packet_weaver::</text>
<text text-anchor="start" x="8" y="-133.38" font-family="Times,serif" font-size="10.00">Session::async_packet</text>
<text text-anchor="middle" x="51.5" y="-122.12" font-family="Times,serif" font-size="10.00">_sender</text>
</a>
</g>
</g>
<!-- Node2 -->
<g id="Node000002" class="node">
<title>Node2</title>
<g id="a_Node000002"><a xlink:href="../../d6/de9/namespacemal__packet__weaver.html#a02f5130547d5ddf6c16f31fad13cc469" target="_top" xlink:title="Convert a byte array to a uint32_t value using little&#45;endian byte order.">
<polygon fill="white" stroke="#666666" points="249.88,-275.5 150.62,-275.5 150.62,-245 249.88,-245 249.88,-275.5"/>
<text text-anchor="start" x="158.62" y="-262" font-family="Times,serif" font-size="10.00">mal_packet_weaver::</text>
<text text-anchor="middle" x="200.25" y="-250.75" font-family="Times,serif" font-size="10.00">bytes_to_uint32</text>
</a>
</g>
</g>
<!-- Node1&#45;&gt;Node2 -->
<g id="edge1_Node000001_Node000002" class="edge">
<title>Node1&#45;&gt;Node2</title>
<g id="a_edge1_Node000001_Node000002"><a xlink:title=" ">
<path fill="none" stroke="#63b8ff" d="M66.82,-158.54C82.4,-180.31 109.09,-213.87 139,-235.25 141.14,-236.78 143.38,-238.23 145.69,-239.62"/>
<polygon fill="#63b8ff" stroke="#63b8ff" points="143.43,-242.91 153.89,-244.6 146.77,-236.76 143.43,-242.91"/>
</a>
</g>
</g>
<!-- Node3 -->
<g id="Node000003" class="node">
<title>Node3</title>
<g id="a_Node000003"><a xlink:href="../../df/df5/namespacemal__toolkit.html#a5c77c699bb81839f37c2b5d956d8e2df" target="_top" xlink:title="Convert a byte array to a uint32_t value using little&#45;endian byte order.">
<polygon fill="white" stroke="#666666" points="243.12,-226.5 157.38,-226.5 157.38,-196 243.12,-196 243.12,-226.5"/>
<text text-anchor="start" x="165.38" y="-213" font-family="Times,serif" font-size="10.00">mal_toolkit::bytes</text>
<text text-anchor="middle" x="200.25" y="-201.75" font-family="Times,serif" font-size="10.00">_to_uint32</text>
</a>
</g>
</g>
<!-- Node1&#45;&gt;Node3 -->
<g id="edge2_Node000001_Node000003" class="edge">
<title>Node1&#45;&gt;Node3</title>
<g id="a_edge2_Node000001_Node000003"><a xlink:title=" ">
<path fill="none" stroke="#63b8ff" d="M87.75,-158.51C103.24,-167.51 121.79,-177.84 139,-186.25 142.36,-187.89 145.85,-189.52 149.39,-191.12"/>
<polygon fill="#63b8ff" stroke="#63b8ff" points="147.84,-194.7 158.4,-195.52 150.66,-188.3 147.84,-194.7"/>
</a>
</g>
</g>
<!-- Node4 -->
<g id="Node000004" class="node">
<title>Node4</title>
<g id="a_Node000004"><a xlink:href="../../d1/da7/classmal__toolkit_1_1_exponential_backoff.html#aa83694a9b15273a1abbf95722b71fcca" target="_top" xlink:title="Decrease the backoff delay using divisor factor.">
<polygon fill="white" stroke="#666666" points="255.88,-177.5 144.62,-177.5 144.62,-147 255.88,-147 255.88,-177.5"/>
<text text-anchor="start" x="152.62" y="-164" font-family="Times,serif" font-size="10.00">mal_toolkit::Exponential</text>
<text text-anchor="middle" x="200.25" y="-152.75" font-family="Times,serif" font-size="10.00">Backoff::decrease_delay</text>
</a>
</g>
</g>
<!-- Node1&#45;&gt;Node4 -->
<g id="edge3_Node000001_Node000004" class="edge">
<title>Node1&#45;&gt;Node4</title>
<g id="a_edge3_Node000001_Node000004"><a xlink:title=" ">
<path fill="none" stroke="#63b8ff" d="M103.41,-145.92C113.08,-147.57 123.32,-149.32 133.37,-151.03"/>
<polygon fill="#63b8ff" stroke="#63b8ff" points="132.73,-154.64 143.17,-152.87 133.9,-147.74 132.73,-154.64"/>
</a>
</g>
</g>
<!-- Node5 -->
<g id="Node000005" class="node">
<title>Node5</title>
<g id="a_Node000005"><a xlink:href="../../d1/da7/classmal__toolkit_1_1_exponential_backoff.html#a161c6f3c2d6e611ec15e3c6511182ec8" target="_top" xlink:title="Get the current backoff delay.">
<polygon fill="white" stroke="#666666" points="261.5,-128.5 139,-128.5 139,-98 261.5,-98 261.5,-128.5"/>
<text text-anchor="start" x="147" y="-115" font-family="Times,serif" font-size="10.00">mal_toolkit::Exponential</text>
<text text-anchor="middle" x="200.25" y="-103.75" font-family="Times,serif" font-size="10.00">Backoff::get_current_delay</text>
</a>
</g>
</g>
<!-- Node1&#45;&gt;Node5 -->
<g id="edge4_Node000001_Node000005" class="edge">
<title>Node1&#45;&gt;Node5</title>
<g id="a_edge4_Node000001_Node000005"><a xlink:title=" ">
<path fill="none" stroke="#63b8ff" d="M103.41,-128.92C111.3,-127.63 119.57,-126.28 127.81,-124.93"/>
<polygon fill="#63b8ff" stroke="#63b8ff" points="128.27,-128.24 137.58,-123.17 127.15,-121.33 128.27,-128.24"/>
</a>
</g>
</g>
<!-- Node6 -->
<g id="Node000006" class="node">
<title>Node6</title>
<g id="a_Node000006"><a xlink:href="../../d1/da7/classmal__toolkit_1_1_exponential_backoff.html#ad9374a1e0241fcbae8c9fa4d7c3175f8" target="_top" xlink:title="Increase the backoff delay using exponential factor.">
<polygon fill="white" stroke="#666666" points="255.88,-79.5 144.62,-79.5 144.62,-49 255.88,-49 255.88,-79.5"/>
<text text-anchor="start" x="152.62" y="-66" font-family="Times,serif" font-size="10.00">mal_toolkit::Exponential</text>
<text text-anchor="middle" x="200.25" y="-54.75" font-family="Times,serif" font-size="10.00">Backoff::increase_delay</text>
</a>
</g>
</g>
<!-- Node1&#45;&gt;Node6 -->
<g id="edge5_Node000001_Node000006" class="edge">
<title>Node1&#45;&gt;Node6</title>
<g id="a_edge5_Node000001_Node000006"><a xlink:title=" ">
<path fill="none" stroke="#63b8ff" d="M88.63,-116C103.96,-107.3 122.14,-97.39 139,-89.25 142.52,-87.55 146.19,-85.85 149.9,-84.19"/>
<polygon fill="#63b8ff" stroke="#63b8ff" points="150.99,-87.1 158.75,-79.89 148.18,-80.68 150.99,-87.1"/>
</a>
</g>
</g>
<!-- Node7 -->
<g id="Node000007" class="node">
<title>Node7</title>
<g id="a_Node000007"><a xlink:href="../../d4/d9d/structmal__packet__weaver_1_1_byte_array.html#a88aac09c49f5b82796a94736781626c7" target="_top" xlink:title="Create a ByteView of a subsequence of the byte array.">
<polygon fill="white" stroke="#666666" points="249.88,-30.5 150.62,-30.5 150.62,0 249.88,0 249.88,-30.5"/>
<text text-anchor="start" x="158.62" y="-17" font-family="Times,serif" font-size="10.00">mal_packet_weaver::</text>
<text text-anchor="middle" x="200.25" y="-5.75" font-family="Times,serif" font-size="10.00">ByteArray::view</text>
</a>
</g>
</g>
<!-- Node1&#45;&gt;Node7 -->
<g id="edge6_Node000001_Node000007" class="edge">
<title>Node1&#45;&gt;Node7</title>
<g id="a_edge6_Node000001_Node000007"><a xlink:title=" ">
<path fill="none" stroke="#63b8ff" d="M66.87,-116.19C82.48,-94.65 109.21,-61.43 139,-40.25 141.14,-38.73 143.39,-37.28 145.7,-35.9"/>
<polygon fill="#63b8ff" stroke="#63b8ff" points="146.78,-38.76 153.91,-30.92 143.45,-32.6 146.78,-38.76"/>
</a>
</g>
</g>
</g>
</svg>
</svg>

<style type='text/css'>
<![CDATA[
[data-mouse-over-selected='false'] { opacity: 0.7; }
[data-mouse-over-selected='true']  { opacity: 1.0; }
]]>
</style>
<script type="application/ecmascript"><![CDATA[
document.addEventListener('DOMContentLoaded', (event) => {
  highlightEdges();
  highlightAdjacentNodes();
});
]]></script>
</svg>
