<?xml version="1.0" encoding="UTF-8" standalone="no"?>
<!DOCTYPE svg PUBLIC "-//W3C//DTD SVG 1.1//EN"
 "http://www.w3.org/Graphics/SVG/1.1/DTD/svg11.dtd">
<!-- Generated by graphviz version 8.1.0 (20230707.0739)
 -->
<!-- Title: mal_packet_weaver::Session::send_all Pages: 1 -->
<svg width="254pt" height="204pt"
 viewBox="0.00 0.00 253.75 203.50" xmlns="http://www.w3.org/2000/svg" xmlns:xlink="http://www.w3.org/1999/xlink">
<g id="graph0" class="graph" transform="scale(1 1) rotate(0) translate(4 199.5)">
<title>mal_packet_weaver::Session::send_all</title>
<!-- Node1 -->
<g id="Node000001" class="node">
<title>Node1</title>
<g id="a_Node000001"><a xlink:title="Asynchronously sends all packets in the queue through the network.">
<polygon fill="#999999" stroke="#666666" points="99.25,-103.5 0,-103.5 0,-73 99.25,-73 99.25,-103.5"/>
<text text-anchor="start" x="8" y="-90" font-family="Times,serif" font-size="10.00">mal_packet_weaver::</text>
<text text-anchor="middle" x="49.62" y="-78.75" font-family="Times,serif" font-size="10.00">Session::send_all</text>
</a>
</g>
</g>
<!-- Node2 -->
<g id="Node000002" class="node">
<title>Node2</title>
<g id="a_Node000002"><a xlink:href="../../d4/d9d/structmal__packet__weaver_1_1_byte_array.html#aed36512e62b9d6d8e45aef241339888b" target="_top" xlink:title="Append multiple data sources to the byte array.">
<polygon fill="white" stroke="#666666" points="240.12,-177.5 140.88,-177.5 140.88,-147 240.12,-147 240.12,-177.5"/>
<text text-anchor="start" x="148.88" y="-164" font-family="Times,serif" font-size="10.00">mal_packet_weaver::</text>
<text text-anchor="middle" x="190.5" y="-152.75" font-family="Times,serif" font-size="10.00">ByteArray::append</text>
</a>
</g>
</g>
<!-- Node1&#45;&gt;Node2 -->
<g id="edge1_Node000001_Node000002" class="edge">
<title>Node1&#45;&gt;Node2</title>
<g id="a_edge1_Node000001_Node000002"><a xlink:title=" ">
<path fill="none" stroke="#63b8ff" d="M76.2,-103.89C92.81,-113.84 115.05,-126.78 135.25,-137.25 138.19,-138.78 141.25,-140.31 144.34,-141.83"/>
<polygon fill="#63b8ff" stroke="#63b8ff" points="142.72,-145.41 153.25,-146.58 145.75,-139.1 142.72,-145.41"/>
</a>
</g>
</g>
<!-- Node3 -->
<g id="Node000003" class="node">
<title>Node3</title>
<g id="a_Node000003"><a xlink:href="../../d4/d9d/structmal__packet__weaver_1_1_byte_array.html#a5ce0c445aa4f44df9f44ddcfe8bff0ef" target="_top" xlink:title="Convert the ByteArray to a typed pointer.">
<polygon fill="white" stroke="#666666" points="240.12,-128.5 140.88,-128.5 140.88,-98 240.12,-98 240.12,-128.5"/>
<text text-anchor="start" x="148.88" y="-115" font-family="Times,serif" font-size="10.00">mal_packet_weaver::</text>
<text text-anchor="middle" x="190.5" y="-103.75" font-family="Times,serif" font-size="10.00">ByteArray::as</text>
</a>
</g>
</g>
<!-- Node1&#45;&gt;Node3 -->
<g id="edge3_Node000001_Node000003" class="edge">
<title>Node1&#45;&gt;Node3</title>
<g id="a_edge3_Node000001_Node000003"><a xlink:title=" ">
<path fill="none" stroke="#63b8ff" d="M99.59,-97.06C109.34,-98.82 119.68,-100.68 129.74,-102.49"/>
<polygon fill="#63b8ff" stroke="#63b8ff" points="129.05,-106.1 139.51,-104.43 130.29,-99.21 129.05,-106.1"/>
</a>
</g>
</g>
<!-- Node4 -->
<g id="Node000004" class="node">
<title>Node4</title>
<g id="a_Node000004"><a xlink:href="../../d8/d39/classmal__packet__weaver_1_1_session.html#a44aae33be31d6dd7db9feb4142b3239e" target="_top" xlink:title="Retrieves a shared pointer to the current session.">
<polygon fill="white" stroke="#666666" points="245.75,-79.5 135.25,-79.5 135.25,-49 245.75,-49 245.75,-79.5"/>
<text text-anchor="start" x="143.25" y="-66" font-family="Times,serif" font-size="10.00">mal_packet_weaver::</text>
<text text-anchor="middle" x="190.5" y="-54.75" font-family="Times,serif" font-size="10.00">Session::get_shared_ptr</text>
</a>
</g>
</g>
<!-- Node1&#45;&gt;Node4 -->
<g id="edge4_Node000001_Node000004" class="edge">
<title>Node1&#45;&gt;Node4</title>
<g id="a_edge4_Node000001_Node000004"><a xlink:title=" ">
<path fill="none" stroke="#63b8ff" d="M99.59,-79.79C107.51,-78.42 115.83,-76.98 124.08,-75.56"/>
<polygon fill="#63b8ff" stroke="#63b8ff" points="124.57,-78.85 133.83,-73.7 123.38,-71.95 124.57,-78.85"/>
</a>
</g>
</g>
<!-- Node5 -->
<g id="Node000005" class="node">
<title>Node5</title>
<g id="a_Node000005"><a xlink:href="../../d6/de9/namespacemal__packet__weaver.html#a87ac8de4f0992d1a8e99086320febbde" target="_top" xlink:title="Convert a uint32_t value to a ByteArray using little&#45;endian byte order.">
<polygon fill="white" stroke="#666666" points="240.12,-30.5 140.88,-30.5 140.88,0 240.12,0 240.12,-30.5"/>
<text text-anchor="start" x="148.88" y="-17" font-family="Times,serif" font-size="10.00">mal_packet_weaver::</text>
<text text-anchor="middle" x="190.5" y="-5.75" font-family="Times,serif" font-size="10.00">uint32_to_bytes</text>
</a>
</g>
</g>
<!-- Node1&#45;&gt;Node5 -->
<g id="edge5_Node000001_Node000005" class="edge">
<title>Node1&#45;&gt;Node5</title>
<g id="a_edge5_Node000001_Node000005"><a xlink:title=" ">
<path fill="none" stroke="#63b8ff" d="M76.99,-72.54C93.53,-62.87 115.41,-50.42 135.25,-40.25 138.2,-38.74 141.26,-37.21 144.35,-35.7"/>
<polygon fill="#63b8ff" stroke="#63b8ff" points="145.76,-38.43 153.27,-30.96 142.74,-32.12 145.76,-38.43"/>
</a>
</g>
</g>
<!-- Node2&#45;&gt;Node2 -->
<g id="edge2_Node000002_Node000002" class="edge">
<title>Node2&#45;&gt;Node2</title>
<g id="a_edge2_Node000002_Node000002"><a xlink:title=" ">
<path fill="none" stroke="#63b8ff" d="M165.54,-177.99C160.44,-187.06 168.76,-195.5 190.5,-195.5 202.73,-195.5 210.71,-192.83 214.45,-188.88"/>
<polygon fill="#63b8ff" stroke="#63b8ff" points="218.02,-189.27 215.46,-178.99 211.05,-188.62 218.02,-189.27"/>
</a>
</g>
</g>
</g>
</svg>
