<?xml version="1.0" encoding="UTF-8" standalone="no"?>
<!DOCTYPE svg PUBLIC "-//W3C//DTD SVG 1.1//EN"
 "http://www.w3.org/Graphics/SVG/1.1/DTD/svg11.dtd">
<!-- Generated by graphviz version 8.1.0 (20230707.0739)
 -->
<!-- Title: mal_packet_weaver::Session::pop_packet_now Pages: 1 -->
<svg width="280pt" height="245pt"
 viewBox="0.00 0.00 280.00 244.50" xmlns="http://www.w3.org/2000/svg" xmlns:xlink="http://www.w3.org/1999/xlink">

<svg id="main" version="1.1" xmlns="http://www.w3.org/2000/svg" xmlns:xlink="http://www.w3.org/1999/xlink" xml:space="preserve" onload="init(evt)">
<style type="text/css"><![CDATA[
.node, .edge {opacity: 0.7;}
.node.selected, .edge.selected {opacity: 1;}
.edge:hover path { stroke: red; }
.edge:hover polygon { stroke: red; fill: red; }
]]></style>
<script type="application/ecmascript" xlink:href="../../svg.min.js"/>
<svg id="graph" class="graph">
<g id="graph0" class="graph" transform="scale(1 1) rotate(0) translate(4 240.5)">
<title>mal_packet_weaver::Session::pop_packet_now</title>
<!-- Node1 -->
<g id="Node000001" class="node">
<title>Node1</title>
<g id="a_Node000001"><a xlink:title="Returns the earliest acquired packet. If packet queue is empty, returns nullptr.">
<polygon fill="#999999" stroke="#666666" points="117.25,-133.5 0,-133.5 0,-103 117.25,-103 117.25,-133.5"/>
<text text-anchor="start" x="8" y="-120" font-family="Times,serif" font-size="10.00">mal_packet_weaver::</text>
<text text-anchor="middle" x="58.62" y="-108.75" font-family="Times,serif" font-size="10.00">Session::pop_packet_now</text>
</a>
</g>
</g>
<!-- Node2 -->
<g id="Node000002" class="node">
<title>Node2</title>
<g id="a_Node000002"><a xlink:href="../../d6/de9/namespacemal__packet__weaver.html#a02f5130547d5ddf6c16f31fad13cc469" target="_top" xlink:title="Convert a byte array to a uint32_t value using little&#45;endian byte order.">
<polygon fill="white" stroke="#666666" points="262.25,-236.5 163,-236.5 163,-206 262.25,-206 262.25,-236.5"/>
<text text-anchor="start" x="171" y="-223" font-family="Times,serif" font-size="10.00">mal_packet_weaver::</text>
<text text-anchor="middle" x="212.62" y="-211.75" font-family="Times,serif" font-size="10.00">bytes_to_uint32</text>
</a>
</g>
</g>
<!-- Node1&#45;&gt;Node2 -->
<g id="edge1_Node000001_Node000002" class="edge">
<title>Node1&#45;&gt;Node2</title>
<g id="a_edge1_Node000001_Node000002"><a xlink:title=" ">
<path fill="none" stroke="#63b8ff" d="M75.42,-133.9C93.19,-150.88 123.48,-178.02 153.25,-196.25 155.72,-197.76 158.3,-199.23 160.94,-200.64"/>
<polygon fill="#63b8ff" stroke="#63b8ff" points="159.16,-204.17 169.67,-205.51 162.29,-197.91 159.16,-204.17"/>
</a>
</g>
</g>
<!-- Node3 -->
<g id="Node000003" class="node">
<title>Node3</title>
<g id="a_Node000003"><a xlink:href="../../d8/d39/classmal__packet__weaver_1_1_session.html#ae6837dc10696dd27811306f6fa7e45b8" target="_top" xlink:title="Public method to decrypt bytearray using locally stored AES256 pointer.">
<polygon fill="white" stroke="#666666" points="262.25,-187.5 163,-187.5 163,-157 262.25,-157 262.25,-187.5"/>
<text text-anchor="start" x="171" y="-174" font-family="Times,serif" font-size="10.00">mal_packet_weaver::</text>
<text text-anchor="middle" x="212.62" y="-162.75" font-family="Times,serif" font-size="10.00">Session::decrypt</text>
</a>
</g>
</g>
<!-- Node1&#45;&gt;Node3 -->
<g id="edge2_Node000001_Node000003" class="edge">
<title>Node1&#45;&gt;Node3</title>
<g id="a_edge2_Node000001_Node000003"><a xlink:title=" ">
<path fill="none" stroke="#63b8ff" d="M103.59,-133.87C120.37,-139.83 139.71,-146.7 157.34,-152.97"/>
<polygon fill="#63b8ff" stroke="#63b8ff" points="155.9,-156.52 166.5,-156.57 158.24,-149.93 155.9,-156.52"/>
</a>
</g>
</g>
<!-- Node4 -->
<g id="Node000004" class="node">
<title>Node4</title>
<g id="a_Node000004"><a xlink:href="../../d7/d1e/classmal__packet__weaver_1_1packet_1_1_packet_factory.html#a1e6a3cb4e74ee9c34e309c9e3cfbd471" target="_top" xlink:title="Deserialize a byte view into a unique pointer of the specified packet type.">
<polygon fill="white" stroke="#666666" points="264.12,-139.12 161.12,-139.12 161.12,-97.38 264.12,-97.38 264.12,-139.12"/>
<text text-anchor="start" x="169.12" y="-125.62" font-family="Times,serif" font-size="10.00">mal_packet_weaver::</text>
<text text-anchor="start" x="169.12" y="-114.38" font-family="Times,serif" font-size="10.00">packet::PacketFactory</text>
<text text-anchor="middle" x="212.62" y="-103.12" font-family="Times,serif" font-size="10.00">::Deserialize</text>
</a>
</g>
</g>
<!-- Node1&#45;&gt;Node4 -->
<g id="edge3_Node000001_Node000004" class="edge">
<title>Node1&#45;&gt;Node4</title>
<g id="a_edge3_Node000001_Node000004"><a xlink:title=" ">
<path fill="none" stroke="#63b8ff" d="M117.52,-118.25C128.11,-118.25 139.19,-118.25 149.88,-118.25"/>
<polygon fill="#63b8ff" stroke="#63b8ff" points="149.85,-121.75 159.85,-118.25 149.85,-114.75 149.85,-121.75"/>
</a>
</g>
</g>
<!-- Node5 -->
<g id="Node000005" class="node">
<title>Node5</title>
<g id="a_Node000005"><a xlink:href="../../d8/d39/classmal__packet__weaver_1_1_session.html#aa6838781a707ad1f37555d590c0f22c2" target="_top" xlink:title="Pops the packet data from the received packets queue.">
<polygon fill="white" stroke="#666666" points="272,-79.5 153.25,-79.5 153.25,-49 272,-49 272,-79.5"/>
<text text-anchor="start" x="161.25" y="-66" font-family="Times,serif" font-size="10.00">mal_packet_weaver::</text>
<text text-anchor="middle" x="212.62" y="-54.75" font-family="Times,serif" font-size="10.00">Session::pop_packet_data</text>
</a>
</g>
</g>
<!-- Node1&#45;&gt;Node5 -->
<g id="edge4_Node000001_Node000005" class="edge">
<title>Node1&#45;&gt;Node5</title>
<g id="a_edge4_Node000001_Node000005"><a xlink:title=" ">
<path fill="none" stroke="#63b8ff" d="M103.59,-102.63C120.37,-96.67 139.71,-89.8 157.34,-83.53"/>
<polygon fill="#63b8ff" stroke="#63b8ff" points="158.24,-86.57 166.5,-79.93 155.9,-79.98 158.24,-86.57"/>
</a>
</g>
</g>
<!-- Node6 -->
<g id="Node000006" class="node">
<title>Node6</title>
<g id="a_Node000006"><a xlink:href="../../d4/d9d/structmal__packet__weaver_1_1_byte_array.html#a88aac09c49f5b82796a94736781626c7" target="_top" xlink:title="Create a ByteView of a subsequence of the byte array.">
<polygon fill="white" stroke="#666666" points="262.25,-30.5 163,-30.5 163,0 262.25,0 262.25,-30.5"/>
<text text-anchor="start" x="171" y="-17" font-family="Times,serif" font-size="10.00">mal_packet_weaver::</text>
<text text-anchor="middle" x="212.62" y="-5.75" font-family="Times,serif" font-size="10.00">ByteArray::view</text>
</a>
</g>
</g>
<!-- Node1&#45;&gt;Node6 -->
<g id="edge5_Node000001_Node000006" class="edge">
<title>Node1&#45;&gt;Node6</title>
<g id="a_edge5_Node000001_Node000006"><a xlink:title=" ">
<path fill="none" stroke="#63b8ff" d="M75.42,-102.6C93.19,-85.62 123.48,-58.48 153.25,-40.25 155.72,-38.74 158.3,-37.27 160.94,-35.86"/>
<polygon fill="#63b8ff" stroke="#63b8ff" points="162.29,-38.59 169.67,-30.99 159.16,-32.33 162.29,-38.59"/>
</a>
</g>
</g>
</g>
</svg>
</svg>

<style type='text/css'>
<![CDATA[
[data-mouse-over-selected='false'] { opacity: 0.7; }
[data-mouse-over-selected='true']  { opacity: 1.0; }
]]>
</style>
<script type="application/ecmascript"><![CDATA[
document.addEventListener('DOMContentLoaded', (event) => {
  highlightEdges();
  highlightAdjacentNodes();
});
]]></script>
</svg>
