<?xml version="1.0" encoding="UTF-8" standalone="no"?>
<!DOCTYPE svg PUBLIC "-//W3C//DTD SVG 1.1//EN"
 "http://www.w3.org/Graphics/SVG/1.1/DTD/svg11.dtd">
<!-- Generated by graphviz version 8.1.0 (20230707.0739)
 -->
<!-- Title: mal_packet_weaver::Session::pop_packet_now Pages: 1 -->
<svg width="280pt" height="196pt"
 viewBox="0.00 0.00 280.00 195.50" xmlns="http://www.w3.org/2000/svg" xmlns:xlink="http://www.w3.org/1999/xlink">
<g id="graph0" class="graph" transform="scale(1 1) rotate(0) translate(4 191.5)">
<title>mal_packet_weaver::Session::pop_packet_now</title>
<!-- Node1 -->
<g id="Node000001" class="node">
<title>Node1</title>
<g id="a_Node000001"><a xlink:title="Returns the earliest acquired packet. If packet queue is empty, returns nullptr.">
<polygon fill="#999999" stroke="#666666" points="117.25,-106.5 0,-106.5 0,-76 117.25,-76 117.25,-106.5"/>
<text text-anchor="start" x="8" y="-93" font-family="Times,serif" font-size="10.00">mal_packet_weaver::</text>
<text text-anchor="middle" x="58.62" y="-81.75" font-family="Times,serif" font-size="10.00">Session::pop_packet_now</text>
</a>
</g>
</g>
<!-- Node2 -->
<g id="Node000002" class="node">
<title>Node2</title>
<g id="a_Node000002"><a xlink:href="../../df/df5/namespacemal__toolkit.html#a5c77c699bb81839f37c2b5d956d8e2df" target="_top" xlink:title="Convert a byte array to a uint32_t value using little&#45;endian byte order.">
<polygon fill="white" stroke="#666666" points="255.5,-187.5 169.75,-187.5 169.75,-157 255.5,-157 255.5,-187.5"/>
<text text-anchor="start" x="177.75" y="-174" font-family="Times,serif" font-size="10.00">mal_toolkit::bytes</text>
<text text-anchor="middle" x="212.62" y="-162.75" font-family="Times,serif" font-size="10.00">_to_uint32</text>
</a>
</g>
</g>
<!-- Node1&#45;&gt;Node2 -->
<g id="edge1_Node000001_Node000002" class="edge">
<title>Node1&#45;&gt;Node2</title>
<g id="a_edge1_Node000001_Node000002"><a xlink:title=" ">
<path fill="none" stroke="#63b8ff" d="M82.9,-106.83C101.49,-118.93 128.46,-135.71 153.25,-148.25 155.82,-149.55 158.48,-150.84 161.18,-152.1"/>
<polygon fill="#63b8ff" stroke="#63b8ff" points="159.5,-155.63 170.06,-156.54 162.37,-149.25 159.5,-155.63"/>
</a>
</g>
</g>
<!-- Node3 -->
<g id="Node000003" class="node">
<title>Node3</title>
<g id="a_Node000003"><a xlink:href="../../d7/d1e/classmal__packet__weaver_1_1packet_1_1_packet_factory.html#a1e6a3cb4e74ee9c34e309c9e3cfbd471" target="_top" xlink:title="Deserialize a byte view into a unique pointer of the specified packet type.">
<polygon fill="white" stroke="#666666" points="264.12,-139.12 161.12,-139.12 161.12,-97.38 264.12,-97.38 264.12,-139.12"/>
<text text-anchor="start" x="169.12" y="-125.62" font-family="Times,serif" font-size="10.00">mal_packet_weaver::</text>
<text text-anchor="start" x="169.12" y="-114.38" font-family="Times,serif" font-size="10.00">packet::PacketFactory</text>
<text text-anchor="middle" x="212.62" y="-103.12" font-family="Times,serif" font-size="10.00">::Deserialize</text>
</a>
</g>
</g>
<!-- Node1&#45;&gt;Node3 -->
<g id="edge2_Node000001_Node000003" class="edge">
<title>Node1&#45;&gt;Node3</title>
<g id="a_edge2_Node000001_Node000003"><a xlink:title=" ">
<path fill="none" stroke="#63b8ff" d="M117.52,-101.53C128.22,-103.43 139.42,-105.42 150.22,-107.34"/>
<polygon fill="#63b8ff" stroke="#63b8ff" points="149.39,-110.93 159.85,-109.23 150.61,-104.04 149.39,-110.93"/>
</a>
</g>
</g>
<!-- Node4 -->
<g id="Node000004" class="node">
<title>Node4</title>
<g id="a_Node000004"><a xlink:href="../../d8/d39/classmal__packet__weaver_1_1_session.html#aa6838781a707ad1f37555d590c0f22c2" target="_top" xlink:title="Pops the packet data from the received packets queue.">
<polygon fill="white" stroke="#666666" points="272,-79.5 153.25,-79.5 153.25,-49 272,-49 272,-79.5"/>
<text text-anchor="start" x="161.25" y="-66" font-family="Times,serif" font-size="10.00">mal_packet_weaver::</text>
<text text-anchor="middle" x="212.62" y="-54.75" font-family="Times,serif" font-size="10.00">Session::pop_packet_data</text>
</a>
</g>
</g>
<!-- Node1&#45;&gt;Node4 -->
<g id="edge3_Node000001_Node000004" class="edge">
<title>Node1&#45;&gt;Node4</title>
<g id="a_edge3_Node000001_Node000004"><a xlink:title=" ">
<path fill="none" stroke="#63b8ff" d="M117.52,-80.97C125.57,-79.54 133.91,-78.05 142.15,-76.59"/>
<polygon fill="#63b8ff" stroke="#63b8ff" points="142.65,-79.88 151.88,-74.68 141.42,-72.99 142.65,-79.88"/>
</a>
</g>
</g>
<!-- Node5 -->
<g id="Node000005" class="node">
<title>Node5</title>
<g id="a_Node000005"><a xlink:href="../../d8/d99/structmal__toolkit_1_1_byte_array.html#a33b603234734c1cdddee3fb854988181" target="_top" xlink:title="Create a ByteView of a subsequence of the byte array.">
<polygon fill="white" stroke="#666666" points="266,-30.5 159.25,-30.5 159.25,0 266,0 266,-30.5"/>
<text text-anchor="start" x="167.25" y="-17" font-family="Times,serif" font-size="10.00">mal_toolkit::ByteArray</text>
<text text-anchor="middle" x="212.62" y="-5.75" font-family="Times,serif" font-size="10.00">::view</text>
</a>
</g>
</g>
<!-- Node1&#45;&gt;Node5 -->
<g id="edge4_Node000001_Node000005" class="edge">
<title>Node1&#45;&gt;Node5</title>
<g id="a_edge4_Node000001_Node000005"><a xlink:title=" ">
<path fill="none" stroke="#63b8ff" d="M86.72,-75.61C105.23,-65.15 130.44,-51.32 153.25,-40.25 156.63,-38.61 160.14,-36.97 163.68,-35.35"/>
<polygon fill="#63b8ff" stroke="#63b8ff" points="165,-38.15 172.71,-30.87 162.15,-31.75 165,-38.15"/>
</a>
</g>
</g>
</g>
</svg>
