<?xml version="1.0" encoding="UTF-8" standalone="no"?>
<!DOCTYPE svg PUBLIC "-//W3C//DTD SVG 1.1//EN"
 "http://www.w3.org/Graphics/SVG/1.1/DTD/svg11.dtd">
<!-- Generated by graphviz version 9.0.0 (20230911.1827)
 -->
<!-- Title: mal_packet_weaver::Session::pop_packet_async Pages: 1 -->
<svg width="607pt" height="245pt"
 viewBox="0.00 0.00 606.75 244.50" xmlns="http://www.w3.org/2000/svg" xmlns:xlink="http://www.w3.org/1999/xlink">
<g id="graph0" class="graph" transform="scale(1 1) rotate(0) translate(4 240.5)">
<title>mal_packet_weaver::Session::pop_packet_async</title>
<!-- Node1 -->
<g id="Node000001" class="node">
<title>Node1</title>
<g id="a_Node000001"><a xlink:title=" ">
<polygon fill="#999999" stroke="#666666" points="123.25,-177.5 0,-177.5 0,-147 123.25,-147 123.25,-177.5"/>
<text text-anchor="start" x="8" y="-164" font-family="Times,serif" font-size="10.00">mal_packet_weaver::</text>
<text text-anchor="middle" x="61.62" y="-152.75" font-family="Times,serif" font-size="10.00">Session::pop_packet_async</text>
</a>
</g>
</g>
<!-- Node2 -->
<g id="Node000002" class="node">
<title>Node2</title>
<g id="a_Node000002"><a xlink:href="../../d1/da7/classmal__toolkit_1_1_exponential_backoff.html#a161c6f3c2d6e611ec15e3c6511182ec8" target="_top" xlink:title="Get the current backoff delay.">
<polygon fill="white" stroke="#666666" points="281.75,-226.5 159.25,-226.5 159.25,-196 281.75,-196 281.75,-226.5"/>
<text text-anchor="start" x="167.25" y="-213" font-family="Times,serif" font-size="10.00">mal_toolkit::Exponential</text>
<text text-anchor="middle" x="220.5" y="-201.75" font-family="Times,serif" font-size="10.00">Backoff::get_current_delay</text>
</a>
</g>
</g>
<!-- Node1&#45;&gt;Node2 -->
<g id="edge1_Node000001_Node000002" class="edge">
<title>Node1&#45;&gt;Node2</title>
<g id="a_edge1_Node000001_Node000002"><a xlink:title=" ">
<path fill="none" stroke="#63b8ff" d="M112.69,-177.89C127.2,-182.42 143.19,-187.42 158.3,-192.13"/>
<polygon fill="#63b8ff" stroke="#63b8ff" points="157.07,-195.42 167.66,-195.06 159.15,-188.73 157.07,-195.42"/>
</a>
</g>
</g>
<!-- Node3 -->
<g id="Node000003" class="node">
<title>Node3</title>
<g id="a_Node000003"><a xlink:href="../../d1/da7/classmal__toolkit_1_1_exponential_backoff.html#ad9374a1e0241fcbae8c9fa4d7c3175f8" target="_top" xlink:title="Increase the backoff delay using exponential factor.">
<polygon fill="white" stroke="#666666" points="276.12,-177.5 164.88,-177.5 164.88,-147 276.12,-147 276.12,-177.5"/>
<text text-anchor="start" x="172.88" y="-164" font-family="Times,serif" font-size="10.00">mal_toolkit::Exponential</text>
<text text-anchor="middle" x="220.5" y="-152.75" font-family="Times,serif" font-size="10.00">Backoff::increase_delay</text>
</a>
</g>
</g>
<!-- Node1&#45;&gt;Node3 -->
<g id="edge2_Node000001_Node000003" class="edge">
<title>Node1&#45;&gt;Node3</title>
<g id="a_edge2_Node000001_Node000003"><a xlink:title=" ">
<path fill="none" stroke="#63b8ff" d="M123.73,-162.25C133.37,-162.25 143.39,-162.25 153.15,-162.25"/>
<polygon fill="#63b8ff" stroke="#63b8ff" points="152.93,-165.75 162.93,-162.25 152.93,-158.75 152.93,-165.75"/>
</a>
</g>
</g>
<!-- Node4 -->
<g id="Node000004" class="node">
<title>Node4</title>
<g id="a_Node000004"><a xlink:href="../../d8/d39/classmal__packet__weaver_1_1_session.html#a3b221a320f0fe93e2f463a52f9eab2a0" target="_top" xlink:title="Returns the earliest acquired packet. If packet queue is empty, returns nullptr.">
<polygon fill="white" stroke="#666666" points="279.12,-128.5 161.88,-128.5 161.88,-98 279.12,-98 279.12,-128.5"/>
<text text-anchor="start" x="169.88" y="-115" font-family="Times,serif" font-size="10.00">mal_packet_weaver::</text>
<text text-anchor="middle" x="220.5" y="-103.75" font-family="Times,serif" font-size="10.00">Session::pop_packet_now</text>
</a>
</g>
</g>
<!-- Node1&#45;&gt;Node4 -->
<g id="edge3_Node000001_Node000004" class="edge">
<title>Node1&#45;&gt;Node4</title>
<g id="a_edge3_Node000001_Node000004"><a xlink:title=" ">
<path fill="none" stroke="#63b8ff" d="M112.69,-146.61C127.2,-142.08 143.19,-137.08 158.3,-132.37"/>
<polygon fill="#63b8ff" stroke="#63b8ff" points="159.15,-135.77 167.66,-129.44 157.07,-129.08 159.15,-135.77"/>
</a>
</g>
</g>
<!-- Node5 -->
<g id="Node000005" class="node">
<title>Node5</title>
<g id="a_Node000005"><a xlink:href="../../df/df5/namespacemal__toolkit.html#a5c77c699bb81839f37c2b5d956d8e2df" target="_top" xlink:title="Convert a byte array to a uint32_t value using little&#45;endian byte order.">
<polygon fill="white" stroke="#666666" points="423.38,-236.5 337.62,-236.5 337.62,-206 423.38,-206 423.38,-236.5"/>
<text text-anchor="start" x="345.62" y="-223" font-family="Times,serif" font-size="10.00">mal_toolkit::bytes</text>
<text text-anchor="middle" x="380.5" y="-211.75" font-family="Times,serif" font-size="10.00">_to_uint32</text>
</a>
</g>
</g>
<!-- Node4&#45;&gt;Node5 -->
<g id="edge4_Node000004_Node000005" class="edge">
<title>Node4&#45;&gt;Node5</title>
<g id="a_edge4_Node000004_Node000005"><a xlink:title=" ">
<path fill="none" stroke="#63b8ff" d="M268.01,-128.94C272.92,-131.63 277.62,-134.71 281.75,-138.25 305.08,-158.23 294.19,-177.54 317.75,-197.25 320.62,-199.65 323.75,-201.83 327.04,-203.8"/>
<polygon fill="#63b8ff" stroke="#63b8ff" points="325.42,-206.9 335.9,-208.42 328.65,-200.69 325.42,-206.9"/>
</a>
</g>
</g>
<!-- Node6 -->
<g id="Node000006" class="node">
<title>Node6</title>
<g id="a_Node000006"><a xlink:href="../../d7/da7/classmal__packet__weaver_1_1crypto_1_1_encryption_interface.html#a23a53b7f433bc4614f269f5d57b5133d" target="_top" xlink:title=" ">
<polygon fill="white" stroke="#666666" points="443.25,-188.12 317.75,-188.12 317.75,-146.38 443.25,-146.38 443.25,-188.12"/>
<text text-anchor="start" x="325.75" y="-174.62" font-family="Times,serif" font-size="10.00">mal_packet_weaver::</text>
<text text-anchor="start" x="325.75" y="-163.38" font-family="Times,serif" font-size="10.00">crypto::EncryptionInterface</text>
<text text-anchor="middle" x="380.5" y="-152.12" font-family="Times,serif" font-size="10.00">::decrypt</text>
</a>
</g>
</g>
<!-- Node4&#45;&gt;Node6 -->
<g id="edge5_Node000004_Node000006" class="edge">
<title>Node4&#45;&gt;Node6</title>
<g id="a_edge5_Node000004_Node000006"><a xlink:title=" ">
<path fill="none" stroke="#63b8ff" d="M267.2,-128.87C279.57,-133.1 293.27,-137.78 306.73,-142.38"/>
<polygon fill="#63b8ff" stroke="#63b8ff" points="305.42,-145.63 316.01,-145.55 307.68,-139.01 305.42,-145.63"/>
</a>
</g>
</g>
<!-- Node7 -->
<g id="Node000007" class="node">
<title>Node7</title>
<g id="a_Node000007"><a xlink:href="../../da/d61/classmal__packet__weaver_1_1_packet_factory.html#ad82f39abacb042a3900d3ca7e7a8fc47" target="_top" xlink:title="Deserialize a byte view into a unique pointer of the specified packet type.">
<polygon fill="white" stroke="#666666" points="441.38,-128.5 319.62,-128.5 319.62,-98 441.38,-98 441.38,-128.5"/>
<text text-anchor="start" x="327.62" y="-115" font-family="Times,serif" font-size="10.00">mal_packet_weaver::</text>
<text text-anchor="middle" x="380.5" y="-103.75" font-family="Times,serif" font-size="10.00">PacketFactory::Deserialize</text>
</a>
</g>
</g>
<!-- Node4&#45;&gt;Node7 -->
<g id="edge6_Node000004_Node000007" class="edge">
<title>Node4&#45;&gt;Node7</title>
<g id="a_edge6_Node000004_Node000007"><a xlink:title=" ">
<path fill="none" stroke="#63b8ff" d="M279.44,-113.25C288.64,-113.25 298.26,-113.25 307.73,-113.25"/>
<polygon fill="#63b8ff" stroke="#63b8ff" points="307.67,-116.75 317.67,-113.25 307.67,-109.75 307.67,-116.75"/>
</a>
</g>
</g>
<!-- Node9 -->
<g id="Node000009" class="node">
<title>Node9</title>
<g id="a_Node000009"><a xlink:href="../../d8/d39/classmal__packet__weaver_1_1_session.html#aa6838781a707ad1f37555d590c0f22c2" target="_top" xlink:title="Pops the packet data from the received packets queue.">
<polygon fill="white" stroke="#666666" points="439.88,-79.5 321.12,-79.5 321.12,-49 439.88,-49 439.88,-79.5"/>
<text text-anchor="start" x="329.12" y="-66" font-family="Times,serif" font-size="10.00">mal_packet_weaver::</text>
<text text-anchor="middle" x="380.5" y="-54.75" font-family="Times,serif" font-size="10.00">Session::pop_packet_data</text>
</a>
</g>
</g>
<!-- Node4&#45;&gt;Node9 -->
<g id="edge8_Node000004_Node000009" class="edge">
<title>Node4&#45;&gt;Node9</title>
<g id="a_edge8_Node000004_Node000009"><a xlink:title=" ">
<path fill="none" stroke="#63b8ff" d="M271.93,-97.61C286.53,-93.08 302.65,-88.08 317.86,-83.37"/>
<polygon fill="#63b8ff" stroke="#63b8ff" points="318.78,-86.75 327.29,-80.44 316.71,-80.06 318.78,-86.75"/>
</a>
</g>
</g>
<!-- Node10 -->
<g id="Node000010" class="node">
<title>Node10</title>
<g id="a_Node000010"><a xlink:href="../../d8/d99/structmal__toolkit_1_1_byte_array.html#a33b603234734c1cdddee3fb854988181" target="_top" xlink:title="Create a ByteView of a subsequence of the byte array.">
<polygon fill="white" stroke="#666666" points="433.88,-30.5 327.12,-30.5 327.12,0 433.88,0 433.88,-30.5"/>
<text text-anchor="start" x="335.12" y="-17" font-family="Times,serif" font-size="10.00">mal_toolkit::ByteArray</text>
<text text-anchor="middle" x="380.5" y="-5.75" font-family="Times,serif" font-size="10.00">::view</text>
</a>
</g>
</g>
<!-- Node4&#45;&gt;Node10 -->
<g id="edge9_Node000004_Node000010" class="edge">
<title>Node4&#45;&gt;Node10</title>
<g id="a_edge9_Node000004_Node000010"><a xlink:title=" ">
<path fill="none" stroke="#63b8ff" d="M238.95,-97.74C257.51,-81.81 288.21,-57.04 317.75,-40.25 320.53,-38.67 323.43,-37.14 326.39,-35.67"/>
<polygon fill="#63b8ff" stroke="#63b8ff" points="327.67,-38.93 335.25,-31.53 324.7,-32.59 327.67,-38.93"/>
</a>
</g>
</g>
<!-- Node8 -->
<g id="Node000008" class="node">
<title>Node8</title>
<g id="a_Node000008"><a xlink:href="../../da/d61/classmal__packet__weaver_1_1_packet_factory.html#a8fdf5f5e58a23f9e31aa35b2737e355b" target="_top" xlink:title="Instance of the Packet Factory.">
<polygon fill="white" stroke="#666666" points="593.5,-128.5 484.5,-128.5 484.5,-98 593.5,-98 593.5,-128.5"/>
<text text-anchor="start" x="492.5" y="-115" font-family="Times,serif" font-size="10.00">mal_packet_weaver::</text>
<text text-anchor="middle" x="539" y="-103.75" font-family="Times,serif" font-size="10.00">PacketFactory::instance</text>
</a>
</g>
</g>
<!-- Node7&#45;&gt;Node8 -->
<g id="edge7_Node000007_Node000008" class="edge">
<title>Node7&#45;&gt;Node8</title>
<g id="a_edge7_Node000007_Node000008"><a xlink:title=" ">
<path fill="none" stroke="#63b8ff" d="M441.56,-113.25C451.77,-113.25 462.41,-113.25 472.75,-113.25"/>
<polygon fill="#63b8ff" stroke="#63b8ff" points="472.73,-116.75 482.73,-113.25 472.73,-109.75 472.73,-116.75"/>
</a>
</g>
</g>
<!-- Node11 -->
<g id="Node000011" class="node">
<title>Node11</title>
<g id="a_Node000011"><a xlink:href="../../d8/d99/structmal__toolkit_1_1_byte_array.html#ab23437254557962a474e4ba7c5e25fe4" target="_top" xlink:title="Convert the ByteArray to a typed pointer.">
<polygon fill="white" stroke="#666666" points="598.75,-24.88 479.25,-24.88 479.25,-5.62 598.75,-5.62 598.75,-24.88"/>
<text text-anchor="middle" x="539" y="-11.38" font-family="Times,serif" font-size="10.00">mal_toolkit::ByteArray::as</text>
</a>
</g>
</g>
<!-- Node10&#45;&gt;Node11 -->
<g id="edge10_Node000010_Node000011" class="edge">
<title>Node10&#45;&gt;Node11</title>
<g id="a_edge10_Node000010_Node000011"><a xlink:title=" ">
<path fill="none" stroke="#63b8ff" d="M434.05,-15.25C444.84,-15.25 456.36,-15.25 467.66,-15.25"/>
<polygon fill="#63b8ff" stroke="#63b8ff" points="467.34,-18.75 477.34,-15.25 467.34,-11.75 467.34,-18.75"/>
</a>
</g>
</g>
</g>
</svg>
