<?xml version="1.0" encoding="UTF-8" standalone="no"?>
<!DOCTYPE svg PUBLIC "-//W3C//DTD SVG 1.1//EN"
 "http://www.w3.org/Graphics/SVG/1.1/DTD/svg11.dtd">
<!-- Generated by graphviz version 8.1.0 (20230707.0739)
 -->
<!-- Title: mal_packet_weaver::Session::Session Pages: 1 -->
<svg width="524pt" height="450pt"
 viewBox="0.00 0.00 524.25 450.12" xmlns="http://www.w3.org/2000/svg" xmlns:xlink="http://www.w3.org/1999/xlink">
<g id="graph0" class="graph" transform="scale(1 1) rotate(0) translate(4 446.12)">
<title>mal_packet_weaver::Session::Session</title>
<!-- Node1 -->
<g id="Node000001" class="node">
<title>Node1</title>
<g id="a_Node000001"><a xlink:title="Constructor for the Session class.">
<polygon fill="#999999" stroke="#666666" points="99.25,-253.5 0,-253.5 0,-223 99.25,-223 99.25,-253.5"/>
<text text-anchor="start" x="8" y="-240" font-family="Times,serif" font-size="10.00">mal_packet_weaver::</text>
<text text-anchor="middle" x="49.62" y="-228.75" font-family="Times,serif" font-size="10.00">Session::Session</text>
</a>
</g>
</g>
<!-- Node2 -->
<g id="Node000002" class="node">
<title>Node2</title>
<g id="a_Node000002"><a xlink:href="../../d8/d39/classmal__packet__weaver_1_1_session.html#ab8d02d6502bb180c3b0f383b3fddc6ca" target="_top" xlink:title="Asynchronously forges new packets from the buffer.">
<polygon fill="white" stroke="#666666" points="377.25,-330.12 274.25,-330.12 274.25,-288.38 377.25,-288.38 377.25,-330.12"/>
<text text-anchor="start" x="282.25" y="-316.62" font-family="Times,serif" font-size="10.00">mal_packet_weaver::</text>
<text text-anchor="start" x="282.25" y="-305.38" font-family="Times,serif" font-size="10.00">Session::async_packet</text>
<text text-anchor="middle" x="325.75" y="-294.12" font-family="Times,serif" font-size="10.00">_forger</text>
</a>
</g>
</g>
<!-- Node1&#45;&gt;Node2 -->
<g id="edge1_Node000001_Node000002" class="edge">
<title>Node1&#45;&gt;Node2</title>
<g id="a_edge1_Node000001_Node000002"><a xlink:title=" ">
<path fill="none" stroke="#63b8ff" d="M99.63,-250.94C145.4,-262.8 213.88,-280.54 263.29,-293.33"/>
<polygon fill="#63b8ff" stroke="#63b8ff" points="262.29,-296.95 272.84,-296.07 264.04,-290.17 262.29,-296.95"/>
</a>
</g>
</g>
<!-- Node7 -->
<g id="Node000007" class="node">
<title>Node7</title>
<g id="a_Node000007"><a xlink:href="../../d8/d39/classmal__packet__weaver_1_1_session.html#a95349691831542cec27090d0ab21ca88" target="_top" xlink:title="Asynchronously receives and processes incoming packets from the network.">
<polygon fill="white" stroke="#666666" points="377.25,-390.12 274.25,-390.12 274.25,-348.38 377.25,-348.38 377.25,-390.12"/>
<text text-anchor="start" x="282.25" y="-376.62" font-family="Times,serif" font-size="10.00">mal_packet_weaver::</text>
<text text-anchor="start" x="282.25" y="-365.38" font-family="Times,serif" font-size="10.00">Session::async_packet</text>
<text text-anchor="middle" x="325.75" y="-354.12" font-family="Times,serif" font-size="10.00">_sender</text>
</a>
</g>
</g>
<!-- Node1&#45;&gt;Node7 -->
<g id="edge6_Node000001_Node000007" class="edge">
<title>Node1&#45;&gt;Node7</title>
<g id="a_edge6_Node000001_Node000007"><a xlink:title=" ">
<path fill="none" stroke="#63b8ff" d="M75.75,-253.83C92.37,-263.88 114.78,-276.94 135.25,-287.25 177.57,-308.57 226.71,-329.73 264.35,-345.22"/>
<polygon fill="#63b8ff" stroke="#63b8ff" points="262.56,-348.68 273.15,-349.23 265.22,-342.2 262.56,-348.68"/>
</a>
</g>
</g>
<!-- Node9 -->
<g id="Node000009" class="node">
<title>Node9</title>
<g id="a_Node000009"><a xlink:href="../../d8/d39/classmal__packet__weaver_1_1_session.html#a9cb6655f710d023540a11da7b218c5d3" target="_top" xlink:title="Initiates an asynchronous read operation from the socket to receive data.">
<polygon fill="white" stroke="#666666" points="234.5,-183.5 135.25,-183.5 135.25,-153 234.5,-153 234.5,-183.5"/>
<text text-anchor="start" x="143.25" y="-170" font-family="Times,serif" font-size="10.00">mal_packet_weaver::</text>
<text text-anchor="middle" x="184.88" y="-158.75" font-family="Times,serif" font-size="10.00">Session::receive_all</text>
</a>
</g>
</g>
<!-- Node1&#45;&gt;Node9 -->
<g id="edge12_Node000001_Node000009" class="edge">
<title>Node1&#45;&gt;Node9</title>
<g id="a_edge12_Node000001_Node000009"><a xlink:title=" ">
<path fill="none" stroke="#63b8ff" d="M79.95,-222.53C96.21,-213.84 116.82,-202.89 135.25,-193.25 137.97,-191.83 140.78,-190.37 143.61,-188.9"/>
<polygon fill="#63b8ff" stroke="#63b8ff" points="144.96,-191.62 152.23,-183.92 141.74,-185.41 144.96,-191.62"/>
</a>
</g>
</g>
<!-- Node10 -->
<g id="Node000010" class="node">
<title>Node10</title>
<g id="a_Node000010"><a xlink:href="../../d8/d39/classmal__packet__weaver_1_1_session.html#a71ede34f71a6dc30d56d99015997caa3" target="_top" xlink:title="Asynchronously sends all packets in the queue through the network.">
<polygon fill="white" stroke="#666666" points="234.5,-232.5 135.25,-232.5 135.25,-202 234.5,-202 234.5,-232.5"/>
<text text-anchor="start" x="143.25" y="-219" font-family="Times,serif" font-size="10.00">mal_packet_weaver::</text>
<text text-anchor="middle" x="184.88" y="-207.75" font-family="Times,serif" font-size="10.00">Session::send_all</text>
</a>
</g>
</g>
<!-- Node1&#45;&gt;Node10 -->
<g id="edge13_Node000001_Node000010" class="edge">
<title>Node1&#45;&gt;Node10</title>
<g id="a_edge13_Node000001_Node000010"><a xlink:title=" ">
<path fill="none" stroke="#63b8ff" d="M99.49,-230.55C107.54,-229.28 115.97,-227.95 124.26,-226.65"/>
<polygon fill="#63b8ff" stroke="#63b8ff" points="124.69,-229.96 134.02,-224.95 123.6,-223.05 124.69,-229.96"/>
</a>
</g>
</g>
<!-- Node3 -->
<g id="Node000003" class="node">
<title>Node3</title>
<g id="a_Node000003"><a xlink:href="../../d6/de9/namespacemal__packet__weaver.html#a02f5130547d5ddf6c16f31fad13cc469" target="_top" xlink:title="Convert a byte array to a uint32_t value using little&#45;endian byte order.">
<polygon fill="white" stroke="#666666" points="516.25,-333.5 417,-333.5 417,-303 516.25,-303 516.25,-333.5"/>
<text text-anchor="start" x="425" y="-320" font-family="Times,serif" font-size="10.00">mal_packet_weaver::</text>
<text text-anchor="middle" x="466.62" y="-308.75" font-family="Times,serif" font-size="10.00">bytes_to_uint32</text>
</a>
</g>
</g>
<!-- Node2&#45;&gt;Node3 -->
<g id="edge2_Node000002_Node000003" class="edge">
<title>Node2&#45;&gt;Node3</title>
<g id="a_edge2_Node000002_Node000003"><a xlink:title=" ">
<path fill="none" stroke="#63b8ff" d="M377.67,-312.55C386.8,-313.14 396.38,-313.76 405.73,-314.37"/>
<polygon fill="#63b8ff" stroke="#63b8ff" points="405.35,-317.92 415.56,-315.07 405.81,-310.93 405.35,-317.92"/>
</a>
</g>
</g>
<!-- Node4 -->
<g id="Node000004" class="node">
<title>Node4</title>
<g id="a_Node000004"><a xlink:href="../../d7/d6c/classmal__packet__weaver_1_1_exponential_backoff.html#aa9ae9588b5e2bd357361922e7c810139" target="_top" xlink:title="Decrease the backoff delay using divisor factor.">
<polygon fill="white" stroke="#666666" points="516.25,-442.12 417,-442.12 417,-400.38 516.25,-400.38 516.25,-442.12"/>
<text text-anchor="start" x="425" y="-428.62" font-family="Times,serif" font-size="10.00">mal_packet_weaver::</text>
<text text-anchor="start" x="425" y="-417.38" font-family="Times,serif" font-size="10.00">ExponentialBackoff::</text>
<text text-anchor="middle" x="466.62" y="-406.12" font-family="Times,serif" font-size="10.00">decrease_delay</text>
</a>
</g>
</g>
<!-- Node2&#45;&gt;Node4 -->
<g id="edge3_Node000002_Node000004" class="edge">
<title>Node2&#45;&gt;Node4</title>
<g id="a_edge3_Node000002_Node000004"><a xlink:title=" ">
<path fill="none" stroke="#63b8ff" d="M369.79,-330.55C373.76,-333.24 377.57,-336.15 381,-339.25 401.85,-358.1 396.61,-371.9 417,-391.25 417.83,-392.04 418.68,-392.81 419.55,-393.57"/>
<polygon fill="#63b8ff" stroke="#63b8ff" points="416.82,-396.67 426.83,-400.15 421.17,-391.19 416.82,-396.67"/>
</a>
</g>
</g>
<!-- Node5 -->
<g id="Node000005" class="node">
<title>Node5</title>
<g id="a_Node000005"><a xlink:href="../../d7/d6c/classmal__packet__weaver_1_1_exponential_backoff.html#aa58aecd9c3c9a893de17afed16c1509f" target="_top" xlink:title="Get the current backoff delay.">
<polygon fill="white" stroke="#666666" points="516.25,-225.12 417,-225.12 417,-183.38 516.25,-183.38 516.25,-225.12"/>
<text text-anchor="start" x="425" y="-211.62" font-family="Times,serif" font-size="10.00">mal_packet_weaver::</text>
<text text-anchor="start" x="425" y="-200.38" font-family="Times,serif" font-size="10.00">ExponentialBackoff::</text>
<text text-anchor="middle" x="466.62" y="-189.12" font-family="Times,serif" font-size="10.00">get_current_delay</text>
</a>
</g>
</g>
<!-- Node2&#45;&gt;Node5 -->
<g id="edge4_Node000002_Node000005" class="edge">
<title>Node2&#45;&gt;Node5</title>
<g id="a_edge4_Node000002_Node000005"><a xlink:title=" ">
<path fill="none" stroke="#63b8ff" d="M350.53,-287.92C368.31,-272.36 393.51,-251.13 417,-234.25 418.28,-233.33 419.6,-232.4 420.93,-231.48"/>
<polygon fill="#63b8ff" stroke="#63b8ff" points="422.55,-233.94 428.92,-225.47 418.66,-228.12 422.55,-233.94"/>
</a>
</g>
</g>
<!-- Node6 -->
<g id="Node000006" class="node">
<title>Node6</title>
<g id="a_Node000006"><a xlink:href="../../d7/d6c/classmal__packet__weaver_1_1_exponential_backoff.html#a4ce57a126c13af532d74f9c533cbbdf3" target="_top" xlink:title="Increase the backoff delay using exponential factor.">
<polygon fill="white" stroke="#666666" points="516.25,-285.12 417,-285.12 417,-243.38 516.25,-243.38 516.25,-285.12"/>
<text text-anchor="start" x="425" y="-271.62" font-family="Times,serif" font-size="10.00">mal_packet_weaver::</text>
<text text-anchor="start" x="425" y="-260.38" font-family="Times,serif" font-size="10.00">ExponentialBackoff::</text>
<text text-anchor="middle" x="466.62" y="-249.12" font-family="Times,serif" font-size="10.00">increase_delay</text>
</a>
</g>
</g>
<!-- Node2&#45;&gt;Node6 -->
<g id="edge5_Node000002_Node000006" class="edge">
<title>Node2&#45;&gt;Node6</title>
<g id="a_edge5_Node000002_Node000006"><a xlink:title=" ">
<path fill="none" stroke="#63b8ff" d="M377.67,-292.75C387,-289.73 396.8,-286.55 406.34,-283.46"/>
<polygon fill="#63b8ff" stroke="#63b8ff" points="407.12,-286.56 415.56,-280.15 404.97,-279.9 407.12,-286.56"/>
</a>
</g>
</g>
<!-- Node7&#45;&gt;Node3 -->
<g id="edge7_Node000007_Node000003" class="edge">
<title>Node7&#45;&gt;Node3</title>
<g id="a_edge7_Node000007_Node000003"><a xlink:title=" ">
<path fill="none" stroke="#63b8ff" d="M377.67,-350.55C389.05,-346.37 401.15,-341.93 412.61,-337.72"/>
<polygon fill="#63b8ff" stroke="#63b8ff" points="413.74,-340.67 421.92,-333.93 411.33,-334.09 413.74,-340.67"/>
</a>
</g>
</g>
<!-- Node7&#45;&gt;Node4 -->
<g id="edge8_Node000007_Node000004" class="edge">
<title>Node7&#45;&gt;Node4</title>
<g id="a_edge8_Node000007_Node000004"><a xlink:title=" ">
<path fill="none" stroke="#63b8ff" d="M377.67,-388.32C387,-391.81 396.8,-395.48 406.34,-399.05"/>
<polygon fill="#63b8ff" stroke="#63b8ff" points="404.97,-402.65 415.56,-402.88 407.42,-396.09 404.97,-402.65"/>
</a>
</g>
</g>
<!-- Node7&#45;&gt;Node5 -->
<g id="edge9_Node000007_Node000005" class="edge">
<title>Node7&#45;&gt;Node5</title>
<g id="a_edge9_Node000007_Node000005"><a xlink:title=" ">
<path fill="none" stroke="#63b8ff" d="M371.79,-348.06C375.17,-345.4 378.3,-342.47 381,-339.25 412.71,-301.45 386.2,-272.79 417,-234.25 417.41,-233.74 417.82,-233.24 418.25,-232.74"/>
<polygon fill="#63b8ff" stroke="#63b8ff" points="420.21,-235.75 424.95,-226.27 415.34,-230.72 420.21,-235.75"/>
</a>
</g>
</g>
<!-- Node7&#45;&gt;Node6 -->
<g id="edge10_Node000007_Node000006" class="edge">
<title>Node7&#45;&gt;Node6</title>
<g id="a_edge10_Node000007_Node000006"><a xlink:title=" ">
<path fill="none" stroke="#63b8ff" d="M369.3,-347.88C373.4,-345.19 377.38,-342.3 381,-339.25 400.58,-322.74 397.82,-311.22 417,-294.25 417.85,-293.49 418.73,-292.75 419.62,-292.01"/>
<polygon fill="#63b8ff" stroke="#63b8ff" points="421.21,-294.43 427.04,-285.59 416.97,-288.87 421.21,-294.43"/>
</a>
</g>
</g>
<!-- Node8 -->
<g id="Node000008" class="node">
<title>Node8</title>
<g id="a_Node000008"><a xlink:href="../../d4/d9d/structmal__packet__weaver_1_1_byte_array.html#a88aac09c49f5b82796a94736781626c7" target="_top" xlink:title="Create a ByteView of a subsequence of the byte array.">
<polygon fill="white" stroke="#666666" points="516.25,-382.5 417,-382.5 417,-352 516.25,-352 516.25,-382.5"/>
<text text-anchor="start" x="425" y="-369" font-family="Times,serif" font-size="10.00">mal_packet_weaver::</text>
<text text-anchor="middle" x="466.62" y="-357.75" font-family="Times,serif" font-size="10.00">ByteArray::view</text>
</a>
</g>
</g>
<!-- Node7&#45;&gt;Node8 -->
<g id="edge11_Node000007_Node000008" class="edge">
<title>Node7&#45;&gt;Node8</title>
<g id="a_edge11_Node000007_Node000008"><a xlink:title=" ">
<path fill="none" stroke="#63b8ff" d="M377.67,-368.52C386.8,-368.39 396.38,-368.25 405.73,-368.11"/>
<polygon fill="#63b8ff" stroke="#63b8ff" points="405.61,-371.6 415.56,-367.96 405.51,-364.6 405.61,-371.6"/>
</a>
</g>
</g>
<!-- Node10&#45;&gt;Node4 -->
<g id="edge17_Node000010_Node000004" class="edge">
<title>Node10&#45;&gt;Node4</title>
<g id="a_edge17_Node000010_Node000004"><a xlink:title=" ">
<path fill="none" stroke="#63b8ff" d="M188,-232.91C193.81,-269.03 213.51,-358.23 270.5,-399.25 309.36,-427.22 364.31,-431.12 406,-428.95"/>
<polygon fill="#63b8ff" stroke="#63b8ff" points="406.09,-432.38 415.84,-428.23 405.63,-425.4 406.09,-432.38"/>
</a>
</g>
</g>
<!-- Node10&#45;&gt;Node5 -->
<g id="edge18_Node000010_Node000005" class="edge">
<title>Node10&#45;&gt;Node5</title>
<g id="a_edge18_Node000010_Node000005"><a xlink:title=" ">
<path fill="none" stroke="#63b8ff" d="M232.38,-201.57C244.64,-198.13 257.95,-195 270.5,-193.25 315.81,-186.95 367.52,-190.34 406.31,-194.95"/>
<polygon fill="#63b8ff" stroke="#63b8ff" points="405.54,-198.51 415.9,-196.28 406.41,-191.56 405.54,-198.51"/>
</a>
</g>
</g>
<!-- Node10&#45;&gt;Node6 -->
<g id="edge22_Node000010_Node000006" class="edge">
<title>Node10&#45;&gt;Node6</title>
<g id="a_edge22_Node000010_Node000006"><a xlink:title=" ">
<path fill="none" stroke="#63b8ff" d="M234.78,-232.54C246.4,-235.78 258.82,-238.92 270.5,-241.25 315.6,-250.24 367.32,-256.14 406.17,-259.71"/>
<polygon fill="#63b8ff" stroke="#63b8ff" points="405.5,-263.26 415.77,-260.66 406.12,-256.29 405.5,-263.26"/>
</a>
</g>
</g>
<!-- Node11 -->
<g id="Node000011" class="node">
<title>Node11</title>
<g id="a_Node000011"><a xlink:href="../../d4/d9d/structmal__packet__weaver_1_1_byte_array.html#aed36512e62b9d6d8e45aef241339888b" target="_top" xlink:title="Append multiple data sources to the byte array.">
<polygon fill="white" stroke="#666666" points="375.38,-128.5 276.12,-128.5 276.12,-98 375.38,-98 375.38,-128.5"/>
<text text-anchor="start" x="284.12" y="-115" font-family="Times,serif" font-size="10.00">mal_packet_weaver::</text>
<text text-anchor="middle" x="325.75" y="-103.75" font-family="Times,serif" font-size="10.00">ByteArray::append</text>
</a>
</g>
</g>
<!-- Node10&#45;&gt;Node11 -->
<g id="edge14_Node000010_Node000011" class="edge">
<title>Node10&#45;&gt;Node11</title>
<g id="a_edge14_Node000010_Node000011"><a xlink:title=" ">
<path fill="none" stroke="#63b8ff" d="M219.22,-201.53C224.46,-198.66 229.72,-195.52 234.5,-192.25 252.16,-180.15 254.41,-174.37 270.5,-160.25 279.59,-152.28 289.57,-143.6 298.48,-135.89"/>
<polygon fill="#63b8ff" stroke="#63b8ff" points="300.34,-138.05 305.62,-128.86 295.76,-132.75 300.34,-138.05"/>
</a>
</g>
</g>
<!-- Node12 -->
<g id="Node000012" class="node">
<title>Node12</title>
<g id="a_Node000012"><a xlink:href="../../d4/d9d/structmal__packet__weaver_1_1_byte_array.html#a5ce0c445aa4f44df9f44ddcfe8bff0ef" target="_top" xlink:title="Convert the ByteArray to a typed pointer.">
<polygon fill="white" stroke="#666666" points="375.38,-79.5 276.12,-79.5 276.12,-49 375.38,-49 375.38,-79.5"/>
<text text-anchor="start" x="284.12" y="-66" font-family="Times,serif" font-size="10.00">mal_packet_weaver::</text>
<text text-anchor="middle" x="325.75" y="-54.75" font-family="Times,serif" font-size="10.00">ByteArray::as</text>
</a>
</g>
</g>
<!-- Node10&#45;&gt;Node12 -->
<g id="edge16_Node000010_Node000012" class="edge">
<title>Node10&#45;&gt;Node12</title>
<g id="a_edge16_Node000010_Node000012"><a xlink:title=" ">
<path fill="none" stroke="#63b8ff" d="M223.61,-201.69C227.63,-198.97 231.38,-195.83 234.5,-192.25 266.33,-155.67 237.89,-125.14 270.5,-89.25 271.3,-88.37 272.14,-87.51 273.01,-86.69"/>
<polygon fill="#63b8ff" stroke="#63b8ff" points="274.87,-88.9 280.6,-79.99 270.56,-83.38 274.87,-88.9"/>
</a>
</g>
</g>
<!-- Node13 -->
<g id="Node000013" class="node">
<title>Node13</title>
<g id="a_Node000013"><a xlink:href="../../d8/d39/classmal__packet__weaver_1_1_session.html#a44aae33be31d6dd7db9feb4142b3239e" target="_top" xlink:title="Retrieves a shared pointer to the current session.">
<polygon fill="white" stroke="#666666" points="381,-232.5 270.5,-232.5 270.5,-202 381,-202 381,-232.5"/>
<text text-anchor="start" x="278.5" y="-219" font-family="Times,serif" font-size="10.00">mal_packet_weaver::</text>
<text text-anchor="middle" x="325.75" y="-207.75" font-family="Times,serif" font-size="10.00">Session::get_shared_ptr</text>
</a>
</g>
</g>
<!-- Node10&#45;&gt;Node13 -->
<g id="edge19_Node000010_Node000013" class="edge">
<title>Node10&#45;&gt;Node13</title>
<g id="a_edge19_Node000010_Node000013"><a xlink:title=" ">
<path fill="none" stroke="#63b8ff" d="M234.84,-217.25C242.76,-217.25 251.08,-217.25 259.33,-217.25"/>
<polygon fill="#63b8ff" stroke="#63b8ff" points="259.08,-220.75 269.08,-217.25 259.08,-213.75 259.08,-220.75"/>
</a>
</g>
</g>
<!-- Node14 -->
<g id="Node000014" class="node">
<title>Node14</title>
<g id="a_Node000014"><a xlink:href="../../d6/de9/namespacemal__packet__weaver.html#a87ac8de4f0992d1a8e99086320febbde" target="_top" xlink:title="Convert a uint32_t value to a ByteArray using little&#45;endian byte order.">
<polygon fill="white" stroke="#666666" points="375.38,-30.5 276.12,-30.5 276.12,0 375.38,0 375.38,-30.5"/>
<text text-anchor="start" x="284.12" y="-17" font-family="Times,serif" font-size="10.00">mal_packet_weaver::</text>
<text text-anchor="middle" x="325.75" y="-5.75" font-family="Times,serif" font-size="10.00">uint32_to_bytes</text>
</a>
</g>
</g>
<!-- Node10&#45;&gt;Node14 -->
<g id="edge23_Node000010_Node000014" class="edge">
<title>Node10&#45;&gt;Node14</title>
<g id="a_edge23_Node000010_Node000014"><a xlink:title=" ">
<path fill="none" stroke="#63b8ff" d="M224.45,-201.66C228.23,-198.96 231.69,-195.84 234.5,-192.25 277.3,-137.59 226.54,-93.98 270.5,-40.25 271.24,-39.35 272.02,-38.48 272.83,-37.63"/>
<polygon fill="#63b8ff" stroke="#63b8ff" points="274.53,-39.94 279.96,-30.84 270.04,-34.57 274.53,-39.94"/>
</a>
</g>
</g>
<!-- Node11&#45;&gt;Node11 -->
<g id="edge15_Node000011_Node000011" class="edge">
<title>Node11&#45;&gt;Node11</title>
<g id="a_edge15_Node000011_Node000011"><a xlink:title=" ">
<path fill="none" stroke="#63b8ff" d="M300.79,-128.99C295.69,-138.06 304.01,-146.5 325.75,-146.5 337.98,-146.5 345.96,-143.83 349.7,-139.88"/>
<polygon fill="#63b8ff" stroke="#63b8ff" points="353.27,-140.27 350.71,-129.99 346.3,-139.62 353.27,-140.27"/>
</a>
</g>
</g>
<!-- Node13&#45;&gt;Node5 -->
<g id="edge20_Node000013_Node000005" class="edge">
<title>Node13&#45;&gt;Node5</title>
<g id="a_edge20_Node000013_Node000005"><a xlink:title=" ">
<path fill="none" stroke="#63b8ff" d="M381.24,-212.15C389.38,-211.39 397.8,-210.6 406.04,-209.83"/>
<polygon fill="#63b8ff" stroke="#63b8ff" points="406.08,-213.25 415.71,-208.83 405.43,-206.28 406.08,-213.25"/>
</a>
</g>
</g>
<!-- Node13&#45;&gt;Node6 -->
<g id="edge21_Node000013_Node000006" class="edge">
<title>Node13&#45;&gt;Node6</title>
<g id="a_edge21_Node000013_Node000006"><a xlink:title=" ">
<path fill="none" stroke="#63b8ff" d="M372.99,-232.9C383.75,-236.54 395.34,-240.46 406.56,-244.26"/>
<polygon fill="#63b8ff" stroke="#63b8ff" points="405.13,-247.81 415.73,-247.7 407.38,-241.18 405.13,-247.81"/>
</a>
</g>
</g>
</g>
</svg>
