<?xml version="1.0" encoding="UTF-8" standalone="no"?>
<!DOCTYPE svg PUBLIC "-//W3C//DTD SVG 1.1//EN"
 "http://www.w3.org/Graphics/SVG/1.1/DTD/svg11.dtd">
<!-- Generated by graphviz version 9.0.0 (20230911.1827)
 -->
<!-- Title: mal&#45;packet&#45;weaver/mal&#45;packet&#45;weaver/packet&#45;impl/packet&#45;macro.hpp Pages: 1 -->
<svg width="341pt" height="116pt"
 viewBox="0.00 0.00 340.50 116.25" xmlns="http://www.w3.org/2000/svg" xmlns:xlink="http://www.w3.org/1999/xlink">
<g id="graph0" class="graph" transform="scale(1 1) rotate(0) translate(4 112.25)">
<title>mal&#45;packet&#45;weaver/mal&#45;packet&#45;weaver/packet&#45;impl/packet&#45;macro.hpp</title>
<!-- Node1 -->
<g id="Node000001" class="node">
<title>Node1</title>
<g id="a_Node000001"><a xlink:title=" ">
<polygon fill="#999999" stroke="#666666" points="231.25,-108.25 119.25,-108.25 119.25,-66.5 231.25,-66.5 231.25,-108.25"/>
<text text-anchor="start" x="127.25" y="-94.75" font-family="Times,serif" font-size="10.00">mal&#45;packet&#45;weaver/mal</text>
<text text-anchor="start" x="127.25" y="-83.5" font-family="Times,serif" font-size="10.00">&#45;packet&#45;weaver/packet</text>
<text text-anchor="middle" x="175.25" y="-72.25" font-family="Times,serif" font-size="10.00">&#45;impl/packet&#45;macro.hpp</text>
</a>
</g>
</g>
<!-- Node2 -->
<g id="Node000002" class="node">
<title>Node2</title>
<g id="a_Node000002"><a xlink:title=" ">
<polygon fill="#e0e0e0" stroke="#999999" points="110.5,-24.88 0,-24.88 0,-5.63 110.5,-5.63 110.5,-24.88"/>
<text text-anchor="middle" x="55.25" y="-11.38" font-family="Times,serif" font-size="10.00">boost/preprocessor.hpp</text>
</a>
</g>
</g>
<!-- Node1&#45;&gt;Node2 -->
<g id="edge1_Node000001_Node000002" class="edge">
<title>Node1&#45;&gt;Node2</title>
<g id="a_edge1_Node000001_Node000002"><a xlink:title=" ">
<path fill="none" stroke="#63b8ff" d="M140.54,-66.09C121.21,-54.8 97.6,-41 80.13,-30.79"/>
<polygon fill="#63b8ff" stroke="#63b8ff" points="82.33,-28.02 71.93,-26 78.8,-34.07 82.33,-28.02"/>
</a>
</g>
</g>
<!-- Node3 -->
<g id="Node000003" class="node">
<title>Node3</title>
<g id="a_Node000003"><a xlink:title=" ">
<polygon fill="#e0e0e0" stroke="#999999" points="221.5,-30.5 129,-30.5 129,0 221.5,0 221.5,-30.5"/>
<text text-anchor="start" x="137" y="-17" font-family="Times,serif" font-size="10.00">boost/preprocessor</text>
<text text-anchor="middle" x="175.25" y="-5.75" font-family="Times,serif" font-size="10.00">/seq.hpp</text>
</a>
</g>
</g>
<!-- Node1&#45;&gt;Node3 -->
<g id="edge2_Node000001_Node000003" class="edge">
<title>Node1&#45;&gt;Node3</title>
<g id="a_edge2_Node000001_Node000003"><a xlink:title=" ">
<path fill="none" stroke="#63b8ff" d="M175.25,-66.09C175.25,-58.57 175.25,-49.94 175.25,-42"/>
<polygon fill="#63b8ff" stroke="#63b8ff" points="178.75,-42.21 175.25,-32.21 171.75,-42.21 178.75,-42.21"/>
</a>
</g>
</g>
<!-- Node4 -->
<g id="Node000004" class="node">
<title>Node4</title>
<g id="a_Node000004"><a xlink:title=" ">
<polygon fill="#e0e0e0" stroke="#999999" points="332.5,-30.5 240,-30.5 240,0 332.5,0 332.5,-30.5"/>
<text text-anchor="start" x="248" y="-17" font-family="Times,serif" font-size="10.00">boost/preprocessor</text>
<text text-anchor="middle" x="286.25" y="-5.75" font-family="Times,serif" font-size="10.00">/seq/for_each.hpp</text>
</a>
</g>
</g>
<!-- Node1&#45;&gt;Node4 -->
<g id="edge3_Node000001_Node000004" class="edge">
<title>Node1&#45;&gt;Node4</title>
<g id="a_edge3_Node000001_Node000004"><a xlink:title=" ">
<path fill="none" stroke="#63b8ff" d="M207.36,-66.09C221.82,-56.96 238.87,-46.18 253.42,-36.99"/>
<polygon fill="#63b8ff" stroke="#63b8ff" points="255.16,-40.03 261.75,-31.73 251.43,-34.11 255.16,-40.03"/>
</a>
</g>
</g>
</g>
</svg>
