<?xml version="1.0" encoding="UTF-8" standalone="no"?>
<!DOCTYPE svg PUBLIC "-//W3C//DTD SVG 1.1//EN"
 "http://www.w3.org/Graphics/SVG/1.1/DTD/svg11.dtd">
<!-- Generated by graphviz version 8.1.0 (20230707.0739)
 -->
<!-- Title: mal&#45;packet&#45;weaver/mal&#45;packet&#45;weaver/session.cpp Pages: 1 -->
<svg width="2361pt" height="337pt"
 viewBox="0.00 0.00 2361.19 337.25" xmlns="http://www.w3.org/2000/svg" xmlns:xlink="http://www.w3.org/1999/xlink">
<g id="graph0" class="graph" transform="scale(1 1) rotate(0) translate(4 333.25)">
<title>mal&#45;packet&#45;weaver/mal&#45;packet&#45;weaver/session.cpp</title>
<!-- Node1 -->
<g id="Node000001" class="node">
<title>Node1</title>
<g id="a_Node000001"><a xlink:title=" ">
<polygon fill="#999999" stroke="#666666" points="1411.44,-329.25 1287.44,-329.25 1287.44,-298.75 1411.44,-298.75 1411.44,-329.25"/>
<text text-anchor="start" x="1295.44" y="-315.75" font-family="Times,serif" font-size="10.00">mal&#45;packet&#45;weaver/mal</text>
<text text-anchor="middle" x="1349.44" y="-304.5" font-family="Times,serif" font-size="10.00">&#45;packet&#45;weaver/session.cpp</text>
</a>
</g>
</g>
<!-- Node2 -->
<g id="Node000002" class="node">
<title>Node2</title>
<g id="a_Node000002"><a xlink:href="../../d4/d5e/session_8hpp.html" target="_top" xlink:title=" ">
<polygon fill="white" stroke="#666666" points="1380.31,-262.75 1318.56,-262.75 1318.56,-243.5 1380.31,-243.5 1380.31,-262.75"/>
<text text-anchor="middle" x="1349.44" y="-249.25" font-family="Times,serif" font-size="10.00">session.hpp</text>
</a>
</g>
</g>
<!-- Node1&#45;&gt;Node2 -->
<g id="edge1_Node000001_Node000002" class="edge">
<title>Node1&#45;&gt;Node2</title>
<g id="a_edge1_Node000001_Node000002"><a xlink:title=" ">
<path fill="none" stroke="#63b8ff" d="M1349.44,-298.45C1349.44,-291.12 1349.44,-282.12 1349.44,-274.16"/>
<polygon fill="#63b8ff" stroke="#63b8ff" points="1352.94,-274.2 1349.44,-264.2 1345.94,-274.2 1352.94,-274.2"/>
</a>
</g>
</g>
<!-- Node3 -->
<g id="Node000003" class="node">
<title>Node3</title>
<g id="a_Node000003"><a xlink:title=" ">
<polygon fill="#e0e0e0" stroke="#999999" points="840.19,-146.62 786.69,-146.62 786.69,-127.38 840.19,-127.38 840.19,-146.62"/>
<text text-anchor="middle" x="813.44" y="-133.12" font-family="Times,serif" font-size="10.00">algorithm</text>
</a>
</g>
</g>
<!-- Node2&#45;&gt;Node3 -->
<g id="edge2_Node000002_Node000003" class="edge">
<title>Node2&#45;&gt;Node3</title>
<g id="a_edge2_Node000002_Node000003"><a xlink:title=" ">
<path fill="none" stroke="#63b8ff" d="M1318.08,-252.3C1120.21,-253.27 51.6,-256.25 4.44,-207.5 -1.51,-201.35 -1.42,-194.48 4.44,-188.25 31.18,-159.8 619.63,-142.91 775.72,-138.92"/>
<polygon fill="#63b8ff" stroke="#63b8ff" points="775.7,-142.4 785.61,-138.65 775.53,-135.4 775.7,-142.4"/>
</a>
</g>
</g>
<!-- Node4 -->
<g id="Node000004" class="node">
<title>Node4</title>
<g id="a_Node000004"><a xlink:title=" ">
<polygon fill="#e0e0e0" stroke="#999999" points="128.94,-207.5 13.94,-207.5 13.94,-188.25 128.94,-188.25 128.94,-207.5"/>
<text text-anchor="middle" x="71.44" y="-194" font-family="Times,serif" font-size="10.00">boost/asio/awaitable.hpp</text>
</a>
</g>
</g>
<!-- Node2&#45;&gt;Node4 -->
<g id="edge3_Node000002_Node000004" class="edge">
<title>Node2&#45;&gt;Node4</title>
<g id="a_edge3_Node000002_Node000004"><a xlink:title=" ">
<path fill="none" stroke="#63b8ff" d="M1318.5,-252.02C1181.51,-251.35 615.71,-246.29 140.01,-207.54"/>
<polygon fill="#63b8ff" stroke="#63b8ff" points="140.4,-203.97 130.15,-206.64 139.83,-210.95 140.4,-203.97"/>
</a>
</g>
</g>
<!-- Node5 -->
<g id="Node000005" class="node">
<title>Node5</title>
<g id="a_Node000005"><a xlink:title=" ">
<polygon fill="#e0e0e0" stroke="#999999" points="265.44,-207.5 147.44,-207.5 147.44,-188.25 265.44,-188.25 265.44,-207.5"/>
<text text-anchor="middle" x="206.44" y="-194" font-family="Times,serif" font-size="10.00">boost/asio/co_spawn.hpp</text>
</a>
</g>
</g>
<!-- Node2&#45;&gt;Node5 -->
<g id="edge4_Node000002_Node000005" class="edge">
<title>Node2&#45;&gt;Node5</title>
<g id="a_edge4_Node000002_Node000005"><a xlink:title=" ">
<path fill="none" stroke="#63b8ff" d="M1318.16,-251.79C1190.31,-250.24 694.83,-242.24 276.54,-207.6"/>
<polygon fill="#63b8ff" stroke="#63b8ff" points="277,-204.04 266.75,-206.7 276.42,-211.02 277,-204.04"/>
</a>
</g>
</g>
<!-- Node6 -->
<g id="Node000006" class="node">
<title>Node6</title>
<g id="a_Node000006"><a xlink:title=" ">
<polygon fill="#e0e0e0" stroke="#999999" points="398.94,-207.5 283.94,-207.5 283.94,-188.25 398.94,-188.25 398.94,-207.5"/>
<text text-anchor="middle" x="341.44" y="-194" font-family="Times,serif" font-size="10.00">boost/asio/detached.hpp</text>
</a>
</g>
</g>
<!-- Node2&#45;&gt;Node6 -->
<g id="edge5_Node000002_Node000006" class="edge">
<title>Node2&#45;&gt;Node6</title>
<g id="a_edge5_Node000002_Node000006"><a xlink:title=" ">
<path fill="none" stroke="#63b8ff" d="M1318.1,-251.56C1200.39,-249.23 773.29,-239.04 409.88,-207.54"/>
<polygon fill="#63b8ff" stroke="#63b8ff" points="410.42,-203.99 400.15,-206.6 409.81,-210.96 410.42,-203.99"/>
</a>
</g>
</g>
<!-- Node7 -->
<g id="Node000007" class="node">
<title>Node7</title>
<g id="a_Node000007"><a xlink:title=" ">
<polygon fill="#e0e0e0" stroke="#999999" points="519.56,-207.5 417.31,-207.5 417.31,-188.25 519.56,-188.25 519.56,-207.5"/>
<text text-anchor="middle" x="468.44" y="-194" font-family="Times,serif" font-size="10.00">boost/asio/ip/tcp.hpp</text>
</a>
</g>
</g>
<!-- Node2&#45;&gt;Node7 -->
<g id="edge6_Node000002_Node000007" class="edge">
<title>Node2&#45;&gt;Node7</title>
<g id="a_edge6_Node000002_Node000007"><a xlink:title=" ">
<path fill="none" stroke="#63b8ff" d="M1318.42,-251.43C1210.89,-248.8 844,-238.11 530.45,-207.61"/>
<polygon fill="#63b8ff" stroke="#63b8ff" points="531.08,-204.06 520.79,-206.56 530.4,-211.02 531.08,-204.06"/>
</a>
</g>
</g>
<!-- Node8 -->
<g id="Node000008" class="node">
<title>Node8</title>
<g id="a_Node000008"><a xlink:title=" ">
<polygon fill="#e0e0e0" stroke="#999999" points="633.19,-207.5 537.69,-207.5 537.69,-188.25 633.19,-188.25 633.19,-207.5"/>
<text text-anchor="middle" x="585.44" y="-194" font-family="Times,serif" font-size="10.00">boost/asio/read.hpp</text>
</a>
</g>
</g>
<!-- Node2&#45;&gt;Node8 -->
<g id="edge7_Node000002_Node000008" class="edge">
<title>Node2&#45;&gt;Node8</title>
<g id="a_edge7_Node000002_Node000008"><a xlink:title=" ">
<path fill="none" stroke="#63b8ff" d="M1318.3,-251.16C1220.49,-247.92 910.56,-236.06 644.31,-207.73"/>
<polygon fill="#63b8ff" stroke="#63b8ff" points="644.98,-204.17 634.67,-206.58 644.23,-211.13 644.98,-204.17"/>
</a>
</g>
</g>
<!-- Node9 -->
<g id="Node000009" class="node">
<title>Node9</title>
<g id="a_Node000009"><a xlink:title=" ">
<polygon fill="#e0e0e0" stroke="#999999" points="753.94,-207.5 650.94,-207.5 650.94,-188.25 753.94,-188.25 753.94,-207.5"/>
<text text-anchor="middle" x="702.44" y="-194" font-family="Times,serif" font-size="10.00">boost/asio/spawn.hpp</text>
</a>
</g>
</g>
<!-- Node2&#45;&gt;Node9 -->
<g id="edge8_Node000002_Node000009" class="edge">
<title>Node2&#45;&gt;Node9</title>
<g id="a_edge8_Node000002_Node000009"><a xlink:title=" ">
<path fill="none" stroke="#63b8ff" d="M1318.25,-250.46C1232.05,-245.71 983.13,-230.97 765.02,-207.6"/>
<polygon fill="#63b8ff" stroke="#63b8ff" points="765.64,-204.04 755.32,-206.44 764.89,-211 765.64,-204.04"/>
</a>
</g>
</g>
<!-- Node10 -->
<g id="Node000010" class="node">
<title>Node10</title>
<g id="a_Node000010"><a xlink:title=" ">
<polygon fill="#e0e0e0" stroke="#999999" points="890.81,-207.5 772.06,-207.5 772.06,-188.25 890.81,-188.25 890.81,-207.5"/>
<text text-anchor="middle" x="831.44" y="-194" font-family="Times,serif" font-size="10.00">boost/asio/streambuf.hpp</text>
</a>
</g>
</g>
<!-- Node2&#45;&gt;Node10 -->
<g id="edge9_Node000002_Node000010" class="edge">
<title>Node2&#45;&gt;Node10</title>
<g id="a_edge9_Node000002_Node000010"><a xlink:title=" ">
<path fill="none" stroke="#63b8ff" d="M1318.11,-249.29C1246.51,-242.74 1065.12,-225.82 901.99,-207.65"/>
<polygon fill="#63b8ff" stroke="#63b8ff" points="902.59,-204.08 892.27,-206.45 901.82,-211.04 902.59,-204.08"/>
</a>
</g>
</g>
<!-- Node11 -->
<g id="Node000011" class="node">
<title>Node11</title>
<g id="a_Node000011"><a xlink:title=" ">
<polygon fill="#e0e0e0" stroke="#999999" points="1007.69,-207.5 909.19,-207.5 909.19,-188.25 1007.69,-188.25 1007.69,-207.5"/>
<text text-anchor="middle" x="958.44" y="-194" font-family="Times,serif" font-size="10.00">boost/asio/write.hpp</text>
</a>
</g>
</g>
<!-- Node2&#45;&gt;Node11 -->
<g id="edge10_Node000002_Node000011" class="edge">
<title>Node2&#45;&gt;Node11</title>
<g id="a_edge10_Node000002_Node000011"><a xlink:title=" ">
<path fill="none" stroke="#63b8ff" d="M1318.3,-248.06C1261.2,-240.58 1135.66,-224.02 1018.58,-207.65"/>
<polygon fill="#63b8ff" stroke="#63b8ff" points="1019.4,-204.09 1009.01,-206.16 1018.43,-211.02 1019.4,-204.09"/>
</a>
</g>
</g>
<!-- Node12 -->
<g id="Node000012" class="node">
<title>Node12</title>
<g id="a_Node000012"><a xlink:title=" ">
<polygon fill="#e0e0e0" stroke="#999999" points="1156.81,-207.5 1026.06,-207.5 1026.06,-188.25 1156.81,-188.25 1156.81,-207.5"/>
<text text-anchor="middle" x="1091.44" y="-194" font-family="Times,serif" font-size="10.00">boost/endian/conversion.hpp</text>
</a>
</g>
</g>
<!-- Node2&#45;&gt;Node12 -->
<g id="edge11_Node000002_Node000012" class="edge">
<title>Node2&#45;&gt;Node12</title>
<g id="a_edge11_Node000002_Node000012"><a xlink:title=" ">
<path fill="none" stroke="#63b8ff" d="M1318.32,-245.7C1275.69,-236.9 1198.46,-220.96 1146.07,-210.15"/>
<polygon fill="#63b8ff" stroke="#63b8ff" points="1147.12,-206.59 1136.62,-207.99 1145.71,-213.44 1147.12,-206.59"/>
</a>
</g>
</g>
<!-- Node13 -->
<g id="Node000013" class="node">
<title>Node13</title>
<g id="a_Node000013"><a xlink:title=" ">
<polygon fill="#e0e0e0" stroke="#999999" points="1282.19,-207.5 1174.69,-207.5 1174.69,-188.25 1282.19,-188.25 1282.19,-207.5"/>
<text text-anchor="middle" x="1228.44" y="-194" font-family="Times,serif" font-size="10.00">boost/range/begin.hpp</text>
</a>
</g>
</g>
<!-- Node2&#45;&gt;Node13 -->
<g id="edge12_Node000002_Node000013" class="edge">
<title>Node2&#45;&gt;Node13</title>
<g id="a_edge12_Node000002_Node000013"><a xlink:title=" ">
<path fill="none" stroke="#63b8ff" d="M1328.91,-243.09C1309.7,-234.64 1280.77,-221.9 1258.87,-212.27"/>
<polygon fill="#63b8ff" stroke="#63b8ff" points="1260.63,-208.78 1250.07,-207.95 1257.81,-215.18 1260.63,-208.78"/>
</a>
</g>
</g>
<!-- Node14 -->
<g id="Node000014" class="node">
<title>Node14</title>
<g id="a_Node000014"><a xlink:title=" ">
<polygon fill="#e0e0e0" stroke="#999999" points="1399.06,-207.5 1299.81,-207.5 1299.81,-188.25 1399.06,-188.25 1399.06,-207.5"/>
<text text-anchor="middle" x="1349.44" y="-194" font-family="Times,serif" font-size="10.00">boost/range/end.hpp</text>
</a>
</g>
</g>
<!-- Node2&#45;&gt;Node14 -->
<g id="edge13_Node000002_Node000014" class="edge">
<title>Node2&#45;&gt;Node14</title>
<g id="a_edge13_Node000002_Node000014"><a xlink:title=" ">
<path fill="none" stroke="#63b8ff" d="M1349.44,-243.33C1349.44,-236.67 1349.44,-227.24 1349.44,-218.78"/>
<polygon fill="#63b8ff" stroke="#63b8ff" points="1352.94,-218.86 1349.44,-208.86 1345.94,-218.86 1352.94,-218.86"/>
</a>
</g>
</g>
<!-- Node15 -->
<g id="Node000015" class="node">
<title>Node15</title>
<g id="a_Node000015"><a xlink:title=" ">
<polygon fill="#e0e0e0" stroke="#999999" points="1465.56,-207.5 1417.31,-207.5 1417.31,-188.25 1465.56,-188.25 1465.56,-207.5"/>
<text text-anchor="middle" x="1441.44" y="-194" font-family="Times,serif" font-size="10.00">memory</text>
</a>
</g>
</g>
<!-- Node2&#45;&gt;Node15 -->
<g id="edge14_Node000002_Node000015" class="edge">
<title>Node2&#45;&gt;Node15</title>
<g id="a_edge14_Node000002_Node000015"><a xlink:title=" ">
<path fill="none" stroke="#63b8ff" d="M1365.05,-243.09C1379.06,-234.98 1399.87,-222.93 1416.24,-213.46"/>
<polygon fill="#63b8ff" stroke="#63b8ff" points="1417.85,-215.99 1424.76,-207.95 1414.35,-209.93 1417.85,-215.99"/>
</a>
</g>
</g>
<!-- Node16 -->
<g id="Node000016" class="node">
<title>Node16</title>
<g id="a_Node000016"><a xlink:title=" ">
<polygon fill="#e0e0e0" stroke="#999999" points="1524.81,-207.5 1484.06,-207.5 1484.06,-188.25 1524.81,-188.25 1524.81,-207.5"/>
<text text-anchor="middle" x="1504.44" y="-194" font-family="Times,serif" font-size="10.00">mutex</text>
</a>
</g>
</g>
<!-- Node2&#45;&gt;Node16 -->
<g id="edge15_Node000002_Node000016" class="edge">
<title>Node2&#45;&gt;Node16</title>
<g id="a_edge15_Node000002_Node000016"><a xlink:title=" ">
<path fill="none" stroke="#63b8ff" d="M1375.73,-243.09C1402.84,-233.78 1445.09,-219.26 1473.72,-209.43"/>
<polygon fill="#63b8ff" stroke="#63b8ff" points="1474.65,-212.47 1482.97,-205.91 1472.37,-205.85 1474.65,-212.47"/>
</a>
</g>
</g>
<!-- Node17 -->
<g id="Node000017" class="node">
<title>Node17</title>
<g id="a_Node000017"><a xlink:title=" ">
<polygon fill="#e0e0e0" stroke="#999999" points="1582.44,-207.5 1542.44,-207.5 1542.44,-188.25 1582.44,-188.25 1582.44,-207.5"/>
<text text-anchor="middle" x="1562.44" y="-194" font-family="Times,serif" font-size="10.00">queue</text>
</a>
</g>
</g>
<!-- Node2&#45;&gt;Node17 -->
<g id="edge16_Node000002_Node000017" class="edge">
<title>Node2&#45;&gt;Node17</title>
<g id="a_edge16_Node000002_Node000017"><a xlink:title=" ">
<path fill="none" stroke="#63b8ff" d="M1380.49,-245.1C1415.09,-237.17 1472.93,-223.58 1531.62,-207.89"/>
<polygon fill="#63b8ff" stroke="#63b8ff" points="1532.45,-211.02 1541.2,-205.04 1530.63,-204.26 1532.45,-211.02"/>
</a>
</g>
</g>
<!-- Node18 -->
<g id="Node000018" class="node">
<title>Node18</title>
<g id="a_Node000018"><a xlink:title=" ">
<polygon fill="#e0e0e0" stroke="#999999" points="1718.81,-207.5 1600.06,-207.5 1600.06,-188.25 1718.81,-188.25 1718.81,-207.5"/>
<text text-anchor="middle" x="1659.44" y="-194" font-family="Times,serif" font-size="10.00">boost/lockfree/queue.hpp</text>
</a>
</g>
</g>
<!-- Node2&#45;&gt;Node18 -->
<g id="edge17_Node000002_Node000018" class="edge">
<title>Node2&#45;&gt;Node18</title>
<g id="a_edge17_Node000002_Node000018"><a xlink:title=" ">
<path fill="none" stroke="#63b8ff" d="M1380.58,-246.78C1430.69,-238.17 1530.2,-221.07 1595.79,-209.81"/>
<polygon fill="#63b8ff" stroke="#63b8ff" points="1596.15,-213.13 1605.41,-207.98 1594.97,-206.23 1596.15,-213.13"/>
</a>
</g>
</g>
<!-- Node19 -->
<g id="Node000019" class="node">
<title>Node19</title>
<g id="a_Node000019"><a xlink:href="../../dd/dc6/backoffs_8hpp.html" target="_top" xlink:title=" ">
<polygon fill="white" stroke="#666666" points="1803.94,-207.5 1736.94,-207.5 1736.94,-188.25 1803.94,-188.25 1803.94,-207.5"/>
<text text-anchor="middle" x="1770.44" y="-194" font-family="Times,serif" font-size="10.00">backoffs.hpp</text>
</a>
</g>
</g>
<!-- Node2&#45;&gt;Node19 -->
<g id="edge18_Node000002_Node000019" class="edge">
<title>Node2&#45;&gt;Node19</title>
<g id="a_edge18_Node000002_Node000019"><a xlink:title=" ">
<path fill="none" stroke="#63b8ff" d="M1380.42,-249.32C1443.48,-243.43 1591.44,-228.67 1726.18,-207.57"/>
<polygon fill="#63b8ff" stroke="#63b8ff" points="1726.35,-210.93 1735.68,-205.91 1725.26,-204.02 1726.35,-210.93"/>
</a>
</g>
</g>
<!-- Node22 -->
<g id="Node000022" class="node">
<title>Node22</title>
<g id="a_Node000022"><a xlink:href="../../df/d27/aes_8hpp.html" target="_top" xlink:title=" ">
<polygon fill="white" stroke="#666666" points="1898.44,-207.5 1822.44,-207.5 1822.44,-188.25 1898.44,-188.25 1898.44,-207.5"/>
<text text-anchor="middle" x="1860.44" y="-194" font-family="Times,serif" font-size="10.00">crypto/aes.hpp</text>
</a>
</g>
</g>
<!-- Node2&#45;&gt;Node22 -->
<g id="edge22_Node000002_Node000022" class="edge">
<title>Node2&#45;&gt;Node22</title>
<g id="a_edge22_Node000002_Node000022"><a xlink:title=" ">
<path fill="none" stroke="#63b8ff" d="M1380.7,-250C1453.94,-244.83 1642.5,-230.42 1811.15,-207.56"/>
<polygon fill="#63b8ff" stroke="#63b8ff" points="1811.54,-210.9 1820.97,-206.07 1810.59,-203.96 1811.54,-210.9"/>
</a>
</g>
</g>
<!-- Node26 -->
<g id="Node000026" class="node">
<title>Node26</title>
<g id="a_Node000026"><a xlink:href="../../d2/d3f/packet_8hpp.html" target="_top" xlink:title=" ">
<polygon fill="white" stroke="#666666" points="1976.56,-207.5 1916.31,-207.5 1916.31,-188.25 1976.56,-188.25 1976.56,-207.5"/>
<text text-anchor="middle" x="1946.44" y="-194" font-family="Times,serif" font-size="10.00">packet.hpp</text>
</a>
</g>
</g>
<!-- Node2&#45;&gt;Node26 -->
<g id="edge26_Node000002_Node000026" class="edge">
<title>Node2&#45;&gt;Node26</title>
<g id="a_edge26_Node000002_Node000026"><a xlink:title=" ">
<path fill="none" stroke="#63b8ff" d="M1380.77,-251.13C1464.41,-248.17 1700.01,-237.71 1905.18,-207.64"/>
<polygon fill="#63b8ff" stroke="#63b8ff" points="1905.48,-210.99 1914.86,-206.06 1904.45,-204.06 1905.48,-210.99"/>
</a>
</g>
</g>
<!-- Node34 -->
<g id="Node000034" class="node">
<title>Node34</title>
<g id="a_Node000034"><a xlink:title=" ">
<polygon fill="#e0e0e0" stroke="#999999" points="2066.19,-207.5 1994.69,-207.5 1994.69,-188.25 2066.19,-188.25 2066.19,-207.5"/>
<text text-anchor="middle" x="2030.44" y="-194" font-family="Times,serif" font-size="10.00">utils/utils.hpp</text>
</a>
</g>
</g>
<!-- Node2&#45;&gt;Node34 -->
<g id="edge34_Node000002_Node000034" class="edge">
<title>Node2&#45;&gt;Node34</title>
<g id="a_edge34_Node000002_Node000034"><a xlink:title=" ">
<path fill="none" stroke="#63b8ff" d="M1380.67,-251.25C1471.94,-248.43 1746.2,-237.95 1984.06,-207.51"/>
<polygon fill="#63b8ff" stroke="#63b8ff" points="1984.17,-210.89 1993.64,-206.14 1983.27,-203.95 1984.17,-210.89"/>
</a>
</g>
</g>
<!-- Node35 -->
<g id="Node000035" class="node">
<title>Node35</title>
<g id="a_Node000035"><a xlink:title=" ">
<polygon fill="#e0e0e0" stroke="#999999" points="2183.06,-207.5 2083.81,-207.5 2083.81,-188.25 2183.06,-188.25 2183.06,-207.5"/>
<text text-anchor="middle" x="2133.44" y="-194" font-family="Times,serif" font-size="10.00">../include/spdlog.hpp</text>
</a>
</g>
</g>
<!-- Node2&#45;&gt;Node35 -->
<g id="edge35_Node000002_Node000035" class="edge">
<title>Node2&#45;&gt;Node35</title>
<g id="a_edge35_Node000002_Node000035"><a xlink:title=" ">
<path fill="none" stroke="#63b8ff" d="M1380.65,-251.17C1480.18,-247.92 1799.07,-235.93 2072.94,-207.68"/>
<polygon fill="#63b8ff" stroke="#63b8ff" points="2072.9,-211.1 2082.49,-206.58 2072.18,-204.14 2072.9,-211.1"/>
</a>
</g>
</g>
<!-- Node36 -->
<g id="Node000036" class="node">
<title>Node36</title>
<g id="a_Node000036"><a xlink:href="../../d1/d16/session_8inl.html" target="_top" xlink:title=" ">
<polygon fill="white" stroke="#666666" points="2257.69,-207.5 2201.19,-207.5 2201.19,-188.25 2257.69,-188.25 2257.69,-207.5"/>
<text text-anchor="middle" x="2229.44" y="-194" font-family="Times,serif" font-size="10.00">session.inl</text>
</a>
</g>
</g>
<!-- Node2&#45;&gt;Node36 -->
<g id="edge36_Node000002_Node000036" class="edge">
<title>Node2&#45;&gt;Node36</title>
<g id="a_edge36_Node000002_Node000036"><a xlink:title=" ">
<path fill="none" stroke="#63b8ff" d="M1380.47,-252.47C1490.69,-253.15 1872.19,-251.66 2183.44,-207.5 2185.63,-207.19 2187.89,-206.81 2190.17,-206.39"/>
<polygon fill="#63b8ff" stroke="#63b8ff" points="2190.84,-209.62 2199.93,-204.18 2189.43,-202.76 2190.84,-209.62"/>
</a>
</g>
</g>
<!-- Node19&#45;&gt;Node3 -->
<g id="edge19_Node000019_Node000003" class="edge">
<title>Node19&#45;&gt;Node3</title>
<g id="a_edge19_Node000019_Node000003"><a xlink:title=" ">
<path fill="none" stroke="#63b8ff" d="M1736.71,-189.64C1733.59,-189.11 1730.46,-188.63 1727.44,-188.25 1389.58,-145.3 976.85,-139.05 851.38,-138.15"/>
<polygon fill="#63b8ff" stroke="#63b8ff" points="851.51,-134.64 841.48,-138.08 851.46,-141.64 851.51,-134.64"/>
</a>
</g>
</g>
<!-- Node20 -->
<g id="Node000020" class="node">
<title>Node20</title>
<g id="a_Node000020"><a xlink:title=" ">
<polygon fill="#e0e0e0" stroke="#999999" points="1687.94,-146.62 1644.94,-146.62 1644.94,-127.38 1687.94,-127.38 1687.94,-146.62"/>
<text text-anchor="middle" x="1666.44" y="-133.12" font-family="Times,serif" font-size="10.00">chrono</text>
</a>
</g>
</g>
<!-- Node19&#45;&gt;Node20 -->
<g id="edge20_Node000019_Node000020" class="edge">
<title>Node19&#45;&gt;Node20</title>
<g id="a_edge20_Node000019_Node000020"><a xlink:title=" ">
<path fill="none" stroke="#63b8ff" d="M1754.64,-187.93C1738,-178.51 1711.53,-163.52 1691.92,-152.43"/>
<polygon fill="#63b8ff" stroke="#63b8ff" points="1693.81,-148.91 1683.38,-147.03 1690.36,-155 1693.81,-148.91"/>
</a>
</g>
</g>
<!-- Node21 -->
<g id="Node000021" class="node">
<title>Node21</title>
<g id="a_Node000021"><a xlink:title=" ">
<polygon fill="#e0e0e0" stroke="#999999" points="1752.44,-146.62 1706.44,-146.62 1706.44,-127.38 1752.44,-127.38 1752.44,-146.62"/>
<text text-anchor="middle" x="1729.44" y="-133.12" font-family="Times,serif" font-size="10.00">random</text>
</a>
</g>
</g>
<!-- Node19&#45;&gt;Node21 -->
<g id="edge21_Node000019_Node000021" class="edge">
<title>Node19&#45;&gt;Node21</title>
<g id="a_edge21_Node000019_Node000021"><a xlink:title=" ">
<path fill="none" stroke="#63b8ff" d="M1764.21,-187.93C1758.31,-179.46 1749.28,-166.49 1741.9,-155.89"/>
<polygon fill="#63b8ff" stroke="#63b8ff" points="1744.31,-154.23 1735.72,-148.03 1738.57,-158.23 1744.31,-154.23"/>
</a>
</g>
</g>
<!-- Node23 -->
<g id="Node000023" class="node">
<title>Node23</title>
<g id="a_Node000023"><a xlink:title=" ">
<polygon fill="#e0e0e0" stroke="#999999" points="1849.94,-146.62 1770.94,-146.62 1770.94,-127.38 1849.94,-127.38 1849.94,-146.62"/>
<text text-anchor="middle" x="1810.44" y="-133.12" font-family="Times,serif" font-size="10.00">../utils/utils.hpp</text>
</a>
</g>
</g>
<!-- Node22&#45;&gt;Node23 -->
<g id="edge23_Node000022_Node000023" class="edge">
<title>Node22&#45;&gt;Node23</title>
<g id="a_edge23_Node000022_Node000023"><a xlink:title=" ">
<path fill="none" stroke="#63b8ff" d="M1852.85,-187.93C1845.5,-179.29 1834.18,-165.96 1825.09,-155.25"/>
<polygon fill="#63b8ff" stroke="#63b8ff" points="1827.25,-153.38 1818.1,-148.03 1821.91,-157.91 1827.25,-153.38"/>
</a>
</g>
</g>
<!-- Node24 -->
<g id="Node000024" class="node">
<title>Node24</title>
<g id="a_Node000024"><a xlink:title=" ">
<polygon fill="#e0e0e0" stroke="#999999" points="1935.31,-146.62 1867.56,-146.62 1867.56,-127.38 1935.31,-127.38 1935.31,-146.62"/>
<text text-anchor="middle" x="1901.44" y="-133.12" font-family="Times,serif" font-size="10.00">openssl/aes.h</text>
</a>
</g>
</g>
<!-- Node22&#45;&gt;Node24 -->
<g id="edge24_Node000022_Node000024" class="edge">
<title>Node22&#45;&gt;Node24</title>
<g id="a_edge24_Node000022_Node000024"><a xlink:title=" ">
<path fill="none" stroke="#63b8ff" d="M1866.67,-187.93C1872.57,-179.46 1881.6,-166.49 1888.98,-155.89"/>
<polygon fill="#63b8ff" stroke="#63b8ff" points="1892.31,-158.23 1895.15,-148.03 1886.57,-154.23 1892.31,-158.23"/>
</a>
</g>
</g>
<!-- Node25 -->
<g id="Node000025" class="node">
<title>Node25</title>
<g id="a_Node000025"><a xlink:title=" ">
<polygon fill="#e0e0e0" stroke="#999999" points="2023.06,-146.62 1953.81,-146.62 1953.81,-127.38 2023.06,-127.38 2023.06,-146.62"/>
<text text-anchor="middle" x="1988.44" y="-133.12" font-family="Times,serif" font-size="10.00">openssl/evp.h</text>
</a>
</g>
</g>
<!-- Node22&#45;&gt;Node25 -->
<g id="edge25_Node000022_Node000025" class="edge">
<title>Node22&#45;&gt;Node25</title>
<g id="a_edge25_Node000022_Node000025"><a xlink:title=" ">
<path fill="none" stroke="#63b8ff" d="M1880.16,-187.8C1901.27,-178.1 1934.98,-162.59 1959.18,-151.46"/>
<polygon fill="#63b8ff" stroke="#63b8ff" points="1960.28,-154.34 1967.91,-146.98 1957.36,-147.98 1960.28,-154.34"/>
</a>
</g>
</g>
<!-- Node27 -->
<g id="Node000027" class="node">
<title>Node27</title>
<g id="a_Node000027"><a xlink:href="../../d3/d53/packet-factory_8hpp.html" target="_top" xlink:title=" ">
<polygon fill="white" stroke="#666666" points="2135.81,-152.25 2041.06,-152.25 2041.06,-121.75 2135.81,-121.75 2135.81,-152.25"/>
<text text-anchor="start" x="2049.06" y="-138.75" font-family="Times,serif" font-size="10.00">packet_impl/packet</text>
<text text-anchor="middle" x="2088.44" y="-127.5" font-family="Times,serif" font-size="10.00">&#45;factory.hpp</text>
</a>
</g>
</g>
<!-- Node26&#45;&gt;Node27 -->
<g id="edge27_Node000026_Node000027" class="edge">
<title>Node26&#45;&gt;Node27</title>
<g id="a_edge27_Node000026_Node000027"><a xlink:title=" ">
<path fill="none" stroke="#63b8ff" d="M1968.32,-187.8C1988.14,-179.58 2018,-167.2 2042.99,-156.85"/>
<polygon fill="#63b8ff" stroke="#63b8ff" points="2044.1,-159.76 2052,-152.69 2041.42,-153.29 2044.1,-159.76"/>
</a>
</g>
</g>
<!-- Node28 -->
<g id="Node000028" class="node">
<title>Node28</title>
<g id="a_Node000028"><a xlink:href="../../d9/d85/packet__impl_2packet_8hpp.html" target="_top" xlink:title=" ">
<polygon fill="white" stroke="#666666" points="2118.56,-85.75 2058.31,-85.75 2058.31,-66.5 2118.56,-66.5 2118.56,-85.75"/>
<text text-anchor="middle" x="2088.44" y="-72.25" font-family="Times,serif" font-size="10.00">packet.hpp</text>
</a>
</g>
</g>
<!-- Node27&#45;&gt;Node28 -->
<g id="edge28_Node000027_Node000028" class="edge">
<title>Node27&#45;&gt;Node28</title>
<g id="a_edge28_Node000027_Node000028"><a xlink:title=" ">
<path fill="none" stroke="#63b8ff" d="M2088.44,-121.45C2088.44,-114.12 2088.44,-105.12 2088.44,-97.16"/>
<polygon fill="#63b8ff" stroke="#63b8ff" points="2091.94,-97.2 2088.44,-87.2 2084.94,-97.2 2091.94,-97.2"/>
</a>
</g>
</g>
<!-- Node29 -->
<g id="Node000029" class="node">
<title>Node29</title>
<g id="a_Node000029"><a xlink:title=" ">
<polygon fill="#e0e0e0" stroke="#999999" points="1903.69,-24.88 1817.19,-24.88 1817.19,-5.63 1903.69,-5.63 1903.69,-24.88"/>
<text text-anchor="middle" x="1860.44" y="-11.38" font-family="Times,serif" font-size="10.00">../../utils/utils.hpp</text>
</a>
</g>
</g>
<!-- Node28&#45;&gt;Node29 -->
<g id="edge29_Node000028_Node000029" class="edge">
<title>Node28&#45;&gt;Node29</title>
<g id="a_edge29_Node000028_Node000029"><a xlink:title=" ">
<path fill="none" stroke="#63b8ff" d="M2058.06,-67.51C2023.13,-58.72 1964.09,-43.77 1913.44,-30.5 1910.5,-29.73 1907.47,-28.93 1904.42,-28.12"/>
<polygon fill="#63b8ff" stroke="#63b8ff" points="1905.63,-24.56 1895.07,-25.36 1903.83,-31.32 1905.63,-24.56"/>
</a>
</g>
</g>
<!-- Node30 -->
<g id="Node000030" class="node">
<title>Node30</title>
<g id="a_Node000030"><a xlink:title=" ">
<polygon fill="#e0e0e0" stroke="#999999" points="2020.69,-30.5 1922.19,-30.5 1922.19,0 2020.69,0 2020.69,-30.5"/>
<text text-anchor="start" x="1930.19" y="-17" font-family="Times,serif" font-size="10.00">boost/archive/binary</text>
<text text-anchor="middle" x="1971.44" y="-5.75" font-family="Times,serif" font-size="10.00">_iarchive.hpp</text>
</a>
</g>
</g>
<!-- Node28&#45;&gt;Node30 -->
<g id="edge30_Node000028_Node000030" class="edge">
<title>Node28&#45;&gt;Node30</title>
<g id="a_edge30_Node000028_Node000030"><a xlink:title=" ">
<path fill="none" stroke="#63b8ff" d="M2070.41,-66.05C2054.44,-58.02 2030.57,-46 2010.27,-35.79"/>
<polygon fill="#63b8ff" stroke="#63b8ff" points="2012.15,-32.31 2001.64,-30.94 2009,-38.57 2012.15,-32.31"/>
</a>
</g>
</g>
<!-- Node31 -->
<g id="Node000031" class="node">
<title>Node31</title>
<g id="a_Node000031"><a xlink:title=" ">
<polygon fill="#e0e0e0" stroke="#999999" points="2137.69,-30.5 2039.19,-30.5 2039.19,0 2137.69,0 2137.69,-30.5"/>
<text text-anchor="start" x="2047.19" y="-17" font-family="Times,serif" font-size="10.00">boost/archive/binary</text>
<text text-anchor="middle" x="2088.44" y="-5.75" font-family="Times,serif" font-size="10.00">_oarchive.hpp</text>
</a>
</g>
</g>
<!-- Node28&#45;&gt;Node31 -->
<g id="edge31_Node000028_Node000031" class="edge">
<title>Node28&#45;&gt;Node31</title>
<g id="a_edge31_Node000028_Node000031"><a xlink:title=" ">
<path fill="none" stroke="#63b8ff" d="M2088.44,-66.18C2088.44,-59.65 2088.44,-50.45 2088.44,-41.72"/>
<polygon fill="#63b8ff" stroke="#63b8ff" points="2091.94,-41.78 2088.44,-31.78 2084.94,-41.78 2091.94,-41.78"/>
</a>
</g>
</g>
<!-- Node32 -->
<g id="Node000032" class="node">
<title>Node32</title>
<g id="a_Node000032"><a xlink:title=" ">
<polygon fill="#e0e0e0" stroke="#999999" points="2245.19,-30.5 2155.69,-30.5 2155.69,0 2245.19,0 2245.19,-30.5"/>
<text text-anchor="start" x="2163.69" y="-17" font-family="Times,serif" font-size="10.00">boost/serialization</text>
<text text-anchor="middle" x="2200.44" y="-5.75" font-family="Times,serif" font-size="10.00">/base_object.hpp</text>
</a>
</g>
</g>
<!-- Node28&#45;&gt;Node32 -->
<g id="edge32_Node000028_Node000032" class="edge">
<title>Node28&#45;&gt;Node32</title>
<g id="a_edge32_Node000028_Node000032"><a xlink:title=" ">
<path fill="none" stroke="#63b8ff" d="M2105.45,-66.18C2120.74,-58.15 2143.72,-46.07 2163.25,-35.8"/>
<polygon fill="#63b8ff" stroke="#63b8ff" points="2164.57,-38.53 2171.79,-30.78 2161.31,-32.34 2164.57,-38.53"/>
</a>
</g>
</g>
<!-- Node33 -->
<g id="Node000033" class="node">
<title>Node33</title>
<g id="a_Node000033"><a xlink:title=" ">
<polygon fill="#e0e0e0" stroke="#999999" points="2353.19,-30.5 2263.69,-30.5 2263.69,0 2353.19,0 2353.19,-30.5"/>
<text text-anchor="start" x="2271.69" y="-17" font-family="Times,serif" font-size="10.00">boost/serialization</text>
<text text-anchor="middle" x="2308.44" y="-5.75" font-family="Times,serif" font-size="10.00">/serialization.hpp</text>
</a>
</g>
</g>
<!-- Node28&#45;&gt;Node33 -->
<g id="edge33_Node000028_Node000033" class="edge">
<title>Node28&#45;&gt;Node33</title>
<g id="a_edge33_Node000028_Node000033"><a xlink:title=" ">
<path fill="none" stroke="#63b8ff" d="M2119.03,-66.94C2153.53,-57.71 2210.35,-42.5 2252.78,-31.15"/>
<polygon fill="#63b8ff" stroke="#63b8ff" points="2253.47,-34.31 2262.23,-28.35 2251.66,-27.55 2253.47,-34.31"/>
</a>
</g>
</g>
<!-- Node36&#45;&gt;Node2 -->
<g id="edge37_Node000036_Node000002" class="edge">
<title>Node36&#45;&gt;Node2</title>
<g id="a_edge37_Node000036_Node000002"><a xlink:title=" ">
<path fill="none" stroke="#63b8ff" d="M2200.97,-207.57C1892.89,-251.23 1516.18,-253.11 1391.55,-252.49"/>
<polygon fill="#63b8ff" stroke="#63b8ff" points="1391.65,-248.98 1381.63,-252.42 1391.61,-255.98 1391.65,-248.98"/>
</a>
</g>
</g>
</g>
</svg>
