<?xml version="1.0" encoding="UTF-8" standalone="no"?>
<!DOCTYPE svg PUBLIC "-//W3C//DTD SVG 1.1//EN"
 "http://www.w3.org/Graphics/SVG/1.1/DTD/svg11.dtd">
<!-- Generated by graphviz version 7.0.5 (20221223.1930)
 -->
<!-- Title: mal&#45;packet&#45;weaver/mal&#45;packet&#45;weaver/session.cpp Pages: 1 -->
<svg width="2487pt" height="335pt"
 viewBox="0.00 0.00 2486.89 335.00" xmlns="http://www.w3.org/2000/svg" xmlns:xlink="http://www.w3.org/1999/xlink">
<g id="graph0" class="graph" transform="scale(1 1) rotate(0) translate(4 331)">
<title>mal&#45;packet&#45;weaver/mal&#45;packet&#45;weaver/session.cpp</title>
<!-- Node1 -->
<g id="node1" class="node">
<title>Node1</title>
<g id="a_node1"><a xlink:title=" ">
<polygon fill="#999999" stroke="#666666" points="1490.39,-327 1352.39,-327 1352.39,-297 1490.39,-297 1490.39,-327"/>
<text text-anchor="start" x="1360.39" y="-315" font-family="Helvetica,sans-Serif" font-size="10.00">mal&#45;packet&#45;weaver/mal</text>
<text text-anchor="middle" x="1421.39" y="-304" font-family="Helvetica,sans-Serif" font-size="10.00">&#45;packet&#45;weaver/session.cpp</text>
</a>
</g>
</g>
<!-- Node2 -->
<g id="node2" class="node">
<title>Node2</title>
<g id="a_node2"><a xlink:href="../../d4/d5e/session_8hpp.html" target="_top" xlink:title=" ">
<polygon fill="white" stroke="#666666" points="1455.39,-261 1387.39,-261 1387.39,-242 1455.39,-242 1455.39,-261"/>
<text text-anchor="middle" x="1421.39" y="-249" font-family="Helvetica,sans-Serif" font-size="10.00">session.hpp</text>
</a>
</g>
</g>
<!-- Node1&#45;&gt;Node2 -->
<g id="edge1" class="edge">
<title>Node1&#45;&gt;Node2</title>
<path fill="none" stroke="#63b8ff" d="M1421.39,-296.54C1421.39,-289.34 1421.39,-280.53 1421.39,-272.68"/>
<polygon fill="#63b8ff" stroke="#63b8ff" points="1424.89,-272.69 1421.39,-262.69 1417.89,-272.69 1424.89,-272.69"/>
</g>
<!-- Node3 -->
<g id="node3" class="node">
<title>Node3</title>
<g id="a_node3"><a xlink:title=" ">
<polygon fill="#e0e0e0" stroke="#999999" points="884.39,-145.5 828.39,-145.5 828.39,-126.5 884.39,-126.5 884.39,-145.5"/>
<text text-anchor="middle" x="856.39" y="-133.5" font-family="Helvetica,sans-Serif" font-size="10.00">algorithm</text>
</a>
</g>
</g>
<!-- Node2&#45;&gt;Node3 -->
<g id="edge2" class="edge">
<title>Node2&#45;&gt;Node3</title>
<path fill="none" stroke="#63b8ff" d="M1387.01,-250.08C1172.81,-247.35 29.22,-231.63 4.39,-206 -1.49,-199.94 -1.41,-193.14 4.39,-187 32.59,-157.09 652.29,-141.46 816.67,-137.83"/>
<polygon fill="#63b8ff" stroke="#63b8ff" points="816.7,-141.33 826.62,-137.61 816.55,-134.33 816.7,-141.33"/>
</g>
<!-- Node4 -->
<g id="node4" class="node">
<title>Node4</title>
<g id="a_node4"><a xlink:title=" ">
<polygon fill="#e0e0e0" stroke="#999999" points="137.39,-206 13.39,-206 13.39,-187 137.39,-187 137.39,-206"/>
<text text-anchor="middle" x="75.39" y="-194" font-family="Helvetica,sans-Serif" font-size="10.00">boost/asio/awaitable.hpp</text>
</a>
</g>
</g>
<!-- Node2&#45;&gt;Node4 -->
<g id="edge3" class="edge">
<title>Node2&#45;&gt;Node4</title>
<path fill="none" stroke="#63b8ff" d="M1387.34,-250.36C1240.59,-249.56 647.36,-244.05 149.08,-206.13"/>
<polygon fill="#63b8ff" stroke="#63b8ff" points="149.44,-202.65 139.2,-205.38 148.91,-209.63 149.44,-202.65"/>
</g>
<!-- Node5 -->
<g id="node5" class="node">
<title>Node5</title>
<g id="a_node5"><a xlink:title=" ">
<polygon fill="#e0e0e0" stroke="#999999" points="282.89,-206 155.89,-206 155.89,-187 282.89,-187 282.89,-206"/>
<text text-anchor="middle" x="219.39" y="-194" font-family="Helvetica,sans-Serif" font-size="10.00">boost/asio/co_spawn.hpp</text>
</a>
</g>
</g>
<!-- Node2&#45;&gt;Node5 -->
<g id="edge4" class="edge">
<title>Node2&#45;&gt;Node5</title>
<path fill="none" stroke="#63b8ff" d="M1387.15,-250.11C1250.75,-248.34 732.57,-239.7 294.37,-206.08"/>
<polygon fill="#63b8ff" stroke="#63b8ff" points="294.81,-202.6 284.57,-205.32 294.27,-209.58 294.81,-202.6"/>
</g>
<!-- Node6 -->
<g id="node6" class="node">
<title>Node6</title>
<g id="a_node6"><a xlink:title=" ">
<polygon fill="#e0e0e0" stroke="#999999" points="423.39,-206 301.39,-206 301.39,-187 423.39,-187 423.39,-206"/>
<text text-anchor="middle" x="362.39" y="-194" font-family="Helvetica,sans-Serif" font-size="10.00">boost/asio/detached.hpp</text>
</a>
</g>
</g>
<!-- Node2&#45;&gt;Node6 -->
<g id="edge5" class="edge">
<title>Node2&#45;&gt;Node6</title>
<path fill="none" stroke="#63b8ff" d="M1387.16,-249.9C1261.66,-247.5 814.64,-237.23 435.03,-206.15"/>
<polygon fill="#63b8ff" stroke="#63b8ff" points="435.58,-202.69 425.33,-205.35 435.01,-209.66 435.58,-202.69"/>
</g>
<!-- Node7 -->
<g id="node7" class="node">
<title>Node7</title>
<g id="a_node7"><a xlink:title=" ">
<polygon fill="#e0e0e0" stroke="#999999" points="548.89,-206 441.89,-206 441.89,-187 548.89,-187 548.89,-206"/>
<text text-anchor="middle" x="495.39" y="-194" font-family="Helvetica,sans-Serif" font-size="10.00">boost/asio/ip/tcp.hpp</text>
</a>
</g>
</g>
<!-- Node2&#45;&gt;Node7 -->
<g id="edge6" class="edge">
<title>Node2&#45;&gt;Node7</title>
<path fill="none" stroke="#63b8ff" d="M1387.15,-249.78C1272,-247.14 888.02,-236.54 560.27,-206.19"/>
<polygon fill="#63b8ff" stroke="#63b8ff" points="560.91,-202.74 550.63,-205.29 560.26,-209.71 560.91,-202.74"/>
</g>
<!-- Node8 -->
<g id="node8" class="node">
<title>Node8</title>
<g id="a_node8"><a xlink:title=" ">
<polygon fill="#e0e0e0" stroke="#999999" points="667.89,-206 566.89,-206 566.89,-187 667.89,-187 667.89,-206"/>
<text text-anchor="middle" x="617.39" y="-194" font-family="Helvetica,sans-Serif" font-size="10.00">boost/asio/read.hpp</text>
</a>
</g>
</g>
<!-- Node2&#45;&gt;Node8 -->
<g id="edge7" class="edge">
<title>Node2&#45;&gt;Node8</title>
<path fill="none" stroke="#63b8ff" d="M1387.15,-249.47C1282.64,-246.12 958.37,-234.12 679.36,-206.22"/>
<polygon fill="#63b8ff" stroke="#63b8ff" points="680.01,-202.77 669.71,-205.25 679.31,-209.73 680.01,-202.77"/>
</g>
<!-- Node9 -->
<g id="node9" class="node">
<title>Node9</title>
<g id="a_node9"><a xlink:title=" ">
<polygon fill="#e0e0e0" stroke="#999999" points="796.89,-206 685.89,-206 685.89,-187 796.89,-187 796.89,-206"/>
<text text-anchor="middle" x="741.39" y="-194" font-family="Helvetica,sans-Serif" font-size="10.00">boost/asio/spawn.hpp</text>
</a>
</g>
</g>
<!-- Node2&#45;&gt;Node9 -->
<g id="edge8" class="edge">
<title>Node2&#45;&gt;Node9</title>
<path fill="none" stroke="#63b8ff" d="M1386.99,-248.71C1295.03,-243.78 1035.65,-228.89 808.52,-206.15"/>
<polygon fill="#63b8ff" stroke="#63b8ff" points="809.19,-202.7 798.89,-205.18 808.49,-209.67 809.19,-202.7"/>
</g>
<!-- Node10 -->
<g id="node10" class="node">
<title>Node10</title>
<g id="a_node10"><a xlink:title=" ">
<polygon fill="#e0e0e0" stroke="#999999" points="941.39,-206 815.39,-206 815.39,-187 941.39,-187 941.39,-206"/>
<text text-anchor="middle" x="878.39" y="-194" font-family="Helvetica,sans-Serif" font-size="10.00">boost/asio/streambuf.hpp</text>
</a>
</g>
</g>
<!-- Node2&#45;&gt;Node10 -->
<g id="edge9" class="edge">
<title>Node2&#45;&gt;Node10</title>
<path fill="none" stroke="#63b8ff" d="M1387.08,-247.54C1311.04,-240.9 1122.28,-224.12 952.97,-206.25"/>
<polygon fill="#63b8ff" stroke="#63b8ff" points="953.41,-202.78 943.1,-205.21 952.67,-209.74 953.41,-202.78"/>
</g>
<!-- Node11 -->
<g id="node11" class="node">
<title>Node11</title>
<g id="a_node11"><a xlink:title=" ">
<polygon fill="#e0e0e0" stroke="#999999" points="1063.39,-206 959.39,-206 959.39,-187 1063.39,-187 1063.39,-206"/>
<text text-anchor="middle" x="1011.39" y="-194" font-family="Helvetica,sans-Serif" font-size="10.00">boost/asio/write.hpp</text>
</a>
</g>
</g>
<!-- Node2&#45;&gt;Node11 -->
<g id="edge10" class="edge">
<title>Node2&#45;&gt;Node11</title>
<path fill="none" stroke="#63b8ff" d="M1387.19,-246.27C1326.56,-238.75 1195.95,-222.42 1074.93,-206.33"/>
<polygon fill="#63b8ff" stroke="#63b8ff" points="1075.5,-202.87 1065.12,-205.02 1074.58,-209.81 1075.5,-202.87"/>
</g>
<!-- Node12 -->
<g id="node12" class="node">
<title>Node12</title>
<g id="a_node12"><a xlink:title=" ">
<polygon fill="#e0e0e0" stroke="#999999" points="1221.39,-206 1081.39,-206 1081.39,-187 1221.39,-187 1221.39,-206"/>
<text text-anchor="middle" x="1151.39" y="-194" font-family="Helvetica,sans-Serif" font-size="10.00">boost/endian/conversion.hpp</text>
</a>
</g>
</g>
<!-- Node2&#45;&gt;Node12 -->
<g id="edge11" class="edge">
<title>Node2&#45;&gt;Node12</title>
<path fill="none" stroke="#63b8ff" d="M1386.92,-243.73C1341.79,-234.88 1262.09,-219.23 1208.03,-208.62"/>
<polygon fill="#63b8ff" stroke="#63b8ff" points="1208.88,-205.22 1198.39,-206.73 1207.53,-212.09 1208.88,-205.22"/>
</g>
<!-- Node13 -->
<g id="node13" class="node">
<title>Node13</title>
<g id="a_node13"><a xlink:title=" ">
<polygon fill="#e0e0e0" stroke="#999999" points="1351.39,-206 1239.39,-206 1239.39,-187 1351.39,-187 1351.39,-206"/>
<text text-anchor="middle" x="1295.39" y="-194" font-family="Helvetica,sans-Serif" font-size="10.00">boost/range/begin.hpp</text>
</a>
</g>
</g>
<!-- Node2&#45;&gt;Node13 -->
<g id="edge12" class="edge">
<title>Node2&#45;&gt;Node13</title>
<path fill="none" stroke="#63b8ff" d="M1400.01,-241.51C1379.98,-233.08 1349.78,-220.38 1326.97,-210.79"/>
<polygon fill="#63b8ff" stroke="#63b8ff" points="1328.42,-207.6 1317.84,-206.94 1325.7,-214.05 1328.42,-207.6"/>
</g>
<!-- Node14 -->
<g id="node14" class="node">
<title>Node14</title>
<g id="a_node14"><a xlink:title=" ">
<polygon fill="#e0e0e0" stroke="#999999" points="1473.39,-206 1369.39,-206 1369.39,-187 1473.39,-187 1473.39,-206"/>
<text text-anchor="middle" x="1421.39" y="-194" font-family="Helvetica,sans-Serif" font-size="10.00">boost/range/end.hpp</text>
</a>
</g>
</g>
<!-- Node2&#45;&gt;Node14 -->
<g id="edge13" class="edge">
<title>Node2&#45;&gt;Node14</title>
<path fill="none" stroke="#63b8ff" d="M1421.39,-241.75C1421.39,-235.27 1421.39,-226.16 1421.39,-217.9"/>
<polygon fill="#63b8ff" stroke="#63b8ff" points="1424.89,-217.96 1421.39,-207.96 1417.89,-217.96 1424.89,-217.96"/>
</g>
<!-- Node15 -->
<g id="node15" class="node">
<title>Node15</title>
<g id="a_node15"><a xlink:title=" ">
<polygon fill="#e0e0e0" stroke="#999999" points="1542.89,-206 1491.89,-206 1491.89,-187 1542.89,-187 1542.89,-206"/>
<text text-anchor="middle" x="1517.39" y="-194" font-family="Helvetica,sans-Serif" font-size="10.00">memory</text>
</a>
</g>
</g>
<!-- Node2&#45;&gt;Node15 -->
<g id="edge14" class="edge">
<title>Node2&#45;&gt;Node15</title>
<path fill="none" stroke="#63b8ff" d="M1437.67,-241.51C1452.38,-233.39 1474.28,-221.3 1491.4,-211.85"/>
<polygon fill="#63b8ff" stroke="#63b8ff" points="1492.95,-214.99 1500.02,-207.09 1489.57,-208.86 1492.95,-214.99"/>
</g>
<!-- Node16 -->
<g id="node16" class="node">
<title>Node16</title>
<g id="a_node16"><a xlink:title=" ">
<polygon fill="#e0e0e0" stroke="#999999" points="1603.89,-206 1560.89,-206 1560.89,-187 1603.89,-187 1603.89,-206"/>
<text text-anchor="middle" x="1582.39" y="-194" font-family="Helvetica,sans-Serif" font-size="10.00">mutex</text>
</a>
</g>
</g>
<!-- Node2&#45;&gt;Node16 -->
<g id="edge15" class="edge">
<title>Node2&#45;&gt;Node16</title>
<path fill="none" stroke="#63b8ff" d="M1448.7,-241.51C1476.7,-232.29 1520.24,-217.96 1549.97,-208.17"/>
<polygon fill="#63b8ff" stroke="#63b8ff" points="1550.79,-211.59 1559.19,-205.13 1548.6,-204.94 1550.79,-211.59"/>
</g>
<!-- Node17 -->
<g id="node17" class="node">
<title>Node17</title>
<g id="a_node17"><a xlink:title=" ">
<polygon fill="#e0e0e0" stroke="#999999" points="1664.89,-206 1621.89,-206 1621.89,-187 1664.89,-187 1664.89,-206"/>
<text text-anchor="middle" x="1643.39" y="-194" font-family="Helvetica,sans-Serif" font-size="10.00">queue</text>
</a>
</g>
</g>
<!-- Node2&#45;&gt;Node17 -->
<g id="edge16" class="edge">
<title>Node2&#45;&gt;Node17</title>
<path fill="none" stroke="#63b8ff" d="M1455.64,-242.94C1491.77,-234.87 1550.62,-221.47 1610.59,-206.38"/>
<polygon fill="#63b8ff" stroke="#63b8ff" points="1611.1,-209.86 1619.93,-204.01 1609.38,-203.07 1611.1,-209.86"/>
</g>
<!-- Node18 -->
<g id="node18" class="node">
<title>Node18</title>
<g id="a_node18"><a xlink:title=" ">
<polygon fill="#e0e0e0" stroke="#999999" points="1807.89,-206 1682.89,-206 1682.89,-187 1807.89,-187 1807.89,-206"/>
<text text-anchor="middle" x="1745.39" y="-194" font-family="Helvetica,sans-Serif" font-size="10.00">boost/lockfree/queue.hpp</text>
</a>
</g>
</g>
<!-- Node2&#45;&gt;Node18 -->
<g id="edge17" class="edge">
<title>Node2&#45;&gt;Node18</title>
<path fill="none" stroke="#63b8ff" d="M1455.75,-244.88C1508.82,-236.2 1611.66,-219.37 1679.42,-208.29"/>
<polygon fill="#63b8ff" stroke="#63b8ff" points="1679.6,-211.81 1688.9,-206.74 1678.47,-204.9 1679.6,-211.81"/>
</g>
<!-- Node19 -->
<g id="node19" class="node">
<title>Node19</title>
<g id="a_node19"><a xlink:href="../../dd/dc6/backoffs_8hpp.html" target="_top" xlink:title=" ">
<polygon fill="white" stroke="#666666" points="1896.89,-206 1825.89,-206 1825.89,-187 1896.89,-187 1896.89,-206"/>
<text text-anchor="middle" x="1861.39" y="-194" font-family="Helvetica,sans-Serif" font-size="10.00">backoffs.hpp</text>
</a>
</g>
</g>
<!-- Node2&#45;&gt;Node19 -->
<g id="edge18" class="edge">
<title>Node2&#45;&gt;Node19</title>
<path fill="none" stroke="#63b8ff" d="M1455.84,-247.49C1522.79,-241.45 1675.33,-226.78 1814.31,-206.2"/>
<polygon fill="#63b8ff" stroke="#63b8ff" points="1814.7,-209.68 1824.07,-204.74 1813.66,-202.76 1814.7,-209.68"/>
</g>
<!-- Node22 -->
<g id="node22" class="node">
<title>Node22</title>
<g id="a_node22"><a xlink:href="../../df/d27/aes_8hpp.html" target="_top" xlink:title=" ">
<polygon fill="white" stroke="#666666" points="1995.39,-206 1915.39,-206 1915.39,-187 1995.39,-187 1995.39,-206"/>
<text text-anchor="middle" x="1955.39" y="-194" font-family="Helvetica,sans-Serif" font-size="10.00">crypto/aes.hpp</text>
</a>
</g>
</g>
<!-- Node2&#45;&gt;Node22 -->
<g id="edge22" class="edge">
<title>Node2&#45;&gt;Node22</title>
<path fill="none" stroke="#63b8ff" d="M1455.82,-248.25C1533.59,-242.96 1728.98,-228.59 1903.82,-206.09"/>
<polygon fill="#63b8ff" stroke="#63b8ff" points="1904.07,-209.59 1913.54,-204.83 1903.17,-202.65 1904.07,-209.59"/>
</g>
<!-- Node26 -->
<g id="node26" class="node">
<title>Node26</title>
<g id="a_node26"><a xlink:href="../../d2/d3f/packet_8hpp.html" target="_top" xlink:title=" ">
<polygon fill="white" stroke="#666666" points="2077.39,-206 2013.39,-206 2013.39,-187 2077.39,-187 2077.39,-206"/>
<text text-anchor="middle" x="2045.39" y="-194" font-family="Helvetica,sans-Serif" font-size="10.00">packet.hpp</text>
</a>
</g>
</g>
<!-- Node2&#45;&gt;Node26 -->
<g id="edge26" class="edge">
<title>Node2&#45;&gt;Node26</title>
<path fill="none" stroke="#63b8ff" d="M1455.72,-249.42C1544.46,-246.29 1788.79,-235.62 2002.13,-206.13"/>
<polygon fill="#63b8ff" stroke="#63b8ff" points="2002.31,-209.64 2011.73,-204.78 2001.34,-202.71 2002.31,-209.64"/>
</g>
<!-- Node34 -->
<g id="node34" class="node">
<title>Node34</title>
<g id="a_node34"><a xlink:title=" ">
<polygon fill="#e0e0e0" stroke="#999999" points="2169.39,-206 2095.39,-206 2095.39,-187 2169.39,-187 2169.39,-206"/>
<text text-anchor="middle" x="2132.39" y="-194" font-family="Helvetica,sans-Serif" font-size="10.00">utils/utils.hpp</text>
</a>
</g>
</g>
<!-- Node2&#45;&gt;Node34 -->
<g id="edge34" class="edge">
<title>Node2&#45;&gt;Node34</title>
<path fill="none" stroke="#63b8ff" d="M1455.78,-249.6C1552.85,-246.78 1837.36,-236.45 2083.71,-206.19"/>
<polygon fill="#63b8ff" stroke="#63b8ff" points="2084.04,-209.67 2093.53,-204.96 2083.18,-202.72 2084.04,-209.67"/>
</g>
<!-- Node35 -->
<g id="node35" class="node">
<title>Node35</title>
<g id="a_node35"><a xlink:title=" ">
<polygon fill="#e0e0e0" stroke="#999999" points="2291.39,-206 2187.39,-206 2187.39,-187 2291.39,-187 2291.39,-206"/>
<text text-anchor="middle" x="2239.39" y="-194" font-family="Helvetica,sans-Serif" font-size="10.00">../include/spdlog.hpp</text>
</a>
</g>
</g>
<!-- Node2&#45;&gt;Node35 -->
<g id="edge35" class="edge">
<title>Node2&#45;&gt;Node35</title>
<path fill="none" stroke="#63b8ff" d="M1455.79,-249.45C1561.56,-246.04 1891.46,-233.83 2175.8,-206.17"/>
<polygon fill="#63b8ff" stroke="#63b8ff" points="2176.06,-209.66 2185.67,-205.2 2175.38,-202.7 2176.06,-209.66"/>
</g>
<!-- Node36 -->
<g id="node36" class="node">
<title>Node36</title>
<g id="a_node36"><a xlink:href="../../d1/d16/session_8inl.html" target="_top" xlink:title=" ">
<polygon fill="white" stroke="#666666" points="2371.39,-206 2309.39,-206 2309.39,-187 2371.39,-187 2371.39,-206"/>
<text text-anchor="middle" x="2340.39" y="-194" font-family="Helvetica,sans-Serif" font-size="10.00">session.inl</text>
</a>
</g>
</g>
<!-- Node2&#45;&gt;Node36 -->
<g id="edge36" class="edge">
<title>Node2&#45;&gt;Node36</title>
<path fill="none" stroke="#63b8ff" d="M1455.5,-250.72C1572.61,-250.99 1967.91,-248.28 2291.39,-206 2293.5,-205.72 2295.66,-205.4 2297.86,-205.03"/>
<polygon fill="#63b8ff" stroke="#63b8ff" points="2298.24,-208.52 2307.44,-203.26 2296.97,-201.64 2298.24,-208.52"/>
</g>
<!-- Node19&#45;&gt;Node3 -->
<g id="edge19" class="edge">
<title>Node19&#45;&gt;Node3</title>
<path fill="none" stroke="#63b8ff" d="M1825.59,-188.29C1822.49,-187.8 1819.39,-187.36 1816.39,-187 1461.26,-144.41 1027.94,-138.09 896.22,-137.16"/>
<polygon fill="#63b8ff" stroke="#63b8ff" points="896.31,-133.66 886.29,-137.09 896.27,-140.66 896.31,-133.66"/>
</g>
<!-- Node20 -->
<g id="node20" class="node">
<title>Node20</title>
<g id="a_node20"><a xlink:title=" ">
<polygon fill="#e0e0e0" stroke="#999999" points="1775.39,-145.5 1729.39,-145.5 1729.39,-126.5 1775.39,-126.5 1775.39,-145.5"/>
<text text-anchor="middle" x="1752.39" y="-133.5" font-family="Helvetica,sans-Serif" font-size="10.00">chrono</text>
</a>
</g>
</g>
<!-- Node19&#45;&gt;Node20 -->
<g id="edge20" class="edge">
<title>Node19&#45;&gt;Node20</title>
<path fill="none" stroke="#63b8ff" d="M1844.83,-186.62C1827.39,-177.25 1799.64,-162.36 1779.09,-151.33"/>
<polygon fill="#63b8ff" stroke="#63b8ff" points="1780.9,-148.33 1770.43,-146.68 1777.59,-154.5 1780.9,-148.33"/>
</g>
<!-- Node21 -->
<g id="node21" class="node">
<title>Node21</title>
<g id="a_node21"><a xlink:title=" ">
<polygon fill="#e0e0e0" stroke="#999999" points="1842.89,-145.5 1793.89,-145.5 1793.89,-126.5 1842.89,-126.5 1842.89,-145.5"/>
<text text-anchor="middle" x="1818.39" y="-133.5" font-family="Helvetica,sans-Serif" font-size="10.00">random</text>
</a>
</g>
</g>
<!-- Node19&#45;&gt;Node21 -->
<g id="edge21" class="edge">
<title>Node19&#45;&gt;Node21</title>
<path fill="none" stroke="#63b8ff" d="M1855.04,-186.87C1848.88,-178.49 1839.34,-165.51 1831.54,-154.89"/>
<polygon fill="#63b8ff" stroke="#63b8ff" points="1834.4,-152.87 1825.65,-146.89 1828.76,-157.02 1834.4,-152.87"/>
</g>
<!-- Node23 -->
<g id="node23" class="node">
<title>Node23</title>
<g id="a_node23"><a xlink:title=" ">
<polygon fill="#e0e0e0" stroke="#999999" points="1941.89,-145.5 1860.89,-145.5 1860.89,-126.5 1941.89,-126.5 1941.89,-145.5"/>
<text text-anchor="middle" x="1901.39" y="-133.5" font-family="Helvetica,sans-Serif" font-size="10.00">../utils/utils.hpp</text>
</a>
</g>
</g>
<!-- Node22&#45;&gt;Node23 -->
<g id="edge23" class="edge">
<title>Node22&#45;&gt;Node23</title>
<path fill="none" stroke="#63b8ff" d="M1947.42,-186.87C1939.44,-178.23 1926.96,-164.7 1917,-153.92"/>
<polygon fill="#63b8ff" stroke="#63b8ff" points="1919.77,-151.75 1910.41,-146.78 1914.62,-156.5 1919.77,-151.75"/>
</g>
<!-- Node24 -->
<g id="node24" class="node">
<title>Node24</title>
<g id="a_node24"><a xlink:title=" ">
<polygon fill="#e0e0e0" stroke="#999999" points="2036.89,-145.5 1959.89,-145.5 1959.89,-126.5 2036.89,-126.5 2036.89,-145.5"/>
<text text-anchor="middle" x="1998.39" y="-133.5" font-family="Helvetica,sans-Serif" font-size="10.00">openssl/aes.h</text>
</a>
</g>
</g>
<!-- Node22&#45;&gt;Node24 -->
<g id="edge24" class="edge">
<title>Node22&#45;&gt;Node24</title>
<path fill="none" stroke="#63b8ff" d="M1961.73,-186.87C1967.89,-178.49 1977.43,-165.51 1985.23,-154.89"/>
<polygon fill="#63b8ff" stroke="#63b8ff" points="1988.02,-157.02 1991.12,-146.89 1982.38,-152.87 1988.02,-157.02"/>
</g>
<!-- Node25 -->
<g id="node25" class="node">
<title>Node25</title>
<g id="a_node25"><a xlink:title=" ">
<polygon fill="#e0e0e0" stroke="#999999" points="2131.89,-145.5 2054.89,-145.5 2054.89,-126.5 2131.89,-126.5 2131.89,-145.5"/>
<text text-anchor="middle" x="2093.39" y="-133.5" font-family="Helvetica,sans-Serif" font-size="10.00">openssl/evp.h</text>
</a>
</g>
</g>
<!-- Node22&#45;&gt;Node25 -->
<g id="edge25" class="edge">
<title>Node22&#45;&gt;Node25</title>
<path fill="none" stroke="#63b8ff" d="M1976.35,-186.62C1999.04,-176.99 2035.5,-161.54 2061.7,-150.43"/>
<polygon fill="#63b8ff" stroke="#63b8ff" points="2063,-153.68 2070.84,-146.56 2060.26,-147.24 2063,-153.68"/>
</g>
<!-- Node27 -->
<g id="node27" class="node">
<title>Node27</title>
<g id="a_node27"><a xlink:href="../../d3/d53/packet-factory_8hpp.html" target="_top" xlink:title=" ">
<polygon fill="white" stroke="#666666" points="2250.89,-151 2149.89,-151 2149.89,-121 2250.89,-121 2250.89,-151"/>
<text text-anchor="start" x="2157.89" y="-139" font-family="Helvetica,sans-Serif" font-size="10.00">packet_impl/packet</text>
<text text-anchor="middle" x="2200.39" y="-128" font-family="Helvetica,sans-Serif" font-size="10.00">&#45;factory.hpp</text>
</a>
</g>
</g>
<!-- Node26&#45;&gt;Node27 -->
<g id="edge27" class="edge">
<title>Node26&#45;&gt;Node27</title>
<path fill="none" stroke="#63b8ff" d="M2068.93,-186.62C2090.76,-178.38 2123.93,-165.86 2151.49,-155.45"/>
<polygon fill="#63b8ff" stroke="#63b8ff" points="2152.59,-158.78 2160.71,-151.97 2150.12,-152.23 2152.59,-158.78"/>
</g>
<!-- Node28 -->
<g id="node28" class="node">
<title>Node28</title>
<g id="a_node28"><a xlink:href="../../d9/d85/packet__impl_2packet_8hpp.html" target="_top" xlink:title=" ">
<polygon fill="white" stroke="#666666" points="2232.39,-85 2168.39,-85 2168.39,-66 2232.39,-66 2232.39,-85"/>
<text text-anchor="middle" x="2200.39" y="-73" font-family="Helvetica,sans-Serif" font-size="10.00">packet.hpp</text>
</a>
</g>
</g>
<!-- Node27&#45;&gt;Node28 -->
<g id="edge28" class="edge">
<title>Node27&#45;&gt;Node28</title>
<path fill="none" stroke="#63b8ff" d="M2200.39,-120.54C2200.39,-113.34 2200.39,-104.53 2200.39,-96.68"/>
<polygon fill="#63b8ff" stroke="#63b8ff" points="2203.89,-96.69 2200.39,-86.69 2196.89,-96.69 2203.89,-96.69"/>
</g>
<!-- Node29 -->
<g id="node29" class="node">
<title>Node29</title>
<g id="a_node29"><a xlink:title=" ">
<polygon fill="#e0e0e0" stroke="#999999" points="2007.89,-24.5 1918.89,-24.5 1918.89,-5.5 2007.89,-5.5 2007.89,-24.5"/>
<text text-anchor="middle" x="1963.39" y="-12.5" font-family="Helvetica,sans-Serif" font-size="10.00">../../utils/utils.hpp</text>
</a>
</g>
</g>
<!-- Node28&#45;&gt;Node29 -->
<g id="edge29" class="edge">
<title>Node28&#45;&gt;Node29</title>
<path fill="none" stroke="#63b8ff" d="M2167.95,-66.77C2131.35,-58.01 2070.03,-43.22 2017.39,-30 2014.49,-29.27 2011.51,-28.52 2008.51,-27.75"/>
<polygon fill="#63b8ff" stroke="#63b8ff" points="2009.67,-24.44 1999.11,-25.34 2007.93,-31.22 2009.67,-24.44"/>
</g>
<!-- Node30 -->
<g id="node30" class="node">
<title>Node30</title>
<g id="a_node30"><a xlink:title=" ">
<polygon fill="#e0e0e0" stroke="#999999" points="2130.39,-30 2026.39,-30 2026.39,0 2130.39,0 2130.39,-30"/>
<text text-anchor="start" x="2034.39" y="-18" font-family="Helvetica,sans-Serif" font-size="10.00">boost/archive/binary</text>
<text text-anchor="middle" x="2078.39" y="-7" font-family="Helvetica,sans-Serif" font-size="10.00">_iarchive.hpp</text>
</a>
</g>
</g>
<!-- Node28&#45;&gt;Node30 -->
<g id="edge30" class="edge">
<title>Node28&#45;&gt;Node30</title>
<path fill="none" stroke="#63b8ff" d="M2181.86,-65.62C2165.13,-57.59 2139.94,-45.52 2118.61,-35.29"/>
<polygon fill="#63b8ff" stroke="#63b8ff" points="2120.4,-32.26 2109.86,-31.09 2117.37,-38.57 2120.4,-32.26"/>
</g>
<!-- Node31 -->
<g id="node31" class="node">
<title>Node31</title>
<g id="a_node31"><a xlink:title=" ">
<polygon fill="#e0e0e0" stroke="#999999" points="2252.39,-30 2148.39,-30 2148.39,0 2252.39,0 2252.39,-30"/>
<text text-anchor="start" x="2156.39" y="-18" font-family="Helvetica,sans-Serif" font-size="10.00">boost/archive/binary</text>
<text text-anchor="middle" x="2200.39" y="-7" font-family="Helvetica,sans-Serif" font-size="10.00">_oarchive.hpp</text>
</a>
</g>
</g>
<!-- Node28&#45;&gt;Node31 -->
<g id="edge31" class="edge">
<title>Node28&#45;&gt;Node31</title>
<path fill="none" stroke="#63b8ff" d="M2200.39,-65.87C2200.39,-59.4 2200.39,-50.2 2200.39,-41.45"/>
<polygon fill="#63b8ff" stroke="#63b8ff" points="2203.89,-41.63 2200.39,-31.63 2196.89,-41.63 2203.89,-41.63"/>
</g>
<!-- Node32 -->
<g id="node32" class="node">
<title>Node32</title>
<g id="a_node32"><a xlink:title=" ">
<polygon fill="#e0e0e0" stroke="#999999" points="2365.89,-30 2270.89,-30 2270.89,0 2365.89,0 2365.89,-30"/>
<text text-anchor="start" x="2278.89" y="-18" font-family="Helvetica,sans-Serif" font-size="10.00">boost/serialization</text>
<text text-anchor="middle" x="2318.39" y="-7" font-family="Helvetica,sans-Serif" font-size="10.00">/base_object.hpp</text>
</a>
</g>
</g>
<!-- Node28&#45;&gt;Node32 -->
<g id="edge32" class="edge">
<title>Node28&#45;&gt;Node32</title>
<path fill="none" stroke="#63b8ff" d="M2218.31,-65.62C2234.41,-57.63 2258.63,-45.63 2279.2,-35.43"/>
<polygon fill="#63b8ff" stroke="#63b8ff" points="2280.5,-38.69 2287.9,-31.11 2277.39,-32.42 2280.5,-38.69"/>
</g>
<!-- Node33 -->
<g id="node33" class="node">
<title>Node33</title>
<g id="a_node33"><a xlink:title=" ">
<polygon fill="#e0e0e0" stroke="#999999" points="2478.89,-30 2383.89,-30 2383.89,0 2478.89,0 2478.89,-30"/>
<text text-anchor="start" x="2391.89" y="-18" font-family="Helvetica,sans-Serif" font-size="10.00">boost/serialization</text>
<text text-anchor="middle" x="2431.39" y="-7" font-family="Helvetica,sans-Serif" font-size="10.00">/serialization.hpp</text>
</a>
</g>
</g>
<!-- Node28&#45;&gt;Node33 -->
<g id="edge33" class="edge">
<title>Node28&#45;&gt;Node33</title>
<path fill="none" stroke="#63b8ff" d="M2232.51,-66.37C2268.62,-57.22 2328.02,-42.18 2372.52,-30.91"/>
<polygon fill="#63b8ff" stroke="#63b8ff" points="2373.19,-34.35 2382.02,-28.5 2371.47,-27.56 2373.19,-34.35"/>
</g>
<!-- Node36&#45;&gt;Node2 -->
<g id="edge37" class="edge">
<title>Node36&#45;&gt;Node2</title>
<path fill="none" stroke="#63b8ff" d="M2308.9,-206.06C1988.74,-247.87 1598.41,-250.93 1466.95,-250.73"/>
<polygon fill="#63b8ff" stroke="#63b8ff" points="1467.28,-247.23 1457.27,-250.71 1467.26,-254.23 1467.28,-247.23"/>
</g>
</g>
</svg>
