<?xml version="1.0" encoding="UTF-8" standalone="no"?>
<!DOCTYPE svg PUBLIC "-//W3C//DTD SVG 1.1//EN"
 "http://www.w3.org/Graphics/SVG/1.1/DTD/svg11.dtd">
<!-- Generated by graphviz version 8.1.0 (20230707.0739)
 -->
<!-- Title: mal&#45;packet&#45;weaver/mal&#45;packet&#45;weaver/session.cpp Pages: 1 -->
<svg width="2192pt" height="337pt"
 viewBox="0.00 0.00 2191.50 337.25" xmlns="http://www.w3.org/2000/svg" xmlns:xlink="http://www.w3.org/1999/xlink">
<g id="graph0" class="graph" transform="scale(1 1) rotate(0) translate(4 333.25)">
<title>mal&#45;packet&#45;weaver/mal&#45;packet&#45;weaver/session.cpp</title>
<!-- Node1 -->
<g id="Node000001" class="node">
<title>Node1</title>
<g id="a_Node000001"><a xlink:title=" ">
<polygon fill="#999999" stroke="#666666" points="1134.75,-329.25 1010.75,-329.25 1010.75,-298.75 1134.75,-298.75 1134.75,-329.25"/>
<text text-anchor="start" x="1018.75" y="-315.75" font-family="Times,serif" font-size="10.00">mal&#45;packet&#45;weaver/mal</text>
<text text-anchor="middle" x="1072.75" y="-304.5" font-family="Times,serif" font-size="10.00">&#45;packet&#45;weaver/session.cpp</text>
</a>
</g>
</g>
<!-- Node2 -->
<g id="Node000002" class="node">
<title>Node2</title>
<g id="a_Node000002"><a xlink:href="../../d4/d5e/session_8hpp.html" target="_top" xlink:title=" ">
<polygon fill="white" stroke="#666666" points="1103.62,-262.75 1041.88,-262.75 1041.88,-243.5 1103.62,-243.5 1103.62,-262.75"/>
<text text-anchor="middle" x="1072.75" y="-249.25" font-family="Times,serif" font-size="10.00">session.hpp</text>
</a>
</g>
</g>
<!-- Node1&#45;&gt;Node2 -->
<g id="edge1_Node000001_Node000002" class="edge">
<title>Node1&#45;&gt;Node2</title>
<g id="a_edge1_Node000001_Node000002"><a xlink:title=" ">
<path fill="none" stroke="#63b8ff" d="M1072.75,-298.45C1072.75,-291.12 1072.75,-282.12 1072.75,-274.16"/>
<polygon fill="#63b8ff" stroke="#63b8ff" points="1076.25,-274.2 1072.75,-264.2 1069.25,-274.2 1076.25,-274.2"/>
</a>
</g>
</g>
<!-- Node3 -->
<g id="Node000003" class="node">
<title>Node3</title>
<g id="a_Node000003"><a xlink:title=" ">
<polygon fill="#e0e0e0" stroke="#999999" points="53.5,-207.5 0,-207.5 0,-188.25 53.5,-188.25 53.5,-207.5"/>
<text text-anchor="middle" x="26.75" y="-194" font-family="Times,serif" font-size="10.00">algorithm</text>
</a>
</g>
</g>
<!-- Node2&#45;&gt;Node3 -->
<g id="edge2_Node000002_Node000003" class="edge">
<title>Node2&#45;&gt;Node3</title>
<g id="a_edge2_Node000002_Node000003"><a xlink:title=" ">
<path fill="none" stroke="#63b8ff" d="M1041.5,-251.55C895.65,-248.74 280.26,-235.51 64.65,-207.41"/>
<polygon fill="#63b8ff" stroke="#63b8ff" points="65.15,-203.81 54.77,-205.93 64.21,-210.75 65.15,-203.81"/>
</a>
</g>
</g>
<!-- Node4 -->
<g id="Node000004" class="node">
<title>Node4</title>
<g id="a_Node000004"><a xlink:title=" ">
<polygon fill="#e0e0e0" stroke="#999999" points="119.88,-207.5 71.62,-207.5 71.62,-188.25 119.88,-188.25 119.88,-207.5"/>
<text text-anchor="middle" x="95.75" y="-194" font-family="Times,serif" font-size="10.00">memory</text>
</a>
</g>
</g>
<!-- Node2&#45;&gt;Node4 -->
<g id="edge3_Node000002_Node000004" class="edge">
<title>Node2&#45;&gt;Node4</title>
<g id="a_edge3_Node000002_Node000004"><a xlink:title=" ">
<path fill="none" stroke="#63b8ff" d="M1041.7,-251.5C902.31,-248.54 332.82,-235.1 130.91,-207.24"/>
<polygon fill="#63b8ff" stroke="#63b8ff" points="131.54,-203.65 121.14,-205.69 130.54,-210.58 131.54,-203.65"/>
</a>
</g>
</g>
<!-- Node5 -->
<g id="Node000005" class="node">
<title>Node5</title>
<g id="a_Node000005"><a xlink:title=" ">
<polygon fill="#e0e0e0" stroke="#999999" points="179.12,-207.5 138.38,-207.5 138.38,-188.25 179.12,-188.25 179.12,-207.5"/>
<text text-anchor="middle" x="158.75" y="-194" font-family="Times,serif" font-size="10.00">mutex</text>
</a>
</g>
</g>
<!-- Node2&#45;&gt;Node5 -->
<g id="edge4_Node000002_Node000005" class="edge">
<title>Node2&#45;&gt;Node5</title>
<g id="a_edge4_Node000002_Node000005"><a xlink:title=" ">
<path fill="none" stroke="#63b8ff" d="M1041.77,-251.55C908,-248.94 378.45,-237.02 190.35,-207.48"/>
<polygon fill="#63b8ff" stroke="#63b8ff" points="190.95,-203.87 180.52,-205.7 189.81,-210.78 190.95,-203.87"/>
</a>
</g>
</g>
<!-- Node6 -->
<g id="Node000006" class="node">
<title>Node6</title>
<g id="a_Node000006"><a xlink:title=" ">
<polygon fill="#e0e0e0" stroke="#999999" points="236.75,-207.5 196.75,-207.5 196.75,-188.25 236.75,-188.25 236.75,-207.5"/>
<text text-anchor="middle" x="216.75" y="-194" font-family="Times,serif" font-size="10.00">queue</text>
</a>
</g>
</g>
<!-- Node2&#45;&gt;Node6 -->
<g id="edge5_Node000002_Node000006" class="edge">
<title>Node2&#45;&gt;Node6</title>
<g id="a_edge5_Node000002_Node000006"><a xlink:title=" ">
<path fill="none" stroke="#63b8ff" d="M1041.67,-251.39C913.49,-248.19 424.74,-234.6 247.65,-207.1"/>
<polygon fill="#63b8ff" stroke="#63b8ff" points="248.37,-203.51 237.94,-205.35 247.25,-210.41 248.37,-203.51"/>
</a>
</g>
</g>
<!-- Node7 -->
<g id="Node000007" class="node">
<title>Node7</title>
<g id="a_Node000007"><a xlink:title=" ">
<polygon fill="#e0e0e0" stroke="#999999" points="370.25,-207.5 255.25,-207.5 255.25,-188.25 370.25,-188.25 370.25,-207.5"/>
<text text-anchor="middle" x="312.75" y="-194" font-family="Times,serif" font-size="10.00">boost/asio/awaitable.hpp</text>
</a>
</g>
</g>
<!-- Node2&#45;&gt;Node7 -->
<g id="edge6_Node000002_Node000007" class="edge">
<title>Node2&#45;&gt;Node7</title>
<g id="a_edge6_Node000002_Node000007"><a xlink:title=" ">
<path fill="none" stroke="#63b8ff" d="M1041.61,-250.83C945.25,-246.67 643.17,-232.49 381.33,-207.58"/>
<polygon fill="#63b8ff" stroke="#63b8ff" points="381.76,-204.01 371.47,-206.54 381.09,-210.98 381.76,-204.01"/>
</a>
</g>
</g>
<!-- Node8 -->
<g id="Node000008" class="node">
<title>Node8</title>
<g id="a_Node000008"><a xlink:title=" ">
<polygon fill="#e0e0e0" stroke="#999999" points="506.75,-207.5 388.75,-207.5 388.75,-188.25 506.75,-188.25 506.75,-207.5"/>
<text text-anchor="middle" x="447.75" y="-194" font-family="Times,serif" font-size="10.00">boost/asio/co_spawn.hpp</text>
</a>
</g>
</g>
<!-- Node2&#45;&gt;Node8 -->
<g id="edge7_Node000002_Node000008" class="edge">
<title>Node2&#45;&gt;Node8</title>
<g id="a_edge7_Node000002_Node000008"><a xlink:title=" ">
<path fill="none" stroke="#63b8ff" d="M1041.66,-250.11C958.64,-244.64 724.58,-228.54 517.95,-207.57"/>
<polygon fill="#63b8ff" stroke="#63b8ff" points="518.5,-204.01 508.2,-206.48 517.79,-210.97 518.5,-204.01"/>
</a>
</g>
</g>
<!-- Node9 -->
<g id="Node000009" class="node">
<title>Node9</title>
<g id="a_Node000009"><a xlink:title=" ">
<polygon fill="#e0e0e0" stroke="#999999" points="640.25,-207.5 525.25,-207.5 525.25,-188.25 640.25,-188.25 640.25,-207.5"/>
<text text-anchor="middle" x="582.75" y="-194" font-family="Times,serif" font-size="10.00">boost/asio/detached.hpp</text>
</a>
</g>
</g>
<!-- Node2&#45;&gt;Node9 -->
<g id="edge8_Node000002_Node000009" class="edge">
<title>Node2&#45;&gt;Node9</title>
<g id="a_edge8_Node000002_Node000009"><a xlink:title=" ">
<path fill="none" stroke="#63b8ff" d="M1041.41,-249.07C972.8,-242.32 803.89,-225.42 651,-207.62"/>
<polygon fill="#63b8ff" stroke="#63b8ff" points="651.82,-204.08 641.48,-206.39 651.01,-211.03 651.82,-204.08"/>
</a>
</g>
</g>
<!-- Node10 -->
<g id="Node000010" class="node">
<title>Node10</title>
<g id="a_Node000010"><a xlink:title=" ">
<polygon fill="#e0e0e0" stroke="#999999" points="760.88,-207.5 658.62,-207.5 658.62,-188.25 760.88,-188.25 760.88,-207.5"/>
<text text-anchor="middle" x="709.75" y="-194" font-family="Times,serif" font-size="10.00">boost/asio/ip/tcp.hpp</text>
</a>
</g>
</g>
<!-- Node2&#45;&gt;Node10 -->
<g id="edge9_Node000002_Node000010" class="edge">
<title>Node2&#45;&gt;Node10</title>
<g id="a_edge9_Node000002_Node000010"><a xlink:title=" ">
<path fill="none" stroke="#63b8ff" d="M1041.49,-247.54C981.7,-238.77 850.16,-219.47 771.87,-207.99"/>
<polygon fill="#63b8ff" stroke="#63b8ff" points="772.59,-204.41 762.19,-206.42 771.58,-211.34 772.59,-204.41"/>
</a>
</g>
</g>
<!-- Node11 -->
<g id="Node000011" class="node">
<title>Node11</title>
<g id="a_Node000011"><a xlink:title=" ">
<polygon fill="#e0e0e0" stroke="#999999" points="874.5,-207.5 779,-207.5 779,-188.25 874.5,-188.25 874.5,-207.5"/>
<text text-anchor="middle" x="826.75" y="-194" font-family="Times,serif" font-size="10.00">boost/asio/read.hpp</text>
</a>
</g>
</g>
<!-- Node2&#45;&gt;Node11 -->
<g id="edge10_Node000002_Node000011" class="edge">
<title>Node2&#45;&gt;Node11</title>
<g id="a_edge10_Node000002_Node000011"><a xlink:title=" ">
<path fill="none" stroke="#63b8ff" d="M1041.59,-245.38C1000.76,-236.54 928.56,-220.91 879.22,-210.23"/>
<polygon fill="#63b8ff" stroke="#63b8ff" points="880.26,-206.66 869.75,-207.97 878.78,-213.5 880.26,-206.66"/>
</a>
</g>
</g>
<!-- Node12 -->
<g id="Node000012" class="node">
<title>Node12</title>
<g id="a_Node000012"><a xlink:title=" ">
<polygon fill="#e0e0e0" stroke="#999999" points="995.25,-207.5 892.25,-207.5 892.25,-188.25 995.25,-188.25 995.25,-207.5"/>
<text text-anchor="middle" x="943.75" y="-194" font-family="Times,serif" font-size="10.00">boost/asio/spawn.hpp</text>
</a>
</g>
</g>
<!-- Node2&#45;&gt;Node12 -->
<g id="edge11_Node000002_Node000012" class="edge">
<title>Node2&#45;&gt;Node12</title>
<g id="a_edge11_Node000002_Node000012"><a xlink:title=" ">
<path fill="none" stroke="#63b8ff" d="M1050.87,-243.09C1030.3,-234.6 999.26,-221.79 975.88,-212.14"/>
<polygon fill="#63b8ff" stroke="#63b8ff" points="977.32,-208.53 966.74,-207.95 974.65,-215 977.32,-208.53"/>
</a>
</g>
</g>
<!-- Node13 -->
<g id="Node000013" class="node">
<title>Node13</title>
<g id="a_Node000013"><a xlink:title=" ">
<polygon fill="#e0e0e0" stroke="#999999" points="1132.12,-207.5 1013.38,-207.5 1013.38,-188.25 1132.12,-188.25 1132.12,-207.5"/>
<text text-anchor="middle" x="1072.75" y="-194" font-family="Times,serif" font-size="10.00">boost/asio/streambuf.hpp</text>
</a>
</g>
</g>
<!-- Node2&#45;&gt;Node13 -->
<g id="edge12_Node000002_Node000013" class="edge">
<title>Node2&#45;&gt;Node13</title>
<g id="a_edge12_Node000002_Node000013"><a xlink:title=" ">
<path fill="none" stroke="#63b8ff" d="M1072.75,-243.33C1072.75,-236.67 1072.75,-227.24 1072.75,-218.78"/>
<polygon fill="#63b8ff" stroke="#63b8ff" points="1076.25,-218.86 1072.75,-208.86 1069.25,-218.86 1076.25,-218.86"/>
</a>
</g>
</g>
<!-- Node14 -->
<g id="Node000014" class="node">
<title>Node14</title>
<g id="a_Node000014"><a xlink:title=" ">
<polygon fill="#e0e0e0" stroke="#999999" points="1249,-207.5 1150.5,-207.5 1150.5,-188.25 1249,-188.25 1249,-207.5"/>
<text text-anchor="middle" x="1199.75" y="-194" font-family="Times,serif" font-size="10.00">boost/asio/write.hpp</text>
</a>
</g>
</g>
<!-- Node2&#45;&gt;Node14 -->
<g id="edge13_Node000002_Node000014" class="edge">
<title>Node2&#45;&gt;Node14</title>
<g id="a_edge13_Node000002_Node000014"><a xlink:title=" ">
<path fill="none" stroke="#63b8ff" d="M1094.29,-243.09C1114.55,-234.6 1145.1,-221.79 1168.12,-212.14"/>
<polygon fill="#63b8ff" stroke="#63b8ff" points="1169.23,-215.05 1177.1,-207.95 1166.52,-208.59 1169.23,-215.05"/>
</a>
</g>
</g>
<!-- Node15 -->
<g id="Node000015" class="node">
<title>Node15</title>
<g id="a_Node000015"><a xlink:title=" ">
<polygon fill="#e0e0e0" stroke="#999999" points="1398.12,-207.5 1267.38,-207.5 1267.38,-188.25 1398.12,-188.25 1398.12,-207.5"/>
<text text-anchor="middle" x="1332.75" y="-194" font-family="Times,serif" font-size="10.00">boost/endian/conversion.hpp</text>
</a>
</g>
</g>
<!-- Node2&#45;&gt;Node15 -->
<g id="edge14_Node000002_Node000015" class="edge">
<title>Node2&#45;&gt;Node15</title>
<g id="a_edge14_Node000002_Node000015"><a xlink:title=" ">
<path fill="none" stroke="#63b8ff" d="M1104.11,-245.7C1147.07,-236.9 1224.9,-220.96 1277.69,-210.15"/>
<polygon fill="#63b8ff" stroke="#63b8ff" points="1278.13,-213.43 1287.23,-207.99 1276.73,-206.57 1278.13,-213.43"/>
</a>
</g>
</g>
<!-- Node16 -->
<g id="Node000016" class="node">
<title>Node16</title>
<g id="a_Node000016"><a xlink:title=" ">
<polygon fill="#e0e0e0" stroke="#999999" points="1523.5,-207.5 1416,-207.5 1416,-188.25 1523.5,-188.25 1523.5,-207.5"/>
<text text-anchor="middle" x="1469.75" y="-194" font-family="Times,serif" font-size="10.00">boost/range/begin.hpp</text>
</a>
</g>
</g>
<!-- Node2&#45;&gt;Node16 -->
<g id="edge15_Node000002_Node000016" class="edge">
<title>Node2&#45;&gt;Node16</title>
<g id="a_edge15_Node000002_Node000016"><a xlink:title=" ">
<path fill="none" stroke="#63b8ff" d="M1104.07,-247.98C1161.49,-240.36 1287.76,-223.58 1405.19,-207.71"/>
<polygon fill="#63b8ff" stroke="#63b8ff" points="1405.35,-211.08 1414.8,-206.27 1404.42,-204.14 1405.35,-211.08"/>
</a>
</g>
</g>
<!-- Node17 -->
<g id="Node000017" class="node">
<title>Node17</title>
<g id="a_Node000017"><a xlink:title=" ">
<polygon fill="#e0e0e0" stroke="#999999" points="1640.38,-207.5 1541.12,-207.5 1541.12,-188.25 1640.38,-188.25 1640.38,-207.5"/>
<text text-anchor="middle" x="1590.75" y="-194" font-family="Times,serif" font-size="10.00">boost/range/end.hpp</text>
</a>
</g>
</g>
<!-- Node2&#45;&gt;Node17 -->
<g id="edge16_Node000002_Node000017" class="edge">
<title>Node2&#45;&gt;Node17</title>
<g id="a_edge16_Node000002_Node000017"><a xlink:title=" ">
<path fill="none" stroke="#63b8ff" d="M1104.04,-249.64C1176.88,-243.75 1363.63,-227.95 1529.87,-207.8"/>
<polygon fill="#63b8ff" stroke="#63b8ff" points="1530.28,-211.16 1539.79,-206.47 1529.43,-204.21 1530.28,-211.16"/>
</a>
</g>
</g>
<!-- Node18 -->
<g id="Node000018" class="node">
<title>Node18</title>
<g id="a_Node000018"><a xlink:title=" ">
<polygon fill="#e0e0e0" stroke="#999999" points="1777.12,-207.5 1658.38,-207.5 1658.38,-188.25 1777.12,-188.25 1777.12,-207.5"/>
<text text-anchor="middle" x="1717.75" y="-194" font-family="Times,serif" font-size="10.00">boost/lockfree/queue.hpp</text>
</a>
</g>
</g>
<!-- Node2&#45;&gt;Node18 -->
<g id="edge17_Node000002_Node000018" class="edge">
<title>Node2&#45;&gt;Node18</title>
<g id="a_edge17_Node000002_Node000018"><a xlink:title=" ">
<path fill="none" stroke="#63b8ff" d="M1104.07,-250.24C1189.43,-245 1433.56,-229.25 1647.27,-207.71"/>
<polygon fill="#63b8ff" stroke="#63b8ff" points="1647.47,-211.11 1657.06,-206.61 1646.76,-204.14 1647.47,-211.11"/>
</a>
</g>
</g>
<!-- Node19 -->
<g id="Node000019" class="node">
<title>Node19</title>
<g id="a_Node000019"><a xlink:title=" ">
<polygon fill="#e0e0e0" stroke="#999999" points="1870.75,-207.5 1794.75,-207.5 1794.75,-188.25 1870.75,-188.25 1870.75,-207.5"/>
<text text-anchor="middle" x="1832.75" y="-194" font-family="Times,serif" font-size="10.00">crypto/aes.hpp</text>
</a>
</g>
</g>
<!-- Node2&#45;&gt;Node19 -->
<g id="edge18_Node000002_Node000019" class="edge">
<title>Node2&#45;&gt;Node19</title>
<g id="a_edge18_Node000002_Node000019"><a xlink:title=" ">
<path fill="none" stroke="#63b8ff" d="M1103.8,-251.5C1202.01,-249.25 1514.83,-239.94 1783.59,-207.62"/>
<polygon fill="#63b8ff" stroke="#63b8ff" points="1783.83,-210.99 1793.33,-206.31 1782.98,-204.04 1783.83,-210.99"/>
</a>
</g>
</g>
<!-- Node20 -->
<g id="Node000020" class="node">
<title>Node20</title>
<g id="a_Node000020"><a xlink:href="../../d2/d3f/packet_8hpp.html" target="_top" xlink:title=" ">
<polygon fill="white" stroke="#666666" points="1948.88,-207.5 1888.62,-207.5 1888.62,-188.25 1948.88,-188.25 1948.88,-207.5"/>
<text text-anchor="middle" x="1918.75" y="-194" font-family="Times,serif" font-size="10.00">packet.hpp</text>
</a>
</g>
</g>
<!-- Node2&#45;&gt;Node20 -->
<g id="edge19_Node000002_Node000020" class="edge">
<title>Node2&#45;&gt;Node20</title>
<g id="a_edge19_Node000002_Node000020"><a xlink:title=" ">
<path fill="none" stroke="#63b8ff" d="M1104.08,-252.22C1210.99,-252.15 1571.25,-248.76 1877.31,-207.61"/>
<polygon fill="#63b8ff" stroke="#63b8ff" points="1877.74,-210.95 1887.18,-206.13 1876.8,-204.01 1877.74,-210.95"/>
</a>
</g>
</g>
<!-- Node28 -->
<g id="Node000028" class="node">
<title>Node28</title>
<g id="a_Node000028"><a xlink:title=" ">
<polygon fill="#e0e0e0" stroke="#999999" points="2094.25,-207.5 1967.25,-207.5 1967.25,-188.25 2094.25,-188.25 2094.25,-207.5"/>
<text text-anchor="middle" x="2030.75" y="-194" font-family="Times,serif" font-size="10.00">mal_toolkit/mal_toolkit.hpp</text>
</a>
</g>
</g>
<!-- Node2&#45;&gt;Node28 -->
<g id="edge27_Node000002_Node000028" class="edge">
<title>Node2&#45;&gt;Node28</title>
<g id="a_edge27_Node000002_Node000028"><a xlink:title=" ">
<path fill="none" stroke="#63b8ff" d="M1103.76,-251.32C1216.51,-248.22 1615.44,-235.87 1956.25,-207.56"/>
<polygon fill="#63b8ff" stroke="#63b8ff" points="1956.4,-210.98 1966.07,-206.65 1955.82,-204 1956.4,-210.98"/>
</a>
</g>
</g>
<!-- Node29 -->
<g id="Node000029" class="node">
<title>Node29</title>
<g id="a_Node000029"><a xlink:href="../../d1/d16/session_8inl.html" target="_top" xlink:title=" ">
<polygon fill="white" stroke="#666666" points="2169,-207.5 2112.5,-207.5 2112.5,-188.25 2169,-188.25 2169,-207.5"/>
<text text-anchor="middle" x="2140.75" y="-194" font-family="Times,serif" font-size="10.00">session.inl</text>
</a>
</g>
</g>
<!-- Node2&#45;&gt;Node29 -->
<g id="edge28_Node000002_Node000029" class="edge">
<title>Node2&#45;&gt;Node29</title>
<g id="a_edge28_Node000002_Node000029"><a xlink:title=" ">
<path fill="none" stroke="#63b8ff" d="M1103.76,-251.5C1252.83,-248.54 1895.5,-234.79 2094.75,-207.5 2096.95,-207.2 2099.2,-206.83 2101.49,-206.41"/>
<polygon fill="#63b8ff" stroke="#63b8ff" points="2102.15,-209.65 2111.25,-204.22 2100.75,-202.79 2102.15,-209.65"/>
</a>
</g>
</g>
<!-- Node21 -->
<g id="Node000021" class="node">
<title>Node21</title>
<g id="a_Node000021"><a xlink:href="../../d3/d53/packet-factory_8hpp.html" target="_top" xlink:title=" ">
<polygon fill="white" stroke="#666666" points="1966.12,-152.25 1871.38,-152.25 1871.38,-121.75 1966.12,-121.75 1966.12,-152.25"/>
<text text-anchor="start" x="1879.38" y="-138.75" font-family="Times,serif" font-size="10.00">packet_impl/packet</text>
<text text-anchor="middle" x="1918.75" y="-127.5" font-family="Times,serif" font-size="10.00">&#45;factory.hpp</text>
</a>
</g>
</g>
<!-- Node20&#45;&gt;Node21 -->
<g id="edge20_Node000020_Node000021" class="edge">
<title>Node20&#45;&gt;Node21</title>
<g id="a_edge20_Node000020_Node000021"><a xlink:title=" ">
<path fill="none" stroke="#63b8ff" d="M1918.75,-187.93C1918.75,-181.4 1918.75,-172.2 1918.75,-163.47"/>
<polygon fill="#63b8ff" stroke="#63b8ff" points="1922.25,-163.53 1918.75,-153.53 1915.25,-163.53 1922.25,-163.53"/>
</a>
</g>
</g>
<!-- Node22 -->
<g id="Node000022" class="node">
<title>Node22</title>
<g id="a_Node000022"><a xlink:href="../../d9/d85/packet__impl_2packet_8hpp.html" target="_top" xlink:title=" ">
<polygon fill="white" stroke="#666666" points="1948.88,-85.75 1888.62,-85.75 1888.62,-66.5 1948.88,-66.5 1948.88,-85.75"/>
<text text-anchor="middle" x="1918.75" y="-72.25" font-family="Times,serif" font-size="10.00">packet.hpp</text>
</a>
</g>
</g>
<!-- Node21&#45;&gt;Node22 -->
<g id="edge21_Node000021_Node000022" class="edge">
<title>Node21&#45;&gt;Node22</title>
<g id="a_edge21_Node000021_Node000022"><a xlink:title=" ">
<path fill="none" stroke="#63b8ff" d="M1918.75,-121.45C1918.75,-114.12 1918.75,-105.12 1918.75,-97.16"/>
<polygon fill="#63b8ff" stroke="#63b8ff" points="1922.25,-97.2 1918.75,-87.2 1915.25,-97.2 1922.25,-97.2"/>
</a>
</g>
</g>
<!-- Node23 -->
<g id="Node000023" class="node">
<title>Node23</title>
<g id="a_Node000023"><a xlink:title=" ">
<polygon fill="#e0e0e0" stroke="#999999" points="1734,-24.88 1611.5,-24.88 1611.5,-5.63 1734,-5.63 1734,-24.88"/>
<text text-anchor="middle" x="1672.75" y="-11.38" font-family="Times,serif" font-size="10.00">mal&#45;toolkit/mal&#45;toolkit.hpp</text>
</a>
</g>
</g>
<!-- Node22&#45;&gt;Node23 -->
<g id="edge22_Node000022_Node000023" class="edge">
<title>Node22&#45;&gt;Node23</title>
<g id="a_edge22_Node000022_Node000023"><a xlink:title=" ">
<path fill="none" stroke="#63b8ff" d="M1888.59,-67.91C1846.87,-57.92 1771.09,-39.79 1721.34,-27.88"/>
<polygon fill="#63b8ff" stroke="#63b8ff" points="1722.37,-24.29 1711.83,-25.36 1720.74,-31.1 1722.37,-24.29"/>
</a>
</g>
</g>
<!-- Node24 -->
<g id="Node000024" class="node">
<title>Node24</title>
<g id="a_Node000024"><a xlink:title=" ">
<polygon fill="#e0e0e0" stroke="#999999" points="1851,-30.5 1752.5,-30.5 1752.5,0 1851,0 1851,-30.5"/>
<text text-anchor="start" x="1760.5" y="-17" font-family="Times,serif" font-size="10.00">boost/archive/binary</text>
<text text-anchor="middle" x="1801.75" y="-5.75" font-family="Times,serif" font-size="10.00">_iarchive.hpp</text>
</a>
</g>
</g>
<!-- Node22&#45;&gt;Node24 -->
<g id="edge23_Node000022_Node000024" class="edge">
<title>Node22&#45;&gt;Node24</title>
<g id="a_edge23_Node000022_Node000024"><a xlink:title=" ">
<path fill="none" stroke="#63b8ff" d="M1900.73,-66.05C1884.75,-58.02 1860.88,-46 1840.58,-35.79"/>
<polygon fill="#63b8ff" stroke="#63b8ff" points="1842.46,-32.31 1831.95,-30.94 1839.31,-38.57 1842.46,-32.31"/>
</a>
</g>
</g>
<!-- Node25 -->
<g id="Node000025" class="node">
<title>Node25</title>
<g id="a_Node000025"><a xlink:title=" ">
<polygon fill="#e0e0e0" stroke="#999999" points="1968,-30.5 1869.5,-30.5 1869.5,0 1968,0 1968,-30.5"/>
<text text-anchor="start" x="1877.5" y="-17" font-family="Times,serif" font-size="10.00">boost/archive/binary</text>
<text text-anchor="middle" x="1918.75" y="-5.75" font-family="Times,serif" font-size="10.00">_oarchive.hpp</text>
</a>
</g>
</g>
<!-- Node22&#45;&gt;Node25 -->
<g id="edge24_Node000022_Node000025" class="edge">
<title>Node22&#45;&gt;Node25</title>
<g id="a_edge24_Node000022_Node000025"><a xlink:title=" ">
<path fill="none" stroke="#63b8ff" d="M1918.75,-66.18C1918.75,-59.65 1918.75,-50.45 1918.75,-41.72"/>
<polygon fill="#63b8ff" stroke="#63b8ff" points="1922.25,-41.78 1918.75,-31.78 1915.25,-41.78 1922.25,-41.78"/>
</a>
</g>
</g>
<!-- Node26 -->
<g id="Node000026" class="node">
<title>Node26</title>
<g id="a_Node000026"><a xlink:title=" ">
<polygon fill="#e0e0e0" stroke="#999999" points="2075.5,-30.5 1986,-30.5 1986,0 2075.5,0 2075.5,-30.5"/>
<text text-anchor="start" x="1994" y="-17" font-family="Times,serif" font-size="10.00">boost/serialization</text>
<text text-anchor="middle" x="2030.75" y="-5.75" font-family="Times,serif" font-size="10.00">/base_object.hpp</text>
</a>
</g>
</g>
<!-- Node22&#45;&gt;Node26 -->
<g id="edge25_Node000022_Node000026" class="edge">
<title>Node22&#45;&gt;Node26</title>
<g id="a_edge25_Node000022_Node000026"><a xlink:title=" ">
<path fill="none" stroke="#63b8ff" d="M1935.76,-66.18C1951.05,-58.15 1974.03,-46.07 1993.56,-35.8"/>
<polygon fill="#63b8ff" stroke="#63b8ff" points="1994.88,-38.53 2002.11,-30.78 1991.62,-32.34 1994.88,-38.53"/>
</a>
</g>
</g>
<!-- Node27 -->
<g id="Node000027" class="node">
<title>Node27</title>
<g id="a_Node000027"><a xlink:title=" ">
<polygon fill="#e0e0e0" stroke="#999999" points="2183.5,-30.5 2094,-30.5 2094,0 2183.5,0 2183.5,-30.5"/>
<text text-anchor="start" x="2102" y="-17" font-family="Times,serif" font-size="10.00">boost/serialization</text>
<text text-anchor="middle" x="2138.75" y="-5.75" font-family="Times,serif" font-size="10.00">/serialization.hpp</text>
</a>
</g>
</g>
<!-- Node22&#45;&gt;Node27 -->
<g id="edge26_Node000022_Node000027" class="edge">
<title>Node22&#45;&gt;Node27</title>
<g id="a_edge26_Node000022_Node000027"><a xlink:title=" ">
<path fill="none" stroke="#63b8ff" d="M1949.34,-66.94C1983.84,-57.71 2040.67,-42.5 2083.09,-31.15"/>
<polygon fill="#63b8ff" stroke="#63b8ff" points="2083.79,-34.31 2092.54,-28.35 2081.98,-27.55 2083.79,-34.31"/>
</a>
</g>
</g>
<!-- Node29&#45;&gt;Node2 -->
<g id="edge29_Node000029_Node000002" class="edge">
<title>Node29&#45;&gt;Node2</title>
<g id="a_edge29_Node000029_Node000002"><a xlink:title=" ">
<path fill="none" stroke="#63b8ff" d="M2112.16,-207.58C1914.33,-234.54 1284.06,-248.25 1114.84,-251.41"/>
<polygon fill="#63b8ff" stroke="#63b8ff" points="1114.85,-247.92 1104.91,-251.61 1114.98,-254.92 1114.85,-247.92"/>
</a>
</g>
</g>
</g>
</svg>
