<?xml version="1.0" encoding="UTF-8" standalone="no"?>
<!DOCTYPE svg PUBLIC "-//W3C//DTD SVG 1.1//EN"
 "http://www.w3.org/Graphics/SVG/1.1/DTD/svg11.dtd">
<!-- Generated by graphviz version 9.0.0 (20230911.1827)
 -->
<!-- Title: mal_toolkit::endianness::betole16 Pages: 1 -->
<svg width="382pt" height="137pt"
 viewBox="0.00 0.00 381.50 136.50" xmlns="http://www.w3.org/2000/svg" xmlns:xlink="http://www.w3.org/1999/xlink">
<g id="graph0" class="graph" transform="scale(1 1) rotate(0) translate(4 132.5)">
<title>mal_toolkit::endianness::betole16</title>
<!-- Node1 -->
<g id="Node000001" class="node">
<title>Node1</title>
<g id="a_Node000001"><a xlink:title="Converts a 16&#45;bit value between big&#45;endian and little&#45;endian.">
<polygon fill="#999999" stroke="#666666" points="373.5,-103.5 265.25,-103.5 265.25,-73 373.5,-73 373.5,-103.5"/>
<text text-anchor="start" x="273.25" y="-90" font-family="Times,serif" font-size="10.00">mal_toolkit::endianness</text>
<text text-anchor="middle" x="319.38" y="-78.75" font-family="Times,serif" font-size="10.00">::betole16</text>
</a>
</g>
</g>
<!-- Node2 -->
<g id="Node000002" class="node">
<title>Node2</title>
<g id="a_Node000002"><a xlink:href="../../d4/dcc/namespacemal__toolkit_1_1uuid.html#a6fc05ef12aa7cf48b1a92d6402e27748" target="_top" xlink:title="Converts a 128&#45;bits unsigned int to an UUIDv4 string representation using SIMD via AVX2.">
<polygon fill="white" stroke="#666666" points="229.25,-128.5 142,-128.5 142,-98 229.25,-98 229.25,-128.5"/>
<text text-anchor="start" x="150" y="-115" font-family="Times,serif" font-size="10.00">mal_toolkit::uuid::</text>
<text text-anchor="middle" x="185.62" y="-103.75" font-family="Times,serif" font-size="10.00">m128itos</text>
</a>
</g>
</g>
<!-- Node1&#45;&gt;Node2 -->
<g id="edge1_Node000001_Node000002" class="edge">
<title>Node1&#45;&gt;Node2</title>
<g id="a_edge1_Node000001_Node000002"><a xlink:title=" ">
<path fill="none" stroke="#63b8ff" d="M253.72,-100.52C245.57,-102.07 237.38,-103.62 229.67,-105.08"/>
<polygon fill="#63b8ff" stroke="#63b8ff" points="254.13,-104 263.3,-98.7 252.82,-97.13 254.13,-104"/>
</a>
</g>
</g>
<!-- Node4 -->
<g id="Node000004" class="node">
<title>Node4</title>
<g id="a_Node000004"><a xlink:href="../../d4/dcc/namespacemal__toolkit_1_1uuid.html#ac574774fc475c6fdada4ba48e1ed5b95" target="_top" xlink:title="Converts an UUIDv4 string representation to a 128&#45;bits unsigned int using SIMD via AVX2.">
<polygon fill="white" stroke="#666666" points="229.25,-79.5 142,-79.5 142,-49 229.25,-49 229.25,-79.5"/>
<text text-anchor="start" x="150" y="-66" font-family="Times,serif" font-size="10.00">mal_toolkit::uuid::</text>
<text text-anchor="middle" x="185.62" y="-54.75" font-family="Times,serif" font-size="10.00">stom128i</text>
</a>
</g>
</g>
<!-- Node1&#45;&gt;Node4 -->
<g id="edge3_Node000001_Node000004" class="edge">
<title>Node1&#45;&gt;Node4</title>
<g id="a_edge3_Node000001_Node000004"><a xlink:title=" ">
<path fill="none" stroke="#63b8ff" d="M253.72,-76.47C245.57,-74.99 237.38,-73.5 229.67,-72.09"/>
<polygon fill="#63b8ff" stroke="#63b8ff" points="252.83,-79.87 263.3,-78.22 254.09,-72.98 252.83,-79.87"/>
</a>
</g>
</g>
<!-- Node3 -->
<g id="Node000003" class="node">
<title>Node3</title>
<g id="a_Node000003"><a xlink:href="../../d5/d96/classmal__toolkit_1_1uuid_1_1_u_u_i_d.html#a4e75c9f1f51435c35a76386a1e98b134" target="_top" xlink:title=" ">
<polygon fill="white" stroke="#666666" points="96.62,-128.5 9.38,-128.5 9.38,-98 96.62,-98 96.62,-128.5"/>
<text text-anchor="start" x="17.38" y="-115" font-family="Times,serif" font-size="10.00">mal_toolkit::uuid::</text>
<text text-anchor="middle" x="53" y="-103.75" font-family="Times,serif" font-size="10.00">UUID::str</text>
</a>
</g>
</g>
<!-- Node2&#45;&gt;Node3 -->
<g id="edge2_Node000002_Node000003" class="edge">
<title>Node2&#45;&gt;Node3</title>
<g id="a_edge2_Node000002_Node000003"><a xlink:title=" ">
<path fill="none" stroke="#63b8ff" d="M130.41,-113.25C119.22,-113.25 107.59,-113.25 96.87,-113.25"/>
<polygon fill="#63b8ff" stroke="#63b8ff" points="130.34,-116.75 140.34,-113.25 130.34,-109.75 130.34,-116.75"/>
</a>
</g>
</g>
<!-- Node5 -->
<g id="Node000005" class="node">
<title>Node5</title>
<g id="a_Node000005"><a xlink:href="../../d5/d96/classmal__toolkit_1_1uuid_1_1_u_u_i_d.html#ac72601e75ca8a2e090c494e3f6b70426" target="_top" xlink:title=" ">
<polygon fill="white" stroke="#666666" points="96.62,-79.5 9.38,-79.5 9.38,-49 96.62,-49 96.62,-79.5"/>
<text text-anchor="start" x="17.38" y="-66" font-family="Times,serif" font-size="10.00">mal_toolkit::uuid::</text>
<text text-anchor="middle" x="53" y="-54.75" font-family="Times,serif" font-size="10.00">UUID::fromStr</text>
</a>
</g>
</g>
<!-- Node4&#45;&gt;Node5 -->
<g id="edge4_Node000004_Node000005" class="edge">
<title>Node4&#45;&gt;Node5</title>
<g id="a_edge4_Node000004_Node000005"><a xlink:title=" ">
<path fill="none" stroke="#63b8ff" d="M130.41,-64.25C119.22,-64.25 107.59,-64.25 96.87,-64.25"/>
<polygon fill="#63b8ff" stroke="#63b8ff" points="130.34,-67.75 140.34,-64.25 130.34,-60.75 130.34,-67.75"/>
</a>
</g>
</g>
<!-- Node6 -->
<g id="Node000006" class="node">
<title>Node6</title>
<g id="a_Node000006"><a xlink:href="../../d5/d96/classmal__toolkit_1_1uuid_1_1_u_u_i_d.html#a9b3b6b3069d4f69d9ef65e7aa2a50b0e" target="_top" xlink:title=" ">
<polygon fill="white" stroke="#666666" points="106,-30.5 0,-30.5 0,0 106,0 106,-30.5"/>
<text text-anchor="start" x="8" y="-17" font-family="Times,serif" font-size="10.00">mal_toolkit::uuid::</text>
<text text-anchor="middle" x="53" y="-5.75" font-family="Times,serif" font-size="10.00">UUID::fromStrFactory</text>
</a>
</g>
</g>
<!-- Node4&#45;&gt;Node6 -->
<g id="edge5_Node000004_Node000006" class="edge">
<title>Node4&#45;&gt;Node6</title>
<g id="a_edge5_Node000004_Node000006"><a xlink:title=" ">
<path fill="none" stroke="#63b8ff" d="M132.43,-44.67C120.24,-40.1 107.41,-35.29 95.74,-30.91"/>
<polygon fill="#63b8ff" stroke="#63b8ff" points="130.93,-47.84 141.52,-48.08 133.38,-41.29 130.93,-47.84"/>
</a>
</g>
</g>
</g>
</svg>
