<?xml version="1.0" encoding="UTF-8" standalone="no"?>
<!DOCTYPE svg PUBLIC "-//W3C//DTD SVG 1.1//EN"
 "http://www.w3.org/Graphics/SVG/1.1/DTD/svg11.dtd">
<!-- Generated by graphviz version 8.1.0 (20230707.0739)
 -->
<!-- Title: mal_toolkit::endianness::betole128 Pages: 1 -->
<svg width="240pt" height="88pt"
 viewBox="0.00 0.00 239.50 87.50" xmlns="http://www.w3.org/2000/svg" xmlns:xlink="http://www.w3.org/1999/xlink">
<g id="graph0" class="graph" transform="scale(1 1) rotate(0) translate(4 83.5)">
<title>mal_toolkit::endianness::betole128</title>
<!-- Node1 -->
<g id="Node000001" class="node">
<title>Node1</title>
<g id="a_Node000001"><a xlink:title="Converts a 128&#45;bit value between big&#45;endian and little&#45;endian using SSE2 intrinsics.">
<polygon fill="#999999" stroke="#666666" points="231.5,-54.5 123.25,-54.5 123.25,-24 231.5,-24 231.5,-54.5"/>
<text text-anchor="start" x="131.25" y="-41" font-family="Times,serif" font-size="10.00">mal_toolkit::endianness</text>
<text text-anchor="middle" x="177.38" y="-29.75" font-family="Times,serif" font-size="10.00">::betole128</text>
</a>
</g>
</g>
<!-- Node2 -->
<g id="Node000002" class="node">
<title>Node2</title>
<g id="a_Node000002"><a xlink:href="../../d5/d96/classmal__toolkit_1_1uuid_1_1_u_u_i_d.html#aa794f777d190f4fb4c6954fafb7e35f2" target="_top" xlink:title="Constructs an UUID from a byte string.">
<polygon fill="white" stroke="#666666" points="87.25,-79.5 0,-79.5 0,-49 87.25,-49 87.25,-79.5"/>
<text text-anchor="start" x="8" y="-66" font-family="Times,serif" font-size="10.00">mal_toolkit::uuid::</text>
<text text-anchor="middle" x="43.62" y="-54.75" font-family="Times,serif" font-size="10.00">UUID::UUID</text>
</a>
</g>
</g>
<!-- Node1&#45;&gt;Node2 -->
<g id="edge1_Node000001_Node000002" class="edge">
<title>Node1&#45;&gt;Node2</title>
<g id="a_edge1_Node000001_Node000002"><a xlink:title=" ">
<path fill="none" stroke="#63b8ff" d="M112,-51.46C103.75,-53.03 95.47,-54.6 87.67,-56.08"/>
<polygon fill="#63b8ff" stroke="#63b8ff" points="112.62,-54.72 121.79,-49.42 111.31,-47.84 112.62,-54.72"/>
</a>
</g>
</g>
<!-- Node3 -->
<g id="Node000003" class="node">
<title>Node3</title>
<g id="a_Node000003"><a xlink:href="../../d5/d96/classmal__toolkit_1_1uuid_1_1_u_u_i_d.html#ab9a14e4b6bbb8837b0d25902743c7cbc" target="_top" xlink:title=" ">
<polygon fill="white" stroke="#666666" points="87.25,-30.5 0,-30.5 0,0 87.25,0 87.25,-30.5"/>
<text text-anchor="start" x="8" y="-17" font-family="Times,serif" font-size="10.00">mal_toolkit::uuid::</text>
<text text-anchor="middle" x="43.62" y="-5.75" font-family="Times,serif" font-size="10.00">UUID::bytes</text>
</a>
</g>
</g>
<!-- Node1&#45;&gt;Node3 -->
<g id="edge2_Node000001_Node000003" class="edge">
<title>Node1&#45;&gt;Node3</title>
<g id="a_edge2_Node000001_Node000003"><a xlink:title=" ">
<path fill="none" stroke="#63b8ff" d="M112,-27.52C103.75,-26.02 95.47,-24.51 87.67,-23.09"/>
<polygon fill="#63b8ff" stroke="#63b8ff" points="111.32,-31.14 121.79,-29.49 112.58,-24.25 111.32,-31.14"/>
</a>
</g>
</g>
</g>
</svg>
