<?xml version="1.0" encoding="UTF-8" standalone="no"?>
<!DOCTYPE svg PUBLIC "-//W3C//DTD SVG 1.1//EN"
 "http://www.w3.org/Graphics/SVG/1.1/DTD/svg11.dtd">
<!-- Generated by graphviz version 8.1.0 (20230707.0739)
 -->
<!-- Title: mal_packet_weaver::crypto::Hash Pages: 1 -->
<svg width="549pt" height="185pt"
 viewBox="0.00 0.00 548.55 185.00" xmlns="http://www.w3.org/2000/svg" xmlns:xlink="http://www.w3.org/1999/xlink">
<g id="graph0" class="graph" transform="scale(1 1) rotate(0) translate(4 181)">
<title>mal_packet_weaver::crypto::Hash</title>
<!-- Node1 -->
<g id="Node000001" class="node">
<title>Node1</title>
<g id="a_Node000001"><a xlink:title="Represents a cryptographic hash value along with its type.">
<polygon fill="#999999" stroke="#666666" points="540.55,-90.5 441.3,-90.5 441.3,-60 540.55,-60 540.55,-90.5"/>
<text text-anchor="start" x="449.3" y="-77" font-family="Times,serif" font-size="10.00">mal_packet_weaver::</text>
<text text-anchor="middle" x="490.92" y="-65.75" font-family="Times,serif" font-size="10.00">crypto::Hash</text>
</a>
</g>
</g>
<!-- Node2 -->
<g id="Node000002" class="node">
<title>Node2</title>
<g id="a_Node000002"><a xlink:title=" ">
<polygon fill="white" stroke="#666666" points="325.05,-165.5 225.05,-165.5 225.05,-135 325.05,-135 325.05,-165.5"/>
<text text-anchor="start" x="233.05" y="-152" font-family="Times,serif" font-size="10.00">static constexpr const</text>
<text text-anchor="middle" x="275.05" y="-140.75" font-family="Times,serif" font-size="10.00"> char *</text>
</a>
</g>
</g>
<!-- Node2&#45;&gt;Node1 -->
<g id="edge1_Node000001_Node000002" class="edge">
<title>Node2&#45;&gt;Node1</title>
<g id="a_edge1_Node000001_Node000002"><a xlink:title=" ">
<path fill="none" stroke="#9a32cd" stroke-dasharray="5,2" d="M336.09,-146.55C363.54,-143.24 395.96,-137 423.3,-125.25 442.43,-117.03 461.12,-102.23 473.81,-90.86"/>
<polygon fill="#9a32cd" stroke="#9a32cd" points="336,-143.15 326.44,-147.72 336.77,-150.11 336,-143.15"/>
</a>
</g>
<text text-anchor="middle" x="386.55" y="-167.5" font-family="Times,serif" font-size="10.00" fill="grey"> SHA256_NAME</text>
<text text-anchor="middle" x="386.55" y="-156.25" font-family="Times,serif" font-size="10.00" fill="grey">SHA384_NAME</text>
<text text-anchor="middle" x="386.55" y="-145" font-family="Times,serif" font-size="10.00" fill="grey">SHA512_NAME</text>
</g>
<!-- Node3 -->
<g id="Node000003" class="node">
<title>Node3</title>
<g id="a_Node000003"><a xlink:title=" ">
<polygon fill="white" stroke="#666666" points="331.8,-104.88 218.3,-104.88 218.3,-85.62 331.8,-85.62 331.8,-104.88"/>
<text text-anchor="middle" x="275.05" y="-91.38" font-family="Times,serif" font-size="10.00">static constexpr uint32_t</text>
</a>
</g>
</g>
<!-- Node3&#45;&gt;Node1 -->
<g id="edge2_Node000001_Node000003" class="edge">
<title>Node3&#45;&gt;Node1</title>
<g id="a_edge2_Node000001_Node000003"><a xlink:title=" ">
<path fill="none" stroke="#9a32cd" stroke-dasharray="5,2" d="M342.79,-89.01C374.58,-86.04 411.91,-82.55 441.01,-79.82"/>
<polygon fill="#9a32cd" stroke="#9a32cd" points="342.87,-85.58 333.24,-90 343.53,-92.55 342.87,-85.58"/>
</a>
</g>
<text text-anchor="middle" x="386.55" y="-111.5" font-family="Times,serif" font-size="10.00" fill="grey"> SHA256_SIZE</text>
<text text-anchor="middle" x="386.55" y="-100.25" font-family="Times,serif" font-size="10.00" fill="grey">SHA384_SIZE</text>
<text text-anchor="middle" x="386.55" y="-89" font-family="Times,serif" font-size="10.00" fill="grey">SHA512_SIZE</text>
</g>
<!-- Node4 -->
<g id="Node000004" class="node">
<title>Node4</title>
<g id="a_Node000004"><a xlink:title=" ">
<polygon fill="white" stroke="#666666" points="314.92,-67.88 235.17,-67.88 235.17,-48.62 314.92,-48.62 314.92,-67.88"/>
<text text-anchor="middle" x="275.05" y="-54.38" font-family="Times,serif" font-size="10.00">const HashType</text>
</a>
</g>
</g>
<!-- Node4&#45;&gt;Node1 -->
<g id="edge3_Node000001_Node000004" class="edge">
<title>Node4&#45;&gt;Node1</title>
<g id="a_edge3_Node000001_Node000004"><a xlink:title=" ">
<path fill="none" stroke="#9a32cd" stroke-dasharray="5,2" d="M326.19,-56.21C354.75,-55.7 391.14,-56.17 423.3,-60 429.07,-60.69 435.08,-61.67 441.01,-62.81"/>
<polygon fill="#9a32cd" stroke="#9a32cd" points="326.18,-52.73 316.26,-56.46 326.34,-59.73 326.18,-52.73"/>
</a>
</g>
<text text-anchor="middle" x="386.55" y="-61" font-family="Times,serif" font-size="10.00" fill="grey"> hash_type</text>
</g>
<!-- Node5 -->
<g id="Node000005" class="node">
<title>Node5</title>
<g id="a_Node000005"><a xlink:href="../../d4/d9d/structmal__packet__weaver_1_1_byte_array.html" target="_top" xlink:title="A dynamically resizable array of bytes.">
<polygon fill="white" stroke="#666666" points="324.67,-30.5 225.42,-30.5 225.42,0 324.67,0 324.67,-30.5"/>
<text text-anchor="start" x="233.42" y="-17" font-family="Times,serif" font-size="10.00">mal_packet_weaver::</text>
<text text-anchor="middle" x="275.05" y="-5.75" font-family="Times,serif" font-size="10.00">ByteArray</text>
</a>
</g>
</g>
<!-- Node5&#45;&gt;Node1 -->
<g id="edge4_Node000001_Node000005" class="edge">
<title>Node5&#45;&gt;Node1</title>
<g id="a_edge4_Node000001_Node000005"><a xlink:title=" ">
<path fill="none" stroke="#9a32cd" stroke-dasharray="5,2" d="M336,-20.91C363.15,-24.59 395.35,-30.53 423.3,-40 437.68,-44.87 452.7,-52.56 464.84,-59.52"/>
<polygon fill="#9a32cd" stroke="#9a32cd" points="336.45,-17.32 326.09,-19.52 335.56,-24.26 336.45,-17.32"/>
</a>
</g>
<text text-anchor="middle" x="386.55" y="-42" font-family="Times,serif" font-size="10.00" fill="grey"> hash_value</text>
</g>
<!-- Node6 -->
<g id="Node000006" class="node">
<title>Node6</title>
<g id="a_Node000006"><a xlink:title=" ">
<polygon fill="white" stroke="#666666" points="181.3,-24.88 101.55,-24.88 101.55,-5.62 181.3,-5.62 181.3,-24.88"/>
<text text-anchor="middle" x="141.42" y="-11.38" font-family="Times,serif" font-size="10.00">std::vector&lt; T &gt;</text>
</a>
</g>
</g>
<!-- Node6&#45;&gt;Node5 -->
<g id="edge5_Node000005_Node000006" class="edge">
<title>Node6&#45;&gt;Node5</title>
<g id="a_edge5_Node000005_Node000006"><a xlink:title=" ">
<path fill="none" stroke="#63b8ff" d="M192.43,-15.25C203.11,-15.25 214.38,-15.25 225.02,-15.25"/>
<polygon fill="#63b8ff" stroke="#63b8ff" points="192.56,-11.75 182.56,-15.25 192.56,-18.75 192.56,-11.75"/>
</a>
</g>
</g>
<!-- Node7 -->
<g id="Node000007" class="node">
<title>Node7</title>
<g id="a_Node000007"><a xlink:title=" ">
<polygon fill="white" stroke="#666666" points="28.8,-24.88 0,-24.88 0,-5.62 28.8,-5.62 28.8,-24.88"/>
<text text-anchor="middle" x="14.4" y="-11.38" font-family="Times,serif" font-size="10.00">T</text>
</a>
</g>
</g>
<!-- Node7&#45;&gt;Node6 -->
<g id="edge6_Node000006_Node000007" class="edge">
<title>Node7&#45;&gt;Node6</title>
<g id="a_edge6_Node000006_Node000007"><a xlink:title=" ">
<path fill="none" stroke="#9a32cd" stroke-dasharray="5,2" d="M40.19,-15.25C57.59,-15.25 81.23,-15.25 101.17,-15.25"/>
<polygon fill="#9a32cd" stroke="#9a32cd" points="40.26,-11.75 30.26,-15.25 40.26,-18.75 40.26,-11.75"/>
</a>
</g>
<text text-anchor="middle" x="65.17" y="-17" font-family="Times,serif" font-size="10.00" fill="grey"> elements</text>
</g>
</g>
</svg>
