<?xml version="1.0" encoding="UTF-8" standalone="no"?>
<!DOCTYPE svg PUBLIC "-//W3C//DTD SVG 1.1//EN"
 "http://www.w3.org/Graphics/SVG/1.1/DTD/svg11.dtd">
<!-- Generated by graphviz version 8.1.0 (20230707.0739)
 -->
<!-- Title: mal_packet_weaver::DerivedPacket&lt; PacketType &gt; Pages: 1 -->
<!--zoomable 513 -->

<svg id="main" version="1.1" xmlns="http://www.w3.org/2000/svg" xmlns:xlink="http://www.w3.org/1999/xlink" xml:space="preserve" onload="init(evt)">
<style type="text/css"><![CDATA[
.node, .edge {opacity: 0.7;}
.node.selected, .edge.selected {opacity: 1;}
.edge:hover path { stroke: red; }
.edge:hover polygon { stroke: red; fill: red; }
]]></style>

<defs>
  <circle id="rim" cx="0" cy="0" r="7"/>
  <circle id="rim2" cx="0" cy="0" r="3.5"/>
  <g id="zoomPlus">
    <use xlink:href="#rim" fill="#404040"><set attributeName="fill" to="#808080" begin="zoomplus.mouseover" end="zoomplus.mouseout"/></use>
    <path d="M-4,0h8M0,-4v8" fill="none" stroke="white" stroke-width="1.5" pointer-events="none"/>
  </g>
  <g id="zoomMin">
    <use xlink:href="#rim" fill="#404040"><set attributeName="fill" to="#808080" begin="zoomminus.mouseover" end="zoomminus.mouseout"/></use>
    <path d="M-4,0h8" fill="none" stroke="white" stroke-width="1.5" pointer-events="none"/>
  </g>
  <g id="arrowUp" transform="translate(30 24)">
    <use xlink:href="#rim"/>
    <path pointer-events="none" fill="none" stroke="white" stroke-width="1.5" d="M0,-3.0v7 M-2.5,-0.5L0,-3.0L2.5,-0.5"/>
  </g>
  <g id="arrowRight" transform="rotate(90) translate(36 -43)">
    <use xlink:href="#rim"/>
    <path pointer-events="none" fill="none" stroke="white" stroke-width="1.5" d="M0,-3.0v7 M-2.5,-0.5L0,-3.0L2.5,-0.5"/>
  </g>
  <g id="arrowDown" transform="rotate(180) translate(-30 -48)">
    <use xlink:href="#rim"/>
    <path pointer-events="none" fill="none" stroke="white" stroke-width="1.5" d="M0,-3.0v7 M-2.5,-0.5L0,-3.0L2.5,-0.5"/>
  </g>
  <g id="arrowLeft" transform="rotate(270) translate(-36 17)">
    <use xlink:href="#rim"/>
    <path pointer-events="none" fill="none" stroke="white" stroke-width="1.5" d="M0,-3.0v7 M-2.5,-0.5L0,-3.0L2.5,-0.5"/>
  </g>
  <g id="resetDef">
    <use xlink:href="#rim2" fill="#404040"><set attributeName="fill" to="#808080" begin="reset.mouseover" end="reset.mouseout"/></use>
  </g>
</defs>
<script type="application/ecmascript">
var viewWidth = 1281;
var viewHeight = 513;
var sectionId = 'dynsection-1';
</script>
<script type="application/ecmascript" xlink:href="../../svg.min.js"/>
<svg id="graph" class="graph">
<g id="viewport">
<title>mal_packet_weaver::DerivedPacket&lt; PacketType &gt;</title>
<!-- Node1 -->
<g id="Node000001" class="node">
<title>Node1</title>
<g id="a_Node000001"><a xlink:title="A templated class representing a derived packet from the base Packet class.">
<polygon fill="#999999" stroke="#666666" points="1273.25,-428.59 1135.75,-428.59 1135.75,-398.09 1273.25,-398.09 1273.25,-428.59"/>
<text text-anchor="start" x="1143.75" y="-415.09" font-family="Times,serif" font-size="10.00">mal_packet_weaver::</text>
<text text-anchor="middle" x="1204.5" y="-403.84" font-family="Times,serif" font-size="10.00">DerivedPacket&lt; PacketType &gt;</text>
</a>
</g>
</g>
<!-- Node2 -->
<g id="Node000002" class="node">
<title>Node2</title>
<g id="a_Node000002"><a xlink:href="../../d2/d9d/classmal__packet__weaver_1_1_packet.html" target="_top" xlink:title="Base class for all packets.">
<polygon fill="white" stroke="#666666" points="1098.75,-428.59 999.5,-428.59 999.5,-398.09 1098.75,-398.09 1098.75,-428.59"/>
<text text-anchor="start" x="1007.5" y="-415.09" font-family="Times,serif" font-size="10.00">mal_packet_weaver::</text>
<text text-anchor="middle" x="1049.12" y="-403.84" font-family="Times,serif" font-size="10.00">Packet</text>
</a>
</g>
</g>
<!-- Node2&#45;&gt;Node1 -->
<g id="edge1_Node000001_Node000002" class="edge">
<title>Node2&#45;&gt;Node1</title>
<g id="a_edge1_Node000001_Node000002"><a xlink:title=" ">
<path fill="none" stroke="#63b8ff" d="M1109.89,-413.34C1118.27,-413.34 1126.93,-413.34 1135.44,-413.34"/>
<polygon fill="#63b8ff" stroke="#63b8ff" points="1110.08,-409.84 1100.08,-413.34 1110.08,-416.84 1110.08,-409.84"/>
</a>
</g>
</g>
<!-- Node3 -->
<g id="Node000003" class="node">
<title>Node3</title>
<g id="a_Node000003"><a xlink:href="../../d1/dd3/classmal__toolkit_1_1non__copyable.html" target="_top" xlink:title="A class that can&#39;t be copied.">
<polygon fill="white" stroke="#666666" points="924.5,-504.96 805,-504.96 805,-485.71 924.5,-485.71 924.5,-504.96"/>
<text text-anchor="middle" x="864.75" y="-491.46" font-family="Times,serif" font-size="10.00">mal_toolkit::non_copyable</text>
</a>
</g>
</g>
<!-- Node3&#45;&gt;Node2 -->
<g id="edge2_Node000002_Node000003" class="edge">
<title>Node3&#45;&gt;Node2</title>
<g id="a_edge2_Node000002_Node000003"><a xlink:title=" ">
<path fill="none" stroke="#63b8ff" d="M935.51,-486.87C951.15,-483.35 967.31,-478.38 981.5,-471.34 1002.52,-460.91 1022.21,-442.23 1034.66,-428.89"/>
<polygon fill="#63b8ff" stroke="#63b8ff" points="934.87,-483.63 925.78,-489.08 936.29,-490.49 934.87,-483.63"/>
</a>
</g>
</g>
<!-- Node4 -->
<g id="Node000004" class="node">
<title>Node4</title>
<g id="a_Node000004"><a xlink:href="../../d1/d3a/structmal__toolkit_1_1_measurer.html" target="_top" xlink:title=" ">
<polygon fill="white" stroke="#666666" points="916.62,-314.21 812.88,-314.21 812.88,-272.46 916.62,-272.46 916.62,-314.21"/>
<text text-anchor="start" x="820.88" y="-300.71" font-family="Times,serif" font-size="10.00">mal_toolkit::Measurer</text>
<text text-anchor="start" x="820.88" y="-289.46" font-family="Times,serif" font-size="10.00">&lt; std::chrono::steady</text>
<text text-anchor="middle" x="864.75" y="-278.21" font-family="Times,serif" font-size="10.00">_clock &gt;</text>
</a>
</g>
</g>
<!-- Node4&#45;&gt;Node2 -->
<g id="edge3_Node000002_Node000004" class="edge">
<title>Node4&#45;&gt;Node2</title>
<g id="a_edge3_Node000002_Node000004"><a xlink:title=" ">
<path fill="none" stroke="#9a32cd" stroke-dasharray="5,2" d="M906.79,-320.35C943.03,-344.19 994.6,-378.12 1024.39,-397.72"/>
<polygon fill="#9a32cd" stroke="#9a32cd" points="909.21,-317.09 898.94,-314.52 905.37,-322.94 909.21,-317.09"/>
</a>
</g>
<text text-anchor="middle" x="962" y="-370.09" font-family="Times,serif" font-size="10.00" fill="grey"> measurer</text>
</g>
<!-- Node5 -->
<g id="Node000005" class="node">
<title>Node5</title>
<g id="a_Node000005"><a xlink:href="../../d4/dc3/classfloat.html" target="_top" xlink:title=" ">
<polygon fill="white" stroke="#666666" points="34,-221.96 0,-221.96 0,-202.71 34,-202.71 34,-221.96"/>
<text text-anchor="middle" x="17" y="-208.46" font-family="Times,serif" font-size="10.00">float</text>
</a>
</g>
</g>
<!-- Node5&#45;&gt;Node2 -->
<g id="edge26_Node000002_Node000005" class="edge">
<title>Node5&#45;&gt;Node2</title>
<g id="a_edge26_Node000002_Node000005"><a xlink:title=" ">
<path fill="none" stroke="#9a32cd" stroke-dasharray="5,2" d="M20.34,-232.81C28.33,-291.69 60.08,-457.34 164.38,-457.34 164.38,-457.34 164.38,-457.34 865.75,-457.34 915.58,-457.34 970.99,-441.62 1007.51,-428.97"/>
<polygon fill="#9a32cd" stroke="#9a32cd" points="23.74,-232.73 19.02,-223.25 16.79,-233.6 23.74,-232.73"/>
</a>
</g>
<text text-anchor="middle" x="522.38" y="-470.34" font-family="Times,serif" font-size="10.00" fill="grey"> time_to_live</text>
<text text-anchor="middle" x="522.38" y="-459.09" font-family="Times,serif" font-size="10.00" fill="grey">timestamp_</text>
</g>
<!-- Node5&#45;&gt;Node4 -->
<g id="edge4_Node000004_Node000005" class="edge">
<title>Node5&#45;&gt;Node4</title>
<g id="a_edge4_Node000004_Node000005"><a xlink:title=" ">
<path fill="none" stroke="#9a32cd" stroke-dasharray="5,2" d="M32.43,-230.46C49.4,-250.19 79.6,-280.64 113.5,-293.34 236.34,-339.36 572.57,-300.45 703.75,-301.34 740.75,-301.59 750.05,-303.26 787,-301.34 795.29,-300.91 804.07,-300.22 812.62,-299.41"/>
<polygon fill="#9a32cd" stroke="#9a32cd" points="34.68,-228.7 25.59,-223.25 29.3,-233.17 34.68,-228.7"/>
</a>
</g>
<text text-anchor="middle" x="407.12" y="-318.09" font-family="Times,serif" font-size="10.00" fill="grey"> time_to_flush</text>
</g>
<!-- Node11 -->
<g id="Node000011" class="node">
<title>Node11</title>
<g id="a_Node000011"><a xlink:href="../../db/ddb/structmal__toolkit_1_1_measurer_1_1_entry.html" target="_top" xlink:title=" ">
<polygon fill="white" stroke="#666666" points="217.25,-78.59 113.5,-78.59 113.5,-48.09 217.25,-48.09 217.25,-78.59"/>
<text text-anchor="start" x="121.5" y="-65.09" font-family="Times,serif" font-size="10.00">mal_toolkit::Measurer</text>
<text text-anchor="middle" x="165.38" y="-53.84" font-family="Times,serif" font-size="10.00">&lt; clock &gt;::Entry</text>
</a>
</g>
</g>
<!-- Node5&#45;&gt;Node11 -->
<g id="edge11_Node000011_Node000005" class="edge">
<title>Node5&#45;&gt;Node11</title>
<g id="a_edge11_Node000011_Node000005"><a xlink:title=" ">
<path fill="none" stroke="#9a32cd" stroke-dasharray="5,2" d="M19.95,-191.66C23.76,-156.01 33.52,-85.32 52,-69.84 68.63,-55.91 91.97,-52.84 113.07,-53.83"/>
<polygon fill="#9a32cd" stroke="#9a32cd" points="16.4,-190.97 18.88,-201.27 23.36,-191.68 16.4,-190.97"/>
</a>
</g>
<text text-anchor="middle" x="73.75" y="-83.34" font-family="Times,serif" font-size="10.00" fill="grey"> elapsed</text>
<text text-anchor="middle" x="73.75" y="-72.09" font-family="Times,serif" font-size="10.00" fill="grey">entry_time</text>
</g>
<!-- Node18 -->
<g id="Node000018" class="node">
<title>Node18</title>
<g id="a_Node000018"><a xlink:href="../../d1/d3a/structmal__toolkit_1_1_measurer.html" target="_top" xlink:title="A class for measuring and logging the execution time of functions.">
<polygon fill="white" stroke="#666666" points="685.75,-154.59 582,-154.59 582,-124.09 685.75,-124.09 685.75,-154.59"/>
<text text-anchor="start" x="590" y="-141.09" font-family="Times,serif" font-size="10.00">mal_toolkit::Measurer</text>
<text text-anchor="middle" x="633.88" y="-129.84" font-family="Times,serif" font-size="10.00">&lt; clock &gt;</text>
</a>
</g>
</g>
<!-- Node5&#45;&gt;Node18 -->
<g id="edge19_Node000018_Node000005" class="edge">
<title>Node5&#45;&gt;Node18</title>
<g id="a_edge19_Node000018_Node000005"><a xlink:title=" ">
<path fill="none" stroke="#9a32cd" stroke-dasharray="5,2" d="M44.45,-202.96C100.29,-183.72 234.65,-140.33 351.5,-125.34 400.54,-119.05 413.35,-123.31 462.75,-125.34 502.72,-126.98 547.85,-130.78 581.57,-134.01"/>
<polygon fill="#9a32cd" stroke="#9a32cd" points="43.66,-199.88 35.36,-206.47 45.96,-206.49 43.66,-199.88"/>
</a>
</g>
<text text-anchor="middle" x="284.38" y="-149.09" font-family="Times,serif" font-size="10.00" fill="grey"> time_to_flush</text>
</g>
<!-- Node6 -->
<g id="Node000006" class="node">
<title>Node6</title>
<g id="a_Node000006"><a xlink:href="../../dd/de2/classsize__t.html" target="_top" xlink:title=" ">
<polygon fill="white" stroke="#666666" points="427.12,-222.96 387.12,-222.96 387.12,-203.71 427.12,-203.71 427.12,-222.96"/>
<text text-anchor="middle" x="407.12" y="-209.46" font-family="Times,serif" font-size="10.00">size_t</text>
</a>
</g>
</g>
<!-- Node6&#45;&gt;Node4 -->
<g id="edge5_Node000004_Node000006" class="edge">
<title>Node6&#45;&gt;Node4</title>
<g id="a_edge5_Node000004_Node000006"><a xlink:title=" ">
<path fill="none" stroke="#9a32cd" stroke-dasharray="5,2" d="M438.3,-216.8C489.42,-222.86 596.25,-236.32 685.75,-252.84 728.76,-260.78 777.12,-271.93 812.57,-280.52"/>
<polygon fill="#9a32cd" stroke="#9a32cd" points="438.74,-213.22 428.4,-215.53 437.92,-220.17 438.74,-213.22"/>
</a>
</g>
<text text-anchor="middle" x="633.88" y="-266.34" font-family="Times,serif" font-size="10.00" fill="grey"> index</text>
<text text-anchor="middle" x="633.88" y="-255.09" font-family="Times,serif" font-size="10.00" fill="grey">maximum_entries</text>
</g>
<!-- Node6&#45;&gt;Node18 -->
<g id="edge20_Node000018_Node000006" class="edge">
<title>Node6&#45;&gt;Node18</title>
<g id="a_edge20_Node000018_Node000006"><a xlink:title=" ">
<path fill="none" stroke="#9a32cd" stroke-dasharray="5,2" d="M438.06,-206.69C476.54,-198.01 541.11,-182.89 564,-174.34 578.2,-169.03 593.28,-161.59 605.7,-154.93"/>
<polygon fill="#9a32cd" stroke="#9a32cd" points="437.49,-203.46 428.5,-209.06 439.02,-210.29 437.49,-203.46"/>
</a>
</g>
<text text-anchor="middle" x="522.38" y="-210.34" font-family="Times,serif" font-size="10.00" fill="grey"> index</text>
<text text-anchor="middle" x="522.38" y="-199.09" font-family="Times,serif" font-size="10.00" fill="grey">maximum_entries</text>
</g>
<!-- Node7 -->
<g id="Node000007" class="node">
<title>Node7</title>
<g id="a_Node000007"><a xlink:href="../../d9/db9/classbool.html" target="_top" xlink:title=" ">
<polygon fill="white" stroke="#666666" points="423.75,-74.96 390.5,-74.96 390.5,-55.71 423.75,-55.71 423.75,-74.96"/>
<text text-anchor="middle" x="407.12" y="-61.46" font-family="Times,serif" font-size="10.00">bool</text>
</a>
</g>
</g>
<!-- Node7&#45;&gt;Node4 -->
<g id="edge6_Node000004_Node000007" class="edge">
<title>Node7&#45;&gt;Node4</title>
<g id="a_edge6_Node000004_Node000007"><a xlink:title=" ">
<path fill="none" stroke="#9a32cd" stroke-dasharray="5,2" d="M434.63,-61.23C505.84,-51.88 701.68,-37.73 787,-148.34 818.6,-189.3 774.65,-221.44 805,-263.34 807.35,-266.58 810.16,-269.5 813.25,-272.12"/>
<polygon fill="#9a32cd" stroke="#9a32cd" points="434.36,-57.87 424.94,-62.72 435.32,-64.8 434.36,-57.87"/>
</a>
</g>
<text text-anchor="middle" x="633.88" y="-79.09" font-family="Times,serif" font-size="10.00" fill="grey"> log_automatically</text>
</g>
<!-- Node7&#45;&gt;Node18 -->
<g id="edge21_Node000018_Node000007" class="edge">
<title>Node7&#45;&gt;Node18</title>
<g id="a_edge21_Node000018_Node000007"><a xlink:title=" ">
<path fill="none" stroke="#9a32cd" stroke-dasharray="5,2" d="M434.61,-63.36C466.59,-62 521.41,-63.01 564,-81.09 586.34,-90.57 606.88,-109.92 619.61,-123.72"/>
<polygon fill="#9a32cd" stroke="#9a32cd" points="434.72,-59.91 424.92,-63.94 435.1,-66.9 434.72,-59.91"/>
</a>
</g>
<text text-anchor="middle" x="522.38" y="-83.09" font-family="Times,serif" font-size="10.00" fill="grey"> log_automatically</text>
</g>
<!-- Node8 -->
<g id="Node000008" class="node">
<title>Node8</title>
<g id="a_Node000008"><a xlink:title=" ">
<polygon fill="white" stroke="#666666" points="435,-278.96 379.25,-278.96 379.25,-259.71 435,-259.71 435,-278.96"/>
<text text-anchor="middle" x="407.12" y="-265.46" font-family="Times,serif" font-size="10.00">std::string</text>
</a>
</g>
</g>
<!-- Node8&#45;&gt;Node4 -->
<g id="edge7_Node000004_Node000008" class="edge">
<title>Node8&#45;&gt;Node4</title>
<g id="a_edge7_Node000004_Node000008"><a xlink:title=" ">
<path fill="none" stroke="#9a32cd" stroke-dasharray="5,2" d="M446.02,-271.33C527.63,-275.63 720.08,-285.77 812.48,-290.64"/>
<polygon fill="#9a32cd" stroke="#9a32cd" points="446.43,-267.8 436.26,-270.77 446.06,-274.79 446.43,-267.8"/>
</a>
</g>
<text text-anchor="middle" x="633.88" y="-286.09" font-family="Times,serif" font-size="10.00" fill="grey"> output</text>
</g>
<!-- Node8&#45;&gt;Node18 -->
<g id="edge22_Node000018_Node000008" class="edge">
<title>Node8&#45;&gt;Node18</title>
<g id="a_edge22_Node000018_Node000008"><a xlink:title=" ">
<path fill="none" stroke="#9a32cd" stroke-dasharray="5,2" d="M445.93,-264.6C479.25,-258.99 527.98,-247.22 564,-223.34 590.88,-205.52 612.58,-174.02 624.03,-155.08"/>
<polygon fill="#9a32cd" stroke="#9a32cd" points="445.59,-261.26 436.26,-266.27 446.68,-268.18 445.59,-261.26"/>
</a>
</g>
<text text-anchor="middle" x="522.38" y="-259.09" font-family="Times,serif" font-size="10.00" fill="grey"> output</text>
</g>
<!-- Node9 -->
<g id="Node000009" class="node">
<title>Node9</title>
<g id="a_Node000009"><a xlink:title=" ">
<polygon fill="white" stroke="#666666" points="209,-284.59 121.75,-284.59 121.75,-254.09 209,-254.09 209,-284.59"/>
<text text-anchor="start" x="129.75" y="-271.09" font-family="Times,serif" font-size="10.00">std::basic_string&lt;</text>
<text text-anchor="middle" x="165.38" y="-259.84" font-family="Times,serif" font-size="10.00"> Char &gt;</text>
</a>
</g>
</g>
<!-- Node9&#45;&gt;Node8 -->
<g id="edge8_Node000008_Node000009" class="edge">
<title>Node9&#45;&gt;Node8</title>
<g id="a_edge8_Node000008_Node000009"><a xlink:title=" ">
<path fill="none" stroke="#63b8ff" d="M220.03,-269.34C269.34,-269.34 340.44,-269.34 378.91,-269.34"/>
<polygon fill="#63b8ff" stroke="#63b8ff" points="220.24,-265.84 210.24,-269.34 220.24,-272.84 220.24,-265.84"/>
</a>
</g>
</g>
<!-- Node10 -->
<g id="Node000010" class="node">
<title>Node10</title>
<g id="a_Node000010"><a xlink:title=" ">
<polygon fill="white" stroke="#666666" points="462.38,-34.59 351.88,-34.59 351.88,-4.09 462.38,-4.09 462.38,-34.59"/>
<text text-anchor="start" x="359.88" y="-21.09" font-family="Times,serif" font-size="10.00">std::vector&lt; mal_toolkit</text>
<text text-anchor="middle" x="407.12" y="-9.84" font-family="Times,serif" font-size="10.00">::Measurer::Entry &gt;</text>
</a>
</g>
</g>
<!-- Node10&#45;&gt;Node4 -->
<g id="edge9_Node000004_Node000010" class="edge">
<title>Node10&#45;&gt;Node4</title>
<g id="a_edge9_Node000004_Node000010"><a xlink:title=" ">
<path fill="none" stroke="#9a32cd" stroke-dasharray="5,2" d="M473.26,-7C561.4,5.42 715.77,11.13 787,-83.34 835.4,-147.53 759.66,-196.94 805,-263.34 807.2,-266.55 809.84,-269.44 812.79,-272.04"/>
<polygon fill="#9a32cd" stroke="#9a32cd" points="472.97,-3.65 463.59,-8.58 474,-10.58 472.97,-3.65"/>
</a>
</g>
<text text-anchor="middle" x="633.88" y="-17.09" font-family="Times,serif" font-size="10.00" fill="grey"> entries</text>
</g>
<!-- Node10&#45;&gt;Node18 -->
<g id="edge23_Node000018_Node000010" class="edge">
<title>Node10&#45;&gt;Node18</title>
<g id="a_edge23_Node000018_Node000010"><a xlink:title=" ">
<path fill="none" stroke="#9a32cd" stroke-dasharray="5,2" d="M473.45,-21.32C502.93,-24.75 537.08,-32.44 564,-49.09 593.51,-67.33 614.99,-103.15 625.54,-123.75"/>
<polygon fill="#9a32cd" stroke="#9a32cd" points="474.13,-17.77 463.83,-20.24 473.43,-24.73 474.13,-17.77"/>
</a>
</g>
<text text-anchor="middle" x="522.38" y="-51.09" font-family="Times,serif" font-size="10.00" fill="grey"> entries</text>
</g>
<!-- Node11&#45;&gt;Node10 -->
<g id="edge10_Node000010_Node000011" class="edge">
<title>Node11&#45;&gt;Node10</title>
<g id="a_edge10_Node000010_Node000011"><a xlink:title=" ">
<path fill="none" stroke="#9a32cd" stroke-dasharray="5,2" d="M228.45,-57.61C260.1,-54.07 299.08,-48.76 333.5,-41.34 341.61,-39.59 350.13,-37.37 358.36,-35.01"/>
<polygon fill="#9a32cd" stroke="#9a32cd" points="228.14,-54.23 218.58,-58.79 228.9,-61.19 228.14,-54.23"/>
</a>
</g>
<text text-anchor="middle" x="284.38" y="-59.09" font-family="Times,serif" font-size="10.00" fill="grey"> elements</text>
</g>
<!-- Node12 -->
<g id="Node000012" class="node">
<title>Node12</title>
<g id="a_Node000012"><a xlink:title=" ">
<polygon fill="white" stroke="#666666" points="205.25,-26.96 125.5,-26.96 125.5,-7.71 205.25,-7.71 205.25,-26.96"/>
<text text-anchor="middle" x="165.38" y="-13.46" font-family="Times,serif" font-size="10.00">std::vector&lt; T &gt;</text>
</a>
</g>
</g>
<!-- Node12&#45;&gt;Node10 -->
<g id="edge12_Node000010_Node000012" class="edge">
<title>Node12&#45;&gt;Node10</title>
<g id="a_edge12_Node000010_Node000012"><a xlink:title=" ">
<path fill="none" stroke="orange" stroke-dasharray="5,2" d="M216.65,-17.76C256.13,-18.09 311.01,-18.54 351.55,-18.88"/>
<polygon fill="orange" stroke="orange" points="216.73,-14.25 206.7,-17.67 216.67,-21.25 216.73,-14.25"/>
</a>
</g>
<text text-anchor="start" x="235.25" y="-32.34" font-family="Times,serif" font-size="10.00" fill="grey"> &lt; mal_toolkit::Measurer</text>
<text text-anchor="middle" x="284.38" y="-21.09" font-family="Times,serif" font-size="10.00" fill="grey">::Entry &gt;</text>
</g>
<!-- Node13 -->
<g id="Node000013" class="node">
<title>Node13</title>
<g id="a_Node000013"><a xlink:title=" ">
<polygon fill="white" stroke="#666666" points="31.4,-26.96 2.6,-26.96 2.6,-7.71 31.4,-7.71 31.4,-26.96"/>
<text text-anchor="middle" x="17" y="-13.46" font-family="Times,serif" font-size="10.00">T</text>
</a>
</g>
</g>
<!-- Node13&#45;&gt;Node12 -->
<g id="edge13_Node000012_Node000013" class="edge">
<title>Node13&#45;&gt;Node12</title>
<g id="a_edge13_Node000012_Node000013"><a xlink:title=" ">
<path fill="none" stroke="#9a32cd" stroke-dasharray="5,2" d="M42.72,-17.34C65.23,-17.34 98.85,-17.34 125.05,-17.34"/>
<polygon fill="#9a32cd" stroke="#9a32cd" points="42.77,-13.84 32.77,-17.34 42.77,-20.84 42.77,-13.84"/>
</a>
</g>
<text text-anchor="middle" x="73.75" y="-19.09" font-family="Times,serif" font-size="10.00" fill="grey"> elements</text>
</g>
<!-- Node14 -->
<g id="Node000014" class="node">
<title>Node14</title>
<g id="a_Node000014"><a xlink:href="../../db/d8f/classmal__toolkit_1_1_timer.html" target="_top" xlink:title=" ">
<polygon fill="white" stroke="#666666" points="682.38,-402.21 585.38,-402.21 585.38,-360.46 682.38,-360.46 682.38,-402.21"/>
<text text-anchor="start" x="593.38" y="-388.71" font-family="Times,serif" font-size="10.00">mal_toolkit::Timer</text>
<text text-anchor="start" x="593.38" y="-377.46" font-family="Times,serif" font-size="10.00">&lt; std::chrono::steady</text>
<text text-anchor="middle" x="633.88" y="-366.21" font-family="Times,serif" font-size="10.00">_clock &gt;</text>
</a>
</g>
</g>
<!-- Node14&#45;&gt;Node4 -->
<g id="edge14_Node000004_Node000014" class="edge">
<title>Node14&#45;&gt;Node4</title>
<g id="a_edge14_Node000004_Node000014"><a xlink:title=" ">
<path fill="none" stroke="#9a32cd" stroke-dasharray="5,2" d="M693.4,-373.21C722.39,-367.86 757.43,-359.38 787,-346.34 805.37,-338.24 823.95,-325.55 838.23,-314.62"/>
<polygon fill="#9a32cd" stroke="#9a32cd" points="692.85,-369.93 683.61,-375.11 694.07,-376.82 692.85,-369.93"/>
</a>
</g>
<text text-anchor="middle" x="745.38" y="-395.59" font-family="Times,serif" font-size="10.00" fill="grey"> entry_time</text>
<text text-anchor="middle" x="745.38" y="-384.34" font-family="Times,serif" font-size="10.00" fill="grey">flush</text>
<text text-anchor="middle" x="745.38" y="-373.09" font-family="Times,serif" font-size="10.00" fill="grey">measure</text>
</g>
<!-- Node15 -->
<g id="Node000015" class="node">
<title>Node15</title>
<g id="a_Node000015"><a xlink:href="../../d2/d24/classstd_1_1chrono_1_1time__point_3_01std_1_1chrono_1_1steady__clock_01_4.html" target="_top" xlink:title=" ">
<polygon fill="white" stroke="#666666" points="462.75,-429.59 351.5,-429.59 351.5,-399.09 462.75,-399.09 462.75,-429.59"/>
<text text-anchor="start" x="359.5" y="-416.09" font-family="Times,serif" font-size="10.00">time_point&lt; std::chrono</text>
<text text-anchor="middle" x="407.12" y="-404.84" font-family="Times,serif" font-size="10.00">::steady_clock &gt;</text>
</a>
</g>
</g>
<!-- Node15&#45;&gt;Node14 -->
<g id="edge15_Node000014_Node000015" class="edge">
<title>Node15&#45;&gt;Node14</title>
<g id="a_edge15_Node000014_Node000015"><a xlink:title=" ">
<path fill="none" stroke="#9a32cd" stroke-dasharray="5,2" d="M473.88,-404.68C509.44,-399.46 552.58,-393.13 584.94,-388.38"/>
<polygon fill="#9a32cd" stroke="#9a32cd" points="473.49,-401.35 464.11,-406.27 474.51,-408.28 473.49,-401.35"/>
</a>
</g>
<text text-anchor="middle" x="522.38" y="-417.34" font-family="Times,serif" font-size="10.00" fill="grey"> current_</text>
<text text-anchor="middle" x="522.38" y="-406.09" font-family="Times,serif" font-size="10.00" fill="grey">start_</text>
</g>
<!-- Node16 -->
<g id="Node000016" class="node">
<title>Node16</title>
<g id="a_Node000016"><a xlink:href="../../db/d8f/classmal__toolkit_1_1_timer.html" target="_top" xlink:title="A simple timer class for measuring elapsed time using various clock types.">
<polygon fill="white" stroke="#666666" points="452.25,-380.59 362,-380.59 362,-350.09 452.25,-350.09 452.25,-380.59"/>
<text text-anchor="start" x="370" y="-367.09" font-family="Times,serif" font-size="10.00">mal_toolkit::Timer</text>
<text text-anchor="middle" x="407.12" y="-355.84" font-family="Times,serif" font-size="10.00">&lt; clock &gt;</text>
</a>
</g>
</g>
<!-- Node16&#45;&gt;Node14 -->
<g id="edge16_Node000014_Node000016" class="edge">
<title>Node16&#45;&gt;Node14</title>
<g id="a_edge16_Node000014_Node000016"><a xlink:title=" ">
<path fill="none" stroke="orange" stroke-dasharray="5,2" d="M463.25,-363.22C493.15,-362.74 530.69,-363.21 564,-366.84 570.8,-367.58 577.92,-368.69 584.9,-369.97"/>
<polygon fill="orange" stroke="orange" points="463.53,-359.73 453.61,-363.44 463.68,-366.73 463.53,-359.73"/>
</a>
</g>
<text text-anchor="start" x="480.75" y="-380.34" font-family="Times,serif" font-size="10.00" fill="grey"> &lt; std::chrono::steady</text>
<text text-anchor="middle" x="522.38" y="-369.09" font-family="Times,serif" font-size="10.00" fill="grey">_clock &gt;</text>
</g>
<!-- Node17 -->
<g id="Node000017" class="node">
<title>Node17</title>
<g id="a_Node000017"><a xlink:title=" ">
<polygon fill="white" stroke="#666666" points="214.25,-374.96 116.5,-374.96 116.5,-355.71 214.25,-355.71 214.25,-374.96"/>
<text text-anchor="middle" x="165.38" y="-361.46" font-family="Times,serif" font-size="10.00">time_point&lt; clock &gt;</text>
</a>
</g>
</g>
<!-- Node17&#45;&gt;Node16 -->
<g id="edge17_Node000016_Node000017" class="edge">
<title>Node17&#45;&gt;Node16</title>
<g id="a_edge17_Node000016_Node000017"><a xlink:title=" ">
<path fill="none" stroke="#9a32cd" stroke-dasharray="5,2" d="M225.54,-365.34C267.62,-365.34 323.27,-365.34 361.61,-365.34"/>
<polygon fill="#9a32cd" stroke="#9a32cd" points="225.6,-361.84 215.6,-365.34 225.6,-368.84 225.6,-361.84"/>
</a>
</g>
<text text-anchor="middle" x="284.38" y="-378.34" font-family="Times,serif" font-size="10.00" fill="grey"> current_</text>
<text text-anchor="middle" x="284.38" y="-367.09" font-family="Times,serif" font-size="10.00" fill="grey">start_</text>
</g>
<!-- Node18&#45;&gt;Node4 -->
<g id="edge18_Node000004_Node000018" class="edge">
<title>Node18&#45;&gt;Node4</title>
<g id="a_edge18_Node000004_Node000018"><a xlink:title=" ">
<path fill="none" stroke="orange" stroke-dasharray="5,2" d="M696.41,-149.4C727.56,-157.51 763.62,-172.02 787,-197.84 807.27,-220.22 785.94,-239.93 805,-263.34 807.6,-266.54 810.64,-269.43 813.93,-272.03"/>
<polygon fill="orange" stroke="orange" points="697.6,-145.84 687.06,-146.88 695.95,-152.64 697.6,-145.84"/>
</a>
</g>
<text text-anchor="start" x="703.75" y="-211.34" font-family="Times,serif" font-size="10.00" fill="grey"> &lt; std::chrono::steady</text>
<text text-anchor="middle" x="745.38" y="-200.09" font-family="Times,serif" font-size="10.00" fill="grey">_clock &gt;</text>
</g>
<!-- Node19 -->
<g id="Node000019" class="node">
<title>Node19</title>
<g id="a_Node000019"><a xlink:title=" ">
<polygon fill="white" stroke="#666666" points="446.62,-153.96 367.62,-153.96 367.62,-134.71 446.62,-134.71 446.62,-153.96"/>
<text text-anchor="middle" x="407.12" y="-140.46" font-family="Times,serif" font-size="10.00">Timer&lt; clock &gt;</text>
</a>
</g>
</g>
<!-- Node19&#45;&gt;Node18 -->
<g id="edge24_Node000018_Node000019" class="edge">
<title>Node19&#45;&gt;Node18</title>
<g id="a_edge24_Node000018_Node000019"><a xlink:title=" ">
<path fill="none" stroke="#9a32cd" stroke-dasharray="5,2" d="M457.68,-141.49C465.4,-141.13 473.29,-140.81 480.75,-140.59 514.41,-139.58 552.28,-139.27 581.81,-139.21"/>
<polygon fill="#9a32cd" stroke="#9a32cd" points="457.75,-138.03 447.93,-142.02 458.09,-145.02 457.75,-138.03"/>
</a>
</g>
<text text-anchor="middle" x="522.38" y="-165.59" font-family="Times,serif" font-size="10.00" fill="grey"> entry_time</text>
<text text-anchor="middle" x="522.38" y="-154.34" font-family="Times,serif" font-size="10.00" fill="grey">flush</text>
<text text-anchor="middle" x="522.38" y="-143.09" font-family="Times,serif" font-size="10.00" fill="grey">measure</text>
</g>
<!-- Node20 -->
<g id="Node000020" class="node">
<title>Node20</title>
<g id="a_Node000020"><a xlink:title=" ">
<polygon fill="white" stroke="#666666" points="916.62,-253.96 812.88,-253.96 812.88,-234.71 916.62,-234.71 916.62,-253.96"/>
<text text-anchor="middle" x="864.75" y="-240.46" font-family="Times,serif" font-size="10.00">const UniquePacketID</text>
</a>
</g>
</g>
<!-- Node20&#45;&gt;Node2 -->
<g id="edge25_Node000002_Node000020" class="edge">
<title>Node20&#45;&gt;Node2</title>
<g id="a_edge25_Node000002_Node000020"><a xlink:title=" ">
<path fill="none" stroke="#9a32cd" stroke-dasharray="5,2" d="M916.86,-258.84C919.51,-260.22 922.08,-261.71 924.5,-263.34 978.82,-299.87 1021.81,-367.18 1039.44,-397.63"/>
<polygon fill="#9a32cd" stroke="#9a32cd" points="918.5,-255.29 907.95,-254.38 915.63,-261.68 918.5,-255.29"/>
</a>
</g>
<text text-anchor="middle" x="962" y="-315.09" font-family="Times,serif" font-size="10.00" fill="grey"> type</text>
</g>
</g>
</svg>

<g id="navigator" transform="translate(0 0)" fill="#404254">
  <rect fill="#f2f5e9" fill-opacity="0.5" stroke="#606060" stroke-width=".5" x="0" y="0" width="60" height="60"/>
  <use id="zoomplus" xlink:href="#zoomPlus" x="17" y="9" onmousedown="handleZoom(evt,'in')"/>
  <use id="zoomminus" xlink:href="#zoomMin" x="42" y="9" onmousedown="handleZoom(evt,'out')"/>
  <use id="reset" xlink:href="#resetDef" x="30" y="36" onmousedown="handleReset()"/>
   <use id="arrowup" xlink:href="#arrowUp" x="0" y="0" onmousedown="handlePan(0,-1)"/>
  <use id="arrowright" xlink:href="#arrowRight" x="0" y="0" onmousedown="handlePan(1,0)"/>
  <use id="arrowdown" xlink:href="#arrowDown" x="0" y="0" onmousedown="handlePan(0,1)"/>
  <use id="arrowleft" xlink:href="#arrowLeft" x="0" y="0" onmousedown="handlePan(-1,0)"/>
</g>
<svg viewBox="0 0 15 15" width="100%" height="30px" preserveAspectRatio="xMaxYMin meet">
 <g id="arrow_out" transform="scale(0.3 0.3)">
  <a xlink:href="classmal__packet__weaver_1_1_derived_packet__coll__graph_org.svg" target="_base">
   <rect id="button" ry="5" rx="5" y="6" x="6" height="38" width="38"
        fill="#f2f5e9" fill-opacity="0.5" stroke="#606060" stroke-width="1.0"/>
   <path id="arrow"
     d="M 11.500037,31.436501 C 11.940474,20.09759 22.043105,11.32322 32.158766,21.979434 L 37.068811,17.246167 C 37.068811,17.246167 37.088388,32 37.088388,32 L 22.160133,31.978069 C 22.160133,31.978069 26.997745,27.140456 26.997745,27.140456 C 18.528582,18.264221 13.291696,25.230495 11.500037,31.436501 z"
     style="fill:#404040;"/>
  </a>
 </g>
</svg>

<style type='text/css'>
<![CDATA[
[data-mouse-over-selected='false'] { opacity: 0.7; }
[data-mouse-over-selected='true']  { opacity: 1.0; }
]]>
</style>
<script type="application/ecmascript"><![CDATA[
document.addEventListener('DOMContentLoaded', (event) => {
  highlightEdges();
  highlightAdjacentNodes();
});
]]></script>
</svg>
