<?xml version="1.0" encoding="UTF-8" standalone="no"?>
<!DOCTYPE svg PUBLIC "-//W3C//DTD SVG 1.1//EN"
 "http://www.w3.org/Graphics/SVG/1.1/DTD/svg11.dtd">
<!-- Generated by graphviz version 8.1.0 (20230707.0739)
 -->
<!-- Title: mal_packet_weaver::DerivedPacket&lt; PacketType &gt; Pages: 1 -->
<svg width="476pt" height="187pt"
 viewBox="0.00 0.00 476.25 187.25" xmlns="http://www.w3.org/2000/svg" xmlns:xlink="http://www.w3.org/1999/xlink">

<svg id="main" version="1.1" xmlns="http://www.w3.org/2000/svg" xmlns:xlink="http://www.w3.org/1999/xlink" xml:space="preserve" onload="init(evt)">
<style type="text/css"><![CDATA[
.node, .edge {opacity: 0.7;}
.node.selected, .edge.selected {opacity: 1;}
.edge:hover path { stroke: red; }
.edge:hover polygon { stroke: red; fill: red; }
]]></style>
<script type="application/ecmascript" xlink:href="../../svg.min.js"/>
<svg id="graph" class="graph">
<g id="graph0" class="graph" transform="scale(1 1) rotate(0) translate(4 183.25)">
<title>mal_packet_weaver::DerivedPacket&lt; PacketType &gt;</title>
<!-- Node1 -->
<g id="Node000001" class="node">
<title>Node1</title>
<g id="a_Node000001"><a xlink:title="A templated class representing a derived packet from the base Packet class.">
<polygon fill="#999999" stroke="#666666" points="468.25,-98.88 330.75,-98.88 330.75,-68.38 468.25,-68.38 468.25,-98.88"/>
<text text-anchor="start" x="338.75" y="-85.38" font-family="Times,serif" font-size="10.00">mal_packet_weaver::</text>
<text text-anchor="middle" x="399.5" y="-74.12" font-family="Times,serif" font-size="10.00">DerivedPacket&lt; PacketType &gt;</text>
</a>
</g>
</g>
<!-- Node2 -->
<g id="Node000002" class="node">
<title>Node2</title>
<g id="a_Node000002"><a xlink:href="../../d2/d9d/classmal__packet__weaver_1_1_packet.html" target="_top" xlink:title="Base class for all packets.">
<polygon fill="white" stroke="#666666" points="293.75,-98.88 194.5,-98.88 194.5,-68.38 293.75,-68.38 293.75,-98.88"/>
<text text-anchor="start" x="202.5" y="-85.38" font-family="Times,serif" font-size="10.00">mal_packet_weaver::</text>
<text text-anchor="middle" x="244.12" y="-74.12" font-family="Times,serif" font-size="10.00">Packet</text>
</a>
</g>
</g>
<!-- Node2&#45;&gt;Node1 -->
<g id="edge1_Node000001_Node000002" class="edge">
<title>Node2&#45;&gt;Node1</title>
<g id="a_edge1_Node000001_Node000002"><a xlink:title=" ">
<path fill="none" stroke="#63b8ff" d="M304.89,-83.62C313.27,-83.62 321.93,-83.62 330.44,-83.62"/>
<polygon fill="#63b8ff" stroke="#63b8ff" points="305.08,-80.13 295.08,-83.62 305.08,-87.13 305.08,-80.13"/>
</a>
</g>
</g>
<!-- Node3 -->
<g id="Node000003" class="node">
<title>Node3</title>
<g id="a_Node000003"><a xlink:title=" ">
<polygon fill="white" stroke="#666666" points="98.88,-179.25 7.12,-179.25 7.12,-160 98.88,-160 98.88,-179.25"/>
<text text-anchor="middle" x="53" y="-165.75" font-family="Times,serif" font-size="10.00">utils::non_copyable</text>
</a>
</g>
</g>
<!-- Node3&#45;&gt;Node2 -->
<g id="edge2_Node000002_Node000003" class="edge">
<title>Node3&#45;&gt;Node2</title>
<g id="a_edge2_Node000002_Node000003"><a xlink:title=" ">
<path fill="none" stroke="#63b8ff" d="M91.81,-155.82C96.59,-154.08 101.41,-152.31 106,-150.62 137.35,-139.12 146.46,-139.23 176.5,-124.62 191.65,-117.26 207.75,-107.41 220.33,-99.21"/>
<polygon fill="#63b8ff" stroke="#63b8ff" points="90.72,-152.86 82.53,-159.58 93.13,-159.44 90.72,-152.86"/>
</a>
</g>
</g>
<!-- Node4 -->
<g id="Node000004" class="node">
<title>Node4</title>
<g id="a_Node000004"><a xlink:title=" ">
<polygon fill="white" stroke="#666666" points="106,-141.88 0,-141.88 0,-111.38 106,-111.38 106,-141.88"/>
<text text-anchor="start" x="8" y="-128.38" font-family="Times,serif" font-size="10.00">Measurer&lt; std::chrono</text>
<text text-anchor="middle" x="53" y="-117.12" font-family="Times,serif" font-size="10.00">::steady_clock &gt;</text>
</a>
</g>
</g>
<!-- Node4&#45;&gt;Node2 -->
<g id="edge3_Node000002_Node000004" class="edge">
<title>Node4&#45;&gt;Node2</title>
<g id="a_edge3_Node000002_Node000004"><a xlink:title=" ">
<path fill="none" stroke="#9a32cd" stroke-dasharray="5,2" d="M116.97,-112.31C142.12,-106.59 170.62,-100.11 194.17,-94.76"/>
<polygon fill="#9a32cd" stroke="#9a32cd" points="116.41,-109.07 107.43,-114.7 117.96,-115.9 116.41,-109.07"/>
</a>
</g>
<text text-anchor="middle" x="150.25" y="-111.38" font-family="Times,serif" font-size="10.00" fill="grey"> measurer</text>
</g>
<!-- Node5 -->
<g id="Node000005" class="node">
<title>Node5</title>
<g id="a_Node000005"><a xlink:title=" ">
<polygon fill="white" stroke="#666666" points="104.88,-93.25 1.12,-93.25 1.12,-74 104.88,-74 104.88,-93.25"/>
<text text-anchor="middle" x="53" y="-79.75" font-family="Times,serif" font-size="10.00">const UniquePacketID</text>
</a>
</g>
</g>
<!-- Node5&#45;&gt;Node2 -->
<g id="edge4_Node000002_Node000005" class="edge">
<title>Node5&#45;&gt;Node2</title>
<g id="a_edge4_Node000002_Node000005"><a xlink:title=" ">
<path fill="none" stroke="#9a32cd" stroke-dasharray="5,2" d="M116.17,-83.62C141.51,-83.62 170.39,-83.62 194.19,-83.62"/>
<polygon fill="#9a32cd" stroke="#9a32cd" points="116.18,-80.13 106.18,-83.62 116.18,-87.13 116.18,-80.13"/>
</a>
</g>
<text text-anchor="middle" x="150.25" y="-85.38" font-family="Times,serif" font-size="10.00" fill="grey"> type</text>
</g>
<!-- Node6 -->
<g id="Node000006" class="node">
<title>Node6</title>
<g id="a_Node000006"><a xlink:title=" ">
<polygon fill="white" stroke="#666666" points="81.25,-56.25 24.75,-56.25 24.75,-37 81.25,-37 81.25,-56.25"/>
<text text-anchor="middle" x="53" y="-42.75" font-family="Times,serif" font-size="10.00">const float</text>
</a>
</g>
</g>
<!-- Node6&#45;&gt;Node2 -->
<g id="edge5_Node000002_Node000006" class="edge">
<title>Node6&#45;&gt;Node2</title>
<g id="a_edge5_Node000002_Node000006"><a xlink:title=" ">
<path fill="none" stroke="#9a32cd" stroke-dasharray="5,2" d="M91.87,-52.85C116.12,-56.96 148.23,-62.63 176.5,-68.38 182.2,-69.53 188.16,-70.81 194.06,-72.11"/>
<polygon fill="#9a32cd" stroke="#9a32cd" points="92.76,-49.29 82.32,-51.08 91.6,-56.19 92.76,-49.29"/>
</a>
</g>
<text text-anchor="middle" x="150.25" y="-69.38" font-family="Times,serif" font-size="10.00" fill="grey"> time_to_live</text>
</g>
<!-- Node7 -->
<g id="Node000007" class="node">
<title>Node7</title>
<g id="a_Node000007"><a xlink:title=" ">
<polygon fill="white" stroke="#666666" points="70,-19.25 36,-19.25 36,0 70,0 70,-19.25"/>
<text text-anchor="middle" x="53" y="-5.75" font-family="Times,serif" font-size="10.00">float</text>
</a>
</g>
</g>
<!-- Node7&#45;&gt;Node2 -->
<g id="edge6_Node000002_Node000007" class="edge">
<title>Node7&#45;&gt;Node2</title>
<g id="a_edge6_Node000002_Node000007"><a xlink:title=" ">
<path fill="none" stroke="#9a32cd" stroke-dasharray="5,2" d="M80.96,-14.82C106.27,-20.21 144.87,-29.77 176.5,-43.38 192.02,-50.05 208.27,-59.8 220.83,-68.04"/>
<polygon fill="#9a32cd" stroke="#9a32cd" points="81.83,-11.22 71.33,-12.63 80.42,-18.08 81.83,-11.22"/>
</a>
</g>
<text text-anchor="middle" x="150.25" y="-44.38" font-family="Times,serif" font-size="10.00" fill="grey"> timestamp_</text>
</g>
</g>
</svg>
</svg>

<style type='text/css'>
<![CDATA[
[data-mouse-over-selected='false'] { opacity: 0.7; }
[data-mouse-over-selected='true']  { opacity: 1.0; }
]]>
</style>
<script type="application/ecmascript"><![CDATA[
document.addEventListener('DOMContentLoaded', (event) => {
  highlightEdges();
  highlightAdjacentNodes();
});
]]></script>
</svg>
