<?xml version="1.0" encoding="UTF-8" standalone="no"?>
<!DOCTYPE svg PUBLIC "-//W3C//DTD SVG 1.1//EN"
 "http://www.w3.org/Graphics/SVG/1.1/DTD/svg11.dtd">
<!-- Generated by graphviz version 7.0.5 (20221223.1930)
 -->
<!-- Title: mal_packet_weaver::packet::system::SystemInfoRequestPacket Pages: 1 -->
<svg width="151pt" height="247pt"
 viewBox="0.00 0.00 151.00 247.00" xmlns="http://www.w3.org/2000/svg" xmlns:xlink="http://www.w3.org/1999/xlink">
<g id="graph0" class="graph" transform="scale(1 1) rotate(0) translate(4 243)">
<title>mal_packet_weaver::packet::system::SystemInfoRequestPacket</title>
<!-- Node1 -->
<g id="node1" class="node">
<title>Node1</title>
<g id="a_node1"><a xlink:title="Packet for requesting system information from a node.">
<polygon fill="#999999" stroke="#666666" points="139.5,-41 3.5,-41 3.5,0 139.5,0 139.5,-41"/>
<text text-anchor="start" x="11.5" y="-29" font-family="Helvetica,sans-Serif" font-size="10.00">mal_packet_weaver::</text>
<text text-anchor="start" x="11.5" y="-18" font-family="Helvetica,sans-Serif" font-size="10.00">packet::system::SystemInfo</text>
<text text-anchor="middle" x="71.5" y="-7" font-family="Helvetica,sans-Serif" font-size="10.00">RequestPacket</text>
</a>
</g>
</g>
<!-- Node2 -->
<g id="node2" class="node">
<title>Node2</title>
<g id="a_node2"><a xlink:href="../../dd/d2b/classmal__packet__weaver_1_1_derived_packet.html" target="_top" xlink:title=" ">
<polygon fill="white" stroke="#666666" points="143,-118 0,-118 0,-77 143,-77 143,-118"/>
<text text-anchor="start" x="8" y="-106" font-family="Helvetica,sans-Serif" font-size="10.00">mal_packet_weaver::</text>
<text text-anchor="start" x="8" y="-95" font-family="Helvetica,sans-Serif" font-size="10.00">DerivedPacket&lt; class</text>
<text text-anchor="middle" x="71.5" y="-84" font-family="Helvetica,sans-Serif" font-size="10.00"> SystemInfoRequestPacket &gt;</text>
</a>
</g>
</g>
<!-- Node2&#45;&gt;Node1 -->
<g id="edge1" class="edge">
<title>Node2&#45;&gt;Node1</title>
<path fill="none" stroke="#63b8ff" d="M71.5,-65.36C71.5,-57.24 71.5,-48.7 71.5,-41.33"/>
<polygon fill="#63b8ff" stroke="#63b8ff" points="68,-65.28 71.5,-75.28 75,-65.28 68,-65.28"/>
</g>
<!-- Node3 -->
<g id="node3" class="node">
<title>Node3</title>
<g id="a_node3"><a xlink:href="../../d2/d9d/classmal__packet__weaver_1_1_packet.html" target="_top" xlink:title="Base class for all packets.">
<polygon fill="white" stroke="#666666" points="125.5,-184 17.5,-184 17.5,-154 125.5,-154 125.5,-184"/>
<text text-anchor="start" x="25.5" y="-172" font-family="Helvetica,sans-Serif" font-size="10.00">mal_packet_weaver::</text>
<text text-anchor="middle" x="71.5" y="-161" font-family="Helvetica,sans-Serif" font-size="10.00">Packet</text>
</a>
</g>
</g>
<!-- Node3&#45;&gt;Node2 -->
<g id="edge2" class="edge">
<title>Node3&#45;&gt;Node2</title>
<path fill="none" stroke="#63b8ff" d="M71.5,-142.36C71.5,-134.45 71.5,-125.87 71.5,-118.42"/>
<polygon fill="#63b8ff" stroke="#63b8ff" points="68,-142.09 71.5,-152.09 75,-142.09 68,-142.09"/>
</g>
<!-- Node4 -->
<g id="node4" class="node">
<title>Node4</title>
<g id="a_node4"><a xlink:title=" ">
<polygon fill="white" stroke="#666666" points="120.5,-239 22.5,-239 22.5,-220 120.5,-220 120.5,-239"/>
<text text-anchor="middle" x="71.5" y="-227" font-family="Helvetica,sans-Serif" font-size="10.00">utils::non_copyable</text>
</a>
</g>
</g>
<!-- Node4&#45;&gt;Node3 -->
<g id="edge3" class="edge">
<title>Node4&#45;&gt;Node3</title>
<path fill="none" stroke="#63b8ff" d="M71.5,-208.51C71.5,-200.49 71.5,-191.43 71.5,-184.11"/>
<polygon fill="#63b8ff" stroke="#63b8ff" points="68,-208.35 71.5,-218.35 75,-208.35 68,-208.35"/>
</g>
</g>
</svg>
