<?xml version="1.0" encoding="UTF-8" standalone="no"?>
<!DOCTYPE svg PUBLIC "-//W3C//DTD SVG 1.1//EN"
 "http://www.w3.org/Graphics/SVG/1.1/DTD/svg11.dtd">
<!-- Generated by graphviz version 7.0.5 (20221223.1930)
 -->
<!-- Title: mal_packet_weaver::packet::crypto::DHKeyExchangeRequestPacket Pages: 1 -->
<svg width="736pt" height="98pt"
 viewBox="0.00 0.00 736.00 97.50" xmlns="http://www.w3.org/2000/svg" xmlns:xlink="http://www.w3.org/1999/xlink">
<g id="graph0" class="graph" transform="scale(1 1) rotate(0) translate(4 93.5)">
<title>mal_packet_weaver::packet::crypto::DHKeyExchangeRequestPacket</title>
<!-- Node1 -->
<g id="node1" class="node">
<title>Node1</title>
<g id="a_node1"><a xlink:title="Packet for Diffie&#45;Hellman key exchange request.">
<polygon fill="#999999" stroke="#666666" points="728,-62.5 574,-62.5 574,-21.5 728,-21.5 728,-62.5"/>
<text text-anchor="start" x="582" y="-50.5" font-family="Helvetica,sans-Serif" font-size="10.00">mal_packet_weaver::</text>
<text text-anchor="start" x="582" y="-39.5" font-family="Helvetica,sans-Serif" font-size="10.00">packet::crypto::DHKeyExchange</text>
<text text-anchor="middle" x="651" y="-28.5" font-family="Helvetica,sans-Serif" font-size="10.00">RequestPacket</text>
</a>
</g>
</g>
<!-- Node2 -->
<g id="node2" class="node">
<title>Node2</title>
<g id="a_node2"><a xlink:href="../../dd/d2b/classmal__packet__weaver_1_1_derived_packet.html" target="_top" xlink:title=" ">
<polygon fill="white" stroke="#666666" points="489,-89.5 322,-89.5 322,-48.5 489,-48.5 489,-89.5"/>
<text text-anchor="start" x="330" y="-77.5" font-family="Helvetica,sans-Serif" font-size="10.00">mal_packet_weaver::</text>
<text text-anchor="start" x="330" y="-66.5" font-family="Helvetica,sans-Serif" font-size="10.00">DerivedPacket&lt; class</text>
<text text-anchor="middle" x="405.5" y="-55.5" font-family="Helvetica,sans-Serif" font-size="10.00"> DHKeyExchangeRequestPacket &gt;</text>
</a>
</g>
</g>
<!-- Node2&#45;&gt;Node1 -->
<g id="edge1" class="edge">
<title>Node2&#45;&gt;Node1</title>
<path fill="none" stroke="#63b8ff" d="M500.62,-58.56C524.78,-55.89 550.46,-53.04 573.6,-50.47"/>
<polygon fill="#63b8ff" stroke="#63b8ff" points="500.34,-55.07 490.78,-59.65 501.11,-62.03 500.34,-55.07"/>
</g>
<!-- Node3 -->
<g id="node3" class="node">
<title>Node3</title>
<g id="a_node3"><a xlink:href="../../d2/d9d/classmal__packet__weaver_1_1_packet.html" target="_top" xlink:title="Base class for all packets.">
<polygon fill="white" stroke="#666666" points="285,-84 177,-84 177,-54 285,-54 285,-84"/>
<text text-anchor="start" x="185" y="-72" font-family="Helvetica,sans-Serif" font-size="10.00">mal_packet_weaver::</text>
<text text-anchor="middle" x="231" y="-61" font-family="Helvetica,sans-Serif" font-size="10.00">Packet</text>
</a>
</g>
</g>
<!-- Node3&#45;&gt;Node2 -->
<g id="edge2" class="edge">
<title>Node3&#45;&gt;Node2</title>
<path fill="none" stroke="#63b8ff" d="M296.55,-69C304.76,-69 313.25,-69 321.69,-69"/>
<polygon fill="#63b8ff" stroke="#63b8ff" points="296.68,-65.5 286.68,-69 296.68,-72.5 296.68,-65.5"/>
</g>
<!-- Node4 -->
<g id="node4" class="node">
<title>Node4</title>
<g id="a_node4"><a xlink:title=" ">
<polygon fill="white" stroke="#666666" points="98,-78.5 0,-78.5 0,-59.5 98,-59.5 98,-78.5"/>
<text text-anchor="middle" x="49" y="-66.5" font-family="Helvetica,sans-Serif" font-size="10.00">utils::non_copyable</text>
</a>
</g>
</g>
<!-- Node4&#45;&gt;Node3 -->
<g id="edge3" class="edge">
<title>Node4&#45;&gt;Node3</title>
<path fill="none" stroke="#63b8ff" d="M109.6,-69C131.23,-69 155.5,-69 176.56,-69"/>
<polygon fill="#63b8ff" stroke="#63b8ff" points="109.75,-65.5 99.75,-69 109.75,-72.5 109.75,-65.5"/>
</g>
<!-- Node5 -->
<g id="node5" class="node">
<title>Node5</title>
<g id="a_node5"><a xlink:href="../../d4/d9d/structmal__packet__weaver_1_1_byte_array.html" target="_top" xlink:title="A dynamically resizable array of bytes.">
<polygon fill="white" stroke="#666666" points="459.5,-30 351.5,-30 351.5,0 459.5,0 459.5,-30"/>
<text text-anchor="start" x="359.5" y="-18" font-family="Helvetica,sans-Serif" font-size="10.00">mal_packet_weaver::</text>
<text text-anchor="middle" x="405.5" y="-7" font-family="Helvetica,sans-Serif" font-size="10.00">ByteArray</text>
</a>
</g>
</g>
<!-- Node5&#45;&gt;Node1 -->
<g id="edge4" class="edge">
<title>Node5&#45;&gt;Node1</title>
<path fill="none" stroke="#9a32cd" stroke-dasharray="5,2" d="M471.21,-22.18C502.67,-25.66 540.71,-29.88 573.59,-33.53"/>
<polygon fill="#9a32cd" stroke="#9a32cd" points="471.77,-18.72 461.44,-21.09 470.99,-25.67 471.77,-18.72"/>
<text text-anchor="middle" x="531.5" y="-34" font-family="Helvetica,sans-Serif" font-size="10.00"> public_key</text>
</g>
<!-- Node6 -->
<g id="node6" class="node">
<title>Node6</title>
<g id="a_node6"><a xlink:title=" ">
<polygon fill="white" stroke="#666666" points="273,-24.5 189,-24.5 189,-5.5 273,-5.5 273,-24.5"/>
<text text-anchor="middle" x="231" y="-12.5" font-family="Helvetica,sans-Serif" font-size="10.00">std::vector&lt; T &gt;</text>
</a>
</g>
</g>
<!-- Node6&#45;&gt;Node5 -->
<g id="edge5" class="edge">
<title>Node6&#45;&gt;Node5</title>
<path fill="none" stroke="#63b8ff" d="M284.66,-15C305.72,-15 329.96,-15 351.1,-15"/>
<polygon fill="#63b8ff" stroke="#63b8ff" points="284.83,-11.5 274.83,-15 284.83,-18.5 284.83,-11.5"/>
</g>
<!-- Node7 -->
<g id="node7" class="node">
<title>Node7</title>
<g id="a_node7"><a xlink:title=" ">
<polygon fill="white" stroke="#666666" points="63.5,-24.5 34.5,-24.5 34.5,-5.5 63.5,-5.5 63.5,-24.5"/>
<text text-anchor="middle" x="49" y="-12.5" font-family="Helvetica,sans-Serif" font-size="10.00">T</text>
</a>
</g>
</g>
<!-- Node7&#45;&gt;Node6 -->
<g id="edge6" class="edge">
<title>Node7&#45;&gt;Node6</title>
<path fill="none" stroke="#9a32cd" stroke-dasharray="5,2" d="M75.11,-15C104.46,-15 153.5,-15 188.53,-15"/>
<polygon fill="#9a32cd" stroke="#9a32cd" points="75.34,-11.5 65.34,-15 75.34,-18.5 75.34,-11.5"/>
<text text-anchor="middle" x="137.5" y="-18" font-family="Helvetica,sans-Serif" font-size="10.00"> elements</text>
</g>
</g>
</svg>
