<?xml version="1.0" encoding="UTF-8" standalone="no"?>
<!DOCTYPE svg PUBLIC "-//W3C//DTD SVG 1.1//EN"
 "http://www.w3.org/Graphics/SVG/1.1/DTD/svg11.dtd">
<!-- Generated by graphviz version 7.0.5 (20221223.1930)
 -->
<!-- Title: mal_packet_weaver::crypto::ECDSA::Verifier Pages: 1 -->
<svg width="358pt" height="157pt"
 viewBox="0.00 0.00 358.00 156.50" xmlns="http://www.w3.org/2000/svg" xmlns:xlink="http://www.w3.org/1999/xlink">
<g id="graph0" class="graph" transform="scale(1 1) rotate(0) translate(4 152.5)">
<title>mal_packet_weaver::crypto::ECDSA::Verifier</title>
<!-- Node1 -->
<g id="node1" class="node">
<title>Node1</title>
<g id="a_node1"><a xlink:title="The Verifier class is responsible for verifying digital signatures using public keys.">
<polygon fill="#999999" stroke="#666666" points="350,-94.5 235,-94.5 235,-64.5 350,-64.5 350,-94.5"/>
<text text-anchor="start" x="243" y="-82.5" font-family="Helvetica,sans-Serif" font-size="10.00">mal_packet_weaver::</text>
<text text-anchor="middle" x="292.5" y="-71.5" font-family="Helvetica,sans-Serif" font-size="10.00">crypto::ECDSA::Verifier</text>
</a>
</g>
</g>
<!-- Node2 -->
<g id="node2" class="node">
<title>Node2</title>
<g id="a_node2"><a xlink:title=" ">
<polygon fill="white" stroke="#666666" points="134.5,-148.5 36.5,-148.5 36.5,-118.5 134.5,-118.5 134.5,-148.5"/>
<text text-anchor="start" x="44.5" y="-136.5" font-family="Helvetica,sans-Serif" font-size="10.00">utils::non_copyable</text>
<text text-anchor="middle" x="85.5" y="-125.5" font-family="Helvetica,sans-Serif" font-size="10.00">_non_movable</text>
</a>
</g>
</g>
<!-- Node2&#45;&gt;Node1 -->
<g id="edge1" class="edge">
<title>Node2&#45;&gt;Node1</title>
<path fill="none" stroke="#8b1a1a" d="M145.68,-117.91C173.72,-110.52 207.06,-101.74 234.78,-94.44"/>
<polygon fill="#8b1a1a" stroke="#8b1a1a" points="145.06,-114.45 136.29,-120.39 146.85,-121.22 145.06,-114.45"/>
</g>
<!-- Node3 -->
<g id="node3" class="node">
<title>Node3</title>
<g id="a_node3"><a xlink:title=" ">
<polygon fill="white" stroke="#666666" points="171,-100 0,-100 0,-59 171,-59 171,-100"/>
<text text-anchor="start" x="8" y="-88" font-family="Helvetica,sans-Serif" font-size="10.00">std::unique_ptr&lt; EVP</text>
<text text-anchor="start" x="8" y="-77" font-family="Helvetica,sans-Serif" font-size="10.00">_PKEY_CTX, OPENSSL_OBJECT</text>
<text text-anchor="middle" x="85.5" y="-66" font-family="Helvetica,sans-Serif" font-size="10.00">_WRAPPER&lt; EVP_PKEY_CTX &gt; &gt;</text>
</a>
</g>
</g>
<!-- Node3&#45;&gt;Node1 -->
<g id="edge2" class="edge">
<title>Node3&#45;&gt;Node1</title>
<path fill="none" stroke="#9a32cd" stroke-dasharray="5,2" d="M182.71,-79.5C200.53,-79.5 218.6,-79.5 234.76,-79.5"/>
<polygon fill="#9a32cd" stroke="#9a32cd" points="182.87,-76 172.87,-79.5 182.87,-83 182.87,-76"/>
<text text-anchor="middle" x="203" y="-82.5" font-family="Helvetica,sans-Serif" font-size="10.00"> ctx_</text>
</g>
<!-- Node4 -->
<g id="node4" class="node">
<title>Node4</title>
<g id="a_node4"><a xlink:title=" ">
<polygon fill="white" stroke="#666666" points="158.5,-41 12.5,-41 12.5,0 158.5,0 158.5,-41"/>
<text text-anchor="start" x="20.5" y="-29" font-family="Helvetica,sans-Serif" font-size="10.00">std::unique_ptr&lt; EVP</text>
<text text-anchor="start" x="20.5" y="-18" font-family="Helvetica,sans-Serif" font-size="10.00">_PKEY, OPENSSL_OBJECT</text>
<text text-anchor="middle" x="85.5" y="-7" font-family="Helvetica,sans-Serif" font-size="10.00">_WRAPPER&lt; EVP_PKEY &gt; &gt;</text>
</a>
</g>
</g>
<!-- Node4&#45;&gt;Node1 -->
<g id="edge3" class="edge">
<title>Node4&#45;&gt;Node1</title>
<path fill="none" stroke="#9a32cd" stroke-dasharray="5,2" d="M169.6,-44.42C192.64,-51.05 217.05,-58.07 237.91,-64.08"/>
<polygon fill="#9a32cd" stroke="#9a32cd" points="170.81,-41.12 160.23,-41.72 168.87,-47.85 170.81,-41.12"/>
<text text-anchor="middle" x="203" y="-59.5" font-family="Helvetica,sans-Serif" font-size="10.00"> pkey_</text>
</g>
</g>
</svg>
