<?xml version="1.0" encoding="UTF-8" standalone="no"?>
<!DOCTYPE svg PUBLIC "-//W3C//DTD SVG 1.1//EN"
 "http://www.w3.org/Graphics/SVG/1.1/DTD/svg11.dtd">
<!-- Generated by graphviz version 8.1.0 (20230707.0739)
 -->
<!-- Title: mal_packet_weaver::crypto::ECDSA::Verifier Pages: 1 -->
<!--zoomable 196 -->

<svg id="main" version="1.1" xmlns="http://www.w3.org/2000/svg" xmlns:xlink="http://www.w3.org/1999/xlink" xml:space="preserve" onload="init(evt)">
<style type="text/css"><![CDATA[
.node, .edge {opacity: 0.7;}
.node.selected, .edge.selected {opacity: 1;}
.edge:hover path { stroke: red; }
.edge:hover polygon { stroke: red; fill: red; }
]]></style>

<defs>
  <circle id="rim" cx="0" cy="0" r="7"/>
  <circle id="rim2" cx="0" cy="0" r="3.5"/>
  <g id="zoomPlus">
    <use xlink:href="#rim" fill="#404040"><set attributeName="fill" to="#808080" begin="zoomplus.mouseover" end="zoomplus.mouseout"/></use>
    <path d="M-4,0h8M0,-4v8" fill="none" stroke="white" stroke-width="1.5" pointer-events="none"/>
  </g>
  <g id="zoomMin">
    <use xlink:href="#rim" fill="#404040"><set attributeName="fill" to="#808080" begin="zoomminus.mouseover" end="zoomminus.mouseout"/></use>
    <path d="M-4,0h8" fill="none" stroke="white" stroke-width="1.5" pointer-events="none"/>
  </g>
  <g id="arrowUp" transform="translate(30 24)">
    <use xlink:href="#rim"/>
    <path pointer-events="none" fill="none" stroke="white" stroke-width="1.5" d="M0,-3.0v7 M-2.5,-0.5L0,-3.0L2.5,-0.5"/>
  </g>
  <g id="arrowRight" transform="rotate(90) translate(36 -43)">
    <use xlink:href="#rim"/>
    <path pointer-events="none" fill="none" stroke="white" stroke-width="1.5" d="M0,-3.0v7 M-2.5,-0.5L0,-3.0L2.5,-0.5"/>
  </g>
  <g id="arrowDown" transform="rotate(180) translate(-30 -48)">
    <use xlink:href="#rim"/>
    <path pointer-events="none" fill="none" stroke="white" stroke-width="1.5" d="M0,-3.0v7 M-2.5,-0.5L0,-3.0L2.5,-0.5"/>
  </g>
  <g id="arrowLeft" transform="rotate(270) translate(-36 17)">
    <use xlink:href="#rim"/>
    <path pointer-events="none" fill="none" stroke="white" stroke-width="1.5" d="M0,-3.0v7 M-2.5,-0.5L0,-3.0L2.5,-0.5"/>
  </g>
  <g id="resetDef">
    <use xlink:href="#rim2" fill="#404040"><set attributeName="fill" to="#808080" begin="reset.mouseover" end="reset.mouseout"/></use>
  </g>
</defs>
<script type="application/ecmascript">
var viewWidth = 746;
var viewHeight = 196;
var sectionId = 'dynsection-1';
</script>
<script type="application/ecmascript" xlink:href="../../svg.min.js"/>
<svg id="graph" class="graph">
<g id="viewport">
<title>mal_packet_weaver::crypto::ECDSA::Verifier</title>
<!-- Node1 -->
<g id="Node000001" class="node">
<title>Node1</title>
<g id="a_Node000001"><a xlink:title="The Verifier class is responsible for verifying digital signatures using public keys.">
<polygon fill="#999999" stroke="#666666" points="737.55,-109.88 621.8,-109.88 621.8,-79.38 737.55,-79.38 737.55,-109.88"/>
<text text-anchor="start" x="629.8" y="-96.38" font-family="Times,serif" font-size="10.00">mal_packet_weaver::</text>
<text text-anchor="middle" x="679.67" y="-85.12" font-family="Times,serif" font-size="10.00">crypto::ECDSA::Verifier</text>
</a>
</g>
</g>
<!-- Node2 -->
<g id="Node000002" class="node">
<title>Node2</title>
<g id="a_Node000002"><a xlink:title=" ">
<polygon fill="white" stroke="#666666" points="498.05,-187.88 406.3,-187.88 406.3,-157.38 498.05,-157.38 498.05,-187.88"/>
<text text-anchor="start" x="414.3" y="-174.38" font-family="Times,serif" font-size="10.00">utils::non_copyable</text>
<text text-anchor="middle" x="452.17" y="-163.12" font-family="Times,serif" font-size="10.00">_non_movable</text>
</a>
</g>
</g>
<!-- Node2&#45;&gt;Node1 -->
<g id="edge1_Node000001_Node000002" class="edge">
<title>Node2&#45;&gt;Node1</title>
<g id="a_edge1_Node000001_Node000002"><a xlink:title=" ">
<path fill="none" stroke="#8b1a1a" d="M508.78,-157.44C518.26,-154.64 527.97,-151.65 537.05,-148.62 572.38,-136.86 611.92,-121.6 640.22,-110.31"/>
<polygon fill="#8b1a1a" stroke="#8b1a1a" points="507.86,-154.35 499.23,-160.5 509.81,-161.08 507.86,-154.35"/>
</a>
</g>
</g>
<!-- Node3 -->
<g id="Node000003" class="node">
<title>Node3</title>
<g id="a_Node000003"><a xlink:title=" ">
<polygon fill="white" stroke="#666666" points="537.05,-139.5 367.3,-139.5 367.3,-97.75 537.05,-97.75 537.05,-139.5"/>
<text text-anchor="start" x="375.3" y="-126" font-family="Times,serif" font-size="10.00">std::unique_ptr&lt; EVP</text>
<text text-anchor="start" x="375.3" y="-114.75" font-family="Times,serif" font-size="10.00">_PKEY_CTX, OPENSSL_OBJECT</text>
<text text-anchor="middle" x="452.17" y="-103.5" font-family="Times,serif" font-size="10.00">_WRAPPER&lt; EVP_PKEY_CTX &gt; &gt;</text>
</a>
</g>
</g>
<!-- Node3&#45;&gt;Node1 -->
<g id="edge2_Node000001_Node000003" class="edge">
<title>Node3&#45;&gt;Node1</title>
<g id="a_edge2_Node000001_Node000003"><a xlink:title=" ">
<path fill="none" stroke="#9a32cd" stroke-dasharray="5,2" d="M548.07,-108.52C573.04,-105.87 599.2,-103.08 621.5,-100.71"/>
<polygon fill="#9a32cd" stroke="#9a32cd" points="548.04,-105.12 538.46,-109.65 548.78,-112.08 548.04,-105.12"/>
</a>
</g>
<text text-anchor="middle" x="579.42" y="-108.38" font-family="Times,serif" font-size="10.00" fill="grey"> ctx_</text>
</g>
<!-- Node4 -->
<g id="Node000004" class="node">
<title>Node4</title>
<g id="a_Node000004"><a xlink:title=" ">
<polygon fill="white" stroke="#666666" points="174.17,-184.25 83.17,-184.25 83.17,-165 174.17,-165 174.17,-184.25"/>
<text text-anchor="middle" x="128.67" y="-170.75" font-family="Times,serif" font-size="10.00">EVP_PKEY_CTX</text>
</a>
</g>
</g>
<!-- Node4&#45;&gt;Node3 -->
<g id="edge3_Node000003_Node000004" class="edge">
<title>Node4&#45;&gt;Node3</title>
<g id="a_edge3_Node000003_Node000004"><a xlink:title=" ">
<path fill="none" stroke="#9a32cd" stroke-dasharray="5,2" d="M185.47,-169.71C230.07,-165.26 294.05,-157.68 349.3,-146.62 358.74,-144.74 368.6,-142.44 378.3,-139.99"/>
<polygon fill="#9a32cd" stroke="#9a32cd" points="185.18,-166.32 175.56,-170.78 185.86,-173.29 185.18,-166.32"/>
</a>
</g>
<text text-anchor="middle" x="272.8" y="-169.38" font-family="Times,serif" font-size="10.00" fill="grey"> ptr</text>
</g>
<!-- Node5 -->
<g id="Node000005" class="node">
<title>Node5</title>
<g id="a_Node000005"><a xlink:title=" ">
<polygon fill="white" stroke="#666666" points="178.3,-100.25 79.05,-100.25 79.05,-81 178.3,-81 178.3,-100.25"/>
<text text-anchor="middle" x="128.67" y="-86.75" font-family="Times,serif" font-size="10.00">std::unique_ptr&lt; T &gt;</text>
</a>
</g>
</g>
<!-- Node5&#45;&gt;Node3 -->
<g id="edge4_Node000003_Node000005" class="edge">
<title>Node5&#45;&gt;Node3</title>
<g id="a_edge4_Node000003_Node000005"><a xlink:title=" ">
<path fill="none" stroke="orange" stroke-dasharray="5,2" d="M189.45,-95.83C239.44,-100.19 311.33,-106.45 367.11,-111.3"/>
<polygon fill="orange" stroke="orange" points="189.77,-92.26 179.5,-94.88 189.16,-99.23 189.77,-92.26"/>
</a>
</g>
<text text-anchor="start" x="196.3" y="-132.88" font-family="Times,serif" font-size="10.00" fill="grey"> &lt; EVP_PKEY_CTX, OPENSSL</text>
<text text-anchor="start" x="196.3" y="-121.62" font-family="Times,serif" font-size="10.00" fill="grey">_OBJECT_WRAPPER&lt; EVP_PKEY</text>
<text text-anchor="middle" x="272.8" y="-110.38" font-family="Times,serif" font-size="10.00" fill="grey">_CTX &gt; &gt;</text>
</g>
<!-- Node7 -->
<g id="Node000007" class="node">
<title>Node7</title>
<g id="a_Node000007"><a xlink:title=" ">
<polygon fill="white" stroke="#666666" points="524.3,-79.5 380.05,-79.5 380.05,-37.75 524.3,-37.75 524.3,-79.5"/>
<text text-anchor="start" x="388.05" y="-66" font-family="Times,serif" font-size="10.00">std::unique_ptr&lt; EVP</text>
<text text-anchor="start" x="388.05" y="-54.75" font-family="Times,serif" font-size="10.00">_PKEY, OPENSSL_OBJECT</text>
<text text-anchor="middle" x="452.17" y="-43.5" font-family="Times,serif" font-size="10.00">_WRAPPER&lt; EVP_PKEY &gt; &gt;</text>
</a>
</g>
</g>
<!-- Node5&#45;&gt;Node7 -->
<g id="edge8_Node000007_Node000005" class="edge">
<title>Node5&#45;&gt;Node7</title>
<g id="a_edge8_Node000007_Node000005"><a xlink:title=" ">
<path fill="none" stroke="orange" stroke-dasharray="5,2" d="M155.02,-75.28C167.07,-68.85 181.95,-62.13 196.3,-58.88 257.04,-45.11 328.04,-46.41 379.65,-50.36"/>
<polygon fill="orange" stroke="orange" points="153.65,-72.59 146.63,-80.52 157.07,-78.7 153.65,-72.59"/>
</a>
</g>
<text text-anchor="start" x="211.67" y="-83.88" font-family="Times,serif" font-size="10.00" fill="grey"> &lt; EVP_PKEY, OPENSSL</text>
<text text-anchor="start" x="211.67" y="-72.62" font-family="Times,serif" font-size="10.00" fill="grey">_OBJECT_WRAPPER&lt; EVP</text>
<text text-anchor="middle" x="272.8" y="-61.38" font-family="Times,serif" font-size="10.00" fill="grey">_PKEY &gt; &gt;</text>
</g>
<!-- Node6 -->
<g id="Node000006" class="node">
<title>Node6</title>
<g id="a_Node000006"><a xlink:title=" ">
<polygon fill="white" stroke="#666666" points="28.8,-100.25 0,-100.25 0,-81 28.8,-81 28.8,-100.25"/>
<text text-anchor="middle" x="14.4" y="-86.75" font-family="Times,serif" font-size="10.00">T</text>
</a>
</g>
</g>
<!-- Node6&#45;&gt;Node5 -->
<g id="edge5_Node000005_Node000006" class="edge">
<title>Node6&#45;&gt;Node5</title>
<g id="a_edge5_Node000005_Node000006"><a xlink:title=" ">
<path fill="none" stroke="#9a32cd" stroke-dasharray="5,2" d="M39.96,-90.62C51.32,-90.62 65.25,-90.62 78.63,-90.62"/>
<polygon fill="#9a32cd" stroke="#9a32cd" points="40.17,-87.13 30.17,-90.62 40.17,-94.13 40.17,-87.13"/>
</a>
</g>
<text text-anchor="middle" x="53.92" y="-92.38" font-family="Times,serif" font-size="10.00" fill="grey"> ptr</text>
</g>
<!-- Node7&#45;&gt;Node1 -->
<g id="edge6_Node000001_Node000007" class="edge">
<title>Node7&#45;&gt;Node1</title>
<g id="a_edge6_Node000001_Node000007"><a xlink:title=" ">
<path fill="none" stroke="#9a32cd" stroke-dasharray="5,2" d="M535.31,-71.74C563.85,-76.29 595.23,-81.3 621.33,-85.47"/>
<polygon fill="#9a32cd" stroke="#9a32cd" points="535.95,-68.14 525.52,-70.02 534.85,-75.05 535.95,-68.14"/>
</a>
</g>
<text text-anchor="middle" x="579.42" y="-84.38" font-family="Times,serif" font-size="10.00" fill="grey"> pkey_</text>
</g>
<!-- Node8 -->
<g id="Node000008" class="node">
<title>Node8</title>
<g id="a_Node000008"><a xlink:title=" ">
<polygon fill="white" stroke="#666666" points="161.42,-36.25 95.92,-36.25 95.92,-17 161.42,-17 161.42,-36.25"/>
<text text-anchor="middle" x="128.67" y="-22.75" font-family="Times,serif" font-size="10.00">EVP_PKEY</text>
</a>
</g>
</g>
<!-- Node8&#45;&gt;Node7 -->
<g id="edge7_Node000007_Node000008" class="edge">
<title>Node8&#45;&gt;Node7</title>
<g id="a_edge7_Node000007_Node000008"><a xlink:title=" ">
<path fill="none" stroke="#9a32cd" stroke-dasharray="5,2" d="M172.62,-23.07C217.1,-20.25 288.48,-18.15 349.3,-27.38 363.38,-29.51 378.21,-33.19 392.06,-37.29"/>
<polygon fill="#9a32cd" stroke="#9a32cd" points="172.65,-19.63 162.91,-23.8 173.12,-26.61 172.65,-19.63"/>
</a>
</g>
<text text-anchor="middle" x="272.8" y="-29.38" font-family="Times,serif" font-size="10.00" fill="grey"> ptr</text>
</g>
<!-- Node9 -->
<g id="Node000009" class="node">
<title>Node9</title>
<g id="a_Node000009"><a xlink:title=" ">
<polygon fill="white" stroke="#666666" points="480.8,-19.25 423.55,-19.25 423.55,0 480.8,0 480.8,-19.25"/>
<text text-anchor="middle" x="452.17" y="-5.75" font-family="Times,serif" font-size="10.00">HashType</text>
</a>
</g>
</g>
<!-- Node9&#45;&gt;Node1 -->
<g id="edge9_Node000001_Node000009" class="edge">
<title>Node9&#45;&gt;Node1</title>
<g id="a_edge9_Node000001_Node000009"><a xlink:title=" ">
<path fill="none" stroke="#9a32cd" stroke-dasharray="5,2" d="M491.73,-16.56C506.14,-19.62 522.53,-23.66 537.05,-28.62 577.48,-42.45 621.77,-64.24 649.86,-78.97"/>
<polygon fill="#9a32cd" stroke="#9a32cd" points="492.66,-12.97 482.17,-14.41 491.27,-19.83 492.66,-12.97"/>
</a>
</g>
<text text-anchor="middle" x="579.42" y="-56.38" font-family="Times,serif" font-size="10.00" fill="grey"> hash_type_</text>
</g>
</g>
</svg>

<g id="navigator" transform="translate(0 0)" fill="#404254">
  <rect fill="#f2f5e9" fill-opacity="0.5" stroke="#606060" stroke-width=".5" x="0" y="0" width="60" height="60"/>
  <use id="zoomplus" xlink:href="#zoomPlus" x="17" y="9" onmousedown="handleZoom(evt,'in')"/>
  <use id="zoomminus" xlink:href="#zoomMin" x="42" y="9" onmousedown="handleZoom(evt,'out')"/>
  <use id="reset" xlink:href="#resetDef" x="30" y="36" onmousedown="handleReset()"/>
   <use id="arrowup" xlink:href="#arrowUp" x="0" y="0" onmousedown="handlePan(0,-1)"/>
  <use id="arrowright" xlink:href="#arrowRight" x="0" y="0" onmousedown="handlePan(1,0)"/>
  <use id="arrowdown" xlink:href="#arrowDown" x="0" y="0" onmousedown="handlePan(0,1)"/>
  <use id="arrowleft" xlink:href="#arrowLeft" x="0" y="0" onmousedown="handlePan(-1,0)"/>
</g>
<svg viewBox="0 0 15 15" width="100%" height="30px" preserveAspectRatio="xMaxYMin meet">
 <g id="arrow_out" transform="scale(0.3 0.3)">
  <a xlink:href="classmal__packet__weaver_1_1crypto_1_1_e_c_d_s_a_1_1_verifier__coll__graph_org.svg" target="_base">
   <rect id="button" ry="5" rx="5" y="6" x="6" height="38" width="38"
        fill="#f2f5e9" fill-opacity="0.5" stroke="#606060" stroke-width="1.0"/>
   <path id="arrow"
     d="M 11.500037,31.436501 C 11.940474,20.09759 22.043105,11.32322 32.158766,21.979434 L 37.068811,17.246167 C 37.068811,17.246167 37.088388,32 37.088388,32 L 22.160133,31.978069 C 22.160133,31.978069 26.997745,27.140456 26.997745,27.140456 C 18.528582,18.264221 13.291696,25.230495 11.500037,31.436501 z"
     style="fill:#404040;"/>
  </a>
 </g>
</svg>

<style type='text/css'>
<![CDATA[
[data-mouse-over-selected='false'] { opacity: 0.7; }
[data-mouse-over-selected='true']  { opacity: 1.0; }
]]>
</style>
<script type="application/ecmascript"><![CDATA[
document.addEventListener('DOMContentLoaded', (event) => {
  highlightEdges();
  highlightAdjacentNodes();
});
]]></script>
</svg>
