<?xml version="1.0" encoding="UTF-8" standalone="no"?>
<!DOCTYPE svg PUBLIC "-//W3C//DTD SVG 1.1//EN"
 "http://www.w3.org/Graphics/SVG/1.1/DTD/svg11.dtd">
<!-- Generated by graphviz version 8.1.0 (20230707.0739)
 -->
<!-- Title: mal_packet_weaver::packet::node::NodeInfoResponsePacket Pages: 1 -->
<svg width="1008pt" height="252pt"
 viewBox="0.00 0.00 1007.75 252.25" xmlns="http://www.w3.org/2000/svg" xmlns:xlink="http://www.w3.org/1999/xlink">
<g id="graph0" class="graph" transform="scale(1 1) rotate(0) translate(4 248.25)">
<title>mal_packet_weaver::packet::node::NodeInfoResponsePacket</title>
<!-- Node1 -->
<g id="Node000001" class="node">
<title>Node1</title>
<g id="a_Node000001"><a xlink:title="Packet containing information about a node in response to a request.">
<polygon fill="#999999" stroke="#666666" points="999.75,-68.5 852.5,-68.5 852.5,-26.75 999.75,-26.75 999.75,-68.5"/>
<text text-anchor="start" x="860.5" y="-55" font-family="Times,serif" font-size="10.00">mal_packet_weaver::</text>
<text text-anchor="start" x="860.5" y="-43.75" font-family="Times,serif" font-size="10.00">packet::node::NodeInfoResponse</text>
<text text-anchor="middle" x="926.12" y="-32.5" font-family="Times,serif" font-size="10.00">Packet</text>
</a>
</g>
</g>
<!-- Node2 -->
<g id="Node000002" class="node">
<title>Node2</title>
<g id="a_Node000002"><a xlink:href="../../dd/d2b/classmal__packet__weaver_1_1_derived_packet.html" target="_top" xlink:title=" ">
<polygon fill="white" stroke="#666666" points="762.88,-121.5 633.62,-121.5 633.62,-79.75 762.88,-79.75 762.88,-121.5"/>
<text text-anchor="start" x="641.62" y="-108" font-family="Times,serif" font-size="10.00">mal_packet_weaver::</text>
<text text-anchor="start" x="641.62" y="-96.75" font-family="Times,serif" font-size="10.00">DerivedPacket&lt; class</text>
<text text-anchor="middle" x="698.25" y="-85.5" font-family="Times,serif" font-size="10.00"> NodeInfoResponsePacket &gt;</text>
</a>
</g>
</g>
<!-- Node2&#45;&gt;Node1 -->
<g id="edge1_Node000001_Node000002" class="edge">
<title>Node2&#45;&gt;Node1</title>
<g id="a_edge1_Node000001_Node000002"><a xlink:title=" ">
<path fill="none" stroke="#63b8ff" d="M773.95,-83.1C799.08,-77.2 827.08,-70.63 852.08,-64.76"/>
<polygon fill="#63b8ff" stroke="#63b8ff" points="773.31,-79.89 764.37,-85.58 774.91,-86.7 773.31,-79.89"/>
</a>
</g>
</g>
<!-- Node3 -->
<g id="Node000003" class="node">
<title>Node3</title>
<g id="a_Node000003"><a xlink:href="../../d2/d9d/classmal__packet__weaver_1_1_packet.html" target="_top" xlink:title="Base class for all packets.">
<polygon fill="white" stroke="#666666" points="307.25,-158.88 208,-158.88 208,-128.38 307.25,-128.38 307.25,-158.88"/>
<text text-anchor="start" x="216" y="-145.38" font-family="Times,serif" font-size="10.00">mal_packet_weaver::</text>
<text text-anchor="middle" x="257.62" y="-134.12" font-family="Times,serif" font-size="10.00">Packet</text>
</a>
</g>
</g>
<!-- Node3&#45;&gt;Node2 -->
<g id="edge2_Node000002_Node000003" class="edge">
<title>Node3&#45;&gt;Node2</title>
<g id="a_edge2_Node000002_Node000003"><a xlink:title=" ">
<path fill="none" stroke="#63b8ff" d="M318.39,-145.34C388.3,-146.33 507.27,-144.81 607.75,-127.62 616.23,-126.17 625.03,-124.17 633.66,-121.9"/>
<polygon fill="#63b8ff" stroke="#63b8ff" points="318.66,-141.83 308.6,-145.17 318.55,-148.83 318.66,-141.83"/>
</a>
</g>
</g>
<!-- Node9 -->
<g id="Node000009" class="node">
<title>Node9</title>
<g id="a_Node000009"><a xlink:href="../../dd/d2b/classmal__packet__weaver_1_1_derived_packet.html" target="_top" xlink:title="A templated class representing a derived packet from the base Packet class.">
<polygon fill="white" stroke="#666666" points="481.75,-115.88 344.25,-115.88 344.25,-85.38 481.75,-85.38 481.75,-115.88"/>
<text text-anchor="start" x="352.25" y="-102.38" font-family="Times,serif" font-size="10.00">mal_packet_weaver::</text>
<text text-anchor="middle" x="413" y="-91.12" font-family="Times,serif" font-size="10.00">DerivedPacket&lt; PacketType &gt;</text>
</a>
</g>
</g>
<!-- Node3&#45;&gt;Node9 -->
<g id="edge9_Node000009_Node000003" class="edge">
<title>Node3&#45;&gt;Node9</title>
<g id="a_edge9_Node000009_Node000003"><a xlink:title=" ">
<path fill="none" stroke="#63b8ff" d="M317.92,-127C330.45,-123.49 343.64,-119.79 356.04,-116.31"/>
<polygon fill="#63b8ff" stroke="#63b8ff" points="317.26,-123.83 308.58,-129.9 319.15,-130.57 317.26,-123.83"/>
</a>
</g>
</g>
<!-- Node4 -->
<g id="Node000004" class="node">
<title>Node4</title>
<g id="a_Node000004"><a xlink:title=" ">
<polygon fill="white" stroke="#666666" points="119.5,-244.25 0,-244.25 0,-225 119.5,-225 119.5,-244.25"/>
<text text-anchor="middle" x="59.75" y="-230.75" font-family="Times,serif" font-size="10.00">mal_toolkit::non_copyable</text>
</a>
</g>
</g>
<!-- Node4&#45;&gt;Node3 -->
<g id="edge3_Node000003_Node000004" class="edge">
<title>Node4&#45;&gt;Node3</title>
<g id="a_edge3_Node000003_Node000004"><a xlink:title=" ">
<path fill="none" stroke="#63b8ff" d="M103.48,-221.17C108.89,-219.36 114.34,-217.48 119.5,-215.62 151.22,-204.21 160.11,-203.22 190,-187.62 205.85,-179.35 222.65,-168.25 235.41,-159.26"/>
<polygon fill="#63b8ff" stroke="#63b8ff" points="102.61,-218.1 94.2,-224.55 104.79,-224.75 102.61,-218.1"/>
</a>
</g>
</g>
<!-- Node5 -->
<g id="Node000005" class="node">
<title>Node5</title>
<g id="a_Node000005"><a xlink:title=" ">
<polygon fill="white" stroke="#666666" points="112.75,-206.88 6.75,-206.88 6.75,-176.38 112.75,-176.38 112.75,-206.88"/>
<text text-anchor="start" x="14.75" y="-193.38" font-family="Times,serif" font-size="10.00">Measurer&lt; std::chrono</text>
<text text-anchor="middle" x="59.75" y="-182.12" font-family="Times,serif" font-size="10.00">::steady_clock &gt;</text>
</a>
</g>
</g>
<!-- Node5&#45;&gt;Node3 -->
<g id="edge4_Node000003_Node000005" class="edge">
<title>Node5&#45;&gt;Node3</title>
<g id="a_edge4_Node000003_Node000005"><a xlink:title=" ">
<path fill="none" stroke="#9a32cd" stroke-dasharray="5,2" d="M123.47,-176.78C144.62,-171.72 168.35,-165.98 190,-160.62 195.68,-159.22 201.62,-157.73 207.53,-156.24"/>
<polygon fill="#9a32cd" stroke="#9a32cd" points="122.9,-173.55 113.99,-179.28 124.53,-180.36 122.9,-173.55"/>
</a>
</g>
<text text-anchor="middle" x="163.75" y="-174.38" font-family="Times,serif" font-size="10.00" fill="grey"> measurer</text>
</g>
<!-- Node6 -->
<g id="Node000006" class="node">
<title>Node6</title>
<g id="a_Node000006"><a xlink:title=" ">
<polygon fill="white" stroke="#666666" points="111.62,-158.25 7.88,-158.25 7.88,-139 111.62,-139 111.62,-158.25"/>
<text text-anchor="middle" x="59.75" y="-144.75" font-family="Times,serif" font-size="10.00">const UniquePacketID</text>
</a>
</g>
</g>
<!-- Node6&#45;&gt;Node3 -->
<g id="edge5_Node000003_Node000006" class="edge">
<title>Node6&#45;&gt;Node3</title>
<g id="a_edge5_Node000003_Node000006"><a xlink:title=" ">
<path fill="none" stroke="#9a32cd" stroke-dasharray="5,2" d="M122.64,-147.05C150.11,-146.34 181.98,-145.53 207.74,-144.87"/>
<polygon fill="#9a32cd" stroke="#9a32cd" points="122.87,-143.56 112.96,-147.32 123.04,-150.56 122.87,-143.56"/>
</a>
</g>
<text text-anchor="middle" x="163.75" y="-147.38" font-family="Times,serif" font-size="10.00" fill="grey"> type</text>
</g>
<!-- Node7 -->
<g id="Node000007" class="node">
<title>Node7</title>
<g id="a_Node000007"><a xlink:title=" ">
<polygon fill="white" stroke="#666666" points="88,-121.25 31.5,-121.25 31.5,-102 88,-102 88,-121.25"/>
<text text-anchor="middle" x="59.75" y="-107.75" font-family="Times,serif" font-size="10.00">const float</text>
</a>
</g>
</g>
<!-- Node7&#45;&gt;Node3 -->
<g id="edge6_Node000003_Node000007" class="edge">
<title>Node7&#45;&gt;Node3</title>
<g id="a_edge6_Node000003_Node000007"><a xlink:title=" ">
<path fill="none" stroke="#9a32cd" stroke-dasharray="5,2" d="M98.89,-116.11C124.69,-119.33 159.49,-124.02 190,-129.38 195.71,-130.38 201.67,-131.52 207.59,-132.7"/>
<polygon fill="#9a32cd" stroke="#9a32cd" points="99.43,-112.52 89.07,-114.78 98.57,-119.47 99.43,-112.52"/>
</a>
</g>
<text text-anchor="middle" x="163.75" y="-130.38" font-family="Times,serif" font-size="10.00" fill="grey"> time_to_live</text>
</g>
<!-- Node8 -->
<g id="Node000008" class="node">
<title>Node8</title>
<g id="a_Node000008"><a xlink:title=" ">
<polygon fill="white" stroke="#666666" points="76.75,-71.25 42.75,-71.25 42.75,-52 76.75,-52 76.75,-71.25"/>
<text text-anchor="middle" x="59.75" y="-57.75" font-family="Times,serif" font-size="10.00">float</text>
</a>
</g>
</g>
<!-- Node8&#45;&gt;Node1 -->
<g id="edge11_Node000001_Node000008" class="edge">
<title>Node8&#45;&gt;Node1</title>
<g id="a_edge11_Node000001_Node000008"><a xlink:title=" ">
<path fill="none" stroke="#9a32cd" stroke-dasharray="5,2" d="M87.85,-58.46C125.61,-54.33 196.22,-47.62 256.62,-47.62 256.62,-47.62 256.62,-47.62 699.25,-47.62 750.33,-47.62 807.9,-47.62 852.14,-47.62"/>
<polygon fill="#9a32cd" stroke="#9a32cd" points="87.78,-55.06 78.23,-59.65 88.56,-62.01 87.78,-55.06"/>
</a>
</g>
<text text-anchor="middle" x="413" y="-49.38" font-family="Times,serif" font-size="10.00" fill="grey"> time_to_live</text>
</g>
<!-- Node8&#45;&gt;Node3 -->
<g id="edge7_Node000003_Node000008" class="edge">
<title>Node8&#45;&gt;Node3</title>
<g id="a_edge7_Node000003_Node000008"><a xlink:title=" ">
<path fill="none" stroke="#9a32cd" stroke-dasharray="5,2" d="M87.44,-69C113.99,-76.72 155.61,-89.86 190,-105.38 204.35,-111.85 219.62,-120.48 231.92,-127.91"/>
<polygon fill="#9a32cd" stroke="#9a32cd" points="88.63,-65.41 78.05,-66.03 86.71,-72.15 88.63,-65.41"/>
</a>
</g>
<text text-anchor="middle" x="163.75" y="-106.38" font-family="Times,serif" font-size="10.00" fill="grey"> timestamp_</text>
</g>
<!-- Node9&#45;&gt;Node2 -->
<g id="edge8_Node000002_Node000009" class="edge">
<title>Node9&#45;&gt;Node2</title>
<g id="a_edge8_Node000002_Node000009"><a xlink:title=" ">
<path fill="none" stroke="orange" stroke-dasharray="5,2" d="M492.95,-100.62C537.3,-100.62 591.92,-100.62 633.52,-100.62"/>
<polygon fill="orange" stroke="orange" points="493.21,-97.13 483.21,-100.62 493.21,-104.13 493.21,-97.13"/>
</a>
</g>
<text text-anchor="start" x="499.75" y="-113.62" font-family="Times,serif" font-size="10.00" fill="grey"> &lt; class NodeInfoResponse</text>
<text text-anchor="middle" x="553.75" y="-102.38" font-family="Times,serif" font-size="10.00" fill="grey">Packet &gt;</text>
</g>
<!-- Node10 -->
<g id="Node000010" class="node">
<title>Node10</title>
<g id="a_Node000010"><a xlink:title=" ">
<polygon fill="white" stroke="#666666" points="770.75,-19.25 625.75,-19.25 625.75,0 770.75,0 770.75,-19.25"/>
<text text-anchor="middle" x="698.25" y="-5.75" font-family="Times,serif" font-size="10.00">static constexpr UniquePacketID</text>
</a>
</g>
</g>
<!-- Node10&#45;&gt;Node1 -->
<g id="edge10_Node000001_Node000010" class="edge">
<title>Node10&#45;&gt;Node1</title>
<g id="a_edge10_Node000001_Node000010"><a xlink:title=" ">
<path fill="none" stroke="#9a32cd" stroke-dasharray="5,2" d="M781.91,-15.07C799.36,-16.87 817.6,-19.25 834.5,-22.38 840.6,-23.5 846.89,-24.85 853.17,-26.33"/>
<polygon fill="#9a32cd" stroke="#9a32cd" points="782.47,-11.51 772.17,-14.01 781.79,-18.47 782.47,-11.51"/>
</a>
</g>
<text text-anchor="middle" x="811.62" y="-24.38" font-family="Times,serif" font-size="10.00" fill="grey"> static_type</text>
</g>
</g>
</svg>
