<?xml version="1.0" encoding="UTF-8" standalone="no"?>
<!DOCTYPE svg PUBLIC "-//W3C//DTD SVG 1.1//EN"
 "http://www.w3.org/Graphics/SVG/1.1/DTD/svg11.dtd">
<!-- Generated by graphviz version 8.1.0 (20230707.0739)
 -->
<!-- Title: third_party/mal&#45;toolkit/mal&#45;toolkit/mal&#45;toolkit/detail/debug_with_source_location.hpp Pages: 1 -->
<svg width="306pt" height="306pt"
 viewBox="0.00 0.00 306.00 305.50" xmlns="http://www.w3.org/2000/svg" xmlns:xlink="http://www.w3.org/1999/xlink">
<g id="graph0" class="graph" transform="scale(1 1) rotate(0) translate(4 301.5)">
<title>third_party/mal&#45;toolkit/mal&#45;toolkit/mal&#45;toolkit/detail/debug_with_source_location.hpp</title>
<!-- Node1 -->
<g id="Node000001" class="node">
<title>Node1</title>
<g id="a_Node000001"><a xlink:title="This file provides utility functions for debugging and assertion handling.">
<polygon fill="#999999" stroke="#666666" points="223.12,-297.5 101.38,-297.5 101.38,-244.5 223.12,-244.5 223.12,-297.5"/>
<text text-anchor="start" x="109.38" y="-284" font-family="Times,serif" font-size="10.00">third_party/mal&#45;toolkit</text>
<text text-anchor="start" x="109.38" y="-272.75" font-family="Times,serif" font-size="10.00">/mal&#45;toolkit/mal&#45;toolkit</text>
<text text-anchor="start" x="109.38" y="-261.5" font-family="Times,serif" font-size="10.00">/detail/debug_with_source</text>
<text text-anchor="middle" x="162.25" y="-250.25" font-family="Times,serif" font-size="10.00">_location.hpp</text>
</a>
</g>
</g>
<!-- Node2 -->
<g id="Node000002" class="node">
<title>Node2</title>
<g id="a_Node000002"><a xlink:href="../../da/d7b/debug_8hpp.html" target="_top" xlink:title="Contains debugging&#45;related macros and utilities for assisting with debugging tasks.">
<polygon fill="white" stroke="#666666" points="216,-208.5 108.5,-208.5 108.5,-166.75 216,-166.75 216,-208.5"/>
<text text-anchor="start" x="116.5" y="-195" font-family="Times,serif" font-size="10.00">third_party/mal&#45;toolkit</text>
<text text-anchor="start" x="116.5" y="-183.75" font-family="Times,serif" font-size="10.00">/mal&#45;toolkit/mal&#45;toolkit</text>
<text text-anchor="middle" x="162.25" y="-172.5" font-family="Times,serif" font-size="10.00">/debug.hpp</text>
</a>
</g>
</g>
<!-- Node1&#45;&gt;Node2 -->
<g id="edge1_Node000001_Node000002" class="edge">
<title>Node1&#45;&gt;Node2</title>
<g id="a_edge1_Node000001_Node000002"><a xlink:title=" ">
<path fill="none" stroke="#63b8ff" d="M155.53,-233.4C155.4,-224.94 155.67,-216.24 156.33,-208.79"/>
<polygon fill="#63b8ff" stroke="#63b8ff" points="152.06,-233.39 155.92,-243.25 159.06,-233.13 152.06,-233.39"/>
</a>
</g>
</g>
<!-- Node2&#45;&gt;Node1 -->
<g id="edge2_Node000002_Node000001" class="edge">
<title>Node2&#45;&gt;Node1</title>
<g id="a_edge2_Node000002_Node000001"><a xlink:title=" ">
<path fill="none" stroke="#63b8ff" d="M168.83,-219.74C169.12,-227.83 169.04,-236.47 168.58,-244.25"/>
<polygon fill="#63b8ff" stroke="#63b8ff" points="172.27,-219.56 168.17,-209.79 165.28,-219.99 172.27,-219.56"/>
</a>
</g>
</g>
<!-- Node3 -->
<g id="Node000003" class="node">
<title>Node3</title>
<g id="a_Node000003"><a xlink:href="../../d3/d4b/debug__without__source__location_8hpp.html" target="_top" xlink:title="Provides utility functions for debugging and assertion handling without source location information.">
<polygon fill="white" stroke="#666666" points="134.5,-130.75 0,-130.75 0,-77.75 134.5,-77.75 134.5,-130.75"/>
<text text-anchor="start" x="8" y="-117.25" font-family="Times,serif" font-size="10.00">third_party/mal&#45;toolkit</text>
<text text-anchor="start" x="8" y="-106" font-family="Times,serif" font-size="10.00">/mal&#45;toolkit/mal&#45;toolkit</text>
<text text-anchor="start" x="8" y="-94.75" font-family="Times,serif" font-size="10.00">/detail/debug_without_source</text>
<text text-anchor="middle" x="67.25" y="-83.5" font-family="Times,serif" font-size="10.00">_location.hpp</text>
</a>
</g>
</g>
<!-- Node2&#45;&gt;Node3 -->
<g id="edge3_Node000002_Node000003" class="edge">
<title>Node2&#45;&gt;Node3</title>
<g id="a_edge3_Node000002_Node000003"><a xlink:title=" ">
<path fill="none" stroke="#63b8ff" d="M130.48,-159.41C119.77,-150.24 107.86,-140.04 97.29,-130.98"/>
<polygon fill="#63b8ff" stroke="#63b8ff" points="127.9,-162.66 137.77,-166.51 132.45,-157.35 127.9,-162.66"/>
</a>
</g>
</g>
<!-- Node4 -->
<g id="Node000004" class="node">
<title>Node4</title>
<g id="a_Node000004"><a xlink:href="../../d1/d8a/mal-toolkit_8hpp.html" target="_top" xlink:title="Main header file for the MAL Toolkit library, providing a comprehensive set of tools and utilities.">
<polygon fill="white" stroke="#666666" points="257,-41.75 149.5,-41.75 149.5,0 257,0 257,-41.75"/>
<text text-anchor="start" x="157.5" y="-28.25" font-family="Times,serif" font-size="10.00">third_party/mal&#45;toolkit</text>
<text text-anchor="start" x="157.5" y="-17" font-family="Times,serif" font-size="10.00">/mal&#45;toolkit/mal&#45;toolkit</text>
<text text-anchor="middle" x="203.25" y="-5.75" font-family="Times,serif" font-size="10.00">/mal&#45;toolkit.hpp</text>
</a>
</g>
</g>
<!-- Node2&#45;&gt;Node4 -->
<g id="edge4_Node000002_Node000004" class="edge">
<title>Node2&#45;&gt;Node4</title>
<g id="a_edge4_Node000002_Node000004"><a xlink:title=" ">
<path fill="none" stroke="#63b8ff" d="M165.96,-155.59C169.01,-133.6 174,-103.55 181.25,-77.75 184.63,-65.71 189.68,-52.68 194.09,-42.23"/>
<polygon fill="#63b8ff" stroke="#63b8ff" points="162.39,-154.91 164.55,-165.29 169.33,-155.83 162.39,-154.91"/>
</a>
</g>
</g>
<!-- Node5 -->
<g id="Node000005" class="node">
<title>Node5</title>
<g id="a_Node000005"><a xlink:href="../../d0/db4/measurer_8hpp.html" target="_top" xlink:title="Implements performance measurement and profiling utilities.">
<polygon fill="white" stroke="#666666" points="298,-125.12 190.5,-125.12 190.5,-83.38 298,-83.38 298,-125.12"/>
<text text-anchor="start" x="198.5" y="-111.62" font-family="Times,serif" font-size="10.00">third_party/mal&#45;toolkit</text>
<text text-anchor="start" x="198.5" y="-100.38" font-family="Times,serif" font-size="10.00">/mal&#45;toolkit/mal&#45;toolkit</text>
<text text-anchor="middle" x="244.25" y="-89.12" font-family="Times,serif" font-size="10.00">/measurer.hpp</text>
</a>
</g>
</g>
<!-- Node2&#45;&gt;Node5 -->
<g id="edge5_Node000002_Node000005" class="edge">
<title>Node2&#45;&gt;Node5</title>
<g id="a_edge5_Node000002_Node000005"><a xlink:title=" ">
<path fill="none" stroke="#63b8ff" d="M190.27,-158.82C201.32,-147.86 213.77,-135.5 223.93,-125.42"/>
<polygon fill="#63b8ff" stroke="#63b8ff" points="188.15,-155.98 183.52,-165.51 193.08,-160.95 188.15,-155.98"/>
</a>
</g>
</g>
<!-- Node5&#45;&gt;Node4 -->
<g id="edge6_Node000005_Node000004" class="edge">
<title>Node5&#45;&gt;Node4</title>
<g id="a_edge6_Node000005_Node000004"><a xlink:title=" ">
<path fill="none" stroke="#63b8ff" d="M229.27,-73.52C224,-63.05 218.19,-51.54 213.41,-42.04"/>
<polygon fill="#63b8ff" stroke="#63b8ff" points="226.49,-74.78 234.12,-82.13 232.74,-71.63 226.49,-74.78"/>
</a>
</g>
</g>
</g>
</svg>
