<?xml version="1.0" encoding="UTF-8" standalone="no"?>
<!DOCTYPE svg PUBLIC "-//W3C//DTD SVG 1.1//EN"
 "http://www.w3.org/Graphics/SVG/1.1/DTD/svg11.dtd">
<!-- Generated by graphviz version 8.1.0 (20230707.0739)
 -->
<!-- Title: third_party/mal&#45;toolkit/mal&#45;toolkit/mal&#45;toolkit/detail/debug_with_source_location.hpp Pages: 1 -->
<!--zoomable 839 -->

<svg id="main" version="1.1" xmlns="http://www.w3.org/2000/svg" xmlns:xlink="http://www.w3.org/1999/xlink" xml:space="preserve" onload="init(evt)">
<style type="text/css"><![CDATA[
.node, .edge {opacity: 0.7;}
.node.selected, .edge.selected {opacity: 1;}
.edge:hover path { stroke: red; }
.edge:hover polygon { stroke: red; fill: red; }
]]></style>

<defs>
  <circle id="rim" cx="0" cy="0" r="7"/>
  <circle id="rim2" cx="0" cy="0" r="3.5"/>
  <g id="zoomPlus">
    <use xlink:href="#rim" fill="#404040"><set attributeName="fill" to="#808080" begin="zoomplus.mouseover" end="zoomplus.mouseout"/></use>
    <path d="M-4,0h8M0,-4v8" fill="none" stroke="white" stroke-width="1.5" pointer-events="none"/>
  </g>
  <g id="zoomMin">
    <use xlink:href="#rim" fill="#404040"><set attributeName="fill" to="#808080" begin="zoomminus.mouseover" end="zoomminus.mouseout"/></use>
    <path d="M-4,0h8" fill="none" stroke="white" stroke-width="1.5" pointer-events="none"/>
  </g>
  <g id="arrowUp" transform="translate(30 24)">
    <use xlink:href="#rim"/>
    <path pointer-events="none" fill="none" stroke="white" stroke-width="1.5" d="M0,-3.0v7 M-2.5,-0.5L0,-3.0L2.5,-0.5"/>
  </g>
  <g id="arrowRight" transform="rotate(90) translate(36 -43)">
    <use xlink:href="#rim"/>
    <path pointer-events="none" fill="none" stroke="white" stroke-width="1.5" d="M0,-3.0v7 M-2.5,-0.5L0,-3.0L2.5,-0.5"/>
  </g>
  <g id="arrowDown" transform="rotate(180) translate(-30 -48)">
    <use xlink:href="#rim"/>
    <path pointer-events="none" fill="none" stroke="white" stroke-width="1.5" d="M0,-3.0v7 M-2.5,-0.5L0,-3.0L2.5,-0.5"/>
  </g>
  <g id="arrowLeft" transform="rotate(270) translate(-36 17)">
    <use xlink:href="#rim"/>
    <path pointer-events="none" fill="none" stroke="white" stroke-width="1.5" d="M0,-3.0v7 M-2.5,-0.5L0,-3.0L2.5,-0.5"/>
  </g>
  <g id="resetDef">
    <use xlink:href="#rim2" fill="#404040"><set attributeName="fill" to="#808080" begin="reset.mouseover" end="reset.mouseout"/></use>
  </g>
</defs>
<script type="application/ecmascript">
var viewWidth = 682;
var viewHeight = 839;
var sectionId = 'dynsection-1';
</script>
<script type="application/ecmascript" xlink:href="../../svg.min.js"/>
<svg id="graph" class="graph">
<g id="viewport">
<title>third_party/mal&#45;toolkit/mal&#45;toolkit/mal&#45;toolkit/detail/debug_with_source_location.hpp</title>
<!-- Node1 -->
<g id="Node000001" class="node">
<title>Node1</title>
<g id="a_Node000001"><a xlink:title="This file provides utility functions for debugging and assertion handling.">
<polygon fill="#999999" stroke="#666666" points="340.71,-830.5 218.96,-830.5 218.96,-777.5 340.71,-777.5 340.71,-830.5"/>
<text text-anchor="start" x="226.96" y="-817" font-family="Times,serif" font-size="10.00">third_party/mal&#45;toolkit</text>
<text text-anchor="start" x="226.96" y="-805.75" font-family="Times,serif" font-size="10.00">/mal&#45;toolkit/mal&#45;toolkit</text>
<text text-anchor="start" x="226.96" y="-794.5" font-family="Times,serif" font-size="10.00">/detail/debug_with_source</text>
<text text-anchor="middle" x="279.83" y="-783.25" font-family="Times,serif" font-size="10.00">_location.hpp</text>
</a>
</g>
</g>
<!-- Node2 -->
<g id="Node000002" class="node">
<title>Node2</title>
<g id="a_Node000002"><a xlink:href="../../da/d7b/debug_8hpp.html" target="_top" xlink:title="Contains debugging&#45;related macros and utilities for assisting with debugging tasks.">
<polygon fill="white" stroke="#666666" points="333.58,-741.5 226.08,-741.5 226.08,-699.75 333.58,-699.75 333.58,-741.5"/>
<text text-anchor="start" x="234.08" y="-728" font-family="Times,serif" font-size="10.00">third_party/mal&#45;toolkit</text>
<text text-anchor="start" x="234.08" y="-716.75" font-family="Times,serif" font-size="10.00">/mal&#45;toolkit/mal&#45;toolkit</text>
<text text-anchor="middle" x="279.83" y="-705.5" font-family="Times,serif" font-size="10.00">/debug.hpp</text>
</a>
</g>
</g>
<!-- Node1&#45;&gt;Node2 -->
<g id="edge1_Node000001_Node000002" class="edge">
<title>Node1&#45;&gt;Node2</title>
<g id="a_edge1_Node000001_Node000002"><a xlink:title=" ">
<path fill="none" stroke="#63b8ff" d="M273.11,-766.4C272.99,-757.94 273.25,-749.24 273.91,-741.79"/>
<polygon fill="#63b8ff" stroke="#63b8ff" points="269.65,-766.39 273.51,-776.25 276.64,-766.13 269.65,-766.39"/>
</a>
</g>
</g>
<!-- Node2&#45;&gt;Node1 -->
<g id="edge2_Node000002_Node000001" class="edge">
<title>Node2&#45;&gt;Node1</title>
<g id="a_edge2_Node000002_Node000001"><a xlink:title=" ">
<path fill="none" stroke="#63b8ff" d="M286.41,-752.74C286.71,-760.83 286.62,-769.47 286.16,-777.25"/>
<polygon fill="#63b8ff" stroke="#63b8ff" points="289.85,-752.56 285.75,-742.79 282.86,-752.99 289.85,-752.56"/>
</a>
</g>
</g>
<!-- Node3 -->
<g id="Node000003" class="node">
<title>Node3</title>
<g id="a_Node000003"><a xlink:href="../../d3/d4b/debug__without__source__location_8hpp.html" target="_top" xlink:title="Provides utility functions for debugging and assertion handling without source location information.">
<polygon fill="white" stroke="#666666" points="252.08,-663.75 117.58,-663.75 117.58,-610.75 252.08,-610.75 252.08,-663.75"/>
<text text-anchor="start" x="125.58" y="-650.25" font-family="Times,serif" font-size="10.00">third_party/mal&#45;toolkit</text>
<text text-anchor="start" x="125.58" y="-639" font-family="Times,serif" font-size="10.00">/mal&#45;toolkit/mal&#45;toolkit</text>
<text text-anchor="start" x="125.58" y="-627.75" font-family="Times,serif" font-size="10.00">/detail/debug_without_source</text>
<text text-anchor="middle" x="184.83" y="-616.5" font-family="Times,serif" font-size="10.00">_location.hpp</text>
</a>
</g>
</g>
<!-- Node2&#45;&gt;Node3 -->
<g id="edge3_Node000002_Node000003" class="edge">
<title>Node2&#45;&gt;Node3</title>
<g id="a_edge3_Node000002_Node000003"><a xlink:title=" ">
<path fill="none" stroke="#63b8ff" d="M248.07,-692.41C237.36,-683.24 225.44,-673.04 214.87,-663.98"/>
<polygon fill="#63b8ff" stroke="#63b8ff" points="245.48,-695.66 255.35,-699.51 250.03,-690.35 245.48,-695.66"/>
</a>
</g>
</g>
<!-- Node4 -->
<g id="Node000004" class="node">
<title>Node4</title>
<g id="a_Node000004"><a xlink:href="../../d1/d8a/mal-toolkit_8hpp.html" target="_top" xlink:title="Main header file for the MAL Toolkit library, providing a comprehensive set of tools and utilities.">
<polygon fill="white" stroke="#666666" points="374.58,-574.75 267.08,-574.75 267.08,-533 374.58,-533 374.58,-574.75"/>
<text text-anchor="start" x="275.08" y="-561.25" font-family="Times,serif" font-size="10.00">third_party/mal&#45;toolkit</text>
<text text-anchor="start" x="275.08" y="-550" font-family="Times,serif" font-size="10.00">/mal&#45;toolkit/mal&#45;toolkit</text>
<text text-anchor="middle" x="320.83" y="-538.75" font-family="Times,serif" font-size="10.00">/mal&#45;toolkit.hpp</text>
</a>
</g>
</g>
<!-- Node2&#45;&gt;Node4 -->
<g id="edge4_Node000002_Node000004" class="edge">
<title>Node2&#45;&gt;Node4</title>
<g id="a_edge4_Node000002_Node000004"><a xlink:title=" ">
<path fill="none" stroke="#63b8ff" d="M283.55,-688.59C286.59,-666.6 291.58,-636.55 298.83,-610.75 302.22,-598.71 307.26,-585.68 311.67,-575.23"/>
<polygon fill="#63b8ff" stroke="#63b8ff" points="279.97,-687.91 282.13,-698.29 286.91,-688.83 279.97,-687.91"/>
</a>
</g>
</g>
<!-- Node24 -->
<g id="Node000024" class="node">
<title>Node24</title>
<g id="a_Node000024"><a xlink:href="../../d0/db4/measurer_8hpp.html" target="_top" xlink:title="Implements performance measurement and profiling utilities.">
<polygon fill="white" stroke="#666666" points="415.58,-658.12 308.08,-658.12 308.08,-616.38 415.58,-616.38 415.58,-658.12"/>
<text text-anchor="start" x="316.08" y="-644.62" font-family="Times,serif" font-size="10.00">third_party/mal&#45;toolkit</text>
<text text-anchor="start" x="316.08" y="-633.38" font-family="Times,serif" font-size="10.00">/mal&#45;toolkit/mal&#45;toolkit</text>
<text text-anchor="middle" x="361.83" y="-622.12" font-family="Times,serif" font-size="10.00">/measurer.hpp</text>
</a>
</g>
</g>
<!-- Node2&#45;&gt;Node24 -->
<g id="edge35_Node000002_Node000024" class="edge">
<title>Node2&#45;&gt;Node24</title>
<g id="a_edge35_Node000002_Node000024"><a xlink:title=" ">
<path fill="none" stroke="#63b8ff" d="M307.85,-691.82C318.9,-680.86 331.35,-668.5 341.51,-658.42"/>
<polygon fill="#63b8ff" stroke="#63b8ff" points="305.74,-688.98 301.1,-698.51 310.67,-693.95 305.74,-688.98"/>
</a>
</g>
</g>
<!-- Node5 -->
<g id="Node000005" class="node">
<title>Node5</title>
<g id="a_Node000005"><a xlink:href="../../dd/d3a/common_8hpp.html" target="_top" xlink:title=" ">
<polygon fill="white" stroke="#666666" points="386.21,-497 255.46,-497 255.46,-466.5 386.21,-466.5 386.21,-497"/>
<text text-anchor="start" x="263.46" y="-483.5" font-family="Times,serif" font-size="10.00">mal&#45;packet&#45;weaver/mal</text>
<text text-anchor="middle" x="320.83" y="-472.25" font-family="Times,serif" font-size="10.00">&#45;packet&#45;weaver/common.hpp</text>
</a>
</g>
</g>
<!-- Node4&#45;&gt;Node5 -->
<g id="edge5_Node000004_Node000005" class="edge">
<title>Node4&#45;&gt;Node5</title>
<g id="a_edge5_Node000004_Node000005"><a xlink:title=" ">
<path fill="none" stroke="#63b8ff" d="M320.83,-521.71C320.83,-513.17 320.83,-504.31 320.83,-497.2"/>
<polygon fill="#63b8ff" stroke="#63b8ff" points="317.33,-521.59 320.83,-531.59 324.33,-521.59 317.33,-521.59"/>
</a>
</g>
</g>
<!-- Node6 -->
<g id="Node000006" class="node">
<title>Node6</title>
<g id="a_Node000006"><a xlink:href="../../d3/daa/encryption-interface_8hpp.html" target="_top" xlink:title=" ">
<polygon fill="white" stroke="#666666" points="127.46,-430.5 10.21,-430.5 10.21,-388.75 127.46,-388.75 127.46,-430.5"/>
<text text-anchor="start" x="18.21" y="-417" font-family="Times,serif" font-size="10.00">mal&#45;packet&#45;weaver/mal</text>
<text text-anchor="start" x="18.21" y="-405.75" font-family="Times,serif" font-size="10.00">&#45;packet&#45;weaver/crypto</text>
<text text-anchor="middle" x="68.83" y="-394.5" font-family="Times,serif" font-size="10.00">/encryption&#45;interface.hpp</text>
</a>
</g>
</g>
<!-- Node5&#45;&gt;Node6 -->
<g id="edge6_Node000005_Node000006" class="edge">
<title>Node5&#45;&gt;Node6</title>
<g id="a_edge6_Node000005_Node000006"><a xlink:title=" ">
<path fill="none" stroke="#63b8ff" d="M257.62,-463.16C217.8,-452.08 166.74,-437.87 127.76,-427.02"/>
<polygon fill="#63b8ff" stroke="#63b8ff" points="256.43,-466.74 267.01,-466.05 258.31,-460 256.43,-466.74"/>
</a>
</g>
</g>
<!-- Node13 -->
<g id="Node000013" class="node">
<title>Node13</title>
<g id="a_Node000013"><a xlink:href="../../de/d3a/crypto-common_8hpp.html" target="_top" xlink:title=" ">
<polygon fill="white" stroke="#666666" points="284.58,-430.5 153.08,-430.5 153.08,-388.75 284.58,-388.75 284.58,-430.5"/>
<text text-anchor="start" x="161.08" y="-417" font-family="Times,serif" font-size="10.00">mal&#45;packet&#45;weaver/mal</text>
<text text-anchor="start" x="161.08" y="-405.75" font-family="Times,serif" font-size="10.00">&#45;packet&#45;weaver/crypto</text>
<text text-anchor="middle" x="218.83" y="-394.5" font-family="Times,serif" font-size="10.00">/openssl/crypto&#45;common.hpp</text>
</a>
</g>
</g>
<!-- Node5&#45;&gt;Node13 -->
<g id="edge15_Node000005_Node000013" class="edge">
<title>Node5&#45;&gt;Node13</title>
<g id="a_edge15_Node000005_Node000013"><a xlink:title=" ">
<path fill="none" stroke="#63b8ff" d="M290.87,-460.15C277.5,-450.96 261.78,-440.15 248.45,-430.99"/>
<polygon fill="#63b8ff" stroke="#63b8ff" points="288.48,-463.44 298.7,-466.22 292.44,-457.67 288.48,-463.44"/>
</a>
</g>
</g>
<!-- Node16 -->
<g id="Node000016" class="node">
<title>Node16</title>
<g id="a_Node000016"><a xlink:href="../../d8/d1a/packet-dispatcher_8cpp.html" target="_top" xlink:title=" ">
<polygon fill="white" stroke="#666666" points="673.58,-119.5 566.08,-119.5 566.08,-77.75 673.58,-77.75 673.58,-119.5"/>
<text text-anchor="start" x="574.08" y="-106" font-family="Times,serif" font-size="10.00">mal&#45;packet&#45;weaver/mal</text>
<text text-anchor="start" x="574.08" y="-94.75" font-family="Times,serif" font-size="10.00">&#45;packet&#45;weaver/packet</text>
<text text-anchor="middle" x="619.83" y="-83.5" font-family="Times,serif" font-size="10.00">&#45;dispatcher.cpp</text>
</a>
</g>
</g>
<!-- Node5&#45;&gt;Node16 -->
<g id="edge22_Node000005_Node000016" class="edge">
<title>Node5&#45;&gt;Node16</title>
<g id="a_edge22_Node000005_Node000016"><a xlink:title=" ">
<path fill="none" stroke="#63b8ff" d="M397.28,-475.96C487.04,-465.7 623.83,-433.56 623.83,-332.88 623.83,-332.88 623.83,-332.88 623.83,-253.12 623.83,-205.41 621.88,-149.37 620.7,-119.98"/>
<polygon fill="#63b8ff" stroke="#63b8ff" points="397.15,-472.56 387.58,-477.1 397.9,-479.52 397.15,-472.56"/>
</a>
</g>
</g>
<!-- Node17 -->
<g id="Node000017" class="node">
<title>Node17</title>
<g id="a_Node000017"><a xlink:href="../../d2/d3f/packet_8hpp.html" target="_top" xlink:title=" ">
<polygon fill="white" stroke="#666666" points="461.46,-269.38 338.21,-269.38 338.21,-238.88 461.46,-238.88 461.46,-269.38"/>
<text text-anchor="start" x="346.21" y="-255.88" font-family="Times,serif" font-size="10.00">mal&#45;packet&#45;weaver/mal</text>
<text text-anchor="middle" x="399.83" y="-244.62" font-family="Times,serif" font-size="10.00">&#45;packet&#45;weaver/packet.hpp</text>
</a>
</g>
</g>
<!-- Node5&#45;&gt;Node17 -->
<g id="edge23_Node000005_Node000017" class="edge">
<title>Node5&#45;&gt;Node17</title>
<g id="a_edge23_Node000005_Node000017"><a xlink:title=" ">
<path fill="none" stroke="#63b8ff" d="M318.4,-455.62C316.19,-421.08 316.24,-357.88 339.83,-311 348.34,-294.09 364.21,-279.67 377.48,-269.71"/>
<polygon fill="#63b8ff" stroke="#63b8ff" points="314.96,-455.47 319.21,-465.17 321.94,-454.93 314.96,-455.47"/>
</a>
</g>
</g>
<!-- Node20 -->
<g id="Node000020" class="node">
<title>Node20</title>
<g id="a_Node000020"><a xlink:href="../../d9/d85/packet__impl_2packet_8hpp.html" target="_top" xlink:title=" ">
<polygon fill="white" stroke="#666666" points="461.58,-430.5 354.08,-430.5 354.08,-388.75 461.58,-388.75 461.58,-430.5"/>
<text text-anchor="start" x="362.08" y="-417" font-family="Times,serif" font-size="10.00">mal&#45;packet&#45;weaver/mal</text>
<text text-anchor="start" x="362.08" y="-405.75" font-family="Times,serif" font-size="10.00">&#45;packet&#45;weaver/packet</text>
<text text-anchor="middle" x="407.83" y="-394.5" font-family="Times,serif" font-size="10.00">_impl/packet.hpp</text>
</a>
</g>
</g>
<!-- Node5&#45;&gt;Node20 -->
<g id="edge30_Node000005_Node000020" class="edge">
<title>Node5&#45;&gt;Node20</title>
<g id="a_edge30_Node000005_Node000020"><a xlink:title=" ">
<path fill="none" stroke="#63b8ff" d="M347.38,-459.35C358.57,-450.33 371.53,-439.89 382.57,-430.99"/>
<polygon fill="#63b8ff" stroke="#63b8ff" points="345.45,-457.22 339.86,-466.22 349.84,-462.67 345.45,-457.22"/>
</a>
</g>
</g>
<!-- Node7 -->
<g id="Node000007" class="node">
<title>Node7</title>
<g id="a_Node000007"><a xlink:href="../../d2/d62/crypto_8hpp.html" target="_top" xlink:title=" ">
<polygon fill="white" stroke="#666666" points="227.46,-191.62 104.21,-191.62 104.21,-161.12 227.46,-161.12 227.46,-191.62"/>
<text text-anchor="start" x="112.21" y="-178.12" font-family="Times,serif" font-size="10.00">mal&#45;packet&#45;weaver/mal</text>
<text text-anchor="middle" x="165.83" y="-166.88" font-family="Times,serif" font-size="10.00">&#45;packet&#45;weaver/crypto.hpp</text>
</a>
</g>
</g>
<!-- Node6&#45;&gt;Node7 -->
<g id="edge7_Node000006_Node000007" class="edge">
<title>Node6&#45;&gt;Node7</title>
<g id="a_edge7_Node000006_Node000007"><a xlink:title=" ">
<path fill="none" stroke="#63b8ff" d="M27.87,-381.41C18.97,-373.33 10.75,-363.67 5.83,-352.75 -1.78,-335.83 -2.03,-327.81 5.83,-311 32.59,-253.79 97.21,-212.49 135.64,-191.99"/>
<polygon fill="#63b8ff" stroke="#63b8ff" points="25.26,-384.62 35.17,-388.37 29.76,-379.26 25.26,-384.62"/>
</a>
</g>
</g>
<!-- Node12 -->
<g id="Node000012" class="node">
<title>Node12</title>
<g id="a_Node000012"><a xlink:href="../../df/d27/aes_8hpp.html" target="_top" xlink:title=" ">
<polygon fill="white" stroke="#666666" points="122.58,-352.75 15.08,-352.75 15.08,-311 122.58,-311 122.58,-352.75"/>
<text text-anchor="start" x="23.08" y="-339.25" font-family="Times,serif" font-size="10.00">mal&#45;packet&#45;weaver/mal</text>
<text text-anchor="start" x="23.08" y="-328" font-family="Times,serif" font-size="10.00">&#45;packet&#45;weaver/crypto</text>
<text text-anchor="middle" x="68.83" y="-316.75" font-family="Times,serif" font-size="10.00">/openssl/aes.hpp</text>
</a>
</g>
</g>
<!-- Node6&#45;&gt;Node12 -->
<g id="edge13_Node000006_Node000012" class="edge">
<title>Node6&#45;&gt;Node12</title>
<g id="a_edge13_Node000006_Node000012"><a xlink:title=" ">
<path fill="none" stroke="#63b8ff" d="M68.83,-377.56C68.83,-369.36 68.83,-360.71 68.83,-353.23"/>
<polygon fill="#63b8ff" stroke="#63b8ff" points="65.33,-377.33 68.83,-387.33 72.33,-377.33 65.33,-377.33"/>
</a>
</g>
</g>
<!-- Node8 -->
<g id="Node000008" class="node">
<title>Node8</title>
<g id="a_Node000008"><a xlink:href="../../d4/d5e/session_8hpp.html" target="_top" xlink:title=" ">
<polygon fill="white" stroke="#666666" points="327.21,-113.88 202.46,-113.88 202.46,-83.38 327.21,-83.38 327.21,-113.88"/>
<text text-anchor="start" x="210.46" y="-100.38" font-family="Times,serif" font-size="10.00">mal&#45;packet&#45;weaver/mal</text>
<text text-anchor="middle" x="264.83" y="-89.12" font-family="Times,serif" font-size="10.00">&#45;packet&#45;weaver/session.hpp</text>
</a>
</g>
</g>
<!-- Node7&#45;&gt;Node8 -->
<g id="edge8_Node000007_Node000008" class="edge">
<title>Node7&#45;&gt;Node8</title>
<g id="a_edge8_Node000007_Node000008"><a xlink:title=" ">
<path fill="none" stroke="#63b8ff" d="M193.22,-154.42C209.94,-141.63 230.89,-125.6 245.8,-114.19"/>
<polygon fill="#63b8ff" stroke="#63b8ff" points="191.74,-151.91 185.92,-160.77 195.99,-157.47 191.74,-151.91"/>
</a>
</g>
</g>
<!-- Node9 -->
<g id="Node000009" class="node">
<title>Node9</title>
<g id="a_Node000009"><a xlink:href="../../de/d5c/dispatcher-session_8hpp.html" target="_top" xlink:title=" ">
<polygon fill="white" stroke="#666666" points="464.71,-41.75 342.96,-41.75 342.96,0 464.71,0 464.71,-41.75"/>
<text text-anchor="start" x="350.96" y="-28.25" font-family="Times,serif" font-size="10.00">mal&#45;packet&#45;weaver/mal</text>
<text text-anchor="start" x="350.96" y="-17" font-family="Times,serif" font-size="10.00">&#45;packet&#45;weaver/dispatcher</text>
<text text-anchor="middle" x="403.83" y="-5.75" font-family="Times,serif" font-size="10.00">&#45;session.hpp</text>
</a>
</g>
</g>
<!-- Node8&#45;&gt;Node9 -->
<g id="edge9_Node000008_Node000009" class="edge">
<title>Node8&#45;&gt;Node9</title>
<g id="a_edge9_Node000008_Node000009"><a xlink:title=" ">
<path fill="none" stroke="#63b8ff" d="M301.1,-77.86C321.26,-66.88 346.29,-53.23 366.61,-42.16"/>
<polygon fill="#63b8ff" stroke="#63b8ff" points="299.74,-75.16 292.63,-83.02 303.09,-81.31 299.74,-75.16"/>
</a>
</g>
</g>
<!-- Node10 -->
<g id="Node000010" class="node">
<title>Node10</title>
<g id="a_Node000010"><a xlink:href="../../d9/d1a/session_8cpp.html" target="_top" xlink:title=" ">
<polygon fill="white" stroke="#666666" points="186.83,-36.12 62.83,-36.12 62.83,-5.62 186.83,-5.62 186.83,-36.12"/>
<text text-anchor="start" x="70.83" y="-22.62" font-family="Times,serif" font-size="10.00">mal&#45;packet&#45;weaver/mal</text>
<text text-anchor="middle" x="124.83" y="-11.38" font-family="Times,serif" font-size="10.00">&#45;packet&#45;weaver/session.cpp</text>
</a>
</g>
</g>
<!-- Node8&#45;&gt;Node10 -->
<g id="edge10_Node000008_Node000010" class="edge">
<title>Node8&#45;&gt;Node10</title>
<g id="a_edge10_Node000008_Node000010"><a xlink:title=" ">
<path fill="none" stroke="#63b8ff" d="M228.36,-77.89C204.37,-64.91 173.51,-48.21 151.74,-36.44"/>
<polygon fill="#63b8ff" stroke="#63b8ff" points="226.38,-81.34 236.84,-83.02 229.71,-75.18 226.38,-81.34"/>
</a>
</g>
</g>
<!-- Node11 -->
<g id="Node000011" class="node">
<title>Node11</title>
<g id="a_Node000011"><a xlink:href="../../d1/d16/session_8inl.html" target="_top" xlink:title=" ">
<polygon fill="white" stroke="#666666" points="324.58,-36.12 205.08,-36.12 205.08,-5.62 324.58,-5.62 324.58,-36.12"/>
<text text-anchor="start" x="213.08" y="-22.62" font-family="Times,serif" font-size="10.00">mal&#45;packet&#45;weaver/mal</text>
<text text-anchor="middle" x="264.83" y="-11.38" font-family="Times,serif" font-size="10.00">&#45;packet&#45;weaver/session.inl</text>
</a>
</g>
</g>
<!-- Node8&#45;&gt;Node11 -->
<g id="edge11_Node000008_Node000011" class="edge">
<title>Node8&#45;&gt;Node11</title>
<g id="a_edge11_Node000008_Node000011"><a xlink:title=" ">
<path fill="none" stroke="#63b8ff" d="M258.43,-72.34C257.75,-60.4 258.07,-46.59 259.38,-36.44"/>
<polygon fill="#63b8ff" stroke="#63b8ff" points="255,-72.37 259.38,-82.02 261.98,-71.75 255,-72.37"/>
</a>
</g>
</g>
<!-- Node11&#45;&gt;Node8 -->
<g id="edge12_Node000011_Node000008" class="edge">
<title>Node11&#45;&gt;Node8</title>
<g id="a_edge12_Node000011_Node000008"><a xlink:title=" ">
<path fill="none" stroke="#63b8ff" d="M271.24,-47.11C271.91,-59.04 271.6,-72.85 270.29,-83.02"/>
<polygon fill="#63b8ff" stroke="#63b8ff" points="274.66,-47.09 270.29,-37.44 267.69,-47.71 274.66,-47.09"/>
</a>
</g>
</g>
<!-- Node12&#45;&gt;Node7 -->
<g id="edge14_Node000012_Node000007" class="edge">
<title>Node12&#45;&gt;Node7</title>
<g id="a_edge14_Node000012_Node000007"><a xlink:title=" ">
<path fill="none" stroke="#63b8ff" d="M87.27,-301.71C107.97,-268.93 140.76,-217.05 156.63,-191.94"/>
<polygon fill="#63b8ff" stroke="#63b8ff" points="83.9,-299.48 81.51,-309.81 89.82,-303.22 83.9,-299.48"/>
</a>
</g>
</g>
<!-- Node13&#45;&gt;Node7 -->
<g id="edge16_Node000013_Node000007" class="edge">
<title>Node13&#45;&gt;Node7</title>
<g id="a_edge16_Node000013_Node000007"><a xlink:title=" ">
<path fill="none" stroke="#63b8ff" d="M187.3,-380.27C180.26,-372.14 173.73,-362.74 169.83,-352.75 148.06,-296.84 157.43,-223.13 162.9,-192.12"/>
<polygon fill="#63b8ff" stroke="#63b8ff" points="184.36,-382.33 193.74,-387.26 189.49,-377.55 184.36,-382.33"/>
</a>
</g>
</g>
<!-- Node13&#45;&gt;Node12 -->
<g id="edge17_Node000013_Node000012" class="edge">
<title>Node13&#45;&gt;Node12</title>
<g id="a_edge17_Node000013_Node000012"><a xlink:title=" ">
<path fill="none" stroke="#63b8ff" d="M169.03,-383.47C149.58,-373.65 127.57,-362.54 109.14,-353.23"/>
<polygon fill="#63b8ff" stroke="#63b8ff" points="167.13,-386.94 177.64,-388.33 170.29,-380.69 167.13,-386.94"/>
</a>
</g>
</g>
<!-- Node14 -->
<g id="Node000014" class="node">
<title>Node14</title>
<g id="a_Node000014"><a xlink:href="../../d8/d6d/sha_8hpp.html" target="_top" xlink:title=" ">
<polygon fill="white" stroke="#666666" points="286.58,-352.75 179.08,-352.75 179.08,-311 286.58,-311 286.58,-352.75"/>
<text text-anchor="start" x="187.08" y="-339.25" font-family="Times,serif" font-size="10.00">mal&#45;packet&#45;weaver/mal</text>
<text text-anchor="start" x="187.08" y="-328" font-family="Times,serif" font-size="10.00">&#45;packet&#45;weaver/crypto</text>
<text text-anchor="middle" x="232.83" y="-316.75" font-family="Times,serif" font-size="10.00">/openssl/sha.hpp</text>
</a>
</g>
</g>
<!-- Node13&#45;&gt;Node14 -->
<g id="edge18_Node000013_Node000014" class="edge">
<title>Node13&#45;&gt;Node14</title>
<g id="a_edge18_Node000013_Node000014"><a xlink:title=" ">
<path fill="none" stroke="#63b8ff" d="M224.57,-377.56C226.09,-369.36 227.69,-360.71 229.07,-353.23"/>
<polygon fill="#63b8ff" stroke="#63b8ff" points="220.96,-376.86 222.59,-387.33 227.84,-378.13 220.96,-376.86"/>
</a>
</g>
</g>
<!-- Node14&#45;&gt;Node7 -->
<g id="edge19_Node000014_Node000007" class="edge">
<title>Node14&#45;&gt;Node7</title>
<g id="a_edge19_Node000014_Node000007"><a xlink:title=" ">
<path fill="none" stroke="#63b8ff" d="M216.58,-301.02C212.26,-292.68 207.71,-283.57 203.83,-275 190.71,-246 177.77,-211.03 170.9,-191.8"/>
<polygon fill="#63b8ff" stroke="#63b8ff" points="213.93,-302.49 221.69,-309.7 220.12,-299.22 213.93,-302.49"/>
</a>
</g>
</g>
<!-- Node15 -->
<g id="Node000015" class="node">
<title>Node15</title>
<g id="a_Node000015"><a xlink:href="../../d4/d28/ecdsa_8hpp.html" target="_top" xlink:title=" ">
<polygon fill="white" stroke="#666666" points="320.58,-275 213.08,-275 213.08,-233.25 320.58,-233.25 320.58,-275"/>
<text text-anchor="start" x="221.08" y="-261.5" font-family="Times,serif" font-size="10.00">mal&#45;packet&#45;weaver/mal</text>
<text text-anchor="start" x="221.08" y="-250.25" font-family="Times,serif" font-size="10.00">&#45;packet&#45;weaver/crypto</text>
<text text-anchor="middle" x="266.83" y="-239" font-family="Times,serif" font-size="10.00">/openssl/ecdsa.hpp</text>
</a>
</g>
</g>
<!-- Node14&#45;&gt;Node15 -->
<g id="edge20_Node000014_Node000015" class="edge">
<title>Node14&#45;&gt;Node15</title>
<g id="a_edge20_Node000014_Node000015"><a xlink:title=" ">
<path fill="none" stroke="#63b8ff" d="M246.4,-300.65C250.19,-292.2 254.23,-283.21 257.7,-275.48"/>
<polygon fill="#63b8ff" stroke="#63b8ff" points="242.85,-299.02 241.94,-309.58 249.23,-301.89 242.85,-299.02"/>
</a>
</g>
</g>
<!-- Node15&#45;&gt;Node7 -->
<g id="edge21_Node000015_Node000007" class="edge">
<title>Node15&#45;&gt;Node7</title>
<g id="a_edge21_Node000015_Node000007"><a xlink:title=" ">
<path fill="none" stroke="#63b8ff" d="M230.99,-226.24C215.6,-214.7 198.22,-201.67 185.29,-191.96"/>
<polygon fill="#63b8ff" stroke="#63b8ff" points="228.67,-229.63 238.77,-232.83 232.87,-224.03 228.67,-229.63"/>
</a>
</g>
</g>
<!-- Node17&#45;&gt;Node8 -->
<g id="edge29_Node000017_Node000008" class="edge">
<title>Node17&#45;&gt;Node8</title>
<g id="a_edge29_Node000017_Node000008"><a xlink:title=" ">
<path fill="none" stroke="#63b8ff" d="M379.91,-230.48C351.75,-198.45 301.11,-140.87 277.54,-114.07"/>
<polygon fill="#63b8ff" stroke="#63b8ff" points="377.66,-232.21 386.89,-237.41 382.91,-227.59 377.66,-232.21"/>
</a>
</g>
</g>
<!-- Node18 -->
<g id="Node000018" class="node">
<title>Node18</title>
<g id="a_Node000018"><a xlink:href="../../df/d1d/packet-dispatcher_8hpp.html" target="_top" xlink:title=" ">
<polygon fill="white" stroke="#666666" points="539.58,-197.25 432.08,-197.25 432.08,-155.5 539.58,-155.5 539.58,-197.25"/>
<text text-anchor="start" x="440.08" y="-183.75" font-family="Times,serif" font-size="10.00">mal&#45;packet&#45;weaver/mal</text>
<text text-anchor="start" x="440.08" y="-172.5" font-family="Times,serif" font-size="10.00">&#45;packet&#45;weaver/packet</text>
<text text-anchor="middle" x="485.83" y="-161.25" font-family="Times,serif" font-size="10.00">&#45;dispatcher.hpp</text>
</a>
</g>
</g>
<!-- Node17&#45;&gt;Node18 -->
<g id="edge24_Node000017_Node000018" class="edge">
<title>Node17&#45;&gt;Node18</title>
<g id="a_edge24_Node000017_Node000018"><a xlink:title=" ">
<path fill="none" stroke="#63b8ff" d="M424.34,-231.54C436.42,-220.9 450.92,-208.13 462.8,-197.66"/>
<polygon fill="#63b8ff" stroke="#63b8ff" points="422.61,-228.28 417.42,-237.52 427.23,-233.54 422.61,-228.28"/>
</a>
</g>
</g>
<!-- Node18&#45;&gt;Node9 -->
<g id="edge25_Node000018_Node000009" class="edge">
<title>Node18&#45;&gt;Node9</title>
<g id="a_edge25_Node000018_Node000009"><a xlink:title=" ">
<path fill="none" stroke="#63b8ff" d="M447.33,-148.36C438.03,-140.1 429,-130.3 422.83,-119.5 408.97,-95.21 405.04,-62.57 404.03,-41.87"/>
<polygon fill="#63b8ff" stroke="#63b8ff" points="444.6,-151.47 454.51,-155.21 449.09,-146.11 444.6,-151.47"/>
</a>
</g>
</g>
<!-- Node18&#45;&gt;Node16 -->
<g id="edge26_Node000018_Node000016" class="edge">
<title>Node18&#45;&gt;Node16</title>
<g id="a_edge26_Node000018_Node000016"><a xlink:title=" ">
<path fill="none" stroke="#63b8ff" d="M531.04,-149.82C548.24,-140.1 567.59,-129.16 583.82,-119.98"/>
<polygon fill="#63b8ff" stroke="#63b8ff" points="529.73,-147.11 522.74,-155.08 533.17,-153.2 529.73,-147.11"/>
</a>
</g>
</g>
<!-- Node19 -->
<g id="Node000019" class="node">
<title>Node19</title>
<g id="a_Node000019"><a xlink:href="../../d2/d7d/packet-dispatcher_8inl.html" target="_top" xlink:title=" ">
<polygon fill="white" stroke="#666666" points="539.58,-119.5 432.08,-119.5 432.08,-77.75 539.58,-77.75 539.58,-119.5"/>
<text text-anchor="start" x="440.08" y="-106" font-family="Times,serif" font-size="10.00">mal&#45;packet&#45;weaver/mal</text>
<text text-anchor="start" x="440.08" y="-94.75" font-family="Times,serif" font-size="10.00">&#45;packet&#45;weaver/packet</text>
<text text-anchor="middle" x="485.83" y="-83.5" font-family="Times,serif" font-size="10.00">&#45;dispatcher.inl</text>
</a>
</g>
</g>
<!-- Node18&#45;&gt;Node19 -->
<g id="edge27_Node000018_Node000019" class="edge">
<title>Node18&#45;&gt;Node19</title>
<g id="a_edge27_Node000018_Node000019"><a xlink:title=" ">
<path fill="none" stroke="#63b8ff" d="M479.18,-144.31C478.94,-136.11 479.14,-127.46 479.77,-119.98"/>
<polygon fill="#63b8ff" stroke="#63b8ff" points="475.73,-144.28 479.78,-154.08 482.72,-143.9 475.73,-144.28"/>
</a>
</g>
</g>
<!-- Node19&#45;&gt;Node18 -->
<g id="edge28_Node000019_Node000018" class="edge">
<title>Node19&#45;&gt;Node18</title>
<g id="a_edge28_Node000019_Node000018"><a xlink:title=" ">
<path fill="none" stroke="#63b8ff" d="M492.49,-130.75C492.72,-138.96 492.52,-147.6 491.89,-155.08"/>
<polygon fill="#63b8ff" stroke="#63b8ff" points="495.94,-130.77 491.9,-120.98 488.95,-131.16 495.94,-130.77"/>
</a>
</g>
</g>
<!-- Node21 -->
<g id="Node000021" class="node">
<title>Node21</title>
<g id="a_Node000021"><a xlink:href="../../d3/d53/packet-factory_8hpp.html" target="_top" xlink:title=" ">
<polygon fill="white" stroke="#666666" points="466.46,-352.75 349.21,-352.75 349.21,-311 466.46,-311 466.46,-352.75"/>
<text text-anchor="start" x="357.21" y="-339.25" font-family="Times,serif" font-size="10.00">mal&#45;packet&#45;weaver/mal</text>
<text text-anchor="start" x="357.21" y="-328" font-family="Times,serif" font-size="10.00">&#45;packet&#45;weaver/packet</text>
<text text-anchor="middle" x="407.83" y="-316.75" font-family="Times,serif" font-size="10.00">_impl/packet&#45;factory.hpp</text>
</a>
</g>
</g>
<!-- Node20&#45;&gt;Node21 -->
<g id="edge31_Node000020_Node000021" class="edge">
<title>Node20&#45;&gt;Node21</title>
<g id="a_edge31_Node000020_Node000021"><a xlink:title=" ">
<path fill="none" stroke="#63b8ff" d="M407.83,-377.56C407.83,-369.36 407.83,-360.71 407.83,-353.23"/>
<polygon fill="#63b8ff" stroke="#63b8ff" points="404.33,-377.33 407.83,-387.33 411.33,-377.33 404.33,-377.33"/>
</a>
</g>
</g>
<!-- Node23 -->
<g id="Node000023" class="node">
<title>Node23</title>
<g id="a_Node000023"><a xlink:href="../../d3/dae/packet_8cpp.html" target="_top" xlink:title=" ">
<polygon fill="white" stroke="#666666" points="591.58,-352.75 484.08,-352.75 484.08,-311 591.58,-311 591.58,-352.75"/>
<text text-anchor="start" x="492.08" y="-339.25" font-family="Times,serif" font-size="10.00">mal&#45;packet&#45;weaver/mal</text>
<text text-anchor="start" x="492.08" y="-328" font-family="Times,serif" font-size="10.00">&#45;packet&#45;weaver/packet</text>
<text text-anchor="middle" x="537.83" y="-316.75" font-family="Times,serif" font-size="10.00">_impl/packet.cpp</text>
</a>
</g>
</g>
<!-- Node20&#45;&gt;Node23 -->
<g id="edge34_Node000020_Node000023" class="edge">
<title>Node20&#45;&gt;Node23</title>
<g id="a_edge34_Node000020_Node000023"><a xlink:title=" ">
<path fill="none" stroke="#63b8ff" d="M452.16,-382.8C468.73,-373.14 487.3,-362.32 502.9,-353.23"/>
<polygon fill="#63b8ff" stroke="#63b8ff" points="450.55,-380.27 443.67,-388.33 454.07,-386.31 450.55,-380.27"/>
</a>
</g>
</g>
<!-- Node21&#45;&gt;Node17 -->
<g id="edge32_Node000021_Node000017" class="edge">
<title>Node21&#45;&gt;Node17</title>
<g id="a_edge32_Node000021_Node000017"><a xlink:title=" ">
<path fill="none" stroke="#63b8ff" d="M404.54,-299.65C403.43,-289.18 402.25,-278.01 401.35,-269.48"/>
<polygon fill="#63b8ff" stroke="#63b8ff" points="401.16,-300 405.69,-309.58 408.12,-299.26 401.16,-300"/>
</a>
</g>
</g>
<!-- Node22 -->
<g id="Node000022" class="node">
<title>Node22</title>
<g id="a_Node000022"><a xlink:href="../../d2/db3/packet-factory_8cpp.html" target="_top" xlink:title=" ">
<polygon fill="white" stroke="#666666" points="596.08,-275 479.58,-275 479.58,-233.25 596.08,-233.25 596.08,-275"/>
<text text-anchor="start" x="487.58" y="-261.5" font-family="Times,serif" font-size="10.00">mal&#45;packet&#45;weaver/mal</text>
<text text-anchor="start" x="487.58" y="-250.25" font-family="Times,serif" font-size="10.00">&#45;packet&#45;weaver/packet</text>
<text text-anchor="middle" x="537.83" y="-239" font-family="Times,serif" font-size="10.00">_impl/packet&#45;factory.cpp</text>
</a>
</g>
</g>
<!-- Node21&#45;&gt;Node22 -->
<g id="edge33_Node000021_Node000022" class="edge">
<title>Node21&#45;&gt;Node22</title>
<g id="a_edge33_Node000021_Node000022"><a xlink:title=" ">
<path fill="none" stroke="#63b8ff" d="M452.16,-305.05C468.73,-295.39 487.3,-284.57 502.9,-275.48"/>
<polygon fill="#63b8ff" stroke="#63b8ff" points="450.55,-302.52 443.67,-310.58 454.07,-308.56 450.55,-302.52"/>
</a>
</g>
</g>
<!-- Node24&#45;&gt;Node4 -->
<g id="edge36_Node000024_Node000004" class="edge">
<title>Node24&#45;&gt;Node4</title>
<g id="a_edge36_Node000024_Node000004"><a xlink:title=" ">
<path fill="none" stroke="#63b8ff" d="M346.85,-606.52C341.58,-596.05 335.78,-584.54 330.99,-575.04"/>
<polygon fill="#63b8ff" stroke="#63b8ff" points="344.07,-607.78 351.7,-615.13 350.32,-604.63 344.07,-607.78"/>
</a>
</g>
</g>
</g>
</svg>

<g id="navigator" transform="translate(0 0)" fill="#404254">
  <rect fill="#f2f5e9" fill-opacity="0.5" stroke="#606060" stroke-width=".5" x="0" y="0" width="60" height="60"/>
  <use id="zoomplus" xlink:href="#zoomPlus" x="17" y="9" onmousedown="handleZoom(evt,'in')"/>
  <use id="zoomminus" xlink:href="#zoomMin" x="42" y="9" onmousedown="handleZoom(evt,'out')"/>
  <use id="reset" xlink:href="#resetDef" x="30" y="36" onmousedown="handleReset()"/>
   <use id="arrowup" xlink:href="#arrowUp" x="0" y="0" onmousedown="handlePan(0,-1)"/>
  <use id="arrowright" xlink:href="#arrowRight" x="0" y="0" onmousedown="handlePan(1,0)"/>
  <use id="arrowdown" xlink:href="#arrowDown" x="0" y="0" onmousedown="handlePan(0,1)"/>
  <use id="arrowleft" xlink:href="#arrowLeft" x="0" y="0" onmousedown="handlePan(-1,0)"/>
</g>
<svg viewBox="0 0 15 15" width="100%" height="30px" preserveAspectRatio="xMaxYMin meet">
 <g id="arrow_out" transform="scale(0.3 0.3)">
  <a xlink:href="debug__with__source__location_8hpp__dep__incl_org.svg" target="_base">
   <rect id="button" ry="5" rx="5" y="6" x="6" height="38" width="38"
        fill="#f2f5e9" fill-opacity="0.5" stroke="#606060" stroke-width="1.0"/>
   <path id="arrow"
     d="M 11.500037,31.436501 C 11.940474,20.09759 22.043105,11.32322 32.158766,21.979434 L 37.068811,17.246167 C 37.068811,17.246167 37.088388,32 37.088388,32 L 22.160133,31.978069 C 22.160133,31.978069 26.997745,27.140456 26.997745,27.140456 C 18.528582,18.264221 13.291696,25.230495 11.500037,31.436501 z"
     style="fill:#404040;"/>
  </a>
 </g>
</svg>

<style type='text/css'>
<![CDATA[
[data-mouse-over-selected='false'] { opacity: 0.7; }
[data-mouse-over-selected='true']  { opacity: 1.0; }
]]>
</style>
<script type="application/ecmascript"><![CDATA[
document.addEventListener('DOMContentLoaded', (event) => {
  highlightEdges();
  highlightAdjacentNodes();
});
]]></script>
</svg>
