<?xml version="1.0" encoding="UTF-8" standalone="no"?>
<!DOCTYPE svg PUBLIC "-//W3C//DTD SVG 1.1//EN"
 "http://www.w3.org/Graphics/SVG/1.1/DTD/svg11.dtd">
<!-- Generated by graphviz version 7.0.5 (20221223.1930)
 -->
<!-- Title: third_party/mal&#45;toolkit/mal&#45;toolkit/detail/debug_with_source_location.hpp Pages: 1 -->
<svg width="336pt" height="258pt"
 viewBox="0.00 0.00 335.50 258.00" xmlns="http://www.w3.org/2000/svg" xmlns:xlink="http://www.w3.org/1999/xlink">
<g id="graph0" class="graph" transform="scale(1 1) rotate(0) translate(4 254)">
<title>third_party/mal&#45;toolkit/mal&#45;toolkit/detail/debug_with_source_location.hpp</title>
<!-- Node1 -->
<g id="node1" class="node">
<title>Node1</title>
<g id="a_node1"><a xlink:title="This file provides utility functions for debugging and assertion handling.">
<polygon fill="#999999" stroke="#666666" points="239,-250 108,-250 108,-209 239,-209 239,-250"/>
<text text-anchor="start" x="116" y="-238" font-family="Helvetica,sans-Serif" font-size="10.00">third_party/mal&#45;toolkit</text>
<text text-anchor="start" x="116" y="-227" font-family="Helvetica,sans-Serif" font-size="10.00">/mal&#45;toolkit/detail/debug</text>
<text text-anchor="middle" x="173.5" y="-216" font-family="Helvetica,sans-Serif" font-size="10.00">_with_source_location.hpp</text>
</a>
</g>
</g>
<!-- Node2 -->
<g id="node2" class="node">
<title>Node2</title>
<g id="a_node2"><a xlink:href="../../da/d7b/debug_8hpp.html" target="_top" xlink:title="Contains debugging&#45;related macros and utilities for assisting with debugging tasks.">
<polygon fill="white" stroke="#666666" points="229.5,-173 117.5,-173 117.5,-143 229.5,-143 229.5,-173"/>
<text text-anchor="start" x="125.5" y="-161" font-family="Helvetica,sans-Serif" font-size="10.00">third_party/mal&#45;toolkit</text>
<text text-anchor="middle" x="173.5" y="-150" font-family="Helvetica,sans-Serif" font-size="10.00">/mal&#45;toolkit/debug.hpp</text>
</a>
</g>
</g>
<!-- Node1&#45;&gt;Node2 -->
<g id="edge1" class="edge">
<title>Node1&#45;&gt;Node2</title>
<path fill="none" stroke="#63b8ff" d="M166.78,-197.38C166.63,-189.04 167,-180.43 167.9,-173.47"/>
<polygon fill="#63b8ff" stroke="#63b8ff" points="163.28,-197.44 167.27,-207.26 170.27,-197.1 163.28,-197.44"/>
</g>
<!-- Node2&#45;&gt;Node1 -->
<g id="edge2" class="edge">
<title>Node2&#45;&gt;Node1</title>
<path fill="none" stroke="#63b8ff" d="M180.05,-184.77C180.41,-192.7 180.28,-201.31 179.66,-208.77"/>
<polygon fill="#63b8ff" stroke="#63b8ff" points="183.55,-184.66 179.23,-174.98 176.57,-185.24 183.55,-184.66"/>
</g>
<!-- Node3 -->
<g id="node3" class="node">
<title>Node3</title>
<g id="a_node3"><a xlink:href="../../d3/d4b/debug__without__source__location_8hpp.html" target="_top" xlink:title="Provides utility functions for debugging and assertion handling without source location information.">
<polygon fill="white" stroke="#666666" points="145,-107 0,-107 0,-66 145,-66 145,-107"/>
<text text-anchor="start" x="8" y="-95" font-family="Helvetica,sans-Serif" font-size="10.00">third_party/mal&#45;toolkit</text>
<text text-anchor="start" x="8" y="-84" font-family="Helvetica,sans-Serif" font-size="10.00">/mal&#45;toolkit/detail/debug</text>
<text text-anchor="middle" x="72.5" y="-73" font-family="Helvetica,sans-Serif" font-size="10.00">_without_source_location.hpp</text>
</a>
</g>
</g>
<!-- Node2&#45;&gt;Node3 -->
<g id="edge3" class="edge">
<title>Node2&#45;&gt;Node3</title>
<path fill="none" stroke="#63b8ff" d="M143.37,-136.27C130.1,-127.14 114.58,-116.45 101.44,-107.42"/>
<polygon fill="#63b8ff" stroke="#63b8ff" points="141.1,-138.96 151.33,-141.74 145.07,-133.19 141.1,-138.96"/>
</g>
<!-- Node4 -->
<g id="node4" class="node">
<title>Node4</title>
<g id="a_node4"><a xlink:href="../../d1/d08/mal__toolkit_8hpp.html" target="_top" xlink:title="Main header file for the MAL Toolkit library, providing a comprehensive set of tools and utilities.">
<polygon fill="white" stroke="#666666" points="285,-30 152,-30 152,0 285,0 285,-30"/>
<text text-anchor="start" x="160" y="-18" font-family="Helvetica,sans-Serif" font-size="10.00">third_party/mal&#45;toolkit</text>
<text text-anchor="middle" x="218.5" y="-7" font-family="Helvetica,sans-Serif" font-size="10.00">/mal&#45;toolkit/mal_toolkit.hpp</text>
</a>
</g>
</g>
<!-- Node2&#45;&gt;Node4 -->
<g id="edge4" class="edge">
<title>Node2&#45;&gt;Node4</title>
<path fill="none" stroke="#63b8ff" d="M176.91,-131.48C179.85,-112.95 184.84,-87.47 192.5,-66 196.97,-53.47 204.03,-40.14 209.66,-30.4"/>
<polygon fill="#63b8ff" stroke="#63b8ff" points="173.46,-130.9 175.46,-141.3 180.39,-131.92 173.46,-130.9"/>
</g>
<!-- Node5 -->
<g id="node5" class="node">
<title>Node5</title>
<g id="a_node5"><a xlink:href="../../d0/db4/measurer_8hpp.html" target="_top" xlink:title="Implements performance measurement and profiling utilities.">
<polygon fill="white" stroke="#666666" points="327.5,-101.5 201.5,-101.5 201.5,-71.5 327.5,-71.5 327.5,-101.5"/>
<text text-anchor="start" x="209.5" y="-89.5" font-family="Helvetica,sans-Serif" font-size="10.00">third_party/mal&#45;toolkit</text>
<text text-anchor="middle" x="264.5" y="-78.5" font-family="Helvetica,sans-Serif" font-size="10.00">/mal&#45;toolkit/measurer.hpp</text>
</a>
</g>
</g>
<!-- Node2&#45;&gt;Node5 -->
<g id="edge5" class="edge">
<title>Node2&#45;&gt;Node5</title>
<path fill="none" stroke="#63b8ff" d="M201.33,-135.75C215.7,-124.77 232.86,-111.66 245.67,-101.88"/>
<polygon fill="#63b8ff" stroke="#63b8ff" points="199.38,-132.83 193.56,-141.68 203.63,-138.39 199.38,-132.83"/>
</g>
<!-- Node5&#45;&gt;Node4 -->
<g id="edge6" class="edge">
<title>Node5&#45;&gt;Node4</title>
<path fill="none" stroke="#63b8ff" d="M248.75,-61.7C241.86,-51.29 234,-39.42 228.02,-30.38"/>
<polygon fill="#63b8ff" stroke="#63b8ff" points="245.7,-63.43 254.13,-69.84 251.53,-59.57 245.7,-63.43"/>
</g>
</g>
</svg>
