<?xml version="1.0" encoding="UTF-8" standalone="no"?>
<!DOCTYPE svg PUBLIC "-//W3C//DTD SVG 1.1//EN"
 "http://www.w3.org/Graphics/SVG/1.1/DTD/svg11.dtd">
<!-- Generated by graphviz version 7.0.5 (20221223.1930)
 -->
<!-- Title: mal_packet_weaver::packet::network::PingPacket Pages: 1 -->
<svg width="148pt" height="236pt"
 viewBox="0.00 0.00 148.00 236.00" xmlns="http://www.w3.org/2000/svg" xmlns:xlink="http://www.w3.org/1999/xlink">
<g id="graph0" class="graph" transform="scale(1 1) rotate(0) translate(4 232)">
<title>mal_packet_weaver::packet::network::PingPacket</title>
<!-- Node1 -->
<g id="node1" class="node">
<title>Node1</title>
<g id="a_node1"><a xlink:title="Packet for sending a ping signal.">
<polygon fill="#999999" stroke="#666666" points="140,-30 0,-30 0,0 140,0 140,-30"/>
<text text-anchor="start" x="8" y="-18" font-family="Helvetica,sans-Serif" font-size="10.00">mal_packet_weaver::</text>
<text text-anchor="middle" x="70" y="-7" font-family="Helvetica,sans-Serif" font-size="10.00">packet::network::PingPacket</text>
</a>
</g>
</g>
<!-- Node2 -->
<g id="node2" class="node">
<title>Node2</title>
<g id="a_node2"><a xlink:href="../../dd/d2b/classmal__packet__weaver_1_1_derived_packet.html" target="_top" xlink:title=" ">
<polygon fill="white" stroke="#666666" points="126,-107 14,-107 14,-66 126,-66 126,-107"/>
<text text-anchor="start" x="22" y="-95" font-family="Helvetica,sans-Serif" font-size="10.00">mal_packet_weaver::</text>
<text text-anchor="start" x="22" y="-84" font-family="Helvetica,sans-Serif" font-size="10.00">DerivedPacket&lt; class</text>
<text text-anchor="middle" x="70" y="-73" font-family="Helvetica,sans-Serif" font-size="10.00"> PingPacket &gt;</text>
</a>
</g>
</g>
<!-- Node2&#45;&gt;Node1 -->
<g id="edge1" class="edge">
<title>Node2&#45;&gt;Node1</title>
<path fill="none" stroke="#63b8ff" d="M70,-54.38C70,-46.04 70,-37.43 70,-30.47"/>
<polygon fill="#63b8ff" stroke="#63b8ff" points="66.5,-54.26 70,-64.26 73.5,-54.26 66.5,-54.26"/>
</g>
<!-- Node3 -->
<g id="node3" class="node">
<title>Node3</title>
<g id="a_node3"><a xlink:href="../../d2/d9d/classmal__packet__weaver_1_1_packet.html" target="_top" xlink:title="Base class for all packets.">
<polygon fill="white" stroke="#666666" points="124,-173 16,-173 16,-143 124,-143 124,-173"/>
<text text-anchor="start" x="24" y="-161" font-family="Helvetica,sans-Serif" font-size="10.00">mal_packet_weaver::</text>
<text text-anchor="middle" x="70" y="-150" font-family="Helvetica,sans-Serif" font-size="10.00">Packet</text>
</a>
</g>
</g>
<!-- Node3&#45;&gt;Node2 -->
<g id="edge2" class="edge">
<title>Node3&#45;&gt;Node2</title>
<path fill="none" stroke="#63b8ff" d="M70,-131.36C70,-123.45 70,-114.87 70,-107.42"/>
<polygon fill="#63b8ff" stroke="#63b8ff" points="66.5,-131.09 70,-141.09 73.5,-131.09 66.5,-131.09"/>
</g>
<!-- Node4 -->
<g id="node4" class="node">
<title>Node4</title>
<g id="a_node4"><a xlink:title=" ">
<polygon fill="white" stroke="#666666" points="119,-228 21,-228 21,-209 119,-209 119,-228"/>
<text text-anchor="middle" x="70" y="-216" font-family="Helvetica,sans-Serif" font-size="10.00">utils::non_copyable</text>
</a>
</g>
</g>
<!-- Node4&#45;&gt;Node3 -->
<g id="edge3" class="edge">
<title>Node4&#45;&gt;Node3</title>
<path fill="none" stroke="#63b8ff" d="M70,-197.51C70,-189.49 70,-180.43 70,-173.11"/>
<polygon fill="#63b8ff" stroke="#63b8ff" points="66.5,-197.35 70,-207.35 73.5,-197.35 66.5,-197.35"/>
</g>
</g>
</svg>
