<?xml version="1.0" encoding="UTF-8" standalone="no"?>
<!DOCTYPE svg PUBLIC "-//W3C//DTD SVG 1.1//EN"
 "http://www.w3.org/Graphics/SVG/1.1/DTD/svg11.dtd">
<!-- Generated by graphviz version 7.0.5 (20221223.1930)
 -->
<!-- Title: mal&#45;packet&#45;weaver/mal&#45;packet&#45;weaver/packets/packet&#45;system.hpp Pages: 1 -->
<svg width="568pt" height="291pt"
 viewBox="0.00 0.00 568.00 291.00" xmlns="http://www.w3.org/2000/svg" xmlns:xlink="http://www.w3.org/1999/xlink">
<g id="graph0" class="graph" transform="scale(1 1) rotate(0) translate(4 287)">
<title>mal&#45;packet&#45;weaver/mal&#45;packet&#45;weaver/packets/packet&#45;system.hpp</title>
<!-- Node1 -->
<g id="node1" class="node">
<title>Node1</title>
<g id="a_node1"><a xlink:title=" ">
<polygon fill="#999999" stroke="#666666" points="342,-283 221,-283 221,-242 342,-242 342,-283"/>
<text text-anchor="start" x="229" y="-271" font-family="Helvetica,sans-Serif" font-size="10.00">mal&#45;packet&#45;weaver/mal</text>
<text text-anchor="start" x="229" y="-260" font-family="Helvetica,sans-Serif" font-size="10.00">&#45;packet&#45;weaver/packets</text>
<text text-anchor="middle" x="281.5" y="-249" font-family="Helvetica,sans-Serif" font-size="10.00">/packet&#45;system.hpp</text>
</a>
</g>
</g>
<!-- Node2 -->
<g id="node2" class="node">
<title>Node2</title>
<g id="a_node2"><a xlink:href="../../d2/d3f/packet_8hpp.html" target="_top" xlink:title=" ">
<polygon fill="white" stroke="#666666" points="317,-206 246,-206 246,-187 317,-187 317,-206"/>
<text text-anchor="middle" x="281.5" y="-194" font-family="Helvetica,sans-Serif" font-size="10.00">../packet.hpp</text>
</a>
</g>
</g>
<!-- Node1&#45;&gt;Node2 -->
<g id="edge1" class="edge">
<title>Node1&#45;&gt;Node2</title>
<path fill="none" stroke="#63b8ff" d="M281.5,-241.6C281.5,-233.98 281.5,-225.3 281.5,-217.66"/>
<polygon fill="#63b8ff" stroke="#63b8ff" points="285,-217.68 281.5,-207.68 278,-217.68 285,-217.68"/>
</g>
<!-- Node3 -->
<g id="node3" class="node">
<title>Node3</title>
<g id="a_node3"><a xlink:href="../../d3/d53/packet-factory_8hpp.html" target="_top" xlink:title=" ">
<polygon fill="white" stroke="#666666" points="332,-151 231,-151 231,-121 332,-121 332,-151"/>
<text text-anchor="start" x="239" y="-139" font-family="Helvetica,sans-Serif" font-size="10.00">packet_impl/packet</text>
<text text-anchor="middle" x="281.5" y="-128" font-family="Helvetica,sans-Serif" font-size="10.00">&#45;factory.hpp</text>
</a>
</g>
</g>
<!-- Node2&#45;&gt;Node3 -->
<g id="edge2" class="edge">
<title>Node2&#45;&gt;Node3</title>
<path fill="none" stroke="#63b8ff" d="M281.5,-186.87C281.5,-180.4 281.5,-171.2 281.5,-162.45"/>
<polygon fill="#63b8ff" stroke="#63b8ff" points="285,-162.63 281.5,-152.63 278,-162.63 285,-162.63"/>
</g>
<!-- Node4 -->
<g id="node4" class="node">
<title>Node4</title>
<g id="a_node4"><a xlink:href="../../d9/d85/packet__impl_2packet_8hpp.html" target="_top" xlink:title=" ">
<polygon fill="white" stroke="#666666" points="313.5,-85 249.5,-85 249.5,-66 313.5,-66 313.5,-85"/>
<text text-anchor="middle" x="281.5" y="-73" font-family="Helvetica,sans-Serif" font-size="10.00">packet.hpp</text>
</a>
</g>
</g>
<!-- Node3&#45;&gt;Node4 -->
<g id="edge3" class="edge">
<title>Node3&#45;&gt;Node4</title>
<path fill="none" stroke="#63b8ff" d="M281.5,-120.54C281.5,-113.34 281.5,-104.53 281.5,-96.68"/>
<polygon fill="#63b8ff" stroke="#63b8ff" points="285,-96.69 281.5,-86.69 278,-96.69 285,-96.69"/>
</g>
<!-- Node5 -->
<g id="node5" class="node">
<title>Node5</title>
<g id="a_node5"><a xlink:title=" ">
<polygon fill="#e0e0e0" stroke="#999999" points="89,-24.5 0,-24.5 0,-5.5 89,-5.5 89,-24.5"/>
<text text-anchor="middle" x="44.5" y="-12.5" font-family="Helvetica,sans-Serif" font-size="10.00">../../utils/utils.hpp</text>
</a>
</g>
</g>
<!-- Node4&#45;&gt;Node5 -->
<g id="edge4" class="edge">
<title>Node4&#45;&gt;Node5</title>
<path fill="none" stroke="#63b8ff" d="M249.07,-66.77C212.46,-58.01 151.14,-43.22 98.5,-30 95.61,-29.27 92.63,-28.52 89.62,-27.75"/>
<polygon fill="#63b8ff" stroke="#63b8ff" points="90.78,-24.44 80.23,-25.34 89.04,-31.22 90.78,-24.44"/>
</g>
<!-- Node6 -->
<g id="node6" class="node">
<title>Node6</title>
<g id="a_node6"><a xlink:title=" ">
<polygon fill="#e0e0e0" stroke="#999999" points="211.5,-30 107.5,-30 107.5,0 211.5,0 211.5,-30"/>
<text text-anchor="start" x="115.5" y="-18" font-family="Helvetica,sans-Serif" font-size="10.00">boost/archive/binary</text>
<text text-anchor="middle" x="159.5" y="-7" font-family="Helvetica,sans-Serif" font-size="10.00">_iarchive.hpp</text>
</a>
</g>
</g>
<!-- Node4&#45;&gt;Node6 -->
<g id="edge5" class="edge">
<title>Node4&#45;&gt;Node6</title>
<path fill="none" stroke="#63b8ff" d="M262.97,-65.62C246.24,-57.59 221.06,-45.52 199.72,-35.29"/>
<polygon fill="#63b8ff" stroke="#63b8ff" points="201.51,-32.26 190.98,-31.09 198.48,-38.57 201.51,-32.26"/>
</g>
<!-- Node7 -->
<g id="node7" class="node">
<title>Node7</title>
<g id="a_node7"><a xlink:title=" ">
<polygon fill="#e0e0e0" stroke="#999999" points="333.5,-30 229.5,-30 229.5,0 333.5,0 333.5,-30"/>
<text text-anchor="start" x="237.5" y="-18" font-family="Helvetica,sans-Serif" font-size="10.00">boost/archive/binary</text>
<text text-anchor="middle" x="281.5" y="-7" font-family="Helvetica,sans-Serif" font-size="10.00">_oarchive.hpp</text>
</a>
</g>
</g>
<!-- Node4&#45;&gt;Node7 -->
<g id="edge6" class="edge">
<title>Node4&#45;&gt;Node7</title>
<path fill="none" stroke="#63b8ff" d="M281.5,-65.87C281.5,-59.4 281.5,-50.2 281.5,-41.45"/>
<polygon fill="#63b8ff" stroke="#63b8ff" points="285,-41.63 281.5,-31.63 278,-41.63 285,-41.63"/>
</g>
<!-- Node8 -->
<g id="node8" class="node">
<title>Node8</title>
<g id="a_node8"><a xlink:title=" ">
<polygon fill="#e0e0e0" stroke="#999999" points="447,-30 352,-30 352,0 447,0 447,-30"/>
<text text-anchor="start" x="360" y="-18" font-family="Helvetica,sans-Serif" font-size="10.00">boost/serialization</text>
<text text-anchor="middle" x="399.5" y="-7" font-family="Helvetica,sans-Serif" font-size="10.00">/base_object.hpp</text>
</a>
</g>
</g>
<!-- Node4&#45;&gt;Node8 -->
<g id="edge7" class="edge">
<title>Node4&#45;&gt;Node8</title>
<path fill="none" stroke="#63b8ff" d="M299.42,-65.62C315.53,-57.63 339.74,-45.63 360.31,-35.43"/>
<polygon fill="#63b8ff" stroke="#63b8ff" points="361.61,-38.69 369.02,-31.11 358.5,-32.42 361.61,-38.69"/>
</g>
<!-- Node9 -->
<g id="node9" class="node">
<title>Node9</title>
<g id="a_node9"><a xlink:title=" ">
<polygon fill="#e0e0e0" stroke="#999999" points="560,-30 465,-30 465,0 560,0 560,-30"/>
<text text-anchor="start" x="473" y="-18" font-family="Helvetica,sans-Serif" font-size="10.00">boost/serialization</text>
<text text-anchor="middle" x="512.5" y="-7" font-family="Helvetica,sans-Serif" font-size="10.00">/serialization.hpp</text>
</a>
</g>
</g>
<!-- Node4&#45;&gt;Node9 -->
<g id="edge8" class="edge">
<title>Node4&#45;&gt;Node9</title>
<path fill="none" stroke="#63b8ff" d="M313.62,-66.37C349.73,-57.22 409.13,-42.18 453.63,-30.91"/>
<polygon fill="#63b8ff" stroke="#63b8ff" points="454.3,-34.35 463.13,-28.5 452.58,-27.56 454.3,-34.35"/>
</g>
</g>
</svg>
