<?xml version="1.0" encoding="UTF-8" standalone="no"?>
<!DOCTYPE svg PUBLIC "-//W3C//DTD SVG 1.1//EN"
 "http://www.w3.org/Graphics/SVG/1.1/DTD/svg11.dtd">
<!-- Generated by graphviz version 11.0.0 (20240428.1522)
 -->
<!-- Title: mal_toolkit::namable_once Pages: 1 -->
<svg width="130pt" height="216pt"
 viewBox="0.00 0.00 129.75 215.50" xmlns="http://www.w3.org/2000/svg" xmlns:xlink="http://www.w3.org/1999/xlink">
<g id="graph0" class="graph" transform="scale(1 1) rotate(0) translate(4 211.5)">
<title>mal_toolkit::namable_once</title>
<!-- Node1 -->
<g id="Node000001" class="node">
<title>Node1</title>
<g id="a_Node000001"><a xlink:title="A class that contains a name and can be named only once at construction.">
<polygon fill="#999999" stroke="#666666" points="121.75,-19.25 0,-19.25 0,0 121.75,0 121.75,-19.25"/>
<text text-anchor="middle" x="60.88" y="-5.75" font-family="Times,serif" font-size="10.00">mal_toolkit::namable_once</text>
</a>
</g>
</g>
<!-- Node2 -->
<g id="Node000002" class="node">
<title>Node2</title>
<g id="a_Node000002"><a xlink:href="../../da/d90/classmal__toolkit_1_1namable.html" target="_top" xlink:title="A class that contains a name and can be named and unnamed.">
<polygon fill="white" stroke="#666666" points="110.12,-74.5 11.62,-74.5 11.62,-55.25 110.12,-55.25 110.12,-74.5"/>
<text text-anchor="middle" x="60.88" y="-61" font-family="Times,serif" font-size="10.00">mal_toolkit::namable</text>
</a>
</g>
</g>
<!-- Node2&#45;&gt;Node1 -->
<g id="edge1_Node000001_Node000002" class="edge">
<title>Node2&#45;&gt;Node1</title>
<g id="a_edge1_Node000001_Node000002"><a xlink:title=" ">
<path fill="none" stroke="#8b1a1a" d="M60.88,-43.63C60.88,-35.34 60.88,-26.17 60.88,-19.61"/>
<polygon fill="#8b1a1a" stroke="#8b1a1a" points="57.38,-43.57 60.88,-53.57 64.38,-43.57 57.38,-43.57"/>
</a>
</g>
</g>
<!-- Node3 -->
<g id="Node000003" class="node">
<title>Node3</title>
<g id="a_Node000003"><a xlink:title=" ">
<polygon fill="white" stroke="#666666" points="88.75,-141 33,-141 33,-121.75 88.75,-121.75 88.75,-141"/>
<text text-anchor="middle" x="60.88" y="-127.5" font-family="Times,serif" font-size="10.00">std::string</text>
</a>
</g>
</g>
<!-- Node3&#45;&gt;Node2 -->
<g id="edge2_Node000002_Node000003" class="edge">
<title>Node3&#45;&gt;Node2</title>
<g id="a_edge2_Node000002_Node000003"><a xlink:title=" ">
<path fill="none" stroke="#9a32cd" stroke-dasharray="5,2" d="M60.88,-109.9C60.88,-98.07 60.88,-83.79 60.88,-74.77"/>
<polygon fill="#9a32cd" stroke="#9a32cd" points="57.38,-109.89 60.88,-119.89 64.38,-109.89 57.38,-109.89"/>
</a>
</g>
<text text-anchor="middle" x="75.12" y="-94.25" font-family="Times,serif" font-size="10.00" fill="grey"> name_</text>
</g>
<!-- Node4 -->
<g id="Node000004" class="node">
<title>Node4</title>
<g id="a_Node000004"><a xlink:title=" ">
<polygon fill="white" stroke="#666666" points="104.5,-207.5 17.25,-207.5 17.25,-177 104.5,-177 104.5,-207.5"/>
<text text-anchor="start" x="25.25" y="-194" font-family="Times,serif" font-size="10.00">std::basic_string&lt;</text>
<text text-anchor="middle" x="60.88" y="-182.75" font-family="Times,serif" font-size="10.00"> Char &gt;</text>
</a>
</g>
</g>
<!-- Node4&#45;&gt;Node3 -->
<g id="edge3_Node000003_Node000004" class="edge">
<title>Node4&#45;&gt;Node3</title>
<g id="a_edge3_Node000003_Node000004"><a xlink:title=" ">
<path fill="none" stroke="#63b8ff" d="M60.88,-165.23C60.88,-156.73 60.88,-147.84 60.88,-141.45"/>
<polygon fill="#63b8ff" stroke="#63b8ff" points="57.38,-165.18 60.88,-175.18 64.38,-165.18 57.38,-165.18"/>
</a>
</g>
</g>
</g>
</svg>
