<?xml version="1.0" encoding="UTF-8" standalone="no"?>
<!DOCTYPE svg PUBLIC "-//W3C//DTD SVG 1.1//EN"
 "http://www.w3.org/Graphics/SVG/1.1/DTD/svg11.dtd">
<!-- Generated by graphviz version 8.1.0 (20230707.0739)
 -->
<!-- Title: mal&#45;packet&#45;weaver/mal&#45;packet&#45;weaver/packet&#45;impl/portable&#45;binary&#45;iarchive.cpp Pages: 1 -->
<!--zoomable 272 -->

<svg id="main" version="1.1" xmlns="http://www.w3.org/2000/svg" xmlns:xlink="http://www.w3.org/1999/xlink" xml:space="preserve" onload="init(evt)">
<style type="text/css"><![CDATA[
.node, .edge {opacity: 0.7;}
.node.selected, .edge.selected {opacity: 1;}
.edge:hover path { stroke: red; }
.edge:hover polygon { stroke: red; fill: red; }
]]></style>

<defs>
  <circle id="rim" cx="0" cy="0" r="7"/>
  <circle id="rim2" cx="0" cy="0" r="3.5"/>
  <g id="zoomPlus">
    <use xlink:href="#rim" fill="#404040"><set attributeName="fill" to="#808080" begin="zoomplus.mouseover" end="zoomplus.mouseout"/></use>
    <path d="M-4,0h8M0,-4v8" fill="none" stroke="white" stroke-width="1.5" pointer-events="none"/>
  </g>
  <g id="zoomMin">
    <use xlink:href="#rim" fill="#404040"><set attributeName="fill" to="#808080" begin="zoomminus.mouseover" end="zoomminus.mouseout"/></use>
    <path d="M-4,0h8" fill="none" stroke="white" stroke-width="1.5" pointer-events="none"/>
  </g>
  <g id="arrowUp" transform="translate(30 24)">
    <use xlink:href="#rim"/>
    <path pointer-events="none" fill="none" stroke="white" stroke-width="1.5" d="M0,-3.0v7 M-2.5,-0.5L0,-3.0L2.5,-0.5"/>
  </g>
  <g id="arrowRight" transform="rotate(90) translate(36 -43)">
    <use xlink:href="#rim"/>
    <path pointer-events="none" fill="none" stroke="white" stroke-width="1.5" d="M0,-3.0v7 M-2.5,-0.5L0,-3.0L2.5,-0.5"/>
  </g>
  <g id="arrowDown" transform="rotate(180) translate(-30 -48)">
    <use xlink:href="#rim"/>
    <path pointer-events="none" fill="none" stroke="white" stroke-width="1.5" d="M0,-3.0v7 M-2.5,-0.5L0,-3.0L2.5,-0.5"/>
  </g>
  <g id="arrowLeft" transform="rotate(270) translate(-36 17)">
    <use xlink:href="#rim"/>
    <path pointer-events="none" fill="none" stroke="white" stroke-width="1.5" d="M0,-3.0v7 M-2.5,-0.5L0,-3.0L2.5,-0.5"/>
  </g>
  <g id="resetDef">
    <use xlink:href="#rim2" fill="#404040"><set attributeName="fill" to="#808080" begin="reset.mouseover" end="reset.mouseout"/></use>
  </g>
</defs>
<script type="application/ecmascript">
var viewWidth = 1399;
var viewHeight = 272;
var sectionId = 'dynsection-0';
</script>
<script type="application/ecmascript" xlink:href="../../svg.min.js"/>
<svg id="graph" class="graph">
<g id="viewport">
<title>mal&#45;packet&#45;weaver/mal&#45;packet&#45;weaver/packet&#45;impl/portable&#45;binary&#45;iarchive.cpp</title>
<!-- Node1 -->
<g id="Node000001" class="node">
<title>Node1</title>
<g id="a_Node000001"><a xlink:title=" ">
<polygon fill="#999999" stroke="#666666" points="1022.38,-263.75 914.88,-263.75 914.88,-210.75 1022.38,-210.75 1022.38,-263.75"/>
<text text-anchor="start" x="922.88" y="-250.25" font-family="Times,serif" font-size="10.00">mal&#45;packet&#45;weaver/mal</text>
<text text-anchor="start" x="922.88" y="-239" font-family="Times,serif" font-size="10.00">&#45;packet&#45;weaver/packet</text>
<text text-anchor="start" x="922.88" y="-227.75" font-family="Times,serif" font-size="10.00">&#45;impl/portable&#45;binary</text>
<text text-anchor="middle" x="968.62" y="-216.5" font-family="Times,serif" font-size="10.00">&#45;iarchive.cpp</text>
</a>
</g>
</g>
<!-- Node2 -->
<g id="Node000002" class="node">
<title>Node2</title>
<g id="a_Node000002"><a xlink:title=" ">
<polygon fill="#e0e0e0" stroke="#999999" points="45.25,-91.38 0,-91.38 0,-72.12 45.25,-72.12 45.25,-91.38"/>
<text text-anchor="middle" x="22.62" y="-77.88" font-family="Times,serif" font-size="10.00">istream</text>
</a>
</g>
</g>
<!-- Node1&#45;&gt;Node2 -->
<g id="edge1_Node000001_Node000002" class="edge">
<title>Node1&#45;&gt;Node2</title>
<g id="a_edge1_Node000001_Node000002"><a xlink:title=" ">
<path fill="none" stroke="#63b8ff" d="M914.81,-236.84C794.45,-237.05 495.03,-231.27 252.62,-174.75 176.18,-156.92 91.82,-117.75 49.69,-96.73"/>
<polygon fill="#63b8ff" stroke="#63b8ff" points="51.43,-93.18 40.92,-91.8 48.27,-99.43 51.43,-93.18"/>
</a>
</g>
</g>
<!-- Node3 -->
<g id="Node000003" class="node">
<title>Node3</title>
<g id="a_Node000003"><a xlink:title=" ">
<polygon fill="#e0e0e0" stroke="#999999" points="1012.25,-163.5 973,-163.5 973,-144.25 1012.25,-144.25 1012.25,-163.5"/>
<text text-anchor="middle" x="992.62" y="-150" font-family="Times,serif" font-size="10.00">string</text>
</a>
</g>
</g>
<!-- Node1&#45;&gt;Node3 -->
<g id="edge2_Node000001_Node000003" class="edge">
<title>Node1&#45;&gt;Node3</title>
<g id="a_edge2_Node000001_Node000003"><a xlink:title=" ">
<path fill="none" stroke="#63b8ff" d="M976.22,-210.5C979.69,-198.74 983.73,-185.04 986.93,-174.18"/>
<polygon fill="#63b8ff" stroke="#63b8ff" points="990.54,-175.32 990.01,-164.74 983.82,-173.34 990.54,-175.32"/>
</a>
</g>
</g>
<!-- Node4 -->
<g id="Node000004" class="node">
<title>Node4</title>
<g id="a_Node000004"><a xlink:title=" ">
<polygon fill="#e0e0e0" stroke="#999999" points="975.88,-30.5 883.38,-30.5 883.38,0 975.88,0 975.88,-30.5"/>
<text text-anchor="start" x="891.38" y="-17" font-family="Times,serif" font-size="10.00">boost/predef/other</text>
<text text-anchor="middle" x="929.62" y="-5.75" font-family="Times,serif" font-size="10.00">/endian.h</text>
</a>
</g>
</g>
<!-- Node1&#45;&gt;Node4 -->
<g id="edge3_Node000001_Node000004" class="edge">
<title>Node1&#45;&gt;Node4</title>
<g id="a_edge3_Node000001_Node000004"><a xlink:title=" ">
<path fill="none" stroke="#63b8ff" d="M964.07,-210.58C956.54,-168.1 941.58,-83.69 934.1,-41.49"/>
<polygon fill="#63b8ff" stroke="#63b8ff" points="937.39,-41.02 932.2,-31.78 930.5,-42.24 937.39,-41.02"/>
</a>
</g>
</g>
<!-- Node5 -->
<g id="Node000005" class="node">
<title>Node5</title>
<g id="a_Node000005"><a xlink:title=" ">
<polygon fill="#e0e0e0" stroke="#999999" points="1133.12,-169.12 1030.12,-169.12 1030.12,-138.62 1133.12,-138.62 1133.12,-169.12"/>
<text text-anchor="start" x="1038.12" y="-155.62" font-family="Times,serif" font-size="10.00">boost/serialization</text>
<text text-anchor="middle" x="1081.62" y="-144.38" font-family="Times,serif" font-size="10.00">/throw_exception.hpp</text>
</a>
</g>
</g>
<!-- Node1&#45;&gt;Node5 -->
<g id="edge4_Node000001_Node000005" class="edge">
<title>Node1&#45;&gt;Node5</title>
<g id="a_edge4_Node000001_Node000005"><a xlink:title=" ">
<path fill="none" stroke="#63b8ff" d="M1004.69,-210.28C1020.2,-199.11 1038.09,-186.23 1052.71,-175.7"/>
<polygon fill="#63b8ff" stroke="#63b8ff" points="1054.27,-178.17 1060.34,-169.48 1050.18,-172.49 1054.27,-178.17"/>
</a>
</g>
</g>
<!-- Node6 -->
<g id="Node000006" class="node">
<title>Node6</title>
<g id="a_Node000006"><a xlink:title=" ">
<polygon fill="#e0e0e0" stroke="#999999" points="164.38,-97 62.88,-97 62.88,-66.5 164.38,-66.5 164.38,-97"/>
<text text-anchor="start" x="70.88" y="-83.5" font-family="Times,serif" font-size="10.00">boost/archive/archive</text>
<text text-anchor="middle" x="113.62" y="-72.25" font-family="Times,serif" font-size="10.00">_exception.hpp</text>
</a>
</g>
</g>
<!-- Node1&#45;&gt;Node6 -->
<g id="edge5_Node000001_Node000006" class="edge">
<title>Node1&#45;&gt;Node6</title>
<g id="a_edge5_Node000001_Node000006"><a xlink:title=" ">
<path fill="none" stroke="#63b8ff" d="M914.41,-234.16C812.14,-229.4 584.15,-214.86 396.62,-174.75 311.67,-156.58 216.21,-122.58 160.71,-101.39"/>
<polygon fill="#63b8ff" stroke="#63b8ff" points="162.08,-97.79 151.49,-97.46 159.57,-104.32 162.08,-97.79"/>
</a>
</g>
</g>
<!-- Node7 -->
<g id="Node000007" class="node">
<title>Node7</title>
<g id="a_Node000007"><a xlink:href="../../dc/dcd/portable-binary-iarchive_8hpp.html" target="_top" xlink:title=" ">
<polygon fill="white" stroke="#666666" points="535.25,-163.5 406,-163.5 406,-144.25 535.25,-144.25 535.25,-163.5"/>
<text text-anchor="middle" x="470.62" y="-150" font-family="Times,serif" font-size="10.00">portable&#45;binary&#45;iarchive.hpp</text>
</a>
</g>
</g>
<!-- Node1&#45;&gt;Node7 -->
<g id="edge6_Node000001_Node000007" class="edge">
<title>Node1&#45;&gt;Node7</title>
<g id="a_edge6_Node000001_Node000007"><a xlink:title=" ">
<path fill="none" stroke="#63b8ff" d="M914.38,-227.39C822.53,-212.38 636.7,-182.01 537.14,-165.74"/>
<polygon fill="#63b8ff" stroke="#63b8ff" points="537.75,-162.13 527.32,-163.98 536.63,-169.04 537.75,-162.13"/>
</a>
</g>
</g>
<!-- Node19 -->
<g id="Node000019" class="node">
<title>Node19</title>
<g id="a_Node000019"><a xlink:title=" ">
<polygon fill="#e0e0e0" stroke="#999999" points="1242.12,-174.75 1151.12,-174.75 1151.12,-133 1242.12,-133 1242.12,-174.75"/>
<text text-anchor="start" x="1159.12" y="-161.25" font-family="Times,serif" font-size="10.00">boost/archive/impl</text>
<text text-anchor="start" x="1159.12" y="-150" font-family="Times,serif" font-size="10.00">/archive_serializer</text>
<text text-anchor="middle" x="1196.62" y="-138.75" font-family="Times,serif" font-size="10.00">_map.ipp</text>
</a>
</g>
</g>
<!-- Node1&#45;&gt;Node19 -->
<g id="edge21_Node000001_Node000019" class="edge">
<title>Node1&#45;&gt;Node19</title>
<g id="a_edge21_Node000001_Node000019"><a xlink:title=" ">
<path fill="none" stroke="#63b8ff" d="M1022.81,-217.07C1054.52,-205.83 1095.6,-191.23 1140.47,-175.16"/>
<polygon fill="#63b8ff" stroke="#63b8ff" points="1141.48,-178.15 1149.72,-171.49 1139.12,-171.56 1141.48,-178.15"/>
</a>
</g>
</g>
<!-- Node20 -->
<g id="Node000020" class="node">
<title>Node20</title>
<g id="a_Node000020"><a xlink:title=" ">
<polygon fill="#e0e0e0" stroke="#999999" points="1390.62,-169.12 1260.62,-169.12 1260.62,-138.62 1390.62,-138.62 1390.62,-169.12"/>
<text text-anchor="start" x="1268.62" y="-155.62" font-family="Times,serif" font-size="10.00">boost/archive/impl</text>
<text text-anchor="middle" x="1325.62" y="-144.38" font-family="Times,serif" font-size="10.00">/basic_binary_iprimitive.ipp</text>
</a>
</g>
</g>
<!-- Node1&#45;&gt;Node20 -->
<g id="edge22_Node000001_Node000020" class="edge">
<title>Node1&#45;&gt;Node20</title>
<g id="a_edge22_Node000001_Node000020"><a xlink:title=" ">
<path fill="none" stroke="#63b8ff" d="M1022.85,-225.17C1079.75,-213.37 1171.72,-193.8 1250.62,-174.75 1253.96,-173.94 1257.38,-173.1 1260.83,-172.24"/>
<polygon fill="#63b8ff" stroke="#63b8ff" points="1261.39,-175.45 1270.22,-169.6 1259.66,-168.67 1261.39,-175.45"/>
</a>
</g>
</g>
<!-- Node7&#45;&gt;Node2 -->
<g id="edge7_Node000007_Node000002" class="edge">
<title>Node7&#45;&gt;Node2</title>
<g id="a_edge7_Node000007_Node000002"><a xlink:title=" ">
<path fill="none" stroke="#63b8ff" d="M405.82,-150.15C322.76,-145.32 175,-132.17 53.62,-97 52.49,-96.67 51.34,-96.31 50.19,-95.91"/>
<polygon fill="#63b8ff" stroke="#63b8ff" points="51.57,-92.29 40.98,-91.82 48.96,-98.79 51.57,-92.29"/>
</a>
</g>
</g>
<!-- Node7&#45;&gt;Node6 -->
<g id="edge10_Node000007_Node000006" class="edge">
<title>Node7&#45;&gt;Node6</title>
<g id="a_edge10_Node000007_Node000006"><a xlink:title=" ">
<path fill="none" stroke="#63b8ff" d="M418.17,-143.78C360.91,-133.68 266.29,-116.48 175.17,-97.27"/>
<polygon fill="#63b8ff" stroke="#63b8ff" points="176.16,-93.69 165.65,-95.04 174.71,-100.54 176.16,-93.69"/>
</a>
</g>
</g>
<!-- Node8 -->
<g id="Node000008" class="node">
<title>Node8</title>
<g id="a_Node000008"><a xlink:title=" ">
<polygon fill="#e0e0e0" stroke="#999999" points="515.38,-97 425.88,-97 425.88,-66.5 515.38,-66.5 515.38,-97"/>
<text text-anchor="start" x="433.88" y="-83.5" font-family="Times,serif" font-size="10.00">boost/serialization</text>
<text text-anchor="middle" x="470.62" y="-72.25" font-family="Times,serif" font-size="10.00">/string.hpp</text>
</a>
</g>
</g>
<!-- Node7&#45;&gt;Node8 -->
<g id="edge8_Node000007_Node000008" class="edge">
<title>Node7&#45;&gt;Node8</title>
<g id="a_edge8_Node000007_Node000008"><a xlink:title=" ">
<path fill="none" stroke="#63b8ff" d="M470.62,-143.99C470.62,-135.02 470.62,-120.73 470.62,-108.21"/>
<polygon fill="#63b8ff" stroke="#63b8ff" points="474.13,-108.42 470.62,-98.42 467.13,-108.42 474.13,-108.42"/>
</a>
</g>
</g>
<!-- Node9 -->
<g id="Node000009" class="node">
<title>Node9</title>
<g id="a_Node000009"><a xlink:title=" ">
<polygon fill="#e0e0e0" stroke="#999999" points="788.88,-97 678.38,-97 678.38,-66.5 788.88,-66.5 788.88,-97"/>
<text text-anchor="start" x="686.38" y="-83.5" font-family="Times,serif" font-size="10.00">boost/serialization</text>
<text text-anchor="middle" x="733.62" y="-72.25" font-family="Times,serif" font-size="10.00">/item_version_type.hpp</text>
</a>
</g>
</g>
<!-- Node7&#45;&gt;Node9 -->
<g id="edge9_Node000007_Node000009" class="edge">
<title>Node7&#45;&gt;Node9</title>
<g id="a_edge9_Node000007_Node000009"><a xlink:title=" ">
<path fill="none" stroke="#63b8ff" d="M504.74,-143.78C545.96,-132.79 616.22,-114.05 668.05,-100.23"/>
<polygon fill="#63b8ff" stroke="#63b8ff" points="668.72,-103.41 677.48,-97.45 666.92,-96.65 668.72,-103.41"/>
</a>
</g>
</g>
<!-- Node10 -->
<g id="Node000010" class="node">
<title>Node10</title>
<g id="a_Node000010"><a xlink:title=" ">
<polygon fill="#e0e0e0" stroke="#999999" points="916.12,-97 807.12,-97 807.12,-66.5 916.12,-66.5 916.12,-97"/>
<text text-anchor="start" x="815.12" y="-83.5" font-family="Times,serif" font-size="10.00">boost/archive/basic</text>
<text text-anchor="middle" x="861.62" y="-72.25" font-family="Times,serif" font-size="10.00">_binary_iprimitive.hpp</text>
</a>
</g>
</g>
<!-- Node7&#45;&gt;Node10 -->
<g id="edge11_Node000007_Node000010" class="edge">
<title>Node7&#45;&gt;Node10</title>
<g id="a_edge11_Node000007_Node000010"><a xlink:title=" ">
<path fill="none" stroke="#63b8ff" d="M529.27,-143.76C592.59,-133.71 696.68,-116.61 796.29,-97.2"/>
<polygon fill="#63b8ff" stroke="#63b8ff" points="796.71,-100.49 805.85,-95.13 795.36,-93.62 796.71,-100.49"/>
</a>
</g>
</g>
<!-- Node11 -->
<g id="Node000011" class="node">
<title>Node11</title>
<g id="a_Node000011"><a xlink:title=" ">
<polygon fill="#e0e0e0" stroke="#999999" points="289,-97 182.25,-97 182.25,-66.5 289,-66.5 289,-97"/>
<text text-anchor="start" x="190.25" y="-83.5" font-family="Times,serif" font-size="10.00">boost/archive/detail</text>
<text text-anchor="middle" x="235.62" y="-72.25" font-family="Times,serif" font-size="10.00">/common_iarchive.hpp</text>
</a>
</g>
</g>
<!-- Node7&#45;&gt;Node11 -->
<g id="edge12_Node000007_Node000011" class="edge">
<title>Node7&#45;&gt;Node11</title>
<g id="a_edge12_Node000007_Node000011"><a xlink:title=" ">
<path fill="none" stroke="#63b8ff" d="M440.38,-143.85C403.93,-132.97 341.79,-114.43 295.51,-100.62"/>
<polygon fill="#63b8ff" stroke="#63b8ff" points="296.59,-96.99 286,-97.48 294.59,-103.7 296.59,-96.99"/>
</a>
</g>
</g>
<!-- Node12 -->
<g id="Node000012" class="node">
<title>Node12</title>
<g id="a_Node000012"><a xlink:title=" ">
<polygon fill="#e0e0e0" stroke="#999999" points="408,-97 307.25,-97 307.25,-66.5 408,-66.5 408,-97"/>
<text text-anchor="start" x="315.25" y="-83.5" font-family="Times,serif" font-size="10.00">boost/archive/detail</text>
<text text-anchor="middle" x="357.62" y="-72.25" font-family="Times,serif" font-size="10.00">/register_archive.hpp</text>
</a>
</g>
</g>
<!-- Node7&#45;&gt;Node12 -->
<g id="edge13_Node000007_Node000012" class="edge">
<title>Node7&#45;&gt;Node12</title>
<g id="a_edge13_Node000007_Node000012"><a xlink:title=" ">
<path fill="none" stroke="#63b8ff" d="M456.31,-143.99C439.86,-133.78 412.32,-116.7 390.51,-103.16"/>
<polygon fill="#63b8ff" stroke="#63b8ff" points="392.6,-99.72 382.26,-97.42 388.91,-105.66 392.6,-99.72"/>
</a>
</g>
</g>
<!-- Node13 -->
<g id="Node000013" class="node">
<title>Node13</title>
<g id="a_Node000013"><a xlink:href="../../df/d44/portable-binary-archive_8hpp.html" target="_top" xlink:title=" ">
<polygon fill="white" stroke="#666666" points="660.12,-91.38 533.12,-91.38 533.12,-72.12 660.12,-72.12 660.12,-91.38"/>
<text text-anchor="middle" x="596.62" y="-77.88" font-family="Times,serif" font-size="10.00">portable&#45;binary&#45;archive.hpp</text>
</a>
</g>
</g>
<!-- Node7&#45;&gt;Node13 -->
<g id="edge14_Node000007_Node000013" class="edge">
<title>Node7&#45;&gt;Node13</title>
<g id="a_edge14_Node000007_Node000013"><a xlink:title=" ">
<path fill="none" stroke="#63b8ff" d="M486.84,-143.85C508.2,-131.96 545.99,-110.93 571.18,-96.91"/>
<polygon fill="#63b8ff" stroke="#63b8ff" points="572.44,-99.66 579.47,-91.74 569.03,-93.54 572.44,-99.66"/>
</a>
</g>
</g>
<!-- Node13&#45;&gt;Node4 -->
<g id="edge20_Node000013_Node000004" class="edge">
<title>Node13&#45;&gt;Node4</title>
<g id="a_edge20_Node000013_Node000004"><a xlink:title=" ">
<path fill="none" stroke="#63b8ff" d="M642.96,-71.68C651.81,-69.95 661,-68.17 669.62,-66.5 753.15,-50.35 774.12,-46.76 857.62,-30.5 862.53,-29.55 867.61,-28.55 872.72,-27.55"/>
<polygon fill="#63b8ff" stroke="#63b8ff" points="873.02,-30.86 882.16,-25.49 871.67,-23.99 873.02,-30.86"/>
</a>
</g>
</g>
<!-- Node14 -->
<g id="Node000014" class="node">
<title>Node14</title>
<g id="a_Node000014"><a xlink:title=" ">
<polygon fill="#e0e0e0" stroke="#999999" points="744.38,-24.88 660.88,-24.88 660.88,-5.63 744.38,-5.63 744.38,-24.88"/>
<text text-anchor="middle" x="702.62" y="-11.38" font-family="Times,serif" font-size="10.00">boost/config.hpp</text>
</a>
</g>
</g>
<!-- Node13&#45;&gt;Node14 -->
<g id="edge15_Node000013_Node000014" class="edge">
<title>Node13&#45;&gt;Node14</title>
<g id="a_edge15_Node000013_Node000014"><a xlink:title=" ">
<path fill="none" stroke="#63b8ff" d="M611.36,-71.78C628.67,-61.25 657.63,-43.63 678.28,-31.06"/>
<polygon fill="#63b8ff" stroke="#63b8ff" points="679.95,-33.54 686.67,-25.35 676.31,-27.56 679.95,-33.54"/>
</a>
</g>
</g>
<!-- Node15 -->
<g id="Node000015" class="node">
<title>Node15</title>
<g id="a_Node000015"><a xlink:title=" ">
<polygon fill="#e0e0e0" stroke="#999999" points="848.88,-24.88 762.38,-24.88 762.38,-5.63 848.88,-5.63 848.88,-24.88"/>
<text text-anchor="middle" x="805.62" y="-11.38" font-family="Times,serif" font-size="10.00">boost/cstdint.hpp</text>
</a>
</g>
</g>
<!-- Node13&#45;&gt;Node15 -->
<g id="edge16_Node000013_Node000015" class="edge">
<title>Node13&#45;&gt;Node15</title>
<g id="a_edge16_Node000013_Node000015"><a xlink:title=" ">
<path fill="none" stroke="#63b8ff" d="M626.13,-71.65C662.69,-60.36 725.15,-41.09 765.9,-28.51"/>
<polygon fill="#63b8ff" stroke="#63b8ff" points="766.75,-31.6 775.27,-25.31 764.69,-24.91 766.75,-31.6"/>
</a>
</g>
</g>
<!-- Node16 -->
<g id="Node000016" class="node">
<title>Node16</title>
<g id="a_Node000016"><a xlink:title=" ">
<polygon fill="#e0e0e0" stroke="#999999" points="471.12,-24.88 362.12,-24.88 362.12,-5.63 471.12,-5.63 471.12,-24.88"/>
<text text-anchor="middle" x="416.62" y="-11.38" font-family="Times,serif" font-size="10.00">boost/static_assert.hpp</text>
</a>
</g>
</g>
<!-- Node13&#45;&gt;Node16 -->
<g id="edge17_Node000013_Node000016" class="edge">
<title>Node13&#45;&gt;Node16</title>
<g id="a_edge17_Node000013_Node000016"><a xlink:title=" ">
<path fill="none" stroke="#63b8ff" d="M571.22,-71.65C540.13,-60.51 487.3,-41.58 452.19,-28.99"/>
<polygon fill="#63b8ff" stroke="#63b8ff" points="453.5,-25.39 442.9,-25.31 451.14,-31.98 453.5,-25.39"/>
</a>
</g>
</g>
<!-- Node17 -->
<g id="Node000017" class="node">
<title>Node17</title>
<g id="a_Node000017"><a xlink:title=" ">
<polygon fill="#e0e0e0" stroke="#999999" points="531.75,-24.88 489.5,-24.88 489.5,-5.63 531.75,-5.63 531.75,-24.88"/>
<text text-anchor="middle" x="510.62" y="-11.38" font-family="Times,serif" font-size="10.00">climits</text>
</a>
</g>
</g>
<!-- Node13&#45;&gt;Node17 -->
<g id="edge18_Node000013_Node000017" class="edge">
<title>Node13&#45;&gt;Node17</title>
<g id="a_edge18_Node000013_Node000017"><a xlink:title=" ">
<path fill="none" stroke="#63b8ff" d="M584.67,-71.78C570.88,-61.44 547.98,-44.27 531.29,-31.75"/>
<polygon fill="#63b8ff" stroke="#63b8ff" points="533.86,-28.55 523.76,-25.35 529.66,-34.15 533.86,-28.55"/>
</a>
</g>
</g>
<!-- Node18 -->
<g id="Node000018" class="node">
<title>Node18</title>
<g id="a_Node000018"><a xlink:title=" ">
<polygon fill="#e0e0e0" stroke="#999999" points="643.25,-30.5 550,-30.5 550,0 643.25,0 643.25,-30.5"/>
<text text-anchor="start" x="558" y="-17" font-family="Times,serif" font-size="10.00">boost/archive/basic</text>
<text text-anchor="middle" x="596.62" y="-5.75" font-family="Times,serif" font-size="10.00">_archive.hpp</text>
</a>
</g>
</g>
<!-- Node13&#45;&gt;Node18 -->
<g id="edge19_Node000013_Node000018" class="edge">
<title>Node13&#45;&gt;Node18</title>
<g id="a_edge19_Node000013_Node000018"><a xlink:title=" ">
<path fill="none" stroke="#63b8ff" d="M596.62,-71.78C596.62,-63.95 596.62,-52.2 596.62,-41.52"/>
<polygon fill="#63b8ff" stroke="#63b8ff" points="600.13,-41.59 596.62,-31.59 593.13,-41.59 600.13,-41.59"/>
</a>
</g>
</g>
</g>
</svg>

<g id="navigator" transform="translate(0 0)" fill="#404254">
  <rect fill="#f2f5e9" fill-opacity="0.5" stroke="#606060" stroke-width=".5" x="0" y="0" width="60" height="60"/>
  <use id="zoomplus" xlink:href="#zoomPlus" x="17" y="9" onmousedown="handleZoom(evt,'in')"/>
  <use id="zoomminus" xlink:href="#zoomMin" x="42" y="9" onmousedown="handleZoom(evt,'out')"/>
  <use id="reset" xlink:href="#resetDef" x="30" y="36" onmousedown="handleReset()"/>
   <use id="arrowup" xlink:href="#arrowUp" x="0" y="0" onmousedown="handlePan(0,-1)"/>
  <use id="arrowright" xlink:href="#arrowRight" x="0" y="0" onmousedown="handlePan(1,0)"/>
  <use id="arrowdown" xlink:href="#arrowDown" x="0" y="0" onmousedown="handlePan(0,1)"/>
  <use id="arrowleft" xlink:href="#arrowLeft" x="0" y="0" onmousedown="handlePan(-1,0)"/>
</g>
<svg viewBox="0 0 15 15" width="100%" height="30px" preserveAspectRatio="xMaxYMin meet">
 <g id="arrow_out" transform="scale(0.3 0.3)">
  <a xlink:href="portable-binary-iarchive_8cpp__incl_org.svg" target="_base">
   <rect id="button" ry="5" rx="5" y="6" x="6" height="38" width="38"
        fill="#f2f5e9" fill-opacity="0.5" stroke="#606060" stroke-width="1.0"/>
   <path id="arrow"
     d="M 11.500037,31.436501 C 11.940474,20.09759 22.043105,11.32322 32.158766,21.979434 L 37.068811,17.246167 C 37.068811,17.246167 37.088388,32 37.088388,32 L 22.160133,31.978069 C 22.160133,31.978069 26.997745,27.140456 26.997745,27.140456 C 18.528582,18.264221 13.291696,25.230495 11.500037,31.436501 z"
     style="fill:#404040;"/>
  </a>
 </g>
</svg>

<style type='text/css'>
<![CDATA[
[data-mouse-over-selected='false'] { opacity: 0.7; }
[data-mouse-over-selected='true']  { opacity: 1.0; }
]]>
</style>
<script type="application/ecmascript"><![CDATA[
document.addEventListener('DOMContentLoaded', (event) => {
  highlightEdges();
  highlightAdjacentNodes();
});
]]></script>
</svg>
