<?xml version="1.0" encoding="UTF-8" standalone="no"?>
<!DOCTYPE svg PUBLIC "-//W3C//DTD SVG 1.1//EN"
 "http://www.w3.org/Graphics/SVG/1.1/DTD/svg11.dtd">
<!-- Generated by graphviz version 8.1.0 (20230707.0739)
 -->
<!-- Title: mal_packet_weaver::ByteArray::as Pages: 1 -->
<svg width="650pt" height="614pt"
 viewBox="0.00 0.00 649.50 614.12" xmlns="http://www.w3.org/2000/svg" xmlns:xlink="http://www.w3.org/1999/xlink">
<g id="graph0" class="graph" transform="scale(1 1) rotate(0) translate(4 610.12)">
<title>mal_packet_weaver::ByteArray::as</title>
<!-- Node1 -->
<g id="Node000001" class="node">
<title>Node1</title>
<g id="a_Node000001"><a xlink:title="Convert the ByteArray to a typed pointer.">
<polygon fill="#999999" stroke="#666666" points="641.5,-302.5 542.25,-302.5 542.25,-272 641.5,-272 641.5,-302.5"/>
<text text-anchor="start" x="550.25" y="-289" font-family="Times,serif" font-size="10.00">mal_packet_weaver::</text>
<text text-anchor="middle" x="591.88" y="-277.75" font-family="Times,serif" font-size="10.00">ByteArray::as</text>
</a>
</g>
</g>
<!-- Node2 -->
<g id="Node000002" class="node">
<title>Node2</title>
<g id="a_Node000002"><a xlink:href="../../dd/dd7/namespacemal__packet__weaver_1_1crypto_1_1_s_h_a.html#a11d1f9c659cddb5ebfa6f560e4772fb2" target="_top" xlink:title="Computes a hash value for the given data using the specified hash algorithm.">
<polygon fill="white" stroke="#666666" points="492.38,-539.5 363.12,-539.5 363.12,-509 492.38,-509 492.38,-539.5"/>
<text text-anchor="start" x="371.12" y="-526" font-family="Times,serif" font-size="10.00">mal_packet_weaver::</text>
<text text-anchor="middle" x="427.75" y="-514.75" font-family="Times,serif" font-size="10.00">crypto::SHA::ComputeHash</text>
</a>
</g>
</g>
<!-- Node1&#45;&gt;Node2 -->
<g id="edge1_Node000001_Node000002" class="edge">
<title>Node1&#45;&gt;Node2</title>
<g id="a_edge1_Node000001_Node000002"><a xlink:title=" ">
<path fill="none" stroke="#63b8ff" d="M587.37,-313.55C580.14,-357.61 559.53,-446.46 506.25,-497.25 501.51,-501.77 495.96,-505.54 490.07,-508.68"/>
<polygon fill="#63b8ff" stroke="#63b8ff" points="590.95,-314.29 589,-303.88 584.03,-313.23 590.95,-314.29"/>
</a>
</g>
</g>
<!-- Node8 -->
<g id="Node000008" class="node">
<title>Node8</title>
<g id="a_Node000008"><a xlink:href="../../d9/d37/classmal__packet__weaver_1_1crypto_1_1_a_e_s_1_1_a_e_s256.html#a28153e7739c614b38c24e720e2c6f787" target="_top" xlink:title="Decrypts ciphertext data using AES&#45;256 CBC mode.">
<polygon fill="white" stroke="#666666" points="480,-428.12 375.5,-428.12 375.5,-386.38 480,-386.38 480,-428.12"/>
<text text-anchor="start" x="383.5" y="-414.62" font-family="Times,serif" font-size="10.00">mal_packet_weaver::</text>
<text text-anchor="start" x="383.5" y="-403.38" font-family="Times,serif" font-size="10.00">crypto::AES::AES256</text>
<text text-anchor="middle" x="427.75" y="-392.12" font-family="Times,serif" font-size="10.00">::decrypt</text>
</a>
</g>
</g>
<!-- Node1&#45;&gt;Node8 -->
<g id="edge7_Node000001_Node000008" class="edge">
<title>Node1&#45;&gt;Node8</title>
<g id="a_edge7_Node000001_Node000008"><a xlink:title=" ">
<path fill="none" stroke="#63b8ff" d="M573.1,-311.51C557.41,-331.46 532.94,-359.27 506.25,-377.25 498.35,-382.57 489.38,-387.14 480.4,-390.99"/>
<polygon fill="#63b8ff" stroke="#63b8ff" points="576.35,-314.02 579.66,-303.96 570.79,-309.76 576.35,-314.02"/>
</a>
</g>
</g>
<!-- Node9 -->
<g id="Node000009" class="node">
<title>Node9</title>
<g id="a_Node000009"><a xlink:href="../../d9/d37/classmal__packet__weaver_1_1crypto_1_1_a_e_s_1_1_a_e_s256.html#a4126e5bdba9b35fe6dee92a48f6528f0" target="_top" xlink:title="Encrypts plaintext data using AES&#45;256 CBC mode.">
<polygon fill="white" stroke="#666666" points="480,-368.12 375.5,-368.12 375.5,-326.38 480,-326.38 480,-368.12"/>
<text text-anchor="start" x="383.5" y="-354.62" font-family="Times,serif" font-size="10.00">mal_packet_weaver::</text>
<text text-anchor="start" x="383.5" y="-343.38" font-family="Times,serif" font-size="10.00">crypto::AES::AES256</text>
<text text-anchor="middle" x="427.75" y="-332.12" font-family="Times,serif" font-size="10.00">::encrypt</text>
</a>
</g>
</g>
<!-- Node1&#45;&gt;Node9 -->
<g id="edge8_Node000001_Node000009" class="edge">
<title>Node1&#45;&gt;Node9</title>
<g id="a_edge8_Node000001_Node000009"><a xlink:title=" ">
<path fill="none" stroke="#63b8ff" d="M538.59,-306.6C519.91,-313.51 498.88,-321.3 480.26,-328.19"/>
<polygon fill="#63b8ff" stroke="#63b8ff" points="539.54,-309.61 547.7,-302.86 537.11,-303.05 539.54,-309.61"/>
</a>
</g>
</g>
<!-- Node10 -->
<g id="Node000010" class="node">
<title>Node10</title>
<g id="a_Node000010"><a xlink:href="../../d4/d9d/structmal__packet__weaver_1_1_byte_array.html#ad2381cfadc5bbf18d50214211032c213" target="_top" xlink:title="Create a byte array from an integral value.">
<polygon fill="white" stroke="#666666" points="485.25,-594.5 370.25,-594.5 370.25,-564 485.25,-564 485.25,-594.5"/>
<text text-anchor="start" x="378.25" y="-581" font-family="Times,serif" font-size="10.00">mal_packet_weaver::</text>
<text text-anchor="middle" x="427.75" y="-569.75" font-family="Times,serif" font-size="10.00">ByteArray::from_integral</text>
</a>
</g>
</g>
<!-- Node1&#45;&gt;Node10 -->
<g id="edge9_Node000001_Node000010" class="edge">
<title>Node1&#45;&gt;Node10</title>
<g id="a_edge9_Node000001_Node000010"><a xlink:title=" ">
<path fill="none" stroke="#63b8ff" d="M589.52,-313.6C585.48,-365.24 569.49,-480.63 506.25,-548.25 500.41,-554.49 493.15,-559.51 485.42,-563.52"/>
<polygon fill="#63b8ff" stroke="#63b8ff" points="593.07,-313.96 590.26,-303.74 586.09,-313.48 593.07,-313.96"/>
</a>
</g>
</g>
<!-- Node11 -->
<g id="Node000011" class="node">
<title>Node11</title>
<g id="a_Node000011"><a xlink:href="../../df/d10/classmal__packet__weaver_1_1crypto_1_1_e_c_d_s_a_1_1_key_pair_generator.html#a24a3aced4748f3729979c6e16f853068" target="_top" xlink:title="Generates an ECDSA key pair.">
<polygon fill="white" stroke="#666666" points="506.25,-308.12 349.25,-308.12 349.25,-266.38 506.25,-266.38 506.25,-308.12"/>
<text text-anchor="start" x="357.25" y="-294.62" font-family="Times,serif" font-size="10.00">mal_packet_weaver::</text>
<text text-anchor="start" x="357.25" y="-283.38" font-family="Times,serif" font-size="10.00">crypto::ECDSA::KeyPairGenerator</text>
<text text-anchor="middle" x="427.75" y="-272.12" font-family="Times,serif" font-size="10.00">::generate</text>
</a>
</g>
</g>
<!-- Node1&#45;&gt;Node11 -->
<g id="edge11_Node000001_Node000011" class="edge">
<title>Node1&#45;&gt;Node11</title>
<g id="a_edge11_Node000001_Node000011"><a xlink:title=" ">
<path fill="none" stroke="#63b8ff" d="M530.88,-287.25C523,-287.25 514.83,-287.25 506.71,-287.25"/>
<polygon fill="#63b8ff" stroke="#63b8ff" points="530.79,-290.75 540.79,-287.25 530.79,-283.75 530.79,-290.75"/>
</a>
</g>
</g>
<!-- Node13 -->
<g id="Node000013" class="node">
<title>Node13</title>
<g id="a_Node000013"><a xlink:href="../../d0/d9a/classmal__packet__weaver_1_1crypto_1_1_diffie_hellman_helper.html#a7d7cac52ad28c81251114260ae33be5a" target="_top" xlink:title="Retrieves the public key as a byte array.">
<polygon fill="white" stroke="#666666" points="493.12,-248.12 362.38,-248.12 362.38,-206.38 493.12,-206.38 493.12,-248.12"/>
<text text-anchor="start" x="370.38" y="-234.62" font-family="Times,serif" font-size="10.00">mal_packet_weaver::</text>
<text text-anchor="start" x="370.38" y="-223.38" font-family="Times,serif" font-size="10.00">crypto::DiffieHellmanHelper</text>
<text text-anchor="middle" x="427.75" y="-212.12" font-family="Times,serif" font-size="10.00">::get_public_key</text>
</a>
</g>
</g>
<!-- Node1&#45;&gt;Node13 -->
<g id="edge13_Node000001_Node000013" class="edge">
<title>Node1&#45;&gt;Node13</title>
<g id="a_edge13_Node000001_Node000013"><a xlink:title=" ">
<path fill="none" stroke="#63b8ff" d="M538.58,-267.9C521.88,-261.72 503.32,-254.85 486.27,-248.54"/>
<polygon fill="#63b8ff" stroke="#63b8ff" points="537.11,-271.45 547.7,-271.64 539.54,-264.89 537.11,-271.45"/>
</a>
</g>
</g>
<!-- Node14 -->
<g id="Node000014" class="node">
<title>Node14</title>
<g id="a_Node000014"><a xlink:href="../../d0/d9a/classmal__packet__weaver_1_1crypto_1_1_diffie_hellman_helper.html#ae94d2e01619e6e44380dbba90d9cbc5e" target="_top" xlink:title="Computes the shared secret key using the peer&#39;s public key.">
<polygon fill="white" stroke="#666666" points="493.12,-188.12 362.38,-188.12 362.38,-146.38 493.12,-146.38 493.12,-188.12"/>
<text text-anchor="start" x="370.38" y="-174.62" font-family="Times,serif" font-size="10.00">mal_packet_weaver::</text>
<text text-anchor="start" x="370.38" y="-163.38" font-family="Times,serif" font-size="10.00">crypto::DiffieHellmanHelper</text>
<text text-anchor="middle" x="427.75" y="-152.12" font-family="Times,serif" font-size="10.00">::get_shared_secret</text>
</a>
</g>
</g>
<!-- Node1&#45;&gt;Node14 -->
<g id="edge14_Node000001_Node000014" class="edge">
<title>Node1&#45;&gt;Node14</title>
<g id="a_edge14_Node000001_Node000014"><a xlink:title=" ">
<path fill="none" stroke="#63b8ff" d="M573.1,-262.99C557.41,-243.04 532.94,-215.23 506.25,-197.25 501.58,-194.11 496.54,-191.22 491.34,-188.6"/>
<polygon fill="#63b8ff" stroke="#63b8ff" points="570.79,-264.74 579.66,-270.54 576.35,-260.48 570.79,-264.74"/>
</a>
</g>
</g>
<!-- Node15 -->
<g id="Node000015" class="node">
<title>Node15</title>
<g id="a_Node000015"><a xlink:href="../../d6/de9/namespacemal__packet__weaver.html#a7f65afb32374e0f2cbe853423950775c" target="_top" xlink:title="Convert an integer value of the specified type to a ByteArray.">
<polygon fill="white" stroke="#666666" points="477.38,-128.5 378.12,-128.5 378.12,-98 477.38,-98 477.38,-128.5"/>
<text text-anchor="start" x="386.12" y="-115" font-family="Times,serif" font-size="10.00">mal_packet_weaver::</text>
<text text-anchor="middle" x="427.75" y="-103.75" font-family="Times,serif" font-size="10.00">integer_to_bytes</text>
</a>
</g>
</g>
<!-- Node1&#45;&gt;Node15 -->
<g id="edge15_Node000001_Node000015" class="edge">
<title>Node1&#45;&gt;Node15</title>
<g id="a_edge15_Node000001_Node000015"><a xlink:title=" ">
<path fill="none" stroke="#63b8ff" d="M582.91,-261.16C571.37,-227.67 546.81,-169.97 506.25,-137.25 498.03,-130.62 487.97,-125.81 477.86,-122.33"/>
<polygon fill="#63b8ff" stroke="#63b8ff" points="579.88,-262.13 586.33,-270.52 586.52,-259.93 579.88,-262.13"/>
</a>
</g>
</g>
<!-- Node16 -->
<g id="Node000016" class="node">
<title>Node16</title>
<g id="a_Node000016"><a xlink:href="../../d8/d39/classmal__packet__weaver_1_1_session.html#a24333663993df453bafeeaed060b777a" target="_top" xlink:title=" ">
<polygon fill="white" stroke="#666666" points="480.75,-79.5 374.75,-79.5 374.75,-49 480.75,-49 480.75,-79.5"/>
<text text-anchor="start" x="382.75" y="-66" font-family="Times,serif" font-size="10.00">mal_packet_weaver::</text>
<text text-anchor="middle" x="427.75" y="-54.75" font-family="Times,serif" font-size="10.00">Session::read_bytes_to</text>
</a>
</g>
</g>
<!-- Node1&#45;&gt;Node16 -->
<g id="edge16_Node000001_Node000016" class="edge">
<title>Node1&#45;&gt;Node16</title>
<g id="a_edge16_Node000001_Node000016"><a xlink:title=" ">
<path fill="none" stroke="#63b8ff" d="M586.76,-260.83C578.81,-218.59 557.37,-135.88 506.25,-89.25 499.04,-82.68 490.09,-77.83 480.86,-74.26"/>
<polygon fill="#63b8ff" stroke="#63b8ff" points="583.48,-261.36 588.66,-270.61 590.37,-260.15 583.48,-261.36"/>
</a>
</g>
</g>
<!-- Node17 -->
<g id="Node000017" class="node">
<title>Node17</title>
<g id="a_Node000017"><a xlink:href="../../d8/d39/classmal__packet__weaver_1_1_session.html#a71ede34f71a6dc30d56d99015997caa3" target="_top" xlink:title="Asynchronously sends all packets in the queue through the network.">
<polygon fill="white" stroke="#666666" points="477.38,-30.5 378.12,-30.5 378.12,0 477.38,0 477.38,-30.5"/>
<text text-anchor="start" x="386.12" y="-17" font-family="Times,serif" font-size="10.00">mal_packet_weaver::</text>
<text text-anchor="middle" x="427.75" y="-5.75" font-family="Times,serif" font-size="10.00">Session::send_all</text>
</a>
</g>
</g>
<!-- Node1&#45;&gt;Node17 -->
<g id="edge17_Node000001_Node000017" class="edge">
<title>Node1&#45;&gt;Node17</title>
<g id="a_edge17_Node000001_Node000017"><a xlink:title=" ">
<path fill="none" stroke="#63b8ff" d="M589.36,-260.89C585.07,-210.84 568.67,-101.56 506.25,-40.25 498.38,-32.52 488.11,-27.18 477.64,-23.49"/>
<polygon fill="#63b8ff" stroke="#63b8ff" points="585.94,-261.03 590.18,-270.73 592.92,-260.5 585.94,-261.03"/>
</a>
</g>
</g>
<!-- Node19 -->
<g id="Node000019" class="node">
<title>Node19</title>
<g id="a_Node000019"><a xlink:href="../../d8/d88/classmal__packet__weaver_1_1crypto_1_1_e_c_d_s_a_1_1_signer.html#aa761598eda68fe2af6fd32c45dc0de64" target="_top" xlink:title="Signs a hash using the private key.">
<polygon fill="white" stroke="#666666" points="482.25,-488.12 373.25,-488.12 373.25,-446.38 482.25,-446.38 482.25,-488.12"/>
<text text-anchor="start" x="381.25" y="-474.62" font-family="Times,serif" font-size="10.00">mal_packet_weaver::</text>
<text text-anchor="start" x="381.25" y="-463.38" font-family="Times,serif" font-size="10.00">crypto::ECDSA::Signer</text>
<text text-anchor="middle" x="427.75" y="-452.12" font-family="Times,serif" font-size="10.00">::sign_hash</text>
</a>
</g>
</g>
<!-- Node1&#45;&gt;Node19 -->
<g id="edge19_Node000001_Node000019" class="edge">
<title>Node1&#45;&gt;Node19</title>
<g id="a_edge19_Node000001_Node000019"><a xlink:title=" ">
<path fill="none" stroke="#63b8ff" d="M582.56,-312.91C570.63,-345.95 545.66,-403.15 506.25,-437.25 499.27,-443.29 490.93,-448.19 482.36,-452.13"/>
<polygon fill="#63b8ff" stroke="#63b8ff" points="586.13,-314.3 586.11,-303.7 579.52,-312 586.13,-314.3"/>
</a>
</g>
</g>
<!-- Node3 -->
<g id="Node000003" class="node">
<title>Node3</title>
<g id="a_Node000003"><a xlink:href="../../d5/d65/classmal__packet__weaver_1_1packet_1_1crypto_1_1_d_h_key_exchange_response_packet.html#a5b0b722412687c056ae381e0687f10ba" target="_top" xlink:title="Calculate the hash of the packet&#39;s contents.">
<polygon fill="white" stroke="#666666" points="313.25,-606.12 166,-606.12 166,-564.38 313.25,-564.38 313.25,-606.12"/>
<text text-anchor="start" x="174" y="-592.62" font-family="Times,serif" font-size="10.00">mal_packet_weaver::</text>
<text text-anchor="start" x="174" y="-581.38" font-family="Times,serif" font-size="10.00">packet::crypto::DHKeyExchange</text>
<text text-anchor="middle" x="239.62" y="-570.12" font-family="Times,serif" font-size="10.00">ResponsePacket::get_hash</text>
</a>
</g>
</g>
<!-- Node2&#45;&gt;Node3 -->
<g id="edge2_Node000002_Node000003" class="edge">
<title>Node2&#45;&gt;Node3</title>
<g id="a_edge2_Node000002_Node000003"><a xlink:title=" ">
<path fill="none" stroke="#63b8ff" d="M368.61,-543.3C348.61,-549.86 326.09,-557.24 305.58,-563.96"/>
<polygon fill="#63b8ff" stroke="#63b8ff" points="369.41,-546.4 377.82,-539.96 367.23,-539.75 369.41,-546.4"/>
</a>
</g>
</g>
<!-- Node4 -->
<g id="Node000004" class="node">
<title>Node4</title>
<g id="a_Node000004"><a xlink:href="../../d8/d88/classmal__packet__weaver_1_1crypto_1_1_e_c_d_s_a_1_1_signer.html#a80725b1d55e0efaa11469e3182f0b1c2" target="_top" xlink:title="Signs binary data using the private key.">
<polygon fill="white" stroke="#666666" points="294.12,-486.12 185.12,-486.12 185.12,-444.38 294.12,-444.38 294.12,-486.12"/>
<text text-anchor="start" x="193.12" y="-472.62" font-family="Times,serif" font-size="10.00">mal_packet_weaver::</text>
<text text-anchor="start" x="193.12" y="-461.38" font-family="Times,serif" font-size="10.00">crypto::ECDSA::Signer</text>
<text text-anchor="middle" x="239.62" y="-450.12" font-family="Times,serif" font-size="10.00">::sign_data</text>
</a>
</g>
</g>
<!-- Node2&#45;&gt;Node4 -->
<g id="edge3_Node000002_Node000004" class="edge">
<title>Node2&#45;&gt;Node4</title>
<g id="a_edge3_Node000002_Node000004"><a xlink:title=" ">
<path fill="none" stroke="#63b8ff" d="M366.92,-505.28C343.64,-497.9 317.17,-489.51 294.5,-482.33"/>
<polygon fill="#63b8ff" stroke="#63b8ff" points="365.77,-508.91 376.36,-508.59 367.89,-502.24 365.77,-508.91"/>
</a>
</g>
</g>
<!-- Node6 -->
<g id="Node000006" class="node">
<title>Node6</title>
<g id="a_Node000006"><a xlink:href="../../df/d2a/classmal__packet__weaver_1_1crypto_1_1_e_c_d_s_a_1_1_verifier.html#abcc0625ece25e293be526e07ad78d6d5" target="_top" xlink:title="Verifies the signature of binary data.">
<polygon fill="white" stroke="#666666" points="297.5,-546.12 181.75,-546.12 181.75,-504.38 297.5,-504.38 297.5,-546.12"/>
<text text-anchor="start" x="189.75" y="-532.62" font-family="Times,serif" font-size="10.00">mal_packet_weaver::</text>
<text text-anchor="start" x="189.75" y="-521.38" font-family="Times,serif" font-size="10.00">crypto::ECDSA::Verifier</text>
<text text-anchor="middle" x="239.62" y="-510.12" font-family="Times,serif" font-size="10.00">::verify_data</text>
</a>
</g>
</g>
<!-- Node2&#45;&gt;Node6 -->
<g id="edge5_Node000002_Node000006" class="edge">
<title>Node2&#45;&gt;Node6</title>
<g id="a_edge5_Node000002_Node000006"><a xlink:title=" ">
<path fill="none" stroke="#63b8ff" d="M351.94,-524.65C333.94,-524.75 315,-524.85 297.94,-524.94"/>
<polygon fill="#63b8ff" stroke="#63b8ff" points="351.72,-528.15 361.7,-524.59 351.68,-521.15 351.72,-528.15"/>
</a>
</g>
</g>
<!-- Node5 -->
<g id="Node000005" class="node">
<title>Node5</title>
<g id="a_Node000005"><a xlink:href="../../d2/d8f/namespacemal__packet__weaver_1_1crypto_1_1_e_c_d_s_a.html#ac3a3b5adbeac074fe5e7a57d22d44d7c" target="_top" xlink:title=" ">
<polygon fill="white" stroke="#666666" points="126.25,-480.5 3.75,-480.5 3.75,-450 126.25,-450 126.25,-480.5"/>
<text text-anchor="start" x="11.75" y="-467" font-family="Times,serif" font-size="10.00">mal_packet_weaver::</text>
<text text-anchor="middle" x="65" y="-455.75" font-family="Times,serif" font-size="10.00">crypto::ECDSA::sign_data</text>
</a>
</g>
</g>
<!-- Node4&#45;&gt;Node5 -->
<g id="edge4_Node000004_Node000005" class="edge">
<title>Node4&#45;&gt;Node5</title>
<g id="a_edge4_Node000004_Node000005"><a xlink:title=" ">
<path fill="none" stroke="#63b8ff" d="M174.32,-465.25C158.69,-465.25 142.02,-465.25 126.57,-465.25"/>
<polygon fill="#63b8ff" stroke="#63b8ff" points="173.95,-468.75 183.95,-465.25 173.95,-461.75 173.95,-468.75"/>
</a>
</g>
</g>
<!-- Node7 -->
<g id="Node000007" class="node">
<title>Node7</title>
<g id="a_Node000007"><a xlink:href="../../d2/d8f/namespacemal__packet__weaver_1_1crypto_1_1_e_c_d_s_a.html#a945499cfa6f78a7ab8ad28f12064a9ea" target="_top" xlink:title=" ">
<polygon fill="white" stroke="#666666" points="130,-540.5 0,-540.5 0,-510 130,-510 130,-540.5"/>
<text text-anchor="start" x="8" y="-527" font-family="Times,serif" font-size="10.00">mal_packet_weaver::</text>
<text text-anchor="middle" x="65" y="-515.75" font-family="Times,serif" font-size="10.00">crypto::ECDSA::verify_data</text>
</a>
</g>
</g>
<!-- Node6&#45;&gt;Node7 -->
<g id="edge6_Node000006_Node000007" class="edge">
<title>Node6&#45;&gt;Node7</title>
<g id="a_edge6_Node000006_Node000007"><a xlink:title=" ">
<path fill="none" stroke="#63b8ff" d="M170.66,-525.25C157.4,-525.25 143.54,-525.25 130.4,-525.25"/>
<polygon fill="#63b8ff" stroke="#63b8ff" points="170.62,-528.75 180.62,-525.25 170.62,-521.75 170.62,-528.75"/>
</a>
</g>
</g>
<!-- Node10&#45;&gt;Node3 -->
<g id="edge10_Node000010_Node000003" class="edge">
<title>Node10&#45;&gt;Node3</title>
<g id="a_edge10_Node000010_Node000003"><a xlink:title=" ">
<path fill="none" stroke="#63b8ff" d="M359.28,-581.42C344.45,-581.9 328.67,-582.41 313.63,-582.9"/>
<polygon fill="#63b8ff" stroke="#63b8ff" points="359.01,-584.9 368.9,-581.08 358.79,-577.91 359.01,-584.9"/>
</a>
</g>
</g>
<!-- Node12 -->
<g id="Node000012" class="node">
<title>Node12</title>
<g id="a_Node000012"><a xlink:href="../../d2/d8f/namespacemal__packet__weaver_1_1crypto_1_1_e_c_d_s_a.html#a85df93f117edc72dde491f32e7ea594a" target="_top" xlink:title=" ">
<polygon fill="white" stroke="#666666" points="298.62,-308.12 180.62,-308.12 180.62,-266.38 298.62,-266.38 298.62,-308.12"/>
<text text-anchor="start" x="188.62" y="-294.62" font-family="Times,serif" font-size="10.00">mal_packet_weaver::</text>
<text text-anchor="start" x="188.62" y="-283.38" font-family="Times,serif" font-size="10.00">crypto::ECDSA::generate</text>
<text text-anchor="middle" x="239.62" y="-272.12" font-family="Times,serif" font-size="10.00">_key_pair</text>
</a>
</g>
</g>
<!-- Node11&#45;&gt;Node12 -->
<g id="edge12_Node000011_Node000012" class="edge">
<title>Node11&#45;&gt;Node12</title>
<g id="a_edge12_Node000011_Node000012"><a xlink:title=" ">
<path fill="none" stroke="#63b8ff" d="M338.24,-287.25C324.88,-287.25 311.41,-287.25 298.91,-287.25"/>
<polygon fill="#63b8ff" stroke="#63b8ff" points="337.89,-290.75 347.89,-287.25 337.89,-283.75 337.89,-290.75"/>
</a>
</g>
</g>
<!-- Node18 -->
<g id="Node000018" class="node">
<title>Node18</title>
<g id="a_Node000018"><a xlink:href="../../d8/d39/classmal__packet__weaver_1_1_session.html#a5cf271c70d7ec610cfb01d0ed8655693" target="_top" xlink:title="Constructor for the Session class.">
<polygon fill="white" stroke="#666666" points="289.25,-30.5 190,-30.5 190,0 289.25,0 289.25,-30.5"/>
<text text-anchor="start" x="198" y="-17" font-family="Times,serif" font-size="10.00">mal_packet_weaver::</text>
<text text-anchor="middle" x="239.62" y="-5.75" font-family="Times,serif" font-size="10.00">Session::Session</text>
</a>
</g>
</g>
<!-- Node17&#45;&gt;Node18 -->
<g id="edge18_Node000017_Node000018" class="edge">
<title>Node17&#45;&gt;Node18</title>
<g id="a_edge18_Node000017_Node000018"><a xlink:title=" ">
<path fill="none" stroke="#63b8ff" d="M367.01,-15.25C341.99,-15.25 313.26,-15.25 289.52,-15.25"/>
<polygon fill="#63b8ff" stroke="#63b8ff" points="366.85,-18.75 376.85,-15.25 366.85,-11.75 366.85,-18.75"/>
</a>
</g>
</g>
<!-- Node19&#45;&gt;Node4 -->
<g id="edge20_Node000019_Node000004" class="edge">
<title>Node19&#45;&gt;Node4</title>
<g id="a_edge20_Node000019_Node000004"><a xlink:title=" ">
<path fill="none" stroke="#63b8ff" d="M361.95,-466.55C339.87,-466.32 315.45,-466.05 294.34,-465.83"/>
<polygon fill="#63b8ff" stroke="#63b8ff" points="361.88,-470.06 371.91,-466.67 361.95,-463.06 361.88,-470.06"/>
</a>
</g>
</g>
<!-- Node20 -->
<g id="Node000020" class="node">
<title>Node20</title>
<g id="a_Node000020"><a xlink:href="../../d2/d8f/namespacemal__packet__weaver_1_1crypto_1_1_e_c_d_s_a.html#a17381fd8742dd748295e76f09b980cf0" target="_top" xlink:title=" ">
<polygon fill="white" stroke="#666666" points="301.62,-426.5 177.62,-426.5 177.62,-396 301.62,-396 301.62,-426.5"/>
<text text-anchor="start" x="185.62" y="-413" font-family="Times,serif" font-size="10.00">mal_packet_weaver::</text>
<text text-anchor="middle" x="239.62" y="-401.75" font-family="Times,serif" font-size="10.00">crypto::ECDSA::sign_hash</text>
</a>
</g>
</g>
<!-- Node19&#45;&gt;Node20 -->
<g id="edge21_Node000019_Node000020" class="edge">
<title>Node19&#45;&gt;Node20</title>
<g id="a_edge21_Node000019_Node000020"><a xlink:title=" ">
<path fill="none" stroke="#63b8ff" d="M362.64,-447.96C339.82,-441.09 314.42,-433.45 292.74,-426.93"/>
<polygon fill="#63b8ff" stroke="#63b8ff" points="361.33,-451.52 371.91,-451.05 363.35,-444.82 361.33,-451.52"/>
</a>
</g>
</g>
</g>
</svg>
