<?xml version="1.0" encoding="UTF-8" standalone="no"?>
<!DOCTYPE svg PUBLIC "-//W3C//DTD SVG 1.1//EN"
 "http://www.w3.org/Graphics/SVG/1.1/DTD/svg11.dtd">
<!-- Generated by graphviz version 8.1.0 (20230707.0739)
 -->
<!-- Title: mal_packet_weaver::ByteArray::append Pages: 1 -->
<svg width="243pt" height="57pt"
 viewBox="0.00 0.00 242.50 56.50" xmlns="http://www.w3.org/2000/svg" xmlns:xlink="http://www.w3.org/1999/xlink">
<g id="graph0" class="graph" transform="scale(1 1) rotate(0) translate(4 52.5)">
<title>mal_packet_weaver::ByteArray::append</title>
<!-- Node1 -->
<g id="Node000001" class="node">
<title>Node1</title>
<g id="a_Node000001"><a xlink:title="Append two data sources to the byte array.">
<polygon fill="#999999" stroke="#666666" points="99.25,-30.5 0,-30.5 0,0 99.25,0 99.25,-30.5"/>
<text text-anchor="start" x="8" y="-17" font-family="Times,serif" font-size="10.00">mal_packet_weaver::</text>
<text text-anchor="middle" x="49.62" y="-5.75" font-family="Times,serif" font-size="10.00">ByteArray::append</text>
</a>
</g>
</g>
<!-- Node2 -->
<g id="Node000002" class="node">
<title>Node2</title>
<g id="a_Node000002"><a xlink:href="../../d4/d9d/structmal__packet__weaver_1_1_byte_array.html#aed36512e62b9d6d8e45aef241339888b" target="_top" xlink:title="Append multiple data sources to the byte array.">
<polygon fill="white" stroke="#666666" points="234.5,-30.5 135.25,-30.5 135.25,0 234.5,0 234.5,-30.5"/>
<text text-anchor="start" x="143.25" y="-17" font-family="Times,serif" font-size="10.00">mal_packet_weaver::</text>
<text text-anchor="middle" x="184.88" y="-5.75" font-family="Times,serif" font-size="10.00">ByteArray::append</text>
</a>
</g>
</g>
<!-- Node1&#45;&gt;Node2 -->
<g id="edge1_Node000001_Node000002" class="edge">
<title>Node1&#45;&gt;Node2</title>
<g id="a_edge1_Node000001_Node000002"><a xlink:title=" ">
<path fill="none" stroke="#63b8ff" d="M99.49,-15.25C107.54,-15.25 115.97,-15.25 124.26,-15.25"/>
<polygon fill="#63b8ff" stroke="#63b8ff" points="124.02,-18.75 134.02,-15.25 124.02,-11.75 124.02,-18.75"/>
</a>
</g>
</g>
<!-- Node2&#45;&gt;Node2 -->
<g id="edge2_Node000002_Node000002" class="edge">
<title>Node2&#45;&gt;Node2</title>
<g id="a_edge2_Node000002_Node000002"><a xlink:title=" ">
<path fill="none" stroke="#63b8ff" d="M160.91,-30.99C156.02,-40.06 164.01,-48.5 184.88,-48.5 196.61,-48.5 204.28,-45.83 207.87,-41.88"/>
<polygon fill="#63b8ff" stroke="#63b8ff" points="211.43,-42.26 208.84,-31.99 204.46,-41.63 211.43,-42.26"/>
</a>
</g>
</g>
</g>
</svg>
