<?xml version="1.0" encoding="UTF-8" standalone="no"?>
<!DOCTYPE svg PUBLIC "-//W3C//DTD SVG 1.1//EN"
 "http://www.w3.org/Graphics/SVG/1.1/DTD/svg11.dtd">
<!-- Generated by graphviz version 8.1.0 (20230707.0739)
 -->
<!-- Title: mal_packet_weaver::ByteArray::append Pages: 1 -->
<svg width="426pt" height="256pt"
 viewBox="0.00 0.00 425.75 255.50" xmlns="http://www.w3.org/2000/svg" xmlns:xlink="http://www.w3.org/1999/xlink">
<g id="graph0" class="graph" transform="scale(1 1) rotate(0) translate(4 251.5)">
<title>mal_packet_weaver::ByteArray::append</title>
<!-- Node1 -->
<g id="Node000001" class="node">
<title>Node1</title>
<g id="a_Node000001"><a xlink:title="Append multiple data sources to the byte array.">
<polygon fill="#999999" stroke="#666666" points="417.75,-133.5 318.5,-133.5 318.5,-103 417.75,-103 417.75,-133.5"/>
<text text-anchor="start" x="326.5" y="-120" font-family="Times,serif" font-size="10.00">mal_packet_weaver::</text>
<text text-anchor="middle" x="368.12" y="-108.75" font-family="Times,serif" font-size="10.00">ByteArray::append</text>
</a>
</g>
</g>
<!-- Node1&#45;&gt;Node1 -->
<g id="edge2_Node000001_Node000001" class="edge">
<title>Node1&#45;&gt;Node1</title>
<g id="a_edge2_Node000001_Node000001"><a xlink:title=" ">
<path fill="none" stroke="#63b8ff" d="M395.19,-144.88C390.97,-148.83 381.95,-151.5 368.12,-151.5 343.55,-151.5 334.15,-143.06 339.91,-133.99"/>
<polygon fill="#63b8ff" stroke="#63b8ff" points="398.78,-145.3 396.34,-134.99 391.81,-144.56 398.78,-145.3"/>
</a>
</g>
</g>
<!-- Node2 -->
<g id="Node000002" class="node">
<title>Node2</title>
<g id="a_Node000002"><a xlink:href="../../d4/d9d/structmal__packet__weaver_1_1_byte_array.html#ac91eac3686b7789fa5e7276992f55e30" target="_top" xlink:title="Append two data sources to the byte array.">
<polygon fill="white" stroke="#666666" points="258.5,-247.5 159.25,-247.5 159.25,-217 258.5,-217 258.5,-247.5"/>
<text text-anchor="start" x="167.25" y="-234" font-family="Times,serif" font-size="10.00">mal_packet_weaver::</text>
<text text-anchor="middle" x="208.88" y="-222.75" font-family="Times,serif" font-size="10.00">ByteArray::append</text>
</a>
</g>
</g>
<!-- Node1&#45;&gt;Node2 -->
<g id="edge1_Node000001_Node000002" class="edge">
<title>Node1&#45;&gt;Node2</title>
<g id="a_edge1_Node000001_Node000002"><a xlink:title=" ">
<path fill="none" stroke="#63b8ff" d="M349.84,-142.51C334.31,-162.69 309.79,-190.85 282.5,-208.25 275.22,-212.89 266.96,-216.72 258.68,-219.86"/>
<polygon fill="#63b8ff" stroke="#63b8ff" points="353.13,-144.96 356.32,-134.86 347.53,-140.76 353.13,-144.96"/>
</a>
</g>
</g>
<!-- Node3 -->
<g id="Node000003" class="node">
<title>Node3</title>
<g id="a_Node000003"><a xlink:href="../../d4/d9d/structmal__packet__weaver_1_1_byte_array.html#a8a9f948984511e14d3c3f2022786646f" target="_top" xlink:title="Create a byte array from multiple data sources.">
<polygon fill="white" stroke="#666666" points="259.62,-199.12 158.12,-199.12 158.12,-157.38 259.62,-157.38 259.62,-199.12"/>
<text text-anchor="start" x="166.12" y="-185.62" font-family="Times,serif" font-size="10.00">mal_packet_weaver::</text>
<text text-anchor="start" x="166.12" y="-174.38" font-family="Times,serif" font-size="10.00">ByteArray::from_byte</text>
<text text-anchor="middle" x="208.88" y="-163.12" font-family="Times,serif" font-size="10.00">_arrays</text>
</a>
</g>
</g>
<!-- Node1&#45;&gt;Node3 -->
<g id="edge3_Node000001_Node000003" class="edge">
<title>Node1&#45;&gt;Node3</title>
<g id="a_edge3_Node000001_Node000003"><a xlink:title=" ">
<path fill="none" stroke="#63b8ff" d="M315.96,-137.77C298.05,-144.61 277.96,-152.27 260.12,-159.08"/>
<polygon fill="#63b8ff" stroke="#63b8ff" points="317.12,-140.69 325.22,-133.86 314.63,-134.15 317.12,-140.69"/>
</a>
</g>
</g>
<!-- Node4 -->
<g id="Node000004" class="node">
<title>Node4</title>
<g id="a_Node000004"><a xlink:href="../../d5/d65/classmal__packet__weaver_1_1packet_1_1crypto_1_1_d_h_key_exchange_response_packet.html#a5b0b722412687c056ae381e0687f10ba" target="_top" xlink:title="Calculate the hash of the packet&#39;s contents.">
<polygon fill="white" stroke="#666666" points="282.5,-139.12 135.25,-139.12 135.25,-97.38 282.5,-97.38 282.5,-139.12"/>
<text text-anchor="start" x="143.25" y="-125.62" font-family="Times,serif" font-size="10.00">mal_packet_weaver::</text>
<text text-anchor="start" x="143.25" y="-114.38" font-family="Times,serif" font-size="10.00">packet::crypto::DHKeyExchange</text>
<text text-anchor="middle" x="208.88" y="-103.12" font-family="Times,serif" font-size="10.00">ResponsePacket::get_hash</text>
</a>
</g>
</g>
<!-- Node1&#45;&gt;Node4 -->
<g id="edge4_Node000001_Node000004" class="edge">
<title>Node1&#45;&gt;Node4</title>
<g id="a_edge4_Node000001_Node000004"><a xlink:title=" ">
<path fill="none" stroke="#63b8ff" d="M307.24,-118.25C299.31,-118.25 291.1,-118.25 282.98,-118.25"/>
<polygon fill="#63b8ff" stroke="#63b8ff" points="307.23,-121.75 317.23,-118.25 307.23,-114.75 307.23,-121.75"/>
</a>
</g>
</g>
<!-- Node5 -->
<g id="Node000005" class="node">
<title>Node5</title>
<g id="a_Node000005"><a xlink:href="../../d8/d39/classmal__packet__weaver_1_1_session.html#a71ede34f71a6dc30d56d99015997caa3" target="_top" xlink:title="Asynchronously sends all packets in the queue through the network.">
<polygon fill="white" stroke="#666666" points="258.5,-79.5 159.25,-79.5 159.25,-49 258.5,-49 258.5,-79.5"/>
<text text-anchor="start" x="167.25" y="-66" font-family="Times,serif" font-size="10.00">mal_packet_weaver::</text>
<text text-anchor="middle" x="208.88" y="-54.75" font-family="Times,serif" font-size="10.00">Session::send_all</text>
</a>
</g>
</g>
<!-- Node1&#45;&gt;Node5 -->
<g id="edge5_Node000001_Node000005" class="edge">
<title>Node1&#45;&gt;Node5</title>
<g id="a_edge5_Node000001_Node000005"><a xlink:title=" ">
<path fill="none" stroke="#63b8ff" d="M313.58,-99.07C303.28,-95.44 292.56,-91.7 282.5,-88.25 274.59,-85.54 266.17,-82.71 257.97,-79.98"/>
<polygon fill="#63b8ff" stroke="#63b8ff" points="312.11,-102.62 322.7,-102.65 314.44,-96.02 312.11,-102.62"/>
</a>
</g>
</g>
<!-- Node7 -->
<g id="Node000007" class="node">
<title>Node7</title>
<g id="a_Node000007"><a xlink:href="../../dd/d2b/classmal__packet__weaver_1_1_derived_packet.html#a0bc641026e7f0ff5088c7ffd53b29b85" target="_top" xlink:title="Serialize the derived packet data into a ByteArray.">
<polygon fill="white" stroke="#666666" points="264.88,-30.5 152.88,-30.5 152.88,0 264.88,0 264.88,-30.5"/>
<text text-anchor="start" x="160.88" y="-17" font-family="Times,serif" font-size="10.00">mal_packet_weaver::</text>
<text text-anchor="middle" x="208.88" y="-5.75" font-family="Times,serif" font-size="10.00">DerivedPacket::serialize</text>
</a>
</g>
</g>
<!-- Node1&#45;&gt;Node7 -->
<g id="edge7_Node000001_Node000007" class="edge">
<title>Node1&#45;&gt;Node7</title>
<g id="a_edge7_Node000001_Node000007"><a xlink:title=" ">
<path fill="none" stroke="#63b8ff" d="M346.73,-94.82C330.73,-77.68 307.12,-54.95 282.5,-40.25 276.66,-36.76 270.27,-33.68 263.77,-30.96"/>
<polygon fill="#63b8ff" stroke="#63b8ff" points="343.62,-96.69 352.94,-101.72 348.79,-91.98 343.62,-96.69"/>
</a>
</g>
</g>
<!-- Node6 -->
<g id="Node000006" class="node">
<title>Node6</title>
<g id="a_Node000006"><a xlink:href="../../d8/d39/classmal__packet__weaver_1_1_session.html#a5cf271c70d7ec610cfb01d0ed8655693" target="_top" xlink:title="Constructor for the Session class.">
<polygon fill="white" stroke="#666666" points="99.25,-79.5 0,-79.5 0,-49 99.25,-49 99.25,-79.5"/>
<text text-anchor="start" x="8" y="-66" font-family="Times,serif" font-size="10.00">mal_packet_weaver::</text>
<text text-anchor="middle" x="49.62" y="-54.75" font-family="Times,serif" font-size="10.00">Session::Session</text>
</a>
</g>
</g>
<!-- Node5&#45;&gt;Node6 -->
<g id="edge6_Node000005_Node000006" class="edge">
<title>Node5&#45;&gt;Node6</title>
<g id="a_edge6_Node000005_Node000006"><a xlink:title=" ">
<path fill="none" stroke="#63b8ff" d="M148.08,-64.25C132.03,-64.25 114.87,-64.25 99.49,-64.25"/>
<polygon fill="#63b8ff" stroke="#63b8ff" points="147.98,-67.75 157.98,-64.25 147.98,-60.75 147.98,-67.75"/>
</a>
</g>
</g>
</g>
</svg>
