<?xml version="1.0" encoding="UTF-8" standalone="no"?>
<!DOCTYPE svg PUBLIC "-//W3C//DTD SVG 1.1//EN"
 "http://www.w3.org/Graphics/SVG/1.1/DTD/svg11.dtd">
<!-- Generated by graphviz version 8.1.0 (20230707.0739)
 -->
<!-- Title: Graph Legend Pages: 1 -->
<svg width="478pt" height="160pt"
 viewBox="0.00 0.00 478.25 160.25" xmlns="http://www.w3.org/2000/svg" xmlns:xlink="http://www.w3.org/1999/xlink">
<g id="graph0" class="graph" transform="scale(1 1) rotate(0) translate(4 156.25)">
<title>Graph Legend</title>
<!-- Node9 -->
<g id="Node000009" class="node">
<title>Node9</title>
<g id="a_Node000009"><a xlink:title=" ">
<polygon fill="#999999" stroke="#666666" points="272.12,-19.25 219.38,-19.25 219.38,0 272.12,0 272.12,-19.25"/>
<text text-anchor="middle" x="245.75" y="-5.75" font-family="Times,serif" font-size="10.00">Inherited</text>
</a>
</g>
</g>
<!-- Node10 -->
<g id="Node000010" class="node">
<title>Node10</title>
<g id="a_Node000010"><a xlink:title=" ">
<polygon fill="white" stroke="#666666" points="59.5,-85.75 0,-85.75 0,-66.5 59.5,-66.5 59.5,-85.75"/>
<text text-anchor="middle" x="29.75" y="-72.25" font-family="Times,serif" font-size="10.00">PublicBase</text>
</a>
</g>
</g>
<!-- Node10&#45;&gt;Node9 -->
<g id="edge1" class="edge">
<title>Node10&#45;&gt;Node9</title>
<g id="a_edge1"><a xlink:title=" ">
<path fill="none" stroke="#63b8ff" d="M70.29,-63.02C113.83,-50.02 181.75,-29.74 219.03,-18.6"/>
<polygon fill="#63b8ff" stroke="#63b8ff" points="69.36,-59.94 60.78,-66.16 71.37,-66.65 69.36,-59.94"/>
</a>
</g>
</g>
<!-- Node11 -->
<g id="Node000011" class="node">
<title>Node11</title>
<g id="a_Node000011"><a xlink:title=" ">
<polygon fill="#fff0f0" stroke="red" points="58.38,-152.25 1.13,-152.25 1.13,-133 58.38,-133 58.38,-152.25"/>
<text text-anchor="middle" x="29.75" y="-138.75" font-family="Times,serif" font-size="10.00">Truncated</text>
</a>
</g>
</g>
<!-- Node11&#45;&gt;Node10 -->
<g id="edge2" class="edge">
<title>Node11&#45;&gt;Node10</title>
<g id="a_edge2"><a xlink:title=" ">
<path fill="none" stroke="#63b8ff" d="M29.75,-121.9C29.75,-109.93 29.75,-95.23 29.75,-86.02"/>
<polygon fill="#63b8ff" stroke="#63b8ff" points="26.25,-121.66 29.75,-131.66 33.25,-121.66 26.25,-121.66"/>
</a>
</g>
</g>
<!-- Node13 -->
<g id="node4" class="node">
<title>Node13</title>
<g id="a_node4"><a xlink:title=" ">
<polygon fill="white" stroke="#666666" points="151.62,-85.75 77.88,-85.75 77.88,-66.5 151.62,-66.5 151.62,-85.75"/>
<text text-anchor="middle" x="114.75" y="-72.25" font-family="Times,serif" font-size="10.00">ProtectedBase</text>
</a>
</g>
</g>
<!-- Node13&#45;&gt;Node9 -->
<g id="edge3" class="edge">
<title>Node13&#45;&gt;Node9</title>
<g id="a_edge3"><a xlink:title=" ">
<path fill="none" stroke="darkgreen" d="M143.09,-61.17C168.64,-48.59 205.45,-30.47 227.35,-19.68"/>
<polygon fill="darkgreen" stroke="darkgreen" points="141.67,-58.46 134.24,-66.02 144.76,-64.74 141.67,-58.46"/>
</a>
</g>
</g>
<!-- Node14 -->
<g id="node5" class="node">
<title>Node14</title>
<g id="a_node5"><a xlink:title=" ">
<polygon fill="white" stroke="#666666" points="233.38,-85.75 170.12,-85.75 170.12,-66.5 233.38,-66.5 233.38,-85.75"/>
<text text-anchor="middle" x="201.75" y="-72.25" font-family="Times,serif" font-size="10.00">PrivateBase</text>
</a>
</g>
</g>
<!-- Node14&#45;&gt;Node9 -->
<g id="edge4" class="edge">
<title>Node14&#45;&gt;Node9</title>
<g id="a_edge4"><a xlink:title=" ">
<path fill="none" stroke="#8b1a1a" d="M213.95,-57.24C222.32,-44.97 233.07,-29.21 239.68,-19.52"/>
<polygon fill="#8b1a1a" stroke="#8b1a1a" points="210.61,-54.92 207.87,-65.16 216.39,-58.87 210.61,-54.92"/>
</a>
</g>
</g>
<!-- Node15 -->
<g id="Node000015" class="node">
<title>Node15</title>
<g id="a_Node000015"><a xlink:title=" ">
<polygon fill="#e0e0e0" stroke="#999999" points="328.12,-85.75 251.38,-85.75 251.38,-66.5 328.12,-66.5 328.12,-85.75"/>
<text text-anchor="middle" x="289.75" y="-72.25" font-family="Times,serif" font-size="10.00">Undocumented</text>
</a>
</g>
</g>
<!-- Node15&#45;&gt;Node9 -->
<g id="edge5" class="edge">
<title>Node15&#45;&gt;Node9</title>
<g id="a_edge5"><a xlink:title=" ">
<path fill="none" stroke="#63b8ff" d="M277.55,-57.24C269.18,-44.97 258.43,-29.21 251.82,-19.52"/>
<polygon fill="#63b8ff" stroke="#63b8ff" points="275.11,-58.87 283.63,-65.16 280.89,-54.92 275.11,-58.87"/>
</a>
</g>
</g>
<!-- Node16 -->
<g id="node7" class="node">
<title>Node16</title>
<g id="a_node7"><a xlink:title=" ">
<polygon fill="white" stroke="#666666" points="415,-85.75 346.5,-85.75 346.5,-66.5 415,-66.5 415,-85.75"/>
<text text-anchor="middle" x="380.75" y="-72.25" font-family="Times,serif" font-size="10.00">Templ&lt; int &gt;</text>
</a>
</g>
</g>
<!-- Node16&#45;&gt;Node9 -->
<g id="edge6" class="edge">
<title>Node16&#45;&gt;Node9</title>
<g id="a_edge6"><a xlink:title=" ">
<path fill="none" stroke="#63b8ff" d="M351.89,-61.34C325.56,-48.75 287.38,-30.51 264.71,-19.68"/>
<polygon fill="#63b8ff" stroke="#63b8ff" points="350.16,-64.87 360.69,-66.02 353.18,-58.55 350.16,-64.87"/>
</a>
</g>
</g>
<!-- Node17 -->
<g id="node8" class="node">
<title>Node17</title>
<g id="a_node8"><a xlink:title=" ">
<polygon fill="white" stroke="#666666" points="412.75,-152.25 348.75,-152.25 348.75,-133 412.75,-133 412.75,-152.25"/>
<text text-anchor="middle" x="380.75" y="-138.75" font-family="Times,serif" font-size="10.00">Templ&lt; T &gt;</text>
</a>
</g>
</g>
<!-- Node17&#45;&gt;Node16 -->
<g id="edge7" class="edge">
<title>Node17&#45;&gt;Node16</title>
<g id="a_edge7"><a xlink:title=" ">
<path fill="none" stroke="orange" stroke-dasharray="5,2" d="M380.75,-121.9C380.75,-109.93 380.75,-95.23 380.75,-86.02"/>
<polygon fill="orange" stroke="orange" points="377.25,-121.66 380.75,-131.66 384.25,-121.66 377.25,-121.66"/>
</a>
</g>
<text text-anchor="middle" x="394.25" y="-105.5" font-family="Times,serif" font-size="10.00" fill="grey">&lt; int &gt;</text>
</g>
<!-- Node18 -->
<g id="node9" class="node">
<title>Node18</title>
<g id="a_node9"><a xlink:title=" ">
<polygon fill="white" stroke="#666666" points="470.25,-85.75 433.25,-85.75 433.25,-66.5 470.25,-66.5 470.25,-85.75"/>
<text text-anchor="middle" x="451.75" y="-72.25" font-family="Times,serif" font-size="10.00">Used</text>
</a>
</g>
</g>
<!-- Node18&#45;&gt;Node9 -->
<g id="edge8" class="edge">
<title>Node18&#45;&gt;Node9</title>
<g id="a_edge8"><a xlink:title=" ">
<path fill="none" stroke="#9a32cd" stroke-dasharray="5,2" d="M422.72,-66.03C382.74,-53.52 311.29,-31.15 272.53,-19.01"/>
<polygon fill="#9a32cd" stroke="#9a32cd" points="421.52,-69.64 432.11,-69.29 423.61,-62.96 421.52,-69.64"/>
</a>
</g>
<text text-anchor="middle" x="387" y="-39" font-family="Times,serif" font-size="10.00" fill="grey">m_usedClass</text>
</g>
</g>
</svg>
