<?xml version="1.0" encoding="UTF-8" standalone="no"?>
<!DOCTYPE svg PUBLIC "-//W3C//DTD SVG 1.1//EN"
 "http://www.w3.org/Graphics/SVG/1.1/DTD/svg11.dtd">
<!-- Generated by graphviz version 9.0.0 (20230911.1827)
 -->
<!-- Title: Graphical Class Hierarchy Pages: 1 -->
<svg width="258pt" height="88pt"
 viewBox="0.00 0.00 258.25 87.50" xmlns="http://www.w3.org/2000/svg" xmlns:xlink="http://www.w3.org/1999/xlink">
<g id="graph0" class="graph" transform="scale(1 1) rotate(0) translate(4 83.5)">
<title>Graphical Class Hierarchy</title>
<!-- Node0 -->
<g id="Node000000" class="node">
<title>Node0</title>
<g id="a_Node000000"><a xlink:href="dd/d4d/classboost_1_1archive_1_1basic__binary__iprimitive.html" target="_top" xlink:title=" ">
<polygon fill="white" stroke="#666666" points="97.38,-79.5 1.12,-79.5 1.12,-49 97.38,-49 97.38,-79.5"/>
<text text-anchor="start" x="9.12" y="-66" font-family="Times,serif" font-size="10.00">boost::archive::basic</text>
<text text-anchor="middle" x="49.25" y="-54.75" font-family="Times,serif" font-size="10.00">_binary_iprimitive</text>
</a>
</g>
</g>
<!-- Node1 -->
<g id="Node000001" class="node">
<title>Node1</title>
<g id="a_Node000001"><a xlink:href="d8/d62/classmal__packet__weaver_1_1portable__binary__iarchive.html" target="_top" xlink:title=" ">
<polygon fill="white" stroke="#666666" points="250.25,-54.5 134.5,-54.5 134.5,-24 250.25,-24 250.25,-54.5"/>
<text text-anchor="start" x="142.5" y="-41" font-family="Times,serif" font-size="10.00">mal_packet_weaver::</text>
<text text-anchor="middle" x="192.38" y="-29.75" font-family="Times,serif" font-size="10.00">portable_binary_iarchive</text>
</a>
</g>
</g>
<!-- Node0&#45;&gt;Node1 -->
<g id="edge3_Node000000_Node000001" class="edge">
<title>Node0&#45;&gt;Node1</title>
<g id="a_edge3_Node000000_Node000001"><a xlink:title=" ">
<path fill="none" stroke="#63b8ff" d="M108.83,-53.87C117.18,-52.39 125.75,-50.87 134.08,-49.4"/>
<polygon fill="#63b8ff" stroke="#63b8ff" points="108.36,-50.4 99.13,-55.59 109.58,-57.29 108.36,-50.4"/>
</a>
</g>
</g>
<!-- Node2 -->
<g id="Node000002" class="node">
<title>Node2</title>
<g id="a_Node000002"><a xlink:href="dd/dd2/classboost_1_1archive_1_1detail_1_1common__iarchive.html" target="_top" xlink:title=" ">
<polygon fill="white" stroke="#666666" points="98.5,-30.5 0,-30.5 0,0 98.5,0 98.5,-30.5"/>
<text text-anchor="start" x="8" y="-17" font-family="Times,serif" font-size="10.00">boost::archive::detail</text>
<text text-anchor="middle" x="49.25" y="-5.75" font-family="Times,serif" font-size="10.00">::common_iarchive</text>
</a>
</g>
</g>
<!-- Node2&#45;&gt;Node1 -->
<g id="edge4_Node000002_Node000001" class="edge">
<title>Node2&#45;&gt;Node1</title>
<g id="a_edge4_Node000002_Node000001"><a xlink:title=" ">
<path fill="none" stroke="#63b8ff" d="M110.07,-25.42C118.15,-26.8 126.43,-28.2 134.46,-29.57"/>
<polygon fill="#63b8ff" stroke="#63b8ff" points="110.75,-21.99 100.31,-23.76 109.58,-28.89 110.75,-21.99"/>
</a>
</g>
</g>
</g>
</svg>
