<?xml version="1.0" encoding="UTF-8" standalone="no"?>
<!DOCTYPE svg PUBLIC "-//W3C//DTD SVG 1.1//EN"
 "http://www.w3.org/Graphics/SVG/1.1/DTD/svg11.dtd">
<!-- Generated by graphviz version 8.1.0 (20230707.0739)
 -->
<!-- Title: Graphical Class Hierarchy Pages: 1 -->
<svg width="264pt" height="76pt"
 viewBox="0.00 0.00 264.25 75.88" xmlns="http://www.w3.org/2000/svg" xmlns:xlink="http://www.w3.org/1999/xlink">
<g id="graph0" class="graph" transform="scale(1 1) rotate(0) translate(4 71.88)">
<title>Graphical Class Hierarchy</title>
<!-- Node0 -->
<g id="Node000000" class="node">
<title>Node0</title>
<g id="a_Node000000"><a xlink:href="da/d90/classmal__toolkit_1_1namable.html" target="_top" xlink:title="A class that contains a name and can be named and unnamed.">
<polygon fill="white" stroke="#666666" points="98.5,-45.88 0,-45.88 0,-26.62 98.5,-26.62 98.5,-45.88"/>
<text text-anchor="middle" x="49.25" y="-32.38" font-family="Times,serif" font-size="10.00">mal_toolkit::namable</text>
</a>
</g>
</g>
<!-- Node1 -->
<g id="Node000001" class="node">
<title>Node1</title>
<g id="a_Node000001"><a xlink:href="df/d40/classmal__toolkit_1_1namable__once.html" target="_top" xlink:title="A class that contains a name and can be named only once at construction.">
<polygon fill="white" stroke="#666666" points="256.25,-67.88 134.5,-67.88 134.5,-48.62 256.25,-48.62 256.25,-67.88"/>
<text text-anchor="middle" x="195.38" y="-54.38" font-family="Times,serif" font-size="10.00">mal_toolkit::namable_once</text>
</a>
</g>
</g>
<!-- Node0&#45;&gt;Node1 -->
<g id="edge2_Node000000_Node000001" class="edge">
<title>Node0&#45;&gt;Node1</title>
<g id="a_edge2_Node000000_Node000001"><a xlink:title=" ">
<path fill="none" stroke="#8b1a1a" d="M109.24,-45.25C117.43,-46.51 125.86,-47.79 134.08,-49.05"/>
<polygon fill="#8b1a1a" stroke="#8b1a1a" points="110.06,-41.69 99.64,-43.64 109,-48.61 110.06,-41.69"/>
</a>
</g>
</g>
<!-- Node2 -->
<g id="Node000002" class="node">
<title>Node2</title>
<g id="a_Node000002"><a xlink:href="d4/d2a/classmal__toolkit_1_1namable__protected.html" target="_top" xlink:title="A class that contains a name and can be named and unnamed, but you cant set the name from outside.">
<polygon fill="white" stroke="#666666" points="244.62,-30.5 146.12,-30.5 146.12,0 244.62,0 244.62,-30.5"/>
<text text-anchor="start" x="154.12" y="-17" font-family="Times,serif" font-size="10.00">mal_toolkit::namable</text>
<text text-anchor="middle" x="195.38" y="-5.75" font-family="Times,serif" font-size="10.00">_protected</text>
</a>
</g>
</g>
<!-- Node0&#45;&gt;Node2 -->
<g id="edge3_Node000000_Node000002" class="edge">
<title>Node0&#45;&gt;Node2</title>
<g id="a_edge3_Node000000_Node000002"><a xlink:title=" ">
<path fill="none" stroke="#63b8ff" d="M109.19,-27.66C121.38,-25.89 134.09,-24.03 145.86,-22.32"/>
<polygon fill="#63b8ff" stroke="#63b8ff" points="109.03,-24.29 99.64,-29.2 110.04,-31.22 109.03,-24.29"/>
</a>
</g>
</g>
</g>
</svg>
