<?xml version="1.0" encoding="UTF-8" standalone="no"?>
<!DOCTYPE svg PUBLIC "-//W3C//DTD SVG 1.1//EN"
 "http://www.w3.org/Graphics/SVG/1.1/DTD/svg11.dtd">
<!-- Generated by graphviz version 7.0.5 (20221223.1930)
 -->
<!-- Title: Graphical Class Hierarchy Pages: 1 -->
<svg width="656pt" height="629pt"
 viewBox="0.00 0.00 656.00 628.50" xmlns="http://www.w3.org/2000/svg" xmlns:xlink="http://www.w3.org/1999/xlink">
<g id="graph0" class="graph" transform="scale(1 1) rotate(0) translate(4 624.5)">
<title>Graphical Class Hierarchy</title>
<!-- Node0 -->
<g id="node1" class="node">
<title>Node0</title>
<g id="a_node1"><a xlink:title=" ">
<polygon fill="#e0e0e0" stroke="#999999" points="98,-314.5 0,-314.5 0,-295.5 98,-295.5 98,-314.5"/>
<text text-anchor="middle" x="49" y="-302.5" font-family="Helvetica,sans-Serif" font-size="10.00">utils::non_copyable</text>
</a>
</g>
</g>
<!-- Node1 -->
<g id="node2" class="node">
<title>Node1</title>
<g id="a_node2"><a xlink:href="d2/d9d/classmal__packet__weaver_1_1_packet.html" target="_top" xlink:title="Base class for all packets.">
<polygon fill="white" stroke="#666666" points="242,-320 134,-320 134,-290 242,-290 242,-320"/>
<text text-anchor="start" x="142" y="-308" font-family="Helvetica,sans-Serif" font-size="10.00">mal_packet_weaver::</text>
<text text-anchor="middle" x="188" y="-297" font-family="Helvetica,sans-Serif" font-size="10.00">Packet</text>
</a>
</g>
</g>
<!-- Node0&#45;&gt;Node1 -->
<g id="edge1" class="edge">
<title>Node0&#45;&gt;Node1</title>
<path fill="none" stroke="#63b8ff" d="M109.74,-305C117.66,-305 125.74,-305 133.54,-305"/>
<polygon fill="#63b8ff" stroke="#63b8ff" points="109.81,-301.5 99.81,-305 109.81,-308.5 109.81,-301.5"/>
</g>
<!-- Node2 -->
<g id="node3" class="node">
<title>Node2</title>
<g id="a_node3"><a xlink:href="dd/d2b/classmal__packet__weaver_1_1_derived_packet.html" target="_top" xlink:title=" ">
<polygon fill="white" stroke="#666666" points="448.5,-620.5 281.5,-620.5 281.5,-579.5 448.5,-579.5 448.5,-620.5"/>
<text text-anchor="start" x="289.5" y="-608.5" font-family="Helvetica,sans-Serif" font-size="10.00">mal_packet_weaver::</text>
<text text-anchor="start" x="289.5" y="-597.5" font-family="Helvetica,sans-Serif" font-size="10.00">DerivedPacket&lt; class</text>
<text text-anchor="middle" x="365" y="-586.5" font-family="Helvetica,sans-Serif" font-size="10.00"> DHKeyExchangeRequestPacket &gt;</text>
</a>
</g>
</g>
<!-- Node1&#45;&gt;Node2 -->
<g id="edge2" class="edge">
<title>Node1&#45;&gt;Node2</title>
<path fill="none" stroke="#63b8ff" d="M190.34,-331.76C194.42,-384.78 210.98,-503.82 278,-571 281,-574.01 284.33,-576.71 287.88,-579.13"/>
<polygon fill="#63b8ff" stroke="#63b8ff" points="193.83,-331.6 189.67,-321.85 186.85,-332.07 193.83,-331.6"/>
</g>
<!-- Node4 -->
<g id="node5" class="node">
<title>Node4</title>
<g id="a_node5"><a xlink:href="dd/d2b/classmal__packet__weaver_1_1_derived_packet.html" target="_top" xlink:title=" ">
<polygon fill="white" stroke="#666666" points="452,-561.5 278,-561.5 278,-520.5 452,-520.5 452,-561.5"/>
<text text-anchor="start" x="286" y="-549.5" font-family="Helvetica,sans-Serif" font-size="10.00">mal_packet_weaver::</text>
<text text-anchor="start" x="286" y="-538.5" font-family="Helvetica,sans-Serif" font-size="10.00">DerivedPacket&lt; class</text>
<text text-anchor="middle" x="365" y="-527.5" font-family="Helvetica,sans-Serif" font-size="10.00"> DHKeyExchangeResponsePacket &gt;</text>
</a>
</g>
</g>
<!-- Node1&#45;&gt;Node4 -->
<g id="edge4" class="edge">
<title>Node1&#45;&gt;Node4</title>
<path fill="none" stroke="#63b8ff" d="M193.26,-331.57C201.65,-375.31 224.38,-462.55 278,-512 281.24,-514.99 284.81,-517.67 288.58,-520.08"/>
<polygon fill="#63b8ff" stroke="#63b8ff" points="196.75,-331.17 191.53,-321.95 189.86,-332.41 196.75,-331.17"/>
</g>
<!-- Node6 -->
<g id="node7" class="node">
<title>Node6</title>
<g id="a_node7"><a xlink:href="dd/d2b/classmal__packet__weaver_1_1_derived_packet.html" target="_top" xlink:title=" ">
<polygon fill="white" stroke="#666666" points="421,-502.5 309,-502.5 309,-461.5 421,-461.5 421,-502.5"/>
<text text-anchor="start" x="317" y="-490.5" font-family="Helvetica,sans-Serif" font-size="10.00">mal_packet_weaver::</text>
<text text-anchor="start" x="317" y="-479.5" font-family="Helvetica,sans-Serif" font-size="10.00">DerivedPacket&lt; class</text>
<text text-anchor="middle" x="365" y="-468.5" font-family="Helvetica,sans-Serif" font-size="10.00"> EchoPacket &gt;</text>
</a>
</g>
</g>
<!-- Node1&#45;&gt;Node6 -->
<g id="edge6" class="edge">
<title>Node1&#45;&gt;Node6</title>
<path fill="none" stroke="#63b8ff" d="M198.13,-331.03C210.98,-363.98 237.45,-420.39 278,-453 286.96,-460.21 297.81,-465.66 308.73,-469.78"/>
<polygon fill="#63b8ff" stroke="#63b8ff" points="201.48,-329.97 194.69,-321.84 194.92,-332.43 201.48,-329.97"/>
</g>
<!-- Node8 -->
<g id="node9" class="node">
<title>Node8</title>
<g id="a_node9"><a xlink:href="dd/d2b/classmal__packet__weaver_1_1_derived_packet.html" target="_top" xlink:title=" ">
<polygon fill="white" stroke="#666666" points="421,-443.5 309,-443.5 309,-402.5 421,-402.5 421,-443.5"/>
<text text-anchor="start" x="317" y="-431.5" font-family="Helvetica,sans-Serif" font-size="10.00">mal_packet_weaver::</text>
<text text-anchor="start" x="317" y="-420.5" font-family="Helvetica,sans-Serif" font-size="10.00">DerivedPacket&lt; class</text>
<text text-anchor="middle" x="365" y="-409.5" font-family="Helvetica,sans-Serif" font-size="10.00"> MessagePacket &gt;</text>
</a>
</g>
</g>
<!-- Node1&#45;&gt;Node8 -->
<g id="edge8" class="edge">
<title>Node1&#45;&gt;Node8</title>
<path fill="none" stroke="#63b8ff" d="M207.74,-329.17C224.31,-349.06 250.11,-376.7 278,-394 287.37,-399.81 298.05,-404.62 308.62,-408.53"/>
<polygon fill="#63b8ff" stroke="#63b8ff" points="210.58,-327.1 201.55,-321.55 205.14,-331.52 210.58,-327.1"/>
</g>
<!-- Node10 -->
<g id="node11" class="node">
<title>Node10</title>
<g id="a_node11"><a xlink:href="dd/d2b/classmal__packet__weaver_1_1_derived_packet.html" target="_top" xlink:title=" ">
<polygon fill="white" stroke="#666666" points="421,-384.5 309,-384.5 309,-343.5 421,-343.5 421,-384.5"/>
<text text-anchor="start" x="317" y="-372.5" font-family="Helvetica,sans-Serif" font-size="10.00">mal_packet_weaver::</text>
<text text-anchor="start" x="317" y="-361.5" font-family="Helvetica,sans-Serif" font-size="10.00">DerivedPacket&lt; class</text>
<text text-anchor="middle" x="365" y="-350.5" font-family="Helvetica,sans-Serif" font-size="10.00"> PingPacket &gt;</text>
</a>
</g>
</g>
<!-- Node1&#45;&gt;Node10 -->
<g id="edge10" class="edge">
<title>Node1&#45;&gt;Node10</title>
<path fill="none" stroke="#63b8ff" d="M245.2,-323.95C265.54,-330.8 288.47,-338.53 308.72,-345.36"/>
<polygon fill="#63b8ff" stroke="#63b8ff" points="246.55,-320.71 235.96,-320.83 244.31,-327.34 246.55,-320.71"/>
</g>
<!-- Node12 -->
<g id="node13" class="node">
<title>Node12</title>
<g id="a_node13"><a xlink:href="dd/d2b/classmal__packet__weaver_1_1_derived_packet.html" target="_top" xlink:title=" ">
<polygon fill="white" stroke="#666666" points="421,-325.5 309,-325.5 309,-284.5 421,-284.5 421,-325.5"/>
<text text-anchor="start" x="317" y="-313.5" font-family="Helvetica,sans-Serif" font-size="10.00">mal_packet_weaver::</text>
<text text-anchor="start" x="317" y="-302.5" font-family="Helvetica,sans-Serif" font-size="10.00">DerivedPacket&lt; class</text>
<text text-anchor="middle" x="365" y="-291.5" font-family="Helvetica,sans-Serif" font-size="10.00"> PongPacket &gt;</text>
</a>
</g>
</g>
<!-- Node1&#45;&gt;Node12 -->
<g id="edge12" class="edge">
<title>Node1&#45;&gt;Node12</title>
<path fill="none" stroke="#63b8ff" d="M253.79,-305C271.85,-305 291.3,-305 308.75,-305"/>
<polygon fill="#63b8ff" stroke="#63b8ff" points="253.97,-301.5 243.97,-305 253.97,-308.5 253.97,-301.5"/>
</g>
<!-- Node14 -->
<g id="node15" class="node">
<title>Node14</title>
<g id="a_node15"><a xlink:href="dd/d2b/classmal__packet__weaver_1_1_derived_packet.html" target="_top" xlink:title=" ">
<polygon fill="white" stroke="#666666" points="432,-266.5 298,-266.5 298,-225.5 432,-225.5 432,-266.5"/>
<text text-anchor="start" x="306" y="-254.5" font-family="Helvetica,sans-Serif" font-size="10.00">mal_packet_weaver::</text>
<text text-anchor="start" x="306" y="-243.5" font-family="Helvetica,sans-Serif" font-size="10.00">DerivedPacket&lt; class</text>
<text text-anchor="middle" x="365" y="-232.5" font-family="Helvetica,sans-Serif" font-size="10.00"> NodeInfoRequestPacket &gt;</text>
</a>
</g>
</g>
<!-- Node1&#45;&gt;Node14 -->
<g id="edge14" class="edge">
<title>Node1&#45;&gt;Node14</title>
<path fill="none" stroke="#63b8ff" d="M245.19,-286.05C263.28,-279.96 283.42,-273.17 301.91,-266.93"/>
<polygon fill="#63b8ff" stroke="#63b8ff" points="244.31,-282.66 235.96,-289.17 246.55,-289.29 244.31,-282.66"/>
</g>
<!-- Node16 -->
<g id="node17" class="node">
<title>Node16</title>
<g id="a_node17"><a xlink:href="dd/d2b/classmal__packet__weaver_1_1_derived_packet.html" target="_top" xlink:title=" ">
<polygon fill="white" stroke="#666666" points="435.5,-207.5 294.5,-207.5 294.5,-166.5 435.5,-166.5 435.5,-207.5"/>
<text text-anchor="start" x="302.5" y="-195.5" font-family="Helvetica,sans-Serif" font-size="10.00">mal_packet_weaver::</text>
<text text-anchor="start" x="302.5" y="-184.5" font-family="Helvetica,sans-Serif" font-size="10.00">DerivedPacket&lt; class</text>
<text text-anchor="middle" x="365" y="-173.5" font-family="Helvetica,sans-Serif" font-size="10.00"> NodeInfoResponsePacket &gt;</text>
</a>
</g>
</g>
<!-- Node1&#45;&gt;Node16 -->
<g id="edge16" class="edge">
<title>Node1&#45;&gt;Node16</title>
<path fill="none" stroke="#63b8ff" d="M208.13,-280.85C224.77,-261.26 250.47,-234.17 278,-217 283.37,-213.65 289.16,-210.62 295.1,-207.88"/>
<polygon fill="#63b8ff" stroke="#63b8ff" points="205.6,-278.42 201.91,-288.36 210.99,-282.89 205.6,-278.42"/>
</g>
<!-- Node18 -->
<g id="node19" class="node">
<title>Node18</title>
<g id="a_node19"><a xlink:href="dd/d2b/classmal__packet__weaver_1_1_derived_packet.html" target="_top" xlink:title=" ">
<polygon fill="white" stroke="#666666" points="436.5,-148.5 293.5,-148.5 293.5,-107.5 436.5,-107.5 436.5,-148.5"/>
<text text-anchor="start" x="301.5" y="-136.5" font-family="Helvetica,sans-Serif" font-size="10.00">mal_packet_weaver::</text>
<text text-anchor="start" x="301.5" y="-125.5" font-family="Helvetica,sans-Serif" font-size="10.00">DerivedPacket&lt; class</text>
<text text-anchor="middle" x="365" y="-114.5" font-family="Helvetica,sans-Serif" font-size="10.00"> SystemInfoRequestPacket &gt;</text>
</a>
</g>
</g>
<!-- Node1&#45;&gt;Node18 -->
<g id="edge18" class="edge">
<title>Node1&#45;&gt;Node18</title>
<path fill="none" stroke="#63b8ff" d="M198.23,-279.22C211.19,-246.55 237.78,-190.6 278,-158 282.67,-154.22 287.85,-150.9 293.28,-147.98"/>
<polygon fill="#63b8ff" stroke="#63b8ff" points="195.06,-277.72 194.76,-288.31 201.6,-280.22 195.06,-277.72"/>
</g>
<!-- Node20 -->
<g id="node21" class="node">
<title>Node20</title>
<g id="a_node21"><a xlink:href="dd/d2b/classmal__packet__weaver_1_1_derived_packet.html" target="_top" xlink:title=" ">
<polygon fill="white" stroke="#666666" points="440.5,-89.5 289.5,-89.5 289.5,-48.5 440.5,-48.5 440.5,-89.5"/>
<text text-anchor="start" x="297.5" y="-77.5" font-family="Helvetica,sans-Serif" font-size="10.00">mal_packet_weaver::</text>
<text text-anchor="start" x="297.5" y="-66.5" font-family="Helvetica,sans-Serif" font-size="10.00">DerivedPacket&lt; class</text>
<text text-anchor="middle" x="365" y="-55.5" font-family="Helvetica,sans-Serif" font-size="10.00"> SystemInfoResponsePacket &gt;</text>
</a>
</g>
</g>
<!-- Node1&#45;&gt;Node20 -->
<g id="edge20" class="edge">
<title>Node1&#45;&gt;Node20</title>
<path fill="none" stroke="#63b8ff" d="M193.26,-278.43C201.65,-234.69 224.38,-147.45 278,-98 281.47,-94.8 285.32,-91.94 289.39,-89.41"/>
<polygon fill="#63b8ff" stroke="#63b8ff" points="189.86,-277.59 191.53,-288.05 196.75,-278.83 189.86,-277.59"/>
</g>
<!-- Node22 -->
<g id="node23" class="node">
<title>Node22</title>
<g id="a_node23"><a xlink:href="dd/d2b/classmal__packet__weaver_1_1_derived_packet.html" target="_top" xlink:title="A templated class representing a derived packet from the base Packet class.">
<polygon fill="white" stroke="#666666" points="439.5,-30 290.5,-30 290.5,0 439.5,0 439.5,-30"/>
<text text-anchor="start" x="298.5" y="-18" font-family="Helvetica,sans-Serif" font-size="10.00">mal_packet_weaver::</text>
<text text-anchor="middle" x="365" y="-7" font-family="Helvetica,sans-Serif" font-size="10.00">DerivedPacket&lt; PacketType &gt;</text>
</a>
</g>
</g>
<!-- Node1&#45;&gt;Node22 -->
<g id="edge22" class="edge">
<title>Node1&#45;&gt;Node22</title>
<path fill="none" stroke="#63b8ff" d="M190.01,-278.31C193.51,-224.93 209.05,-104.54 278,-39 281.71,-35.48 285.89,-32.46 290.36,-29.88"/>
<polygon fill="#63b8ff" stroke="#63b8ff" points="186.52,-278.11 189.46,-288.28 193.51,-278.49 186.52,-278.11"/>
</g>
<!-- Node3 -->
<g id="node4" class="node">
<title>Node3</title>
<g id="a_node4"><a xlink:href="d2/d9c/classmal__packet__weaver_1_1packet_1_1crypto_1_1_d_h_key_exchange_request_packet.html" target="_top" xlink:title="Packet for Diffie&#45;Hellman key exchange request.">
<polygon fill="white" stroke="#666666" points="645,-620.5 491,-620.5 491,-579.5 645,-579.5 645,-620.5"/>
<text text-anchor="start" x="499" y="-608.5" font-family="Helvetica,sans-Serif" font-size="10.00">mal_packet_weaver::</text>
<text text-anchor="start" x="499" y="-597.5" font-family="Helvetica,sans-Serif" font-size="10.00">packet::crypto::DHKeyExchange</text>
<text text-anchor="middle" x="568" y="-586.5" font-family="Helvetica,sans-Serif" font-size="10.00">RequestPacket</text>
</a>
</g>
</g>
<!-- Node2&#45;&gt;Node3 -->
<g id="edge3" class="edge">
<title>Node2&#45;&gt;Node3</title>
<path fill="none" stroke="#63b8ff" d="M460.35,-600C470.53,-600 480.79,-600 490.72,-600"/>
<polygon fill="#63b8ff" stroke="#63b8ff" points="460.43,-596.5 450.43,-600 460.43,-603.5 460.43,-596.5"/>
</g>
<!-- Node5 -->
<g id="node6" class="node">
<title>Node5</title>
<g id="a_node6"><a xlink:href="d5/d65/classmal__packet__weaver_1_1packet_1_1crypto_1_1_d_h_key_exchange_response_packet.html" target="_top" xlink:title="Packet for Diffie&#45;Hellman key exchange response.">
<polygon fill="white" stroke="#666666" points="645,-561.5 491,-561.5 491,-520.5 645,-520.5 645,-561.5"/>
<text text-anchor="start" x="499" y="-549.5" font-family="Helvetica,sans-Serif" font-size="10.00">mal_packet_weaver::</text>
<text text-anchor="start" x="499" y="-538.5" font-family="Helvetica,sans-Serif" font-size="10.00">packet::crypto::DHKeyExchange</text>
<text text-anchor="middle" x="568" y="-527.5" font-family="Helvetica,sans-Serif" font-size="10.00">ResponsePacket</text>
</a>
</g>
</g>
<!-- Node4&#45;&gt;Node5 -->
<g id="edge5" class="edge">
<title>Node4&#45;&gt;Node5</title>
<path fill="none" stroke="#63b8ff" d="M463.84,-541C472.89,-541 481.98,-541 490.8,-541"/>
<polygon fill="#63b8ff" stroke="#63b8ff" points="463.92,-537.5 453.92,-541 463.92,-544.5 463.92,-537.5"/>
</g>
<!-- Node7 -->
<g id="node8" class="node">
<title>Node7</title>
<g id="a_node8"><a xlink:href="d5/d10/classmal__packet__weaver_1_1packet_1_1network_1_1_echo_packet.html" target="_top" xlink:title="Packet for echoing a received message.">
<polygon fill="white" stroke="#666666" points="639,-497 497,-497 497,-467 639,-467 639,-497"/>
<text text-anchor="start" x="505" y="-485" font-family="Helvetica,sans-Serif" font-size="10.00">mal_packet_weaver::</text>
<text text-anchor="middle" x="568" y="-474" font-family="Helvetica,sans-Serif" font-size="10.00">packet::network::EchoPacket</text>
</a>
</g>
</g>
<!-- Node6&#45;&gt;Node7 -->
<g id="edge7" class="edge">
<title>Node6&#45;&gt;Node7</title>
<path fill="none" stroke="#63b8ff" d="M432.91,-482C453.37,-482 475.93,-482 496.62,-482"/>
<polygon fill="#63b8ff" stroke="#63b8ff" points="432.97,-478.5 422.97,-482 432.97,-485.5 432.97,-478.5"/>
</g>
<!-- Node9 -->
<g id="node10" class="node">
<title>Node9</title>
<g id="a_node10"><a xlink:href="da/d95/classmal__packet__weaver_1_1packet_1_1network_1_1_message_packet.html" target="_top" xlink:title="Packet for sending a text message.">
<polygon fill="white" stroke="#666666" points="648,-438 488,-438 488,-408 648,-408 648,-438"/>
<text text-anchor="start" x="496" y="-426" font-family="Helvetica,sans-Serif" font-size="10.00">mal_packet_weaver::</text>
<text text-anchor="middle" x="568" y="-415" font-family="Helvetica,sans-Serif" font-size="10.00">packet::network::MessagePacket</text>
</a>
</g>
</g>
<!-- Node8&#45;&gt;Node9 -->
<g id="edge9" class="edge">
<title>Node8&#45;&gt;Node9</title>
<path fill="none" stroke="#63b8ff" d="M432.76,-423C450.34,-423 469.48,-423 487.65,-423"/>
<polygon fill="#63b8ff" stroke="#63b8ff" points="432.97,-419.5 422.97,-423 432.97,-426.5 432.97,-419.5"/>
</g>
<!-- Node11 -->
<g id="node12" class="node">
<title>Node11</title>
<g id="a_node12"><a xlink:href="d2/db1/classmal__packet__weaver_1_1packet_1_1network_1_1_ping_packet.html" target="_top" xlink:title="Packet for sending a ping signal.">
<polygon fill="white" stroke="#666666" points="638,-379 498,-379 498,-349 638,-349 638,-379"/>
<text text-anchor="start" x="506" y="-367" font-family="Helvetica,sans-Serif" font-size="10.00">mal_packet_weaver::</text>
<text text-anchor="middle" x="568" y="-356" font-family="Helvetica,sans-Serif" font-size="10.00">packet::network::PingPacket</text>
</a>
</g>
</g>
<!-- Node10&#45;&gt;Node11 -->
<g id="edge11" class="edge">
<title>Node10&#45;&gt;Node11</title>
<path fill="none" stroke="#63b8ff" d="M432.79,-364C453.65,-364 476.7,-364 497.73,-364"/>
<polygon fill="#63b8ff" stroke="#63b8ff" points="432.97,-360.5 422.97,-364 432.97,-367.5 432.97,-360.5"/>
</g>
<!-- Node13 -->
<g id="node14" class="node">
<title>Node13</title>
<g id="a_node14"><a xlink:href="d6/d7a/classmal__packet__weaver_1_1packet_1_1network_1_1_pong_packet.html" target="_top" xlink:title="Packet for responding to a ping signal.">
<polygon fill="white" stroke="#666666" points="639.5,-320 496.5,-320 496.5,-290 639.5,-290 639.5,-320"/>
<text text-anchor="start" x="504.5" y="-308" font-family="Helvetica,sans-Serif" font-size="10.00">mal_packet_weaver::</text>
<text text-anchor="middle" x="568" y="-297" font-family="Helvetica,sans-Serif" font-size="10.00">packet::network::PongPacket</text>
</a>
</g>
</g>
<!-- Node12&#45;&gt;Node13 -->
<g id="edge13" class="edge">
<title>Node12&#45;&gt;Node13</title>
<path fill="none" stroke="#63b8ff" d="M432.85,-305C453.21,-305 475.65,-305 496.25,-305"/>
<polygon fill="#63b8ff" stroke="#63b8ff" points="432.97,-301.5 422.97,-305 432.97,-308.5 432.97,-301.5"/>
</g>
<!-- Node15 -->
<g id="node16" class="node">
<title>Node15</title>
<g id="a_node16"><a xlink:href="dd/d37/classmal__packet__weaver_1_1packet_1_1node_1_1_node_info_request_packet.html" target="_top" xlink:title="Packet for requesting information from a node.">
<polygon fill="white" stroke="#666666" points="644,-266.5 492,-266.5 492,-225.5 644,-225.5 644,-266.5"/>
<text text-anchor="start" x="500" y="-254.5" font-family="Helvetica,sans-Serif" font-size="10.00">mal_packet_weaver::</text>
<text text-anchor="start" x="500" y="-243.5" font-family="Helvetica,sans-Serif" font-size="10.00">packet::node::NodeInfoRequest</text>
<text text-anchor="middle" x="568" y="-232.5" font-family="Helvetica,sans-Serif" font-size="10.00">Packet</text>
</a>
</g>
</g>
<!-- Node14&#45;&gt;Node15 -->
<g id="edge15" class="edge">
<title>Node14&#45;&gt;Node15</title>
<path fill="none" stroke="#63b8ff" d="M443.68,-246C459.44,-246 475.98,-246 491.66,-246"/>
<polygon fill="#63b8ff" stroke="#63b8ff" points="443.89,-242.5 433.89,-246 443.89,-249.5 443.89,-242.5"/>
</g>
<!-- Node17 -->
<g id="node18" class="node">
<title>Node17</title>
<g id="a_node18"><a xlink:href="dd/d3d/classmal__packet__weaver_1_1packet_1_1node_1_1_node_info_response_packet.html" target="_top" xlink:title="Packet containing information about a node in response to a request.">
<polygon fill="white" stroke="#666666" points="647.5,-207.5 488.5,-207.5 488.5,-166.5 647.5,-166.5 647.5,-207.5"/>
<text text-anchor="start" x="496.5" y="-195.5" font-family="Helvetica,sans-Serif" font-size="10.00">mal_packet_weaver::</text>
<text text-anchor="start" x="496.5" y="-184.5" font-family="Helvetica,sans-Serif" font-size="10.00">packet::node::NodeInfoResponse</text>
<text text-anchor="middle" x="568" y="-173.5" font-family="Helvetica,sans-Serif" font-size="10.00">Packet</text>
</a>
</g>
</g>
<!-- Node16&#45;&gt;Node17 -->
<g id="edge17" class="edge">
<title>Node16&#45;&gt;Node17</title>
<path fill="none" stroke="#63b8ff" d="M446.98,-187C460.54,-187 474.59,-187 488.09,-187"/>
<polygon fill="#63b8ff" stroke="#63b8ff" points="447.25,-183.5 437.25,-187 447.25,-190.5 447.25,-183.5"/>
</g>
<!-- Node19 -->
<g id="node20" class="node">
<title>Node19</title>
<g id="a_node20"><a xlink:href="d3/d4a/classmal__packet__weaver_1_1packet_1_1system_1_1_system_info_request_packet.html" target="_top" xlink:title="Packet for requesting system information from a node.">
<polygon fill="white" stroke="#666666" points="636,-148.5 500,-148.5 500,-107.5 636,-107.5 636,-148.5"/>
<text text-anchor="start" x="508" y="-136.5" font-family="Helvetica,sans-Serif" font-size="10.00">mal_packet_weaver::</text>
<text text-anchor="start" x="508" y="-125.5" font-family="Helvetica,sans-Serif" font-size="10.00">packet::system::SystemInfo</text>
<text text-anchor="middle" x="568" y="-114.5" font-family="Helvetica,sans-Serif" font-size="10.00">RequestPacket</text>
</a>
</g>
</g>
<!-- Node18&#45;&gt;Node19 -->
<g id="edge19" class="edge">
<title>Node18&#45;&gt;Node19</title>
<path fill="none" stroke="#63b8ff" d="M448.05,-128C465.26,-128 483.21,-128 499.81,-128"/>
<polygon fill="#63b8ff" stroke="#63b8ff" points="448.38,-124.5 438.38,-128 448.38,-131.5 448.38,-124.5"/>
</g>
<!-- Node21 -->
<g id="node22" class="node">
<title>Node21</title>
<g id="a_node22"><a xlink:href="df/dc0/classmal__packet__weaver_1_1packet_1_1system_1_1_system_info_response_packet.html" target="_top" xlink:title="Packet containing system information in response to a request.">
<polygon fill="white" stroke="#666666" points="636,-89.5 500,-89.5 500,-48.5 636,-48.5 636,-89.5"/>
<text text-anchor="start" x="508" y="-77.5" font-family="Helvetica,sans-Serif" font-size="10.00">mal_packet_weaver::</text>
<text text-anchor="start" x="508" y="-66.5" font-family="Helvetica,sans-Serif" font-size="10.00">packet::system::SystemInfo</text>
<text text-anchor="middle" x="568" y="-55.5" font-family="Helvetica,sans-Serif" font-size="10.00">ResponsePacket</text>
</a>
</g>
</g>
<!-- Node20&#45;&gt;Node21 -->
<g id="edge21" class="edge">
<title>Node20&#45;&gt;Node21</title>
<path fill="none" stroke="#63b8ff" d="M452.29,-69C468.16,-69 484.51,-69 499.72,-69"/>
<polygon fill="#63b8ff" stroke="#63b8ff" points="452.36,-65.5 442.36,-69 452.36,-72.5 452.36,-65.5"/>
</g>
</g>
</svg>
