<?xml version="1.0" encoding="UTF-8" standalone="no"?>
<!DOCTYPE svg PUBLIC "-//W3C//DTD SVG 1.1//EN"
 "http://www.w3.org/Graphics/SVG/1.1/DTD/svg11.dtd">
<!-- Generated by graphviz version 8.1.0 (20230707.0739)
 -->
<!-- Title: Graphical Class Hierarchy Pages: 1 -->
<svg width="357pt" height="76pt"
 viewBox="0.00 0.00 356.75 75.88" xmlns="http://www.w3.org/2000/svg" xmlns:xlink="http://www.w3.org/1999/xlink">
<g id="graph0" class="graph" transform="scale(1 1) rotate(0) translate(4 71.88)">
<title>Graphical Class Hierarchy</title>
<!-- Node0 -->
<g id="Node000000" class="node">
<title>Node0</title>
<g id="a_Node000000"><a xlink:title=" ">
<polygon fill="#e0e0e0" stroke="#999999" points="73.75,-40.25 0,-40.25 0,-21 73.75,-21 73.75,-40.25"/>
<text text-anchor="middle" x="36.88" y="-26.75" font-family="Times,serif" font-size="10.00">std::span&lt; T &gt;</text>
</a>
</g>
</g>
<!-- Node1 -->
<g id="Node000001" class="node">
<title>Node1</title>
<g id="a_Node000001"><a xlink:href="d7/d41/structmal__packet__weaver_1_1_byte_view.html" target="_top" xlink:title="A lightweight view over a sequence of bytes.">
<polygon fill="white" stroke="#666666" points="211.25,-67.88 112,-67.88 112,-37.38 211.25,-37.38 211.25,-67.88"/>
<text text-anchor="start" x="120" y="-54.38" font-family="Times,serif" font-size="10.00">mal_packet_weaver::</text>
<text text-anchor="middle" x="161.62" y="-43.12" font-family="Times,serif" font-size="10.00">ByteView</text>
</a>
</g>
</g>
<!-- Node0&#45;&gt;Node1 -->
<g id="edge13_Node000000_Node000001" class="edge">
<title>Node0&#45;&gt;Node1</title>
<g id="a_edge13_Node000000_Node000001"><a xlink:title=" ">
<path fill="none" stroke="#63b8ff" d="M84.83,-39.04C93.57,-40.61 102.72,-42.25 111.53,-43.83"/>
<polygon fill="#63b8ff" stroke="#63b8ff" points="85.5,-35.43 75.04,-37.11 84.27,-42.32 85.5,-35.43"/>
</a>
</g>
</g>
<!-- Node3 -->
<g id="Node000003" class="node">
<title>Node3</title>
<g id="a_Node000003"><a xlink:href="d8/dab/structmal__toolkit_1_1_byte_view.html" target="_top" xlink:title="A lightweight view over a sequence of bytes.">
<polygon fill="white" stroke="#666666" points="213.5,-19.25 109.75,-19.25 109.75,0 213.5,0 213.5,-19.25"/>
<text text-anchor="middle" x="161.62" y="-5.75" font-family="Times,serif" font-size="10.00">mal_toolkit::ByteView</text>
</a>
</g>
</g>
<!-- Node0&#45;&gt;Node3 -->
<g id="edge15_Node000000_Node000003" class="edge">
<title>Node0&#45;&gt;Node3</title>
<g id="a_edge15_Node000000_Node000003"><a xlink:title=" ">
<path fill="none" stroke="#63b8ff" d="M84.71,-22.61C92.74,-21.24 101.12,-19.81 109.26,-18.41"/>
<polygon fill="#63b8ff" stroke="#63b8ff" points="84.31,-19.3 75.04,-24.44 85.49,-26.2 84.31,-19.3"/>
</a>
</g>
</g>
<!-- Node2 -->
<g id="Node000002" class="node">
<title>Node2</title>
<g id="a_Node000002"><a xlink:href="d2/d3b/classmal__packet__weaver_1_1crypto_1_1_key_view.html" target="_top" xlink:title="Represents a view of a cryptographic key as a byte view.">
<polygon fill="white" stroke="#666666" points="348.75,-67.88 249.5,-67.88 249.5,-37.38 348.75,-37.38 348.75,-67.88"/>
<text text-anchor="start" x="257.5" y="-54.38" font-family="Times,serif" font-size="10.00">mal_packet_weaver::</text>
<text text-anchor="middle" x="299.12" y="-43.12" font-family="Times,serif" font-size="10.00">crypto::KeyView</text>
</a>
</g>
</g>
<!-- Node1&#45;&gt;Node2 -->
<g id="edge14_Node000001_Node000002" class="edge">
<title>Node1&#45;&gt;Node2</title>
<g id="a_edge14_Node000001_Node000002"><a xlink:title=" ">
<path fill="none" stroke="#63b8ff" d="M222.37,-52.62C231.37,-52.62 240.55,-52.62 249.28,-52.62"/>
<polygon fill="#63b8ff" stroke="#63b8ff" points="222.54,-49.13 212.54,-52.62 222.54,-56.13 222.54,-49.13"/>
</a>
</g>
</g>
</g>
</svg>
