<?xml version="1.0" encoding="UTF-8" standalone="no"?>
<!DOCTYPE svg PUBLIC "-//W3C//DTD SVG 1.1//EN"
 "http://www.w3.org/Graphics/SVG/1.1/DTD/svg11.dtd">
<!-- Generated by graphviz version 7.0.5 (20221223.1930)
 -->
<!-- Title: Graphical Class Hierarchy Pages: 1 -->
<svg width="382pt" height="76pt"
 viewBox="0.00 0.00 382.00 75.50" xmlns="http://www.w3.org/2000/svg" xmlns:xlink="http://www.w3.org/1999/xlink">
<g id="graph0" class="graph" transform="scale(1 1) rotate(0) translate(4 71.5)">
<title>Graphical Class Hierarchy</title>
<!-- Node0 -->
<g id="node1" class="node">
<title>Node0</title>
<g id="a_node1"><a xlink:title=" ">
<polygon fill="#e0e0e0" stroke="#999999" points="84,-40 0,-40 0,-21 84,-21 84,-40"/>
<text text-anchor="middle" x="42" y="-28" font-family="Helvetica,sans-Serif" font-size="10.00">std::vector&lt; T &gt;</text>
</a>
</g>
</g>
<!-- Node1 -->
<g id="node2" class="node">
<title>Node1</title>
<g id="a_node2"><a xlink:href="d4/d9d/structmal__packet__weaver_1_1_byte_array.html" target="_top" xlink:title="A dynamically resizable array of bytes.">
<polygon fill="white" stroke="#666666" points="229,-67.5 121,-67.5 121,-37.5 229,-37.5 229,-67.5"/>
<text text-anchor="start" x="129" y="-55.5" font-family="Helvetica,sans-Serif" font-size="10.00">mal_packet_weaver::</text>
<text text-anchor="middle" x="175" y="-44.5" font-family="Helvetica,sans-Serif" font-size="10.00">ByteArray</text>
</a>
</g>
</g>
<!-- Node0&#45;&gt;Node1 -->
<g id="edge1" class="edge">
<title>Node0&#45;&gt;Node1</title>
<path fill="none" stroke="#63b8ff" d="M95.56,-39.33C103.87,-40.72 112.48,-42.17 120.81,-43.57"/>
<polygon fill="#63b8ff" stroke="#63b8ff" points="96.38,-35.92 85.94,-37.71 95.22,-42.82 96.38,-35.92"/>
</g>
<!-- Node3 -->
<g id="node4" class="node">
<title>Node3</title>
<g id="a_node4"><a xlink:href="d8/d99/structmal__toolkit_1_1_byte_array.html" target="_top" xlink:title="A dynamically resizable array of bytes.">
<polygon fill="white" stroke="#666666" points="230,-19 120,-19 120,0 230,0 230,-19"/>
<text text-anchor="middle" x="175" y="-7" font-family="Helvetica,sans-Serif" font-size="10.00">mal_toolkit::ByteArray</text>
</a>
</g>
</g>
<!-- Node0&#45;&gt;Node3 -->
<g id="edge3" class="edge">
<title>Node0&#45;&gt;Node3</title>
<path fill="none" stroke="#63b8ff" d="M95.82,-22.03C103.74,-20.76 111.92,-19.45 119.87,-18.18"/>
<polygon fill="#63b8ff" stroke="#63b8ff" points="95.26,-18.58 85.94,-23.62 96.37,-25.49 95.26,-18.58"/>
</g>
<!-- Node2 -->
<g id="node3" class="node">
<title>Node2</title>
<g id="a_node3"><a xlink:href="da/d1a/classmal__packet__weaver_1_1crypto_1_1_key.html" target="_top" xlink:title="Represents a cryptographic key as a byte array.">
<polygon fill="white" stroke="#666666" points="374,-67.5 266,-67.5 266,-37.5 374,-37.5 374,-67.5"/>
<text text-anchor="start" x="274" y="-55.5" font-family="Helvetica,sans-Serif" font-size="10.00">mal_packet_weaver::</text>
<text text-anchor="middle" x="320" y="-44.5" font-family="Helvetica,sans-Serif" font-size="10.00">crypto::Key</text>
</a>
</g>
</g>
<!-- Node1&#45;&gt;Node2 -->
<g id="edge2" class="edge">
<title>Node1&#45;&gt;Node2</title>
<path fill="none" stroke="#63b8ff" d="M240.58,-52.5C248.99,-52.5 257.52,-52.5 265.71,-52.5"/>
<polygon fill="#63b8ff" stroke="#63b8ff" points="240.76,-49 230.76,-52.5 240.76,-56 240.76,-49"/>
</g>
</g>
</svg>
