<?xml version="1.0" encoding="UTF-8" standalone="no"?>
<!DOCTYPE svg PUBLIC "-//W3C//DTD SVG 1.1//EN"
 "http://www.w3.org/Graphics/SVG/1.1/DTD/svg11.dtd">
<!-- Generated by graphviz version 8.1.0 (20230707.0739)
 -->
<!-- Title: Graphical Class Hierarchy Pages: 1 -->
<svg width="357pt" height="82pt"
 viewBox="0.00 0.00 356.75 81.50" xmlns="http://www.w3.org/2000/svg" xmlns:xlink="http://www.w3.org/1999/xlink">
<g id="graph0" class="graph" transform="scale(1 1) rotate(0) translate(4 77.5)">
<title>Graphical Class Hierarchy</title>
<!-- Node0 -->
<g id="Node000000" class="node">
<title>Node0</title>
<g id="a_Node000000"><a xlink:title=" ">
<polygon fill="#e0e0e0" stroke="#999999" points="73.75,-45.88 0,-45.88 0,-26.62 73.75,-26.62 73.75,-45.88"/>
<text text-anchor="middle" x="36.88" y="-32.38" font-family="Times,serif" font-size="10.00">std::span&lt; T &gt;</text>
</a>
</g>
</g>
<!-- Node1 -->
<g id="Node000001" class="node">
<title>Node1</title>
<g id="a_Node000001"><a xlink:href="d7/d41/structmal__packet__weaver_1_1_byte_view.html" target="_top" xlink:title="A lightweight view over a sequence of bytes.">
<polygon fill="white" stroke="#666666" points="211.25,-73.5 112,-73.5 112,-43 211.25,-43 211.25,-73.5"/>
<text text-anchor="start" x="120" y="-60" font-family="Times,serif" font-size="10.00">mal_packet_weaver::</text>
<text text-anchor="middle" x="161.62" y="-48.75" font-family="Times,serif" font-size="10.00">ByteView</text>
</a>
</g>
</g>
<!-- Node0&#45;&gt;Node1 -->
<g id="edge10_Node000000_Node000001" class="edge">
<title>Node0&#45;&gt;Node1</title>
<g id="a_edge10_Node000000_Node000001"><a xlink:title=" ">
<path fill="none" stroke="#63b8ff" d="M84.83,-44.67C93.57,-46.23 102.72,-47.87 111.53,-49.45"/>
<polygon fill="#63b8ff" stroke="#63b8ff" points="85.5,-41.05 75.04,-42.73 84.27,-47.94 85.5,-41.05"/>
</a>
</g>
</g>
<!-- Node2 -->
<g id="Node000002" class="node">
<title>Node2</title>
<g id="a_Node000002"><a xlink:href="d8/dab/structmal__toolkit_1_1_byte_view.html" target="_top" xlink:title="A lightweight view over a sequence of bytes.">
<polygon fill="white" stroke="#666666" points="213.5,-24.88 109.75,-24.88 109.75,-5.63 213.5,-5.63 213.5,-24.88"/>
<text text-anchor="middle" x="161.62" y="-11.38" font-family="Times,serif" font-size="10.00">mal_toolkit::ByteView</text>
</a>
</g>
</g>
<!-- Node0&#45;&gt;Node2 -->
<g id="edge11_Node000000_Node000002" class="edge">
<title>Node0&#45;&gt;Node2</title>
<g id="a_edge11_Node000000_Node000002"><a xlink:title=" ">
<path fill="none" stroke="#63b8ff" d="M84.71,-28.24C92.74,-26.86 101.12,-25.43 109.26,-24.04"/>
<polygon fill="#63b8ff" stroke="#63b8ff" points="84.31,-24.93 75.04,-30.06 85.49,-31.83 84.31,-24.93"/>
</a>
</g>
</g>
<!-- Node3 -->
<g id="Node000003" class="node">
<title>Node3</title>
<g id="a_Node000003"><a xlink:href="d2/d3b/classmal__packet__weaver_1_1crypto_1_1_key_view.html" target="_top" xlink:title="Represents a view of a cryptographic key as a byte view.">
<polygon fill="white" stroke="#666666" points="348.75,-30.5 249.5,-30.5 249.5,0 348.75,0 348.75,-30.5"/>
<text text-anchor="start" x="257.5" y="-17" font-family="Times,serif" font-size="10.00">mal_packet_weaver::</text>
<text text-anchor="middle" x="299.12" y="-5.75" font-family="Times,serif" font-size="10.00">crypto::KeyView</text>
</a>
</g>
</g>
<!-- Node2&#45;&gt;Node3 -->
<g id="edge12_Node000002_Node000003" class="edge">
<title>Node2&#45;&gt;Node3</title>
<g id="a_edge12_Node000002_Node000003"><a xlink:title=" ">
<path fill="none" stroke="#63b8ff" d="M224.83,-15.25C232.96,-15.25 241.19,-15.25 249.07,-15.25"/>
<polygon fill="#63b8ff" stroke="#63b8ff" points="224.85,-11.75 214.85,-15.25 224.85,-18.75 224.85,-11.75"/>
</a>
</g>
</g>
</g>
</svg>
