<?xml version="1.0" encoding="UTF-8" standalone="no"?>
<!DOCTYPE svg PUBLIC "-//W3C//DTD SVG 1.1//EN"
 "http://www.w3.org/Graphics/SVG/1.1/DTD/svg11.dtd">
<!-- Generated by graphviz version 8.1.0 (20230707.0739)
 -->
<!-- Title: Graphical Class Hierarchy Pages: 1 -->
<svg width="457pt" height="137pt"
 viewBox="0.00 0.00 456.50 136.50" xmlns="http://www.w3.org/2000/svg" xmlns:xlink="http://www.w3.org/1999/xlink">
<g id="graph0" class="graph" transform="scale(1 1) rotate(0) translate(4 132.5)">
<title>Graphical Class Hierarchy</title>
<!-- Node0 -->
<g id="Node000000" class="node">
<title>Node0</title>
<g id="a_Node000000"><a xlink:title=" ">
<polygon fill="#e0e0e0" stroke="#999999" points="260,-79.5 170.5,-79.5 170.5,-49 260,-49 260,-79.5"/>
<text text-anchor="start" x="178.5" y="-66" font-family="Times,serif" font-size="10.00">std::enable_shared</text>
<text text-anchor="middle" x="215.25" y="-54.75" font-family="Times,serif" font-size="10.00">_from_this</text>
</a>
</g>
</g>
<!-- Node1 -->
<g id="Node000001" class="node">
<title>Node1</title>
<g id="a_Node000001"><a xlink:href="d4/d61/classmal__packet__weaver_1_1_packet_dispatcher.html" target="_top" xlink:title="The PacketDispatcher class is responsible for managing packet dispatching and handling.">
<polygon fill="white" stroke="#666666" points="429.38,-79.5 330.12,-79.5 330.12,-49 429.38,-49 429.38,-79.5"/>
<text text-anchor="start" x="338.12" y="-66" font-family="Times,serif" font-size="10.00">mal_packet_weaver::</text>
<text text-anchor="middle" x="379.75" y="-54.75" font-family="Times,serif" font-size="10.00">PacketDispatcher</text>
</a>
</g>
</g>
<!-- Node0&#45;&gt;Node1 -->
<g id="edge4_Node000000_Node000001" class="edge">
<title>Node0&#45;&gt;Node1</title>
<g id="a_edge4_Node000000_Node000001"><a xlink:title=" ">
<path fill="none" stroke="#63b8ff" d="M271.14,-64.25C290.17,-64.25 311.36,-64.25 329.88,-64.25"/>
<polygon fill="#63b8ff" stroke="#63b8ff" points="271.22,-60.75 261.22,-64.25 271.22,-67.75 271.22,-60.75"/>
</a>
</g>
</g>
<!-- Node2 -->
<g id="Node000002" class="node">
<title>Node2</title>
<g id="a_Node000002"><a xlink:href="d8/d39/classmal__packet__weaver_1_1_session.html" target="_top" xlink:title="Represents a network session for sending and receiving packets.">
<polygon fill="white" stroke="#666666" points="429.38,-30.5 330.12,-30.5 330.12,0 429.38,0 429.38,-30.5"/>
<text text-anchor="start" x="338.12" y="-17" font-family="Times,serif" font-size="10.00">mal_packet_weaver::</text>
<text text-anchor="middle" x="379.75" y="-5.75" font-family="Times,serif" font-size="10.00">Session</text>
</a>
</g>
</g>
<!-- Node0&#45;&gt;Node2 -->
<g id="edge5_Node000000_Node000002" class="edge">
<title>Node0&#45;&gt;Node2</title>
<g id="a_edge5_Node000000_Node000002"><a xlink:title=" ">
<path fill="none" stroke="#63b8ff" d="M270.61,-47.86C289.77,-42.08 311.19,-35.62 329.88,-29.99"/>
<polygon fill="#63b8ff" stroke="#63b8ff" points="269.79,-44.75 261.22,-50.99 271.81,-51.45 269.79,-44.75"/>
</a>
</g>
</g>
<!-- Node4 -->
<g id="Node000004" class="node">
<title>Node4</title>
<g id="a_Node000004"><a xlink:href="d1/dd3/classmal__toolkit_1_1non__copyable.html" target="_top" xlink:title="A class that can&#39;t be copied.">
<polygon fill="white" stroke="#666666" points="119.5,-91.88 0,-91.88 0,-72.62 119.5,-72.62 119.5,-91.88"/>
<text text-anchor="middle" x="59.75" y="-78.38" font-family="Times,serif" font-size="10.00">mal_toolkit::non_copyable</text>
</a>
</g>
</g>
<!-- Node5 -->
<g id="Node000005" class="node">
<title>Node5</title>
<g id="a_Node000005"><a xlink:href="d2/d9d/classmal__packet__weaver_1_1_packet.html" target="_top" xlink:title="Base class for all packets.">
<polygon fill="white" stroke="#666666" points="264.88,-128.5 165.62,-128.5 165.62,-98 264.88,-98 264.88,-128.5"/>
<text text-anchor="start" x="173.62" y="-115" font-family="Times,serif" font-size="10.00">mal_packet_weaver::</text>
<text text-anchor="middle" x="215.25" y="-103.75" font-family="Times,serif" font-size="10.00">Packet</text>
</a>
</g>
</g>
<!-- Node4&#45;&gt;Node5 -->
<g id="edge6_Node000004_Node000005" class="edge">
<title>Node4&#45;&gt;Node5</title>
<g id="a_edge6_Node000004_Node000005"><a xlink:title=" ">
<path fill="none" stroke="#63b8ff" d="M121.06,-94.43C135.69,-97.38 151.15,-100.51 165.19,-103.34"/>
<polygon fill="#63b8ff" stroke="#63b8ff" points="122.08,-90.86 111.59,-92.31 120.7,-97.73 122.08,-90.86"/>
</a>
</g>
</g>
<!-- Node3 -->
<g id="Node000003" class="node">
<title>Node3</title>
<g id="a_Node000003"><a xlink:href="d2/df3/classmal__toolkit_1_1non__copyable__non__movable.html" target="_top" xlink:title="A class that can&#39;t be copied neither moved.">
<polygon fill="white" stroke="#666666" points="275,-30.5 155.5,-30.5 155.5,0 275,0 275,-30.5"/>
<text text-anchor="start" x="163.5" y="-17" font-family="Times,serif" font-size="10.00">mal_toolkit::non_copyable</text>
<text text-anchor="middle" x="215.25" y="-5.75" font-family="Times,serif" font-size="10.00">_non_movable</text>
</a>
</g>
</g>
<!-- Node4&#45;&gt;Node3 -->
<g id="edge8_Node000004_Node000003" class="edge">
<title>Node4&#45;&gt;Node3</title>
<g id="a_edge8_Node000004_Node000003"><a xlink:title=" ">
<path fill="none" stroke="#63b8ff" d="M93.16,-67.74C111.44,-59.59 134.71,-49.28 155.5,-40.25 162.52,-37.2 170.02,-33.98 177.23,-30.9"/>
<polygon fill="#63b8ff" stroke="#63b8ff" points="92,-64.87 84.3,-72.14 94.86,-71.26 92,-64.87"/>
</a>
</g>
</g>
<!-- Node6 -->
<g id="Node000006" class="node">
<title>Node6</title>
<g id="a_Node000006"><a xlink:href="dd/d2b/classmal__packet__weaver_1_1_derived_packet.html" target="_top" xlink:title="A templated class representing a derived packet from the base Packet class.">
<polygon fill="white" stroke="#666666" points="448.5,-128.5 311,-128.5 311,-98 448.5,-98 448.5,-128.5"/>
<text text-anchor="start" x="319" y="-115" font-family="Times,serif" font-size="10.00">mal_packet_weaver::</text>
<text text-anchor="middle" x="379.75" y="-103.75" font-family="Times,serif" font-size="10.00">DerivedPacket&lt; PacketType &gt;</text>
</a>
</g>
</g>
<!-- Node5&#45;&gt;Node6 -->
<g id="edge7_Node000005_Node000006" class="edge">
<title>Node5&#45;&gt;Node6</title>
<g id="a_edge7_Node000005_Node000006"><a xlink:title=" ">
<path fill="none" stroke="#63b8ff" d="M276,-113.25C287.23,-113.25 299.04,-113.25 310.5,-113.25"/>
<polygon fill="#63b8ff" stroke="#63b8ff" points="276.01,-109.75 266.01,-113.25 276.01,-116.75 276.01,-109.75"/>
</a>
</g>
</g>
<!-- Node3&#45;&gt;Node2 -->
<g id="edge9_Node000003_Node000002" class="edge">
<title>Node3&#45;&gt;Node2</title>
<g id="a_edge9_Node000003_Node000002"><a xlink:title=" ">
<path fill="none" stroke="#63b8ff" d="M286,-15.25C300.75,-15.25 316.02,-15.25 329.81,-15.25"/>
<polygon fill="#63b8ff" stroke="#63b8ff" points="286.38,-11.75 276.38,-15.25 286.38,-18.75 286.38,-11.75"/>
</a>
</g>
</g>
<!-- Node7 -->
<g id="Node000007" class="node">
<title>Node7</title>
<g id="a_Node000007"><a xlink:href="db/d86/classmal__toolkit_1_1non__movable.html" target="_top" xlink:title="A class that can&#39;t be moved.">
<polygon fill="white" stroke="#666666" points="118.75,-24.88 0.75,-24.88 0.75,-5.62 118.75,-5.62 118.75,-24.88"/>
<text text-anchor="middle" x="59.75" y="-11.38" font-family="Times,serif" font-size="10.00">mal_toolkit::non_movable</text>
</a>
</g>
</g>
<!-- Node7&#45;&gt;Node3 -->
<g id="edge10_Node000007_Node000003" class="edge">
<title>Node7&#45;&gt;Node3</title>
<g id="a_edge10_Node000007_Node000003"><a xlink:title=" ">
<path fill="none" stroke="#63b8ff" d="M130.12,-15.25C138.49,-15.25 146.98,-15.25 155.18,-15.25"/>
<polygon fill="#63b8ff" stroke="#63b8ff" points="130.22,-11.75 120.22,-15.25 130.22,-18.75 130.22,-11.75"/>
</a>
</g>
</g>
</g>
</svg>
