<?xml version="1.0" encoding="UTF-8" standalone="no"?>
<!DOCTYPE svg PUBLIC "-//W3C//DTD SVG 1.1//EN"
 "http://www.w3.org/Graphics/SVG/1.1/DTD/svg11.dtd">
<!-- Generated by graphviz version 8.1.0 (20230707.0739)
 -->
<!-- Title: Graphical Class Hierarchy Pages: 1 -->
<svg width="358pt" height="39pt"
 viewBox="0.00 0.00 358.25 38.50" xmlns="http://www.w3.org/2000/svg" xmlns:xlink="http://www.w3.org/1999/xlink">
<g id="graph0" class="graph" transform="scale(1 1) rotate(0) translate(4 34.5)">
<title>Graphical Class Hierarchy</title>
<!-- Node0 -->
<g id="Node000000" class="node">
<title>Node0</title>
<g id="a_Node000000"><a xlink:title=" ">
<polygon fill="#e0e0e0" stroke="#999999" points="79.75,-24.88 0,-24.88 0,-5.63 79.75,-5.63 79.75,-24.88"/>
<text text-anchor="middle" x="39.88" y="-11.38" font-family="Times,serif" font-size="10.00">std::vector&lt; T &gt;</text>
</a>
</g>
</g>
<!-- Node1 -->
<g id="Node000001" class="node">
<title>Node1</title>
<g id="a_Node000001"><a xlink:href="d4/d9d/structmal__packet__weaver_1_1_byte_array.html" target="_top" xlink:title="A dynamically resizable array of bytes.">
<polygon fill="white" stroke="#666666" points="215,-30.5 115.75,-30.5 115.75,0 215,0 215,-30.5"/>
<text text-anchor="start" x="123.75" y="-17" font-family="Times,serif" font-size="10.00">mal_packet_weaver::</text>
<text text-anchor="middle" x="165.38" y="-5.75" font-family="Times,serif" font-size="10.00">ByteArray</text>
</a>
</g>
</g>
<!-- Node0&#45;&gt;Node1 -->
<g id="edge27_Node000000_Node000001" class="edge">
<title>Node0&#45;&gt;Node1</title>
<g id="a_edge27_Node000000_Node000001"><a xlink:title=" ">
<path fill="none" stroke="#63b8ff" d="M90.84,-15.25C99,-15.25 107.44,-15.25 115.56,-15.25"/>
<polygon fill="#63b8ff" stroke="#63b8ff" points="90.95,-11.75 80.95,-15.25 90.95,-18.75 90.95,-11.75"/>
</a>
</g>
</g>
<!-- Node2 -->
<g id="Node000002" class="node">
<title>Node2</title>
<g id="a_Node000002"><a xlink:href="da/d1a/classmal__packet__weaver_1_1crypto_1_1_key.html" target="_top" xlink:title="Represents a cryptographic key as a byte array.">
<polygon fill="white" stroke="#666666" points="350.25,-30.5 251,-30.5 251,0 350.25,0 350.25,-30.5"/>
<text text-anchor="start" x="259" y="-17" font-family="Times,serif" font-size="10.00">mal_packet_weaver::</text>
<text text-anchor="middle" x="300.62" y="-5.75" font-family="Times,serif" font-size="10.00">crypto::Key</text>
</a>
</g>
</g>
<!-- Node1&#45;&gt;Node2 -->
<g id="edge28_Node000001_Node000002" class="edge">
<title>Node1&#45;&gt;Node2</title>
<g id="a_edge28_Node000001_Node000002"><a xlink:title=" ">
<path fill="none" stroke="#63b8ff" d="M226,-15.25C234.28,-15.25 242.71,-15.25 250.77,-15.25"/>
<polygon fill="#63b8ff" stroke="#63b8ff" points="226.24,-11.75 216.24,-15.25 226.24,-18.75 226.24,-11.75"/>
</a>
</g>
</g>
</g>
</svg>
