<?xml version="1.0" encoding="UTF-8" standalone="no"?>
<!DOCTYPE svg PUBLIC "-//W3C//DTD SVG 1.1//EN"
 "http://www.w3.org/Graphics/SVG/1.1/DTD/svg11.dtd">
<!-- Generated by graphviz version 7.0.5 (20221223.1930)
 -->
<!-- Title: Graphical Class Hierarchy Pages: 1 -->
<svg width="280pt" height="76pt"
 viewBox="0.00 0.00 280.00 75.50" xmlns="http://www.w3.org/2000/svg" xmlns:xlink="http://www.w3.org/1999/xlink">
<g id="graph0" class="graph" transform="scale(1 1) rotate(0) translate(4 71.5)">
<title>Graphical Class Hierarchy</title>
<!-- Node0 -->
<g id="node1" class="node">
<title>Node0</title>
<g id="a_node1"><a xlink:href="da/d90/classmal__toolkit_1_1namable.html" target="_top" xlink:title="A class that contains a name and can be named and unnamed.">
<polygon fill="white" stroke="#666666" points="105,-45.5 0,-45.5 0,-26.5 105,-26.5 105,-45.5"/>
<text text-anchor="middle" x="52.5" y="-33.5" font-family="Helvetica,sans-Serif" font-size="10.00">mal_toolkit::namable</text>
</a>
</g>
</g>
<!-- Node1 -->
<g id="node2" class="node">
<title>Node1</title>
<g id="a_node2"><a xlink:href="df/d40/classmal__toolkit_1_1namable__once.html" target="_top" xlink:title="A class that contains a name and can be named only once at construction.">
<polygon fill="white" stroke="#666666" points="272,-67.5 141,-67.5 141,-48.5 272,-48.5 272,-67.5"/>
<text text-anchor="middle" x="206.5" y="-55.5" font-family="Helvetica,sans-Serif" font-size="10.00">mal_toolkit::namable_once</text>
</a>
</g>
</g>
<!-- Node0&#45;&gt;Node1 -->
<g id="edge1" class="edge">
<title>Node0&#45;&gt;Node1</title>
<path fill="none" stroke="#8b1a1a" d="M116.78,-45.16C124.67,-46.3 132.76,-47.47 140.68,-48.62"/>
<polygon fill="#8b1a1a" stroke="#8b1a1a" points="117.28,-41.7 106.88,-43.73 116.28,-48.62 117.28,-41.7"/>
</g>
<!-- Node2 -->
<g id="node3" class="node">
<title>Node2</title>
<g id="a_node3"><a xlink:href="d4/d2a/classmal__toolkit_1_1namable__protected.html" target="_top" xlink:title="A class that contains a name and can be named and unnamed, but you cant set the name from outside.">
<polygon fill="white" stroke="#666666" points="259,-30 154,-30 154,0 259,0 259,-30"/>
<text text-anchor="start" x="162" y="-18" font-family="Helvetica,sans-Serif" font-size="10.00">mal_toolkit::namable</text>
<text text-anchor="middle" x="206.5" y="-7" font-family="Helvetica,sans-Serif" font-size="10.00">_protected</text>
</a>
</g>
</g>
<!-- Node0&#45;&gt;Node2 -->
<g id="edge2" class="edge">
<title>Node0&#45;&gt;Node2</title>
<path fill="none" stroke="#63b8ff" d="M116.54,-27.29C128.87,-25.59 141.67,-23.82 153.59,-22.17"/>
<polygon fill="#63b8ff" stroke="#63b8ff" points="116.31,-23.79 106.88,-28.62 117.27,-30.72 116.31,-23.79"/>
</g>
</g>
</svg>
