<?xml version="1.0" encoding="UTF-8" standalone="no"?>
<!DOCTYPE svg PUBLIC "-//W3C//DTD SVG 1.1//EN"
 "http://www.w3.org/Graphics/SVG/1.1/DTD/svg11.dtd">
<!-- Generated by graphviz version 8.1.0 (20230707.0739)
 -->
<!-- Title: Graphical Class Hierarchy Pages: 1 -->
<svg width="263pt" height="88pt"
 viewBox="0.00 0.00 262.75 87.50" xmlns="http://www.w3.org/2000/svg" xmlns:xlink="http://www.w3.org/1999/xlink">
<g id="graph0" class="graph" transform="scale(1 1) rotate(0) translate(4 83.5)">
<title>Graphical Class Hierarchy</title>
<!-- Node0 -->
<g id="Node000000" class="node">
<title>Node0</title>
<g id="a_Node000000"><a xlink:title=" ">
<polygon fill="#e0e0e0" stroke="#999999" points="104.5,-79.5 15,-79.5 15,-49 104.5,-49 104.5,-79.5"/>
<text text-anchor="start" x="23" y="-66" font-family="Times,serif" font-size="10.00">std::enable_shared</text>
<text text-anchor="middle" x="59.75" y="-54.75" font-family="Times,serif" font-size="10.00">_from_this</text>
</a>
</g>
</g>
<!-- Node1 -->
<g id="Node000001" class="node">
<title>Node1</title>
<g id="a_Node000001"><a xlink:href="d8/d39/classmal__packet__weaver_1_1_session.html" target="_top" xlink:title="Represents a network session for sending and receiving packets.">
<polygon fill="white" stroke="#666666" points="254.75,-54.5 155.5,-54.5 155.5,-24 254.75,-24 254.75,-54.5"/>
<text text-anchor="start" x="163.5" y="-41" font-family="Times,serif" font-size="10.00">mal_packet_weaver::</text>
<text text-anchor="middle" x="205.12" y="-29.75" font-family="Times,serif" font-size="10.00">Session</text>
</a>
</g>
</g>
<!-- Node0&#45;&gt;Node1 -->
<g id="edge23_Node000000_Node000001" class="edge">
<title>Node0&#45;&gt;Node1</title>
<g id="a_edge23_Node000000_Node000001"><a xlink:title=" ">
<path fill="none" stroke="#63b8ff" d="M115.62,-54.68C128.61,-52.42 142.38,-50.02 155.09,-47.8"/>
<polygon fill="#63b8ff" stroke="#63b8ff" points="115.19,-51.38 105.94,-56.55 116.39,-58.28 115.19,-51.38"/>
</a>
</g>
</g>
<!-- Node2 -->
<g id="Node000002" class="node">
<title>Node2</title>
<g id="a_Node000002"><a xlink:title=" ">
<polygon fill="#e0e0e0" stroke="#999999" points="119.5,-30.5 0,-30.5 0,0 119.5,0 119.5,-30.5"/>
<text text-anchor="start" x="8" y="-17" font-family="Times,serif" font-size="10.00">mal_toolkit::non_copyable</text>
<text text-anchor="middle" x="59.75" y="-5.75" font-family="Times,serif" font-size="10.00">_non_movable</text>
</a>
</g>
</g>
<!-- Node2&#45;&gt;Node1 -->
<g id="edge24_Node000002_Node000001" class="edge">
<title>Node2&#45;&gt;Node1</title>
<g id="a_edge24_Node000002_Node000001"><a xlink:title=" ">
<path fill="none" stroke="#63b8ff" d="M130.7,-26.96C138.97,-28.34 147.26,-29.73 155.15,-31.05"/>
<polygon fill="#63b8ff" stroke="#63b8ff" points="131.33,-23.35 120.89,-25.15 130.18,-30.25 131.33,-23.35"/>
</a>
</g>
</g>
</g>
</svg>
