<?xml version="1.0" encoding="UTF-8" standalone="no"?>
<!DOCTYPE svg PUBLIC "-//W3C//DTD SVG 1.1//EN"
 "http://www.w3.org/Graphics/SVG/1.1/DTD/svg11.dtd">
<!-- Generated by graphviz version 7.0.5 (20221223.1930)
 -->
<!-- Title: Graphical Class Hierarchy Pages: 1 -->
<svg width="343pt" height="64pt"
 viewBox="0.00 0.00 343.00 64.00" xmlns="http://www.w3.org/2000/svg" xmlns:xlink="http://www.w3.org/1999/xlink">
<g id="graph0" class="graph" transform="scale(1 1) rotate(0) translate(4 60)">
<title>Graphical Class Hierarchy</title>
<!-- Node0 -->
<g id="node1" class="node">
<title>Node0</title>
<g id="a_node1"><a xlink:title=" ">
<polygon fill="#e0e0e0" stroke="#999999" points="84,-37 0,-37 0,-18 84,-18 84,-37"/>
<text text-anchor="middle" x="42" y="-25" font-family="Helvetica,sans-Serif" font-size="10.00">std::vector&lt; T &gt;</text>
</a>
</g>
</g>
<!-- Node1 -->
<g id="node2" class="node">
<title>Node1</title>
<g id="a_node2"><a xlink:href="d8/d99/structmal__toolkit_1_1_byte_array.html" target="_top" xlink:title="A dynamically resizable array of bytes.">
<polygon fill="white" stroke="#666666" points="230,-56 120,-56 120,-37 230,-37 230,-56"/>
<text text-anchor="middle" x="175" y="-44" font-family="Helvetica,sans-Serif" font-size="10.00">mal_toolkit::ByteArray</text>
</a>
</g>
</g>
<!-- Node0&#45;&gt;Node1 -->
<g id="edge1" class="edge">
<title>Node0&#45;&gt;Node1</title>
<path fill="none" stroke="#63b8ff" d="M95.82,-35.16C103.74,-36.31 111.92,-37.5 119.87,-38.65"/>
<polygon fill="#63b8ff" stroke="#63b8ff" points="96.35,-31.7 85.95,-33.73 95.34,-38.63 96.35,-31.7"/>
</g>
<!-- Node2 -->
<g id="node3" class="node">
<title>Node2</title>
<g id="a_node3"><a xlink:href="d3/d21/structweaver_1_1_byte_array.html" target="_top" xlink:title="A dynamically resizable array of bytes.">
<polygon fill="white" stroke="#666666" points="222.5,-19 127.5,-19 127.5,0 222.5,0 222.5,-19"/>
<text text-anchor="middle" x="175" y="-7" font-family="Helvetica,sans-Serif" font-size="10.00">weaver::ByteArray</text>
</a>
</g>
</g>
<!-- Node0&#45;&gt;Node2 -->
<g id="edge2" class="edge">
<title>Node0&#45;&gt;Node2</title>
<path fill="none" stroke="#63b8ff" d="M95.61,-20.27C106.11,-18.83 117.07,-17.32 127.35,-15.91"/>
<polygon fill="#63b8ff" stroke="#63b8ff" points="95.38,-16.77 85.95,-21.6 96.33,-23.7 95.38,-16.77"/>
</g>
<!-- Node3 -->
<g id="node4" class="node">
<title>Node3</title>
<g id="a_node4"><a xlink:href="dc/dfb/classweaver_1_1_key.html" target="_top" xlink:title="Represents a cryptographic key as a byte array.">
<polygon fill="white" stroke="#666666" points="335,-19 266,-19 266,0 335,0 335,-19"/>
<text text-anchor="middle" x="300.5" y="-7" font-family="Helvetica,sans-Serif" font-size="10.00">weaver::Key</text>
</a>
</g>
</g>
<!-- Node2&#45;&gt;Node3 -->
<g id="edge3" class="edge">
<title>Node2&#45;&gt;Node3</title>
<path fill="none" stroke="#63b8ff" d="M233.96,-9.5C244.88,-9.5 255.96,-9.5 265.83,-9.5"/>
<polygon fill="#63b8ff" stroke="#63b8ff" points="234.2,-6 224.2,-9.5 234.2,-13 234.2,-6"/>
</g>
</g>
</svg>
