<?xml version="1.0" encoding="UTF-8" standalone="no"?>
<!DOCTYPE svg PUBLIC "-//W3C//DTD SVG 1.1//EN"
 "http://www.w3.org/Graphics/SVG/1.1/DTD/svg11.dtd">
<!-- Generated by graphviz version 9.0.0 (20230911.1827)
 -->
<!-- Title: Graphical Class Hierarchy Pages: 1 -->
<svg width="457pt" height="186pt"
 viewBox="0.00 0.00 456.50 185.50" xmlns="http://www.w3.org/2000/svg" xmlns:xlink="http://www.w3.org/1999/xlink">
<g id="graph0" class="graph" transform="scale(1 1) rotate(0) translate(4 181.5)">
<title>Graphical Class Hierarchy</title>
<!-- Node0 -->
<g id="Node000000" class="node">
<title>Node0</title>
<g id="a_Node000000"><a xlink:title=" ">
<polygon fill="#e0e0e0" stroke="#999999" points="260,-152.5 170.5,-152.5 170.5,-122 260,-122 260,-152.5"/>
<text text-anchor="start" x="178.5" y="-139" font-family="Times,serif" font-size="10.00">std::enable_shared</text>
<text text-anchor="middle" x="215.25" y="-127.75" font-family="Times,serif" font-size="10.00">_from_this</text>
</a>
</g>
</g>
<!-- Node1 -->
<g id="Node000001" class="node">
<title>Node1</title>
<g id="a_Node000001"><a xlink:href="d4/d61/classmal__packet__weaver_1_1_packet_dispatcher.html" target="_top" xlink:title="The PacketDispatcher class is responsible for managing packet dispatching and handling.">
<polygon fill="white" stroke="#666666" points="429.38,-177.5 330.12,-177.5 330.12,-147 429.38,-147 429.38,-177.5"/>
<text text-anchor="start" x="338.12" y="-164" font-family="Times,serif" font-size="10.00">mal_packet_weaver::</text>
<text text-anchor="middle" x="379.75" y="-152.75" font-family="Times,serif" font-size="10.00">PacketDispatcher</text>
</a>
</g>
</g>
<!-- Node0&#45;&gt;Node1 -->
<g id="edge10_Node000000_Node000001" class="edge">
<title>Node0&#45;&gt;Node1</title>
<g id="a_edge10_Node000000_Node000001"><a xlink:title=" ">
<path fill="none" stroke="#63b8ff" d="M271.41,-145.74C290.37,-148.65 311.45,-151.9 329.88,-154.73"/>
<polygon fill="#63b8ff" stroke="#63b8ff" points="272.14,-142.31 261.72,-144.25 271.07,-149.23 272.14,-142.31"/>
</a>
</g>
</g>
<!-- Node4 -->
<g id="Node000004" class="node">
<title>Node4</title>
<g id="a_Node000004"><a xlink:href="d8/d39/classmal__packet__weaver_1_1_session.html" target="_top" xlink:title="Represents a network session for sending and receiving packets.">
<polygon fill="white" stroke="#666666" points="429.38,-128.5 330.12,-128.5 330.12,-98 429.38,-98 429.38,-128.5"/>
<text text-anchor="start" x="338.12" y="-115" font-family="Times,serif" font-size="10.00">mal_packet_weaver::</text>
<text text-anchor="middle" x="379.75" y="-103.75" font-family="Times,serif" font-size="10.00">Session</text>
</a>
</g>
</g>
<!-- Node0&#45;&gt;Node4 -->
<g id="edge11_Node000000_Node000004" class="edge">
<title>Node0&#45;&gt;Node4</title>
<g id="a_edge11_Node000000_Node000004"><a xlink:title=" ">
<path fill="none" stroke="#63b8ff" d="M271.41,-129.1C290.37,-126.3 311.45,-123.19 329.88,-120.47"/>
<polygon fill="#63b8ff" stroke="#63b8ff" points="271.1,-125.61 261.72,-130.53 272.13,-132.54 271.1,-125.61"/>
</a>
</g>
</g>
<!-- Node5 -->
<g id="Node000005" class="node">
<title>Node5</title>
<g id="a_Node000005"><a xlink:href="d1/dd3/classmal__toolkit_1_1non__copyable.html" target="_top" xlink:title="A class that can&#39;t be copied.">
<polygon fill="white" stroke="#666666" points="119.5,-42.88 0,-42.88 0,-23.62 119.5,-23.62 119.5,-42.88"/>
<text text-anchor="middle" x="59.75" y="-29.38" font-family="Times,serif" font-size="10.00">mal_toolkit::non_copyable</text>
</a>
</g>
</g>
<!-- Node6 -->
<g id="Node000006" class="node">
<title>Node6</title>
<g id="a_Node000006"><a xlink:href="d2/d9d/classmal__packet__weaver_1_1_packet.html" target="_top" xlink:title="Base class for all packets.">
<polygon fill="white" stroke="#666666" points="264.88,-42.5 165.62,-42.5 165.62,-12 264.88,-12 264.88,-42.5"/>
<text text-anchor="start" x="173.62" y="-29" font-family="Times,serif" font-size="10.00">mal_packet_weaver::</text>
<text text-anchor="middle" x="215.25" y="-17.75" font-family="Times,serif" font-size="10.00">Packet</text>
</a>
</g>
</g>
<!-- Node5&#45;&gt;Node6 -->
<g id="edge12_Node000005_Node000006" class="edge">
<title>Node5&#45;&gt;Node6</title>
<g id="a_edge12_Node000005_Node000006"><a xlink:title=" ">
<path fill="none" stroke="#63b8ff" d="M131.09,-30.5C142.62,-30.05 154.35,-29.59 165.22,-29.17"/>
<polygon fill="#63b8ff" stroke="#63b8ff" points="131.03,-27 121.17,-30.89 131.3,-33.99 131.03,-27"/>
</a>
</g>
</g>
<!-- Node2 -->
<g id="Node000002" class="node">
<title>Node2</title>
<g id="a_Node000002"><a xlink:href="d2/df3/classmal__toolkit_1_1non__copyable__non__movable.html" target="_top" xlink:title="A class that can&#39;t be copied neither moved.">
<polygon fill="white" stroke="#666666" points="275,-91.5 155.5,-91.5 155.5,-61 275,-61 275,-91.5"/>
<text text-anchor="start" x="163.5" y="-78" font-family="Times,serif" font-size="10.00">mal_toolkit::non_copyable</text>
<text text-anchor="middle" x="215.25" y="-66.75" font-family="Times,serif" font-size="10.00">_non_movable</text>
</a>
</g>
</g>
<!-- Node5&#45;&gt;Node2 -->
<g id="edge14_Node000005_Node000002" class="edge">
<title>Node5&#45;&gt;Node2</title>
<g id="a_edge14_Node000005_Node000002"><a xlink:title=" ">
<path fill="none" stroke="#63b8ff" d="M107.42,-46.32C123.39,-50.8 141.42,-55.85 158.06,-60.51"/>
<polygon fill="#63b8ff" stroke="#63b8ff" points="108.77,-43.07 98.2,-43.74 106.88,-49.81 108.77,-43.07"/>
</a>
</g>
</g>
<!-- Node7 -->
<g id="Node000007" class="node">
<title>Node7</title>
<g id="a_Node000007"><a xlink:href="dd/d2b/classmal__packet__weaver_1_1_derived_packet.html" target="_top" xlink:title="A templated class representing a derived packet from the base Packet class.">
<polygon fill="white" stroke="#666666" points="448.5,-30.5 311,-30.5 311,0 448.5,0 448.5,-30.5"/>
<text text-anchor="start" x="319" y="-17" font-family="Times,serif" font-size="10.00">mal_packet_weaver::</text>
<text text-anchor="middle" x="379.75" y="-5.75" font-family="Times,serif" font-size="10.00">DerivedPacket&lt; PacketType &gt;</text>
</a>
</g>
</g>
<!-- Node6&#45;&gt;Node7 -->
<g id="edge13_Node000006_Node000007" class="edge">
<title>Node6&#45;&gt;Node7</title>
<g id="a_edge13_Node000006_Node000007"><a xlink:title=" ">
<path fill="none" stroke="#63b8ff" d="M276.35,-22.81C287.47,-21.99 299.16,-21.13 310.5,-20.29"/>
<polygon fill="#63b8ff" stroke="#63b8ff" points="276.23,-19.31 266.51,-23.54 276.75,-26.29 276.23,-19.31"/>
</a>
</g>
</g>
<!-- Node2&#45;&gt;Node1 -->
<g id="edge16_Node000002_Node000001" class="edge">
<title>Node2&#45;&gt;Node1</title>
<g id="a_edge16_Node000002_Node000001"><a xlink:title=" ">
<path fill="none" stroke="#63b8ff" d="M251.16,-98.03C259.02,-102.99 267.32,-108.27 275,-113.25 291.14,-123.71 293.86,-128.53 311,-137.25 317.59,-140.6 324.74,-143.74 331.85,-146.58"/>
<polygon fill="#63b8ff" stroke="#63b8ff" points="253.11,-95.12 242.78,-92.76 249.38,-101.04 253.11,-95.12"/>
</a>
</g>
</g>
<!-- Node2&#45;&gt;Node4 -->
<g id="edge17_Node000002_Node000004" class="edge">
<title>Node2&#45;&gt;Node4</title>
<g id="a_edge17_Node000002_Node000004"><a xlink:title=" ">
<path fill="none" stroke="#63b8ff" d="M286.43,-92.23C301.05,-95.56 316.16,-99 329.81,-102.11"/>
<polygon fill="#63b8ff" stroke="#63b8ff" points="287.38,-88.86 276.85,-90.05 285.83,-95.68 287.38,-88.86"/>
</a>
</g>
</g>
<!-- Node3 -->
<g id="Node000003" class="node">
<title>Node3</title>
<g id="a_Node000003"><a xlink:href="d3/dbd/classmal__packet__weaver_1_1_dispatcher_session.html" target="_top" xlink:title="Represents a session with packet dispatching functionality.">
<polygon fill="white" stroke="#666666" points="429.38,-79.5 330.12,-79.5 330.12,-49 429.38,-49 429.38,-79.5"/>
<text text-anchor="start" x="338.12" y="-66" font-family="Times,serif" font-size="10.00">mal_packet_weaver::</text>
<text text-anchor="middle" x="379.75" y="-54.75" font-family="Times,serif" font-size="10.00">DispatcherSession</text>
</a>
</g>
</g>
<!-- Node2&#45;&gt;Node3 -->
<g id="edge15_Node000002_Node000003" class="edge">
<title>Node2&#45;&gt;Node3</title>
<g id="a_edge15_Node000002_Node000003"><a xlink:title=" ">
<path fill="none" stroke="#63b8ff" d="M286.43,-71.07C301.05,-69.99 316.16,-68.87 329.81,-67.86"/>
<polygon fill="#63b8ff" stroke="#63b8ff" points="286.6,-67.55 276.89,-71.77 287.12,-74.53 286.6,-67.55"/>
</a>
</g>
</g>
<!-- Node8 -->
<g id="Node000008" class="node">
<title>Node8</title>
<g id="a_Node000008"><a xlink:href="db/d86/classmal__toolkit_1_1non__movable.html" target="_top" xlink:title="A class that can&#39;t be moved.">
<polygon fill="white" stroke="#666666" points="118.75,-85.88 0.75,-85.88 0.75,-66.62 118.75,-66.62 118.75,-85.88"/>
<text text-anchor="middle" x="59.75" y="-72.38" font-family="Times,serif" font-size="10.00">mal_toolkit::non_movable</text>
</a>
</g>
</g>
<!-- Node8&#45;&gt;Node2 -->
<g id="edge18_Node000008_Node000002" class="edge">
<title>Node8&#45;&gt;Node2</title>
<g id="a_edge18_Node000008_Node000002"><a xlink:title=" ">
<path fill="none" stroke="#63b8ff" d="M130.68,-76.25C138.87,-76.25 147.16,-76.25 155.18,-76.25"/>
<polygon fill="#63b8ff" stroke="#63b8ff" points="130.73,-72.75 120.73,-76.25 130.73,-79.75 130.73,-72.75"/>
</a>
</g>
</g>
</g>
</svg>
