<?xml version="1.0" encoding="UTF-8" standalone="no"?>
<!DOCTYPE svg PUBLIC "-//W3C//DTD SVG 1.1//EN"
 "http://www.w3.org/Graphics/SVG/1.1/DTD/svg11.dtd">
<!-- Generated by graphviz version 7.0.5 (20221223.1930)
 -->
<!-- Title: Graphical Class Hierarchy Pages: 1 -->
<svg width="411pt" height="64pt"
 viewBox="0.00 0.00 411.00 64.00" xmlns="http://www.w3.org/2000/svg" xmlns:xlink="http://www.w3.org/1999/xlink">
<g id="graph0" class="graph" transform="scale(1 1) rotate(0) translate(4 60)">
<title>Graphical Class Hierarchy</title>
<!-- Node0 -->
<g id="node1" class="node">
<title>Node0</title>
<g id="a_node1"><a xlink:title=" ">
<polygon fill="#e0e0e0" stroke="#999999" points="84,-37 0,-37 0,-18 84,-18 84,-37"/>
<text text-anchor="middle" x="42" y="-25" font-family="Helvetica,sans-Serif" font-size="10.00">std::vector&lt; T &gt;</text>
</a>
</g>
</g>
<!-- Node1 -->
<g id="node2" class="node">
<title>Node1</title>
<g id="a_node2"><a xlink:href="d8/d99/structmal__toolkit_1_1_byte_array.html" target="_top" xlink:title="A dynamically resizable array of bytes.">
<polygon fill="white" stroke="#666666" points="235.5,-56 125.5,-56 125.5,-37 235.5,-37 235.5,-56"/>
<text text-anchor="middle" x="180.5" y="-44" font-family="Helvetica,sans-Serif" font-size="10.00">mal_toolkit::ByteArray</text>
</a>
</g>
</g>
<!-- Node0&#45;&gt;Node1 -->
<g id="edge1" class="edge">
<title>Node0&#45;&gt;Node1</title>
<path fill="none" stroke="#63b8ff" d="M95.49,-34.81C105.23,-36.16 115.41,-37.58 125.2,-38.94"/>
<polygon fill="#63b8ff" stroke="#63b8ff" points="96.21,-31.37 85.82,-33.46 95.25,-38.31 96.21,-31.37"/>
</g>
<!-- Node2 -->
<g id="node3" class="node">
<title>Node2</title>
<g id="a_node3"><a xlink:href="d0/d71/structnode__system_1_1_byte_array.html" target="_top" xlink:title="A dynamically resizable array of bytes.">
<polygon fill="white" stroke="#666666" points="241,-19 120,-19 120,0 241,0 241,-19"/>
<text text-anchor="middle" x="180.5" y="-7" font-family="Helvetica,sans-Serif" font-size="10.00">node_system::ByteArray</text>
</a>
</g>
</g>
<!-- Node0&#45;&gt;Node2 -->
<g id="edge2" class="edge">
<title>Node0&#45;&gt;Node2</title>
<path fill="none" stroke="#63b8ff" d="M95.61,-20.56C103.49,-19.52 111.67,-18.45 119.68,-17.39"/>
<polygon fill="#63b8ff" stroke="#63b8ff" points="95.28,-17.08 85.83,-21.85 96.2,-24.02 95.28,-17.08"/>
</g>
<!-- Node3 -->
<g id="node4" class="node">
<title>Node3</title>
<g id="a_node4"><a xlink:href="d1/d15/classnode__system_1_1crypto_1_1_key.html" target="_top" xlink:title="Represents a cryptographic key as a byte array.">
<polygon fill="white" stroke="#666666" points="403,-19 277,-19 277,0 403,0 403,-19"/>
<text text-anchor="middle" x="340" y="-7" font-family="Helvetica,sans-Serif" font-size="10.00">node_system::crypto::Key</text>
</a>
</g>
</g>
<!-- Node2&#45;&gt;Node3 -->
<g id="edge3" class="edge">
<title>Node2&#45;&gt;Node3</title>
<path fill="none" stroke="#63b8ff" d="M252.93,-9.5C260.82,-9.5 268.8,-9.5 276.56,-9.5"/>
<polygon fill="#63b8ff" stroke="#63b8ff" points="253.01,-6 243.01,-9.5 253.01,-13 253.01,-6"/>
</g>
</g>
</svg>
