<?xml version="1.0" encoding="UTF-8" standalone="no"?>
<!DOCTYPE svg PUBLIC "-//W3C//DTD SVG 1.1//EN"
 "http://www.w3.org/Graphics/SVG/1.1/DTD/svg11.dtd">
<!-- Generated by graphviz version 7.0.5 (20221223.1930)
 -->
<!-- Title: Graphical Class Hierarchy Pages: 1 -->
<svg width="303pt" height="278pt"
 viewBox="0.00 0.00 303.00 278.00" xmlns="http://www.w3.org/2000/svg" xmlns:xlink="http://www.w3.org/1999/xlink">
<g id="graph0" class="graph" transform="scale(1 1) rotate(0) translate(4 274)">
<title>Graphical Class Hierarchy</title>
<!-- Node0 -->
<g id="node1" class="node">
<title>Node0</title>
<g id="a_node1"><a xlink:title=" ">
<polygon fill="#e0e0e0" stroke="#999999" points="98,-270 0,-270 0,-240 98,-240 98,-270"/>
<text text-anchor="start" x="8" y="-258" font-family="Helvetica,sans-Serif" font-size="10.00">std::enable_shared</text>
<text text-anchor="middle" x="49" y="-247" font-family="Helvetica,sans-Serif" font-size="10.00">_from_this</text>
</a>
</g>
</g>
<!-- Node1 -->
<g id="node2" class="node">
<title>Node1</title>
<g id="a_node2"><a xlink:href="d8/d39/classmal__packet__weaver_1_1_session.html" target="_top" xlink:title="Represents a network session for sending and receiving packets.">
<polygon fill="white" stroke="#666666" points="268.5,-270 160.5,-270 160.5,-240 268.5,-240 268.5,-270"/>
<text text-anchor="start" x="168.5" y="-258" font-family="Helvetica,sans-Serif" font-size="10.00">mal_packet_weaver::</text>
<text text-anchor="middle" x="214.5" y="-247" font-family="Helvetica,sans-Serif" font-size="10.00">Session</text>
</a>
</g>
</g>
<!-- Node0&#45;&gt;Node1 -->
<g id="edge1" class="edge">
<title>Node0&#45;&gt;Node1</title>
<path fill="none" stroke="#63b8ff" d="M109.43,-255C126.05,-255 144,-255 160.24,-255"/>
<polygon fill="#63b8ff" stroke="#63b8ff" points="109.68,-251.5 99.68,-255 109.68,-258.5 109.68,-251.5"/>
</g>
<!-- Node2 -->
<g id="node3" class="node">
<title>Node2</title>
<g id="a_node3"><a xlink:title=" ">
<polygon fill="#e0e0e0" stroke="#999999" points="98,-150 0,-150 0,-120 98,-120 98,-150"/>
<text text-anchor="start" x="8" y="-138" font-family="Helvetica,sans-Serif" font-size="10.00">utils::non_copyable</text>
<text text-anchor="middle" x="49" y="-127" font-family="Helvetica,sans-Serif" font-size="10.00">_non_movable</text>
</a>
</g>
</g>
<!-- Node2&#45;&gt;Node1 -->
<g id="edge2" class="edge">
<title>Node2&#45;&gt;Node1</title>
<path fill="none" stroke="#63b8ff" d="M65.83,-159.92C80.87,-181.67 105.4,-212.56 134,-231 142,-236.16 151.16,-240.25 160.34,-243.48"/>
<polygon fill="#63b8ff" stroke="#63b8ff" points="68.73,-157.97 60.26,-151.61 62.92,-161.87 68.73,-157.97"/>
</g>
<!-- Node3 -->
<g id="node4" class="node">
<title>Node3</title>
<g id="a_node4"><a xlink:href="d9/d37/classmal__packet__weaver_1_1crypto_1_1_a_e_s_1_1_a_e_s256.html" target="_top" xlink:title="Provides AES&#45;256 encryption and decryption functionality using OpenSSL.">
<polygon fill="white" stroke="#666666" points="268.5,-222 160.5,-222 160.5,-192 268.5,-192 268.5,-222"/>
<text text-anchor="start" x="168.5" y="-210" font-family="Helvetica,sans-Serif" font-size="10.00">mal_packet_weaver::</text>
<text text-anchor="middle" x="214.5" y="-199" font-family="Helvetica,sans-Serif" font-size="10.00">crypto::AES::AES256</text>
</a>
</g>
</g>
<!-- Node2&#45;&gt;Node3 -->
<g id="edge3" class="edge">
<title>Node2&#45;&gt;Node3</title>
<path fill="none" stroke="#8b1a1a" d="M82.95,-156.13C98.09,-165.23 116.53,-175.49 134,-183 142.34,-186.59 151.4,-189.86 160.3,-192.76"/>
<polygon fill="#8b1a1a" stroke="#8b1a1a" points="85.16,-153.38 74.81,-151.15 81.51,-159.35 85.16,-153.38"/>
</g>
<!-- Node4 -->
<g id="node5" class="node">
<title>Node4</title>
<g id="a_node5"><a xlink:href="d0/d9a/classmal__packet__weaver_1_1crypto_1_1_diffie_hellman_helper.html" target="_top" xlink:title="Provides utility functions for Diffie&#45;Hellman key exchange.">
<polygon fill="white" stroke="#666666" points="281,-174 148,-174 148,-144 281,-144 281,-174"/>
<text text-anchor="start" x="156" y="-162" font-family="Helvetica,sans-Serif" font-size="10.00">mal_packet_weaver::</text>
<text text-anchor="middle" x="214.5" y="-151" font-family="Helvetica,sans-Serif" font-size="10.00">crypto::DiffieHellmanHelper</text>
</a>
</g>
</g>
<!-- Node2&#45;&gt;Node4 -->
<g id="edge4" class="edge">
<title>Node2&#45;&gt;Node4</title>
<path fill="none" stroke="#8b1a1a" d="M109.39,-143.72C121.87,-145.55 135.1,-147.49 147.8,-149.36"/>
<polygon fill="#8b1a1a" stroke="#8b1a1a" points="110.07,-140.28 99.67,-142.29 109.05,-147.21 110.07,-140.28"/>
</g>
<!-- Node5 -->
<g id="node6" class="node">
<title>Node5</title>
<g id="a_node6"><a xlink:href="df/d10/classmal__packet__weaver_1_1crypto_1_1_e_c_d_s_a_1_1_key_pair_generator.html" target="_top" xlink:title="Generates ECDSA key pairs for a given curve.">
<polygon fill="white" stroke="#666666" points="295,-126 134,-126 134,-96 295,-96 295,-126"/>
<text text-anchor="start" x="142" y="-114" font-family="Helvetica,sans-Serif" font-size="10.00">mal_packet_weaver::</text>
<text text-anchor="middle" x="214.5" y="-103" font-family="Helvetica,sans-Serif" font-size="10.00">crypto::ECDSA::KeyPairGenerator</text>
</a>
</g>
</g>
<!-- Node2&#45;&gt;Node5 -->
<g id="edge5" class="edge">
<title>Node2&#45;&gt;Node5</title>
<path fill="none" stroke="#8b1a1a" d="M109.5,-126.27C117.4,-125.11 125.6,-123.9 133.78,-122.7"/>
<polygon fill="#8b1a1a" stroke="#8b1a1a" points="109.05,-122.79 99.67,-127.71 110.07,-129.72 109.05,-122.79"/>
</g>
<!-- Node6 -->
<g id="node7" class="node">
<title>Node6</title>
<g id="a_node7"><a xlink:href="d8/d88/classmal__packet__weaver_1_1crypto_1_1_e_c_d_s_a_1_1_signer.html" target="_top" xlink:title="The Signer class is responsible for creating digital signatures using private keys.">
<polygon fill="white" stroke="#666666" points="271,-78 158,-78 158,-48 271,-48 271,-78"/>
<text text-anchor="start" x="166" y="-66" font-family="Helvetica,sans-Serif" font-size="10.00">mal_packet_weaver::</text>
<text text-anchor="middle" x="214.5" y="-55" font-family="Helvetica,sans-Serif" font-size="10.00">crypto::ECDSA::Signer</text>
</a>
</g>
</g>
<!-- Node2&#45;&gt;Node6 -->
<g id="edge6" class="edge">
<title>Node2&#45;&gt;Node6</title>
<path fill="none" stroke="#8b1a1a" d="M82.95,-113.87C98.09,-104.77 116.53,-94.51 134,-87 141.55,-83.75 149.68,-80.76 157.75,-78.07"/>
<polygon fill="#8b1a1a" stroke="#8b1a1a" points="81.51,-110.65 74.81,-118.85 85.16,-116.62 81.51,-110.65"/>
</g>
<!-- Node7 -->
<g id="node8" class="node">
<title>Node7</title>
<g id="a_node8"><a xlink:href="df/d2a/classmal__packet__weaver_1_1crypto_1_1_e_c_d_s_a_1_1_verifier.html" target="_top" xlink:title="The Verifier class is responsible for verifying digital signatures using public keys.">
<polygon fill="white" stroke="#666666" points="272,-30 157,-30 157,0 272,0 272,-30"/>
<text text-anchor="start" x="165" y="-18" font-family="Helvetica,sans-Serif" font-size="10.00">mal_packet_weaver::</text>
<text text-anchor="middle" x="214.5" y="-7" font-family="Helvetica,sans-Serif" font-size="10.00">crypto::ECDSA::Verifier</text>
</a>
</g>
</g>
<!-- Node2&#45;&gt;Node7 -->
<g id="edge7" class="edge">
<title>Node2&#45;&gt;Node7</title>
<path fill="none" stroke="#8b1a1a" d="M65.83,-110.08C80.87,-88.33 105.4,-57.44 134,-39 140.91,-34.55 148.68,-30.89 156.59,-27.89"/>
<polygon fill="#8b1a1a" stroke="#8b1a1a" points="62.92,-108.13 60.26,-118.39 68.73,-112.03 62.92,-108.13"/>
</g>
</g>
</svg>
