<?xml version="1.0" encoding="UTF-8" standalone="no"?>
<!DOCTYPE svg PUBLIC "-//W3C//DTD SVG 1.1//EN"
 "http://www.w3.org/Graphics/SVG/1.1/DTD/svg11.dtd">
<!-- Generated by graphviz version 7.0.5 (20221223.1930)
 -->
<!-- Title: Graphical Class Hierarchy Pages: 1 -->
<svg width="359pt" height="64pt"
 viewBox="0.00 0.00 359.00 64.00" xmlns="http://www.w3.org/2000/svg" xmlns:xlink="http://www.w3.org/1999/xlink">
<g id="graph0" class="graph" transform="scale(1 1) rotate(0) translate(4 60)">
<title>Graphical Class Hierarchy</title>
<!-- Node0 -->
<g id="node1" class="node">
<title>Node0</title>
<g id="a_node1"><a xlink:title=" ">
<polygon fill="#e0e0e0" stroke="#999999" points="78,-37 0,-37 0,-18 78,-18 78,-37"/>
<text text-anchor="middle" x="39" y="-25" font-family="Helvetica,sans-Serif" font-size="10.00">std::span&lt; T &gt;</text>
</a>
</g>
</g>
<!-- Node1 -->
<g id="node2" class="node">
<title>Node1</title>
<g id="a_node2"><a xlink:href="d8/dab/structmal__toolkit_1_1_byte_view.html" target="_top" xlink:title="A lightweight view over a sequence of bytes.">
<polygon fill="white" stroke="#666666" points="224,-56 114,-56 114,-37 224,-37 224,-56"/>
<text text-anchor="middle" x="169" y="-44" font-family="Helvetica,sans-Serif" font-size="10.00">mal_toolkit::ByteView</text>
</a>
</g>
</g>
<!-- Node0&#45;&gt;Node1 -->
<g id="edge1" class="edge">
<title>Node0&#45;&gt;Node1</title>
<path fill="none" stroke="#63b8ff" d="M89.61,-34.86C97.45,-36.03 105.59,-37.24 113.53,-38.42"/>
<polygon fill="#63b8ff" stroke="#63b8ff" points="90.31,-31.43 79.9,-33.42 89.28,-38.35 90.31,-31.43"/>
</g>
<!-- Node2 -->
<g id="node3" class="node">
<title>Node2</title>
<g id="a_node3"><a xlink:href="de/d13/structweaver_1_1_byte_view.html" target="_top" xlink:title="A lightweight view over a sequence of bytes.">
<polygon fill="white" stroke="#666666" points="216,-19 122,-19 122,0 216,0 216,-19"/>
<text text-anchor="middle" x="169" y="-7" font-family="Helvetica,sans-Serif" font-size="10.00">weaver::ByteView</text>
</a>
</g>
</g>
<!-- Node0&#45;&gt;Node2 -->
<g id="edge2" class="edge">
<title>Node0&#45;&gt;Node2</title>
<path fill="none" stroke="#63b8ff" d="M89.66,-20.52C100.28,-19.02 111.46,-17.45 121.94,-15.98"/>
<polygon fill="#63b8ff" stroke="#63b8ff" points="89.32,-17.03 79.9,-21.89 90.29,-23.96 89.32,-17.03"/>
</g>
<!-- Node3 -->
<g id="node4" class="node">
<title>Node3</title>
<g id="a_node4"><a xlink:href="d4/d3d/classweaver_1_1_key_view.html" target="_top" xlink:title="Represents a view of a cryptographic key as a byte view.">
<polygon fill="white" stroke="#666666" points="351,-19 260,-19 260,0 351,0 351,-19"/>
<text text-anchor="middle" x="305.5" y="-7" font-family="Helvetica,sans-Serif" font-size="10.00">weaver::KeyView</text>
</a>
</g>
</g>
<!-- Node2&#45;&gt;Node3 -->
<g id="edge3" class="edge">
<title>Node2&#45;&gt;Node3</title>
<path fill="none" stroke="#63b8ff" d="M227.79,-9.5C238.55,-9.5 249.65,-9.5 259.94,-9.5"/>
<polygon fill="#63b8ff" stroke="#63b8ff" points="227.8,-6 217.8,-9.5 227.8,-13 227.8,-6"/>
</g>
</g>
</svg>
