<?xml version="1.0" encoding="UTF-8" standalone="no"?>
<!DOCTYPE svg PUBLIC "-//W3C//DTD SVG 1.1//EN"
 "http://www.w3.org/Graphics/SVG/1.1/DTD/svg11.dtd">
<!-- Generated by graphviz version 7.0.5 (20221223.1930)
 -->
<!-- Title: Graphical Class Hierarchy Pages: 1 -->
<svg width="376pt" height="76pt"
 viewBox="0.00 0.00 376.00 75.50" xmlns="http://www.w3.org/2000/svg" xmlns:xlink="http://www.w3.org/1999/xlink">
<g id="graph0" class="graph" transform="scale(1 1) rotate(0) translate(4 71.5)">
<title>Graphical Class Hierarchy</title>
<!-- Node0 -->
<g id="node1" class="node">
<title>Node0</title>
<g id="a_node1"><a xlink:title=" ">
<polygon fill="#e0e0e0" stroke="#999999" points="78,-40 0,-40 0,-21 78,-21 78,-40"/>
<text text-anchor="middle" x="39" y="-28" font-family="Helvetica,sans-Serif" font-size="10.00">std::span&lt; T &gt;</text>
</a>
</g>
</g>
<!-- Node1 -->
<g id="node2" class="node">
<title>Node1</title>
<g id="a_node2"><a xlink:href="d7/d41/structmal__packet__weaver_1_1_byte_view.html" target="_top" xlink:title="A lightweight view over a sequence of bytes.">
<polygon fill="white" stroke="#666666" points="223,-67.5 115,-67.5 115,-37.5 223,-37.5 223,-67.5"/>
<text text-anchor="start" x="123" y="-55.5" font-family="Helvetica,sans-Serif" font-size="10.00">mal_packet_weaver::</text>
<text text-anchor="middle" x="169" y="-44.5" font-family="Helvetica,sans-Serif" font-size="10.00">ByteView</text>
</a>
</g>
</g>
<!-- Node0&#45;&gt;Node1 -->
<g id="edge1" class="edge">
<title>Node0&#45;&gt;Node1</title>
<path fill="none" stroke="#63b8ff" d="M89.5,-39.01C97.84,-40.44 106.53,-41.93 114.95,-43.38"/>
<polygon fill="#63b8ff" stroke="#63b8ff" points="90.34,-35.6 79.9,-37.36 89.16,-42.5 90.34,-35.6"/>
</g>
<!-- Node3 -->
<g id="node4" class="node">
<title>Node3</title>
<g id="a_node4"><a xlink:href="d8/dab/structmal__toolkit_1_1_byte_view.html" target="_top" xlink:title="A lightweight view over a sequence of bytes.">
<polygon fill="white" stroke="#666666" points="224,-19 114,-19 114,0 224,0 224,-19"/>
<text text-anchor="middle" x="169" y="-7" font-family="Helvetica,sans-Serif" font-size="10.00">mal_toolkit::ByteView</text>
</a>
</g>
</g>
<!-- Node0&#45;&gt;Node3 -->
<g id="edge3" class="edge">
<title>Node0&#45;&gt;Node3</title>
<path fill="none" stroke="#63b8ff" d="M89.61,-22.36C97.45,-21.07 105.59,-19.74 113.53,-18.44"/>
<polygon fill="#63b8ff" stroke="#63b8ff" points="89.2,-18.88 79.9,-23.95 90.33,-25.79 89.2,-18.88"/>
</g>
<!-- Node2 -->
<g id="node3" class="node">
<title>Node2</title>
<g id="a_node3"><a xlink:href="d2/d3b/classmal__packet__weaver_1_1crypto_1_1_key_view.html" target="_top" xlink:title="Represents a view of a cryptographic key as a byte view.">
<polygon fill="white" stroke="#666666" points="368,-67.5 260,-67.5 260,-37.5 368,-37.5 368,-67.5"/>
<text text-anchor="start" x="268" y="-55.5" font-family="Helvetica,sans-Serif" font-size="10.00">mal_packet_weaver::</text>
<text text-anchor="middle" x="314" y="-44.5" font-family="Helvetica,sans-Serif" font-size="10.00">crypto::KeyView</text>
</a>
</g>
</g>
<!-- Node1&#45;&gt;Node2 -->
<g id="edge2" class="edge">
<title>Node1&#45;&gt;Node2</title>
<path fill="none" stroke="#63b8ff" d="M234.58,-52.5C242.99,-52.5 251.52,-52.5 259.71,-52.5"/>
<polygon fill="#63b8ff" stroke="#63b8ff" points="234.76,-49 224.76,-52.5 234.76,-56 234.76,-49"/>
</g>
</g>
</svg>
