<?xml version="1.0" encoding="UTF-8" standalone="no"?>
<!DOCTYPE svg PUBLIC "-//W3C//DTD SVG 1.1//EN"
 "http://www.w3.org/Graphics/SVG/1.1/DTD/svg11.dtd">
<!-- Generated by graphviz version 8.1.0 (20230707.0739)
 -->
<!-- Title: third_party/mal&#45;toolkit/mal&#45;toolkit/mal&#45;toolkit/include/spdlog.hpp Pages: 1 -->
<svg width="446pt" height="294pt"
 viewBox="0.00 0.00 445.62 294.25" xmlns="http://www.w3.org/2000/svg" xmlns:xlink="http://www.w3.org/1999/xlink">
<g id="graph0" class="graph" transform="scale(1 1) rotate(0) translate(4 290.25)">
<title>third_party/mal&#45;toolkit/mal&#45;toolkit/mal&#45;toolkit/include/spdlog.hpp</title>
<!-- Node1 -->
<g id="Node000001" class="node">
<title>Node1</title>
<g id="a_Node000001"><a xlink:title="Provides integration with the SPDLOG library for efficient logging and debugging.">
<polygon fill="#999999" stroke="#666666" points="260.62,-286.25 153.12,-286.25 153.12,-244.5 260.62,-244.5 260.62,-286.25"/>
<text text-anchor="start" x="161.12" y="-272.75" font-family="Times,serif" font-size="10.00">third_party/mal&#45;toolkit</text>
<text text-anchor="start" x="161.12" y="-261.5" font-family="Times,serif" font-size="10.00">/mal&#45;toolkit/mal&#45;toolkit</text>
<text text-anchor="middle" x="206.88" y="-250.25" font-family="Times,serif" font-size="10.00">/include/spdlog.hpp</text>
</a>
</g>
</g>
<!-- Node2 -->
<g id="Node000002" class="node">
<title>Node2</title>
<g id="a_Node000002"><a xlink:href="../../da/d7b/debug_8hpp.html" target="_top" xlink:title="Contains debugging&#45;related macros and utilities for assisting with debugging tasks.">
<polygon fill="white" stroke="#666666" points="260.62,-208.5 153.12,-208.5 153.12,-166.75 260.62,-166.75 260.62,-208.5"/>
<text text-anchor="start" x="161.12" y="-195" font-family="Times,serif" font-size="10.00">third_party/mal&#45;toolkit</text>
<text text-anchor="start" x="161.12" y="-183.75" font-family="Times,serif" font-size="10.00">/mal&#45;toolkit/mal&#45;toolkit</text>
<text text-anchor="middle" x="206.88" y="-172.5" font-family="Times,serif" font-size="10.00">/debug.hpp</text>
</a>
</g>
</g>
<!-- Node1&#45;&gt;Node2 -->
<g id="edge1_Node000001_Node000002" class="edge">
<title>Node1&#45;&gt;Node2</title>
<g id="a_edge1_Node000001_Node000002"><a xlink:title=" ">
<path fill="none" stroke="#63b8ff" d="M206.88,-233.31C206.88,-225.11 206.88,-216.46 206.88,-208.98"/>
<polygon fill="#63b8ff" stroke="#63b8ff" points="203.38,-233.08 206.88,-243.08 210.38,-233.08 203.38,-233.08"/>
</a>
</g>
</g>
<!-- Node3 -->
<g id="Node000003" class="node">
<title>Node3</title>
<g id="a_Node000003"><a xlink:href="../../da/d43/debug__with__source__location_8hpp.html" target="_top" xlink:title="This file provides utility functions for debugging and assertion handling.">
<polygon fill="white" stroke="#666666" points="121.75,-130.75 0,-130.75 0,-77.75 121.75,-77.75 121.75,-130.75"/>
<text text-anchor="start" x="8" y="-117.25" font-family="Times,serif" font-size="10.00">third_party/mal&#45;toolkit</text>
<text text-anchor="start" x="8" y="-106" font-family="Times,serif" font-size="10.00">/mal&#45;toolkit/mal&#45;toolkit</text>
<text text-anchor="start" x="8" y="-94.75" font-family="Times,serif" font-size="10.00">/detail/debug_with_source</text>
<text text-anchor="middle" x="60.88" y="-83.5" font-family="Times,serif" font-size="10.00">_location.hpp</text>
</a>
</g>
</g>
<!-- Node2&#45;&gt;Node3 -->
<g id="edge2_Node000002_Node000003" class="edge">
<title>Node2&#45;&gt;Node3</title>
<g id="a_edge2_Node000002_Node000003"><a xlink:title=" ">
<path fill="none" stroke="#63b8ff" d="M154.85,-161.15C137.14,-151.6 117.66,-140.74 101.02,-131.16"/>
<polygon fill="#63b8ff" stroke="#63b8ff" points="153.01,-164.67 163.48,-166.3 156.31,-158.49 153.01,-164.67"/>
</a>
</g>
</g>
<!-- Node4 -->
<g id="Node000004" class="node">
<title>Node4</title>
<g id="a_Node000004"><a xlink:href="../../d3/d4b/debug__without__source__location_8hpp.html" target="_top" xlink:title="Provides utility functions for debugging and assertion handling without source location information.">
<polygon fill="white" stroke="#666666" points="274.12,-130.75 139.62,-130.75 139.62,-77.75 274.12,-77.75 274.12,-130.75"/>
<text text-anchor="start" x="147.62" y="-117.25" font-family="Times,serif" font-size="10.00">third_party/mal&#45;toolkit</text>
<text text-anchor="start" x="147.62" y="-106" font-family="Times,serif" font-size="10.00">/mal&#45;toolkit/mal&#45;toolkit</text>
<text text-anchor="start" x="147.62" y="-94.75" font-family="Times,serif" font-size="10.00">/detail/debug_without_source</text>
<text text-anchor="middle" x="206.88" y="-83.5" font-family="Times,serif" font-size="10.00">_location.hpp</text>
</a>
</g>
</g>
<!-- Node2&#45;&gt;Node4 -->
<g id="edge4_Node000002_Node000004" class="edge">
<title>Node2&#45;&gt;Node4</title>
<g id="a_edge4_Node000002_Node000004"><a xlink:title=" ">
<path fill="none" stroke="#63b8ff" d="M206.88,-155.55C206.88,-147.43 206.88,-138.78 206.88,-130.98"/>
<polygon fill="#63b8ff" stroke="#63b8ff" points="203.38,-155.51 206.88,-165.51 210.38,-155.51 203.38,-155.51"/>
</a>
</g>
</g>
<!-- Node5 -->
<g id="Node000005" class="node">
<title>Node5</title>
<g id="a_Node000005"><a xlink:href="../../d1/d8a/mal-toolkit_8hpp.html" target="_top" xlink:title="Main header file for the MAL Toolkit library, providing a comprehensive set of tools and utilities.">
<polygon fill="white" stroke="#666666" points="396.62,-41.75 289.12,-41.75 289.12,0 396.62,0 396.62,-41.75"/>
<text text-anchor="start" x="297.12" y="-28.25" font-family="Times,serif" font-size="10.00">third_party/mal&#45;toolkit</text>
<text text-anchor="start" x="297.12" y="-17" font-family="Times,serif" font-size="10.00">/mal&#45;toolkit/mal&#45;toolkit</text>
<text text-anchor="middle" x="342.88" y="-5.75" font-family="Times,serif" font-size="10.00">/mal&#45;toolkit.hpp</text>
</a>
</g>
</g>
<!-- Node2&#45;&gt;Node5 -->
<g id="edge5_Node000002_Node000005" class="edge">
<title>Node2&#45;&gt;Node5</title>
<g id="a_edge5_Node000002_Node000005"><a xlink:title=" ">
<path fill="none" stroke="#63b8ff" d="M249.65,-160.14C261.3,-151.67 273.32,-141.64 282.88,-130.75 306.79,-103.5 325.16,-65.13 334.96,-41.96"/>
<polygon fill="#63b8ff" stroke="#63b8ff" points="248.04,-157.7 241.86,-166.3 252.06,-163.43 248.04,-157.7"/>
</a>
</g>
</g>
<!-- Node6 -->
<g id="Node000006" class="node">
<title>Node6</title>
<g id="a_Node000006"><a xlink:href="../../d0/db4/measurer_8hpp.html" target="_top" xlink:title="Implements performance measurement and profiling utilities.">
<polygon fill="white" stroke="#666666" points="437.62,-125.12 330.12,-125.12 330.12,-83.38 437.62,-83.38 437.62,-125.12"/>
<text text-anchor="start" x="338.12" y="-111.62" font-family="Times,serif" font-size="10.00">third_party/mal&#45;toolkit</text>
<text text-anchor="start" x="338.12" y="-100.38" font-family="Times,serif" font-size="10.00">/mal&#45;toolkit/mal&#45;toolkit</text>
<text text-anchor="middle" x="383.88" y="-89.12" font-family="Times,serif" font-size="10.00">/measurer.hpp</text>
</a>
</g>
</g>
<!-- Node2&#45;&gt;Node6 -->
<g id="edge6_Node000002_Node000006" class="edge">
<title>Node2&#45;&gt;Node6</title>
<g id="a_edge6_Node000002_Node000006"><a xlink:title=" ">
<path fill="none" stroke="#63b8ff" d="M260.87,-161.8C286.09,-150.21 315.74,-136.57 339.62,-125.6"/>
<polygon fill="#63b8ff" stroke="#63b8ff" points="259.71,-158.94 252.08,-166.3 262.63,-165.3 259.71,-158.94"/>
</a>
</g>
</g>
<!-- Node3&#45;&gt;Node2 -->
<g id="edge3_Node000003_Node000002" class="edge">
<title>Node3&#45;&gt;Node2</title>
<g id="a_edge3_Node000003_Node000002"><a xlink:title=" ">
<path fill="none" stroke="#63b8ff" d="M123.2,-136.32C141.59,-146.37 160.88,-157.24 176.34,-166.3"/>
<polygon fill="#63b8ff" stroke="#63b8ff" points="125.15,-132.85 114.69,-131.16 121.81,-139.01 125.15,-132.85"/>
</a>
</g>
</g>
<!-- Node6&#45;&gt;Node5 -->
<g id="edge7_Node000006_Node000005" class="edge">
<title>Node6&#45;&gt;Node5</title>
<g id="a_edge7_Node000006_Node000005"><a xlink:title=" ">
<path fill="none" stroke="#63b8ff" d="M368.89,-73.52C363.62,-63.05 357.82,-51.54 353.04,-42.04"/>
<polygon fill="#63b8ff" stroke="#63b8ff" points="366.11,-74.78 373.74,-82.13 372.37,-71.63 366.11,-74.78"/>
</a>
</g>
</g>
</g>
</svg>
