<?xml version="1.0" encoding="UTF-8" standalone="no"?>
<!DOCTYPE svg PUBLIC "-//W3C//DTD SVG 1.1//EN"
 "http://www.w3.org/Graphics/SVG/1.1/DTD/svg11.dtd">
<!-- Generated by graphviz version 7.0.5 (20221223.1930)
 -->
<!-- Title: mal&#45;packet&#45;weaver/mal&#45;packet&#45;weaver/packet.hpp Pages: 1 -->
<svg width="975pt" height="192pt"
 viewBox="0.00 0.00 975.00 192.00" xmlns="http://www.w3.org/2000/svg" xmlns:xlink="http://www.w3.org/1999/xlink">
<g id="graph0" class="graph" transform="scale(1 1) rotate(0) translate(4 188)">
<title>mal&#45;packet&#45;weaver/mal&#45;packet&#45;weaver/packet.hpp</title>
<!-- Node1 -->
<g id="node1" class="node">
<title>Node1</title>
<g id="a_node1"><a xlink:title=" ">
<polygon fill="#999999" stroke="#666666" points="608,-184 474,-184 474,-154 608,-154 608,-184"/>
<text text-anchor="start" x="482" y="-172" font-family="Helvetica,sans-Serif" font-size="10.00">mal&#45;packet&#45;weaver/mal</text>
<text text-anchor="middle" x="541" y="-161" font-family="Helvetica,sans-Serif" font-size="10.00">&#45;packet&#45;weaver/packet.hpp</text>
</a>
</g>
</g>
<!-- Node2 -->
<g id="node2" class="node">
<title>Node2</title>
<g id="a_node2"><a xlink:href="../../df/d1d/packet-dispatcher_8hpp.html" target="_top" xlink:title=" ">
<polygon fill="white" stroke="#666666" points="254,-118 136,-118 136,-77 254,-77 254,-118"/>
<text text-anchor="start" x="144" y="-106" font-family="Helvetica,sans-Serif" font-size="10.00">mal&#45;packet&#45;weaver/mal</text>
<text text-anchor="start" x="144" y="-95" font-family="Helvetica,sans-Serif" font-size="10.00">&#45;packet&#45;weaver/packet</text>
<text text-anchor="middle" x="195" y="-84" font-family="Helvetica,sans-Serif" font-size="10.00">&#45;dispatcher.hpp</text>
</a>
</g>
</g>
<!-- Node1&#45;&gt;Node2 -->
<g id="edge1" class="edge">
<title>Node1&#45;&gt;Node2</title>
<path fill="none" stroke="#63b8ff" d="M462.51,-156.06C406.59,-147.03 329.8,-133.54 263,-118 260.13,-117.33 257.2,-116.62 254.25,-115.87"/>
<polygon fill="#63b8ff" stroke="#63b8ff" points="461.84,-159.5 472.27,-157.63 462.95,-152.59 461.84,-159.5"/>
</g>
<!-- Node6 -->
<g id="node6" class="node">
<title>Node6</title>
<g id="a_node6"><a xlink:href="../../d8/dac/packet-crypto_8hpp.html" target="_top" xlink:title=" ">
<polygon fill="white" stroke="#666666" points="393.5,-118 272.5,-118 272.5,-77 393.5,-77 393.5,-118"/>
<text text-anchor="start" x="280.5" y="-106" font-family="Helvetica,sans-Serif" font-size="10.00">mal&#45;packet&#45;weaver/mal</text>
<text text-anchor="start" x="280.5" y="-95" font-family="Helvetica,sans-Serif" font-size="10.00">&#45;packet&#45;weaver/packets</text>
<text text-anchor="middle" x="333" y="-84" font-family="Helvetica,sans-Serif" font-size="10.00">/packet&#45;crypto.hpp</text>
</a>
</g>
</g>
<!-- Node1&#45;&gt;Node6 -->
<g id="edge6" class="edge">
<title>Node1&#45;&gt;Node6</title>
<path fill="none" stroke="#63b8ff" d="M486.91,-149.93C457.94,-140.25 422.21,-128.31 392.47,-118.37"/>
<polygon fill="#63b8ff" stroke="#63b8ff" points="485.62,-153.19 496.21,-153.04 487.84,-146.55 485.62,-153.19"/>
</g>
<!-- Node7 -->
<g id="node7" class="node">
<title>Node7</title>
<g id="a_node7"><a xlink:href="../../d4/d6f/packet-network_8hpp.html" target="_top" xlink:title=" ">
<polygon fill="white" stroke="#666666" points="532.5,-118 411.5,-118 411.5,-77 532.5,-77 532.5,-118"/>
<text text-anchor="start" x="419.5" y="-106" font-family="Helvetica,sans-Serif" font-size="10.00">mal&#45;packet&#45;weaver/mal</text>
<text text-anchor="start" x="419.5" y="-95" font-family="Helvetica,sans-Serif" font-size="10.00">&#45;packet&#45;weaver/packets</text>
<text text-anchor="middle" x="472" y="-84" font-family="Helvetica,sans-Serif" font-size="10.00">/packet&#45;network.hpp</text>
</a>
</g>
</g>
<!-- Node1&#45;&gt;Node7 -->
<g id="edge7" class="edge">
<title>Node1&#45;&gt;Node7</title>
<path fill="none" stroke="#63b8ff" d="M518.82,-145.66C510.12,-136.9 500.22,-126.93 491.77,-118.42"/>
<polygon fill="#63b8ff" stroke="#63b8ff" points="516.11,-147.89 525.64,-152.53 521.08,-142.96 516.11,-147.89"/>
</g>
<!-- Node8 -->
<g id="node8" class="node">
<title>Node8</title>
<g id="a_node8"><a xlink:href="../../d3/d61/packet-node_8hpp.html" target="_top" xlink:title=" ">
<polygon fill="white" stroke="#666666" points="671.5,-118 550.5,-118 550.5,-77 671.5,-77 671.5,-118"/>
<text text-anchor="start" x="558.5" y="-106" font-family="Helvetica,sans-Serif" font-size="10.00">mal&#45;packet&#45;weaver/mal</text>
<text text-anchor="start" x="558.5" y="-95" font-family="Helvetica,sans-Serif" font-size="10.00">&#45;packet&#45;weaver/packets</text>
<text text-anchor="middle" x="611" y="-84" font-family="Helvetica,sans-Serif" font-size="10.00">/packet&#45;node.hpp</text>
</a>
</g>
</g>
<!-- Node1&#45;&gt;Node8 -->
<g id="edge8" class="edge">
<title>Node1&#45;&gt;Node8</title>
<path fill="none" stroke="#63b8ff" d="M563.5,-145.66C572.33,-136.9 582.37,-126.93 590.94,-118.42"/>
<polygon fill="#63b8ff" stroke="#63b8ff" points="561.21,-143 556.58,-152.53 566.14,-147.97 561.21,-143"/>
</g>
<!-- Node9 -->
<g id="node9" class="node">
<title>Node9</title>
<g id="a_node9"><a xlink:href="../../dd/d5c/packet-system_8hpp.html" target="_top" xlink:title=" ">
<polygon fill="white" stroke="#666666" points="810.5,-118 689.5,-118 689.5,-77 810.5,-77 810.5,-118"/>
<text text-anchor="start" x="697.5" y="-106" font-family="Helvetica,sans-Serif" font-size="10.00">mal&#45;packet&#45;weaver/mal</text>
<text text-anchor="start" x="697.5" y="-95" font-family="Helvetica,sans-Serif" font-size="10.00">&#45;packet&#45;weaver/packets</text>
<text text-anchor="middle" x="750" y="-84" font-family="Helvetica,sans-Serif" font-size="10.00">/packet&#45;system.hpp</text>
</a>
</g>
</g>
<!-- Node1&#45;&gt;Node9 -->
<g id="edge9" class="edge">
<title>Node1&#45;&gt;Node9</title>
<path fill="none" stroke="#63b8ff" d="M595.35,-149.93C624.46,-140.25 660.36,-128.31 690.25,-118.37"/>
<polygon fill="#63b8ff" stroke="#63b8ff" points="594.38,-146.56 586,-153.04 596.59,-153.2 594.38,-146.56"/>
</g>
<!-- Node10 -->
<g id="node10" class="node">
<title>Node10</title>
<g id="a_node10"><a xlink:href="../../d4/d5e/session_8hpp.html" target="_top" xlink:title=" ">
<polygon fill="white" stroke="#666666" points="967,-112.5 829,-112.5 829,-82.5 967,-82.5 967,-112.5"/>
<text text-anchor="start" x="837" y="-100.5" font-family="Helvetica,sans-Serif" font-size="10.00">mal&#45;packet&#45;weaver/mal</text>
<text text-anchor="middle" x="898" y="-89.5" font-family="Helvetica,sans-Serif" font-size="10.00">&#45;packet&#45;weaver/session.hpp</text>
</a>
</g>
</g>
<!-- Node1&#45;&gt;Node10 -->
<g id="edge10" class="edge">
<title>Node1&#45;&gt;Node10</title>
<path fill="none" stroke="#63b8ff" d="M619.61,-155.37C675.66,-146.01 752.7,-132.43 820,-118 827.23,-116.45 834.82,-114.71 842.29,-112.91"/>
<polygon fill="#63b8ff" stroke="#63b8ff" points="619.12,-151.91 609.83,-157 620.27,-158.81 619.12,-151.91"/>
</g>
<!-- Node3 -->
<g id="node3" class="node">
<title>Node3</title>
<g id="a_node3"><a xlink:href="../../de/d5c/dispatcher-session_8hpp.html" target="_top" xlink:title=" ">
<polygon fill="white" stroke="#666666" points="530.5,-41 399.5,-41 399.5,0 530.5,0 530.5,-41"/>
<text text-anchor="start" x="407.5" y="-29" font-family="Helvetica,sans-Serif" font-size="10.00">mal&#45;packet&#45;weaver/mal</text>
<text text-anchor="start" x="407.5" y="-18" font-family="Helvetica,sans-Serif" font-size="10.00">&#45;packet&#45;weaver/dispatcher</text>
<text text-anchor="middle" x="465" y="-7" font-family="Helvetica,sans-Serif" font-size="10.00">&#45;session.hpp</text>
</a>
</g>
</g>
<!-- Node2&#45;&gt;Node3 -->
<g id="edge2" class="edge">
<title>Node2&#45;&gt;Node3</title>
<path fill="none" stroke="#63b8ff" d="M265.4,-76.34C315.49,-62.31 362.6,-49.37 399.45,-39.31"/>
<polygon fill="#63b8ff" stroke="#63b8ff" points="264.47,-72.97 255.78,-79.04 266.36,-79.7 264.47,-72.97"/>
</g>
<!-- Node4 -->
<g id="node4" class="node">
<title>Node4</title>
<g id="a_node4"><a xlink:href="../../d8/d1a/packet-dispatcher_8cpp.html" target="_top" xlink:title=" ">
<polygon fill="white" stroke="#666666" points="118,-41 0,-41 0,0 118,0 118,-41"/>
<text text-anchor="start" x="8" y="-29" font-family="Helvetica,sans-Serif" font-size="10.00">mal&#45;packet&#45;weaver/mal</text>
<text text-anchor="start" x="8" y="-18" font-family="Helvetica,sans-Serif" font-size="10.00">&#45;packet&#45;weaver/packet</text>
<text text-anchor="middle" x="59" y="-7" font-family="Helvetica,sans-Serif" font-size="10.00">&#45;dispatcher.cpp</text>
</a>
</g>
</g>
<!-- Node2&#45;&gt;Node4 -->
<g id="edge3" class="edge">
<title>Node2&#45;&gt;Node4</title>
<path fill="none" stroke="#63b8ff" d="M148.9,-71.08C131.39,-61.42 111.72,-50.58 95.26,-41.49"/>
<polygon fill="#63b8ff" stroke="#63b8ff" points="147.14,-74.1 157.59,-75.87 150.52,-67.97 147.14,-74.1"/>
</g>
<!-- Node5 -->
<g id="node5" class="node">
<title>Node5</title>
<g id="a_node5"><a xlink:href="../../d2/d7d/packet-dispatcher_8inl.html" target="_top" xlink:title=" ">
<polygon fill="white" stroke="#666666" points="254,-41 136,-41 136,0 254,0 254,-41"/>
<text text-anchor="start" x="144" y="-29" font-family="Helvetica,sans-Serif" font-size="10.00">mal&#45;packet&#45;weaver/mal</text>
<text text-anchor="start" x="144" y="-18" font-family="Helvetica,sans-Serif" font-size="10.00">&#45;packet&#45;weaver/packet</text>
<text text-anchor="middle" x="195" y="-7" font-family="Helvetica,sans-Serif" font-size="10.00">&#45;dispatcher.inl</text>
</a>
</g>
</g>
<!-- Node2&#45;&gt;Node5 -->
<g id="edge4" class="edge">
<title>Node2&#45;&gt;Node5</title>
<path fill="none" stroke="#63b8ff" d="M188.34,-65.36C188.11,-57.24 188.32,-48.7 188.97,-41.33"/>
<polygon fill="#63b8ff" stroke="#63b8ff" points="184.84,-65.49 188.89,-75.28 191.83,-65.1 184.84,-65.49"/>
</g>
<!-- Node5&#45;&gt;Node2 -->
<g id="edge5" class="edge">
<title>Node5&#45;&gt;Node2</title>
<path fill="none" stroke="#63b8ff" d="M201.67,-52.78C201.89,-60.91 201.67,-69.45 201.02,-76.79"/>
<polygon fill="#63b8ff" stroke="#63b8ff" points="205.16,-52.64 201.12,-42.85 198.18,-53.02 205.16,-52.64"/>
</g>
<!-- Node10&#45;&gt;Node3 -->
<g id="edge11" class="edge">
<title>Node10&#45;&gt;Node3</title>
<path fill="none" stroke="#63b8ff" d="M831.64,-79.48C827.71,-78.61 823.81,-77.77 820,-77 719.74,-56.67 602.24,-39.61 530.74,-29.98"/>
<polygon fill="#63b8ff" stroke="#63b8ff" points="830.74,-82.87 841.27,-81.7 832.31,-76.04 830.74,-82.87"/>
</g>
<!-- Node11 -->
<g id="node11" class="node">
<title>Node11</title>
<g id="a_node11"><a xlink:href="../../d9/d1a/session_8cpp.html" target="_top" xlink:title=" ">
<polygon fill="white" stroke="#666666" points="814,-35.5 676,-35.5 676,-5.5 814,-5.5 814,-35.5"/>
<text text-anchor="start" x="684" y="-23.5" font-family="Helvetica,sans-Serif" font-size="10.00">mal&#45;packet&#45;weaver/mal</text>
<text text-anchor="middle" x="745" y="-12.5" font-family="Helvetica,sans-Serif" font-size="10.00">&#45;packet&#45;weaver/session.cpp</text>
</a>
</g>
</g>
<!-- Node10&#45;&gt;Node11 -->
<g id="edge12" class="edge">
<title>Node10&#45;&gt;Node11</title>
<path fill="none" stroke="#63b8ff" d="M858.49,-77.13C832.22,-64.26 798.3,-47.63 774.41,-35.92"/>
<polygon fill="#63b8ff" stroke="#63b8ff" points="856.62,-80.11 867.14,-81.37 859.7,-73.83 856.62,-80.11"/>
</g>
<!-- Node12 -->
<g id="node12" class="node">
<title>Node12</title>
<g id="a_node12"><a xlink:href="../../d1/d16/session_8inl.html" target="_top" xlink:title=" ">
<polygon fill="white" stroke="#666666" points="964,-35.5 832,-35.5 832,-5.5 964,-5.5 964,-35.5"/>
<text text-anchor="start" x="840" y="-23.5" font-family="Helvetica,sans-Serif" font-size="10.00">mal&#45;packet&#45;weaver/mal</text>
<text text-anchor="middle" x="898" y="-12.5" font-family="Helvetica,sans-Serif" font-size="10.00">&#45;packet&#45;weaver/session.inl</text>
</a>
</g>
</g>
<!-- Node10&#45;&gt;Node12 -->
<g id="edge13" class="edge">
<title>Node10&#45;&gt;Node12</title>
<path fill="none" stroke="#63b8ff" d="M891.55,-70.73C890.93,-59.08 891.26,-45.76 892.55,-35.92"/>
<polygon fill="#63b8ff" stroke="#63b8ff" points="888.05,-70.87 892.41,-80.53 895.03,-70.26 888.05,-70.87"/>
</g>
<!-- Node12&#45;&gt;Node10 -->
<g id="edge14" class="edge">
<title>Node12&#45;&gt;Node10</title>
<path fill="none" stroke="#63b8ff" d="M904.44,-47.22C905.07,-58.86 904.74,-72.18 903.46,-82.04"/>
<polygon fill="#63b8ff" stroke="#63b8ff" points="907.95,-47.08 903.58,-37.42 900.97,-47.69 907.95,-47.08"/>
</g>
</g>
</svg>
