<?xml version="1.0" encoding="UTF-8" standalone="no"?>
<!DOCTYPE svg PUBLIC "-//W3C//DTD SVG 1.1//EN"
 "http://www.w3.org/Graphics/SVG/1.1/DTD/svg11.dtd">
<!-- Generated by graphviz version 8.1.0 (20230707.0739)
 -->
<!-- Title: mal&#45;packet&#45;weaver/mal&#45;packet&#45;weaver/packet.hpp Pages: 1 -->
<!--zoomable 194 -->

<svg id="main" version="1.1" xmlns="http://www.w3.org/2000/svg" xmlns:xlink="http://www.w3.org/1999/xlink" xml:space="preserve" onload="init(evt)">
<style type="text/css"><![CDATA[
.node, .edge {opacity: 0.7;}
.node.selected, .edge.selected {opacity: 1;}
.edge:hover path { stroke: red; }
.edge:hover polygon { stroke: red; fill: red; }
]]></style>

<defs>
  <circle id="rim" cx="0" cy="0" r="7"/>
  <circle id="rim2" cx="0" cy="0" r="3.5"/>
  <g id="zoomPlus">
    <use xlink:href="#rim" fill="#404040"><set attributeName="fill" to="#808080" begin="zoomplus.mouseover" end="zoomplus.mouseout"/></use>
    <path d="M-4,0h8M0,-4v8" fill="none" stroke="white" stroke-width="1.5" pointer-events="none"/>
  </g>
  <g id="zoomMin">
    <use xlink:href="#rim" fill="#404040"><set attributeName="fill" to="#808080" begin="zoomminus.mouseover" end="zoomminus.mouseout"/></use>
    <path d="M-4,0h8" fill="none" stroke="white" stroke-width="1.5" pointer-events="none"/>
  </g>
  <g id="arrowUp" transform="translate(30 24)">
    <use xlink:href="#rim"/>
    <path pointer-events="none" fill="none" stroke="white" stroke-width="1.5" d="M0,-3.0v7 M-2.5,-0.5L0,-3.0L2.5,-0.5"/>
  </g>
  <g id="arrowRight" transform="rotate(90) translate(36 -43)">
    <use xlink:href="#rim"/>
    <path pointer-events="none" fill="none" stroke="white" stroke-width="1.5" d="M0,-3.0v7 M-2.5,-0.5L0,-3.0L2.5,-0.5"/>
  </g>
  <g id="arrowDown" transform="rotate(180) translate(-30 -48)">
    <use xlink:href="#rim"/>
    <path pointer-events="none" fill="none" stroke="white" stroke-width="1.5" d="M0,-3.0v7 M-2.5,-0.5L0,-3.0L2.5,-0.5"/>
  </g>
  <g id="arrowLeft" transform="rotate(270) translate(-36 17)">
    <use xlink:href="#rim"/>
    <path pointer-events="none" fill="none" stroke="white" stroke-width="1.5" d="M0,-3.0v7 M-2.5,-0.5L0,-3.0L2.5,-0.5"/>
  </g>
  <g id="resetDef">
    <use xlink:href="#rim2" fill="#404040"><set attributeName="fill" to="#808080" begin="reset.mouseover" end="reset.mouseout"/></use>
  </g>
</defs>
<script type="application/ecmascript">
var viewWidth = 892;
var viewHeight = 194;
var sectionId = 'dynsection-1';
</script>
<script type="application/ecmascript" xlink:href="../../svg.min.js"/>
<svg id="graph" class="graph">
<g id="viewport">
<title>mal&#45;packet&#45;weaver/mal&#45;packet&#45;weaver/packet.hpp</title>
<!-- Node1 -->
<g id="Node000001" class="node">
<title>Node1</title>
<g id="a_Node000001"><a xlink:title=" ">
<polygon fill="#999999" stroke="#666666" points="557.38,-186 434.12,-186 434.12,-155.5 557.38,-155.5 557.38,-186"/>
<text text-anchor="start" x="442.12" y="-172.5" font-family="Times,serif" font-size="10.00">mal&#45;packet&#45;weaver/mal</text>
<text text-anchor="middle" x="495.75" y="-161.25" font-family="Times,serif" font-size="10.00">&#45;packet&#45;weaver/packet.hpp</text>
</a>
</g>
</g>
<!-- Node2 -->
<g id="Node000002" class="node">
<title>Node2</title>
<g id="a_Node000002"><a xlink:href="../../df/d1d/packet-dispatcher_8hpp.html" target="_top" xlink:title=" ">
<polygon fill="white" stroke="#666666" points="233.5,-119.5 126,-119.5 126,-77.75 233.5,-77.75 233.5,-119.5"/>
<text text-anchor="start" x="134" y="-106" font-family="Times,serif" font-size="10.00">mal&#45;packet&#45;weaver/mal</text>
<text text-anchor="start" x="134" y="-94.75" font-family="Times,serif" font-size="10.00">&#45;packet&#45;weaver/packet</text>
<text text-anchor="middle" x="179.75" y="-83.5" font-family="Times,serif" font-size="10.00">&#45;dispatcher.hpp</text>
</a>
</g>
</g>
<!-- Node1&#45;&gt;Node2 -->
<g id="edge1_Node000001_Node000002" class="edge">
<title>Node1&#45;&gt;Node2</title>
<g id="a_edge1_Node000001_Node000002"><a xlink:title=" ">
<path fill="none" stroke="#63b8ff" d="M423.11,-157.67C372.04,-148.62 302.29,-135.14 241.75,-119.5 239.12,-118.82 236.44,-118.1 233.75,-117.34"/>
<polygon fill="#63b8ff" stroke="#63b8ff" points="422.26,-161.25 432.71,-159.53 423.47,-154.35 422.26,-161.25"/>
</a>
</g>
</g>
<!-- Node6 -->
<g id="Node000006" class="node">
<title>Node6</title>
<g id="a_Node000006"><a xlink:href="../../d8/dac/packet-crypto_8hpp.html" target="_top" xlink:title=" ">
<polygon fill="white" stroke="#666666" points="360.25,-119.5 251.25,-119.5 251.25,-77.75 360.25,-77.75 360.25,-119.5"/>
<text text-anchor="start" x="259.25" y="-106" font-family="Times,serif" font-size="10.00">mal&#45;packet&#45;weaver/mal</text>
<text text-anchor="start" x="259.25" y="-94.75" font-family="Times,serif" font-size="10.00">&#45;packet&#45;weaver/packets</text>
<text text-anchor="middle" x="305.75" y="-83.5" font-family="Times,serif" font-size="10.00">/packet&#45;crypto.hpp</text>
</a>
</g>
</g>
<!-- Node1&#45;&gt;Node6 -->
<g id="edge6_Node000001_Node000006" class="edge">
<title>Node1&#45;&gt;Node6</title>
<g id="a_edge6_Node000001_Node000006"><a xlink:title=" ">
<path fill="none" stroke="#63b8ff" d="M445.84,-151.33C419.66,-141.67 387.54,-129.81 360.66,-119.89"/>
<polygon fill="#63b8ff" stroke="#63b8ff" points="444.33,-154.87 454.92,-155.05 446.75,-148.3 444.33,-154.87"/>
</a>
</g>
</g>
<!-- Node7 -->
<g id="Node000007" class="node">
<title>Node7</title>
<g id="a_Node000007"><a xlink:href="../../d4/d6f/packet-network_8hpp.html" target="_top" xlink:title=" ">
<polygon fill="white" stroke="#666666" points="487.25,-119.5 378.25,-119.5 378.25,-77.75 487.25,-77.75 487.25,-119.5"/>
<text text-anchor="start" x="386.25" y="-106" font-family="Times,serif" font-size="10.00">mal&#45;packet&#45;weaver/mal</text>
<text text-anchor="start" x="386.25" y="-94.75" font-family="Times,serif" font-size="10.00">&#45;packet&#45;weaver/packets</text>
<text text-anchor="middle" x="432.75" y="-83.5" font-family="Times,serif" font-size="10.00">/packet&#45;network.hpp</text>
</a>
</g>
</g>
<!-- Node1&#45;&gt;Node7 -->
<g id="edge7_Node000001_Node000007" class="edge">
<title>Node1&#45;&gt;Node7</title>
<g id="a_edge7_Node000001_Node000007"><a xlink:title=" ">
<path fill="none" stroke="#63b8ff" d="M475.56,-147.27C467.68,-138.51 458.72,-128.54 451.04,-119.99"/>
<polygon fill="#63b8ff" stroke="#63b8ff" points="472.41,-149.12 481.7,-154.22 477.62,-144.44 472.41,-149.12"/>
</a>
</g>
</g>
<!-- Node8 -->
<g id="Node000008" class="node">
<title>Node8</title>
<g id="a_Node000008"><a xlink:href="../../d3/d61/packet-node_8hpp.html" target="_top" xlink:title=" ">
<polygon fill="white" stroke="#666666" points="614.25,-119.5 505.25,-119.5 505.25,-77.75 614.25,-77.75 614.25,-119.5"/>
<text text-anchor="start" x="513.25" y="-106" font-family="Times,serif" font-size="10.00">mal&#45;packet&#45;weaver/mal</text>
<text text-anchor="start" x="513.25" y="-94.75" font-family="Times,serif" font-size="10.00">&#45;packet&#45;weaver/packets</text>
<text text-anchor="middle" x="559.75" y="-83.5" font-family="Times,serif" font-size="10.00">/packet&#45;node.hpp</text>
</a>
</g>
</g>
<!-- Node1&#45;&gt;Node8 -->
<g id="edge8_Node000001_Node000008" class="edge">
<title>Node1&#45;&gt;Node8</title>
<g id="a_edge8_Node000001_Node000008"><a xlink:title=" ">
<path fill="none" stroke="#63b8ff" d="M516.26,-147.27C524.26,-138.51 533.36,-128.54 541.17,-119.99"/>
<polygon fill="#63b8ff" stroke="#63b8ff" points="514.17,-144.47 510.01,-154.22 519.34,-149.19 514.17,-144.47"/>
</a>
</g>
</g>
<!-- Node9 -->
<g id="Node000009" class="node">
<title>Node9</title>
<g id="a_Node000009"><a xlink:href="../../dd/d5c/packet-system_8hpp.html" target="_top" xlink:title=" ">
<polygon fill="white" stroke="#666666" points="741.25,-119.5 632.25,-119.5 632.25,-77.75 741.25,-77.75 741.25,-119.5"/>
<text text-anchor="start" x="640.25" y="-106" font-family="Times,serif" font-size="10.00">mal&#45;packet&#45;weaver/mal</text>
<text text-anchor="start" x="640.25" y="-94.75" font-family="Times,serif" font-size="10.00">&#45;packet&#45;weaver/packets</text>
<text text-anchor="middle" x="686.75" y="-83.5" font-family="Times,serif" font-size="10.00">/packet&#45;system.hpp</text>
</a>
</g>
</g>
<!-- Node1&#45;&gt;Node9 -->
<g id="edge9_Node000001_Node000009" class="edge">
<title>Node1&#45;&gt;Node9</title>
<g id="a_edge9_Node000001_Node000009"><a xlink:title=" ">
<path fill="none" stroke="#63b8ff" d="M545.97,-151.31C572.39,-141.61 604.83,-129.7 631.91,-119.76"/>
<polygon fill="#63b8ff" stroke="#63b8ff" points="544.97,-148.32 536.79,-155.05 547.38,-154.89 544.97,-148.32"/>
</a>
</g>
</g>
<!-- Node10 -->
<g id="Node000010" class="node">
<title>Node10</title>
<g id="a_Node000010"><a xlink:href="../../d4/d5e/session_8hpp.html" target="_top" xlink:title=" ">
<polygon fill="white" stroke="#666666" points="884.12,-113.88 759.38,-113.88 759.38,-83.38 884.12,-83.38 884.12,-113.88"/>
<text text-anchor="start" x="767.38" y="-100.38" font-family="Times,serif" font-size="10.00">mal&#45;packet&#45;weaver/mal</text>
<text text-anchor="middle" x="821.75" y="-89.12" font-family="Times,serif" font-size="10.00">&#45;packet&#45;weaver/session.hpp</text>
</a>
</g>
</g>
<!-- Node1&#45;&gt;Node10 -->
<g id="edge10_Node000001_Node000010" class="edge">
<title>Node1&#45;&gt;Node10</title>
<g id="a_edge10_Node000001_Node000010"><a xlink:title=" ">
<path fill="none" stroke="#63b8ff" d="M568.25,-157.03C619.46,-147.66 689.59,-134.06 750.75,-119.5 757.35,-117.93 764.26,-116.16 771.07,-114.33"/>
<polygon fill="#63b8ff" stroke="#63b8ff" points="567.83,-153.73 558.62,-158.96 569.08,-160.62 567.83,-153.73"/>
</a>
</g>
</g>
<!-- Node3 -->
<g id="Node000003" class="node">
<title>Node3</title>
<g id="a_Node000003"><a xlink:href="../../de/d5c/dispatcher-session_8hpp.html" target="_top" xlink:title=" ">
<polygon fill="white" stroke="#666666" points="487.62,-41.75 365.88,-41.75 365.88,0 487.62,0 487.62,-41.75"/>
<text text-anchor="start" x="373.88" y="-28.25" font-family="Times,serif" font-size="10.00">mal&#45;packet&#45;weaver/mal</text>
<text text-anchor="start" x="373.88" y="-17" font-family="Times,serif" font-size="10.00">&#45;packet&#45;weaver/dispatcher</text>
<text text-anchor="middle" x="426.75" y="-5.75" font-family="Times,serif" font-size="10.00">&#45;session.hpp</text>
</a>
</g>
</g>
<!-- Node2&#45;&gt;Node3 -->
<g id="edge2_Node000002_Node000003" class="edge">
<title>Node2&#45;&gt;Node3</title>
<g id="a_edge2_Node000002_Node000003"><a xlink:title=" ">
<path fill="none" stroke="#63b8ff" d="M244.15,-77.02C289.4,-62.98 331.9,-50.15 365.42,-40.11"/>
<polygon fill="#63b8ff" stroke="#63b8ff" points="243.35,-73.92 234.84,-80.23 245.42,-80.6 243.35,-73.92"/>
</a>
</g>
</g>
<!-- Node4 -->
<g id="Node000004" class="node">
<title>Node4</title>
<g id="a_Node000004"><a xlink:href="../../d8/d1a/packet-dispatcher_8cpp.html" target="_top" xlink:title=" ">
<polygon fill="white" stroke="#666666" points="107.5,-41.75 0,-41.75 0,0 107.5,0 107.5,-41.75"/>
<text text-anchor="start" x="8" y="-28.25" font-family="Times,serif" font-size="10.00">mal&#45;packet&#45;weaver/mal</text>
<text text-anchor="start" x="8" y="-17" font-family="Times,serif" font-size="10.00">&#45;packet&#45;weaver/packet</text>
<text text-anchor="middle" x="53.75" y="-5.75" font-family="Times,serif" font-size="10.00">&#45;dispatcher.cpp</text>
</a>
</g>
</g>
<!-- Node2&#45;&gt;Node4 -->
<g id="edge3_Node000002_Node000004" class="edge">
<title>Node2&#45;&gt;Node4</title>
<g id="a_edge3_Node000002_Node000004"><a xlink:title=" ">
<path fill="none" stroke="#63b8ff" d="M136.79,-71.8C120.73,-62.14 102.73,-51.32 87.61,-42.23"/>
<polygon fill="#63b8ff" stroke="#63b8ff" points="134.61,-75.17 144.98,-77.33 138.22,-69.17 134.61,-75.17"/>
</a>
</g>
</g>
<!-- Node5 -->
<g id="Node000005" class="node">
<title>Node5</title>
<g id="a_Node000005"><a xlink:href="../../d2/d7d/packet-dispatcher_8inl.html" target="_top" xlink:title=" ">
<polygon fill="white" stroke="#666666" points="233.5,-41.75 126,-41.75 126,0 233.5,0 233.5,-41.75"/>
<text text-anchor="start" x="134" y="-28.25" font-family="Times,serif" font-size="10.00">mal&#45;packet&#45;weaver/mal</text>
<text text-anchor="start" x="134" y="-17" font-family="Times,serif" font-size="10.00">&#45;packet&#45;weaver/packet</text>
<text text-anchor="middle" x="179.75" y="-5.75" font-family="Times,serif" font-size="10.00">&#45;dispatcher.inl</text>
</a>
</g>
</g>
<!-- Node2&#45;&gt;Node5 -->
<g id="edge4_Node000002_Node000005" class="edge">
<title>Node2&#45;&gt;Node5</title>
<g id="a_edge4_Node000002_Node000005"><a xlink:title=" ">
<path fill="none" stroke="#63b8ff" d="M173.1,-66.56C172.86,-58.36 173.06,-49.71 173.69,-42.23"/>
<polygon fill="#63b8ff" stroke="#63b8ff" points="169.65,-66.53 173.69,-76.33 176.64,-66.15 169.65,-66.53"/>
</a>
</g>
</g>
<!-- Node5&#45;&gt;Node2 -->
<g id="edge5_Node000005_Node000002" class="edge">
<title>Node5&#45;&gt;Node2</title>
<g id="a_edge5_Node000005_Node000002"><a xlink:title=" ">
<path fill="none" stroke="#63b8ff" d="M186.4,-53C186.64,-61.21 186.44,-69.85 185.81,-77.33"/>
<polygon fill="#63b8ff" stroke="#63b8ff" points="189.86,-53.02 185.81,-43.23 182.87,-53.41 189.86,-53.02"/>
</a>
</g>
</g>
<!-- Node10&#45;&gt;Node3 -->
<g id="edge11_Node000010_Node000003" class="edge">
<title>Node10&#45;&gt;Node3</title>
<g id="a_edge11_Node000010_Node000003"><a xlink:title=" ">
<path fill="none" stroke="#63b8ff" d="M761.24,-80.24C757.7,-79.36 754.18,-78.52 750.75,-77.75 659.99,-57.28 553.45,-40.22 488.03,-30.53"/>
<polygon fill="#63b8ff" stroke="#63b8ff" points="760.32,-83.87 770.87,-82.97 762.06,-77.09 760.32,-83.87"/>
</a>
</g>
</g>
<!-- Node11 -->
<g id="Node000011" class="node">
<title>Node11</title>
<g id="a_Node000011"><a xlink:href="../../d9/d1a/session_8cpp.html" target="_top" xlink:title=" ">
<polygon fill="white" stroke="#666666" points="743.75,-36.12 619.75,-36.12 619.75,-5.62 743.75,-5.62 743.75,-36.12"/>
<text text-anchor="start" x="627.75" y="-22.62" font-family="Times,serif" font-size="10.00">mal&#45;packet&#45;weaver/mal</text>
<text text-anchor="middle" x="681.75" y="-11.38" font-family="Times,serif" font-size="10.00">&#45;packet&#45;weaver/session.cpp</text>
</a>
</g>
</g>
<!-- Node10&#45;&gt;Node11 -->
<g id="edge12_Node000010_Node000011" class="edge">
<title>Node10&#45;&gt;Node11</title>
<g id="a_edge12_Node000010_Node000011"><a xlink:title=" ">
<path fill="none" stroke="#63b8ff" d="M785.28,-77.89C761.29,-64.91 730.43,-48.21 708.66,-36.44"/>
<polygon fill="#63b8ff" stroke="#63b8ff" points="783.3,-81.34 793.76,-83.02 786.63,-75.18 783.3,-81.34"/>
</a>
</g>
</g>
<!-- Node12 -->
<g id="Node000012" class="node">
<title>Node12</title>
<g id="a_Node000012"><a xlink:href="../../d1/d16/session_8inl.html" target="_top" xlink:title=" ">
<polygon fill="white" stroke="#666666" points="881.5,-36.12 762,-36.12 762,-5.62 881.5,-5.62 881.5,-36.12"/>
<text text-anchor="start" x="770" y="-22.62" font-family="Times,serif" font-size="10.00">mal&#45;packet&#45;weaver/mal</text>
<text text-anchor="middle" x="821.75" y="-11.38" font-family="Times,serif" font-size="10.00">&#45;packet&#45;weaver/session.inl</text>
</a>
</g>
</g>
<!-- Node10&#45;&gt;Node12 -->
<g id="edge13_Node000010_Node000012" class="edge">
<title>Node10&#45;&gt;Node12</title>
<g id="a_edge13_Node000010_Node000012"><a xlink:title=" ">
<path fill="none" stroke="#63b8ff" d="M815.34,-72.34C814.67,-60.4 814.99,-46.59 816.3,-36.44"/>
<polygon fill="#63b8ff" stroke="#63b8ff" points="811.92,-72.37 816.29,-82.02 818.89,-71.75 811.92,-72.37"/>
</a>
</g>
</g>
<!-- Node12&#45;&gt;Node10 -->
<g id="edge14_Node000012_Node000010" class="edge">
<title>Node12&#45;&gt;Node10</title>
<g id="a_edge14_Node000012_Node000010"><a xlink:title=" ">
<path fill="none" stroke="#63b8ff" d="M828.15,-47.11C828.83,-59.04 828.51,-72.85 827.21,-83.02"/>
<polygon fill="#63b8ff" stroke="#63b8ff" points="831.58,-47.09 827.2,-37.44 824.6,-47.71 831.58,-47.09"/>
</a>
</g>
</g>
</g>
</svg>

<g id="navigator" transform="translate(0 0)" fill="#404254">
  <rect fill="#f2f5e9" fill-opacity="0.5" stroke="#606060" stroke-width=".5" x="0" y="0" width="60" height="60"/>
  <use id="zoomplus" xlink:href="#zoomPlus" x="17" y="9" onmousedown="handleZoom(evt,'in')"/>
  <use id="zoomminus" xlink:href="#zoomMin" x="42" y="9" onmousedown="handleZoom(evt,'out')"/>
  <use id="reset" xlink:href="#resetDef" x="30" y="36" onmousedown="handleReset()"/>
   <use id="arrowup" xlink:href="#arrowUp" x="0" y="0" onmousedown="handlePan(0,-1)"/>
  <use id="arrowright" xlink:href="#arrowRight" x="0" y="0" onmousedown="handlePan(1,0)"/>
  <use id="arrowdown" xlink:href="#arrowDown" x="0" y="0" onmousedown="handlePan(0,1)"/>
  <use id="arrowleft" xlink:href="#arrowLeft" x="0" y="0" onmousedown="handlePan(-1,0)"/>
</g>
<svg viewBox="0 0 15 15" width="100%" height="30px" preserveAspectRatio="xMaxYMin meet">
 <g id="arrow_out" transform="scale(0.3 0.3)">
  <a xlink:href="packet_8hpp__dep__incl_org.svg" target="_base">
   <rect id="button" ry="5" rx="5" y="6" x="6" height="38" width="38"
        fill="#f2f5e9" fill-opacity="0.5" stroke="#606060" stroke-width="1.0"/>
   <path id="arrow"
     d="M 11.500037,31.436501 C 11.940474,20.09759 22.043105,11.32322 32.158766,21.979434 L 37.068811,17.246167 C 37.068811,17.246167 37.088388,32 37.088388,32 L 22.160133,31.978069 C 22.160133,31.978069 26.997745,27.140456 26.997745,27.140456 C 18.528582,18.264221 13.291696,25.230495 11.500037,31.436501 z"
     style="fill:#404040;"/>
  </a>
 </g>
</svg>

<style type='text/css'>
<![CDATA[
[data-mouse-over-selected='false'] { opacity: 0.7; }
[data-mouse-over-selected='true']  { opacity: 1.0; }
]]>
</style>
<script type="application/ecmascript"><![CDATA[
document.addEventListener('DOMContentLoaded', (event) => {
  highlightEdges();
  highlightAdjacentNodes();
});
]]></script>
</svg>
