<?xml version="1.0" encoding="UTF-8" standalone="no"?>
<!DOCTYPE svg PUBLIC "-//W3C//DTD SVG 1.1//EN"
 "http://www.w3.org/Graphics/SVG/1.1/DTD/svg11.dtd">
<!-- Generated by graphviz version 7.0.5 (20221223.1930)
 -->
<!-- Title: mal&#45;packet&#45;weaver/mal&#45;packet&#45;weaver/packet&#45;dispatcher.cpp Pages: 1 -->
<svg width="2228pt" height="346pt"
 viewBox="0.00 0.00 2228.00 346.00" xmlns="http://www.w3.org/2000/svg" xmlns:xlink="http://www.w3.org/1999/xlink">
<g id="graph0" class="graph" transform="scale(1 1) rotate(0) translate(4 342)">
<title>mal&#45;packet&#45;weaver/mal&#45;packet&#45;weaver/packet&#45;dispatcher.cpp</title>
<!-- Node1 -->
<g id="node1" class="node">
<title>Node1</title>
<g id="a_node1"><a xlink:title=" ">
<polygon fill="#999999" stroke="#666666" points="1015.5,-338 897.5,-338 897.5,-297 1015.5,-297 1015.5,-338"/>
<text text-anchor="start" x="905.5" y="-326" font-family="Helvetica,sans-Serif" font-size="10.00">mal&#45;packet&#45;weaver/mal</text>
<text text-anchor="start" x="905.5" y="-315" font-family="Helvetica,sans-Serif" font-size="10.00">&#45;packet&#45;weaver/packet</text>
<text text-anchor="middle" x="956.5" y="-304" font-family="Helvetica,sans-Serif" font-size="10.00">&#45;dispatcher.cpp</text>
</a>
</g>
</g>
<!-- Node2 -->
<g id="node2" class="node">
<title>Node2</title>
<g id="a_node2"><a xlink:href="../../df/d1d/packet-dispatcher_8hpp.html" target="_top" xlink:title=" ">
<polygon fill="white" stroke="#666666" points="1012.5,-261 900.5,-261 900.5,-242 1012.5,-242 1012.5,-261"/>
<text text-anchor="middle" x="956.5" y="-249" font-family="Helvetica,sans-Serif" font-size="10.00">packet&#45;dispatcher.hpp</text>
</a>
</g>
</g>
<!-- Node1&#45;&gt;Node2 -->
<g id="edge1" class="edge">
<title>Node1&#45;&gt;Node2</title>
<path fill="none" stroke="#63b8ff" d="M956.5,-296.6C956.5,-288.98 956.5,-280.3 956.5,-272.66"/>
<polygon fill="#63b8ff" stroke="#63b8ff" points="960,-272.68 956.5,-262.68 953,-272.68 960,-272.68"/>
</g>
<!-- Node3 -->
<g id="node3" class="node">
<title>Node3</title>
<g id="a_node3"><a xlink:title=" ">
<polygon fill="#e0e0e0" stroke="#999999" points="43,-206 0,-206 0,-187 43,-187 43,-206"/>
<text text-anchor="middle" x="21.5" y="-194" font-family="Helvetica,sans-Serif" font-size="10.00">queue</text>
</a>
</g>
</g>
<!-- Node2&#45;&gt;Node3 -->
<g id="edge2" class="edge">
<title>Node2&#45;&gt;Node3</title>
<path fill="none" stroke="#63b8ff" d="M900.07,-249.4C732.3,-245.87 237.42,-233.53 54.65,-206.09"/>
<polygon fill="#63b8ff" stroke="#63b8ff" points="55.24,-202.64 44.82,-204.54 54.15,-209.55 55.24,-202.64"/>
</g>
<!-- Node4 -->
<g id="node4" class="node">
<title>Node4</title>
<g id="a_node4"><a xlink:title=" ">
<polygon fill="#e0e0e0" stroke="#999999" points="104,-206 61,-206 61,-187 104,-187 104,-206"/>
<text text-anchor="middle" x="82.5" y="-194" font-family="Helvetica,sans-Serif" font-size="10.00">deque</text>
</a>
</g>
</g>
<!-- Node2&#45;&gt;Node4 -->
<g id="edge3" class="edge">
<title>Node2&#45;&gt;Node4</title>
<path fill="none" stroke="#63b8ff" d="M900.14,-249.17C740.41,-245.15 285.81,-231.87 115.6,-206.09"/>
<polygon fill="#63b8ff" stroke="#63b8ff" points="116.25,-202.65 105.82,-204.53 115.15,-209.56 116.25,-202.65"/>
</g>
<!-- Node5 -->
<g id="node5" class="node">
<title>Node5</title>
<g id="a_node5"><a xlink:title=" ">
<polygon fill="#e0e0e0" stroke="#999999" points="205,-206 122,-206 122,-187 205,-187 205,-206"/>
<text text-anchor="middle" x="163.5" y="-194" font-family="Helvetica,sans-Serif" font-size="10.00">unordered_map</text>
</a>
</g>
</g>
<!-- Node2&#45;&gt;Node5 -->
<g id="edge4" class="edge">
<title>Node2&#45;&gt;Node5</title>
<path fill="none" stroke="#63b8ff" d="M900.4,-249.22C778,-245.97 477.65,-235.58 216.69,-206.25"/>
<polygon fill="#63b8ff" stroke="#63b8ff" points="217.3,-202.8 206.97,-205.14 216.51,-209.75 217.3,-202.8"/>
</g>
<!-- Node6 -->
<g id="node6" class="node">
<title>Node6</title>
<g id="a_node6"><a xlink:title=" ">
<polygon fill="#e0e0e0" stroke="#999999" points="264,-206 223,-206 223,-187 264,-187 264,-206"/>
<text text-anchor="middle" x="243.5" y="-194" font-family="Helvetica,sans-Serif" font-size="10.00">future</text>
</a>
</g>
</g>
<!-- Node2&#45;&gt;Node6 -->
<g id="edge5" class="edge">
<title>Node2&#45;&gt;Node6</title>
<path fill="none" stroke="#63b8ff" d="M900.26,-250.83C784.71,-250.65 512.3,-245.79 275.59,-205.94"/>
<polygon fill="#63b8ff" stroke="#63b8ff" points="276.29,-202.51 265.84,-204.27 275.11,-209.41 276.29,-202.51"/>
</g>
<!-- Node7 -->
<g id="node7" class="node">
<title>Node7</title>
<g id="a_node7"><a xlink:title=" ">
<polygon fill="#e0e0e0" stroke="#999999" points="406.5,-206 282.5,-206 282.5,-187 406.5,-187 406.5,-206"/>
<text text-anchor="middle" x="344.5" y="-194" font-family="Helvetica,sans-Serif" font-size="10.00">boost/asio/awaitable.hpp</text>
</a>
</g>
</g>
<!-- Node2&#45;&gt;Node7 -->
<g id="edge6" class="edge">
<title>Node2&#45;&gt;Node7</title>
<path fill="none" stroke="#63b8ff" d="M900.36,-246.57C804.04,-239.68 600.8,-224.48 418.26,-206.24"/>
<polygon fill="#63b8ff" stroke="#63b8ff" points="418.63,-202.76 408.33,-205.25 417.93,-209.73 418.63,-202.76"/>
</g>
<!-- Node8 -->
<g id="node8" class="node">
<title>Node8</title>
<g id="a_node8"><a xlink:title=" ">
<polygon fill="#e0e0e0" stroke="#999999" points="552,-206 425,-206 425,-187 552,-187 552,-206"/>
<text text-anchor="middle" x="488.5" y="-194" font-family="Helvetica,sans-Serif" font-size="10.00">boost/asio/co_spawn.hpp</text>
</a>
</g>
</g>
<!-- Node2&#45;&gt;Node8 -->
<g id="edge7" class="edge">
<title>Node2&#45;&gt;Node8</title>
<path fill="none" stroke="#63b8ff" d="M900.24,-244.23C825.79,-235.91 690.13,-220.71 563.27,-206.2"/>
<polygon fill="#63b8ff" stroke="#63b8ff" points="564.04,-202.76 553.7,-205.1 563.24,-209.72 564.04,-202.76"/>
</g>
<!-- Node9 -->
<g id="node9" class="node">
<title>Node9</title>
<g id="a_node9"><a xlink:title=" ">
<polygon fill="#e0e0e0" stroke="#999999" points="692.5,-206 570.5,-206 570.5,-187 692.5,-187 692.5,-206"/>
<text text-anchor="middle" x="631.5" y="-194" font-family="Helvetica,sans-Serif" font-size="10.00">boost/asio/detached.hpp</text>
</a>
</g>
</g>
<!-- Node2&#45;&gt;Node9 -->
<g id="edge8" class="edge">
<title>Node2&#45;&gt;Node9</title>
<path fill="none" stroke="#63b8ff" d="M901.37,-241.51C845.14,-232.34 757.86,-218.11 697.87,-208.32"/>
<polygon fill="#63b8ff" stroke="#63b8ff" points="698.56,-204.89 688.12,-206.73 697.43,-211.8 698.56,-204.89"/>
</g>
<!-- Node10 -->
<g id="node10" class="node">
<title>Node10</title>
<g id="a_node10"><a xlink:title=" ">
<polygon fill="#e0e0e0" stroke="#999999" points="812,-206 711,-206 711,-187 812,-187 812,-206"/>
<text text-anchor="middle" x="761.5" y="-194" font-family="Helvetica,sans-Serif" font-size="10.00">boost/asio/read.hpp</text>
</a>
</g>
</g>
<!-- Node2&#45;&gt;Node10 -->
<g id="edge9" class="edge">
<title>Node2&#45;&gt;Node10</title>
<path fill="none" stroke="#63b8ff" d="M923.42,-241.51C890.97,-232.69 841.28,-219.18 805.5,-209.46"/>
<polygon fill="#63b8ff" stroke="#63b8ff" points="806.44,-206.09 795.88,-206.84 804.61,-212.84 806.44,-206.09"/>
</g>
<!-- Node11 -->
<g id="node11" class="node">
<title>Node11</title>
<g id="a_node11"><a xlink:title=" ">
<polygon fill="#e0e0e0" stroke="#999999" points="941,-206 830,-206 830,-187 941,-187 941,-206"/>
<text text-anchor="middle" x="885.5" y="-194" font-family="Helvetica,sans-Serif" font-size="10.00">boost/asio/spawn.hpp</text>
</a>
</g>
</g>
<!-- Node2&#45;&gt;Node11 -->
<g id="edge10" class="edge">
<title>Node2&#45;&gt;Node11</title>
<path fill="none" stroke="#63b8ff" d="M944.46,-241.51C934.09,-233.77 918.9,-222.43 906.53,-213.2"/>
<polygon fill="#63b8ff" stroke="#63b8ff" points="908.69,-210.44 898.58,-207.26 904.5,-216.05 908.69,-210.44"/>
</g>
<!-- Node12 -->
<g id="node12" class="node">
<title>Node12</title>
<g id="a_node12"><a xlink:title=" ">
<polygon fill="#e0e0e0" stroke="#999999" points="1097.5,-206 959.5,-206 959.5,-187 1097.5,-187 1097.5,-206"/>
<text text-anchor="middle" x="1028.5" y="-194" font-family="Helvetica,sans-Serif" font-size="10.00">boost/asio/steady_timer.hpp</text>
</a>
</g>
</g>
<!-- Node2&#45;&gt;Node12 -->
<g id="edge11" class="edge">
<title>Node2&#45;&gt;Node12</title>
<path fill="none" stroke="#63b8ff" d="M968.71,-241.51C979.33,-233.7 994.94,-222.21 1007.54,-212.93"/>
<polygon fill="#63b8ff" stroke="#63b8ff" points="1009.27,-216 1015.25,-207.26 1005.12,-210.36 1009.27,-216"/>
</g>
<!-- Node13 -->
<g id="node13" class="node">
<title>Node13</title>
<g id="a_node13"><a xlink:title=" ">
<polygon fill="#e0e0e0" stroke="#999999" points="1241.5,-206 1115.5,-206 1115.5,-187 1241.5,-187 1241.5,-206"/>
<text text-anchor="middle" x="1178.5" y="-194" font-family="Helvetica,sans-Serif" font-size="10.00">boost/asio/streambuf.hpp</text>
</a>
</g>
</g>
<!-- Node2&#45;&gt;Node13 -->
<g id="edge12" class="edge">
<title>Node2&#45;&gt;Node13</title>
<path fill="none" stroke="#63b8ff" d="M994.16,-241.51C1031.59,-232.57 1089.15,-218.83 1129.98,-209.08"/>
<polygon fill="#63b8ff" stroke="#63b8ff" points="1130.64,-212.52 1139.55,-206.8 1129.02,-205.72 1130.64,-212.52"/>
</g>
<!-- Node14 -->
<g id="node14" class="node">
<title>Node14</title>
<g id="a_node14"><a xlink:title=" ">
<polygon fill="#e0e0e0" stroke="#999999" points="1363.5,-206 1259.5,-206 1259.5,-187 1363.5,-187 1363.5,-206"/>
<text text-anchor="middle" x="1311.5" y="-194" font-family="Helvetica,sans-Serif" font-size="10.00">boost/asio/write.hpp</text>
</a>
</g>
</g>
<!-- Node2&#45;&gt;Node14 -->
<g id="edge13" class="edge">
<title>Node2&#45;&gt;Node14</title>
<path fill="none" stroke="#63b8ff" d="M1012.75,-242.1C1076.79,-232.54 1181.16,-216.96 1248.05,-206.97"/>
<polygon fill="#63b8ff" stroke="#63b8ff" points="1248.4,-210.46 1257.77,-205.52 1247.37,-203.54 1248.4,-210.46"/>
</g>
<!-- Node15 -->
<g id="node15" class="node">
<title>Node15</title>
<g id="a_node15"><a xlink:title=" ">
<polygon fill="#e0e0e0" stroke="#999999" points="1483,-206 1382,-206 1382,-187 1483,-187 1483,-206"/>
<text text-anchor="middle" x="1432.5" y="-194" font-family="Helvetica,sans-Serif" font-size="10.00">boost/bind/bind.hpp</text>
</a>
</g>
</g>
<!-- Node2&#45;&gt;Node15 -->
<g id="edge14" class="edge">
<title>Node2&#45;&gt;Node15</title>
<path fill="none" stroke="#63b8ff" d="M1012.75,-245.1C1090.58,-237.49 1235.8,-222.8 1370.45,-206.21"/>
<polygon fill="#63b8ff" stroke="#63b8ff" points="1370.78,-209.7 1380.28,-205 1369.92,-202.75 1370.78,-209.7"/>
</g>
<!-- Node16 -->
<g id="node16" class="node">
<title>Node16</title>
<g id="a_node16"><a xlink:href="../../dd/db5/spdlog_8hpp.html" target="_top" xlink:title="Provides integration with the SPDLOG library for efficient logging and debugging.">
<polygon fill="white" stroke="#666666" points="1598,-206 1501,-206 1501,-187 1598,-187 1598,-206"/>
<text text-anchor="middle" x="1549.5" y="-194" font-family="Helvetica,sans-Serif" font-size="10.00">include/spdlog.hpp</text>
</a>
</g>
</g>
<!-- Node2&#45;&gt;Node16 -->
<g id="edge15" class="edge">
<title>Node2&#45;&gt;Node16</title>
<path fill="none" stroke="#63b8ff" d="M1012.95,-247.03C1108.79,-240.87 1309.66,-226.81 1489.45,-206.29"/>
<polygon fill="#63b8ff" stroke="#63b8ff" points="1489.67,-209.78 1499.21,-205.16 1488.87,-202.83 1489.67,-209.78"/>
</g>
<!-- Node23 -->
<g id="node23" class="node">
<title>Node23</title>
<g id="a_node23"><a xlink:href="../../dd/dc6/backoffs_8hpp.html" target="_top" xlink:title=" ">
<polygon fill="white" stroke="#666666" points="1728,-206 1657,-206 1657,-187 1728,-187 1728,-206"/>
<text text-anchor="middle" x="1692.5" y="-194" font-family="Helvetica,sans-Serif" font-size="10.00">backoffs.hpp</text>
</a>
</g>
</g>
<!-- Node2&#45;&gt;Node23 -->
<g id="edge22" class="edge">
<title>Node2&#45;&gt;Node23</title>
<path fill="none" stroke="#63b8ff" d="M1012.71,-247.25C1125.55,-240.61 1387.66,-224.5 1607.5,-206 1619.71,-204.97 1632.89,-203.72 1645.14,-202.5"/>
<polygon fill="#63b8ff" stroke="#63b8ff" points="1645.44,-205.99 1655.03,-201.5 1644.73,-199.03 1645.44,-205.99"/>
</g>
<!-- Node27 -->
<g id="node27" class="node">
<title>Node27</title>
<g id="a_node27"><a xlink:href="../../d2/d3f/packet_8hpp.html" target="_top" xlink:title=" ">
<polygon fill="white" stroke="#666666" points="1810.5,-206 1746.5,-206 1746.5,-187 1810.5,-187 1810.5,-206"/>
<text text-anchor="middle" x="1778.5" y="-194" font-family="Helvetica,sans-Serif" font-size="10.00">packet.hpp</text>
</a>
</g>
</g>
<!-- Node2&#45;&gt;Node27 -->
<g id="edge26" class="edge">
<title>Node2&#45;&gt;Node27</title>
<path fill="none" stroke="#63b8ff" d="M1012.64,-250.14C1139.67,-248.7 1458.96,-241.67 1735.3,-206.08"/>
<polygon fill="#63b8ff" stroke="#63b8ff" points="1735.38,-209.59 1744.85,-204.83 1734.48,-202.65 1735.38,-209.59"/>
</g>
<!-- Node35 -->
<g id="node35" class="node">
<title>Node35</title>
<g id="a_node35"><a xlink:href="../../d2/d7d/packet-dispatcher_8inl.html" target="_top" xlink:title=" ">
<polygon fill="white" stroke="#666666" points="1934.5,-206 1828.5,-206 1828.5,-187 1934.5,-187 1934.5,-206"/>
<text text-anchor="middle" x="1881.5" y="-194" font-family="Helvetica,sans-Serif" font-size="10.00">packet&#45;dispatcher.inl</text>
</a>
</g>
</g>
<!-- Node2&#45;&gt;Node35 -->
<g id="edge34" class="edge">
<title>Node2&#45;&gt;Node35</title>
<path fill="none" stroke="#63b8ff" d="M1012.93,-249.13C1149.93,-245.57 1510.46,-234.25 1810.5,-206 1812.65,-205.8 1814.84,-205.58 1817.05,-205.34"/>
<polygon fill="#63b8ff" stroke="#63b8ff" points="1817.23,-208.84 1826.76,-204.21 1816.43,-201.89 1817.23,-208.84"/>
</g>
<!-- Node17 -->
<g id="node17" class="node">
<title>Node17</title>
<g id="a_node17"><a xlink:title=" ">
<polygon fill="#e0e0e0" stroke="#999999" points="1102,-145.5 1021,-145.5 1021,-126.5 1102,-126.5 1102,-145.5"/>
<text text-anchor="middle" x="1061.5" y="-133.5" font-family="Helvetica,sans-Serif" font-size="10.00">spdlog/async.h</text>
</a>
</g>
</g>
<!-- Node16&#45;&gt;Node17 -->
<g id="edge16" class="edge">
<title>Node16&#45;&gt;Node17</title>
<path fill="none" stroke="#63b8ff" d="M1500.71,-188.05C1497.93,-187.68 1495.18,-187.33 1492.5,-187 1323.22,-166.42 1278.08,-182.56 1110.5,-151 1107.28,-150.39 1103.97,-149.67 1100.65,-148.88"/>
<polygon fill="#63b8ff" stroke="#63b8ff" points="1101.55,-145.49 1090.99,-146.35 1099.79,-152.27 1101.55,-145.49"/>
</g>
<!-- Node18 -->
<g id="node18" class="node">
<title>Node18</title>
<g id="a_node18"><a xlink:title=" ">
<polygon fill="#e0e0e0" stroke="#999999" points="1233,-151 1120,-151 1120,-121 1233,-121 1233,-151"/>
<text text-anchor="start" x="1128" y="-139" font-family="Helvetica,sans-Serif" font-size="10.00">spdlog/sinks/ansicolor</text>
<text text-anchor="middle" x="1176.5" y="-128" font-family="Helvetica,sans-Serif" font-size="10.00">_sink.h</text>
</a>
</g>
</g>
<!-- Node16&#45;&gt;Node18 -->
<g id="edge17" class="edge">
<title>Node16&#45;&gt;Node18</title>
<path fill="none" stroke="#63b8ff" d="M1500.68,-188.2C1497.92,-187.8 1495.17,-187.39 1492.5,-187 1385.01,-171.25 1354.94,-170.68 1244.63,-151.3"/>
<polygon fill="#63b8ff" stroke="#63b8ff" points="1245.28,-147.87 1234.83,-149.57 1244.06,-154.76 1245.28,-147.87"/>
</g>
<!-- Node19 -->
<g id="node19" class="node">
<title>Node19</title>
<g id="a_node19"><a xlink:title=" ">
<polygon fill="#e0e0e0" stroke="#999999" points="1349.5,-151 1251.5,-151 1251.5,-121 1349.5,-121 1349.5,-151"/>
<text text-anchor="start" x="1259.5" y="-139" font-family="Helvetica,sans-Serif" font-size="10.00">spdlog/sinks/basic</text>
<text text-anchor="middle" x="1300.5" y="-128" font-family="Helvetica,sans-Serif" font-size="10.00">_file_sink.h</text>
</a>
</g>
</g>
<!-- Node16&#45;&gt;Node19 -->
<g id="edge18" class="edge">
<title>Node16&#45;&gt;Node19</title>
<path fill="none" stroke="#63b8ff" d="M1511.28,-186.58C1475.16,-178.15 1419.14,-165.05 1360.69,-151.28"/>
<polygon fill="#63b8ff" stroke="#63b8ff" points="1361.76,-147.93 1351.23,-149.05 1360.16,-154.75 1361.76,-147.93"/>
</g>
<!-- Node20 -->
<g id="node20" class="node">
<title>Node20</title>
<g id="a_node20"><a xlink:title=" ">
<polygon fill="#e0e0e0" stroke="#999999" points="1469,-151 1368,-151 1368,-121 1469,-121 1469,-151"/>
<text text-anchor="start" x="1376" y="-139" font-family="Helvetica,sans-Serif" font-size="10.00">spdlog/sinks/stdout</text>
<text text-anchor="middle" x="1418.5" y="-128" font-family="Helvetica,sans-Serif" font-size="10.00">_color_sinks.h</text>
</a>
</g>
</g>
<!-- Node16&#45;&gt;Node20 -->
<g id="edge19" class="edge">
<title>Node16&#45;&gt;Node20</title>
<path fill="none" stroke="#63b8ff" d="M1529.6,-186.62C1511.48,-178.52 1484.11,-166.3 1461.07,-156.01"/>
<polygon fill="#63b8ff" stroke="#63b8ff" points="1462.77,-152.94 1452.22,-152.06 1459.92,-159.33 1462.77,-152.94"/>
</g>
<!-- Node21 -->
<g id="node21" class="node">
<title>Node21</title>
<g id="a_node21"><a xlink:title=" ">
<polygon fill="#e0e0e0" stroke="#999999" points="1571.5,-145.5 1487.5,-145.5 1487.5,-126.5 1571.5,-126.5 1571.5,-145.5"/>
<text text-anchor="middle" x="1529.5" y="-133.5" font-family="Helvetica,sans-Serif" font-size="10.00">spdlog/spdlog.h</text>
</a>
</g>
</g>
<!-- Node16&#45;&gt;Node21 -->
<g id="edge20" class="edge">
<title>Node16&#45;&gt;Node21</title>
<path fill="none" stroke="#63b8ff" d="M1546.55,-186.87C1543.83,-178.92 1539.7,-166.83 1536.18,-156.55"/>
<polygon fill="#63b8ff" stroke="#63b8ff" points="1539.5,-155.43 1532.95,-147.1 1532.88,-157.69 1539.5,-155.43"/>
</g>
<!-- Node22 -->
<g id="node22" class="node">
<title>Node22</title>
<g id="a_node22"><a xlink:href="../../d4/dfc/win-undef_8hpp.html" target="_top" xlink:title=" ">
<polygon fill="white" stroke="#666666" points="1667,-145.5 1590,-145.5 1590,-126.5 1667,-126.5 1667,-145.5"/>
<text text-anchor="middle" x="1628.5" y="-133.5" font-family="Helvetica,sans-Serif" font-size="10.00">win&#45;undef.hpp</text>
</a>
</g>
</g>
<!-- Node16&#45;&gt;Node22 -->
<g id="edge21" class="edge">
<title>Node16&#45;&gt;Node22</title>
<path fill="none" stroke="#63b8ff" d="M1561.5,-186.62C1573.68,-177.6 1592.79,-163.45 1607.48,-152.56"/>
<polygon fill="#63b8ff" stroke="#63b8ff" points="1609.22,-155.63 1615.17,-146.87 1605.05,-150.01 1609.22,-155.63"/>
</g>
<!-- Node24 -->
<g id="node24" class="node">
<title>Node24</title>
<g id="a_node24"><a xlink:title=" ">
<polygon fill="#e0e0e0" stroke="#999999" points="1741.5,-145.5 1685.5,-145.5 1685.5,-126.5 1741.5,-126.5 1741.5,-145.5"/>
<text text-anchor="middle" x="1713.5" y="-133.5" font-family="Helvetica,sans-Serif" font-size="10.00">algorithm</text>
</a>
</g>
</g>
<!-- Node23&#45;&gt;Node24 -->
<g id="edge23" class="edge">
<title>Node23&#45;&gt;Node24</title>
<path fill="none" stroke="#63b8ff" d="M1695.6,-186.87C1698.48,-178.83 1702.88,-166.57 1706.6,-156.22"/>
<polygon fill="#63b8ff" stroke="#63b8ff" points="1709.79,-157.69 1709.88,-147.09 1703.2,-155.32 1709.79,-157.69"/>
</g>
<!-- Node25 -->
<g id="node25" class="node">
<title>Node25</title>
<g id="a_node25"><a xlink:title=" ">
<polygon fill="#e0e0e0" stroke="#999999" points="1805.5,-145.5 1759.5,-145.5 1759.5,-126.5 1805.5,-126.5 1805.5,-145.5"/>
<text text-anchor="middle" x="1782.5" y="-133.5" font-family="Helvetica,sans-Serif" font-size="10.00">chrono</text>
</a>
</g>
</g>
<!-- Node23&#45;&gt;Node25 -->
<g id="edge24" class="edge">
<title>Node23&#45;&gt;Node25</title>
<path fill="none" stroke="#63b8ff" d="M1706.17,-186.62C1720.31,-177.42 1742.64,-162.91 1759.51,-151.94"/>
<polygon fill="#63b8ff" stroke="#63b8ff" points="1760.96,-155.18 1767.43,-146.79 1757.14,-149.31 1760.96,-155.18"/>
</g>
<!-- Node26 -->
<g id="node26" class="node">
<title>Node26</title>
<g id="a_node26"><a xlink:title=" ">
<polygon fill="#e0e0e0" stroke="#999999" points="1873,-145.5 1824,-145.5 1824,-126.5 1873,-126.5 1873,-145.5"/>
<text text-anchor="middle" x="1848.5" y="-133.5" font-family="Helvetica,sans-Serif" font-size="10.00">random</text>
</a>
</g>
</g>
<!-- Node23&#45;&gt;Node26 -->
<g id="edge25" class="edge">
<title>Node23&#45;&gt;Node26</title>
<path fill="none" stroke="#63b8ff" d="M1717.85,-186.59C1742.6,-177.82 1781.29,-163.89 1814.5,-151 1815.28,-150.7 1816.07,-150.39 1816.87,-150.07"/>
<polygon fill="#63b8ff" stroke="#63b8ff" points="1817.95,-153.41 1825.93,-146.44 1815.34,-146.91 1817.95,-153.41"/>
</g>
<!-- Node28 -->
<g id="node28" class="node">
<title>Node28</title>
<g id="a_node28"><a xlink:href="../../d3/d53/packet-factory_8hpp.html" target="_top" xlink:title=" ">
<polygon fill="white" stroke="#666666" points="1992,-151 1891,-151 1891,-121 1992,-121 1992,-151"/>
<text text-anchor="start" x="1899" y="-139" font-family="Helvetica,sans-Serif" font-size="10.00">packet_impl/packet</text>
<text text-anchor="middle" x="1941.5" y="-128" font-family="Helvetica,sans-Serif" font-size="10.00">&#45;factory.hpp</text>
</a>
</g>
</g>
<!-- Node27&#45;&gt;Node28 -->
<g id="edge27" class="edge">
<title>Node27&#45;&gt;Node28</title>
<path fill="none" stroke="#63b8ff" d="M1803.26,-186.62C1826.32,-178.34 1861.41,-165.75 1890.46,-155.32"/>
<polygon fill="#63b8ff" stroke="#63b8ff" points="1891.61,-158.62 1899.84,-151.95 1889.25,-152.03 1891.61,-158.62"/>
</g>
<!-- Node29 -->
<g id="node29" class="node">
<title>Node29</title>
<g id="a_node29"><a xlink:href="../../d9/d85/packet__impl_2packet_8hpp.html" target="_top" xlink:title=" ">
<polygon fill="white" stroke="#666666" points="1973.5,-85 1909.5,-85 1909.5,-66 1973.5,-66 1973.5,-85"/>
<text text-anchor="middle" x="1941.5" y="-73" font-family="Helvetica,sans-Serif" font-size="10.00">packet.hpp</text>
</a>
</g>
</g>
<!-- Node28&#45;&gt;Node29 -->
<g id="edge28" class="edge">
<title>Node28&#45;&gt;Node29</title>
<path fill="none" stroke="#63b8ff" d="M1941.5,-120.54C1941.5,-113.34 1941.5,-104.53 1941.5,-96.68"/>
<polygon fill="#63b8ff" stroke="#63b8ff" points="1945,-96.69 1941.5,-86.69 1938,-96.69 1945,-96.69"/>
</g>
<!-- Node30 -->
<g id="node30" class="node">
<title>Node30</title>
<g id="a_node30"><a xlink:title=" ">
<polygon fill="#e0e0e0" stroke="#999999" points="1749,-24.5 1660,-24.5 1660,-5.5 1749,-5.5 1749,-24.5"/>
<text text-anchor="middle" x="1704.5" y="-12.5" font-family="Helvetica,sans-Serif" font-size="10.00">../../utils/utils.hpp</text>
</a>
</g>
</g>
<!-- Node29&#45;&gt;Node30 -->
<g id="edge29" class="edge">
<title>Node29&#45;&gt;Node30</title>
<path fill="none" stroke="#63b8ff" d="M1909.07,-66.77C1872.46,-58.01 1811.14,-43.22 1758.5,-30 1755.61,-29.27 1752.63,-28.52 1749.62,-27.75"/>
<polygon fill="#63b8ff" stroke="#63b8ff" points="1750.78,-24.44 1740.23,-25.34 1749.04,-31.22 1750.78,-24.44"/>
</g>
<!-- Node31 -->
<g id="node31" class="node">
<title>Node31</title>
<g id="a_node31"><a xlink:title=" ">
<polygon fill="#e0e0e0" stroke="#999999" points="1871.5,-30 1767.5,-30 1767.5,0 1871.5,0 1871.5,-30"/>
<text text-anchor="start" x="1775.5" y="-18" font-family="Helvetica,sans-Serif" font-size="10.00">boost/archive/binary</text>
<text text-anchor="middle" x="1819.5" y="-7" font-family="Helvetica,sans-Serif" font-size="10.00">_iarchive.hpp</text>
</a>
</g>
</g>
<!-- Node29&#45;&gt;Node31 -->
<g id="edge30" class="edge">
<title>Node29&#45;&gt;Node31</title>
<path fill="none" stroke="#63b8ff" d="M1922.97,-65.62C1906.24,-57.59 1881.06,-45.52 1859.72,-35.29"/>
<polygon fill="#63b8ff" stroke="#63b8ff" points="1861.51,-32.26 1850.98,-31.09 1858.48,-38.57 1861.51,-32.26"/>
</g>
<!-- Node32 -->
<g id="node32" class="node">
<title>Node32</title>
<g id="a_node32"><a xlink:title=" ">
<polygon fill="#e0e0e0" stroke="#999999" points="1993.5,-30 1889.5,-30 1889.5,0 1993.5,0 1993.5,-30"/>
<text text-anchor="start" x="1897.5" y="-18" font-family="Helvetica,sans-Serif" font-size="10.00">boost/archive/binary</text>
<text text-anchor="middle" x="1941.5" y="-7" font-family="Helvetica,sans-Serif" font-size="10.00">_oarchive.hpp</text>
</a>
</g>
</g>
<!-- Node29&#45;&gt;Node32 -->
<g id="edge31" class="edge">
<title>Node29&#45;&gt;Node32</title>
<path fill="none" stroke="#63b8ff" d="M1941.5,-65.87C1941.5,-59.4 1941.5,-50.2 1941.5,-41.45"/>
<polygon fill="#63b8ff" stroke="#63b8ff" points="1945,-41.63 1941.5,-31.63 1938,-41.63 1945,-41.63"/>
</g>
<!-- Node33 -->
<g id="node33" class="node">
<title>Node33</title>
<g id="a_node33"><a xlink:title=" ">
<polygon fill="#e0e0e0" stroke="#999999" points="2107,-30 2012,-30 2012,0 2107,0 2107,-30"/>
<text text-anchor="start" x="2020" y="-18" font-family="Helvetica,sans-Serif" font-size="10.00">boost/serialization</text>
<text text-anchor="middle" x="2059.5" y="-7" font-family="Helvetica,sans-Serif" font-size="10.00">/base_object.hpp</text>
</a>
</g>
</g>
<!-- Node29&#45;&gt;Node33 -->
<g id="edge32" class="edge">
<title>Node29&#45;&gt;Node33</title>
<path fill="none" stroke="#63b8ff" d="M1959.42,-65.62C1975.53,-57.63 1999.74,-45.63 2020.31,-35.43"/>
<polygon fill="#63b8ff" stroke="#63b8ff" points="2021.61,-38.69 2029.02,-31.11 2018.5,-32.42 2021.61,-38.69"/>
</g>
<!-- Node34 -->
<g id="node34" class="node">
<title>Node34</title>
<g id="a_node34"><a xlink:title=" ">
<polygon fill="#e0e0e0" stroke="#999999" points="2220,-30 2125,-30 2125,0 2220,0 2220,-30"/>
<text text-anchor="start" x="2133" y="-18" font-family="Helvetica,sans-Serif" font-size="10.00">boost/serialization</text>
<text text-anchor="middle" x="2172.5" y="-7" font-family="Helvetica,sans-Serif" font-size="10.00">/serialization.hpp</text>
</a>
</g>
</g>
<!-- Node29&#45;&gt;Node34 -->
<g id="edge33" class="edge">
<title>Node29&#45;&gt;Node34</title>
<path fill="none" stroke="#63b8ff" d="M1973.62,-66.37C2009.73,-57.22 2069.13,-42.18 2113.63,-30.91"/>
<polygon fill="#63b8ff" stroke="#63b8ff" points="2114.3,-34.35 2123.13,-28.5 2112.58,-27.56 2114.3,-34.35"/>
</g>
<!-- Node35&#45;&gt;Node2 -->
<g id="edge35" class="edge">
<title>Node35&#45;&gt;Node2</title>
<path fill="none" stroke="#63b8ff" d="M1828.05,-206.04C1529.47,-234.13 1171.13,-245.46 1024.23,-249.08"/>
<polygon fill="#63b8ff" stroke="#63b8ff" points="1024.19,-245.58 1014.28,-249.32 1024.36,-252.58 1024.19,-245.58"/>
</g>
</g>
</svg>
