<?xml version="1.0" encoding="UTF-8" standalone="no"?>
<!DOCTYPE svg PUBLIC "-//W3C//DTD SVG 1.1//EN"
 "http://www.w3.org/Graphics/SVG/1.1/DTD/svg11.dtd">
<!-- Generated by graphviz version 8.1.0 (20230707.0739)
 -->
<!-- Title: mal&#45;packet&#45;weaver/mal&#45;packet&#45;weaver/packet&#45;dispatcher.cpp Pages: 1 -->
<!--zoomable 349 -->

<svg id="main" version="1.1" xmlns="http://www.w3.org/2000/svg" xmlns:xlink="http://www.w3.org/1999/xlink" xml:space="preserve" onload="init(evt)">
<style type="text/css"><![CDATA[
.node, .edge {opacity: 0.7;}
.node.selected, .edge.selected {opacity: 1;}
.edge:hover path { stroke: red; }
.edge:hover polygon { stroke: red; fill: red; }
]]></style>

<defs>
  <circle id="rim" cx="0" cy="0" r="7"/>
  <circle id="rim2" cx="0" cy="0" r="3.5"/>
  <g id="zoomPlus">
    <use xlink:href="#rim" fill="#404040"><set attributeName="fill" to="#808080" begin="zoomplus.mouseover" end="zoomplus.mouseout"/></use>
    <path d="M-4,0h8M0,-4v8" fill="none" stroke="white" stroke-width="1.5" pointer-events="none"/>
  </g>
  <g id="zoomMin">
    <use xlink:href="#rim" fill="#404040"><set attributeName="fill" to="#808080" begin="zoomminus.mouseover" end="zoomminus.mouseout"/></use>
    <path d="M-4,0h8" fill="none" stroke="white" stroke-width="1.5" pointer-events="none"/>
  </g>
  <g id="arrowUp" transform="translate(30 24)">
    <use xlink:href="#rim"/>
    <path pointer-events="none" fill="none" stroke="white" stroke-width="1.5" d="M0,-3.0v7 M-2.5,-0.5L0,-3.0L2.5,-0.5"/>
  </g>
  <g id="arrowRight" transform="rotate(90) translate(36 -43)">
    <use xlink:href="#rim"/>
    <path pointer-events="none" fill="none" stroke="white" stroke-width="1.5" d="M0,-3.0v7 M-2.5,-0.5L0,-3.0L2.5,-0.5"/>
  </g>
  <g id="arrowDown" transform="rotate(180) translate(-30 -48)">
    <use xlink:href="#rim"/>
    <path pointer-events="none" fill="none" stroke="white" stroke-width="1.5" d="M0,-3.0v7 M-2.5,-0.5L0,-3.0L2.5,-0.5"/>
  </g>
  <g id="arrowLeft" transform="rotate(270) translate(-36 17)">
    <use xlink:href="#rim"/>
    <path pointer-events="none" fill="none" stroke="white" stroke-width="1.5" d="M0,-3.0v7 M-2.5,-0.5L0,-3.0L2.5,-0.5"/>
  </g>
  <g id="resetDef">
    <use xlink:href="#rim2" fill="#404040"><set attributeName="fill" to="#808080" begin="reset.mouseover" end="reset.mouseout"/></use>
  </g>
</defs>
<script type="application/ecmascript">
var viewWidth = 1875;
var viewHeight = 349;
var sectionId = 'dynsection-0';
</script>
<script type="application/ecmascript" xlink:href="../../svg.min.js"/>
<svg id="graph" class="graph">
<g id="viewport">
<title>mal&#45;packet&#45;weaver/mal&#45;packet&#45;weaver/packet&#45;dispatcher.cpp</title>
<!-- Node1 -->
<g id="Node000001" class="node">
<title>Node1</title>
<g id="a_Node000001"><a xlink:title=" ">
<polygon fill="#999999" stroke="#666666" points="891.75,-340.5 784.25,-340.5 784.25,-298.75 891.75,-298.75 891.75,-340.5"/>
<text text-anchor="start" x="792.25" y="-327" font-family="Times,serif" font-size="10.00">mal&#45;packet&#45;weaver/mal</text>
<text text-anchor="start" x="792.25" y="-315.75" font-family="Times,serif" font-size="10.00">&#45;packet&#45;weaver/packet</text>
<text text-anchor="middle" x="838" y="-304.5" font-family="Times,serif" font-size="10.00">&#45;dispatcher.cpp</text>
</a>
</g>
</g>
<!-- Node2 -->
<g id="Node000002" class="node">
<title>Node2</title>
<g id="a_Node000002"><a xlink:href="../../df/d1d/packet-dispatcher_8hpp.html" target="_top" xlink:title=" ">
<polygon fill="white" stroke="#666666" points="891,-262.75 785,-262.75 785,-243.5 891,-243.5 891,-262.75"/>
<text text-anchor="middle" x="838" y="-249.25" font-family="Times,serif" font-size="10.00">packet&#45;dispatcher.hpp</text>
</a>
</g>
</g>
<!-- Node1&#45;&gt;Node2 -->
<g id="edge1_Node000001_Node000002" class="edge">
<title>Node1&#45;&gt;Node2</title>
<g id="a_edge1_Node000001_Node000002"><a xlink:title=" ">
<path fill="none" stroke="#63b8ff" d="M838,-298.57C838,-290.8 838,-281.93 838,-274.17"/>
<polygon fill="#63b8ff" stroke="#63b8ff" points="841.5,-274.2 838,-264.2 834.5,-274.2 841.5,-274.2"/>
</a>
</g>
</g>
<!-- Node3 -->
<g id="Node000003" class="node">
<title>Node3</title>
<g id="a_Node000003"><a xlink:title=" ">
<polygon fill="#e0e0e0" stroke="#999999" points="40,-207.5 0,-207.5 0,-188.25 40,-188.25 40,-207.5"/>
<text text-anchor="middle" x="20" y="-194" font-family="Times,serif" font-size="10.00">queue</text>
</a>
</g>
</g>
<!-- Node2&#45;&gt;Node3 -->
<g id="edge2_Node000002_Node000003" class="edge">
<title>Node2&#45;&gt;Node3</title>
<g id="a_edge2_Node000002_Node000003"><a xlink:title=" ">
<path fill="none" stroke="#63b8ff" d="M784.75,-250.73C634.9,-246.54 210.64,-232.91 51.03,-207.38"/>
<polygon fill="#63b8ff" stroke="#63b8ff" points="51.9,-203.81 41.45,-205.6 50.73,-210.71 51.9,-203.81"/>
</a>
</g>
</g>
<!-- Node4 -->
<g id="Node000004" class="node">
<title>Node4</title>
<g id="a_Node000004"><a xlink:title=" ">
<polygon fill="#e0e0e0" stroke="#999999" points="98,-207.5 58,-207.5 58,-188.25 98,-188.25 98,-207.5"/>
<text text-anchor="middle" x="78" y="-194" font-family="Times,serif" font-size="10.00">deque</text>
</a>
</g>
</g>
<!-- Node2&#45;&gt;Node4 -->
<g id="edge3_Node000002_Node000004" class="edge">
<title>Node2&#45;&gt;Node4</title>
<g id="a_edge3_Node000002_Node000004"><a xlink:title=" ">
<path fill="none" stroke="#63b8ff" d="M784.54,-250.44C642.44,-245.73 256.75,-231.27 109.09,-207.4"/>
<polygon fill="#63b8ff" stroke="#63b8ff" points="109.9,-203.82 99.46,-205.59 108.73,-210.72 109.9,-203.82"/>
</a>
</g>
</g>
<!-- Node5 -->
<g id="Node000005" class="node">
<title>Node5</title>
<g id="a_Node000005"><a xlink:title=" ">
<polygon fill="#e0e0e0" stroke="#999999" points="194.12,-207.5 115.88,-207.5 115.88,-188.25 194.12,-188.25 194.12,-207.5"/>
<text text-anchor="middle" x="155" y="-194" font-family="Times,serif" font-size="10.00">unordered_map</text>
</a>
</g>
</g>
<!-- Node2&#45;&gt;Node5 -->
<g id="edge4_Node000002_Node000005" class="edge">
<title>Node2&#45;&gt;Node5</title>
<g id="a_edge4_Node000002_Node000005"><a xlink:title=" ">
<path fill="none" stroke="#63b8ff" d="M784.71,-250.32C677.09,-246.25 425.94,-234.63 205.32,-207.66"/>
<polygon fill="#63b8ff" stroke="#63b8ff" points="205.86,-204.07 195.5,-206.32 205,-211.02 205.86,-204.07"/>
</a>
</g>
</g>
<!-- Node6 -->
<g id="Node000006" class="node">
<title>Node6</title>
<g id="a_Node000006"><a xlink:title=" ">
<polygon fill="#e0e0e0" stroke="#999999" points="252,-207.5 212,-207.5 212,-188.25 252,-188.25 252,-207.5"/>
<text text-anchor="middle" x="232" y="-194" font-family="Times,serif" font-size="10.00">future</text>
</a>
</g>
</g>
<!-- Node2&#45;&gt;Node6 -->
<g id="edge5_Node000002_Node000006" class="edge">
<title>Node2&#45;&gt;Node6</title>
<g id="a_edge5_Node000002_Node000006"><a xlink:title=" ">
<path fill="none" stroke="#63b8ff" d="M784.73,-251.59C684.34,-249.8 460.31,-242.13 262.78,-207.19"/>
<polygon fill="#63b8ff" stroke="#63b8ff" points="263.66,-203.61 253.2,-205.28 262.42,-210.5 263.66,-203.61"/>
</a>
</g>
</g>
<!-- Node7 -->
<g id="Node000007" class="node">
<title>Node7</title>
<g id="a_Node000007"><a xlink:title=" ">
<polygon fill="#e0e0e0" stroke="#999999" points="385.5,-207.5 270.5,-207.5 270.5,-188.25 385.5,-188.25 385.5,-207.5"/>
<text text-anchor="middle" x="328" y="-194" font-family="Times,serif" font-size="10.00">boost/asio/awaitable.hpp</text>
</a>
</g>
</g>
<!-- Node2&#45;&gt;Node7 -->
<g id="edge6_Node000002_Node000007" class="edge">
<title>Node2&#45;&gt;Node7</title>
<g id="a_edge6_Node000002_Node000007"><a xlink:title=" ">
<path fill="none" stroke="#63b8ff" d="M784.76,-247.24C703.47,-239.68 543.27,-224.36 396.29,-207.62"/>
<polygon fill="#63b8ff" stroke="#63b8ff" points="397.06,-204.07 386.73,-206.41 396.27,-211.02 397.06,-204.07"/>
</a>
</g>
</g>
<!-- Node8 -->
<g id="Node000008" class="node">
<title>Node8</title>
<g id="a_Node000008"><a xlink:title=" ">
<polygon fill="#e0e0e0" stroke="#999999" points="522,-207.5 404,-207.5 404,-188.25 522,-188.25 522,-207.5"/>
<text text-anchor="middle" x="463" y="-194" font-family="Times,serif" font-size="10.00">boost/asio/co_spawn.hpp</text>
</a>
</g>
</g>
<!-- Node2&#45;&gt;Node8 -->
<g id="edge7_Node000002_Node000008" class="edge">
<title>Node2&#45;&gt;Node8</title>
<g id="a_edge7_Node000002_Node000008"><a xlink:title=" ">
<path fill="none" stroke="#63b8ff" d="M784.67,-244.55C718.56,-235.17 605.73,-219.14 532.79,-208.79"/>
<polygon fill="#63b8ff" stroke="#63b8ff" points="533.73,-205.24 523.33,-207.3 532.74,-212.17 533.73,-205.24"/>
</a>
</g>
</g>
<!-- Node9 -->
<g id="Node000009" class="node">
<title>Node9</title>
<g id="a_Node000009"><a xlink:title=" ">
<polygon fill="#e0e0e0" stroke="#999999" points="655.5,-207.5 540.5,-207.5 540.5,-188.25 655.5,-188.25 655.5,-207.5"/>
<text text-anchor="middle" x="598" y="-194" font-family="Times,serif" font-size="10.00">boost/asio/detached.hpp</text>
</a>
</g>
</g>
<!-- Node2&#45;&gt;Node9 -->
<g id="edge8_Node000002_Node000009" class="edge">
<title>Node2&#45;&gt;Node9</title>
<g id="a_edge8_Node000002_Node000009"><a xlink:title=" ">
<path fill="none" stroke="#63b8ff" d="M797.02,-243.03C756.2,-233.98 693.43,-220.05 649.32,-210.26"/>
<polygon fill="#63b8ff" stroke="#63b8ff" points="650.34,-206.68 639.82,-207.93 648.82,-213.51 650.34,-206.68"/>
</a>
</g>
</g>
<!-- Node10 -->
<g id="Node000010" class="node">
<title>Node10</title>
<g id="a_Node000010"><a xlink:title=" ">
<polygon fill="#e0e0e0" stroke="#999999" points="768.75,-207.5 673.25,-207.5 673.25,-188.25 768.75,-188.25 768.75,-207.5"/>
<text text-anchor="middle" x="721" y="-194" font-family="Times,serif" font-size="10.00">boost/asio/read.hpp</text>
</a>
</g>
</g>
<!-- Node2&#45;&gt;Node10 -->
<g id="edge9_Node000002_Node000010" class="edge">
<title>Node2&#45;&gt;Node10</title>
<g id="a_edge9_Node000002_Node000010"><a xlink:title=" ">
<path fill="none" stroke="#63b8ff" d="M818.15,-243.09C799.66,-234.68 771.85,-222.02 750.71,-212.4"/>
<polygon fill="#63b8ff" stroke="#63b8ff" points="752.5,-208.91 741.94,-207.95 749.6,-215.28 752.5,-208.91"/>
</a>
</g>
</g>
<!-- Node11 -->
<g id="Node000011" class="node">
<title>Node11</title>
<g id="a_Node000011"><a xlink:title=" ">
<polygon fill="#e0e0e0" stroke="#999999" points="889.5,-207.5 786.5,-207.5 786.5,-188.25 889.5,-188.25 889.5,-207.5"/>
<text text-anchor="middle" x="838" y="-194" font-family="Times,serif" font-size="10.00">boost/asio/spawn.hpp</text>
</a>
</g>
</g>
<!-- Node2&#45;&gt;Node11 -->
<g id="edge10_Node000002_Node000011" class="edge">
<title>Node2&#45;&gt;Node11</title>
<g id="a_edge10_Node000002_Node000011"><a xlink:title=" ">
<path fill="none" stroke="#63b8ff" d="M838,-243.33C838,-236.67 838,-227.24 838,-218.78"/>
<polygon fill="#63b8ff" stroke="#63b8ff" points="841.5,-218.86 838,-208.86 834.5,-218.86 841.5,-218.86"/>
</a>
</g>
</g>
<!-- Node12 -->
<g id="Node000012" class="node">
<title>Node12</title>
<g id="a_Node000012"><a xlink:title=" ">
<polygon fill="#e0e0e0" stroke="#999999" points="1038,-207.5 908,-207.5 908,-188.25 1038,-188.25 1038,-207.5"/>
<text text-anchor="middle" x="973" y="-194" font-family="Times,serif" font-size="10.00">boost/asio/steady_timer.hpp</text>
</a>
</g>
</g>
<!-- Node2&#45;&gt;Node12 -->
<g id="edge11_Node000002_Node000012" class="edge">
<title>Node2&#45;&gt;Node12</title>
<g id="a_edge11_Node000002_Node000012"><a xlink:title=" ">
<path fill="none" stroke="#63b8ff" d="M860.9,-243.09C882.62,-234.52 915.5,-221.56 940.04,-211.88"/>
<polygon fill="#63b8ff" stroke="#63b8ff" points="940.97,-214.88 948.99,-207.95 938.4,-208.37 940.97,-214.88"/>
</a>
</g>
</g>
<!-- Node13 -->
<g id="Node000013" class="node">
<title>Node13</title>
<g id="a_Node000013"><a xlink:title=" ">
<polygon fill="#e0e0e0" stroke="#999999" points="1174.38,-207.5 1055.62,-207.5 1055.62,-188.25 1174.38,-188.25 1174.38,-207.5"/>
<text text-anchor="middle" x="1115" y="-194" font-family="Times,serif" font-size="10.00">boost/asio/streambuf.hpp</text>
</a>
</g>
</g>
<!-- Node2&#45;&gt;Node13 -->
<g id="edge12_Node000002_Node000013" class="edge">
<title>Node2&#45;&gt;Node13</title>
<g id="a_edge12_Node000002_Node000013"><a xlink:title=" ">
<path fill="none" stroke="#63b8ff" d="M885.3,-243.03C932.91,-233.88 1006.39,-219.75 1057.37,-209.95"/>
<polygon fill="#63b8ff" stroke="#63b8ff" points="1057.73,-213.26 1066.89,-207.93 1056.41,-206.38 1057.73,-213.26"/>
</a>
</g>
</g>
<!-- Node14 -->
<g id="Node000014" class="node">
<title>Node14</title>
<g id="a_Node000014"><a xlink:title=" ">
<polygon fill="#e0e0e0" stroke="#999999" points="1291.25,-207.5 1192.75,-207.5 1192.75,-188.25 1291.25,-188.25 1291.25,-207.5"/>
<text text-anchor="middle" x="1242" y="-194" font-family="Times,serif" font-size="10.00">boost/asio/write.hpp</text>
</a>
</g>
</g>
<!-- Node2&#45;&gt;Node14 -->
<g id="edge13_Node000002_Node000014" class="edge">
<title>Node2&#45;&gt;Node14</title>
<g id="a_edge13_Node000002_Node000014"><a xlink:title=" ">
<path fill="none" stroke="#63b8ff" d="M891.23,-245.52C956.91,-237.3 1072.3,-222.67 1181.85,-207.64"/>
<polygon fill="#63b8ff" stroke="#63b8ff" points="1182,-211.01 1191.43,-206.18 1181.05,-204.08 1182,-211.01"/>
</a>
</g>
</g>
<!-- Node15 -->
<g id="Node000015" class="node">
<title>Node15</title>
<g id="a_Node000015"><a xlink:title=" ">
<polygon fill="#e0e0e0" stroke="#999999" points="1408.25,-207.5 1309.75,-207.5 1309.75,-188.25 1408.25,-188.25 1408.25,-207.5"/>
<text text-anchor="middle" x="1359" y="-194" font-family="Times,serif" font-size="10.00">boost/bind/bind.hpp</text>
</a>
</g>
</g>
<!-- Node2&#45;&gt;Node15 -->
<g id="edge14_Node000002_Node000015" class="edge">
<title>Node2&#45;&gt;Node15</title>
<g id="a_edge14_Node000002_Node000015"><a xlink:title=" ">
<path fill="none" stroke="#63b8ff" d="M891.45,-247.82C975.65,-240.84 1144.6,-226.09 1298.84,-207.58"/>
<polygon fill="#63b8ff" stroke="#63b8ff" points="1298.94,-210.97 1308.45,-206.3 1298.1,-204.02 1298.94,-210.97"/>
</a>
</g>
</g>
<!-- Node16 -->
<g id="Node000016" class="node">
<title>Node16</title>
<g id="a_Node000016"><a xlink:title=" ">
<polygon fill="#e0e0e0" stroke="#999999" points="1553.5,-207.5 1426.5,-207.5 1426.5,-188.25 1553.5,-188.25 1553.5,-207.5"/>
<text text-anchor="middle" x="1490" y="-194" font-family="Times,serif" font-size="10.00">mal_toolkit/mal_toolkit.hpp</text>
</a>
</g>
</g>
<!-- Node2&#45;&gt;Node16 -->
<g id="edge15_Node000002_Node000016" class="edge">
<title>Node2&#45;&gt;Node16</title>
<g id="a_edge15_Node000002_Node000016"><a xlink:title=" ">
<path fill="none" stroke="#63b8ff" d="M891.15,-248.75C991.4,-242.24 1215.53,-226.92 1415.6,-207.6"/>
<polygon fill="#63b8ff" stroke="#63b8ff" points="1415.7,-211 1425.32,-206.55 1415.02,-204.04 1415.7,-211"/>
</a>
</g>
</g>
<!-- Node17 -->
<g id="Node000017" class="node">
<title>Node17</title>
<g id="a_Node000017"><a xlink:href="../../d2/d3f/packet_8hpp.html" target="_top" xlink:title=" ">
<polygon fill="white" stroke="#666666" points="1632.12,-207.5 1571.88,-207.5 1571.88,-188.25 1632.12,-188.25 1632.12,-207.5"/>
<text text-anchor="middle" x="1602" y="-194" font-family="Times,serif" font-size="10.00">packet.hpp</text>
</a>
</g>
</g>
<!-- Node2&#45;&gt;Node17 -->
<g id="edge16_Node000002_Node000017" class="edge">
<title>Node2&#45;&gt;Node17</title>
<g id="a_edge16_Node000002_Node000017"><a xlink:title=" ">
<path fill="none" stroke="#63b8ff" d="M891.5,-251.68C1010.33,-250.09 1305.34,-242.75 1560.82,-207.59"/>
<polygon fill="#63b8ff" stroke="#63b8ff" points="1561,-210.96 1570.43,-206.11 1560.04,-204.02 1561,-210.96"/>
</a>
</g>
</g>
<!-- Node25 -->
<g id="Node000025" class="node">
<title>Node25</title>
<g id="a_Node000025"><a xlink:href="../../d2/d7d/packet-dispatcher_8inl.html" target="_top" xlink:title=" ">
<polygon fill="white" stroke="#666666" points="1751.38,-207.5 1650.62,-207.5 1650.62,-188.25 1751.38,-188.25 1751.38,-207.5"/>
<text text-anchor="middle" x="1701" y="-194" font-family="Times,serif" font-size="10.00">packet&#45;dispatcher.inl</text>
</a>
</g>
</g>
<!-- Node2&#45;&gt;Node25 -->
<g id="edge24_Node000002_Node000025" class="edge">
<title>Node2&#45;&gt;Node25</title>
<g id="a_edge24_Node000002_Node000025"><a xlink:title=" ">
<path fill="none" stroke="#63b8ff" d="M891.38,-250.64C1019.48,-246.86 1353.77,-235.18 1632,-207.5 1634.38,-207.26 1636.82,-207 1639.28,-206.72"/>
<polygon fill="#63b8ff" stroke="#63b8ff" points="1639.69,-210.07 1649.19,-205.37 1638.84,-203.12 1639.69,-210.07"/>
</a>
</g>
</g>
<!-- Node18 -->
<g id="Node000018" class="node">
<title>Node18</title>
<g id="a_Node000018"><a xlink:href="../../d3/d53/packet-factory_8hpp.html" target="_top" xlink:title=" ">
<polygon fill="white" stroke="#666666" points="1649.38,-152.25 1554.62,-152.25 1554.62,-121.75 1649.38,-121.75 1649.38,-152.25"/>
<text text-anchor="start" x="1562.62" y="-138.75" font-family="Times,serif" font-size="10.00">packet_impl/packet</text>
<text text-anchor="middle" x="1602" y="-127.5" font-family="Times,serif" font-size="10.00">&#45;factory.hpp</text>
</a>
</g>
</g>
<!-- Node17&#45;&gt;Node18 -->
<g id="edge17_Node000017_Node000018" class="edge">
<title>Node17&#45;&gt;Node18</title>
<g id="a_edge17_Node000017_Node000018"><a xlink:title=" ">
<path fill="none" stroke="#63b8ff" d="M1602,-187.93C1602,-181.4 1602,-172.2 1602,-163.47"/>
<polygon fill="#63b8ff" stroke="#63b8ff" points="1605.5,-163.53 1602,-153.53 1598.5,-163.53 1605.5,-163.53"/>
</a>
</g>
</g>
<!-- Node19 -->
<g id="Node000019" class="node">
<title>Node19</title>
<g id="a_Node000019"><a xlink:href="../../d9/d85/packet__impl_2packet_8hpp.html" target="_top" xlink:title=" ">
<polygon fill="white" stroke="#666666" points="1632.12,-85.75 1571.88,-85.75 1571.88,-66.5 1632.12,-66.5 1632.12,-85.75"/>
<text text-anchor="middle" x="1602" y="-72.25" font-family="Times,serif" font-size="10.00">packet.hpp</text>
</a>
</g>
</g>
<!-- Node18&#45;&gt;Node19 -->
<g id="edge18_Node000018_Node000019" class="edge">
<title>Node18&#45;&gt;Node19</title>
<g id="a_edge18_Node000018_Node000019"><a xlink:title=" ">
<path fill="none" stroke="#63b8ff" d="M1602,-121.45C1602,-114.12 1602,-105.12 1602,-97.16"/>
<polygon fill="#63b8ff" stroke="#63b8ff" points="1605.5,-97.2 1602,-87.2 1598.5,-97.2 1605.5,-97.2"/>
</a>
</g>
</g>
<!-- Node20 -->
<g id="Node000020" class="node">
<title>Node20</title>
<g id="a_Node000020"><a xlink:title=" ">
<polygon fill="#e0e0e0" stroke="#999999" points="1417.25,-24.88 1294.75,-24.88 1294.75,-5.63 1417.25,-5.63 1417.25,-24.88"/>
<text text-anchor="middle" x="1356" y="-11.38" font-family="Times,serif" font-size="10.00">mal&#45;toolkit/mal&#45;toolkit.hpp</text>
</a>
</g>
</g>
<!-- Node19&#45;&gt;Node20 -->
<g id="edge19_Node000019_Node000020" class="edge">
<title>Node19&#45;&gt;Node20</title>
<g id="a_edge19_Node000019_Node000020"><a xlink:title=" ">
<path fill="none" stroke="#63b8ff" d="M1571.84,-67.91C1530.12,-57.92 1454.34,-39.79 1404.59,-27.88"/>
<polygon fill="#63b8ff" stroke="#63b8ff" points="1405.62,-24.29 1395.08,-25.36 1403.99,-31.1 1405.62,-24.29"/>
</a>
</g>
</g>
<!-- Node21 -->
<g id="Node000021" class="node">
<title>Node21</title>
<g id="a_Node000021"><a xlink:title=" ">
<polygon fill="#e0e0e0" stroke="#999999" points="1534.25,-30.5 1435.75,-30.5 1435.75,0 1534.25,0 1534.25,-30.5"/>
<text text-anchor="start" x="1443.75" y="-17" font-family="Times,serif" font-size="10.00">boost/archive/binary</text>
<text text-anchor="middle" x="1485" y="-5.75" font-family="Times,serif" font-size="10.00">_iarchive.hpp</text>
</a>
</g>
</g>
<!-- Node19&#45;&gt;Node21 -->
<g id="edge20_Node000019_Node000021" class="edge">
<title>Node19&#45;&gt;Node21</title>
<g id="a_edge20_Node000019_Node000021"><a xlink:title=" ">
<path fill="none" stroke="#63b8ff" d="M1583.98,-66.05C1568,-58.02 1544.13,-46 1523.83,-35.79"/>
<polygon fill="#63b8ff" stroke="#63b8ff" points="1525.71,-32.31 1515.2,-30.94 1522.56,-38.57 1525.71,-32.31"/>
</a>
</g>
</g>
<!-- Node22 -->
<g id="Node000022" class="node">
<title>Node22</title>
<g id="a_Node000022"><a xlink:title=" ">
<polygon fill="#e0e0e0" stroke="#999999" points="1651.25,-30.5 1552.75,-30.5 1552.75,0 1651.25,0 1651.25,-30.5"/>
<text text-anchor="start" x="1560.75" y="-17" font-family="Times,serif" font-size="10.00">boost/archive/binary</text>
<text text-anchor="middle" x="1602" y="-5.75" font-family="Times,serif" font-size="10.00">_oarchive.hpp</text>
</a>
</g>
</g>
<!-- Node19&#45;&gt;Node22 -->
<g id="edge21_Node000019_Node000022" class="edge">
<title>Node19&#45;&gt;Node22</title>
<g id="a_edge21_Node000019_Node000022"><a xlink:title=" ">
<path fill="none" stroke="#63b8ff" d="M1602,-66.18C1602,-59.65 1602,-50.45 1602,-41.72"/>
<polygon fill="#63b8ff" stroke="#63b8ff" points="1605.5,-41.78 1602,-31.78 1598.5,-41.78 1605.5,-41.78"/>
</a>
</g>
</g>
<!-- Node23 -->
<g id="Node000023" class="node">
<title>Node23</title>
<g id="a_Node000023"><a xlink:title=" ">
<polygon fill="#e0e0e0" stroke="#999999" points="1758.75,-30.5 1669.25,-30.5 1669.25,0 1758.75,0 1758.75,-30.5"/>
<text text-anchor="start" x="1677.25" y="-17" font-family="Times,serif" font-size="10.00">boost/serialization</text>
<text text-anchor="middle" x="1714" y="-5.75" font-family="Times,serif" font-size="10.00">/base_object.hpp</text>
</a>
</g>
</g>
<!-- Node19&#45;&gt;Node23 -->
<g id="edge22_Node000019_Node000023" class="edge">
<title>Node19&#45;&gt;Node23</title>
<g id="a_edge22_Node000019_Node000023"><a xlink:title=" ">
<path fill="none" stroke="#63b8ff" d="M1619.01,-66.18C1634.3,-58.15 1657.28,-46.07 1676.81,-35.8"/>
<polygon fill="#63b8ff" stroke="#63b8ff" points="1678.13,-38.53 1685.36,-30.78 1674.87,-32.34 1678.13,-38.53"/>
</a>
</g>
</g>
<!-- Node24 -->
<g id="Node000024" class="node">
<title>Node24</title>
<g id="a_Node000024"><a xlink:title=" ">
<polygon fill="#e0e0e0" stroke="#999999" points="1866.75,-30.5 1777.25,-30.5 1777.25,0 1866.75,0 1866.75,-30.5"/>
<text text-anchor="start" x="1785.25" y="-17" font-family="Times,serif" font-size="10.00">boost/serialization</text>
<text text-anchor="middle" x="1822" y="-5.75" font-family="Times,serif" font-size="10.00">/serialization.hpp</text>
</a>
</g>
</g>
<!-- Node19&#45;&gt;Node24 -->
<g id="edge23_Node000019_Node000024" class="edge">
<title>Node19&#45;&gt;Node24</title>
<g id="a_edge23_Node000019_Node000024"><a xlink:title=" ">
<path fill="none" stroke="#63b8ff" d="M1632.59,-66.94C1667.09,-57.71 1723.92,-42.5 1766.34,-31.15"/>
<polygon fill="#63b8ff" stroke="#63b8ff" points="1767.04,-34.31 1775.79,-28.35 1765.23,-27.55 1767.04,-34.31"/>
</a>
</g>
</g>
<!-- Node25&#45;&gt;Node2 -->
<g id="edge25_Node000025_Node000002" class="edge">
<title>Node25&#45;&gt;Node2</title>
<g id="a_edge25_Node000025_Node000002"><a xlink:title=" ">
<path fill="none" stroke="#63b8ff" d="M1650.31,-207.47C1650.21,-207.48 1650.1,-207.49 1650,-207.5 1372.68,-235.08 1039.67,-246.78 902.12,-250.6"/>
<polygon fill="#63b8ff" stroke="#63b8ff" points="902.28,-247.12 892.38,-250.89 902.47,-254.12 902.28,-247.12"/>
</a>
</g>
</g>
</g>
</svg>

<g id="navigator" transform="translate(0 0)" fill="#404254">
  <rect fill="#f2f5e9" fill-opacity="0.5" stroke="#606060" stroke-width=".5" x="0" y="0" width="60" height="60"/>
  <use id="zoomplus" xlink:href="#zoomPlus" x="17" y="9" onmousedown="handleZoom(evt,'in')"/>
  <use id="zoomminus" xlink:href="#zoomMin" x="42" y="9" onmousedown="handleZoom(evt,'out')"/>
  <use id="reset" xlink:href="#resetDef" x="30" y="36" onmousedown="handleReset()"/>
   <use id="arrowup" xlink:href="#arrowUp" x="0" y="0" onmousedown="handlePan(0,-1)"/>
  <use id="arrowright" xlink:href="#arrowRight" x="0" y="0" onmousedown="handlePan(1,0)"/>
  <use id="arrowdown" xlink:href="#arrowDown" x="0" y="0" onmousedown="handlePan(0,1)"/>
  <use id="arrowleft" xlink:href="#arrowLeft" x="0" y="0" onmousedown="handlePan(-1,0)"/>
</g>
<svg viewBox="0 0 15 15" width="100%" height="30px" preserveAspectRatio="xMaxYMin meet">
 <g id="arrow_out" transform="scale(0.3 0.3)">
  <a xlink:href="packet-dispatcher_8cpp__incl_org.svg" target="_base">
   <rect id="button" ry="5" rx="5" y="6" x="6" height="38" width="38"
        fill="#f2f5e9" fill-opacity="0.5" stroke="#606060" stroke-width="1.0"/>
   <path id="arrow"
     d="M 11.500037,31.436501 C 11.940474,20.09759 22.043105,11.32322 32.158766,21.979434 L 37.068811,17.246167 C 37.068811,17.246167 37.088388,32 37.088388,32 L 22.160133,31.978069 C 22.160133,31.978069 26.997745,27.140456 26.997745,27.140456 C 18.528582,18.264221 13.291696,25.230495 11.500037,31.436501 z"
     style="fill:#404040;"/>
  </a>
 </g>
</svg>

<style type='text/css'>
<![CDATA[
[data-mouse-over-selected='false'] { opacity: 0.7; }
[data-mouse-over-selected='true']  { opacity: 1.0; }
]]>
</style>
<script type="application/ecmascript"><![CDATA[
document.addEventListener('DOMContentLoaded', (event) => {
  highlightEdges();
  highlightAdjacentNodes();
});
]]></script>
</svg>
