<?xml version="1.0" encoding="UTF-8" standalone="no"?>
<!DOCTYPE svg PUBLIC "-//W3C//DTD SVG 1.1//EN"
 "http://www.w3.org/Graphics/SVG/1.1/DTD/svg11.dtd">
<!-- Generated by graphviz version 8.1.0 (20230707.0739)
 -->
<!-- Title: mal_packet_weaver::ByteView Pages: 1 -->
<svg width="107pt" height="160pt"
 viewBox="0.00 0.00 107.25 160.25" xmlns="http://www.w3.org/2000/svg" xmlns:xlink="http://www.w3.org/1999/xlink">
<g id="graph0" class="graph" transform="scale(1 1) rotate(0) translate(4 156.25)">
<title>mal_packet_weaver::ByteView</title>
<!-- Node1 -->
<g id="Node000001" class="node">
<title>Node1</title>
<g id="a_Node000001"><a xlink:title="A lightweight view over a sequence of bytes.">
<polygon fill="#999999" stroke="#666666" points="99.25,-97 0,-97 0,-66.5 99.25,-66.5 99.25,-97"/>
<text text-anchor="start" x="8" y="-83.5" font-family="Times,serif" font-size="10.00">mal_packet_weaver::</text>
<text text-anchor="middle" x="49.62" y="-72.25" font-family="Times,serif" font-size="10.00">ByteView</text>
</a>
</g>
</g>
<!-- Node3 -->
<g id="Node000003" class="node">
<title>Node3</title>
<g id="a_Node000003"><a xlink:href="../../d2/d3b/classmal__packet__weaver_1_1crypto_1_1_key_view.html" target="_top" xlink:title="Represents a view of a cryptographic key as a byte view.">
<polygon fill="white" stroke="#666666" points="99.25,-30.5 0,-30.5 0,0 99.25,0 99.25,-30.5"/>
<text text-anchor="start" x="8" y="-17" font-family="Times,serif" font-size="10.00">mal_packet_weaver::</text>
<text text-anchor="middle" x="49.62" y="-5.75" font-family="Times,serif" font-size="10.00">crypto::KeyView</text>
</a>
</g>
</g>
<!-- Node1&#45;&gt;Node3 -->
<g id="edge2_Node000001_Node000003" class="edge">
<title>Node1&#45;&gt;Node3</title>
<g id="a_edge2_Node000001_Node000003"><a xlink:title=" ">
<path fill="none" stroke="#63b8ff" d="M49.62,-55.38C49.62,-47.05 49.62,-38.08 49.62,-30.83"/>
<polygon fill="#63b8ff" stroke="#63b8ff" points="46.13,-55.11 49.62,-65.11 53.13,-55.11 46.13,-55.11"/>
</a>
</g>
</g>
<!-- Node2 -->
<g id="Node000002" class="node">
<title>Node2</title>
<g id="a_Node000002"><a xlink:title=" ">
<polygon fill="white" stroke="#666666" points="86.5,-152.25 12.75,-152.25 12.75,-133 86.5,-133 86.5,-152.25"/>
<text text-anchor="middle" x="49.62" y="-138.75" font-family="Times,serif" font-size="10.00">std::span&lt; T &gt;</text>
</a>
</g>
</g>
<!-- Node2&#45;&gt;Node1 -->
<g id="edge1_Node000001_Node000002" class="edge">
<title>Node2&#45;&gt;Node1</title>
<g id="a_edge1_Node000001_Node000002"><a xlink:title=" ">
<path fill="none" stroke="#63b8ff" d="M49.62,-121.7C49.62,-113.7 49.62,-104.65 49.62,-97.28"/>
<polygon fill="#63b8ff" stroke="#63b8ff" points="46.13,-121.68 49.62,-131.68 53.13,-121.68 46.13,-121.68"/>
</a>
</g>
</g>
</g>
</svg>
