<?xml version="1.0" encoding="UTF-8" standalone="no"?>
<!DOCTYPE svg PUBLIC "-//W3C//DTD SVG 1.1//EN"
 "http://www.w3.org/Graphics/SVG/1.1/DTD/svg11.dtd">
<!-- Generated by graphviz version 7.0.5 (20221223.1930)
 -->
<!-- Title: weaver::DHKeyExchangeRequestPacket Pages: 1 -->
<svg width="169pt" height="225pt"
 viewBox="0.00 0.00 169.00 225.00" xmlns="http://www.w3.org/2000/svg" xmlns:xlink="http://www.w3.org/1999/xlink">
<g id="graph0" class="graph" transform="scale(1 1) rotate(0) translate(4 221)">
<title>weaver::DHKeyExchangeRequestPacket</title>
<!-- Node1 -->
<g id="node1" class="node">
<title>Node1</title>
<g id="a_node1"><a xlink:title="Packet for Diffie&#45;Hellman key exchange request.">
<polygon fill="#999999" stroke="#666666" points="161,-30 0,-30 0,0 161,0 161,-30"/>
<text text-anchor="start" x="8" y="-18" font-family="Helvetica,sans-Serif" font-size="10.00">weaver::DHKeyExchangeRequest</text>
<text text-anchor="middle" x="80.5" y="-7" font-family="Helvetica,sans-Serif" font-size="10.00">Packet</text>
</a>
</g>
</g>
<!-- Node2 -->
<g id="node2" class="node">
<title>Node2</title>
<g id="a_node2"><a xlink:href="../../d4/d4c/classweaver_1_1_derived_packet.html" target="_top" xlink:title=" ">
<polygon fill="white" stroke="#666666" points="160,-107 1,-107 1,-66 160,-66 160,-107"/>
<text text-anchor="start" x="9" y="-95" font-family="Helvetica,sans-Serif" font-size="10.00">weaver::DerivedPacket</text>
<text text-anchor="start" x="9" y="-84" font-family="Helvetica,sans-Serif" font-size="10.00">&lt; class DHKeyExchangeRequest</text>
<text text-anchor="middle" x="80.5" y="-73" font-family="Helvetica,sans-Serif" font-size="10.00">Packet &gt;</text>
</a>
</g>
</g>
<!-- Node2&#45;&gt;Node1 -->
<g id="edge1" class="edge">
<title>Node2&#45;&gt;Node1</title>
<path fill="none" stroke="#63b8ff" d="M80.5,-54.38C80.5,-46.04 80.5,-37.43 80.5,-30.47"/>
<polygon fill="#63b8ff" stroke="#63b8ff" points="77,-54.26 80.5,-64.26 84,-54.26 77,-54.26"/>
</g>
<!-- Node3 -->
<g id="node3" class="node">
<title>Node3</title>
<g id="a_node3"><a xlink:href="../../d8/d0f/classweaver_1_1_packet.html" target="_top" xlink:title="Base class for all packets.">
<polygon fill="white" stroke="#666666" points="122,-162 39,-162 39,-143 122,-143 122,-162"/>
<text text-anchor="middle" x="80.5" y="-150" font-family="Helvetica,sans-Serif" font-size="10.00">weaver::Packet</text>
</a>
</g>
</g>
<!-- Node3&#45;&gt;Node2 -->
<g id="edge2" class="edge">
<title>Node3&#45;&gt;Node2</title>
<path fill="none" stroke="#63b8ff" d="M80.5,-131.14C80.5,-123.54 80.5,-114.93 80.5,-107.38"/>
<polygon fill="#63b8ff" stroke="#63b8ff" points="77,-131.09 80.5,-141.09 84,-131.09 77,-131.09"/>
</g>
<!-- Node4 -->
<g id="node4" class="node">
<title>Node4</title>
<g id="a_node4"><a xlink:title=" ">
<polygon fill="white" stroke="#666666" points="129.5,-217 31.5,-217 31.5,-198 129.5,-198 129.5,-217"/>
<text text-anchor="middle" x="80.5" y="-205" font-family="Helvetica,sans-Serif" font-size="10.00">utils::non_copyable</text>
</a>
</g>
</g>
<!-- Node4&#45;&gt;Node3 -->
<g id="edge3" class="edge">
<title>Node4&#45;&gt;Node3</title>
<path fill="none" stroke="#63b8ff" d="M80.5,-186.35C80.5,-178.1 80.5,-168.97 80.5,-162.44"/>
<polygon fill="#63b8ff" stroke="#63b8ff" points="77,-186.23 80.5,-196.23 84,-186.23 77,-186.23"/>
</g>
</g>
</svg>
