<?xml version="1.0" encoding="UTF-8" standalone="no"?>
<!DOCTYPE svg PUBLIC "-//W3C//DTD SVG 1.1//EN"
 "http://www.w3.org/Graphics/SVG/1.1/DTD/svg11.dtd">
<!-- Generated by graphviz version 7.0.5 (20221223.1930)
 -->
<!-- Title: node_system::packet::crypto::DHKeyExchangeResponsePacket Pages: 1 -->
<svg width="791pt" height="81pt"
 viewBox="0.00 0.00 791.00 80.50" xmlns="http://www.w3.org/2000/svg" xmlns:xlink="http://www.w3.org/1999/xlink">
<g id="graph0" class="graph" transform="scale(1 1) rotate(0) translate(4 76.5)">
<title>node_system::packet::crypto::DHKeyExchangeResponsePacket</title>
<!-- Node1 -->
<g id="node1" class="node">
<title>Node1</title>
<g id="a_node1"><a xlink:title="Packet for Diffie&#45;Hellman key exchange response.">
<polygon fill="#999999" stroke="#666666" points="783,-54 615,-54 615,-13 783,-13 783,-54"/>
<text text-anchor="start" x="623" y="-42" font-family="Helvetica,sans-Serif" font-size="10.00">node_system::packet</text>
<text text-anchor="start" x="623" y="-31" font-family="Helvetica,sans-Serif" font-size="10.00">::crypto::DHKeyExchangeResponse</text>
<text text-anchor="middle" x="699" y="-20" font-family="Helvetica,sans-Serif" font-size="10.00">Packet</text>
</a>
</g>
</g>
<!-- Node2 -->
<g id="node2" class="node">
<title>Node2</title>
<g id="a_node2"><a xlink:href="../../d6/d1d/classnode__system_1_1_derived_packet.html" target="_top" xlink:title=" ">
<polygon fill="white" stroke="#666666" points="530,-72.5 324,-72.5 324,-42.5 530,-42.5 530,-72.5"/>
<text text-anchor="start" x="332" y="-60.5" font-family="Helvetica,sans-Serif" font-size="10.00">node_system::DerivedPacket</text>
<text text-anchor="middle" x="427" y="-49.5" font-family="Helvetica,sans-Serif" font-size="10.00">&lt; class DHKeyExchangeResponsePacket &gt;</text>
</a>
</g>
</g>
<!-- Node2&#45;&gt;Node1 -->
<g id="edge1" class="edge">
<title>Node2&#45;&gt;Node1</title>
<path fill="none" stroke="#63b8ff" d="M541.78,-48.33C560.24,-46.76 579.15,-45.12 597,-43.5 602.7,-42.98 608.59,-42.43 614.51,-41.87"/>
<polygon fill="#63b8ff" stroke="#63b8ff" points="541.53,-44.83 531.86,-49.16 542.12,-51.81 541.53,-44.83"/>
</g>
<!-- Node3 -->
<g id="node3" class="node">
<title>Node3</title>
<g id="a_node3"><a xlink:href="../../da/d22/classnode__system_1_1_packet.html" target="_top" xlink:title="Base class for all packets.">
<polygon fill="white" stroke="#666666" points="287,-67 177,-67 177,-48 287,-48 287,-67"/>
<text text-anchor="middle" x="232" y="-55" font-family="Helvetica,sans-Serif" font-size="10.00">node_system::Packet</text>
</a>
</g>
</g>
<!-- Node3&#45;&gt;Node2 -->
<g id="edge2" class="edge">
<title>Node3&#45;&gt;Node2</title>
<path fill="none" stroke="#63b8ff" d="M298.59,-57.5C306.77,-57.5 315.27,-57.5 323.84,-57.5"/>
<polygon fill="#63b8ff" stroke="#63b8ff" points="298.79,-54 288.79,-57.5 298.79,-61 298.79,-54"/>
</g>
<!-- Node4 -->
<g id="node4" class="node">
<title>Node4</title>
<g id="a_node4"><a xlink:title=" ">
<polygon fill="white" stroke="#666666" points="98,-67 0,-67 0,-48 98,-48 98,-67"/>
<text text-anchor="middle" x="49" y="-55" font-family="Helvetica,sans-Serif" font-size="10.00">utils::non_copyable</text>
</a>
</g>
</g>
<!-- Node4&#45;&gt;Node3 -->
<g id="edge3" class="edge">
<title>Node4&#45;&gt;Node3</title>
<path fill="none" stroke="#63b8ff" d="M109.42,-57.5C131.09,-57.5 155.46,-57.5 176.67,-57.5"/>
<polygon fill="#63b8ff" stroke="#63b8ff" points="109.54,-54 99.54,-57.5 109.54,-61 109.54,-54"/>
</g>
<!-- Node5 -->
<g id="node5" class="node">
<title>Node5</title>
<g id="a_node5"><a xlink:href="../../d0/d71/structnode__system_1_1_byte_array.html" target="_top" xlink:title="A dynamically resizable array of bytes.">
<polygon fill="white" stroke="#666666" points="487.5,-19 366.5,-19 366.5,0 487.5,0 487.5,-19"/>
<text text-anchor="middle" x="427" y="-7" font-family="Helvetica,sans-Serif" font-size="10.00">node_system::ByteArray</text>
</a>
</g>
</g>
<!-- Node5&#45;&gt;Node1 -->
<g id="edge4" class="edge">
<title>Node5&#45;&gt;Node1</title>
<path fill="none" stroke="#9a32cd" stroke-dasharray="5,2" d="M499.02,-3.58C529.32,-2.26 565.01,-2.3 597,-6.5 607.53,-7.88 618.52,-10.04 629.21,-12.55"/>
<polygon fill="#9a32cd" stroke="#9a32cd" points="499.01,-0.08 489.2,-4.07 499.36,-7.07 499.01,-0.08"/>
<text text-anchor="middle" x="572.5" y="-31.5" font-family="Helvetica,sans-Serif" font-size="10.00"> public_key</text>
<text text-anchor="middle" x="572.5" y="-20.5" font-family="Helvetica,sans-Serif" font-size="10.00">salt</text>
<text text-anchor="middle" x="572.5" y="-9.5" font-family="Helvetica,sans-Serif" font-size="10.00">signature</text>
</g>
<!-- Node6 -->
<g id="node6" class="node">
<title>Node6</title>
<g id="a_node6"><a xlink:title=" ">
<polygon fill="white" stroke="#666666" points="274,-19 190,-19 190,0 274,0 274,-19"/>
<text text-anchor="middle" x="232" y="-7" font-family="Helvetica,sans-Serif" font-size="10.00">std::vector&lt; T &gt;</text>
</a>
</g>
</g>
<!-- Node6&#45;&gt;Node5 -->
<g id="edge5" class="edge">
<title>Node6&#45;&gt;Node5</title>
<path fill="none" stroke="#63b8ff" d="M285.84,-9.5C310.77,-9.5 340.62,-9.5 366.35,-9.5"/>
<polygon fill="#63b8ff" stroke="#63b8ff" points="285.92,-6 275.92,-9.5 285.92,-13 285.92,-6"/>
</g>
<!-- Node7 -->
<g id="node7" class="node">
<title>Node7</title>
<g id="a_node7"><a xlink:title=" ">
<polygon fill="white" stroke="#666666" points="63.5,-19 34.5,-19 34.5,0 63.5,0 63.5,-19"/>
<text text-anchor="middle" x="49" y="-7" font-family="Helvetica,sans-Serif" font-size="10.00">T</text>
</a>
</g>
</g>
<!-- Node7&#45;&gt;Node6 -->
<g id="edge6" class="edge">
<title>Node7&#45;&gt;Node6</title>
<path fill="none" stroke="#9a32cd" stroke-dasharray="5,2" d="M75.28,-9.5C104.92,-9.5 154.44,-9.5 189.68,-9.5"/>
<polygon fill="#9a32cd" stroke="#9a32cd" points="75.42,-6 65.42,-9.5 75.42,-13 75.42,-6"/>
<text text-anchor="middle" x="137.5" y="-12.5" font-family="Helvetica,sans-Serif" font-size="10.00"> elements</text>
</g>
</g>
</svg>
