<?xml version="1.0" encoding="UTF-8" standalone="no"?>
<!DOCTYPE svg PUBLIC "-//W3C//DTD SVG 1.1//EN"
 "http://www.w3.org/Graphics/SVG/1.1/DTD/svg11.dtd">
<!-- Generated by graphviz version 7.0.5 (20221223.1930)
 -->
<!-- Title: mal&#45;packet&#45;weaver/mal&#45;packet&#45;weaver/crypto/common.hpp Pages: 1 -->
<svg width="1283pt" height="170pt"
 viewBox="0.00 0.00 1282.50 170.00" xmlns="http://www.w3.org/2000/svg" xmlns:xlink="http://www.w3.org/1999/xlink">
<g id="graph0" class="graph" transform="scale(1 1) rotate(0) translate(4 166)">
<title>mal&#45;packet&#45;weaver/mal&#45;packet&#45;weaver/crypto/common.hpp</title>
<!-- Node1 -->
<g id="node1" class="node">
<title>Node1</title>
<g id="a_node1"><a xlink:title=" ">
<polygon fill="#999999" stroke="#666666" points="947,-162 829,-162 829,-121 947,-121 947,-162"/>
<text text-anchor="start" x="837" y="-150" font-family="Helvetica,sans-Serif" font-size="10.00">mal&#45;packet&#45;weaver/mal</text>
<text text-anchor="start" x="837" y="-139" font-family="Helvetica,sans-Serif" font-size="10.00">&#45;packet&#45;weaver/crypto</text>
<text text-anchor="middle" x="888" y="-128" font-family="Helvetica,sans-Serif" font-size="10.00">/common.hpp</text>
</a>
</g>
</g>
<!-- Node2 -->
<g id="node2" class="node">
<title>Node2</title>
<g id="a_node2"><a xlink:href="../../dd/d3a/common_8hpp.html" target="_top" xlink:title=" ">
<polygon fill="white" stroke="#666666" points="558,-85 478,-85 478,-66 558,-66 558,-85"/>
<text text-anchor="middle" x="518" y="-73" font-family="Helvetica,sans-Serif" font-size="10.00">../common.hpp</text>
</a>
</g>
</g>
<!-- Node1&#45;&gt;Node2 -->
<g id="edge1" class="edge">
<title>Node1&#45;&gt;Node2</title>
<path fill="none" stroke="#63b8ff" d="M828.54,-130.23C766.49,-119.51 666.05,-102.15 569.52,-85.44"/>
<polygon fill="#63b8ff" stroke="#63b8ff" points="570.32,-82.02 559.87,-83.76 569.12,-88.92 570.32,-82.02"/>
</g>
<!-- Node12 -->
<g id="node12" class="node">
<title>Node12</title>
<g id="a_node12"><a xlink:title=" ">
<polygon fill="#e0e0e0" stroke="#999999" points="690,-85 576,-85 576,-66 690,-66 690,-85"/>
<text text-anchor="middle" x="633" y="-73" font-family="Helvetica,sans-Serif" font-size="10.00">openssl/core_names.h</text>
</a>
</g>
</g>
<!-- Node1&#45;&gt;Node12 -->
<g id="edge11" class="edge">
<title>Node1&#45;&gt;Node12</title>
<path fill="none" stroke="#63b8ff" d="M828.54,-125.58C783.11,-114.17 721.38,-98.68 679.52,-88.17"/>
<polygon fill="#63b8ff" stroke="#63b8ff" points="680.55,-84.83 670,-85.79 678.85,-91.62 680.55,-84.83"/>
</g>
<!-- Node13 -->
<g id="node13" class="node">
<title>Node13</title>
<g id="a_node13"><a xlink:title=" ">
<polygon fill="#e0e0e0" stroke="#999999" points="779.5,-85 708.5,-85 708.5,-66 779.5,-66 779.5,-85"/>
<text text-anchor="middle" x="744" y="-73" font-family="Helvetica,sans-Serif" font-size="10.00">openssl/dh.h</text>
</a>
</g>
</g>
<!-- Node1&#45;&gt;Node13 -->
<g id="edge12" class="edge">
<title>Node1&#45;&gt;Node13</title>
<path fill="none" stroke="#63b8ff" d="M843.23,-120.6C820.8,-110.63 794.23,-98.82 774.23,-89.94"/>
<polygon fill="#63b8ff" stroke="#63b8ff" points="775.81,-86.81 765.25,-85.95 772.97,-93.21 775.81,-86.81"/>
</g>
<!-- Node14 -->
<g id="node14" class="node">
<title>Node14</title>
<g id="a_node14"><a xlink:title=" ">
<polygon fill="#e0e0e0" stroke="#999999" points="880,-85 798,-85 798,-66 880,-66 880,-85"/>
<text text-anchor="middle" x="839" y="-73" font-family="Helvetica,sans-Serif" font-size="10.00">openssl/ecdh.h</text>
</a>
</g>
</g>
<!-- Node1&#45;&gt;Node14 -->
<g id="edge13" class="edge">
<title>Node1&#45;&gt;Node14</title>
<path fill="none" stroke="#63b8ff" d="M872.76,-120.6C866.29,-112.15 858.81,-102.38 852.54,-94.18"/>
<polygon fill="#63b8ff" stroke="#63b8ff" points="855.41,-92.18 846.55,-86.36 849.85,-96.43 855.41,-92.18"/>
</g>
<!-- Node15 -->
<g id="node15" class="node">
<title>Node15</title>
<g id="a_node15"><a xlink:title=" ">
<polygon fill="#e0e0e0" stroke="#999999" points="975.5,-85 898.5,-85 898.5,-66 975.5,-66 975.5,-85"/>
<text text-anchor="middle" x="937" y="-73" font-family="Helvetica,sans-Serif" font-size="10.00">openssl/evp.h</text>
</a>
</g>
</g>
<!-- Node1&#45;&gt;Node15 -->
<g id="edge14" class="edge">
<title>Node1&#45;&gt;Node15</title>
<path fill="none" stroke="#63b8ff" d="M903.24,-120.6C909.71,-112.15 917.19,-102.38 923.46,-94.18"/>
<polygon fill="#63b8ff" stroke="#63b8ff" points="926.15,-96.43 929.45,-86.36 920.59,-92.18 926.15,-96.43"/>
</g>
<!-- Node16 -->
<g id="node16" class="node">
<title>Node16</title>
<g id="a_node16"><a xlink:title=" ">
<polygon fill="#e0e0e0" stroke="#999999" points="1068,-85 994,-85 994,-66 1068,-66 1068,-85"/>
<text text-anchor="middle" x="1031" y="-73" font-family="Helvetica,sans-Serif" font-size="10.00">openssl/kdf.h</text>
</a>
</g>
</g>
<!-- Node1&#45;&gt;Node16 -->
<g id="edge15" class="edge">
<title>Node1&#45;&gt;Node16</title>
<path fill="none" stroke="#63b8ff" d="M932.46,-120.6C954.74,-110.63 981.12,-98.82 1000.98,-89.94"/>
<polygon fill="#63b8ff" stroke="#63b8ff" points="1002.19,-93.23 1009.89,-85.95 999.33,-86.84 1002.19,-93.23"/>
</g>
<!-- Node17 -->
<g id="node17" class="node">
<title>Node17</title>
<g id="a_node17"><a xlink:title=" ">
<polygon fill="#e0e0e0" stroke="#999999" points="1179.5,-85 1086.5,-85 1086.5,-66 1179.5,-66 1179.5,-85"/>
<text text-anchor="middle" x="1133" y="-73" font-family="Helvetica,sans-Serif" font-size="10.00">openssl/params.h</text>
</a>
</g>
</g>
<!-- Node1&#45;&gt;Node17 -->
<g id="edge16" class="edge">
<title>Node1&#45;&gt;Node17</title>
<path fill="none" stroke="#63b8ff" d="M947.31,-125.01C990.58,-113.7 1048.34,-98.62 1087.88,-88.29"/>
<polygon fill="#63b8ff" stroke="#63b8ff" points="1088.52,-91.74 1097.31,-85.82 1086.75,-84.96 1088.52,-91.74"/>
</g>
<!-- Node18 -->
<g id="node18" class="node">
<title>Node18</title>
<g id="a_node18"><a xlink:title=" ">
<polygon fill="#e0e0e0" stroke="#999999" points="1274.5,-85 1197.5,-85 1197.5,-66 1274.5,-66 1274.5,-85"/>
<text text-anchor="middle" x="1236" y="-73" font-family="Helvetica,sans-Serif" font-size="10.00">openssl/sha.h</text>
</a>
</g>
</g>
<!-- Node1&#45;&gt;Node18 -->
<g id="edge17" class="edge">
<title>Node1&#45;&gt;Node18</title>
<path fill="none" stroke="#63b8ff" d="M947.43,-129.57C1014.68,-117.2 1123.04,-97.27 1186.09,-85.68"/>
<polygon fill="#63b8ff" stroke="#63b8ff" points="1186.62,-89.14 1195.82,-83.89 1185.36,-82.26 1186.62,-89.14"/>
</g>
<!-- Node3 -->
<g id="node3" class="node">
<title>Node3</title>
<g id="a_node3"><a xlink:title=" ">
<polygon fill="#e0e0e0" stroke="#999999" points="104,-30 0,-30 0,0 104,0 104,-30"/>
<text text-anchor="start" x="8" y="-18" font-family="Helvetica,sans-Serif" font-size="10.00">boost/archive/binary</text>
<text text-anchor="middle" x="52" y="-7" font-family="Helvetica,sans-Serif" font-size="10.00">_iarchive.hpp</text>
</a>
</g>
</g>
<!-- Node2&#45;&gt;Node3 -->
<g id="edge2" class="edge">
<title>Node2&#45;&gt;Node3</title>
<path fill="none" stroke="#63b8ff" d="M477.55,-71.62C406.35,-66.21 253.84,-53.12 115.69,-30.33"/>
<polygon fill="#63b8ff" stroke="#63b8ff" points="116.43,-26.9 105.99,-28.71 115.27,-33.81 116.43,-26.9"/>
</g>
<!-- Node4 -->
<g id="node4" class="node">
<title>Node4</title>
<g id="a_node4"><a xlink:title=" ">
<polygon fill="#e0e0e0" stroke="#999999" points="226,-30 122,-30 122,0 226,0 226,-30"/>
<text text-anchor="start" x="130" y="-18" font-family="Helvetica,sans-Serif" font-size="10.00">boost/archive/binary</text>
<text text-anchor="middle" x="174" y="-7" font-family="Helvetica,sans-Serif" font-size="10.00">_oarchive.hpp</text>
</a>
</g>
</g>
<!-- Node2&#45;&gt;Node4 -->
<g id="edge3" class="edge">
<title>Node2&#45;&gt;Node4</title>
<path fill="none" stroke="#63b8ff" d="M477.54,-69.04C424.63,-61.71 328.81,-47.75 237.32,-30.37"/>
<polygon fill="#63b8ff" stroke="#63b8ff" points="238.16,-26.96 227.68,-28.52 236.84,-33.84 238.16,-26.96"/>
</g>
<!-- Node5 -->
<g id="node5" class="node">
<title>Node5</title>
<g id="a_node5"><a xlink:title=" ">
<polygon fill="#e0e0e0" stroke="#999999" points="339.5,-30 244.5,-30 244.5,0 339.5,0 339.5,-30"/>
<text text-anchor="start" x="252.5" y="-18" font-family="Helvetica,sans-Serif" font-size="10.00">boost/serialization</text>
<text text-anchor="middle" x="292" y="-7" font-family="Helvetica,sans-Serif" font-size="10.00">/base_object.hpp</text>
</a>
</g>
</g>
<!-- Node2&#45;&gt;Node5 -->
<g id="edge4" class="edge">
<title>Node2&#45;&gt;Node5</title>
<path fill="none" stroke="#63b8ff" d="M483.68,-65.62C448.42,-56.49 392.89,-42.12 350.65,-31.18"/>
<polygon fill="#63b8ff" stroke="#63b8ff" points="351.7,-27.84 341.14,-28.72 349.94,-34.61 351.7,-27.84"/>
</g>
<!-- Node6 -->
<g id="node6" class="node">
<title>Node6</title>
<g id="a_node6"><a xlink:title=" ">
<polygon fill="#e0e0e0" stroke="#999999" points="452.5,-30 357.5,-30 357.5,0 452.5,0 452.5,-30"/>
<text text-anchor="start" x="365.5" y="-18" font-family="Helvetica,sans-Serif" font-size="10.00">boost/serialization</text>
<text text-anchor="middle" x="405" y="-7" font-family="Helvetica,sans-Serif" font-size="10.00">/serialization.hpp</text>
</a>
</g>
</g>
<!-- Node2&#45;&gt;Node6 -->
<g id="edge5" class="edge">
<title>Node2&#45;&gt;Node6</title>
<path fill="none" stroke="#63b8ff" d="M500.84,-65.62C485.56,-57.7 462.65,-45.85 443.07,-35.71"/>
<polygon fill="#63b8ff" stroke="#63b8ff" points="444.73,-32.62 434.24,-31.14 441.51,-38.84 444.73,-32.62"/>
</g>
<!-- Node7 -->
<g id="node7" class="node">
<title>Node7</title>
<g id="a_node7"><a xlink:title=" ">
<polygon fill="#e0e0e0" stroke="#999999" points="565.5,-30 470.5,-30 470.5,0 565.5,0 565.5,-30"/>
<text text-anchor="start" x="478.5" y="-18" font-family="Helvetica,sans-Serif" font-size="10.00">boost/serialization</text>
<text text-anchor="middle" x="518" y="-7" font-family="Helvetica,sans-Serif" font-size="10.00">/vector.hpp</text>
</a>
</g>
</g>
<!-- Node2&#45;&gt;Node7 -->
<g id="edge6" class="edge">
<title>Node2&#45;&gt;Node7</title>
<path fill="none" stroke="#63b8ff" d="M518,-65.87C518,-59.4 518,-50.2 518,-41.45"/>
<polygon fill="#63b8ff" stroke="#63b8ff" points="521.5,-41.63 518,-31.63 514.5,-41.63 521.5,-41.63"/>
</g>
<!-- Node8 -->
<g id="node8" class="node">
<title>Node8</title>
<g id="a_node8"><a xlink:title=" ">
<polygon fill="#e0e0e0" stroke="#999999" points="724,-24.5 584,-24.5 584,-5.5 724,-5.5 724,-24.5"/>
<text text-anchor="middle" x="654" y="-12.5" font-family="Helvetica,sans-Serif" font-size="10.00">boost/endian/conversion.hpp</text>
</a>
</g>
</g>
<!-- Node2&#45;&gt;Node8 -->
<g id="edge7" class="edge">
<title>Node2&#45;&gt;Node8</title>
<path fill="none" stroke="#63b8ff" d="M538.66,-65.62C561.02,-55.99 596.96,-40.54 622.77,-29.43"/>
<polygon fill="#63b8ff" stroke="#63b8ff" points="623.96,-32.73 631.76,-25.57 621.19,-26.3 623.96,-32.73"/>
</g>
<!-- Node9 -->
<g id="node9" class="node">
<title>Node9</title>
<g id="a_node9"><a xlink:title=" ">
<polygon fill="#e0e0e0" stroke="#999999" points="791.5,-24.5 742.5,-24.5 742.5,-5.5 791.5,-5.5 791.5,-24.5"/>
<text text-anchor="middle" x="767" y="-12.5" font-family="Helvetica,sans-Serif" font-size="10.00">cstddef</text>
</a>
</g>
</g>
<!-- Node2&#45;&gt;Node9 -->
<g id="edge8" class="edge">
<title>Node2&#45;&gt;Node9</title>
<path fill="none" stroke="#63b8ff" d="M558.47,-67.06C611.33,-57.18 700.93,-39.83 733,-30 734.16,-29.64 735.33,-29.26 736.52,-28.87"/>
<polygon fill="#63b8ff" stroke="#63b8ff" points="737.53,-32.23 745.67,-25.45 735.08,-25.67 737.53,-32.23"/>
</g>
<!-- Node10 -->
<g id="node10" class="node">
<title>Node10</title>
<g id="a_node10"><a xlink:title=" ">
<polygon fill="#e0e0e0" stroke="#999999" points="848,-24.5 810,-24.5 810,-5.5 848,-5.5 848,-24.5"/>
<text text-anchor="middle" x="829" y="-12.5" font-family="Helvetica,sans-Serif" font-size="10.00">span</text>
</a>
</g>
</g>
<!-- Node2&#45;&gt;Node10 -->
<g id="edge9" class="edge">
<title>Node2&#45;&gt;Node10</title>
<path fill="none" stroke="#63b8ff" d="M558.37,-67.43C561.29,-66.94 564.19,-66.46 567,-66 670.84,-49.01 700.73,-61.91 801,-30 801.65,-29.79 802.3,-29.57 802.95,-29.34"/>
<polygon fill="#63b8ff" stroke="#63b8ff" points="804.16,-32.63 811.98,-25.48 801.41,-26.2 804.16,-32.63"/>
</g>
<!-- Node11 -->
<g id="node11" class="node">
<title>Node11</title>
<g id="a_node11"><a xlink:title=" ">
<polygon fill="#e0e0e0" stroke="#999999" points="910,-24.5 866,-24.5 866,-5.5 910,-5.5 910,-24.5"/>
<text text-anchor="middle" x="888" y="-12.5" font-family="Helvetica,sans-Serif" font-size="10.00">vector</text>
</a>
</g>
</g>
<!-- Node2&#45;&gt;Node11 -->
<g id="edge10" class="edge">
<title>Node2&#45;&gt;Node11</title>
<path fill="none" stroke="#63b8ff" d="M558.35,-67.34C561.28,-66.87 564.18,-66.42 567,-66 695.47,-46.9 731.96,-65.12 857,-30 857.99,-29.72 859,-29.41 860.01,-29.08"/>
<polygon fill="#63b8ff" stroke="#63b8ff" points="861.18,-32.38 869.23,-25.49 858.64,-25.86 861.18,-32.38"/>
</g>
</g>
</svg>
