<?xml version="1.0" encoding="UTF-8" standalone="no"?>
<!DOCTYPE svg PUBLIC "-//W3C//DTD SVG 1.1//EN"
 "http://www.w3.org/Graphics/SVG/1.1/DTD/svg11.dtd">
<!-- Generated by graphviz version 8.1.0 (20230707.0739)
 -->
<!-- Title: mal&#45;packet&#45;weaver/mal&#45;packet&#45;weaver/packets/packet&#45;node.hpp Pages: 1 -->
<svg width="544pt" height="293pt"
 viewBox="0.00 0.00 544.00 293.25" xmlns="http://www.w3.org/2000/svg" xmlns:xlink="http://www.w3.org/1999/xlink">
<g id="graph0" class="graph" transform="scale(1 1) rotate(0) translate(4 289.25)">
<title>mal&#45;packet&#45;weaver/mal&#45;packet&#45;weaver/packets/packet&#45;node.hpp</title>
<!-- Node1 -->
<g id="Node000001" class="node">
<title>Node1</title>
<g id="a_Node000001"><a xlink:title=" ">
<polygon fill="#999999" stroke="#666666" points="325.75,-285.25 216.75,-285.25 216.75,-243.5 325.75,-243.5 325.75,-285.25"/>
<text text-anchor="start" x="224.75" y="-271.75" font-family="Times,serif" font-size="10.00">mal&#45;packet&#45;weaver/mal</text>
<text text-anchor="start" x="224.75" y="-260.5" font-family="Times,serif" font-size="10.00">&#45;packet&#45;weaver/packets</text>
<text text-anchor="middle" x="271.25" y="-249.25" font-family="Times,serif" font-size="10.00">/packet&#45;node.hpp</text>
</a>
</g>
</g>
<!-- Node2 -->
<g id="Node000002" class="node">
<title>Node2</title>
<g id="a_Node000002"><a xlink:href="../../d2/d3f/packet_8hpp.html" target="_top" xlink:title=" ">
<polygon fill="white" stroke="#666666" points="305.12,-207.5 237.38,-207.5 237.38,-188.25 305.12,-188.25 305.12,-207.5"/>
<text text-anchor="middle" x="271.25" y="-194" font-family="Times,serif" font-size="10.00">../packet.hpp</text>
</a>
</g>
</g>
<!-- Node1&#45;&gt;Node2 -->
<g id="edge1_Node000001_Node000002" class="edge">
<title>Node1&#45;&gt;Node2</title>
<g id="a_edge1_Node000001_Node000002"><a xlink:title=" ">
<path fill="none" stroke="#63b8ff" d="M271.25,-243.32C271.25,-235.55 271.25,-226.68 271.25,-218.92"/>
<polygon fill="#63b8ff" stroke="#63b8ff" points="274.75,-218.95 271.25,-208.95 267.75,-218.95 274.75,-218.95"/>
</a>
</g>
</g>
<!-- Node3 -->
<g id="Node000003" class="node">
<title>Node3</title>
<g id="a_Node000003"><a xlink:href="../../d3/d53/packet-factory_8hpp.html" target="_top" xlink:title=" ">
<polygon fill="white" stroke="#666666" points="318.62,-152.25 223.88,-152.25 223.88,-121.75 318.62,-121.75 318.62,-152.25"/>
<text text-anchor="start" x="231.88" y="-138.75" font-family="Times,serif" font-size="10.00">packet_impl/packet</text>
<text text-anchor="middle" x="271.25" y="-127.5" font-family="Times,serif" font-size="10.00">&#45;factory.hpp</text>
</a>
</g>
</g>
<!-- Node2&#45;&gt;Node3 -->
<g id="edge2_Node000002_Node000003" class="edge">
<title>Node2&#45;&gt;Node3</title>
<g id="a_edge2_Node000002_Node000003"><a xlink:title=" ">
<path fill="none" stroke="#63b8ff" d="M271.25,-187.93C271.25,-181.4 271.25,-172.2 271.25,-163.47"/>
<polygon fill="#63b8ff" stroke="#63b8ff" points="274.75,-163.53 271.25,-153.53 267.75,-163.53 274.75,-163.53"/>
</a>
</g>
</g>
<!-- Node4 -->
<g id="Node000004" class="node">
<title>Node4</title>
<g id="a_Node000004"><a xlink:href="../../d9/d85/packet__impl_2packet_8hpp.html" target="_top" xlink:title=" ">
<polygon fill="white" stroke="#666666" points="301.38,-85.75 241.12,-85.75 241.12,-66.5 301.38,-66.5 301.38,-85.75"/>
<text text-anchor="middle" x="271.25" y="-72.25" font-family="Times,serif" font-size="10.00">packet.hpp</text>
</a>
</g>
</g>
<!-- Node3&#45;&gt;Node4 -->
<g id="edge3_Node000003_Node000004" class="edge">
<title>Node3&#45;&gt;Node4</title>
<g id="a_edge3_Node000003_Node000004"><a xlink:title=" ">
<path fill="none" stroke="#63b8ff" d="M271.25,-121.45C271.25,-114.12 271.25,-105.12 271.25,-97.16"/>
<polygon fill="#63b8ff" stroke="#63b8ff" points="274.75,-97.2 271.25,-87.2 267.75,-97.2 274.75,-97.2"/>
</a>
</g>
</g>
<!-- Node5 -->
<g id="Node000005" class="node">
<title>Node5</title>
<g id="a_Node000005"><a xlink:title=" ">
<polygon fill="#e0e0e0" stroke="#999999" points="86.5,-24.88 0,-24.88 0,-5.63 86.5,-5.63 86.5,-24.88"/>
<text text-anchor="middle" x="43.25" y="-11.38" font-family="Times,serif" font-size="10.00">../../utils/utils.hpp</text>
</a>
</g>
</g>
<!-- Node4&#45;&gt;Node5 -->
<g id="edge4_Node000004_Node000005" class="edge">
<title>Node4&#45;&gt;Node5</title>
<g id="a_edge4_Node000004_Node000005"><a xlink:title=" ">
<path fill="none" stroke="#63b8ff" d="M240.87,-67.51C205.94,-58.72 146.9,-43.77 96.25,-30.5 93.31,-29.73 90.28,-28.93 87.23,-28.12"/>
<polygon fill="#63b8ff" stroke="#63b8ff" points="88.44,-24.56 77.88,-25.36 86.64,-31.32 88.44,-24.56"/>
</a>
</g>
</g>
<!-- Node6 -->
<g id="Node000006" class="node">
<title>Node6</title>
<g id="a_Node000006"><a xlink:title=" ">
<polygon fill="#e0e0e0" stroke="#999999" points="203.5,-30.5 105,-30.5 105,0 203.5,0 203.5,-30.5"/>
<text text-anchor="start" x="113" y="-17" font-family="Times,serif" font-size="10.00">boost/archive/binary</text>
<text text-anchor="middle" x="154.25" y="-5.75" font-family="Times,serif" font-size="10.00">_iarchive.hpp</text>
</a>
</g>
</g>
<!-- Node4&#45;&gt;Node6 -->
<g id="edge5_Node000004_Node000006" class="edge">
<title>Node4&#45;&gt;Node6</title>
<g id="a_edge5_Node000004_Node000006"><a xlink:title=" ">
<path fill="none" stroke="#63b8ff" d="M253.23,-66.05C237.25,-58.02 213.38,-46 193.08,-35.79"/>
<polygon fill="#63b8ff" stroke="#63b8ff" points="194.96,-32.31 184.45,-30.94 191.81,-38.57 194.96,-32.31"/>
</a>
</g>
</g>
<!-- Node7 -->
<g id="Node000007" class="node">
<title>Node7</title>
<g id="a_Node000007"><a xlink:title=" ">
<polygon fill="#e0e0e0" stroke="#999999" points="320.5,-30.5 222,-30.5 222,0 320.5,0 320.5,-30.5"/>
<text text-anchor="start" x="230" y="-17" font-family="Times,serif" font-size="10.00">boost/archive/binary</text>
<text text-anchor="middle" x="271.25" y="-5.75" font-family="Times,serif" font-size="10.00">_oarchive.hpp</text>
</a>
</g>
</g>
<!-- Node4&#45;&gt;Node7 -->
<g id="edge6_Node000004_Node000007" class="edge">
<title>Node4&#45;&gt;Node7</title>
<g id="a_edge6_Node000004_Node000007"><a xlink:title=" ">
<path fill="none" stroke="#63b8ff" d="M271.25,-66.18C271.25,-59.65 271.25,-50.45 271.25,-41.72"/>
<polygon fill="#63b8ff" stroke="#63b8ff" points="274.75,-41.78 271.25,-31.78 267.75,-41.78 274.75,-41.78"/>
</a>
</g>
</g>
<!-- Node8 -->
<g id="Node000008" class="node">
<title>Node8</title>
<g id="a_Node000008"><a xlink:title=" ">
<polygon fill="#e0e0e0" stroke="#999999" points="428,-30.5 338.5,-30.5 338.5,0 428,0 428,-30.5"/>
<text text-anchor="start" x="346.5" y="-17" font-family="Times,serif" font-size="10.00">boost/serialization</text>
<text text-anchor="middle" x="383.25" y="-5.75" font-family="Times,serif" font-size="10.00">/base_object.hpp</text>
</a>
</g>
</g>
<!-- Node4&#45;&gt;Node8 -->
<g id="edge7_Node000004_Node000008" class="edge">
<title>Node4&#45;&gt;Node8</title>
<g id="a_edge7_Node000004_Node000008"><a xlink:title=" ">
<path fill="none" stroke="#63b8ff" d="M288.26,-66.18C303.55,-58.15 326.53,-46.07 346.06,-35.8"/>
<polygon fill="#63b8ff" stroke="#63b8ff" points="347.38,-38.53 354.61,-30.78 344.12,-32.34 347.38,-38.53"/>
</a>
</g>
</g>
<!-- Node9 -->
<g id="Node000009" class="node">
<title>Node9</title>
<g id="a_Node000009"><a xlink:title=" ">
<polygon fill="#e0e0e0" stroke="#999999" points="536,-30.5 446.5,-30.5 446.5,0 536,0 536,-30.5"/>
<text text-anchor="start" x="454.5" y="-17" font-family="Times,serif" font-size="10.00">boost/serialization</text>
<text text-anchor="middle" x="491.25" y="-5.75" font-family="Times,serif" font-size="10.00">/serialization.hpp</text>
</a>
</g>
</g>
<!-- Node4&#45;&gt;Node9 -->
<g id="edge8_Node000004_Node000009" class="edge">
<title>Node4&#45;&gt;Node9</title>
<g id="a_edge8_Node000004_Node000009"><a xlink:title=" ">
<path fill="none" stroke="#63b8ff" d="M301.84,-66.94C336.34,-57.71 393.17,-42.5 435.59,-31.15"/>
<polygon fill="#63b8ff" stroke="#63b8ff" points="436.29,-34.31 445.04,-28.35 434.48,-27.55 436.29,-34.31"/>
</a>
</g>
</g>
</g>
</svg>
