<?xml version="1.0" encoding="UTF-8" standalone="no"?>
<!DOCTYPE svg PUBLIC "-//W3C//DTD SVG 1.1//EN"
 "http://www.w3.org/Graphics/SVG/1.1/DTD/svg11.dtd">
<!-- Generated by graphviz version 8.1.0 (20230707.0739)
 -->
<!-- Title: mal_toolkit::non_movable Pages: 1 -->
<svg width="128pt" height="160pt"
 viewBox="0.00 0.00 127.50 160.25" xmlns="http://www.w3.org/2000/svg" xmlns:xlink="http://www.w3.org/1999/xlink">
<g id="graph0" class="graph" transform="scale(1 1) rotate(0) translate(4 156.25)">
<title>mal_toolkit::non_movable</title>
<!-- Node1 -->
<g id="Node000001" class="node">
<title>Node1</title>
<g id="a_Node000001"><a xlink:title="A class that can&#39;t be moved.">
<polygon fill="#999999" stroke="#666666" points="118.75,-152.25 0.75,-152.25 0.75,-133 118.75,-133 118.75,-152.25"/>
<text text-anchor="middle" x="59.75" y="-138.75" font-family="Times,serif" font-size="10.00">mal_toolkit::non_movable</text>
</a>
</g>
</g>
<!-- Node2 -->
<g id="Node000002" class="node">
<title>Node2</title>
<g id="a_Node000002"><a xlink:href="../../d2/df3/classmal__toolkit_1_1non__copyable__non__movable.html" target="_top" xlink:title="A class that can&#39;t be copied neither moved.">
<polygon fill="white" stroke="#666666" points="119.5,-97 0,-97 0,-66.5 119.5,-66.5 119.5,-97"/>
<text text-anchor="start" x="8" y="-83.5" font-family="Times,serif" font-size="10.00">mal_toolkit::non_copyable</text>
<text text-anchor="middle" x="59.75" y="-72.25" font-family="Times,serif" font-size="10.00">_non_movable</text>
</a>
</g>
</g>
<!-- Node1&#45;&gt;Node2 -->
<g id="edge1_Node000001_Node000002" class="edge">
<title>Node1&#45;&gt;Node2</title>
<g id="a_edge1_Node000001_Node000002"><a xlink:title=" ">
<path fill="none" stroke="#63b8ff" d="M59.75,-121.7C59.75,-113.7 59.75,-104.65 59.75,-97.28"/>
<polygon fill="#63b8ff" stroke="#63b8ff" points="56.25,-121.68 59.75,-131.68 63.25,-121.68 56.25,-121.68"/>
</a>
</g>
</g>
<!-- Node3 -->
<g id="Node000003" class="node">
<title>Node3</title>
<g id="a_Node000003"><a xlink:href="../../d8/d39/classmal__packet__weaver_1_1_session.html" target="_top" xlink:title="Represents a network session for sending and receiving packets.">
<polygon fill="white" stroke="#666666" points="109.38,-30.5 10.12,-30.5 10.12,0 109.38,0 109.38,-30.5"/>
<text text-anchor="start" x="18.12" y="-17" font-family="Times,serif" font-size="10.00">mal_packet_weaver::</text>
<text text-anchor="middle" x="59.75" y="-5.75" font-family="Times,serif" font-size="10.00">Session</text>
</a>
</g>
</g>
<!-- Node2&#45;&gt;Node3 -->
<g id="edge2_Node000002_Node000003" class="edge">
<title>Node2&#45;&gt;Node3</title>
<g id="a_edge2_Node000002_Node000003"><a xlink:title=" ">
<path fill="none" stroke="#63b8ff" d="M59.75,-55.38C59.75,-47.05 59.75,-38.08 59.75,-30.83"/>
<polygon fill="#63b8ff" stroke="#63b8ff" points="56.25,-55.11 59.75,-65.11 63.25,-55.11 56.25,-55.11"/>
</a>
</g>
</g>
</g>
</svg>
