<?xml version="1.0" encoding="UTF-8" standalone="no"?>
<!DOCTYPE svg PUBLIC "-//W3C//DTD SVG 1.1//EN"
 "http://www.w3.org/Graphics/SVG/1.1/DTD/svg11.dtd">
<!-- Generated by graphviz version 8.1.0 (20230707.0739)
 -->
<!-- Title: mal_packet_weaver::portable_binary_oarchive::save Pages: 1 -->
<svg width="438pt" height="50pt"
 viewBox="0.00 0.00 437.75 49.75" xmlns="http://www.w3.org/2000/svg" xmlns:xlink="http://www.w3.org/1999/xlink">
<g id="graph0" class="graph" transform="scale(1 1) rotate(0) translate(4 45.75)">
<title>mal_packet_weaver::portable_binary_oarchive::save</title>
<!-- Node1 -->
<g id="Node000001" class="node">
<title>Node1</title>
<g id="a_Node000001"><a xlink:title=" ">
<polygon fill="#999999" stroke="#666666" points="139.75,-36.12 0,-36.12 0,-5.62 139.75,-5.62 139.75,-36.12"/>
<text text-anchor="start" x="8" y="-22.62" font-family="Times,serif" font-size="10.00">mal_packet_weaver::</text>
<text text-anchor="middle" x="69.88" y="-11.38" font-family="Times,serif" font-size="10.00">portable_binary_oarchive::save</text>
</a>
</g>
</g>
<!-- Node2 -->
<g id="Node000002" class="node">
<title>Node2</title>
<g id="a_Node000002"><a xlink:href="../../d1/d25/classmal__packet__weaver_1_1portable__binary__oarchive.html#a3b1a3cdf03b38963500fb9b482dbbaca" target="_top" xlink:title=" ">
<polygon fill="white" stroke="#666666" points="294.5,-41.75 175.75,-41.75 175.75,0 294.5,0 294.5,-41.75"/>
<text text-anchor="start" x="183.75" y="-28.25" font-family="Times,serif" font-size="10.00">mal_packet_weaver::</text>
<text text-anchor="start" x="183.75" y="-17" font-family="Times,serif" font-size="10.00">portable_binary_oarchive</text>
<text text-anchor="middle" x="235.12" y="-5.75" font-family="Times,serif" font-size="10.00">::save_impl</text>
</a>
</g>
</g>
<!-- Node1&#45;&gt;Node2 -->
<g id="edge1_Node000001_Node000002" class="edge">
<title>Node1&#45;&gt;Node2</title>
<g id="a_edge1_Node000001_Node000002"><a xlink:title=" ">
<path fill="none" stroke="#63b8ff" d="M140.11,-20.88C148.17,-20.88 156.4,-20.88 164.48,-20.88"/>
<polygon fill="#63b8ff" stroke="#63b8ff" points="164.35,-24.38 174.35,-20.88 164.35,-17.38 164.35,-24.38"/>
</a>
</g>
</g>
<!-- Node3 -->
<g id="Node000003" class="node">
<title>Node3</title>
<g id="a_Node000003"><a xlink:href="../../d6/de9/namespacemal__packet__weaver.html#a71615eb13401e9982f44e83260bd4fb5" target="_top" xlink:title=" ">
<polygon fill="white" stroke="#666666" points="429.75,-36.12 330.5,-36.12 330.5,-5.62 429.75,-5.62 429.75,-36.12"/>
<text text-anchor="start" x="338.5" y="-22.62" font-family="Times,serif" font-size="10.00">mal_packet_weaver::</text>
<text text-anchor="middle" x="380.12" y="-11.38" font-family="Times,serif" font-size="10.00">reverse_bytes</text>
</a>
</g>
</g>
<!-- Node2&#45;&gt;Node3 -->
<g id="edge2_Node000002_Node000003" class="edge">
<title>Node2&#45;&gt;Node3</title>
<g id="a_edge2_Node000002_Node000003"><a xlink:title=" ">
<path fill="none" stroke="#63b8ff" d="M294.7,-20.88C302.87,-20.88 311.27,-20.88 319.45,-20.88"/>
<polygon fill="#63b8ff" stroke="#63b8ff" points="319.44,-24.38 329.44,-20.88 319.44,-17.38 319.44,-24.38"/>
</a>
</g>
</g>
</g>
</svg>
