<?xml version="1.0" encoding="UTF-8" standalone="no"?>
<!DOCTYPE svg PUBLIC "-//W3C//DTD SVG 1.1//EN"
 "http://www.w3.org/Graphics/SVG/1.1/DTD/svg11.dtd">
<!-- Generated by graphviz version 9.0.0 (20230911.1827)
 -->
<!-- Title: mal_packet_weaver::portable_binary_oarchive::init Pages: 1 -->
<svg width="611pt" height="50pt"
 viewBox="0.00 0.00 610.50 49.75" xmlns="http://www.w3.org/2000/svg" xmlns:xlink="http://www.w3.org/1999/xlink">
<g id="graph0" class="graph" transform="scale(1 1) rotate(0) translate(4 45.75)">
<title>mal_packet_weaver::portable_binary_oarchive::init</title>
<!-- Node1 -->
<g id="Node000001" class="node">
<title>Node1</title>
<g id="a_Node000001"><a xlink:title=" ">
<polygon fill="#999999" stroke="#666666" points="136.75,-36.12 0,-36.12 0,-5.62 136.75,-5.62 136.75,-36.12"/>
<text text-anchor="start" x="8" y="-22.62" font-family="Times,serif" font-size="10.00">mal_packet_weaver::</text>
<text text-anchor="middle" x="68.38" y="-11.38" font-family="Times,serif" font-size="10.00">portable_binary_oarchive::init</text>
</a>
</g>
</g>
<!-- Node2 -->
<g id="Node000002" class="node">
<title>Node2</title>
<g id="a_Node000002"><a xlink:href="../../d1/d25/classmal__packet__weaver_1_1portable__binary__oarchive.html#a4b827df986c56b388edec92fcb890d4f" target="_top" xlink:title=" ">
<polygon fill="white" stroke="#666666" points="312.5,-36.12 172.75,-36.12 172.75,-5.62 312.5,-5.62 312.5,-36.12"/>
<text text-anchor="start" x="180.75" y="-22.62" font-family="Times,serif" font-size="10.00">mal_packet_weaver::</text>
<text text-anchor="middle" x="242.62" y="-11.38" font-family="Times,serif" font-size="10.00">portable_binary_oarchive::save</text>
</a>
</g>
</g>
<!-- Node1&#45;&gt;Node2 -->
<g id="edge1_Node000001_Node000002" class="edge">
<title>Node1&#45;&gt;Node2</title>
<g id="a_edge1_Node000001_Node000002"><a xlink:title=" ">
<path fill="none" stroke="#63b8ff" d="M136.96,-20.88C144.84,-20.88 152.93,-20.88 160.97,-20.88"/>
<polygon fill="#63b8ff" stroke="#63b8ff" points="160.74,-24.38 170.74,-20.88 160.74,-17.38 160.74,-24.38"/>
</a>
</g>
</g>
<!-- Node3 -->
<g id="Node000003" class="node">
<title>Node3</title>
<g id="a_Node000003"><a xlink:href="../../d1/d25/classmal__packet__weaver_1_1portable__binary__oarchive.html#a3b1a3cdf03b38963500fb9b482dbbaca" target="_top" xlink:title=" ">
<polygon fill="white" stroke="#666666" points="467.25,-41.75 348.5,-41.75 348.5,0 467.25,0 467.25,-41.75"/>
<text text-anchor="start" x="356.5" y="-28.25" font-family="Times,serif" font-size="10.00">mal_packet_weaver::</text>
<text text-anchor="start" x="356.5" y="-17" font-family="Times,serif" font-size="10.00">portable_binary_oarchive</text>
<text text-anchor="middle" x="407.88" y="-5.75" font-family="Times,serif" font-size="10.00">::save_impl</text>
</a>
</g>
</g>
<!-- Node2&#45;&gt;Node3 -->
<g id="edge2_Node000002_Node000003" class="edge">
<title>Node2&#45;&gt;Node3</title>
<g id="a_edge2_Node000002_Node000003"><a xlink:title=" ">
<path fill="none" stroke="#63b8ff" d="M312.86,-20.88C320.74,-20.88 328.78,-20.88 336.67,-20.88"/>
<polygon fill="#63b8ff" stroke="#63b8ff" points="336.59,-24.38 346.59,-20.88 336.59,-17.38 336.59,-24.38"/>
</a>
</g>
</g>
<!-- Node4 -->
<g id="Node000004" class="node">
<title>Node4</title>
<g id="a_Node000004"><a xlink:href="../../d6/de9/namespacemal__packet__weaver.html#a71615eb13401e9982f44e83260bd4fb5" target="_top" xlink:title=" ">
<polygon fill="white" stroke="#666666" points="602.5,-36.12 503.25,-36.12 503.25,-5.62 602.5,-5.62 602.5,-36.12"/>
<text text-anchor="start" x="511.25" y="-22.62" font-family="Times,serif" font-size="10.00">mal_packet_weaver::</text>
<text text-anchor="middle" x="552.88" y="-11.38" font-family="Times,serif" font-size="10.00">reverse_bytes</text>
</a>
</g>
</g>
<!-- Node3&#45;&gt;Node4 -->
<g id="edge3_Node000003_Node000004" class="edge">
<title>Node3&#45;&gt;Node4</title>
<g id="a_edge3_Node000003_Node000004"><a xlink:title=" ">
<path fill="none" stroke="#63b8ff" d="M467.45,-20.88C475.52,-20.88 483.83,-20.88 491.92,-20.88"/>
<polygon fill="#63b8ff" stroke="#63b8ff" points="491.68,-24.38 501.68,-20.88 491.68,-17.38 491.68,-24.38"/>
</a>
</g>
</g>
</g>
</svg>
