<?xml version="1.0" encoding="UTF-8" standalone="no"?>
<!DOCTYPE svg PUBLIC "-//W3C//DTD SVG 1.1//EN"
 "http://www.w3.org/Graphics/SVG/1.1/DTD/svg11.dtd">
<!-- Generated by graphviz version 7.0.5 (20221223.1930)
 -->
<!-- Title: mal_packet_weaver::ByteView Pages: 1 -->
<svg width="116pt" height="160pt"
 viewBox="0.00 0.00 116.00 160.00" xmlns="http://www.w3.org/2000/svg" xmlns:xlink="http://www.w3.org/1999/xlink">
<g id="graph0" class="graph" transform="scale(1 1) rotate(0) translate(4 156)">
<title>mal_packet_weaver::ByteView</title>
<!-- Node1 -->
<g id="node1" class="node">
<title>Node1</title>
<g id="a_node1"><a xlink:title="A lightweight view over a sequence of bytes.">
<polygon fill="#999999" stroke="#666666" points="108,-30 0,-30 0,0 108,0 108,-30"/>
<text text-anchor="start" x="8" y="-18" font-family="Helvetica,sans-Serif" font-size="10.00">mal_packet_weaver::</text>
<text text-anchor="middle" x="54" y="-7" font-family="Helvetica,sans-Serif" font-size="10.00">ByteView</text>
</a>
</g>
</g>
<!-- Node2 -->
<g id="node2" class="node">
<title>Node2</title>
<g id="a_node2"><a xlink:title=" ">
<polygon fill="white" stroke="#666666" points="93,-86 15,-86 15,-67 93,-67 93,-86"/>
<text text-anchor="middle" x="54" y="-74" font-family="Helvetica,sans-Serif" font-size="10.00">std::span&lt; T &gt;</text>
</a>
</g>
</g>
<!-- Node2&#45;&gt;Node1 -->
<g id="edge1" class="edge">
<title>Node2&#45;&gt;Node1</title>
<path fill="none" stroke="#63b8ff" d="M54,-55.46C54,-47.23 54,-37.89 54,-30.36"/>
<polygon fill="#63b8ff" stroke="#63b8ff" points="50.5,-55.21 54,-65.21 57.5,-55.21 50.5,-55.21"/>
</g>
<!-- Node3 -->
<g id="node3" class="node">
<title>Node3</title>
<g id="a_node3"><a xlink:title=" ">
<polygon fill="white" stroke="#666666" points="68.5,-152 39.5,-152 39.5,-133 68.5,-133 68.5,-152"/>
<text text-anchor="middle" x="54" y="-140" font-family="Helvetica,sans-Serif" font-size="10.00">T</text>
</a>
</g>
</g>
<!-- Node3&#45;&gt;Node2 -->
<g id="edge2" class="edge">
<title>Node3&#45;&gt;Node2</title>
<path fill="none" stroke="#9a32cd" stroke-dasharray="5,2" d="M54,-121.18C54,-109.44 54,-95.27 54,-86.32"/>
<polygon fill="#9a32cd" stroke="#9a32cd" points="50.5,-121.09 54,-131.09 57.5,-121.09 50.5,-121.09"/>
<text text-anchor="middle" x="75.5" y="-107" font-family="Helvetica,sans-Serif" font-size="10.00"> elements</text>
</g>
</g>
</svg>
