<?xml version="1.0" encoding="UTF-8" standalone="no"?>
<!DOCTYPE svg PUBLIC "-//W3C//DTD SVG 1.1//EN"
 "http://www.w3.org/Graphics/SVG/1.1/DTD/svg11.dtd">
<!-- Generated by graphviz version 7.0.5 (20221223.1930)
 -->
<!-- Title: node_system::crypto::Hash Pages: 1 -->
<svg width="129pt" height="226pt"
 viewBox="0.00 0.00 129.00 226.00" xmlns="http://www.w3.org/2000/svg" xmlns:xlink="http://www.w3.org/1999/xlink">
<g id="graph0" class="graph" transform="scale(1 1) rotate(0) translate(4 222)">
<title>node_system::crypto::Hash</title>
<!-- Node1 -->
<g id="node1" class="node">
<title>Node1</title>
<g id="a_node1"><a xlink:title="Represents a cryptographic hash value along with its type.">
<polygon fill="#999999" stroke="#666666" points="113,-30 8,-30 8,0 113,0 113,-30"/>
<text text-anchor="start" x="16" y="-18" font-family="Helvetica,sans-Serif" font-size="10.00">node_system::crypto</text>
<text text-anchor="middle" x="60.5" y="-7" font-family="Helvetica,sans-Serif" font-size="10.00">::Hash</text>
</a>
</g>
</g>
<!-- Node2 -->
<g id="node2" class="node">
<title>Node2</title>
<g id="a_node2"><a xlink:href="../../d0/d71/structnode__system_1_1_byte_array.html" target="_top" xlink:title="A dynamically resizable array of bytes.">
<polygon fill="white" stroke="#666666" points="121,-96 0,-96 0,-77 121,-77 121,-96"/>
<text text-anchor="middle" x="60.5" y="-84" font-family="Helvetica,sans-Serif" font-size="10.00">node_system::ByteArray</text>
</a>
</g>
</g>
<!-- Node2&#45;&gt;Node1 -->
<g id="edge1" class="edge">
<title>Node2&#45;&gt;Node1</title>
<path fill="none" stroke="#9a32cd" stroke-dasharray="5,2" d="M60.5,-65.39C60.5,-54.15 60.5,-40.41 60.5,-30.27"/>
<polygon fill="#9a32cd" stroke="#9a32cd" points="57,-65.18 60.5,-75.18 64,-65.18 57,-65.18"/>
<text text-anchor="middle" x="86.5" y="-51" font-family="Helvetica,sans-Serif" font-size="10.00"> hash_value</text>
</g>
<!-- Node3 -->
<g id="node3" class="node">
<title>Node3</title>
<g id="a_node3"><a xlink:title=" ">
<polygon fill="white" stroke="#666666" points="102.5,-152 18.5,-152 18.5,-133 102.5,-133 102.5,-152"/>
<text text-anchor="middle" x="60.5" y="-140" font-family="Helvetica,sans-Serif" font-size="10.00">std::vector&lt; T &gt;</text>
</a>
</g>
</g>
<!-- Node3&#45;&gt;Node2 -->
<g id="edge2" class="edge">
<title>Node3&#45;&gt;Node2</title>
<path fill="none" stroke="#63b8ff" d="M60.5,-121.11C60.5,-112.52 60.5,-102.97 60.5,-96.25"/>
<polygon fill="#63b8ff" stroke="#63b8ff" points="57,-121.07 60.5,-131.07 64,-121.07 57,-121.07"/>
</g>
<!-- Node4 -->
<g id="node4" class="node">
<title>Node4</title>
<g id="a_node4"><a xlink:title=" ">
<polygon fill="white" stroke="#666666" points="75,-218 46,-218 46,-199 75,-199 75,-218"/>
<text text-anchor="middle" x="60.5" y="-206" font-family="Helvetica,sans-Serif" font-size="10.00">T</text>
</a>
</g>
</g>
<!-- Node4&#45;&gt;Node3 -->
<g id="edge3" class="edge">
<title>Node4&#45;&gt;Node3</title>
<path fill="none" stroke="#9a32cd" stroke-dasharray="5,2" d="M60.5,-187.18C60.5,-175.44 60.5,-161.27 60.5,-152.32"/>
<polygon fill="#9a32cd" stroke="#9a32cd" points="57,-187.09 60.5,-197.09 64,-187.09 57,-187.09"/>
<text text-anchor="middle" x="82" y="-173" font-family="Helvetica,sans-Serif" font-size="10.00"> elements</text>
</g>
</g>
</svg>
