<?xml version="1.0" encoding="UTF-8" standalone="no"?>
<!DOCTYPE svg PUBLIC "-//W3C//DTD SVG 1.1//EN"
 "http://www.w3.org/Graphics/SVG/1.1/DTD/svg11.dtd">
<!-- Generated by graphviz version 9.0.0 (20230911.1827)
 -->
<!-- Title: mal&#45;packet&#45;weaver/mal&#45;packet&#45;weaver/packet&#45;impl/portable&#45;binary&#45;iarchive.hpp Pages: 1 -->
<svg width="1151pt" height="194pt"
 viewBox="0.00 0.00 1150.88 194.00" xmlns="http://www.w3.org/2000/svg" xmlns:xlink="http://www.w3.org/1999/xlink">
<g id="graph0" class="graph" transform="scale(1 1) rotate(0) translate(4 190)">
<title>mal&#45;packet&#45;weaver/mal&#45;packet&#45;weaver/packet&#45;impl/portable&#45;binary&#45;iarchive.hpp</title>
<!-- Node1 -->
<g id="Node000001" class="node">
<title>Node1</title>
<g id="a_Node000001"><a xlink:title=" ">
<polygon fill="#999999" stroke="#666666" points="464.38,-186 356.88,-186 356.88,-133 464.38,-133 464.38,-186"/>
<text text-anchor="start" x="364.88" y="-172.5" font-family="Times,serif" font-size="10.00">mal&#45;packet&#45;weaver/mal</text>
<text text-anchor="start" x="364.88" y="-161.25" font-family="Times,serif" font-size="10.00">&#45;packet&#45;weaver/packet</text>
<text text-anchor="start" x="364.88" y="-150" font-family="Times,serif" font-size="10.00">&#45;impl/portable&#45;binary</text>
<text text-anchor="middle" x="410.62" y="-138.75" font-family="Times,serif" font-size="10.00">&#45;iarchive.hpp</text>
</a>
</g>
</g>
<!-- Node2 -->
<g id="Node000002" class="node">
<title>Node2</title>
<g id="a_Node000002"><a xlink:title=" ">
<polygon fill="#e0e0e0" stroke="#999999" points="45.25,-91.38 0,-91.38 0,-72.12 45.25,-72.12 45.25,-91.38"/>
<text text-anchor="middle" x="22.62" y="-77.88" font-family="Times,serif" font-size="10.00">istream</text>
</a>
</g>
</g>
<!-- Node1&#45;&gt;Node2 -->
<g id="edge1_Node000001_Node000002" class="edge">
<title>Node1&#45;&gt;Node2</title>
<g id="a_edge1_Node000001_Node000002"><a xlink:title=" ">
<path fill="none" stroke="#63b8ff" d="M356.38,-153.59C285.51,-146.18 158.15,-129.42 53.62,-97 52.66,-96.7 51.69,-96.38 50.71,-96.04"/>
<polygon fill="#63b8ff" stroke="#63b8ff" points="52.33,-92.92 41.75,-92.42 49.71,-99.41 52.33,-92.92"/>
</a>
</g>
</g>
<!-- Node3 -->
<g id="Node000003" class="node">
<title>Node3</title>
<g id="a_Node000003"><a xlink:title=" ">
<polygon fill="#e0e0e0" stroke="#999999" points="152.38,-97 62.88,-97 62.88,-66.5 152.38,-66.5 152.38,-97"/>
<text text-anchor="start" x="70.88" y="-83.5" font-family="Times,serif" font-size="10.00">boost/serialization</text>
<text text-anchor="middle" x="107.62" y="-72.25" font-family="Times,serif" font-size="10.00">/string.hpp</text>
</a>
</g>
</g>
<!-- Node1&#45;&gt;Node3 -->
<g id="edge2_Node000001_Node000003" class="edge">
<title>Node1&#45;&gt;Node3</title>
<g id="a_edge2_Node000001_Node000003"><a xlink:title=" ">
<path fill="none" stroke="#63b8ff" d="M356.65,-145.43C308.64,-133.75 236.21,-115.98 163.84,-97.54"/>
<polygon fill="#63b8ff" stroke="#63b8ff" points="164.71,-94.16 154.16,-95.07 162.98,-100.94 164.71,-94.16"/>
</a>
</g>
</g>
<!-- Node4 -->
<g id="Node000004" class="node">
<title>Node4</title>
<g id="a_Node000004"><a xlink:title=" ">
<polygon fill="#e0e0e0" stroke="#999999" points="280.88,-97 170.38,-97 170.38,-66.5 280.88,-66.5 280.88,-97"/>
<text text-anchor="start" x="178.38" y="-83.5" font-family="Times,serif" font-size="10.00">boost/serialization</text>
<text text-anchor="middle" x="225.62" y="-72.25" font-family="Times,serif" font-size="10.00">/item_version_type.hpp</text>
</a>
</g>
</g>
<!-- Node1&#45;&gt;Node4 -->
<g id="edge3_Node000001_Node000004" class="edge">
<title>Node1&#45;&gt;Node4</title>
<g id="a_edge3_Node000001_Node000004"><a xlink:title=" ">
<path fill="none" stroke="#63b8ff" d="M356.62,-136.39C329.84,-125.42 297.81,-112.31 272.13,-101.79"/>
<polygon fill="#63b8ff" stroke="#63b8ff" points="273.53,-98.58 262.95,-98.03 270.88,-105.06 273.53,-98.58"/>
</a>
</g>
</g>
<!-- Node5 -->
<g id="Node000005" class="node">
<title>Node5</title>
<g id="a_Node000005"><a xlink:title=" ">
<polygon fill="#e0e0e0" stroke="#999999" points="400.38,-97 298.88,-97 298.88,-66.5 400.38,-66.5 400.38,-97"/>
<text text-anchor="start" x="306.88" y="-83.5" font-family="Times,serif" font-size="10.00">boost/archive/archive</text>
<text text-anchor="middle" x="349.62" y="-72.25" font-family="Times,serif" font-size="10.00">_exception.hpp</text>
</a>
</g>
</g>
<!-- Node1&#45;&gt;Node5 -->
<g id="edge4_Node000001_Node000005" class="edge">
<title>Node1&#45;&gt;Node5</title>
<g id="a_edge4_Node000001_Node000005"><a xlink:title=" ">
<path fill="none" stroke="#63b8ff" d="M389.97,-132.85C383.04,-124.25 375.35,-114.7 368.56,-106.26"/>
<polygon fill="#63b8ff" stroke="#63b8ff" points="371.31,-104.09 362.31,-98.5 365.85,-108.48 371.31,-104.09"/>
</a>
</g>
</g>
<!-- Node6 -->
<g id="Node000006" class="node">
<title>Node6</title>
<g id="a_Node000006"><a xlink:title=" ">
<polygon fill="#e0e0e0" stroke="#999999" points="527.12,-97 418.12,-97 418.12,-66.5 527.12,-66.5 527.12,-97"/>
<text text-anchor="start" x="426.12" y="-83.5" font-family="Times,serif" font-size="10.00">boost/archive/basic</text>
<text text-anchor="middle" x="472.62" y="-72.25" font-family="Times,serif" font-size="10.00">_binary_iprimitive.hpp</text>
</a>
</g>
</g>
<!-- Node1&#45;&gt;Node6 -->
<g id="edge5_Node000001_Node000006" class="edge">
<title>Node1&#45;&gt;Node6</title>
<g id="a_edge5_Node000001_Node000006"><a xlink:title=" ">
<path fill="none" stroke="#63b8ff" d="M431.62,-132.85C438.74,-124.15 446.65,-114.49 453.6,-105.99"/>
<polygon fill="#63b8ff" stroke="#63b8ff" points="456.11,-108.45 459.74,-98.49 450.7,-104.01 456.11,-108.45"/>
</a>
</g>
</g>
<!-- Node7 -->
<g id="Node000007" class="node">
<title>Node7</title>
<g id="a_Node000007"><a xlink:title=" ">
<polygon fill="#e0e0e0" stroke="#999999" points="652,-97 545.25,-97 545.25,-66.5 652,-66.5 652,-97"/>
<text text-anchor="start" x="553.25" y="-83.5" font-family="Times,serif" font-size="10.00">boost/archive/detail</text>
<text text-anchor="middle" x="598.62" y="-72.25" font-family="Times,serif" font-size="10.00">/common_iarchive.hpp</text>
</a>
</g>
</g>
<!-- Node1&#45;&gt;Node7 -->
<g id="edge6_Node000001_Node000007" class="edge">
<title>Node1&#45;&gt;Node7</title>
<g id="a_edge6_Node000001_Node000007"><a xlink:title=" ">
<path fill="none" stroke="#63b8ff" d="M464.75,-136.69C492.21,-125.63 525.24,-112.32 551.62,-101.69"/>
<polygon fill="#63b8ff" stroke="#63b8ff" points="552.74,-105.01 560.71,-98.03 550.12,-98.52 552.74,-105.01"/>
</a>
</g>
</g>
<!-- Node8 -->
<g id="Node000008" class="node">
<title>Node8</title>
<g id="a_Node000008"><a xlink:title=" ">
<polygon fill="#e0e0e0" stroke="#999999" points="771,-97 670.25,-97 670.25,-66.5 771,-66.5 771,-97"/>
<text text-anchor="start" x="678.25" y="-83.5" font-family="Times,serif" font-size="10.00">boost/archive/detail</text>
<text text-anchor="middle" x="720.62" y="-72.25" font-family="Times,serif" font-size="10.00">/register_archive.hpp</text>
</a>
</g>
</g>
<!-- Node1&#45;&gt;Node8 -->
<g id="edge7_Node000001_Node000008" class="edge">
<title>Node1&#45;&gt;Node8</title>
<g id="a_edge7_Node000001_Node000008"><a xlink:title=" ">
<path fill="none" stroke="#63b8ff" d="M464.62,-145.31C518.78,-132.07 602.07,-111.72 658.83,-97.85"/>
<polygon fill="#63b8ff" stroke="#63b8ff" points="659.46,-101.3 668.34,-95.53 657.8,-94.5 659.46,-101.3"/>
</a>
</g>
</g>
<!-- Node9 -->
<g id="Node000009" class="node">
<title>Node9</title>
<g id="a_Node000009"><a xlink:href="../../df/d44/portable-binary-archive_8hpp.html" target="_top" xlink:title=" ">
<polygon fill="white" stroke="#666666" points="916.12,-91.38 789.12,-91.38 789.12,-72.12 916.12,-72.12 916.12,-91.38"/>
<text text-anchor="middle" x="852.62" y="-77.88" font-family="Times,serif" font-size="10.00">portable&#45;binary&#45;archive.hpp</text>
</a>
</g>
</g>
<!-- Node1&#45;&gt;Node9 -->
<g id="edge8_Node000001_Node000009" class="edge">
<title>Node1&#45;&gt;Node9</title>
<g id="a_edge8_Node000001_Node000009"><a xlink:title=" ">
<path fill="none" stroke="#63b8ff" d="M464.79,-149.95C536.79,-138.48 667.94,-117.2 779.62,-97 784.91,-96.04 790.4,-95.02 795.89,-93.98"/>
<polygon fill="#63b8ff" stroke="#63b8ff" points="796.45,-97.44 805.61,-92.12 795.13,-90.57 796.45,-97.44"/>
</a>
</g>
</g>
<!-- Node10 -->
<g id="Node000010" class="node">
<title>Node10</title>
<g id="a_Node000010"><a xlink:title=" ">
<polygon fill="#e0e0e0" stroke="#999999" points="628.38,-24.88 544.88,-24.88 544.88,-5.63 628.38,-5.63 628.38,-24.88"/>
<text text-anchor="middle" x="586.62" y="-11.38" font-family="Times,serif" font-size="10.00">boost/config.hpp</text>
</a>
</g>
</g>
<!-- Node9&#45;&gt;Node10 -->
<g id="edge9_Node000009_Node000010" class="edge">
<title>Node9&#45;&gt;Node10</title>
<g id="a_edge9_Node000009_Node000010"><a xlink:title=" ">
<path fill="none" stroke="#63b8ff" d="M811.28,-71.64C767.9,-61.95 697.78,-45.93 637.62,-30.5 634.9,-29.8 632.09,-29.06 629.27,-28.31"/>
<polygon fill="#63b8ff" stroke="#63b8ff" points="630.43,-25 619.86,-25.75 628.59,-31.75 630.43,-25"/>
</a>
</g>
</g>
<!-- Node11 -->
<g id="Node000011" class="node">
<title>Node11</title>
<g id="a_Node000011"><a xlink:title=" ">
<polygon fill="#e0e0e0" stroke="#999999" points="732.88,-24.88 646.38,-24.88 646.38,-5.63 732.88,-5.63 732.88,-24.88"/>
<text text-anchor="middle" x="689.62" y="-11.38" font-family="Times,serif" font-size="10.00">boost/cstdint.hpp</text>
</a>
</g>
</g>
<!-- Node9&#45;&gt;Node11 -->
<g id="edge10_Node000009_Node000011" class="edge">
<title>Node9&#45;&gt;Node11</title>
<g id="a_edge10_Node000009_Node000011"><a xlink:title=" ">
<path fill="none" stroke="#63b8ff" d="M829.62,-71.65C801.83,-60.65 754.86,-42.06 723.07,-29.49"/>
<polygon fill="#63b8ff" stroke="#63b8ff" points="724.51,-26.29 713.92,-25.87 721.93,-32.8 724.51,-26.29"/>
</a>
</g>
</g>
<!-- Node12 -->
<g id="Node000012" class="node">
<title>Node12</title>
<g id="a_Node000012"><a xlink:title=" ">
<polygon fill="#e0e0e0" stroke="#999999" points="860.12,-24.88 751.12,-24.88 751.12,-5.63 860.12,-5.63 860.12,-24.88"/>
<text text-anchor="middle" x="805.62" y="-11.38" font-family="Times,serif" font-size="10.00">boost/static_assert.hpp</text>
</a>
</g>
</g>
<!-- Node9&#45;&gt;Node12 -->
<g id="edge11_Node000009_Node000012" class="edge">
<title>Node9&#45;&gt;Node12</title>
<g id="a_edge11_Node000009_Node000012"><a xlink:title=" ">
<path fill="none" stroke="#63b8ff" d="M846.09,-71.78C839.07,-62.15 827.74,-46.6 818.85,-34.4"/>
<polygon fill="#63b8ff" stroke="#63b8ff" points="821.71,-32.39 813,-26.37 816.06,-36.51 821.71,-32.39"/>
</a>
</g>
</g>
<!-- Node13 -->
<g id="Node000013" class="node">
<title>Node13</title>
<g id="a_Node000013"><a xlink:title=" ">
<polygon fill="#e0e0e0" stroke="#999999" points="920.75,-24.88 878.5,-24.88 878.5,-5.63 920.75,-5.63 920.75,-24.88"/>
<text text-anchor="middle" x="899.62" y="-11.38" font-family="Times,serif" font-size="10.00">climits</text>
</a>
</g>
</g>
<!-- Node9&#45;&gt;Node13 -->
<g id="edge12_Node000009_Node000013" class="edge">
<title>Node9&#45;&gt;Node13</title>
<g id="a_edge12_Node000009_Node000013"><a xlink:title=" ">
<path fill="none" stroke="#63b8ff" d="M859.16,-71.78C866.18,-62.15 877.51,-46.6 886.4,-34.4"/>
<polygon fill="#63b8ff" stroke="#63b8ff" points="889.19,-36.51 892.25,-26.37 883.54,-32.39 889.19,-36.51"/>
</a>
</g>
</g>
<!-- Node14 -->
<g id="Node000014" class="node">
<title>Node14</title>
<g id="a_Node000014"><a xlink:title=" ">
<polygon fill="#e0e0e0" stroke="#999999" points="1032.25,-30.5 939,-30.5 939,0 1032.25,0 1032.25,-30.5"/>
<text text-anchor="start" x="947" y="-17" font-family="Times,serif" font-size="10.00">boost/archive/basic</text>
<text text-anchor="middle" x="985.62" y="-5.75" font-family="Times,serif" font-size="10.00">_archive.hpp</text>
</a>
</g>
</g>
<!-- Node9&#45;&gt;Node14 -->
<g id="edge13_Node000009_Node000014" class="edge">
<title>Node9&#45;&gt;Node14</title>
<g id="a_edge13_Node000009_Node000014"><a xlink:title=" ">
<path fill="none" stroke="#63b8ff" d="M871.4,-71.65C890.51,-62.38 920.73,-47.72 945.29,-35.81"/>
<polygon fill="#63b8ff" stroke="#63b8ff" points="946.59,-39.07 954.06,-31.56 943.53,-32.77 946.59,-39.07"/>
</a>
</g>
</g>
<!-- Node15 -->
<g id="Node000015" class="node">
<title>Node15</title>
<g id="a_Node000015"><a xlink:title=" ">
<polygon fill="#e0e0e0" stroke="#999999" points="1142.88,-30.5 1050.38,-30.5 1050.38,0 1142.88,0 1142.88,-30.5"/>
<text text-anchor="start" x="1058.38" y="-17" font-family="Times,serif" font-size="10.00">boost/predef/other</text>
<text text-anchor="middle" x="1096.62" y="-5.75" font-family="Times,serif" font-size="10.00">/endian.h</text>
</a>
</g>
</g>
<!-- Node9&#45;&gt;Node15 -->
<g id="edge14_Node000009_Node000015" class="edge">
<title>Node9&#45;&gt;Node15</title>
<g id="a_edge14_Node000009_Node000015"><a xlink:title=" ">
<path fill="none" stroke="#63b8ff" d="M887.07,-71.65C926.59,-61.2 992.03,-43.9 1039.28,-31.41"/>
<polygon fill="#63b8ff" stroke="#63b8ff" points="1040.03,-34.83 1048.8,-28.89 1038.24,-28.06 1040.03,-34.83"/>
</a>
</g>
</g>
</g>
</svg>
