<?xml version="1.0" encoding="UTF-8" standalone="no"?>
<!DOCTYPE svg PUBLIC "-//W3C//DTD SVG 1.1//EN"
 "http://www.w3.org/Graphics/SVG/1.1/DTD/svg11.dtd">
<!-- Generated by graphviz version 8.1.0 (20230707.0739)
 -->
<!-- Title: mal&#45;packet&#45;weaver/mal&#45;packet&#45;weaver/packet&#45;impl/portable&#45;binary&#45;iarchive.hpp Pages: 1 -->
<!--zoomable 194 -->

<svg id="main" version="1.1" xmlns="http://www.w3.org/2000/svg" xmlns:xlink="http://www.w3.org/1999/xlink" xml:space="preserve" onload="init(evt)">
<style type="text/css"><![CDATA[
.node, .edge {opacity: 0.7;}
.node.selected, .edge.selected {opacity: 1;}
.edge:hover path { stroke: red; }
.edge:hover polygon { stroke: red; fill: red; }
]]></style>

<defs>
  <circle id="rim" cx="0" cy="0" r="7"/>
  <circle id="rim2" cx="0" cy="0" r="3.5"/>
  <g id="zoomPlus">
    <use xlink:href="#rim" fill="#404040"><set attributeName="fill" to="#808080" begin="zoomplus.mouseover" end="zoomplus.mouseout"/></use>
    <path d="M-4,0h8M0,-4v8" fill="none" stroke="white" stroke-width="1.5" pointer-events="none"/>
  </g>
  <g id="zoomMin">
    <use xlink:href="#rim" fill="#404040"><set attributeName="fill" to="#808080" begin="zoomminus.mouseover" end="zoomminus.mouseout"/></use>
    <path d="M-4,0h8" fill="none" stroke="white" stroke-width="1.5" pointer-events="none"/>
  </g>
  <g id="arrowUp" transform="translate(30 24)">
    <use xlink:href="#rim"/>
    <path pointer-events="none" fill="none" stroke="white" stroke-width="1.5" d="M0,-3.0v7 M-2.5,-0.5L0,-3.0L2.5,-0.5"/>
  </g>
  <g id="arrowRight" transform="rotate(90) translate(36 -43)">
    <use xlink:href="#rim"/>
    <path pointer-events="none" fill="none" stroke="white" stroke-width="1.5" d="M0,-3.0v7 M-2.5,-0.5L0,-3.0L2.5,-0.5"/>
  </g>
  <g id="arrowDown" transform="rotate(180) translate(-30 -48)">
    <use xlink:href="#rim"/>
    <path pointer-events="none" fill="none" stroke="white" stroke-width="1.5" d="M0,-3.0v7 M-2.5,-0.5L0,-3.0L2.5,-0.5"/>
  </g>
  <g id="arrowLeft" transform="rotate(270) translate(-36 17)">
    <use xlink:href="#rim"/>
    <path pointer-events="none" fill="none" stroke="white" stroke-width="1.5" d="M0,-3.0v7 M-2.5,-0.5L0,-3.0L2.5,-0.5"/>
  </g>
  <g id="resetDef">
    <use xlink:href="#rim2" fill="#404040"><set attributeName="fill" to="#808080" begin="reset.mouseover" end="reset.mouseout"/></use>
  </g>
</defs>
<script type="application/ecmascript">
var viewWidth = 1151;
var viewHeight = 194;
var sectionId = 'dynsection-0';
</script>
<script type="application/ecmascript" xlink:href="../../svg.min.js"/>
<svg id="graph" class="graph">
<g id="viewport">
<title>mal&#45;packet&#45;weaver/mal&#45;packet&#45;weaver/packet&#45;impl/portable&#45;binary&#45;iarchive.hpp</title>
<!-- Node1 -->
<g id="Node000001" class="node">
<title>Node1</title>
<g id="a_Node000001"><a xlink:title=" ">
<polygon fill="#999999" stroke="#666666" points="464.38,-186 356.88,-186 356.88,-133 464.38,-133 464.38,-186"/>
<text text-anchor="start" x="364.88" y="-172.5" font-family="Times,serif" font-size="10.00">mal&#45;packet&#45;weaver/mal</text>
<text text-anchor="start" x="364.88" y="-161.25" font-family="Times,serif" font-size="10.00">&#45;packet&#45;weaver/packet</text>
<text text-anchor="start" x="364.88" y="-150" font-family="Times,serif" font-size="10.00">&#45;impl/portable&#45;binary</text>
<text text-anchor="middle" x="410.62" y="-138.75" font-family="Times,serif" font-size="10.00">&#45;iarchive.hpp</text>
</a>
</g>
</g>
<!-- Node2 -->
<g id="Node000002" class="node">
<title>Node2</title>
<g id="a_Node000002"><a xlink:title=" ">
<polygon fill="#e0e0e0" stroke="#999999" points="45.25,-91.38 0,-91.38 0,-72.12 45.25,-72.12 45.25,-91.38"/>
<text text-anchor="middle" x="22.62" y="-77.88" font-family="Times,serif" font-size="10.00">istream</text>
</a>
</g>
</g>
<!-- Node1&#45;&gt;Node2 -->
<g id="edge1_Node000001_Node000002" class="edge">
<title>Node1&#45;&gt;Node2</title>
<g id="a_edge1_Node000001_Node000002"><a xlink:title=" ">
<path fill="none" stroke="#63b8ff" d="M356.38,-153.59C285.51,-146.18 158.15,-129.42 53.62,-97 52.52,-96.66 51.41,-96.29 50.29,-95.89"/>
<polygon fill="#63b8ff" stroke="#63b8ff" points="51.93,-92.37 41.34,-91.85 49.29,-98.86 51.93,-92.37"/>
</a>
</g>
</g>
<!-- Node3 -->
<g id="Node000003" class="node">
<title>Node3</title>
<g id="a_Node000003"><a xlink:title=" ">
<polygon fill="#e0e0e0" stroke="#999999" points="152.38,-97 62.88,-97 62.88,-66.5 152.38,-66.5 152.38,-97"/>
<text text-anchor="start" x="70.88" y="-83.5" font-family="Times,serif" font-size="10.00">boost/serialization</text>
<text text-anchor="middle" x="107.62" y="-72.25" font-family="Times,serif" font-size="10.00">/string.hpp</text>
</a>
</g>
</g>
<!-- Node1&#45;&gt;Node3 -->
<g id="edge2_Node000001_Node000003" class="edge">
<title>Node1&#45;&gt;Node3</title>
<g id="a_edge2_Node000001_Node000003"><a xlink:title=" ">
<path fill="none" stroke="#63b8ff" d="M356.65,-145.43C308.44,-133.7 235.62,-115.83 162.94,-97.32"/>
<polygon fill="#63b8ff" stroke="#63b8ff" points="164.25,-93.78 153.69,-94.7 162.52,-100.56 164.25,-93.78"/>
</a>
</g>
</g>
<!-- Node4 -->
<g id="Node000004" class="node">
<title>Node4</title>
<g id="a_Node000004"><a xlink:title=" ">
<polygon fill="#e0e0e0" stroke="#999999" points="280.88,-97 170.38,-97 170.38,-66.5 280.88,-66.5 280.88,-97"/>
<text text-anchor="start" x="178.38" y="-83.5" font-family="Times,serif" font-size="10.00">boost/serialization</text>
<text text-anchor="middle" x="225.62" y="-72.25" font-family="Times,serif" font-size="10.00">/item_version_type.hpp</text>
</a>
</g>
</g>
<!-- Node1&#45;&gt;Node4 -->
<g id="edge3_Node000001_Node000004" class="edge">
<title>Node1&#45;&gt;Node4</title>
<g id="a_edge3_Node000001_Node000004"><a xlink:title=" ">
<path fill="none" stroke="#63b8ff" d="M356.62,-136.39C329.6,-125.32 297.24,-112.07 271.45,-101.51"/>
<polygon fill="#63b8ff" stroke="#63b8ff" points="273.13,-98.01 262.55,-97.46 270.48,-104.49 273.13,-98.01"/>
</a>
</g>
</g>
<!-- Node5 -->
<g id="Node000005" class="node">
<title>Node5</title>
<g id="a_Node000005"><a xlink:title=" ">
<polygon fill="#e0e0e0" stroke="#999999" points="400.38,-97 298.88,-97 298.88,-66.5 400.38,-66.5 400.38,-97"/>
<text text-anchor="start" x="306.88" y="-83.5" font-family="Times,serif" font-size="10.00">boost/archive/archive</text>
<text text-anchor="middle" x="349.62" y="-72.25" font-family="Times,serif" font-size="10.00">_exception.hpp</text>
</a>
</g>
</g>
<!-- Node1&#45;&gt;Node5 -->
<g id="edge4_Node000001_Node000005" class="edge">
<title>Node1&#45;&gt;Node5</title>
<g id="a_edge4_Node000001_Node000005"><a xlink:title=" ">
<path fill="none" stroke="#63b8ff" d="M389.97,-132.85C382.89,-124.06 375.02,-114.29 368.12,-105.72"/>
<polygon fill="#63b8ff" stroke="#63b8ff" points="370.36,-103.92 361.36,-98.32 364.91,-108.31 370.36,-103.92"/>
</a>
</g>
</g>
<!-- Node6 -->
<g id="Node000006" class="node">
<title>Node6</title>
<g id="a_Node000006"><a xlink:title=" ">
<polygon fill="#e0e0e0" stroke="#999999" points="527.12,-97 418.12,-97 418.12,-66.5 527.12,-66.5 527.12,-97"/>
<text text-anchor="start" x="426.12" y="-83.5" font-family="Times,serif" font-size="10.00">boost/archive/basic</text>
<text text-anchor="middle" x="472.62" y="-72.25" font-family="Times,serif" font-size="10.00">_binary_iprimitive.hpp</text>
</a>
</g>
</g>
<!-- Node1&#45;&gt;Node6 -->
<g id="edge5_Node000001_Node000006" class="edge">
<title>Node1&#45;&gt;Node6</title>
<g id="a_edge5_Node000001_Node000006"><a xlink:title=" ">
<path fill="none" stroke="#63b8ff" d="M431.62,-132.85C438.81,-124.06 446.81,-114.29 453.83,-105.72"/>
<polygon fill="#63b8ff" stroke="#63b8ff" points="457.07,-108.28 460.7,-98.32 451.66,-103.84 457.07,-108.28"/>
</a>
</g>
</g>
<!-- Node7 -->
<g id="Node000007" class="node">
<title>Node7</title>
<g id="a_Node000007"><a xlink:title=" ">
<polygon fill="#e0e0e0" stroke="#999999" points="652,-97 545.25,-97 545.25,-66.5 652,-66.5 652,-97"/>
<text text-anchor="start" x="553.25" y="-83.5" font-family="Times,serif" font-size="10.00">boost/archive/detail</text>
<text text-anchor="middle" x="598.62" y="-72.25" font-family="Times,serif" font-size="10.00">/common_iarchive.hpp</text>
</a>
</g>
</g>
<!-- Node1&#45;&gt;Node7 -->
<g id="edge6_Node000001_Node000007" class="edge">
<title>Node1&#45;&gt;Node7</title>
<g id="a_edge6_Node000001_Node000007"><a xlink:title=" ">
<path fill="none" stroke="#63b8ff" d="M464.75,-136.69C492.33,-125.58 525.53,-112.2 551.97,-101.55"/>
<polygon fill="#63b8ff" stroke="#63b8ff" points="553.14,-104.45 561.11,-97.46 550.53,-97.95 553.14,-104.45"/>
</a>
</g>
</g>
<!-- Node8 -->
<g id="Node000008" class="node">
<title>Node8</title>
<g id="a_Node000008"><a xlink:title=" ">
<polygon fill="#e0e0e0" stroke="#999999" points="771,-97 670.25,-97 670.25,-66.5 771,-66.5 771,-97"/>
<text text-anchor="start" x="678.25" y="-83.5" font-family="Times,serif" font-size="10.00">boost/archive/detail</text>
<text text-anchor="middle" x="720.62" y="-72.25" font-family="Times,serif" font-size="10.00">/register_archive.hpp</text>
</a>
</g>
</g>
<!-- Node1&#45;&gt;Node8 -->
<g id="edge7_Node000001_Node000008" class="edge">
<title>Node1&#45;&gt;Node8</title>
<g id="a_edge7_Node000001_Node000008"><a xlink:title=" ">
<path fill="none" stroke="#63b8ff" d="M464.62,-145.31C518.89,-132.04 602.42,-111.63 659.19,-97.76"/>
<polygon fill="#63b8ff" stroke="#63b8ff" points="659.93,-100.94 668.81,-95.17 658.27,-94.14 659.93,-100.94"/>
</a>
</g>
</g>
<!-- Node9 -->
<g id="Node000009" class="node">
<title>Node9</title>
<g id="a_Node000009"><a xlink:href="../../df/d44/portable-binary-archive_8hpp.html" target="_top" xlink:title=" ">
<polygon fill="white" stroke="#666666" points="916.12,-91.38 789.12,-91.38 789.12,-72.12 916.12,-72.12 916.12,-91.38"/>
<text text-anchor="middle" x="852.62" y="-77.88" font-family="Times,serif" font-size="10.00">portable&#45;binary&#45;archive.hpp</text>
</a>
</g>
</g>
<!-- Node1&#45;&gt;Node9 -->
<g id="edge8_Node000001_Node000009" class="edge">
<title>Node1&#45;&gt;Node9</title>
<g id="a_edge8_Node000001_Node000009"><a xlink:title=" ">
<path fill="none" stroke="#63b8ff" d="M464.79,-149.95C536.79,-138.48 667.94,-117.2 779.62,-97 785.05,-96.02 790.69,-94.97 796.32,-93.9"/>
<polygon fill="#63b8ff" stroke="#63b8ff" points="796.94,-97.16 806.1,-91.84 795.62,-90.28 796.94,-97.16"/>
</a>
</g>
</g>
<!-- Node10 -->
<g id="Node000010" class="node">
<title>Node10</title>
<g id="a_Node000010"><a xlink:title=" ">
<polygon fill="#e0e0e0" stroke="#999999" points="628.38,-24.88 544.88,-24.88 544.88,-5.63 628.38,-5.63 628.38,-24.88"/>
<text text-anchor="middle" x="586.62" y="-11.38" font-family="Times,serif" font-size="10.00">boost/config.hpp</text>
</a>
</g>
</g>
<!-- Node9&#45;&gt;Node10 -->
<g id="edge9_Node000009_Node000010" class="edge">
<title>Node9&#45;&gt;Node10</title>
<g id="a_edge9_Node000009_Node000010"><a xlink:title=" ">
<path fill="none" stroke="#63b8ff" d="M811.28,-71.64C767.9,-61.95 697.78,-45.93 637.62,-30.5 634.8,-29.78 631.89,-29.01 628.97,-28.23"/>
<polygon fill="#63b8ff" stroke="#63b8ff" points="629.97,-24.6 619.4,-25.35 628.13,-31.36 629.97,-24.6"/>
</a>
</g>
</g>
<!-- Node11 -->
<g id="Node000011" class="node">
<title>Node11</title>
<g id="a_Node000011"><a xlink:title=" ">
<polygon fill="#e0e0e0" stroke="#999999" points="732.88,-24.88 646.38,-24.88 646.38,-5.63 732.88,-5.63 732.88,-24.88"/>
<text text-anchor="middle" x="689.62" y="-11.38" font-family="Times,serif" font-size="10.00">boost/cstdint.hpp</text>
</a>
</g>
</g>
<!-- Node9&#45;&gt;Node11 -->
<g id="edge10_Node000009_Node000011" class="edge">
<title>Node9&#45;&gt;Node11</title>
<g id="a_edge10_Node000009_Node000011"><a xlink:title=" ">
<path fill="none" stroke="#63b8ff" d="M829.62,-71.65C801.71,-60.6 754.45,-41.9 722.66,-29.32"/>
<polygon fill="#63b8ff" stroke="#63b8ff" points="724.1,-25.73 713.52,-25.31 721.53,-32.24 724.1,-25.73"/>
</a>
</g>
</g>
<!-- Node12 -->
<g id="Node000012" class="node">
<title>Node12</title>
<g id="a_Node000012"><a xlink:title=" ">
<polygon fill="#e0e0e0" stroke="#999999" points="860.12,-24.88 751.12,-24.88 751.12,-5.63 860.12,-5.63 860.12,-24.88"/>
<text text-anchor="middle" x="805.62" y="-11.38" font-family="Times,serif" font-size="10.00">boost/static_assert.hpp</text>
</a>
</g>
</g>
<!-- Node9&#45;&gt;Node12 -->
<g id="edge11_Node000009_Node000012" class="edge">
<title>Node9&#45;&gt;Node12</title>
<g id="a_edge11_Node000009_Node000012"><a xlink:title=" ">
<path fill="none" stroke="#63b8ff" d="M846.09,-71.78C838.93,-61.96 827.29,-45.98 818.32,-33.67"/>
<polygon fill="#63b8ff" stroke="#63b8ff" points="820.82,-32.16 812.1,-26.14 815.17,-36.29 820.82,-32.16"/>
</a>
</g>
</g>
<!-- Node13 -->
<g id="Node000013" class="node">
<title>Node13</title>
<g id="a_Node000013"><a xlink:title=" ">
<polygon fill="#e0e0e0" stroke="#999999" points="920.75,-24.88 878.5,-24.88 878.5,-5.63 920.75,-5.63 920.75,-24.88"/>
<text text-anchor="middle" x="899.62" y="-11.38" font-family="Times,serif" font-size="10.00">climits</text>
</a>
</g>
</g>
<!-- Node9&#45;&gt;Node13 -->
<g id="edge12_Node000009_Node000013" class="edge">
<title>Node9&#45;&gt;Node13</title>
<g id="a_edge12_Node000009_Node000013"><a xlink:title=" ">
<path fill="none" stroke="#63b8ff" d="M859.16,-71.78C866.32,-61.96 877.96,-45.98 886.93,-33.67"/>
<polygon fill="#63b8ff" stroke="#63b8ff" points="890.08,-36.29 893.15,-26.14 884.43,-32.16 890.08,-36.29"/>
</a>
</g>
</g>
<!-- Node14 -->
<g id="Node000014" class="node">
<title>Node14</title>
<g id="a_Node000014"><a xlink:title=" ">
<polygon fill="#e0e0e0" stroke="#999999" points="1032.25,-30.5 939,-30.5 939,0 1032.25,0 1032.25,-30.5"/>
<text text-anchor="start" x="947" y="-17" font-family="Times,serif" font-size="10.00">boost/archive/basic</text>
<text text-anchor="middle" x="985.62" y="-5.75" font-family="Times,serif" font-size="10.00">_archive.hpp</text>
</a>
</g>
</g>
<!-- Node9&#45;&gt;Node14 -->
<g id="edge13_Node000009_Node000014" class="edge">
<title>Node9&#45;&gt;Node14</title>
<g id="a_edge13_Node000009_Node000014"><a xlink:title=" ">
<path fill="none" stroke="#63b8ff" d="M871.4,-71.65C890.59,-62.34 921,-47.59 945.62,-35.65"/>
<polygon fill="#63b8ff" stroke="#63b8ff" points="946.95,-38.41 954.42,-30.9 943.89,-32.11 946.95,-38.41"/>
</a>
</g>
</g>
<!-- Node15 -->
<g id="Node000015" class="node">
<title>Node15</title>
<g id="a_Node000015"><a xlink:title=" ">
<polygon fill="#e0e0e0" stroke="#999999" points="1142.88,-30.5 1050.38,-30.5 1050.38,0 1142.88,0 1142.88,-30.5"/>
<text text-anchor="start" x="1058.38" y="-17" font-family="Times,serif" font-size="10.00">boost/predef/other</text>
<text text-anchor="middle" x="1096.62" y="-5.75" font-family="Times,serif" font-size="10.00">/endian.h</text>
</a>
</g>
</g>
<!-- Node9&#45;&gt;Node15 -->
<g id="edge14_Node000009_Node000015" class="edge">
<title>Node9&#45;&gt;Node15</title>
<g id="a_edge14_Node000009_Node000015"><a xlink:title=" ">
<path fill="none" stroke="#63b8ff" d="M887.07,-71.65C926.76,-61.15 992.58,-43.75 1039.87,-31.25"/>
<polygon fill="#63b8ff" stroke="#63b8ff" points="1040.49,-34.44 1049.27,-28.5 1038.7,-27.68 1040.49,-34.44"/>
</a>
</g>
</g>
</g>
</svg>

<g id="navigator" transform="translate(0 0)" fill="#404254">
  <rect fill="#f2f5e9" fill-opacity="0.5" stroke="#606060" stroke-width=".5" x="0" y="0" width="60" height="60"/>
  <use id="zoomplus" xlink:href="#zoomPlus" x="17" y="9" onmousedown="handleZoom(evt,'in')"/>
  <use id="zoomminus" xlink:href="#zoomMin" x="42" y="9" onmousedown="handleZoom(evt,'out')"/>
  <use id="reset" xlink:href="#resetDef" x="30" y="36" onmousedown="handleReset()"/>
   <use id="arrowup" xlink:href="#arrowUp" x="0" y="0" onmousedown="handlePan(0,-1)"/>
  <use id="arrowright" xlink:href="#arrowRight" x="0" y="0" onmousedown="handlePan(1,0)"/>
  <use id="arrowdown" xlink:href="#arrowDown" x="0" y="0" onmousedown="handlePan(0,1)"/>
  <use id="arrowleft" xlink:href="#arrowLeft" x="0" y="0" onmousedown="handlePan(-1,0)"/>
</g>
<svg viewBox="0 0 15 15" width="100%" height="30px" preserveAspectRatio="xMaxYMin meet">
 <g id="arrow_out" transform="scale(0.3 0.3)">
  <a xlink:href="portable-binary-iarchive_8hpp__incl_org.svg" target="_base">
   <rect id="button" ry="5" rx="5" y="6" x="6" height="38" width="38"
        fill="#f2f5e9" fill-opacity="0.5" stroke="#606060" stroke-width="1.0"/>
   <path id="arrow"
     d="M 11.500037,31.436501 C 11.940474,20.09759 22.043105,11.32322 32.158766,21.979434 L 37.068811,17.246167 C 37.068811,17.246167 37.088388,32 37.088388,32 L 22.160133,31.978069 C 22.160133,31.978069 26.997745,27.140456 26.997745,27.140456 C 18.528582,18.264221 13.291696,25.230495 11.500037,31.436501 z"
     style="fill:#404040;"/>
  </a>
 </g>
</svg>

<style type='text/css'>
<![CDATA[
[data-mouse-over-selected='false'] { opacity: 0.7; }
[data-mouse-over-selected='true']  { opacity: 1.0; }
]]>
</style>
<script type="application/ecmascript"><![CDATA[
document.addEventListener('DOMContentLoaded', (event) => {
  highlightEdges();
  highlightAdjacentNodes();
});
]]></script>
</svg>
