<?xml version="1.0" encoding="UTF-8" standalone="no"?>
<!DOCTYPE svg PUBLIC "-//W3C//DTD SVG 1.1//EN"
 "http://www.w3.org/Graphics/SVG/1.1/DTD/svg11.dtd">
<!-- Generated by graphviz version 8.1.0 (20230707.0739)
 -->
<!-- Title: third_party/mal&#45;toolkit/mal&#45;toolkit/mal&#45;toolkit/win&#45;utils.hpp Pages: 1 -->
<!--zoomable 160 -->

<svg id="main" version="1.1" xmlns="http://www.w3.org/2000/svg" xmlns:xlink="http://www.w3.org/1999/xlink" xml:space="preserve" onload="init(evt)">
<style type="text/css"><![CDATA[
.node, .edge {opacity: 0.7;}
.node.selected, .edge.selected {opacity: 1;}
.edge:hover path { stroke: red; }
.edge:hover polygon { stroke: red; fill: red; }
]]></style>

<defs>
  <circle id="rim" cx="0" cy="0" r="7"/>
  <circle id="rim2" cx="0" cy="0" r="3.5"/>
  <g id="zoomPlus">
    <use xlink:href="#rim" fill="#404040"><set attributeName="fill" to="#808080" begin="zoomplus.mouseover" end="zoomplus.mouseout"/></use>
    <path d="M-4,0h8M0,-4v8" fill="none" stroke="white" stroke-width="1.5" pointer-events="none"/>
  </g>
  <g id="zoomMin">
    <use xlink:href="#rim" fill="#404040"><set attributeName="fill" to="#808080" begin="zoomminus.mouseover" end="zoomminus.mouseout"/></use>
    <path d="M-4,0h8" fill="none" stroke="white" stroke-width="1.5" pointer-events="none"/>
  </g>
  <g id="arrowUp" transform="translate(30 24)">
    <use xlink:href="#rim"/>
    <path pointer-events="none" fill="none" stroke="white" stroke-width="1.5" d="M0,-3.0v7 M-2.5,-0.5L0,-3.0L2.5,-0.5"/>
  </g>
  <g id="arrowRight" transform="rotate(90) translate(36 -43)">
    <use xlink:href="#rim"/>
    <path pointer-events="none" fill="none" stroke="white" stroke-width="1.5" d="M0,-3.0v7 M-2.5,-0.5L0,-3.0L2.5,-0.5"/>
  </g>
  <g id="arrowDown" transform="rotate(180) translate(-30 -48)">
    <use xlink:href="#rim"/>
    <path pointer-events="none" fill="none" stroke="white" stroke-width="1.5" d="M0,-3.0v7 M-2.5,-0.5L0,-3.0L2.5,-0.5"/>
  </g>
  <g id="arrowLeft" transform="rotate(270) translate(-36 17)">
    <use xlink:href="#rim"/>
    <path pointer-events="none" fill="none" stroke="white" stroke-width="1.5" d="M0,-3.0v7 M-2.5,-0.5L0,-3.0L2.5,-0.5"/>
  </g>
  <g id="resetDef">
    <use xlink:href="#rim2" fill="#404040"><set attributeName="fill" to="#808080" begin="reset.mouseover" end="reset.mouseout"/></use>
  </g>
</defs>
<script type="application/ecmascript">
var viewWidth = 2248;
var viewHeight = 160;
var sectionId = 'dynsection-0';
</script>
<script type="application/ecmascript" xlink:href="../../svg.min.js"/>
<svg id="graph" class="graph">
<g id="viewport">
<title>third_party/mal&#45;toolkit/mal&#45;toolkit/mal&#45;toolkit/win&#45;utils.hpp</title>
<!-- Node1 -->
<g id="Node000001" class="node">
<title>Node1</title>
<g id="a_Node000001"><a xlink:title="Provides various Windows&#45;specific utility functions and macros.">
<polygon fill="#999999" stroke="#666666" points="1213.5,-152.25 1106,-152.25 1106,-110.5 1213.5,-110.5 1213.5,-152.25"/>
<text text-anchor="start" x="1114" y="-138.75" font-family="Times,serif" font-size="10.00">third_party/mal&#45;toolkit</text>
<text text-anchor="start" x="1114" y="-127.5" font-family="Times,serif" font-size="10.00">/mal&#45;toolkit/mal&#45;toolkit</text>
<text text-anchor="middle" x="1159.75" y="-116.25" font-family="Times,serif" font-size="10.00">/win&#45;utils.hpp</text>
</a>
</g>
</g>
<!-- Node2 -->
<g id="Node000002" class="node">
<title>Node2</title>
<g id="a_Node000002"><a xlink:href="../../db/d6e/library-pch_8hpp.html" target="_top" xlink:title="Precompiled header (PCH) file for common headers used across the library.">
<polygon fill="white" stroke="#666666" points="1150.25,-74.5 1071.25,-74.5 1071.25,-55.25 1150.25,-55.25 1150.25,-74.5"/>
<text text-anchor="middle" x="1110.75" y="-61" font-family="Times,serif" font-size="10.00">library&#45;pch.hpp</text>
</a>
</g>
</g>
<!-- Node1&#45;&gt;Node2 -->
<g id="edge1_Node000001_Node000002" class="edge">
<title>Node1&#45;&gt;Node2</title>
<g id="a_edge1_Node000001_Node000002"><a xlink:title=" ">
<path fill="none" stroke="#63b8ff" d="M1144.51,-110.32C1137.98,-101.72 1130.42,-91.77 1124.11,-83.46"/>
<polygon fill="#63b8ff" stroke="#63b8ff" points="1126.48,-81.79 1117.64,-75.95 1120.9,-86.03 1126.48,-81.79"/>
</a>
</g>
</g>
<!-- Node37 -->
<g id="Node000037" class="node">
<title>Node37</title>
<g id="a_Node000037"><a xlink:href="../../d4/d98/win_8hpp.html" target="_top" xlink:title="Provides general Windows&#45;specific utilities and includes necessary headers.">
<polygon fill="white" stroke="#666666" points="1249.38,-74.5 1168.12,-74.5 1168.12,-55.25 1249.38,-55.25 1249.38,-74.5"/>
<text text-anchor="middle" x="1208.75" y="-61" font-family="Times,serif" font-size="10.00">include/win.hpp</text>
</a>
</g>
</g>
<!-- Node1&#45;&gt;Node37 -->
<g id="edge36_Node000001_Node000037" class="edge">
<title>Node1&#45;&gt;Node37</title>
<g id="a_edge36_Node000001_Node000037"><a xlink:title=" ">
<path fill="none" stroke="#63b8ff" d="M1174.99,-110.32C1181.52,-101.72 1189.08,-91.77 1195.39,-83.46"/>
<polygon fill="#63b8ff" stroke="#63b8ff" points="1198.6,-86.03 1201.86,-75.95 1193.02,-81.79 1198.6,-86.03"/>
</a>
</g>
</g>
<!-- Node3 -->
<g id="Node000003" class="node">
<title>Node3</title>
<g id="a_Node000003"><a xlink:title=" ">
<polygon fill="#e0e0e0" stroke="#999999" points="53.5,-19.25 0,-19.25 0,0 53.5,0 53.5,-19.25"/>
<text text-anchor="middle" x="26.75" y="-5.75" font-family="Times,serif" font-size="10.00">algorithm</text>
</a>
</g>
</g>
<!-- Node2&#45;&gt;Node3 -->
<g id="edge2_Node000002_Node000003" class="edge">
<title>Node2&#45;&gt;Node3</title>
<g id="a_edge2_Node000002_Node000003"><a xlink:title=" ">
<path fill="none" stroke="#63b8ff" d="M1070.8,-63.2C906.81,-60.29 284.1,-47.66 64.54,-19.15"/>
<polygon fill="#63b8ff" stroke="#63b8ff" points="65.15,-15.56 54.77,-17.69 64.21,-22.5 65.15,-15.56"/>
</a>
</g>
</g>
<!-- Node4 -->
<g id="Node000004" class="node">
<title>Node4</title>
<g id="a_Node000004"><a xlink:title=" ">
<polygon fill="#e0e0e0" stroke="#999999" points="107.88,-19.25 71.62,-19.25 71.62,0 107.88,0 107.88,-19.25"/>
<text text-anchor="middle" x="89.75" y="-5.75" font-family="Times,serif" font-size="10.00">array</text>
</a>
</g>
</g>
<!-- Node2&#45;&gt;Node4 -->
<g id="edge3_Node000002_Node000004" class="edge">
<title>Node2&#45;&gt;Node4</title>
<g id="a_edge3_Node000002_Node000004"><a xlink:title=" ">
<path fill="none" stroke="#63b8ff" d="M1070.95,-63.43C912.68,-61.47 326.84,-52.21 119.05,-18.86"/>
<polygon fill="#63b8ff" stroke="#63b8ff" points="119.71,-15.25 109.27,-17.05 118.55,-22.16 119.71,-15.25"/>
</a>
</g>
</g>
<!-- Node5 -->
<g id="Node000005" class="node">
<title>Node5</title>
<g id="a_Node000005"><a xlink:title=" ">
<polygon fill="#e0e0e0" stroke="#999999" points="173.12,-19.25 126.38,-19.25 126.38,0 173.12,0 173.12,-19.25"/>
<text text-anchor="middle" x="149.75" y="-5.75" font-family="Times,serif" font-size="10.00">assert.h</text>
</a>
</g>
</g>
<!-- Node2&#45;&gt;Node5 -->
<g id="edge4_Node000002_Node000005" class="edge">
<title>Node2&#45;&gt;Node5</title>
<g id="a_edge4_Node000002_Node000005"><a xlink:title=" ">
<path fill="none" stroke="#63b8ff" d="M1070.95,-63.1C919.42,-59.99 377.74,-47.25 184,-19.21"/>
<polygon fill="#63b8ff" stroke="#63b8ff" points="184.8,-15.64 174.39,-17.61 183.76,-22.56 184.8,-15.64"/>
</a>
</g>
</g>
<!-- Node6 -->
<g id="Node000006" class="node">
<title>Node6</title>
<g id="a_Node000006"><a xlink:title=" ">
<polygon fill="#e0e0e0" stroke="#999999" points="234.25,-19.25 191.25,-19.25 191.25,0 234.25,0 234.25,-19.25"/>
<text text-anchor="middle" x="212.75" y="-5.75" font-family="Times,serif" font-size="10.00">chrono</text>
</a>
</g>
</g>
<!-- Node2&#45;&gt;Node6 -->
<g id="edge5_Node000002_Node000006" class="edge">
<title>Node2&#45;&gt;Node6</title>
<g id="a_edge5_Node000002_Node000006"><a xlink:title=" ">
<path fill="none" stroke="#63b8ff" d="M1070.85,-62.99C925.92,-59.58 426.81,-46.26 245.35,-19.04"/>
<polygon fill="#63b8ff" stroke="#63b8ff" points="246.05,-15.45 235.63,-17.36 244.97,-22.37 246.05,-15.45"/>
</a>
</g>
</g>
<!-- Node7 -->
<g id="Node000007" class="node">
<title>Node7</title>
<g id="a_Node000007"><a xlink:title=" ">
<polygon fill="#e0e0e0" stroke="#999999" points="293.12,-19.25 252.38,-19.25 252.38,0 293.12,0 293.12,-19.25"/>
<text text-anchor="middle" x="272.75" y="-5.75" font-family="Times,serif" font-size="10.00">cmath</text>
</a>
</g>
</g>
<!-- Node2&#45;&gt;Node7 -->
<g id="edge6_Node000002_Node000007" class="edge">
<title>Node2&#45;&gt;Node7</title>
<g id="a_edge6_Node000002_Node000007"><a xlink:title=" ">
<path fill="none" stroke="#63b8ff" d="M1071.16,-62.87C933.23,-59.17 473.56,-45.32 304.31,-19.02"/>
<polygon fill="#63b8ff" stroke="#63b8ff" points="305.03,-15.42 294.59,-17.27 303.9,-22.33 305.03,-15.42"/>
</a>
</g>
</g>
<!-- Node8 -->
<g id="Node000008" class="node">
<title>Node8</title>
<g id="a_Node000008"><a xlink:title=" ">
<polygon fill="#e0e0e0" stroke="#999999" points="362,-19.25 311.5,-19.25 311.5,0 362,0 362,-19.25"/>
<text text-anchor="middle" x="336.75" y="-5.75" font-family="Times,serif" font-size="10.00">concepts</text>
</a>
</g>
</g>
<!-- Node2&#45;&gt;Node8 -->
<g id="edge7_Node000002_Node000008" class="edge">
<title>Node2&#45;&gt;Node8</title>
<g id="a_edge7_Node000002_Node000008"><a xlink:title=" ">
<path fill="none" stroke="#63b8ff" d="M1070.83,-64C960.96,-63.8 644.86,-59.62 373.12,-19.12"/>
<polygon fill="#63b8ff" stroke="#63b8ff" points="373.67,-15.51 363.26,-17.48 372.62,-22.43 373.67,-15.51"/>
</a>
</g>
</g>
<!-- Node9 -->
<g id="Node000009" class="node">
<title>Node9</title>
<g id="a_Node000009"><a xlink:title=" ">
<polygon fill="#e0e0e0" stroke="#999999" points="469.12,-19.25 380.38,-19.25 380.38,0 469.12,0 469.12,-19.25"/>
<text text-anchor="middle" x="424.75" y="-5.75" font-family="Times,serif" font-size="10.00">condition_variable</text>
</a>
</g>
</g>
<!-- Node2&#45;&gt;Node9 -->
<g id="edge8_Node000002_Node000009" class="edge">
<title>Node2&#45;&gt;Node9</title>
<g id="a_edge8_Node000002_Node000009"><a xlink:title=" ">
<path fill="none" stroke="#63b8ff" d="M1071.01,-62.33C972.62,-58.24 709.65,-45.66 480.42,-19.46"/>
<polygon fill="#63b8ff" stroke="#63b8ff" points="480.86,-15.88 470.53,-18.21 480.06,-22.83 480.86,-15.88"/>
</a>
</g>
</g>
<!-- Node10 -->
<g id="Node000010" class="node">
<title>Node10</title>
<g id="a_Node000010"><a xlink:title=" ">
<polygon fill="#e0e0e0" stroke="#999999" points="530.25,-19.25 487.25,-19.25 487.25,0 530.25,0 530.25,-19.25"/>
<text text-anchor="middle" x="508.75" y="-5.75" font-family="Times,serif" font-size="10.00">cstdint</text>
</a>
</g>
</g>
<!-- Node2&#45;&gt;Node10 -->
<g id="edge9_Node000002_Node000010" class="edge">
<title>Node2&#45;&gt;Node10</title>
<g id="a_edge9_Node000002_Node000010"><a xlink:title=" ">
<path fill="none" stroke="#63b8ff" d="M1070.87,-63.52C978.82,-62.13 744.45,-55.21 541.16,-19.35"/>
<polygon fill="#63b8ff" stroke="#63b8ff" points="542.04,-15.78 531.58,-17.45 540.81,-22.67 542.04,-15.78"/>
</a>
</g>
</g>
<!-- Node11 -->
<g id="Node000011" class="node">
<title>Node11</title>
<g id="a_Node000011"><a xlink:title=" ">
<polygon fill="#e0e0e0" stroke="#999999" points="591.25,-19.25 548.25,-19.25 548.25,0 591.25,0 591.25,-19.25"/>
<text text-anchor="middle" x="569.75" y="-5.75" font-family="Times,serif" font-size="10.00">cstdlib</text>
</a>
</g>
</g>
<!-- Node2&#45;&gt;Node11 -->
<g id="edge10_Node000002_Node000011" class="edge">
<title>Node2&#45;&gt;Node11</title>
<g id="a_edge10_Node000002_Node000011"><a xlink:title=" ">
<path fill="none" stroke="#63b8ff" d="M1070.97,-63.01C986.21,-60.6 781.53,-51.82 602.27,-19.4"/>
<polygon fill="#63b8ff" stroke="#63b8ff" points="603.06,-15.8 592.59,-17.43 601.79,-22.68 603.06,-15.8"/>
</a>
</g>
</g>
<!-- Node12 -->
<g id="Node000012" class="node">
<title>Node12</title>
<g id="a_Node000012"><a xlink:title=" ">
<polygon fill="#e0e0e0" stroke="#999999" points="664.25,-19.25 609.25,-19.25 609.25,0 664.25,0 664.25,-19.25"/>
<text text-anchor="middle" x="636.75" y="-5.75" font-family="Times,serif" font-size="10.00">filesystem</text>
</a>
</g>
</g>
<!-- Node2&#45;&gt;Node12 -->
<g id="edge11_Node000002_Node000012" class="edge">
<title>Node2&#45;&gt;Node12</title>
<g id="a_edge11_Node000002_Node000012"><a xlink:title=" ">
<path fill="none" stroke="#63b8ff" d="M1070.95,-61.61C995.47,-56.92 826.2,-44.57 674.98,-19.43"/>
<polygon fill="#63b8ff" stroke="#63b8ff" points="676.03,-15.89 665.58,-17.68 674.86,-22.8 676.03,-15.89"/>
</a>
</g>
</g>
<!-- Node13 -->
<g id="Node000013" class="node">
<title>Node13</title>
<g id="a_Node000013"><a xlink:title=" ">
<polygon fill="#e0e0e0" stroke="#999999" points="727.38,-19.25 682.12,-19.25 682.12,0 727.38,0 727.38,-19.25"/>
<text text-anchor="middle" x="704.75" y="-5.75" font-family="Times,serif" font-size="10.00">fstream</text>
</a>
</g>
</g>
<!-- Node2&#45;&gt;Node13 -->
<g id="edge12_Node000002_Node000013" class="edge">
<title>Node2&#45;&gt;Node13</title>
<g id="a_edge12_Node000002_Node000013"><a xlink:title=" ">
<path fill="none" stroke="#63b8ff" d="M1070.88,-61.02C1004.06,-55.83 865.16,-43.27 738.39,-19.29"/>
<polygon fill="#63b8ff" stroke="#63b8ff" points="739.21,-15.7 728.73,-17.24 737.89,-22.57 739.21,-15.7"/>
</a>
</g>
</g>
<!-- Node14 -->
<g id="Node000014" class="node">
<title>Node14</title>
<g id="a_Node000014"><a xlink:title=" ">
<polygon fill="#e0e0e0" stroke="#999999" points="799.88,-19.25 745.62,-19.25 745.62,0 799.88,0 799.88,-19.25"/>
<text text-anchor="middle" x="772.75" y="-5.75" font-family="Times,serif" font-size="10.00">functional</text>
</a>
</g>
</g>
<!-- Node2&#45;&gt;Node14 -->
<g id="edge13_Node000002_Node000014" class="edge">
<title>Node2&#45;&gt;Node14</title>
<g id="a_edge13_Node000002_Node000014"><a xlink:title=" ">
<path fill="none" stroke="#63b8ff" d="M1070.99,-59.14C1015.09,-52.23 909.89,-38.33 811,-19.54"/>
<polygon fill="#63b8ff" stroke="#63b8ff" points="811.69,-15.92 801.21,-17.47 810.37,-22.79 811.69,-15.92"/>
</a>
</g>
</g>
<!-- Node15 -->
<g id="Node000015" class="node">
<title>Node15</title>
<g id="a_Node000015"><a xlink:title=" ">
<polygon fill="#e0e0e0" stroke="#999999" points="865.88,-19.25 817.62,-19.25 817.62,0 865.88,0 865.88,-19.25"/>
<text text-anchor="middle" x="841.75" y="-5.75" font-family="Times,serif" font-size="10.00">iomanip</text>
</a>
</g>
</g>
<!-- Node2&#45;&gt;Node15 -->
<g id="edge14_Node000002_Node000015" class="edge">
<title>Node2&#45;&gt;Node15</title>
<g id="a_edge14_Node000002_Node000015"><a xlink:title=" ">
<path fill="none" stroke="#63b8ff" d="M1070.91,-57.2C1025.97,-49.49 950.47,-35.96 876.62,-19.55"/>
<polygon fill="#63b8ff" stroke="#63b8ff" points="877.74,-15.99 867.21,-17.22 876.2,-22.82 877.74,-15.99"/>
</a>
</g>
</g>
<!-- Node16 -->
<g id="Node000016" class="node">
<title>Node16</title>
<g id="a_Node000016"><a xlink:title=" ">
<polygon fill="#e0e0e0" stroke="#999999" points="929.38,-19.25 884.12,-19.25 884.12,0 929.38,0 929.38,-19.25"/>
<text text-anchor="middle" x="906.75" y="-5.75" font-family="Times,serif" font-size="10.00">istream</text>
</a>
</g>
</g>
<!-- Node2&#45;&gt;Node16 -->
<g id="edge15_Node000002_Node000016" class="edge">
<title>Node2&#45;&gt;Node16</title>
<g id="a_edge15_Node000002_Node000016"><a xlink:title=" ">
<path fill="none" stroke="#63b8ff" d="M1075.48,-54.83C1042.87,-46.44 992.78,-33.5 940.33,-19.65"/>
<polygon fill="#63b8ff" stroke="#63b8ff" points="941.38,-16.04 930.82,-16.87 939.59,-22.81 941.38,-16.04"/>
</a>
</g>
</g>
<!-- Node17 -->
<g id="Node000017" class="node">
<title>Node17</title>
<g id="a_Node000017"><a xlink:title=" ">
<polygon fill="#e0e0e0" stroke="#999999" points="985.62,-19.25 947.88,-19.25 947.88,0 985.62,0 985.62,-19.25"/>
<text text-anchor="middle" x="966.75" y="-5.75" font-family="Times,serif" font-size="10.00">limits</text>
</a>
</g>
</g>
<!-- Node2&#45;&gt;Node17 -->
<g id="edge16_Node000002_Node000017" class="edge">
<title>Node2&#45;&gt;Node17</title>
<g id="a_edge16_Node000002_Node000017"><a xlink:title=" ">
<path fill="none" stroke="#63b8ff" d="M1086.32,-54.84C1061.36,-45.61 1022.58,-31.27 995.99,-21.44"/>
<polygon fill="#63b8ff" stroke="#63b8ff" points="997.36,-17.84 986.77,-17.66 994.93,-24.41 997.36,-17.84"/>
</a>
</g>
</g>
<!-- Node18 -->
<g id="Node000018" class="node">
<title>Node18</title>
<g id="a_Node000018"><a xlink:title=" ">
<polygon fill="#e0e0e0" stroke="#999999" points="1037.38,-19.25 1004.12,-19.25 1004.12,0 1037.38,0 1037.38,-19.25"/>
<text text-anchor="middle" x="1020.75" y="-5.75" font-family="Times,serif" font-size="10.00">map</text>
</a>
</g>
</g>
<!-- Node2&#45;&gt;Node18 -->
<g id="edge17_Node000002_Node000018" class="edge">
<title>Node2&#45;&gt;Node18</title>
<g id="a_edge17_Node000002_Node000018"><a xlink:title=" ">
<path fill="none" stroke="#63b8ff" d="M1095.48,-54.84C1081.78,-46.73 1061.41,-34.68 1045.4,-25.21"/>
<polygon fill="#63b8ff" stroke="#63b8ff" points="1047.48,-21.78 1037.09,-19.7 1043.92,-27.81 1047.48,-21.78"/>
</a>
</g>
</g>
<!-- Node19 -->
<g id="Node000019" class="node">
<title>Node19</title>
<g id="a_Node000019"><a xlink:title=" ">
<polygon fill="#e0e0e0" stroke="#999999" points="1103.88,-19.25 1055.62,-19.25 1055.62,0 1103.88,0 1103.88,-19.25"/>
<text text-anchor="middle" x="1079.75" y="-5.75" font-family="Times,serif" font-size="10.00">memory</text>
</a>
</g>
</g>
<!-- Node2&#45;&gt;Node19 -->
<g id="edge18_Node000002_Node000019" class="edge">
<title>Node2&#45;&gt;Node19</title>
<g id="a_edge18_Node000002_Node000019"><a xlink:title=" ">
<path fill="none" stroke="#63b8ff" d="M1105.63,-55.08C1101.53,-48.03 1095.63,-37.9 1090.5,-29.08"/>
<polygon fill="#63b8ff" stroke="#63b8ff" points="1093.04,-27.49 1084.98,-20.61 1086.99,-31.01 1093.04,-27.49"/>
</a>
</g>
</g>
<!-- Node20 -->
<g id="Node000020" class="node">
<title>Node20</title>
<g id="a_Node000020"><a xlink:title=" ">
<polygon fill="#e0e0e0" stroke="#999999" points="1163.12,-19.25 1122.38,-19.25 1122.38,0 1163.12,0 1163.12,-19.25"/>
<text text-anchor="middle" x="1142.75" y="-5.75" font-family="Times,serif" font-size="10.00">mutex</text>
</a>
</g>
</g>
<!-- Node2&#45;&gt;Node20 -->
<g id="edge19_Node000002_Node000020" class="edge">
<title>Node2&#45;&gt;Node20</title>
<g id="a_edge19_Node000002_Node000020"><a xlink:title=" ">
<path fill="none" stroke="#63b8ff" d="M1116.03,-55.08C1120.32,-47.96 1126.49,-37.68 1131.83,-28.8"/>
<polygon fill="#63b8ff" stroke="#63b8ff" points="1135.2,-30.98 1137.35,-20.61 1129.2,-27.38 1135.2,-30.98"/>
</a>
</g>
</g>
<!-- Node21 -->
<g id="Node000021" class="node">
<title>Node21</title>
<g id="a_Node000021"><a xlink:title=" ">
<polygon fill="#e0e0e0" stroke="#999999" points="1232,-19.25 1181.5,-19.25 1181.5,0 1232,0 1232,-19.25"/>
<text text-anchor="middle" x="1206.75" y="-5.75" font-family="Times,serif" font-size="10.00">numbers</text>
</a>
</g>
</g>
<!-- Node2&#45;&gt;Node21 -->
<g id="edge20_Node000002_Node000021" class="edge">
<title>Node2&#45;&gt;Node21</title>
<g id="a_edge20_Node000002_Node000021"><a xlink:title=" ">
<path fill="none" stroke="#63b8ff" d="M1127.04,-54.84C1141.79,-46.66 1163.79,-34.46 1180.94,-24.94"/>
<polygon fill="#63b8ff" stroke="#63b8ff" points="1182.34,-27.61 1189.39,-19.7 1178.94,-21.49 1182.34,-27.61"/>
</a>
</g>
</g>
<!-- Node22 -->
<g id="Node000022" class="node">
<title>Node22</title>
<g id="a_Node000022"><a xlink:title=" ">
<polygon fill="#e0e0e0" stroke="#999999" points="1297.88,-19.25 1249.62,-19.25 1249.62,0 1297.88,0 1297.88,-19.25"/>
<text text-anchor="middle" x="1273.75" y="-5.75" font-family="Times,serif" font-size="10.00">numeric</text>
</a>
</g>
</g>
<!-- Node2&#45;&gt;Node22 -->
<g id="edge21_Node000002_Node000022" class="edge">
<title>Node2&#45;&gt;Node22</title>
<g id="a_edge21_Node000002_Node000022"><a xlink:title=" ">
<path fill="none" stroke="#63b8ff" d="M1138.4,-54.84C1166.07,-45.8 1208.72,-31.87 1238.73,-22.06"/>
<polygon fill="#63b8ff" stroke="#63b8ff" points="1239.75,-25.09 1248.17,-18.66 1237.58,-18.43 1239.75,-25.09"/>
</a>
</g>
</g>
<!-- Node23 -->
<g id="Node000023" class="node">
<title>Node23</title>
<g id="a_Node000023"><a xlink:title=" ">
<polygon fill="#e0e0e0" stroke="#999999" points="1363.12,-19.25 1316.38,-19.25 1316.38,0 1363.12,0 1363.12,-19.25"/>
<text text-anchor="middle" x="1339.75" y="-5.75" font-family="Times,serif" font-size="10.00">optional</text>
</a>
</g>
</g>
<!-- Node2&#45;&gt;Node23 -->
<g id="edge22_Node000002_Node000023" class="edge">
<title>Node2&#45;&gt;Node23</title>
<g id="a_edge22_Node000002_Node000023"><a xlink:title=" ">
<path fill="none" stroke="#63b8ff" d="M1150.63,-55.19C1188.13,-46.93 1246.08,-33.94 1305.63,-19.46"/>
<polygon fill="#63b8ff" stroke="#63b8ff" points="1306.1,-22.71 1314.98,-16.93 1304.43,-15.91 1306.1,-22.71"/>
</a>
</g>
</g>
<!-- Node24 -->
<g id="Node000024" class="node">
<title>Node24</title>
<g id="a_Node000024"><a xlink:title=" ">
<polygon fill="#e0e0e0" stroke="#999999" points="1428.5,-19.25 1381,-19.25 1381,0 1428.5,0 1428.5,-19.25"/>
<text text-anchor="middle" x="1404.75" y="-5.75" font-family="Times,serif" font-size="10.00">ostream</text>
</a>
</g>
</g>
<!-- Node2&#45;&gt;Node24 -->
<g id="edge23_Node000002_Node000024" class="edge">
<title>Node2&#45;&gt;Node24</title>
<g id="a_edge23_Node000002_Node000024"><a xlink:title=" ">
<path fill="none" stroke="#63b8ff" d="M1150.56,-56.69C1153.33,-56.2 1156.08,-55.72 1158.75,-55.25 1250.01,-39.34 1276.07,-39.38 1370.1,-19.44"/>
<polygon fill="#63b8ff" stroke="#63b8ff" points="1370.61,-22.7 1379.66,-17.18 1369.15,-15.86 1370.61,-22.7"/>
</a>
</g>
</g>
<!-- Node25 -->
<g id="Node000025" class="node">
<title>Node25</title>
<g id="a_Node000025"><a xlink:title=" ">
<polygon fill="#e0e0e0" stroke="#999999" points="1492.75,-19.25 1446.75,-19.25 1446.75,0 1492.75,0 1492.75,-19.25"/>
<text text-anchor="middle" x="1469.75" y="-5.75" font-family="Times,serif" font-size="10.00">random</text>
</a>
</g>
</g>
<!-- Node2&#45;&gt;Node25 -->
<g id="edge24_Node000002_Node000025" class="edge">
<title>Node2&#45;&gt;Node25</title>
<g id="a_edge24_Node000002_Node000025"><a xlink:title=" ">
<path fill="none" stroke="#63b8ff" d="M1150.54,-56.57C1153.31,-56.11 1156.07,-55.66 1158.75,-55.25 1278.94,-36.71 1313.25,-43.19 1435.86,-19.38"/>
<polygon fill="#63b8ff" stroke="#63b8ff" points="1436.28,-22.67 1445.42,-17.3 1434.93,-15.8 1436.28,-22.67"/>
</a>
</g>
</g>
<!-- Node26 -->
<g id="Node000026" class="node">
<title>Node26</title>
<g id="a_Node000026"><a xlink:title=" ">
<polygon fill="#e0e0e0" stroke="#999999" points="1582.88,-19.25 1510.62,-19.25 1510.62,0 1582.88,0 1582.88,-19.25"/>
<text text-anchor="middle" x="1546.75" y="-5.75" font-family="Times,serif" font-size="10.00">shared_mutex</text>
</a>
</g>
</g>
<!-- Node2&#45;&gt;Node26 -->
<g id="edge25_Node000002_Node000026" class="edge">
<title>Node2&#45;&gt;Node26</title>
<g id="a_edge25_Node000002_Node000026"><a xlink:title=" ">
<path fill="none" stroke="#63b8ff" d="M1150.53,-56.5C1153.31,-56.05 1156.07,-55.63 1158.75,-55.25 1307.1,-34.17 1348.28,-41.35 1499.82,-19.42"/>
<polygon fill="#63b8ff" stroke="#63b8ff" points="1500.06,-22.77 1509.45,-17.86 1499.04,-15.85 1500.06,-22.77"/>
</a>
</g>
</g>
<!-- Node27 -->
<g id="Node000027" class="node">
<title>Node27</title>
<g id="a_Node000027"><a xlink:title=" ">
<polygon fill="#e0e0e0" stroke="#999999" points="1636.12,-19.25 1601.38,-19.25 1601.38,0 1636.12,0 1636.12,-19.25"/>
<text text-anchor="middle" x="1618.75" y="-5.75" font-family="Times,serif" font-size="10.00">span</text>
</a>
</g>
</g>
<!-- Node2&#45;&gt;Node27 -->
<g id="edge26_Node000002_Node000027" class="edge">
<title>Node2&#45;&gt;Node27</title>
<g id="a_edge26_Node000002_Node000027"><a xlink:title=" ">
<path fill="none" stroke="#63b8ff" d="M1150.52,-56.43C1153.3,-56 1156.06,-55.6 1158.75,-55.25 1346.76,-30.6 1400.41,-55.92 1590.27,-19.05"/>
<polygon fill="#63b8ff" stroke="#63b8ff" points="1590.76,-22.33 1599.89,-16.95 1589.4,-15.46 1590.76,-22.33"/>
</a>
</g>
</g>
<!-- Node28 -->
<g id="Node000028" class="node">
<title>Node28</title>
<g id="a_Node000028"><a xlink:title=" ">
<polygon fill="#e0e0e0" stroke="#999999" points="1699.75,-19.25 1653.75,-19.25 1653.75,0 1699.75,0 1699.75,-19.25"/>
<text text-anchor="middle" x="1676.75" y="-5.75" font-family="Times,serif" font-size="10.00">sstream</text>
</a>
</g>
</g>
<!-- Node2&#45;&gt;Node28 -->
<g id="edge27_Node000002_Node000028" class="edge">
<title>Node2&#45;&gt;Node28</title>
<g id="a_edge27_Node000002_Node000028"><a xlink:title=" ">
<path fill="none" stroke="#63b8ff" d="M1150.51,-56.4C1153.3,-55.98 1156.06,-55.59 1158.75,-55.25 1370.17,-28.5 1429.33,-54.72 1642.83,-19.25"/>
<polygon fill="#63b8ff" stroke="#63b8ff" points="1643.17,-22.57 1652.44,-17.45 1642,-15.67 1643.17,-22.57"/>
</a>
</g>
</g>
<!-- Node29 -->
<g id="Node000029" class="node">
<title>Node29</title>
<g id="a_Node000029"><a xlink:title=" ">
<polygon fill="#e0e0e0" stroke="#999999" points="1771.88,-19.25 1717.62,-19.25 1717.62,0 1771.88,0 1771.88,-19.25"/>
<text text-anchor="middle" x="1744.75" y="-5.75" font-family="Times,serif" font-size="10.00">stdexcept</text>
</a>
</g>
</g>
<!-- Node2&#45;&gt;Node29 -->
<g id="edge28_Node000002_Node000029" class="edge">
<title>Node2&#45;&gt;Node29</title>
<g id="a_edge28_Node000002_Node000029"><a xlink:title=" ">
<path fill="none" stroke="#63b8ff" d="M1150.51,-56.38C1153.29,-55.96 1156.06,-55.58 1158.75,-55.25 1398.47,-25.96 1464.68,-55.07 1706.78,-19.28"/>
<polygon fill="#63b8ff" stroke="#63b8ff" points="1706.96,-22.65 1716.33,-17.7 1705.92,-15.73 1706.96,-22.65"/>
</a>
</g>
</g>
<!-- Node30 -->
<g id="Node000030" class="node">
<title>Node30</title>
<g id="a_Node000030"><a xlink:title=" ">
<polygon fill="#e0e0e0" stroke="#999999" points="1835.75,-19.25 1789.75,-19.25 1789.75,0 1835.75,0 1835.75,-19.25"/>
<text text-anchor="middle" x="1812.75" y="-5.75" font-family="Times,serif" font-size="10.00">stdint.h</text>
</a>
</g>
</g>
<!-- Node2&#45;&gt;Node30 -->
<g id="edge29_Node000002_Node000030" class="edge">
<title>Node2&#45;&gt;Node30</title>
<g id="a_edge29_Node000002_Node000030"><a xlink:title=" ">
<path fill="none" stroke="#63b8ff" d="M1150.51,-56.35C1153.29,-55.94 1156.06,-55.57 1158.75,-55.25 1430.25,-23.12 1505.5,-62.49 1778.81,-19.21"/>
<polygon fill="#63b8ff" stroke="#63b8ff" points="1779.13,-22.54 1788.45,-17.5 1778.02,-15.63 1779.13,-22.54"/>
</a>
</g>
</g>
<!-- Node31 -->
<g id="Node000031" class="node">
<title>Node31</title>
<g id="a_Node000031"><a xlink:title=" ">
<polygon fill="#e0e0e0" stroke="#999999" points="1893.38,-19.25 1854.12,-19.25 1854.12,0 1893.38,0 1893.38,-19.25"/>
<text text-anchor="middle" x="1873.75" y="-5.75" font-family="Times,serif" font-size="10.00">string</text>
</a>
</g>
</g>
<!-- Node2&#45;&gt;Node31 -->
<g id="edge30_Node000002_Node000031" class="edge">
<title>Node2&#45;&gt;Node31</title>
<g id="a_edge30_Node000002_Node000031"><a xlink:title=" ">
<path fill="none" stroke="#63b8ff" d="M1150.51,-56.34C1153.29,-55.93 1156.06,-55.56 1158.75,-55.25 1458.48,-20.59 1541.93,-69.95 1843.12,-19.05"/>
<polygon fill="#63b8ff" stroke="#63b8ff" points="1843.66,-22.33 1852.93,-17.19 1842.48,-15.43 1843.66,-22.33"/>
</a>
</g>
</g>
<!-- Node32 -->
<g id="Node000032" class="node">
<title>Node32</title>
<g id="a_Node000032"><a xlink:title=" ">
<polygon fill="#e0e0e0" stroke="#999999" points="1952.5,-19.25 1911,-19.25 1911,0 1952.5,0 1952.5,-19.25"/>
<text text-anchor="middle" x="1931.75" y="-5.75" font-family="Times,serif" font-size="10.00">thread</text>
</a>
</g>
</g>
<!-- Node2&#45;&gt;Node32 -->
<g id="edge31_Node000002_Node000032" class="edge">
<title>Node2&#45;&gt;Node32</title>
<g id="a_edge31_Node000002_Node000032"><a xlink:title=" ">
<path fill="none" stroke="#63b8ff" d="M1150.5,-56.32C1153.29,-55.92 1156.06,-55.56 1158.75,-55.25 1484.16,-18.3 1574.46,-73.63 1899.98,-19.34"/>
<polygon fill="#63b8ff" stroke="#63b8ff" points="1900.39,-22.65 1909.67,-17.53 1899.22,-15.75 1900.39,-22.65"/>
</a>
</g>
</g>
<!-- Node33 -->
<g id="Node000033" class="node">
<title>Node33</title>
<g id="a_Node000033"><a xlink:title=" ">
<polygon fill="#e0e0e0" stroke="#999999" points="2029.12,-19.25 1970.38,-19.25 1970.38,0 2029.12,0 2029.12,-19.25"/>
<text text-anchor="middle" x="1999.75" y="-5.75" font-family="Times,serif" font-size="10.00">type_traits</text>
</a>
</g>
</g>
<!-- Node2&#45;&gt;Node33 -->
<g id="edge32_Node000002_Node000033" class="edge">
<title>Node2&#45;&gt;Node33</title>
<g id="a_edge32_Node000002_Node000033"><a xlink:title=" ">
<path fill="none" stroke="#63b8ff" d="M1150.5,-56.31C1153.29,-55.91 1156.06,-55.55 1158.75,-55.25 1510.23,-15.97 1605.8,-65.96 1959.17,-19.36"/>
<polygon fill="#63b8ff" stroke="#63b8ff" points="1959.52,-22.71 1968.97,-17.91 1958.6,-15.77 1959.52,-22.71"/>
</a>
</g>
</g>
<!-- Node34 -->
<g id="Node000034" class="node">
<title>Node34</title>
<g id="a_Node000034"><a xlink:title=" ">
<polygon fill="#e0e0e0" stroke="#999999" points="2119.88,-19.25 2047.62,-19.25 2047.62,0 2119.88,0 2119.88,-19.25"/>
<text text-anchor="middle" x="2083.75" y="-5.75" font-family="Times,serif" font-size="10.00">unordered_set</text>
</a>
</g>
</g>
<!-- Node2&#45;&gt;Node34 -->
<g id="edge33_Node000002_Node000034" class="edge">
<title>Node2&#45;&gt;Node34</title>
<g id="a_edge33_Node000002_Node000034"><a xlink:title=" ">
<path fill="none" stroke="#63b8ff" d="M1150.5,-56.3C1153.29,-55.9 1156.06,-55.55 1158.75,-55.25 1543.9,-12.96 1647.39,-62.48 2036.45,-19.19"/>
<polygon fill="#63b8ff" stroke="#63b8ff" points="2036.62,-22.58 2046.16,-17.98 2035.83,-15.62 2036.62,-22.58"/>
</a>
</g>
</g>
<!-- Node35 -->
<g id="Node000035" class="node">
<title>Node35</title>
<g id="a_Node000035"><a xlink:title=" ">
<polygon fill="#e0e0e0" stroke="#999999" points="2181.25,-19.25 2138.25,-19.25 2138.25,0 2181.25,0 2181.25,-19.25"/>
<text text-anchor="middle" x="2159.75" y="-5.75" font-family="Times,serif" font-size="10.00">variant</text>
</a>
</g>
</g>
<!-- Node2&#45;&gt;Node35 -->
<g id="edge34_Node000002_Node000035" class="edge">
<title>Node2&#45;&gt;Node35</title>
<g id="a_edge34_Node000002_Node000035"><a xlink:title=" ">
<path fill="none" stroke="#63b8ff" d="M1150.5,-56.29C1153.29,-55.89 1156.06,-55.54 1158.75,-55.25 1584.11,-9.37 1700.54,-84.26 2127.1,-19.06"/>
<polygon fill="#63b8ff" stroke="#63b8ff" points="2127.53,-22.38 2136.87,-17.4 2126.46,-15.46 2127.53,-22.38"/>
</a>
</g>
</g>
<!-- Node36 -->
<g id="Node000036" class="node">
<title>Node36</title>
<g id="a_Node000036"><a xlink:title=" ">
<polygon fill="#e0e0e0" stroke="#999999" points="2240.12,-19.25 2199.38,-19.25 2199.38,0 2240.12,0 2240.12,-19.25"/>
<text text-anchor="middle" x="2219.75" y="-5.75" font-family="Times,serif" font-size="10.00">vector</text>
</a>
</g>
</g>
<!-- Node2&#45;&gt;Node36 -->
<g id="edge35_Node000002_Node000036" class="edge">
<title>Node2&#45;&gt;Node36</title>
<g id="a_edge35_Node000002_Node000036"><a xlink:title=" ">
<path fill="none" stroke="#63b8ff" d="M1150.5,-56.28C1153.29,-55.89 1156.06,-55.54 1158.75,-55.25 1611.54,-6.92 1735.87,-91.92 2188.24,-19.23"/>
<polygon fill="#63b8ff" stroke="#63b8ff" points="2188.68,-22.55 2197.99,-17.49 2187.56,-15.64 2188.68,-22.55"/>
</a>
</g>
</g>
</g>
</svg>

<g id="navigator" transform="translate(0 0)" fill="#404254">
  <rect fill="#f2f5e9" fill-opacity="0.5" stroke="#606060" stroke-width=".5" x="0" y="0" width="60" height="60"/>
  <use id="zoomplus" xlink:href="#zoomPlus" x="17" y="9" onmousedown="handleZoom(evt,'in')"/>
  <use id="zoomminus" xlink:href="#zoomMin" x="42" y="9" onmousedown="handleZoom(evt,'out')"/>
  <use id="reset" xlink:href="#resetDef" x="30" y="36" onmousedown="handleReset()"/>
   <use id="arrowup" xlink:href="#arrowUp" x="0" y="0" onmousedown="handlePan(0,-1)"/>
  <use id="arrowright" xlink:href="#arrowRight" x="0" y="0" onmousedown="handlePan(1,0)"/>
  <use id="arrowdown" xlink:href="#arrowDown" x="0" y="0" onmousedown="handlePan(0,1)"/>
  <use id="arrowleft" xlink:href="#arrowLeft" x="0" y="0" onmousedown="handlePan(-1,0)"/>
</g>
<svg viewBox="0 0 15 15" width="100%" height="30px" preserveAspectRatio="xMaxYMin meet">
 <g id="arrow_out" transform="scale(0.3 0.3)">
  <a xlink:href="win-utils_8hpp__incl_org.svg" target="_base">
   <rect id="button" ry="5" rx="5" y="6" x="6" height="38" width="38"
        fill="#f2f5e9" fill-opacity="0.5" stroke="#606060" stroke-width="1.0"/>
   <path id="arrow"
     d="M 11.500037,31.436501 C 11.940474,20.09759 22.043105,11.32322 32.158766,21.979434 L 37.068811,17.246167 C 37.068811,17.246167 37.088388,32 37.088388,32 L 22.160133,31.978069 C 22.160133,31.978069 26.997745,27.140456 26.997745,27.140456 C 18.528582,18.264221 13.291696,25.230495 11.500037,31.436501 z"
     style="fill:#404040;"/>
  </a>
 </g>
</svg>

<style type='text/css'>
<![CDATA[
[data-mouse-over-selected='false'] { opacity: 0.7; }
[data-mouse-over-selected='true']  { opacity: 1.0; }
]]>
</style>
<script type="application/ecmascript"><![CDATA[
document.addEventListener('DOMContentLoaded', (event) => {
  highlightEdges();
  highlightAdjacentNodes();
});
]]></script>
</svg>
