<?xml version="1.0" encoding="UTF-8" standalone="no"?>
<!DOCTYPE svg PUBLIC "-//W3C//DTD SVG 1.1//EN"
 "http://www.w3.org/Graphics/SVG/1.1/DTD/svg11.dtd">
<!-- Generated by graphviz version 8.1.0 (20230707.0739)
 -->
<!-- Title: mal&#45;packet&#45;weaver/mal&#45;packet&#45;weaver/session.hpp Pages: 1 -->
<!--zoomable 282 -->

<svg id="main" version="1.1" xmlns="http://www.w3.org/2000/svg" xmlns:xlink="http://www.w3.org/1999/xlink" xml:space="preserve" onload="init(evt)">
<style type="text/css"><![CDATA[
.node, .edge {opacity: 0.7;}
.node.selected, .edge.selected {opacity: 1;}
.edge:hover path { stroke: red; }
.edge:hover polygon { stroke: red; fill: red; }
]]></style>

<defs>
  <circle id="rim" cx="0" cy="0" r="7"/>
  <circle id="rim2" cx="0" cy="0" r="3.5"/>
  <g id="zoomPlus">
    <use xlink:href="#rim" fill="#404040"><set attributeName="fill" to="#808080" begin="zoomplus.mouseover" end="zoomplus.mouseout"/></use>
    <path d="M-4,0h8M0,-4v8" fill="none" stroke="white" stroke-width="1.5" pointer-events="none"/>
  </g>
  <g id="zoomMin">
    <use xlink:href="#rim" fill="#404040"><set attributeName="fill" to="#808080" begin="zoomminus.mouseover" end="zoomminus.mouseout"/></use>
    <path d="M-4,0h8" fill="none" stroke="white" stroke-width="1.5" pointer-events="none"/>
  </g>
  <g id="arrowUp" transform="translate(30 24)">
    <use xlink:href="#rim"/>
    <path pointer-events="none" fill="none" stroke="white" stroke-width="1.5" d="M0,-3.0v7 M-2.5,-0.5L0,-3.0L2.5,-0.5"/>
  </g>
  <g id="arrowRight" transform="rotate(90) translate(36 -43)">
    <use xlink:href="#rim"/>
    <path pointer-events="none" fill="none" stroke="white" stroke-width="1.5" d="M0,-3.0v7 M-2.5,-0.5L0,-3.0L2.5,-0.5"/>
  </g>
  <g id="arrowDown" transform="rotate(180) translate(-30 -48)">
    <use xlink:href="#rim"/>
    <path pointer-events="none" fill="none" stroke="white" stroke-width="1.5" d="M0,-3.0v7 M-2.5,-0.5L0,-3.0L2.5,-0.5"/>
  </g>
  <g id="arrowLeft" transform="rotate(270) translate(-36 17)">
    <use xlink:href="#rim"/>
    <path pointer-events="none" fill="none" stroke="white" stroke-width="1.5" d="M0,-3.0v7 M-2.5,-0.5L0,-3.0L2.5,-0.5"/>
  </g>
  <g id="resetDef">
    <use xlink:href="#rim2" fill="#404040"><set attributeName="fill" to="#808080" begin="reset.mouseover" end="reset.mouseout"/></use>
  </g>
</defs>
<script type="application/ecmascript">
var viewWidth = 2361;
var viewHeight = 282;
var sectionId = 'dynsection-0';
</script>
<script type="application/ecmascript" xlink:href="../../svg.min.js"/>
<svg id="graph" class="graph">
<g id="viewport">
<title>mal&#45;packet&#45;weaver/mal&#45;packet&#45;weaver/session.hpp</title>
<!-- Node1 -->
<g id="Node000001" class="node">
<title>Node1</title>
<g id="a_Node000001"><a xlink:title=" ">
<polygon fill="#999999" stroke="#666666" points="1411.81,-274 1287.06,-274 1287.06,-243.5 1411.81,-243.5 1411.81,-274"/>
<text text-anchor="start" x="1295.06" y="-260.5" font-family="Times,serif" font-size="10.00">mal&#45;packet&#45;weaver/mal</text>
<text text-anchor="middle" x="1349.43" y="-249.25" font-family="Times,serif" font-size="10.00">&#45;packet&#45;weaver/session.hpp</text>
</a>
</g>
</g>
<!-- Node2 -->
<g id="Node000002" class="node">
<title>Node2</title>
<g id="a_Node000002"><a xlink:title=" ">
<polygon fill="#e0e0e0" stroke="#999999" points="840.18,-146.62 786.68,-146.62 786.68,-127.38 840.18,-127.38 840.18,-146.62"/>
<text text-anchor="middle" x="813.43" y="-133.12" font-family="Times,serif" font-size="10.00">algorithm</text>
</a>
</g>
</g>
<!-- Node1&#45;&gt;Node2 -->
<g id="edge1_Node000001_Node000002" class="edge">
<title>Node1&#45;&gt;Node2</title>
<g id="a_edge1_Node000001_Node000002"><a xlink:title=" ">
<path fill="none" stroke="#63b8ff" d="M1286.94,-257.8C1027.84,-257.69 49.42,-254.2 4.43,-207.5 -1.5,-201.34 -1.43,-194.48 4.43,-188.25 31.17,-159.8 619.63,-142.91 775.71,-138.92"/>
<polygon fill="#63b8ff" stroke="#63b8ff" points="775.7,-142.4 785.6,-138.65 775.52,-135.4 775.7,-142.4"/>
</a>
</g>
</g>
<!-- Node3 -->
<g id="Node000003" class="node">
<title>Node3</title>
<g id="a_Node000003"><a xlink:title=" ">
<polygon fill="#e0e0e0" stroke="#999999" points="128.93,-207.5 13.93,-207.5 13.93,-188.25 128.93,-188.25 128.93,-207.5"/>
<text text-anchor="middle" x="71.43" y="-194" font-family="Times,serif" font-size="10.00">boost/asio/awaitable.hpp</text>
</a>
</g>
</g>
<!-- Node1&#45;&gt;Node3 -->
<g id="edge2_Node000001_Node000003" class="edge">
<title>Node1&#45;&gt;Node3</title>
<g id="a_edge2_Node000001_Node000003"><a xlink:title=" ">
<path fill="none" stroke="#63b8ff" d="M1286.6,-257.06C1108.57,-254.69 585.42,-244.91 139.98,-207.54"/>
<polygon fill="#63b8ff" stroke="#63b8ff" points="140.4,-203.98 130.14,-206.63 139.81,-210.96 140.4,-203.98"/>
</a>
</g>
</g>
<!-- Node4 -->
<g id="Node000004" class="node">
<title>Node4</title>
<g id="a_Node000004"><a xlink:title=" ">
<polygon fill="#e0e0e0" stroke="#999999" points="265.43,-207.5 147.43,-207.5 147.43,-188.25 265.43,-188.25 265.43,-207.5"/>
<text text-anchor="middle" x="206.43" y="-194" font-family="Times,serif" font-size="10.00">boost/asio/co_spawn.hpp</text>
</a>
</g>
</g>
<!-- Node1&#45;&gt;Node4 -->
<g id="edge3_Node000001_Node000004" class="edge">
<title>Node1&#45;&gt;Node4</title>
<g id="a_edge3_Node000001_Node000004"><a xlink:title=" ">
<path fill="none" stroke="#63b8ff" d="M1286.61,-256.56C1122.4,-253.06 666.67,-240.97 276.68,-207.62"/>
<polygon fill="#63b8ff" stroke="#63b8ff" points="277,-204.05 266.74,-206.68 276.4,-211.02 277,-204.05"/>
</a>
</g>
</g>
<!-- Node5 -->
<g id="Node000005" class="node">
<title>Node5</title>
<g id="a_Node000005"><a xlink:title=" ">
<polygon fill="#e0e0e0" stroke="#999999" points="398.93,-207.5 283.93,-207.5 283.93,-188.25 398.93,-188.25 398.93,-207.5"/>
<text text-anchor="middle" x="341.43" y="-194" font-family="Times,serif" font-size="10.00">boost/asio/detached.hpp</text>
</a>
</g>
</g>
<!-- Node1&#45;&gt;Node5 -->
<g id="edge4_Node000001_Node000005" class="edge">
<title>Node1&#45;&gt;Node5</title>
<g id="a_edge4_Node000001_Node000005"><a xlink:title=" ">
<path fill="none" stroke="#63b8ff" d="M1286.83,-256.02C1137.16,-251.55 746.68,-237.81 409.61,-207.53"/>
<polygon fill="#63b8ff" stroke="#63b8ff" points="410.42,-204 400.15,-206.58 409.79,-210.97 410.42,-204"/>
</a>
</g>
</g>
<!-- Node6 -->
<g id="Node000006" class="node">
<title>Node6</title>
<g id="a_Node000006"><a xlink:title=" ">
<polygon fill="#e0e0e0" stroke="#999999" points="519.56,-207.5 417.31,-207.5 417.31,-188.25 519.56,-188.25 519.56,-207.5"/>
<text text-anchor="middle" x="468.43" y="-194" font-family="Times,serif" font-size="10.00">boost/asio/ip/tcp.hpp</text>
</a>
</g>
</g>
<!-- Node1&#45;&gt;Node6 -->
<g id="edge5_Node000001_Node000006" class="edge">
<title>Node1&#45;&gt;Node6</title>
<g id="a_edge5_Node000001_Node000006"><a xlink:title=" ">
<path fill="none" stroke="#63b8ff" d="M1286.72,-255.66C1150.82,-250.75 818.83,-236.72 530.46,-207.62"/>
<polygon fill="#63b8ff" stroke="#63b8ff" points="531.09,-204.07 520.79,-206.54 530.38,-211.03 531.09,-204.07"/>
</a>
</g>
</g>
<!-- Node7 -->
<g id="Node000007" class="node">
<title>Node7</title>
<g id="a_Node000007"><a xlink:title=" ">
<polygon fill="#e0e0e0" stroke="#999999" points="633.18,-207.5 537.68,-207.5 537.68,-188.25 633.18,-188.25 633.18,-207.5"/>
<text text-anchor="middle" x="585.43" y="-194" font-family="Times,serif" font-size="10.00">boost/asio/read.hpp</text>
</a>
</g>
</g>
<!-- Node1&#45;&gt;Node7 -->
<g id="edge6_Node000001_Node000007" class="edge">
<title>Node1&#45;&gt;Node7</title>
<g id="a_edge6_Node000001_Node000007"><a xlink:title=" ">
<path fill="none" stroke="#63b8ff" d="M1286.77,-255.03C1164.9,-249.36 887.29,-234.62 644.47,-207.77"/>
<polygon fill="#63b8ff" stroke="#63b8ff" points="644.99,-204.19 634.66,-206.56 644.21,-211.15 644.99,-204.19"/>
</a>
</g>
</g>
<!-- Node8 -->
<g id="Node000008" class="node">
<title>Node8</title>
<g id="a_Node000008"><a xlink:title=" ">
<polygon fill="#e0e0e0" stroke="#999999" points="753.93,-207.5 650.93,-207.5 650.93,-188.25 753.93,-188.25 753.93,-207.5"/>
<text text-anchor="middle" x="702.43" y="-194" font-family="Times,serif" font-size="10.00">boost/asio/spawn.hpp</text>
</a>
</g>
</g>
<!-- Node1&#45;&gt;Node8 -->
<g id="edge7_Node000001_Node000008" class="edge">
<title>Node1&#45;&gt;Node8</title>
<g id="a_edge7_Node000001_Node000008"><a xlink:title=" ">
<path fill="none" stroke="#63b8ff" d="M1286.88,-253.52C1181.53,-246.15 961.79,-229.7 765.15,-207.63"/>
<polygon fill="#63b8ff" stroke="#63b8ff" points="765.65,-204.05 755.32,-206.41 764.87,-211.01 765.65,-204.05"/>
</a>
</g>
</g>
<!-- Node9 -->
<g id="Node000009" class="node">
<title>Node9</title>
<g id="a_Node000009"><a xlink:title=" ">
<polygon fill="#e0e0e0" stroke="#999999" points="890.81,-207.5 772.06,-207.5 772.06,-188.25 890.81,-188.25 890.81,-207.5"/>
<text text-anchor="middle" x="831.43" y="-194" font-family="Times,serif" font-size="10.00">boost/asio/streambuf.hpp</text>
</a>
</g>
</g>
<!-- Node1&#45;&gt;Node9 -->
<g id="edge8_Node000001_Node000009" class="edge">
<title>Node1&#45;&gt;Node9</title>
<g id="a_edge8_Node000001_Node000009"><a xlink:title=" ">
<path fill="none" stroke="#63b8ff" d="M1286.57,-250.97C1201.83,-241.78 1045.96,-224.67 902.05,-207.68"/>
<polygon fill="#63b8ff" stroke="#63b8ff" points="902.61,-204.1 892.27,-206.4 901.79,-211.05 902.61,-204.1"/>
</a>
</g>
</g>
<!-- Node10 -->
<g id="Node000010" class="node">
<title>Node10</title>
<g id="a_Node000010"><a xlink:title=" ">
<polygon fill="#e0e0e0" stroke="#999999" points="1007.68,-207.5 909.18,-207.5 909.18,-188.25 1007.68,-188.25 1007.68,-207.5"/>
<text text-anchor="middle" x="958.43" y="-194" font-family="Times,serif" font-size="10.00">boost/asio/write.hpp</text>
</a>
</g>
</g>
<!-- Node1&#45;&gt;Node10 -->
<g id="edge9_Node000001_Node000010" class="edge">
<title>Node1&#45;&gt;Node10</title>
<g id="a_edge9_Node000001_Node000010"><a xlink:title=" ">
<path fill="none" stroke="#63b8ff" d="M1286.61,-248.29C1212.9,-237.19 1091.53,-218.92 1018.87,-207.97"/>
<polygon fill="#63b8ff" stroke="#63b8ff" points="1019.48,-204.38 1009.07,-206.35 1018.44,-211.3 1019.48,-204.38"/>
</a>
</g>
</g>
<!-- Node11 -->
<g id="Node000011" class="node">
<title>Node11</title>
<g id="a_Node000011"><a xlink:title=" ">
<polygon fill="#e0e0e0" stroke="#999999" points="1156.81,-207.5 1026.06,-207.5 1026.06,-188.25 1156.81,-188.25 1156.81,-207.5"/>
<text text-anchor="middle" x="1091.43" y="-194" font-family="Times,serif" font-size="10.00">boost/endian/conversion.hpp</text>
</a>
</g>
</g>
<!-- Node1&#45;&gt;Node11 -->
<g id="edge10_Node000001_Node000011" class="edge">
<title>Node1&#45;&gt;Node11</title>
<g id="a_edge10_Node000001_Node000011"><a xlink:title=" ">
<path fill="none" stroke="#63b8ff" d="M1286.65,-243.42C1242.15,-233.27 1183.23,-219.82 1141.8,-210.37"/>
<polygon fill="#63b8ff" stroke="#63b8ff" points="1142.66,-206.75 1132.13,-207.93 1141.1,-213.57 1142.66,-206.75"/>
</a>
</g>
</g>
<!-- Node12 -->
<g id="Node000012" class="node">
<title>Node12</title>
<g id="a_Node000012"><a xlink:title=" ">
<polygon fill="#e0e0e0" stroke="#999999" points="1282.18,-207.5 1174.68,-207.5 1174.68,-188.25 1282.18,-188.25 1282.18,-207.5"/>
<text text-anchor="middle" x="1228.43" y="-194" font-family="Times,serif" font-size="10.00">boost/range/begin.hpp</text>
</a>
</g>
</g>
<!-- Node1&#45;&gt;Node12 -->
<g id="edge11_Node000001_Node000012" class="edge">
<title>Node1&#45;&gt;Node12</title>
<g id="a_edge11_Node000001_Node000012"><a xlink:title=" ">
<path fill="none" stroke="#63b8ff" d="M1319.21,-243.05C1300.08,-233.73 1275.49,-221.77 1256.74,-212.65"/>
<polygon fill="#63b8ff" stroke="#63b8ff" points="1258.51,-209.13 1247.99,-207.9 1255.45,-215.43 1258.51,-209.13"/>
</a>
</g>
</g>
<!-- Node13 -->
<g id="Node000013" class="node">
<title>Node13</title>
<g id="a_Node000013"><a xlink:title=" ">
<polygon fill="#e0e0e0" stroke="#999999" points="1399.06,-207.5 1299.81,-207.5 1299.81,-188.25 1399.06,-188.25 1399.06,-207.5"/>
<text text-anchor="middle" x="1349.43" y="-194" font-family="Times,serif" font-size="10.00">boost/range/end.hpp</text>
</a>
</g>
</g>
<!-- Node1&#45;&gt;Node13 -->
<g id="edge12_Node000001_Node000013" class="edge">
<title>Node1&#45;&gt;Node13</title>
<g id="a_edge12_Node000001_Node000013"><a xlink:title=" ">
<path fill="none" stroke="#63b8ff" d="M1349.43,-243.2C1349.43,-235.87 1349.43,-226.87 1349.43,-218.91"/>
<polygon fill="#63b8ff" stroke="#63b8ff" points="1352.93,-218.95 1349.43,-208.95 1345.93,-218.95 1352.93,-218.95"/>
</a>
</g>
</g>
<!-- Node14 -->
<g id="Node000014" class="node">
<title>Node14</title>
<g id="a_Node000014"><a xlink:title=" ">
<polygon fill="#e0e0e0" stroke="#999999" points="1465.56,-207.5 1417.31,-207.5 1417.31,-188.25 1465.56,-188.25 1465.56,-207.5"/>
<text text-anchor="middle" x="1441.43" y="-194" font-family="Times,serif" font-size="10.00">memory</text>
</a>
</g>
</g>
<!-- Node1&#45;&gt;Node14 -->
<g id="edge13_Node000001_Node000014" class="edge">
<title>Node1&#45;&gt;Node14</title>
<g id="a_edge13_Node000001_Node000014"><a xlink:title=" ">
<path fill="none" stroke="#63b8ff" d="M1372.17,-243.2C1386.18,-234.23 1404.09,-222.77 1418.19,-213.75"/>
<polygon fill="#63b8ff" stroke="#63b8ff" points="1419.71,-216.29 1426.25,-207.95 1415.94,-210.39 1419.71,-216.29"/>
</a>
</g>
</g>
<!-- Node15 -->
<g id="Node000015" class="node">
<title>Node15</title>
<g id="a_Node000015"><a xlink:title=" ">
<polygon fill="#e0e0e0" stroke="#999999" points="1524.81,-207.5 1484.06,-207.5 1484.06,-188.25 1524.81,-188.25 1524.81,-207.5"/>
<text text-anchor="middle" x="1504.43" y="-194" font-family="Times,serif" font-size="10.00">mutex</text>
</a>
</g>
</g>
<!-- Node1&#45;&gt;Node15 -->
<g id="edge14_Node000001_Node000015" class="edge">
<title>Node1&#45;&gt;Node15</title>
<g id="a_edge14_Node000001_Node000015"><a xlink:title=" ">
<path fill="none" stroke="#63b8ff" d="M1388.15,-243.05C1414.55,-233.02 1449.04,-219.92 1473.59,-210.59"/>
<polygon fill="#63b8ff" stroke="#63b8ff" points="1474.67,-213.55 1482.77,-206.72 1472.18,-207 1474.67,-213.55"/>
</a>
</g>
</g>
<!-- Node16 -->
<g id="Node000016" class="node">
<title>Node16</title>
<g id="a_Node000016"><a xlink:title=" ">
<polygon fill="#e0e0e0" stroke="#999999" points="1582.43,-207.5 1542.43,-207.5 1542.43,-188.25 1582.43,-188.25 1582.43,-207.5"/>
<text text-anchor="middle" x="1562.43" y="-194" font-family="Times,serif" font-size="10.00">queue</text>
</a>
</g>
</g>
<!-- Node1&#45;&gt;Node16 -->
<g id="edge15_Node000001_Node000016" class="edge">
<title>Node1&#45;&gt;Node16</title>
<g id="a_edge15_Node000001_Node000016"><a xlink:title=" ">
<path fill="none" stroke="#63b8ff" d="M1404.68,-243.01C1438.83,-233.82 1483.83,-221.57 1531.87,-207.9"/>
<polygon fill="#63b8ff" stroke="#63b8ff" points="1532.51,-211.07 1541.17,-204.97 1530.59,-204.34 1532.51,-211.07"/>
</a>
</g>
</g>
<!-- Node17 -->
<g id="Node000017" class="node">
<title>Node17</title>
<g id="a_Node000017"><a xlink:title=" ">
<polygon fill="#e0e0e0" stroke="#999999" points="1718.81,-207.5 1600.06,-207.5 1600.06,-188.25 1718.81,-188.25 1718.81,-207.5"/>
<text text-anchor="middle" x="1659.43" y="-194" font-family="Times,serif" font-size="10.00">boost/lockfree/queue.hpp</text>
</a>
</g>
</g>
<!-- Node1&#45;&gt;Node17 -->
<g id="edge16_Node000001_Node000017" class="edge">
<title>Node1&#45;&gt;Node17</title>
<g id="a_edge16_Node000001_Node000017"><a xlink:title=" ">
<path fill="none" stroke="#63b8ff" d="M1412.17,-245.84C1467.28,-235.37 1546.87,-220.25 1600.75,-210.02"/>
<polygon fill="#63b8ff" stroke="#63b8ff" points="1601.33,-213.28 1610.5,-207.98 1600.02,-206.41 1601.33,-213.28"/>
</a>
</g>
</g>
<!-- Node18 -->
<g id="Node000018" class="node">
<title>Node18</title>
<g id="a_Node000018"><a xlink:href="../../dd/dc6/backoffs_8hpp.html" target="_top" xlink:title=" ">
<polygon fill="white" stroke="#666666" points="1803.93,-207.5 1736.93,-207.5 1736.93,-188.25 1803.93,-188.25 1803.93,-207.5"/>
<text text-anchor="middle" x="1770.43" y="-194" font-family="Times,serif" font-size="10.00">backoffs.hpp</text>
</a>
</g>
</g>
<!-- Node1&#45;&gt;Node18 -->
<g id="edge17_Node000001_Node000018" class="edge">
<title>Node1&#45;&gt;Node18</title>
<g id="a_edge17_Node000001_Node000018"><a xlink:title=" ">
<path fill="none" stroke="#63b8ff" d="M1412.16,-250.69C1485.1,-242.2 1609.36,-226.84 1726.12,-207.62"/>
<polygon fill="#63b8ff" stroke="#63b8ff" points="1726.38,-210.96 1735.67,-205.87 1725.23,-204.05 1726.38,-210.96"/>
</a>
</g>
</g>
<!-- Node21 -->
<g id="Node000021" class="node">
<title>Node21</title>
<g id="a_Node000021"><a xlink:href="../../df/d27/aes_8hpp.html" target="_top" xlink:title=" ">
<polygon fill="white" stroke="#666666" points="1898.43,-207.5 1822.43,-207.5 1822.43,-188.25 1898.43,-188.25 1898.43,-207.5"/>
<text text-anchor="middle" x="1860.43" y="-194" font-family="Times,serif" font-size="10.00">crypto/aes.hpp</text>
</a>
</g>
</g>
<!-- Node1&#45;&gt;Node21 -->
<g id="edge21_Node000001_Node000021" class="edge">
<title>Node1&#45;&gt;Node21</title>
<g id="a_edge21_Node000001_Node000021"><a xlink:title=" ">
<path fill="none" stroke="#63b8ff" d="M1412.14,-252.34C1499.22,-244.52 1661.93,-228.79 1811.23,-207.57"/>
<polygon fill="#63b8ff" stroke="#63b8ff" points="1811.56,-210.92 1820.96,-206.03 1810.56,-203.99 1811.56,-210.92"/>
</a>
</g>
</g>
<!-- Node25 -->
<g id="Node000025" class="node">
<title>Node25</title>
<g id="a_Node000025"><a xlink:href="../../d2/d3f/packet_8hpp.html" target="_top" xlink:title=" ">
<polygon fill="white" stroke="#666666" points="1976.56,-207.5 1916.31,-207.5 1916.31,-188.25 1976.56,-188.25 1976.56,-207.5"/>
<text text-anchor="middle" x="1946.43" y="-194" font-family="Times,serif" font-size="10.00">packet.hpp</text>
</a>
</g>
</g>
<!-- Node1&#45;&gt;Node25 -->
<g id="edge25_Node000001_Node000025" class="edge">
<title>Node1&#45;&gt;Node25</title>
<g id="a_edge25_Node000001_Node000025"><a xlink:title=" ">
<path fill="none" stroke="#63b8ff" d="M1412.09,-254.72C1513.7,-249.25 1720.81,-235.69 1905.14,-207.68"/>
<polygon fill="#63b8ff" stroke="#63b8ff" points="1905.49,-211.01 1914.85,-206.03 1904.43,-204.09 1905.49,-211.01"/>
</a>
</g>
</g>
<!-- Node33 -->
<g id="Node000033" class="node">
<title>Node33</title>
<g id="a_Node000033"><a xlink:title=" ">
<polygon fill="#e0e0e0" stroke="#999999" points="2066.18,-207.5 1994.68,-207.5 1994.68,-188.25 2066.18,-188.25 2066.18,-207.5"/>
<text text-anchor="middle" x="2030.43" y="-194" font-family="Times,serif" font-size="10.00">utils/utils.hpp</text>
</a>
</g>
</g>
<!-- Node1&#45;&gt;Node33 -->
<g id="edge33_Node000001_Node000033" class="edge">
<title>Node1&#45;&gt;Node33</title>
<g id="a_edge33_Node000001_Node000033"><a xlink:title=" ">
<path fill="none" stroke="#63b8ff" d="M1411.97,-255.11C1524.35,-249.85 1768.06,-236.18 1983.73,-207.57"/>
<polygon fill="#63b8ff" stroke="#63b8ff" points="1984.18,-210.91 1993.63,-206.11 1983.25,-203.97 1984.18,-210.91"/>
</a>
</g>
</g>
<!-- Node34 -->
<g id="Node000034" class="node">
<title>Node34</title>
<g id="a_Node000034"><a xlink:title=" ">
<polygon fill="#e0e0e0" stroke="#999999" points="2183.06,-207.5 2083.81,-207.5 2083.81,-188.25 2183.06,-188.25 2183.06,-207.5"/>
<text text-anchor="middle" x="2133.43" y="-194" font-family="Times,serif" font-size="10.00">../include/spdlog.hpp</text>
</a>
</g>
</g>
<!-- Node1&#45;&gt;Node34 -->
<g id="edge34_Node000001_Node000034" class="edge">
<title>Node1&#45;&gt;Node34</title>
<g id="a_edge34_Node000001_Node000034"><a xlink:title=" ">
<path fill="none" stroke="#63b8ff" d="M1412.22,-255.07C1536.44,-249.4 1822.57,-234.54 2072.72,-207.72"/>
<polygon fill="#63b8ff" stroke="#63b8ff" points="2072.91,-211.11 2082.48,-206.56 2072.16,-204.15 2072.91,-211.11"/>
</a>
</g>
</g>
<!-- Node35 -->
<g id="Node000035" class="node">
<title>Node35</title>
<g id="a_Node000035"><a xlink:href="../../d1/d16/session_8inl.html" target="_top" xlink:title=" ">
<polygon fill="white" stroke="#666666" points="2257.68,-207.5 2201.18,-207.5 2201.18,-188.25 2257.68,-188.25 2257.68,-207.5"/>
<text text-anchor="middle" x="2229.43" y="-194" font-family="Times,serif" font-size="10.00">session.inl</text>
</a>
</g>
</g>
<!-- Node1&#45;&gt;Node35 -->
<g id="edge35_Node000001_Node000035" class="edge">
<title>Node1&#45;&gt;Node35</title>
<g id="a_edge35_Node000001_Node000035"><a xlink:title=" ">
<path fill="none" stroke="#63b8ff" d="M1412.15,-257.59C1551.6,-256.42 1897.24,-249.08 2183.43,-207.5 2185.63,-207.18 2187.88,-206.8 2190.16,-206.37"/>
<polygon fill="#63b8ff" stroke="#63b8ff" points="2190.83,-209.6 2199.92,-204.15 2189.42,-202.75 2190.83,-209.6"/>
</a>
</g>
</g>
<!-- Node18&#45;&gt;Node2 -->
<g id="edge18_Node000018_Node000002" class="edge">
<title>Node18&#45;&gt;Node2</title>
<g id="a_edge18_Node000018_Node000002"><a xlink:title=" ">
<path fill="none" stroke="#63b8ff" d="M1736.71,-189.64C1733.58,-189.11 1730.45,-188.63 1727.43,-188.25 1389.57,-145.3 976.84,-139.05 851.38,-138.15"/>
<polygon fill="#63b8ff" stroke="#63b8ff" points="851.5,-134.64 841.48,-138.08 851.45,-141.64 851.5,-134.64"/>
</a>
</g>
</g>
<!-- Node19 -->
<g id="Node000019" class="node">
<title>Node19</title>
<g id="a_Node000019"><a xlink:title=" ">
<polygon fill="#e0e0e0" stroke="#999999" points="1687.93,-146.62 1644.93,-146.62 1644.93,-127.38 1687.93,-127.38 1687.93,-146.62"/>
<text text-anchor="middle" x="1666.43" y="-133.12" font-family="Times,serif" font-size="10.00">chrono</text>
</a>
</g>
</g>
<!-- Node18&#45;&gt;Node19 -->
<g id="edge19_Node000018_Node000019" class="edge">
<title>Node18&#45;&gt;Node19</title>
<g id="a_edge19_Node000018_Node000019"><a xlink:title=" ">
<path fill="none" stroke="#63b8ff" d="M1754.64,-187.93C1737.99,-178.51 1711.52,-163.52 1691.91,-152.43"/>
<polygon fill="#63b8ff" stroke="#63b8ff" points="1693.8,-148.91 1683.38,-147.03 1690.35,-155 1693.8,-148.91"/>
</a>
</g>
</g>
<!-- Node20 -->
<g id="Node000020" class="node">
<title>Node20</title>
<g id="a_Node000020"><a xlink:title=" ">
<polygon fill="#e0e0e0" stroke="#999999" points="1752.43,-146.62 1706.43,-146.62 1706.43,-127.38 1752.43,-127.38 1752.43,-146.62"/>
<text text-anchor="middle" x="1729.43" y="-133.12" font-family="Times,serif" font-size="10.00">random</text>
</a>
</g>
</g>
<!-- Node18&#45;&gt;Node20 -->
<g id="edge20_Node000018_Node000020" class="edge">
<title>Node18&#45;&gt;Node20</title>
<g id="a_edge20_Node000018_Node000020"><a xlink:title=" ">
<path fill="none" stroke="#63b8ff" d="M1764.21,-187.93C1758.31,-179.46 1749.27,-166.49 1741.89,-155.89"/>
<polygon fill="#63b8ff" stroke="#63b8ff" points="1744.31,-154.23 1735.72,-148.03 1738.56,-158.23 1744.31,-154.23"/>
</a>
</g>
</g>
<!-- Node22 -->
<g id="Node000022" class="node">
<title>Node22</title>
<g id="a_Node000022"><a xlink:title=" ">
<polygon fill="#e0e0e0" stroke="#999999" points="1849.93,-146.62 1770.93,-146.62 1770.93,-127.38 1849.93,-127.38 1849.93,-146.62"/>
<text text-anchor="middle" x="1810.43" y="-133.12" font-family="Times,serif" font-size="10.00">../utils/utils.hpp</text>
</a>
</g>
</g>
<!-- Node21&#45;&gt;Node22 -->
<g id="edge22_Node000021_Node000022" class="edge">
<title>Node21&#45;&gt;Node22</title>
<g id="a_edge22_Node000021_Node000022"><a xlink:title=" ">
<path fill="none" stroke="#63b8ff" d="M1852.84,-187.93C1845.5,-179.29 1834.18,-165.96 1825.08,-155.25"/>
<polygon fill="#63b8ff" stroke="#63b8ff" points="1827.24,-153.38 1818.1,-148.03 1821.9,-157.91 1827.24,-153.38"/>
</a>
</g>
</g>
<!-- Node23 -->
<g id="Node000023" class="node">
<title>Node23</title>
<g id="a_Node000023"><a xlink:title=" ">
<polygon fill="#e0e0e0" stroke="#999999" points="1935.31,-146.62 1867.56,-146.62 1867.56,-127.38 1935.31,-127.38 1935.31,-146.62"/>
<text text-anchor="middle" x="1901.43" y="-133.12" font-family="Times,serif" font-size="10.00">openssl/aes.h</text>
</a>
</g>
</g>
<!-- Node21&#45;&gt;Node23 -->
<g id="edge23_Node000021_Node000023" class="edge">
<title>Node21&#45;&gt;Node23</title>
<g id="a_edge23_Node000021_Node000023"><a xlink:title=" ">
<path fill="none" stroke="#63b8ff" d="M1866.66,-187.93C1872.56,-179.46 1881.59,-166.49 1888.97,-155.89"/>
<polygon fill="#63b8ff" stroke="#63b8ff" points="1892.3,-158.23 1895.15,-148.03 1886.56,-154.23 1892.3,-158.23"/>
</a>
</g>
</g>
<!-- Node24 -->
<g id="Node000024" class="node">
<title>Node24</title>
<g id="a_Node000024"><a xlink:title=" ">
<polygon fill="#e0e0e0" stroke="#999999" points="2023.06,-146.62 1953.81,-146.62 1953.81,-127.38 2023.06,-127.38 2023.06,-146.62"/>
<text text-anchor="middle" x="1988.43" y="-133.12" font-family="Times,serif" font-size="10.00">openssl/evp.h</text>
</a>
</g>
</g>
<!-- Node21&#45;&gt;Node24 -->
<g id="edge24_Node000021_Node000024" class="edge">
<title>Node21&#45;&gt;Node24</title>
<g id="a_edge24_Node000021_Node000024"><a xlink:title=" ">
<path fill="none" stroke="#63b8ff" d="M1880.15,-187.8C1901.26,-178.1 1934.97,-162.59 1959.18,-151.46"/>
<polygon fill="#63b8ff" stroke="#63b8ff" points="1960.28,-154.34 1967.9,-146.98 1957.35,-147.98 1960.28,-154.34"/>
</a>
</g>
</g>
<!-- Node26 -->
<g id="Node000026" class="node">
<title>Node26</title>
<g id="a_Node000026"><a xlink:href="../../d3/d53/packet-factory_8hpp.html" target="_top" xlink:title=" ">
<polygon fill="white" stroke="#666666" points="2135.81,-152.25 2041.06,-152.25 2041.06,-121.75 2135.81,-121.75 2135.81,-152.25"/>
<text text-anchor="start" x="2049.06" y="-138.75" font-family="Times,serif" font-size="10.00">packet_impl/packet</text>
<text text-anchor="middle" x="2088.43" y="-127.5" font-family="Times,serif" font-size="10.00">&#45;factory.hpp</text>
</a>
</g>
</g>
<!-- Node25&#45;&gt;Node26 -->
<g id="edge26_Node000025_Node000026" class="edge">
<title>Node25&#45;&gt;Node26</title>
<g id="a_edge26_Node000025_Node000026"><a xlink:title=" ">
<path fill="none" stroke="#63b8ff" d="M1968.31,-187.8C1988.14,-179.58 2017.99,-167.2 2042.98,-156.85"/>
<polygon fill="#63b8ff" stroke="#63b8ff" points="2044.09,-159.76 2051.99,-152.69 2041.41,-153.29 2044.09,-159.76"/>
</a>
</g>
</g>
<!-- Node27 -->
<g id="Node000027" class="node">
<title>Node27</title>
<g id="a_Node000027"><a xlink:href="../../d9/d85/packet__impl_2packet_8hpp.html" target="_top" xlink:title=" ">
<polygon fill="white" stroke="#666666" points="2118.56,-85.75 2058.31,-85.75 2058.31,-66.5 2118.56,-66.5 2118.56,-85.75"/>
<text text-anchor="middle" x="2088.43" y="-72.25" font-family="Times,serif" font-size="10.00">packet.hpp</text>
</a>
</g>
</g>
<!-- Node26&#45;&gt;Node27 -->
<g id="edge27_Node000026_Node000027" class="edge">
<title>Node26&#45;&gt;Node27</title>
<g id="a_edge27_Node000026_Node000027"><a xlink:title=" ">
<path fill="none" stroke="#63b8ff" d="M2088.43,-121.45C2088.43,-114.12 2088.43,-105.12 2088.43,-97.16"/>
<polygon fill="#63b8ff" stroke="#63b8ff" points="2091.93,-97.2 2088.43,-87.2 2084.93,-97.2 2091.93,-97.2"/>
</a>
</g>
</g>
<!-- Node28 -->
<g id="Node000028" class="node">
<title>Node28</title>
<g id="a_Node000028"><a xlink:title=" ">
<polygon fill="#e0e0e0" stroke="#999999" points="1903.68,-24.88 1817.18,-24.88 1817.18,-5.63 1903.68,-5.63 1903.68,-24.88"/>
<text text-anchor="middle" x="1860.43" y="-11.38" font-family="Times,serif" font-size="10.00">../../utils/utils.hpp</text>
</a>
</g>
</g>
<!-- Node27&#45;&gt;Node28 -->
<g id="edge28_Node000027_Node000028" class="edge">
<title>Node27&#45;&gt;Node28</title>
<g id="a_edge28_Node000027_Node000028"><a xlink:title=" ">
<path fill="none" stroke="#63b8ff" d="M2058.05,-67.51C2023.12,-58.72 1964.09,-43.77 1913.43,-30.5 1910.49,-29.73 1907.47,-28.93 1904.42,-28.12"/>
<polygon fill="#63b8ff" stroke="#63b8ff" points="1905.62,-24.56 1895.06,-25.36 1903.82,-31.32 1905.62,-24.56"/>
</a>
</g>
</g>
<!-- Node29 -->
<g id="Node000029" class="node">
<title>Node29</title>
<g id="a_Node000029"><a xlink:title=" ">
<polygon fill="#e0e0e0" stroke="#999999" points="2020.68,-30.5 1922.18,-30.5 1922.18,0 2020.68,0 2020.68,-30.5"/>
<text text-anchor="start" x="1930.18" y="-17" font-family="Times,serif" font-size="10.00">boost/archive/binary</text>
<text text-anchor="middle" x="1971.43" y="-5.75" font-family="Times,serif" font-size="10.00">_iarchive.hpp</text>
</a>
</g>
</g>
<!-- Node27&#45;&gt;Node29 -->
<g id="edge29_Node000027_Node000029" class="edge">
<title>Node27&#45;&gt;Node29</title>
<g id="a_edge29_Node000027_Node000029"><a xlink:title=" ">
<path fill="none" stroke="#63b8ff" d="M2070.41,-66.05C2054.43,-58.02 2030.56,-46 2010.26,-35.79"/>
<polygon fill="#63b8ff" stroke="#63b8ff" points="2012.14,-32.31 2001.63,-30.94 2008.99,-38.57 2012.14,-32.31"/>
</a>
</g>
</g>
<!-- Node30 -->
<g id="Node000030" class="node">
<title>Node30</title>
<g id="a_Node000030"><a xlink:title=" ">
<polygon fill="#e0e0e0" stroke="#999999" points="2137.68,-30.5 2039.18,-30.5 2039.18,0 2137.68,0 2137.68,-30.5"/>
<text text-anchor="start" x="2047.18" y="-17" font-family="Times,serif" font-size="10.00">boost/archive/binary</text>
<text text-anchor="middle" x="2088.43" y="-5.75" font-family="Times,serif" font-size="10.00">_oarchive.hpp</text>
</a>
</g>
</g>
<!-- Node27&#45;&gt;Node30 -->
<g id="edge30_Node000027_Node000030" class="edge">
<title>Node27&#45;&gt;Node30</title>
<g id="a_edge30_Node000027_Node000030"><a xlink:title=" ">
<path fill="none" stroke="#63b8ff" d="M2088.43,-66.18C2088.43,-59.65 2088.43,-50.45 2088.43,-41.72"/>
<polygon fill="#63b8ff" stroke="#63b8ff" points="2091.93,-41.78 2088.43,-31.78 2084.93,-41.78 2091.93,-41.78"/>
</a>
</g>
</g>
<!-- Node31 -->
<g id="Node000031" class="node">
<title>Node31</title>
<g id="a_Node000031"><a xlink:title=" ">
<polygon fill="#e0e0e0" stroke="#999999" points="2245.18,-30.5 2155.68,-30.5 2155.68,0 2245.18,0 2245.18,-30.5"/>
<text text-anchor="start" x="2163.68" y="-17" font-family="Times,serif" font-size="10.00">boost/serialization</text>
<text text-anchor="middle" x="2200.43" y="-5.75" font-family="Times,serif" font-size="10.00">/base_object.hpp</text>
</a>
</g>
</g>
<!-- Node27&#45;&gt;Node31 -->
<g id="edge31_Node000027_Node000031" class="edge">
<title>Node27&#45;&gt;Node31</title>
<g id="a_edge31_Node000027_Node000031"><a xlink:title=" ">
<path fill="none" stroke="#63b8ff" d="M2105.44,-66.18C2120.73,-58.15 2143.71,-46.07 2163.24,-35.8"/>
<polygon fill="#63b8ff" stroke="#63b8ff" points="2164.56,-38.53 2171.79,-30.78 2161.31,-32.34 2164.56,-38.53"/>
</a>
</g>
</g>
<!-- Node32 -->
<g id="Node000032" class="node">
<title>Node32</title>
<g id="a_Node000032"><a xlink:title=" ">
<polygon fill="#e0e0e0" stroke="#999999" points="2353.18,-30.5 2263.68,-30.5 2263.68,0 2353.18,0 2353.18,-30.5"/>
<text text-anchor="start" x="2271.68" y="-17" font-family="Times,serif" font-size="10.00">boost/serialization</text>
<text text-anchor="middle" x="2308.43" y="-5.75" font-family="Times,serif" font-size="10.00">/serialization.hpp</text>
</a>
</g>
</g>
<!-- Node27&#45;&gt;Node32 -->
<g id="edge32_Node000027_Node000032" class="edge">
<title>Node27&#45;&gt;Node32</title>
<g id="a_edge32_Node000027_Node000032"><a xlink:title=" ">
<path fill="none" stroke="#63b8ff" d="M2119.02,-66.94C2153.53,-57.71 2210.35,-42.5 2252.77,-31.15"/>
<polygon fill="#63b8ff" stroke="#63b8ff" points="2253.47,-34.31 2262.22,-28.35 2251.66,-27.55 2253.47,-34.31"/>
</a>
</g>
</g>
<!-- Node35&#45;&gt;Node1 -->
<g id="edge36_Node000035_Node000001" class="edge">
<title>Node35&#45;&gt;Node1</title>
<g id="a_edge36_Node000035_Node000001"><a xlink:title=" ">
<path fill="none" stroke="#63b8ff" d="M2201,-207.56C1915.51,-249 1571.01,-256.39 1422.87,-257.59"/>
<polygon fill="#63b8ff" stroke="#63b8ff" points="1423.09,-254.09 1413.12,-257.67 1423.14,-261.09 1423.09,-254.09"/>
</a>
</g>
</g>
</g>
</svg>

<g id="navigator" transform="translate(0 0)" fill="#404254">
  <rect fill="#f2f5e9" fill-opacity="0.5" stroke="#606060" stroke-width=".5" x="0" y="0" width="60" height="60"/>
  <use id="zoomplus" xlink:href="#zoomPlus" x="17" y="9" onmousedown="handleZoom(evt,'in')"/>
  <use id="zoomminus" xlink:href="#zoomMin" x="42" y="9" onmousedown="handleZoom(evt,'out')"/>
  <use id="reset" xlink:href="#resetDef" x="30" y="36" onmousedown="handleReset()"/>
   <use id="arrowup" xlink:href="#arrowUp" x="0" y="0" onmousedown="handlePan(0,-1)"/>
  <use id="arrowright" xlink:href="#arrowRight" x="0" y="0" onmousedown="handlePan(1,0)"/>
  <use id="arrowdown" xlink:href="#arrowDown" x="0" y="0" onmousedown="handlePan(0,1)"/>
  <use id="arrowleft" xlink:href="#arrowLeft" x="0" y="0" onmousedown="handlePan(-1,0)"/>
</g>
<svg viewBox="0 0 15 15" width="100%" height="30px" preserveAspectRatio="xMaxYMin meet">
 <g id="arrow_out" transform="scale(0.3 0.3)">
  <a xlink:href="session_8hpp__incl_org.svg" target="_base">
   <rect id="button" ry="5" rx="5" y="6" x="6" height="38" width="38"
        fill="#f2f5e9" fill-opacity="0.5" stroke="#606060" stroke-width="1.0"/>
   <path id="arrow"
     d="M 11.500037,31.436501 C 11.940474,20.09759 22.043105,11.32322 32.158766,21.979434 L 37.068811,17.246167 C 37.068811,17.246167 37.088388,32 37.088388,32 L 22.160133,31.978069 C 22.160133,31.978069 26.997745,27.140456 26.997745,27.140456 C 18.528582,18.264221 13.291696,25.230495 11.500037,31.436501 z"
     style="fill:#404040;"/>
  </a>
 </g>
</svg>

<style type='text/css'>
<![CDATA[
[data-mouse-over-selected='false'] { opacity: 0.7; }
[data-mouse-over-selected='true']  { opacity: 1.0; }
]]>
</style>
<script type="application/ecmascript"><![CDATA[
document.addEventListener('DOMContentLoaded', (event) => {
  highlightEdges();
  highlightAdjacentNodes();
});
]]></script>
</svg>
