<?xml version="1.0" encoding="UTF-8" standalone="no"?>
<!DOCTYPE svg PUBLIC "-//W3C//DTD SVG 1.1//EN"
 "http://www.w3.org/Graphics/SVG/1.1/DTD/svg11.dtd">
<!-- Generated by graphviz version 8.1.0 (20230707.0739)
 -->
<!-- Title: mal&#45;packet&#45;weaver/mal&#45;packet&#45;weaver/session.hpp Pages: 1 -->
<svg width="2192pt" height="282pt"
 viewBox="0.00 0.00 2191.50 282.00" xmlns="http://www.w3.org/2000/svg" xmlns:xlink="http://www.w3.org/1999/xlink">
<g id="graph0" class="graph" transform="scale(1 1) rotate(0) translate(4 278)">
<title>mal&#45;packet&#45;weaver/mal&#45;packet&#45;weaver/session.hpp</title>
<!-- Node1 -->
<g id="Node000001" class="node">
<title>Node1</title>
<g id="a_Node000001"><a xlink:title=" ">
<polygon fill="#999999" stroke="#666666" points="1135.12,-274 1010.38,-274 1010.38,-243.5 1135.12,-243.5 1135.12,-274"/>
<text text-anchor="start" x="1018.38" y="-260.5" font-family="Times,serif" font-size="10.00">mal&#45;packet&#45;weaver/mal</text>
<text text-anchor="middle" x="1072.75" y="-249.25" font-family="Times,serif" font-size="10.00">&#45;packet&#45;weaver/session.hpp</text>
</a>
</g>
</g>
<!-- Node2 -->
<g id="Node000002" class="node">
<title>Node2</title>
<g id="a_Node000002"><a xlink:title=" ">
<polygon fill="#e0e0e0" stroke="#999999" points="53.5,-207.5 0,-207.5 0,-188.25 53.5,-188.25 53.5,-207.5"/>
<text text-anchor="middle" x="26.75" y="-194" font-family="Times,serif" font-size="10.00">algorithm</text>
</a>
</g>
</g>
<!-- Node1&#45;&gt;Node2 -->
<g id="edge1_Node000001_Node000002" class="edge">
<title>Node1&#45;&gt;Node2</title>
<g id="a_edge1_Node000001_Node000002"><a xlink:title=" ">
<path fill="none" stroke="#63b8ff" d="M1010.16,-256.16C822.84,-251.15 267.63,-234.55 64.62,-207.43"/>
<polygon fill="#63b8ff" stroke="#63b8ff" points="65.16,-203.83 54.77,-205.92 64.2,-210.76 65.16,-203.83"/>
</a>
</g>
</g>
<!-- Node3 -->
<g id="Node000003" class="node">
<title>Node3</title>
<g id="a_Node000003"><a xlink:title=" ">
<polygon fill="#e0e0e0" stroke="#999999" points="119.88,-207.5 71.62,-207.5 71.62,-188.25 119.88,-188.25 119.88,-207.5"/>
<text text-anchor="middle" x="95.75" y="-194" font-family="Times,serif" font-size="10.00">memory</text>
</a>
</g>
</g>
<!-- Node1&#45;&gt;Node3 -->
<g id="edge2_Node000001_Node000003" class="edge">
<title>Node1&#45;&gt;Node3</title>
<g id="a_edge2_Node000001_Node000003"><a xlink:title=" ">
<path fill="none" stroke="#63b8ff" d="M1010.14,-256.01C831.44,-250.79 320.32,-234.08 130.82,-207.24"/>
<polygon fill="#63b8ff" stroke="#63b8ff" points="131.55,-203.67 121.15,-205.67 130.53,-210.59 131.55,-203.67"/>
</a>
</g>
</g>
<!-- Node4 -->
<g id="Node000004" class="node">
<title>Node4</title>
<g id="a_Node000004"><a xlink:title=" ">
<polygon fill="#e0e0e0" stroke="#999999" points="179.12,-207.5 138.38,-207.5 138.38,-188.25 179.12,-188.25 179.12,-207.5"/>
<text text-anchor="middle" x="158.75" y="-194" font-family="Times,serif" font-size="10.00">mutex</text>
</a>
</g>
</g>
<!-- Node1&#45;&gt;Node4 -->
<g id="edge3_Node000001_Node000004" class="edge">
<title>Node1&#45;&gt;Node4</title>
<g id="a_edge3_Node000001_Node000004"><a xlink:title=" ">
<path fill="none" stroke="#63b8ff" d="M1009.92,-256.08C838.79,-251.23 366.01,-235.8 190.17,-207.48"/>
<polygon fill="#63b8ff" stroke="#63b8ff" points="190.96,-203.89 180.52,-205.68 189.8,-210.8 190.96,-203.89"/>
</a>
</g>
</g>
<!-- Node5 -->
<g id="Node000005" class="node">
<title>Node5</title>
<g id="a_Node000005"><a xlink:title=" ">
<polygon fill="#e0e0e0" stroke="#999999" points="236.75,-207.5 196.75,-207.5 196.75,-188.25 236.75,-188.25 236.75,-207.5"/>
<text text-anchor="middle" x="216.75" y="-194" font-family="Times,serif" font-size="10.00">queue</text>
</a>
</g>
</g>
<!-- Node1&#45;&gt;Node5 -->
<g id="edge4_Node000001_Node000005" class="edge">
<title>Node1&#45;&gt;Node5</title>
<g id="a_edge4_Node000001_Node000005"><a xlink:title=" ">
<path fill="none" stroke="#63b8ff" d="M1010.04,-258.59C873.04,-259.44 536.85,-256.05 247.64,-207.16"/>
<polygon fill="#63b8ff" stroke="#63b8ff" points="248.39,-203.57 237.94,-205.33 247.21,-210.47 248.39,-203.57"/>
</a>
</g>
</g>
<!-- Node6 -->
<g id="Node000006" class="node">
<title>Node6</title>
<g id="a_Node000006"><a xlink:title=" ">
<polygon fill="#e0e0e0" stroke="#999999" points="370.25,-207.5 255.25,-207.5 255.25,-188.25 370.25,-188.25 370.25,-207.5"/>
<text text-anchor="middle" x="312.75" y="-194" font-family="Times,serif" font-size="10.00">boost/asio/awaitable.hpp</text>
</a>
</g>
</g>
<!-- Node1&#45;&gt;Node6 -->
<g id="edge5_Node000001_Node000006" class="edge">
<title>Node1&#45;&gt;Node6</title>
<g id="a_edge5_Node000001_Node000006"><a xlink:title=" ">
<path fill="none" stroke="#63b8ff" d="M1010.06,-254.38C890.14,-247.67 619.77,-231.31 381.09,-207.58"/>
<polygon fill="#63b8ff" stroke="#63b8ff" points="381.77,-204.03 371.47,-206.51 381.07,-210.99 381.77,-204.03"/>
</a>
</g>
</g>
<!-- Node7 -->
<g id="Node000007" class="node">
<title>Node7</title>
<g id="a_Node000007"><a xlink:title=" ">
<polygon fill="#e0e0e0" stroke="#999999" points="506.75,-207.5 388.75,-207.5 388.75,-188.25 506.75,-188.25 506.75,-207.5"/>
<text text-anchor="middle" x="447.75" y="-194" font-family="Times,serif" font-size="10.00">boost/asio/co_spawn.hpp</text>
</a>
</g>
</g>
<!-- Node1&#45;&gt;Node7 -->
<g id="edge6_Node000001_Node000007" class="edge">
<title>Node1&#45;&gt;Node7</title>
<g id="a_edge6_Node000001_Node000007"><a xlink:title=" ">
<path fill="none" stroke="#63b8ff" d="M1010.14,-252.79C909.1,-244.64 703.53,-227.42 517.98,-207.59"/>
<polygon fill="#63b8ff" stroke="#63b8ff" points="518.52,-204.02 508.2,-206.44 517.77,-210.98 518.52,-204.02"/>
</a>
</g>
</g>
<!-- Node8 -->
<g id="Node000008" class="node">
<title>Node8</title>
<g id="a_Node000008"><a xlink:title=" ">
<polygon fill="#e0e0e0" stroke="#999999" points="640.25,-207.5 525.25,-207.5 525.25,-188.25 640.25,-188.25 640.25,-207.5"/>
<text text-anchor="middle" x="582.75" y="-194" font-family="Times,serif" font-size="10.00">boost/asio/detached.hpp</text>
</a>
</g>
</g>
<!-- Node1&#45;&gt;Node8 -->
<g id="edge7_Node000001_Node000008" class="edge">
<title>Node1&#45;&gt;Node8</title>
<g id="a_edge7_Node000001_Node000008"><a xlink:title=" ">
<path fill="none" stroke="#63b8ff" d="M1010.02,-250.49C929.58,-241.14 785.49,-224.25 651.36,-207.69"/>
<polygon fill="#63b8ff" stroke="#63b8ff" points="651.84,-204.1 641.49,-206.34 650.98,-211.04 651.84,-204.1"/>
</a>
</g>
</g>
<!-- Node9 -->
<g id="Node000009" class="node">
<title>Node9</title>
<g id="a_Node000009"><a xlink:title=" ">
<polygon fill="#e0e0e0" stroke="#999999" points="760.88,-207.5 658.62,-207.5 658.62,-188.25 760.88,-188.25 760.88,-207.5"/>
<text text-anchor="middle" x="709.75" y="-194" font-family="Times,serif" font-size="10.00">boost/asio/ip/tcp.hpp</text>
</a>
</g>
</g>
<!-- Node1&#45;&gt;Node9 -->
<g id="edge8_Node000001_Node000009" class="edge">
<title>Node1&#45;&gt;Node9</title>
<g id="a_edge8_Node000001_Node000009"><a xlink:title=" ">
<path fill="none" stroke="#63b8ff" d="M1009.93,-247.56C943.23,-236.74 838.45,-219.75 771.98,-208.97"/>
<polygon fill="#63b8ff" stroke="#63b8ff" points="772.68,-205.37 762.25,-207.23 771.56,-212.28 772.68,-205.37"/>
</a>
</g>
</g>
<!-- Node10 -->
<g id="Node000010" class="node">
<title>Node10</title>
<g id="a_Node000010"><a xlink:title=" ">
<polygon fill="#e0e0e0" stroke="#999999" points="874.5,-207.5 779,-207.5 779,-188.25 874.5,-188.25 874.5,-207.5"/>
<text text-anchor="middle" x="826.75" y="-194" font-family="Times,serif" font-size="10.00">boost/asio/read.hpp</text>
</a>
</g>
</g>
<!-- Node1&#45;&gt;Node10 -->
<g id="edge9_Node000001_Node000010" class="edge">
<title>Node1&#45;&gt;Node10</title>
<g id="a_edge9_Node000001_Node000010"><a xlink:title=" ">
<path fill="none" stroke="#63b8ff" d="M1011.31,-243.05C969.29,-232.99 914.36,-219.84 875.39,-210.51"/>
<polygon fill="#63b8ff" stroke="#63b8ff" points="876.38,-206.91 865.84,-207.99 874.75,-213.72 876.38,-206.91"/>
</a>
</g>
</g>
<!-- Node11 -->
<g id="Node000011" class="node">
<title>Node11</title>
<g id="a_Node000011"><a xlink:title=" ">
<polygon fill="#e0e0e0" stroke="#999999" points="995.25,-207.5 892.25,-207.5 892.25,-188.25 995.25,-188.25 995.25,-207.5"/>
<text text-anchor="middle" x="943.75" y="-194" font-family="Times,serif" font-size="10.00">boost/asio/spawn.hpp</text>
</a>
</g>
</g>
<!-- Node1&#45;&gt;Node11 -->
<g id="edge10_Node000001_Node000011" class="edge">
<title>Node1&#45;&gt;Node11</title>
<g id="a_edge10_Node000001_Node000011"><a xlink:title=" ">
<path fill="none" stroke="#63b8ff" d="M1040.53,-243.05C1019.94,-233.65 993.44,-221.55 973.37,-212.39"/>
<polygon fill="#63b8ff" stroke="#63b8ff" points="975.08,-208.87 964.53,-207.9 972.18,-215.24 975.08,-208.87"/>
</a>
</g>
</g>
<!-- Node12 -->
<g id="Node000012" class="node">
<title>Node12</title>
<g id="a_Node000012"><a xlink:title=" ">
<polygon fill="#e0e0e0" stroke="#999999" points="1132.12,-207.5 1013.38,-207.5 1013.38,-188.25 1132.12,-188.25 1132.12,-207.5"/>
<text text-anchor="middle" x="1072.75" y="-194" font-family="Times,serif" font-size="10.00">boost/asio/streambuf.hpp</text>
</a>
</g>
</g>
<!-- Node1&#45;&gt;Node12 -->
<g id="edge11_Node000001_Node000012" class="edge">
<title>Node1&#45;&gt;Node12</title>
<g id="a_edge11_Node000001_Node000012"><a xlink:title=" ">
<path fill="none" stroke="#63b8ff" d="M1072.75,-243.2C1072.75,-235.87 1072.75,-226.87 1072.75,-218.91"/>
<polygon fill="#63b8ff" stroke="#63b8ff" points="1076.25,-218.95 1072.75,-208.95 1069.25,-218.95 1076.25,-218.95"/>
</a>
</g>
</g>
<!-- Node13 -->
<g id="Node000013" class="node">
<title>Node13</title>
<g id="a_Node000013"><a xlink:title=" ">
<polygon fill="#e0e0e0" stroke="#999999" points="1249,-207.5 1150.5,-207.5 1150.5,-188.25 1249,-188.25 1249,-207.5"/>
<text text-anchor="middle" x="1199.75" y="-194" font-family="Times,serif" font-size="10.00">boost/asio/write.hpp</text>
</a>
</g>
</g>
<!-- Node1&#45;&gt;Node13 -->
<g id="edge12_Node000001_Node000013" class="edge">
<title>Node1&#45;&gt;Node13</title>
<g id="a_edge12_Node000001_Node000013"><a xlink:title=" ">
<path fill="none" stroke="#63b8ff" d="M1104.47,-243.05C1124.65,-233.69 1150.59,-221.66 1170.31,-212.52"/>
<polygon fill="#63b8ff" stroke="#63b8ff" points="1171.67,-215.29 1179.27,-207.9 1168.73,-208.93 1171.67,-215.29"/>
</a>
</g>
</g>
<!-- Node14 -->
<g id="Node000014" class="node">
<title>Node14</title>
<g id="a_Node000014"><a xlink:title=" ">
<polygon fill="#e0e0e0" stroke="#999999" points="1398.12,-207.5 1267.38,-207.5 1267.38,-188.25 1398.12,-188.25 1398.12,-207.5"/>
<text text-anchor="middle" x="1332.75" y="-194" font-family="Times,serif" font-size="10.00">boost/endian/conversion.hpp</text>
</a>
</g>
</g>
<!-- Node1&#45;&gt;Node14 -->
<g id="edge13_Node000001_Node000014" class="edge">
<title>Node1&#45;&gt;Node14</title>
<g id="a_edge13_Node000001_Node000014"><a xlink:title=" ">
<path fill="none" stroke="#63b8ff" d="M1135.36,-243.57C1180.28,-233.4 1240.05,-219.87 1282,-210.37"/>
<polygon fill="#63b8ff" stroke="#63b8ff" points="1282.55,-213.6 1291.53,-207.98 1281.01,-206.78 1282.55,-213.6"/>
</a>
</g>
</g>
<!-- Node15 -->
<g id="Node000015" class="node">
<title>Node15</title>
<g id="a_Node000015"><a xlink:title=" ">
<polygon fill="#e0e0e0" stroke="#999999" points="1523.5,-207.5 1416,-207.5 1416,-188.25 1523.5,-188.25 1523.5,-207.5"/>
<text text-anchor="middle" x="1469.75" y="-194" font-family="Times,serif" font-size="10.00">boost/range/begin.hpp</text>
</a>
</g>
</g>
<!-- Node1&#45;&gt;Node15 -->
<g id="edge14_Node000001_Node000015" class="edge">
<title>Node1&#45;&gt;Node15</title>
<g id="a_edge14_Node000001_Node000015"><a xlink:title=" ">
<path fill="none" stroke="#63b8ff" d="M1135.22,-248.49C1208.79,-237.58 1330.4,-219.54 1404.96,-208.48"/>
<polygon fill="#63b8ff" stroke="#63b8ff" points="1405.23,-211.83 1414.61,-206.9 1404.21,-204.91 1405.23,-211.83"/>
</a>
</g>
</g>
<!-- Node16 -->
<g id="Node000016" class="node">
<title>Node16</title>
<g id="a_Node000016"><a xlink:title=" ">
<polygon fill="#e0e0e0" stroke="#999999" points="1640.38,-207.5 1541.12,-207.5 1541.12,-188.25 1640.38,-188.25 1640.38,-207.5"/>
<text text-anchor="middle" x="1590.75" y="-194" font-family="Times,serif" font-size="10.00">boost/range/end.hpp</text>
</a>
</g>
</g>
<!-- Node1&#45;&gt;Node16 -->
<g id="edge15_Node000001_Node000016" class="edge">
<title>Node1&#45;&gt;Node16</title>
<g id="a_edge15_Node000001_Node000016"><a xlink:title=" ">
<path fill="none" stroke="#63b8ff" d="M1135.34,-251.69C1221.86,-243.14 1383.14,-226.58 1530.22,-207.79"/>
<polygon fill="#63b8ff" stroke="#63b8ff" points="1530.31,-211.18 1539.78,-206.43 1529.42,-204.23 1530.31,-211.18"/>
</a>
</g>
</g>
<!-- Node17 -->
<g id="Node000017" class="node">
<title>Node17</title>
<g id="a_Node000017"><a xlink:title=" ">
<polygon fill="#e0e0e0" stroke="#999999" points="1777.12,-207.5 1658.38,-207.5 1658.38,-188.25 1777.12,-188.25 1777.12,-207.5"/>
<text text-anchor="middle" x="1717.75" y="-194" font-family="Times,serif" font-size="10.00">boost/lockfree/queue.hpp</text>
</a>
</g>
</g>
<!-- Node1&#45;&gt;Node17 -->
<g id="edge16_Node000001_Node000017" class="edge">
<title>Node1&#45;&gt;Node17</title>
<g id="a_edge16_Node000001_Node000017"><a xlink:title=" ">
<path fill="none" stroke="#63b8ff" d="M1135.58,-253.09C1239.71,-245.19 1454.86,-228.11 1647.18,-207.74"/>
<polygon fill="#63b8ff" stroke="#63b8ff" points="1647.49,-211.12 1657.06,-206.58 1646.75,-204.16 1647.49,-211.12"/>
</a>
</g>
</g>
<!-- Node18 -->
<g id="Node000018" class="node">
<title>Node18</title>
<g id="a_Node000018"><a xlink:title=" ">
<polygon fill="#e0e0e0" stroke="#999999" points="1870.75,-207.5 1794.75,-207.5 1794.75,-188.25 1870.75,-188.25 1870.75,-207.5"/>
<text text-anchor="middle" x="1832.75" y="-194" font-family="Times,serif" font-size="10.00">crypto/aes.hpp</text>
</a>
</g>
</g>
<!-- Node1&#45;&gt;Node18 -->
<g id="edge17_Node000001_Node000018" class="edge">
<title>Node1&#45;&gt;Node18</title>
<g id="a_edge17_Node000001_Node000018"><a xlink:title=" ">
<path fill="none" stroke="#63b8ff" d="M1135.45,-255.67C1258.04,-251.1 1538.24,-238.16 1783.42,-207.66"/>
<polygon fill="#63b8ff" stroke="#63b8ff" points="1783.84,-211.01 1793.33,-206.28 1782.97,-204.06 1783.84,-211.01"/>
</a>
</g>
</g>
<!-- Node19 -->
<g id="Node000019" class="node">
<title>Node19</title>
<g id="a_Node000019"><a xlink:href="../../d2/d3f/packet_8hpp.html" target="_top" xlink:title=" ">
<polygon fill="white" stroke="#666666" points="1948.88,-207.5 1888.62,-207.5 1888.62,-188.25 1948.88,-188.25 1948.88,-207.5"/>
<text text-anchor="middle" x="1918.75" y="-194" font-family="Times,serif" font-size="10.00">packet.hpp</text>
</a>
</g>
</g>
<!-- Node1&#45;&gt;Node19 -->
<g id="edge18_Node000001_Node000019" class="edge">
<title>Node1&#45;&gt;Node19</title>
<g id="a_edge18_Node000001_Node000019"><a xlink:title=" ">
<path fill="none" stroke="#63b8ff" d="M1135.61,-257.15C1270.14,-255.16 1595.94,-246.51 1877.34,-207.62"/>
<polygon fill="#63b8ff" stroke="#63b8ff" points="1877.76,-210.96 1887.18,-206.11 1876.79,-204.03 1877.76,-210.96"/>
</a>
</g>
</g>
<!-- Node27 -->
<g id="Node000027" class="node">
<title>Node27</title>
<g id="a_Node000027"><a xlink:title=" ">
<polygon fill="#e0e0e0" stroke="#999999" points="2094.25,-207.5 1967.25,-207.5 1967.25,-188.25 2094.25,-188.25 2094.25,-207.5"/>
<text text-anchor="middle" x="2030.75" y="-194" font-family="Times,serif" font-size="10.00">mal_toolkit/mal_toolkit.hpp</text>
</a>
</g>
</g>
<!-- Node1&#45;&gt;Node27 -->
<g id="edge26_Node000001_Node000027" class="edge">
<title>Node1&#45;&gt;Node27</title>
<g id="a_edge26_Node000001_Node000027"><a xlink:title=" ">
<path fill="none" stroke="#63b8ff" d="M1135.62,-255.5C1279.06,-250.07 1641.72,-234.74 1956.37,-207.56"/>
<polygon fill="#63b8ff" stroke="#63b8ff" points="1956.41,-210.98 1966.07,-206.63 1955.81,-204.01 1956.41,-210.98"/>
</a>
</g>
</g>
<!-- Node28 -->
<g id="Node000028" class="node">
<title>Node28</title>
<g id="a_Node000028"><a xlink:href="../../d1/d16/session_8inl.html" target="_top" xlink:title=" ">
<polygon fill="white" stroke="#666666" points="2169,-207.5 2112.5,-207.5 2112.5,-188.25 2169,-188.25 2169,-207.5"/>
<text text-anchor="middle" x="2140.75" y="-194" font-family="Times,serif" font-size="10.00">session.inl</text>
</a>
</g>
</g>
<!-- Node1&#45;&gt;Node28 -->
<g id="edge27_Node000001_Node000028" class="edge">
<title>Node1&#45;&gt;Node28</title>
<g id="a_edge27_Node000001_Node000028"><a xlink:title=" ">
<path fill="none" stroke="#63b8ff" d="M1135.46,-256.07C1327.84,-250.86 1907.4,-233.68 2094.75,-207.5 2096.94,-207.19 2099.2,-206.82 2101.48,-206.4"/>
<polygon fill="#63b8ff" stroke="#63b8ff" points="2102.15,-209.63 2111.24,-204.2 2100.75,-202.77 2102.15,-209.63"/>
</a>
</g>
</g>
<!-- Node20 -->
<g id="Node000020" class="node">
<title>Node20</title>
<g id="a_Node000020"><a xlink:href="../../d3/d53/packet-factory_8hpp.html" target="_top" xlink:title=" ">
<polygon fill="white" stroke="#666666" points="1966.12,-152.25 1871.38,-152.25 1871.38,-121.75 1966.12,-121.75 1966.12,-152.25"/>
<text text-anchor="start" x="1879.38" y="-138.75" font-family="Times,serif" font-size="10.00">packet_impl/packet</text>
<text text-anchor="middle" x="1918.75" y="-127.5" font-family="Times,serif" font-size="10.00">&#45;factory.hpp</text>
</a>
</g>
</g>
<!-- Node19&#45;&gt;Node20 -->
<g id="edge19_Node000019_Node000020" class="edge">
<title>Node19&#45;&gt;Node20</title>
<g id="a_edge19_Node000019_Node000020"><a xlink:title=" ">
<path fill="none" stroke="#63b8ff" d="M1918.75,-187.93C1918.75,-181.4 1918.75,-172.2 1918.75,-163.47"/>
<polygon fill="#63b8ff" stroke="#63b8ff" points="1922.25,-163.53 1918.75,-153.53 1915.25,-163.53 1922.25,-163.53"/>
</a>
</g>
</g>
<!-- Node21 -->
<g id="Node000021" class="node">
<title>Node21</title>
<g id="a_Node000021"><a xlink:href="../../d9/d85/packet__impl_2packet_8hpp.html" target="_top" xlink:title=" ">
<polygon fill="white" stroke="#666666" points="1948.88,-85.75 1888.62,-85.75 1888.62,-66.5 1948.88,-66.5 1948.88,-85.75"/>
<text text-anchor="middle" x="1918.75" y="-72.25" font-family="Times,serif" font-size="10.00">packet.hpp</text>
</a>
</g>
</g>
<!-- Node20&#45;&gt;Node21 -->
<g id="edge20_Node000020_Node000021" class="edge">
<title>Node20&#45;&gt;Node21</title>
<g id="a_edge20_Node000020_Node000021"><a xlink:title=" ">
<path fill="none" stroke="#63b8ff" d="M1918.75,-121.45C1918.75,-114.12 1918.75,-105.12 1918.75,-97.16"/>
<polygon fill="#63b8ff" stroke="#63b8ff" points="1922.25,-97.2 1918.75,-87.2 1915.25,-97.2 1922.25,-97.2"/>
</a>
</g>
</g>
<!-- Node22 -->
<g id="Node000022" class="node">
<title>Node22</title>
<g id="a_Node000022"><a xlink:title=" ">
<polygon fill="#e0e0e0" stroke="#999999" points="1734,-24.88 1611.5,-24.88 1611.5,-5.63 1734,-5.63 1734,-24.88"/>
<text text-anchor="middle" x="1672.75" y="-11.38" font-family="Times,serif" font-size="10.00">mal&#45;toolkit/mal&#45;toolkit.hpp</text>
</a>
</g>
</g>
<!-- Node21&#45;&gt;Node22 -->
<g id="edge21_Node000021_Node000022" class="edge">
<title>Node21&#45;&gt;Node22</title>
<g id="a_edge21_Node000021_Node000022"><a xlink:title=" ">
<path fill="none" stroke="#63b8ff" d="M1888.59,-67.91C1846.87,-57.92 1771.09,-39.79 1721.34,-27.88"/>
<polygon fill="#63b8ff" stroke="#63b8ff" points="1722.37,-24.29 1711.83,-25.36 1720.74,-31.1 1722.37,-24.29"/>
</a>
</g>
</g>
<!-- Node23 -->
<g id="Node000023" class="node">
<title>Node23</title>
<g id="a_Node000023"><a xlink:title=" ">
<polygon fill="#e0e0e0" stroke="#999999" points="1851,-30.5 1752.5,-30.5 1752.5,0 1851,0 1851,-30.5"/>
<text text-anchor="start" x="1760.5" y="-17" font-family="Times,serif" font-size="10.00">boost/archive/binary</text>
<text text-anchor="middle" x="1801.75" y="-5.75" font-family="Times,serif" font-size="10.00">_iarchive.hpp</text>
</a>
</g>
</g>
<!-- Node21&#45;&gt;Node23 -->
<g id="edge22_Node000021_Node000023" class="edge">
<title>Node21&#45;&gt;Node23</title>
<g id="a_edge22_Node000021_Node000023"><a xlink:title=" ">
<path fill="none" stroke="#63b8ff" d="M1900.73,-66.05C1884.75,-58.02 1860.88,-46 1840.58,-35.79"/>
<polygon fill="#63b8ff" stroke="#63b8ff" points="1842.46,-32.31 1831.95,-30.94 1839.31,-38.57 1842.46,-32.31"/>
</a>
</g>
</g>
<!-- Node24 -->
<g id="Node000024" class="node">
<title>Node24</title>
<g id="a_Node000024"><a xlink:title=" ">
<polygon fill="#e0e0e0" stroke="#999999" points="1968,-30.5 1869.5,-30.5 1869.5,0 1968,0 1968,-30.5"/>
<text text-anchor="start" x="1877.5" y="-17" font-family="Times,serif" font-size="10.00">boost/archive/binary</text>
<text text-anchor="middle" x="1918.75" y="-5.75" font-family="Times,serif" font-size="10.00">_oarchive.hpp</text>
</a>
</g>
</g>
<!-- Node21&#45;&gt;Node24 -->
<g id="edge23_Node000021_Node000024" class="edge">
<title>Node21&#45;&gt;Node24</title>
<g id="a_edge23_Node000021_Node000024"><a xlink:title=" ">
<path fill="none" stroke="#63b8ff" d="M1918.75,-66.18C1918.75,-59.65 1918.75,-50.45 1918.75,-41.72"/>
<polygon fill="#63b8ff" stroke="#63b8ff" points="1922.25,-41.78 1918.75,-31.78 1915.25,-41.78 1922.25,-41.78"/>
</a>
</g>
</g>
<!-- Node25 -->
<g id="Node000025" class="node">
<title>Node25</title>
<g id="a_Node000025"><a xlink:title=" ">
<polygon fill="#e0e0e0" stroke="#999999" points="2075.5,-30.5 1986,-30.5 1986,0 2075.5,0 2075.5,-30.5"/>
<text text-anchor="start" x="1994" y="-17" font-family="Times,serif" font-size="10.00">boost/serialization</text>
<text text-anchor="middle" x="2030.75" y="-5.75" font-family="Times,serif" font-size="10.00">/base_object.hpp</text>
</a>
</g>
</g>
<!-- Node21&#45;&gt;Node25 -->
<g id="edge24_Node000021_Node000025" class="edge">
<title>Node21&#45;&gt;Node25</title>
<g id="a_edge24_Node000021_Node000025"><a xlink:title=" ">
<path fill="none" stroke="#63b8ff" d="M1935.76,-66.18C1951.05,-58.15 1974.03,-46.07 1993.56,-35.8"/>
<polygon fill="#63b8ff" stroke="#63b8ff" points="1994.88,-38.53 2002.11,-30.78 1991.62,-32.34 1994.88,-38.53"/>
</a>
</g>
</g>
<!-- Node26 -->
<g id="Node000026" class="node">
<title>Node26</title>
<g id="a_Node000026"><a xlink:title=" ">
<polygon fill="#e0e0e0" stroke="#999999" points="2183.5,-30.5 2094,-30.5 2094,0 2183.5,0 2183.5,-30.5"/>
<text text-anchor="start" x="2102" y="-17" font-family="Times,serif" font-size="10.00">boost/serialization</text>
<text text-anchor="middle" x="2138.75" y="-5.75" font-family="Times,serif" font-size="10.00">/serialization.hpp</text>
</a>
</g>
</g>
<!-- Node21&#45;&gt;Node26 -->
<g id="edge25_Node000021_Node000026" class="edge">
<title>Node21&#45;&gt;Node26</title>
<g id="a_edge25_Node000021_Node000026"><a xlink:title=" ">
<path fill="none" stroke="#63b8ff" d="M1949.34,-66.94C1983.84,-57.71 2040.67,-42.5 2083.09,-31.15"/>
<polygon fill="#63b8ff" stroke="#63b8ff" points="2083.79,-34.31 2092.54,-28.35 2081.98,-27.55 2083.79,-34.31"/>
</a>
</g>
</g>
<!-- Node28&#45;&gt;Node1 -->
<g id="edge28_Node000028_Node000001" class="edge">
<title>Node28&#45;&gt;Node1</title>
<g id="a_edge28_Node000028_Node000001"><a xlink:title=" ">
<path fill="none" stroke="#63b8ff" d="M2112.19,-207.58C1925.13,-233.6 1351.05,-250.7 1146.23,-256"/>
<polygon fill="#63b8ff" stroke="#63b8ff" points="1146.21,-252.52 1136.3,-256.28 1146.39,-259.52 1146.21,-252.52"/>
</a>
</g>
</g>
</g>
</svg>
