<?xml version="1.0" encoding="UTF-8" standalone="no"?>
<!DOCTYPE svg PUBLIC "-//W3C//DTD SVG 1.1//EN"
 "http://www.w3.org/Graphics/SVG/1.1/DTD/svg11.dtd">
<!-- Generated by graphviz version 8.1.0 (20230707.0739)
 -->
<!-- Title: third_party/mal&#45;toolkit/mal&#45;toolkit/mal&#45;toolkit/debug.hpp Pages: 1 -->
<svg width="723pt" height="683pt"
 viewBox="0.00 0.00 722.75 683.00" xmlns="http://www.w3.org/2000/svg" xmlns:xlink="http://www.w3.org/1999/xlink">
<g id="graph0" class="graph" transform="scale(1 1) rotate(0) translate(4 679)">
<title>third_party/mal&#45;toolkit/mal&#45;toolkit/mal&#45;toolkit/debug.hpp</title>
<!-- Node1 -->
<g id="Node000001" class="node">
<title>Node1</title>
<g id="a_Node000001"><a xlink:title="Contains debugging&#45;related macros and utilities for assisting with debugging tasks.">
<polygon fill="#999999" stroke="#666666" points="260.62,-675 153.12,-675 153.12,-633.25 260.62,-633.25 260.62,-675"/>
<text text-anchor="start" x="161.12" y="-661.5" font-family="Times,serif" font-size="10.00">third_party/mal&#45;toolkit</text>
<text text-anchor="start" x="161.12" y="-650.25" font-family="Times,serif" font-size="10.00">/mal&#45;toolkit/mal&#45;toolkit</text>
<text text-anchor="middle" x="206.88" y="-639" font-family="Times,serif" font-size="10.00">/debug.hpp</text>
</a>
</g>
</g>
<!-- Node2 -->
<g id="Node000002" class="node">
<title>Node2</title>
<g id="a_Node000002"><a xlink:href="../../da/d43/debug__with__source__location_8hpp.html" target="_top" xlink:title="This file provides utility functions for debugging and assertion handling.">
<polygon fill="white" stroke="#666666" points="121.75,-597.25 0,-597.25 0,-544.25 121.75,-544.25 121.75,-597.25"/>
<text text-anchor="start" x="8" y="-583.75" font-family="Times,serif" font-size="10.00">third_party/mal&#45;toolkit</text>
<text text-anchor="start" x="8" y="-572.5" font-family="Times,serif" font-size="10.00">/mal&#45;toolkit/mal&#45;toolkit</text>
<text text-anchor="start" x="8" y="-561.25" font-family="Times,serif" font-size="10.00">/detail/debug_with_source</text>
<text text-anchor="middle" x="60.88" y="-550" font-family="Times,serif" font-size="10.00">_location.hpp</text>
</a>
</g>
</g>
<!-- Node1&#45;&gt;Node2 -->
<g id="edge1_Node000001_Node000002" class="edge">
<title>Node1&#45;&gt;Node2</title>
<g id="a_edge1_Node000001_Node000002"><a xlink:title=" ">
<path fill="none" stroke="#63b8ff" d="M154.85,-627.65C137.14,-618.1 117.66,-607.24 101.02,-597.66"/>
<polygon fill="#63b8ff" stroke="#63b8ff" points="153.01,-631.17 163.48,-632.8 156.31,-624.99 153.01,-631.17"/>
</a>
</g>
</g>
<!-- Node3 -->
<g id="Node000003" class="node">
<title>Node3</title>
<g id="a_Node000003"><a xlink:href="../../d3/d4b/debug__without__source__location_8hpp.html" target="_top" xlink:title="Provides utility functions for debugging and assertion handling without source location information.">
<polygon fill="white" stroke="#666666" points="274.12,-597.25 139.62,-597.25 139.62,-544.25 274.12,-544.25 274.12,-597.25"/>
<text text-anchor="start" x="147.62" y="-583.75" font-family="Times,serif" font-size="10.00">third_party/mal&#45;toolkit</text>
<text text-anchor="start" x="147.62" y="-572.5" font-family="Times,serif" font-size="10.00">/mal&#45;toolkit/mal&#45;toolkit</text>
<text text-anchor="start" x="147.62" y="-561.25" font-family="Times,serif" font-size="10.00">/detail/debug_without_source</text>
<text text-anchor="middle" x="206.88" y="-550" font-family="Times,serif" font-size="10.00">_location.hpp</text>
</a>
</g>
</g>
<!-- Node1&#45;&gt;Node3 -->
<g id="edge3_Node000001_Node000003" class="edge">
<title>Node1&#45;&gt;Node3</title>
<g id="a_edge3_Node000001_Node000003"><a xlink:title=" ">
<path fill="none" stroke="#63b8ff" d="M206.88,-622.05C206.88,-613.93 206.88,-605.28 206.88,-597.48"/>
<polygon fill="#63b8ff" stroke="#63b8ff" points="203.38,-622.01 206.88,-632.01 210.38,-622.01 203.38,-622.01"/>
</a>
</g>
</g>
<!-- Node4 -->
<g id="Node000004" class="node">
<title>Node4</title>
<g id="a_Node000004"><a xlink:href="../../d1/d8a/mal-toolkit_8hpp.html" target="_top" xlink:title="Main header file for the MAL Toolkit library, providing a comprehensive set of tools and utilities.">
<polygon fill="white" stroke="#666666" points="396.62,-508.25 289.12,-508.25 289.12,-466.5 396.62,-466.5 396.62,-508.25"/>
<text text-anchor="start" x="297.12" y="-494.75" font-family="Times,serif" font-size="10.00">third_party/mal&#45;toolkit</text>
<text text-anchor="start" x="297.12" y="-483.5" font-family="Times,serif" font-size="10.00">/mal&#45;toolkit/mal&#45;toolkit</text>
<text text-anchor="middle" x="342.88" y="-472.25" font-family="Times,serif" font-size="10.00">/mal&#45;toolkit.hpp</text>
</a>
</g>
</g>
<!-- Node1&#45;&gt;Node4 -->
<g id="edge4_Node000001_Node000004" class="edge">
<title>Node1&#45;&gt;Node4</title>
<g id="a_edge4_Node000001_Node000004"><a xlink:title=" ">
<path fill="none" stroke="#63b8ff" d="M249.65,-626.64C261.3,-618.17 273.32,-608.14 282.88,-597.25 306.79,-570 325.16,-531.63 334.96,-508.46"/>
<polygon fill="#63b8ff" stroke="#63b8ff" points="248.04,-624.2 241.86,-632.8 252.06,-629.93 248.04,-624.2"/>
</a>
</g>
</g>
<!-- Node23 -->
<g id="Node000023" class="node">
<title>Node23</title>
<g id="a_Node000023"><a xlink:href="../../d0/db4/measurer_8hpp.html" target="_top" xlink:title="Implements performance measurement and profiling utilities.">
<polygon fill="white" stroke="#666666" points="437.62,-591.62 330.12,-591.62 330.12,-549.88 437.62,-549.88 437.62,-591.62"/>
<text text-anchor="start" x="338.12" y="-578.12" font-family="Times,serif" font-size="10.00">third_party/mal&#45;toolkit</text>
<text text-anchor="start" x="338.12" y="-566.88" font-family="Times,serif" font-size="10.00">/mal&#45;toolkit/mal&#45;toolkit</text>
<text text-anchor="middle" x="383.88" y="-555.62" font-family="Times,serif" font-size="10.00">/measurer.hpp</text>
</a>
</g>
</g>
<!-- Node1&#45;&gt;Node23 -->
<g id="edge33_Node000001_Node000023" class="edge">
<title>Node1&#45;&gt;Node23</title>
<g id="a_edge33_Node000001_Node000023"><a xlink:title=" ">
<path fill="none" stroke="#63b8ff" d="M260.87,-628.3C286.09,-616.71 315.74,-603.07 339.62,-592.1"/>
<polygon fill="#63b8ff" stroke="#63b8ff" points="259.71,-625.44 252.08,-632.8 262.63,-631.8 259.71,-625.44"/>
</a>
</g>
</g>
<!-- Node2&#45;&gt;Node1 -->
<g id="edge2_Node000002_Node000001" class="edge">
<title>Node2&#45;&gt;Node1</title>
<g id="a_edge2_Node000002_Node000001"><a xlink:title=" ">
<path fill="none" stroke="#63b8ff" d="M123.2,-602.82C141.59,-612.87 160.88,-623.74 176.34,-632.8"/>
<polygon fill="#63b8ff" stroke="#63b8ff" points="125.15,-599.35 114.69,-597.66 121.81,-605.51 125.15,-599.35"/>
</a>
</g>
</g>
<!-- Node5 -->
<g id="Node000005" class="node">
<title>Node5</title>
<g id="a_Node000005"><a xlink:href="../../d3/daa/encryption-interface_8hpp.html" target="_top" xlink:title=" ">
<polygon fill="white" stroke="#666666" points="123.5,-430.5 6.25,-430.5 6.25,-388.75 123.5,-388.75 123.5,-430.5"/>
<text text-anchor="start" x="14.25" y="-417" font-family="Times,serif" font-size="10.00">mal&#45;packet&#45;weaver/mal</text>
<text text-anchor="start" x="14.25" y="-405.75" font-family="Times,serif" font-size="10.00">&#45;packet&#45;weaver/crypto</text>
<text text-anchor="middle" x="64.88" y="-394.5" font-family="Times,serif" font-size="10.00">/encryption&#45;interface.hpp</text>
</a>
</g>
</g>
<!-- Node4&#45;&gt;Node5 -->
<g id="edge5_Node000004_Node000005" class="edge">
<title>Node4&#45;&gt;Node5</title>
<g id="a_edge5_Node000004_Node000005"><a xlink:title=" ">
<path fill="none" stroke="#63b8ff" d="M278.08,-468.88C237.5,-457.9 184.12,-443.43 136.88,-430.5 132.62,-429.34 128.23,-428.13 123.81,-426.92"/>
<polygon fill="#63b8ff" stroke="#63b8ff" points="277.07,-472.5 287.64,-471.74 278.9,-465.75 277.07,-472.5"/>
</a>
</g>
</g>
<!-- Node8 -->
<g id="Node000008" class="node">
<title>Node8</title>
<g id="a_Node000008"><a xlink:href="../../d4/d5e/session_8hpp.html" target="_top" xlink:title=" ">
<polygon fill="white" stroke="#666666" points="405.25,-113.88 280.5,-113.88 280.5,-83.38 405.25,-83.38 405.25,-113.88"/>
<text text-anchor="start" x="288.5" y="-100.38" font-family="Times,serif" font-size="10.00">mal&#45;packet&#45;weaver/mal</text>
<text text-anchor="middle" x="342.88" y="-89.12" font-family="Times,serif" font-size="10.00">&#45;packet&#45;weaver/session.hpp</text>
</a>
</g>
</g>
<!-- Node4&#45;&gt;Node8 -->
<g id="edge32_Node000004_Node000008" class="edge">
<title>Node4&#45;&gt;Node8</title>
<g id="a_edge32_Node000004_Node000008"><a xlink:title=" ">
<path fill="none" stroke="#63b8ff" d="M342.88,-455.05C342.88,-424.03 342.88,-375.17 342.88,-332.88 342.88,-332.88 342.88,-332.88 342.88,-253.12 342.88,-201.96 342.88,-141.2 342.88,-114.02"/>
<polygon fill="#63b8ff" stroke="#63b8ff" points="339.38,-455.01 342.88,-465.01 346.38,-455.01 339.38,-455.01"/>
</a>
</g>
</g>
<!-- Node12 -->
<g id="Node000012" class="node">
<title>Node12</title>
<g id="a_Node000012"><a xlink:href="../../de/d3a/crypto-common_8hpp.html" target="_top" xlink:title=" ">
<polygon fill="white" stroke="#666666" points="277.62,-430.5 146.12,-430.5 146.12,-388.75 277.62,-388.75 277.62,-430.5"/>
<text text-anchor="start" x="154.12" y="-417" font-family="Times,serif" font-size="10.00">mal&#45;packet&#45;weaver/mal</text>
<text text-anchor="start" x="154.12" y="-405.75" font-family="Times,serif" font-size="10.00">&#45;packet&#45;weaver/crypto</text>
<text text-anchor="middle" x="211.88" y="-394.5" font-family="Times,serif" font-size="10.00">/openssl/crypto&#45;common.hpp</text>
</a>
</g>
</g>
<!-- Node4&#45;&gt;Node12 -->
<g id="edge13_Node000004_Node000012" class="edge">
<title>Node4&#45;&gt;Node12</title>
<g id="a_edge13_Node000004_Node000012"><a xlink:title=" ">
<path fill="none" stroke="#63b8ff" d="M298.68,-460.82C281.86,-451.1 262.95,-440.16 247.08,-430.98"/>
<polygon fill="#63b8ff" stroke="#63b8ff" points="296.36,-464.1 306.77,-466.08 299.86,-458.04 296.36,-464.1"/>
</a>
</g>
</g>
<!-- Node15 -->
<g id="Node000015" class="node">
<title>Node15</title>
<g id="a_Node000015"><a xlink:href="../../df/d1d/packet-dispatcher_8hpp.html" target="_top" xlink:title=" ">
<polygon fill="white" stroke="#666666" points="656.62,-197.25 549.12,-197.25 549.12,-155.5 656.62,-155.5 656.62,-197.25"/>
<text text-anchor="start" x="557.12" y="-183.75" font-family="Times,serif" font-size="10.00">mal&#45;packet&#45;weaver/mal</text>
<text text-anchor="start" x="557.12" y="-172.5" font-family="Times,serif" font-size="10.00">&#45;packet&#45;weaver/packet</text>
<text text-anchor="middle" x="602.88" y="-161.25" font-family="Times,serif" font-size="10.00">&#45;dispatcher.hpp</text>
</a>
</g>
</g>
<!-- Node4&#45;&gt;Node15 -->
<g id="edge20_Node000004_Node000015" class="edge">
<title>Node4&#45;&gt;Node15</title>
<g id="a_edge20_Node000004_Node000015"><a xlink:title=" ">
<path fill="none" stroke="#63b8ff" d="M407.29,-475.58C474.29,-460.61 576.2,-426.55 625.88,-352.75 655.68,-308.47 652.62,-284.55 637.88,-233.25 634.18,-220.38 626.55,-207.6 619.35,-197.52"/>
<polygon fill="#63b8ff" stroke="#63b8ff" points="406.9,-472.3 397.85,-477.82 408.37,-479.14 406.9,-472.3"/>
</a>
</g>
</g>
<!-- Node18 -->
<g id="Node000018" class="node">
<title>Node18</title>
<g id="a_Node000018"><a xlink:href="../../d9/d85/packet__impl_2packet_8hpp.html" target="_top" xlink:title=" ">
<polygon fill="white" stroke="#666666" points="486.62,-430.5 379.12,-430.5 379.12,-388.75 486.62,-388.75 486.62,-430.5"/>
<text text-anchor="start" x="387.12" y="-417" font-family="Times,serif" font-size="10.00">mal&#45;packet&#45;weaver/mal</text>
<text text-anchor="start" x="387.12" y="-405.75" font-family="Times,serif" font-size="10.00">&#45;packet&#45;weaver/packet</text>
<text text-anchor="middle" x="432.88" y="-394.5" font-family="Times,serif" font-size="10.00">_impl/packet.hpp</text>
</a>
</g>
</g>
<!-- Node4&#45;&gt;Node18 -->
<g id="edge25_Node000004_Node000018" class="edge">
<title>Node4&#45;&gt;Node18</title>
<g id="a_edge25_Node000004_Node000018"><a xlink:title=" ">
<path fill="none" stroke="#63b8ff" d="M375.18,-459.19C386.23,-449.89 398.39,-439.65 408.69,-430.98"/>
<polygon fill="#63b8ff" stroke="#63b8ff" points="373.39,-456.96 367.99,-466.08 377.9,-462.31 373.39,-456.96"/>
</a>
</g>
</g>
<!-- Node6 -->
<g id="Node000006" class="node">
<title>Node6</title>
<g id="a_Node000006"><a xlink:href="../../df/d27/aes_8hpp.html" target="_top" xlink:title=" ">
<polygon fill="white" stroke="#666666" points="112.62,-352.75 5.12,-352.75 5.12,-311 112.62,-311 112.62,-352.75"/>
<text text-anchor="start" x="13.12" y="-339.25" font-family="Times,serif" font-size="10.00">mal&#45;packet&#45;weaver/mal</text>
<text text-anchor="start" x="13.12" y="-328" font-family="Times,serif" font-size="10.00">&#45;packet&#45;weaver/crypto</text>
<text text-anchor="middle" x="58.88" y="-316.75" font-family="Times,serif" font-size="10.00">/openssl/aes.hpp</text>
</a>
</g>
</g>
<!-- Node5&#45;&gt;Node6 -->
<g id="edge6_Node000005_Node000006" class="edge">
<title>Node5&#45;&gt;Node6</title>
<g id="a_edge6_Node000005_Node000006"><a xlink:title=" ">
<path fill="none" stroke="#63b8ff" d="M62.41,-377.56C61.76,-369.36 61.08,-360.71 60.49,-353.23"/>
<polygon fill="#63b8ff" stroke="#63b8ff" points="58.99,-377.63 63.27,-387.33 65.97,-377.08 58.99,-377.63"/>
</a>
</g>
</g>
<!-- Node7 -->
<g id="Node000007" class="node">
<title>Node7</title>
<g id="a_Node000007"><a xlink:href="../../d2/d62/crypto_8hpp.html" target="_top" xlink:title=" ">
<polygon fill="white" stroke="#666666" points="276.62,-197.25 169.12,-197.25 169.12,-155.5 276.62,-155.5 276.62,-197.25"/>
<text text-anchor="start" x="177.12" y="-183.75" font-family="Times,serif" font-size="10.00">mal&#45;packet&#45;weaver/mal</text>
<text text-anchor="start" x="177.12" y="-172.5" font-family="Times,serif" font-size="10.00">&#45;packet&#45;weaver/crypto</text>
<text text-anchor="middle" x="222.88" y="-161.25" font-family="Times,serif" font-size="10.00">/crypto.hpp</text>
</a>
</g>
</g>
<!-- Node6&#45;&gt;Node7 -->
<g id="edge7_Node000006_Node000007" class="edge">
<title>Node6&#45;&gt;Node7</title>
<g id="a_edge7_Node000006_Node000007"><a xlink:title=" ">
<path fill="none" stroke="#63b8ff" d="M74.82,-301.3C87.08,-280.49 105.5,-252.95 126.88,-233.25 142.19,-219.13 161.67,-206.98 179.07,-197.65"/>
<polygon fill="#63b8ff" stroke="#63b8ff" points="71.42,-299.2 69.48,-309.62 77.49,-302.69 71.42,-299.2"/>
</a>
</g>
</g>
<!-- Node7&#45;&gt;Node8 -->
<g id="edge8_Node000007_Node000008" class="edge">
<title>Node7&#45;&gt;Node8</title>
<g id="a_edge8_Node000007_Node000008"><a xlink:title=" ">
<path fill="none" stroke="#63b8ff" d="M264.19,-149.3C282.78,-137.56 304.03,-124.14 319.76,-114.21"/>
<polygon fill="#63b8ff" stroke="#63b8ff" points="262.62,-146.78 256.03,-155.08 266.36,-152.7 262.62,-146.78"/>
</a>
</g>
</g>
<!-- Node9 -->
<g id="Node000009" class="node">
<title>Node9</title>
<g id="a_Node000009"><a xlink:href="../../de/d5c/dispatcher-session_8hpp.html" target="_top" xlink:title=" ">
<polygon fill="white" stroke="#666666" points="714.75,-41.75 593,-41.75 593,0 714.75,0 714.75,-41.75"/>
<text text-anchor="start" x="601" y="-28.25" font-family="Times,serif" font-size="10.00">mal&#45;packet&#45;weaver/mal</text>
<text text-anchor="start" x="601" y="-17" font-family="Times,serif" font-size="10.00">&#45;packet&#45;weaver/dispatcher</text>
<text text-anchor="middle" x="653.88" y="-5.75" font-family="Times,serif" font-size="10.00">&#45;session.hpp</text>
</a>
</g>
</g>
<!-- Node8&#45;&gt;Node9 -->
<g id="edge9_Node000008_Node000009" class="edge">
<title>Node8&#45;&gt;Node9</title>
<g id="a_edge9_Node000008_Node000009"><a xlink:title=" ">
<path fill="none" stroke="#63b8ff" d="M404.82,-80.11C407.88,-79.3 410.91,-78.51 413.88,-77.75 474.38,-62.25 543.93,-46.25 592.53,-35.37"/>
<polygon fill="#63b8ff" stroke="#63b8ff" points="404.13,-76.94 395.38,-82.92 405.94,-83.7 404.13,-76.94"/>
</a>
</g>
</g>
<!-- Node10 -->
<g id="Node000010" class="node">
<title>Node10</title>
<g id="a_Node000010"><a xlink:href="../../d9/d1a/session_8cpp.html" target="_top" xlink:title=" ">
<polygon fill="white" stroke="#666666" points="544.88,-36.12 420.88,-36.12 420.88,-5.62 544.88,-5.62 544.88,-36.12"/>
<text text-anchor="start" x="428.88" y="-22.62" font-family="Times,serif" font-size="10.00">mal&#45;packet&#45;weaver/mal</text>
<text text-anchor="middle" x="482.88" y="-11.38" font-family="Times,serif" font-size="10.00">&#45;packet&#45;weaver/session.cpp</text>
</a>
</g>
</g>
<!-- Node8&#45;&gt;Node10 -->
<g id="edge10_Node000008_Node000010" class="edge">
<title>Node8&#45;&gt;Node10</title>
<g id="a_edge10_Node000008_Node000010"><a xlink:title=" ">
<path fill="none" stroke="#63b8ff" d="M379.35,-77.89C403.34,-64.91 434.2,-48.21 455.96,-36.44"/>
<polygon fill="#63b8ff" stroke="#63b8ff" points="378,-75.18 370.87,-83.02 381.33,-81.34 378,-75.18"/>
</a>
</g>
</g>
<!-- Node11 -->
<g id="Node000011" class="node">
<title>Node11</title>
<g id="a_Node000011"><a xlink:href="../../d1/d16/session_8inl.html" target="_top" xlink:title=" ">
<polygon fill="white" stroke="#666666" points="402.62,-36.12 283.12,-36.12 283.12,-5.62 402.62,-5.62 402.62,-36.12"/>
<text text-anchor="start" x="291.12" y="-22.62" font-family="Times,serif" font-size="10.00">mal&#45;packet&#45;weaver/mal</text>
<text text-anchor="middle" x="342.88" y="-11.38" font-family="Times,serif" font-size="10.00">&#45;packet&#45;weaver/session.inl</text>
</a>
</g>
</g>
<!-- Node8&#45;&gt;Node11 -->
<g id="edge11_Node000008_Node000011" class="edge">
<title>Node8&#45;&gt;Node11</title>
<g id="a_edge11_Node000008_Node000011"><a xlink:title=" ">
<path fill="none" stroke="#63b8ff" d="M336.47,-72.34C335.79,-60.4 336.11,-46.59 337.42,-36.44"/>
<polygon fill="#63b8ff" stroke="#63b8ff" points="333.05,-72.37 337.42,-82.02 340.02,-71.75 333.05,-72.37"/>
</a>
</g>
</g>
<!-- Node11&#45;&gt;Node8 -->
<g id="edge12_Node000011_Node000008" class="edge">
<title>Node11&#45;&gt;Node8</title>
<g id="a_edge12_Node000011_Node000008"><a xlink:title=" ">
<path fill="none" stroke="#63b8ff" d="M349.28,-47.11C349.96,-59.04 349.64,-72.85 348.33,-83.02"/>
<polygon fill="#63b8ff" stroke="#63b8ff" points="352.7,-47.09 348.33,-37.44 345.73,-47.71 352.7,-47.09"/>
</a>
</g>
</g>
<!-- Node12&#45;&gt;Node6 -->
<g id="edge15_Node000012_Node000006" class="edge">
<title>Node12&#45;&gt;Node6</title>
<g id="a_edge15_Node000012_Node000006"><a xlink:title=" ">
<path fill="none" stroke="#63b8ff" d="M161.07,-383.47C141.23,-373.65 118.78,-362.54 99.99,-353.23"/>
<polygon fill="#63b8ff" stroke="#63b8ff" points="159.36,-387.03 169.87,-388.33 162.46,-380.75 159.36,-387.03"/>
</a>
</g>
</g>
<!-- Node12&#45;&gt;Node7 -->
<g id="edge14_Node000012_Node000007" class="edge">
<title>Node12&#45;&gt;Node7</title>
<g id="a_edge14_Node000012_Node000007"><a xlink:title=" ">
<path fill="none" stroke="#63b8ff" d="M178.31,-380.66C170.82,-372.51 163.91,-363.02 159.88,-352.75 140.43,-303.32 138.09,-281.69 159.88,-233.25 166.29,-218.98 178.35,-206.88 190.21,-197.63"/>
<polygon fill="#63b8ff" stroke="#63b8ff" points="175.38,-382.69 184.91,-387.33 180.36,-377.76 175.38,-382.69"/>
</a>
</g>
</g>
<!-- Node13 -->
<g id="Node000013" class="node">
<title>Node13</title>
<g id="a_Node000013"><a xlink:href="../../d8/d6d/sha_8hpp.html" target="_top" xlink:title=" ">
<polygon fill="white" stroke="#666666" points="276.62,-352.75 169.12,-352.75 169.12,-311 276.62,-311 276.62,-352.75"/>
<text text-anchor="start" x="177.12" y="-339.25" font-family="Times,serif" font-size="10.00">mal&#45;packet&#45;weaver/mal</text>
<text text-anchor="start" x="177.12" y="-328" font-family="Times,serif" font-size="10.00">&#45;packet&#45;weaver/crypto</text>
<text text-anchor="middle" x="222.88" y="-316.75" font-family="Times,serif" font-size="10.00">/openssl/sha.hpp</text>
</a>
</g>
</g>
<!-- Node12&#45;&gt;Node13 -->
<g id="edge16_Node000012_Node000013" class="edge">
<title>Node12&#45;&gt;Node13</title>
<g id="a_edge16_Node000012_Node000013"><a xlink:title=" ">
<path fill="none" stroke="#63b8ff" d="M216.39,-377.56C217.58,-369.36 218.83,-360.71 219.92,-353.23"/>
<polygon fill="#63b8ff" stroke="#63b8ff" points="212.8,-376.93 214.82,-387.33 219.72,-377.93 212.8,-376.93"/>
</a>
</g>
</g>
<!-- Node13&#45;&gt;Node7 -->
<g id="edge17_Node000013_Node000007" class="edge">
<title>Node13&#45;&gt;Node7</title>
<g id="a_edge17_Node000013_Node000007"><a xlink:title=" ">
<path fill="none" stroke="#63b8ff" d="M263.84,-303.66C272.74,-295.58 280.96,-285.92 285.88,-275 293.49,-258.08 293.49,-250.17 285.88,-233.25 279.46,-218.98 267.4,-206.88 255.54,-197.63"/>
<polygon fill="#63b8ff" stroke="#63b8ff" points="261.94,-301.51 256.54,-310.62 266.45,-306.87 261.94,-301.51"/>
</a>
</g>
</g>
<!-- Node14 -->
<g id="Node000014" class="node">
<title>Node14</title>
<g id="a_Node000014"><a xlink:href="../../d4/d28/ecdsa_8hpp.html" target="_top" xlink:title=" ">
<polygon fill="white" stroke="#666666" points="276.62,-275 169.12,-275 169.12,-233.25 276.62,-233.25 276.62,-275"/>
<text text-anchor="start" x="177.12" y="-261.5" font-family="Times,serif" font-size="10.00">mal&#45;packet&#45;weaver/mal</text>
<text text-anchor="start" x="177.12" y="-250.25" font-family="Times,serif" font-size="10.00">&#45;packet&#45;weaver/crypto</text>
<text text-anchor="middle" x="222.88" y="-239" font-family="Times,serif" font-size="10.00">/openssl/ecdsa.hpp</text>
</a>
</g>
</g>
<!-- Node13&#45;&gt;Node14 -->
<g id="edge18_Node000013_Node000014" class="edge">
<title>Node13&#45;&gt;Node14</title>
<g id="a_edge18_Node000013_Node000014"><a xlink:title=" ">
<path fill="none" stroke="#63b8ff" d="M222.88,-299.81C222.88,-291.61 222.88,-282.96 222.88,-275.48"/>
<polygon fill="#63b8ff" stroke="#63b8ff" points="219.38,-299.58 222.88,-309.58 226.38,-299.58 219.38,-299.58"/>
</a>
</g>
</g>
<!-- Node14&#45;&gt;Node7 -->
<g id="edge19_Node000014_Node000007" class="edge">
<title>Node14&#45;&gt;Node7</title>
<g id="a_edge19_Node000014_Node000007"><a xlink:title=" ">
<path fill="none" stroke="#63b8ff" d="M222.88,-222.06C222.88,-213.86 222.88,-205.21 222.88,-197.73"/>
<polygon fill="#63b8ff" stroke="#63b8ff" points="219.38,-221.83 222.88,-231.83 226.38,-221.83 219.38,-221.83"/>
</a>
</g>
</g>
<!-- Node15&#45;&gt;Node9 -->
<g id="edge21_Node000015_Node000009" class="edge">
<title>Node15&#45;&gt;Node9</title>
<g id="a_edge21_Node000015_Node000009"><a xlink:title=" ">
<path fill="none" stroke="#63b8ff" d="M643.84,-148.16C652.74,-140.08 660.96,-130.42 665.88,-119.5 677.15,-94.43 669.5,-62.28 662.26,-41.87"/>
<polygon fill="#63b8ff" stroke="#63b8ff" points="641.94,-146.01 636.54,-155.12 646.45,-151.37 641.94,-146.01"/>
</a>
</g>
</g>
<!-- Node16 -->
<g id="Node000016" class="node">
<title>Node16</title>
<g id="a_Node000016"><a xlink:href="../../d8/d1a/packet-dispatcher_8cpp.html" target="_top" xlink:title=" ">
<polygon fill="white" stroke="#666666" points="530.62,-119.5 423.12,-119.5 423.12,-77.75 530.62,-77.75 530.62,-119.5"/>
<text text-anchor="start" x="431.12" y="-106" font-family="Times,serif" font-size="10.00">mal&#45;packet&#45;weaver/mal</text>
<text text-anchor="start" x="431.12" y="-94.75" font-family="Times,serif" font-size="10.00">&#45;packet&#45;weaver/packet</text>
<text text-anchor="middle" x="476.88" y="-83.5" font-family="Times,serif" font-size="10.00">&#45;dispatcher.cpp</text>
</a>
</g>
</g>
<!-- Node15&#45;&gt;Node16 -->
<g id="edge22_Node000015_Node000016" class="edge">
<title>Node15&#45;&gt;Node16</title>
<g id="a_edge22_Node000015_Node000016"><a xlink:title=" ">
<path fill="none" stroke="#63b8ff" d="M559.91,-149.55C543.86,-139.89 525.86,-129.07 510.73,-119.98"/>
<polygon fill="#63b8ff" stroke="#63b8ff" points="557.74,-152.92 568.11,-155.08 561.34,-146.92 557.74,-152.92"/>
</a>
</g>
</g>
<!-- Node17 -->
<g id="Node000017" class="node">
<title>Node17</title>
<g id="a_Node000017"><a xlink:href="../../d2/d7d/packet-dispatcher_8inl.html" target="_top" xlink:title=" ">
<polygon fill="white" stroke="#666666" points="656.62,-119.5 549.12,-119.5 549.12,-77.75 656.62,-77.75 656.62,-119.5"/>
<text text-anchor="start" x="557.12" y="-106" font-family="Times,serif" font-size="10.00">mal&#45;packet&#45;weaver/mal</text>
<text text-anchor="start" x="557.12" y="-94.75" font-family="Times,serif" font-size="10.00">&#45;packet&#45;weaver/packet</text>
<text text-anchor="middle" x="602.88" y="-83.5" font-family="Times,serif" font-size="10.00">&#45;dispatcher.inl</text>
</a>
</g>
</g>
<!-- Node15&#45;&gt;Node17 -->
<g id="edge23_Node000015_Node000017" class="edge">
<title>Node15&#45;&gt;Node17</title>
<g id="a_edge23_Node000015_Node000017"><a xlink:title=" ">
<path fill="none" stroke="#63b8ff" d="M596.22,-144.31C595.98,-136.11 596.18,-127.46 596.81,-119.98"/>
<polygon fill="#63b8ff" stroke="#63b8ff" points="592.77,-144.28 596.82,-154.08 599.76,-143.9 592.77,-144.28"/>
</a>
</g>
</g>
<!-- Node17&#45;&gt;Node15 -->
<g id="edge24_Node000017_Node000015" class="edge">
<title>Node17&#45;&gt;Node15</title>
<g id="a_edge24_Node000017_Node000015"><a xlink:title=" ">
<path fill="none" stroke="#63b8ff" d="M609.53,-130.75C609.76,-138.96 609.57,-147.6 608.93,-155.08"/>
<polygon fill="#63b8ff" stroke="#63b8ff" points="612.98,-130.77 608.94,-120.98 605.99,-131.16 612.98,-130.77"/>
</a>
</g>
</g>
<!-- Node19 -->
<g id="Node000019" class="node">
<title>Node19</title>
<g id="a_Node000019"><a xlink:href="../../d3/d53/packet-factory_8hpp.html" target="_top" xlink:title=" ">
<polygon fill="white" stroke="#666666" points="491.5,-352.75 374.25,-352.75 374.25,-311 491.5,-311 491.5,-352.75"/>
<text text-anchor="start" x="382.25" y="-339.25" font-family="Times,serif" font-size="10.00">mal&#45;packet&#45;weaver/mal</text>
<text text-anchor="start" x="382.25" y="-328" font-family="Times,serif" font-size="10.00">&#45;packet&#45;weaver/packet</text>
<text text-anchor="middle" x="432.88" y="-316.75" font-family="Times,serif" font-size="10.00">_impl/packet&#45;factory.hpp</text>
</a>
</g>
</g>
<!-- Node18&#45;&gt;Node19 -->
<g id="edge26_Node000018_Node000019" class="edge">
<title>Node18&#45;&gt;Node19</title>
<g id="a_edge26_Node000018_Node000019"><a xlink:title=" ">
<path fill="none" stroke="#63b8ff" d="M432.88,-377.56C432.88,-369.36 432.88,-360.71 432.88,-353.23"/>
<polygon fill="#63b8ff" stroke="#63b8ff" points="429.38,-377.33 432.88,-387.33 436.38,-377.33 429.38,-377.33"/>
</a>
</g>
</g>
<!-- Node22 -->
<g id="Node000022" class="node">
<title>Node22</title>
<g id="a_Node000022"><a xlink:href="../../d3/dae/packet_8cpp.html" target="_top" xlink:title=" ">
<polygon fill="white" stroke="#666666" points="616.62,-352.75 509.12,-352.75 509.12,-311 616.62,-311 616.62,-352.75"/>
<text text-anchor="start" x="517.12" y="-339.25" font-family="Times,serif" font-size="10.00">mal&#45;packet&#45;weaver/mal</text>
<text text-anchor="start" x="517.12" y="-328" font-family="Times,serif" font-size="10.00">&#45;packet&#45;weaver/packet</text>
<text text-anchor="middle" x="562.88" y="-316.75" font-family="Times,serif" font-size="10.00">_impl/packet.cpp</text>
</a>
</g>
</g>
<!-- Node18&#45;&gt;Node22 -->
<g id="edge31_Node000018_Node000022" class="edge">
<title>Node18&#45;&gt;Node22</title>
<g id="a_edge31_Node000018_Node000022"><a xlink:title=" ">
<path fill="none" stroke="#63b8ff" d="M477.2,-382.8C493.77,-373.14 512.34,-362.32 527.94,-353.23"/>
<polygon fill="#63b8ff" stroke="#63b8ff" points="475.59,-380.27 468.71,-388.33 479.11,-386.31 475.59,-380.27"/>
</a>
</g>
</g>
<!-- Node20 -->
<g id="Node000020" class="node">
<title>Node20</title>
<g id="a_Node000020"><a xlink:href="../../d2/d3f/packet_8hpp.html" target="_top" xlink:title=" ">
<polygon fill="white" stroke="#666666" points="494.5,-269.38 371.25,-269.38 371.25,-238.88 494.5,-238.88 494.5,-269.38"/>
<text text-anchor="start" x="379.25" y="-255.88" font-family="Times,serif" font-size="10.00">mal&#45;packet&#45;weaver/mal</text>
<text text-anchor="middle" x="432.88" y="-244.62" font-family="Times,serif" font-size="10.00">&#45;packet&#45;weaver/packet.hpp</text>
</a>
</g>
</g>
<!-- Node19&#45;&gt;Node20 -->
<g id="edge27_Node000019_Node000020" class="edge">
<title>Node19&#45;&gt;Node20</title>
<g id="a_edge27_Node000019_Node000020"><a xlink:title=" ">
<path fill="none" stroke="#63b8ff" d="M432.88,-299.65C432.88,-289.18 432.88,-278.01 432.88,-269.48"/>
<polygon fill="#63b8ff" stroke="#63b8ff" points="429.38,-299.58 432.88,-309.58 436.38,-299.58 429.38,-299.58"/>
</a>
</g>
</g>
<!-- Node21 -->
<g id="Node000021" class="node">
<title>Node21</title>
<g id="a_Node000021"><a xlink:href="../../d2/db3/packet-factory_8cpp.html" target="_top" xlink:title=" ">
<polygon fill="white" stroke="#666666" points="629.12,-275 512.62,-275 512.62,-233.25 629.12,-233.25 629.12,-275"/>
<text text-anchor="start" x="520.62" y="-261.5" font-family="Times,serif" font-size="10.00">mal&#45;packet&#45;weaver/mal</text>
<text text-anchor="start" x="520.62" y="-250.25" font-family="Times,serif" font-size="10.00">&#45;packet&#45;weaver/packet</text>
<text text-anchor="middle" x="570.88" y="-239" font-family="Times,serif" font-size="10.00">_impl/packet&#45;factory.cpp</text>
</a>
</g>
</g>
<!-- Node19&#45;&gt;Node21 -->
<g id="edge30_Node000019_Node000021" class="edge">
<title>Node19&#45;&gt;Node21</title>
<g id="a_edge30_Node000019_Node000021"><a xlink:title=" ">
<path fill="none" stroke="#63b8ff" d="M479.43,-305.32C497.15,-295.6 517.07,-284.66 533.79,-275.48"/>
<polygon fill="#63b8ff" stroke="#63b8ff" points="477.94,-302.7 470.86,-310.58 481.31,-308.83 477.94,-302.7"/>
</a>
</g>
</g>
<!-- Node20&#45;&gt;Node8 -->
<g id="edge29_Node000020_Node000008" class="edge">
<title>Node20&#45;&gt;Node8</title>
<g id="a_edge29_Node000020_Node000008"><a xlink:title=" ">
<path fill="none" stroke="#63b8ff" d="M418.87,-229.24C399.96,-196.99 366.86,-140.53 351.35,-114.07"/>
<polygon fill="#63b8ff" stroke="#63b8ff" points="416.17,-230.55 424.25,-237.41 422.21,-227.01 416.17,-230.55"/>
</a>
</g>
</g>
<!-- Node20&#45;&gt;Node15 -->
<g id="edge28_Node000020_Node000015" class="edge">
<title>Node20&#45;&gt;Node15</title>
<g id="a_edge28_Node000020_Node000015"><a xlink:title=" ">
<path fill="none" stroke="#63b8ff" d="M475.55,-234.11C500.49,-223 531.94,-208.98 557.35,-197.66"/>
<polygon fill="#63b8ff" stroke="#63b8ff" points="474.36,-231.25 466.65,-238.52 477.21,-237.65 474.36,-231.25"/>
</a>
</g>
</g>
<!-- Node23&#45;&gt;Node4 -->
<g id="edge34_Node000023_Node000004" class="edge">
<title>Node23&#45;&gt;Node4</title>
<g id="a_edge34_Node000023_Node000004"><a xlink:title=" ">
<path fill="none" stroke="#63b8ff" d="M368.89,-540.02C363.62,-529.55 357.82,-518.04 353.04,-508.54"/>
<polygon fill="#63b8ff" stroke="#63b8ff" points="366.11,-541.28 373.74,-548.63 372.37,-538.13 366.11,-541.28"/>
</a>
</g>
</g>
</g>
</svg>
