<?xml version="1.0" encoding="UTF-8" standalone="no"?>
<!DOCTYPE svg PUBLIC "-//W3C//DTD SVG 1.1//EN"
 "http://www.w3.org/Graphics/SVG/1.1/DTD/svg11.dtd">
<!-- Generated by graphviz version 7.0.5 (20221223.1930)
 -->
<!-- Title: third_party/mal&#45;toolkit/mal&#45;toolkit/mal&#45;toolkit/debug.hpp Pages: 1 -->
<svg width="470pt" height="214pt"
 viewBox="0.00 0.00 469.50 214.00" xmlns="http://www.w3.org/2000/svg" xmlns:xlink="http://www.w3.org/1999/xlink">
<g id="graph0" class="graph" transform="scale(1 1) rotate(0) translate(4 210)">
<title>third_party/mal&#45;toolkit/mal&#45;toolkit/mal&#45;toolkit/debug.hpp</title>
<!-- Node1 -->
<g id="node1" class="node">
<title>Node1</title>
<g id="a_node1"><a xlink:title="Contains debugging&#45;related macros and utilities for assisting with debugging tasks.">
<polygon fill="#999999" stroke="#666666" points="276.5,-206 163.5,-206 163.5,-165 276.5,-165 276.5,-206"/>
<text text-anchor="start" x="171.5" y="-194" font-family="Helvetica,sans-Serif" font-size="10.00">third_party/mal&#45;toolkit</text>
<text text-anchor="start" x="171.5" y="-183" font-family="Helvetica,sans-Serif" font-size="10.00">/mal&#45;toolkit/mal&#45;toolkit</text>
<text text-anchor="middle" x="220" y="-172" font-family="Helvetica,sans-Serif" font-size="10.00">/debug.hpp</text>
</a>
</g>
</g>
<!-- Node2 -->
<g id="node2" class="node">
<title>Node2</title>
<g id="a_node2"><a xlink:href="../../da/d43/debug__with__source__location_8hpp.html" target="_top" xlink:title="This file provides utility functions for debugging and assertion handling.">
<polygon fill="white" stroke="#666666" points="130,-129 0,-129 0,-77 130,-77 130,-129"/>
<text text-anchor="start" x="8" y="-117" font-family="Helvetica,sans-Serif" font-size="10.00">third_party/mal&#45;toolkit</text>
<text text-anchor="start" x="8" y="-106" font-family="Helvetica,sans-Serif" font-size="10.00">/mal&#45;toolkit/mal&#45;toolkit</text>
<text text-anchor="start" x="8" y="-95" font-family="Helvetica,sans-Serif" font-size="10.00">/detail/debug_with_source</text>
<text text-anchor="middle" x="65" y="-84" font-family="Helvetica,sans-Serif" font-size="10.00">_location.hpp</text>
</a>
</g>
</g>
<!-- Node1&#45;&gt;Node2 -->
<g id="edge1" class="edge">
<title>Node1&#45;&gt;Node2</title>
<path fill="none" stroke="#63b8ff" d="M165.47,-159.45C146.51,-149.91 125.56,-139.03 107.68,-129.45"/>
<polygon fill="#63b8ff" stroke="#63b8ff" points="163.91,-162.58 174.42,-163.92 167.04,-156.32 163.91,-162.58"/>
</g>
<!-- Node3 -->
<g id="node3" class="node">
<title>Node3</title>
<g id="a_node3"><a xlink:href="../../d3/d4b/debug__without__source__location_8hpp.html" target="_top" xlink:title="Provides utility functions for debugging and assertion handling without source location information.">
<polygon fill="white" stroke="#666666" points="291.5,-129 148.5,-129 148.5,-77 291.5,-77 291.5,-129"/>
<text text-anchor="start" x="156.5" y="-117" font-family="Helvetica,sans-Serif" font-size="10.00">third_party/mal&#45;toolkit</text>
<text text-anchor="start" x="156.5" y="-106" font-family="Helvetica,sans-Serif" font-size="10.00">/mal&#45;toolkit/mal&#45;toolkit</text>
<text text-anchor="start" x="156.5" y="-95" font-family="Helvetica,sans-Serif" font-size="10.00">/detail/debug_without_source</text>
<text text-anchor="middle" x="220" y="-84" font-family="Helvetica,sans-Serif" font-size="10.00">_location.hpp</text>
</a>
</g>
</g>
<!-- Node1&#45;&gt;Node3 -->
<g id="edge3" class="edge">
<title>Node1&#45;&gt;Node3</title>
<path fill="none" stroke="#63b8ff" d="M220,-153.2C220,-145.34 220,-136.99 220,-129.45"/>
<polygon fill="#63b8ff" stroke="#63b8ff" points="216.5,-153.09 220,-163.09 223.5,-153.09 216.5,-153.09"/>
</g>
<!-- Node4 -->
<g id="node4" class="node">
<title>Node4</title>
<g id="a_node4"><a xlink:href="../../d1/d08/mal__toolkit_8hpp.html" target="_top" xlink:title="Main header file for the MAL Toolkit library, providing a comprehensive set of tools and utilities.">
<polygon fill="white" stroke="#666666" points="418.5,-41 305.5,-41 305.5,0 418.5,0 418.5,-41"/>
<text text-anchor="start" x="313.5" y="-29" font-family="Helvetica,sans-Serif" font-size="10.00">third_party/mal&#45;toolkit</text>
<text text-anchor="start" x="313.5" y="-18" font-family="Helvetica,sans-Serif" font-size="10.00">/mal&#45;toolkit/mal&#45;toolkit</text>
<text text-anchor="middle" x="362" y="-7" font-family="Helvetica,sans-Serif" font-size="10.00">/mal_toolkit.hpp</text>
</a>
</g>
</g>
<!-- Node1&#45;&gt;Node4 -->
<g id="edge4" class="edge">
<title>Node1&#45;&gt;Node4</title>
<path fill="none" stroke="#63b8ff" d="M265.56,-158.57C277.98,-150.16 290.8,-140.1 301,-129 325.39,-102.45 344.04,-64.45 353.98,-41.46"/>
<polygon fill="#63b8ff" stroke="#63b8ff" points="263.94,-155.45 257.47,-163.84 267.76,-161.31 263.94,-155.45"/>
</g>
<!-- Node5 -->
<g id="node5" class="node">
<title>Node5</title>
<g id="a_node5"><a xlink:href="../../d0/db4/measurer_8hpp.html" target="_top" xlink:title="Implements performance measurement and profiling utilities.">
<polygon fill="white" stroke="#666666" points="461.5,-123.5 348.5,-123.5 348.5,-82.5 461.5,-82.5 461.5,-123.5"/>
<text text-anchor="start" x="356.5" y="-111.5" font-family="Helvetica,sans-Serif" font-size="10.00">third_party/mal&#45;toolkit</text>
<text text-anchor="start" x="356.5" y="-100.5" font-family="Helvetica,sans-Serif" font-size="10.00">/mal&#45;toolkit/mal&#45;toolkit</text>
<text text-anchor="middle" x="405" y="-89.5" font-family="Helvetica,sans-Serif" font-size="10.00">/measurer.hpp</text>
</a>
</g>
</g>
<!-- Node1&#45;&gt;Node5 -->
<g id="edge5" class="edge">
<title>Node1&#45;&gt;Node5</title>
<path fill="none" stroke="#63b8ff" d="M276.04,-160.11C302.63,-148.54 334.01,-134.89 359.15,-123.95"/>
<polygon fill="#63b8ff" stroke="#63b8ff" points="274.89,-156.8 267.12,-164 277.68,-163.22 274.89,-156.8"/>
</g>
<!-- Node2&#45;&gt;Node1 -->
<g id="edge2" class="edge">
<title>Node2&#45;&gt;Node1</title>
<path fill="none" stroke="#63b8ff" d="M130.52,-134.62C150.24,-144.66 171.01,-155.56 187.6,-164.6"/>
<polygon fill="#63b8ff" stroke="#63b8ff" points="132.19,-131.54 121.69,-130.14 129.03,-137.78 132.19,-131.54"/>
</g>
<!-- Node5&#45;&gt;Node4 -->
<g id="edge6" class="edge">
<title>Node5&#45;&gt;Node4</title>
<path fill="none" stroke="#63b8ff" d="M388.95,-71.95C383.51,-61.76 377.57,-50.65 372.66,-41.45"/>
<polygon fill="#63b8ff" stroke="#63b8ff" points="385.86,-73.59 393.66,-80.77 392.03,-70.3 385.86,-73.59"/>
</g>
</g>
</svg>
