<?xml version="1.0" encoding="UTF-8" standalone="no"?>
<!DOCTYPE svg PUBLIC "-//W3C//DTD SVG 1.1//EN"
 "http://www.w3.org/Graphics/SVG/1.1/DTD/svg11.dtd">
<!-- Generated by graphviz version 7.0.5 (20221223.1930)
 -->
<!-- Title: third_party/mal&#45;toolkit/mal&#45;toolkit/event.hpp Pages: 1 -->
<svg width="143pt" height="170pt"
 viewBox="0.00 0.00 143.00 170.00" xmlns="http://www.w3.org/2000/svg" xmlns:xlink="http://www.w3.org/1999/xlink">
<g id="graph0" class="graph" transform="scale(1 1) rotate(0) translate(4 166)">
<title>third_party/mal&#45;toolkit/mal&#45;toolkit/event.hpp</title>
<!-- Node1 -->
<g id="node1" class="node">
<title>Node1</title>
<g id="a_node1"><a xlink:title="Defines event handling and notification mechanisms.">
<polygon fill="#999999" stroke="#666666" points="122.5,-162 12.5,-162 12.5,-132 122.5,-132 122.5,-162"/>
<text text-anchor="start" x="20.5" y="-150" font-family="Helvetica,sans-Serif" font-size="10.00">third_party/mal&#45;toolkit</text>
<text text-anchor="middle" x="67.5" y="-139" font-family="Helvetica,sans-Serif" font-size="10.00">/mal&#45;toolkit/event.hpp</text>
</a>
</g>
</g>
<!-- Node2 -->
<g id="node2" class="node">
<title>Node2</title>
<g id="a_node2"><a xlink:href="../../dc/dad/file-watcher_8hpp.html" target="_top" xlink:title="Implements a file watcher that monitors changes to specified files or directories.">
<polygon fill="white" stroke="#666666" points="135,-96 0,-96 0,-66 135,-66 135,-96"/>
<text text-anchor="start" x="8" y="-84" font-family="Helvetica,sans-Serif" font-size="10.00">third_party/mal&#45;toolkit</text>
<text text-anchor="middle" x="67.5" y="-73" font-family="Helvetica,sans-Serif" font-size="10.00">/mal&#45;toolkit/file&#45;watcher.hpp</text>
</a>
</g>
</g>
<!-- Node1&#45;&gt;Node2 -->
<g id="edge1" class="edge">
<title>Node1&#45;&gt;Node2</title>
<path fill="none" stroke="#63b8ff" d="M67.5,-120.39C67.5,-112.13 67.5,-103.28 67.5,-96.16"/>
<polygon fill="#63b8ff" stroke="#63b8ff" points="64,-120.28 67.5,-130.28 71,-120.28 64,-120.28"/>
</g>
<!-- Node3 -->
<g id="node3" class="node">
<title>Node3</title>
<g id="a_node3"><a xlink:href="../../d1/d08/mal__toolkit_8hpp.html" target="_top" xlink:title="Main header file for the MAL Toolkit library, providing a comprehensive set of tools and utilities.">
<polygon fill="white" stroke="#666666" points="134,-30 1,-30 1,0 134,0 134,-30"/>
<text text-anchor="start" x="9" y="-18" font-family="Helvetica,sans-Serif" font-size="10.00">third_party/mal&#45;toolkit</text>
<text text-anchor="middle" x="67.5" y="-7" font-family="Helvetica,sans-Serif" font-size="10.00">/mal&#45;toolkit/mal_toolkit.hpp</text>
</a>
</g>
</g>
<!-- Node2&#45;&gt;Node3 -->
<g id="edge2" class="edge">
<title>Node2&#45;&gt;Node3</title>
<path fill="none" stroke="#63b8ff" d="M67.5,-54.39C67.5,-46.13 67.5,-37.28 67.5,-30.16"/>
<polygon fill="#63b8ff" stroke="#63b8ff" points="64,-54.28 67.5,-64.28 71,-54.28 64,-54.28"/>
</g>
</g>
</svg>
