<?xml version="1.0" encoding="UTF-8" standalone="no"?>
<!DOCTYPE svg PUBLIC "-//W3C//DTD SVG 1.1//EN"
 "http://www.w3.org/Graphics/SVG/1.1/DTD/svg11.dtd">
<!-- Generated by graphviz version 8.1.0 (20230707.0739)
 -->
<!-- Title: mal_toolkit::FileWatcher Pages: 1 -->
<svg width="639pt" height="139pt"
 viewBox="0.00 0.00 639.05 139.25" xmlns="http://www.w3.org/2000/svg" xmlns:xlink="http://www.w3.org/1999/xlink">
<g id="graph0" class="graph" transform="scale(1 1) rotate(0) translate(4 135.25)">
<title>mal_toolkit::FileWatcher</title>
<!-- Node1 -->
<g id="Node000001" class="node">
<title>Node1</title>
<g id="a_Node000001"><a xlink:title="A class for monitoring file changes and notifying listeners.">
<polygon fill="#999999" stroke="#666666" points="631.05,-57.25 515.3,-57.25 515.3,-38 631.05,-38 631.05,-57.25"/>
<text text-anchor="middle" x="573.17" y="-43.75" font-family="Times,serif" font-size="10.00">mal_toolkit::FileWatcher</text>
</a>
</g>
</g>
<!-- Node2 -->
<g id="Node000002" class="node">
<title>Node2</title>
<g id="a_Node000002"><a xlink:title=" ">
<polygon fill="white" stroke="#666666" points="412.55,-105.5 299.05,-105.5 299.05,-63.75 412.55,-63.75 412.55,-105.5"/>
<text text-anchor="start" x="307.05" y="-92" font-family="Times,serif" font-size="10.00">std::map&lt; std::filesystem</text>
<text text-anchor="start" x="307.05" y="-80.75" font-family="Times,serif" font-size="10.00">::path, std::filesystem</text>
<text text-anchor="middle" x="355.8" y="-69.5" font-family="Times,serif" font-size="10.00">::file_time_type &gt;</text>
</a>
</g>
</g>
<!-- Node2&#45;&gt;Node1 -->
<g id="edge1_Node000001_Node000002" class="edge">
<title>Node2&#45;&gt;Node1</title>
<g id="a_edge1_Node000001_Node000002"><a xlink:title=" ">
<path fill="none" stroke="#9a32cd" stroke-dasharray="5,2" d="M423.39,-73.19C452.7,-68.15 486.78,-62.29 514.93,-57.46"/>
<polygon fill="#9a32cd" stroke="#9a32cd" points="423.09,-69.86 413.83,-75 424.27,-76.76 423.09,-69.86"/>
</a>
</g>
<text text-anchor="middle" x="463.92" y="-72.38" font-family="Times,serif" font-size="10.00" fill="grey"> file_map_</text>
</g>
<!-- Node3 -->
<g id="Node000003" class="node">
<title>Node3</title>
<g id="a_Node000003"><a xlink:title=" ">
<polygon fill="white" stroke="#666666" points="160.3,-131.25 126.3,-131.25 126.3,-112 160.3,-112 160.3,-131.25"/>
<text text-anchor="middle" x="143.3" y="-117.75" font-family="Times,serif" font-size="10.00">path</text>
</a>
</g>
</g>
<!-- Node3&#45;&gt;Node2 -->
<g id="edge2_Node000002_Node000003" class="edge">
<title>Node3&#45;&gt;Node2</title>
<g id="a_edge2_Node000002_Node000003"><a xlink:title=" ">
<path fill="none" stroke="#9a32cd" stroke-dasharray="5,2" d="M171.53,-117.58C199.17,-113.4 243.17,-106.52 281.05,-99.62 286.83,-98.57 292.86,-97.43 298.87,-96.25"/>
<polygon fill="#9a32cd" stroke="#9a32cd" points="171.12,-114.25 161.76,-119.2 172.17,-121.18 171.12,-114.25"/>
</a>
</g>
<text text-anchor="middle" x="242.05" y="-114.38" font-family="Times,serif" font-size="10.00" fill="grey"> keys</text>
</g>
<!-- Node4 -->
<g id="Node000004" class="node">
<title>Node4</title>
<g id="a_Node000004"><a xlink:title=" ">
<polygon fill="white" stroke="#666666" points="180.17,-94.25 106.42,-94.25 106.42,-75 180.17,-75 180.17,-94.25"/>
<text text-anchor="middle" x="143.3" y="-80.75" font-family="Times,serif" font-size="10.00">file_time_type</text>
</a>
</g>
</g>
<!-- Node4&#45;&gt;Node2 -->
<g id="edge3_Node000002_Node000004" class="edge">
<title>Node4&#45;&gt;Node2</title>
<g id="a_edge3_Node000002_Node000004"><a xlink:title=" ">
<path fill="none" stroke="#9a32cd" stroke-dasharray="5,2" d="M191.28,-84.62C223.13,-84.62 265.36,-84.62 298.92,-84.62"/>
<polygon fill="#9a32cd" stroke="#9a32cd" points="191.49,-81.13 181.49,-84.62 191.49,-88.13 191.49,-81.13"/>
</a>
</g>
<text text-anchor="middle" x="242.05" y="-86.38" font-family="Times,serif" font-size="10.00" fill="grey"> elements</text>
</g>
<!-- Node5 -->
<g id="Node000005" class="node">
<title>Node5</title>
<g id="a_Node000005"><a xlink:title=" ">
<polygon fill="white" stroke="#666666" points="185.05,-37.25 101.55,-37.25 101.55,-18 185.05,-18 185.05,-37.25"/>
<text text-anchor="middle" x="143.3" y="-23.75" font-family="Times,serif" font-size="10.00">std::map&lt; K, T &gt;</text>
</a>
</g>
</g>
<!-- Node5&#45;&gt;Node2 -->
<g id="edge4_Node000002_Node000005" class="edge">
<title>Node5&#45;&gt;Node2</title>
<g id="a_edge4_Node000002_Node000005"><a xlink:title=" ">
<path fill="none" stroke="orange" stroke-dasharray="5,2" d="M196.22,-30.84C222.16,-33.47 253.75,-38.24 281.05,-46.88 288.32,-49.17 302.21,-56.04 316,-63.3"/>
<polygon fill="orange" stroke="orange" points="196.76,-27.28 186.48,-29.84 196.11,-34.25 196.76,-27.28"/>
</a>
</g>
<text text-anchor="start" x="203.05" y="-70.88" font-family="Times,serif" font-size="10.00" fill="grey"> &lt; std::filesystem::</text>
<text text-anchor="start" x="203.05" y="-59.62" font-family="Times,serif" font-size="10.00" fill="grey">path, std::filesystem</text>
<text text-anchor="middle" x="242.05" y="-48.38" font-family="Times,serif" font-size="10.00" fill="grey">::file_time_type &gt;</text>
</g>
<!-- Node6 -->
<g id="Node000006" class="node">
<title>Node6</title>
<g id="a_Node000006"><a xlink:title=" ">
<polygon fill="white" stroke="#666666" points="28.8,-56.25 0,-56.25 0,-37 28.8,-37 28.8,-56.25"/>
<text text-anchor="middle" x="14.4" y="-42.75" font-family="Times,serif" font-size="10.00">K</text>
</a>
</g>
</g>
<!-- Node6&#45;&gt;Node5 -->
<g id="edge5_Node000005_Node000006" class="edge">
<title>Node6&#45;&gt;Node5</title>
<g id="a_edge5_Node000005_Node000006"><a xlink:title=" ">
<path fill="none" stroke="#9a32cd" stroke-dasharray="5,2" d="M39.38,-43.03C56.81,-40.42 80.84,-36.83 101.3,-33.76"/>
<polygon fill="#9a32cd" stroke="#9a32cd" points="39.35,-39.65 29.98,-44.59 40.39,-46.57 39.35,-39.65"/>
</a>
</g>
<text text-anchor="middle" x="65.17" y="-42.38" font-family="Times,serif" font-size="10.00" fill="grey"> keys</text>
</g>
<!-- Node7 -->
<g id="Node000007" class="node">
<title>Node7</title>
<g id="a_Node000007"><a xlink:title=" ">
<polygon fill="white" stroke="#666666" points="28.8,-19.25 0,-19.25 0,0 28.8,0 28.8,-19.25"/>
<text text-anchor="middle" x="14.4" y="-5.75" font-family="Times,serif" font-size="10.00">T</text>
</a>
</g>
</g>
<!-- Node7&#45;&gt;Node5 -->
<g id="edge6_Node000005_Node000007" class="edge">
<title>Node7&#45;&gt;Node5</title>
<g id="a_edge6_Node000005_Node000007"><a xlink:title=" ">
<path fill="none" stroke="#9a32cd" stroke-dasharray="5,2" d="M39.95,-9.89C52.97,-10.31 69.19,-11.26 83.55,-13.38 90.61,-14.42 98.07,-15.91 105.21,-17.54"/>
<polygon fill="#9a32cd" stroke="#9a32cd" points="40.13,-6.37 30.05,-9.64 39.97,-13.37 40.13,-6.37"/>
</a>
</g>
<text text-anchor="middle" x="65.17" y="-15.38" font-family="Times,serif" font-size="10.00" fill="grey"> elements</text>
</g>
<!-- Node8 -->
<g id="Node000008" class="node">
<title>Node8</title>
<g id="a_Node000008"><a xlink:title=" ">
<polygon fill="white" stroke="#666666" points="406.17,-45.88 305.42,-45.88 305.42,-15.37 406.17,-15.37 406.17,-45.88"/>
<text text-anchor="start" x="313.42" y="-32.38" font-family="Times,serif" font-size="10.00">function&lt; void(events</text>
<text text-anchor="middle" x="355.8" y="-21.12" font-family="Times,serif" font-size="10.00">::Event &amp;)&gt;</text>
</a>
</g>
</g>
<!-- Node8&#45;&gt;Node1 -->
<g id="edge7_Node000001_Node000008" class="edge">
<title>Node8&#45;&gt;Node1</title>
<g id="a_edge7_Node000001_Node000008"><a xlink:title=" ">
<path fill="none" stroke="#9a32cd" stroke-dasharray="5,2" d="M417.26,-35.16C442.07,-37.04 471.07,-39.28 497.3,-41.38 503.02,-41.83 508.99,-42.32 514.95,-42.81"/>
<polygon fill="#9a32cd" stroke="#9a32cd" points="417.79,-31.61 407.55,-34.35 417.26,-38.59 417.79,-31.61"/>
</a>
</g>
<text text-anchor="middle" x="463.92" y="-42.38" font-family="Times,serif" font-size="10.00" fill="grey"> event_callback_</text>
</g>
</g>
</svg>
