<?xml version="1.0" encoding="UTF-8" standalone="no"?>
<!DOCTYPE svg PUBLIC "-//W3C//DTD SVG 1.1//EN"
 "http://www.w3.org/Graphics/SVG/1.1/DTD/svg11.dtd">
<!-- Generated by graphviz version 8.1.0 (20230707.0739)
 -->
<!-- Title: mal_packet_weaver::PacketDispatcher::SynchronizationWrapper&lt; Value &gt; Pages: 1 -->
<svg width="495pt" height="333pt"
 viewBox="0.00 0.00 495.25 333.38" xmlns="http://www.w3.org/2000/svg" xmlns:xlink="http://www.w3.org/1999/xlink">
<g id="graph0" class="graph" transform="scale(1 1) rotate(0) translate(4 329.38)">
<title>mal_packet_weaver::PacketDispatcher::SynchronizationWrapper&lt; Value &gt;</title>
<!-- Node1 -->
<g id="Node000001" class="node">
<title>Node1</title>
<g id="a_Node000001"><a xlink:title="A wrapper class for synchronizing and processing data.">
<polygon fill="#999999" stroke="#666666" points="155.5,-189.38 0,-189.38 0,-147.62 155.5,-147.62 155.5,-189.38"/>
<text text-anchor="start" x="8" y="-175.88" font-family="Times,serif" font-size="10.00">mal_packet_weaver::</text>
<text text-anchor="start" x="8" y="-164.62" font-family="Times,serif" font-size="10.00">PacketDispatcher::Synchronization</text>
<text text-anchor="middle" x="77.75" y="-153.38" font-family="Times,serif" font-size="10.00">Wrapper&lt; Value &gt;</text>
</a>
</g>
</g>
<!-- Node2 -->
<g id="Node000002" class="node">
<title>Node2</title>
<g id="a_Node000002"><a xlink:href="../../d5/d60/classmal__packet__weaver_1_1_packet_dispatcher_1_1_synchronization_wrapper.html" target="_top" xlink:title=" ">
<polygon fill="white" stroke="#666666" points="480.12,-325.38 324.62,-325.38 324.62,-283.62 480.12,-283.62 480.12,-325.38"/>
<text text-anchor="start" x="332.62" y="-311.88" font-family="Times,serif" font-size="10.00">mal_packet_weaver::</text>
<text text-anchor="start" x="332.62" y="-300.62" font-family="Times,serif" font-size="10.00">PacketDispatcher::Synchronization</text>
<text text-anchor="middle" x="402.38" y="-289.38" font-family="Times,serif" font-size="10.00">Wrapper&lt; BasePacketPtr &gt;</text>
</a>
</g>
</g>
<!-- Node1&#45;&gt;Node2 -->
<g id="edge1_Node000001_Node000002" class="edge">
<title>Node1&#45;&gt;Node2</title>
<g id="a_edge1_Node000001_Node000002"><a xlink:title=" ">
<path fill="none" stroke="orange" stroke-dasharray="5,2" d="M106.24,-197.21C123.96,-214.15 148.33,-234.71 173.5,-247.5 220.67,-271.47 278.57,-285.78 324.19,-294.07"/>
<polygon fill="orange" stroke="orange" points="109.18,-195.21 99.59,-190.72 104.29,-200.22 109.18,-195.21"/>
</a>
</g>
<text text-anchor="middle" x="236.5" y="-289.25" font-family="Times,serif" font-size="10.00" fill="grey"> &lt; BasePacketPtr &gt;</text>
</g>
<!-- Node3 -->
<g id="Node000003" class="node">
<title>Node3</title>
<g id="a_Node000003"><a xlink:href="../../d5/d60/classmal__packet__weaver_1_1_packet_dispatcher_1_1_synchronization_wrapper.html" target="_top" xlink:title=" ">
<polygon fill="white" stroke="#666666" points="486.88,-266 317.88,-266 317.88,-213 486.88,-213 486.88,-266"/>
<text text-anchor="start" x="325.88" y="-252.5" font-family="Times,serif" font-size="10.00">mal_packet_weaver::</text>
<text text-anchor="start" x="325.88" y="-241.25" font-family="Times,serif" font-size="10.00">PacketDispatcher::Synchronization</text>
<text text-anchor="start" x="325.88" y="-230" font-family="Times,serif" font-size="10.00">Wrapper&lt; std::pair&lt; UniquePacketID,</text>
<text text-anchor="middle" x="402.38" y="-218.75" font-family="Times,serif" font-size="10.00"> shared_packet_promise &gt; &gt;</text>
</a>
</g>
</g>
<!-- Node1&#45;&gt;Node3 -->
<g id="edge2_Node000001_Node000003" class="edge">
<title>Node1&#45;&gt;Node3</title>
<g id="a_edge2_Node000001_Node000003"><a xlink:title=" ">
<path fill="none" stroke="orange" stroke-dasharray="5,2" d="M161.78,-192.6C165.73,-193.61 169.66,-194.58 173.5,-195.5 220.83,-206.79 274.2,-217.22 317.4,-225.09"/>
<polygon fill="orange" stroke="orange" points="162.82,-189 152.26,-189.86 161.05,-195.77 162.82,-189"/>
</a>
</g>
<text text-anchor="start" x="173.5" y="-233.5" font-family="Times,serif" font-size="10.00" fill="grey"> &lt; std::pair&lt; UniquePacket</text>
<text text-anchor="middle" x="236.5" y="-222.25" font-family="Times,serif" font-size="10.00" fill="grey">ID, shared_packet_promise &gt; &gt;</text>
</g>
<!-- Node4 -->
<g id="Node000004" class="node">
<title>Node4</title>
<g id="a_Node000004"><a xlink:href="../../d5/d60/classmal__packet__weaver_1_1_packet_dispatcher_1_1_synchronization_wrapper.html" target="_top" xlink:title=" ">
<polygon fill="white" stroke="#666666" points="486.88,-195 317.88,-195 317.88,-142 486.88,-142 486.88,-195"/>
<text text-anchor="start" x="325.88" y="-181.5" font-family="Times,serif" font-size="10.00">mal_packet_weaver::</text>
<text text-anchor="start" x="325.88" y="-170.25" font-family="Times,serif" font-size="10.00">PacketDispatcher::Synchronization</text>
<text text-anchor="start" x="325.88" y="-159" font-family="Times,serif" font-size="10.00">Wrapper&lt; std::pair&lt; UniquePacketID,</text>
<text text-anchor="middle" x="402.38" y="-147.75" font-family="Times,serif" font-size="10.00"> promise_filter &gt; &gt;</text>
</a>
</g>
</g>
<!-- Node1&#45;&gt;Node4 -->
<g id="edge3_Node000001_Node000004" class="edge">
<title>Node1&#45;&gt;Node4</title>
<g id="a_edge3_Node000001_Node000004"><a xlink:title=" ">
<path fill="none" stroke="orange" stroke-dasharray="5,2" d="M166.4,-168.5C213.4,-168.5 271.03,-168.5 317.45,-168.5"/>
<polygon fill="orange" stroke="orange" points="166.62,-165 156.62,-168.5 166.62,-172 166.62,-165"/>
</a>
</g>
<text text-anchor="start" x="183.25" y="-181.5" font-family="Times,serif" font-size="10.00" fill="grey"> &lt; std::pair&lt; UniquePacket</text>
<text text-anchor="middle" x="236.5" y="-170.25" font-family="Times,serif" font-size="10.00" fill="grey">ID, promise_filter &gt; &gt;</text>
</g>
<!-- Node5 -->
<g id="Node000005" class="node">
<title>Node5</title>
<g id="a_Node000005"><a xlink:href="../../d5/d60/classmal__packet__weaver_1_1_packet_dispatcher_1_1_synchronization_wrapper.html" target="_top" xlink:title=" ">
<polygon fill="white" stroke="#666666" points="486.88,-124 317.88,-124 317.88,-71 486.88,-71 486.88,-124"/>
<text text-anchor="start" x="325.88" y="-110.5" font-family="Times,serif" font-size="10.00">mal_packet_weaver::</text>
<text text-anchor="start" x="325.88" y="-99.25" font-family="Times,serif" font-size="10.00">PacketDispatcher::Synchronization</text>
<text text-anchor="start" x="325.88" y="-88" font-family="Times,serif" font-size="10.00">Wrapper&lt; std::pair&lt; UniquePacketID,</text>
<text text-anchor="middle" x="402.38" y="-76.75" font-family="Times,serif" font-size="10.00"> handler_tuple &gt; &gt;</text>
</a>
</g>
</g>
<!-- Node1&#45;&gt;Node5 -->
<g id="edge4_Node000001_Node000005" class="edge">
<title>Node1&#45;&gt;Node5</title>
<g id="a_edge4_Node000001_Node000005"><a xlink:title=" ">
<path fill="none" stroke="orange" stroke-dasharray="5,2" d="M163.25,-144.5C166.71,-143.64 170.13,-142.8 173.5,-142 220.86,-130.77 274.24,-120.24 317.43,-112.24"/>
<polygon fill="orange" stroke="orange" points="162.64,-141.3 153.83,-147.17 164.38,-148.08 162.64,-141.3"/>
</a>
</g>
<text text-anchor="start" x="183.25" y="-154.5" font-family="Times,serif" font-size="10.00" fill="grey"> &lt; std::pair&lt; UniquePacket</text>
<text text-anchor="middle" x="236.5" y="-143.25" font-family="Times,serif" font-size="10.00" fill="grey">ID, handler_tuple &gt; &gt;</text>
</g>
<!-- Node6 -->
<g id="Node000006" class="node">
<title>Node6</title>
<g id="a_Node000006"><a xlink:href="../../d5/d60/classmal__packet__weaver_1_1_packet_dispatcher_1_1_synchronization_wrapper.html" target="_top" xlink:title=" ">
<polygon fill="white" stroke="#666666" points="487.25,-53 317.5,-53 317.5,0 487.25,0 487.25,-53"/>
<text text-anchor="start" x="325.5" y="-39.5" font-family="Times,serif" font-size="10.00">mal_packet_weaver::</text>
<text text-anchor="start" x="325.5" y="-28.25" font-family="Times,serif" font-size="10.00">PacketDispatcher::Synchronization</text>
<text text-anchor="start" x="325.5" y="-17" font-family="Times,serif" font-size="10.00">Wrapper&lt; std::pair&lt; PacketSubsystem</text>
<text text-anchor="middle" x="402.38" y="-5.75" font-family="Times,serif" font-size="10.00">ID, handler_tuple &gt; &gt;</text>
</a>
</g>
</g>
<!-- Node1&#45;&gt;Node6 -->
<g id="edge5_Node000001_Node000006" class="edge">
<title>Node1&#45;&gt;Node6</title>
<g id="a_edge5_Node000001_Node000006"><a xlink:title=" ">
<path fill="none" stroke="orange" stroke-dasharray="5,2" d="M106.31,-139.8C124.06,-122.83 148.43,-102.14 173.5,-89 218.28,-65.52 272.76,-50.16 317.22,-40.55"/>
<polygon fill="orange" stroke="orange" points="104.35,-136.81 99.64,-146.3 109.24,-141.81 104.35,-136.81"/>
</a>
</g>
<text text-anchor="start" x="176.5" y="-101.5" font-family="Times,serif" font-size="10.00" fill="grey"> &lt; std::pair&lt; PacketSubsystem</text>
<text text-anchor="middle" x="236.5" y="-90.25" font-family="Times,serif" font-size="10.00" fill="grey">ID, handler_tuple &gt; &gt;</text>
</g>
</g>
</svg>
