<?xml version="1.0" encoding="UTF-8" standalone="no"?>
<!DOCTYPE svg PUBLIC "-//W3C//DTD SVG 1.1//EN"
 "http://www.w3.org/Graphics/SVG/1.1/DTD/svg11.dtd">
<!-- Generated by graphviz version 8.1.0 (20230707.0739)
 -->
<!-- Title: mal_packet_weaver::portable_binary_iarchive_exception Pages: 1 -->
<svg width="225pt" height="128pt"
 viewBox="0.00 0.00 225.25 127.50" xmlns="http://www.w3.org/2000/svg" xmlns:xlink="http://www.w3.org/1999/xlink">
<g id="graph0" class="graph" transform="scale(1 1) rotate(0) translate(4 123.5)">
<title>mal_packet_weaver::portable_binary_iarchive_exception</title>
<!-- Node1 -->
<g id="Node000001" class="node">
<title>Node1</title>
<g id="a_Node000001"><a xlink:title=" ">
<polygon fill="#999999" stroke="#666666" points="165.12,-41.75 49.38,-41.75 49.38,0 165.12,0 165.12,-41.75"/>
<text text-anchor="start" x="57.38" y="-28.25" font-family="Times,serif" font-size="10.00">mal_packet_weaver::</text>
<text text-anchor="start" x="57.38" y="-17" font-family="Times,serif" font-size="10.00">portable_binary_iarchive</text>
<text text-anchor="middle" x="107.25" y="-5.75" font-family="Times,serif" font-size="10.00">_exception</text>
</a>
</g>
</g>
<!-- Node2 -->
<g id="Node000002" class="node">
<title>Node2</title>
<g id="a_Node000002"><a xlink:href="../../d1/d03/classboost_1_1archive_1_1archive__exception.html" target="_top" xlink:title=" ">
<polygon fill="white" stroke="#666666" points="104.5,-119.5 0,-119.5 0,-89 104.5,-89 104.5,-119.5"/>
<text text-anchor="start" x="8" y="-106" font-family="Times,serif" font-size="10.00">boost::archive::archive</text>
<text text-anchor="middle" x="52.25" y="-94.75" font-family="Times,serif" font-size="10.00">_exception</text>
</a>
</g>
</g>
<!-- Node2&#45;&gt;Node1 -->
<g id="edge1_Node000001_Node000002" class="edge">
<title>Node2&#45;&gt;Node1</title>
<g id="a_edge1_Node000001_Node000002"><a xlink:title=" ">
<path fill="none" stroke="#63b8ff" d="M68.12,-79.77C76.18,-67.85 85.86,-53.52 93.58,-42.1"/>
<polygon fill="#63b8ff" stroke="#63b8ff" points="64.78,-77.46 62.08,-87.7 70.58,-81.38 64.78,-77.46"/>
</a>
</g>
</g>
<!-- Node3 -->
<g id="Node000003" class="node">
<title>Node3</title>
<g id="a_Node000003"><a xlink:title=" ">
<polygon fill="white" stroke="#666666" points="201.75,-113.88 122.75,-113.88 122.75,-94.62 201.75,-94.62 201.75,-113.88"/>
<text text-anchor="middle" x="162.25" y="-100.38" font-family="Times,serif" font-size="10.00">exception_code</text>
</a>
</g>
</g>
<!-- Node3&#45;&gt;Node1 -->
<g id="edge2_Node000001_Node000003" class="edge">
<title>Node3&#45;&gt;Node1</title>
<g id="a_edge2_Node000001_Node000003"><a xlink:title=" ">
<path fill="none" stroke="#9a32cd" stroke-dasharray="5,2" d="M150.23,-85.46C141.59,-72.68 129.92,-55.41 120.92,-42.1"/>
<polygon fill="#9a32cd" stroke="#9a32cd" points="147.65,-86.91 156.15,-93.23 153.45,-82.99 147.65,-86.91"/>
</a>
</g>
<text text-anchor="middle" x="178.25" y="-61.5" font-family="Times,serif" font-size="10.00" fill="grey"> m_exception_code</text>
</g>
</g>
</svg>
