<?xml version="1.0" encoding="UTF-8" standalone="no"?>
<!DOCTYPE svg PUBLIC "-//W3C//DTD SVG 1.1//EN"
 "http://www.w3.org/Graphics/SVG/1.1/DTD/svg11.dtd">
<!-- Generated by graphviz version 7.0.5 (20221223.1930)
 -->
<!-- Title: node_system::ByteView Pages: 1 -->
<svg width="128pt" height="149pt"
 viewBox="0.00 0.00 128.00 149.00" xmlns="http://www.w3.org/2000/svg" xmlns:xlink="http://www.w3.org/1999/xlink">
<g id="graph0" class="graph" transform="scale(1 1) rotate(0) translate(4 145)">
<title>node_system::ByteView</title>
<!-- Node1 -->
<g id="node1" class="node">
<title>Node1</title>
<g id="a_node1"><a xlink:title="A lightweight view over a sequence of bytes.">
<polygon fill="#999999" stroke="#666666" points="120,-19 0,-19 0,0 120,0 120,-19"/>
<text text-anchor="middle" x="60" y="-7" font-family="Helvetica,sans-Serif" font-size="10.00">node_system::ByteView</text>
</a>
</g>
</g>
<!-- Node2 -->
<g id="node2" class="node">
<title>Node2</title>
<g id="a_node2"><a xlink:title=" ">
<polygon fill="white" stroke="#666666" points="99,-75 21,-75 21,-56 99,-56 99,-75"/>
<text text-anchor="middle" x="60" y="-63" font-family="Helvetica,sans-Serif" font-size="10.00">std::span&lt; T &gt;</text>
</a>
</g>
</g>
<!-- Node2&#45;&gt;Node1 -->
<g id="edge1" class="edge">
<title>Node2&#45;&gt;Node1</title>
<path fill="none" stroke="#63b8ff" d="M60,-44.11C60,-35.52 60,-25.97 60,-19.25"/>
<polygon fill="#63b8ff" stroke="#63b8ff" points="56.5,-44.07 60,-54.07 63.5,-44.07 56.5,-44.07"/>
</g>
<!-- Node3 -->
<g id="node3" class="node">
<title>Node3</title>
<g id="a_node3"><a xlink:title=" ">
<polygon fill="white" stroke="#666666" points="74.5,-141 45.5,-141 45.5,-122 74.5,-122 74.5,-141"/>
<text text-anchor="middle" x="60" y="-129" font-family="Helvetica,sans-Serif" font-size="10.00">T</text>
</a>
</g>
</g>
<!-- Node3&#45;&gt;Node2 -->
<g id="edge2" class="edge">
<title>Node3&#45;&gt;Node2</title>
<path fill="none" stroke="#9a32cd" stroke-dasharray="5,2" d="M60,-110.18C60,-98.44 60,-84.27 60,-75.32"/>
<polygon fill="#9a32cd" stroke="#9a32cd" points="56.5,-110.09 60,-120.09 63.5,-110.09 56.5,-110.09"/>
<text text-anchor="middle" x="81.5" y="-96" font-family="Helvetica,sans-Serif" font-size="10.00"> elements</text>
</g>
</g>
</svg>
