<?xml version="1.0" encoding="UTF-8" standalone="no"?>
<!DOCTYPE svg PUBLIC "-//W3C//DTD SVG 1.1//EN"
 "http://www.w3.org/Graphics/SVG/1.1/DTD/svg11.dtd">
<!-- Generated by graphviz version 9.0.0 (20230911.1827)
 -->
<!-- Title: mal_toolkit::ByteArray::as Pages: 1 -->
<svg width="583pt" height="550pt"
 viewBox="0.00 0.00 582.75 549.50" xmlns="http://www.w3.org/2000/svg" xmlns:xlink="http://www.w3.org/1999/xlink">
<g id="graph0" class="graph" transform="scale(1 1) rotate(0) translate(4 545.5)">
<title>mal_toolkit::ByteArray::as</title>
<!-- Node1 -->
<g id="Node000001" class="node">
<title>Node1</title>
<g id="a_Node000001"><a xlink:title="Convert the ByteArray to a typed pointer.">
<polygon fill="#999999" stroke="#666666" points="574.75,-276.88 455.25,-276.88 455.25,-257.62 574.75,-257.62 574.75,-276.88"/>
<text text-anchor="middle" x="515" y="-263.38" font-family="Times,serif" font-size="10.00">mal_toolkit::ByteArray::as</text>
</a>
</g>
</g>
<!-- Node2 -->
<g id="Node000002" class="node">
<title>Node2</title>
<g id="a_Node000002"><a xlink:href="../../d8/d99/structmal__toolkit_1_1_byte_array.html#a5cfb0eb753cb15a26418827f050c6f26" target="_top" xlink:title="Append a string of data to the byte array.">
<polygon fill="white" stroke="#666666" points="419.25,-541.5 312.5,-541.5 312.5,-511 419.25,-511 419.25,-541.5"/>
<text text-anchor="start" x="320.5" y="-528" font-family="Times,serif" font-size="10.00">mal_toolkit::ByteArray</text>
<text text-anchor="middle" x="365.88" y="-516.75" font-family="Times,serif" font-size="10.00">::append</text>
</a>
</g>
</g>
<!-- Node1&#45;&gt;Node2 -->
<g id="edge1_Node000001_Node000002" class="edge">
<title>Node1&#45;&gt;Node2</title>
<g id="a_edge1_Node000001_Node000002"><a xlink:title=" ">
<path fill="none" stroke="#63b8ff" d="M510.76,-288.16C502.86,-332.71 478.7,-438.08 419.25,-501.25 415.94,-504.77 412.02,-507.85 407.85,-510.53"/>
<polygon fill="#63b8ff" stroke="#63b8ff" points="514.17,-289 512.36,-278.56 507.27,-287.85 514.17,-289"/>
</a>
</g>
</g>
<!-- Node3 -->
<g id="Node000003" class="node">
<title>Node3</title>
<g id="a_Node000003"><a xlink:href="../../d8/d99/structmal__toolkit_1_1_byte_array.html#a664b8b86221273118efe7ccefe355a8d" target="_top" xlink:title="Append a string view of data to the byte array.">
<polygon fill="white" stroke="#666666" points="419.25,-492.5 312.5,-492.5 312.5,-462 419.25,-462 419.25,-492.5"/>
<text text-anchor="start" x="320.5" y="-479" font-family="Times,serif" font-size="10.00">mal_toolkit::ByteArray</text>
<text text-anchor="middle" x="365.88" y="-467.75" font-family="Times,serif" font-size="10.00">::append</text>
</a>
</g>
</g>
<!-- Node1&#45;&gt;Node3 -->
<g id="edge2_Node000001_Node000003" class="edge">
<title>Node1&#45;&gt;Node3</title>
<g id="a_edge2_Node000001_Node000003"><a xlink:title=" ">
<path fill="none" stroke="#63b8ff" d="M508.24,-287.99C496.93,-325.31 468.53,-404.33 419.25,-452.25 415.64,-455.76 411.44,-458.86 407.02,-461.56"/>
<polygon fill="#63b8ff" stroke="#63b8ff" points="511.57,-289.07 511,-278.49 504.85,-287.12 511.57,-289.07"/>
</a>
</g>
</g>
<!-- Node4 -->
<g id="Node000004" class="node">
<title>Node4</title>
<g id="a_Node000004"><a xlink:href="../../d8/d99/structmal__toolkit_1_1_byte_array.html#a927db3cdbfb9c6215324689996e432ad" target="_top" xlink:title="Append a span of data to the byte array.">
<polygon fill="white" stroke="#666666" points="419.25,-443.5 312.5,-443.5 312.5,-413 419.25,-413 419.25,-443.5"/>
<text text-anchor="start" x="320.5" y="-430" font-family="Times,serif" font-size="10.00">mal_toolkit::ByteArray</text>
<text text-anchor="middle" x="365.88" y="-418.75" font-family="Times,serif" font-size="10.00">::append</text>
</a>
</g>
</g>
<!-- Node1&#45;&gt;Node4 -->
<g id="edge3_Node000001_Node000004" class="edge">
<title>Node1&#45;&gt;Node4</title>
<g id="a_edge3_Node000001_Node000004"><a xlink:title=" ">
<path fill="none" stroke="#63b8ff" d="M504.37,-287.18C489.57,-316.06 458.76,-369.71 419.25,-403.25 415.18,-406.71 410.55,-409.8 405.77,-412.54"/>
<polygon fill="#63b8ff" stroke="#63b8ff" points="507.39,-288.97 508.72,-278.46 501.13,-285.84 507.39,-288.97"/>
</a>
</g>
</g>
<!-- Node5 -->
<g id="Node000005" class="node">
<title>Node5</title>
<g id="a_Node000005"><a xlink:href="../../d8/d99/structmal__toolkit_1_1_byte_array.html#a20c81017c7578d21f0704767c8e007ee" target="_top" xlink:title="Append a vector of data to the byte array.">
<polygon fill="white" stroke="#666666" points="419.25,-394.5 312.5,-394.5 312.5,-364 419.25,-364 419.25,-394.5"/>
<text text-anchor="start" x="320.5" y="-381" font-family="Times,serif" font-size="10.00">mal_toolkit::ByteArray</text>
<text text-anchor="middle" x="365.88" y="-369.75" font-family="Times,serif" font-size="10.00">::append</text>
</a>
</g>
</g>
<!-- Node1&#45;&gt;Node5 -->
<g id="edge4_Node000001_Node000005" class="edge">
<title>Node1&#45;&gt;Node5</title>
<g id="a_edge4_Node000001_Node000005"><a xlink:title=" ">
<path fill="none" stroke="#63b8ff" d="M496.04,-285.08C477.67,-302.79 447.85,-330.15 419.25,-350.25 412.53,-354.97 404.97,-359.54 397.73,-363.6"/>
<polygon fill="#63b8ff" stroke="#63b8ff" points="498.29,-287.77 503,-278.29 493.4,-282.76 498.29,-287.77"/>
</a>
</g>
</g>
<!-- Node6 -->
<g id="Node000006" class="node">
<title>Node6</title>
<g id="a_Node000006"><a xlink:href="../../d8/d99/structmal__toolkit_1_1_byte_array.html#a80e7b96acf842e60ac6874629762f0cf" target="_top" xlink:title="Append two data sources to the byte array.">
<polygon fill="white" stroke="#666666" points="271.25,-364.5 164.5,-364.5 164.5,-334 271.25,-334 271.25,-364.5"/>
<text text-anchor="start" x="172.5" y="-351" font-family="Times,serif" font-size="10.00">mal_toolkit::ByteArray</text>
<text text-anchor="middle" x="217.88" y="-339.75" font-family="Times,serif" font-size="10.00">::append</text>
</a>
</g>
</g>
<!-- Node1&#45;&gt;Node6 -->
<g id="edge5_Node000001_Node000006" class="edge">
<title>Node1&#45;&gt;Node6</title>
<g id="a_edge5_Node000001_Node000006"><a xlink:title=" ">
<path fill="none" stroke="#63b8ff" d="M474.5,-280.83C457.57,-286.48 437.52,-292.94 419.25,-298.25 369.44,-312.72 312.02,-327.1 271.45,-336.89"/>
<polygon fill="#63b8ff" stroke="#63b8ff" points="475.33,-284.24 483.69,-277.74 473.1,-277.61 475.33,-284.24"/>
</a>
</g>
</g>
<!-- Node7 -->
<g id="Node000007" class="node">
<title>Node7</title>
<g id="a_Node000007"><a xlink:href="../../d8/d99/structmal__toolkit_1_1_byte_array.html#aeee7ab5aa07bb08377a74f42375b59c8" target="_top" xlink:title="Append multiple data sources to the byte array.">
<polygon fill="white" stroke="#666666" points="419.25,-252.5 312.5,-252.5 312.5,-222 419.25,-222 419.25,-252.5"/>
<text text-anchor="start" x="320.5" y="-239" font-family="Times,serif" font-size="10.00">mal_toolkit::ByteArray</text>
<text text-anchor="middle" x="365.88" y="-227.75" font-family="Times,serif" font-size="10.00">::append</text>
</a>
</g>
</g>
<!-- Node1&#45;&gt;Node7 -->
<g id="edge6_Node000001_Node000007" class="edge">
<title>Node1&#45;&gt;Node7</title>
<g id="a_edge6_Node000001_Node000007"><a xlink:title=" ">
<path fill="none" stroke="#63b8ff" d="M453.55,-254.92C442.31,-252.63 430.66,-250.26 419.67,-248.02"/>
<polygon fill="#63b8ff" stroke="#63b8ff" points="452.62,-258.31 463.12,-256.87 454.02,-251.45 452.62,-258.31"/>
</a>
</g>
</g>
<!-- Node8 -->
<g id="Node000008" class="node">
<title>Node8</title>
<g id="a_Node000008"><a xlink:href="../../d8/d99/structmal__toolkit_1_1_byte_array.html#a8c530ce3db08f43b3156b92856c4acf1" target="_top" xlink:title="Create a byte array from multiple data sources.">
<polygon fill="white" stroke="#666666" points="271.25,-315.5 164.5,-315.5 164.5,-285 271.25,-285 271.25,-315.5"/>
<text text-anchor="start" x="172.5" y="-302" font-family="Times,serif" font-size="10.00">mal_toolkit::ByteArray</text>
<text text-anchor="middle" x="217.88" y="-290.75" font-family="Times,serif" font-size="10.00">::from_byte_arrays</text>
</a>
</g>
</g>
<!-- Node1&#45;&gt;Node8 -->
<g id="edge15_Node000001_Node000008" class="edge">
<title>Node1&#45;&gt;Node8</title>
<g id="a_edge15_Node000001_Node000008"><a xlink:title=" ">
<path fill="none" stroke="#63b8ff" d="M443.72,-276.32C435.47,-277.34 427.18,-278.33 419.25,-279.25 369.22,-285.04 312.07,-290.96 271.64,-295.03"/>
<polygon fill="#63b8ff" stroke="#63b8ff" points="443.89,-279.83 453.39,-275.12 443.03,-272.88 443.89,-279.83"/>
</a>
</g>
</g>
<!-- Node9 -->
<g id="Node000009" class="node">
<title>Node9</title>
<g id="a_Node000009"><a xlink:href="../../d8/d39/classmal__packet__weaver_1_1_session.html#a71ede34f71a6dc30d56d99015997caa3" target="_top" xlink:title="Asynchronously sends all packets in the queue through the network.">
<polygon fill="white" stroke="#666666" points="267.5,-207.5 168.25,-207.5 168.25,-177 267.5,-177 267.5,-207.5"/>
<text text-anchor="start" x="176.25" y="-194" font-family="Times,serif" font-size="10.00">mal_packet_weaver::</text>
<text text-anchor="middle" x="217.88" y="-182.75" font-family="Times,serif" font-size="10.00">Session::send_all</text>
</a>
</g>
</g>
<!-- Node1&#45;&gt;Node9 -->
<g id="edge17_Node000001_Node000009" class="edge">
<title>Node1&#45;&gt;Node9</title>
<g id="a_edge17_Node000001_Node000009"><a xlink:title=" ">
<path fill="none" stroke="#63b8ff" d="M491.44,-250.8C472.98,-238.27 445.71,-221.76 419.25,-213.25 369.3,-197.18 309.09,-192.74 267.8,-191.81"/>
<polygon fill="#63b8ff" stroke="#63b8ff" points="489.27,-253.56 499.48,-256.42 493.28,-247.82 489.27,-253.56"/>
</a>
</g>
</g>
<!-- Node12 -->
<g id="Node000012" class="node">
<title>Node12</title>
<g id="a_Node000012"><a xlink:href="../../d8/d39/classmal__packet__weaver_1_1_session.html#ab8d02d6502bb180c3b0f383b3fddc6ca" target="_top" xlink:title="Asynchronously forges new packets from the buffer.">
<polygon fill="white" stroke="#666666" points="269.38,-159.12 166.38,-159.12 166.38,-117.38 269.38,-117.38 269.38,-159.12"/>
<text text-anchor="start" x="174.38" y="-145.62" font-family="Times,serif" font-size="10.00">mal_packet_weaver::</text>
<text text-anchor="start" x="174.38" y="-134.38" font-family="Times,serif" font-size="10.00">Session::async_packet</text>
<text text-anchor="middle" x="217.88" y="-123.12" font-family="Times,serif" font-size="10.00">_forger</text>
</a>
</g>
</g>
<!-- Node1&#45;&gt;Node12 -->
<g id="edge13_Node000001_Node000012" class="edge">
<title>Node1&#45;&gt;Node12</title>
<g id="a_edge13_Node000001_Node000012"><a xlink:title=" ">
<path fill="none" stroke="#63b8ff" d="M497.02,-249.57C479.22,-232.04 449.65,-205.62 419.25,-190.25 371.46,-166.09 311.42,-152.43 269.58,-145.24"/>
<polygon fill="#63b8ff" stroke="#63b8ff" points="494.18,-251.67 503.7,-256.31 499.15,-246.74 494.18,-251.67"/>
</a>
</g>
</g>
<!-- Node13 -->
<g id="Node000013" class="node">
<title>Node13</title>
<g id="a_Node000013"><a xlink:href="../../d8/d99/structmal__toolkit_1_1_byte_array.html#a34acebd668907be75b830deb912e684d" target="_top" xlink:title="Create a byte array from an integral value.">
<polygon fill="white" stroke="#666666" points="419.25,-79.5 312.5,-79.5 312.5,-49 419.25,-49 419.25,-79.5"/>
<text text-anchor="start" x="320.5" y="-66" font-family="Times,serif" font-size="10.00">mal_toolkit::ByteArray</text>
<text text-anchor="middle" x="365.88" y="-54.75" font-family="Times,serif" font-size="10.00">::from_integral</text>
</a>
</g>
</g>
<!-- Node1&#45;&gt;Node13 -->
<g id="edge16_Node000001_Node000013" class="edge">
<title>Node1&#45;&gt;Node13</title>
<g id="a_edge16_Node000001_Node000013"><a xlink:title=" ">
<path fill="none" stroke="#63b8ff" d="M507.86,-246.78C496.09,-210.67 467.19,-135.14 419.25,-89.25 415.61,-85.77 411.39,-82.69 406.97,-79.99"/>
<polygon fill="#63b8ff" stroke="#63b8ff" points="504.41,-247.48 510.74,-255.97 511.09,-245.38 504.41,-247.48"/>
</a>
</g>
</g>
<!-- Node14 -->
<g id="Node000014" class="node">
<title>Node14</title>
<g id="a_Node000014"><a xlink:href="../../d8/d99/structmal__toolkit_1_1_byte_array.html#a36dcef7b7965fa3ac6ffc4de36800b76" target="_top" xlink:title="Create a ByteView of a subsequence of the byte array.">
<polygon fill="white" stroke="#666666" points="419.25,-30.5 312.5,-30.5 312.5,0 419.25,0 419.25,-30.5"/>
<text text-anchor="start" x="320.5" y="-17" font-family="Times,serif" font-size="10.00">mal_toolkit::ByteArray</text>
<text text-anchor="middle" x="365.88" y="-5.75" font-family="Times,serif" font-size="10.00">::view</text>
</a>
</g>
</g>
<!-- Node1&#45;&gt;Node14 -->
<g id="edge18_Node000001_Node000014" class="edge">
<title>Node1&#45;&gt;Node14</title>
<g id="a_edge18_Node000001_Node000014"><a xlink:title=" ">
<path fill="none" stroke="#63b8ff" d="M510.41,-246.08C501.98,-202.35 477.12,-101.08 419.25,-40.25 415.85,-36.67 411.83,-33.55 407.55,-30.84"/>
<polygon fill="#63b8ff" stroke="#63b8ff" points="506.94,-246.55 512.17,-255.76 513.82,-245.3 506.94,-246.55"/>
</a>
</g>
</g>
<!-- Node15 -->
<g id="Node000015" class="node">
<title>Node15</title>
<g id="a_Node000015"><a xlink:href="../../d8/d99/structmal__toolkit_1_1_byte_array.html#a33b603234734c1cdddee3fb854988181" target="_top" xlink:title="Create a ByteView of a subsequence of the byte array.">
<polygon fill="white" stroke="#666666" points="419.25,-128.5 312.5,-128.5 312.5,-98 419.25,-98 419.25,-128.5"/>
<text text-anchor="start" x="320.5" y="-115" font-family="Times,serif" font-size="10.00">mal_toolkit::ByteArray</text>
<text text-anchor="middle" x="365.88" y="-103.75" font-family="Times,serif" font-size="10.00">::view</text>
</a>
</g>
</g>
<!-- Node1&#45;&gt;Node15 -->
<g id="edge19_Node000001_Node000015" class="edge">
<title>Node1&#45;&gt;Node15</title>
<g id="a_edge19_Node000001_Node000015"><a xlink:title=" ">
<path fill="none" stroke="#63b8ff" d="M502.82,-247.75C486.91,-221.3 455.61,-173.75 419.25,-142.25 413.52,-137.28 406.79,-132.79 400.11,-128.9"/>
<polygon fill="#63b8ff" stroke="#63b8ff" points="499.63,-249.24 507.72,-256.08 505.66,-245.69 499.63,-249.24"/>
</a>
</g>
</g>
<!-- Node7&#45;&gt;Node6 -->
<g id="edge7_Node000007_Node000006" class="edge">
<title>Node7&#45;&gt;Node6</title>
<g id="a_edge7_Node000007_Node000006"><a xlink:title=" ">
<path fill="none" stroke="#63b8ff" d="M344.71,-261.53C327.97,-280.51 302.73,-306.56 276.5,-324.25 271.44,-327.67 265.83,-330.78 260.16,-333.57"/>
<polygon fill="#63b8ff" stroke="#63b8ff" points="347.33,-263.85 351.22,-253.99 342.03,-259.27 347.33,-263.85"/>
</a>
</g>
</g>
<!-- Node7&#45;&gt;Node7 -->
<g id="edge8_Node000007_Node000007" class="edge">
<title>Node7&#45;&gt;Node7</title>
<g id="a_edge8_Node000007_Node000007"><a xlink:title=" ">
<path fill="none" stroke="#63b8ff" d="M390.69,-264.2C386.64,-267.97 378.36,-270.5 365.88,-270.5 343.04,-270.5 334.3,-262.06 339.65,-252.99"/>
<polygon fill="#63b8ff" stroke="#63b8ff" points="394.14,-264.85 391.91,-254.49 387.2,-263.97 394.14,-264.85"/>
</a>
</g>
</g>
<!-- Node7&#45;&gt;Node8 -->
<g id="edge9_Node000007_Node000008" class="edge">
<title>Node7&#45;&gt;Node8</title>
<g id="a_edge9_Node000007_Node000008"><a xlink:title=" ">
<path fill="none" stroke="#63b8ff" d="M319.47,-257.5C305.69,-263.59 290.5,-270.25 276.5,-276.25 270.13,-278.98 263.34,-281.85 256.74,-284.61"/>
<polygon fill="#63b8ff" stroke="#63b8ff" points="320.58,-260.84 328.3,-253.59 317.74,-254.44 320.58,-260.84"/>
</a>
</g>
</g>
<!-- Node7&#45;&gt;Node9 -->
<g id="edge10_Node000007_Node000009" class="edge">
<title>Node7&#45;&gt;Node9</title>
<g id="a_edge10_Node000007_Node000009"><a xlink:title=" ">
<path fill="none" stroke="#63b8ff" d="M303.1,-218.21C291.28,-214.57 279.05,-210.8 267.7,-207.3"/>
<polygon fill="#63b8ff" stroke="#63b8ff" points="301.78,-221.46 312.36,-221.07 303.84,-214.78 301.78,-221.46"/>
</a>
</g>
</g>
<!-- Node11 -->
<g id="Node000011" class="node">
<title>Node11</title>
<g id="a_Node000011"><a xlink:href="../../dd/d2b/classmal__packet__weaver_1_1_derived_packet.html#acc2b05e779546c118d6fbb5a18499aa5" target="_top" xlink:title="Serialize the derived packet data into a ByteArray.">
<polygon fill="white" stroke="#666666" points="273.88,-267.12 161.88,-267.12 161.88,-225.38 273.88,-225.38 273.88,-267.12"/>
<text text-anchor="start" x="169.88" y="-253.62" font-family="Times,serif" font-size="10.00">mal_packet_weaver::</text>
<text text-anchor="start" x="169.88" y="-242.38" font-family="Times,serif" font-size="10.00">DerivedPacket::serialize</text>
<text text-anchor="middle" x="217.88" y="-231.12" font-family="Times,serif" font-size="10.00">_to_bytearray</text>
</a>
</g>
</g>
<!-- Node7&#45;&gt;Node11 -->
<g id="edge12_Node000007_Node000011" class="edge">
<title>Node7&#45;&gt;Node11</title>
<g id="a_edge12_Node000007_Node000011"><a xlink:title=" ">
<path fill="none" stroke="#63b8ff" d="M300.93,-241.19C291.94,-241.75 282.77,-242.31 273.97,-242.85"/>
<polygon fill="#63b8ff" stroke="#63b8ff" points="300.89,-244.7 310.65,-240.59 300.46,-237.71 300.89,-244.7"/>
</a>
</g>
</g>
<!-- Node10 -->
<g id="Node000010" class="node">
<title>Node10</title>
<g id="a_Node000010"><a xlink:href="../../d8/d39/classmal__packet__weaver_1_1_session.html#a5cf271c70d7ec610cfb01d0ed8655693" target="_top" xlink:title="Constructor for the Session class.">
<polygon fill="white" stroke="#666666" points="111.25,-153.5 12,-153.5 12,-123 111.25,-123 111.25,-153.5"/>
<text text-anchor="start" x="20" y="-140" font-family="Times,serif" font-size="10.00">mal_packet_weaver::</text>
<text text-anchor="middle" x="61.62" y="-128.75" font-family="Times,serif" font-size="10.00">Session::Session</text>
</a>
</g>
</g>
<!-- Node9&#45;&gt;Node10 -->
<g id="edge11_Node000009_Node000010" class="edge">
<title>Node9&#45;&gt;Node10</title>
<g id="a_edge11_Node000009_Node000010"><a xlink:title=" ">
<path fill="none" stroke="#63b8ff" d="M161.46,-172.85C143.71,-166.64 124.3,-159.84 107.41,-153.93"/>
<polygon fill="#63b8ff" stroke="#63b8ff" points="160.24,-176.13 170.83,-176.13 162.55,-169.52 160.24,-176.13"/>
</a>
</g>
</g>
<!-- Node12&#45;&gt;Node10 -->
<g id="edge14_Node000012_Node000010" class="edge">
<title>Node12&#45;&gt;Node10</title>
<g id="a_edge14_Node000012_Node000010"><a xlink:title=" ">
<path fill="none" stroke="#63b8ff" d="M154.66,-138.25C140.35,-138.25 125.33,-138.25 111.67,-138.25"/>
<polygon fill="#63b8ff" stroke="#63b8ff" points="154.43,-141.75 164.43,-138.25 154.43,-134.75 154.43,-141.75"/>
</a>
</g>
</g>
<!-- Node16 -->
<g id="Node000016" class="node">
<title>Node16</title>
<g id="a_Node000016"><a xlink:href="../../d8/d39/classmal__packet__weaver_1_1_session.html#a95349691831542cec27090d0ab21ca88" target="_top" xlink:title="Asynchronously receives and processes incoming packets from the network.">
<polygon fill="white" stroke="#666666" points="269.38,-99.12 166.38,-99.12 166.38,-57.38 269.38,-57.38 269.38,-99.12"/>
<text text-anchor="start" x="174.38" y="-85.62" font-family="Times,serif" font-size="10.00">mal_packet_weaver::</text>
<text text-anchor="start" x="174.38" y="-74.38" font-family="Times,serif" font-size="10.00">Session::async_packet</text>
<text text-anchor="middle" x="217.88" y="-63.12" font-family="Times,serif" font-size="10.00">_sender</text>
</a>
</g>
</g>
<!-- Node15&#45;&gt;Node16 -->
<g id="edge20_Node000015_Node000016" class="edge">
<title>Node15&#45;&gt;Node16</title>
<g id="a_edge20_Node000015_Node000016"><a xlink:title=" ">
<path fill="none" stroke="#63b8ff" d="M301.25,-98C290.65,-95.46 279.78,-92.85 269.55,-90.4"/>
<polygon fill="#63b8ff" stroke="#63b8ff" points="300.15,-101.33 310.69,-100.26 301.79,-94.53 300.15,-101.33"/>
</a>
</g>
</g>
<!-- Node17 -->
<g id="Node000017" class="node">
<title>Node17</title>
<g id="a_Node000017"><a xlink:href="../../d8/d39/classmal__packet__weaver_1_1_session.html#a3b221a320f0fe93e2f463a52f9eab2a0" target="_top" xlink:title="Returns the earliest acquired packet. If packet queue is empty, returns nullptr.">
<polygon fill="white" stroke="#666666" points="276.5,-39.5 159.25,-39.5 159.25,-9 276.5,-9 276.5,-39.5"/>
<text text-anchor="start" x="167.25" y="-26" font-family="Times,serif" font-size="10.00">mal_packet_weaver::</text>
<text text-anchor="middle" x="217.88" y="-14.75" font-family="Times,serif" font-size="10.00">Session::pop_packet_now</text>
</a>
</g>
</g>
<!-- Node15&#45;&gt;Node17 -->
<g id="edge22_Node000015_Node000017" class="edge">
<title>Node15&#45;&gt;Node17</title>
<g id="a_edge22_Node000015_Node000017"><a xlink:title=" ">
<path fill="none" stroke="#63b8ff" d="M317.88,-91.99C316.03,-90.79 314.23,-89.54 312.5,-88.25 293.34,-73.93 296.02,-62.07 276.5,-48.25 272.17,-45.18 267.38,-42.41 262.48,-39.93"/>
<polygon fill="#63b8ff" stroke="#63b8ff" points="315.78,-94.81 326.17,-96.88 319.33,-88.78 315.78,-94.81"/>
</a>
</g>
</g>
<!-- Node16&#45;&gt;Node10 -->
<g id="edge21_Node000016_Node000010" class="edge">
<title>Node16&#45;&gt;Node10</title>
<g id="a_edge21_Node000016_Node000010"><a xlink:title=" ">
<path fill="none" stroke="#63b8ff" d="M155.64,-102.07C137.85,-108.99 118.9,-116.36 102.76,-122.64"/>
<polygon fill="#63b8ff" stroke="#63b8ff" points="156.48,-105.5 164.53,-98.61 153.94,-98.97 156.48,-105.5"/>
</a>
</g>
</g>
<!-- Node18 -->
<g id="Node000018" class="node">
<title>Node18</title>
<g id="a_Node000018"><a xlink:href="../../d8/d39/classmal__packet__weaver_1_1_session.html#a961d49d84fb1426fc605c529df1296d1" target="_top" xlink:title=" ">
<polygon fill="white" stroke="#666666" points="123.25,-39.5 0,-39.5 0,-9 123.25,-9 123.25,-39.5"/>
<text text-anchor="start" x="8" y="-26" font-family="Times,serif" font-size="10.00">mal_packet_weaver::</text>
<text text-anchor="middle" x="61.62" y="-14.75" font-family="Times,serif" font-size="10.00">Session::pop_packet_async</text>
</a>
</g>
</g>
<!-- Node17&#45;&gt;Node18 -->
<g id="edge23_Node000017_Node000018" class="edge">
<title>Node17&#45;&gt;Node18</title>
<g id="a_edge23_Node000017_Node000018"><a xlink:title=" ">
<path fill="none" stroke="#63b8ff" d="M147.76,-24.25C139.72,-24.25 131.57,-24.25 123.66,-24.25"/>
<polygon fill="#63b8ff" stroke="#63b8ff" points="147.49,-27.75 157.49,-24.25 147.49,-20.75 147.49,-27.75"/>
</a>
</g>
</g>
</g>
</svg>
