<?xml version="1.0" encoding="UTF-8" standalone="no"?>
<!DOCTYPE svg PUBLIC "-//W3C//DTD SVG 1.1//EN"
 "http://www.w3.org/Graphics/SVG/1.1/DTD/svg11.dtd">
<!-- Generated by graphviz version 8.1.0 (20230707.0739)
 -->
<!-- Title: mal_toolkit::ByteArray::as Pages: 1 -->
<svg width="583pt" height="610pt"
 viewBox="0.00 0.00 582.75 609.50" xmlns="http://www.w3.org/2000/svg" xmlns:xlink="http://www.w3.org/1999/xlink">
<g id="graph0" class="graph" transform="scale(1 1) rotate(0) translate(4 605.5)">
<title>mal_toolkit::ByteArray::as</title>
<!-- Node1 -->
<g id="Node000001" class="node">
<title>Node1</title>
<g id="a_Node000001"><a xlink:title="Convert the ByteArray to a typed pointer.">
<polygon fill="#999999" stroke="#666666" points="574.75,-306.88 455.25,-306.88 455.25,-287.62 574.75,-287.62 574.75,-306.88"/>
<text text-anchor="middle" x="515" y="-293.38" font-family="Times,serif" font-size="10.00">mal_toolkit::ByteArray::as</text>
</a>
</g>
</g>
<!-- Node2 -->
<g id="Node000002" class="node">
<title>Node2</title>
<g id="a_Node000002"><a xlink:href="../../d8/d99/structmal__toolkit_1_1_byte_array.html#a5cfb0eb753cb15a26418827f050c6f26" target="_top" xlink:title="Append a string of data to the byte array.">
<polygon fill="white" stroke="#666666" points="419.25,-601.5 312.5,-601.5 312.5,-571 419.25,-571 419.25,-601.5"/>
<text text-anchor="start" x="320.5" y="-588" font-family="Times,serif" font-size="10.00">mal_toolkit::ByteArray</text>
<text text-anchor="middle" x="365.88" y="-576.75" font-family="Times,serif" font-size="10.00">::append</text>
</a>
</g>
</g>
<!-- Node1&#45;&gt;Node2 -->
<g id="edge1_Node000001_Node000002" class="edge">
<title>Node1&#45;&gt;Node2</title>
<g id="a_edge1_Node000001_Node000002"><a xlink:title=" ">
<path fill="none" stroke="#63b8ff" d="M511.93,-317.87C506.05,-366.23 485.18,-488.32 419.25,-561.25 416.01,-564.84 412.14,-567.96 407.99,-570.66"/>
<polygon fill="#63b8ff" stroke="#63b8ff" points="515.48,-318.57 513.12,-308.24 508.53,-317.79 515.48,-318.57"/>
</a>
</g>
</g>
<!-- Node3 -->
<g id="Node000003" class="node">
<title>Node3</title>
<g id="a_Node000003"><a xlink:href="../../d8/d99/structmal__toolkit_1_1_byte_array.html#a664b8b86221273118efe7ccefe355a8d" target="_top" xlink:title="Append a string view of data to the byte array.">
<polygon fill="white" stroke="#666666" points="419.25,-552.5 312.5,-552.5 312.5,-522 419.25,-522 419.25,-552.5"/>
<text text-anchor="start" x="320.5" y="-539" font-family="Times,serif" font-size="10.00">mal_toolkit::ByteArray</text>
<text text-anchor="middle" x="365.88" y="-527.75" font-family="Times,serif" font-size="10.00">::append</text>
</a>
</g>
</g>
<!-- Node1&#45;&gt;Node3 -->
<g id="edge2_Node000001_Node000003" class="edge">
<title>Node1&#45;&gt;Node3</title>
<g id="a_edge2_Node000001_Node000003"><a xlink:title=" ">
<path fill="none" stroke="#63b8ff" d="M509.96,-317.89C500.8,-359.63 474.83,-454.96 419.25,-512.25 415.81,-515.79 411.77,-518.9 407.48,-521.6"/>
<polygon fill="#63b8ff" stroke="#63b8ff" points="513.57,-318.69 512.19,-308.18 506.72,-317.26 513.57,-318.69"/>
</a>
</g>
</g>
<!-- Node4 -->
<g id="Node000004" class="node">
<title>Node4</title>
<g id="a_Node000004"><a xlink:href="../../d8/d99/structmal__toolkit_1_1_byte_array.html#a927db3cdbfb9c6215324689996e432ad" target="_top" xlink:title="Append a span of data to the byte array.">
<polygon fill="white" stroke="#666666" points="419.25,-503.5 312.5,-503.5 312.5,-473 419.25,-473 419.25,-503.5"/>
<text text-anchor="start" x="320.5" y="-490" font-family="Times,serif" font-size="10.00">mal_toolkit::ByteArray</text>
<text text-anchor="middle" x="365.88" y="-478.75" font-family="Times,serif" font-size="10.00">::append</text>
</a>
</g>
</g>
<!-- Node1&#45;&gt;Node4 -->
<g id="edge3_Node000001_Node000004" class="edge">
<title>Node1&#45;&gt;Node4</title>
<g id="a_edge3_Node000001_Node000004"><a xlink:title=" ">
<path fill="none" stroke="#63b8ff" d="M507.12,-317.3C494.56,-351.33 464.89,-420.83 419.25,-463.25 415.49,-466.75 411.14,-469.84 406.6,-472.56"/>
<polygon fill="#63b8ff" stroke="#63b8ff" points="510.66,-318.8 510.73,-308.21 504.07,-316.45 510.66,-318.8"/>
</a>
</g>
</g>
<!-- Node5 -->
<g id="Node000005" class="node">
<title>Node5</title>
<g id="a_Node000005"><a xlink:href="../../d8/d99/structmal__toolkit_1_1_byte_array.html#a20c81017c7578d21f0704767c8e007ee" target="_top" xlink:title="Append a vector of data to the byte array.">
<polygon fill="white" stroke="#666666" points="419.25,-454.5 312.5,-454.5 312.5,-424 419.25,-424 419.25,-454.5"/>
<text text-anchor="start" x="320.5" y="-441" font-family="Times,serif" font-size="10.00">mal_toolkit::ByteArray</text>
<text text-anchor="middle" x="365.88" y="-429.75" font-family="Times,serif" font-size="10.00">::append</text>
</a>
</g>
</g>
<!-- Node1&#45;&gt;Node5 -->
<g id="edge4_Node000001_Node000005" class="edge">
<title>Node1&#45;&gt;Node5</title>
<g id="a_edge4_Node000001_Node000005"><a xlink:title=" ">
<path fill="none" stroke="#63b8ff" d="M501.65,-315.87C485.05,-339.88 453.63,-381.91 419.25,-410.25 413.31,-415.14 406.43,-419.63 399.65,-423.54"/>
<polygon fill="#63b8ff" stroke="#63b8ff" points="504.91,-318.3 507.64,-308.06 499.12,-314.36 504.91,-318.3"/>
</a>
</g>
</g>
<!-- Node6 -->
<g id="Node000006" class="node">
<title>Node6</title>
<g id="a_Node000006"><a xlink:href="../../d8/d99/structmal__toolkit_1_1_byte_array.html#a5ebdf4bd2aaee348803dcb9575c77114" target="_top" xlink:title="Append two data sources to the byte array.">
<polygon fill="white" stroke="#666666" points="271.25,-422.5 164.5,-422.5 164.5,-392 271.25,-392 271.25,-422.5"/>
<text text-anchor="start" x="172.5" y="-409" font-family="Times,serif" font-size="10.00">mal_toolkit::ByteArray</text>
<text text-anchor="middle" x="217.88" y="-397.75" font-family="Times,serif" font-size="10.00">::append</text>
</a>
</g>
</g>
<!-- Node1&#45;&gt;Node6 -->
<g id="edge5_Node000001_Node000006" class="edge">
<title>Node1&#45;&gt;Node6</title>
<g id="a_edge5_Node000001_Node000006"><a xlink:title=" ">
<path fill="none" stroke="#63b8ff" d="M493.9,-314.08C475.56,-328.62 447.13,-349.14 419.25,-361.25 371.46,-382.02 313,-394.06 271.6,-400.57"/>
<polygon fill="#63b8ff" stroke="#63b8ff" points="495.71,-316.31 501.29,-307.29 491.31,-310.87 495.71,-316.31"/>
</a>
</g>
</g>
<!-- Node7 -->
<g id="Node000007" class="node">
<title>Node7</title>
<g id="a_Node000007"><a xlink:href="../../d8/d99/structmal__toolkit_1_1_byte_array.html#aa3d43592b3a16ad73860e290f28b9ce9" target="_top" xlink:title="Append multiple data sources to the byte array.">
<polygon fill="white" stroke="#666666" points="419.25,-312.5 312.5,-312.5 312.5,-282 419.25,-282 419.25,-312.5"/>
<text text-anchor="start" x="320.5" y="-299" font-family="Times,serif" font-size="10.00">mal_toolkit::ByteArray</text>
<text text-anchor="middle" x="365.88" y="-287.75" font-family="Times,serif" font-size="10.00">::append</text>
</a>
</g>
</g>
<!-- Node1&#45;&gt;Node7 -->
<g id="edge6_Node000001_Node000007" class="edge">
<title>Node1&#45;&gt;Node7</title>
<g id="a_edge6_Node000001_Node000007"><a xlink:title=" ">
<path fill="none" stroke="#63b8ff" d="M444.23,-297.25C435.98,-297.25 427.66,-297.25 419.7,-297.25"/>
<polygon fill="#63b8ff" stroke="#63b8ff" points="444.01,-300.75 454.01,-297.25 444.01,-293.75 444.01,-300.75"/>
</a>
</g>
</g>
<!-- Node8 -->
<g id="Node000008" class="node">
<title>Node8</title>
<g id="a_Node000008"><a xlink:href="../../d8/d99/structmal__toolkit_1_1_byte_array.html#a8c530ce3db08f43b3156b92856c4acf1" target="_top" xlink:title="Create a byte array from multiple data sources.">
<polygon fill="white" stroke="#666666" points="271.25,-373.5 164.5,-373.5 164.5,-343 271.25,-343 271.25,-373.5"/>
<text text-anchor="start" x="172.5" y="-360" font-family="Times,serif" font-size="10.00">mal_toolkit::ByteArray</text>
<text text-anchor="middle" x="217.88" y="-348.75" font-family="Times,serif" font-size="10.00">::from_byte_arrays</text>
</a>
</g>
</g>
<!-- Node1&#45;&gt;Node8 -->
<g id="edge13_Node000001_Node000008" class="edge">
<title>Node1&#45;&gt;Node8</title>
<g id="a_edge13_Node000001_Node000008"><a xlink:title=" ">
<path fill="none" stroke="#63b8ff" d="M486.6,-312.23C468.13,-321.62 442.9,-333.06 419.25,-339.25 370.23,-352.07 312.46,-356.47 271.57,-357.86"/>
<polygon fill="#63b8ff" stroke="#63b8ff" points="487.86,-315 495.12,-307.28 484.63,-308.79 487.86,-315"/>
</a>
</g>
</g>
<!-- Node9 -->
<g id="Node000009" class="node">
<title>Node9</title>
<g id="a_Node000009"><a xlink:href="../../d8/d39/classmal__packet__weaver_1_1_session.html#a71ede34f71a6dc30d56d99015997caa3" target="_top" xlink:title="Asynchronously sends all packets in the queue through the network.">
<polygon fill="white" stroke="#666666" points="267.5,-265.5 168.25,-265.5 168.25,-235 267.5,-235 267.5,-265.5"/>
<text text-anchor="start" x="176.25" y="-252" font-family="Times,serif" font-size="10.00">mal_packet_weaver::</text>
<text text-anchor="middle" x="217.88" y="-240.75" font-family="Times,serif" font-size="10.00">Session::send_all</text>
</a>
</g>
</g>
<!-- Node1&#45;&gt;Node9 -->
<g id="edge17_Node000001_Node000009" class="edge">
<title>Node1&#45;&gt;Node9</title>
<g id="a_edge17_Node000001_Node000009"><a xlink:title=" ">
<path fill="none" stroke="#63b8ff" d="M468.73,-284.47C453.15,-280.42 435.52,-276.23 419.25,-273.25 367.93,-263.85 308.47,-257.6 267.73,-254.02"/>
<polygon fill="#63b8ff" stroke="#63b8ff" points="467.59,-288.05 478.15,-287.23 469.38,-281.29 467.59,-288.05"/>
</a>
</g>
</g>
<!-- Node12 -->
<g id="Node000012" class="node">
<title>Node12</title>
<g id="a_Node000012"><a xlink:href="../../d8/d99/structmal__toolkit_1_1_byte_array.html#a34acebd668907be75b830deb912e684d" target="_top" xlink:title="Create a byte array from an integral value.">
<polygon fill="white" stroke="#666666" points="419.25,-177.5 312.5,-177.5 312.5,-147 419.25,-147 419.25,-177.5"/>
<text text-anchor="start" x="320.5" y="-164" font-family="Times,serif" font-size="10.00">mal_toolkit::ByteArray</text>
<text text-anchor="middle" x="365.88" y="-152.75" font-family="Times,serif" font-size="10.00">::from_integral</text>
</a>
</g>
</g>
<!-- Node1&#45;&gt;Node12 -->
<g id="edge14_Node000001_Node000012" class="edge">
<title>Node1&#45;&gt;Node12</title>
<g id="a_edge14_Node000001_Node000012"><a xlink:title=" ">
<path fill="none" stroke="#63b8ff" d="M501.32,-278.15C484.76,-254.36 453.77,-213.63 419.25,-187.25 414.77,-183.82 409.74,-180.7 404.62,-177.91"/>
<polygon fill="#63b8ff" stroke="#63b8ff" points="498.98,-279.93 507.51,-286.22 504.77,-275.99 498.98,-279.93"/>
</a>
</g>
</g>
<!-- Node13 -->
<g id="Node000013" class="node">
<title>Node13</title>
<g id="a_Node000013"><a xlink:href="../../df/df5/namespacemal__toolkit.html#a87426557f3158835d5c92013409e09a3" target="_top" xlink:title="Convert an integer value of the specified type to a ByteArray.">
<polygon fill="white" stroke="#666666" points="412.5,-128.5 319.25,-128.5 319.25,-98 412.5,-98 412.5,-128.5"/>
<text text-anchor="start" x="327.25" y="-115" font-family="Times,serif" font-size="10.00">mal_toolkit::integer</text>
<text text-anchor="middle" x="365.88" y="-103.75" font-family="Times,serif" font-size="10.00">_to_bytes</text>
</a>
</g>
</g>
<!-- Node1&#45;&gt;Node13 -->
<g id="edge15_Node000001_Node000013" class="edge">
<title>Node1&#45;&gt;Node13</title>
<g id="a_edge15_Node000001_Node000013"><a xlink:title=" ">
<path fill="none" stroke="#63b8ff" d="M506.54,-277.15C493.44,-244.25 463.43,-178.54 419.25,-138.25 415.38,-134.72 410.92,-131.59 406.27,-128.85"/>
<polygon fill="#63b8ff" stroke="#63b8ff" points="503.6,-278.26 510.46,-286.33 510.13,-275.74 503.6,-278.26"/>
</a>
</g>
</g>
<!-- Node14 -->
<g id="Node000014" class="node">
<title>Node14</title>
<g id="a_Node000014"><a xlink:href="../../d8/d39/classmal__packet__weaver_1_1_session.html#a24333663993df453bafeeaed060b777a" target="_top" xlink:title=" ">
<polygon fill="white" stroke="#666666" points="418.88,-79.5 312.88,-79.5 312.88,-49 418.88,-49 418.88,-79.5"/>
<text text-anchor="start" x="320.88" y="-66" font-family="Times,serif" font-size="10.00">mal_packet_weaver::</text>
<text text-anchor="middle" x="365.88" y="-54.75" font-family="Times,serif" font-size="10.00">Session::read_bytes_to</text>
</a>
</g>
</g>
<!-- Node1&#45;&gt;Node14 -->
<g id="edge16_Node000001_Node000014" class="edge">
<title>Node1&#45;&gt;Node14</title>
<g id="a_edge16_Node000001_Node000014"><a xlink:title=" ">
<path fill="none" stroke="#63b8ff" d="M509.63,-276.71C500,-236.03 473.41,-144.39 419.25,-89.25 415.79,-85.73 411.74,-82.64 407.44,-79.94"/>
<polygon fill="#63b8ff" stroke="#63b8ff" points="506.38,-277.2 511.99,-286.18 513.2,-275.66 506.38,-277.2"/>
</a>
</g>
</g>
<!-- Node15 -->
<g id="Node000015" class="node">
<title>Node15</title>
<g id="a_Node000015"><a xlink:href="../../d8/d99/structmal__toolkit_1_1_byte_array.html#a36dcef7b7965fa3ac6ffc4de36800b76" target="_top" xlink:title="Create a ByteView of a subsequence of the byte array.">
<polygon fill="white" stroke="#666666" points="419.25,-30.5 312.5,-30.5 312.5,0 419.25,0 419.25,-30.5"/>
<text text-anchor="start" x="320.5" y="-17" font-family="Times,serif" font-size="10.00">mal_toolkit::ByteArray</text>
<text text-anchor="middle" x="365.88" y="-5.75" font-family="Times,serif" font-size="10.00">::view</text>
</a>
</g>
</g>
<!-- Node1&#45;&gt;Node15 -->
<g id="edge18_Node000001_Node000015" class="edge">
<title>Node1&#45;&gt;Node15</title>
<g id="a_edge18_Node000001_Node000015"><a xlink:title=" ">
<path fill="none" stroke="#63b8ff" d="M511.68,-276.54C505.33,-229.03 483.65,-110.88 419.25,-40.25 415.99,-36.68 412.11,-33.56 407.96,-30.87"/>
<polygon fill="#63b8ff" stroke="#63b8ff" points="508.3,-276.77 513,-286.26 515.25,-275.91 508.3,-276.77"/>
</a>
</g>
</g>
<!-- Node16 -->
<g id="Node000016" class="node">
<title>Node16</title>
<g id="a_Node000016"><a xlink:href="../../d8/d99/structmal__toolkit_1_1_byte_array.html#a33b603234734c1cdddee3fb854988181" target="_top" xlink:title="Create a ByteView of a subsequence of the byte array.">
<polygon fill="white" stroke="#666666" points="419.25,-226.5 312.5,-226.5 312.5,-196 419.25,-196 419.25,-226.5"/>
<text text-anchor="start" x="320.5" y="-213" font-family="Times,serif" font-size="10.00">mal_toolkit::ByteArray</text>
<text text-anchor="middle" x="365.88" y="-201.75" font-family="Times,serif" font-size="10.00">::view</text>
</a>
</g>
</g>
<!-- Node1&#45;&gt;Node16 -->
<g id="edge19_Node000001_Node000016" class="edge">
<title>Node1&#45;&gt;Node16</title>
<g id="a_edge19_Node000001_Node000016"><a xlink:title=" ">
<path fill="none" stroke="#63b8ff" d="M488.5,-281.57C469.51,-269.98 442.89,-253.9 419.25,-240.25 411.6,-235.83 403.25,-231.15 395.52,-226.87"/>
<polygon fill="#63b8ff" stroke="#63b8ff" points="486.32,-284.95 496.67,-287.18 489.97,-278.98 486.32,-284.95"/>
</a>
</g>
</g>
<!-- Node7&#45;&gt;Node6 -->
<g id="edge7_Node000007_Node000006" class="edge">
<title>Node7&#45;&gt;Node6</title>
<g id="a_edge7_Node000007_Node000006"><a xlink:title=" ">
<path fill="none" stroke="#63b8ff" d="M344.76,-320.76C327.96,-339.3 302.62,-364.85 276.5,-382.25 271.42,-385.64 265.8,-388.74 260.13,-391.51"/>
<polygon fill="#63b8ff" stroke="#63b8ff" points="346.82,-323.59 350.85,-313.79 341.59,-318.94 346.82,-323.59"/>
</a>
</g>
</g>
<!-- Node7&#45;&gt;Node7 -->
<g id="edge8_Node000007_Node000007" class="edge">
<title>Node7&#45;&gt;Node7</title>
<g id="a_edge8_Node000007_Node000007"><a xlink:title=" ">
<path fill="none" stroke="#63b8ff" d="M391.03,-323.88C387.11,-327.83 378.72,-330.5 365.88,-330.5 343.04,-330.5 334.3,-322.06 339.65,-312.99"/>
<polygon fill="#63b8ff" stroke="#63b8ff" points="394.61,-324.28 392.1,-313.99 387.64,-323.6 394.61,-324.28"/>
</a>
</g>
</g>
<!-- Node7&#45;&gt;Node8 -->
<g id="edge9_Node000007_Node000008" class="edge">
<title>Node7&#45;&gt;Node8</title>
<g id="a_edge9_Node000007_Node000008"><a xlink:title=" ">
<path fill="none" stroke="#63b8ff" d="M317.58,-317.07C304.29,-322.63 289.83,-328.68 276.5,-334.25 270.1,-336.92 263.3,-339.76 256.7,-342.51"/>
<polygon fill="#63b8ff" stroke="#63b8ff" points="318.6,-320.02 326.47,-312.93 315.89,-313.56 318.6,-320.02"/>
</a>
</g>
</g>
<!-- Node7&#45;&gt;Node9 -->
<g id="edge10_Node000007_Node000009" class="edge">
<title>Node7&#45;&gt;Node9</title>
<g id="a_edge10_Node000007_Node000009"><a xlink:title=" ">
<path fill="none" stroke="#63b8ff" d="M305.82,-278.24C293.19,-274.17 279.98,-269.92 267.78,-265.99"/>
<polygon fill="#63b8ff" stroke="#63b8ff" points="304.67,-281.87 315.26,-281.6 306.81,-275.2 304.67,-281.87"/>
</a>
</g>
</g>
<!-- Node11 -->
<g id="Node000011" class="node">
<title>Node11</title>
<g id="a_Node000011"><a xlink:href="../../dd/d2b/classmal__packet__weaver_1_1_derived_packet.html#acc2b05e779546c118d6fbb5a18499aa5" target="_top" xlink:title="Serialize the derived packet data into a ByteArray.">
<polygon fill="white" stroke="#666666" points="273.88,-325.12 161.88,-325.12 161.88,-283.38 273.88,-283.38 273.88,-325.12"/>
<text text-anchor="start" x="169.88" y="-311.62" font-family="Times,serif" font-size="10.00">mal_packet_weaver::</text>
<text text-anchor="start" x="169.88" y="-300.38" font-family="Times,serif" font-size="10.00">DerivedPacket::serialize</text>
<text text-anchor="middle" x="217.88" y="-289.12" font-family="Times,serif" font-size="10.00">_to_bytearray</text>
</a>
</g>
</g>
<!-- Node7&#45;&gt;Node11 -->
<g id="edge12_Node000007_Node000011" class="edge">
<title>Node7&#45;&gt;Node11</title>
<g id="a_edge12_Node000007_Node000011"><a xlink:title=" ">
<path fill="none" stroke="#63b8ff" d="M301.22,-300.3C292.14,-300.74 282.87,-301.18 273.97,-301.61"/>
<polygon fill="#63b8ff" stroke="#63b8ff" points="301.34,-303.75 311.17,-299.78 301.01,-296.76 301.34,-303.75"/>
</a>
</g>
</g>
<!-- Node10 -->
<g id="Node000010" class="node">
<title>Node10</title>
<g id="a_Node000010"><a xlink:href="../../d8/d39/classmal__packet__weaver_1_1_session.html#a5cf271c70d7ec610cfb01d0ed8655693" target="_top" xlink:title="Constructor for the Session class.">
<polygon fill="white" stroke="#666666" points="111.25,-238.5 12,-238.5 12,-208 111.25,-208 111.25,-238.5"/>
<text text-anchor="start" x="20" y="-225" font-family="Times,serif" font-size="10.00">mal_packet_weaver::</text>
<text text-anchor="middle" x="61.62" y="-213.75" font-family="Times,serif" font-size="10.00">Session::Session</text>
</a>
</g>
</g>
<!-- Node9&#45;&gt;Node10 -->
<g id="edge11_Node000009_Node000010" class="edge">
<title>Node9&#45;&gt;Node10</title>
<g id="a_edge11_Node000009_Node000010"><a xlink:title=" ">
<path fill="none" stroke="#63b8ff" d="M157.28,-239.82C142.19,-237.18 126.15,-234.37 111.64,-231.83"/>
<polygon fill="#63b8ff" stroke="#63b8ff" points="156.62,-243.43 167.07,-241.71 157.82,-236.54 156.62,-243.43"/>
</a>
</g>
</g>
<!-- Node17 -->
<g id="Node000017" class="node">
<title>Node17</title>
<g id="a_Node000017"><a xlink:href="../../d8/d39/classmal__packet__weaver_1_1_session.html#a95349691831542cec27090d0ab21ca88" target="_top" xlink:title="Asynchronously receives and processes incoming packets from the network.">
<polygon fill="white" stroke="#666666" points="269.38,-217.12 166.38,-217.12 166.38,-175.38 269.38,-175.38 269.38,-217.12"/>
<text text-anchor="start" x="174.38" y="-203.62" font-family="Times,serif" font-size="10.00">mal_packet_weaver::</text>
<text text-anchor="start" x="174.38" y="-192.38" font-family="Times,serif" font-size="10.00">Session::async_packet</text>
<text text-anchor="middle" x="217.88" y="-181.12" font-family="Times,serif" font-size="10.00">_sender</text>
</a>
</g>
</g>
<!-- Node16&#45;&gt;Node17 -->
<g id="edge20_Node000016_Node000017" class="edge">
<title>Node16&#45;&gt;Node17</title>
<g id="a_edge20_Node000016_Node000017"><a xlink:title=" ">
<path fill="none" stroke="#63b8ff" d="M301.25,-204.71C290.65,-203.62 279.78,-202.51 269.55,-201.46"/>
<polygon fill="#63b8ff" stroke="#63b8ff" points="300.86,-208.29 311.17,-205.83 301.58,-201.33 300.86,-208.29"/>
</a>
</g>
</g>
<!-- Node18 -->
<g id="Node000018" class="node">
<title>Node18</title>
<g id="a_Node000018"><a xlink:href="../../d8/d39/classmal__packet__weaver_1_1_session.html#a3b221a320f0fe93e2f463a52f9eab2a0" target="_top" xlink:title="Returns the earliest acquired packet. If packet queue is empty, returns nullptr.">
<polygon fill="white" stroke="#666666" points="276.5,-157.5 159.25,-157.5 159.25,-127 276.5,-127 276.5,-157.5"/>
<text text-anchor="start" x="167.25" y="-144" font-family="Times,serif" font-size="10.00">mal_packet_weaver::</text>
<text text-anchor="middle" x="217.88" y="-132.75" font-family="Times,serif" font-size="10.00">Session::pop_packet_now</text>
</a>
</g>
</g>
<!-- Node16&#45;&gt;Node18 -->
<g id="edge22_Node000016_Node000018" class="edge">
<title>Node16&#45;&gt;Node18</title>
<g id="a_edge22_Node000016_Node000018"><a xlink:title=" ">
<path fill="none" stroke="#63b8ff" d="M321.46,-190.78C318.42,-189.27 315.41,-187.75 312.5,-186.25 296.23,-177.86 292.97,-174.23 276.5,-166.25 270.65,-163.42 264.37,-160.59 258.2,-157.93"/>
<polygon fill="#63b8ff" stroke="#63b8ff" points="319.67,-194.3 330.2,-195.55 322.75,-188.01 319.67,-194.3"/>
</a>
</g>
</g>
<!-- Node17&#45;&gt;Node10 -->
<g id="edge21_Node000017_Node000010" class="edge">
<title>Node17&#45;&gt;Node10</title>
<g id="a_edge21_Node000017_Node000010"><a xlink:title=" ">
<path fill="none" stroke="#63b8ff" d="M155.51,-206.99C140.95,-209.54 125.6,-212.23 111.67,-214.66"/>
<polygon fill="#63b8ff" stroke="#63b8ff" points="155.69,-210.34 164.94,-205.17 154.49,-203.44 155.69,-210.34"/>
</a>
</g>
</g>
<!-- Node19 -->
<g id="Node000019" class="node">
<title>Node19</title>
<g id="a_Node000019"><a xlink:href="../../d8/d39/classmal__packet__weaver_1_1_session.html#a961d49d84fb1426fc605c529df1296d1" target="_top" xlink:title=" ">
<polygon fill="white" stroke="#666666" points="123.25,-157.5 0,-157.5 0,-127 123.25,-127 123.25,-157.5"/>
<text text-anchor="start" x="8" y="-144" font-family="Times,serif" font-size="10.00">mal_packet_weaver::</text>
<text text-anchor="middle" x="61.62" y="-132.75" font-family="Times,serif" font-size="10.00">Session::pop_packet_async</text>
</a>
</g>
</g>
<!-- Node18&#45;&gt;Node19 -->
<g id="edge23_Node000018_Node000019" class="edge">
<title>Node18&#45;&gt;Node19</title>
<g id="a_edge23_Node000018_Node000019"><a xlink:title=" ">
<path fill="none" stroke="#63b8ff" d="M148.03,-142.25C139.91,-142.25 131.67,-142.25 123.66,-142.25"/>
<polygon fill="#63b8ff" stroke="#63b8ff" points="148,-145.75 158,-142.25 148,-138.75 148,-145.75"/>
</a>
</g>
</g>
</g>
</svg>
