<?xml version="1.0" encoding="UTF-8" standalone="no"?>
<!DOCTYPE svg PUBLIC "-//W3C//DTD SVG 1.1//EN"
 "http://www.w3.org/Graphics/SVG/1.1/DTD/svg11.dtd">
<!-- Generated by graphviz version 9.0.0 (20230911.1827)
 -->
<!-- Title: mal_toolkit::ByteArray::append Pages: 1 -->
<svg width="413pt" height="79pt"
 viewBox="0.00 0.00 413.00 78.50" xmlns="http://www.w3.org/2000/svg" xmlns:xlink="http://www.w3.org/1999/xlink">

<svg id="main" version="1.1" xmlns="http://www.w3.org/2000/svg" xmlns:xlink="http://www.w3.org/1999/xlink" xml:space="preserve" onload="init(evt)">
<style type="text/css"><![CDATA[
.node, .edge {opacity: 0.7;}
.node.selected, .edge.selected {opacity: 1;}
.edge:hover path { stroke: red; }
.edge:hover polygon { stroke: red; fill: red; }
]]></style>
<script type="application/ecmascript" xlink:href="../../svg.min.js"/>
<svg id="graph" class="graph">
<g id="graph0" class="graph" transform="scale(1 1) rotate(0) translate(4 74.5)">
<title>mal_toolkit::ByteArray::append</title>
<!-- Node1 -->
<g id="Node000001" class="node">
<title>Node1</title>
<g id="a_Node000001"><a xlink:title="Append two data sources to the byte array.">
<polygon fill="#999999" stroke="#666666" points="106.75,-30.5 0,-30.5 0,0 106.75,0 106.75,-30.5"/>
<text text-anchor="start" x="8" y="-17" font-family="Times,serif" font-size="10.00">mal_toolkit::ByteArray</text>
<text text-anchor="middle" x="53.38" y="-5.75" font-family="Times,serif" font-size="10.00">::append</text>
</a>
</g>
</g>
<!-- Node2 -->
<g id="Node000002" class="node">
<title>Node2</title>
<g id="a_Node000002"><a xlink:href="../../d8/d99/structmal__toolkit_1_1_byte_array.html#aeee7ab5aa07bb08377a74f42375b59c8" target="_top" xlink:title="Append multiple data sources to the byte array.">
<polygon fill="white" stroke="#666666" points="249.5,-52.5 142.75,-52.5 142.75,-22 249.5,-22 249.5,-52.5"/>
<text text-anchor="start" x="150.75" y="-39" font-family="Times,serif" font-size="10.00">mal_toolkit::ByteArray</text>
<text text-anchor="middle" x="196.12" y="-27.75" font-family="Times,serif" font-size="10.00">::append</text>
</a>
</g>
</g>
<!-- Node1&#45;&gt;Node2 -->
<g id="edge1_Node000001_Node000002" class="edge">
<title>Node1&#45;&gt;Node2</title>
<g id="a_edge1_Node000001_Node000002"><a xlink:title=" ">
<path fill="none" stroke="#63b8ff" d="M107.19,-23.5C115.03,-24.73 123.19,-26.01 131.23,-27.26"/>
<polygon fill="#63b8ff" stroke="#63b8ff" points="130.57,-30.7 140.99,-28.79 131.65,-23.79 130.57,-30.7"/>
</a>
</g>
</g>
<!-- Node3 -->
<g id="Node000003" class="node">
<title>Node3</title>
<g id="a_Node000003"><a xlink:href="../../d8/d99/structmal__toolkit_1_1_byte_array.html#ab23437254557962a474e4ba7c5e25fe4" target="_top" xlink:title="Convert the ByteArray to a typed pointer.">
<polygon fill="white" stroke="#666666" points="405,-24.88 285.5,-24.88 285.5,-5.63 405,-5.63 405,-24.88"/>
<text text-anchor="middle" x="345.25" y="-11.38" font-family="Times,serif" font-size="10.00">mal_toolkit::ByteArray::as</text>
</a>
</g>
</g>
<!-- Node1&#45;&gt;Node3 -->
<g id="edge4_Node000001_Node000003" class="edge">
<title>Node1&#45;&gt;Node3</title>
<g id="a_edge4_Node000001_Node000003"><a xlink:title=" ">
<path fill="none" stroke="#63b8ff" d="M107.18,-13.86C118.89,-13.61 131.24,-13.38 142.75,-13.25 190.19,-12.71 202.06,-12.75 249.5,-13.25 257.33,-13.33 265.52,-13.45 273.67,-13.6"/>
<polygon fill="#63b8ff" stroke="#63b8ff" points="273.54,-17.09 283.6,-13.78 273.67,-10.1 273.54,-17.09"/>
</a>
</g>
</g>
<!-- Node2&#45;&gt;Node2 -->
<g id="edge2_Node000002_Node000002" class="edge">
<title>Node2&#45;&gt;Node2</title>
<g id="a_edge2_Node000002_Node000002"><a xlink:title=" ">
<path fill="none" stroke="#63b8ff" d="M170.83,-52.99C165.67,-62.06 174.1,-70.5 196.12,-70.5 208.17,-70.5 216.15,-67.97 220.06,-64.2"/>
<polygon fill="#63b8ff" stroke="#63b8ff" points="223.51,-64.84 221.24,-54.49 216.56,-64 223.51,-64.84"/>
</a>
</g>
</g>
<!-- Node2&#45;&gt;Node3 -->
<g id="edge3_Node000002_Node000003" class="edge">
<title>Node2&#45;&gt;Node3</title>
<g id="a_edge3_Node000002_Node000003"><a xlink:title=" ">
<path fill="none" stroke="#63b8ff" d="M249.82,-29.37C257.61,-28.2 265.74,-26.99 273.82,-25.78"/>
<polygon fill="#63b8ff" stroke="#63b8ff" points="274.3,-29.25 283.68,-24.31 273.27,-22.33 274.3,-29.25"/>
</a>
</g>
</g>
</g>
</svg>
</svg>

<style type='text/css'>
<![CDATA[
[data-mouse-over-selected='false'] { opacity: 0.7; }
[data-mouse-over-selected='true']  { opacity: 1.0; }
]]>
</style>
<script type="application/ecmascript"><![CDATA[
document.addEventListener('DOMContentLoaded', (event) => {
  highlightEdges();
  highlightAdjacentNodes();
});
]]></script>
</svg>
