<?xml version="1.0" encoding="UTF-8" standalone="no"?>
<!DOCTYPE svg PUBLIC "-//W3C//DTD SVG 1.1//EN"
 "http://www.w3.org/Graphics/SVG/1.1/DTD/svg11.dtd">
<!-- Generated by graphviz version 11.0.0 (20240428.1522)
 -->
<!-- Title: mal_toolkit::ByteArray::append Pages: 1 -->
<svg width="398pt" height="196pt"
 viewBox="0.00 0.00 398.00 196.12" xmlns="http://www.w3.org/2000/svg" xmlns:xlink="http://www.w3.org/1999/xlink">

<svg id="main" version="1.1" xmlns="http://www.w3.org/2000/svg" xmlns:xlink="http://www.w3.org/1999/xlink" xml:space="preserve" onload="init(evt)">
<style type="text/css"><![CDATA[
.node, .edge {opacity: 0.7;}
.node.selected, .edge.selected {opacity: 1;}
.edge:hover path { stroke: red; }
.edge:hover polygon { stroke: red; fill: red; }
]]></style>
<script type="application/ecmascript" xlink:href="../../svg.min.js"/>
<svg id="graph" class="graph">
<g id="graph0" class="graph" transform="scale(1 1) rotate(0) translate(4 192.12)">
<title>mal_toolkit::ByteArray::append</title>
<!-- Node1 -->
<g id="Node000001" class="node">
<title>Node1</title>
<g id="a_Node000001"><a xlink:title="Append multiple data sources to the byte array.">
<polygon fill="#999999" stroke="#666666" points="390,-114.12 283.25,-114.12 283.25,-83.62 390,-83.62 390,-114.12"/>
<text text-anchor="start" x="291.25" y="-100.62" font-family="Times,serif" font-size="10.00">mal_toolkit::ByteArray</text>
<text text-anchor="middle" x="336.62" y="-89.38" font-family="Times,serif" font-size="10.00">::append</text>
</a>
</g>
</g>
<!-- Node1&#45;&gt;Node1 -->
<g id="edge2_Node000001_Node000001" class="edge">
<title>Node1&#45;&gt;Node1</title>
<g id="a_edge2_Node000001_Node000001"><a xlink:title=" ">
<path fill="none" stroke="#63b8ff" d="M361,-125.83C357.02,-129.6 348.89,-132.12 336.62,-132.12 314.19,-132.12 305.61,-123.68 310.86,-114.61"/>
<polygon fill="#63b8ff" stroke="#63b8ff" points="364.45,-126.47 362.2,-116.11 357.5,-125.61 364.45,-126.47"/>
</a>
</g>
</g>
<!-- Node2 -->
<g id="Node000002" class="node">
<title>Node2</title>
<g id="a_Node000002"><a xlink:href="../../d8/d99/structmal__toolkit_1_1_byte_array.html#a80e7b96acf842e60ac6874629762f0cf" target="_top" xlink:title="Append two data sources to the byte array.">
<polygon fill="white" stroke="#666666" points="244.62,-188.12 137.88,-188.12 137.88,-157.62 244.62,-157.62 244.62,-188.12"/>
<text text-anchor="start" x="145.88" y="-174.62" font-family="Times,serif" font-size="10.00">mal_toolkit::ByteArray</text>
<text text-anchor="middle" x="191.25" y="-163.38" font-family="Times,serif" font-size="10.00">::append</text>
</a>
</g>
</g>
<!-- Node1&#45;&gt;Node2 -->
<g id="edge1_Node000001_Node000002" class="edge">
<title>Node1&#45;&gt;Node2</title>
<g id="a_edge1_Node000001_Node000002"><a xlink:title=" ">
<path fill="none" stroke="#63b8ff" d="M298.96,-120.06C283.2,-128.94 264.47,-139.2 247.25,-147.88 241.07,-150.99 234.42,-154.16 227.95,-157.15"/>
<polygon fill="#63b8ff" stroke="#63b8ff" points="300.56,-123.18 307.53,-115.2 297.11,-117.09 300.56,-123.18"/>
</a>
</g>
</g>
<!-- Node3 -->
<g id="Node000003" class="node">
<title>Node3</title>
<g id="a_Node000003"><a xlink:href="../../d8/d99/structmal__toolkit_1_1_byte_array.html#a8c530ce3db08f43b3156b92856c4acf1" target="_top" xlink:title="Create a byte array from multiple data sources.">
<polygon fill="white" stroke="#666666" points="244.62,-139.12 137.88,-139.12 137.88,-108.62 244.62,-108.62 244.62,-139.12"/>
<text text-anchor="start" x="145.88" y="-125.62" font-family="Times,serif" font-size="10.00">mal_toolkit::ByteArray</text>
<text text-anchor="middle" x="191.25" y="-114.38" font-family="Times,serif" font-size="10.00">::from_byte_arrays</text>
</a>
</g>
</g>
<!-- Node1&#45;&gt;Node3 -->
<g id="edge3_Node000001_Node000003" class="edge">
<title>Node1&#45;&gt;Node3</title>
<g id="a_edge3_Node000001_Node000003"><a xlink:title=" ">
<path fill="none" stroke="#63b8ff" d="M271.77,-110.01C262.76,-111.58 253.58,-113.18 244.82,-114.71"/>
<polygon fill="#63b8ff" stroke="#63b8ff" points="272.31,-113.47 281.56,-108.3 271.11,-106.57 272.31,-113.47"/>
</a>
</g>
</g>
<!-- Node4 -->
<g id="Node000004" class="node">
<title>Node4</title>
<g id="a_Node000004"><a xlink:href="../../d8/d39/classmal__packet__weaver_1_1_session.html#a71ede34f71a6dc30d56d99015997caa3" target="_top" xlink:title="Asynchronously sends all packets in the queue through the network.">
<polygon fill="white" stroke="#666666" points="240.88,-90.12 141.62,-90.12 141.62,-59.62 240.88,-59.62 240.88,-90.12"/>
<text text-anchor="start" x="149.62" y="-76.62" font-family="Times,serif" font-size="10.00">mal_packet_weaver::</text>
<text text-anchor="middle" x="191.25" y="-65.38" font-family="Times,serif" font-size="10.00">Session::send_all</text>
</a>
</g>
</g>
<!-- Node1&#45;&gt;Node4 -->
<g id="edge4_Node000001_Node000004" class="edge">
<title>Node1&#45;&gt;Node4</title>
<g id="a_edge4_Node000001_Node000004"><a xlink:title=" ">
<path fill="none" stroke="#63b8ff" d="M271.93,-88.21C261.55,-86.48 250.95,-84.7 241.01,-83.04"/>
<polygon fill="#63b8ff" stroke="#63b8ff" points="271.12,-91.63 281.56,-89.82 272.27,-84.72 271.12,-91.63"/>
</a>
</g>
</g>
<!-- Node6 -->
<g id="Node000006" class="node">
<title>Node6</title>
<g id="a_Node000006"><a xlink:href="../../dd/d2b/classmal__packet__weaver_1_1_derived_packet.html#acc2b05e779546c118d6fbb5a18499aa5" target="_top" xlink:title="Serialize the derived packet data into a ByteArray.">
<polygon fill="white" stroke="#666666" points="247.25,-41.75 135.25,-41.75 135.25,0 247.25,0 247.25,-41.75"/>
<text text-anchor="start" x="143.25" y="-28.25" font-family="Times,serif" font-size="10.00">mal_packet_weaver::</text>
<text text-anchor="start" x="143.25" y="-17" font-family="Times,serif" font-size="10.00">DerivedPacket::serialize</text>
<text text-anchor="middle" x="191.25" y="-5.75" font-family="Times,serif" font-size="10.00">_to_bytearray</text>
</a>
</g>
</g>
<!-- Node1&#45;&gt;Node6 -->
<g id="edge6_Node000001_Node000006" class="edge">
<title>Node1&#45;&gt;Node6</title>
<g id="a_edge6_Node000001_Node000006"><a xlink:title=" ">
<path fill="none" stroke="#63b8ff" d="M297.09,-77.91C276.76,-66.85 251.88,-53.32 231.46,-42.21"/>
<polygon fill="#63b8ff" stroke="#63b8ff" points="295.17,-80.85 305.63,-82.55 298.51,-74.7 295.17,-80.85"/>
</a>
</g>
</g>
<!-- Node5 -->
<g id="Node000005" class="node">
<title>Node5</title>
<g id="a_Node000005"><a xlink:href="../../d8/d39/classmal__packet__weaver_1_1_session.html#a5cf271c70d7ec610cfb01d0ed8655693" target="_top" xlink:title="Constructor for the Session class.">
<polygon fill="white" stroke="#666666" points="99.25,-90.12 0,-90.12 0,-59.62 99.25,-59.62 99.25,-90.12"/>
<text text-anchor="start" x="8" y="-76.62" font-family="Times,serif" font-size="10.00">mal_packet_weaver::</text>
<text text-anchor="middle" x="49.62" y="-65.38" font-family="Times,serif" font-size="10.00">Session::Session</text>
</a>
</g>
</g>
<!-- Node4&#45;&gt;Node5 -->
<g id="edge5_Node000004_Node000005" class="edge">
<title>Node4&#45;&gt;Node5</title>
<g id="a_edge5_Node000004_Node000005"><a xlink:title=" ">
<path fill="none" stroke="#63b8ff" d="M130.11,-74.88C119.95,-74.88 109.5,-74.88 99.67,-74.88"/>
<polygon fill="#63b8ff" stroke="#63b8ff" points="129.9,-78.38 139.9,-74.88 129.9,-71.38 129.9,-78.38"/>
</a>
</g>
</g>
</g>
</svg>
</svg>

<style type='text/css'>
<![CDATA[
[data-mouse-over-selected='false'] { opacity: 0.7; }
[data-mouse-over-selected='true']  { opacity: 1.0; }
]]>
</style>
<script type="application/ecmascript"><![CDATA[
document.addEventListener('DOMContentLoaded', (event) => {
  highlightEdges();
  highlightAdjacentNodes();
});
]]></script>
</svg>
