<?xml version="1.0" encoding="UTF-8" standalone="no"?>
<!DOCTYPE svg PUBLIC "-//W3C//DTD SVG 1.1//EN"
 "http://www.w3.org/Graphics/SVG/1.1/DTD/svg11.dtd">
<!-- Generated by graphviz version 8.1.0 (20230707.0739)
 -->
<!-- Title: mal_toolkit::ByteArray::append Pages: 1 -->
<svg width="398pt" height="186pt"
 viewBox="0.00 0.00 398.00 185.50" xmlns="http://www.w3.org/2000/svg" xmlns:xlink="http://www.w3.org/1999/xlink">

<svg id="main" version="1.1" xmlns="http://www.w3.org/2000/svg" xmlns:xlink="http://www.w3.org/1999/xlink" xml:space="preserve" onload="init(evt)">
<style type="text/css"><![CDATA[
.node, .edge {opacity: 0.7;}
.node.selected, .edge.selected {opacity: 1;}
.edge:hover path { stroke: red; }
.edge:hover polygon { stroke: red; fill: red; }
]]></style>
<script type="application/ecmascript" xlink:href="../../svg.min.js"/>
<svg id="graph" class="graph">
<g id="graph0" class="graph" transform="scale(1 1) rotate(0) translate(4 181.5)">
<title>mal_toolkit::ByteArray::append</title>
<!-- Node1 -->
<g id="Node000001" class="node">
<title>Node1</title>
<g id="a_Node000001"><a xlink:title="Append multiple data sources to the byte array.">
<polygon fill="#999999" stroke="#666666" points="390,-103.5 283.25,-103.5 283.25,-73 390,-73 390,-103.5"/>
<text text-anchor="start" x="291.25" y="-90" font-family="Times,serif" font-size="10.00">mal_toolkit::ByteArray</text>
<text text-anchor="middle" x="336.62" y="-78.75" font-family="Times,serif" font-size="10.00">::append</text>
</a>
</g>
</g>
<!-- Node1&#45;&gt;Node1 -->
<g id="edge2_Node000001_Node000001" class="edge">
<title>Node1&#45;&gt;Node1</title>
<g id="a_edge2_Node000001_Node000001"><a xlink:title=" ">
<path fill="none" stroke="#63b8ff" d="M361.34,-114.88C357.48,-118.83 349.24,-121.5 336.62,-121.5 314.19,-121.5 305.61,-113.06 310.86,-103.99"/>
<polygon fill="#63b8ff" stroke="#63b8ff" points="364.91,-115.28 362.39,-104.99 357.94,-114.6 364.91,-115.28"/>
</a>
</g>
</g>
<!-- Node2 -->
<g id="Node000002" class="node">
<title>Node2</title>
<g id="a_Node000002"><a xlink:href="../../d8/d99/structmal__toolkit_1_1_byte_array.html#a5ebdf4bd2aaee348803dcb9575c77114" target="_top" xlink:title="Append two data sources to the byte array.">
<polygon fill="white" stroke="#666666" points="244.62,-177.5 137.88,-177.5 137.88,-147 244.62,-147 244.62,-177.5"/>
<text text-anchor="start" x="145.88" y="-164" font-family="Times,serif" font-size="10.00">mal_toolkit::ByteArray</text>
<text text-anchor="middle" x="191.25" y="-152.75" font-family="Times,serif" font-size="10.00">::append</text>
</a>
</g>
</g>
<!-- Node1&#45;&gt;Node2 -->
<g id="edge1_Node000001_Node000002" class="edge">
<title>Node1&#45;&gt;Node2</title>
<g id="a_edge1_Node000001_Node000002"><a xlink:title=" ">
<path fill="none" stroke="#63b8ff" d="M299.41,-109.18C283.56,-118.12 264.64,-128.5 247.25,-137.25 241.07,-140.36 234.42,-143.53 227.95,-146.52"/>
<polygon fill="#63b8ff" stroke="#63b8ff" points="300.88,-111.81 307.85,-103.83 297.42,-105.72 300.88,-111.81"/>
</a>
</g>
</g>
<!-- Node3 -->
<g id="Node000003" class="node">
<title>Node3</title>
<g id="a_Node000003"><a xlink:href="../../d8/d99/structmal__toolkit_1_1_byte_array.html#a8c530ce3db08f43b3156b92856c4acf1" target="_top" xlink:title="Create a byte array from multiple data sources.">
<polygon fill="white" stroke="#666666" points="244.62,-128.5 137.88,-128.5 137.88,-98 244.62,-98 244.62,-128.5"/>
<text text-anchor="start" x="145.88" y="-115" font-family="Times,serif" font-size="10.00">mal_toolkit::ByteArray</text>
<text text-anchor="middle" x="191.25" y="-103.75" font-family="Times,serif" font-size="10.00">::from_byte_arrays</text>
</a>
</g>
</g>
<!-- Node1&#45;&gt;Node3 -->
<g id="edge3_Node000001_Node000003" class="edge">
<title>Node1&#45;&gt;Node3</title>
<g id="a_edge3_Node000001_Node000003"><a xlink:title=" ">
<path fill="none" stroke="#63b8ff" d="M272.37,-99.28C263.17,-100.88 253.78,-102.52 244.82,-104.08"/>
<polygon fill="#63b8ff" stroke="#63b8ff" points="272.8,-102.58 282.05,-97.42 271.6,-95.69 272.8,-102.58"/>
</a>
</g>
</g>
<!-- Node4 -->
<g id="Node000004" class="node">
<title>Node4</title>
<g id="a_Node000004"><a xlink:href="../../d8/d39/classmal__packet__weaver_1_1_session.html#a71ede34f71a6dc30d56d99015997caa3" target="_top" xlink:title="Asynchronously sends all packets in the queue through the network.">
<polygon fill="white" stroke="#666666" points="240.88,-79.5 141.62,-79.5 141.62,-49 240.88,-49 240.88,-79.5"/>
<text text-anchor="start" x="149.62" y="-66" font-family="Times,serif" font-size="10.00">mal_packet_weaver::</text>
<text text-anchor="middle" x="191.25" y="-54.75" font-family="Times,serif" font-size="10.00">Session::send_all</text>
</a>
</g>
</g>
<!-- Node1&#45;&gt;Node4 -->
<g id="edge4_Node000001_Node000004" class="edge">
<title>Node1&#45;&gt;Node4</title>
<g id="a_edge4_Node000001_Node000004"><a xlink:title=" ">
<path fill="none" stroke="#63b8ff" d="M272.26,-77.64C261.78,-75.89 251.06,-74.09 241.01,-72.41"/>
<polygon fill="#63b8ff" stroke="#63b8ff" points="271.61,-81.25 282.05,-79.45 272.77,-74.35 271.61,-81.25"/>
</a>
</g>
</g>
<!-- Node6 -->
<g id="Node000006" class="node">
<title>Node6</title>
<g id="a_Node000006"><a xlink:href="../../dd/d2b/classmal__packet__weaver_1_1_derived_packet.html#a0bc641026e7f0ff5088c7ffd53b29b85" target="_top" xlink:title="Serialize the derived packet data into a ByteArray.">
<polygon fill="white" stroke="#666666" points="247.25,-30.5 135.25,-30.5 135.25,0 247.25,0 247.25,-30.5"/>
<text text-anchor="start" x="143.25" y="-17" font-family="Times,serif" font-size="10.00">mal_packet_weaver::</text>
<text text-anchor="middle" x="191.25" y="-5.75" font-family="Times,serif" font-size="10.00">DerivedPacket::serialize</text>
</a>
</g>
</g>
<!-- Node1&#45;&gt;Node6 -->
<g id="edge6_Node000001_Node000006" class="edge">
<title>Node1&#45;&gt;Node6</title>
<g id="a_edge6_Node000001_Node000006"><a xlink:title=" ">
<path fill="none" stroke="#63b8ff" d="M298.66,-67.41C282.94,-58.75 264.33,-48.76 247.25,-40.25 240.96,-37.12 234.19,-33.91 227.63,-30.89"/>
<polygon fill="#63b8ff" stroke="#63b8ff" points="296.59,-70.82 307.03,-72.61 299.98,-64.7 296.59,-70.82"/>
</a>
</g>
</g>
<!-- Node5 -->
<g id="Node000005" class="node">
<title>Node5</title>
<g id="a_Node000005"><a xlink:href="../../d8/d39/classmal__packet__weaver_1_1_session.html#a5cf271c70d7ec610cfb01d0ed8655693" target="_top" xlink:title="Constructor for the Session class.">
<polygon fill="white" stroke="#666666" points="99.25,-79.5 0,-79.5 0,-49 99.25,-49 99.25,-79.5"/>
<text text-anchor="start" x="8" y="-66" font-family="Times,serif" font-size="10.00">mal_packet_weaver::</text>
<text text-anchor="middle" x="49.62" y="-54.75" font-family="Times,serif" font-size="10.00">Session::Session</text>
</a>
</g>
</g>
<!-- Node4&#45;&gt;Node5 -->
<g id="edge5_Node000004_Node000005" class="edge">
<title>Node4&#45;&gt;Node5</title>
<g id="a_edge5_Node000004_Node000005"><a xlink:title=" ">
<path fill="none" stroke="#63b8ff" d="M130.44,-64.25C120.17,-64.25 109.61,-64.25 99.67,-64.25"/>
<polygon fill="#63b8ff" stroke="#63b8ff" points="130.42,-67.75 140.42,-64.25 130.42,-60.75 130.42,-67.75"/>
</a>
</g>
</g>
</g>
</svg>
</svg>

<style type='text/css'>
<![CDATA[
[data-mouse-over-selected='false'] { opacity: 0.7; }
[data-mouse-over-selected='true']  { opacity: 1.0; }
]]>
</style>
<script type="application/ecmascript"><![CDATA[
document.addEventListener('DOMContentLoaded', (event) => {
  highlightEdges();
  highlightAdjacentNodes();
});
]]></script>
</svg>
