<?xml version="1.0" encoding="UTF-8" standalone="no"?>
<!DOCTYPE svg PUBLIC "-//W3C//DTD SVG 1.1//EN"
 "http://www.w3.org/Graphics/SVG/1.1/DTD/svg11.dtd">
<!-- Generated by graphviz version 8.1.0 (20230707.0739)
 -->
<!-- Title: mal_toolkit::ByteArray::as Pages: 1 -->
<svg width="406pt" height="186pt"
 viewBox="0.00 0.00 405.50 185.50" xmlns="http://www.w3.org/2000/svg" xmlns:xlink="http://www.w3.org/1999/xlink">
<g id="graph0" class="graph" transform="scale(1 1) rotate(0) translate(4 181.5)">
<title>mal_toolkit::ByteArray::as</title>
<!-- Node1 -->
<g id="Node000001" class="node">
<title>Node1</title>
<g id="a_Node000001"><a xlink:title="Convert the ByteArray to a typed pointer.">
<polygon fill="#999999" stroke="#666666" points="397.5,-97.88 278,-97.88 278,-78.62 397.5,-78.62 397.5,-97.88"/>
<text text-anchor="middle" x="337.75" y="-84.38" font-family="Times,serif" font-size="10.00">mal_toolkit::ByteArray::as</text>
</a>
</g>
</g>
<!-- Node2 -->
<g id="Node000002" class="node">
<title>Node2</title>
<g id="a_Node000002"><a xlink:href="../../d8/d99/structmal__toolkit_1_1_byte_array.html#a34acebd668907be75b830deb912e684d" target="_top" xlink:title="Create a byte array from an integral value.">
<polygon fill="white" stroke="#666666" points="242,-177.5 135.25,-177.5 135.25,-147 242,-147 242,-177.5"/>
<text text-anchor="start" x="143.25" y="-164" font-family="Times,serif" font-size="10.00">mal_toolkit::ByteArray</text>
<text text-anchor="middle" x="188.62" y="-152.75" font-family="Times,serif" font-size="10.00">::from_integral</text>
</a>
</g>
</g>
<!-- Node1&#45;&gt;Node2 -->
<g id="edge1_Node000001_Node000002" class="edge">
<title>Node1&#45;&gt;Node2</title>
<g id="a_edge1_Node000001_Node000002"><a xlink:title=" ">
<path fill="none" stroke="#63b8ff" d="M308.26,-103.28C289.51,-113.1 264.39,-126.12 242,-137.25 235.86,-140.3 229.29,-143.49 222.95,-146.54"/>
<polygon fill="#63b8ff" stroke="#63b8ff" points="309.74,-105.94 316.96,-98.19 306.48,-99.74 309.74,-105.94"/>
</a>
</g>
</g>
<!-- Node3 -->
<g id="Node000003" class="node">
<title>Node3</title>
<g id="a_Node000003"><a xlink:href="../../df/df5/namespacemal__toolkit.html#a87426557f3158835d5c92013409e09a3" target="_top" xlink:title="Convert an integer value of the specified type to a ByteArray.">
<polygon fill="white" stroke="#666666" points="235.25,-128.5 142,-128.5 142,-98 235.25,-98 235.25,-128.5"/>
<text text-anchor="start" x="150" y="-115" font-family="Times,serif" font-size="10.00">mal_toolkit::integer</text>
<text text-anchor="middle" x="188.62" y="-103.75" font-family="Times,serif" font-size="10.00">_to_bytes</text>
</a>
</g>
</g>
<!-- Node1&#45;&gt;Node3 -->
<g id="edge2_Node000001_Node000003" class="edge">
<title>Node1&#45;&gt;Node3</title>
<g id="a_edge2_Node000001_Node000003"><a xlink:title=" ">
<path fill="none" stroke="#63b8ff" d="M267.1,-100.09C256.37,-101.91 245.53,-103.75 235.5,-105.46"/>
<polygon fill="#63b8ff" stroke="#63b8ff" points="267.48,-103.4 276.76,-98.27 266.31,-96.5 267.48,-103.4"/>
</a>
</g>
</g>
<!-- Node4 -->
<g id="Node000004" class="node">
<title>Node4</title>
<g id="a_Node000004"><a xlink:href="../../d8/d39/classmal__packet__weaver_1_1_session.html#a24333663993df453bafeeaed060b777a" target="_top" xlink:title=" ">
<polygon fill="white" stroke="#666666" points="241.62,-79.5 135.62,-79.5 135.62,-49 241.62,-49 241.62,-79.5"/>
<text text-anchor="start" x="143.62" y="-66" font-family="Times,serif" font-size="10.00">mal_packet_weaver::</text>
<text text-anchor="middle" x="188.62" y="-54.75" font-family="Times,serif" font-size="10.00">Session::read_bytes_to</text>
</a>
</g>
</g>
<!-- Node1&#45;&gt;Node4 -->
<g id="edge3_Node000001_Node000004" class="edge">
<title>Node1&#45;&gt;Node4</title>
<g id="a_edge3_Node000001_Node000004"><a xlink:title=" ">
<path fill="none" stroke="#63b8ff" d="M267.11,-76.89C258.66,-75.51 250.13,-74.12 241.98,-72.79"/>
<polygon fill="#63b8ff" stroke="#63b8ff" points="266.32,-80.47 276.76,-78.63 267.45,-73.56 266.32,-80.47"/>
</a>
</g>
</g>
<!-- Node5 -->
<g id="Node000005" class="node">
<title>Node5</title>
<g id="a_Node000005"><a xlink:href="../../d8/d39/classmal__packet__weaver_1_1_session.html#a71ede34f71a6dc30d56d99015997caa3" target="_top" xlink:title="Asynchronously sends all packets in the queue through the network.">
<polygon fill="white" stroke="#666666" points="238.25,-30.5 139,-30.5 139,0 238.25,0 238.25,-30.5"/>
<text text-anchor="start" x="147" y="-17" font-family="Times,serif" font-size="10.00">mal_packet_weaver::</text>
<text text-anchor="middle" x="188.62" y="-5.75" font-family="Times,serif" font-size="10.00">Session::send_all</text>
</a>
</g>
</g>
<!-- Node1&#45;&gt;Node5 -->
<g id="edge4_Node000001_Node000005" class="edge">
<title>Node1&#45;&gt;Node5</title>
<g id="a_edge4_Node000001_Node000005"><a xlink:title=" ">
<path fill="none" stroke="#63b8ff" d="M307.52,-73.22C288.84,-63.67 264.06,-51.1 242,-40.25 235.76,-37.18 229.08,-33.95 222.65,-30.87"/>
<polygon fill="#63b8ff" stroke="#63b8ff" points="305.72,-76.74 316.22,-78.19 308.91,-70.51 305.72,-76.74"/>
</a>
</g>
</g>
<!-- Node6 -->
<g id="Node000006" class="node">
<title>Node6</title>
<g id="a_Node000006"><a xlink:href="../../d8/d39/classmal__packet__weaver_1_1_session.html#a5cf271c70d7ec610cfb01d0ed8655693" target="_top" xlink:title="Constructor for the Session class.">
<polygon fill="white" stroke="#666666" points="99.25,-30.5 0,-30.5 0,0 99.25,0 99.25,-30.5"/>
<text text-anchor="start" x="8" y="-17" font-family="Times,serif" font-size="10.00">mal_packet_weaver::</text>
<text text-anchor="middle" x="49.62" y="-5.75" font-family="Times,serif" font-size="10.00">Session::Session</text>
</a>
</g>
</g>
<!-- Node5&#45;&gt;Node6 -->
<g id="edge5_Node000005_Node000006" class="edge">
<title>Node5&#45;&gt;Node6</title>
<g id="a_edge5_Node000005_Node000006"><a xlink:title=" ">
<path fill="none" stroke="#63b8ff" d="M127.61,-15.25C118.17,-15.25 108.5,-15.25 99.36,-15.25"/>
<polygon fill="#63b8ff" stroke="#63b8ff" points="127.55,-18.75 137.55,-15.25 127.55,-11.75 127.55,-18.75"/>
</a>
</g>
</g>
</g>
</svg>
