<?xml version="1.0" encoding="UTF-8" standalone="no"?>
<!DOCTYPE svg PUBLIC "-//W3C//DTD SVG 1.1//EN"
 "http://www.w3.org/Graphics/SVG/1.1/DTD/svg11.dtd">
<!-- Generated by graphviz version 9.0.0 (20230911.1827)
 -->
<!-- Title: mal_toolkit::ByteArray::as Pages: 1 -->
<svg width="406pt" height="147pt"
 viewBox="0.00 0.00 405.50 147.12" xmlns="http://www.w3.org/2000/svg" xmlns:xlink="http://www.w3.org/1999/xlink">
<g id="graph0" class="graph" transform="scale(1 1) rotate(0) translate(4 143.12)">
<title>mal_toolkit::ByteArray::as</title>
<!-- Node1 -->
<g id="Node000001" class="node">
<title>Node1</title>
<g id="a_Node000001"><a xlink:title="Convert the ByteArray to a typed pointer.">
<polygon fill="#999999" stroke="#666666" points="397.5,-73.88 278,-73.88 278,-54.62 397.5,-54.62 397.5,-73.88"/>
<text text-anchor="middle" x="337.75" y="-60.38" font-family="Times,serif" font-size="10.00">mal_toolkit::ByteArray::as</text>
</a>
</g>
</g>
<!-- Node2 -->
<g id="Node000002" class="node">
<title>Node2</title>
<g id="a_Node000002"><a xlink:href="../../d8/d39/classmal__packet__weaver_1_1_session.html#ab8d02d6502bb180c3b0f383b3fddc6ca" target="_top" xlink:title="Asynchronously forges new packets from the buffer.">
<polygon fill="white" stroke="#666666" points="240.12,-139.12 137.12,-139.12 137.12,-97.38 240.12,-97.38 240.12,-139.12"/>
<text text-anchor="start" x="145.12" y="-125.62" font-family="Times,serif" font-size="10.00">mal_packet_weaver::</text>
<text text-anchor="start" x="145.12" y="-114.38" font-family="Times,serif" font-size="10.00">Session::async_packet</text>
<text text-anchor="middle" x="188.62" y="-103.12" font-family="Times,serif" font-size="10.00">_forger</text>
</a>
</g>
</g>
<!-- Node1&#45;&gt;Node2 -->
<g id="edge1_Node000001_Node000002" class="edge">
<title>Node1&#45;&gt;Node2</title>
<g id="a_edge1_Node000001_Node000002"><a xlink:title=" ">
<path fill="none" stroke="#63b8ff" d="M298.65,-78.23C280.96,-84.73 259.68,-92.54 240.62,-99.53"/>
<polygon fill="#63b8ff" stroke="#63b8ff" points="299.82,-81.53 308,-74.8 297.41,-74.96 299.82,-81.53"/>
</a>
</g>
</g>
<!-- Node4 -->
<g id="Node000004" class="node">
<title>Node4</title>
<g id="a_Node000004"><a xlink:href="../../d8/d99/structmal__toolkit_1_1_byte_array.html#a34acebd668907be75b830deb912e684d" target="_top" xlink:title="Create a byte array from an integral value.">
<polygon fill="white" stroke="#666666" points="242,-79.5 135.25,-79.5 135.25,-49 242,-49 242,-79.5"/>
<text text-anchor="start" x="143.25" y="-66" font-family="Times,serif" font-size="10.00">mal_toolkit::ByteArray</text>
<text text-anchor="middle" x="188.62" y="-54.75" font-family="Times,serif" font-size="10.00">::from_integral</text>
</a>
</g>
</g>
<!-- Node1&#45;&gt;Node4 -->
<g id="edge3_Node000001_Node000004" class="edge">
<title>Node1&#45;&gt;Node4</title>
<g id="a_edge3_Node000001_Node000004"><a xlink:title=" ">
<path fill="none" stroke="#63b8ff" d="M266.42,-64.25C258.36,-64.25 250.23,-64.25 242.45,-64.25"/>
<polygon fill="#63b8ff" stroke="#63b8ff" points="266.24,-67.75 276.24,-64.25 266.24,-60.75 266.24,-67.75"/>
</a>
</g>
</g>
<!-- Node5 -->
<g id="Node000005" class="node">
<title>Node5</title>
<g id="a_Node000005"><a xlink:href="../../d8/d39/classmal__packet__weaver_1_1_session.html#a71ede34f71a6dc30d56d99015997caa3" target="_top" xlink:title="Asynchronously sends all packets in the queue through the network.">
<polygon fill="white" stroke="#666666" points="238.25,-30.5 139,-30.5 139,0 238.25,0 238.25,-30.5"/>
<text text-anchor="start" x="147" y="-17" font-family="Times,serif" font-size="10.00">mal_packet_weaver::</text>
<text text-anchor="middle" x="188.62" y="-5.75" font-family="Times,serif" font-size="10.00">Session::send_all</text>
</a>
</g>
</g>
<!-- Node1&#45;&gt;Node5 -->
<g id="edge4_Node000001_Node000005" class="edge">
<title>Node1&#45;&gt;Node5</title>
<g id="a_edge4_Node000001_Node000005"><a xlink:title=" ">
<path fill="none" stroke="#63b8ff" d="M295.72,-50.58C277.42,-44.49 255.77,-37.28 236.8,-30.96"/>
<polygon fill="#63b8ff" stroke="#63b8ff" points="294.59,-53.9 305.19,-53.74 296.8,-47.26 294.59,-53.9"/>
</a>
</g>
</g>
<!-- Node3 -->
<g id="Node000003" class="node">
<title>Node3</title>
<g id="a_Node000003"><a xlink:href="../../d8/d39/classmal__packet__weaver_1_1_session.html#a5cf271c70d7ec610cfb01d0ed8655693" target="_top" xlink:title="Constructor for the Session class.">
<polygon fill="white" stroke="#666666" points="99.25,-81.5 0,-81.5 0,-51 99.25,-51 99.25,-81.5"/>
<text text-anchor="start" x="8" y="-68" font-family="Times,serif" font-size="10.00">mal_packet_weaver::</text>
<text text-anchor="middle" x="49.62" y="-56.75" font-family="Times,serif" font-size="10.00">Session::Session</text>
</a>
</g>
</g>
<!-- Node2&#45;&gt;Node3 -->
<g id="edge2_Node000002_Node000003" class="edge">
<title>Node2&#45;&gt;Node3</title>
<g id="a_edge2_Node000002_Node000003"><a xlink:title=" ">
<path fill="none" stroke="#63b8ff" d="M126.45,-95.03C114.82,-90.62 102.91,-86.1 92.08,-81.99"/>
<polygon fill="#63b8ff" stroke="#63b8ff" points="124.99,-98.22 135.59,-98.5 127.48,-91.68 124.99,-98.22"/>
</a>
</g>
</g>
<!-- Node5&#45;&gt;Node3 -->
<g id="edge5_Node000005_Node000003" class="edge">
<title>Node5&#45;&gt;Node3</title>
<g id="a_edge5_Node000005_Node000003"><a xlink:title=" ">
<path fill="none" stroke="#63b8ff" d="M134.88,-34.88C120.83,-40.11 105.85,-45.69 92.47,-50.67"/>
<polygon fill="#63b8ff" stroke="#63b8ff" points="135.83,-38.26 143.98,-31.5 133.39,-31.7 135.83,-38.26"/>
</a>
</g>
</g>
</g>
</svg>
