<?xml version="1.0" encoding="UTF-8" standalone="no"?>
<!DOCTYPE svg PUBLIC "-//W3C//DTD SVG 1.1//EN"
 "http://www.w3.org/Graphics/SVG/1.1/DTD/svg11.dtd">
<!-- Generated by graphviz version 7.0.5 (20221223.1930)
 -->
<!-- Title: node_system::packet::system::SystemInfoResponsePacket Pages: 1 -->
<svg width="190pt" height="225pt"
 viewBox="0.00 0.00 190.00 225.00" xmlns="http://www.w3.org/2000/svg" xmlns:xlink="http://www.w3.org/1999/xlink">
<g id="graph0" class="graph" transform="scale(1 1) rotate(0) translate(4 221)">
<title>node_system::packet::system::SystemInfoResponsePacket</title>
<!-- Node1 -->
<g id="node1" class="node">
<title>Node1</title>
<g id="a_node1"><a xlink:title="Packet containing system information in response to a request.">
<polygon fill="#999999" stroke="#666666" points="166,-41 16,-41 16,0 166,0 166,-41"/>
<text text-anchor="start" x="24" y="-29" font-family="Helvetica,sans-Serif" font-size="10.00">node_system::packet</text>
<text text-anchor="start" x="24" y="-18" font-family="Helvetica,sans-Serif" font-size="10.00">::system::SystemInfoResponse</text>
<text text-anchor="middle" x="91" y="-7" font-family="Helvetica,sans-Serif" font-size="10.00">Packet</text>
</a>
</g>
</g>
<!-- Node2 -->
<g id="node2" class="node">
<title>Node2</title>
<g id="a_node2"><a xlink:href="../../d6/d1d/classnode__system_1_1_derived_packet.html" target="_top" xlink:title=" ">
<polygon fill="white" stroke="#666666" points="182,-107 0,-107 0,-77 182,-77 182,-107"/>
<text text-anchor="start" x="8" y="-95" font-family="Helvetica,sans-Serif" font-size="10.00">node_system::DerivedPacket</text>
<text text-anchor="middle" x="91" y="-84" font-family="Helvetica,sans-Serif" font-size="10.00">&lt; class SystemInfoResponsePacket &gt;</text>
</a>
</g>
</g>
<!-- Node2&#45;&gt;Node1 -->
<g id="edge1" class="edge">
<title>Node2&#45;&gt;Node1</title>
<path fill="none" stroke="#63b8ff" d="M91,-65.36C91,-57.45 91,-48.87 91,-41.42"/>
<polygon fill="#63b8ff" stroke="#63b8ff" points="87.5,-65.09 91,-75.09 94.5,-65.09 87.5,-65.09"/>
</g>
<!-- Node3 -->
<g id="node3" class="node">
<title>Node3</title>
<g id="a_node3"><a xlink:href="../../da/d22/classnode__system_1_1_packet.html" target="_top" xlink:title="Base class for all packets.">
<polygon fill="white" stroke="#666666" points="146,-162 36,-162 36,-143 146,-143 146,-162"/>
<text text-anchor="middle" x="91" y="-150" font-family="Helvetica,sans-Serif" font-size="10.00">node_system::Packet</text>
</a>
</g>
</g>
<!-- Node3&#45;&gt;Node2 -->
<g id="edge2" class="edge">
<title>Node3&#45;&gt;Node2</title>
<path fill="none" stroke="#63b8ff" d="M91,-131.51C91,-123.49 91,-114.43 91,-107.11"/>
<polygon fill="#63b8ff" stroke="#63b8ff" points="87.5,-131.35 91,-141.35 94.5,-131.35 87.5,-131.35"/>
</g>
<!-- Node4 -->
<g id="node4" class="node">
<title>Node4</title>
<g id="a_node4"><a xlink:title=" ">
<polygon fill="white" stroke="#666666" points="140,-217 42,-217 42,-198 140,-198 140,-217"/>
<text text-anchor="middle" x="91" y="-205" font-family="Helvetica,sans-Serif" font-size="10.00">utils::non_copyable</text>
</a>
</g>
</g>
<!-- Node4&#45;&gt;Node3 -->
<g id="edge3" class="edge">
<title>Node4&#45;&gt;Node3</title>
<path fill="none" stroke="#63b8ff" d="M91,-186.35C91,-178.1 91,-168.97 91,-162.44"/>
<polygon fill="#63b8ff" stroke="#63b8ff" points="87.5,-186.23 91,-196.23 94.5,-186.23 87.5,-186.23"/>
</g>
</g>
</svg>
