<?xml version="1.0" encoding="UTF-8" standalone="no"?>
<!DOCTYPE svg PUBLIC "-//W3C//DTD SVG 1.1//EN"
 "http://www.w3.org/Graphics/SVG/1.1/DTD/svg11.dtd">
<!-- Generated by graphviz version 8.1.0 (20230707.0739)
 -->
<!-- Title: mal_packet_weaver::crypto::KeyView Pages: 1 -->
<svg width="107pt" height="229pt"
 viewBox="0.00 0.00 107.25 228.75" xmlns="http://www.w3.org/2000/svg" xmlns:xlink="http://www.w3.org/1999/xlink">
<g id="graph0" class="graph" transform="scale(1 1) rotate(0) translate(4 224.75)">
<title>mal_packet_weaver::crypto::KeyView</title>
<!-- Node1 -->
<g id="Node000001" class="node">
<title>Node1</title>
<g id="a_Node000001"><a xlink:title="Represents a view of a cryptographic key as a byte view.">
<polygon fill="#999999" stroke="#666666" points="99.25,-30.5 0,-30.5 0,0 99.25,0 99.25,-30.5"/>
<text text-anchor="start" x="8" y="-17" font-family="Times,serif" font-size="10.00">mal_packet_weaver::</text>
<text text-anchor="middle" x="49.62" y="-5.75" font-family="Times,serif" font-size="10.00">crypto::KeyView</text>
</a>
</g>
</g>
<!-- Node2 -->
<g id="Node000002" class="node">
<title>Node2</title>
<g id="a_Node000002"><a xlink:href="../../d7/d41/structmal__packet__weaver_1_1_byte_view.html" target="_top" xlink:title="A lightweight view over a sequence of bytes.">
<polygon fill="white" stroke="#666666" points="99.25,-98 0,-98 0,-67.5 99.25,-67.5 99.25,-98"/>
<text text-anchor="start" x="8" y="-84.5" font-family="Times,serif" font-size="10.00">mal_packet_weaver::</text>
<text text-anchor="middle" x="49.62" y="-73.25" font-family="Times,serif" font-size="10.00">ByteView</text>
</a>
</g>
</g>
<!-- Node2&#45;&gt;Node1 -->
<g id="edge1_Node000001_Node000002" class="edge">
<title>Node2&#45;&gt;Node1</title>
<g id="a_edge1_Node000001_Node000002"><a xlink:title=" ">
<path fill="none" stroke="#63b8ff" d="M49.62,-56.42C49.62,-47.72 49.62,-38.29 49.62,-30.75"/>
<polygon fill="#63b8ff" stroke="#63b8ff" points="46.13,-56.21 49.62,-66.21 53.13,-56.21 46.13,-56.21"/>
</a>
</g>
</g>
<!-- Node3 -->
<g id="Node000003" class="node">
<title>Node3</title>
<g id="a_Node000003"><a xlink:title=" ">
<polygon fill="white" stroke="#666666" points="86.5,-154.25 12.75,-154.25 12.75,-135 86.5,-135 86.5,-154.25"/>
<text text-anchor="middle" x="49.62" y="-140.75" font-family="Times,serif" font-size="10.00">std::span&lt; T &gt;</text>
</a>
</g>
</g>
<!-- Node3&#45;&gt;Node2 -->
<g id="edge2_Node000002_Node000003" class="edge">
<title>Node3&#45;&gt;Node2</title>
<g id="a_edge2_Node000002_Node000003"><a xlink:title=" ">
<path fill="none" stroke="#63b8ff" d="M49.62,-123.77C49.62,-115.37 49.62,-105.76 49.62,-98.07"/>
<polygon fill="#63b8ff" stroke="#63b8ff" points="46.13,-123.53 49.62,-133.53 53.13,-123.53 46.13,-123.53"/>
</a>
</g>
</g>
<!-- Node4 -->
<g id="Node000004" class="node">
<title>Node4</title>
<g id="a_Node000004"><a xlink:title=" ">
<polygon fill="white" stroke="#666666" points="64.03,-220.75 35.23,-220.75 35.23,-201.5 64.03,-201.5 64.03,-220.75"/>
<text text-anchor="middle" x="49.62" y="-207.25" font-family="Times,serif" font-size="10.00">T</text>
</a>
</g>
</g>
<!-- Node4&#45;&gt;Node3 -->
<g id="edge3_Node000003_Node000004" class="edge">
<title>Node4&#45;&gt;Node3</title>
<g id="a_edge3_Node000003_Node000004"><a xlink:title=" ">
<path fill="none" stroke="#9a32cd" stroke-dasharray="5,2" d="M49.62,-190.4C49.62,-178.43 49.62,-163.73 49.62,-154.52"/>
<polygon fill="#9a32cd" stroke="#9a32cd" points="46.13,-190.16 49.62,-200.16 53.13,-190.16 46.13,-190.16"/>
</a>
</g>
<text text-anchor="middle" x="68" y="-174" font-family="Times,serif" font-size="10.00" fill="grey"> elements</text>
</g>
</g>
</svg>
