<?xml version="1.0" encoding="UTF-8" standalone="no"?>
<!DOCTYPE svg PUBLIC "-//W3C//DTD SVG 1.1//EN"
 "http://www.w3.org/Graphics/SVG/1.1/DTD/svg11.dtd">
<!-- Generated by graphviz version 7.0.5 (20221223.1930)
 -->
<!-- Title: weaver::DispatcherSession Pages: 1 -->
<svg width="1294pt" height="656pt"
 viewBox="0.00 0.00 1294.00 655.50" xmlns="http://www.w3.org/2000/svg" xmlns:xlink="http://www.w3.org/1999/xlink">
<g id="graph0" class="graph" transform="scale(1 1) rotate(0) translate(4 651.5)">
<title>weaver::DispatcherSession</title>
<!-- Node1 -->
<g id="node1" class="node">
<title>Node1</title>
<g id="a_node1"><a xlink:title=" ">
<polygon fill="#999999" stroke="#666666" points="1286,-464 1152,-464 1152,-445 1286,-445 1286,-464"/>
<text text-anchor="middle" x="1219" y="-452" font-family="Helvetica,sans-Serif" font-size="10.00">weaver::DispatcherSession</text>
</a>
</g>
</g>
<!-- Node2 -->
<g id="node2" class="node">
<title>Node2</title>
<g id="a_node2"><a xlink:title=" ">
<polygon fill="white" stroke="#666666" points="1068,-522.5 948,-522.5 948,-492.5 1068,-492.5 1068,-522.5"/>
<text text-anchor="start" x="956" y="-510.5" font-family="Helvetica,sans-Serif" font-size="10.00">std::shared_ptr&lt; weaver</text>
<text text-anchor="middle" x="1008" y="-499.5" font-family="Helvetica,sans-Serif" font-size="10.00">::Session &gt;</text>
</a>
</g>
</g>
<!-- Node2&#45;&gt;Node1 -->
<g id="edge1" class="edge">
<title>Node2&#45;&gt;Node1</title>
<path fill="none" stroke="#9a32cd" stroke-dasharray="5,2" d="M1079.35,-489.66C1112.48,-481.26 1150.75,-471.55 1178.68,-464.47"/>
<polygon fill="#9a32cd" stroke="#9a32cd" points="1078.63,-486.23 1069.8,-492.08 1080.35,-493.02 1078.63,-486.23"/>
<text text-anchor="middle" x="1110" y="-489.5" font-family="Helvetica,sans-Serif" font-size="10.00"> session_</text>
</g>
<!-- Node3 -->
<g id="node3" class="node">
<title>Node3</title>
<g id="a_node3"><a xlink:href="../../de/dc2/classweaver_1_1_session.html" target="_top" xlink:title="Represents a network session for sending and receiving packets.">
<polygon fill="white" stroke="#666666" points="877,-546 789,-546 789,-527 877,-527 877,-546"/>
<text text-anchor="middle" x="833" y="-534" font-family="Helvetica,sans-Serif" font-size="10.00">weaver::Session</text>
</a>
</g>
</g>
<!-- Node3&#45;&gt;Node2 -->
<g id="edge2" class="edge">
<title>Node3&#45;&gt;Node2</title>
<path fill="none" stroke="#9a32cd" stroke-dasharray="5,2" d="M888.31,-527.4C907.19,-524.23 928.46,-520.67 947.72,-517.44"/>
<polygon fill="#9a32cd" stroke="#9a32cd" points="887.99,-523.9 878.7,-529.01 889.14,-530.81 887.99,-523.9"/>
<text text-anchor="middle" x="923" y="-524.5" font-family="Helvetica,sans-Serif" font-size="10.00"> ptr</text>
</g>
<!-- Node4 -->
<g id="node4" class="node">
<title>Node4</title>
<g id="a_node4"><a xlink:title=" ">
<polygon fill="white" stroke="#666666" points="602.5,-647.5 504.5,-647.5 504.5,-617.5 602.5,-617.5 602.5,-647.5"/>
<text text-anchor="start" x="512.5" y="-635.5" font-family="Helvetica,sans-Serif" font-size="10.00">utils::non_copyable</text>
<text text-anchor="middle" x="553.5" y="-624.5" font-family="Helvetica,sans-Serif" font-size="10.00">_non_movable</text>
</a>
</g>
</g>
<!-- Node4&#45;&gt;Node3 -->
<g id="edge3" class="edge">
<title>Node4&#45;&gt;Node3</title>
<path fill="none" stroke="#63b8ff" d="M613.88,-617.3C653.02,-606.7 705.14,-591.45 750,-574.5 772.02,-566.18 796.39,-554.57 812.79,-546.37"/>
<polygon fill="#63b8ff" stroke="#63b8ff" points="613.16,-613.87 604.41,-619.84 614.98,-620.63 613.16,-613.87"/>
</g>
<!-- Node5 -->
<g id="node5" class="node">
<title>Node5</title>
<g id="a_node5"><a xlink:title=" ">
<polygon fill="white" stroke="#666666" points="610.5,-599.5 496.5,-599.5 496.5,-569.5 610.5,-569.5 610.5,-599.5"/>
<text text-anchor="start" x="504.5" y="-587.5" font-family="Helvetica,sans-Serif" font-size="10.00">std::enable_shared</text>
<text text-anchor="middle" x="553.5" y="-576.5" font-family="Helvetica,sans-Serif" font-size="10.00">_from_this&lt; Session &gt;</text>
</a>
</g>
</g>
<!-- Node5&#45;&gt;Node3 -->
<g id="edge4" class="edge">
<title>Node5&#45;&gt;Node3</title>
<path fill="none" stroke="#63b8ff" d="M622.34,-573.28C659.97,-567 707.6,-558.96 750,-551.5 762.54,-549.29 776.15,-546.83 788.61,-544.55"/>
<polygon fill="#63b8ff" stroke="#63b8ff" points="621.78,-569.83 612.49,-574.92 622.93,-576.73 621.78,-569.83"/>
</g>
<!-- Node6 -->
<g id="node6" class="node">
<title>Node6</title>
<g id="a_node6"><a xlink:title=" ">
<polygon fill="white" stroke="#666666" points="610.5,-551.5 496.5,-551.5 496.5,-521.5 610.5,-521.5 610.5,-551.5"/>
<text text-anchor="start" x="504.5" y="-539.5" font-family="Helvetica,sans-Serif" font-size="10.00">std::unique_ptr&lt; crypto</text>
<text text-anchor="middle" x="553.5" y="-528.5" font-family="Helvetica,sans-Serif" font-size="10.00">::AES::AES256 &gt;</text>
</a>
</g>
</g>
<!-- Node6&#45;&gt;Node3 -->
<g id="edge5" class="edge">
<title>Node6&#45;&gt;Node3</title>
<path fill="none" stroke="#9a32cd" stroke-dasharray="5,2" d="M622.44,-536.5C674.33,-536.5 744.28,-536.5 788.77,-536.5"/>
<polygon fill="#9a32cd" stroke="#9a32cd" points="622.5,-533 612.5,-536.5 622.5,-540 622.5,-533"/>
<text text-anchor="middle" x="695.5" y="-539.5" font-family="Helvetica,sans-Serif" font-size="10.00"> aes_</text>
</g>
<!-- Node7 -->
<g id="node7" class="node">
<title>Node7</title>
<g id="a_node7"><a xlink:title=" ">
<polygon fill="white" stroke="#666666" points="584,-503 523,-503 523,-484 584,-484 584,-503"/>
<text text-anchor="middle" x="553.5" y="-491" font-family="Helvetica,sans-Serif" font-size="10.00">std::mutex</text>
</a>
</g>
</g>
<!-- Node7&#45;&gt;Node3 -->
<g id="edge6" class="edge">
<title>Node7&#45;&gt;Node3</title>
<path fill="none" stroke="#9a32cd" stroke-dasharray="5,2" d="M595.67,-498.93C635.28,-504.26 696.83,-512.83 750,-521.5 762.57,-523.55 776.19,-525.96 788.65,-528.25"/>
<polygon fill="#9a32cd" stroke="#9a32cd" points="596.24,-495.47 585.86,-497.61 595.31,-502.41 596.24,-495.47"/>
<text text-anchor="middle" x="695.5" y="-524.5" font-family="Helvetica,sans-Serif" font-size="10.00"> packet_receiver_mutex_</text>
</g>
<!-- Node8 -->
<g id="node8" class="node">
<title>Node8</title>
<g id="a_node8"><a xlink:title=" ">
<polygon fill="white" stroke="#666666" points="1068,-445.5 948,-445.5 948,-415.5 1068,-415.5 1068,-445.5"/>
<text text-anchor="start" x="956" y="-433.5" font-family="Helvetica,sans-Serif" font-size="10.00">std::shared_ptr&lt; weaver</text>
<text text-anchor="middle" x="1008" y="-422.5" font-family="Helvetica,sans-Serif" font-size="10.00">::PacketDispatcher &gt;</text>
</a>
</g>
</g>
<!-- Node8&#45;&gt;Node1 -->
<g id="edge7" class="edge">
<title>Node8&#45;&gt;Node1</title>
<path fill="none" stroke="#9a32cd" stroke-dasharray="5,2" d="M1079.68,-435.9C1097.44,-437.49 1116.44,-439.37 1134,-441.5 1141.32,-442.39 1148.99,-443.43 1156.59,-444.52"/>
<polygon fill="#9a32cd" stroke="#9a32cd" points="1079.99,-432.42 1069.73,-435.04 1079.39,-439.39 1079.99,-432.42"/>
<text text-anchor="middle" x="1110" y="-444.5" font-family="Helvetica,sans-Serif" font-size="10.00"> dispatcher</text>
</g>
<!-- Node9 -->
<g id="node9" class="node">
<title>Node9</title>
<g id="a_node9"><a xlink:href="../../d7/d91/classweaver_1_1_packet_dispatcher.html" target="_top" xlink:title="The PacketDispatcher class is responsible for managing packet dispatching and handling.">
<polygon fill="white" stroke="#666666" points="898,-266 768,-266 768,-247 898,-247 898,-266"/>
<text text-anchor="middle" x="833" y="-254" font-family="Helvetica,sans-Serif" font-size="10.00">weaver::PacketDispatcher</text>
</a>
</g>
</g>
<!-- Node9&#45;&gt;Node8 -->
<g id="edge8" class="edge">
<title>Node9&#45;&gt;Node8</title>
<path fill="none" stroke="#9a32cd" stroke-dasharray="5,2" d="M851.5,-274.1C885.39,-308.19 959.48,-382.7 991.62,-415.03"/>
<polygon fill="#9a32cd" stroke="#9a32cd" points="854.4,-272.05 844.86,-267.43 849.43,-276.99 854.4,-272.05"/>
<text text-anchor="middle" x="923" y="-351.5" font-family="Helvetica,sans-Serif" font-size="10.00"> ptr</text>
</g>
<!-- Node10 -->
<g id="node10" class="node">
<title>Node10</title>
<g id="a_node10"><a xlink:title=" ">
<polygon fill="white" stroke="#666666" points="405,-396 261,-396 261,-377 405,-377 405,-396"/>
<text text-anchor="middle" x="333" y="-384" font-family="Helvetica,sans-Serif" font-size="10.00">std::vector&lt; BasePacketPtr &gt;</text>
</a>
</g>
</g>
<!-- Node10&#45;&gt;Node9 -->
<g id="edge9" class="edge">
<title>Node10&#45;&gt;Node9</title>
<path fill="none" stroke="#9a32cd" stroke-dasharray="5,2" d="M380.67,-399.05C438.01,-412.7 538.13,-430.79 623,-416.5 681.91,-406.58 702.25,-408.39 750,-372.5 789.43,-342.87 817.3,-288.73 827.61,-266.47"/>
<polygon fill="#9a32cd" stroke="#9a32cd" points="381.8,-395.73 371.26,-396.75 380.14,-402.53 381.8,-395.73"/>
<text text-anchor="start" x="504.5" y="-435.5" font-family="Helvetica,sans-Serif" font-size="10.00"> unprocessed_packets</text>
<text text-anchor="middle" x="553.5" y="-424.5" font-family="Helvetica,sans-Serif" font-size="10.00">_input_</text>
</g>
<!-- Node16 -->
<g id="node16" class="node">
<title>Node16</title>
<g id="a_node16"><a xlink:title=" ">
<polygon fill="white" stroke="#666666" points="623,-407 484,-407 484,-366 623,-366 623,-407"/>
<text text-anchor="start" x="492" y="-395" font-family="Helvetica,sans-Serif" font-size="10.00">std::unordered_map</text>
<text text-anchor="start" x="492" y="-384" font-family="Helvetica,sans-Serif" font-size="10.00">&lt; UniquePacketID, std</text>
<text text-anchor="middle" x="553.5" y="-373" font-family="Helvetica,sans-Serif" font-size="10.00">::vector&lt; BasePacketPtr &gt; &gt;</text>
</a>
</g>
</g>
<!-- Node10&#45;&gt;Node16 -->
<g id="edge16" class="edge">
<title>Node10&#45;&gt;Node16</title>
<path fill="none" stroke="#9a32cd" stroke-dasharray="5,2" d="M416.63,-386.5C438.71,-386.5 462.33,-386.5 483.59,-386.5"/>
<polygon fill="#9a32cd" stroke="#9a32cd" points="416.76,-383 406.76,-386.5 416.76,-390 416.76,-383"/>
<text text-anchor="middle" x="444.5" y="-389.5" font-family="Helvetica,sans-Serif" font-size="10.00"> elements</text>
</g>
<!-- Node11 -->
<g id="node11" class="node">
<title>Node11</title>
<g id="a_node11"><a xlink:title=" ">
<polygon fill="white" stroke="#666666" points="181.5,-394 79.5,-394 79.5,-375 181.5,-375 181.5,-394"/>
<text text-anchor="middle" x="130.5" y="-382" font-family="Helvetica,sans-Serif" font-size="10.00">std::unique_ptr&lt; T &gt;</text>
</a>
</g>
</g>
<!-- Node11&#45;&gt;Node10 -->
<g id="edge10" class="edge">
<title>Node11&#45;&gt;Node10</title>
<path fill="none" stroke="#9a32cd" stroke-dasharray="5,2" d="M193.08,-385.11C214.49,-385.33 238.68,-385.57 260.81,-385.79"/>
<polygon fill="#9a32cd" stroke="#9a32cd" points="193.38,-381.62 183.35,-385.02 193.31,-388.62 193.38,-381.62"/>
<text text-anchor="middle" x="221.5" y="-388.5" font-family="Helvetica,sans-Serif" font-size="10.00"> elements</text>
</g>
<!-- Node12 -->
<g id="node12" class="node">
<title>Node12</title>
<g id="a_node12"><a xlink:title=" ">
<polygon fill="white" stroke="#666666" points="29,-373 0,-373 0,-354 29,-354 29,-373"/>
<text text-anchor="middle" x="14.5" y="-361" font-family="Helvetica,sans-Serif" font-size="10.00">T</text>
</a>
</g>
</g>
<!-- Node12&#45;&gt;Node11 -->
<g id="edge11" class="edge">
<title>Node12&#45;&gt;Node11</title>
<path fill="none" stroke="#9a32cd" stroke-dasharray="5,2" d="M40.68,-368.14C52.03,-370.23 65.86,-372.78 79.19,-375.23"/>
<polygon fill="#9a32cd" stroke="#9a32cd" points="41.44,-364.72 30.97,-366.35 40.17,-371.6 41.44,-364.72"/>
<text text-anchor="middle" x="54" y="-374.5" font-family="Helvetica,sans-Serif" font-size="10.00"> ptr</text>
</g>
<!-- Node19 -->
<g id="node19" class="node">
<title>Node19</title>
<g id="a_node19"><a xlink:title=" ">
<polygon fill="white" stroke="#666666" points="182,-355 79,-355 79,-336 182,-336 182,-355"/>
<text text-anchor="middle" x="130.5" y="-343" font-family="Helvetica,sans-Serif" font-size="10.00">std::shared_ptr&lt; T &gt;</text>
</a>
</g>
</g>
<!-- Node12&#45;&gt;Node19 -->
<g id="edge20" class="edge">
<title>Node12&#45;&gt;Node19</title>
<path fill="none" stroke="#9a32cd" stroke-dasharray="5,2" d="M39.93,-350.71C42.28,-349.83 44.66,-349.07 47,-348.5 57.16,-346.01 68.24,-344.69 78.88,-344.09"/>
<polygon fill="#9a32cd" stroke="#9a32cd" points="38.58,-347.48 30.85,-354.73 41.41,-353.88 38.58,-347.48"/>
<text text-anchor="middle" x="54" y="-351.5" font-family="Helvetica,sans-Serif" font-size="10.00"> ptr</text>
</g>
<!-- Node13 -->
<g id="node13" class="node">
<title>Node13</title>
<g id="a_node13"><a xlink:title=" ">
<polygon fill="white" stroke="#666666" points="619,-277 488,-277 488,-236 619,-236 619,-277"/>
<text text-anchor="start" x="496" y="-265" font-family="Helvetica,sans-Serif" font-size="10.00">std::vector&lt; std::pair</text>
<text text-anchor="start" x="496" y="-254" font-family="Helvetica,sans-Serif" font-size="10.00">&lt; UniquePacketID, shared</text>
<text text-anchor="middle" x="553.5" y="-243" font-family="Helvetica,sans-Serif" font-size="10.00">_packet_promise &gt; &gt;</text>
</a>
</g>
</g>
<!-- Node13&#45;&gt;Node9 -->
<g id="edge12" class="edge">
<title>Node13&#45;&gt;Node9</title>
<path fill="none" stroke="#9a32cd" stroke-dasharray="5,2" d="M630.48,-256.5C673.5,-256.5 726.72,-256.5 767.67,-256.5"/>
<polygon fill="#9a32cd" stroke="#9a32cd" points="630.72,-253 620.72,-256.5 630.72,-260 630.72,-253"/>
<text text-anchor="middle" x="695.5" y="-259.5" font-family="Helvetica,sans-Serif" font-size="10.00"> promise_map_input_</text>
</g>
<!-- Node14 -->
<g id="node14" class="node">
<title>Node14</title>
<g id="a_node14"><a xlink:title=" ">
<polygon fill="white" stroke="#666666" points="621.5,-218 485.5,-218 485.5,-177 621.5,-177 621.5,-218"/>
<text text-anchor="start" x="493.5" y="-206" font-family="Helvetica,sans-Serif" font-size="10.00">std::vector&lt; std::pair</text>
<text text-anchor="start" x="493.5" y="-195" font-family="Helvetica,sans-Serif" font-size="10.00">&lt; UniquePacketID, promise</text>
<text text-anchor="middle" x="553.5" y="-184" font-family="Helvetica,sans-Serif" font-size="10.00">_filter &gt; &gt;</text>
</a>
</g>
</g>
<!-- Node14&#45;&gt;Node9 -->
<g id="edge13" class="edge">
<title>Node14&#45;&gt;Node9</title>
<path fill="none" stroke="#9a32cd" stroke-dasharray="5,2" d="M633.3,-208.23C669.15,-213.77 711.96,-221.31 750,-230.5 768.29,-234.92 788.44,-241.29 804.19,-246.62"/>
<polygon fill="#9a32cd" stroke="#9a32cd" points="633.84,-204.77 623.42,-206.73 632.79,-211.69 633.84,-204.77"/>
<text text-anchor="start" x="653" y="-244.5" font-family="Helvetica,sans-Serif" font-size="10.00"> promise_filter_map</text>
<text text-anchor="middle" x="695.5" y="-233.5" font-family="Helvetica,sans-Serif" font-size="10.00">_input_</text>
</g>
<!-- Node15 -->
<g id="node15" class="node">
<title>Node15</title>
<g id="a_node15"><a xlink:title=" ">
<polygon fill="white" stroke="#666666" points="620,-159 487,-159 487,-118 620,-118 620,-159"/>
<text text-anchor="start" x="495" y="-147" font-family="Helvetica,sans-Serif" font-size="10.00">std::vector&lt; std::pair</text>
<text text-anchor="start" x="495" y="-136" font-family="Helvetica,sans-Serif" font-size="10.00">&lt; UniquePacketID, handler</text>
<text text-anchor="middle" x="553.5" y="-125" font-family="Helvetica,sans-Serif" font-size="10.00">_tuple &gt; &gt;</text>
</a>
</g>
</g>
<!-- Node15&#45;&gt;Node9 -->
<g id="edge14" class="edge">
<title>Node15&#45;&gt;Node9</title>
<path fill="none" stroke="#9a32cd" stroke-dasharray="5,2" d="M630.89,-153.47C668.04,-162.46 712.63,-175.84 750,-194.5 778.42,-208.69 806.96,-233.12 821.72,-246.69"/>
<polygon fill="#9a32cd" stroke="#9a32cd" points="632.13,-150.17 621.59,-151.29 630.52,-156.98 632.13,-150.17"/>
<text text-anchor="middle" x="695.5" y="-197.5" font-family="Helvetica,sans-Serif" font-size="10.00"> default_handlers_input_</text>
</g>
<!-- Node16&#45;&gt;Node9 -->
<g id="edge15" class="edge">
<title>Node16&#45;&gt;Node9</title>
<path fill="none" stroke="#9a32cd" stroke-dasharray="5,2" d="M633.89,-362.55C670.24,-350.27 713.29,-333.81 750,-314.5 776.7,-300.46 804.76,-278.91 820.15,-266.41"/>
<polygon fill="#9a32cd" stroke="#9a32cd" points="633.16,-359.11 624.77,-365.59 635.37,-365.75 633.16,-359.11"/>
<text text-anchor="middle" x="695.5" y="-360.5" font-family="Helvetica,sans-Serif" font-size="10.00"> unprocessed_packets_</text>
</g>
<!-- Node17 -->
<g id="node17" class="node">
<title>Node17</title>
<g id="a_node17"><a xlink:title=" ">
<polygon fill="white" stroke="#666666" points="613,-347.5 494,-347.5 494,-295.5 613,-295.5 613,-347.5"/>
<text text-anchor="start" x="502" y="-335.5" font-family="Helvetica,sans-Serif" font-size="10.00">std::unordered_map</text>
<text text-anchor="start" x="502" y="-324.5" font-family="Helvetica,sans-Serif" font-size="10.00">&lt; UniquePacketID, std</text>
<text text-anchor="start" x="502" y="-313.5" font-family="Helvetica,sans-Serif" font-size="10.00">::deque&lt; shared_packet</text>
<text text-anchor="middle" x="553.5" y="-302.5" font-family="Helvetica,sans-Serif" font-size="10.00">_promise &gt; &gt;</text>
</a>
</g>
</g>
<!-- Node17&#45;&gt;Node9 -->
<g id="edge17" class="edge">
<title>Node17&#45;&gt;Node9</title>
<path fill="none" stroke="#9a32cd" stroke-dasharray="5,2" d="M624.49,-305.1C676.46,-292.93 745.64,-276.73 789.51,-266.45"/>
<polygon fill="#9a32cd" stroke="#9a32cd" points="623.76,-301.68 614.82,-307.37 625.36,-308.5 623.76,-301.68"/>
<text text-anchor="middle" x="695.5" y="-302.5" font-family="Helvetica,sans-Serif" font-size="10.00"> promise_map_</text>
</g>
<!-- Node18 -->
<g id="node18" class="node">
<title>Node18</title>
<g id="a_node18"><a xlink:title=" ">
<polygon fill="white" stroke="#666666" points="382.5,-348.5 283.5,-348.5 283.5,-318.5 382.5,-318.5 382.5,-348.5"/>
<text text-anchor="start" x="291.5" y="-336.5" font-family="Helvetica,sans-Serif" font-size="10.00">std::deque&lt; shared</text>
<text text-anchor="middle" x="333" y="-325.5" font-family="Helvetica,sans-Serif" font-size="10.00">_packet_promise &gt;</text>
</a>
</g>
</g>
<!-- Node18&#45;&gt;Node17 -->
<g id="edge18" class="edge">
<title>Node18&#45;&gt;Node17</title>
<path fill="none" stroke="#9a32cd" stroke-dasharray="5,2" d="M393.89,-330.21C424.99,-328.5 462.86,-326.42 493.79,-324.72"/>
<polygon fill="#9a32cd" stroke="#9a32cd" points="394.07,-326.7 384.27,-330.74 394.45,-333.69 394.07,-326.7"/>
<text text-anchor="middle" x="444.5" y="-331.5" font-family="Helvetica,sans-Serif" font-size="10.00"> elements</text>
</g>
<!-- Node19&#45;&gt;Node18 -->
<g id="edge19" class="edge">
<title>Node19&#45;&gt;Node18</title>
<path fill="none" stroke="#9a32cd" stroke-dasharray="5,2" d="M193.56,-341.79C222.44,-340.06 256.28,-338.03 283.28,-336.42"/>
<polygon fill="#9a32cd" stroke="#9a32cd" points="193.64,-338.27 183.86,-342.37 194.06,-345.26 193.64,-338.27"/>
<text text-anchor="middle" x="221.5" y="-343.5" font-family="Helvetica,sans-Serif" font-size="10.00"> elements</text>
</g>
<!-- Node20 -->
<g id="node20" class="node">
<title>Node20</title>
<g id="a_node20"><a xlink:title=" ">
<polygon fill="white" stroke="#666666" points="619,-100 488,-100 488,-59 619,-59 619,-100"/>
<text text-anchor="start" x="496" y="-88" font-family="Helvetica,sans-Serif" font-size="10.00">std::unordered_map</text>
<text text-anchor="start" x="496" y="-77" font-family="Helvetica,sans-Serif" font-size="10.00">&lt; UniquePacketID, std</text>
<text text-anchor="middle" x="553.5" y="-66" font-family="Helvetica,sans-Serif" font-size="10.00">::vector&lt; promise_filter &gt; &gt;</text>
</a>
</g>
</g>
<!-- Node20&#45;&gt;Node9 -->
<g id="edge21" class="edge">
<title>Node20&#45;&gt;Node9</title>
<path fill="none" stroke="#9a32cd" stroke-dasharray="5,2" d="M630.32,-91.18C668.91,-99.94 714.93,-114.99 750,-140.5 790.09,-169.66 817.77,-224.54 827.82,-246.78"/>
<polygon fill="#9a32cd" stroke="#9a32cd" points="631.13,-87.77 620.61,-89.08 629.65,-94.61 631.13,-87.77"/>
<text text-anchor="middle" x="695.5" y="-143.5" font-family="Helvetica,sans-Serif" font-size="10.00"> promise_filter_map_</text>
</g>
<!-- Node21 -->
<g id="node21" class="node">
<title>Node21</title>
<g id="a_node21"><a xlink:title=" ">
<polygon fill="white" stroke="#666666" points="385,-94.5 281,-94.5 281,-64.5 385,-64.5 385,-94.5"/>
<text text-anchor="start" x="289" y="-82.5" font-family="Helvetica,sans-Serif" font-size="10.00">std::vector&lt; promise</text>
<text text-anchor="middle" x="333" y="-71.5" font-family="Helvetica,sans-Serif" font-size="10.00">_filter &gt;</text>
</a>
</g>
</g>
<!-- Node21&#45;&gt;Node20 -->
<g id="edge22" class="edge">
<title>Node21&#45;&gt;Node20</title>
<path fill="none" stroke="#9a32cd" stroke-dasharray="5,2" d="M396.71,-79.5C425.29,-79.5 459.08,-79.5 487.88,-79.5"/>
<polygon fill="#9a32cd" stroke="#9a32cd" points="396.74,-76 386.74,-79.5 396.74,-83 396.74,-76"/>
<text text-anchor="middle" x="444.5" y="-82.5" font-family="Helvetica,sans-Serif" font-size="10.00"> elements</text>
</g>
<!-- Node22 -->
<g id="node22" class="node">
<title>Node22</title>
<g id="a_node22"><a xlink:title=" ">
<polygon fill="white" stroke="#666666" points="619,-41 488,-41 488,0 619,0 619,-41"/>
<text text-anchor="start" x="496" y="-29" font-family="Helvetica,sans-Serif" font-size="10.00">std::unordered_map</text>
<text text-anchor="start" x="496" y="-18" font-family="Helvetica,sans-Serif" font-size="10.00">&lt; UniquePacketID, std</text>
<text text-anchor="middle" x="553.5" y="-7" font-family="Helvetica,sans-Serif" font-size="10.00">::vector&lt; handler_tuple &gt; &gt;</text>
</a>
</g>
</g>
<!-- Node22&#45;&gt;Node9 -->
<g id="edge23" class="edge">
<title>Node22&#45;&gt;Node9</title>
<path fill="none" stroke="#9a32cd" stroke-dasharray="5,2" d="M630.31,-28.38C669.86,-35.92 716.79,-50.67 750,-79.5 804.21,-126.57 824.87,-217.07 830.37,-246.78"/>
<polygon fill="#9a32cd" stroke="#9a32cd" points="631.05,-24.96 620.59,-26.66 629.83,-31.85 631.05,-24.96"/>
<text text-anchor="middle" x="695.5" y="-82.5" font-family="Helvetica,sans-Serif" font-size="10.00"> default_handlers_</text>
</g>
<!-- Node23 -->
<g id="node23" class="node">
<title>Node23</title>
<g id="a_node23"><a xlink:title=" ">
<polygon fill="white" stroke="#666666" points="383.5,-35.5 282.5,-35.5 282.5,-5.5 383.5,-5.5 383.5,-35.5"/>
<text text-anchor="start" x="290.5" y="-23.5" font-family="Helvetica,sans-Serif" font-size="10.00">std::vector&lt; handler</text>
<text text-anchor="middle" x="333" y="-12.5" font-family="Helvetica,sans-Serif" font-size="10.00">_tuple &gt;</text>
</a>
</g>
</g>
<!-- Node23&#45;&gt;Node22 -->
<g id="edge24" class="edge">
<title>Node23&#45;&gt;Node22</title>
<path fill="none" stroke="#9a32cd" stroke-dasharray="5,2" d="M395,-20.5C423.81,-20.5 458.22,-20.5 487.51,-20.5"/>
<polygon fill="#9a32cd" stroke="#9a32cd" points="395.37,-17 385.37,-20.5 395.37,-24 395.37,-17"/>
<text text-anchor="middle" x="444.5" y="-23.5" font-family="Helvetica,sans-Serif" font-size="10.00"> elements</text>
</g>
</g>
</svg>
