<?xml version="1.0" encoding="UTF-8" standalone="no"?>
<!DOCTYPE svg PUBLIC "-//W3C//DTD SVG 1.1//EN"
 "http://www.w3.org/Graphics/SVG/1.1/DTD/svg11.dtd">
<!-- Generated by graphviz version 7.0.5 (20221223.1930)
 -->
<!-- Title: weaver::PacketDispatcher Pages: 1 -->
<!--zoomable 461 -->
<svg id="main" version="1.1" xmlns="http://www.w3.org/2000/svg" xmlns:xlink="http://www.w3.org/1999/xlink" xml:space="preserve" onload="init(evt)">
<style type="text/css"><![CDATA[
.edge:hover path { stroke: red; }
.edge:hover polygon { stroke: red; fill: red; }
]]></style>
<script type="text/javascript"><![CDATA[
var edges = document.getElementsByTagName('g');
if (edges && edges.length) {
  for (var i=0;i<edges.length;i++) {
    if (edges[i].id.substr(0,4)=='edge') {
      edges[i].setAttribute('class','edge');
    }
  }
}
]]></script>
        <defs>
                <circle id="rim" cx="0" cy="0" r="7"/>
                <circle id="rim2" cx="0" cy="0" r="3.5"/>
                <g id="zoomPlus">
                        <use xlink:href="#rim" fill="#404040">
                                <set attributeName="fill" to="#808080" begin="zoomplus.mouseover" end="zoomplus.mouseout"/>
                        </use>
                        <path d="M-4,0h8M0,-4v8" fill="none" stroke="white" stroke-width="1.5" pointer-events="none"/>
                </g>
                <g id="zoomMin">
                        <use xlink:href="#rim" fill="#404040">
                                <set attributeName="fill" to="#808080" begin="zoomminus.mouseover" end="zoomminus.mouseout"/>
                        </use>
                        <path d="M-4,0h8" fill="none" stroke="white" stroke-width="1.5" pointer-events="none"/>
                </g>
                <g id="dirArrow">
                        <path fill="none" stroke="white" stroke-width="1.5" d="M0,-3.0v7 M-2.5,-0.5L0,-3.0L2.5,-0.5"/>
                </g>
               <g id="resetDef">
                       <use xlink:href="#rim2" fill="#404040">
                               <set attributeName="fill" to="#808080" begin="reset.mouseover" end="reset.mouseout"/>
                       </use>
               </g>
        </defs>

<script type="text/javascript">
var viewWidth = 903;
var viewHeight = 461;
var sectionId = 'dynsection-0';
</script>
<script xlink:href="../../svgpan.js"/>
<svg id="graph" class="graph">
<g id="viewport">
<title>weaver::PacketDispatcher</title>
<!-- Node1 -->
<g id="node1" class="node">
<title>Node1</title>
<g id="a_node1"><a xlink:title="The PacketDispatcher class is responsible for managing packet dispatching and handling.">
<polygon fill="#999999" stroke="#666666" points="895,-236 765,-236 765,-217 895,-217 895,-236"/>
<text text-anchor="middle" x="830" y="-224" font-family="Helvetica,sans-Serif" font-size="10.00">weaver::PacketDispatcher</text>
</a>
</g>
</g>
<!-- Node2 -->
<g id="node2" class="node">
<title>Node2</title>
<g id="a_node2"><a xlink:title=" ">
<polygon fill="white" stroke="#666666" points="405,-396 261,-396 261,-377 405,-377 405,-396"/>
<text text-anchor="middle" x="333" y="-384" font-family="Helvetica,sans-Serif" font-size="10.00">std::vector&lt; BasePacketPtr &gt;</text>
</a>
</g>
</g>
<!-- Node2&#45;&gt;Node1 -->
<g id="edge1" class="edge">
<title>Node2&#45;&gt;Node1</title>
<path fill="none" stroke="#9a32cd" stroke-dasharray="5,2" d="M373.57,-399.77C454.17,-424.06 638.87,-465.38 747,-375.5 794,-336.43 818.61,-263.12 826.3,-236.49"/>
<polygon fill="#9a32cd" stroke="#9a32cd" points="374.94,-396.53 364.36,-396.92 372.87,-403.22 374.94,-396.53"/>
<text text-anchor="start" x="504.5" y="-444.5" font-family="Helvetica,sans-Serif" font-size="10.00"> unprocessed_packets</text>
<text text-anchor="middle" x="553.5" y="-433.5" font-family="Helvetica,sans-Serif" font-size="10.00">_input_</text>
</g>
<!-- Node8 -->
<g id="node8" class="node">
<title>Node8</title>
<g id="a_node8"><a xlink:title=" ">
<polygon fill="white" stroke="#666666" points="623,-407 484,-407 484,-366 623,-366 623,-407"/>
<text text-anchor="start" x="492" y="-395" font-family="Helvetica,sans-Serif" font-size="10.00">std::unordered_map</text>
<text text-anchor="start" x="492" y="-384" font-family="Helvetica,sans-Serif" font-size="10.00">&lt; UniquePacketID, std</text>
<text text-anchor="middle" x="553.5" y="-373" font-family="Helvetica,sans-Serif" font-size="10.00">::vector&lt; BasePacketPtr &gt; &gt;</text>
</a>
</g>
</g>
<!-- Node2&#45;&gt;Node8 -->
<g id="edge8" class="edge">
<title>Node2&#45;&gt;Node8</title>
<path fill="none" stroke="#9a32cd" stroke-dasharray="5,2" d="M416.63,-386.5C438.71,-386.5 462.33,-386.5 483.59,-386.5"/>
<polygon fill="#9a32cd" stroke="#9a32cd" points="416.76,-383 406.76,-386.5 416.76,-390 416.76,-383"/>
<text text-anchor="middle" x="444.5" y="-389.5" font-family="Helvetica,sans-Serif" font-size="10.00"> elements</text>
</g>
<!-- Node3 -->
<g id="node3" class="node">
<title>Node3</title>
<g id="a_node3"><a xlink:title=" ">
<polygon fill="white" stroke="#666666" points="181.5,-394 79.5,-394 79.5,-375 181.5,-375 181.5,-394"/>
<text text-anchor="middle" x="130.5" y="-382" font-family="Helvetica,sans-Serif" font-size="10.00">std::unique_ptr&lt; T &gt;</text>
</a>
</g>
</g>
<!-- Node3&#45;&gt;Node2 -->
<g id="edge2" class="edge">
<title>Node3&#45;&gt;Node2</title>
<path fill="none" stroke="#9a32cd" stroke-dasharray="5,2" d="M193.08,-385.11C214.49,-385.33 238.68,-385.57 260.81,-385.79"/>
<polygon fill="#9a32cd" stroke="#9a32cd" points="193.38,-381.62 183.35,-385.02 193.31,-388.62 193.38,-381.62"/>
<text text-anchor="middle" x="221.5" y="-388.5" font-family="Helvetica,sans-Serif" font-size="10.00"> elements</text>
</g>
<!-- Node4 -->
<g id="node4" class="node">
<title>Node4</title>
<g id="a_node4"><a xlink:title=" ">
<polygon fill="white" stroke="#666666" points="29,-373 0,-373 0,-354 29,-354 29,-373"/>
<text text-anchor="middle" x="14.5" y="-361" font-family="Helvetica,sans-Serif" font-size="10.00">T</text>
</a>
</g>
</g>
<!-- Node4&#45;&gt;Node3 -->
<g id="edge3" class="edge">
<title>Node4&#45;&gt;Node3</title>
<path fill="none" stroke="#9a32cd" stroke-dasharray="5,2" d="M40.68,-368.14C52.03,-370.23 65.86,-372.78 79.19,-375.23"/>
<polygon fill="#9a32cd" stroke="#9a32cd" points="41.44,-364.72 30.97,-366.35 40.17,-371.6 41.44,-364.72"/>
<text text-anchor="middle" x="54" y="-374.5" font-family="Helvetica,sans-Serif" font-size="10.00"> ptr</text>
</g>
<!-- Node11 -->
<g id="node11" class="node">
<title>Node11</title>
<g id="a_node11"><a xlink:title=" ">
<polygon fill="white" stroke="#666666" points="182,-355 79,-355 79,-336 182,-336 182,-355"/>
<text text-anchor="middle" x="130.5" y="-343" font-family="Helvetica,sans-Serif" font-size="10.00">std::shared_ptr&lt; T &gt;</text>
</a>
</g>
</g>
<!-- Node4&#45;&gt;Node11 -->
<g id="edge12" class="edge">
<title>Node4&#45;&gt;Node11</title>
<path fill="none" stroke="#9a32cd" stroke-dasharray="5,2" d="M39.93,-350.71C42.28,-349.83 44.66,-349.07 47,-348.5 57.16,-346.01 68.24,-344.69 78.88,-344.09"/>
<polygon fill="#9a32cd" stroke="#9a32cd" points="38.58,-347.48 30.85,-354.73 41.41,-353.88 38.58,-347.48"/>
<text text-anchor="middle" x="54" y="-351.5" font-family="Helvetica,sans-Serif" font-size="10.00"> ptr</text>
</g>
<!-- Node5 -->
<g id="node5" class="node">
<title>Node5</title>
<g id="a_node5"><a xlink:title=" ">
<polygon fill="white" stroke="#666666" points="619,-277 488,-277 488,-236 619,-236 619,-277"/>
<text text-anchor="start" x="496" y="-265" font-family="Helvetica,sans-Serif" font-size="10.00">std::vector&lt; std::pair</text>
<text text-anchor="start" x="496" y="-254" font-family="Helvetica,sans-Serif" font-size="10.00">&lt; UniquePacketID, shared</text>
<text text-anchor="middle" x="553.5" y="-243" font-family="Helvetica,sans-Serif" font-size="10.00">_packet_promise &gt; &gt;</text>
</a>
</g>
</g>
<!-- Node5&#45;&gt;Node1 -->
<g id="edge4" class="edge">
<title>Node5&#45;&gt;Node1</title>
<path fill="none" stroke="#9a32cd" stroke-dasharray="5,2" d="M630.54,-248.19C672.72,-243.58 724.6,-237.91 764.73,-233.52"/>
<polygon fill="#9a32cd" stroke="#9a32cd" points="630.27,-244.7 620.71,-249.26 631.03,-251.66 630.27,-244.7"/>
<text text-anchor="middle" x="694" y="-249.5" font-family="Helvetica,sans-Serif" font-size="10.00"> promise_map_input_</text>
</g>
<!-- Node6 -->
<g id="node6" class="node">
<title>Node6</title>
<g id="a_node6"><a xlink:title=" ">
<polygon fill="white" stroke="#666666" points="621.5,-218 485.5,-218 485.5,-177 621.5,-177 621.5,-218"/>
<text text-anchor="start" x="493.5" y="-206" font-family="Helvetica,sans-Serif" font-size="10.00">std::vector&lt; std::pair</text>
<text text-anchor="start" x="493.5" y="-195" font-family="Helvetica,sans-Serif" font-size="10.00">&lt; UniquePacketID, promise</text>
<text text-anchor="middle" x="553.5" y="-184" font-family="Helvetica,sans-Serif" font-size="10.00">_filter &gt; &gt;</text>
</a>
</g>
</g>
<!-- Node6&#45;&gt;Node1 -->
<g id="edge5" class="edge">
<title>Node6&#45;&gt;Node1</title>
<path fill="none" stroke="#9a32cd" stroke-dasharray="5,2" d="M633.02,-201.99C667.99,-204.41 709.63,-207.86 747,-212.5 756.03,-213.62 765.58,-215.04 774.85,-216.54"/>
<polygon fill="#9a32cd" stroke="#9a32cd" points="633.64,-198.52 623.42,-201.34 633.16,-205.51 633.64,-198.52"/>
<text text-anchor="start" x="651.5" y="-226.5" font-family="Helvetica,sans-Serif" font-size="10.00"> promise_filter_map</text>
<text text-anchor="middle" x="694" y="-215.5" font-family="Helvetica,sans-Serif" font-size="10.00">_input_</text>
</g>
<!-- Node7 -->
<g id="node7" class="node">
<title>Node7</title>
<g id="a_node7"><a xlink:title=" ">
<polygon fill="white" stroke="#666666" points="620,-159 487,-159 487,-118 620,-118 620,-159"/>
<text text-anchor="start" x="495" y="-147" font-family="Helvetica,sans-Serif" font-size="10.00">std::vector&lt; std::pair</text>
<text text-anchor="start" x="495" y="-136" font-family="Helvetica,sans-Serif" font-size="10.00">&lt; UniquePacketID, handler</text>
<text text-anchor="middle" x="553.5" y="-125" font-family="Helvetica,sans-Serif" font-size="10.00">_tuple &gt; &gt;</text>
</a>
</g>
</g>
<!-- Node7&#45;&gt;Node1 -->
<g id="edge6" class="edge">
<title>Node7&#45;&gt;Node1</title>
<path fill="none" stroke="#9a32cd" stroke-dasharray="5,2" d="M631.33,-154.44C667,-162.75 709.67,-174.02 747,-187.5 769.68,-195.69 794.54,-208.02 810.88,-216.62"/>
<polygon fill="#9a32cd" stroke="#9a32cd" points="632.5,-151.12 621.97,-152.29 630.94,-157.94 632.5,-151.12"/>
<text text-anchor="middle" x="694" y="-190.5" font-family="Helvetica,sans-Serif" font-size="10.00"> default_handlers_input_</text>
</g>
<!-- Node8&#45;&gt;Node1 -->
<g id="edge7" class="edge">
<title>Node8&#45;&gt;Node1</title>
<path fill="none" stroke="#9a32cd" stroke-dasharray="5,2" d="M633.92,-363.59C670.15,-351.08 712.55,-333.4 747,-310.5 779.08,-289.17 808.48,-253.55 821.68,-236.37"/>
<polygon fill="#9a32cd" stroke="#9a32cd" points="633.17,-360.15 624.82,-366.67 635.41,-366.78 633.17,-360.15"/>
<text text-anchor="middle" x="694" y="-363.5" font-family="Helvetica,sans-Serif" font-size="10.00"> unprocessed_packets_</text>
</g>
<!-- Node9 -->
<g id="node9" class="node">
<title>Node9</title>
<g id="a_node9"><a xlink:title=" ">
<polygon fill="white" stroke="#666666" points="613,-347.5 494,-347.5 494,-295.5 613,-295.5 613,-347.5"/>
<text text-anchor="start" x="502" y="-335.5" font-family="Helvetica,sans-Serif" font-size="10.00">std::unordered_map</text>
<text text-anchor="start" x="502" y="-324.5" font-family="Helvetica,sans-Serif" font-size="10.00">&lt; UniquePacketID, std</text>
<text text-anchor="start" x="502" y="-313.5" font-family="Helvetica,sans-Serif" font-size="10.00">::deque&lt; shared_packet</text>
<text text-anchor="middle" x="553.5" y="-302.5" font-family="Helvetica,sans-Serif" font-size="10.00">_promise &gt; &gt;</text>
</a>
</g>
</g>
<!-- Node9&#45;&gt;Node1 -->
<g id="edge9" class="edge">
<title>Node9&#45;&gt;Node1</title>
<path fill="none" stroke="#9a32cd" stroke-dasharray="5,2" d="M623.78,-301.75C660.67,-290.78 706.64,-276.36 747,-261.5 767.77,-253.85 790.92,-243.83 807.32,-236.47"/>
<polygon fill="#9a32cd" stroke="#9a32cd" points="623.19,-298.28 614.59,-304.47 625.17,-304.99 623.19,-298.28"/>
<text text-anchor="middle" x="694" y="-298.5" font-family="Helvetica,sans-Serif" font-size="10.00"> promise_map_</text>
</g>
<!-- Node10 -->
<g id="node10" class="node">
<title>Node10</title>
<g id="a_node10"><a xlink:title=" ">
<polygon fill="white" stroke="#666666" points="382.5,-348.5 283.5,-348.5 283.5,-318.5 382.5,-318.5 382.5,-348.5"/>
<text text-anchor="start" x="291.5" y="-336.5" font-family="Helvetica,sans-Serif" font-size="10.00">std::deque&lt; shared</text>
<text text-anchor="middle" x="333" y="-325.5" font-family="Helvetica,sans-Serif" font-size="10.00">_packet_promise &gt;</text>
</a>
</g>
</g>
<!-- Node10&#45;&gt;Node9 -->
<g id="edge10" class="edge">
<title>Node10&#45;&gt;Node9</title>
<path fill="none" stroke="#9a32cd" stroke-dasharray="5,2" d="M393.89,-330.21C424.99,-328.5 462.86,-326.42 493.79,-324.72"/>
<polygon fill="#9a32cd" stroke="#9a32cd" points="394.07,-326.7 384.27,-330.74 394.45,-333.69 394.07,-326.7"/>
<text text-anchor="middle" x="444.5" y="-331.5" font-family="Helvetica,sans-Serif" font-size="10.00"> elements</text>
</g>
<!-- Node11&#45;&gt;Node10 -->
<g id="edge11" class="edge">
<title>Node11&#45;&gt;Node10</title>
<path fill="none" stroke="#9a32cd" stroke-dasharray="5,2" d="M193.56,-341.79C222.44,-340.06 256.28,-338.03 283.28,-336.42"/>
<polygon fill="#9a32cd" stroke="#9a32cd" points="193.64,-338.27 183.86,-342.37 194.06,-345.26 193.64,-338.27"/>
<text text-anchor="middle" x="221.5" y="-343.5" font-family="Helvetica,sans-Serif" font-size="10.00"> elements</text>
</g>
<!-- Node12 -->
<g id="node12" class="node">
<title>Node12</title>
<g id="a_node12"><a xlink:title=" ">
<polygon fill="white" stroke="#666666" points="619,-100 488,-100 488,-59 619,-59 619,-100"/>
<text text-anchor="start" x="496" y="-88" font-family="Helvetica,sans-Serif" font-size="10.00">std::unordered_map</text>
<text text-anchor="start" x="496" y="-77" font-family="Helvetica,sans-Serif" font-size="10.00">&lt; UniquePacketID, std</text>
<text text-anchor="middle" x="553.5" y="-66" font-family="Helvetica,sans-Serif" font-size="10.00">::vector&lt; promise_filter &gt; &gt;</text>
</a>
</g>
</g>
<!-- Node12&#45;&gt;Node1 -->
<g id="edge13" class="edge">
<title>Node12&#45;&gt;Node1</title>
<path fill="none" stroke="#9a32cd" stroke-dasharray="5,2" d="M630.21,-94.72C667.29,-104.39 711.48,-119.35 747,-141.5 780.06,-162.11 809.22,-198.95 822.05,-216.57"/>
<polygon fill="#9a32cd" stroke="#9a32cd" points="631.47,-91.43 620.92,-92.38 629.76,-98.21 631.47,-91.43"/>
<text text-anchor="middle" x="694" y="-144.5" font-family="Helvetica,sans-Serif" font-size="10.00"> promise_filter_map_</text>
</g>
<!-- Node13 -->
<g id="node13" class="node">
<title>Node13</title>
<g id="a_node13"><a xlink:title=" ">
<polygon fill="white" stroke="#666666" points="385,-94.5 281,-94.5 281,-64.5 385,-64.5 385,-94.5"/>
<text text-anchor="start" x="289" y="-82.5" font-family="Helvetica,sans-Serif" font-size="10.00">std::vector&lt; promise</text>
<text text-anchor="middle" x="333" y="-71.5" font-family="Helvetica,sans-Serif" font-size="10.00">_filter &gt;</text>
</a>
</g>
</g>
<!-- Node13&#45;&gt;Node12 -->
<g id="edge14" class="edge">
<title>Node13&#45;&gt;Node12</title>
<path fill="none" stroke="#9a32cd" stroke-dasharray="5,2" d="M396.71,-79.5C425.29,-79.5 459.08,-79.5 487.88,-79.5"/>
<polygon fill="#9a32cd" stroke="#9a32cd" points="396.74,-76 386.74,-79.5 396.74,-83 396.74,-76"/>
<text text-anchor="middle" x="444.5" y="-82.5" font-family="Helvetica,sans-Serif" font-size="10.00"> elements</text>
</g>
<!-- Node14 -->
<g id="node14" class="node">
<title>Node14</title>
<g id="a_node14"><a xlink:title=" ">
<polygon fill="white" stroke="#666666" points="619,-41 488,-41 488,0 619,0 619,-41"/>
<text text-anchor="start" x="496" y="-29" font-family="Helvetica,sans-Serif" font-size="10.00">std::unordered_map</text>
<text text-anchor="start" x="496" y="-18" font-family="Helvetica,sans-Serif" font-size="10.00">&lt; UniquePacketID, std</text>
<text text-anchor="middle" x="553.5" y="-7" font-family="Helvetica,sans-Serif" font-size="10.00">::vector&lt; handler_tuple &gt; &gt;</text>
</a>
</g>
</g>
<!-- Node14&#45;&gt;Node1 -->
<g id="edge15" class="edge">
<title>Node14&#45;&gt;Node1</title>
<path fill="none" stroke="#9a32cd" stroke-dasharray="5,2" d="M630.22,-31.48C668.51,-40.15 713.77,-55.5 747,-82.5 793.22,-120.06 818.31,-191.03 826.22,-216.82"/>
<polygon fill="#9a32cd" stroke="#9a32cd" points="631.1,-28.09 620.59,-29.42 629.64,-34.94 631.1,-28.09"/>
<text text-anchor="middle" x="694" y="-85.5" font-family="Helvetica,sans-Serif" font-size="10.00"> default_handlers_</text>
</g>
<!-- Node15 -->
<g id="node15" class="node">
<title>Node15</title>
<g id="a_node15"><a xlink:title=" ">
<polygon fill="white" stroke="#666666" points="383.5,-35.5 282.5,-35.5 282.5,-5.5 383.5,-5.5 383.5,-35.5"/>
<text text-anchor="start" x="290.5" y="-23.5" font-family="Helvetica,sans-Serif" font-size="10.00">std::vector&lt; handler</text>
<text text-anchor="middle" x="333" y="-12.5" font-family="Helvetica,sans-Serif" font-size="10.00">_tuple &gt;</text>
</a>
</g>
</g>
<!-- Node15&#45;&gt;Node14 -->
<g id="edge16" class="edge">
<title>Node15&#45;&gt;Node14</title>
<path fill="none" stroke="#9a32cd" stroke-dasharray="5,2" d="M395,-20.5C423.81,-20.5 458.22,-20.5 487.51,-20.5"/>
<polygon fill="#9a32cd" stroke="#9a32cd" points="395.37,-17 385.37,-20.5 395.37,-24 395.37,-17"/>
<text text-anchor="middle" x="444.5" y="-23.5" font-family="Helvetica,sans-Serif" font-size="10.00"> elements</text>
</g>
</g>
</svg>
        <g id="navigator" transform="translate(0 0)" fill="#404254">
                <rect fill="#f2f5e9" fill-opacity="0.5" stroke="#606060" stroke-width=".5" x="0" y="0" width="60" height="60"/>
                <use id="zoomplus" xlink:href="#zoomPlus" x="17" y="9" onmousedown="handleZoom(evt,'in')"/>
                <use id="zoomminus" xlink:href="#zoomMin" x="42" y="9" onmousedown="handleZoom(evt,'out')"/>
                <use id="reset" xlink:href="#resetDef" x="30" y="36" onmousedown="handleReset()"/>
                <g id="arrowUp" xlink:href="#dirArrow" transform="translate(30 24)" onmousedown="handlePan(0,-1)">
                  <use xlink:href="#rim" fill="#404040">
                        <set attributeName="fill" to="#808080" begin="arrowUp.mouseover" end="arrowUp.mouseout"/>
                  </use>
                  <path fill="none" stroke="white" stroke-width="1.5" d="M0,-3.0v7 M-2.5,-0.5L0,-3.0L2.5,-0.5"/>
                </g>
                <g id="arrowRight" xlink:href="#dirArrow" transform="rotate(90) translate(36 -43)" onmousedown="handlePan(1,0)">
                  <use xlink:href="#rim" fill="#404040">
                        <set attributeName="fill" to="#808080" begin="arrowRight.mouseover" end="arrowRight.mouseout"/>
                  </use>
                  <path fill="none" stroke="white" stroke-width="1.5" d="M0,-3.0v7 M-2.5,-0.5L0,-3.0L2.5,-0.5"/>
                </g>
                <g id="arrowDown" xlink:href="#dirArrow" transform="rotate(180) translate(-30 -48)" onmousedown="handlePan(0,1)">
                  <use xlink:href="#rim" fill="#404040">
                        <set attributeName="fill" to="#808080" begin="arrowDown.mouseover" end="arrowDown.mouseout"/>
                  </use>
                  <path fill="none" stroke="white" stroke-width="1.5" d="M0,-3.0v7 M-2.5,-0.5L0,-3.0L2.5,-0.5"/>
                </g>
                <g id="arrowLeft" xlink:href="#dirArrow" transform="rotate(270) translate(-36 17)" onmousedown="handlePan(-1,0)">
                  <use xlink:href="#rim" fill="#404040">
                        <set attributeName="fill" to="#808080" begin="arrowLeft.mouseover" end="arrowLeft.mouseout"/>
                  </use>
                  <path fill="none" stroke="white" stroke-width="1.5" d="M0,-3.0v7 M-2.5,-0.5L0,-3.0L2.5,-0.5"/>
                </g>
        </g>
        <svg viewBox="0 0 15 15" width="100%" height="30px" preserveAspectRatio="xMaxYMin meet">
         <g id="arrow_out" transform="scale(0.3 0.3)">
          <a xlink:href="classweaver_1_1_packet_dispatcher__coll__graph_org.svg" target="_base">
           <rect id="button" ry="5" rx="5" y="6" x="6" height="38" width="38"
                fill="#f2f5e9" fill-opacity="0.5" stroke="#606060" stroke-width="1.0"/>
           <path id="arrow"
             d="M 11.500037,31.436501 C 11.940474,20.09759 22.043105,11.32322 32.158766,21.979434 L 37.068811,17.246167 C 37.068811,17.246167 37.088388,32 37.088388,32 L 22.160133,31.978069 C 22.160133,31.978069 26.997745,27.140456 26.997745,27.140456 C 18.528582,18.264221 13.291696,25.230495 11.500037,31.436501 z"
             style="fill:#404040;"/>
          </a>
         </g>
        </svg>
</svg>
