<?xml version="1.0" encoding="UTF-8" standalone="no"?>
<!DOCTYPE svg PUBLIC "-//W3C//DTD SVG 1.1//EN"
 "http://www.w3.org/Graphics/SVG/1.1/DTD/svg11.dtd">
<!-- Generated by graphviz version 9.0.0 (20230911.1827)
 -->
<!-- Title: mal&#45;packet&#45;weaver/mal&#45;packet&#45;weaver/crypto/openssl/sha.hpp Pages: 1 -->
<svg width="410pt" height="338pt"
 viewBox="0.00 0.00 409.62 338.25" xmlns="http://www.w3.org/2000/svg" xmlns:xlink="http://www.w3.org/1999/xlink">

<svg id="main" version="1.1" xmlns="http://www.w3.org/2000/svg" xmlns:xlink="http://www.w3.org/1999/xlink" xml:space="preserve" onload="init(evt)">
<style type="text/css"><![CDATA[
.node, .edge {opacity: 0.7;}
.node.selected, .edge.selected {opacity: 1;}
.edge:hover path { stroke: red; }
.edge:hover polygon { stroke: red; fill: red; }
]]></style>
<script type="application/ecmascript" xlink:href="../../svg.min.js"/>
<svg id="graph" class="graph">
<g id="graph0" class="graph" transform="scale(1 1) rotate(0) translate(4 334.25)">
<title>mal&#45;packet&#45;weaver/mal&#45;packet&#45;weaver/crypto/openssl/sha.hpp</title>
<!-- Node1 -->
<g id="Node000001" class="node">
<title>Node1</title>
<g id="a_Node000001"><a xlink:title=" ">
<polygon fill="#999999" stroke="#666666" points="325.62,-330.25 218.12,-330.25 218.12,-288.5 325.62,-288.5 325.62,-330.25"/>
<text text-anchor="start" x="226.12" y="-316.75" font-family="Times,serif" font-size="10.00">mal&#45;packet&#45;weaver/mal</text>
<text text-anchor="start" x="226.12" y="-305.5" font-family="Times,serif" font-size="10.00">&#45;packet&#45;weaver/crypto</text>
<text text-anchor="middle" x="271.88" y="-294.25" font-family="Times,serif" font-size="10.00">/openssl/sha.hpp</text>
</a>
</g>
</g>
<!-- Node2 -->
<g id="Node000002" class="node">
<title>Node2</title>
<g id="a_Node000002"><a xlink:href="../../d2/d62/crypto_8hpp.html" target="_top" xlink:title=" ">
<polygon fill="white" stroke="#666666" points="333.5,-174.75 210.25,-174.75 210.25,-144.25 333.5,-144.25 333.5,-174.75"/>
<text text-anchor="start" x="218.25" y="-161.25" font-family="Times,serif" font-size="10.00">mal&#45;packet&#45;weaver/mal</text>
<text text-anchor="middle" x="271.88" y="-150" font-family="Times,serif" font-size="10.00">&#45;packet&#45;weaver/crypto.hpp</text>
</a>
</g>
</g>
<!-- Node1&#45;&gt;Node2 -->
<g id="edge1_Node000001_Node000002" class="edge">
<title>Node1&#45;&gt;Node2</title>
<g id="a_edge1_Node000001_Node000002"><a xlink:title=" ">
<path fill="none" stroke="#63b8ff" d="M257.47,-277.81C254.33,-269.76 251.48,-260.95 249.88,-252.5 246.42,-234.27 246.07,-228.91 249.88,-210.75 252.53,-198.07 258.57,-184.68 263.65,-174.92"/>
<polygon fill="#63b8ff" stroke="#63b8ff" points="254.15,-278.96 261.24,-286.83 260.61,-276.26 254.15,-278.96"/>
</a>
</g>
</g>
<!-- Node7 -->
<g id="Node000007" class="node">
<title>Node7</title>
<g id="a_Node000007"><a xlink:href="../../d4/d28/ecdsa_8hpp.html" target="_top" xlink:title=" ">
<polygon fill="white" stroke="#666666" points="366.62,-252.5 259.12,-252.5 259.12,-210.75 366.62,-210.75 366.62,-252.5"/>
<text text-anchor="start" x="267.12" y="-239" font-family="Times,serif" font-size="10.00">mal&#45;packet&#45;weaver/mal</text>
<text text-anchor="start" x="267.12" y="-227.75" font-family="Times,serif" font-size="10.00">&#45;packet&#45;weaver/crypto</text>
<text text-anchor="middle" x="312.88" y="-216.5" font-family="Times,serif" font-size="10.00">/openssl/ecdsa.hpp</text>
</a>
</g>
</g>
<!-- Node1&#45;&gt;Node7 -->
<g id="edge7_Node000001_Node000007" class="edge">
<title>Node1&#45;&gt;Node7</title>
<g id="a_edge7_Node000001_Node000007"><a xlink:title=" ">
<path fill="none" stroke="#63b8ff" d="M288.24,-278.15C292.81,-269.7 297.67,-260.71 301.86,-252.98"/>
<polygon fill="#63b8ff" stroke="#63b8ff" points="285.26,-276.28 283.58,-286.74 291.42,-279.62 285.26,-276.28"/>
</a>
</g>
</g>
<!-- Node3 -->
<g id="Node000003" class="node">
<title>Node3</title>
<g id="a_Node000003"><a xlink:href="../../d4/d5e/session_8hpp.html" target="_top" xlink:title=" ">
<polygon fill="white" stroke="#666666" points="334.25,-108.25 209.5,-108.25 209.5,-77.75 334.25,-77.75 334.25,-108.25"/>
<text text-anchor="start" x="217.5" y="-94.75" font-family="Times,serif" font-size="10.00">mal&#45;packet&#45;weaver/mal</text>
<text text-anchor="middle" x="271.88" y="-83.5" font-family="Times,serif" font-size="10.00">&#45;packet&#45;weaver/session.hpp</text>
</a>
</g>
</g>
<!-- Node2&#45;&gt;Node3 -->
<g id="edge2_Node000002_Node000003" class="edge">
<title>Node2&#45;&gt;Node3</title>
<g id="a_edge2_Node000002_Node000003"><a xlink:title=" ">
<path fill="none" stroke="#63b8ff" d="M271.88,-132.56C271.88,-124.39 271.88,-115.66 271.88,-108.58"/>
<polygon fill="#63b8ff" stroke="#63b8ff" points="268.38,-132.35 271.88,-142.35 275.38,-132.35 268.38,-132.35"/>
</a>
</g>
</g>
<!-- Node4 -->
<g id="Node000004" class="node">
<title>Node4</title>
<g id="a_Node000004"><a xlink:href="../../de/d5c/dispatcher-session_8hpp.html" target="_top" xlink:title=" ">
<polygon fill="white" stroke="#666666" points="121.75,-41.75 0,-41.75 0,0 121.75,0 121.75,-41.75"/>
<text text-anchor="start" x="8" y="-28.25" font-family="Times,serif" font-size="10.00">mal&#45;packet&#45;weaver/mal</text>
<text text-anchor="start" x="8" y="-17" font-family="Times,serif" font-size="10.00">&#45;packet&#45;weaver/dispatcher</text>
<text text-anchor="middle" x="60.88" y="-5.75" font-family="Times,serif" font-size="10.00">&#45;session.hpp</text>
</a>
</g>
</g>
<!-- Node3&#45;&gt;Node4 -->
<g id="edge3_Node000003_Node000004" class="edge">
<title>Node3&#45;&gt;Node4</title>
<g id="a_edge3_Node000003_Node000004"><a xlink:title=" ">
<path fill="none" stroke="#63b8ff" d="M216.83,-73.71C187.69,-64.02 151.84,-52.11 121.85,-42.14"/>
<polygon fill="#63b8ff" stroke="#63b8ff" points="215.61,-76.99 226.21,-76.82 217.82,-70.35 215.61,-76.99"/>
</a>
</g>
</g>
<!-- Node5 -->
<g id="Node000005" class="node">
<title>Node5</title>
<g id="a_Node000005"><a xlink:href="../../d9/d1a/session_8cpp.html" target="_top" xlink:title=" ">
<polygon fill="white" stroke="#666666" points="263.88,-36.12 139.88,-36.12 139.88,-5.62 263.88,-5.62 263.88,-36.12"/>
<text text-anchor="start" x="147.88" y="-22.62" font-family="Times,serif" font-size="10.00">mal&#45;packet&#45;weaver/mal</text>
<text text-anchor="middle" x="201.88" y="-11.38" font-family="Times,serif" font-size="10.00">&#45;packet&#45;weaver/session.cpp</text>
</a>
</g>
</g>
<!-- Node3&#45;&gt;Node5 -->
<g id="edge4_Node000003_Node000005" class="edge">
<title>Node3&#45;&gt;Node5</title>
<g id="a_edge4_Node000003_Node000005"><a xlink:title=" ">
<path fill="none" stroke="#63b8ff" d="M249.52,-69.6C238.66,-58.73 225.93,-45.97 216.36,-36.39"/>
<polygon fill="#63b8ff" stroke="#63b8ff" points="246.76,-71.79 256.3,-76.4 251.71,-66.85 246.76,-71.79"/>
</a>
</g>
</g>
<!-- Node6 -->
<g id="Node000006" class="node">
<title>Node6</title>
<g id="a_Node000006"><a xlink:href="../../d1/d16/session_8inl.html" target="_top" xlink:title=" ">
<polygon fill="white" stroke="#666666" points="401.62,-36.12 282.12,-36.12 282.12,-5.62 401.62,-5.62 401.62,-36.12"/>
<text text-anchor="start" x="290.12" y="-22.62" font-family="Times,serif" font-size="10.00">mal&#45;packet&#45;weaver/mal</text>
<text text-anchor="middle" x="341.88" y="-11.38" font-family="Times,serif" font-size="10.00">&#45;packet&#45;weaver/session.inl</text>
</a>
</g>
</g>
<!-- Node3&#45;&gt;Node6 -->
<g id="edge5_Node000003_Node000006" class="edge">
<title>Node3&#45;&gt;Node6</title>
<g id="a_edge5_Node000003_Node000006"><a xlink:title=" ">
<path fill="none" stroke="#63b8ff" d="M288.49,-68.96C298.52,-58.23 311.21,-45.78 321.8,-36.39"/>
<polygon fill="#63b8ff" stroke="#63b8ff" points="285.92,-66.59 281.8,-76.35 291.11,-71.28 285.92,-66.59"/>
</a>
</g>
</g>
<!-- Node6&#45;&gt;Node3 -->
<g id="edge6_Node000006_Node000003" class="edge">
<title>Node6&#45;&gt;Node3</title>
<g id="a_edge6_Node000006_Node000003"><a xlink:title=" ">
<path fill="none" stroke="#63b8ff" d="M325.28,-44.89C315.25,-55.62 302.56,-68.07 291.97,-77.47"/>
<polygon fill="#63b8ff" stroke="#63b8ff" points="327.85,-47.27 331.96,-37.51 322.66,-42.57 327.85,-47.27"/>
</a>
</g>
</g>
<!-- Node7&#45;&gt;Node2 -->
<g id="edge8_Node000007_Node000002" class="edge">
<title>Node7&#45;&gt;Node2</title>
<g id="a_edge8_Node000007_Node000002"><a xlink:title=" ">
<path fill="none" stroke="#63b8ff" d="M295.33,-200.61C290.13,-191.72 284.67,-182.38 280.32,-174.95"/>
<polygon fill="#63b8ff" stroke="#63b8ff" points="292.18,-202.17 300.25,-209.04 298.23,-198.64 292.18,-202.17"/>
</a>
</g>
</g>
</g>
</svg>
</svg>

<style type='text/css'>
<![CDATA[
[data-mouse-over-selected='false'] { opacity: 0.7; }
[data-mouse-over-selected='true']  { opacity: 1.0; }
]]>
</style>
<script type="application/ecmascript"><![CDATA[
document.addEventListener('DOMContentLoaded', (event) => {
  highlightEdges();
  highlightAdjacentNodes();
});
]]></script>
</svg>
