<?xml version="1.0" encoding="UTF-8" standalone="no"?>
<!DOCTYPE svg PUBLIC "-//W3C//DTD SVG 1.1//EN"
 "http://www.w3.org/Graphics/SVG/1.1/DTD/svg11.dtd">
<!-- Generated by graphviz version 9.0.0 (20230911.1827)
 -->
<!-- Title: mal_packet_weaver::PacketDispatcher::SynchronizationWrapper&lt; Value &gt; Pages: 1 -->
<svg width="406pt" height="249pt"
 viewBox="0.00 0.00 406.25 249.25" xmlns="http://www.w3.org/2000/svg" xmlns:xlink="http://www.w3.org/1999/xlink">
<g id="graph0" class="graph" transform="scale(1 1) rotate(0) translate(4 245.25)">
<title>mal_packet_weaver::PacketDispatcher::SynchronizationWrapper&lt; Value &gt;</title>
<!-- Node1 -->
<g id="Node000001" class="node">
<title>Node1</title>
<g id="a_Node000001"><a xlink:title="A wrapper class for synchronizing and processing data.">
<polygon fill="#999999" stroke="#666666" points="223.12,-41.75 67.62,-41.75 67.62,0 223.12,0 223.12,-41.75"/>
<text text-anchor="start" x="75.62" y="-28.25" font-family="Times,serif" font-size="10.00">mal_packet_weaver::</text>
<text text-anchor="start" x="75.62" y="-17" font-family="Times,serif" font-size="10.00">PacketDispatcher::Synchronization</text>
<text text-anchor="middle" x="145.38" y="-5.75" font-family="Times,serif" font-size="10.00">Wrapper&lt; Value &gt;</text>
</a>
</g>
</g>
<!-- Node2 -->
<g id="Node000002" class="node">
<title>Node2</title>
<g id="a_Node000002"><a xlink:title=" ">
<polygon fill="white" stroke="#666666" points="40.75,-108.25 0,-108.25 0,-89 40.75,-89 40.75,-108.25"/>
<text text-anchor="middle" x="20.38" y="-94.75" font-family="Times,serif" font-size="10.00">strand</text>
</a>
</g>
</g>
<!-- Node2&#45;&gt;Node1 -->
<g id="edge1_Node000001_Node000002" class="edge">
<title>Node2&#45;&gt;Node1</title>
<g id="a_edge1_Node000001_Node000002"><a xlink:title=" ">
<path fill="none" stroke="#9a32cd" stroke-dasharray="5,2" d="M32.21,-79.37C37.37,-72.51 43.89,-65.09 51.12,-59.75 60.49,-52.84 71.29,-46.98 82.17,-42.08"/>
<polygon fill="#9a32cd" stroke="#9a32cd" points="29.41,-77.27 26.57,-87.47 35.16,-81.26 29.41,-77.27"/>
</a>
</g>
<text text-anchor="middle" x="67.5" y="-61.5" font-family="Times,serif" font-size="10.00" fill="grey"> strand_</text>
</g>
<!-- Node3 -->
<g id="Node000003" class="node">
<title>Node3</title>
<g id="a_Node000003"><a xlink:title=" ">
<polygon fill="white" stroke="#666666" points="120.25,-108.25 58.5,-108.25 58.5,-89 120.25,-89 120.25,-108.25"/>
<text text-anchor="middle" x="89.38" y="-94.75" font-family="Times,serif" font-size="10.00">atomic_flag</text>
</a>
</g>
</g>
<!-- Node3&#45;&gt;Node1 -->
<g id="edge2_Node000001_Node000003" class="edge">
<title>Node3&#45;&gt;Node1</title>
<g id="a_edge2_Node000001_Node000003"><a xlink:title=" ">
<path fill="none" stroke="#9a32cd" stroke-dasharray="5,2" d="M86.37,-77.35C86.36,-71.39 87.27,-65.04 90.12,-59.75 93.83,-52.89 99.37,-47.03 105.55,-42.11"/>
<polygon fill="#9a32cd" stroke="#9a32cd" points="82.86,-77.46 87.22,-87.12 89.84,-76.85 82.86,-77.46"/>
</a>
</g>
<text text-anchor="middle" x="135" y="-61.5" font-family="Times,serif" font-size="10.00" fill="grey"> synchronization_flag_</text>
</g>
<!-- Node4 -->
<g id="Node000004" class="node">
<title>Node4</title>
<g id="a_Node000004"><a xlink:title=" ">
<polygon fill="white" stroke="#666666" points="248,-108.25 154.75,-108.25 154.75,-89 248,-89 248,-108.25"/>
<text text-anchor="middle" x="201.38" y="-94.75" font-family="Times,serif" font-size="10.00">vector&lt; Value &gt; &amp;)</text>
</a>
</g>
</g>
<!-- Node4&#45;&gt;Node1 -->
<g id="edge3_Node000001_Node000004" class="edge">
<title>Node4&#45;&gt;Node1</title>
<g id="a_edge3_Node000001_Node000004"><a xlink:title=" ">
<path fill="none" stroke="#9a32cd" stroke-dasharray="5,2" d="M191.52,-78.92C187.96,-72.65 183.73,-65.74 179.38,-59.75 175.01,-53.75 169.85,-47.61 164.88,-42.06"/>
<polygon fill="#9a32cd" stroke="#9a32cd" points="188.21,-80.15 196.07,-87.25 194.35,-76.8 188.21,-80.15"/>
</a>
</g>
<text text-anchor="middle" x="226.75" y="-61.5" font-family="Times,serif" font-size="10.00" fill="grey"> dequeue_function_</text>
</g>
<!-- Node5 -->
<g id="Node000005" class="node">
<title>Node5</title>
<g id="a_Node000005"><a xlink:title=" ">
<polygon fill="white" stroke="#666666" points="362.88,-108.25 265.88,-108.25 265.88,-89 362.88,-89 362.88,-108.25"/>
<text text-anchor="middle" x="314.38" y="-94.75" font-family="Times,serif" font-size="10.00">std::vector&lt; Value &gt;</text>
</a>
</g>
</g>
<!-- Node5&#45;&gt;Node1 -->
<g id="edge4_Node000001_Node000005" class="edge">
<title>Node5&#45;&gt;Node1</title>
<g id="a_edge4_Node000001_Node000005"><a xlink:title=" ">
<path fill="none" stroke="#9a32cd" stroke-dasharray="5,2" d="M297.99,-80.62C290.2,-73.34 280.41,-65.26 270.38,-59.75 255.87,-51.78 239.47,-45.27 223.44,-40.05"/>
<polygon fill="#9a32cd" stroke="#9a32cd" points="295.44,-83.02 305.02,-87.53 300.35,-78.03 295.44,-83.02"/>
</a>
</g>
<text text-anchor="middle" x="312.25" y="-61.5" font-family="Times,serif" font-size="10.00" fill="grey"> input_data_</text>
</g>
<!-- Node6 -->
<g id="Node000006" class="node">
<title>Node6</title>
<g id="a_Node000006"><a xlink:title=" ">
<polygon fill="white" stroke="#666666" points="300,-174.75 260.75,-174.75 260.75,-155.5 300,-155.5 300,-174.75"/>
<text text-anchor="middle" x="280.38" y="-161.25" font-family="Times,serif" font-size="10.00">Value</text>
</a>
</g>
</g>
<!-- Node6&#45;&gt;Node5 -->
<g id="edge5_Node000005_Node000006" class="edge">
<title>Node6&#45;&gt;Node5</title>
<g id="a_edge5_Node000005_Node000006"><a xlink:title=" ">
<path fill="none" stroke="#9a32cd" stroke-dasharray="5,2" d="M283.96,-144.08C285.5,-138.12 287.66,-131.73 290.62,-126.25 294.16,-119.71 299.6,-113.46 304.39,-108.65"/>
<polygon fill="#9a32cd" stroke="#9a32cd" points="280.55,-143.28 281.9,-153.79 287.4,-144.74 280.55,-143.28"/>
</a>
</g>
<text text-anchor="middle" x="309.75" y="-128" font-family="Times,serif" font-size="10.00" fill="grey"> elements</text>
</g>
<!-- Node7 -->
<g id="Node000007" class="node">
<title>Node7</title>
<g id="a_Node000007"><a xlink:title=" ">
<polygon fill="white" stroke="#666666" points="398.25,-174.75 318.5,-174.75 318.5,-155.5 398.25,-155.5 398.25,-174.75"/>
<text text-anchor="middle" x="358.38" y="-161.25" font-family="Times,serif" font-size="10.00">std::vector&lt; T &gt;</text>
</a>
</g>
</g>
<!-- Node7&#45;&gt;Node5 -->
<g id="edge6_Node000005_Node000007" class="edge">
<title>Node7&#45;&gt;Node5</title>
<g id="a_edge6_Node000005_Node000007"><a xlink:title=" ">
<path fill="none" stroke="orange" stroke-dasharray="5,2" d="M345.93,-145.88C337.59,-133.66 326.99,-118.11 320.44,-108.52"/>
<polygon fill="orange" stroke="orange" points="342.88,-147.62 351.4,-153.91 348.66,-143.67 342.88,-147.62"/>
</a>
</g>
<text text-anchor="middle" x="360.38" y="-128" font-family="Times,serif" font-size="10.00" fill="grey"> &lt; Value &gt;</text>
</g>
<!-- Node8 -->
<g id="Node000008" class="node">
<title>Node8</title>
<g id="a_Node000008"><a xlink:title=" ">
<polygon fill="white" stroke="#666666" points="372.77,-241.25 343.98,-241.25 343.98,-222 372.77,-222 372.77,-241.25"/>
<text text-anchor="middle" x="358.38" y="-227.75" font-family="Times,serif" font-size="10.00">T</text>
</a>
</g>
</g>
<!-- Node8&#45;&gt;Node7 -->
<g id="edge7_Node000007_Node000008" class="edge">
<title>Node8&#45;&gt;Node7</title>
<g id="a_edge7_Node000007_Node000008"><a xlink:title=" ">
<path fill="none" stroke="#9a32cd" stroke-dasharray="5,2" d="M358.38,-210.15C358.38,-198.32 358.38,-184.04 358.38,-175.02"/>
<polygon fill="#9a32cd" stroke="#9a32cd" points="354.88,-210.14 358.38,-220.14 361.88,-210.14 354.88,-210.14"/>
</a>
</g>
<text text-anchor="middle" x="376.75" y="-194.5" font-family="Times,serif" font-size="10.00" fill="grey"> elements</text>
</g>
</g>
</svg>
