<?xml version="1.0" encoding="UTF-8" standalone="no"?>
<!DOCTYPE svg PUBLIC "-//W3C//DTD SVG 1.1//EN"
 "http://www.w3.org/Graphics/SVG/1.1/DTD/svg11.dtd">
<!-- Generated by graphviz version 11.0.0 (20240428.1522)
 -->
<!-- Title: mal_toolkit::non_copyable Pages: 1 -->
<svg width="457pt" height="186pt"
 viewBox="0.00 0.00 456.50 185.50" xmlns="http://www.w3.org/2000/svg" xmlns:xlink="http://www.w3.org/1999/xlink">
<g id="graph0" class="graph" transform="scale(1 1) rotate(0) translate(4 181.5)">
<title>mal_toolkit::non_copyable</title>
<!-- Node1 -->
<g id="Node000001" class="node">
<title>Node1</title>
<g id="a_Node000001"><a xlink:title="A class that can&#39;t be copied.">
<polygon fill="#999999" stroke="#666666" points="119.5,-121.88 0,-121.88 0,-102.62 119.5,-102.62 119.5,-121.88"/>
<text text-anchor="middle" x="59.75" y="-108.38" font-family="Times,serif" font-size="10.00">mal_toolkit::non_copyable</text>
</a>
</g>
</g>
<!-- Node2 -->
<g id="Node000002" class="node">
<title>Node2</title>
<g id="a_Node000002"><a xlink:href="../../d2/d9d/classmal__packet__weaver_1_1_packet.html" target="_top" xlink:title="Base class for all packets.">
<polygon fill="white" stroke="#666666" points="264.88,-164.5 165.62,-164.5 165.62,-134 264.88,-134 264.88,-164.5"/>
<text text-anchor="start" x="173.62" y="-151" font-family="Times,serif" font-size="10.00">mal_packet_weaver::</text>
<text text-anchor="middle" x="215.25" y="-139.75" font-family="Times,serif" font-size="10.00">Packet</text>
</a>
</g>
</g>
<!-- Node1&#45;&gt;Node2 -->
<g id="edge1_Node000001_Node000002" class="edge">
<title>Node1&#45;&gt;Node2</title>
<g id="a_edge1_Node000001_Node000002"><a xlink:title=" ">
<path fill="none" stroke="#63b8ff" d="M113.45,-124.95C130.25,-129 148.76,-133.46 165.29,-137.45"/>
<polygon fill="#63b8ff" stroke="#63b8ff" points="114.71,-121.66 104.17,-122.72 113.07,-128.46 114.71,-121.66"/>
</a>
</g>
</g>
<!-- Node4 -->
<g id="Node000004" class="node">
<title>Node4</title>
<g id="a_Node000004"><a xlink:href="../../d2/df3/classmal__toolkit_1_1non__copyable__non__movable.html" target="_top" xlink:title="A class that can&#39;t be copied neither moved.">
<polygon fill="white" stroke="#666666" points="275,-103.5 155.5,-103.5 155.5,-73 275,-73 275,-103.5"/>
<text text-anchor="start" x="163.5" y="-90" font-family="Times,serif" font-size="10.00">mal_toolkit::non_copyable</text>
<text text-anchor="middle" x="215.25" y="-78.75" font-family="Times,serif" font-size="10.00">_non_movable</text>
</a>
</g>
</g>
<!-- Node1&#45;&gt;Node4 -->
<g id="edge3_Node000001_Node000004" class="edge">
<title>Node1&#45;&gt;Node4</title>
<g id="a_edge3_Node000001_Node000004"><a xlink:title=" ">
<path fill="none" stroke="#63b8ff" d="M131.01,-101.26C139.11,-100 147.31,-98.72 155.25,-97.48"/>
<polygon fill="#63b8ff" stroke="#63b8ff" points="130.49,-97.8 121.15,-102.81 131.57,-104.72 130.49,-97.8"/>
</a>
</g>
</g>
<!-- Node3 -->
<g id="Node000003" class="node">
<title>Node3</title>
<g id="a_Node000003"><a xlink:href="../../dd/d2b/classmal__packet__weaver_1_1_derived_packet.html" target="_top" xlink:title="A templated class representing a derived packet from the base Packet class.">
<polygon fill="white" stroke="#666666" points="448.5,-177.5 311,-177.5 311,-147 448.5,-147 448.5,-177.5"/>
<text text-anchor="start" x="319" y="-164" font-family="Times,serif" font-size="10.00">mal_packet_weaver::</text>
<text text-anchor="middle" x="379.75" y="-152.75" font-family="Times,serif" font-size="10.00">DerivedPacket&lt; PacketType &gt;</text>
</a>
</g>
</g>
<!-- Node2&#45;&gt;Node3 -->
<g id="edge2_Node000002_Node000003" class="edge">
<title>Node2&#45;&gt;Node3</title>
<g id="a_edge2_Node000002_Node000003"><a xlink:title=" ">
<path fill="none" stroke="#63b8ff" d="M276.35,-154.06C287.47,-154.95 299.16,-155.88 310.5,-156.79"/>
<polygon fill="#63b8ff" stroke="#63b8ff" points="276.76,-150.58 266.51,-153.27 276.2,-157.56 276.76,-150.58"/>
</a>
</g>
</g>
<!-- Node5 -->
<g id="Node000005" class="node">
<title>Node5</title>
<g id="a_Node000005"><a xlink:href="../../d3/dbd/classmal__packet__weaver_1_1_dispatcher_session.html" target="_top" xlink:title="Represents a session with packet dispatching functionality.">
<polygon fill="white" stroke="#666666" points="429.38,-128.5 330.12,-128.5 330.12,-98 429.38,-98 429.38,-128.5"/>
<text text-anchor="start" x="338.12" y="-115" font-family="Times,serif" font-size="10.00">mal_packet_weaver::</text>
<text text-anchor="middle" x="379.75" y="-103.75" font-family="Times,serif" font-size="10.00">DispatcherSession</text>
</a>
</g>
</g>
<!-- Node4&#45;&gt;Node5 -->
<g id="edge4_Node000004_Node000005" class="edge">
<title>Node4&#45;&gt;Node5</title>
<g id="a_edge4_Node000004_Node000005"><a xlink:title=" ">
<path fill="none" stroke="#63b8ff" d="M286.43,-99.05C301.05,-101.3 316.16,-103.62 329.81,-105.72"/>
<polygon fill="#63b8ff" stroke="#63b8ff" points="287.29,-95.64 276.87,-97.58 286.22,-102.56 287.29,-95.64"/>
</a>
</g>
</g>
<!-- Node6 -->
<g id="Node000006" class="node">
<title>Node6</title>
<g id="a_Node000006"><a xlink:href="../../d4/d61/classmal__packet__weaver_1_1_packet_dispatcher.html" target="_top" xlink:title="The PacketDispatcher class is responsible for managing packet dispatching and handling.">
<polygon fill="white" stroke="#666666" points="429.38,-79.5 330.12,-79.5 330.12,-49 429.38,-49 429.38,-79.5"/>
<text text-anchor="start" x="338.12" y="-66" font-family="Times,serif" font-size="10.00">mal_packet_weaver::</text>
<text text-anchor="middle" x="379.75" y="-54.75" font-family="Times,serif" font-size="10.00">PacketDispatcher</text>
</a>
</g>
</g>
<!-- Node4&#45;&gt;Node6 -->
<g id="edge5_Node000004_Node000006" class="edge">
<title>Node4&#45;&gt;Node6</title>
<g id="a_edge5_Node000004_Node000006"><a xlink:title=" ">
<path fill="none" stroke="#63b8ff" d="M286.43,-77.89C301.05,-75.73 316.16,-73.49 329.81,-71.48"/>
<polygon fill="#63b8ff" stroke="#63b8ff" points="286.25,-74.37 276.87,-79.3 287.28,-81.3 286.25,-74.37"/>
</a>
</g>
</g>
<!-- Node7 -->
<g id="Node000007" class="node">
<title>Node7</title>
<g id="a_Node000007"><a xlink:href="../../d8/d39/classmal__packet__weaver_1_1_session.html" target="_top" xlink:title="Represents a network session for sending and receiving packets.">
<polygon fill="white" stroke="#666666" points="429.38,-30.5 330.12,-30.5 330.12,0 429.38,0 429.38,-30.5"/>
<text text-anchor="start" x="338.12" y="-17" font-family="Times,serif" font-size="10.00">mal_packet_weaver::</text>
<text text-anchor="middle" x="379.75" y="-5.75" font-family="Times,serif" font-size="10.00">Session</text>
</a>
</g>
</g>
<!-- Node4&#45;&gt;Node7 -->
<g id="edge6_Node000004_Node000007" class="edge">
<title>Node4&#45;&gt;Node7</title>
<g id="a_edge6_Node000004_Node000007"><a xlink:title=" ">
<path fill="none" stroke="#63b8ff" d="M254.96,-67.36C271.94,-58.54 292.24,-48.43 311,-40.25 318.36,-37.04 326.27,-33.88 334,-30.93"/>
<polygon fill="#63b8ff" stroke="#63b8ff" points="253.43,-64.22 246.2,-71.96 256.69,-70.41 253.43,-64.22"/>
</a>
</g>
</g>
</g>
</svg>
