<?xml version="1.0" encoding="UTF-8" standalone="no"?>
<!DOCTYPE svg PUBLIC "-//W3C//DTD SVG 1.1//EN"
 "http://www.w3.org/Graphics/SVG/1.1/DTD/svg11.dtd">
<!-- Generated by graphviz version 9.0.0 (20230911.1827)
 -->
<!-- Title: mal_packet_weaver::PacketDispatcher::SynchronizationWrapper::push Pages: 1 -->
<svg width="485pt" height="230pt"
 viewBox="0.00 0.00 485.00 229.75" xmlns="http://www.w3.org/2000/svg" xmlns:xlink="http://www.w3.org/1999/xlink">
<g id="graph0" class="graph" transform="scale(1 1) rotate(0) translate(4 225.75)">
<title>mal_packet_weaver::PacketDispatcher::SynchronizationWrapper::push</title>
<!-- Node1 -->
<g id="Node000001" class="node">
<title>Node1</title>
<g id="a_Node000001"><a xlink:title="Pushes a value into the queue for asynchronous processing.">
<polygon fill="#999999" stroke="#666666" points="477,-131.75 321.5,-131.75 321.5,-90 477,-90 477,-131.75"/>
<text text-anchor="start" x="329.5" y="-118.25" font-family="Times,serif" font-size="10.00">mal_packet_weaver::</text>
<text text-anchor="start" x="329.5" y="-107" font-family="Times,serif" font-size="10.00">PacketDispatcher::Synchronization</text>
<text text-anchor="middle" x="399.25" y="-95.75" font-family="Times,serif" font-size="10.00">Wrapper::push</text>
</a>
</g>
</g>
<!-- Node2 -->
<g id="Node000002" class="node">
<title>Node2</title>
<g id="a_Node000002"><a xlink:href="../../d4/d61/classmal__packet__weaver_1_1_packet_dispatcher.html#a6cd127b3b0d7992ba74265243d8ed081" target="_top" xlink:title="Enqueues a promise with a filter associated with a packet.">
<polygon fill="white" stroke="#666666" points="285.5,-221.75 160.75,-221.75 160.75,-180 285.5,-180 285.5,-221.75"/>
<text text-anchor="start" x="168.75" y="-208.25" font-family="Times,serif" font-size="10.00">mal_packet_weaver::</text>
<text text-anchor="start" x="168.75" y="-197" font-family="Times,serif" font-size="10.00">PacketDispatcher::enqueue</text>
<text text-anchor="middle" x="223.12" y="-185.75" font-family="Times,serif" font-size="10.00">_filter_promise</text>
</a>
</g>
</g>
<!-- Node1&#45;&gt;Node2 -->
<g id="edge1_Node000001_Node000002" class="edge">
<title>Node1&#45;&gt;Node2</title>
<g id="a_edge1_Node000001_Node000002"><a xlink:title=" ">
<path fill="none" stroke="#63b8ff" d="M349.06,-137.52C329.37,-148.06 306.44,-160.19 285.5,-170.88 279.9,-173.73 273.99,-176.69 268.14,-179.59"/>
<polygon fill="#63b8ff" stroke="#63b8ff" points="350.54,-140.7 357.69,-132.89 347.23,-134.53 350.54,-140.7"/>
</a>
</g>
</g>
<!-- Node4 -->
<g id="Node000004" class="node">
<title>Node4</title>
<g id="a_Node000004"><a xlink:href="../../d4/d61/classmal__packet__weaver_1_1_packet_dispatcher.html#af4ee0a486c569b7e413cb5740b5625de" target="_top" xlink:title="Enqueues a promise associated with a packet.">
<polygon fill="white" stroke="#666666" points="285.5,-161.75 160.75,-161.75 160.75,-120 285.5,-120 285.5,-161.75"/>
<text text-anchor="start" x="168.75" y="-148.25" font-family="Times,serif" font-size="10.00">mal_packet_weaver::</text>
<text text-anchor="start" x="168.75" y="-137" font-family="Times,serif" font-size="10.00">PacketDispatcher::enqueue</text>
<text text-anchor="middle" x="223.12" y="-125.75" font-family="Times,serif" font-size="10.00">_promise</text>
</a>
</g>
</g>
<!-- Node1&#45;&gt;Node4 -->
<g id="edge3_Node000001_Node000004" class="edge">
<title>Node1&#45;&gt;Node4</title>
<g id="a_edge3_Node000001_Node000004"><a xlink:title=" ">
<path fill="none" stroke="#63b8ff" d="M309.98,-126.08C301.81,-127.49 293.64,-128.9 285.78,-130.25"/>
<polygon fill="#63b8ff" stroke="#63b8ff" points="310.36,-129.57 319.62,-124.42 309.18,-122.67 310.36,-129.57"/>
</a>
</g>
</g>
<!-- Node6 -->
<g id="Node000006" class="node">
<title>Node6</title>
<g id="a_Node000006"><a xlink:href="../../d4/d61/classmal__packet__weaver_1_1_packet_dispatcher.html#a346f02299048c0c8443aeead2fbf7d23" target="_top" xlink:title="Pushes an input packet to the unprocessed_packets_input_ queue.">
<polygon fill="white" stroke="#666666" points="278.75,-101.75 167.5,-101.75 167.5,-60 278.75,-60 278.75,-101.75"/>
<text text-anchor="start" x="175.5" y="-88.25" font-family="Times,serif" font-size="10.00">mal_packet_weaver::</text>
<text text-anchor="start" x="175.5" y="-77" font-family="Times,serif" font-size="10.00">PacketDispatcher::push</text>
<text text-anchor="middle" x="223.12" y="-65.75" font-family="Times,serif" font-size="10.00">_packet</text>
</a>
</g>
</g>
<!-- Node1&#45;&gt;Node6 -->
<g id="edge5_Node000001_Node000006" class="edge">
<title>Node1&#45;&gt;Node6</title>
<g id="a_edge5_Node000001_Node000006"><a xlink:title=" ">
<path fill="none" stroke="#63b8ff" d="M310.1,-95.69C299.5,-93.86 288.93,-92.04 279.01,-90.33"/>
<polygon fill="#63b8ff" stroke="#63b8ff" points="309.18,-99.08 319.62,-97.33 310.36,-92.18 309.18,-99.08"/>
</a>
</g>
</g>
<!-- Node8 -->
<g id="Node000008" class="node">
<title>Node8</title>
<g id="a_Node000008"><a xlink:href="../../d4/d61/classmal__packet__weaver_1_1_packet_dispatcher.html#a90f4839728ba615d085089e56fb99a08" target="_top" xlink:title="Registers a default handler for the provided packet type.">
<polygon fill="white" stroke="#666666" points="284,-41.75 162.25,-41.75 162.25,0 284,0 284,-41.75"/>
<text text-anchor="start" x="170.25" y="-28.25" font-family="Times,serif" font-size="10.00">mal_packet_weaver::</text>
<text text-anchor="start" x="170.25" y="-17" font-family="Times,serif" font-size="10.00">PacketDispatcher::register</text>
<text text-anchor="middle" x="223.12" y="-5.75" font-family="Times,serif" font-size="10.00">_default_handler</text>
</a>
</g>
</g>
<!-- Node1&#45;&gt;Node8 -->
<g id="edge7_Node000001_Node000008" class="edge">
<title>Node1&#45;&gt;Node8</title>
<g id="a_edge7_Node000001_Node000008"><a xlink:title=" ">
<path fill="none" stroke="#63b8ff" d="M349.06,-84.23C329.37,-73.69 306.44,-61.56 285.5,-50.88 279.9,-48.02 273.99,-45.06 268.14,-42.16"/>
<polygon fill="#63b8ff" stroke="#63b8ff" points="347.23,-87.22 357.69,-88.86 350.54,-81.05 347.23,-87.22"/>
</a>
</g>
</g>
<!-- Node3 -->
<g id="Node000003" class="node">
<title>Node3</title>
<g id="a_Node000003"><a xlink:href="../../d4/d61/classmal__packet__weaver_1_1_packet_dispatcher.html#a5fa270876e67889a7524a186b297cd11" target="_top" xlink:title="Wait until a packet satisfying the filter condition is registered in the dispatch system and return a...">
<polygon fill="white" stroke="#666666" points="118.38,-221.75 6.38,-221.75 6.38,-180 118.38,-180 118.38,-221.75"/>
<text text-anchor="start" x="14.38" y="-208.25" font-family="Times,serif" font-size="10.00">mal_packet_weaver::</text>
<text text-anchor="start" x="14.38" y="-197" font-family="Times,serif" font-size="10.00">PacketDispatcher::await</text>
<text text-anchor="middle" x="62.38" y="-185.75" font-family="Times,serif" font-size="10.00">_packet</text>
</a>
</g>
</g>
<!-- Node2&#45;&gt;Node3 -->
<g id="edge2_Node000002_Node000003" class="edge">
<title>Node2&#45;&gt;Node3</title>
<g id="a_edge2_Node000002_Node000003"><a xlink:title=" ">
<path fill="none" stroke="#63b8ff" d="M148.95,-200.88C138.83,-200.88 128.56,-200.88 118.83,-200.88"/>
<polygon fill="#63b8ff" stroke="#63b8ff" points="148.78,-204.38 158.78,-200.88 148.78,-197.38 148.78,-204.38"/>
</a>
</g>
</g>
<!-- Node5 -->
<g id="Node000005" class="node">
<title>Node5</title>
<g id="a_Node000005"><a xlink:href="../../d4/d61/classmal__packet__weaver_1_1_packet_dispatcher.html#a1e7e2c9e624018e4a1046297453e0596" target="_top" xlink:title="Wait until the packet is registered in the dispatch system and return as soon as possible.">
<polygon fill="white" stroke="#666666" points="118.38,-161.75 6.38,-161.75 6.38,-120 118.38,-120 118.38,-161.75"/>
<text text-anchor="start" x="14.38" y="-148.25" font-family="Times,serif" font-size="10.00">mal_packet_weaver::</text>
<text text-anchor="start" x="14.38" y="-137" font-family="Times,serif" font-size="10.00">PacketDispatcher::await</text>
<text text-anchor="middle" x="62.38" y="-125.75" font-family="Times,serif" font-size="10.00">_packet</text>
</a>
</g>
</g>
<!-- Node4&#45;&gt;Node5 -->
<g id="edge4_Node000004_Node000005" class="edge">
<title>Node4&#45;&gt;Node5</title>
<g id="a_edge4_Node000004_Node000005"><a xlink:title=" ">
<path fill="none" stroke="#63b8ff" d="M148.95,-140.88C138.83,-140.88 128.56,-140.88 118.83,-140.88"/>
<polygon fill="#63b8ff" stroke="#63b8ff" points="148.78,-144.38 158.78,-140.88 148.78,-137.38 148.78,-144.38"/>
</a>
</g>
</g>
<!-- Node7 -->
<g id="Node000007" class="node">
<title>Node7</title>
<g id="a_Node000007"><a xlink:href="../../d4/d61/classmal__packet__weaver_1_1_packet_dispatcher.html#a9bb612f197e6c11b943e3b223e79eac3" target="_top" xlink:title="Enqueues a packet for processing.">
<polygon fill="white" stroke="#666666" points="124.75,-101.75 0,-101.75 0,-60 124.75,-60 124.75,-101.75"/>
<text text-anchor="start" x="8" y="-88.25" font-family="Times,serif" font-size="10.00">mal_packet_weaver::</text>
<text text-anchor="start" x="8" y="-77" font-family="Times,serif" font-size="10.00">PacketDispatcher::enqueue</text>
<text text-anchor="middle" x="62.38" y="-65.75" font-family="Times,serif" font-size="10.00">_packet</text>
</a>
</g>
</g>
<!-- Node6&#45;&gt;Node7 -->
<g id="edge6_Node000006_Node000007" class="edge">
<title>Node6&#45;&gt;Node7</title>
<g id="a_edge6_Node000006_Node000007"><a xlink:title=" ">
<path fill="none" stroke="#63b8ff" d="M155.76,-80.88C145.62,-80.88 135.18,-80.88 125.15,-80.88"/>
<polygon fill="#63b8ff" stroke="#63b8ff" points="155.53,-84.38 165.53,-80.88 155.53,-77.38 155.53,-84.38"/>
</a>
</g>
</g>
</g>
</svg>
