<?xml version="1.0" encoding="UTF-8" standalone="no"?>
<!DOCTYPE svg PUBLIC "-//W3C//DTD SVG 1.1//EN"
 "http://www.w3.org/Graphics/SVG/1.1/DTD/svg11.dtd">
<!-- Generated by graphviz version 8.1.0 (20230707.0739)
 -->
<!-- Title: mal_packet_weaver::PacketDispatcher::SynchronizationWrapper::push Pages: 1 -->
<svg width="485pt" height="230pt"
 viewBox="0.00 0.00 485.00 229.75" xmlns="http://www.w3.org/2000/svg" xmlns:xlink="http://www.w3.org/1999/xlink">
<g id="graph0" class="graph" transform="scale(1 1) rotate(0) translate(4 225.75)">
<title>mal_packet_weaver::PacketDispatcher::SynchronizationWrapper::push</title>
<!-- Node1 -->
<g id="Node000001" class="node">
<title>Node1</title>
<g id="a_Node000001"><a xlink:title="Pushes a value into the queue for asynchronous processing.">
<polygon fill="#999999" stroke="#666666" points="477,-131.75 321.5,-131.75 321.5,-90 477,-90 477,-131.75"/>
<text text-anchor="start" x="329.5" y="-118.25" font-family="Times,serif" font-size="10.00">mal_packet_weaver::</text>
<text text-anchor="start" x="329.5" y="-107" font-family="Times,serif" font-size="10.00">PacketDispatcher::Synchronization</text>
<text text-anchor="middle" x="399.25" y="-95.75" font-family="Times,serif" font-size="10.00">Wrapper::push</text>
</a>
</g>
</g>
<!-- Node2 -->
<g id="Node000002" class="node">
<title>Node2</title>
<g id="a_Node000002"><a xlink:href="../../d4/d61/classmal__packet__weaver_1_1_packet_dispatcher.html#a6cd127b3b0d7992ba74265243d8ed081" target="_top" xlink:title="Enqueues a promise with a filter associated with a packet.">
<polygon fill="white" stroke="#666666" points="285.5,-221.75 160.75,-221.75 160.75,-180 285.5,-180 285.5,-221.75"/>
<text text-anchor="start" x="168.75" y="-208.25" font-family="Times,serif" font-size="10.00">mal_packet_weaver::</text>
<text text-anchor="start" x="168.75" y="-197" font-family="Times,serif" font-size="10.00">PacketDispatcher::enqueue</text>
<text text-anchor="middle" x="223.12" y="-185.75" font-family="Times,serif" font-size="10.00">_filter_promise</text>
</a>
</g>
</g>
<!-- Node1&#45;&gt;Node2 -->
<g id="edge1_Node000001_Node000002" class="edge">
<title>Node1&#45;&gt;Node2</title>
<g id="a_edge1_Node000001_Node000002"><a xlink:title=" ">
<path fill="none" stroke="#63b8ff" d="M349.6,-137.23C329.79,-147.84 306.63,-160.09 285.5,-170.88 279.9,-173.73 273.99,-176.69 268.14,-179.59"/>
<polygon fill="#63b8ff" stroke="#63b8ff" points="350.87,-139.99 358.03,-132.17 347.56,-133.82 350.87,-139.99"/>
</a>
</g>
</g>
<!-- Node4 -->
<g id="Node000004" class="node">
<title>Node4</title>
<g id="a_Node000004"><a xlink:href="../../d4/d61/classmal__packet__weaver_1_1_packet_dispatcher.html#af4ee0a486c569b7e413cb5740b5625de" target="_top" xlink:title="Enqueues a promise associated with a packet.">
<polygon fill="white" stroke="#666666" points="285.5,-161.75 160.75,-161.75 160.75,-120 285.5,-120 285.5,-161.75"/>
<text text-anchor="start" x="168.75" y="-148.25" font-family="Times,serif" font-size="10.00">mal_packet_weaver::</text>
<text text-anchor="start" x="168.75" y="-137" font-family="Times,serif" font-size="10.00">PacketDispatcher::enqueue</text>
<text text-anchor="middle" x="223.12" y="-125.75" font-family="Times,serif" font-size="10.00">_promise</text>
</a>
</g>
</g>
<!-- Node1&#45;&gt;Node4 -->
<g id="edge3_Node000001_Node000004" class="edge">
<title>Node1&#45;&gt;Node4</title>
<g id="a_edge3_Node000001_Node000004"><a xlink:title=" ">
<path fill="none" stroke="#63b8ff" d="M310.54,-125.99C302.18,-127.43 293.82,-128.87 285.78,-130.25"/>
<polygon fill="#63b8ff" stroke="#63b8ff" points="310.86,-129.31 320.12,-124.16 309.67,-122.41 310.86,-129.31"/>
</a>
</g>
</g>
<!-- Node6 -->
<g id="Node000006" class="node">
<title>Node6</title>
<g id="a_Node000006"><a xlink:href="../../d4/d61/classmal__packet__weaver_1_1_packet_dispatcher.html#a346f02299048c0c8443aeead2fbf7d23" target="_top" xlink:title="Pushes an input packet to the unprocessed_packets_input_ queue.">
<polygon fill="white" stroke="#666666" points="278.75,-101.75 167.5,-101.75 167.5,-60 278.75,-60 278.75,-101.75"/>
<text text-anchor="start" x="175.5" y="-88.25" font-family="Times,serif" font-size="10.00">mal_packet_weaver::</text>
<text text-anchor="start" x="175.5" y="-77" font-family="Times,serif" font-size="10.00">PacketDispatcher::push</text>
<text text-anchor="middle" x="223.12" y="-65.75" font-family="Times,serif" font-size="10.00">_packet</text>
</a>
</g>
</g>
<!-- Node1&#45;&gt;Node6 -->
<g id="edge5_Node000001_Node000006" class="edge">
<title>Node1&#45;&gt;Node6</title>
<g id="a_edge5_Node000001_Node000006"><a xlink:title=" ">
<path fill="none" stroke="#63b8ff" d="M310.43,-95.74C299.72,-93.9 289.04,-92.06 279.01,-90.33"/>
<polygon fill="#63b8ff" stroke="#63b8ff" points="309.67,-99.34 320.12,-97.59 310.86,-92.44 309.67,-99.34"/>
</a>
</g>
</g>
<!-- Node8 -->
<g id="Node000008" class="node">
<title>Node8</title>
<g id="a_Node000008"><a xlink:href="../../d4/d61/classmal__packet__weaver_1_1_packet_dispatcher.html#a90f4839728ba615d085089e56fb99a08" target="_top" xlink:title="Registers a default handler for the provided packet type.">
<polygon fill="white" stroke="#666666" points="284,-41.75 162.25,-41.75 162.25,0 284,0 284,-41.75"/>
<text text-anchor="start" x="170.25" y="-28.25" font-family="Times,serif" font-size="10.00">mal_packet_weaver::</text>
<text text-anchor="start" x="170.25" y="-17" font-family="Times,serif" font-size="10.00">PacketDispatcher::register</text>
<text text-anchor="middle" x="223.12" y="-5.75" font-family="Times,serif" font-size="10.00">_default_handler</text>
</a>
</g>
</g>
<!-- Node1&#45;&gt;Node8 -->
<g id="edge7_Node000001_Node000008" class="edge">
<title>Node1&#45;&gt;Node8</title>
<g id="a_edge7_Node000001_Node000008"><a xlink:title=" ">
<path fill="none" stroke="#63b8ff" d="M349.6,-84.52C329.79,-73.91 306.63,-61.66 285.5,-50.88 279.9,-48.02 273.99,-45.06 268.14,-42.16"/>
<polygon fill="#63b8ff" stroke="#63b8ff" points="347.56,-87.93 358.03,-89.58 350.87,-81.76 347.56,-87.93"/>
</a>
</g>
</g>
<!-- Node3 -->
<g id="Node000003" class="node">
<title>Node3</title>
<g id="a_Node000003"><a xlink:href="../../d4/d61/classmal__packet__weaver_1_1_packet_dispatcher.html#a5fa270876e67889a7524a186b297cd11" target="_top" xlink:title="Wait until a packet satisfying the filter condition is registered in the dispatch system and return a...">
<polygon fill="white" stroke="#666666" points="118.38,-221.75 6.38,-221.75 6.38,-180 118.38,-180 118.38,-221.75"/>
<text text-anchor="start" x="14.38" y="-208.25" font-family="Times,serif" font-size="10.00">mal_packet_weaver::</text>
<text text-anchor="start" x="14.38" y="-197" font-family="Times,serif" font-size="10.00">PacketDispatcher::await</text>
<text text-anchor="middle" x="62.38" y="-185.75" font-family="Times,serif" font-size="10.00">_packet</text>
</a>
</g>
</g>
<!-- Node2&#45;&gt;Node3 -->
<g id="edge2_Node000002_Node000003" class="edge">
<title>Node2&#45;&gt;Node3</title>
<g id="a_edge2_Node000002_Node000003"><a xlink:title=" ">
<path fill="none" stroke="#63b8ff" d="M149.61,-200.88C139.27,-200.88 128.77,-200.88 118.83,-200.88"/>
<polygon fill="#63b8ff" stroke="#63b8ff" points="149.29,-204.38 159.29,-200.88 149.29,-197.38 149.29,-204.38"/>
</a>
</g>
</g>
<!-- Node5 -->
<g id="Node000005" class="node">
<title>Node5</title>
<g id="a_Node000005"><a xlink:href="../../d4/d61/classmal__packet__weaver_1_1_packet_dispatcher.html#a1e7e2c9e624018e4a1046297453e0596" target="_top" xlink:title="Wait until the packet is registered in the dispatch system and return as soon as possible.">
<polygon fill="white" stroke="#666666" points="118.38,-161.75 6.38,-161.75 6.38,-120 118.38,-120 118.38,-161.75"/>
<text text-anchor="start" x="14.38" y="-148.25" font-family="Times,serif" font-size="10.00">mal_packet_weaver::</text>
<text text-anchor="start" x="14.38" y="-137" font-family="Times,serif" font-size="10.00">PacketDispatcher::await</text>
<text text-anchor="middle" x="62.38" y="-125.75" font-family="Times,serif" font-size="10.00">_packet</text>
</a>
</g>
</g>
<!-- Node4&#45;&gt;Node5 -->
<g id="edge4_Node000004_Node000005" class="edge">
<title>Node4&#45;&gt;Node5</title>
<g id="a_edge4_Node000004_Node000005"><a xlink:title=" ">
<path fill="none" stroke="#63b8ff" d="M149.61,-140.88C139.27,-140.88 128.77,-140.88 118.83,-140.88"/>
<polygon fill="#63b8ff" stroke="#63b8ff" points="149.29,-144.38 159.29,-140.88 149.29,-137.38 149.29,-144.38"/>
</a>
</g>
</g>
<!-- Node7 -->
<g id="Node000007" class="node">
<title>Node7</title>
<g id="a_Node000007"><a xlink:href="../../d4/d61/classmal__packet__weaver_1_1_packet_dispatcher.html#a9bb612f197e6c11b943e3b223e79eac3" target="_top" xlink:title="Enqueues a packet for processing.">
<polygon fill="white" stroke="#666666" points="124.75,-101.75 0,-101.75 0,-60 124.75,-60 124.75,-101.75"/>
<text text-anchor="start" x="8" y="-88.25" font-family="Times,serif" font-size="10.00">mal_packet_weaver::</text>
<text text-anchor="start" x="8" y="-77" font-family="Times,serif" font-size="10.00">PacketDispatcher::enqueue</text>
<text text-anchor="middle" x="62.38" y="-65.75" font-family="Times,serif" font-size="10.00">_packet</text>
</a>
</g>
</g>
<!-- Node6&#45;&gt;Node7 -->
<g id="edge6_Node000006_Node000007" class="edge">
<title>Node6&#45;&gt;Node7</title>
<g id="a_edge6_Node000006_Node000007"><a xlink:title=" ">
<path fill="none" stroke="#63b8ff" d="M156.08,-80.88C145.84,-80.88 135.29,-80.88 125.15,-80.88"/>
<polygon fill="#63b8ff" stroke="#63b8ff" points="156.05,-84.38 166.05,-80.88 156.05,-77.38 156.05,-84.38"/>
</a>
</g>
</g>
</g>
</svg>
