<?xml version="1.0" encoding="UTF-8" standalone="no"?>
<!DOCTYPE svg PUBLIC "-//W3C//DTD SVG 1.1//EN"
 "http://www.w3.org/Graphics/SVG/1.1/DTD/svg11.dtd">
<!-- Generated by graphviz version 7.0.5 (20221223.1930)
 -->
<!-- Title: weaver::Key Pages: 1 -->
<svg width="103pt" height="205pt"
 viewBox="0.00 0.00 103.00 205.00" xmlns="http://www.w3.org/2000/svg" xmlns:xlink="http://www.w3.org/1999/xlink">
<g id="graph0" class="graph" transform="scale(1 1) rotate(0) translate(4 201)">
<title>weaver::Key</title>
<!-- Node1 -->
<g id="node1" class="node">
<title>Node1</title>
<g id="a_node1"><a xlink:title="Represents a cryptographic key as a byte array.">
<polygon fill="#999999" stroke="#666666" points="82,-19 13,-19 13,0 82,0 82,-19"/>
<text text-anchor="middle" x="47.5" y="-7" font-family="Helvetica,sans-Serif" font-size="10.00">weaver::Key</text>
</a>
</g>
</g>
<!-- Node2 -->
<g id="node2" class="node">
<title>Node2</title>
<g id="a_node2"><a xlink:href="../../d3/d21/structweaver_1_1_byte_array.html" target="_top" xlink:title="A dynamically resizable array of bytes.">
<polygon fill="white" stroke="#666666" points="95,-75 0,-75 0,-56 95,-56 95,-75"/>
<text text-anchor="middle" x="47.5" y="-63" font-family="Helvetica,sans-Serif" font-size="10.00">weaver::ByteArray</text>
</a>
</g>
</g>
<!-- Node2&#45;&gt;Node1 -->
<g id="edge1" class="edge">
<title>Node2&#45;&gt;Node1</title>
<path fill="none" stroke="#63b8ff" d="M47.5,-44.11C47.5,-35.52 47.5,-25.97 47.5,-19.25"/>
<polygon fill="#63b8ff" stroke="#63b8ff" points="44,-44.07 47.5,-54.07 51,-44.07 44,-44.07"/>
</g>
<!-- Node3 -->
<g id="node3" class="node">
<title>Node3</title>
<g id="a_node3"><a xlink:title=" ">
<polygon fill="white" stroke="#666666" points="89.5,-131 5.5,-131 5.5,-112 89.5,-112 89.5,-131"/>
<text text-anchor="middle" x="47.5" y="-119" font-family="Helvetica,sans-Serif" font-size="10.00">std::vector&lt; T &gt;</text>
</a>
</g>
</g>
<!-- Node3&#45;&gt;Node2 -->
<g id="edge2" class="edge">
<title>Node3&#45;&gt;Node2</title>
<path fill="none" stroke="#63b8ff" d="M47.5,-100.11C47.5,-91.52 47.5,-81.97 47.5,-75.25"/>
<polygon fill="#63b8ff" stroke="#63b8ff" points="44,-100.07 47.5,-110.07 51,-100.07 44,-100.07"/>
</g>
<!-- Node4 -->
<g id="node4" class="node">
<title>Node4</title>
<g id="a_node4"><a xlink:title=" ">
<polygon fill="white" stroke="#666666" points="62,-197 33,-197 33,-178 62,-178 62,-197"/>
<text text-anchor="middle" x="47.5" y="-185" font-family="Helvetica,sans-Serif" font-size="10.00">T</text>
</a>
</g>
</g>
<!-- Node4&#45;&gt;Node3 -->
<g id="edge3" class="edge">
<title>Node4&#45;&gt;Node3</title>
<path fill="none" stroke="#9a32cd" stroke-dasharray="5,2" d="M47.5,-166.18C47.5,-154.44 47.5,-140.27 47.5,-131.32"/>
<polygon fill="#9a32cd" stroke="#9a32cd" points="44,-166.09 47.5,-176.09 51,-166.09 44,-166.09"/>
<text text-anchor="middle" x="69" y="-152" font-family="Helvetica,sans-Serif" font-size="10.00"> elements</text>
</g>
</g>
</svg>
