<?xml version="1.0" encoding="UTF-8" standalone="no"?>
<!DOCTYPE svg PUBLIC "-//W3C//DTD SVG 1.1//EN"
 "http://www.w3.org/Graphics/SVG/1.1/DTD/svg11.dtd">
<!-- Generated by graphviz version 7.0.5 (20221223.1930)
 -->
<!-- Title: node_system::packet::network::EchoPacket Pages: 1 -->
<svg width="245pt" height="238pt"
 viewBox="0.00 0.00 245.00 238.00" xmlns="http://www.w3.org/2000/svg" xmlns:xlink="http://www.w3.org/1999/xlink">
<g id="graph0" class="graph" transform="scale(1 1) rotate(0) translate(4 234)">
<title>node_system::packet::network::EchoPacket</title>
<!-- Node1 -->
<g id="node1" class="node">
<title>Node1</title>
<g id="a_node1"><a xlink:title="Packet for echoing a received message.">
<polygon fill="#999999" stroke="#666666" points="187,-30 74,-30 74,0 187,0 187,-30"/>
<text text-anchor="start" x="82" y="-18" font-family="Helvetica,sans-Serif" font-size="10.00">node_system::packet</text>
<text text-anchor="middle" x="130.5" y="-7" font-family="Helvetica,sans-Serif" font-size="10.00">::network::EchoPacket</text>
</a>
</g>
</g>
<!-- Node2 -->
<g id="node2" class="node">
<title>Node2</title>
<g id="a_node2"><a xlink:href="../../d6/d1d/classnode__system_1_1_derived_packet.html" target="_top" xlink:title=" ">
<polygon fill="white" stroke="#666666" points="143,-107 0,-107 0,-77 143,-77 143,-107"/>
<text text-anchor="start" x="8" y="-95" font-family="Helvetica,sans-Serif" font-size="10.00">node_system::DerivedPacket</text>
<text text-anchor="middle" x="71.5" y="-84" font-family="Helvetica,sans-Serif" font-size="10.00">&lt; class EchoPacket &gt;</text>
</a>
</g>
</g>
<!-- Node2&#45;&gt;Node1 -->
<g id="edge1" class="edge">
<title>Node2&#45;&gt;Node1</title>
<path fill="none" stroke="#63b8ff" d="M89.77,-67.77C99.37,-55.57 110.84,-40.99 119.16,-30.42"/>
<polygon fill="#63b8ff" stroke="#63b8ff" points="87.24,-65.33 83.81,-75.35 92.75,-69.65 87.24,-65.33"/>
</g>
<!-- Node3 -->
<g id="node3" class="node">
<title>Node3</title>
<g id="a_node3"><a xlink:href="../../da/d22/classnode__system_1_1_packet.html" target="_top" xlink:title="Base class for all packets.">
<polygon fill="white" stroke="#666666" points="125.5,-168.5 15.5,-168.5 15.5,-149.5 125.5,-149.5 125.5,-168.5"/>
<text text-anchor="middle" x="70.5" y="-156.5" font-family="Helvetica,sans-Serif" font-size="10.00">node_system::Packet</text>
</a>
</g>
</g>
<!-- Node3&#45;&gt;Node2 -->
<g id="edge2" class="edge">
<title>Node3&#45;&gt;Node2</title>
<path fill="none" stroke="#63b8ff" d="M70.81,-137.92C70.96,-127.93 71.14,-116.1 71.28,-107.09"/>
<polygon fill="#63b8ff" stroke="#63b8ff" points="67.31,-137.67 70.66,-147.72 74.31,-137.78 67.31,-137.67"/>
</g>
<!-- Node4 -->
<g id="node4" class="node">
<title>Node4</title>
<g id="a_node4"><a xlink:title=" ">
<polygon fill="white" stroke="#666666" points="119.5,-230 21.5,-230 21.5,-211 119.5,-211 119.5,-230"/>
<text text-anchor="middle" x="70.5" y="-218" font-family="Helvetica,sans-Serif" font-size="10.00">utils::non_copyable</text>
</a>
</g>
</g>
<!-- Node4&#45;&gt;Node3 -->
<g id="edge3" class="edge">
<title>Node4&#45;&gt;Node3</title>
<path fill="none" stroke="#63b8ff" d="M70.5,-199.32C70.5,-188.94 70.5,-176.83 70.5,-168.82"/>
<polygon fill="#63b8ff" stroke="#63b8ff" points="67,-199.21 70.5,-209.21 74,-199.21 67,-199.21"/>
</g>
<!-- Node5 -->
<g id="node5" class="node">
<title>Node5</title>
<g id="a_node5"><a xlink:title=" ">
<polygon fill="white" stroke="#666666" points="220,-101.5 161,-101.5 161,-82.5 220,-82.5 220,-101.5"/>
<text text-anchor="middle" x="190.5" y="-89.5" font-family="Helvetica,sans-Serif" font-size="10.00">std::string</text>
</a>
</g>
</g>
<!-- Node5&#45;&gt;Node1 -->
<g id="edge4" class="edge">
<title>Node5&#45;&gt;Node1</title>
<path fill="none" stroke="#9a32cd" stroke-dasharray="5,2" d="M176.49,-73.49C165.97,-60.34 151.74,-42.56 141.91,-30.27"/>
<polygon fill="#9a32cd" stroke="#9a32cd" points="173.46,-75.3 182.44,-80.92 178.92,-70.92 173.46,-75.3"/>
<text text-anchor="middle" x="199" y="-51" font-family="Helvetica,sans-Serif" font-size="10.00"> echo_message</text>
</g>
<!-- Node6 -->
<g id="node6" class="node">
<title>Node6</title>
<g id="a_node6"><a xlink:title=" ">
<polygon fill="white" stroke="#666666" points="237,-174 144,-174 144,-144 237,-144 237,-174"/>
<text text-anchor="start" x="152" y="-162" font-family="Helvetica,sans-Serif" font-size="10.00">std::basic_string&lt;</text>
<text text-anchor="middle" x="190.5" y="-151" font-family="Helvetica,sans-Serif" font-size="10.00"> Char &gt;</text>
</a>
</g>
</g>
<!-- Node6&#45;&gt;Node5 -->
<g id="edge5" class="edge">
<title>Node6&#45;&gt;Node5</title>
<path fill="none" stroke="#63b8ff" d="M190.5,-132.19C190.5,-121.5 190.5,-109.79 190.5,-101.98"/>
<polygon fill="#63b8ff" stroke="#63b8ff" points="187,-132.06 190.5,-142.06 194,-132.06 187,-132.06"/>
</g>
</g>
</svg>
