<?xml version="1.0" encoding="UTF-8" standalone="no"?>
<!DOCTYPE svg PUBLIC "-//W3C//DTD SVG 1.1//EN"
 "http://www.w3.org/Graphics/SVG/1.1/DTD/svg11.dtd">
<!-- Generated by graphviz version 7.0.5 (20221223.1930)
 -->
<!-- Title: third_party/mal&#45;toolkit/mal&#45;toolkit/mal&#45;toolkit/debug.hpp Pages: 1 -->
<svg width="3036pt" height="181pt"
 viewBox="0.00 0.00 3035.50 181.00" xmlns="http://www.w3.org/2000/svg" xmlns:xlink="http://www.w3.org/1999/xlink">
<g id="graph0" class="graph" transform="scale(1 1) rotate(0) translate(4 177)">
<title>third_party/mal&#45;toolkit/mal&#45;toolkit/mal&#45;toolkit/debug.hpp</title>
<!-- Node1 -->
<g id="node1" class="node">
<title>Node1</title>
<g id="a_node1"><a xlink:title="Contains debugging&#45;related macros and utilities for assisting with debugging tasks.">
<polygon fill="#999999" stroke="#666666" points="2782.5,-173 2669.5,-173 2669.5,-132 2782.5,-132 2782.5,-173"/>
<text text-anchor="start" x="2677.5" y="-161" font-family="Helvetica,sans-Serif" font-size="10.00">third_party/mal&#45;toolkit</text>
<text text-anchor="start" x="2677.5" y="-150" font-family="Helvetica,sans-Serif" font-size="10.00">/mal&#45;toolkit/mal&#45;toolkit</text>
<text text-anchor="middle" x="2726" y="-139" font-family="Helvetica,sans-Serif" font-size="10.00">/debug.hpp</text>
</a>
</g>
</g>
<!-- Node2 -->
<g id="node2" class="node">
<title>Node2</title>
<g id="a_node2"><a xlink:href="../../db/d6e/library-pch_8hpp.html" target="_top" xlink:title="Precompiled header (PCH) file for common headers used across the library.">
<polygon fill="white" stroke="#666666" points="1243.5,-90.5 1164.5,-90.5 1164.5,-71.5 1243.5,-71.5 1243.5,-90.5"/>
<text text-anchor="middle" x="1204" y="-78.5" font-family="Helvetica,sans-Serif" font-size="10.00">library&#45;pch.hpp</text>
</a>
</g>
</g>
<!-- Node1&#45;&gt;Node2 -->
<g id="edge1" class="edge">
<title>Node1&#45;&gt;Node2</title>
<path fill="none" stroke="#63b8ff" d="M2669.11,-148.9C2427.23,-137.86 1486.07,-94.88 1255.3,-84.34"/>
<polygon fill="#63b8ff" stroke="#63b8ff" points="1255.58,-80.85 1245.43,-83.89 1255.26,-87.84 1255.58,-80.85"/>
</g>
<!-- Node37 -->
<g id="node37" class="node">
<title>Node37</title>
<g id="a_node37"><a xlink:href="../../dd/db5/spdlog_8hpp.html" target="_top" xlink:title="Provides integration with the SPDLOG library for efficient logging and debugging.">
<polygon fill="white" stroke="#666666" points="2709.5,-90.5 2612.5,-90.5 2612.5,-71.5 2709.5,-71.5 2709.5,-90.5"/>
<text text-anchor="middle" x="2661" y="-78.5" font-family="Helvetica,sans-Serif" font-size="10.00">include/spdlog.hpp</text>
</a>
</g>
</g>
<!-- Node1&#45;&gt;Node37 -->
<g id="edge36" class="edge">
<title>Node1&#45;&gt;Node37</title>
<path fill="none" stroke="#63b8ff" d="M2707.55,-131.77C2697.89,-121.45 2686.19,-108.93 2676.93,-99.04"/>
<polygon fill="#63b8ff" stroke="#63b8ff" points="2679.67,-96.84 2670.28,-91.93 2674.56,-101.62 2679.67,-96.84"/>
</g>
<!-- Node44 -->
<g id="node44" class="node">
<title>Node44</title>
<g id="a_node44"><a xlink:href="../../da/d43/debug__with__source__location_8hpp.html" target="_top" xlink:title="This file provides utility functions for debugging and assertion handling.">
<polygon fill="white" stroke="#666666" points="2854.5,-96 2727.5,-96 2727.5,-66 2854.5,-66 2854.5,-96"/>
<text text-anchor="start" x="2735.5" y="-84" font-family="Helvetica,sans-Serif" font-size="10.00">detail/debug_with_source</text>
<text text-anchor="middle" x="2791" y="-73" font-family="Helvetica,sans-Serif" font-size="10.00">_location.hpp</text>
</a>
</g>
</g>
<!-- Node1&#45;&gt;Node44 -->
<g id="edge43" class="edge">
<title>Node1&#45;&gt;Node44</title>
<path fill="none" stroke="#63b8ff" d="M2738.3,-131.77C2745.54,-123.25 2754.83,-113.25 2763.64,-104.45"/>
<polygon fill="#63b8ff" stroke="#63b8ff" points="2766.04,-107.01 2770.77,-97.53 2761.16,-101.98 2766.04,-107.01"/>
</g>
<!-- Node3 -->
<g id="node3" class="node">
<title>Node3</title>
<g id="a_node3"><a xlink:title=" ">
<polygon fill="#e0e0e0" stroke="#999999" points="56,-24.5 0,-24.5 0,-5.5 56,-5.5 56,-24.5"/>
<text text-anchor="middle" x="28" y="-12.5" font-family="Helvetica,sans-Serif" font-size="10.00">algorithm</text>
</a>
</g>
</g>
<!-- Node2&#45;&gt;Node3 -->
<g id="edge2" class="edge">
<title>Node2&#45;&gt;Node3</title>
<path fill="none" stroke="#63b8ff" d="M1164.06,-79.94C988.17,-79.42 281.66,-74.55 65,-30 62.97,-29.58 60.9,-29.07 58.84,-28.49"/>
<polygon fill="#63b8ff" stroke="#63b8ff" points="60.04,-25.2 49.45,-25.37 57.84,-31.84 60.04,-25.2"/>
</g>
<!-- Node4 -->
<g id="node4" class="node">
<title>Node4</title>
<g id="a_node4"><a xlink:title=" ">
<polygon fill="#e0e0e0" stroke="#999999" points="112,-24.5 74,-24.5 74,-5.5 112,-5.5 112,-24.5"/>
<text text-anchor="middle" x="93" y="-12.5" font-family="Helvetica,sans-Serif" font-size="10.00">array</text>
</a>
</g>
</g>
<!-- Node2&#45;&gt;Node4 -->
<g id="edge3" class="edge">
<title>Node2&#45;&gt;Node4</title>
<path fill="none" stroke="#63b8ff" d="M1164.2,-80.36C993.64,-81.59 323.86,-82.86 121,-30 120.17,-29.78 119.34,-29.54 118.51,-29.28"/>
<polygon fill="#63b8ff" stroke="#63b8ff" points="119.93,-26.08 109.35,-25.49 117.25,-32.55 119.93,-26.08"/>
</g>
<!-- Node5 -->
<g id="node5" class="node">
<title>Node5</title>
<g id="a_node5"><a xlink:title=" ">
<polygon fill="#e0e0e0" stroke="#999999" points="181.5,-24.5 130.5,-24.5 130.5,-5.5 181.5,-5.5 181.5,-24.5"/>
<text text-anchor="middle" x="156" y="-12.5" font-family="Helvetica,sans-Serif" font-size="10.00">assert.h</text>
</a>
</g>
</g>
<!-- Node2&#45;&gt;Node5 -->
<g id="edge4" class="edge">
<title>Node2&#45;&gt;Node5</title>
<path fill="none" stroke="#63b8ff" d="M1164.15,-79.79C1000.72,-78.64 381.52,-71.59 191,-30 189.24,-29.62 187.45,-29.15 185.66,-28.63"/>
<polygon fill="#63b8ff" stroke="#63b8ff" points="186.92,-25.36 176.32,-25.38 184.62,-31.97 186.92,-25.36"/>
</g>
<!-- Node6 -->
<g id="node6" class="node">
<title>Node6</title>
<g id="a_node6"><a xlink:title=" ">
<polygon fill="#e0e0e0" stroke="#999999" points="246,-24.5 200,-24.5 200,-5.5 246,-5.5 246,-24.5"/>
<text text-anchor="middle" x="223" y="-12.5" font-family="Helvetica,sans-Serif" font-size="10.00">chrono</text>
</a>
</g>
</g>
<!-- Node2&#45;&gt;Node6 -->
<g id="edge5" class="edge">
<title>Node2&#45;&gt;Node6</title>
<path fill="none" stroke="#63b8ff" d="M1164.26,-79.8C1007.49,-78.71 431.9,-71.89 255,-30 253.61,-29.67 252.2,-29.28 250.79,-28.85"/>
<polygon fill="#63b8ff" stroke="#63b8ff" points="252.22,-25.65 241.63,-25.41 249.76,-32.2 252.22,-25.65"/>
</g>
<!-- Node7 -->
<g id="node7" class="node">
<title>Node7</title>
<g id="a_node7"><a xlink:title=" ">
<polygon fill="#e0e0e0" stroke="#999999" points="308,-24.5 264,-24.5 264,-5.5 308,-5.5 308,-24.5"/>
<text text-anchor="middle" x="286" y="-12.5" font-family="Helvetica,sans-Serif" font-size="10.00">cmath</text>
</a>
</g>
</g>
<!-- Node2&#45;&gt;Node7 -->
<g id="edge6" class="edge">
<title>Node2&#45;&gt;Node7</title>
<path fill="none" stroke="#63b8ff" d="M1164.05,-79.69C1013.55,-78.21 481.04,-70.19 317,-30 315.8,-29.7 314.58,-29.36 313.36,-28.99"/>
<polygon fill="#63b8ff" stroke="#63b8ff" points="314.66,-25.73 304.07,-25.41 312.14,-32.27 314.66,-25.73"/>
</g>
<!-- Node8 -->
<g id="node8" class="node">
<title>Node8</title>
<g id="a_node8"><a xlink:title=" ">
<polygon fill="#e0e0e0" stroke="#999999" points="382,-24.5 326,-24.5 326,-5.5 382,-5.5 382,-24.5"/>
<text text-anchor="middle" x="354" y="-12.5" font-family="Helvetica,sans-Serif" font-size="10.00">concepts</text>
</a>
</g>
</g>
<!-- Node2&#45;&gt;Node8 -->
<g id="edge7" class="edge">
<title>Node2&#45;&gt;Node8</title>
<path fill="none" stroke="#63b8ff" d="M1164.08,-79.13C1021.97,-75.77 541.18,-62.26 391,-30 389.11,-29.59 387.18,-29.11 385.26,-28.56"/>
<polygon fill="#63b8ff" stroke="#63b8ff" points="386.44,-25.27 375.85,-25.45 384.24,-31.91 386.44,-25.27"/>
</g>
<!-- Node9 -->
<g id="node9" class="node">
<title>Node9</title>
<g id="a_node9"><a xlink:title=" ">
<polygon fill="#e0e0e0" stroke="#999999" points="495.5,-24.5 400.5,-24.5 400.5,-5.5 495.5,-5.5 495.5,-24.5"/>
<text text-anchor="middle" x="448" y="-12.5" font-family="Helvetica,sans-Serif" font-size="10.00">condition_variable</text>
</a>
</g>
</g>
<!-- Node2&#45;&gt;Node9 -->
<g id="edge8" class="edge">
<title>Node2&#45;&gt;Node9</title>
<path fill="none" stroke="#63b8ff" d="M1164.32,-79.51C1057.26,-77.68 753.78,-69.16 505,-30 500.6,-29.31 496.03,-28.44 491.49,-27.48"/>
<polygon fill="#63b8ff" stroke="#63b8ff" points="492.36,-24.09 481.84,-25.29 490.81,-30.92 492.36,-24.09"/>
</g>
<!-- Node10 -->
<g id="node10" class="node">
<title>Node10</title>
<g id="a_node10"><a xlink:title=" ">
<polygon fill="#e0e0e0" stroke="#999999" points="560,-24.5 514,-24.5 514,-5.5 560,-5.5 560,-24.5"/>
<text text-anchor="middle" x="537" y="-12.5" font-family="Helvetica,sans-Serif" font-size="10.00">cstdint</text>
</a>
</g>
</g>
<!-- Node2&#45;&gt;Node10 -->
<g id="edge9" class="edge">
<title>Node2&#45;&gt;Node10</title>
<path fill="none" stroke="#63b8ff" d="M1164.25,-78.6C1043.56,-74.08 682.7,-58.49 569,-30 567.64,-29.66 566.27,-29.27 564.9,-28.84"/>
<polygon fill="#63b8ff" stroke="#63b8ff" points="566.58,-25.73 555.98,-25.47 564.1,-32.28 566.58,-25.73"/>
</g>
<!-- Node11 -->
<g id="node11" class="node">
<title>Node11</title>
<g id="a_node11"><a xlink:title=" ">
<polygon fill="#e0e0e0" stroke="#999999" points="623.5,-24.5 578.5,-24.5 578.5,-5.5 623.5,-5.5 623.5,-24.5"/>
<text text-anchor="middle" x="601" y="-12.5" font-family="Helvetica,sans-Serif" font-size="10.00">cstdlib</text>
</a>
</g>
</g>
<!-- Node2&#45;&gt;Node11 -->
<g id="edge10" class="edge">
<title>Node2&#45;&gt;Node11</title>
<path fill="none" stroke="#63b8ff" d="M1164.32,-78.2C1052.1,-72.85 734,-55.78 633,-30 631.64,-29.65 630.27,-29.26 628.9,-28.82"/>
<polygon fill="#63b8ff" stroke="#63b8ff" points="630.58,-25.71 619.99,-25.44 628.1,-32.26 630.58,-25.71"/>
</g>
<!-- Node12 -->
<g id="node12" class="node">
<title>Node12</title>
<g id="a_node12"><a xlink:title=" ">
<polygon fill="#e0e0e0" stroke="#999999" points="702,-24.5 642,-24.5 642,-5.5 702,-5.5 702,-24.5"/>
<text text-anchor="middle" x="672" y="-12.5" font-family="Helvetica,sans-Serif" font-size="10.00">filesystem</text>
</a>
</g>
</g>
<!-- Node2&#45;&gt;Node12 -->
<g id="edge11" class="edge">
<title>Node2&#45;&gt;Node12</title>
<path fill="none" stroke="#63b8ff" d="M1164.17,-79.23C1079.65,-76.9 876.5,-67.51 711,-30 708.98,-29.54 706.93,-29.01 704.87,-28.43"/>
<polygon fill="#63b8ff" stroke="#63b8ff" points="706.03,-25.13 695.44,-25.41 703.89,-31.79 706.03,-25.13"/>
</g>
<!-- Node13 -->
<g id="node13" class="node">
<title>Node13</title>
<g id="a_node13"><a xlink:title=" ">
<polygon fill="#e0e0e0" stroke="#999999" points="770,-24.5 720,-24.5 720,-5.5 770,-5.5 770,-24.5"/>
<text text-anchor="middle" x="745" y="-12.5" font-family="Helvetica,sans-Serif" font-size="10.00">fstream</text>
</a>
</g>
</g>
<!-- Node2&#45;&gt;Node13 -->
<g id="edge12" class="edge">
<title>Node2&#45;&gt;Node13</title>
<path fill="none" stroke="#63b8ff" d="M1164.08,-78.93C1087.98,-76.09 917.43,-65.92 779,-30 777.61,-29.64 776.2,-29.23 774.79,-28.79"/>
<polygon fill="#63b8ff" stroke="#63b8ff" points="776.12,-25.56 765.53,-25.45 773.74,-32.14 776.12,-25.56"/>
</g>
<!-- Node14 -->
<g id="node14" class="node">
<title>Node14</title>
<g id="a_node14"><a xlink:title=" ">
<polygon fill="#e0e0e0" stroke="#999999" points="847.5,-24.5 788.5,-24.5 788.5,-5.5 847.5,-5.5 847.5,-24.5"/>
<text text-anchor="middle" x="818" y="-12.5" font-family="Helvetica,sans-Serif" font-size="10.00">functional</text>
</a>
</g>
</g>
<!-- Node2&#45;&gt;Node14 -->
<g id="edge13" class="edge">
<title>Node2&#45;&gt;Node14</title>
<path fill="none" stroke="#63b8ff" d="M1164.21,-76.89C1099.18,-71.23 966.42,-57.23 857,-30 855.13,-29.53 853.22,-29.01 851.31,-28.45"/>
<polygon fill="#63b8ff" stroke="#63b8ff" points="852.48,-25.15 841.89,-25.39 850.32,-31.81 852.48,-25.15"/>
</g>
<!-- Node15 -->
<g id="node15" class="node">
<title>Node15</title>
<g id="a_node15"><a xlink:title=" ">
<polygon fill="#e0e0e0" stroke="#999999" points="916,-24.5 866,-24.5 866,-5.5 916,-5.5 916,-24.5"/>
<text text-anchor="middle" x="891" y="-12.5" font-family="Helvetica,sans-Serif" font-size="10.00">iomanip</text>
</a>
</g>
</g>
<!-- Node2&#45;&gt;Node15 -->
<g id="edge14" class="edge">
<title>Node2&#45;&gt;Node15</title>
<path fill="none" stroke="#63b8ff" d="M1164.11,-75.57C1109.41,-68.88 1008.38,-54.33 925,-30 923.66,-29.61 922.29,-29.18 920.92,-28.73"/>
<polygon fill="#63b8ff" stroke="#63b8ff" points="922.53,-25.59 911.94,-25.4 920.1,-32.15 922.53,-25.59"/>
</g>
<!-- Node16 -->
<g id="node16" class="node">
<title>Node16</title>
<g id="a_node16"><a xlink:title=" ">
<polygon fill="#e0e0e0" stroke="#999999" points="983.5,-24.5 934.5,-24.5 934.5,-5.5 983.5,-5.5 983.5,-24.5"/>
<text text-anchor="middle" x="959" y="-12.5" font-family="Helvetica,sans-Serif" font-size="10.00">istream</text>
</a>
</g>
</g>
<!-- Node2&#45;&gt;Node16 -->
<g id="edge15" class="edge">
<title>Node2&#45;&gt;Node16</title>
<path fill="none" stroke="#63b8ff" d="M1164.21,-72.53C1121.41,-64.03 1051.59,-48.87 993,-30 992.02,-29.68 991.02,-29.35 990.02,-29.01"/>
<polygon fill="#63b8ff" stroke="#63b8ff" points="991.31,-25.75 980.72,-25.5 988.84,-32.3 991.31,-25.75"/>
</g>
<!-- Node17 -->
<g id="node17" class="node">
<title>Node17</title>
<g id="a_node17"><a xlink:title=" ">
<polygon fill="#e0e0e0" stroke="#999999" points="1042,-24.5 1002,-24.5 1002,-5.5 1042,-5.5 1042,-24.5"/>
<text text-anchor="middle" x="1022" y="-12.5" font-family="Helvetica,sans-Serif" font-size="10.00">limits</text>
</a>
</g>
</g>
<!-- Node2&#45;&gt;Node17 -->
<g id="edge16" class="edge">
<title>Node2&#45;&gt;Node17</title>
<path fill="none" stroke="#63b8ff" d="M1172.5,-71.05C1141.26,-61.87 1092.22,-46.6 1051,-30 1050.65,-29.86 1050.3,-29.72 1049.95,-29.57"/>
<polygon fill="#63b8ff" stroke="#63b8ff" points="1051.56,-26.46 1041,-25.59 1048.71,-32.85 1051.56,-26.46"/>
</g>
<!-- Node18 -->
<g id="node18" class="node">
<title>Node18</title>
<g id="a_node18"><a xlink:title=" ">
<polygon fill="#e0e0e0" stroke="#999999" points="1095.5,-24.5 1060.5,-24.5 1060.5,-5.5 1095.5,-5.5 1095.5,-24.5"/>
<text text-anchor="middle" x="1078" y="-12.5" font-family="Helvetica,sans-Serif" font-size="10.00">map</text>
</a>
</g>
</g>
<!-- Node2&#45;&gt;Node18 -->
<g id="edge17" class="edge">
<title>Node2&#45;&gt;Node18</title>
<path fill="none" stroke="#63b8ff" d="M1185.85,-71.13C1167.56,-62.15 1138.31,-47.67 1104.58,-30.22"/>
<polygon fill="#63b8ff" stroke="#63b8ff" points="1106.3,-27.16 1095.81,-25.66 1103.07,-33.38 1106.3,-27.16"/>
</g>
<!-- Node19 -->
<g id="node19" class="node">
<title>Node19</title>
<g id="a_node19"><a xlink:title=" ">
<polygon fill="#e0e0e0" stroke="#999999" points="1164.5,-24.5 1113.5,-24.5 1113.5,-5.5 1164.5,-5.5 1164.5,-24.5"/>
<text text-anchor="middle" x="1139" y="-12.5" font-family="Helvetica,sans-Serif" font-size="10.00">memory</text>
</a>
</g>
</g>
<!-- Node2&#45;&gt;Node19 -->
<g id="edge18" class="edge">
<title>Node2&#45;&gt;Node19</title>
<path fill="none" stroke="#63b8ff" d="M1194.96,-71.1C1184.87,-61.17 1168.32,-44.87 1155.83,-32.57"/>
<polygon fill="#63b8ff" stroke="#63b8ff" points="1158.62,-30.41 1149.04,-25.89 1153.71,-35.4 1158.62,-30.41"/>
</g>
<!-- Node20 -->
<g id="node20" class="node">
<title>Node20</title>
<g id="a_node20"><a xlink:title=" ">
<polygon fill="#e0e0e0" stroke="#999999" points="1225.5,-24.5 1182.5,-24.5 1182.5,-5.5 1225.5,-5.5 1225.5,-24.5"/>
<text text-anchor="middle" x="1204" y="-12.5" font-family="Helvetica,sans-Serif" font-size="10.00">mutex</text>
</a>
</g>
</g>
<!-- Node2&#45;&gt;Node20 -->
<g id="edge19" class="edge">
<title>Node2&#45;&gt;Node20</title>
<path fill="none" stroke="#63b8ff" d="M1204,-71.1C1204,-62.12 1204,-47.95 1204,-36.22"/>
<polygon fill="#63b8ff" stroke="#63b8ff" points="1207.5,-36.34 1204,-26.34 1200.5,-36.34 1207.5,-36.34"/>
</g>
<!-- Node21 -->
<g id="node21" class="node">
<title>Node21</title>
<g id="a_node21"><a xlink:title=" ">
<polygon fill="#e0e0e0" stroke="#999999" points="1298,-24.5 1244,-24.5 1244,-5.5 1298,-5.5 1298,-24.5"/>
<text text-anchor="middle" x="1271" y="-12.5" font-family="Helvetica,sans-Serif" font-size="10.00">numbers</text>
</a>
</g>
</g>
<!-- Node2&#45;&gt;Node21 -->
<g id="edge20" class="edge">
<title>Node2&#45;&gt;Node21</title>
<path fill="none" stroke="#63b8ff" d="M1213.32,-71.1C1223.72,-61.17 1240.78,-44.87 1253.65,-32.57"/>
<polygon fill="#63b8ff" stroke="#63b8ff" points="1255.86,-35.31 1260.67,-25.87 1251.02,-30.25 1255.86,-35.31"/>
</g>
<!-- Node22 -->
<g id="node22" class="node">
<title>Node22</title>
<g id="a_node22"><a xlink:title=" ">
<polygon fill="#e0e0e0" stroke="#999999" points="1367.5,-24.5 1316.5,-24.5 1316.5,-5.5 1367.5,-5.5 1367.5,-24.5"/>
<text text-anchor="middle" x="1342" y="-12.5" font-family="Helvetica,sans-Serif" font-size="10.00">numeric</text>
</a>
</g>
</g>
<!-- Node2&#45;&gt;Node22 -->
<g id="edge21" class="edge">
<title>Node2&#45;&gt;Node22</title>
<path fill="none" stroke="#63b8ff" d="M1223.19,-71.1C1246.36,-60.35 1285.58,-42.16 1312.58,-29.64"/>
<polygon fill="#63b8ff" stroke="#63b8ff" points="1314,-32.84 1321.6,-25.46 1311.06,-26.49 1314,-32.84"/>
</g>
<!-- Node23 -->
<g id="node23" class="node">
<title>Node23</title>
<g id="a_node23"><a xlink:title=" ">
<polygon fill="#e0e0e0" stroke="#999999" points="1436,-24.5 1386,-24.5 1386,-5.5 1436,-5.5 1436,-24.5"/>
<text text-anchor="middle" x="1411" y="-12.5" font-family="Helvetica,sans-Serif" font-size="10.00">optional</text>
</a>
</g>
</g>
<!-- Node2&#45;&gt;Node23 -->
<g id="edge22" class="edge">
<title>Node2&#45;&gt;Node23</title>
<path fill="none" stroke="#63b8ff" d="M1238.58,-71.02C1273.53,-61.68 1328.96,-46.2 1376,-30 1376.97,-29.66 1377.96,-29.32 1378.96,-28.96"/>
<polygon fill="#63b8ff" stroke="#63b8ff" points="1380.12,-32.26 1388.24,-25.46 1377.65,-25.71 1380.12,-32.26"/>
</g>
<!-- Node24 -->
<g id="node24" class="node">
<title>Node24</title>
<g id="a_node24"><a xlink:title=" ">
<polygon fill="#e0e0e0" stroke="#999999" points="1506,-24.5 1454,-24.5 1454,-5.5 1506,-5.5 1506,-24.5"/>
<text text-anchor="middle" x="1480" y="-12.5" font-family="Helvetica,sans-Serif" font-size="10.00">ostream</text>
</a>
</g>
</g>
<!-- Node2&#45;&gt;Node24 -->
<g id="edge23" class="edge">
<title>Node2&#45;&gt;Node24</title>
<path fill="none" stroke="#63b8ff" d="M1243.77,-73.96C1291.99,-66.12 1375.44,-50.95 1445,-30 1446.34,-29.6 1447.7,-29.16 1449.07,-28.71"/>
<polygon fill="#63b8ff" stroke="#63b8ff" points="1449.87,-32.14 1458.06,-25.42 1447.47,-25.56 1449.87,-32.14"/>
</g>
<!-- Node25 -->
<g id="node25" class="node">
<title>Node25</title>
<g id="a_node25"><a xlink:title=" ">
<polygon fill="#e0e0e0" stroke="#999999" points="1573.5,-24.5 1524.5,-24.5 1524.5,-5.5 1573.5,-5.5 1573.5,-24.5"/>
<text text-anchor="middle" x="1549" y="-12.5" font-family="Helvetica,sans-Serif" font-size="10.00">random</text>
</a>
</g>
</g>
<!-- Node2&#45;&gt;Node25 -->
<g id="edge24" class="edge">
<title>Node2&#45;&gt;Node25</title>
<path fill="none" stroke="#63b8ff" d="M1243.91,-76.56C1303.72,-70.74 1419.74,-56.88 1515,-30 1516.35,-29.62 1517.71,-29.2 1519.09,-28.76"/>
<polygon fill="#63b8ff" stroke="#63b8ff" points="1519.9,-32.19 1528.08,-25.45 1517.48,-25.62 1519.9,-32.19"/>
</g>
<!-- Node26 -->
<g id="node26" class="node">
<title>Node26</title>
<g id="a_node26"><a xlink:title=" ">
<polygon fill="#e0e0e0" stroke="#999999" points="1668.5,-24.5 1591.5,-24.5 1591.5,-5.5 1668.5,-5.5 1668.5,-24.5"/>
<text text-anchor="middle" x="1630" y="-12.5" font-family="Helvetica,sans-Serif" font-size="10.00">shared_mutex</text>
</a>
</g>
</g>
<!-- Node2&#45;&gt;Node26 -->
<g id="edge25" class="edge">
<title>Node2&#45;&gt;Node26</title>
<path fill="none" stroke="#63b8ff" d="M1243.79,-76.75C1313.06,-70.64 1460.06,-55.69 1582,-30 1584.96,-29.38 1588.01,-28.66 1591.06,-27.89"/>
<polygon fill="#63b8ff" stroke="#63b8ff" points="1591.8,-31.32 1600.55,-25.34 1589.98,-24.56 1591.8,-31.32"/>
</g>
<!-- Node27 -->
<g id="node27" class="node">
<title>Node27</title>
<g id="a_node27"><a xlink:title=" ">
<polygon fill="#e0e0e0" stroke="#999999" points="1725,-24.5 1687,-24.5 1687,-5.5 1725,-5.5 1725,-24.5"/>
<text text-anchor="middle" x="1706" y="-12.5" font-family="Helvetica,sans-Serif" font-size="10.00">span</text>
</a>
</g>
</g>
<!-- Node2&#45;&gt;Node27 -->
<g id="edge26" class="edge">
<title>Node2&#45;&gt;Node27</title>
<path fill="none" stroke="#63b8ff" d="M1243.8,-80.36C1326.28,-80.11 1521.15,-74.4 1677,-30 1677.83,-29.76 1678.66,-29.51 1679.49,-29.23"/>
<polygon fill="#63b8ff" stroke="#63b8ff" points="1680.8,-32.48 1688.73,-25.44 1678.15,-26 1680.8,-32.48"/>
</g>
<!-- Node28 -->
<g id="node28" class="node">
<title>Node28</title>
<g id="a_node28"><a xlink:title=" ">
<polygon fill="#e0e0e0" stroke="#999999" points="1795,-24.5 1743,-24.5 1743,-5.5 1795,-5.5 1795,-24.5"/>
<text text-anchor="middle" x="1769" y="-12.5" font-family="Helvetica,sans-Serif" font-size="10.00">sstream</text>
</a>
</g>
</g>
<!-- Node2&#45;&gt;Node28 -->
<g id="edge27" class="edge">
<title>Node2&#45;&gt;Node28</title>
<path fill="none" stroke="#63b8ff" d="M1243.86,-80.1C1333.02,-79.5 1554.78,-73.34 1734,-30 1735.63,-29.61 1737.28,-29.15 1738.94,-28.65"/>
<polygon fill="#63b8ff" stroke="#63b8ff" points="1740,-31.99 1748.27,-25.37 1737.68,-25.38 1740,-31.99"/>
</g>
<!-- Node29 -->
<g id="node29" class="node">
<title>Node29</title>
<g id="a_node29"><a xlink:title=" ">
<polygon fill="#e0e0e0" stroke="#999999" points="1872.5,-24.5 1813.5,-24.5 1813.5,-5.5 1872.5,-5.5 1872.5,-24.5"/>
<text text-anchor="middle" x="1843" y="-12.5" font-family="Helvetica,sans-Serif" font-size="10.00">stdexcept</text>
</a>
</g>
</g>
<!-- Node2&#45;&gt;Node29 -->
<g id="edge28" class="edge">
<title>Node2&#45;&gt;Node29</title>
<path fill="none" stroke="#63b8ff" d="M1243.84,-80.25C1340.86,-80.09 1596.64,-75.04 1804,-30 1806.16,-29.53 1808.37,-28.97 1810.57,-28.35"/>
<polygon fill="#63b8ff" stroke="#63b8ff" points="1811.53,-31.72 1819.99,-25.34 1809.4,-25.05 1811.53,-31.72"/>
</g>
<!-- Node30 -->
<g id="node30" class="node">
<title>Node30</title>
<g id="a_node30"><a xlink:title=" ">
<polygon fill="#e0e0e0" stroke="#999999" points="1939,-24.5 1891,-24.5 1891,-5.5 1939,-5.5 1939,-24.5"/>
<text text-anchor="middle" x="1915" y="-12.5" font-family="Helvetica,sans-Serif" font-size="10.00">stdint.h</text>
</a>
</g>
</g>
<!-- Node2&#45;&gt;Node30 -->
<g id="edge29" class="edge">
<title>Node2&#45;&gt;Node30</title>
<path fill="none" stroke="#63b8ff" d="M1243.66,-78.72C1369.47,-74.39 1758.57,-58.95 1881,-30 1882.59,-29.62 1884.21,-29.18 1885.82,-28.69"/>
<polygon fill="#63b8ff" stroke="#63b8ff" points="1886.63,-32.12 1894.87,-25.45 1884.27,-25.53 1886.63,-32.12"/>
</g>
<!-- Node31 -->
<g id="node31" class="node">
<title>Node31</title>
<g id="a_node31"><a xlink:title=" ">
<polygon fill="#e0e0e0" stroke="#999999" points="1998.5,-24.5 1957.5,-24.5 1957.5,-5.5 1998.5,-5.5 1998.5,-24.5"/>
<text text-anchor="middle" x="1978" y="-12.5" font-family="Helvetica,sans-Serif" font-size="10.00">string</text>
</a>
</g>
</g>
<!-- Node2&#45;&gt;Node31 -->
<g id="edge30" class="edge">
<title>Node2&#45;&gt;Node31</title>
<path fill="none" stroke="#63b8ff" d="M1243.83,-79.25C1378.04,-76.43 1812.91,-64.76 1948,-30 1949,-29.74 1950,-29.45 1951.01,-29.14"/>
<polygon fill="#63b8ff" stroke="#63b8ff" points="1952.15,-32.45 1960.18,-25.54 1949.59,-25.93 1952.15,-32.45"/>
</g>
<!-- Node32 -->
<g id="node32" class="node">
<title>Node32</title>
<g id="a_node32"><a xlink:title=" ">
<polygon fill="#e0e0e0" stroke="#999999" points="2061,-24.5 2017,-24.5 2017,-5.5 2061,-5.5 2061,-24.5"/>
<text text-anchor="middle" x="2039" y="-12.5" font-family="Helvetica,sans-Serif" font-size="10.00">thread</text>
</a>
</g>
</g>
<!-- Node2&#45;&gt;Node32 -->
<g id="edge31" class="edge">
<title>Node2&#45;&gt;Node32</title>
<path fill="none" stroke="#63b8ff" d="M1243.97,-79.35C1385.15,-76.78 1859.69,-65.63 2007,-30 2008.36,-29.67 2009.73,-29.29 2011.11,-28.86"/>
<polygon fill="#63b8ff" stroke="#63b8ff" points="2011.89,-32.31 2020.03,-25.52 2009.43,-25.75 2011.89,-32.31"/>
</g>
<!-- Node33 -->
<g id="node33" class="node">
<title>Node33</title>
<g id="a_node33"><a xlink:title=" ">
<polygon fill="#e0e0e0" stroke="#999999" points="2141,-24.5 2079,-24.5 2079,-5.5 2141,-5.5 2141,-24.5"/>
<text text-anchor="middle" x="2110" y="-12.5" font-family="Helvetica,sans-Serif" font-size="10.00">type_traits</text>
</a>
</g>
</g>
<!-- Node2&#45;&gt;Node33 -->
<g id="edge32" class="edge">
<title>Node2&#45;&gt;Node33</title>
<path fill="none" stroke="#63b8ff" d="M1243.92,-79.17C1391.86,-75.87 1908.66,-62.23 2070,-30 2072.31,-29.54 2074.67,-28.97 2077.03,-28.34"/>
<polygon fill="#63b8ff" stroke="#63b8ff" points="2077.92,-31.72 2086.44,-25.42 2075.85,-25.04 2077.92,-31.72"/>
</g>
<!-- Node34 -->
<g id="node34" class="node">
<title>Node34</title>
<g id="a_node34"><a xlink:title=" ">
<polygon fill="#e0e0e0" stroke="#999999" points="2237,-24.5 2159,-24.5 2159,-5.5 2237,-5.5 2237,-24.5"/>
<text text-anchor="middle" x="2198" y="-12.5" font-family="Helvetica,sans-Serif" font-size="10.00">unordered_set</text>
</a>
</g>
</g>
<!-- Node2&#45;&gt;Node34 -->
<g id="edge33" class="edge">
<title>Node2&#45;&gt;Node34</title>
<path fill="none" stroke="#63b8ff" d="M1243.75,-79.12C1399.9,-75.48 1971.44,-60.34 2150,-30 2153.4,-29.42 2156.9,-28.69 2160.39,-27.86"/>
<polygon fill="#63b8ff" stroke="#63b8ff" points="2161.11,-31.29 2169.88,-25.35 2159.32,-24.52 2161.11,-31.29"/>
</g>
<!-- Node35 -->
<g id="node35" class="node">
<title>Node35</title>
<g id="a_node35"><a xlink:title=" ">
<polygon fill="#e0e0e0" stroke="#999999" points="2301,-24.5 2255,-24.5 2255,-5.5 2301,-5.5 2301,-24.5"/>
<text text-anchor="middle" x="2278" y="-12.5" font-family="Helvetica,sans-Serif" font-size="10.00">variant</text>
</a>
</g>
</g>
<!-- Node2&#45;&gt;Node35 -->
<g id="edge34" class="edge">
<title>Node2&#45;&gt;Node35</title>
<path fill="none" stroke="#63b8ff" d="M1243.9,-80.02C1410.41,-79.78 2050.27,-75.87 2246,-30 2247.39,-29.67 2248.8,-29.29 2250.22,-28.86"/>
<polygon fill="#63b8ff" stroke="#63b8ff" points="2251.24,-32.21 2259.37,-25.42 2248.78,-25.66 2251.24,-32.21"/>
</g>
<!-- Node36 -->
<g id="node36" class="node">
<title>Node36</title>
<g id="a_node36"><a xlink:title=" ">
<polygon fill="#e0e0e0" stroke="#999999" points="2363,-24.5 2319,-24.5 2319,-5.5 2363,-5.5 2363,-24.5"/>
<text text-anchor="middle" x="2341" y="-12.5" font-family="Helvetica,sans-Serif" font-size="10.00">vector</text>
</a>
</g>
</g>
<!-- Node2&#45;&gt;Node36 -->
<g id="edge35" class="edge">
<title>Node2&#45;&gt;Node36</title>
<path fill="none" stroke="#63b8ff" d="M1243.72,-80.21C1416.26,-80.79 2101.44,-79.86 2310,-30 2311.21,-29.71 2312.42,-29.38 2313.64,-29"/>
<polygon fill="#63b8ff" stroke="#63b8ff" points="2314.85,-32.29 2322.94,-25.45 2312.35,-25.75 2314.85,-32.29"/>
</g>
<!-- Node38 -->
<g id="node38" class="node">
<title>Node38</title>
<g id="a_node38"><a xlink:title=" ">
<polygon fill="#e0e0e0" stroke="#999999" points="2462.5,-24.5 2381.5,-24.5 2381.5,-5.5 2462.5,-5.5 2462.5,-24.5"/>
<text text-anchor="middle" x="2422" y="-12.5" font-family="Helvetica,sans-Serif" font-size="10.00">spdlog/async.h</text>
</a>
</g>
</g>
<!-- Node37&#45;&gt;Node38 -->
<g id="edge37" class="edge">
<title>Node37&#45;&gt;Node38</title>
<path fill="none" stroke="#63b8ff" d="M2625.92,-71C2587.75,-61.16 2524.94,-44.8 2471,-30 2468.73,-29.38 2466.41,-28.73 2464.07,-28.08"/>
<polygon fill="#63b8ff" stroke="#63b8ff" points="2465.11,-24.74 2454.53,-25.4 2463.21,-31.48 2465.11,-24.74"/>
</g>
<!-- Node39 -->
<g id="node39" class="node">
<title>Node39</title>
<g id="a_node39"><a xlink:title=" ">
<polygon fill="#e0e0e0" stroke="#999999" points="2593.5,-30 2480.5,-30 2480.5,0 2593.5,0 2593.5,-30"/>
<text text-anchor="start" x="2488.5" y="-18" font-family="Helvetica,sans-Serif" font-size="10.00">spdlog/sinks/ansicolor</text>
<text text-anchor="middle" x="2537" y="-7" font-family="Helvetica,sans-Serif" font-size="10.00">_sink.h</text>
</a>
</g>
</g>
<!-- Node37&#45;&gt;Node39 -->
<g id="edge38" class="edge">
<title>Node37&#45;&gt;Node39</title>
<path fill="none" stroke="#63b8ff" d="M2643.76,-71.1C2626.1,-61.99 2598.07,-47.52 2575.16,-35.7"/>
<polygon fill="#63b8ff" stroke="#63b8ff" points="2576.89,-32.65 2566.4,-31.17 2573.68,-38.87 2576.89,-32.65"/>
</g>
<!-- Node40 -->
<g id="node40" class="node">
<title>Node40</title>
<g id="a_node40"><a xlink:title=" ">
<polygon fill="#e0e0e0" stroke="#999999" points="2710,-30 2612,-30 2612,0 2710,0 2710,-30"/>
<text text-anchor="start" x="2620" y="-18" font-family="Helvetica,sans-Serif" font-size="10.00">spdlog/sinks/basic</text>
<text text-anchor="middle" x="2661" y="-7" font-family="Helvetica,sans-Serif" font-size="10.00">_file_sink.h</text>
</a>
</g>
</g>
<!-- Node37&#45;&gt;Node40 -->
<g id="edge39" class="edge">
<title>Node37&#45;&gt;Node40</title>
<path fill="none" stroke="#63b8ff" d="M2661,-71.1C2661,-63.41 2661,-51.92 2661,-41.42"/>
<polygon fill="#63b8ff" stroke="#63b8ff" points="2664.5,-41.75 2661,-31.75 2657.5,-41.75 2664.5,-41.75"/>
</g>
<!-- Node41 -->
<g id="node41" class="node">
<title>Node41</title>
<g id="a_node41"><a xlink:title=" ">
<polygon fill="#e0e0e0" stroke="#999999" points="2829.5,-30 2728.5,-30 2728.5,0 2829.5,0 2829.5,-30"/>
<text text-anchor="start" x="2736.5" y="-18" font-family="Helvetica,sans-Serif" font-size="10.00">spdlog/sinks/stdout</text>
<text text-anchor="middle" x="2779" y="-7" font-family="Helvetica,sans-Serif" font-size="10.00">_color_sinks.h</text>
</a>
</g>
</g>
<!-- Node37&#45;&gt;Node41 -->
<g id="edge40" class="edge">
<title>Node37&#45;&gt;Node41</title>
<path fill="none" stroke="#63b8ff" d="M2677.41,-71.1C2694.14,-62.03 2720.65,-47.65 2742.39,-35.86"/>
<polygon fill="#63b8ff" stroke="#63b8ff" points="2743.85,-39.04 2750.98,-31.2 2740.52,-32.89 2743.85,-39.04"/>
</g>
<!-- Node42 -->
<g id="node42" class="node">
<title>Node42</title>
<g id="a_node42"><a xlink:title=" ">
<polygon fill="#e0e0e0" stroke="#999999" points="2932,-24.5 2848,-24.5 2848,-5.5 2932,-5.5 2932,-24.5"/>
<text text-anchor="middle" x="2890" y="-12.5" font-family="Helvetica,sans-Serif" font-size="10.00">spdlog/spdlog.h</text>
</a>
</g>
</g>
<!-- Node37&#45;&gt;Node42 -->
<g id="edge41" class="edge">
<title>Node37&#45;&gt;Node42</title>
<path fill="none" stroke="#63b8ff" d="M2692.84,-71.1C2733.06,-59.86 2802.42,-40.48 2847.23,-27.95"/>
<polygon fill="#63b8ff" stroke="#63b8ff" points="2847.91,-31.4 2856.6,-25.33 2846.03,-24.65 2847.91,-31.4"/>
</g>
<!-- Node43 -->
<g id="node43" class="node">
<title>Node43</title>
<g id="a_node43"><a xlink:href="../../d4/dfc/win-undef_8hpp.html" target="_top" xlink:title=" ">
<polygon fill="white" stroke="#666666" points="3027.5,-24.5 2950.5,-24.5 2950.5,-5.5 3027.5,-5.5 3027.5,-24.5"/>
<text text-anchor="middle" x="2989" y="-12.5" font-family="Helvetica,sans-Serif" font-size="10.00">win&#45;undef.hpp</text>
</a>
</g>
</g>
<!-- Node37&#45;&gt;Node43 -->
<g id="edge42" class="edge">
<title>Node37&#45;&gt;Node43</title>
<path fill="none" stroke="#63b8ff" d="M2696.18,-71.06C2703.69,-69.27 2711.59,-67.49 2719,-66 2816.99,-46.26 2843.5,-52.04 2941,-30 2943.78,-29.37 2946.63,-28.68 2949.5,-27.94"/>
<polygon fill="#63b8ff" stroke="#63b8ff" points="2950.28,-31.35 2959.01,-25.34 2948.44,-24.6 2950.28,-31.35"/>
</g>
<!-- Node44&#45;&gt;Node1 -->
<g id="edge44" class="edge">
<title>Node44&#45;&gt;Node1</title>
<path fill="none" stroke="#63b8ff" d="M2783.07,-96.47C2776.68,-104.38 2767.61,-114.45 2758.53,-123.81"/>
<polygon fill="#63b8ff" stroke="#63b8ff" points="2756.24,-121.14 2751.67,-130.7 2761.21,-126.07 2756.24,-121.14"/>
</g>
</g>
</svg>
