<?xml version="1.0" encoding="UTF-8" standalone="no"?>
<!DOCTYPE svg PUBLIC "-//W3C//DTD SVG 1.1//EN"
 "http://www.w3.org/Graphics/SVG/1.1/DTD/svg11.dtd">
<!-- Generated by graphviz version 8.1.0 (20230707.0739)
 -->
<!-- Title: third_party/mal&#45;toolkit/mal&#45;toolkit/mal&#45;toolkit/debug.hpp Pages: 1 -->
<!--zoomable 183 -->

<svg id="main" version="1.1" xmlns="http://www.w3.org/2000/svg" xmlns:xlink="http://www.w3.org/1999/xlink" xml:space="preserve" onload="init(evt)">
<style type="text/css"><![CDATA[
.node, .edge {opacity: 0.7;}
.node.selected, .edge.selected {opacity: 1;}
.edge:hover path { stroke: red; }
.edge:hover polygon { stroke: red; fill: red; }
]]></style>

<defs>
  <circle id="rim" cx="0" cy="0" r="7"/>
  <circle id="rim2" cx="0" cy="0" r="3.5"/>
  <g id="zoomPlus">
    <use xlink:href="#rim" fill="#404040"><set attributeName="fill" to="#808080" begin="zoomplus.mouseover" end="zoomplus.mouseout"/></use>
    <path d="M-4,0h8M0,-4v8" fill="none" stroke="white" stroke-width="1.5" pointer-events="none"/>
  </g>
  <g id="zoomMin">
    <use xlink:href="#rim" fill="#404040"><set attributeName="fill" to="#808080" begin="zoomminus.mouseover" end="zoomminus.mouseout"/></use>
    <path d="M-4,0h8" fill="none" stroke="white" stroke-width="1.5" pointer-events="none"/>
  </g>
  <g id="arrowUp" transform="translate(30 24)">
    <use xlink:href="#rim"/>
    <path pointer-events="none" fill="none" stroke="white" stroke-width="1.5" d="M0,-3.0v7 M-2.5,-0.5L0,-3.0L2.5,-0.5"/>
  </g>
  <g id="arrowRight" transform="rotate(90) translate(36 -43)">
    <use xlink:href="#rim"/>
    <path pointer-events="none" fill="none" stroke="white" stroke-width="1.5" d="M0,-3.0v7 M-2.5,-0.5L0,-3.0L2.5,-0.5"/>
  </g>
  <g id="arrowDown" transform="rotate(180) translate(-30 -48)">
    <use xlink:href="#rim"/>
    <path pointer-events="none" fill="none" stroke="white" stroke-width="1.5" d="M0,-3.0v7 M-2.5,-0.5L0,-3.0L2.5,-0.5"/>
  </g>
  <g id="arrowLeft" transform="rotate(270) translate(-36 17)">
    <use xlink:href="#rim"/>
    <path pointer-events="none" fill="none" stroke="white" stroke-width="1.5" d="M0,-3.0v7 M-2.5,-0.5L0,-3.0L2.5,-0.5"/>
  </g>
  <g id="resetDef">
    <use xlink:href="#rim2" fill="#404040"><set attributeName="fill" to="#808080" begin="reset.mouseover" end="reset.mouseout"/></use>
  </g>
</defs>
<script type="application/ecmascript">
var viewWidth = 2866;
var viewHeight = 183;
var sectionId = 'dynsection-0';
</script>
<script type="application/ecmascript" xlink:href="../../svg.min.js"/>
<svg id="graph" class="graph">
<g id="viewport">
<title>third_party/mal&#45;toolkit/mal&#45;toolkit/mal&#45;toolkit/debug.hpp</title>
<!-- Node1 -->
<g id="Node000001" class="node">
<title>Node1</title>
<g id="a_Node000001"><a xlink:title="Contains debugging&#45;related macros and utilities for assisting with debugging tasks.">
<polygon fill="#999999" stroke="#666666" points="2629.5,-174.75 2522,-174.75 2522,-133 2629.5,-133 2629.5,-174.75"/>
<text text-anchor="start" x="2530" y="-161.25" font-family="Times,serif" font-size="10.00">third_party/mal&#45;toolkit</text>
<text text-anchor="start" x="2530" y="-150" font-family="Times,serif" font-size="10.00">/mal&#45;toolkit/mal&#45;toolkit</text>
<text text-anchor="middle" x="2575.75" y="-138.75" font-family="Times,serif" font-size="10.00">/debug.hpp</text>
</a>
</g>
</g>
<!-- Node2 -->
<g id="Node000002" class="node">
<title>Node2</title>
<g id="a_Node000002"><a xlink:href="../../db/d6e/library-pch_8hpp.html" target="_top" xlink:title="Precompiled header (PCH) file for common headers used across the library.">
<polygon fill="white" stroke="#666666" points="1182.25,-91.38 1103.25,-91.38 1103.25,-72.12 1182.25,-72.12 1182.25,-91.38"/>
<text text-anchor="middle" x="1142.75" y="-77.88" font-family="Times,serif" font-size="10.00">library&#45;pch.hpp</text>
</a>
</g>
</g>
<!-- Node1&#45;&gt;Node2 -->
<g id="edge1_Node000001_Node000002" class="edge">
<title>Node1&#45;&gt;Node2</title>
<g id="a_edge1_Node000001_Node000002"><a xlink:title=" ">
<path fill="none" stroke="#63b8ff" d="M2521.76,-150.23C2294.2,-139.1 1414.84,-96.06 1193.53,-85.23"/>
<polygon fill="#63b8ff" stroke="#63b8ff" points="1193.75,-81.69 1183.59,-84.7 1193.41,-88.68 1193.75,-81.69"/>
</a>
</g>
</g>
<!-- Node37 -->
<g id="Node000037" class="node">
<title>Node37</title>
<g id="a_Node000037"><a xlink:href="../../dd/db5/spdlog_8hpp.html" target="_top" xlink:title="Provides integration with the SPDLOG library for efficient logging and debugging.">
<polygon fill="white" stroke="#666666" points="2560.62,-91.38 2468.88,-91.38 2468.88,-72.12 2560.62,-72.12 2560.62,-91.38"/>
<text text-anchor="middle" x="2514.75" y="-77.88" font-family="Times,serif" font-size="10.00">include/spdlog.hpp</text>
</a>
</g>
</g>
<!-- Node1&#45;&gt;Node37 -->
<g id="edge36_Node000001_Node000037" class="edge">
<title>Node1&#45;&gt;Node37</title>
<g id="a_edge36_Node000001_Node000037"><a xlink:title=" ">
<path fill="none" stroke="#63b8ff" d="M2558.11,-132.59C2549.05,-122.19 2538.15,-109.65 2529.55,-99.76"/>
<polygon fill="#63b8ff" stroke="#63b8ff" points="2531.61,-97.8 2522.41,-92.55 2526.33,-102.39 2531.61,-97.8"/>
</a>
</g>
</g>
<!-- Node44 -->
<g id="Node000044" class="node">
<title>Node44</title>
<g id="a_Node000044"><a xlink:href="../../da/d43/debug__with__source__location_8hpp.html" target="_top" xlink:title="This file provides utility functions for debugging and assertion handling.">
<polygon fill="white" stroke="#666666" points="2697.12,-97 2578.38,-97 2578.38,-66.5 2697.12,-66.5 2697.12,-97"/>
<text text-anchor="start" x="2586.38" y="-83.5" font-family="Times,serif" font-size="10.00">detail/debug_with_source</text>
<text text-anchor="middle" x="2637.75" y="-72.25" font-family="Times,serif" font-size="10.00">_location.hpp</text>
</a>
</g>
</g>
<!-- Node1&#45;&gt;Node44 -->
<g id="edge43_Node000001_Node000044" class="edge">
<title>Node1&#45;&gt;Node44</title>
<g id="a_edge43_Node000001_Node000044"><a xlink:title=" ">
<path fill="none" stroke="#63b8ff" d="M2587.5,-132.59C2594.46,-123.92 2603.39,-113.77 2611.84,-104.9"/>
<polygon fill="#63b8ff" stroke="#63b8ff" points="2613.89,-107.79 2618.39,-98.2 2608.89,-102.89 2613.89,-107.79"/>
</a>
</g>
</g>
<!-- Node3 -->
<g id="Node000003" class="node">
<title>Node3</title>
<g id="a_Node000003"><a xlink:title=" ">
<polygon fill="#e0e0e0" stroke="#999999" points="53.5,-24.88 0,-24.88 0,-5.63 53.5,-5.63 53.5,-24.88"/>
<text text-anchor="middle" x="26.75" y="-11.38" font-family="Times,serif" font-size="10.00">algorithm</text>
</a>
</g>
</g>
<!-- Node2&#45;&gt;Node3 -->
<g id="edge2_Node000002_Node000003" class="edge">
<title>Node2&#45;&gt;Node3</title>
<g id="a_edge2_Node000002_Node000003"><a xlink:title=" ">
<path fill="none" stroke="#63b8ff" d="M1102.88,-80.65C932.77,-79.95 267.02,-74.4 62.75,-30.5 60.68,-30.06 58.57,-29.5 56.47,-28.88"/>
<polygon fill="#63b8ff" stroke="#63b8ff" points="57.78,-25.28 47.19,-25.3 55.48,-31.89 57.78,-25.28"/>
</a>
</g>
</g>
<!-- Node4 -->
<g id="Node000004" class="node">
<title>Node4</title>
<g id="a_Node000004"><a xlink:title=" ">
<polygon fill="#e0e0e0" stroke="#999999" points="107.88,-24.88 71.62,-24.88 71.62,-5.63 107.88,-5.63 107.88,-24.88"/>
<text text-anchor="middle" x="89.75" y="-11.38" font-family="Times,serif" font-size="10.00">array</text>
</a>
</g>
</g>
<!-- Node2&#45;&gt;Node4 -->
<g id="edge3_Node000002_Node000004" class="edge">
<title>Node2&#45;&gt;Node4</title>
<g id="a_edge3_Node000002_Node000004"><a xlink:title=" ">
<path fill="none" stroke="#63b8ff" d="M1102.87,-81.02C937.91,-81.79 308.66,-81.26 117.75,-30.5 116.64,-30.21 115.53,-29.86 114.42,-29.48"/>
<polygon fill="#63b8ff" stroke="#63b8ff" points="116.26,-26.04 105.69,-25.31 113.5,-32.47 116.26,-26.04"/>
</a>
</g>
</g>
<!-- Node5 -->
<g id="Node000005" class="node">
<title>Node5</title>
<g id="a_Node000005"><a xlink:title=" ">
<polygon fill="#e0e0e0" stroke="#999999" points="173.12,-24.88 126.38,-24.88 126.38,-5.63 173.12,-5.63 173.12,-24.88"/>
<text text-anchor="middle" x="149.75" y="-11.38" font-family="Times,serif" font-size="10.00">assert.h</text>
</a>
</g>
</g>
<!-- Node2&#45;&gt;Node5 -->
<g id="edge4_Node000002_Node000005" class="edge">
<title>Node2&#45;&gt;Node5</title>
<g id="a_edge4_Node000002_Node000005"><a xlink:title=" ">
<path fill="none" stroke="#63b8ff" d="M1102.77,-80.6C944.38,-79.7 360.85,-73.49 181.75,-30.5 180.2,-30.13 178.63,-29.68 177.06,-29.18"/>
<polygon fill="#63b8ff" stroke="#63b8ff" points="178.54,-25.61 167.95,-25.29 176.02,-32.15 178.54,-25.61"/>
</a>
</g>
</g>
<!-- Node6 -->
<g id="Node000006" class="node">
<title>Node6</title>
<g id="a_Node000006"><a xlink:title=" ">
<polygon fill="#e0e0e0" stroke="#999999" points="234.25,-24.88 191.25,-24.88 191.25,-5.63 234.25,-5.63 234.25,-24.88"/>
<text text-anchor="middle" x="212.75" y="-11.38" font-family="Times,serif" font-size="10.00">chrono</text>
</a>
</g>
</g>
<!-- Node2&#45;&gt;Node6 -->
<g id="edge5_Node000002_Node000006" class="edge">
<title>Node2&#45;&gt;Node6</title>
<g id="a_edge5_Node000002_Node000006"><a xlink:title=" ">
<path fill="none" stroke="#63b8ff" d="M1102.77,-80.49C950.92,-79.21 410.07,-71.79 243.75,-30.5 242.24,-30.13 240.72,-29.68 239.19,-29.18"/>
<polygon fill="#63b8ff" stroke="#63b8ff" points="240.97,-25.72 230.39,-25.28 238.39,-32.23 240.97,-25.72"/>
</a>
</g>
</g>
<!-- Node7 -->
<g id="Node000007" class="node">
<title>Node7</title>
<g id="a_Node000007"><a xlink:title=" ">
<polygon fill="#e0e0e0" stroke="#999999" points="293.12,-24.88 252.38,-24.88 252.38,-5.63 293.12,-5.63 293.12,-24.88"/>
<text text-anchor="middle" x="272.75" y="-11.38" font-family="Times,serif" font-size="10.00">cmath</text>
</a>
</g>
</g>
<!-- Node2&#45;&gt;Node7 -->
<g id="edge6_Node000002_Node000007" class="edge">
<title>Node2&#45;&gt;Node7</title>
<g id="a_edge6_Node000002_Node000007"><a xlink:title=" ">
<path fill="none" stroke="#63b8ff" d="M1102.91,-80.38C957.67,-78.71 456.98,-70.14 302.75,-30.5 301.43,-30.16 300.1,-29.76 298.77,-29.32"/>
<polygon fill="#63b8ff" stroke="#63b8ff" points="300.41,-25.8 289.83,-25.27 297.77,-32.28 300.41,-25.8"/>
</a>
</g>
</g>
<!-- Node8 -->
<g id="Node000008" class="node">
<title>Node8</title>
<g id="a_Node000008"><a xlink:title=" ">
<polygon fill="#e0e0e0" stroke="#999999" points="362,-24.88 311.5,-24.88 311.5,-5.63 362,-5.63 362,-24.88"/>
<text text-anchor="middle" x="336.75" y="-11.38" font-family="Times,serif" font-size="10.00">concepts</text>
</a>
</g>
</g>
<!-- Node2&#45;&gt;Node8 -->
<g id="edge7_Node000002_Node000008" class="edge">
<title>Node2&#45;&gt;Node8</title>
<g id="a_edge7_Node000002_Node000008"><a xlink:title=" ">
<path fill="none" stroke="#63b8ff" d="M1102.98,-79.84C965.8,-76.44 513.1,-62.98 371.75,-30.5 369.82,-30.06 367.86,-29.52 365.9,-28.92"/>
<polygon fill="#63b8ff" stroke="#63b8ff" points="367.24,-25.32 356.64,-25.23 364.87,-31.91 367.24,-25.32"/>
</a>
</g>
</g>
<!-- Node9 -->
<g id="Node000009" class="node">
<title>Node9</title>
<g id="a_Node000009"><a xlink:title=" ">
<polygon fill="#e0e0e0" stroke="#999999" points="469.12,-24.88 380.38,-24.88 380.38,-5.63 469.12,-5.63 469.12,-24.88"/>
<text text-anchor="middle" x="424.75" y="-11.38" font-family="Times,serif" font-size="10.00">condition_variable</text>
</a>
</g>
</g>
<!-- Node2&#45;&gt;Node9 -->
<g id="edge8_Node000002_Node000009" class="edge">
<title>Node2&#45;&gt;Node9</title>
<g id="a_edge8_Node000002_Node000009"><a xlink:title=" ">
<path fill="none" stroke="#63b8ff" d="M1103.09,-80.33C999.49,-78.69 712.57,-70.58 477.75,-30.5 473.59,-29.79 469.28,-28.9 465,-27.91"/>
<polygon fill="#63b8ff" stroke="#63b8ff" points="466.07,-24.32 455.52,-25.3 464.38,-31.11 466.07,-24.32"/>
</a>
</g>
</g>
<!-- Node10 -->
<g id="Node000010" class="node">
<title>Node10</title>
<g id="a_Node000010"><a xlink:title=" ">
<polygon fill="#e0e0e0" stroke="#999999" points="530.25,-24.88 487.25,-24.88 487.25,-5.63 530.25,-5.63 530.25,-24.88"/>
<text text-anchor="middle" x="508.75" y="-11.38" font-family="Times,serif" font-size="10.00">cstdint</text>
</a>
</g>
</g>
<!-- Node2&#45;&gt;Node10 -->
<g id="edge9_Node000002_Node000010" class="edge">
<title>Node2&#45;&gt;Node10</title>
<g id="a_edge9_Node000002_Node000010"><a xlink:title=" ">
<path fill="none" stroke="#63b8ff" d="M1102.84,-79.3C985.94,-74.75 645.81,-59.35 538.75,-30.5 537.61,-30.19 536.46,-29.84 535.31,-29.46"/>
<polygon fill="#63b8ff" stroke="#63b8ff" points="536.74,-25.86 526.16,-25.35 534.11,-32.35 536.74,-25.86"/>
</a>
</g>
</g>
<!-- Node11 -->
<g id="Node000011" class="node">
<title>Node11</title>
<g id="a_Node000011"><a xlink:title=" ">
<polygon fill="#e0e0e0" stroke="#999999" points="591.25,-24.88 548.25,-24.88 548.25,-5.63 591.25,-5.63 591.25,-24.88"/>
<text text-anchor="middle" x="569.75" y="-11.38" font-family="Times,serif" font-size="10.00">cstdlib</text>
</a>
</g>
</g>
<!-- Node2&#45;&gt;Node11 -->
<g id="edge10_Node000002_Node000011" class="edge">
<title>Node2&#45;&gt;Node11</title>
<g id="a_edge10_Node000002_Node000011"><a xlink:title=" ">
<path fill="none" stroke="#63b8ff" d="M1103.04,-78.88C994.54,-73.49 694.81,-56.59 599.75,-30.5 598.61,-30.19 597.46,-29.83 596.31,-29.45"/>
<polygon fill="#63b8ff" stroke="#63b8ff" points="597.75,-25.85 587.17,-25.32 595.11,-32.33 597.75,-25.85"/>
</a>
</g>
</g>
<!-- Node12 -->
<g id="Node000012" class="node">
<title>Node12</title>
<g id="a_Node000012"><a xlink:title=" ">
<polygon fill="#e0e0e0" stroke="#999999" points="664.25,-24.88 609.25,-24.88 609.25,-5.63 664.25,-5.63 664.25,-24.88"/>
<text text-anchor="middle" x="636.75" y="-11.38" font-family="Times,serif" font-size="10.00">filesystem</text>
</a>
</g>
</g>
<!-- Node2&#45;&gt;Node12 -->
<g id="edge11_Node000002_Node000012" class="edge">
<title>Node2&#45;&gt;Node12</title>
<g id="a_edge11_Node000002_Node000012"><a xlink:title=" ">
<path fill="none" stroke="#63b8ff" d="M1102.82,-80.1C1020.97,-77.98 828.72,-68.95 672.75,-30.5 670.96,-30.06 669.13,-29.55 667.3,-28.98"/>
<polygon fill="#63b8ff" stroke="#63b8ff" points="668.59,-25.38 658,-25.37 666.28,-31.98 668.59,-25.38"/>
</a>
</g>
</g>
<!-- Node13 -->
<g id="Node000013" class="node">
<title>Node13</title>
<g id="a_Node000013"><a xlink:title=" ">
<polygon fill="#e0e0e0" stroke="#999999" points="727.38,-24.88 682.12,-24.88 682.12,-5.63 727.38,-5.63 727.38,-24.88"/>
<text text-anchor="middle" x="704.75" y="-11.38" font-family="Times,serif" font-size="10.00">fstream</text>
</a>
</g>
</g>
<!-- Node2&#45;&gt;Node13 -->
<g id="edge12_Node000002_Node000013" class="edge">
<title>Node2&#45;&gt;Node13</title>
<g id="a_edge12_Node000002_Node000013"><a xlink:title=" ">
<path fill="none" stroke="#63b8ff" d="M1102.8,-79.7C1029.12,-76.92 867.45,-66.82 736.75,-30.5 735.43,-30.13 734.1,-29.72 732.76,-29.27"/>
<polygon fill="#63b8ff" stroke="#63b8ff" points="734.27,-25.72 723.68,-25.35 731.73,-32.24 734.27,-25.72"/>
</a>
</g>
</g>
<!-- Node14 -->
<g id="Node000014" class="node">
<title>Node14</title>
<g id="a_Node000014"><a xlink:title=" ">
<polygon fill="#e0e0e0" stroke="#999999" points="799.88,-24.88 745.62,-24.88 745.62,-5.63 799.88,-5.63 799.88,-24.88"/>
<text text-anchor="middle" x="772.75" y="-11.38" font-family="Times,serif" font-size="10.00">functional</text>
</a>
</g>
</g>
<!-- Node2&#45;&gt;Node14 -->
<g id="edge13_Node000002_Node000014" class="edge">
<title>Node2&#45;&gt;Node14</title>
<g id="a_edge13_Node000002_Node000014"><a xlink:title=" ">
<path fill="none" stroke="#63b8ff" d="M1102.82,-77.7C1039.55,-72.21 912.79,-58.52 808.75,-30.5 807.01,-30.03 805.24,-29.5 803.46,-28.94"/>
<polygon fill="#63b8ff" stroke="#63b8ff" points="805.01,-25.42 794.42,-25.36 802.66,-32.01 805.01,-25.42"/>
</a>
</g>
</g>
<!-- Node15 -->
<g id="Node000015" class="node">
<title>Node15</title>
<g id="a_Node000015"><a xlink:title=" ">
<polygon fill="#e0e0e0" stroke="#999999" points="865.88,-24.88 817.62,-24.88 817.62,-5.63 865.88,-5.63 865.88,-24.88"/>
<text text-anchor="middle" x="841.75" y="-11.38" font-family="Times,serif" font-size="10.00">iomanip</text>
</a>
</g>
</g>
<!-- Node2&#45;&gt;Node15 -->
<g id="edge14_Node000002_Node000015" class="edge">
<title>Node2&#45;&gt;Node15</title>
<g id="a_edge14_Node000002_Node000015"><a xlink:title=" ">
<path fill="none" stroke="#63b8ff" d="M1103.03,-76.11C1050.12,-69.3 953.98,-54.7 874.75,-30.5 873.44,-30.1 872.11,-29.66 870.78,-29.2"/>
<polygon fill="#63b8ff" stroke="#63b8ff" points="872.26,-25.63 861.67,-25.27 869.73,-32.16 872.26,-25.63"/>
</a>
</g>
</g>
<!-- Node16 -->
<g id="Node000016" class="node">
<title>Node16</title>
<g id="a_Node000016"><a xlink:title=" ">
<polygon fill="#e0e0e0" stroke="#999999" points="929.38,-24.88 884.12,-24.88 884.12,-5.63 929.38,-5.63 929.38,-24.88"/>
<text text-anchor="middle" x="906.75" y="-11.38" font-family="Times,serif" font-size="10.00">istream</text>
</a>
</g>
</g>
<!-- Node2&#45;&gt;Node16 -->
<g id="edge15_Node000002_Node000016" class="edge">
<title>Node2&#45;&gt;Node16</title>
<g id="a_edge15_Node000002_Node000016"><a xlink:title=" ">
<path fill="none" stroke="#63b8ff" d="M1103.04,-73.15C1061.49,-64.69 994.65,-49.66 938.75,-30.5 937.66,-30.13 936.55,-29.73 935.44,-29.31"/>
<polygon fill="#63b8ff" stroke="#63b8ff" points="937.06,-25.79 926.48,-25.26 934.42,-32.27 937.06,-25.79"/>
</a>
</g>
</g>
<!-- Node17 -->
<g id="Node000017" class="node">
<title>Node17</title>
<g id="a_Node000017"><a xlink:title=" ">
<polygon fill="#e0e0e0" stroke="#999999" points="985.62,-24.88 947.88,-24.88 947.88,-5.63 985.62,-5.63 985.62,-24.88"/>
<text text-anchor="middle" x="966.75" y="-11.38" font-family="Times,serif" font-size="10.00">limits</text>
</a>
</g>
</g>
<!-- Node2&#45;&gt;Node17 -->
<g id="edge16_Node000002_Node000017" class="edge">
<title>Node2&#45;&gt;Node17</title>
<g id="a_edge16_Node000002_Node000017"><a xlink:title=" ">
<path fill="none" stroke="#63b8ff" d="M1111.94,-71.71C1081.67,-62.49 1034.38,-47.21 994.75,-30.5 994.29,-30.3 993.82,-30.1 993.35,-29.9"/>
<polygon fill="#63b8ff" stroke="#63b8ff" points="994.98,-26.33 984.44,-25.24 992,-32.66 994.98,-26.33"/>
</a>
</g>
</g>
<!-- Node18 -->
<g id="Node000018" class="node">
<title>Node18</title>
<g id="a_Node000018"><a xlink:title=" ">
<polygon fill="#e0e0e0" stroke="#999999" points="1037.38,-24.88 1004.12,-24.88 1004.12,-5.63 1037.38,-5.63 1037.38,-24.88"/>
<text text-anchor="middle" x="1020.75" y="-11.38" font-family="Times,serif" font-size="10.00">map</text>
</a>
</g>
</g>
<!-- Node2&#45;&gt;Node18 -->
<g id="edge17_Node000002_Node000018" class="edge">
<title>Node2&#45;&gt;Node18</title>
<g id="a_edge17_Node000002_Node000018"><a xlink:title=" ">
<path fill="none" stroke="#63b8ff" d="M1125.35,-71.77C1107.74,-62.65 1079.51,-47.97 1046.62,-30.38"/>
<polygon fill="#63b8ff" stroke="#63b8ff" points="1048.7,-26.98 1038.23,-25.34 1045.39,-33.15 1048.7,-26.98"/>
</a>
</g>
</g>
<!-- Node19 -->
<g id="Node000019" class="node">
<title>Node19</title>
<g id="a_Node000019"><a xlink:title=" ">
<polygon fill="#e0e0e0" stroke="#999999" points="1103.88,-24.88 1055.62,-24.88 1055.62,-5.63 1103.88,-5.63 1103.88,-24.88"/>
<text text-anchor="middle" x="1079.75" y="-11.38" font-family="Times,serif" font-size="10.00">memory</text>
</a>
</g>
</g>
<!-- Node2&#45;&gt;Node19 -->
<g id="edge18_Node000002_Node000019" class="edge">
<title>Node2&#45;&gt;Node19</title>
<g id="a_edge18_Node000002_Node000019"><a xlink:title=" ">
<path fill="none" stroke="#63b8ff" d="M1133.99,-71.78C1124.21,-61.77 1108.17,-45.35 1096.06,-32.95"/>
<polygon fill="#63b8ff" stroke="#63b8ff" points="1098.93,-30.85 1089.44,-26.14 1093.92,-35.74 1098.93,-30.85"/>
</a>
</g>
</g>
<!-- Node20 -->
<g id="Node000020" class="node">
<title>Node20</title>
<g id="a_Node000020"><a xlink:title=" ">
<polygon fill="#e0e0e0" stroke="#999999" points="1163.12,-24.88 1122.38,-24.88 1122.38,-5.63 1163.12,-5.63 1163.12,-24.88"/>
<text text-anchor="middle" x="1142.75" y="-11.38" font-family="Times,serif" font-size="10.00">mutex</text>
</a>
</g>
</g>
<!-- Node2&#45;&gt;Node20 -->
<g id="edge19_Node000002_Node000020" class="edge">
<title>Node2&#45;&gt;Node20</title>
<g id="a_edge19_Node000002_Node000020"><a xlink:title=" ">
<path fill="none" stroke="#63b8ff" d="M1142.75,-71.78C1142.75,-62.54 1142.75,-47.83 1142.75,-35.88"/>
<polygon fill="#63b8ff" stroke="#63b8ff" points="1146.25,-36.14 1142.75,-26.14 1139.25,-36.14 1146.25,-36.14"/>
</a>
</g>
</g>
<!-- Node21 -->
<g id="Node000021" class="node">
<title>Node21</title>
<g id="a_Node000021"><a xlink:title=" ">
<polygon fill="#e0e0e0" stroke="#999999" points="1232,-24.88 1181.5,-24.88 1181.5,-5.63 1232,-5.63 1232,-24.88"/>
<text text-anchor="middle" x="1206.75" y="-11.38" font-family="Times,serif" font-size="10.00">numbers</text>
</a>
</g>
</g>
<!-- Node2&#45;&gt;Node21 -->
<g id="edge20_Node000002_Node000021" class="edge">
<title>Node2&#45;&gt;Node21</title>
<g id="a_edge20_Node000002_Node000021"><a xlink:title=" ">
<path fill="none" stroke="#63b8ff" d="M1151.65,-71.78C1161.68,-61.67 1178.19,-45.03 1190.53,-32.6"/>
<polygon fill="#63b8ff" stroke="#63b8ff" points="1192.37,-35.71 1196.93,-26.14 1187.4,-30.78 1192.37,-35.71"/>
</a>
</g>
</g>
<!-- Node22 -->
<g id="Node000022" class="node">
<title>Node22</title>
<g id="a_Node000022"><a xlink:title=" ">
<polygon fill="#e0e0e0" stroke="#999999" points="1297.88,-24.88 1249.62,-24.88 1249.62,-5.63 1297.88,-5.63 1297.88,-24.88"/>
<text text-anchor="middle" x="1273.75" y="-11.38" font-family="Times,serif" font-size="10.00">numeric</text>
</a>
</g>
</g>
<!-- Node2&#45;&gt;Node22 -->
<g id="edge21_Node000002_Node000022" class="edge">
<title>Node2&#45;&gt;Node22</title>
<g id="a_edge21_Node000002_Node000022"><a xlink:title=" ">
<path fill="none" stroke="#63b8ff" d="M1161.24,-71.65C1183.18,-60.84 1220.01,-42.71 1245.52,-30.15"/>
<polygon fill="#63b8ff" stroke="#63b8ff" points="1246.93,-32.87 1254.35,-25.31 1243.84,-26.59 1246.93,-32.87"/>
</a>
</g>
</g>
<!-- Node23 -->
<g id="Node000023" class="node">
<title>Node23</title>
<g id="a_Node000023"><a xlink:title=" ">
<polygon fill="#e0e0e0" stroke="#999999" points="1363.12,-24.88 1316.38,-24.88 1316.38,-5.63 1363.12,-5.63 1363.12,-24.88"/>
<text text-anchor="middle" x="1339.75" y="-11.38" font-family="Times,serif" font-size="10.00">optional</text>
</a>
</g>
</g>
<!-- Node2&#45;&gt;Node23 -->
<g id="edge22_Node000002_Node000023" class="edge">
<title>Node2&#45;&gt;Node23</title>
<g id="a_edge22_Node000002_Node000023"><a xlink:title=" ">
<path fill="none" stroke="#63b8ff" d="M1176.09,-71.7C1209.48,-62.37 1262.17,-46.9 1306.75,-30.5 1307.67,-30.16 1308.61,-29.81 1309.55,-29.45"/>
<polygon fill="#63b8ff" stroke="#63b8ff" points="1310.7,-32.35 1318.65,-25.35 1308.07,-25.87 1310.7,-32.35"/>
</a>
</g>
</g>
<!-- Node24 -->
<g id="Node000024" class="node">
<title>Node24</title>
<g id="a_Node000024"><a xlink:title=" ">
<polygon fill="#e0e0e0" stroke="#999999" points="1428.5,-24.88 1381,-24.88 1381,-5.63 1428.5,-5.63 1428.5,-24.88"/>
<text text-anchor="middle" x="1404.75" y="-11.38" font-family="Times,serif" font-size="10.00">ostream</text>
</a>
</g>
</g>
<!-- Node2&#45;&gt;Node24 -->
<g id="edge23_Node000002_Node000024" class="edge">
<title>Node2&#45;&gt;Node24</title>
<g id="a_edge23_Node000002_Node000024"><a xlink:title=" ">
<path fill="none" stroke="#63b8ff" d="M1182.67,-74.39C1228.85,-66.47 1306.86,-51.42 1371.75,-30.5 1373.02,-30.09 1374.31,-29.65 1375.6,-29.19"/>
<polygon fill="#63b8ff" stroke="#63b8ff" points="1376.42,-32.23 1384.44,-25.32 1373.86,-25.72 1376.42,-32.23"/>
</a>
</g>
</g>
<!-- Node25 -->
<g id="Node000025" class="node">
<title>Node25</title>
<g id="a_Node000025"><a xlink:title=" ">
<polygon fill="#e0e0e0" stroke="#999999" points="1492.75,-24.88 1446.75,-24.88 1446.75,-5.63 1492.75,-5.63 1492.75,-24.88"/>
<text text-anchor="middle" x="1469.75" y="-11.38" font-family="Times,serif" font-size="10.00">random</text>
</a>
</g>
</g>
<!-- Node2&#45;&gt;Node25 -->
<g id="edge24_Node000002_Node000025" class="edge">
<title>Node2&#45;&gt;Node25</title>
<g id="a_edge24_Node000002_Node000025"><a xlink:title=" ">
<path fill="none" stroke="#63b8ff" d="M1182.6,-77.16C1239.98,-71.27 1348.74,-57.43 1437.75,-30.5 1439.03,-30.11 1440.32,-29.69 1441.62,-29.23"/>
<polygon fill="#63b8ff" stroke="#63b8ff" points="1442.43,-32.28 1450.44,-25.34 1439.85,-25.77 1442.43,-32.28"/>
</a>
</g>
</g>
<!-- Node26 -->
<g id="Node000026" class="node">
<title>Node26</title>
<g id="a_Node000026"><a xlink:title=" ">
<polygon fill="#e0e0e0" stroke="#999999" points="1582.88,-24.88 1510.62,-24.88 1510.62,-5.63 1582.88,-5.63 1582.88,-24.88"/>
<text text-anchor="middle" x="1546.75" y="-11.38" font-family="Times,serif" font-size="10.00">shared_mutex</text>
</a>
</g>
</g>
<!-- Node2&#45;&gt;Node26 -->
<g id="edge25_Node000002_Node000026" class="edge">
<title>Node2&#45;&gt;Node26</title>
<g id="a_edge25_Node000002_Node000026"><a xlink:title=" ">
<path fill="none" stroke="#63b8ff" d="M1182.72,-77.36C1249.43,-71.22 1387.43,-56.41 1501.75,-30.5 1504.57,-29.86 1507.48,-29.12 1510.38,-28.33"/>
<polygon fill="#63b8ff" stroke="#63b8ff" points="1511.17,-31.46 1519.78,-25.29 1509.2,-24.74 1511.17,-31.46"/>
</a>
</g>
</g>
<!-- Node27 -->
<g id="Node000027" class="node">
<title>Node27</title>
<g id="a_Node000027"><a xlink:title=" ">
<polygon fill="#e0e0e0" stroke="#999999" points="1636.12,-24.88 1601.38,-24.88 1601.38,-5.63 1636.12,-5.63 1636.12,-24.88"/>
<text text-anchor="middle" x="1618.75" y="-11.38" font-family="Times,serif" font-size="10.00">span</text>
</a>
</g>
</g>
<!-- Node2&#45;&gt;Node27 -->
<g id="edge26_Node000002_Node000027" class="edge">
<title>Node2&#45;&gt;Node27</title>
<g id="a_edge26_Node000002_Node000027"><a xlink:title=" ">
<path fill="none" stroke="#63b8ff" d="M1182.49,-81.21C1262.04,-81.08 1445.75,-75.43 1591.75,-30.5 1592.53,-30.26 1593.31,-30 1594.09,-29.72"/>
<polygon fill="#63b8ff" stroke="#63b8ff" points="1595.34,-32.55 1603.04,-25.28 1592.48,-26.16 1595.34,-32.55"/>
</a>
</g>
</g>
<!-- Node28 -->
<g id="Node000028" class="node">
<title>Node28</title>
<g id="a_Node000028"><a xlink:title=" ">
<polygon fill="#e0e0e0" stroke="#999999" points="1699.75,-24.88 1653.75,-24.88 1653.75,-5.63 1699.75,-5.63 1699.75,-24.88"/>
<text text-anchor="middle" x="1676.75" y="-11.38" font-family="Times,serif" font-size="10.00">sstream</text>
</a>
</g>
</g>
<!-- Node2&#45;&gt;Node28 -->
<g id="edge27_Node000002_Node000028" class="edge">
<title>Node2&#45;&gt;Node28</title>
<g id="a_edge27_Node000002_Node000028"><a xlink:title=" ">
<path fill="none" stroke="#63b8ff" d="M1182.56,-81.03C1268.5,-80.71 1477.13,-74.98 1644.75,-30.5 1646.26,-30.1 1647.78,-29.64 1649.31,-29.13"/>
<polygon fill="#63b8ff" stroke="#63b8ff" points="1650.13,-32.17 1658.18,-25.28 1647.59,-25.65 1650.13,-32.17"/>
</a>
</g>
</g>
<!-- Node29 -->
<g id="Node000029" class="node">
<title>Node29</title>
<g id="a_Node000029"><a xlink:title=" ">
<polygon fill="#e0e0e0" stroke="#999999" points="1771.88,-24.88 1717.62,-24.88 1717.62,-5.63 1771.88,-5.63 1771.88,-24.88"/>
<text text-anchor="middle" x="1744.75" y="-11.38" font-family="Times,serif" font-size="10.00">stdexcept</text>
</a>
</g>
</g>
<!-- Node2&#45;&gt;Node29 -->
<g id="edge28_Node000002_Node000029" class="edge">
<title>Node2&#45;&gt;Node29</title>
<g id="a_edge28_Node000002_Node000029"><a xlink:title=" ">
<path fill="none" stroke="#63b8ff" d="M1182.49,-81.12C1275.73,-81.15 1515.33,-76.35 1708.75,-30.5 1710.68,-30.04 1712.64,-29.5 1714.6,-28.9"/>
<polygon fill="#63b8ff" stroke="#63b8ff" points="1715.62,-31.9 1723.9,-25.29 1713.3,-25.3 1715.62,-31.9"/>
</a>
</g>
</g>
<!-- Node30 -->
<g id="Node000030" class="node">
<title>Node30</title>
<g id="a_Node000030"><a xlink:title=" ">
<polygon fill="#e0e0e0" stroke="#999999" points="1835.75,-24.88 1789.75,-24.88 1789.75,-5.63 1835.75,-5.63 1835.75,-24.88"/>
<text text-anchor="middle" x="1812.75" y="-11.38" font-family="Times,serif" font-size="10.00">stdint.h</text>
</a>
</g>
</g>
<!-- Node2&#45;&gt;Node30 -->
<g id="edge29_Node000002_Node000030" class="edge">
<title>Node2&#45;&gt;Node30</title>
<g id="a_edge29_Node000002_Node000030"><a xlink:title=" ">
<path fill="none" stroke="#63b8ff" d="M1182.7,-79.38C1303.98,-74.93 1666.6,-59.5 1780.75,-30.5 1782.26,-30.12 1783.79,-29.67 1785.32,-29.17"/>
<polygon fill="#63b8ff" stroke="#63b8ff" points="1786.13,-32.22 1794.19,-25.35 1783.61,-25.69 1786.13,-32.22"/>
</a>
</g>
</g>
<!-- Node31 -->
<g id="Node000031" class="node">
<title>Node31</title>
<g id="a_Node000031"><a xlink:title=" ">
<polygon fill="#e0e0e0" stroke="#999999" points="1893.38,-24.88 1854.12,-24.88 1854.12,-5.63 1893.38,-5.63 1893.38,-24.88"/>
<text text-anchor="middle" x="1873.75" y="-11.38" font-family="Times,serif" font-size="10.00">string</text>
</a>
</g>
</g>
<!-- Node2&#45;&gt;Node31 -->
<g id="edge30_Node000002_Node000031" class="edge">
<title>Node2&#45;&gt;Node31</title>
<g id="a_edge30_Node000002_Node000031"><a xlink:title=" ">
<path fill="none" stroke="#63b8ff" d="M1182.59,-79.9C1311.84,-76.84 1718.4,-64.67 1844.75,-30.5 1845.89,-30.19 1847.03,-29.84 1848.18,-29.45"/>
<polygon fill="#63b8ff" stroke="#63b8ff" points="1849.36,-32.33 1857.23,-25.24 1846.65,-25.88 1849.36,-32.33"/>
</a>
</g>
</g>
<!-- Node32 -->
<g id="Node000032" class="node">
<title>Node32</title>
<g id="a_Node000032"><a xlink:title=" ">
<polygon fill="#e0e0e0" stroke="#999999" points="1952.5,-24.88 1911,-24.88 1911,-5.63 1952.5,-5.63 1952.5,-24.88"/>
<text text-anchor="middle" x="1931.75" y="-11.38" font-family="Times,serif" font-size="10.00">thread</text>
</a>
</g>
</g>
<!-- Node2&#45;&gt;Node32 -->
<g id="edge31_Node000002_Node000032" class="edge">
<title>Node2&#45;&gt;Node32</title>
<g id="a_edge31_Node000002_Node000032"><a xlink:title=" ">
<path fill="none" stroke="#63b8ff" d="M1182.51,-80.16C1318.58,-77.81 1764.79,-67.4 1902.75,-30.5 1903.89,-30.2 1905.03,-29.85 1906.18,-29.46"/>
<polygon fill="#63b8ff" stroke="#63b8ff" points="1907.36,-32.34 1915.23,-25.26 1904.66,-25.88 1907.36,-32.34"/>
</a>
</g>
</g>
<!-- Node33 -->
<g id="Node000033" class="node">
<title>Node33</title>
<g id="a_Node000033"><a xlink:title=" ">
<polygon fill="#e0e0e0" stroke="#999999" points="2029.12,-24.88 1970.38,-24.88 1970.38,-5.63 2029.12,-5.63 2029.12,-24.88"/>
<text text-anchor="middle" x="1999.75" y="-11.38" font-family="Times,serif" font-size="10.00">type_traits</text>
</a>
</g>
</g>
<!-- Node2&#45;&gt;Node33 -->
<g id="edge32_Node000002_Node000033" class="edge">
<title>Node2&#45;&gt;Node33</title>
<g id="a_edge32_Node000002_Node000033"><a xlink:title=" ">
<path fill="none" stroke="#63b8ff" d="M1182.47,-79.87C1324.99,-76.49 1810.23,-62.8 1961.75,-30.5 1964.1,-30 1966.5,-29.38 1968.89,-28.68"/>
<polygon fill="#63b8ff" stroke="#63b8ff" points="1969.81,-31.73 1978.18,-25.23 1967.58,-25.09 1969.81,-31.73"/>
</a>
</g>
</g>
<!-- Node34 -->
<g id="Node000034" class="node">
<title>Node34</title>
<g id="a_Node000034"><a xlink:title=" ">
<polygon fill="#e0e0e0" stroke="#999999" points="2119.88,-24.88 2047.62,-24.88 2047.62,-5.63 2119.88,-5.63 2119.88,-24.88"/>
<text text-anchor="middle" x="2083.75" y="-11.38" font-family="Times,serif" font-size="10.00">unordered_set</text>
</a>
</g>
</g>
<!-- Node2&#45;&gt;Node34 -->
<g id="edge33_Node000002_Node000034" class="edge">
<title>Node2&#45;&gt;Node34</title>
<g id="a_edge33_Node000002_Node000034"><a xlink:title=" ">
<path fill="none" stroke="#63b8ff" d="M1182.66,-79.8C1333.67,-76.03 1869.94,-60.73 2037.75,-30.5 2041.02,-29.91 2044.38,-29.16 2047.73,-28.32"/>
<polygon fill="#63b8ff" stroke="#63b8ff" points="2048.55,-31.44 2057.24,-25.37 2046.66,-24.7 2048.55,-31.44"/>
</a>
</g>
</g>
<!-- Node35 -->
<g id="Node000035" class="node">
<title>Node35</title>
<g id="a_Node000035"><a xlink:title=" ">
<polygon fill="#e0e0e0" stroke="#999999" points="2181.25,-24.88 2138.25,-24.88 2138.25,-5.63 2181.25,-5.63 2181.25,-24.88"/>
<text text-anchor="middle" x="2159.75" y="-11.38" font-family="Times,serif" font-size="10.00">variant</text>
</a>
</g>
</g>
<!-- Node2&#45;&gt;Node35 -->
<g id="edge34_Node000002_Node000035" class="edge">
<title>Node2&#45;&gt;Node35</title>
<g id="a_edge34_Node000002_Node000035"><a xlink:title=" ">
<path fill="none" stroke="#63b8ff" d="M1182.69,-80.72C1343.64,-80.3 1944.82,-75.69 2128.75,-30.5 2130.26,-30.13 2131.79,-29.68 2133.31,-29.18"/>
<polygon fill="#63b8ff" stroke="#63b8ff" points="2134.11,-32.24 2142.12,-25.3 2131.53,-25.73 2134.11,-32.24"/>
</a>
</g>
</g>
<!-- Node36 -->
<g id="Node000036" class="node">
<title>Node36</title>
<g id="a_Node000036"><a xlink:title=" ">
<polygon fill="#e0e0e0" stroke="#999999" points="2240.12,-24.88 2199.38,-24.88 2199.38,-5.63 2240.12,-5.63 2240.12,-24.88"/>
<text text-anchor="middle" x="2219.75" y="-11.38" font-family="Times,serif" font-size="10.00">vector</text>
</a>
</g>
</g>
<!-- Node2&#45;&gt;Node36 -->
<g id="edge35_Node000002_Node000036" class="edge">
<title>Node2&#45;&gt;Node36</title>
<g id="a_edge35_Node000002_Node000036"><a xlink:title=" ">
<path fill="none" stroke="#63b8ff" d="M1182.6,-80.93C1349.62,-81.34 1993.71,-79.66 2189.75,-30.5 2191.07,-30.17 2192.4,-29.78 2193.74,-29.34"/>
<polygon fill="#63b8ff" stroke="#63b8ff" points="2194.73,-32.31 2202.68,-25.31 2192.1,-25.82 2194.73,-32.31"/>
</a>
</g>
</g>
<!-- Node38 -->
<g id="Node000038" class="node">
<title>Node38</title>
<g id="a_Node000038"><a xlink:title=" ">
<polygon fill="#e0e0e0" stroke="#999999" points="2331.62,-24.88 2257.88,-24.88 2257.88,-5.63 2331.62,-5.63 2331.62,-24.88"/>
<text text-anchor="middle" x="2294.75" y="-11.38" font-family="Times,serif" font-size="10.00">spdlog/async.h</text>
</a>
</g>
</g>
<!-- Node37&#45;&gt;Node38 -->
<g id="edge37_Node000037_Node000038" class="edge">
<title>Node37&#45;&gt;Node38</title>
<g id="a_edge37_Node000037_Node000038"><a xlink:title=" ">
<path fill="none" stroke="#63b8ff" d="M2482.1,-71.66C2446.89,-61.79 2389.23,-45.43 2339.75,-30.5 2337.6,-29.85 2335.4,-29.18 2333.19,-28.5"/>
<polygon fill="#63b8ff" stroke="#63b8ff" points="2334.39,-24.89 2323.8,-25.26 2332.31,-31.58 2334.39,-24.89"/>
</a>
</g>
</g>
<!-- Node39 -->
<g id="Node000039" class="node">
<title>Node39</title>
<g id="a_Node000039"><a xlink:title=" ">
<polygon fill="#e0e0e0" stroke="#999999" points="2452.25,-30.5 2349.25,-30.5 2349.25,0 2452.25,0 2452.25,-30.5"/>
<text text-anchor="start" x="2357.25" y="-17" font-family="Times,serif" font-size="10.00">spdlog/sinks/ansicolor</text>
<text text-anchor="middle" x="2400.75" y="-5.75" font-family="Times,serif" font-size="10.00">_sink.h</text>
</a>
</g>
</g>
<!-- Node37&#45;&gt;Node39 -->
<g id="edge38_Node000037_Node000039" class="edge">
<title>Node37&#45;&gt;Node39</title>
<g id="a_edge38_Node000037_Node000039"><a xlink:title=" ">
<path fill="none" stroke="#63b8ff" d="M2498.9,-71.78C2482.66,-62.6 2456.89,-48.02 2435.83,-36.1"/>
<polygon fill="#63b8ff" stroke="#63b8ff" points="2437.97,-32.72 2427.54,-30.84 2434.52,-38.81 2437.97,-32.72"/>
</a>
</g>
</g>
<!-- Node40 -->
<g id="Node000040" class="node">
<title>Node40</title>
<g id="a_Node000040"><a xlink:title=" ">
<polygon fill="#e0e0e0" stroke="#999999" points="2559.12,-30.5 2470.38,-30.5 2470.38,0 2559.12,0 2559.12,-30.5"/>
<text text-anchor="start" x="2478.38" y="-17" font-family="Times,serif" font-size="10.00">spdlog/sinks/basic</text>
<text text-anchor="middle" x="2514.75" y="-5.75" font-family="Times,serif" font-size="10.00">_file_sink.h</text>
</a>
</g>
</g>
<!-- Node37&#45;&gt;Node40 -->
<g id="edge39_Node000037_Node000040" class="edge">
<title>Node37&#45;&gt;Node40</title>
<g id="a_edge39_Node000037_Node000040"><a xlink:title=" ">
<path fill="none" stroke="#63b8ff" d="M2514.75,-71.78C2514.75,-63.95 2514.75,-52.2 2514.75,-41.52"/>
<polygon fill="#63b8ff" stroke="#63b8ff" points="2518.25,-41.59 2514.75,-31.59 2511.25,-41.59 2518.25,-41.59"/>
</a>
</g>
</g>
<!-- Node41 -->
<g id="Node000041" class="node">
<title>Node41</title>
<g id="a_Node000041"><a xlink:title=" ">
<polygon fill="#e0e0e0" stroke="#999999" points="2670.38,-30.5 2577.12,-30.5 2577.12,0 2670.38,0 2670.38,-30.5"/>
<text text-anchor="start" x="2585.12" y="-17" font-family="Times,serif" font-size="10.00">spdlog/sinks/stdout</text>
<text text-anchor="middle" x="2623.75" y="-5.75" font-family="Times,serif" font-size="10.00">_color_sinks.h</text>
</a>
</g>
</g>
<!-- Node37&#45;&gt;Node41 -->
<g id="edge40_Node000037_Node000041" class="edge">
<title>Node37&#45;&gt;Node41</title>
<g id="a_edge40_Node000037_Node000041"><a xlink:title=" ">
<path fill="none" stroke="#63b8ff" d="M2529.91,-71.78C2545.29,-62.68 2569.63,-48.28 2589.66,-36.42"/>
<polygon fill="#63b8ff" stroke="#63b8ff" points="2591.27,-38.95 2598.09,-30.84 2587.7,-32.92 2591.27,-38.95"/>
</a>
</g>
</g>
<!-- Node42 -->
<g id="Node000042" class="node">
<title>Node42</title>
<g id="a_Node000042"><a xlink:title=" ">
<polygon fill="#e0e0e0" stroke="#999999" points="2765.5,-24.88 2688,-24.88 2688,-5.63 2765.5,-5.63 2765.5,-24.88"/>
<text text-anchor="middle" x="2726.75" y="-11.38" font-family="Times,serif" font-size="10.00">spdlog/spdlog.h</text>
</a>
</g>
</g>
<!-- Node37&#45;&gt;Node42 -->
<g id="edge41_Node000037_Node000042" class="edge">
<title>Node37&#45;&gt;Node42</title>
<g id="a_edge41_Node000037_Node000042"><a xlink:title=" ">
<path fill="none" stroke="#63b8ff" d="M2544.67,-71.65C2581.76,-60.36 2645.12,-41.09 2686.46,-28.51"/>
<polygon fill="#63b8ff" stroke="#63b8ff" points="2687.43,-31.57 2695.98,-25.31 2685.39,-24.87 2687.43,-31.57"/>
</a>
</g>
</g>
<!-- Node43 -->
<g id="Node000043" class="node">
<title>Node43</title>
<g id="a_Node000043"><a xlink:href="../../d4/dfc/win-undef_8hpp.html" target="_top" xlink:title=" ">
<polygon fill="white" stroke="#666666" points="2858.38,-24.88 2783.12,-24.88 2783.12,-5.63 2858.38,-5.63 2858.38,-24.88"/>
<text text-anchor="middle" x="2820.75" y="-11.38" font-family="Times,serif" font-size="10.00">win&#45;undef.hpp</text>
</a>
</g>
</g>
<!-- Node37&#45;&gt;Node43 -->
<g id="edge42_Node000037_Node000043" class="edge">
<title>Node37&#45;&gt;Node43</title>
<g id="a_edge42_Node000037_Node000043"><a xlink:title=" ">
<path fill="none" stroke="#63b8ff" d="M2548.1,-71.66C2555.22,-69.84 2562.71,-68.03 2569.75,-66.5 2660.15,-46.88 2684.83,-52.23 2774.75,-30.5 2777.55,-29.82 2780.43,-29.07 2783.31,-28.28"/>
<polygon fill="#63b8ff" stroke="#63b8ff" points="2784.04,-31.42 2792.67,-25.26 2782.09,-24.7 2784.04,-31.42"/>
</a>
</g>
</g>
<!-- Node44&#45;&gt;Node1 -->
<g id="edge44_Node000044_Node000001" class="edge">
<title>Node44&#45;&gt;Node1</title>
<g id="a_edge44_Node000044_Node000001"><a xlink:title=" ">
<path fill="none" stroke="#63b8ff" d="M2630.56,-97.2C2624.53,-105.19 2615.86,-115.38 2607.14,-124.86"/>
<polygon fill="#63b8ff" stroke="#63b8ff" points="2605.17,-121.91 2600.87,-131.59 2610.27,-126.71 2605.17,-121.91"/>
</a>
</g>
</g>
</g>
</svg>

<g id="navigator" transform="translate(0 0)" fill="#404254">
  <rect fill="#f2f5e9" fill-opacity="0.5" stroke="#606060" stroke-width=".5" x="0" y="0" width="60" height="60"/>
  <use id="zoomplus" xlink:href="#zoomPlus" x="17" y="9" onmousedown="handleZoom(evt,'in')"/>
  <use id="zoomminus" xlink:href="#zoomMin" x="42" y="9" onmousedown="handleZoom(evt,'out')"/>
  <use id="reset" xlink:href="#resetDef" x="30" y="36" onmousedown="handleReset()"/>
   <use id="arrowup" xlink:href="#arrowUp" x="0" y="0" onmousedown="handlePan(0,-1)"/>
  <use id="arrowright" xlink:href="#arrowRight" x="0" y="0" onmousedown="handlePan(1,0)"/>
  <use id="arrowdown" xlink:href="#arrowDown" x="0" y="0" onmousedown="handlePan(0,1)"/>
  <use id="arrowleft" xlink:href="#arrowLeft" x="0" y="0" onmousedown="handlePan(-1,0)"/>
</g>
<svg viewBox="0 0 15 15" width="100%" height="30px" preserveAspectRatio="xMaxYMin meet">
 <g id="arrow_out" transform="scale(0.3 0.3)">
  <a xlink:href="debug_8hpp__incl_org.svg" target="_base">
   <rect id="button" ry="5" rx="5" y="6" x="6" height="38" width="38"
        fill="#f2f5e9" fill-opacity="0.5" stroke="#606060" stroke-width="1.0"/>
   <path id="arrow"
     d="M 11.500037,31.436501 C 11.940474,20.09759 22.043105,11.32322 32.158766,21.979434 L 37.068811,17.246167 C 37.068811,17.246167 37.088388,32 37.088388,32 L 22.160133,31.978069 C 22.160133,31.978069 26.997745,27.140456 26.997745,27.140456 C 18.528582,18.264221 13.291696,25.230495 11.500037,31.436501 z"
     style="fill:#404040;"/>
  </a>
 </g>
</svg>

<style type='text/css'>
<![CDATA[
[data-mouse-over-selected='false'] { opacity: 0.7; }
[data-mouse-over-selected='true']  { opacity: 1.0; }
]]>
</style>
<script type="application/ecmascript"><![CDATA[
document.addEventListener('DOMContentLoaded', (event) => {
  highlightEdges();
  highlightAdjacentNodes();
});
]]></script>
</svg>
