<?xml version="1.0" encoding="UTF-8" standalone="no"?>
<!DOCTYPE svg PUBLIC "-//W3C//DTD SVG 1.1//EN"
 "http://www.w3.org/Graphics/SVG/1.1/DTD/svg11.dtd">
<!-- Generated by graphviz version 11.0.0 (20240428.1522)
 -->
<!-- Title: third_party/mal&#45;toolkit/mal&#45;toolkit/mal&#45;toolkit/debug.hpp Pages: 1 -->
<!--zoomable 183 -->

<svg id="main" version="1.1" xmlns="http://www.w3.org/2000/svg" xmlns:xlink="http://www.w3.org/1999/xlink" xml:space="preserve" onload="init(evt)">
<style type="text/css"><![CDATA[
.node, .edge {opacity: 0.7;}
.node.selected, .edge.selected {opacity: 1;}
.edge:hover path { stroke: red; }
.edge:hover polygon { stroke: red; fill: red; }
]]></style>

<defs>
  <circle id="rim" cx="0" cy="0" r="7"/>
  <circle id="rim2" cx="0" cy="0" r="3.5"/>
  <g id="zoomPlus">
    <use xlink:href="#rim" fill="#404040"><set attributeName="fill" to="#808080" begin="zoomplus.mouseover" end="zoomplus.mouseout"/></use>
    <path d="M-4,0h8M0,-4v8" fill="none" stroke="white" stroke-width="1.5" pointer-events="none"/>
  </g>
  <g id="zoomMin">
    <use xlink:href="#rim" fill="#404040"><set attributeName="fill" to="#808080" begin="zoomminus.mouseover" end="zoomminus.mouseout"/></use>
    <path d="M-4,0h8" fill="none" stroke="white" stroke-width="1.5" pointer-events="none"/>
  </g>
  <g id="arrowUp" transform="translate(30 24)">
    <use xlink:href="#rim"/>
    <path pointer-events="none" fill="none" stroke="white" stroke-width="1.5" d="M0,-3.0v7 M-2.5,-0.5L0,-3.0L2.5,-0.5"/>
  </g>
  <g id="arrowRight" transform="rotate(90) translate(36 -43)">
    <use xlink:href="#rim"/>
    <path pointer-events="none" fill="none" stroke="white" stroke-width="1.5" d="M0,-3.0v7 M-2.5,-0.5L0,-3.0L2.5,-0.5"/>
  </g>
  <g id="arrowDown" transform="rotate(180) translate(-30 -48)">
    <use xlink:href="#rim"/>
    <path pointer-events="none" fill="none" stroke="white" stroke-width="1.5" d="M0,-3.0v7 M-2.5,-0.5L0,-3.0L2.5,-0.5"/>
  </g>
  <g id="arrowLeft" transform="rotate(270) translate(-36 17)">
    <use xlink:href="#rim"/>
    <path pointer-events="none" fill="none" stroke="white" stroke-width="1.5" d="M0,-3.0v7 M-2.5,-0.5L0,-3.0L2.5,-0.5"/>
  </g>
  <g id="resetDef">
    <use xlink:href="#rim2" fill="#404040"><set attributeName="fill" to="#808080" begin="reset.mouseover" end="reset.mouseout"/></use>
  </g>
</defs>
<script type="application/ecmascript">
var viewWidth = 2866;
var viewHeight = 183;
var sectionId = 'dynsection-0';
</script>
<script type="application/ecmascript" xlink:href="../../svg.min.js"/>
<svg id="graph" class="graph">
<g id="viewport">
<title>third_party/mal&#45;toolkit/mal&#45;toolkit/mal&#45;toolkit/debug.hpp</title>
<!-- Node1 -->
<g id="Node000001" class="node">
<title>Node1</title>
<g id="a_Node000001"><a xlink:title="Contains debugging&#45;related macros and utilities for assisting with debugging tasks.">
<polygon fill="#999999" stroke="#666666" points="1810.62,-174.75 1703.12,-174.75 1703.12,-133 1810.62,-133 1810.62,-174.75"/>
<text text-anchor="start" x="1711.12" y="-161.25" font-family="Times,serif" font-size="10.00">third_party/mal&#45;toolkit</text>
<text text-anchor="start" x="1711.12" y="-150" font-family="Times,serif" font-size="10.00">/mal&#45;toolkit/mal&#45;toolkit</text>
<text text-anchor="middle" x="1756.88" y="-138.75" font-family="Times,serif" font-size="10.00">/debug.hpp</text>
</a>
</g>
</g>
<!-- Node2 -->
<g id="Node000002" class="node">
<title>Node2</title>
<g id="a_Node000002"><a xlink:href="../../dd/db5/spdlog_8hpp.html" target="_top" xlink:title="Provides integration with the SPDLOG library for efficient logging and debugging.">
<polygon fill="white" stroke="#666666" points="411.75,-91.38 320,-91.38 320,-72.12 411.75,-72.12 411.75,-91.38"/>
<text text-anchor="middle" x="365.88" y="-77.88" font-family="Times,serif" font-size="10.00">include/spdlog.hpp</text>
</a>
</g>
</g>
<!-- Node1&#45;&gt;Node2 -->
<g id="edge1_Node000001_Node000002" class="edge">
<title>Node1&#45;&gt;Node2</title>
<g id="a_edge1_Node000001_Node000002"><a xlink:title=" ">
<path fill="none" stroke="#63b8ff" d="M1702.77,-150.15C1482.01,-139.02 650.32,-97.09 423.38,-85.65"/>
<polygon fill="#63b8ff" stroke="#63b8ff" points="423.78,-82.16 413.61,-85.16 423.42,-89.16 423.78,-82.16"/>
</a>
</g>
</g>
<!-- Node9 -->
<g id="Node000009" class="node">
<title>Node9</title>
<g id="a_Node000009"><a xlink:href="../../db/d6e/library-pch_8hpp.html" target="_top" xlink:title="Precompiled header (PCH) file for common headers used across the library.">
<polygon fill="white" stroke="#666666" points="1742.38,-91.38 1663.38,-91.38 1663.38,-72.12 1742.38,-72.12 1742.38,-91.38"/>
<text text-anchor="middle" x="1702.88" y="-77.88" font-family="Times,serif" font-size="10.00">library&#45;pch.hpp</text>
</a>
</g>
</g>
<!-- Node1&#45;&gt;Node9 -->
<g id="edge8_Node000001_Node000009" class="edge">
<title>Node1&#45;&gt;Node9</title>
<g id="a_edge8_Node000001_Node000009"><a xlink:title=" ">
<path fill="none" stroke="#63b8ff" d="M1741.26,-132.59C1733.41,-122.4 1723.99,-110.17 1716.44,-100.37"/>
<polygon fill="#63b8ff" stroke="#63b8ff" points="1719.45,-98.54 1710.58,-92.75 1713.9,-102.81 1719.45,-98.54"/>
</a>
</g>
</g>
<!-- Node44 -->
<g id="Node000044" class="node">
<title>Node44</title>
<g id="a_Node000044"><a xlink:href="../../d3/d4b/debug__without__source__location_8hpp.html" target="_top" xlink:title="Provides utility functions for debugging and assertion handling without source location information.">
<polygon fill="white" stroke="#666666" points="1861.62,-97 1760.12,-97 1760.12,-66.5 1861.62,-66.5 1861.62,-97"/>
<text text-anchor="start" x="1768.12" y="-83.5" font-family="Times,serif" font-size="10.00">detail/debug_without</text>
<text text-anchor="middle" x="1810.88" y="-72.25" font-family="Times,serif" font-size="10.00">_source_location.hpp</text>
</a>
</g>
</g>
<!-- Node1&#45;&gt;Node44 -->
<g id="edge43_Node000001_Node000044" class="edge">
<title>Node1&#45;&gt;Node44</title>
<g id="a_edge43_Node000001_Node000044"><a xlink:title=" ">
<path fill="none" stroke="#63b8ff" d="M1766.31,-132.59C1772.1,-124.19 1779.58,-114.39 1786.8,-105.72"/>
<polygon fill="#63b8ff" stroke="#63b8ff" points="1789.29,-108.2 1793.18,-98.35 1783.99,-103.63 1789.29,-108.2"/>
</a>
</g>
</g>
<!-- Node3 -->
<g id="Node000003" class="node">
<title>Node3</title>
<g id="a_Node000003"><a xlink:title=" ">
<polygon fill="#e0e0e0" stroke="#999999" points="73.75,-24.88 0,-24.88 0,-5.63 73.75,-5.63 73.75,-24.88"/>
<text text-anchor="middle" x="36.88" y="-11.38" font-family="Times,serif" font-size="10.00">spdlog/async.h</text>
</a>
</g>
</g>
<!-- Node2&#45;&gt;Node3 -->
<g id="edge2_Node000002_Node000003" class="edge">
<title>Node2&#45;&gt;Node3</title>
<g id="a_edge2_Node000002_Node000003"><a xlink:title=" ">
<path fill="none" stroke="#63b8ff" d="M319.74,-74.49C263.23,-66.39 164.78,-50.87 81.88,-30.5 79.42,-29.9 76.9,-29.23 74.37,-28.53"/>
<polygon fill="#63b8ff" stroke="#63b8ff" points="75.39,-25.18 64.81,-25.7 73.41,-31.89 75.39,-25.18"/>
</a>
</g>
</g>
<!-- Node4 -->
<g id="Node000004" class="node">
<title>Node4</title>
<g id="a_Node000004"><a xlink:title=" ">
<polygon fill="#e0e0e0" stroke="#999999" points="194.38,-30.5 91.38,-30.5 91.38,0 194.38,0 194.38,-30.5"/>
<text text-anchor="start" x="99.38" y="-17" font-family="Times,serif" font-size="10.00">spdlog/sinks/ansicolor</text>
<text text-anchor="middle" x="142.88" y="-5.75" font-family="Times,serif" font-size="10.00">_sink.h</text>
</a>
</g>
</g>
<!-- Node2&#45;&gt;Node4 -->
<g id="edge3_Node000002_Node000004" class="edge">
<title>Node2&#45;&gt;Node4</title>
<g id="a_edge3_Node000002_Node000004"><a xlink:title=" ">
<path fill="none" stroke="#63b8ff" d="M334.4,-71.65C300.78,-61.92 246.66,-46.27 204.51,-34.08"/>
<polygon fill="#63b8ff" stroke="#63b8ff" points="205.55,-30.74 194.98,-31.32 203.61,-37.46 205.55,-30.74"/>
</a>
</g>
</g>
<!-- Node5 -->
<g id="Node000005" class="node">
<title>Node5</title>
<g id="a_Node000005"><a xlink:title=" ">
<polygon fill="#e0e0e0" stroke="#999999" points="301.25,-30.5 212.5,-30.5 212.5,0 301.25,0 301.25,-30.5"/>
<text text-anchor="start" x="220.5" y="-17" font-family="Times,serif" font-size="10.00">spdlog/sinks/basic</text>
<text text-anchor="middle" x="256.88" y="-5.75" font-family="Times,serif" font-size="10.00">_file_sink.h</text>
</a>
</g>
</g>
<!-- Node2&#45;&gt;Node5 -->
<g id="edge4_Node000002_Node000005" class="edge">
<title>Node2&#45;&gt;Node5</title>
<g id="a_edge4_Node000002_Node000005"><a xlink:title=" ">
<path fill="none" stroke="#63b8ff" d="M350.72,-71.78C335.41,-62.72 311.22,-48.41 291.24,-36.58"/>
<polygon fill="#63b8ff" stroke="#63b8ff" points="293.22,-33.69 282.83,-31.61 289.66,-39.72 293.22,-33.69"/>
</a>
</g>
</g>
<!-- Node6 -->
<g id="Node000006" class="node">
<title>Node6</title>
<g id="a_Node000006"><a xlink:title=" ">
<polygon fill="#e0e0e0" stroke="#999999" points="412.5,-30.5 319.25,-30.5 319.25,0 412.5,0 412.5,-30.5"/>
<text text-anchor="start" x="327.25" y="-17" font-family="Times,serif" font-size="10.00">spdlog/sinks/stdout</text>
<text text-anchor="middle" x="365.88" y="-5.75" font-family="Times,serif" font-size="10.00">_color_sinks.h</text>
</a>
</g>
</g>
<!-- Node2&#45;&gt;Node6 -->
<g id="edge5_Node000002_Node000006" class="edge">
<title>Node2&#45;&gt;Node6</title>
<g id="a_edge5_Node000002_Node000006"><a xlink:title=" ">
<path fill="none" stroke="#63b8ff" d="M365.88,-71.78C365.88,-64.04 365.88,-52.45 365.88,-41.87"/>
<polygon fill="#63b8ff" stroke="#63b8ff" points="369.38,-42.11 365.88,-32.11 362.38,-42.11 369.38,-42.11"/>
</a>
</g>
</g>
<!-- Node7 -->
<g id="Node000007" class="node">
<title>Node7</title>
<g id="a_Node000007"><a xlink:title=" ">
<polygon fill="#e0e0e0" stroke="#999999" points="507.62,-24.88 430.12,-24.88 430.12,-5.63 507.62,-5.63 507.62,-24.88"/>
<text text-anchor="middle" x="468.88" y="-11.38" font-family="Times,serif" font-size="10.00">spdlog/spdlog.h</text>
</a>
</g>
</g>
<!-- Node2&#45;&gt;Node7 -->
<g id="edge6_Node000002_Node000007" class="edge">
<title>Node2&#45;&gt;Node7</title>
<g id="a_edge6_Node000002_Node000007"><a xlink:title=" ">
<path fill="none" stroke="#63b8ff" d="M380.2,-71.78C396.86,-61.35 424.64,-43.95 444.67,-31.4"/>
<polygon fill="#63b8ff" stroke="#63b8ff" points="446.44,-34.43 453.06,-26.15 442.73,-28.49 446.44,-34.43"/>
</a>
</g>
</g>
<!-- Node8 -->
<g id="Node000008" class="node">
<title>Node8</title>
<g id="a_Node000008"><a xlink:href="../../d4/dfc/win-undef_8hpp.html" target="_top" xlink:title=" ">
<polygon fill="white" stroke="#666666" points="600.5,-24.88 525.25,-24.88 525.25,-5.63 600.5,-5.63 600.5,-24.88"/>
<text text-anchor="middle" x="562.88" y="-11.38" font-family="Times,serif" font-size="10.00">win&#45;undef.hpp</text>
</a>
</g>
</g>
<!-- Node2&#45;&gt;Node8 -->
<g id="edge7_Node000002_Node000008" class="edge">
<title>Node2&#45;&gt;Node8</title>
<g id="a_edge7_Node000002_Node000008"><a xlink:title=" ">
<path fill="none" stroke="#63b8ff" d="M393.68,-71.65C427.85,-60.46 486.02,-41.41 524.45,-28.83"/>
<polygon fill="#63b8ff" stroke="#63b8ff" points="525.36,-32.22 533.77,-25.78 523.18,-25.56 525.36,-32.22"/>
</a>
</g>
</g>
<!-- Node10 -->
<g id="Node000010" class="node">
<title>Node10</title>
<g id="a_Node000010"><a xlink:title=" ">
<polygon fill="#e0e0e0" stroke="#999999" points="665.25,-24.88 618.5,-24.88 618.5,-5.63 665.25,-5.63 665.25,-24.88"/>
<text text-anchor="middle" x="641.88" y="-11.38" font-family="Times,serif" font-size="10.00">assert.h</text>
</a>
</g>
</g>
<!-- Node9&#45;&gt;Node10 -->
<g id="edge9_Node000009_Node000010" class="edge">
<title>Node9&#45;&gt;Node10</title>
<g id="a_edge9_Node000009_Node000010"><a xlink:title=" ">
<path fill="none" stroke="#63b8ff" d="M1662.91,-80.76C1497.57,-80.5 866.79,-76.46 673.88,-30.5 672.48,-30.17 671.07,-29.77 669.65,-29.34"/>
<polygon fill="#63b8ff" stroke="#63b8ff" points="671.08,-26.13 660.48,-25.84 668.58,-32.67 671.08,-26.13"/>
</a>
</g>
</g>
<!-- Node11 -->
<g id="Node000011" class="node">
<title>Node11</title>
<g id="a_Node000011"><a xlink:title=" ">
<polygon fill="#e0e0e0" stroke="#999999" points="728.88,-24.88 682.88,-24.88 682.88,-5.63 728.88,-5.63 728.88,-24.88"/>
<text text-anchor="middle" x="705.88" y="-11.38" font-family="Times,serif" font-size="10.00">stdint.h</text>
</a>
</g>
</g>
<!-- Node9&#45;&gt;Node11 -->
<g id="edge10_Node000009_Node000011" class="edge">
<title>Node9&#45;&gt;Node11</title>
<g id="a_edge10_Node000009_Node000011"><a xlink:title=" ">
<path fill="none" stroke="#63b8ff" d="M1663,-80.61C1504.34,-79.76 917.83,-73.68 737.88,-30.5 736.48,-30.16 735.07,-29.77 733.65,-29.33"/>
<polygon fill="#63b8ff" stroke="#63b8ff" points="735.08,-26.13 724.49,-25.83 732.58,-32.67 735.08,-26.13"/>
</a>
</g>
</g>
<!-- Node12 -->
<g id="Node000012" class="node">
<title>Node12</title>
<g id="a_Node000012"><a xlink:title=" ">
<polygon fill="#e0e0e0" stroke="#999999" points="800.62,-24.88 747.12,-24.88 747.12,-5.63 800.62,-5.63 800.62,-24.88"/>
<text text-anchor="middle" x="773.88" y="-11.38" font-family="Times,serif" font-size="10.00">algorithm</text>
</a>
</g>
</g>
<!-- Node9&#45;&gt;Node12 -->
<g id="edge11_Node000009_Node000012" class="edge">
<title>Node9&#45;&gt;Node12</title>
<g id="a_edge11_Node000009_Node000012"><a xlink:title=" ">
<path fill="none" stroke="#63b8ff" d="M1662.97,-80.2C1512.01,-77.85 976.03,-67.06 809.88,-30.5 807.98,-30.08 806.05,-29.58 804.13,-29.01"/>
<polygon fill="#63b8ff" stroke="#63b8ff" points="805.35,-25.73 794.75,-25.76 803.05,-32.34 805.35,-25.73"/>
</a>
</g>
</g>
<!-- Node13 -->
<g id="Node000013" class="node">
<title>Node13</title>
<g id="a_Node000013"><a xlink:title=" ">
<polygon fill="#e0e0e0" stroke="#999999" points="855,-24.88 818.75,-24.88 818.75,-5.63 855,-5.63 855,-24.88"/>
<text text-anchor="middle" x="836.88" y="-11.38" font-family="Times,serif" font-size="10.00">array</text>
</a>
</g>
</g>
<!-- Node9&#45;&gt;Node13 -->
<g id="edge12_Node000009_Node000013" class="edge">
<title>Node9&#45;&gt;Node13</title>
<g id="a_edge12_Node000009_Node000013"><a xlink:title=" ">
<path fill="none" stroke="#63b8ff" d="M1663.03,-80.59C1517.76,-79.66 1017.05,-73.34 863.88,-30.5 863.07,-30.28 862.26,-30.02 861.46,-29.75"/>
<polygon fill="#63b8ff" stroke="#63b8ff" points="863.21,-26.7 852.64,-25.89 860.4,-33.11 863.21,-26.7"/>
</a>
</g>
</g>
<!-- Node14 -->
<g id="Node000014" class="node">
<title>Node14</title>
<g id="a_Node000014"><a xlink:title=" ">
<polygon fill="#e0e0e0" stroke="#999999" points="916.38,-24.88 873.38,-24.88 873.38,-5.63 916.38,-5.63 916.38,-24.88"/>
<text text-anchor="middle" x="894.88" y="-11.38" font-family="Times,serif" font-size="10.00">chrono</text>
</a>
</g>
</g>
<!-- Node9&#45;&gt;Node14 -->
<g id="edge13_Node000009_Node000014" class="edge">
<title>Node9&#45;&gt;Node14</title>
<g id="a_edge13_Node000009_Node000014"><a xlink:title=" ">
<path fill="none" stroke="#63b8ff" d="M1663.22,-80.09C1525.37,-77.51 1067.74,-66.38 925.88,-30.5 924.67,-30.19 923.45,-29.84 922.23,-29.46"/>
<polygon fill="#63b8ff" stroke="#63b8ff" points="923.52,-26.2 912.93,-25.8 920.96,-32.72 923.52,-26.2"/>
</a>
</g>
</g>
<!-- Node15 -->
<g id="Node000015" class="node">
<title>Node15</title>
<g id="a_Node000015"><a xlink:title=" ">
<polygon fill="#e0e0e0" stroke="#999999" points="975.25,-24.88 934.5,-24.88 934.5,-5.63 975.25,-5.63 975.25,-24.88"/>
<text text-anchor="middle" x="954.88" y="-11.38" font-family="Times,serif" font-size="10.00">cmath</text>
</a>
</g>
</g>
<!-- Node9&#45;&gt;Node15 -->
<g id="edge14_Node000009_Node000015" class="edge">
<title>Node9&#45;&gt;Node15</title>
<g id="a_edge14_Node000009_Node000015"><a xlink:title=" ">
<path fill="none" stroke="#63b8ff" d="M1663.07,-79.91C1531.95,-76.84 1114.65,-64.56 984.88,-30.5 983.7,-30.19 982.52,-29.84 981.34,-29.45"/>
<polygon fill="#63b8ff" stroke="#63b8ff" points="982.95,-26.32 972.36,-25.81 980.31,-32.81 982.95,-26.32"/>
</a>
</g>
</g>
<!-- Node16 -->
<g id="Node000016" class="node">
<title>Node16</title>
<g id="a_Node000016"><a xlink:title=" ">
<polygon fill="#e0e0e0" stroke="#999999" points="1044.12,-24.88 993.62,-24.88 993.62,-5.63 1044.12,-5.63 1044.12,-24.88"/>
<text text-anchor="middle" x="1018.88" y="-11.38" font-family="Times,serif" font-size="10.00">concepts</text>
</a>
</g>
</g>
<!-- Node9&#45;&gt;Node16 -->
<g id="edge15_Node000009_Node000016" class="edge">
<title>Node9&#45;&gt;Node16</title>
<g id="a_edge15_Node000009_Node000016"><a xlink:title=" ">
<path fill="none" stroke="#63b8ff" d="M1663.15,-79.28C1540.77,-74.5 1170.73,-58.1 1053.88,-30.5 1052.24,-30.11 1050.58,-29.66 1048.92,-29.16"/>
<polygon fill="#63b8ff" stroke="#63b8ff" points="1050.17,-25.89 1039.57,-25.84 1047.82,-32.49 1050.17,-25.89"/>
</a>
</g>
</g>
<!-- Node17 -->
<g id="Node000017" class="node">
<title>Node17</title>
<g id="a_Node000017"><a xlink:title=" ">
<polygon fill="#e0e0e0" stroke="#999999" points="1151.25,-24.88 1062.5,-24.88 1062.5,-5.63 1151.25,-5.63 1151.25,-24.88"/>
<text text-anchor="middle" x="1106.88" y="-11.38" font-family="Times,serif" font-size="10.00">condition_variable</text>
</a>
</g>
</g>
<!-- Node9&#45;&gt;Node17 -->
<g id="edge16_Node000009_Node000017" class="edge">
<title>Node9&#45;&gt;Node17</title>
<g id="a_edge16_Node000009_Node000017"><a xlink:title=" ">
<path fill="none" stroke="#63b8ff" d="M1663.05,-79.39C1572.83,-75.79 1346.25,-63.93 1159.88,-30.5 1156.05,-29.81 1152.11,-28.99 1148.17,-28.08"/>
<polygon fill="#63b8ff" stroke="#63b8ff" points="1149.24,-24.74 1138.69,-25.73 1147.55,-31.53 1149.24,-24.74"/>
</a>
</g>
</g>
<!-- Node18 -->
<g id="Node000018" class="node">
<title>Node18</title>
<g id="a_Node000018"><a xlink:title=" ">
<polygon fill="#e0e0e0" stroke="#999999" points="1212.38,-24.88 1169.38,-24.88 1169.38,-5.63 1212.38,-5.63 1212.38,-24.88"/>
<text text-anchor="middle" x="1190.88" y="-11.38" font-family="Times,serif" font-size="10.00">cstdint</text>
</a>
</g>
</g>
<!-- Node9&#45;&gt;Node18 -->
<g id="edge17_Node000009_Node000018" class="edge">
<title>Node9&#45;&gt;Node18</title>
<g id="a_edge17_Node000009_Node000018"><a xlink:title=" ">
<path fill="none" stroke="#63b8ff" d="M1662.98,-81.11C1579.35,-80.89 1380.25,-75.24 1220.88,-30.5 1219.88,-30.22 1218.88,-29.91 1217.87,-29.57"/>
<polygon fill="#63b8ff" stroke="#63b8ff" points="1219.29,-26.37 1208.71,-25.85 1216.65,-32.86 1219.29,-26.37"/>
</a>
</g>
</g>
<!-- Node19 -->
<g id="Node000019" class="node">
<title>Node19</title>
<g id="a_Node000019"><a xlink:title=" ">
<polygon fill="#e0e0e0" stroke="#999999" points="1273.38,-24.88 1230.38,-24.88 1230.38,-5.63 1273.38,-5.63 1273.38,-24.88"/>
<text text-anchor="middle" x="1251.88" y="-11.38" font-family="Times,serif" font-size="10.00">cstdlib</text>
</a>
</g>
</g>
<!-- Node9&#45;&gt;Node19 -->
<g id="edge18_Node000009_Node000019" class="edge">
<title>Node9&#45;&gt;Node19</title>
<g id="a_edge18_Node000009_Node000019"><a xlink:title=" ">
<path fill="none" stroke="#63b8ff" d="M1663.14,-80.26C1587.46,-78.42 1418.01,-69.81 1281.88,-30.5 1280.88,-30.21 1279.88,-29.9 1278.88,-29.56"/>
<polygon fill="#63b8ff" stroke="#63b8ff" points="1280.3,-26.36 1269.72,-25.81 1277.65,-32.83 1280.3,-26.36"/>
</a>
</g>
</g>
<!-- Node20 -->
<g id="Node000020" class="node">
<title>Node20</title>
<g id="a_Node000020"><a xlink:title=" ">
<polygon fill="#e0e0e0" stroke="#999999" points="1346.38,-24.88 1291.38,-24.88 1291.38,-5.63 1346.38,-5.63 1346.38,-24.88"/>
<text text-anchor="middle" x="1318.88" y="-11.38" font-family="Times,serif" font-size="10.00">filesystem</text>
</a>
</g>
</g>
<!-- Node9&#45;&gt;Node20 -->
<g id="edge19_Node000009_Node000020" class="edge">
<title>Node9&#45;&gt;Node20</title>
<g id="a_edge19_Node000009_Node000020"><a xlink:title=" ">
<path fill="none" stroke="#63b8ff" d="M1663.13,-78.04C1597.86,-72.93 1464.3,-59.63 1354.88,-30.5 1353.25,-30.07 1351.6,-29.58 1349.95,-29.06"/>
<polygon fill="#63b8ff" stroke="#63b8ff" points="1351.18,-25.79 1340.58,-25.74 1348.84,-32.38 1351.18,-25.79"/>
</a>
</g>
</g>
<!-- Node21 -->
<g id="Node000021" class="node">
<title>Node21</title>
<g id="a_Node000021"><a xlink:title=" ">
<polygon fill="#e0e0e0" stroke="#999999" points="1409.5,-24.88 1364.25,-24.88 1364.25,-5.63 1409.5,-5.63 1409.5,-24.88"/>
<text text-anchor="middle" x="1386.88" y="-11.38" font-family="Times,serif" font-size="10.00">fstream</text>
</a>
</g>
</g>
<!-- Node9&#45;&gt;Node21 -->
<g id="edge20_Node000009_Node000021" class="edge">
<title>Node9&#45;&gt;Node21</title>
<g id="a_edge20_Node000009_Node000021"><a xlink:title=" ">
<path fill="none" stroke="#63b8ff" d="M1663.11,-76.81C1607.53,-70.61 1503.86,-56.51 1418.88,-30.5 1417.88,-30.2 1416.88,-29.87 1415.87,-29.52"/>
<polygon fill="#63b8ff" stroke="#63b8ff" points="1417.19,-26.28 1406.6,-25.88 1414.63,-32.8 1417.19,-26.28"/>
</a>
</g>
</g>
<!-- Node22 -->
<g id="Node000022" class="node">
<title>Node22</title>
<g id="a_Node000022"><a xlink:title=" ">
<polygon fill="#e0e0e0" stroke="#999999" points="1482,-24.88 1427.75,-24.88 1427.75,-5.63 1482,-5.63 1482,-24.88"/>
<text text-anchor="middle" x="1454.88" y="-11.38" font-family="Times,serif" font-size="10.00">functional</text>
</a>
</g>
</g>
<!-- Node9&#45;&gt;Node22 -->
<g id="edge21_Node000009_Node000022" class="edge">
<title>Node9&#45;&gt;Node22</title>
<g id="a_edge21_Node000009_Node000022"><a xlink:title=" ">
<path fill="none" stroke="#63b8ff" d="M1662.95,-73.08C1619.98,-64.41 1549.87,-49.06 1490.88,-30.5 1489.54,-30.08 1488.19,-29.63 1486.82,-29.17"/>
<polygon fill="#63b8ff" stroke="#63b8ff" points="1488.41,-26.02 1477.82,-25.87 1486,-32.6 1488.41,-26.02"/>
</a>
</g>
</g>
<!-- Node23 -->
<g id="Node000023" class="node">
<title>Node23</title>
<g id="a_Node000023"><a xlink:title=" ">
<polygon fill="#e0e0e0" stroke="#999999" points="1548,-24.88 1499.75,-24.88 1499.75,-5.63 1548,-5.63 1548,-24.88"/>
<text text-anchor="middle" x="1523.88" y="-11.38" font-family="Times,serif" font-size="10.00">iomanip</text>
</a>
</g>
</g>
<!-- Node9&#45;&gt;Node23 -->
<g id="edge22_Node000009_Node000023" class="edge">
<title>Node9&#45;&gt;Node23</title>
<g id="a_edge22_Node000009_Node000023"><a xlink:title=" ">
<path fill="none" stroke="#63b8ff" d="M1674.38,-71.66C1644.78,-62.04 1597.24,-46.14 1556.88,-30.5 1556.09,-30.2 1555.29,-29.88 1554.49,-29.57"/>
<polygon fill="#63b8ff" stroke="#63b8ff" points="1556,-26.4 1545.42,-25.82 1553.32,-32.87 1556,-26.4"/>
</a>
</g>
</g>
<!-- Node24 -->
<g id="Node000024" class="node">
<title>Node24</title>
<g id="a_Node000024"><a xlink:title=" ">
<polygon fill="#e0e0e0" stroke="#999999" points="1611.5,-24.88 1566.25,-24.88 1566.25,-5.63 1611.5,-5.63 1611.5,-24.88"/>
<text text-anchor="middle" x="1588.88" y="-11.38" font-family="Times,serif" font-size="10.00">istream</text>
</a>
</g>
</g>
<!-- Node9&#45;&gt;Node24 -->
<g id="edge23_Node000009_Node000024" class="edge">
<title>Node9&#45;&gt;Node24</title>
<g id="a_edge23_Node000009_Node000024"><a xlink:title=" ">
<path fill="none" stroke="#63b8ff" d="M1687.02,-71.78C1668.33,-61.2 1636.98,-43.47 1614.75,-30.89"/>
<polygon fill="#63b8ff" stroke="#63b8ff" points="1616.7,-27.97 1606.28,-26.1 1613.26,-34.07 1616.7,-27.97"/>
</a>
</g>
</g>
<!-- Node25 -->
<g id="Node000025" class="node">
<title>Node25</title>
<g id="a_Node000025"><a xlink:title=" ">
<polygon fill="#e0e0e0" stroke="#999999" points="1667.75,-24.88 1630,-24.88 1630,-5.63 1667.75,-5.63 1667.75,-24.88"/>
<text text-anchor="middle" x="1648.88" y="-11.38" font-family="Times,serif" font-size="10.00">limits</text>
</a>
</g>
</g>
<!-- Node9&#45;&gt;Node25 -->
<g id="edge24_Node000009_Node000025" class="edge">
<title>Node9&#45;&gt;Node25</title>
<g id="a_edge24_Node000009_Node000025"><a xlink:title=" ">
<path fill="none" stroke="#63b8ff" d="M1695.37,-71.78C1687.15,-61.96 1673.76,-45.98 1663.46,-33.67"/>
<polygon fill="#63b8ff" stroke="#63b8ff" points="1666.39,-31.72 1657.29,-26.3 1661.03,-36.22 1666.39,-31.72"/>
</a>
</g>
</g>
<!-- Node26 -->
<g id="Node000026" class="node">
<title>Node26</title>
<g id="a_Node000026"><a xlink:title=" ">
<polygon fill="#e0e0e0" stroke="#999999" points="1719.5,-24.88 1686.25,-24.88 1686.25,-5.63 1719.5,-5.63 1719.5,-24.88"/>
<text text-anchor="middle" x="1702.88" y="-11.38" font-family="Times,serif" font-size="10.00">map</text>
</a>
</g>
</g>
<!-- Node9&#45;&gt;Node26 -->
<g id="edge25_Node000009_Node000026" class="edge">
<title>Node9&#45;&gt;Node26</title>
<g id="a_edge25_Node000009_Node000026"><a xlink:title=" ">
<path fill="none" stroke="#63b8ff" d="M1702.88,-71.78C1702.88,-62.73 1702.88,-48.45 1702.88,-36.63"/>
<polygon fill="#63b8ff" stroke="#63b8ff" points="1706.38,-36.66 1702.88,-26.66 1699.38,-36.66 1706.38,-36.66"/>
</a>
</g>
</g>
<!-- Node27 -->
<g id="Node000027" class="node">
<title>Node27</title>
<g id="a_Node000027"><a xlink:title=" ">
<polygon fill="#e0e0e0" stroke="#999999" points="1786,-24.88 1737.75,-24.88 1737.75,-5.63 1786,-5.63 1786,-24.88"/>
<text text-anchor="middle" x="1761.88" y="-11.38" font-family="Times,serif" font-size="10.00">memory</text>
</a>
</g>
</g>
<!-- Node9&#45;&gt;Node27 -->
<g id="edge26_Node000009_Node000027" class="edge">
<title>Node9&#45;&gt;Node27</title>
<g id="a_edge26_Node000009_Node000027"><a xlink:title=" ">
<path fill="none" stroke="#63b8ff" d="M1711.08,-71.78C1720.15,-61.87 1734.97,-45.66 1746.27,-33.31"/>
<polygon fill="#63b8ff" stroke="#63b8ff" points="1748.55,-36 1752.72,-26.26 1743.39,-31.28 1748.55,-36"/>
</a>
</g>
</g>
<!-- Node28 -->
<g id="Node000028" class="node">
<title>Node28</title>
<g id="a_Node000028"><a xlink:title=" ">
<polygon fill="#e0e0e0" stroke="#999999" points="1845.25,-24.88 1804.5,-24.88 1804.5,-5.63 1845.25,-5.63 1845.25,-24.88"/>
<text text-anchor="middle" x="1824.88" y="-11.38" font-family="Times,serif" font-size="10.00">mutex</text>
</a>
</g>
</g>
<!-- Node9&#45;&gt;Node28 -->
<g id="edge27_Node000009_Node000028" class="edge">
<title>Node9&#45;&gt;Node28</title>
<g id="a_edge27_Node000009_Node000028"><a xlink:title=" ">
<path fill="none" stroke="#63b8ff" d="M1720.1,-71.65C1740.26,-60.99 1773.91,-43.19 1797.63,-30.66"/>
<polygon fill="#63b8ff" stroke="#63b8ff" points="1799.2,-33.78 1806.4,-26.02 1795.93,-27.6 1799.2,-33.78"/>
</a>
</g>
</g>
<!-- Node29 -->
<g id="Node000029" class="node">
<title>Node29</title>
<g id="a_Node000029"><a xlink:title=" ">
<polygon fill="#e0e0e0" stroke="#999999" points="1914.12,-24.88 1863.62,-24.88 1863.62,-5.63 1914.12,-5.63 1914.12,-24.88"/>
<text text-anchor="middle" x="1888.88" y="-11.38" font-family="Times,serif" font-size="10.00">numbers</text>
</a>
</g>
</g>
<!-- Node9&#45;&gt;Node29 -->
<g id="edge28_Node000009_Node000029" class="edge">
<title>Node9&#45;&gt;Node29</title>
<g id="a_edge28_Node000009_Node000029"><a xlink:title=" ">
<path fill="none" stroke="#63b8ff" d="M1732.02,-71.68C1762.57,-62.02 1811.89,-46.01 1853.88,-30.5 1854.82,-30.15 1855.77,-29.79 1856.73,-29.43"/>
<polygon fill="#63b8ff" stroke="#63b8ff" points="1857.67,-32.82 1865.71,-25.92 1855.12,-26.3 1857.67,-32.82"/>
</a>
</g>
</g>
<!-- Node30 -->
<g id="Node000030" class="node">
<title>Node30</title>
<g id="a_Node000030"><a xlink:title=" ">
<polygon fill="#e0e0e0" stroke="#999999" points="1980,-24.88 1931.75,-24.88 1931.75,-5.63 1980,-5.63 1980,-24.88"/>
<text text-anchor="middle" x="1955.88" y="-11.38" font-family="Times,serif" font-size="10.00">numeric</text>
</a>
</g>
</g>
<!-- Node9&#45;&gt;Node30 -->
<g id="edge29_Node000009_Node000030" class="edge">
<title>Node9&#45;&gt;Node30</title>
<g id="a_edge29_Node000009_Node000030"><a xlink:title=" ">
<path fill="none" stroke="#63b8ff" d="M1731.96,-71.7C1738.18,-69.88 1744.72,-68.05 1750.88,-66.5 1826.6,-47.37 1848.43,-54.1 1922.88,-30.5 1923.86,-30.19 1924.86,-29.85 1925.87,-29.51"/>
<polygon fill="#63b8ff" stroke="#63b8ff" points="1927.11,-32.78 1935.17,-25.9 1924.58,-26.25 1927.11,-32.78"/>
</a>
</g>
</g>
<!-- Node31 -->
<g id="Node000031" class="node">
<title>Node31</title>
<g id="a_Node000031"><a xlink:title=" ">
<polygon fill="#e0e0e0" stroke="#999999" points="2045.25,-24.88 1998.5,-24.88 1998.5,-5.63 2045.25,-5.63 2045.25,-24.88"/>
<text text-anchor="middle" x="2021.88" y="-11.38" font-family="Times,serif" font-size="10.00">optional</text>
</a>
</g>
</g>
<!-- Node9&#45;&gt;Node31 -->
<g id="edge30_Node000009_Node000031" class="edge">
<title>Node9&#45;&gt;Node31</title>
<g id="a_edge30_Node000009_Node000031"><a xlink:title=" ">
<path fill="none" stroke="#63b8ff" d="M1731.13,-71.65C1737.58,-69.78 1744.43,-67.94 1750.88,-66.5 1855.29,-43.22 1886.03,-59.95 1988.88,-30.5 1990.22,-30.11 1991.59,-29.68 1992.96,-29.22"/>
<polygon fill="#63b8ff" stroke="#63b8ff" points="1993.84,-32.64 2001.92,-25.79 1991.33,-26.1 1993.84,-32.64"/>
</a>
</g>
</g>
<!-- Node32 -->
<g id="Node000032" class="node">
<title>Node32</title>
<g id="a_Node000032"><a xlink:title=" ">
<polygon fill="#e0e0e0" stroke="#999999" points="2110.62,-24.88 2063.12,-24.88 2063.12,-5.63 2110.62,-5.63 2110.62,-24.88"/>
<text text-anchor="middle" x="2086.88" y="-11.38" font-family="Times,serif" font-size="10.00">ostream</text>
</a>
</g>
</g>
<!-- Node9&#45;&gt;Node32 -->
<g id="edge31_Node000009_Node000032" class="edge">
<title>Node9&#45;&gt;Node32</title>
<g id="a_edge31_Node000009_Node000032"><a xlink:title=" ">
<path fill="none" stroke="#63b8ff" d="M1730.59,-71.65C1737.18,-69.73 1744.23,-67.87 1750.88,-66.5 1883.69,-39.1 1922.92,-65.75 2053.88,-30.5 2055.23,-30.14 2056.6,-29.72 2057.98,-29.28"/>
<polygon fill="#63b8ff" stroke="#63b8ff" points="2058.83,-32.7 2066.95,-25.89 2056.36,-26.15 2058.83,-32.7"/>
</a>
</g>
</g>
<!-- Node33 -->
<g id="Node000033" class="node">
<title>Node33</title>
<g id="a_Node000033"><a xlink:title=" ">
<polygon fill="#e0e0e0" stroke="#999999" points="2174.88,-24.88 2128.88,-24.88 2128.88,-5.63 2174.88,-5.63 2174.88,-24.88"/>
<text text-anchor="middle" x="2151.88" y="-11.38" font-family="Times,serif" font-size="10.00">random</text>
</a>
</g>
</g>
<!-- Node9&#45;&gt;Node33 -->
<g id="edge32_Node000009_Node000033" class="edge">
<title>Node9&#45;&gt;Node33</title>
<g id="a_edge32_Node000009_Node000033"><a xlink:title=" ">
<path fill="none" stroke="#63b8ff" d="M1730.06,-71.7C1736.8,-69.72 1744.05,-67.83 1750.88,-66.5 1912.6,-34.91 1960.55,-72.56 2119.88,-30.5 2121.23,-30.14 2122.6,-29.73 2123.98,-29.28"/>
<polygon fill="#63b8ff" stroke="#63b8ff" points="2124.83,-32.71 2132.89,-25.83 2122.3,-26.18 2124.83,-32.71"/>
</a>
</g>
</g>
<!-- Node34 -->
<g id="Node000034" class="node">
<title>Node34</title>
<g id="a_Node000034"><a xlink:title=" ">
<polygon fill="#e0e0e0" stroke="#999999" points="2265,-24.88 2192.75,-24.88 2192.75,-5.63 2265,-5.63 2265,-24.88"/>
<text text-anchor="middle" x="2228.88" y="-11.38" font-family="Times,serif" font-size="10.00">shared_mutex</text>
</a>
</g>
</g>
<!-- Node9&#45;&gt;Node34 -->
<g id="edge33_Node000009_Node000034" class="edge">
<title>Node9&#45;&gt;Node34</title>
<g id="a_edge33_Node000009_Node000034"><a xlink:title=" ">
<path fill="none" stroke="#63b8ff" d="M1730.05,-71.63C1736.79,-69.66 1744.04,-67.78 1750.88,-66.5 1940.66,-30.83 1994.42,-67.88 2183.88,-30.5 2186.86,-29.91 2189.93,-29.19 2192.99,-28.39"/>
<polygon fill="#63b8ff" stroke="#63b8ff" points="2193.81,-31.8 2202.45,-25.67 2191.87,-25.07 2193.81,-31.8"/>
</a>
</g>
</g>
<!-- Node35 -->
<g id="Node000035" class="node">
<title>Node35</title>
<g id="a_Node000035"><a xlink:title=" ">
<polygon fill="#e0e0e0" stroke="#999999" points="2318.25,-24.88 2283.5,-24.88 2283.5,-5.63 2318.25,-5.63 2318.25,-24.88"/>
<text text-anchor="middle" x="2300.88" y="-11.38" font-family="Times,serif" font-size="10.00">span</text>
</a>
</g>
</g>
<!-- Node9&#45;&gt;Node35 -->
<g id="edge34_Node000009_Node000035" class="edge">
<title>Node9&#45;&gt;Node35</title>
<g id="a_edge34_Node000009_Node000035"><a xlink:title=" ">
<path fill="none" stroke="#63b8ff" d="M1729.79,-71.63C1736.6,-69.64 1743.95,-67.75 1750.88,-66.5 1980.16,-25.1 2049.77,-94.26 2273.88,-30.5 2274.68,-30.27 2275.48,-30.02 2276.29,-29.74"/>
<polygon fill="#63b8ff" stroke="#63b8ff" points="2277.36,-33.1 2285.1,-25.86 2274.54,-26.69 2277.36,-33.1"/>
</a>
</g>
</g>
<!-- Node36 -->
<g id="Node000036" class="node">
<title>Node36</title>
<g id="a_Node000036"><a xlink:title=" ">
<polygon fill="#e0e0e0" stroke="#999999" points="2381.88,-24.88 2335.88,-24.88 2335.88,-5.63 2381.88,-5.63 2381.88,-24.88"/>
<text text-anchor="middle" x="2358.88" y="-11.38" font-family="Times,serif" font-size="10.00">sstream</text>
</a>
</g>
</g>
<!-- Node9&#45;&gt;Node36 -->
<g id="edge35_Node000009_Node000036" class="edge">
<title>Node9&#45;&gt;Node36</title>
<g id="a_edge35_Node000009_Node000036"><a xlink:title=" ">
<path fill="none" stroke="#63b8ff" d="M1729.53,-71.67C1736.41,-69.65 1743.86,-67.74 1750.88,-66.5 2003.43,-21.71 2077.77,-91.64 2326.88,-30.5 2328.27,-30.16 2329.68,-29.76 2331.09,-29.31"/>
<polygon fill="#63b8ff" stroke="#63b8ff" points="2332.17,-32.65 2340.26,-25.8 2329.67,-26.11 2332.17,-32.65"/>
</a>
</g>
</g>
<!-- Node37 -->
<g id="Node000037" class="node">
<title>Node37</title>
<g id="a_Node000037"><a xlink:title=" ">
<polygon fill="#e0e0e0" stroke="#999999" points="2454,-24.88 2399.75,-24.88 2399.75,-5.63 2454,-5.63 2454,-24.88"/>
<text text-anchor="middle" x="2426.88" y="-11.38" font-family="Times,serif" font-size="10.00">stdexcept</text>
</a>
</g>
</g>
<!-- Node9&#45;&gt;Node37 -->
<g id="edge36_Node000009_Node000037" class="edge">
<title>Node9&#45;&gt;Node37</title>
<g id="a_edge36_Node000009_Node000037"><a xlink:title=" ">
<path fill="none" stroke="#63b8ff" d="M1729.52,-71.64C1736.4,-69.62 1743.85,-67.72 1750.88,-66.5 2031.55,-17.63 2112.63,-91.71 2390.88,-30.5 2392.77,-30.08 2394.7,-29.58 2396.62,-29.01"/>
<polygon fill="#63b8ff" stroke="#63b8ff" points="2397.7,-32.34 2406,-25.76 2395.4,-25.73 2397.7,-32.34"/>
</a>
</g>
</g>
<!-- Node38 -->
<g id="Node000038" class="node">
<title>Node38</title>
<g id="a_Node000038"><a xlink:title=" ">
<polygon fill="#e0e0e0" stroke="#999999" points="2511.5,-24.88 2472.25,-24.88 2472.25,-5.63 2511.5,-5.63 2511.5,-24.88"/>
<text text-anchor="middle" x="2491.88" y="-11.38" font-family="Times,serif" font-size="10.00">string</text>
</a>
</g>
</g>
<!-- Node9&#45;&gt;Node38 -->
<g id="edge37_Node000009_Node000038" class="edge">
<title>Node9&#45;&gt;Node38</title>
<g id="a_edge37_Node000009_Node000038"><a xlink:title=" ">
<path fill="none" stroke="#63b8ff" d="M1729.27,-71.69C1736.22,-69.64 1743.76,-67.72 1750.88,-66.5 2063.18,-13.03 2156.16,-110 2462.88,-30.5 2463.87,-30.24 2464.88,-29.95 2465.88,-29.62"/>
<polygon fill="#63b8ff" stroke="#63b8ff" points="2467.06,-32.92 2474.97,-25.88 2464.39,-26.45 2467.06,-32.92"/>
</a>
</g>
</g>
<!-- Node39 -->
<g id="Node000039" class="node">
<title>Node39</title>
<g id="a_Node000039"><a xlink:title=" ">
<polygon fill="#e0e0e0" stroke="#999999" points="2570.62,-24.88 2529.12,-24.88 2529.12,-5.63 2570.62,-5.63 2570.62,-24.88"/>
<text text-anchor="middle" x="2549.88" y="-11.38" font-family="Times,serif" font-size="10.00">thread</text>
</a>
</g>
</g>
<!-- Node9&#45;&gt;Node39 -->
<g id="edge38_Node000009_Node000039" class="edge">
<title>Node9&#45;&gt;Node39</title>
<g id="a_edge38_Node000009_Node000039"><a xlink:title=" ">
<path fill="none" stroke="#63b8ff" d="M1729.26,-71.67C1736.21,-69.63 1743.76,-67.7 1750.88,-66.5 2088.67,-9.33 2189.08,-115.83 2520.88,-30.5 2521.87,-30.24 2522.88,-29.95 2523.88,-29.63"/>
<polygon fill="#63b8ff" stroke="#63b8ff" points="2525.05,-32.93 2532.97,-25.89 2522.39,-26.45 2525.05,-32.93"/>
</a>
</g>
</g>
<!-- Node40 -->
<g id="Node000040" class="node">
<title>Node40</title>
<g id="a_Node000040"><a xlink:title=" ">
<polygon fill="#e0e0e0" stroke="#999999" points="2647.25,-24.88 2588.5,-24.88 2588.5,-5.63 2647.25,-5.63 2647.25,-24.88"/>
<text text-anchor="middle" x="2617.88" y="-11.38" font-family="Times,serif" font-size="10.00">type_traits</text>
</a>
</g>
</g>
<!-- Node9&#45;&gt;Node40 -->
<g id="edge39_Node000009_Node000040" class="edge">
<title>Node9&#45;&gt;Node40</title>
<g id="a_edge39_Node000009_Node000040"><a xlink:title=" ">
<path fill="none" stroke="#63b8ff" d="M1729.26,-71.66C1736.21,-69.61 1743.76,-67.69 1750.88,-66.5 2114.6,-5.56 2218.51,-104.16 2579.88,-30.5 2582.05,-30.06 2584.26,-29.51 2586.48,-28.88"/>
<polygon fill="#63b8ff" stroke="#63b8ff" points="2587.48,-32.24 2595.88,-25.78 2585.29,-25.59 2587.48,-32.24"/>
</a>
</g>
</g>
<!-- Node41 -->
<g id="Node000041" class="node">
<title>Node41</title>
<g id="a_Node000041"><a xlink:title=" ">
<polygon fill="#e0e0e0" stroke="#999999" points="2738,-24.88 2665.75,-24.88 2665.75,-5.63 2738,-5.63 2738,-24.88"/>
<text text-anchor="middle" x="2701.88" y="-11.38" font-family="Times,serif" font-size="10.00">unordered_set</text>
</a>
</g>
</g>
<!-- Node9&#45;&gt;Node41 -->
<g id="edge40_Node000009_Node000041" class="edge">
<title>Node9&#45;&gt;Node41</title>
<g id="a_edge40_Node000009_Node000041"><a xlink:title=" ">
<path fill="none" stroke="#63b8ff" d="M1729.26,-71.64C1736.21,-69.59 1743.76,-67.68 1750.88,-66.5 2148,-0.71 2259.14,-98.64 2655.88,-30.5 2659.12,-29.94 2662.45,-29.22 2665.77,-28.4"/>
<polygon fill="#63b8ff" stroke="#63b8ff" points="2666.71,-31.77 2675.4,-25.7 2664.83,-25.03 2666.71,-31.77"/>
</a>
</g>
</g>
<!-- Node42 -->
<g id="Node000042" class="node">
<title>Node42</title>
<g id="a_Node000042"><a xlink:title=" ">
<polygon fill="#e0e0e0" stroke="#999999" points="2799.38,-24.88 2756.38,-24.88 2756.38,-5.63 2799.38,-5.63 2799.38,-24.88"/>
<text text-anchor="middle" x="2777.88" y="-11.38" font-family="Times,serif" font-size="10.00">variant</text>
</a>
</g>
</g>
<!-- Node9&#45;&gt;Node42 -->
<g id="edge41_Node000009_Node000042" class="edge">
<title>Node9&#45;&gt;Node42</title>
<g id="a_edge41_Node000009_Node000042"><a xlink:title=" ">
<path fill="none" stroke="#63b8ff" d="M1729,-71.69C1736.02,-69.62 1743.67,-67.68 1750.88,-66.5 1969.44,-30.7 2531.41,-81.75 2746.88,-30.5 2748.09,-30.21 2749.31,-29.88 2750.53,-29.5"/>
<polygon fill="#63b8ff" stroke="#63b8ff" points="2751.78,-32.77 2759.84,-25.89 2749.25,-26.24 2751.78,-32.77"/>
</a>
</g>
</g>
<!-- Node43 -->
<g id="Node000043" class="node">
<title>Node43</title>
<g id="a_Node000043"><a xlink:title=" ">
<polygon fill="#e0e0e0" stroke="#999999" points="2858.25,-24.88 2817.5,-24.88 2817.5,-5.63 2858.25,-5.63 2858.25,-24.88"/>
<text text-anchor="middle" x="2837.88" y="-11.38" font-family="Times,serif" font-size="10.00">vector</text>
</a>
</g>
</g>
<!-- Node9&#45;&gt;Node43 -->
<g id="edge42_Node000009_Node000043" class="edge">
<title>Node9&#45;&gt;Node43</title>
<g id="a_edge42_Node000009_Node000043"><a xlink:title=" ">
<path fill="none" stroke="#63b8ff" d="M1729,-71.68C1736.02,-69.61 1743.67,-67.67 1750.88,-66.5 1983.07,-28.72 2580.67,-87.65 2808.88,-30.5 2809.87,-30.25 2810.88,-29.96 2811.89,-29.64"/>
<polygon fill="#63b8ff" stroke="#63b8ff" points="2813.05,-32.95 2820.98,-25.93 2810.4,-26.47 2813.05,-32.95"/>
</a>
</g>
</g>
<!-- Node44&#45;&gt;Node1 -->
<g id="edge44_Node000044_Node000001" class="edge">
<title>Node44&#45;&gt;Node1</title>
<g id="a_edge44_Node000044_Node000001"><a xlink:title=" ">
<path fill="none" stroke="#63b8ff" d="M1805.33,-97.2C1800.42,-104.87 1793.3,-114.57 1785.99,-123.72"/>
<polygon fill="#63b8ff" stroke="#63b8ff" points="1783.3,-121.48 1779.64,-131.42 1788.7,-125.93 1783.3,-121.48"/>
</a>
</g>
</g>
</g>
</svg>

<g id="navigator" transform="translate(0 0)" fill="#404254">
  <rect fill="#f2f5e9" fill-opacity="0.5" stroke="#606060" stroke-width=".5" x="0" y="0" width="60" height="60"/>
  <use id="zoomplus" xlink:href="#zoomPlus" x="17" y="9" onmousedown="handleZoom(evt,'in')"/>
  <use id="zoomminus" xlink:href="#zoomMin" x="42" y="9" onmousedown="handleZoom(evt,'out')"/>
  <use id="reset" xlink:href="#resetDef" x="30" y="36" onmousedown="handleReset()"/>
   <use id="arrowup" xlink:href="#arrowUp" x="0" y="0" onmousedown="handlePan(0,-1)"/>
  <use id="arrowright" xlink:href="#arrowRight" x="0" y="0" onmousedown="handlePan(1,0)"/>
  <use id="arrowdown" xlink:href="#arrowDown" x="0" y="0" onmousedown="handlePan(0,1)"/>
  <use id="arrowleft" xlink:href="#arrowLeft" x="0" y="0" onmousedown="handlePan(-1,0)"/>
</g>
<svg viewBox="0 0 15 15" width="100%" height="30px" preserveAspectRatio="xMaxYMin meet">
 <g id="arrow_out" transform="scale(0.3 0.3)">
  <a xlink:href="debug_8hpp__incl_org.svg" target="_base">
   <rect id="button" ry="5" rx="5" y="6" x="6" height="38" width="38"
        fill="#f2f5e9" fill-opacity="0.5" stroke="#606060" stroke-width="1.0"/>
   <path id="arrow"
     d="M 11.500037,31.436501 C 11.940474,20.09759 22.043105,11.32322 32.158766,21.979434 L 37.068811,17.246167 C 37.068811,17.246167 37.088388,32 37.088388,32 L 22.160133,31.978069 C 22.160133,31.978069 26.997745,27.140456 26.997745,27.140456 C 18.528582,18.264221 13.291696,25.230495 11.500037,31.436501 z"
     style="fill:#404040;"/>
  </a>
 </g>
</svg>

<style type='text/css'>
<![CDATA[
[data-mouse-over-selected='false'] { opacity: 0.7; }
[data-mouse-over-selected='true']  { opacity: 1.0; }
]]>
</style>
<script type="application/ecmascript"><![CDATA[
document.addEventListener('DOMContentLoaded', (event) => {
  highlightEdges();
  highlightAdjacentNodes();
});
]]></script>
</svg>
