<?xml version="1.0" encoding="UTF-8" standalone="no"?>
<!DOCTYPE svg PUBLIC "-//W3C//DTD SVG 1.1//EN"
 "http://www.w3.org/Graphics/SVG/1.1/DTD/svg11.dtd">
<!-- Generated by graphviz version 8.1.0 (20230707.0739)
 -->
<!-- Title: mal&#45;packet&#45;weaver/mal&#45;packet&#45;weaver/packet_impl/packet&#45;factory.hpp Pages: 1 -->
<svg width="892pt" height="283pt"
 viewBox="0.00 0.00 892.12 283.00" xmlns="http://www.w3.org/2000/svg" xmlns:xlink="http://www.w3.org/1999/xlink">
<g id="graph0" class="graph" transform="scale(1 1) rotate(0) translate(4 279)">
<title>mal&#45;packet&#45;weaver/mal&#45;packet&#45;weaver/packet_impl/packet&#45;factory.hpp</title>
<!-- Node1 -->
<g id="Node000001" class="node">
<title>Node1</title>
<g id="a_Node000001"><a xlink:title=" ">
<polygon fill="#999999" stroke="#666666" points="623.38,-275 506.12,-275 506.12,-233.25 623.38,-233.25 623.38,-275"/>
<text text-anchor="start" x="514.12" y="-261.5" font-family="Times,serif" font-size="10.00">mal&#45;packet&#45;weaver/mal</text>
<text text-anchor="start" x="514.12" y="-250.25" font-family="Times,serif" font-size="10.00">&#45;packet&#45;weaver/packet</text>
<text text-anchor="middle" x="564.75" y="-239" font-family="Times,serif" font-size="10.00">_impl/packet&#45;factory.hpp</text>
</a>
</g>
</g>
<!-- Node2 -->
<g id="Node000002" class="node">
<title>Node2</title>
<g id="a_Node000002"><a xlink:href="../../d2/d3f/packet_8hpp.html" target="_top" xlink:title=" ">
<polygon fill="white" stroke="#666666" points="557.38,-191.62 434.12,-191.62 434.12,-161.12 557.38,-161.12 557.38,-191.62"/>
<text text-anchor="start" x="442.12" y="-178.12" font-family="Times,serif" font-size="10.00">mal&#45;packet&#45;weaver/mal</text>
<text text-anchor="middle" x="495.75" y="-166.88" font-family="Times,serif" font-size="10.00">&#45;packet&#45;weaver/packet.hpp</text>
</a>
</g>
</g>
<!-- Node1&#45;&gt;Node2 -->
<g id="edge1_Node000001_Node000002" class="edge">
<title>Node1&#45;&gt;Node2</title>
<g id="a_edge1_Node000001_Node000002"><a xlink:title=" ">
<path fill="none" stroke="#63b8ff" d="M539.02,-224.88C528.74,-213.59 517.34,-201.08 508.82,-191.73"/>
<polygon fill="#63b8ff" stroke="#63b8ff" points="535.94,-226.79 545.26,-231.83 541.11,-222.08 535.94,-226.79"/>
</a>
</g>
</g>
<!-- Node14 -->
<g id="Node000014" class="node">
<title>Node14</title>
<g id="a_Node000014"><a xlink:href="../../d2/db3/packet-factory_8cpp.html" target="_top" xlink:title=" ">
<polygon fill="white" stroke="#666666" points="692,-197.25 575.5,-197.25 575.5,-155.5 692,-155.5 692,-197.25"/>
<text text-anchor="start" x="583.5" y="-183.75" font-family="Times,serif" font-size="10.00">mal&#45;packet&#45;weaver/mal</text>
<text text-anchor="start" x="583.5" y="-172.5" font-family="Times,serif" font-size="10.00">&#45;packet&#45;weaver/packet</text>
<text text-anchor="middle" x="633.75" y="-161.25" font-family="Times,serif" font-size="10.00">_impl/packet&#45;factory.cpp</text>
</a>
</g>
</g>
<!-- Node1&#45;&gt;Node14 -->
<g id="edge16_Node000001_Node000014" class="edge">
<title>Node1&#45;&gt;Node14</title>
<g id="a_edge16_Node000001_Node000014"><a xlink:title=" ">
<path fill="none" stroke="#63b8ff" d="M590.52,-224.84C598.72,-215.84 607.62,-206.06 615.21,-197.73"/>
<polygon fill="#63b8ff" stroke="#63b8ff" points="588.39,-222.08 584.24,-231.83 593.56,-226.79 588.39,-222.08"/>
</a>
</g>
</g>
<!-- Node3 -->
<g id="Node000003" class="node">
<title>Node3</title>
<g id="a_Node000003"><a xlink:href="../../df/d1d/packet-dispatcher_8hpp.html" target="_top" xlink:title=" ">
<polygon fill="white" stroke="#666666" points="233.5,-119.5 126,-119.5 126,-77.75 233.5,-77.75 233.5,-119.5"/>
<text text-anchor="start" x="134" y="-106" font-family="Times,serif" font-size="10.00">mal&#45;packet&#45;weaver/mal</text>
<text text-anchor="start" x="134" y="-94.75" font-family="Times,serif" font-size="10.00">&#45;packet&#45;weaver/packet</text>
<text text-anchor="middle" x="179.75" y="-83.5" font-family="Times,serif" font-size="10.00">&#45;dispatcher.hpp</text>
</a>
</g>
</g>
<!-- Node2&#45;&gt;Node3 -->
<g id="edge2_Node000002_Node000003" class="edge">
<title>Node2&#45;&gt;Node3</title>
<g id="a_edge2_Node000002_Node000003"><a xlink:title=" ">
<path fill="none" stroke="#63b8ff" d="M423.17,-161.29C372.13,-150.93 302.39,-135.85 241.75,-119.5 239.13,-118.79 236.46,-118.05 233.76,-117.27"/>
<polygon fill="#63b8ff" stroke="#63b8ff" points="422.27,-164.88 432.77,-163.43 423.66,-158.02 422.27,-164.88"/>
</a>
</g>
</g>
<!-- Node7 -->
<g id="Node000007" class="node">
<title>Node7</title>
<g id="a_Node000007"><a xlink:href="../../d8/dac/packet-crypto_8hpp.html" target="_top" xlink:title=" ">
<polygon fill="white" stroke="#666666" points="360.25,-119.5 251.25,-119.5 251.25,-77.75 360.25,-77.75 360.25,-119.5"/>
<text text-anchor="start" x="259.25" y="-106" font-family="Times,serif" font-size="10.00">mal&#45;packet&#45;weaver/mal</text>
<text text-anchor="start" x="259.25" y="-94.75" font-family="Times,serif" font-size="10.00">&#45;packet&#45;weaver/packets</text>
<text text-anchor="middle" x="305.75" y="-83.5" font-family="Times,serif" font-size="10.00">/packet&#45;crypto.hpp</text>
</a>
</g>
</g>
<!-- Node2&#45;&gt;Node7 -->
<g id="edge7_Node000002_Node000007" class="edge">
<title>Node2&#45;&gt;Node7</title>
<g id="a_edge7_Node000002_Node000007"><a xlink:title=" ">
<path fill="none" stroke="#63b8ff" d="M449.16,-156.8C421.12,-145.62 385.41,-131.38 356.64,-119.91"/>
<polygon fill="#63b8ff" stroke="#63b8ff" points="447.53,-160.32 458.12,-160.77 450.12,-153.82 447.53,-160.32"/>
</a>
</g>
</g>
<!-- Node8 -->
<g id="Node000008" class="node">
<title>Node8</title>
<g id="a_Node000008"><a xlink:href="../../d4/d6f/packet-network_8hpp.html" target="_top" xlink:title=" ">
<polygon fill="white" stroke="#666666" points="487.25,-119.5 378.25,-119.5 378.25,-77.75 487.25,-77.75 487.25,-119.5"/>
<text text-anchor="start" x="386.25" y="-106" font-family="Times,serif" font-size="10.00">mal&#45;packet&#45;weaver/mal</text>
<text text-anchor="start" x="386.25" y="-94.75" font-family="Times,serif" font-size="10.00">&#45;packet&#45;weaver/packets</text>
<text text-anchor="middle" x="432.75" y="-83.5" font-family="Times,serif" font-size="10.00">/packet&#45;network.hpp</text>
</a>
</g>
</g>
<!-- Node2&#45;&gt;Node8 -->
<g id="edge8_Node000002_Node000008" class="edge">
<title>Node2&#45;&gt;Node8</title>
<g id="a_edge8_Node000002_Node000008"><a xlink:title=" ">
<path fill="none" stroke="#63b8ff" d="M476.77,-152.55C468.13,-142.17 457.99,-129.98 449.62,-119.91"/>
<polygon fill="#63b8ff" stroke="#63b8ff" points="474.52,-154.32 483.6,-159.77 479.9,-149.84 474.52,-154.32"/>
</a>
</g>
</g>
<!-- Node9 -->
<g id="Node000009" class="node">
<title>Node9</title>
<g id="a_Node000009"><a xlink:href="../../d3/d61/packet-node_8hpp.html" target="_top" xlink:title=" ">
<polygon fill="white" stroke="#666666" points="614.25,-119.5 505.25,-119.5 505.25,-77.75 614.25,-77.75 614.25,-119.5"/>
<text text-anchor="start" x="513.25" y="-106" font-family="Times,serif" font-size="10.00">mal&#45;packet&#45;weaver/mal</text>
<text text-anchor="start" x="513.25" y="-94.75" font-family="Times,serif" font-size="10.00">&#45;packet&#45;weaver/packets</text>
<text text-anchor="middle" x="559.75" y="-83.5" font-family="Times,serif" font-size="10.00">/packet&#45;node.hpp</text>
</a>
</g>
</g>
<!-- Node2&#45;&gt;Node9 -->
<g id="edge9_Node000002_Node000009" class="edge">
<title>Node2&#45;&gt;Node9</title>
<g id="a_edge9_Node000002_Node000009"><a xlink:title=" ">
<path fill="none" stroke="#63b8ff" d="M515.03,-152.55C523.81,-142.17 534.11,-129.98 542.61,-119.91"/>
<polygon fill="#63b8ff" stroke="#63b8ff" points="511.87,-149.87 508.09,-159.77 517.22,-154.39 511.87,-149.87"/>
</a>
</g>
</g>
<!-- Node10 -->
<g id="Node000010" class="node">
<title>Node10</title>
<g id="a_Node000010"><a xlink:href="../../dd/d5c/packet-system_8hpp.html" target="_top" xlink:title=" ">
<polygon fill="white" stroke="#666666" points="741.25,-119.5 632.25,-119.5 632.25,-77.75 741.25,-77.75 741.25,-119.5"/>
<text text-anchor="start" x="640.25" y="-106" font-family="Times,serif" font-size="10.00">mal&#45;packet&#45;weaver/mal</text>
<text text-anchor="start" x="640.25" y="-94.75" font-family="Times,serif" font-size="10.00">&#45;packet&#45;weaver/packets</text>
<text text-anchor="middle" x="686.75" y="-83.5" font-family="Times,serif" font-size="10.00">/packet&#45;system.hpp</text>
</a>
</g>
</g>
<!-- Node2&#45;&gt;Node10 -->
<g id="edge10_Node000002_Node000010" class="edge">
<title>Node2&#45;&gt;Node10</title>
<g id="a_edge10_Node000002_Node000010"><a xlink:title=" ">
<path fill="none" stroke="#63b8ff" d="M542.58,-156.8C570.77,-145.62 606.67,-131.38 635.6,-119.91"/>
<polygon fill="#63b8ff" stroke="#63b8ff" points="541.58,-153.83 533.58,-160.77 544.16,-160.34 541.58,-153.83"/>
</a>
</g>
</g>
<!-- Node11 -->
<g id="Node000011" class="node">
<title>Node11</title>
<g id="a_Node000011"><a xlink:href="../../d4/d5e/session_8hpp.html" target="_top" xlink:title=" ">
<polygon fill="white" stroke="#666666" points="884.12,-113.88 759.38,-113.88 759.38,-83.38 884.12,-83.38 884.12,-113.88"/>
<text text-anchor="start" x="767.38" y="-100.38" font-family="Times,serif" font-size="10.00">mal&#45;packet&#45;weaver/mal</text>
<text text-anchor="middle" x="821.75" y="-89.12" font-family="Times,serif" font-size="10.00">&#45;packet&#45;weaver/session.hpp</text>
</a>
</g>
</g>
<!-- Node2&#45;&gt;Node11 -->
<g id="edge11_Node000002_Node000011" class="edge">
<title>Node2&#45;&gt;Node11</title>
<g id="a_edge11_Node000002_Node000011"><a xlink:title=" ">
<path fill="none" stroke="#63b8ff" d="M556.99,-157.9C560.28,-157.07 563.55,-156.26 566.75,-155.5 647.83,-136.25 669.67,-138.75 750.75,-119.5 757.35,-117.93 764.26,-116.16 771.07,-114.34"/>
<polygon fill="#63b8ff" stroke="#63b8ff" points="556.22,-154.75 547.43,-160.66 557.99,-161.52 556.22,-154.75"/>
</a>
</g>
</g>
<!-- Node4 -->
<g id="Node000004" class="node">
<title>Node4</title>
<g id="a_Node000004"><a xlink:href="../../de/d5c/dispatcher-session_8hpp.html" target="_top" xlink:title=" ">
<polygon fill="white" stroke="#666666" points="487.62,-41.75 365.88,-41.75 365.88,0 487.62,0 487.62,-41.75"/>
<text text-anchor="start" x="373.88" y="-28.25" font-family="Times,serif" font-size="10.00">mal&#45;packet&#45;weaver/mal</text>
<text text-anchor="start" x="373.88" y="-17" font-family="Times,serif" font-size="10.00">&#45;packet&#45;weaver/dispatcher</text>
<text text-anchor="middle" x="426.75" y="-5.75" font-family="Times,serif" font-size="10.00">&#45;session.hpp</text>
</a>
</g>
</g>
<!-- Node3&#45;&gt;Node4 -->
<g id="edge3_Node000003_Node000004" class="edge">
<title>Node3&#45;&gt;Node4</title>
<g id="a_edge3_Node000003_Node000004"><a xlink:title=" ">
<path fill="none" stroke="#63b8ff" d="M244.15,-77.02C289.4,-62.98 331.9,-50.15 365.42,-40.11"/>
<polygon fill="#63b8ff" stroke="#63b8ff" points="243.35,-73.92 234.84,-80.23 245.42,-80.6 243.35,-73.92"/>
</a>
</g>
</g>
<!-- Node5 -->
<g id="Node000005" class="node">
<title>Node5</title>
<g id="a_Node000005"><a xlink:href="../../d8/d1a/packet-dispatcher_8cpp.html" target="_top" xlink:title=" ">
<polygon fill="white" stroke="#666666" points="107.5,-41.75 0,-41.75 0,0 107.5,0 107.5,-41.75"/>
<text text-anchor="start" x="8" y="-28.25" font-family="Times,serif" font-size="10.00">mal&#45;packet&#45;weaver/mal</text>
<text text-anchor="start" x="8" y="-17" font-family="Times,serif" font-size="10.00">&#45;packet&#45;weaver/packet</text>
<text text-anchor="middle" x="53.75" y="-5.75" font-family="Times,serif" font-size="10.00">&#45;dispatcher.cpp</text>
</a>
</g>
</g>
<!-- Node3&#45;&gt;Node5 -->
<g id="edge4_Node000003_Node000005" class="edge">
<title>Node3&#45;&gt;Node5</title>
<g id="a_edge4_Node000003_Node000005"><a xlink:title=" ">
<path fill="none" stroke="#63b8ff" d="M136.79,-71.8C120.73,-62.14 102.73,-51.32 87.61,-42.23"/>
<polygon fill="#63b8ff" stroke="#63b8ff" points="134.61,-75.17 144.98,-77.33 138.22,-69.17 134.61,-75.17"/>
</a>
</g>
</g>
<!-- Node6 -->
<g id="Node000006" class="node">
<title>Node6</title>
<g id="a_Node000006"><a xlink:href="../../d2/d7d/packet-dispatcher_8inl.html" target="_top" xlink:title=" ">
<polygon fill="white" stroke="#666666" points="233.5,-41.75 126,-41.75 126,0 233.5,0 233.5,-41.75"/>
<text text-anchor="start" x="134" y="-28.25" font-family="Times,serif" font-size="10.00">mal&#45;packet&#45;weaver/mal</text>
<text text-anchor="start" x="134" y="-17" font-family="Times,serif" font-size="10.00">&#45;packet&#45;weaver/packet</text>
<text text-anchor="middle" x="179.75" y="-5.75" font-family="Times,serif" font-size="10.00">&#45;dispatcher.inl</text>
</a>
</g>
</g>
<!-- Node3&#45;&gt;Node6 -->
<g id="edge5_Node000003_Node000006" class="edge">
<title>Node3&#45;&gt;Node6</title>
<g id="a_edge5_Node000003_Node000006"><a xlink:title=" ">
<path fill="none" stroke="#63b8ff" d="M173.1,-66.56C172.86,-58.36 173.06,-49.71 173.69,-42.23"/>
<polygon fill="#63b8ff" stroke="#63b8ff" points="169.65,-66.53 173.69,-76.33 176.64,-66.15 169.65,-66.53"/>
</a>
</g>
</g>
<!-- Node6&#45;&gt;Node3 -->
<g id="edge6_Node000006_Node000003" class="edge">
<title>Node6&#45;&gt;Node3</title>
<g id="a_edge6_Node000006_Node000003"><a xlink:title=" ">
<path fill="none" stroke="#63b8ff" d="M186.4,-53C186.64,-61.21 186.44,-69.85 185.81,-77.33"/>
<polygon fill="#63b8ff" stroke="#63b8ff" points="189.86,-53.02 185.81,-43.23 182.87,-53.41 189.86,-53.02"/>
</a>
</g>
</g>
<!-- Node11&#45;&gt;Node4 -->
<g id="edge12_Node000011_Node000004" class="edge">
<title>Node11&#45;&gt;Node4</title>
<g id="a_edge12_Node000011_Node000004"><a xlink:title=" ">
<path fill="none" stroke="#63b8ff" d="M761.24,-80.24C757.7,-79.36 754.18,-78.52 750.75,-77.75 659.99,-57.28 553.45,-40.22 488.03,-30.53"/>
<polygon fill="#63b8ff" stroke="#63b8ff" points="760.32,-83.87 770.87,-82.97 762.06,-77.09 760.32,-83.87"/>
</a>
</g>
</g>
<!-- Node12 -->
<g id="Node000012" class="node">
<title>Node12</title>
<g id="a_Node000012"><a xlink:href="../../d9/d1a/session_8cpp.html" target="_top" xlink:title=" ">
<polygon fill="white" stroke="#666666" points="743.75,-36.12 619.75,-36.12 619.75,-5.62 743.75,-5.62 743.75,-36.12"/>
<text text-anchor="start" x="627.75" y="-22.62" font-family="Times,serif" font-size="10.00">mal&#45;packet&#45;weaver/mal</text>
<text text-anchor="middle" x="681.75" y="-11.38" font-family="Times,serif" font-size="10.00">&#45;packet&#45;weaver/session.cpp</text>
</a>
</g>
</g>
<!-- Node11&#45;&gt;Node12 -->
<g id="edge13_Node000011_Node000012" class="edge">
<title>Node11&#45;&gt;Node12</title>
<g id="a_edge13_Node000011_Node000012"><a xlink:title=" ">
<path fill="none" stroke="#63b8ff" d="M785.28,-77.89C761.29,-64.91 730.43,-48.21 708.66,-36.44"/>
<polygon fill="#63b8ff" stroke="#63b8ff" points="783.3,-81.34 793.76,-83.02 786.63,-75.18 783.3,-81.34"/>
</a>
</g>
</g>
<!-- Node13 -->
<g id="Node000013" class="node">
<title>Node13</title>
<g id="a_Node000013"><a xlink:href="../../d1/d16/session_8inl.html" target="_top" xlink:title=" ">
<polygon fill="white" stroke="#666666" points="881.5,-36.12 762,-36.12 762,-5.62 881.5,-5.62 881.5,-36.12"/>
<text text-anchor="start" x="770" y="-22.62" font-family="Times,serif" font-size="10.00">mal&#45;packet&#45;weaver/mal</text>
<text text-anchor="middle" x="821.75" y="-11.38" font-family="Times,serif" font-size="10.00">&#45;packet&#45;weaver/session.inl</text>
</a>
</g>
</g>
<!-- Node11&#45;&gt;Node13 -->
<g id="edge14_Node000011_Node000013" class="edge">
<title>Node11&#45;&gt;Node13</title>
<g id="a_edge14_Node000011_Node000013"><a xlink:title=" ">
<path fill="none" stroke="#63b8ff" d="M815.34,-72.34C814.67,-60.4 814.99,-46.59 816.3,-36.44"/>
<polygon fill="#63b8ff" stroke="#63b8ff" points="811.92,-72.37 816.29,-82.02 818.89,-71.75 811.92,-72.37"/>
</a>
</g>
</g>
<!-- Node13&#45;&gt;Node11 -->
<g id="edge15_Node000013_Node000011" class="edge">
<title>Node13&#45;&gt;Node11</title>
<g id="a_edge15_Node000013_Node000011"><a xlink:title=" ">
<path fill="none" stroke="#63b8ff" d="M828.15,-47.11C828.83,-59.04 828.51,-72.85 827.21,-83.02"/>
<polygon fill="#63b8ff" stroke="#63b8ff" points="831.58,-47.09 827.2,-37.44 824.6,-47.71 831.58,-47.09"/>
</a>
</g>
</g>
</g>
</svg>
