<?xml version="1.0" encoding="UTF-8" standalone="no"?>
<!DOCTYPE svg PUBLIC "-//W3C//DTD SVG 1.1//EN"
 "http://www.w3.org/Graphics/SVG/1.1/DTD/svg11.dtd">
<!-- Generated by graphviz version 8.1.0 (20230707.0739)
 -->
<!-- Title: mal&#45;packet&#45;weaver/mal&#45;packet&#45;weaver/packet_impl/packet&#45;factory.hpp Pages: 1 -->
<svg width="662pt" height="283pt"
 viewBox="0.00 0.00 661.50 283.00" xmlns="http://www.w3.org/2000/svg" xmlns:xlink="http://www.w3.org/1999/xlink">
<g id="graph0" class="graph" transform="scale(1 1) rotate(0) translate(4 279)">
<title>mal&#45;packet&#45;weaver/mal&#45;packet&#45;weaver/packet_impl/packet&#45;factory.hpp</title>
<!-- Node1 -->
<g id="Node000001" class="node">
<title>Node1</title>
<g id="a_Node000001"><a xlink:title=" ">
<polygon fill="#999999" stroke="#666666" points="444.38,-275 327.12,-275 327.12,-233.25 444.38,-233.25 444.38,-275"/>
<text text-anchor="start" x="335.12" y="-261.5" font-family="Times,serif" font-size="10.00">mal&#45;packet&#45;weaver/mal</text>
<text text-anchor="start" x="335.12" y="-250.25" font-family="Times,serif" font-size="10.00">&#45;packet&#45;weaver/packet</text>
<text text-anchor="middle" x="385.75" y="-239" font-family="Times,serif" font-size="10.00">_impl/packet&#45;factory.hpp</text>
</a>
</g>
</g>
<!-- Node2 -->
<g id="Node000002" class="node">
<title>Node2</title>
<g id="a_Node000002"><a xlink:href="../../d2/d3f/packet_8hpp.html" target="_top" xlink:title=" ">
<polygon fill="white" stroke="#666666" points="378.38,-191.62 255.12,-191.62 255.12,-161.12 378.38,-161.12 378.38,-191.62"/>
<text text-anchor="start" x="263.12" y="-178.12" font-family="Times,serif" font-size="10.00">mal&#45;packet&#45;weaver/mal</text>
<text text-anchor="middle" x="316.75" y="-166.88" font-family="Times,serif" font-size="10.00">&#45;packet&#45;weaver/packet.hpp</text>
</a>
</g>
</g>
<!-- Node1&#45;&gt;Node2 -->
<g id="edge1_Node000001_Node000002" class="edge">
<title>Node1&#45;&gt;Node2</title>
<g id="a_edge1_Node000001_Node000002"><a xlink:title=" ">
<path fill="none" stroke="#63b8ff" d="M360.02,-224.88C349.74,-213.59 338.34,-201.08 329.82,-191.73"/>
<polygon fill="#63b8ff" stroke="#63b8ff" points="356.94,-226.79 366.26,-231.83 362.11,-222.08 356.94,-226.79"/>
</a>
</g>
</g>
<!-- Node10 -->
<g id="Node000010" class="node">
<title>Node10</title>
<g id="a_Node000010"><a xlink:href="../../d2/db3/packet-factory_8cpp.html" target="_top" xlink:title=" ">
<polygon fill="white" stroke="#666666" points="513,-197.25 396.5,-197.25 396.5,-155.5 513,-155.5 513,-197.25"/>
<text text-anchor="start" x="404.5" y="-183.75" font-family="Times,serif" font-size="10.00">mal&#45;packet&#45;weaver/mal</text>
<text text-anchor="start" x="404.5" y="-172.5" font-family="Times,serif" font-size="10.00">&#45;packet&#45;weaver/packet</text>
<text text-anchor="middle" x="454.75" y="-161.25" font-family="Times,serif" font-size="10.00">_impl/packet&#45;factory.cpp</text>
</a>
</g>
</g>
<!-- Node1&#45;&gt;Node10 -->
<g id="edge12_Node000001_Node000010" class="edge">
<title>Node1&#45;&gt;Node10</title>
<g id="a_edge12_Node000001_Node000010"><a xlink:title=" ">
<path fill="none" stroke="#63b8ff" d="M411.52,-224.84C419.72,-215.84 428.62,-206.06 436.21,-197.73"/>
<polygon fill="#63b8ff" stroke="#63b8ff" points="409.39,-222.08 405.24,-231.83 414.56,-226.79 409.39,-222.08"/>
</a>
</g>
</g>
<!-- Node3 -->
<g id="Node000003" class="node">
<title>Node3</title>
<g id="a_Node000003"><a xlink:href="../../df/d1d/packet-dispatcher_8hpp.html" target="_top" xlink:title=" ">
<polygon fill="white" stroke="#666666" points="233.5,-119.5 126,-119.5 126,-77.75 233.5,-77.75 233.5,-119.5"/>
<text text-anchor="start" x="134" y="-106" font-family="Times,serif" font-size="10.00">mal&#45;packet&#45;weaver/mal</text>
<text text-anchor="start" x="134" y="-94.75" font-family="Times,serif" font-size="10.00">&#45;packet&#45;weaver/packet</text>
<text text-anchor="middle" x="179.75" y="-83.5" font-family="Times,serif" font-size="10.00">&#45;dispatcher.hpp</text>
</a>
</g>
</g>
<!-- Node2&#45;&gt;Node3 -->
<g id="edge2_Node000002_Node000003" class="edge">
<title>Node2&#45;&gt;Node3</title>
<g id="a_edge2_Node000002_Node000003"><a xlink:title=" ">
<path fill="none" stroke="#63b8ff" d="M280.74,-155.46C260.92,-144.5 236.37,-130.93 216.44,-119.91"/>
<polygon fill="#63b8ff" stroke="#63b8ff" points="278.89,-158.99 289.34,-160.77 282.28,-152.87 278.89,-158.99"/>
</a>
</g>
</g>
<!-- Node7 -->
<g id="Node000007" class="node">
<title>Node7</title>
<g id="a_Node000007"><a xlink:href="../../d4/d5e/session_8hpp.html" target="_top" xlink:title=" ">
<polygon fill="white" stroke="#666666" points="516.12,-113.88 391.38,-113.88 391.38,-83.38 516.12,-83.38 516.12,-113.88"/>
<text text-anchor="start" x="399.38" y="-100.38" font-family="Times,serif" font-size="10.00">mal&#45;packet&#45;weaver/mal</text>
<text text-anchor="middle" x="453.75" y="-89.12" font-family="Times,serif" font-size="10.00">&#45;packet&#45;weaver/session.hpp</text>
</a>
</g>
</g>
<!-- Node2&#45;&gt;Node7 -->
<g id="edge7_Node000002_Node000007" class="edge">
<title>Node2&#45;&gt;Node7</title>
<g id="a_edge7_Node000002_Node000007"><a xlink:title=" ">
<path fill="none" stroke="#63b8ff" d="M352.76,-155.47C376.18,-142.51 406.21,-125.91 427.42,-114.19"/>
<polygon fill="#63b8ff" stroke="#63b8ff" points="351.22,-152.87 344.16,-160.77 354.61,-158.99 351.22,-152.87"/>
</a>
</g>
</g>
<!-- Node4 -->
<g id="Node000004" class="node">
<title>Node4</title>
<g id="a_Node000004"><a xlink:href="../../de/d5c/dispatcher-session_8hpp.html" target="_top" xlink:title=" ">
<polygon fill="white" stroke="#666666" points="373.62,-41.75 251.88,-41.75 251.88,0 373.62,0 373.62,-41.75"/>
<text text-anchor="start" x="259.88" y="-28.25" font-family="Times,serif" font-size="10.00">mal&#45;packet&#45;weaver/mal</text>
<text text-anchor="start" x="259.88" y="-17" font-family="Times,serif" font-size="10.00">&#45;packet&#45;weaver/dispatcher</text>
<text text-anchor="middle" x="312.75" y="-5.75" font-family="Times,serif" font-size="10.00">&#45;session.hpp</text>
</a>
</g>
</g>
<!-- Node3&#45;&gt;Node4 -->
<g id="edge3_Node000003_Node000004" class="edge">
<title>Node3&#45;&gt;Node4</title>
<g id="a_edge3_Node000003_Node000004"><a xlink:title=" ">
<path fill="none" stroke="#63b8ff" d="M224.62,-72.07C241.69,-62.35 260.9,-51.41 277.01,-42.23"/>
<polygon fill="#63b8ff" stroke="#63b8ff" points="223.35,-69.33 216.39,-77.33 226.81,-75.42 223.35,-69.33"/>
</a>
</g>
</g>
<!-- Node5 -->
<g id="Node000005" class="node">
<title>Node5</title>
<g id="a_Node000005"><a xlink:href="../../d8/d1a/packet-dispatcher_8cpp.html" target="_top" xlink:title=" ">
<polygon fill="white" stroke="#666666" points="107.5,-41.75 0,-41.75 0,0 107.5,0 107.5,-41.75"/>
<text text-anchor="start" x="8" y="-28.25" font-family="Times,serif" font-size="10.00">mal&#45;packet&#45;weaver/mal</text>
<text text-anchor="start" x="8" y="-17" font-family="Times,serif" font-size="10.00">&#45;packet&#45;weaver/packet</text>
<text text-anchor="middle" x="53.75" y="-5.75" font-family="Times,serif" font-size="10.00">&#45;dispatcher.cpp</text>
</a>
</g>
</g>
<!-- Node3&#45;&gt;Node5 -->
<g id="edge4_Node000003_Node000005" class="edge">
<title>Node3&#45;&gt;Node5</title>
<g id="a_edge4_Node000003_Node000005"><a xlink:title=" ">
<path fill="none" stroke="#63b8ff" d="M136.79,-71.8C120.73,-62.14 102.73,-51.32 87.61,-42.23"/>
<polygon fill="#63b8ff" stroke="#63b8ff" points="134.61,-75.17 144.98,-77.33 138.22,-69.17 134.61,-75.17"/>
</a>
</g>
</g>
<!-- Node6 -->
<g id="Node000006" class="node">
<title>Node6</title>
<g id="a_Node000006"><a xlink:href="../../d2/d7d/packet-dispatcher_8inl.html" target="_top" xlink:title=" ">
<polygon fill="white" stroke="#666666" points="233.5,-41.75 126,-41.75 126,0 233.5,0 233.5,-41.75"/>
<text text-anchor="start" x="134" y="-28.25" font-family="Times,serif" font-size="10.00">mal&#45;packet&#45;weaver/mal</text>
<text text-anchor="start" x="134" y="-17" font-family="Times,serif" font-size="10.00">&#45;packet&#45;weaver/packet</text>
<text text-anchor="middle" x="179.75" y="-5.75" font-family="Times,serif" font-size="10.00">&#45;dispatcher.inl</text>
</a>
</g>
</g>
<!-- Node3&#45;&gt;Node6 -->
<g id="edge5_Node000003_Node000006" class="edge">
<title>Node3&#45;&gt;Node6</title>
<g id="a_edge5_Node000003_Node000006"><a xlink:title=" ">
<path fill="none" stroke="#63b8ff" d="M173.1,-66.56C172.86,-58.36 173.06,-49.71 173.69,-42.23"/>
<polygon fill="#63b8ff" stroke="#63b8ff" points="169.65,-66.53 173.69,-76.33 176.64,-66.15 169.65,-66.53"/>
</a>
</g>
</g>
<!-- Node6&#45;&gt;Node3 -->
<g id="edge6_Node000006_Node000003" class="edge">
<title>Node6&#45;&gt;Node3</title>
<g id="a_edge6_Node000006_Node000003"><a xlink:title=" ">
<path fill="none" stroke="#63b8ff" d="M186.4,-53C186.64,-61.21 186.44,-69.85 185.81,-77.33"/>
<polygon fill="#63b8ff" stroke="#63b8ff" points="189.86,-53.02 185.81,-43.23 182.87,-53.41 189.86,-53.02"/>
</a>
</g>
</g>
<!-- Node7&#45;&gt;Node4 -->
<g id="edge8_Node000007_Node000004" class="edge">
<title>Node7&#45;&gt;Node4</title>
<g id="a_edge8_Node000007_Node000004"><a xlink:title=" ">
<path fill="none" stroke="#63b8ff" d="M416.97,-77.86C396.52,-66.88 371.12,-53.23 350.51,-42.16"/>
<polygon fill="#63b8ff" stroke="#63b8ff" points="415.1,-81.37 425.56,-83.02 418.41,-75.2 415.1,-81.37"/>
</a>
</g>
</g>
<!-- Node8 -->
<g id="Node000008" class="node">
<title>Node8</title>
<g id="a_Node000008"><a xlink:href="../../d9/d1a/session_8cpp.html" target="_top" xlink:title=" ">
<polygon fill="white" stroke="#666666" points="515.75,-36.12 391.75,-36.12 391.75,-5.62 515.75,-5.62 515.75,-36.12"/>
<text text-anchor="start" x="399.75" y="-22.62" font-family="Times,serif" font-size="10.00">mal&#45;packet&#45;weaver/mal</text>
<text text-anchor="middle" x="453.75" y="-11.38" font-family="Times,serif" font-size="10.00">&#45;packet&#45;weaver/session.cpp</text>
</a>
</g>
</g>
<!-- Node7&#45;&gt;Node8 -->
<g id="edge9_Node000007_Node000008" class="edge">
<title>Node7&#45;&gt;Node8</title>
<g id="a_edge9_Node000007_Node000008"><a xlink:title=" ">
<path fill="none" stroke="#63b8ff" d="M453.75,-72.34C453.75,-60.4 453.75,-46.59 453.75,-36.44"/>
<polygon fill="#63b8ff" stroke="#63b8ff" points="450.25,-72.02 453.75,-82.02 457.25,-72.02 450.25,-72.02"/>
</a>
</g>
</g>
<!-- Node9 -->
<g id="Node000009" class="node">
<title>Node9</title>
<g id="a_Node000009"><a xlink:href="../../d1/d16/session_8inl.html" target="_top" xlink:title=" ">
<polygon fill="white" stroke="#666666" points="653.5,-36.12 534,-36.12 534,-5.62 653.5,-5.62 653.5,-36.12"/>
<text text-anchor="start" x="542" y="-22.62" font-family="Times,serif" font-size="10.00">mal&#45;packet&#45;weaver/mal</text>
<text text-anchor="middle" x="593.75" y="-11.38" font-family="Times,serif" font-size="10.00">&#45;packet&#45;weaver/session.inl</text>
</a>
</g>
</g>
<!-- Node7&#45;&gt;Node9 -->
<g id="edge10_Node000007_Node000009" class="edge">
<title>Node7&#45;&gt;Node9</title>
<g id="a_edge10_Node000007_Node000009"><a xlink:title=" ">
<path fill="none" stroke="#63b8ff" d="M484.79,-77.56C507.49,-64.68 538.07,-48.23 561.13,-36.56"/>
<polygon fill="#63b8ff" stroke="#63b8ff" points="483.22,-75.01 476.29,-83.02 486.7,-81.08 483.22,-75.01"/>
</a>
</g>
</g>
<!-- Node9&#45;&gt;Node7 -->
<g id="edge11_Node000009_Node000007" class="edge">
<title>Node9&#45;&gt;Node7</title>
<g id="a_edge11_Node000009_Node000007"><a xlink:title=" ">
<path fill="none" stroke="#63b8ff" d="M562.76,-41.91C540,-54.83 509.3,-71.34 486.2,-83.02"/>
<polygon fill="#63b8ff" stroke="#63b8ff" points="564.36,-44.45 571.29,-36.44 560.88,-38.38 564.36,-44.45"/>
</a>
</g>
</g>
</g>
</svg>
