<?xml version="1.0" encoding="UTF-8" standalone="no"?>
<!DOCTYPE svg PUBLIC "-//W3C//DTD SVG 1.1//EN"
 "http://www.w3.org/Graphics/SVG/1.1/DTD/svg11.dtd">
<!-- Generated by graphviz version 7.0.5 (20221223.1930)
 -->
<!-- Title: weaver::SystemInfoRequestPacket Pages: 1 -->
<svg width="183pt" height="214pt"
 viewBox="0.00 0.00 183.00 214.00" xmlns="http://www.w3.org/2000/svg" xmlns:xlink="http://www.w3.org/1999/xlink">
<g id="graph0" class="graph" transform="scale(1 1) rotate(0) translate(4 210)">
<title>weaver::SystemInfoRequestPacket</title>
<!-- Node1 -->
<g id="node1" class="node">
<title>Node1</title>
<g id="a_node1"><a xlink:title="Packet for requesting system information from a node.">
<polygon fill="#999999" stroke="#666666" points="156.5,-30 18.5,-30 18.5,0 156.5,0 156.5,-30"/>
<text text-anchor="start" x="26.5" y="-18" font-family="Helvetica,sans-Serif" font-size="10.00">weaver::SystemInfoRequest</text>
<text text-anchor="middle" x="87.5" y="-7" font-family="Helvetica,sans-Serif" font-size="10.00">Packet</text>
</a>
</g>
</g>
<!-- Node2 -->
<g id="node2" class="node">
<title>Node2</title>
<g id="a_node2"><a xlink:href="../../d4/d4c/classweaver_1_1_derived_packet.html" target="_top" xlink:title=" ">
<polygon fill="white" stroke="#666666" points="175,-96 0,-96 0,-66 175,-66 175,-96"/>
<text text-anchor="start" x="8" y="-84" font-family="Helvetica,sans-Serif" font-size="10.00">weaver::DerivedPacket</text>
<text text-anchor="middle" x="87.5" y="-73" font-family="Helvetica,sans-Serif" font-size="10.00">&lt; class SystemInfoRequestPacket &gt;</text>
</a>
</g>
</g>
<!-- Node2&#45;&gt;Node1 -->
<g id="edge1" class="edge">
<title>Node2&#45;&gt;Node1</title>
<path fill="none" stroke="#63b8ff" d="M87.5,-54.39C87.5,-46.13 87.5,-37.28 87.5,-30.16"/>
<polygon fill="#63b8ff" stroke="#63b8ff" points="84,-54.28 87.5,-64.28 91,-54.28 84,-54.28"/>
</g>
<!-- Node3 -->
<g id="node3" class="node">
<title>Node3</title>
<g id="a_node3"><a xlink:href="../../d8/d0f/classweaver_1_1_packet.html" target="_top" xlink:title="Base class for all packets.">
<polygon fill="white" stroke="#666666" points="129,-151 46,-151 46,-132 129,-132 129,-151"/>
<text text-anchor="middle" x="87.5" y="-139" font-family="Helvetica,sans-Serif" font-size="10.00">weaver::Packet</text>
</a>
</g>
</g>
<!-- Node3&#45;&gt;Node2 -->
<g id="edge2" class="edge">
<title>Node3&#45;&gt;Node2</title>
<path fill="none" stroke="#63b8ff" d="M87.5,-120.51C87.5,-112.49 87.5,-103.43 87.5,-96.11"/>
<polygon fill="#63b8ff" stroke="#63b8ff" points="84,-120.35 87.5,-130.35 91,-120.35 84,-120.35"/>
</g>
<!-- Node4 -->
<g id="node4" class="node">
<title>Node4</title>
<g id="a_node4"><a xlink:title=" ">
<polygon fill="white" stroke="#666666" points="136.5,-206 38.5,-206 38.5,-187 136.5,-187 136.5,-206"/>
<text text-anchor="middle" x="87.5" y="-194" font-family="Helvetica,sans-Serif" font-size="10.00">utils::non_copyable</text>
</a>
</g>
</g>
<!-- Node4&#45;&gt;Node3 -->
<g id="edge3" class="edge">
<title>Node4&#45;&gt;Node3</title>
<path fill="none" stroke="#63b8ff" d="M87.5,-175.35C87.5,-167.1 87.5,-157.97 87.5,-151.44"/>
<polygon fill="#63b8ff" stroke="#63b8ff" points="84,-175.23 87.5,-185.23 91,-175.23 84,-175.23"/>
</g>
</g>
</svg>
