<?xml version="1.0" encoding="UTF-8" standalone="no"?>
<!DOCTYPE svg PUBLIC "-//W3C//DTD SVG 1.1//EN"
 "http://www.w3.org/Graphics/SVG/1.1/DTD/svg11.dtd">
<!-- Generated by graphviz version 7.0.5 (20221223.1930)
 -->
<!-- Title: node_system::crypto::Key Pages: 1 -->
<svg width="134pt" height="205pt"
 viewBox="0.00 0.00 134.00 205.00" xmlns="http://www.w3.org/2000/svg" xmlns:xlink="http://www.w3.org/1999/xlink">
<g id="graph0" class="graph" transform="scale(1 1) rotate(0) translate(4 201)">
<title>node_system::crypto::Key</title>
<!-- Node1 -->
<g id="node1" class="node">
<title>Node1</title>
<g id="a_node1"><a xlink:title="Represents a cryptographic key as a byte array.">
<polygon fill="#999999" stroke="#666666" points="126,-19 0,-19 0,0 126,0 126,-19"/>
<text text-anchor="middle" x="63" y="-7" font-family="Helvetica,sans-Serif" font-size="10.00">node_system::crypto::Key</text>
</a>
</g>
</g>
<!-- Node2 -->
<g id="node2" class="node">
<title>Node2</title>
<g id="a_node2"><a xlink:href="../../d0/d71/structnode__system_1_1_byte_array.html" target="_top" xlink:title="A dynamically resizable array of bytes.">
<polygon fill="white" stroke="#666666" points="123.5,-75 2.5,-75 2.5,-56 123.5,-56 123.5,-75"/>
<text text-anchor="middle" x="63" y="-63" font-family="Helvetica,sans-Serif" font-size="10.00">node_system::ByteArray</text>
</a>
</g>
</g>
<!-- Node2&#45;&gt;Node1 -->
<g id="edge1" class="edge">
<title>Node2&#45;&gt;Node1</title>
<path fill="none" stroke="#63b8ff" d="M63,-44.11C63,-35.52 63,-25.97 63,-19.25"/>
<polygon fill="#63b8ff" stroke="#63b8ff" points="59.5,-44.07 63,-54.07 66.5,-44.07 59.5,-44.07"/>
</g>
<!-- Node3 -->
<g id="node3" class="node">
<title>Node3</title>
<g id="a_node3"><a xlink:title=" ">
<polygon fill="white" stroke="#666666" points="105,-131 21,-131 21,-112 105,-112 105,-131"/>
<text text-anchor="middle" x="63" y="-119" font-family="Helvetica,sans-Serif" font-size="10.00">std::vector&lt; T &gt;</text>
</a>
</g>
</g>
<!-- Node3&#45;&gt;Node2 -->
<g id="edge2" class="edge">
<title>Node3&#45;&gt;Node2</title>
<path fill="none" stroke="#63b8ff" d="M63,-100.11C63,-91.52 63,-81.97 63,-75.25"/>
<polygon fill="#63b8ff" stroke="#63b8ff" points="59.5,-100.07 63,-110.07 66.5,-100.07 59.5,-100.07"/>
</g>
<!-- Node4 -->
<g id="node4" class="node">
<title>Node4</title>
<g id="a_node4"><a xlink:title=" ">
<polygon fill="white" stroke="#666666" points="77.5,-197 48.5,-197 48.5,-178 77.5,-178 77.5,-197"/>
<text text-anchor="middle" x="63" y="-185" font-family="Helvetica,sans-Serif" font-size="10.00">T</text>
</a>
</g>
</g>
<!-- Node4&#45;&gt;Node3 -->
<g id="edge3" class="edge">
<title>Node4&#45;&gt;Node3</title>
<path fill="none" stroke="#9a32cd" stroke-dasharray="5,2" d="M63,-166.18C63,-154.44 63,-140.27 63,-131.32"/>
<polygon fill="#9a32cd" stroke="#9a32cd" points="59.5,-166.09 63,-176.09 66.5,-166.09 59.5,-166.09"/>
<text text-anchor="middle" x="84.5" y="-152" font-family="Helvetica,sans-Serif" font-size="10.00"> elements</text>
</g>
</g>
</svg>
