<?xml version="1.0" encoding="UTF-8" standalone="no"?>
<!DOCTYPE svg PUBLIC "-//W3C//DTD SVG 1.1//EN"
 "http://www.w3.org/Graphics/SVG/1.1/DTD/svg11.dtd">
<!-- Generated by graphviz version 8.1.0 (20230707.0739)
 -->
<!-- Title: mal_packet_weaver::await_future Pages: 1 -->
<svg width="599pt" height="170pt"
 viewBox="0.00 0.00 599.25 169.75" xmlns="http://www.w3.org/2000/svg" xmlns:xlink="http://www.w3.org/1999/xlink">
<g id="graph0" class="graph" transform="scale(1 1) rotate(0) translate(4 165.75)">
<title>mal_packet_weaver::await_future</title>
<!-- Node1 -->
<g id="Node000001" class="node">
<title>Node1</title>
<g id="a_Node000001"><a xlink:title="Awaiting an std::future with Boost.Asio integration.">
<polygon fill="#999999" stroke="#666666" points="591.25,-96.12 492,-96.12 492,-65.62 591.25,-65.62 591.25,-96.12"/>
<text text-anchor="start" x="500" y="-82.62" font-family="Times,serif" font-size="10.00">mal_packet_weaver::</text>
<text text-anchor="middle" x="541.62" y="-71.38" font-family="Times,serif" font-size="10.00">await_future</text>
</a>
</g>
</g>
<!-- Node2 -->
<g id="Node000002" class="node">
<title>Node2</title>
<g id="a_Node000002"><a xlink:href="../../d4/d61/classmal__packet__weaver_1_1_packet_dispatcher.html#a1e7e2c9e624018e4a1046297453e0596" target="_top" xlink:title="Wait until the packet is registered in the dispatch system and return as soon as possible.">
<polygon fill="white" stroke="#666666" points="456,-161.75 344,-161.75 344,-120 456,-120 456,-161.75"/>
<text text-anchor="start" x="352" y="-148.25" font-family="Times,serif" font-size="10.00">mal_packet_weaver::</text>
<text text-anchor="start" x="352" y="-137" font-family="Times,serif" font-size="10.00">PacketDispatcher::await</text>
<text text-anchor="middle" x="400" y="-125.75" font-family="Times,serif" font-size="10.00">_packet</text>
</a>
</g>
</g>
<!-- Node1&#45;&gt;Node2 -->
<g id="edge1_Node000001_Node000002" class="edge">
<title>Node1&#45;&gt;Node2</title>
<g id="a_edge1_Node000001_Node000002"><a xlink:title=" ">
<path fill="none" stroke="#63b8ff" d="M494.36,-100.76C480.3,-106.8 464.8,-113.46 450.54,-119.59"/>
<polygon fill="#63b8ff" stroke="#63b8ff" points="495.5,-103.65 503.3,-96.48 492.74,-97.22 495.5,-103.65"/>
</a>
</g>
</g>
<!-- Node3 -->
<g id="Node000003" class="node">
<title>Node3</title>
<g id="a_Node000003"><a xlink:href="../../d4/d61/classmal__packet__weaver_1_1_packet_dispatcher.html#a5fa270876e67889a7524a186b297cd11" target="_top" xlink:title="Wait until a packet satisfying the filter condition is registered in the dispatch system and return a...">
<polygon fill="white" stroke="#666666" points="456,-101.75 344,-101.75 344,-60 456,-60 456,-101.75"/>
<text text-anchor="start" x="352" y="-88.25" font-family="Times,serif" font-size="10.00">mal_packet_weaver::</text>
<text text-anchor="start" x="352" y="-77" font-family="Times,serif" font-size="10.00">PacketDispatcher::await</text>
<text text-anchor="middle" x="400" y="-65.75" font-family="Times,serif" font-size="10.00">_packet</text>
</a>
</g>
</g>
<!-- Node1&#45;&gt;Node3 -->
<g id="edge2_Node000001_Node000003" class="edge">
<title>Node1&#45;&gt;Node3</title>
<g id="a_edge2_Node000001_Node000003"><a xlink:title=" ">
<path fill="none" stroke="#63b8ff" d="M480.83,-80.88C472.67,-80.88 464.32,-80.88 456.25,-80.88"/>
<polygon fill="#63b8ff" stroke="#63b8ff" points="480.79,-84.38 490.79,-80.88 480.79,-77.38 480.79,-84.38"/>
</a>
</g>
</g>
<!-- Node4 -->
<g id="Node000004" class="node">
<title>Node4</title>
<g id="a_Node000004"><a xlink:href="../../d4/d61/classmal__packet__weaver_1_1_packet_dispatcher.html#a87b159df2e43d0b4de204fd9b41d46be" target="_top" xlink:title="Pops input packets from input queues to local maps for processing.">
<polygon fill="white" stroke="#666666" points="453.38,-41.75 346.62,-41.75 346.62,0 453.38,0 453.38,-41.75"/>
<text text-anchor="start" x="354.62" y="-28.25" font-family="Times,serif" font-size="10.00">mal_packet_weaver::</text>
<text text-anchor="start" x="354.62" y="-17" font-family="Times,serif" font-size="10.00">PacketDispatcher::pop</text>
<text text-anchor="middle" x="400" y="-5.75" font-family="Times,serif" font-size="10.00">_inputs</text>
</a>
</g>
</g>
<!-- Node1&#45;&gt;Node4 -->
<g id="edge3_Node000001_Node000004" class="edge">
<title>Node1&#45;&gt;Node4</title>
<g id="a_edge3_Node000001_Node000004"><a xlink:title=" ">
<path fill="none" stroke="#63b8ff" d="M494.36,-60.99C480.3,-54.95 464.8,-48.29 450.54,-42.16"/>
<polygon fill="#63b8ff" stroke="#63b8ff" points="492.74,-64.53 503.3,-65.27 495.5,-58.1 492.74,-64.53"/>
</a>
</g>
</g>
<!-- Node5 -->
<g id="Node000005" class="node">
<title>Node5</title>
<g id="a_Node000005"><a xlink:href="../../d4/d61/classmal__packet__weaver_1_1_packet_dispatcher.html#ae48b4ef1938ba5fb557d1d9269c1a323" target="_top" xlink:title="This function represents the main loop for running a task with exponential backoff and asynchronous I...">
<polygon fill="white" stroke="#666666" points="308,-36.12 199,-36.12 199,-5.62 308,-5.62 308,-36.12"/>
<text text-anchor="start" x="207" y="-22.62" font-family="Times,serif" font-size="10.00">mal_packet_weaver::</text>
<text text-anchor="middle" x="253.5" y="-11.38" font-family="Times,serif" font-size="10.00">PacketDispatcher::Run</text>
</a>
</g>
</g>
<!-- Node4&#45;&gt;Node5 -->
<g id="edge4_Node000004_Node000005" class="edge">
<title>Node4&#45;&gt;Node5</title>
<g id="a_edge4_Node000004_Node000005"><a xlink:title=" ">
<path fill="none" stroke="#63b8ff" d="M335.48,-20.88C326.39,-20.88 317.12,-20.88 308.25,-20.88"/>
<polygon fill="#63b8ff" stroke="#63b8ff" points="335.42,-24.38 345.42,-20.88 335.42,-17.38 335.42,-24.38"/>
</a>
</g>
</g>
<!-- Node6 -->
<g id="Node000006" class="node">
<title>Node6</title>
<g id="a_Node000006"><a xlink:href="../../d4/d61/classmal__packet__weaver_1_1_packet_dispatcher.html#ac22bb2ccd532850a73766ce512b50082" target="_top" xlink:title="Constructs a PacketDispatcher instance associated with the given io_context.">
<polygon fill="white" stroke="#666666" points="163,-36.12 0,-36.12 0,-5.62 163,-5.62 163,-36.12"/>
<text text-anchor="start" x="8" y="-22.62" font-family="Times,serif" font-size="10.00">mal_packet_weaver::</text>
<text text-anchor="middle" x="81.5" y="-11.38" font-family="Times,serif" font-size="10.00">PacketDispatcher::PacketDispatcher</text>
</a>
</g>
</g>
<!-- Node5&#45;&gt;Node6 -->
<g id="edge5_Node000005_Node000006" class="edge">
<title>Node5&#45;&gt;Node6</title>
<g id="a_edge5_Node000005_Node000006"><a xlink:title=" ">
<path fill="none" stroke="#63b8ff" d="M187.91,-20.88C179.85,-20.88 171.53,-20.88 163.27,-20.88"/>
<polygon fill="#63b8ff" stroke="#63b8ff" points="187.71,-24.38 197.71,-20.88 187.71,-17.38 187.71,-24.38"/>
</a>
</g>
</g>
</g>
</svg>
