<?xml version="1.0" encoding="UTF-8" standalone="no"?>
<!DOCTYPE svg PUBLIC "-//W3C//DTD SVG 1.1//EN"
 "http://www.w3.org/Graphics/SVG/1.1/DTD/svg11.dtd">
<!-- Generated by graphviz version 8.1.0 (20230707.0739)
 -->
<!-- Title: mal_packet_weaver::await_future Pages: 1 -->
<svg width="594pt" height="50pt"
 viewBox="0.00 0.00 594.00 49.75" xmlns="http://www.w3.org/2000/svg" xmlns:xlink="http://www.w3.org/1999/xlink">
<g id="graph0" class="graph" transform="scale(1 1) rotate(0) translate(4 45.75)">
<title>mal_packet_weaver::await_future</title>
<!-- Node1 -->
<g id="Node000001" class="node">
<title>Node1</title>
<g id="a_Node000001"><a xlink:title="Awaiting an std::future with Boost.Asio integration.">
<polygon fill="#999999" stroke="#666666" points="586,-36.12 486.75,-36.12 486.75,-5.62 586,-5.62 586,-36.12"/>
<text text-anchor="start" x="494.75" y="-22.62" font-family="Times,serif" font-size="10.00">mal_packet_weaver::</text>
<text text-anchor="middle" x="536.38" y="-11.38" font-family="Times,serif" font-size="10.00">await_future</text>
</a>
</g>
</g>
<!-- Node2 -->
<g id="Node000002" class="node">
<title>Node2</title>
<g id="a_Node000002"><a xlink:href="../../d4/d61/classmal__packet__weaver_1_1_packet_dispatcher.html#a87b159df2e43d0b4de204fd9b41d46be" target="_top" xlink:title="Pops input packets from input queues to local maps for processing.">
<polygon fill="white" stroke="#666666" points="450.75,-41.75 344,-41.75 344,0 450.75,0 450.75,-41.75"/>
<text text-anchor="start" x="352" y="-28.25" font-family="Times,serif" font-size="10.00">mal_packet_weaver::</text>
<text text-anchor="start" x="352" y="-17" font-family="Times,serif" font-size="10.00">PacketDispatcher::pop</text>
<text text-anchor="middle" x="397.38" y="-5.75" font-family="Times,serif" font-size="10.00">_inputs</text>
</a>
</g>
</g>
<!-- Node1&#45;&gt;Node2 -->
<g id="edge1_Node000001_Node000002" class="edge">
<title>Node1&#45;&gt;Node2</title>
<g id="a_edge1_Node000001_Node000002"><a xlink:title=" ">
<path fill="none" stroke="#63b8ff" d="M475.32,-20.88C467.15,-20.88 458.83,-20.88 450.81,-20.88"/>
<polygon fill="#63b8ff" stroke="#63b8ff" points="475.3,-24.38 485.3,-20.88 475.3,-17.38 475.3,-24.38"/>
</a>
</g>
</g>
<!-- Node3 -->
<g id="Node000003" class="node">
<title>Node3</title>
<g id="a_Node000003"><a xlink:href="../../d4/d61/classmal__packet__weaver_1_1_packet_dispatcher.html#ae48b4ef1938ba5fb557d1d9269c1a323" target="_top" xlink:title="This function represents the main loop for running a task with exponential backoff and asynchronous I...">
<polygon fill="white" stroke="#666666" points="308,-36.12 199,-36.12 199,-5.62 308,-5.62 308,-36.12"/>
<text text-anchor="start" x="207" y="-22.62" font-family="Times,serif" font-size="10.00">mal_packet_weaver::</text>
<text text-anchor="middle" x="253.5" y="-11.38" font-family="Times,serif" font-size="10.00">PacketDispatcher::Run</text>
</a>
</g>
</g>
<!-- Node2&#45;&gt;Node3 -->
<g id="edge2_Node000002_Node000003" class="edge">
<title>Node2&#45;&gt;Node3</title>
<g id="a_edge2_Node000002_Node000003"><a xlink:title=" ">
<path fill="none" stroke="#63b8ff" d="M332.6,-20.88C324.49,-20.88 316.25,-20.88 308.32,-20.88"/>
<polygon fill="#63b8ff" stroke="#63b8ff" points="332.55,-24.38 342.55,-20.88 332.55,-17.38 332.55,-24.38"/>
</a>
</g>
</g>
<!-- Node4 -->
<g id="Node000004" class="node">
<title>Node4</title>
<g id="a_Node000004"><a xlink:href="../../d4/d61/classmal__packet__weaver_1_1_packet_dispatcher.html#ac22bb2ccd532850a73766ce512b50082" target="_top" xlink:title="Constructs a PacketDispatcher instance associated with the given io_context.">
<polygon fill="white" stroke="#666666" points="163,-36.12 0,-36.12 0,-5.62 163,-5.62 163,-36.12"/>
<text text-anchor="start" x="8" y="-22.62" font-family="Times,serif" font-size="10.00">mal_packet_weaver::</text>
<text text-anchor="middle" x="81.5" y="-11.38" font-family="Times,serif" font-size="10.00">PacketDispatcher::PacketDispatcher</text>
</a>
</g>
</g>
<!-- Node3&#45;&gt;Node4 -->
<g id="edge3_Node000003_Node000004" class="edge">
<title>Node3&#45;&gt;Node4</title>
<g id="a_edge3_Node000003_Node000004"><a xlink:title=" ">
<path fill="none" stroke="#63b8ff" d="M187.91,-20.88C179.85,-20.88 171.53,-20.88 163.27,-20.88"/>
<polygon fill="#63b8ff" stroke="#63b8ff" points="187.71,-24.38 197.71,-20.88 187.71,-17.38 187.71,-24.38"/>
</a>
</g>
</g>
</g>
</svg>
