<?xml version="1.0" encoding="UTF-8" standalone="no"?>
<!DOCTYPE svg PUBLIC "-//W3C//DTD SVG 1.1//EN"
 "http://www.w3.org/Graphics/SVG/1.1/DTD/svg11.dtd">
<!-- Generated by graphviz version 8.1.0 (20230707.0739)
 -->
<!-- Title: mal_packet_weaver::reverse_bytes Pages: 1 -->
<!--zoomable 308 -->

<svg id="main" version="1.1" xmlns="http://www.w3.org/2000/svg" xmlns:xlink="http://www.w3.org/1999/xlink" xml:space="preserve" onload="init(evt)">
<style type="text/css"><![CDATA[
.node, .edge {opacity: 0.7;}
.node.selected, .edge.selected {opacity: 1;}
.edge:hover path { stroke: red; }
.edge:hover polygon { stroke: red; fill: red; }
]]></style>

<defs>
  <circle id="rim" cx="0" cy="0" r="7"/>
  <circle id="rim2" cx="0" cy="0" r="3.5"/>
  <g id="zoomPlus">
    <use xlink:href="#rim" fill="#404040"><set attributeName="fill" to="#808080" begin="zoomplus.mouseover" end="zoomplus.mouseout"/></use>
    <path d="M-4,0h8M0,-4v8" fill="none" stroke="white" stroke-width="1.5" pointer-events="none"/>
  </g>
  <g id="zoomMin">
    <use xlink:href="#rim" fill="#404040"><set attributeName="fill" to="#808080" begin="zoomminus.mouseover" end="zoomminus.mouseout"/></use>
    <path d="M-4,0h8" fill="none" stroke="white" stroke-width="1.5" pointer-events="none"/>
  </g>
  <g id="arrowUp" transform="translate(30 24)">
    <use xlink:href="#rim"/>
    <path pointer-events="none" fill="none" stroke="white" stroke-width="1.5" d="M0,-3.0v7 M-2.5,-0.5L0,-3.0L2.5,-0.5"/>
  </g>
  <g id="arrowRight" transform="rotate(90) translate(36 -43)">
    <use xlink:href="#rim"/>
    <path pointer-events="none" fill="none" stroke="white" stroke-width="1.5" d="M0,-3.0v7 M-2.5,-0.5L0,-3.0L2.5,-0.5"/>
  </g>
  <g id="arrowDown" transform="rotate(180) translate(-30 -48)">
    <use xlink:href="#rim"/>
    <path pointer-events="none" fill="none" stroke="white" stroke-width="1.5" d="M0,-3.0v7 M-2.5,-0.5L0,-3.0L2.5,-0.5"/>
  </g>
  <g id="arrowLeft" transform="rotate(270) translate(-36 17)">
    <use xlink:href="#rim"/>
    <path pointer-events="none" fill="none" stroke="white" stroke-width="1.5" d="M0,-3.0v7 M-2.5,-0.5L0,-3.0L2.5,-0.5"/>
  </g>
  <g id="resetDef">
    <use xlink:href="#rim2" fill="#404040"><set attributeName="fill" to="#808080" begin="reset.mouseover" end="reset.mouseout"/></use>
  </g>
</defs>
<script type="application/ecmascript">
var viewWidth = 770;
var viewHeight = 308;
var sectionId = 'dynsection-1';
</script>
<script type="application/ecmascript" xlink:href="../../svg.min.js"/>
<svg id="graph" class="graph">
<g id="viewport">
<title>mal_packet_weaver::reverse_bytes</title>
<!-- Node1 -->
<g id="Node000001" class="node">
<title>Node1</title>
<g id="a_Node000001"><a xlink:title=" ">
<polygon fill="#999999" stroke="#666666" points="761.75,-153.12 662.5,-153.12 662.5,-122.62 761.75,-122.62 761.75,-153.12"/>
<text text-anchor="start" x="670.5" y="-139.62" font-family="Times,serif" font-size="10.00">mal_packet_weaver::</text>
<text text-anchor="middle" x="712.12" y="-128.38" font-family="Times,serif" font-size="10.00">reverse_bytes</text>
</a>
</g>
</g>
<!-- Node2 -->
<g id="Node000002" class="node">
<title>Node2</title>
<g id="a_Node000002"><a xlink:href="../../d8/d62/classmal__packet__weaver_1_1portable__binary__iarchive.html#ae953592c702c6691973415be252c343c" target="_top" xlink:title=" ">
<polygon fill="white" stroke="#666666" points="625,-207.75 509.25,-207.75 509.25,-166 625,-166 625,-207.75"/>
<text text-anchor="start" x="517.25" y="-194.25" font-family="Times,serif" font-size="10.00">mal_packet_weaver::</text>
<text text-anchor="start" x="517.25" y="-183" font-family="Times,serif" font-size="10.00">portable_binary_iarchive</text>
<text text-anchor="middle" x="567.12" y="-171.75" font-family="Times,serif" font-size="10.00">::load_impl</text>
</a>
</g>
</g>
<!-- Node1&#45;&gt;Node2 -->
<g id="edge1_Node000001_Node000002" class="edge">
<title>Node1&#45;&gt;Node2</title>
<g id="a_edge1_Node000001_Node000002"><a xlink:title=" ">
<path fill="none" stroke="#63b8ff" d="M655.09,-157.07C645.34,-160.42 635.17,-163.9 625.38,-167.25"/>
<polygon fill="#63b8ff" stroke="#63b8ff" points="656.16,-160.07 664.49,-153.51 653.89,-153.44 656.16,-160.07"/>
</a>
</g>
</g>
<!-- Node10 -->
<g id="Node000010" class="node">
<title>Node10</title>
<g id="a_Node000010"><a xlink:href="../../d1/d25/classmal__packet__weaver_1_1portable__binary__oarchive.html#a3b1a3cdf03b38963500fb9b482dbbaca" target="_top" xlink:title=" ">
<polygon fill="white" stroke="#666666" points="626.5,-128.75 507.75,-128.75 507.75,-87 626.5,-87 626.5,-128.75"/>
<text text-anchor="start" x="515.75" y="-115.25" font-family="Times,serif" font-size="10.00">mal_packet_weaver::</text>
<text text-anchor="start" x="515.75" y="-104" font-family="Times,serif" font-size="10.00">portable_binary_oarchive</text>
<text text-anchor="middle" x="567.12" y="-92.75" font-family="Times,serif" font-size="10.00">::save_impl</text>
</a>
</g>
</g>
<!-- Node1&#45;&gt;Node10 -->
<g id="edge9_Node000001_Node000010" class="edge">
<title>Node1&#45;&gt;Node10</title>
<g id="a_edge9_Node000001_Node000010"><a xlink:title=" ">
<path fill="none" stroke="#63b8ff" d="M651.68,-125.4C643.47,-123.68 635.04,-121.91 626.85,-120.19"/>
<polygon fill="#63b8ff" stroke="#63b8ff" points="650.81,-129.01 661.31,-127.63 652.24,-122.16 650.81,-129.01"/>
</a>
</g>
</g>
<!-- Node3 -->
<g id="Node000003" class="node">
<title>Node3</title>
<g id="a_Node000003"><a xlink:href="../../d8/d62/classmal__packet__weaver_1_1portable__binary__iarchive.html#af6b8855e85ca2b0378ade20985e5727d" target="_top" xlink:title=" ">
<polygon fill="white" stroke="#666666" points="470.62,-300.12 333.12,-300.12 333.12,-269.62 470.62,-269.62 470.62,-300.12"/>
<text text-anchor="start" x="341.12" y="-286.62" font-family="Times,serif" font-size="10.00">mal_packet_weaver::</text>
<text text-anchor="middle" x="401.88" y="-275.38" font-family="Times,serif" font-size="10.00">portable_binary_iarchive::load</text>
</a>
</g>
</g>
<!-- Node2&#45;&gt;Node3 -->
<g id="edge2_Node000002_Node000003" class="edge">
<title>Node2&#45;&gt;Node3</title>
<g id="a_edge2_Node000002_Node000003"><a xlink:title=" ">
<path fill="none" stroke="#63b8ff" d="M534.93,-214.99C517.32,-229.8 494.36,-247.43 471.75,-259.88 465.51,-263.31 458.7,-266.44 451.88,-269.23"/>
<polygon fill="#63b8ff" stroke="#63b8ff" points="536.8,-217.14 542.12,-207.98 532.25,-211.82 536.8,-217.14"/>
</a>
</g>
</g>
<!-- Node4 -->
<g id="Node000004" class="node">
<title>Node4</title>
<g id="a_Node000004"><a xlink:href="../../d8/d62/classmal__packet__weaver_1_1portable__binary__iarchive.html#a9ecf6ed9a0e8a31f03ea630b74d7818c" target="_top" xlink:title=" ">
<polygon fill="white" stroke="#666666" points="470.62,-251.12 333.12,-251.12 333.12,-220.62 470.62,-220.62 470.62,-251.12"/>
<text text-anchor="start" x="341.12" y="-237.62" font-family="Times,serif" font-size="10.00">mal_packet_weaver::</text>
<text text-anchor="middle" x="401.88" y="-226.38" font-family="Times,serif" font-size="10.00">portable_binary_iarchive::load</text>
</a>
</g>
</g>
<!-- Node2&#45;&gt;Node4 -->
<g id="edge3_Node000002_Node000004" class="edge">
<title>Node2&#45;&gt;Node4</title>
<g id="a_edge3_Node000002_Node000004"><a xlink:title=" ">
<path fill="none" stroke="#63b8ff" d="M498.63,-207.13C484.16,-211.48 469.09,-216 455.29,-220.14"/>
<polygon fill="#63b8ff" stroke="#63b8ff" points="499.46,-210.24 508.03,-204.01 497.44,-203.54 499.46,-210.24"/>
</a>
</g>
</g>
<!-- Node5 -->
<g id="Node000005" class="node">
<title>Node5</title>
<g id="a_Node000005"><a xlink:href="../../d8/d62/classmal__packet__weaver_1_1portable__binary__iarchive.html#a10d59abfca1883c88814d922a489e585" target="_top" xlink:title=" ">
<polygon fill="white" stroke="#666666" points="470.62,-202.12 333.12,-202.12 333.12,-171.62 470.62,-171.62 470.62,-202.12"/>
<text text-anchor="start" x="341.12" y="-188.62" font-family="Times,serif" font-size="10.00">mal_packet_weaver::</text>
<text text-anchor="middle" x="401.88" y="-177.38" font-family="Times,serif" font-size="10.00">portable_binary_iarchive::load</text>
</a>
</g>
</g>
<!-- Node2&#45;&gt;Node5 -->
<g id="edge4_Node000002_Node000005" class="edge">
<title>Node2&#45;&gt;Node5</title>
<g id="a_edge4_Node000002_Node000005"><a xlink:title=" ">
<path fill="none" stroke="#63b8ff" d="M498.17,-186.88C489.15,-186.88 479.9,-186.88 470.87,-186.88"/>
<polygon fill="#63b8ff" stroke="#63b8ff" points="498.03,-190.38 508.03,-186.88 498.03,-183.38 498.03,-190.38"/>
</a>
</g>
</g>
<!-- Node6 -->
<g id="Node000006" class="node">
<title>Node6</title>
<g id="a_Node000006"><a xlink:href="../../d8/d62/classmal__packet__weaver_1_1portable__binary__iarchive.html#ae5f3ab1a61126fcace53161c3027ad1c" target="_top" xlink:title=" ">
<polygon fill="white" stroke="#666666" points="470.62,-153.12 333.12,-153.12 333.12,-122.62 470.62,-122.62 470.62,-153.12"/>
<text text-anchor="start" x="341.12" y="-139.62" font-family="Times,serif" font-size="10.00">mal_packet_weaver::</text>
<text text-anchor="middle" x="401.88" y="-128.38" font-family="Times,serif" font-size="10.00">portable_binary_iarchive::load</text>
</a>
</g>
</g>
<!-- Node2&#45;&gt;Node6 -->
<g id="edge5_Node000002_Node000006" class="edge">
<title>Node2&#45;&gt;Node6</title>
<g id="a_edge5_Node000002_Node000006"><a xlink:title=" ">
<path fill="none" stroke="#63b8ff" d="M498.63,-166.62C484.16,-162.27 469.09,-157.75 455.29,-153.61"/>
<polygon fill="#63b8ff" stroke="#63b8ff" points="497.44,-170.21 508.03,-169.74 499.46,-163.51 497.44,-170.21"/>
</a>
</g>
</g>
<!-- Node7 -->
<g id="Node000007" class="node">
<title>Node7</title>
<g id="a_Node000007"><a xlink:href="../../d8/d62/classmal__packet__weaver_1_1portable__binary__iarchive.html#a224feb5ec7dbb246cf813e07f09d75ac" target="_top" xlink:title=" ">
<polygon fill="white" stroke="#666666" points="294.5,-156.12 160.75,-156.12 160.75,-125.62 294.5,-125.62 294.5,-156.12"/>
<text text-anchor="start" x="168.75" y="-142.62" font-family="Times,serif" font-size="10.00">mal_packet_weaver::</text>
<text text-anchor="middle" x="227.62" y="-131.38" font-family="Times,serif" font-size="10.00">portable_binary_iarchive::init</text>
</a>
</g>
</g>
<!-- Node6&#45;&gt;Node7 -->
<g id="edge6_Node000006_Node000007" class="edge">
<title>Node6&#45;&gt;Node7</title>
<g id="a_edge6_Node000006_Node000007"><a xlink:title=" ">
<path fill="none" stroke="#63b8ff" d="M321.85,-139.25C312.8,-139.41 303.65,-139.57 294.8,-139.72"/>
<polygon fill="#63b8ff" stroke="#63b8ff" points="321.86,-142.73 331.8,-139.06 321.74,-135.74 321.86,-142.73"/>
</a>
</g>
</g>
<!-- Node8 -->
<g id="Node000008" class="node">
<title>Node8</title>
<g id="a_Node000008"><a xlink:href="../../d8/d62/classmal__packet__weaver_1_1portable__binary__iarchive.html#a241e1fb18840c71690869d6db286974f" target="_top" xlink:title=" ">
<polygon fill="white" stroke="#666666" points="121.75,-221.75 1.5,-221.75 1.5,-180 121.75,-180 121.75,-221.75"/>
<text text-anchor="start" x="9.5" y="-208.25" font-family="Times,serif" font-size="10.00">mal_packet_weaver::</text>
<text text-anchor="start" x="9.5" y="-197" font-family="Times,serif" font-size="10.00">portable_binary_iarchive</text>
<text text-anchor="middle" x="61.62" y="-185.75" font-family="Times,serif" font-size="10.00">::portable_binary_iarchive</text>
</a>
</g>
</g>
<!-- Node7&#45;&gt;Node8 -->
<g id="edge7_Node000007_Node000008" class="edge">
<title>Node7&#45;&gt;Node8</title>
<g id="a_edge7_Node000007_Node000008"><a xlink:title=" ">
<path fill="none" stroke="#63b8ff" d="M173.72,-160.23C156.84,-166.41 138.06,-173.28 120.81,-179.59"/>
<polygon fill="#63b8ff" stroke="#63b8ff" points="174.78,-163.21 182.96,-156.48 172.37,-156.63 174.78,-163.21"/>
</a>
</g>
</g>
<!-- Node9 -->
<g id="Node000009" class="node">
<title>Node9</title>
<g id="a_Node000009"><a xlink:href="../../d8/d62/classmal__packet__weaver_1_1portable__binary__iarchive.html#a7d4e4255ee91112bac1c21cc77e5e800" target="_top" xlink:title=" ">
<polygon fill="white" stroke="#666666" points="121.75,-161.75 1.5,-161.75 1.5,-120 121.75,-120 121.75,-161.75"/>
<text text-anchor="start" x="9.5" y="-148.25" font-family="Times,serif" font-size="10.00">mal_packet_weaver::</text>
<text text-anchor="start" x="9.5" y="-137" font-family="Times,serif" font-size="10.00">portable_binary_iarchive</text>
<text text-anchor="middle" x="61.62" y="-125.75" font-family="Times,serif" font-size="10.00">::portable_binary_iarchive</text>
</a>
</g>
</g>
<!-- Node7&#45;&gt;Node9 -->
<g id="edge8_Node000007_Node000009" class="edge">
<title>Node7&#45;&gt;Node9</title>
<g id="a_edge8_Node000007_Node000009"><a xlink:title=" ">
<path fill="none" stroke="#63b8ff" d="M149.65,-140.88C140.44,-140.88 131.14,-140.88 122.23,-140.88"/>
<polygon fill="#63b8ff" stroke="#63b8ff" points="149.39,-144.38 159.39,-140.88 149.39,-137.38 149.39,-144.38"/>
</a>
</g>
</g>
<!-- Node11 -->
<g id="Node000011" class="node">
<title>Node11</title>
<g id="a_Node000011"><a xlink:href="../../d1/d25/classmal__packet__weaver_1_1portable__binary__oarchive.html#a4b827df986c56b388edec92fcb890d4f" target="_top" xlink:title=" ">
<polygon fill="white" stroke="#666666" points="471.75,-99.12 332,-99.12 332,-68.62 471.75,-68.62 471.75,-99.12"/>
<text text-anchor="start" x="340" y="-85.62" font-family="Times,serif" font-size="10.00">mal_packet_weaver::</text>
<text text-anchor="middle" x="401.88" y="-74.38" font-family="Times,serif" font-size="10.00">portable_binary_oarchive::save</text>
</a>
</g>
</g>
<!-- Node10&#45;&gt;Node11 -->
<g id="edge10_Node000010_Node000011" class="edge">
<title>Node10&#45;&gt;Node11</title>
<g id="a_edge10_Node000010_Node000011"><a xlink:title=" ">
<path fill="none" stroke="#63b8ff" d="M496.95,-97.71C488.72,-96.5 480.31,-95.26 472.08,-94.05"/>
<polygon fill="#63b8ff" stroke="#63b8ff" points="496.25,-101.29 506.65,-99.28 497.26,-94.36 496.25,-101.29"/>
</a>
</g>
</g>
<!-- Node12 -->
<g id="Node000012" class="node">
<title>Node12</title>
<g id="a_Node000012"><a xlink:href="../../d1/d25/classmal__packet__weaver_1_1portable__binary__oarchive.html#ab31cd1b8f9ed4151b7c797e678a850ee" target="_top" xlink:title=" ">
<polygon fill="white" stroke="#666666" points="296,-96.12 159.25,-96.12 159.25,-65.62 296,-65.62 296,-96.12"/>
<text text-anchor="start" x="167.25" y="-82.62" font-family="Times,serif" font-size="10.00">mal_packet_weaver::</text>
<text text-anchor="middle" x="227.62" y="-71.38" font-family="Times,serif" font-size="10.00">portable_binary_oarchive::init</text>
</a>
</g>
</g>
<!-- Node11&#45;&gt;Node12 -->
<g id="edge11_Node000011_Node000012" class="edge">
<title>Node11&#45;&gt;Node12</title>
<g id="a_edge11_Node000011_Node000012"><a xlink:title=" ">
<path fill="none" stroke="#63b8ff" d="M321.02,-82.48C312.76,-82.34 304.42,-82.2 296.31,-82.05"/>
<polygon fill="#63b8ff" stroke="#63b8ff" points="320.75,-86 330.81,-82.67 320.87,-79 320.75,-86"/>
</a>
</g>
</g>
<!-- Node13 -->
<g id="Node000013" class="node">
<title>Node13</title>
<g id="a_Node000013"><a xlink:href="../../d1/d25/classmal__packet__weaver_1_1portable__binary__oarchive.html#a5fe5817b7529b191edadc43e31bb5230" target="_top" xlink:title=" ">
<polygon fill="white" stroke="#666666" points="123.25,-101.75 0,-101.75 0,-60 123.25,-60 123.25,-101.75"/>
<text text-anchor="start" x="8" y="-88.25" font-family="Times,serif" font-size="10.00">mal_packet_weaver::</text>
<text text-anchor="start" x="8" y="-77" font-family="Times,serif" font-size="10.00">portable_binary_oarchive</text>
<text text-anchor="middle" x="61.62" y="-65.75" font-family="Times,serif" font-size="10.00">::portable_binary_oarchive</text>
</a>
</g>
</g>
<!-- Node12&#45;&gt;Node13 -->
<g id="edge12_Node000012_Node000013" class="edge">
<title>Node12&#45;&gt;Node13</title>
<g id="a_edge12_Node000012_Node000013"><a xlink:title=" ">
<path fill="none" stroke="#63b8ff" d="M148.16,-80.88C139.9,-80.88 131.58,-80.88 123.56,-80.88"/>
<polygon fill="#63b8ff" stroke="#63b8ff" points="147.97,-84.38 157.97,-80.88 147.97,-77.38 147.97,-84.38"/>
</a>
</g>
</g>
<!-- Node14 -->
<g id="Node000014" class="node">
<title>Node14</title>
<g id="a_Node000014"><a xlink:href="../../d1/d25/classmal__packet__weaver_1_1portable__binary__oarchive.html#a438d8a0dde98696c4ec6a2f4d75027ed" target="_top" xlink:title=" ">
<polygon fill="white" stroke="#666666" points="123.25,-41.75 0,-41.75 0,0 123.25,0 123.25,-41.75"/>
<text text-anchor="start" x="8" y="-28.25" font-family="Times,serif" font-size="10.00">mal_packet_weaver::</text>
<text text-anchor="start" x="8" y="-17" font-family="Times,serif" font-size="10.00">portable_binary_oarchive</text>
<text text-anchor="middle" x="61.62" y="-5.75" font-family="Times,serif" font-size="10.00">::portable_binary_oarchive</text>
</a>
</g>
</g>
<!-- Node12&#45;&gt;Node14 -->
<g id="edge13_Node000012_Node000014" class="edge">
<title>Node12&#45;&gt;Node14</title>
<g id="a_edge13_Node000012_Node000014"><a xlink:title=" ">
<path fill="none" stroke="#63b8ff" d="M173.72,-61.52C156.84,-55.34 138.06,-48.47 120.81,-42.16"/>
<polygon fill="#63b8ff" stroke="#63b8ff" points="172.37,-65.12 182.96,-65.27 174.78,-58.54 172.37,-65.12"/>
</a>
</g>
</g>
</g>
</svg>

<g id="navigator" transform="translate(0 0)" fill="#404254">
  <rect fill="#f2f5e9" fill-opacity="0.5" stroke="#606060" stroke-width=".5" x="0" y="0" width="60" height="60"/>
  <use id="zoomplus" xlink:href="#zoomPlus" x="17" y="9" onmousedown="handleZoom(evt,'in')"/>
  <use id="zoomminus" xlink:href="#zoomMin" x="42" y="9" onmousedown="handleZoom(evt,'out')"/>
  <use id="reset" xlink:href="#resetDef" x="30" y="36" onmousedown="handleReset()"/>
   <use id="arrowup" xlink:href="#arrowUp" x="0" y="0" onmousedown="handlePan(0,-1)"/>
  <use id="arrowright" xlink:href="#arrowRight" x="0" y="0" onmousedown="handlePan(1,0)"/>
  <use id="arrowdown" xlink:href="#arrowDown" x="0" y="0" onmousedown="handlePan(0,1)"/>
  <use id="arrowleft" xlink:href="#arrowLeft" x="0" y="0" onmousedown="handlePan(-1,0)"/>
</g>
<svg viewBox="0 0 15 15" width="100%" height="30px" preserveAspectRatio="xMaxYMin meet">
 <g id="arrow_out" transform="scale(0.3 0.3)">
  <a xlink:href="namespacemal__packet__weaver_a71615eb13401e9982f44e83260bd4fb5_icgraph_org.svg" target="_base">
   <rect id="button" ry="5" rx="5" y="6" x="6" height="38" width="38"
        fill="#f2f5e9" fill-opacity="0.5" stroke="#606060" stroke-width="1.0"/>
   <path id="arrow"
     d="M 11.500037,31.436501 C 11.940474,20.09759 22.043105,11.32322 32.158766,21.979434 L 37.068811,17.246167 C 37.068811,17.246167 37.088388,32 37.088388,32 L 22.160133,31.978069 C 22.160133,31.978069 26.997745,27.140456 26.997745,27.140456 C 18.528582,18.264221 13.291696,25.230495 11.500037,31.436501 z"
     style="fill:#404040;"/>
  </a>
 </g>
</svg>

<style type='text/css'>
<![CDATA[
[data-mouse-over-selected='false'] { opacity: 0.7; }
[data-mouse-over-selected='true']  { opacity: 1.0; }
]]>
</style>
<script type="application/ecmascript"><![CDATA[
document.addEventListener('DOMContentLoaded', (event) => {
  highlightEdges();
  highlightAdjacentNodes();
});
]]></script>
</svg>
