<?xml version="1.0" encoding="UTF-8" standalone="no"?>
<!DOCTYPE svg PUBLIC "-//W3C//DTD SVG 1.1//EN"
 "http://www.w3.org/Graphics/SVG/1.1/DTD/svg11.dtd">
<!-- Generated by graphviz version 8.1.0 (20230707.0739)
 -->
<!-- Title: mal&#45;packet&#45;weaver/mal&#45;packet&#45;weaver/packet&#45;dispatcher.hpp Pages: 1 -->
<svg width="1875pt" height="293pt"
 viewBox="0.00 0.00 1874.75 293.25" xmlns="http://www.w3.org/2000/svg" xmlns:xlink="http://www.w3.org/1999/xlink">
<g id="graph0" class="graph" transform="scale(1 1) rotate(0) translate(4 289.25)">
<title>mal&#45;packet&#45;weaver/mal&#45;packet&#45;weaver/packet&#45;dispatcher.hpp</title>
<!-- Node1 -->
<g id="Node000001" class="node">
<title>Node1</title>
<g id="a_Node000001"><a xlink:title=" ">
<polygon fill="#999999" stroke="#666666" points="891.75,-285.25 784.25,-285.25 784.25,-243.5 891.75,-243.5 891.75,-285.25"/>
<text text-anchor="start" x="792.25" y="-271.75" font-family="Times,serif" font-size="10.00">mal&#45;packet&#45;weaver/mal</text>
<text text-anchor="start" x="792.25" y="-260.5" font-family="Times,serif" font-size="10.00">&#45;packet&#45;weaver/packet</text>
<text text-anchor="middle" x="838" y="-249.25" font-family="Times,serif" font-size="10.00">&#45;dispatcher.hpp</text>
</a>
</g>
</g>
<!-- Node2 -->
<g id="Node000002" class="node">
<title>Node2</title>
<g id="a_Node000002"><a xlink:title=" ">
<polygon fill="#e0e0e0" stroke="#999999" points="40,-207.5 0,-207.5 0,-188.25 40,-188.25 40,-207.5"/>
<text text-anchor="middle" x="20" y="-194" font-family="Times,serif" font-size="10.00">queue</text>
</a>
</g>
</g>
<!-- Node1&#45;&gt;Node2 -->
<g id="edge1_Node000001_Node000002" class="edge">
<title>Node1&#45;&gt;Node2</title>
<g id="a_edge1_Node000001_Node000002"><a xlink:title=" ">
<path fill="none" stroke="#63b8ff" d="M783.92,-263.59C657.01,-263.23 330.35,-257.29 51.2,-207.5"/>
<polygon fill="#63b8ff" stroke="#63b8ff" points="51.92,-203.9 41.46,-205.56 50.68,-210.79 51.92,-203.9"/>
</a>
</g>
</g>
<!-- Node3 -->
<g id="Node000003" class="node">
<title>Node3</title>
<g id="a_Node000003"><a xlink:title=" ">
<polygon fill="#e0e0e0" stroke="#999999" points="98,-207.5 58,-207.5 58,-188.25 98,-188.25 98,-207.5"/>
<text text-anchor="middle" x="78" y="-194" font-family="Times,serif" font-size="10.00">deque</text>
</a>
</g>
</g>
<!-- Node1&#45;&gt;Node3 -->
<g id="edge2_Node000001_Node000003" class="edge">
<title>Node1&#45;&gt;Node3</title>
<g id="a_edge2_Node000001_Node000003"><a xlink:title=" ">
<path fill="none" stroke="#63b8ff" d="M783.84,-263.16C663.59,-261.83 365.31,-253.91 109.09,-207.5"/>
<polygon fill="#63b8ff" stroke="#63b8ff" points="109.93,-203.91 99.46,-205.55 108.67,-210.8 109.93,-203.91"/>
</a>
</g>
</g>
<!-- Node4 -->
<g id="Node000004" class="node">
<title>Node4</title>
<g id="a_Node000004"><a xlink:title=" ">
<polygon fill="#e0e0e0" stroke="#999999" points="194.12,-207.5 115.88,-207.5 115.88,-188.25 194.12,-188.25 194.12,-207.5"/>
<text text-anchor="middle" x="155" y="-194" font-family="Times,serif" font-size="10.00">unordered_map</text>
</a>
</g>
</g>
<!-- Node1&#45;&gt;Node4 -->
<g id="edge3_Node000001_Node000004" class="edge">
<title>Node1&#45;&gt;Node4</title>
<g id="a_edge3_Node000001_Node000004"><a xlink:title=" ">
<path fill="none" stroke="#63b8ff" d="M783.88,-260.26C675.8,-253.69 425.42,-236.67 205.3,-207.7"/>
<polygon fill="#63b8ff" stroke="#63b8ff" points="205.88,-204.11 195.51,-206.26 204.96,-211.05 205.88,-204.11"/>
</a>
</g>
</g>
<!-- Node5 -->
<g id="Node000005" class="node">
<title>Node5</title>
<g id="a_Node000005"><a xlink:title=" ">
<polygon fill="#e0e0e0" stroke="#999999" points="252,-207.5 212,-207.5 212,-188.25 252,-188.25 252,-207.5"/>
<text text-anchor="middle" x="232" y="-194" font-family="Times,serif" font-size="10.00">future</text>
</a>
</g>
</g>
<!-- Node1&#45;&gt;Node5 -->
<g id="edge4_Node000001_Node000005" class="edge">
<title>Node1&#45;&gt;Node5</title>
<g id="a_edge4_Node000001_Node000005"><a xlink:title=" ">
<path fill="none" stroke="#63b8ff" d="M783.93,-261.43C683.15,-257.1 459.77,-244.13 262.76,-207.23"/>
<polygon fill="#63b8ff" stroke="#63b8ff" points="263.69,-203.66 253.21,-205.23 262.38,-210.53 263.69,-203.66"/>
</a>
</g>
</g>
<!-- Node6 -->
<g id="Node000006" class="node">
<title>Node6</title>
<g id="a_Node000006"><a xlink:title=" ">
<polygon fill="#e0e0e0" stroke="#999999" points="385.5,-207.5 270.5,-207.5 270.5,-188.25 385.5,-188.25 385.5,-207.5"/>
<text text-anchor="middle" x="328" y="-194" font-family="Times,serif" font-size="10.00">boost/asio/awaitable.hpp</text>
</a>
</g>
</g>
<!-- Node1&#45;&gt;Node6 -->
<g id="edge5_Node000001_Node000006" class="edge">
<title>Node1&#45;&gt;Node6</title>
<g id="a_edge5_Node000001_Node000006"><a xlink:title=" ">
<path fill="none" stroke="#63b8ff" d="M783.78,-256.58C702.23,-246.35 542.84,-226.33 396.27,-207.66"/>
<polygon fill="#63b8ff" stroke="#63b8ff" points="397.1,-204.11 386.74,-206.32 396.22,-211.05 397.1,-204.11"/>
</a>
</g>
</g>
<!-- Node7 -->
<g id="Node000007" class="node">
<title>Node7</title>
<g id="a_Node000007"><a xlink:title=" ">
<polygon fill="#e0e0e0" stroke="#999999" points="522,-207.5 404,-207.5 404,-188.25 522,-188.25 522,-207.5"/>
<text text-anchor="middle" x="463" y="-194" font-family="Times,serif" font-size="10.00">boost/asio/co_spawn.hpp</text>
</a>
</g>
</g>
<!-- Node1&#45;&gt;Node7 -->
<g id="edge6_Node000001_Node000007" class="edge">
<title>Node1&#45;&gt;Node7</title>
<g id="a_edge6_Node000001_Node000007"><a xlink:title=" ">
<path fill="none" stroke="#63b8ff" d="M783.87,-254.07C715.77,-242.35 598.99,-222.27 526.67,-209.83"/>
<polygon fill="#63b8ff" stroke="#63b8ff" points="527.35,-206.22 516.9,-207.97 526.16,-213.12 527.35,-206.22"/>
</a>
</g>
</g>
<!-- Node8 -->
<g id="Node000008" class="node">
<title>Node8</title>
<g id="a_Node000008"><a xlink:title=" ">
<polygon fill="#e0e0e0" stroke="#999999" points="655.5,-207.5 540.5,-207.5 540.5,-188.25 655.5,-188.25 655.5,-207.5"/>
<text text-anchor="middle" x="598" y="-194" font-family="Times,serif" font-size="10.00">boost/asio/detached.hpp</text>
</a>
</g>
</g>
<!-- Node1&#45;&gt;Node8 -->
<g id="edge7_Node000001_Node000008" class="edge">
<title>Node1&#45;&gt;Node8</title>
<g id="a_edge7_Node000001_Node000008"><a xlink:title=" ">
<path fill="none" stroke="#63b8ff" d="M783.84,-248.82C741.04,-237.32 682.04,-221.46 642.09,-210.72"/>
<polygon fill="#63b8ff" stroke="#63b8ff" points="643.18,-207.12 632.61,-207.91 641.36,-213.88 643.18,-207.12"/>
</a>
</g>
</g>
<!-- Node9 -->
<g id="Node000009" class="node">
<title>Node9</title>
<g id="a_Node000009"><a xlink:title=" ">
<polygon fill="#e0e0e0" stroke="#999999" points="768.75,-207.5 673.25,-207.5 673.25,-188.25 768.75,-188.25 768.75,-207.5"/>
<text text-anchor="middle" x="721" y="-194" font-family="Times,serif" font-size="10.00">boost/asio/read.hpp</text>
</a>
</g>
</g>
<!-- Node1&#45;&gt;Node9 -->
<g id="edge8_Node000001_Node000009" class="edge">
<title>Node1&#45;&gt;Node9</title>
<g id="a_edge8_Node000001_Node000009"><a xlink:title=" ">
<path fill="none" stroke="#63b8ff" d="M801.3,-243.14C783.54,-233.35 762.65,-221.84 746.63,-213.01"/>
<polygon fill="#63b8ff" stroke="#63b8ff" points="748.81,-209.66 738.36,-207.89 745.43,-215.79 748.81,-209.66"/>
</a>
</g>
</g>
<!-- Node10 -->
<g id="Node000010" class="node">
<title>Node10</title>
<g id="a_Node000010"><a xlink:title=" ">
<polygon fill="#e0e0e0" stroke="#999999" points="889.5,-207.5 786.5,-207.5 786.5,-188.25 889.5,-188.25 889.5,-207.5"/>
<text text-anchor="middle" x="838" y="-194" font-family="Times,serif" font-size="10.00">boost/asio/spawn.hpp</text>
</a>
</g>
</g>
<!-- Node1&#45;&gt;Node10 -->
<g id="edge9_Node000001_Node000010" class="edge">
<title>Node1&#45;&gt;Node10</title>
<g id="a_edge9_Node000001_Node000010"><a xlink:title=" ">
<path fill="none" stroke="#63b8ff" d="M838,-243.32C838,-235.55 838,-226.68 838,-218.92"/>
<polygon fill="#63b8ff" stroke="#63b8ff" points="841.5,-218.95 838,-208.95 834.5,-218.95 841.5,-218.95"/>
</a>
</g>
</g>
<!-- Node11 -->
<g id="Node000011" class="node">
<title>Node11</title>
<g id="a_Node000011"><a xlink:title=" ">
<polygon fill="#e0e0e0" stroke="#999999" points="1038,-207.5 908,-207.5 908,-188.25 1038,-188.25 1038,-207.5"/>
<text text-anchor="middle" x="973" y="-194" font-family="Times,serif" font-size="10.00">boost/asio/steady_timer.hpp</text>
</a>
</g>
</g>
<!-- Node1&#45;&gt;Node11 -->
<g id="edge10_Node000001_Node000011" class="edge">
<title>Node1&#45;&gt;Node11</title>
<g id="a_edge10_Node000001_Node000011"><a xlink:title=" ">
<path fill="none" stroke="#63b8ff" d="M880.34,-243.14C901.13,-233.21 925.62,-221.51 944.2,-212.63"/>
<polygon fill="#63b8ff" stroke="#63b8ff" points="945.61,-215.36 953.12,-207.89 942.59,-209.05 945.61,-215.36"/>
</a>
</g>
</g>
<!-- Node12 -->
<g id="Node000012" class="node">
<title>Node12</title>
<g id="a_Node000012"><a xlink:title=" ">
<polygon fill="#e0e0e0" stroke="#999999" points="1174.38,-207.5 1055.62,-207.5 1055.62,-188.25 1174.38,-188.25 1174.38,-207.5"/>
<text text-anchor="middle" x="1115" y="-194" font-family="Times,serif" font-size="10.00">boost/asio/streambuf.hpp</text>
</a>
</g>
</g>
<!-- Node1&#45;&gt;Node12 -->
<g id="edge11_Node000001_Node000012" class="edge">
<title>Node1&#45;&gt;Node12</title>
<g id="a_edge11_Node000001_Node000012"><a xlink:title=" ">
<path fill="none" stroke="#63b8ff" d="M892.07,-250.79C942.27,-239.09 1016.42,-221.83 1065.21,-210.47"/>
<polygon fill="#63b8ff" stroke="#63b8ff" points="1065.87,-213.68 1074.82,-208 1064.29,-206.86 1065.87,-213.68"/>
</a>
</g>
</g>
<!-- Node13 -->
<g id="Node000013" class="node">
<title>Node13</title>
<g id="a_Node000013"><a xlink:title=" ">
<polygon fill="#e0e0e0" stroke="#999999" points="1291.25,-207.5 1192.75,-207.5 1192.75,-188.25 1291.25,-188.25 1291.25,-207.5"/>
<text text-anchor="middle" x="1242" y="-194" font-family="Times,serif" font-size="10.00">boost/asio/write.hpp</text>
</a>
</g>
</g>
<!-- Node1&#45;&gt;Node13 -->
<g id="edge12_Node000001_Node000013" class="edge">
<title>Node1&#45;&gt;Node13</title>
<g id="a_edge12_Node000001_Node000013"><a xlink:title=" ">
<path fill="none" stroke="#63b8ff" d="M892.07,-254.74C967.33,-242.73 1103.24,-221.03 1181.7,-208.5"/>
<polygon fill="#63b8ff" stroke="#63b8ff" points="1182.05,-211.83 1191.37,-206.8 1180.95,-204.92 1182.05,-211.83"/>
</a>
</g>
</g>
<!-- Node14 -->
<g id="Node000014" class="node">
<title>Node14</title>
<g id="a_Node000014"><a xlink:title=" ">
<polygon fill="#e0e0e0" stroke="#999999" points="1408.25,-207.5 1309.75,-207.5 1309.75,-188.25 1408.25,-188.25 1408.25,-207.5"/>
<text text-anchor="middle" x="1359" y="-194" font-family="Times,serif" font-size="10.00">boost/bind/bind.hpp</text>
</a>
</g>
</g>
<!-- Node1&#45;&gt;Node14 -->
<g id="edge13_Node000001_Node000014" class="edge">
<title>Node1&#45;&gt;Node14</title>
<g id="a_edge13_Node000001_Node000014"><a xlink:title=" ">
<path fill="none" stroke="#63b8ff" d="M892.11,-257.27C976.51,-247.65 1144.87,-228.08 1298.85,-207.62"/>
<polygon fill="#63b8ff" stroke="#63b8ff" points="1298.99,-211 1308.44,-206.21 1298.06,-204.06 1298.99,-211"/>
</a>
</g>
</g>
<!-- Node15 -->
<g id="Node000015" class="node">
<title>Node15</title>
<g id="a_Node000015"><a xlink:title=" ">
<polygon fill="#e0e0e0" stroke="#999999" points="1553.5,-207.5 1426.5,-207.5 1426.5,-188.25 1553.5,-188.25 1553.5,-207.5"/>
<text text-anchor="middle" x="1490" y="-194" font-family="Times,serif" font-size="10.00">mal_toolkit/mal_toolkit.hpp</text>
</a>
</g>
</g>
<!-- Node1&#45;&gt;Node15 -->
<g id="edge14_Node000001_Node000015" class="edge">
<title>Node1&#45;&gt;Node15</title>
<g id="a_edge14_Node000001_Node000015"><a xlink:title=" ">
<path fill="none" stroke="#63b8ff" d="M891.92,-258.56C992.52,-249.49 1215.93,-228.95 1415.61,-207.63"/>
<polygon fill="#63b8ff" stroke="#63b8ff" points="1415.74,-211.03 1425.31,-206.48 1414.99,-204.07 1415.74,-211.03"/>
</a>
</g>
</g>
<!-- Node16 -->
<g id="Node000016" class="node">
<title>Node16</title>
<g id="a_Node000016"><a xlink:href="../../d2/d3f/packet_8hpp.html" target="_top" xlink:title=" ">
<polygon fill="white" stroke="#666666" points="1632.12,-207.5 1571.88,-207.5 1571.88,-188.25 1632.12,-188.25 1632.12,-207.5"/>
<text text-anchor="middle" x="1602" y="-194" font-family="Times,serif" font-size="10.00">packet.hpp</text>
</a>
</g>
</g>
<!-- Node1&#45;&gt;Node16 -->
<g id="edge15_Node000001_Node000016" class="edge">
<title>Node1&#45;&gt;Node16</title>
<g id="a_edge15_Node000001_Node000016"><a xlink:title=" ">
<path fill="none" stroke="#63b8ff" d="M891.95,-261.81C1011.09,-257.8 1305.67,-244.82 1560.83,-207.63"/>
<polygon fill="#63b8ff" stroke="#63b8ff" points="1561.04,-210.99 1570.42,-206.06 1560.02,-204.06 1561.04,-210.99"/>
</a>
</g>
</g>
<!-- Node24 -->
<g id="Node000024" class="node">
<title>Node24</title>
<g id="a_Node000024"><a xlink:href="../../d2/d7d/packet-dispatcher_8inl.html" target="_top" xlink:title=" ">
<polygon fill="white" stroke="#666666" points="1751.38,-207.5 1650.62,-207.5 1650.62,-188.25 1751.38,-188.25 1751.38,-207.5"/>
<text text-anchor="middle" x="1701" y="-194" font-family="Times,serif" font-size="10.00">packet&#45;dispatcher.inl</text>
</a>
</g>
</g>
<!-- Node1&#45;&gt;Node24 -->
<g id="edge23_Node000001_Node000024" class="edge">
<title>Node1&#45;&gt;Node24</title>
<g id="a_edge23_Node000001_Node000024"><a xlink:title=" ">
<path fill="none" stroke="#63b8ff" d="M891.86,-260.77C1020.3,-254.56 1354.08,-237.1 1632,-207.5 1634.38,-207.25 1636.81,-206.97 1639.27,-206.68"/>
<polygon fill="#63b8ff" stroke="#63b8ff" points="1639.7,-210.02 1649.18,-205.3 1638.82,-203.08 1639.7,-210.02"/>
</a>
</g>
</g>
<!-- Node17 -->
<g id="Node000017" class="node">
<title>Node17</title>
<g id="a_Node000017"><a xlink:href="../../d3/d53/packet-factory_8hpp.html" target="_top" xlink:title=" ">
<polygon fill="white" stroke="#666666" points="1649.38,-152.25 1554.62,-152.25 1554.62,-121.75 1649.38,-121.75 1649.38,-152.25"/>
<text text-anchor="start" x="1562.62" y="-138.75" font-family="Times,serif" font-size="10.00">packet_impl/packet</text>
<text text-anchor="middle" x="1602" y="-127.5" font-family="Times,serif" font-size="10.00">&#45;factory.hpp</text>
</a>
</g>
</g>
<!-- Node16&#45;&gt;Node17 -->
<g id="edge16_Node000016_Node000017" class="edge">
<title>Node16&#45;&gt;Node17</title>
<g id="a_edge16_Node000016_Node000017"><a xlink:title=" ">
<path fill="none" stroke="#63b8ff" d="M1602,-187.93C1602,-181.4 1602,-172.2 1602,-163.47"/>
<polygon fill="#63b8ff" stroke="#63b8ff" points="1605.5,-163.53 1602,-153.53 1598.5,-163.53 1605.5,-163.53"/>
</a>
</g>
</g>
<!-- Node18 -->
<g id="Node000018" class="node">
<title>Node18</title>
<g id="a_Node000018"><a xlink:href="../../d9/d85/packet__impl_2packet_8hpp.html" target="_top" xlink:title=" ">
<polygon fill="white" stroke="#666666" points="1632.12,-85.75 1571.88,-85.75 1571.88,-66.5 1632.12,-66.5 1632.12,-85.75"/>
<text text-anchor="middle" x="1602" y="-72.25" font-family="Times,serif" font-size="10.00">packet.hpp</text>
</a>
</g>
</g>
<!-- Node17&#45;&gt;Node18 -->
<g id="edge17_Node000017_Node000018" class="edge">
<title>Node17&#45;&gt;Node18</title>
<g id="a_edge17_Node000017_Node000018"><a xlink:title=" ">
<path fill="none" stroke="#63b8ff" d="M1602,-121.45C1602,-114.12 1602,-105.12 1602,-97.16"/>
<polygon fill="#63b8ff" stroke="#63b8ff" points="1605.5,-97.2 1602,-87.2 1598.5,-97.2 1605.5,-97.2"/>
</a>
</g>
</g>
<!-- Node19 -->
<g id="Node000019" class="node">
<title>Node19</title>
<g id="a_Node000019"><a xlink:title=" ">
<polygon fill="#e0e0e0" stroke="#999999" points="1417.25,-24.88 1294.75,-24.88 1294.75,-5.63 1417.25,-5.63 1417.25,-24.88"/>
<text text-anchor="middle" x="1356" y="-11.38" font-family="Times,serif" font-size="10.00">mal&#45;toolkit/mal&#45;toolkit.hpp</text>
</a>
</g>
</g>
<!-- Node18&#45;&gt;Node19 -->
<g id="edge18_Node000018_Node000019" class="edge">
<title>Node18&#45;&gt;Node19</title>
<g id="a_edge18_Node000018_Node000019"><a xlink:title=" ">
<path fill="none" stroke="#63b8ff" d="M1571.84,-67.91C1530.12,-57.92 1454.34,-39.79 1404.59,-27.88"/>
<polygon fill="#63b8ff" stroke="#63b8ff" points="1405.62,-24.29 1395.08,-25.36 1403.99,-31.1 1405.62,-24.29"/>
</a>
</g>
</g>
<!-- Node20 -->
<g id="Node000020" class="node">
<title>Node20</title>
<g id="a_Node000020"><a xlink:title=" ">
<polygon fill="#e0e0e0" stroke="#999999" points="1534.25,-30.5 1435.75,-30.5 1435.75,0 1534.25,0 1534.25,-30.5"/>
<text text-anchor="start" x="1443.75" y="-17" font-family="Times,serif" font-size="10.00">boost/archive/binary</text>
<text text-anchor="middle" x="1485" y="-5.75" font-family="Times,serif" font-size="10.00">_iarchive.hpp</text>
</a>
</g>
</g>
<!-- Node18&#45;&gt;Node20 -->
<g id="edge19_Node000018_Node000020" class="edge">
<title>Node18&#45;&gt;Node20</title>
<g id="a_edge19_Node000018_Node000020"><a xlink:title=" ">
<path fill="none" stroke="#63b8ff" d="M1583.98,-66.05C1568,-58.02 1544.13,-46 1523.83,-35.79"/>
<polygon fill="#63b8ff" stroke="#63b8ff" points="1525.71,-32.31 1515.2,-30.94 1522.56,-38.57 1525.71,-32.31"/>
</a>
</g>
</g>
<!-- Node21 -->
<g id="Node000021" class="node">
<title>Node21</title>
<g id="a_Node000021"><a xlink:title=" ">
<polygon fill="#e0e0e0" stroke="#999999" points="1651.25,-30.5 1552.75,-30.5 1552.75,0 1651.25,0 1651.25,-30.5"/>
<text text-anchor="start" x="1560.75" y="-17" font-family="Times,serif" font-size="10.00">boost/archive/binary</text>
<text text-anchor="middle" x="1602" y="-5.75" font-family="Times,serif" font-size="10.00">_oarchive.hpp</text>
</a>
</g>
</g>
<!-- Node18&#45;&gt;Node21 -->
<g id="edge20_Node000018_Node000021" class="edge">
<title>Node18&#45;&gt;Node21</title>
<g id="a_edge20_Node000018_Node000021"><a xlink:title=" ">
<path fill="none" stroke="#63b8ff" d="M1602,-66.18C1602,-59.65 1602,-50.45 1602,-41.72"/>
<polygon fill="#63b8ff" stroke="#63b8ff" points="1605.5,-41.78 1602,-31.78 1598.5,-41.78 1605.5,-41.78"/>
</a>
</g>
</g>
<!-- Node22 -->
<g id="Node000022" class="node">
<title>Node22</title>
<g id="a_Node000022"><a xlink:title=" ">
<polygon fill="#e0e0e0" stroke="#999999" points="1758.75,-30.5 1669.25,-30.5 1669.25,0 1758.75,0 1758.75,-30.5"/>
<text text-anchor="start" x="1677.25" y="-17" font-family="Times,serif" font-size="10.00">boost/serialization</text>
<text text-anchor="middle" x="1714" y="-5.75" font-family="Times,serif" font-size="10.00">/base_object.hpp</text>
</a>
</g>
</g>
<!-- Node18&#45;&gt;Node22 -->
<g id="edge21_Node000018_Node000022" class="edge">
<title>Node18&#45;&gt;Node22</title>
<g id="a_edge21_Node000018_Node000022"><a xlink:title=" ">
<path fill="none" stroke="#63b8ff" d="M1619.01,-66.18C1634.3,-58.15 1657.28,-46.07 1676.81,-35.8"/>
<polygon fill="#63b8ff" stroke="#63b8ff" points="1678.13,-38.53 1685.36,-30.78 1674.87,-32.34 1678.13,-38.53"/>
</a>
</g>
</g>
<!-- Node23 -->
<g id="Node000023" class="node">
<title>Node23</title>
<g id="a_Node000023"><a xlink:title=" ">
<polygon fill="#e0e0e0" stroke="#999999" points="1866.75,-30.5 1777.25,-30.5 1777.25,0 1866.75,0 1866.75,-30.5"/>
<text text-anchor="start" x="1785.25" y="-17" font-family="Times,serif" font-size="10.00">boost/serialization</text>
<text text-anchor="middle" x="1822" y="-5.75" font-family="Times,serif" font-size="10.00">/serialization.hpp</text>
</a>
</g>
</g>
<!-- Node18&#45;&gt;Node23 -->
<g id="edge22_Node000018_Node000023" class="edge">
<title>Node18&#45;&gt;Node23</title>
<g id="a_edge22_Node000018_Node000023"><a xlink:title=" ">
<path fill="none" stroke="#63b8ff" d="M1632.59,-66.94C1667.09,-57.71 1723.92,-42.5 1766.34,-31.15"/>
<polygon fill="#63b8ff" stroke="#63b8ff" points="1767.04,-34.31 1775.79,-28.35 1765.23,-27.55 1767.04,-34.31"/>
</a>
</g>
</g>
<!-- Node24&#45;&gt;Node1 -->
<g id="edge24_Node000024_Node000001" class="edge">
<title>Node24&#45;&gt;Node1</title>
<g id="a_edge24_Node000024_Node000001"><a xlink:title=" ">
<path fill="none" stroke="#63b8ff" d="M1650.31,-207.47C1650.21,-207.48 1650.1,-207.49 1650,-207.5 1372.98,-237.01 1040.46,-254.44 902.61,-260.71"/>
<polygon fill="#63b8ff" stroke="#63b8ff" points="902.68,-257.25 892.85,-261.2 903,-264.24 902.68,-257.25"/>
</a>
</g>
</g>
</g>
</svg>
