<?xml version="1.0" encoding="UTF-8" standalone="no"?>
<!DOCTYPE svg PUBLIC "-//W3C//DTD SVG 1.1//EN"
 "http://www.w3.org/Graphics/SVG/1.1/DTD/svg11.dtd">
<!-- Generated by graphviz version 8.1.0 (20230707.0739)
 -->
<!-- Title: mal_packet_weaver::packet::node::NodeInfoRequestPacket Pages: 1 -->
<svg width="1032pt" height="252pt"
 viewBox="0.00 0.00 1031.75 252.25" xmlns="http://www.w3.org/2000/svg" xmlns:xlink="http://www.w3.org/1999/xlink">
<g id="graph0" class="graph" transform="scale(1 1) rotate(0) translate(4 248.25)">
<title>mal_packet_weaver::packet::node::NodeInfoRequestPacket</title>
<!-- Node1 -->
<g id="Node000001" class="node">
<title>Node1</title>
<g id="a_Node000001"><a xlink:title="Packet for requesting information from a node.">
<polygon fill="#999999" stroke="#666666" points="1023.75,-68.5 881.75,-68.5 881.75,-26.75 1023.75,-26.75 1023.75,-68.5"/>
<text text-anchor="start" x="889.75" y="-55" font-family="Times,serif" font-size="10.00">mal_packet_weaver::</text>
<text text-anchor="start" x="889.75" y="-43.75" font-family="Times,serif" font-size="10.00">packet::node::NodeInfoRequest</text>
<text text-anchor="middle" x="952.75" y="-32.5" font-family="Times,serif" font-size="10.00">Packet</text>
</a>
</g>
</g>
<!-- Node2 -->
<g id="Node000002" class="node">
<title>Node2</title>
<g id="a_Node000002"><a xlink:href="../../dd/d2b/classmal__packet__weaver_1_1_derived_packet.html" target="_top" xlink:title=" ">
<polygon fill="white" stroke="#666666" points="789.5,-121.5 665.5,-121.5 665.5,-79.75 789.5,-79.75 789.5,-121.5"/>
<text text-anchor="start" x="673.5" y="-108" font-family="Times,serif" font-size="10.00">mal_packet_weaver::</text>
<text text-anchor="start" x="673.5" y="-96.75" font-family="Times,serif" font-size="10.00">DerivedPacket&lt; class</text>
<text text-anchor="middle" x="727.5" y="-85.5" font-family="Times,serif" font-size="10.00"> NodeInfoRequestPacket &gt;</text>
</a>
</g>
</g>
<!-- Node2&#45;&gt;Node1 -->
<g id="edge1_Node000001_Node000002" class="edge">
<title>Node2&#45;&gt;Node1</title>
<g id="a_edge1_Node000001_Node000002"><a xlink:title=" ">
<path fill="none" stroke="#63b8ff" d="M800.34,-83.57C826.34,-77.4 855.66,-70.44 881.52,-64.3"/>
<polygon fill="#63b8ff" stroke="#63b8ff" points="799.72,-80.36 790.8,-86.07 801.34,-87.17 799.72,-80.36"/>
</a>
</g>
</g>
<!-- Node3 -->
<g id="Node000003" class="node">
<title>Node3</title>
<g id="a_Node000003"><a xlink:href="../../d2/d9d/classmal__packet__weaver_1_1_packet.html" target="_top" xlink:title="Base class for all packets.">
<polygon fill="white" stroke="#666666" points="307.25,-158.88 208,-158.88 208,-128.38 307.25,-128.38 307.25,-158.88"/>
<text text-anchor="start" x="216" y="-145.38" font-family="Times,serif" font-size="10.00">mal_packet_weaver::</text>
<text text-anchor="middle" x="257.62" y="-134.12" font-family="Times,serif" font-size="10.00">Packet</text>
</a>
</g>
</g>
<!-- Node3&#45;&gt;Node2 -->
<g id="edge2_Node000002_Node000003" class="edge">
<title>Node3&#45;&gt;Node2</title>
<g id="a_edge2_Node000002_Node000003"><a xlink:title=" ">
<path fill="none" stroke="#63b8ff" d="M318.34,-140.91C393.05,-137.12 524.8,-129.15 637,-115.62 646.23,-114.51 655.96,-113.12 665.47,-111.63"/>
<polygon fill="#63b8ff" stroke="#63b8ff" points="318.56,-137.44 308.74,-141.44 318.91,-144.44 318.56,-137.44"/>
</a>
</g>
</g>
<!-- Node9 -->
<g id="Node000009" class="node">
<title>Node9</title>
<g id="a_Node000009"><a xlink:href="../../dd/d2b/classmal__packet__weaver_1_1_derived_packet.html" target="_top" xlink:title="A templated class representing a derived packet from the base Packet class.">
<polygon fill="white" stroke="#666666" points="481.75,-115.88 344.25,-115.88 344.25,-85.38 481.75,-85.38 481.75,-115.88"/>
<text text-anchor="start" x="352.25" y="-102.38" font-family="Times,serif" font-size="10.00">mal_packet_weaver::</text>
<text text-anchor="middle" x="413" y="-91.12" font-family="Times,serif" font-size="10.00">DerivedPacket&lt; PacketType &gt;</text>
</a>
</g>
</g>
<!-- Node3&#45;&gt;Node9 -->
<g id="edge9_Node000009_Node000003" class="edge">
<title>Node3&#45;&gt;Node9</title>
<g id="a_edge9_Node000009_Node000003"><a xlink:title=" ">
<path fill="none" stroke="#63b8ff" d="M317.92,-127C330.45,-123.49 343.64,-119.79 356.04,-116.31"/>
<polygon fill="#63b8ff" stroke="#63b8ff" points="317.26,-123.83 308.58,-129.9 319.15,-130.57 317.26,-123.83"/>
</a>
</g>
</g>
<!-- Node4 -->
<g id="Node000004" class="node">
<title>Node4</title>
<g id="a_Node000004"><a xlink:title=" ">
<polygon fill="white" stroke="#666666" points="119.5,-244.25 0,-244.25 0,-225 119.5,-225 119.5,-244.25"/>
<text text-anchor="middle" x="59.75" y="-230.75" font-family="Times,serif" font-size="10.00">mal_toolkit::non_copyable</text>
</a>
</g>
</g>
<!-- Node4&#45;&gt;Node3 -->
<g id="edge3_Node000003_Node000004" class="edge">
<title>Node4&#45;&gt;Node3</title>
<g id="a_edge3_Node000003_Node000004"><a xlink:title=" ">
<path fill="none" stroke="#63b8ff" d="M103.48,-221.17C108.89,-219.36 114.34,-217.48 119.5,-215.62 151.22,-204.21 160.11,-203.22 190,-187.62 205.85,-179.35 222.65,-168.25 235.41,-159.26"/>
<polygon fill="#63b8ff" stroke="#63b8ff" points="102.61,-218.1 94.2,-224.55 104.79,-224.75 102.61,-218.1"/>
</a>
</g>
</g>
<!-- Node5 -->
<g id="Node000005" class="node">
<title>Node5</title>
<g id="a_Node000005"><a xlink:title=" ">
<polygon fill="white" stroke="#666666" points="112.75,-206.88 6.75,-206.88 6.75,-176.38 112.75,-176.38 112.75,-206.88"/>
<text text-anchor="start" x="14.75" y="-193.38" font-family="Times,serif" font-size="10.00">Measurer&lt; std::chrono</text>
<text text-anchor="middle" x="59.75" y="-182.12" font-family="Times,serif" font-size="10.00">::steady_clock &gt;</text>
</a>
</g>
</g>
<!-- Node5&#45;&gt;Node3 -->
<g id="edge4_Node000003_Node000005" class="edge">
<title>Node5&#45;&gt;Node3</title>
<g id="a_edge4_Node000003_Node000005"><a xlink:title=" ">
<path fill="none" stroke="#9a32cd" stroke-dasharray="5,2" d="M123.47,-176.78C144.62,-171.72 168.35,-165.98 190,-160.62 195.68,-159.22 201.62,-157.73 207.53,-156.24"/>
<polygon fill="#9a32cd" stroke="#9a32cd" points="122.9,-173.55 113.99,-179.28 124.53,-180.36 122.9,-173.55"/>
</a>
</g>
<text text-anchor="middle" x="163.75" y="-174.38" font-family="Times,serif" font-size="10.00" fill="grey"> measurer</text>
</g>
<!-- Node6 -->
<g id="Node000006" class="node">
<title>Node6</title>
<g id="a_Node000006"><a xlink:title=" ">
<polygon fill="white" stroke="#666666" points="111.62,-158.25 7.88,-158.25 7.88,-139 111.62,-139 111.62,-158.25"/>
<text text-anchor="middle" x="59.75" y="-144.75" font-family="Times,serif" font-size="10.00">const UniquePacketID</text>
</a>
</g>
</g>
<!-- Node6&#45;&gt;Node3 -->
<g id="edge5_Node000003_Node000006" class="edge">
<title>Node6&#45;&gt;Node3</title>
<g id="a_edge5_Node000003_Node000006"><a xlink:title=" ">
<path fill="none" stroke="#9a32cd" stroke-dasharray="5,2" d="M122.64,-147.05C150.11,-146.34 181.98,-145.53 207.74,-144.87"/>
<polygon fill="#9a32cd" stroke="#9a32cd" points="122.87,-143.56 112.96,-147.32 123.04,-150.56 122.87,-143.56"/>
</a>
</g>
<text text-anchor="middle" x="163.75" y="-147.38" font-family="Times,serif" font-size="10.00" fill="grey"> type</text>
</g>
<!-- Node7 -->
<g id="Node000007" class="node">
<title>Node7</title>
<g id="a_Node000007"><a xlink:title=" ">
<polygon fill="white" stroke="#666666" points="88,-121.25 31.5,-121.25 31.5,-102 88,-102 88,-121.25"/>
<text text-anchor="middle" x="59.75" y="-107.75" font-family="Times,serif" font-size="10.00">const float</text>
</a>
</g>
</g>
<!-- Node7&#45;&gt;Node3 -->
<g id="edge6_Node000003_Node000007" class="edge">
<title>Node7&#45;&gt;Node3</title>
<g id="a_edge6_Node000003_Node000007"><a xlink:title=" ">
<path fill="none" stroke="#9a32cd" stroke-dasharray="5,2" d="M98.89,-116.11C124.69,-119.33 159.49,-124.02 190,-129.38 195.71,-130.38 201.67,-131.52 207.59,-132.7"/>
<polygon fill="#9a32cd" stroke="#9a32cd" points="99.43,-112.52 89.07,-114.78 98.57,-119.47 99.43,-112.52"/>
</a>
</g>
<text text-anchor="middle" x="163.75" y="-130.38" font-family="Times,serif" font-size="10.00" fill="grey"> time_to_live</text>
</g>
<!-- Node8 -->
<g id="Node000008" class="node">
<title>Node8</title>
<g id="a_Node000008"><a xlink:title=" ">
<polygon fill="white" stroke="#666666" points="76.75,-71.25 42.75,-71.25 42.75,-52 76.75,-52 76.75,-71.25"/>
<text text-anchor="middle" x="59.75" y="-57.75" font-family="Times,serif" font-size="10.00">float</text>
</a>
</g>
</g>
<!-- Node8&#45;&gt;Node1 -->
<g id="edge11_Node000001_Node000008" class="edge">
<title>Node8&#45;&gt;Node1</title>
<g id="a_edge11_Node000001_Node000008"><a xlink:title=" ">
<path fill="none" stroke="#9a32cd" stroke-dasharray="5,2" d="M87.85,-58.46C125.61,-54.33 196.22,-47.62 256.62,-47.62 256.62,-47.62 256.62,-47.62 728.5,-47.62 779.66,-47.62 837.42,-47.62 881.37,-47.62"/>
<polygon fill="#9a32cd" stroke="#9a32cd" points="87.78,-55.06 78.23,-59.65 88.56,-62.01 87.78,-55.06"/>
</a>
</g>
<text text-anchor="middle" x="413" y="-49.38" font-family="Times,serif" font-size="10.00" fill="grey"> time_to_live</text>
</g>
<!-- Node8&#45;&gt;Node3 -->
<g id="edge7_Node000003_Node000008" class="edge">
<title>Node8&#45;&gt;Node3</title>
<g id="a_edge7_Node000003_Node000008"><a xlink:title=" ">
<path fill="none" stroke="#9a32cd" stroke-dasharray="5,2" d="M87.44,-69C113.99,-76.72 155.61,-89.86 190,-105.38 204.35,-111.85 219.62,-120.48 231.92,-127.91"/>
<polygon fill="#9a32cd" stroke="#9a32cd" points="88.63,-65.41 78.05,-66.03 86.71,-72.15 88.63,-65.41"/>
</a>
</g>
<text text-anchor="middle" x="163.75" y="-106.38" font-family="Times,serif" font-size="10.00" fill="grey"> timestamp_</text>
</g>
<!-- Node9&#45;&gt;Node2 -->
<g id="edge8_Node000002_Node000009" class="edge">
<title>Node9&#45;&gt;Node2</title>
<g id="a_edge8_Node000002_Node000009"><a xlink:title=" ">
<path fill="none" stroke="orange" stroke-dasharray="5,2" d="M492.99,-100.62C546.36,-100.62 615.82,-100.62 665.07,-100.62"/>
<polygon fill="orange" stroke="orange" points="493.19,-97.13 483.19,-100.62 493.19,-104.13 493.19,-97.13"/>
</a>
</g>
<text text-anchor="middle" x="568.38" y="-102.38" font-family="Times,serif" font-size="10.00" fill="grey"> &lt; class NodeInfoRequestPacket &gt;</text>
</g>
<!-- Node10 -->
<g id="Node000010" class="node">
<title>Node10</title>
<g id="a_Node000010"><a xlink:title=" ">
<polygon fill="white" stroke="#666666" points="800,-19.25 655,-19.25 655,0 800,0 800,-19.25"/>
<text text-anchor="middle" x="727.5" y="-5.75" font-family="Times,serif" font-size="10.00">static constexpr UniquePacketID</text>
</a>
</g>
</g>
<!-- Node10&#45;&gt;Node1 -->
<g id="edge10_Node000001_Node000010" class="edge">
<title>Node10&#45;&gt;Node1</title>
<g id="a_edge10_Node000001_Node000010"><a xlink:title=" ">
<path fill="none" stroke="#9a32cd" stroke-dasharray="5,2" d="M811.18,-14.97C828.63,-16.78 846.86,-19.18 863.75,-22.38 869.68,-23.5 875.8,-24.84 881.9,-26.32"/>
<polygon fill="#9a32cd" stroke="#9a32cd" points="811.74,-11.41 801.44,-13.91 811.05,-18.37 811.74,-11.41"/>
</a>
</g>
<text text-anchor="middle" x="840.88" y="-24.38" font-family="Times,serif" font-size="10.00" fill="grey"> static_type</text>
</g>
</g>
</svg>
