<?xml version="1.0" encoding="UTF-8" standalone="no"?>
<!DOCTYPE svg PUBLIC "-//W3C//DTD SVG 1.1//EN"
 "http://www.w3.org/Graphics/SVG/1.1/DTD/svg11.dtd">
<!-- Generated by graphviz version 8.1.0 (20230707.0739)
 -->
<!-- Title: mal&#45;packet&#45;weaver/mal&#45;packet&#45;weaver/packets/packet&#45;crypto.hpp Pages: 1 -->
<svg width="1667pt" height="293pt"
 viewBox="0.00 0.00 1667.38 293.25" xmlns="http://www.w3.org/2000/svg" xmlns:xlink="http://www.w3.org/1999/xlink">
<g id="graph0" class="graph" transform="scale(1 1) rotate(0) translate(4 289.25)">
<title>mal&#45;packet&#45;weaver/mal&#45;packet&#45;weaver/packets/packet&#45;crypto.hpp</title>
<!-- Node1 -->
<g id="Node000001" class="node">
<title>Node1</title>
<g id="a_Node000001"><a xlink:title=" ">
<polygon fill="#999999" stroke="#666666" points="852.75,-285.25 743.75,-285.25 743.75,-243.5 852.75,-243.5 852.75,-285.25"/>
<text text-anchor="start" x="751.75" y="-271.75" font-family="Times,serif" font-size="10.00">mal&#45;packet&#45;weaver/mal</text>
<text text-anchor="start" x="751.75" y="-260.5" font-family="Times,serif" font-size="10.00">&#45;packet&#45;weaver/packets</text>
<text text-anchor="middle" x="798.25" y="-249.25" font-family="Times,serif" font-size="10.00">/packet&#45;crypto.hpp</text>
</a>
</g>
</g>
<!-- Node2 -->
<g id="Node000002" class="node">
<title>Node2</title>
<g id="a_Node000002"><a xlink:href="../../d2/d3f/packet_8hpp.html" target="_top" xlink:title=" ">
<polygon fill="white" stroke="#666666" points="631.12,-207.5 563.38,-207.5 563.38,-188.25 631.12,-188.25 631.12,-207.5"/>
<text text-anchor="middle" x="597.25" y="-194" font-family="Times,serif" font-size="10.00">../packet.hpp</text>
</a>
</g>
</g>
<!-- Node1&#45;&gt;Node2 -->
<g id="edge1_Node000001_Node000002" class="edge">
<title>Node1&#45;&gt;Node2</title>
<g id="a_edge1_Node000001_Node000002"><a xlink:title=" ">
<path fill="none" stroke="#63b8ff" d="M743.33,-245.75C709.22,-234.81 666.23,-221.01 635.74,-211.23"/>
<polygon fill="#63b8ff" stroke="#63b8ff" points="637.11,-207.67 626.52,-207.95 634.97,-214.33 637.11,-207.67"/>
</a>
</g>
</g>
<!-- Node10 -->
<g id="Node000010" class="node">
<title>Node10</title>
<g id="a_Node000010"><a xlink:href="../../d7/d87/crypto_2common_8hpp.html" target="_top" xlink:title=" ">
<polygon fill="white" stroke="#666666" points="1030.5,-146.62 926,-146.62 926,-127.38 1030.5,-127.38 1030.5,-146.62"/>
<text text-anchor="middle" x="978.25" y="-133.12" font-family="Times,serif" font-size="10.00">../crypto/common.hpp</text>
</a>
</g>
</g>
<!-- Node1&#45;&gt;Node10 -->
<g id="edge9_Node000001_Node000010" class="edge">
<title>Node1&#45;&gt;Node10</title>
<g id="a_edge9_Node000001_Node000010"><a xlink:title=" ">
<path fill="none" stroke="#63b8ff" d="M827.17,-243.23C863.35,-218.03 924.46,-175.46 956.76,-152.97"/>
<polygon fill="#63b8ff" stroke="#63b8ff" points="958.23,-155.52 964.43,-146.93 954.23,-149.77 958.23,-155.52"/>
</a>
</g>
</g>
<!-- Node13 -->
<g id="Node000013" class="node">
<title>Node13</title>
<g id="a_Node000013"><a xlink:title=" ">
<polygon fill="#e0e0e0" stroke="#999999" points="968.62,-24.88 837.88,-24.88 837.88,-5.63 968.62,-5.63 968.62,-24.88"/>
<text text-anchor="middle" x="903.25" y="-11.38" font-family="Times,serif" font-size="10.00">boost/endian/conversion.hpp</text>
</a>
</g>
</g>
<!-- Node1&#45;&gt;Node13 -->
<g id="edge37_Node000001_Node000013" class="edge">
<title>Node1&#45;&gt;Node13</title>
<g id="a_edge37_Node000001_Node000013"><a xlink:title=" ">
<path fill="none" stroke="#63b8ff" d="M770.84,-243.16C723.84,-206.06 637.25,-125.51 684.25,-66.5 689.38,-60.06 783.15,-40.23 846.31,-27.49"/>
<polygon fill="#63b8ff" stroke="#63b8ff" points="846.83,-30.75 855.94,-25.35 845.45,-23.89 846.83,-30.75"/>
</a>
</g>
</g>
<!-- Node24 -->
<g id="Node000024" class="node">
<title>Node24</title>
<g id="a_Node000024"><a xlink:href="../../d8/d6d/sha_8hpp.html" target="_top" xlink:title=" ">
<polygon fill="white" stroke="#666666" points="1274.38,-207.5 1190.12,-207.5 1190.12,-188.25 1274.38,-188.25 1274.38,-207.5"/>
<text text-anchor="middle" x="1232.25" y="-194" font-family="Times,serif" font-size="10.00">../crypto/sha.hpp</text>
</a>
</g>
</g>
<!-- Node1&#45;&gt;Node24 -->
<g id="edge27_Node000001_Node000024" class="edge">
<title>Node1&#45;&gt;Node24</title>
<g id="a_edge27_Node000001_Node000024"><a xlink:title=" ">
<path fill="none" stroke="#63b8ff" d="M853.22,-255.21C937.15,-242.73 1096.22,-219.09 1179.07,-206.78"/>
<polygon fill="#63b8ff" stroke="#63b8ff" points="1179.38,-210.12 1188.76,-205.19 1178.35,-203.2 1179.38,-210.12"/>
</a>
</g>
</g>
<!-- Node3 -->
<g id="Node000003" class="node">
<title>Node3</title>
<g id="a_Node000003"><a xlink:href="../../d3/d53/packet-factory_8hpp.html" target="_top" xlink:title=" ">
<polygon fill="white" stroke="#666666" points="534.62,-152.25 439.88,-152.25 439.88,-121.75 534.62,-121.75 534.62,-152.25"/>
<text text-anchor="start" x="447.88" y="-138.75" font-family="Times,serif" font-size="10.00">packet_impl/packet</text>
<text text-anchor="middle" x="487.25" y="-127.5" font-family="Times,serif" font-size="10.00">&#45;factory.hpp</text>
</a>
</g>
</g>
<!-- Node2&#45;&gt;Node3 -->
<g id="edge2_Node000002_Node000003" class="edge">
<title>Node2&#45;&gt;Node3</title>
<g id="a_edge2_Node000002_Node000003"><a xlink:title=" ">
<path fill="none" stroke="#63b8ff" d="M580.54,-187.93C565.6,-179.93 543.17,-167.93 524.04,-157.69"/>
<polygon fill="#63b8ff" stroke="#63b8ff" points="525.87,-154.17 515.4,-152.53 522.57,-160.34 525.87,-154.17"/>
</a>
</g>
</g>
<!-- Node4 -->
<g id="Node000004" class="node">
<title>Node4</title>
<g id="a_Node000004"><a xlink:href="../../d9/d85/packet__impl_2packet_8hpp.html" target="_top" xlink:title=" ">
<polygon fill="white" stroke="#666666" points="357.38,-85.75 297.12,-85.75 297.12,-66.5 357.38,-66.5 357.38,-85.75"/>
<text text-anchor="middle" x="327.25" y="-72.25" font-family="Times,serif" font-size="10.00">packet.hpp</text>
</a>
</g>
</g>
<!-- Node3&#45;&gt;Node4 -->
<g id="edge3_Node000003_Node000004" class="edge">
<title>Node3&#45;&gt;Node4</title>
<g id="a_edge3_Node000003_Node000004"><a xlink:title=" ">
<path fill="none" stroke="#63b8ff" d="M447.29,-121.3C421.05,-111.64 387.06,-99.13 361.96,-89.9"/>
<polygon fill="#63b8ff" stroke="#63b8ff" points="363.38,-86.32 352.79,-86.15 360.96,-92.89 363.38,-86.32"/>
</a>
</g>
</g>
<!-- Node5 -->
<g id="Node000005" class="node">
<title>Node5</title>
<g id="a_Node000005"><a xlink:title=" ">
<polygon fill="#e0e0e0" stroke="#999999" points="86.5,-24.88 0,-24.88 0,-5.63 86.5,-5.63 86.5,-24.88"/>
<text text-anchor="middle" x="43.25" y="-11.38" font-family="Times,serif" font-size="10.00">../../utils/utils.hpp</text>
</a>
</g>
</g>
<!-- Node4&#45;&gt;Node5 -->
<g id="edge4_Node000004_Node000005" class="edge">
<title>Node4&#45;&gt;Node5</title>
<g id="a_edge4_Node000004_Node000005"><a xlink:title=" ">
<path fill="none" stroke="#63b8ff" d="M296.83,-69.97C252.52,-62.29 167.69,-46.98 96.25,-30.5 93.01,-29.75 89.67,-28.95 86.32,-28.11"/>
<polygon fill="#63b8ff" stroke="#63b8ff" points="87.23,-24.47 76.67,-25.36 85.48,-31.25 87.23,-24.47"/>
</a>
</g>
</g>
<!-- Node6 -->
<g id="Node000006" class="node">
<title>Node6</title>
<g id="a_Node000006"><a xlink:title=" ">
<polygon fill="#e0e0e0" stroke="#999999" points="203.5,-30.5 105,-30.5 105,0 203.5,0 203.5,-30.5"/>
<text text-anchor="start" x="113" y="-17" font-family="Times,serif" font-size="10.00">boost/archive/binary</text>
<text text-anchor="middle" x="154.25" y="-5.75" font-family="Times,serif" font-size="10.00">_iarchive.hpp</text>
</a>
</g>
</g>
<!-- Node4&#45;&gt;Node6 -->
<g id="edge5_Node000004_Node000006" class="edge">
<title>Node4&#45;&gt;Node6</title>
<g id="a_edge5_Node000004_Node000006"><a xlink:title=" ">
<path fill="none" stroke="#63b8ff" d="M300.6,-66.05C275.9,-57.65 238.44,-44.9 207.61,-34.41"/>
<polygon fill="#63b8ff" stroke="#63b8ff" points="209.02,-30.85 198.43,-30.94 206.77,-37.48 209.02,-30.85"/>
</a>
</g>
</g>
<!-- Node7 -->
<g id="Node000007" class="node">
<title>Node7</title>
<g id="a_Node000007"><a xlink:title=" ">
<polygon fill="#e0e0e0" stroke="#999999" points="320.5,-30.5 222,-30.5 222,0 320.5,0 320.5,-30.5"/>
<text text-anchor="start" x="230" y="-17" font-family="Times,serif" font-size="10.00">boost/archive/binary</text>
<text text-anchor="middle" x="271.25" y="-5.75" font-family="Times,serif" font-size="10.00">_oarchive.hpp</text>
</a>
</g>
</g>
<!-- Node4&#45;&gt;Node7 -->
<g id="edge6_Node000004_Node000007" class="edge">
<title>Node4&#45;&gt;Node7</title>
<g id="a_edge6_Node000004_Node000007"><a xlink:title=" ">
<path fill="none" stroke="#63b8ff" d="M318.74,-66.18C311.76,-58.84 301.58,-48.13 292.42,-38.51"/>
<polygon fill="#63b8ff" stroke="#63b8ff" points="295.5,-36.62 286.07,-31.78 290.43,-41.44 295.5,-36.62"/>
</a>
</g>
</g>
<!-- Node8 -->
<g id="Node000008" class="node">
<title>Node8</title>
<g id="a_Node000008"><a xlink:title=" ">
<polygon fill="#e0e0e0" stroke="#999999" points="428,-30.5 338.5,-30.5 338.5,0 428,0 428,-30.5"/>
<text text-anchor="start" x="346.5" y="-17" font-family="Times,serif" font-size="10.00">boost/serialization</text>
<text text-anchor="middle" x="383.25" y="-5.75" font-family="Times,serif" font-size="10.00">/base_object.hpp</text>
</a>
</g>
</g>
<!-- Node4&#45;&gt;Node8 -->
<g id="edge7_Node000004_Node000008" class="edge">
<title>Node4&#45;&gt;Node8</title>
<g id="a_edge7_Node000004_Node000008"><a xlink:title=" ">
<path fill="none" stroke="#63b8ff" d="M335.76,-66.18C342.74,-58.84 352.92,-48.13 362.08,-38.51"/>
<polygon fill="#63b8ff" stroke="#63b8ff" points="364.07,-41.44 368.43,-31.78 359,-36.62 364.07,-41.44"/>
</a>
</g>
</g>
<!-- Node9 -->
<g id="Node000009" class="node">
<title>Node9</title>
<g id="a_Node000009"><a xlink:title=" ">
<polygon fill="#e0e0e0" stroke="#999999" points="536,-30.5 446.5,-30.5 446.5,0 536,0 536,-30.5"/>
<text text-anchor="start" x="454.5" y="-17" font-family="Times,serif" font-size="10.00">boost/serialization</text>
<text text-anchor="middle" x="491.25" y="-5.75" font-family="Times,serif" font-size="10.00">/serialization.hpp</text>
</a>
</g>
</g>
<!-- Node4&#45;&gt;Node9 -->
<g id="edge8_Node000004_Node000009" class="edge">
<title>Node4&#45;&gt;Node9</title>
<g id="a_edge8_Node000004_Node000009"><a xlink:title=" ">
<path fill="none" stroke="#63b8ff" d="M352.52,-66.05C375.82,-57.69 411.13,-45.01 440.29,-34.54"/>
<polygon fill="#63b8ff" stroke="#63b8ff" points="441.09,-37.62 449.32,-30.94 438.72,-31.03 441.09,-37.62"/>
</a>
</g>
</g>
<!-- Node11 -->
<g id="Node000011" class="node">
<title>Node11</title>
<g id="a_Node000011"><a xlink:href="../../dd/d3a/common_8hpp.html" target="_top" xlink:title=" ">
<polygon fill="white" stroke="#666666" points="636.88,-85.75 561.62,-85.75 561.62,-66.5 636.88,-66.5 636.88,-85.75"/>
<text text-anchor="middle" x="599.25" y="-72.25" font-family="Times,serif" font-size="10.00">../common.hpp</text>
</a>
</g>
</g>
<!-- Node10&#45;&gt;Node11 -->
<g id="edge10_Node000010_Node000011" class="edge">
<title>Node10&#45;&gt;Node11</title>
<g id="a_edge10_Node000010_Node000011"><a xlink:title=" ">
<path fill="none" stroke="#63b8ff" d="M925.55,-127.81C851.84,-116.36 719,-95.73 647.67,-84.65"/>
<polygon fill="#63b8ff" stroke="#63b8ff" points="648.6,-81.09 638.18,-83.02 647.53,-88.01 648.6,-81.09"/>
</a>
</g>
</g>
<!-- Node17 -->
<g id="Node000017" class="node">
<title>Node17</title>
<g id="a_Node000017"><a xlink:title=" ">
<polygon fill="#e0e0e0" stroke="#999999" points="795,-85.75 693.5,-85.75 693.5,-66.5 795,-66.5 795,-85.75"/>
<text text-anchor="middle" x="744.25" y="-72.25" font-family="Times,serif" font-size="10.00">openssl/core_names.h</text>
</a>
</g>
</g>
<!-- Node10&#45;&gt;Node17 -->
<g id="edge20_Node000010_Node000017" class="edge">
<title>Node10&#45;&gt;Node17</title>
<g id="a_edge20_Node000010_Node000017"><a xlink:title=" ">
<path fill="none" stroke="#63b8ff" d="M942.2,-126.93C901.58,-116.71 835.42,-100.06 790.89,-88.86"/>
<polygon fill="#63b8ff" stroke="#63b8ff" points="791.89,-85.25 781.34,-86.21 790.18,-92.04 791.89,-85.25"/>
</a>
</g>
</g>
<!-- Node18 -->
<g id="Node000018" class="node">
<title>Node18</title>
<g id="a_Node000018"><a xlink:title=" ">
<polygon fill="#e0e0e0" stroke="#999999" points="879,-85.75 813.5,-85.75 813.5,-66.5 879,-66.5 879,-85.75"/>
<text text-anchor="middle" x="846.25" y="-72.25" font-family="Times,serif" font-size="10.00">openssl/dh.h</text>
</a>
</g>
</g>
<!-- Node10&#45;&gt;Node18 -->
<g id="edge21_Node000010_Node000018" class="edge">
<title>Node10&#45;&gt;Node18</title>
<g id="a_edge21_Node000010_Node000018"><a xlink:title=" ">
<path fill="none" stroke="#63b8ff" d="M957.91,-126.93C936.15,-117.22 901.38,-101.71 876.42,-90.58"/>
<polygon fill="#63b8ff" stroke="#63b8ff" points="877.95,-86.99 867.39,-86.11 875.1,-93.38 877.95,-86.99"/>
</a>
</g>
</g>
<!-- Node19 -->
<g id="Node000019" class="node">
<title>Node19</title>
<g id="a_Node000019"><a xlink:title=" ">
<polygon fill="#e0e0e0" stroke="#999999" points="1159.5,-85.75 1085,-85.75 1085,-66.5 1159.5,-66.5 1159.5,-85.75"/>
<text text-anchor="middle" x="1122.25" y="-72.25" font-family="Times,serif" font-size="10.00">openssl/ecdh.h</text>
</a>
</g>
</g>
<!-- Node10&#45;&gt;Node19 -->
<g id="edge22_Node000010_Node000019" class="edge">
<title>Node10&#45;&gt;Node19</title>
<g id="a_edge22_Node000010_Node000019"><a xlink:title=" ">
<path fill="none" stroke="#63b8ff" d="M1000.43,-126.93C1024.5,-117.09 1063.13,-101.3 1090.42,-90.14"/>
<polygon fill="#63b8ff" stroke="#63b8ff" points="1091.35,-93.13 1099.28,-86.11 1088.7,-86.65 1091.35,-93.13"/>
</a>
</g>
</g>
<!-- Node20 -->
<g id="Node000020" class="node">
<title>Node20</title>
<g id="a_Node000020"><a xlink:title=" ">
<polygon fill="#e0e0e0" stroke="#999999" points="1246.88,-85.75 1177.62,-85.75 1177.62,-66.5 1246.88,-66.5 1246.88,-85.75"/>
<text text-anchor="middle" x="1212.25" y="-72.25" font-family="Times,serif" font-size="10.00">openssl/evp.h</text>
</a>
</g>
</g>
<!-- Node10&#45;&gt;Node20 -->
<g id="edge23_Node000010_Node000020" class="edge">
<title>Node10&#45;&gt;Node20</title>
<g id="a_edge23_Node000010_Node000020"><a xlink:title=" ">
<path fill="none" stroke="#63b8ff" d="M1014.3,-126.93C1055.28,-116.62 1122.24,-99.77 1166.78,-88.57"/>
<polygon fill="#63b8ff" stroke="#63b8ff" points="1167.46,-91.75 1176.31,-85.92 1165.75,-84.96 1167.46,-91.75"/>
</a>
</g>
</g>
<!-- Node21 -->
<g id="Node000021" class="node">
<title>Node21</title>
<g id="a_Node000021"><a xlink:title=" ">
<polygon fill="#e0e0e0" stroke="#999999" points="965.5,-85.75 897,-85.75 897,-66.5 965.5,-66.5 965.5,-85.75"/>
<text text-anchor="middle" x="931.25" y="-72.25" font-family="Times,serif" font-size="10.00">openssl/kdf.h</text>
</a>
</g>
</g>
<!-- Node10&#45;&gt;Node21 -->
<g id="edge24_Node000010_Node000021" class="edge">
<title>Node10&#45;&gt;Node21</title>
<g id="a_edge24_Node000010_Node000021"><a xlink:title=" ">
<path fill="none" stroke="#63b8ff" d="M971.11,-127.06C964.28,-118.5 953.78,-105.35 945.28,-94.7"/>
<polygon fill="#63b8ff" stroke="#63b8ff" points="947.43,-92.78 938.46,-87.15 941.96,-97.15 947.43,-92.78"/>
</a>
</g>
</g>
<!-- Node22 -->
<g id="Node000022" class="node">
<title>Node22</title>
<g id="a_Node000022"><a xlink:title=" ">
<polygon fill="#e0e0e0" stroke="#999999" points="1067.38,-85.75 983.12,-85.75 983.12,-66.5 1067.38,-66.5 1067.38,-85.75"/>
<text text-anchor="middle" x="1025.25" y="-72.25" font-family="Times,serif" font-size="10.00">openssl/params.h</text>
</a>
</g>
</g>
<!-- Node10&#45;&gt;Node22 -->
<g id="edge25_Node000010_Node000022" class="edge">
<title>Node10&#45;&gt;Node22</title>
<g id="a_edge25_Node000010_Node000022"><a xlink:title=" ">
<path fill="none" stroke="#63b8ff" d="M985.39,-127.06C992.22,-118.5 1002.72,-105.35 1011.22,-94.7"/>
<polygon fill="#63b8ff" stroke="#63b8ff" points="1014.54,-97.15 1018.04,-87.15 1009.07,-92.78 1014.54,-97.15"/>
</a>
</g>
</g>
<!-- Node23 -->
<g id="Node000023" class="node">
<title>Node23</title>
<g id="a_Node000023"><a xlink:title=" ">
<polygon fill="#e0e0e0" stroke="#999999" points="1333.5,-85.75 1265,-85.75 1265,-66.5 1333.5,-66.5 1333.5,-85.75"/>
<text text-anchor="middle" x="1299.25" y="-72.25" font-family="Times,serif" font-size="10.00">openssl/sha.h</text>
</a>
</g>
</g>
<!-- Node10&#45;&gt;Node23 -->
<g id="edge26_Node000010_Node000023" class="edge">
<title>Node10&#45;&gt;Node23</title>
<g id="a_edge26_Node000010_Node000023"><a xlink:title=" ">
<path fill="none" stroke="#63b8ff" d="M1030.31,-126.9C1083.92,-117.45 1170.16,-102.07 1253.81,-86.19"/>
<polygon fill="#63b8ff" stroke="#63b8ff" points="1254.36,-89.46 1263.53,-84.15 1253.05,-82.58 1254.36,-89.46"/>
</a>
</g>
</g>
<!-- Node11&#45;&gt;Node6 -->
<g id="edge11_Node000011_Node000006" class="edge">
<title>Node11&#45;&gt;Node6</title>
<g id="a_edge11_Node000011_Node000006"><a xlink:title=" ">
<path fill="none" stroke="#63b8ff" d="M561.22,-72.28C493.57,-66.87 347.73,-53.72 214.52,-30.57"/>
<polygon fill="#63b8ff" stroke="#63b8ff" points="215.19,-26.95 204.73,-28.66 213.97,-33.85 215.19,-26.95"/>
</a>
</g>
</g>
<!-- Node11&#45;&gt;Node7 -->
<g id="edge12_Node000011_Node000007" class="edge">
<title>Node11&#45;&gt;Node7</title>
<g id="a_edge12_Node000011_Node000007"><a xlink:title=" ">
<path fill="none" stroke="#63b8ff" d="M561.52,-69.83C511.21,-62.56 419.18,-48.55 331.53,-30.88"/>
<polygon fill="#63b8ff" stroke="#63b8ff" points="332.36,-27.27 321.87,-28.71 330.97,-34.13 332.36,-27.27"/>
</a>
</g>
</g>
<!-- Node11&#45;&gt;Node8 -->
<g id="edge13_Node000011_Node000008" class="edge">
<title>Node11&#45;&gt;Node8</title>
<g id="a_edge13_Node000011_Node000008"><a xlink:title=" ">
<path fill="none" stroke="#63b8ff" d="M565.97,-66.05C532.08,-56.82 478.93,-42.33 438.67,-31.36"/>
<polygon fill="#63b8ff" stroke="#63b8ff" points="439.78,-27.76 429.21,-28.5 437.94,-34.51 439.78,-27.76"/>
</a>
</g>
</g>
<!-- Node11&#45;&gt;Node9 -->
<g id="edge14_Node000011_Node000009" class="edge">
<title>Node11&#45;&gt;Node9</title>
<g id="a_edge14_Node000011_Node000009"><a xlink:title=" ">
<path fill="none" stroke="#63b8ff" d="M582.85,-66.18C568.17,-58.18 546.15,-46.18 527.37,-35.94"/>
<polygon fill="#63b8ff" stroke="#63b8ff" points="529.36,-32.5 518.91,-30.78 526.01,-38.64 529.36,-32.5"/>
</a>
</g>
</g>
<!-- Node12 -->
<g id="Node000012" class="node">
<title>Node12</title>
<g id="a_Node000012"><a xlink:title=" ">
<polygon fill="#e0e0e0" stroke="#999999" points="644,-30.5 554.5,-30.5 554.5,0 644,0 644,-30.5"/>
<text text-anchor="start" x="562.5" y="-17" font-family="Times,serif" font-size="10.00">boost/serialization</text>
<text text-anchor="middle" x="599.25" y="-5.75" font-family="Times,serif" font-size="10.00">/vector.hpp</text>
</a>
</g>
</g>
<!-- Node11&#45;&gt;Node12 -->
<g id="edge15_Node000011_Node000012" class="edge">
<title>Node11&#45;&gt;Node12</title>
<g id="a_edge15_Node000011_Node000012"><a xlink:title=" ">
<path fill="none" stroke="#63b8ff" d="M599.25,-66.18C599.25,-59.65 599.25,-50.45 599.25,-41.72"/>
<polygon fill="#63b8ff" stroke="#63b8ff" points="602.75,-41.78 599.25,-31.78 595.75,-41.78 602.75,-41.78"/>
</a>
</g>
</g>
<!-- Node11&#45;&gt;Node13 -->
<g id="edge16_Node000011_Node000013" class="edge">
<title>Node11&#45;&gt;Node13</title>
<g id="a_edge16_Node000011_Node000013"><a xlink:title=" ">
<path fill="none" stroke="#63b8ff" d="M637.14,-67.79C689.46,-57.65 784.31,-39.28 845.5,-27.43"/>
<polygon fill="#63b8ff" stroke="#63b8ff" points="845.99,-30.71 855.14,-25.37 844.66,-23.84 845.99,-30.71"/>
</a>
</g>
</g>
<!-- Node14 -->
<g id="Node000014" class="node">
<title>Node14</title>
<g id="a_Node000014"><a xlink:title=" ">
<polygon fill="#e0e0e0" stroke="#999999" points="708.25,-24.88 662.25,-24.88 662.25,-5.63 708.25,-5.63 708.25,-24.88"/>
<text text-anchor="middle" x="685.25" y="-11.38" font-family="Times,serif" font-size="10.00">cstddef</text>
</a>
</g>
</g>
<!-- Node11&#45;&gt;Node14 -->
<g id="edge17_Node000011_Node000014" class="edge">
<title>Node11&#45;&gt;Node14</title>
<g id="a_edge17_Node000011_Node000014"><a xlink:title=" ">
<path fill="none" stroke="#63b8ff" d="M612.31,-66.18C625.82,-56.93 647.17,-42.32 663.28,-31.29"/>
<polygon fill="#63b8ff" stroke="#63b8ff" points="664.79,-33.81 671.07,-25.28 660.84,-28.04 664.79,-33.81"/>
</a>
</g>
</g>
<!-- Node15 -->
<g id="Node000015" class="node">
<title>Node15</title>
<g id="a_Node000015"><a xlink:title=" ">
<polygon fill="#e0e0e0" stroke="#999999" points="760.62,-24.88 725.88,-24.88 725.88,-5.63 760.62,-5.63 760.62,-24.88"/>
<text text-anchor="middle" x="743.25" y="-11.38" font-family="Times,serif" font-size="10.00">span</text>
</a>
</g>
</g>
<!-- Node11&#45;&gt;Node15 -->
<g id="edge18_Node000011_Node000015" class="edge">
<title>Node11&#45;&gt;Node15</title>
<g id="a_edge18_Node000011_Node000015"><a xlink:title=" ">
<path fill="none" stroke="#63b8ff" d="M626.4,-66.07C650.61,-57.72 686.81,-44.51 717.25,-30.5 717.46,-30.4 717.67,-30.31 717.88,-30.21"/>
<polygon fill="#63b8ff" stroke="#63b8ff" points="719.14,-32.99 726.48,-25.35 715.98,-26.74 719.14,-32.99"/>
</a>
</g>
</g>
<!-- Node16 -->
<g id="Node000016" class="node">
<title>Node16</title>
<g id="a_Node000016"><a xlink:title=" ">
<polygon fill="#e0e0e0" stroke="#999999" points="819.62,-24.88 778.88,-24.88 778.88,-5.63 819.62,-5.63 819.62,-24.88"/>
<text text-anchor="middle" x="799.25" y="-11.38" font-family="Times,serif" font-size="10.00">vector</text>
</a>
</g>
</g>
<!-- Node11&#45;&gt;Node16 -->
<g id="edge19_Node000011_Node000016" class="edge">
<title>Node11&#45;&gt;Node16</title>
<g id="a_edge19_Node000011_Node000016"><a xlink:title=" ">
<path fill="none" stroke="#63b8ff" d="M637.35,-67.27C672.21,-59.58 724.97,-46.67 769.25,-30.5 770.15,-30.17 771.06,-29.83 771.98,-29.47"/>
<polygon fill="#63b8ff" stroke="#63b8ff" points="772.93,-32.43 780.72,-25.25 770.15,-26.01 772.93,-32.43"/>
</a>
</g>
</g>
<!-- Node24&#45;&gt;Node10 -->
<g id="edge29_Node000024_Node000010" class="edge">
<title>Node24&#45;&gt;Node10</title>
<g id="a_edge29_Node000024_Node000010"><a xlink:title=" ">
<path fill="none" stroke="#63b8ff" d="M1193.12,-187.8C1148.74,-177.52 1076.3,-160.73 1027.96,-149.52"/>
<polygon fill="#63b8ff" stroke="#63b8ff" points="1028.96,-145.93 1018.43,-147.08 1027.38,-152.75 1028.96,-145.93"/>
</a>
</g>
</g>
<!-- Node24&#45;&gt;Node19 -->
<g id="edge32_Node000024_Node000019" class="edge">
<title>Node24&#45;&gt;Node19</title>
<g id="a_edge32_Node000024_Node000019"><a xlink:title=" ">
<path fill="none" stroke="#63b8ff" d="M1219.23,-187.8C1207.56,-179.33 1190.3,-165.97 1177.25,-152.25 1160.25,-134.38 1143.98,-111.13 1133.6,-95.25"/>
<polygon fill="#63b8ff" stroke="#63b8ff" points="1136.03,-93.55 1127.69,-87.02 1130.13,-97.33 1136.03,-93.55"/>
</a>
</g>
</g>
<!-- Node24&#45;&gt;Node20 -->
<g id="edge34_Node000024_Node000020" class="edge">
<title>Node24&#45;&gt;Node20</title>
<g id="a_edge34_Node000024_Node000020"><a xlink:title=" ">
<path fill="none" stroke="#63b8ff" d="M1217.42,-187.99C1205.97,-180.19 1190.98,-167.69 1184.25,-152.25 1175.78,-132.81 1187.31,-109.89 1198.04,-94.53"/>
<polygon fill="#63b8ff" stroke="#63b8ff" points="1201.21,-97.13 1204.42,-87.04 1195.62,-92.93 1201.21,-97.13"/>
</a>
</g>
</g>
<!-- Node24&#45;&gt;Node23 -->
<g id="edge36_Node000024_Node000023" class="edge">
<title>Node24&#45;&gt;Node23</title>
<g id="a_edge36_Node000024_Node000023"><a xlink:title=" ">
<path fill="none" stroke="#63b8ff" d="M1226.87,-187.86C1218.78,-173.03 1205.7,-143 1218.25,-121.75 1226.74,-107.37 1241.7,-97.31 1256.48,-90.43"/>
<polygon fill="#63b8ff" stroke="#63b8ff" points="1257.74,-93.28 1265.59,-86.17 1255.02,-86.83 1257.74,-93.28"/>
</a>
</g>
</g>
<!-- Node25 -->
<g id="Node000025" class="node">
<title>Node25</title>
<g id="a_Node000025"><a xlink:title=" ">
<polygon fill="#e0e0e0" stroke="#999999" points="1305.75,-146.62 1226.75,-146.62 1226.75,-127.38 1305.75,-127.38 1305.75,-146.62"/>
<text text-anchor="middle" x="1266.25" y="-133.12" font-family="Times,serif" font-size="10.00">../utils/utils.hpp</text>
</a>
</g>
</g>
<!-- Node24&#45;&gt;Node25 -->
<g id="edge28_Node000024_Node000025" class="edge">
<title>Node24&#45;&gt;Node25</title>
<g id="a_edge28_Node000024_Node000025"><a xlink:title=" ">
<path fill="none" stroke="#63b8ff" d="M1237.41,-187.93C1242.21,-179.63 1249.49,-167.02 1255.54,-156.55"/>
<polygon fill="#63b8ff" stroke="#63b8ff" points="1259.07,-158.44 1261.04,-148.03 1253.01,-154.94 1259.07,-158.44"/>
</a>
</g>
</g>
<!-- Node26 -->
<g id="Node000026" class="node">
<title>Node26</title>
<g id="a_Node000026"><a xlink:title=" ">
<polygon fill="#e0e0e0" stroke="#999999" points="1391.12,-146.62 1323.38,-146.62 1323.38,-127.38 1391.12,-127.38 1391.12,-146.62"/>
<text text-anchor="middle" x="1357.25" y="-133.12" font-family="Times,serif" font-size="10.00">openssl/bio.h</text>
</a>
</g>
</g>
<!-- Node24&#45;&gt;Node26 -->
<g id="edge30_Node000024_Node000026" class="edge">
<title>Node24&#45;&gt;Node26</title>
<g id="a_edge30_Node000024_Node000026"><a xlink:title=" ">
<path fill="none" stroke="#63b8ff" d="M1251.51,-187.8C1272.03,-178.14 1304.75,-162.73 1328.36,-151.61"/>
<polygon fill="#63b8ff" stroke="#63b8ff" points="1329.62,-154.41 1337.18,-146.98 1326.64,-148.08 1329.62,-154.41"/>
</a>
</g>
</g>
<!-- Node27 -->
<g id="Node000027" class="node">
<title>Node27</title>
<g id="a_Node000027"><a xlink:title=" ">
<polygon fill="#e0e0e0" stroke="#999999" points="1473.25,-146.62 1409.25,-146.62 1409.25,-127.38 1473.25,-127.38 1473.25,-146.62"/>
<text text-anchor="middle" x="1441.25" y="-133.12" font-family="Times,serif" font-size="10.00">openssl/ec.h</text>
</a>
</g>
</g>
<!-- Node24&#45;&gt;Node27 -->
<g id="edge31_Node000024_Node000027" class="edge">
<title>Node24&#45;&gt;Node27</title>
<g id="a_edge31_Node000024_Node000027"><a xlink:title=" ">
<path fill="none" stroke="#63b8ff" d="M1269.51,-187.83C1303.71,-179.33 1355.67,-165.9 1400.25,-152.25 1402.11,-151.68 1404.02,-151.08 1405.94,-150.46"/>
<polygon fill="#63b8ff" stroke="#63b8ff" points="1406.82,-153.52 1415.2,-147.04 1404.6,-146.88 1406.82,-153.52"/>
</a>
</g>
</g>
<!-- Node28 -->
<g id="Node000028" class="node">
<title>Node28</title>
<g id="a_Node000028"><a xlink:title=" ">
<polygon fill="#e0e0e0" stroke="#999999" points="1569,-146.62 1491.5,-146.62 1491.5,-127.38 1569,-127.38 1569,-146.62"/>
<text text-anchor="middle" x="1530.25" y="-133.12" font-family="Times,serif" font-size="10.00">openssl/ecdsa.h</text>
</a>
</g>
</g>
<!-- Node24&#45;&gt;Node28 -->
<g id="edge33_Node000024_Node000028" class="edge">
<title>Node24&#45;&gt;Node28</title>
<g id="a_edge33_Node000024_Node000028"><a xlink:title=" ">
<path fill="none" stroke="#63b8ff" d="M1274.57,-190.8C1324.53,-183.29 1409.96,-169.38 1482.25,-152.25 1485.09,-151.58 1488,-150.84 1490.93,-150.06"/>
<polygon fill="#63b8ff" stroke="#63b8ff" points="1491.77,-153.18 1500.45,-147.12 1489.88,-146.44 1491.77,-153.18"/>
</a>
</g>
</g>
<!-- Node29 -->
<g id="Node000029" class="node">
<title>Node29</title>
<g id="a_Node000029"><a xlink:title=" ">
<polygon fill="#e0e0e0" stroke="#999999" points="1659.38,-146.62 1587.12,-146.62 1587.12,-127.38 1659.38,-127.38 1659.38,-146.62"/>
<text text-anchor="middle" x="1623.25" y="-133.12" font-family="Times,serif" font-size="10.00">openssl/pem.h</text>
</a>
</g>
</g>
<!-- Node24&#45;&gt;Node29 -->
<g id="edge35_Node000024_Node000029" class="edge">
<title>Node24&#45;&gt;Node29</title>
<g id="a_edge35_Node000024_Node000029"><a xlink:title=" ">
<path fill="none" stroke="#63b8ff" d="M1274.75,-193.85C1340.43,-188.62 1470.32,-176.1 1578.25,-152.25 1581.08,-151.63 1583.98,-150.9 1586.89,-150.12"/>
<polygon fill="#63b8ff" stroke="#63b8ff" points="1587.67,-153.24 1596.29,-147.09 1585.71,-146.52 1587.67,-153.24"/>
</a>
</g>
</g>
</g>
</svg>
