<?xml version="1.0" encoding="UTF-8" standalone="no"?>
<!DOCTYPE svg PUBLIC "-//W3C//DTD SVG 1.1//EN"
 "http://www.w3.org/Graphics/SVG/1.1/DTD/svg11.dtd">
<!-- Generated by graphviz version 8.1.0 (20230707.0739)
 -->
<!-- Title: mal&#45;packet&#45;weaver/mal&#45;packet&#45;weaver/packets/packet&#45;crypto.hpp Pages: 1 -->
<svg width="723pt" height="293pt"
 viewBox="0.00 0.00 722.62 293.25" xmlns="http://www.w3.org/2000/svg" xmlns:xlink="http://www.w3.org/1999/xlink">
<g id="graph0" class="graph" transform="scale(1 1) rotate(0) translate(4 289.25)">
<title>mal&#45;packet&#45;weaver/mal&#45;packet&#45;weaver/packets/packet&#45;crypto.hpp</title>
<!-- Node1 -->
<g id="Node000001" class="node">
<title>Node1</title>
<g id="a_Node000001"><a xlink:title=" ">
<polygon fill="#999999" stroke="#666666" points="521.75,-285.25 412.75,-285.25 412.75,-243.5 521.75,-243.5 521.75,-285.25"/>
<text text-anchor="start" x="420.75" y="-271.75" font-family="Times,serif" font-size="10.00">mal&#45;packet&#45;weaver/mal</text>
<text text-anchor="start" x="420.75" y="-260.5" font-family="Times,serif" font-size="10.00">&#45;packet&#45;weaver/packets</text>
<text text-anchor="middle" x="467.25" y="-249.25" font-family="Times,serif" font-size="10.00">/packet&#45;crypto.hpp</text>
</a>
</g>
</g>
<!-- Node2 -->
<g id="Node000002" class="node">
<title>Node2</title>
<g id="a_Node000002"><a xlink:href="../../d2/d3f/packet_8hpp.html" target="_top" xlink:title=" ">
<polygon fill="white" stroke="#666666" points="341.12,-207.5 273.38,-207.5 273.38,-188.25 341.12,-188.25 341.12,-207.5"/>
<text text-anchor="middle" x="307.25" y="-194" font-family="Times,serif" font-size="10.00">../packet.hpp</text>
</a>
</g>
</g>
<!-- Node1&#45;&gt;Node2 -->
<g id="edge1_Node000001_Node000002" class="edge">
<title>Node1&#45;&gt;Node2</title>
<g id="a_edge1_Node000001_Node000002"><a xlink:title=" ">
<path fill="none" stroke="#63b8ff" d="M417.06,-243.14C391.75,-232.94 361.78,-220.86 339.55,-211.9"/>
<polygon fill="#63b8ff" stroke="#63b8ff" points="341.21,-208.39 330.62,-207.89 338.59,-214.88 341.21,-208.39"/>
</a>
</g>
</g>
<!-- Node10 -->
<g id="Node000010" class="node">
<title>Node10</title>
<g id="a_Node000010"><a xlink:title=" ">
<polygon fill="#e0e0e0" stroke="#999999" points="463.5,-207.5 359,-207.5 359,-188.25 463.5,-188.25 463.5,-207.5"/>
<text text-anchor="middle" x="411.25" y="-194" font-family="Times,serif" font-size="10.00">../crypto/common.hpp</text>
</a>
</g>
</g>
<!-- Node1&#45;&gt;Node10 -->
<g id="edge9_Node000001_Node000010" class="edge">
<title>Node1&#45;&gt;Node10</title>
<g id="a_edge9_Node000001_Node000010"><a xlink:title=" ">
<path fill="none" stroke="#63b8ff" d="M449.84,-243.32C442.29,-234.63 433.54,-224.55 426.29,-216.19"/>
<polygon fill="#63b8ff" stroke="#63b8ff" points="428.32,-214.2 419.13,-208.95 423.04,-218.79 428.32,-214.2"/>
</a>
</g>
</g>
<!-- Node11 -->
<g id="Node000011" class="node">
<title>Node11</title>
<g id="a_Node000011"><a xlink:title=" ">
<polygon fill="#e0e0e0" stroke="#999999" points="565.38,-207.5 481.12,-207.5 481.12,-188.25 565.38,-188.25 565.38,-207.5"/>
<text text-anchor="middle" x="523.25" y="-194" font-family="Times,serif" font-size="10.00">../crypto/sha.hpp</text>
</a>
</g>
</g>
<!-- Node1&#45;&gt;Node11 -->
<g id="edge10_Node000001_Node000011" class="edge">
<title>Node1&#45;&gt;Node11</title>
<g id="a_edge10_Node000001_Node000011"><a xlink:title=" ">
<path fill="none" stroke="#63b8ff" d="M484.66,-243.32C492.21,-234.63 500.96,-224.55 508.21,-216.19"/>
<polygon fill="#63b8ff" stroke="#63b8ff" points="511.46,-218.79 515.37,-208.95 506.18,-214.2 511.46,-218.79"/>
</a>
</g>
</g>
<!-- Node12 -->
<g id="Node000012" class="node">
<title>Node12</title>
<g id="a_Node000012"><a xlink:title=" ">
<polygon fill="#e0e0e0" stroke="#999999" points="714.62,-207.5 583.88,-207.5 583.88,-188.25 714.62,-188.25 714.62,-207.5"/>
<text text-anchor="middle" x="649.25" y="-194" font-family="Times,serif" font-size="10.00">boost/endian/conversion.hpp</text>
</a>
</g>
</g>
<!-- Node1&#45;&gt;Node12 -->
<g id="edge11_Node000001_Node000012" class="edge">
<title>Node1&#45;&gt;Node12</title>
<g id="a_edge11_Node000001_Node000012"><a xlink:title=" ">
<path fill="none" stroke="#63b8ff" d="M521.86,-244.02C551.49,-233.52 587.29,-220.84 613.38,-211.59"/>
<polygon fill="#63b8ff" stroke="#63b8ff" points="614.31,-214.62 622.57,-207.98 611.97,-208.02 614.31,-214.62"/>
</a>
</g>
</g>
<!-- Node3 -->
<g id="Node000003" class="node">
<title>Node3</title>
<g id="a_Node000003"><a xlink:href="../../d3/d53/packet-factory_8hpp.html" target="_top" xlink:title=" ">
<polygon fill="white" stroke="#666666" points="354.62,-152.25 259.88,-152.25 259.88,-121.75 354.62,-121.75 354.62,-152.25"/>
<text text-anchor="start" x="267.88" y="-138.75" font-family="Times,serif" font-size="10.00">packet_impl/packet</text>
<text text-anchor="middle" x="307.25" y="-127.5" font-family="Times,serif" font-size="10.00">&#45;factory.hpp</text>
</a>
</g>
</g>
<!-- Node2&#45;&gt;Node3 -->
<g id="edge2_Node000002_Node000003" class="edge">
<title>Node2&#45;&gt;Node3</title>
<g id="a_edge2_Node000002_Node000003"><a xlink:title=" ">
<path fill="none" stroke="#63b8ff" d="M307.25,-187.93C307.25,-181.4 307.25,-172.2 307.25,-163.47"/>
<polygon fill="#63b8ff" stroke="#63b8ff" points="310.75,-163.53 307.25,-153.53 303.75,-163.53 310.75,-163.53"/>
</a>
</g>
</g>
<!-- Node4 -->
<g id="Node000004" class="node">
<title>Node4</title>
<g id="a_Node000004"><a xlink:href="../../d9/d85/packet__impl_2packet_8hpp.html" target="_top" xlink:title=" ">
<polygon fill="white" stroke="#666666" points="337.38,-85.75 277.12,-85.75 277.12,-66.5 337.38,-66.5 337.38,-85.75"/>
<text text-anchor="middle" x="307.25" y="-72.25" font-family="Times,serif" font-size="10.00">packet.hpp</text>
</a>
</g>
</g>
<!-- Node3&#45;&gt;Node4 -->
<g id="edge3_Node000003_Node000004" class="edge">
<title>Node3&#45;&gt;Node4</title>
<g id="a_edge3_Node000003_Node000004"><a xlink:title=" ">
<path fill="none" stroke="#63b8ff" d="M307.25,-121.45C307.25,-114.12 307.25,-105.12 307.25,-97.16"/>
<polygon fill="#63b8ff" stroke="#63b8ff" points="310.75,-97.2 307.25,-87.2 303.75,-97.2 310.75,-97.2"/>
</a>
</g>
</g>
<!-- Node5 -->
<g id="Node000005" class="node">
<title>Node5</title>
<g id="a_Node000005"><a xlink:title=" ">
<polygon fill="#e0e0e0" stroke="#999999" points="122.5,-24.88 0,-24.88 0,-5.63 122.5,-5.63 122.5,-24.88"/>
<text text-anchor="middle" x="61.25" y="-11.38" font-family="Times,serif" font-size="10.00">mal&#45;toolkit/mal&#45;toolkit.hpp</text>
</a>
</g>
</g>
<!-- Node4&#45;&gt;Node5 -->
<g id="edge4_Node000004_Node000005" class="edge">
<title>Node4&#45;&gt;Node5</title>
<g id="a_edge4_Node000004_Node000005"><a xlink:title=" ">
<path fill="none" stroke="#63b8ff" d="M277.09,-67.91C235.37,-57.92 159.59,-39.79 109.84,-27.88"/>
<polygon fill="#63b8ff" stroke="#63b8ff" points="110.87,-24.29 100.33,-25.36 109.24,-31.1 110.87,-24.29"/>
</a>
</g>
</g>
<!-- Node6 -->
<g id="Node000006" class="node">
<title>Node6</title>
<g id="a_Node000006"><a xlink:title=" ">
<polygon fill="#e0e0e0" stroke="#999999" points="239.5,-30.5 141,-30.5 141,0 239.5,0 239.5,-30.5"/>
<text text-anchor="start" x="149" y="-17" font-family="Times,serif" font-size="10.00">boost/archive/binary</text>
<text text-anchor="middle" x="190.25" y="-5.75" font-family="Times,serif" font-size="10.00">_iarchive.hpp</text>
</a>
</g>
</g>
<!-- Node4&#45;&gt;Node6 -->
<g id="edge5_Node000004_Node000006" class="edge">
<title>Node4&#45;&gt;Node6</title>
<g id="a_edge5_Node000004_Node000006"><a xlink:title=" ">
<path fill="none" stroke="#63b8ff" d="M289.23,-66.05C273.25,-58.02 249.38,-46 229.08,-35.79"/>
<polygon fill="#63b8ff" stroke="#63b8ff" points="230.96,-32.31 220.45,-30.94 227.81,-38.57 230.96,-32.31"/>
</a>
</g>
</g>
<!-- Node7 -->
<g id="Node000007" class="node">
<title>Node7</title>
<g id="a_Node000007"><a xlink:title=" ">
<polygon fill="#e0e0e0" stroke="#999999" points="356.5,-30.5 258,-30.5 258,0 356.5,0 356.5,-30.5"/>
<text text-anchor="start" x="266" y="-17" font-family="Times,serif" font-size="10.00">boost/archive/binary</text>
<text text-anchor="middle" x="307.25" y="-5.75" font-family="Times,serif" font-size="10.00">_oarchive.hpp</text>
</a>
</g>
</g>
<!-- Node4&#45;&gt;Node7 -->
<g id="edge6_Node000004_Node000007" class="edge">
<title>Node4&#45;&gt;Node7</title>
<g id="a_edge6_Node000004_Node000007"><a xlink:title=" ">
<path fill="none" stroke="#63b8ff" d="M307.25,-66.18C307.25,-59.65 307.25,-50.45 307.25,-41.72"/>
<polygon fill="#63b8ff" stroke="#63b8ff" points="310.75,-41.78 307.25,-31.78 303.75,-41.78 310.75,-41.78"/>
</a>
</g>
</g>
<!-- Node8 -->
<g id="Node000008" class="node">
<title>Node8</title>
<g id="a_Node000008"><a xlink:title=" ">
<polygon fill="#e0e0e0" stroke="#999999" points="464,-30.5 374.5,-30.5 374.5,0 464,0 464,-30.5"/>
<text text-anchor="start" x="382.5" y="-17" font-family="Times,serif" font-size="10.00">boost/serialization</text>
<text text-anchor="middle" x="419.25" y="-5.75" font-family="Times,serif" font-size="10.00">/base_object.hpp</text>
</a>
</g>
</g>
<!-- Node4&#45;&gt;Node8 -->
<g id="edge7_Node000004_Node000008" class="edge">
<title>Node4&#45;&gt;Node8</title>
<g id="a_edge7_Node000004_Node000008"><a xlink:title=" ">
<path fill="none" stroke="#63b8ff" d="M324.26,-66.18C339.55,-58.15 362.53,-46.07 382.06,-35.8"/>
<polygon fill="#63b8ff" stroke="#63b8ff" points="383.38,-38.53 390.61,-30.78 380.12,-32.34 383.38,-38.53"/>
</a>
</g>
</g>
<!-- Node9 -->
<g id="Node000009" class="node">
<title>Node9</title>
<g id="a_Node000009"><a xlink:title=" ">
<polygon fill="#e0e0e0" stroke="#999999" points="572,-30.5 482.5,-30.5 482.5,0 572,0 572,-30.5"/>
<text text-anchor="start" x="490.5" y="-17" font-family="Times,serif" font-size="10.00">boost/serialization</text>
<text text-anchor="middle" x="527.25" y="-5.75" font-family="Times,serif" font-size="10.00">/serialization.hpp</text>
</a>
</g>
</g>
<!-- Node4&#45;&gt;Node9 -->
<g id="edge8_Node000004_Node000009" class="edge">
<title>Node4&#45;&gt;Node9</title>
<g id="a_edge8_Node000004_Node000009"><a xlink:title=" ">
<path fill="none" stroke="#63b8ff" d="M337.84,-66.94C372.34,-57.71 429.17,-42.5 471.59,-31.15"/>
<polygon fill="#63b8ff" stroke="#63b8ff" points="472.29,-34.31 481.04,-28.35 470.48,-27.55 472.29,-34.31"/>
</a>
</g>
</g>
</g>
</svg>
