<?xml version="1.0" encoding="UTF-8" standalone="no"?>
<!DOCTYPE svg PUBLIC "-//W3C//DTD SVG 1.1//EN"
 "http://www.w3.org/Graphics/SVG/1.1/DTD/svg11.dtd">
<!-- Generated by graphviz version 7.0.5 (20221223.1930)
 -->
<!-- Title: mal&#45;packet&#45;weaver/mal&#45;packet&#45;weaver/packets/packet&#45;crypto.hpp Pages: 1 -->
<!--zoomable 291 -->
<svg id="main" version="1.1" xmlns="http://www.w3.org/2000/svg" xmlns:xlink="http://www.w3.org/1999/xlink" xml:space="preserve" onload="init(evt)">
<style type="text/css"><![CDATA[
.edge:hover path { stroke: red; }
.edge:hover polygon { stroke: red; fill: red; }
]]></style>
<script type="text/javascript"><![CDATA[
var edges = document.getElementsByTagName('g');
if (edges && edges.length) {
  for (var i=0;i<edges.length;i++) {
    if (edges[i].id.substr(0,4)=='edge') {
      edges[i].setAttribute('class','edge');
    }
  }
}
]]></script>
        <defs>
                <circle id="rim" cx="0" cy="0" r="7"/>
                <circle id="rim2" cx="0" cy="0" r="3.5"/>
                <g id="zoomPlus">
                        <use xlink:href="#rim" fill="#404040">
                                <set attributeName="fill" to="#808080" begin="zoomplus.mouseover" end="zoomplus.mouseout"/>
                        </use>
                        <path d="M-4,0h8M0,-4v8" fill="none" stroke="white" stroke-width="1.5" pointer-events="none"/>
                </g>
                <g id="zoomMin">
                        <use xlink:href="#rim" fill="#404040">
                                <set attributeName="fill" to="#808080" begin="zoomminus.mouseover" end="zoomminus.mouseout"/>
                        </use>
                        <path d="M-4,0h8" fill="none" stroke="white" stroke-width="1.5" pointer-events="none"/>
                </g>
                <g id="dirArrow">
                        <path fill="none" stroke="white" stroke-width="1.5" d="M0,-3.0v7 M-2.5,-0.5L0,-3.0L2.5,-0.5"/>
                </g>
               <g id="resetDef">
                       <use xlink:href="#rim2" fill="#404040">
                               <set attributeName="fill" to="#808080" begin="reset.mouseover" end="reset.mouseout"/>
                       </use>
               </g>
        </defs>

<script type="text/javascript">
var viewWidth = 1768;
var viewHeight = 291;
var sectionId = 'dynsection-0';
</script>
<script xlink:href="../../svgpan.js"/>
<svg id="graph" class="graph">
<g id="viewport">
<title>mal&#45;packet&#45;weaver/mal&#45;packet&#45;weaver/packets/packet&#45;crypto.hpp</title>
<!-- Node1 -->
<g id="node1" class="node">
<title>Node1</title>
<g id="a_node1"><a xlink:title=" ">
<polygon fill="#999999" stroke="#666666" points="897,-283 776,-283 776,-242 897,-242 897,-283"/>
<text text-anchor="start" x="784" y="-271" font-family="Helvetica,sans-Serif" font-size="10.00">mal&#45;packet&#45;weaver/mal</text>
<text text-anchor="start" x="784" y="-260" font-family="Helvetica,sans-Serif" font-size="10.00">&#45;packet&#45;weaver/packets</text>
<text text-anchor="middle" x="836.5" y="-249" font-family="Helvetica,sans-Serif" font-size="10.00">/packet&#45;crypto.hpp</text>
</a>
</g>
</g>
<!-- Node2 -->
<g id="node2" class="node">
<title>Node2</title>
<g id="a_node2"><a xlink:href="../../d2/d3f/packet_8hpp.html" target="_top" xlink:title=" ">
<polygon fill="white" stroke="#666666" points="658,-206 587,-206 587,-187 658,-187 658,-206"/>
<text text-anchor="middle" x="622.5" y="-194" font-family="Helvetica,sans-Serif" font-size="10.00">../packet.hpp</text>
</a>
</g>
</g>
<!-- Node1&#45;&gt;Node2 -->
<g id="edge1" class="edge">
<title>Node1&#45;&gt;Node2</title>
<path fill="none" stroke="#63b8ff" d="M775.75,-243.33C739.71,-232.55 695.01,-219.19 663.21,-209.67"/>
<polygon fill="#63b8ff" stroke="#63b8ff" points="664.56,-206.43 653.98,-206.91 662.56,-213.13 664.56,-206.43"/>
</g>
<!-- Node10 -->
<g id="node10" class="node">
<title>Node10</title>
<g id="a_node10"><a xlink:href="../../d7/d87/crypto_2common_8hpp.html" target="_top" xlink:title=" ">
<polygon fill="white" stroke="#666666" points="1086,-145.5 977,-145.5 977,-126.5 1086,-126.5 1086,-145.5"/>
<text text-anchor="middle" x="1031.5" y="-133.5" font-family="Helvetica,sans-Serif" font-size="10.00">../crypto/common.hpp</text>
</a>
</g>
</g>
<!-- Node1&#45;&gt;Node10 -->
<g id="edge9" class="edge">
<title>Node1&#45;&gt;Node10</title>
<path fill="none" stroke="#63b8ff" d="M867.4,-241.77C906.5,-216.81 972.96,-174.37 1008.11,-151.93"/>
<polygon fill="#63b8ff" stroke="#63b8ff" points="1009.72,-155.06 1016.27,-146.72 1005.96,-149.16 1009.72,-155.06"/>
</g>
<!-- Node13 -->
<g id="node13" class="node">
<title>Node13</title>
<g id="a_node13"><a xlink:title=" ">
<polygon fill="#e0e0e0" stroke="#999999" points="1016.5,-24.5 876.5,-24.5 876.5,-5.5 1016.5,-5.5 1016.5,-24.5"/>
<text text-anchor="middle" x="946.5" y="-12.5" font-family="Helvetica,sans-Serif" font-size="10.00">boost/endian/conversion.hpp</text>
</a>
</g>
</g>
<!-- Node1&#45;&gt;Node13 -->
<g id="edge37" class="edge">
<title>Node1&#45;&gt;Node13</title>
<path fill="none" stroke="#63b8ff" d="M807.24,-241.63C757.01,-205.14 664.22,-125.69 712.5,-66 718.02,-59.17 818.33,-39.55 885.81,-27.02"/>
<polygon fill="#63b8ff" stroke="#63b8ff" points="886.07,-30.53 895.26,-25.27 884.79,-23.64 886.07,-30.53"/>
</g>
<!-- Node24 -->
<g id="node24" class="node">
<title>Node24</title>
<g id="a_node24"><a xlink:href="../../d8/d6d/sha_8hpp.html" target="_top" xlink:title=" ">
<polygon fill="white" stroke="#666666" points="1342,-206 1255,-206 1255,-187 1342,-187 1342,-206"/>
<text text-anchor="middle" x="1298.5" y="-194" font-family="Helvetica,sans-Serif" font-size="10.00">../crypto/sha.hpp</text>
</a>
</g>
</g>
<!-- Node1&#45;&gt;Node24 -->
<g id="edge27" class="edge">
<title>Node1&#45;&gt;Node24</title>
<path fill="none" stroke="#63b8ff" d="M897.37,-253.07C987.89,-240.53 1156.61,-217.16 1243.56,-205.11"/>
<polygon fill="#63b8ff" stroke="#63b8ff" points="1243.84,-208.61 1253.26,-203.77 1242.88,-201.67 1243.84,-208.61"/>
</g>
<!-- Node3 -->
<g id="node3" class="node">
<title>Node3</title>
<g id="a_node3"><a xlink:href="../../d3/d53/packet-factory_8hpp.html" target="_top" xlink:title=" ">
<polygon fill="white" stroke="#666666" points="558,-151 457,-151 457,-121 558,-121 558,-151"/>
<text text-anchor="start" x="465" y="-139" font-family="Helvetica,sans-Serif" font-size="10.00">packet_impl/packet</text>
<text text-anchor="middle" x="507.5" y="-128" font-family="Helvetica,sans-Serif" font-size="10.00">&#45;factory.hpp</text>
</a>
</g>
</g>
<!-- Node2&#45;&gt;Node3 -->
<g id="edge2" class="edge">
<title>Node2&#45;&gt;Node3</title>
<path fill="none" stroke="#63b8ff" d="M605.03,-186.62C589.41,-178.67 565.96,-166.74 545.96,-156.57"/>
<polygon fill="#63b8ff" stroke="#63b8ff" points="547.73,-153.54 537.23,-152.13 544.56,-159.78 547.73,-153.54"/>
</g>
<!-- Node4 -->
<g id="node4" class="node">
<title>Node4</title>
<g id="a_node4"><a xlink:href="../../d9/d85/packet__impl_2packet_8hpp.html" target="_top" xlink:title=" ">
<polygon fill="white" stroke="#666666" points="372.5,-85 308.5,-85 308.5,-66 372.5,-66 372.5,-85"/>
<text text-anchor="middle" x="340.5" y="-73" font-family="Helvetica,sans-Serif" font-size="10.00">packet.hpp</text>
</a>
</g>
</g>
<!-- Node3&#45;&gt;Node4 -->
<g id="edge3" class="edge">
<title>Node3&#45;&gt;Node4</title>
<path fill="none" stroke="#63b8ff" d="M466.22,-120.54C438.67,-110.89 402.79,-98.32 376.42,-89.08"/>
<polygon fill="#63b8ff" stroke="#63b8ff" points="377.78,-85.85 367.18,-85.85 375.46,-92.46 377.78,-85.85"/>
</g>
<!-- Node5 -->
<g id="node5" class="node">
<title>Node5</title>
<g id="a_node5"><a xlink:title=" ">
<polygon fill="#e0e0e0" stroke="#999999" points="89,-24.5 0,-24.5 0,-5.5 89,-5.5 89,-24.5"/>
<text text-anchor="middle" x="44.5" y="-12.5" font-family="Helvetica,sans-Serif" font-size="10.00">../../utils/utils.hpp</text>
</a>
</g>
</g>
<!-- Node4&#45;&gt;Node5 -->
<g id="edge4" class="edge">
<title>Node4&#45;&gt;Node5</title>
<path fill="none" stroke="#63b8ff" d="M308.25,-69.33C261.73,-61.69 173.16,-46.52 98.5,-30 95.2,-29.27 91.8,-28.48 88.38,-27.66"/>
<polygon fill="#63b8ff" stroke="#63b8ff" points="89.55,-24.34 79.01,-25.33 87.87,-31.14 89.55,-24.34"/>
</g>
<!-- Node6 -->
<g id="node6" class="node">
<title>Node6</title>
<g id="a_node6"><a xlink:title=" ">
<polygon fill="#e0e0e0" stroke="#999999" points="211.5,-30 107.5,-30 107.5,0 211.5,0 211.5,-30"/>
<text text-anchor="start" x="115.5" y="-18" font-family="Helvetica,sans-Serif" font-size="10.00">boost/archive/binary</text>
<text text-anchor="middle" x="159.5" y="-7" font-family="Helvetica,sans-Serif" font-size="10.00">_iarchive.hpp</text>
</a>
</g>
</g>
<!-- Node4&#45;&gt;Node6 -->
<g id="edge5" class="edge">
<title>Node4&#45;&gt;Node6</title>
<path fill="none" stroke="#63b8ff" d="M313.01,-65.62C287.07,-57.23 247.41,-44.41 214.9,-33.9"/>
<polygon fill="#63b8ff" stroke="#63b8ff" points="216.21,-30.65 205.62,-30.91 214.06,-37.31 216.21,-30.65"/>
</g>
<!-- Node7 -->
<g id="node7" class="node">
<title>Node7</title>
<g id="a_node7"><a xlink:title=" ">
<polygon fill="#e0e0e0" stroke="#999999" points="333.5,-30 229.5,-30 229.5,0 333.5,0 333.5,-30"/>
<text text-anchor="start" x="237.5" y="-18" font-family="Helvetica,sans-Serif" font-size="10.00">boost/archive/binary</text>
<text text-anchor="middle" x="281.5" y="-7" font-family="Helvetica,sans-Serif" font-size="10.00">_oarchive.hpp</text>
</a>
</g>
</g>
<!-- Node4&#45;&gt;Node7 -->
<g id="edge6" class="edge">
<title>Node4&#45;&gt;Node7</title>
<path fill="none" stroke="#63b8ff" d="M331.54,-65.62C324.26,-58.4 313.67,-47.89 304.1,-38.41"/>
<polygon fill="#63b8ff" stroke="#63b8ff" points="306.7,-36.06 297.14,-31.51 301.77,-41.03 306.7,-36.06"/>
</g>
<!-- Node8 -->
<g id="node8" class="node">
<title>Node8</title>
<g id="a_node8"><a xlink:title=" ">
<polygon fill="#e0e0e0" stroke="#999999" points="447,-30 352,-30 352,0 447,0 447,-30"/>
<text text-anchor="start" x="360" y="-18" font-family="Helvetica,sans-Serif" font-size="10.00">boost/serialization</text>
<text text-anchor="middle" x="399.5" y="-7" font-family="Helvetica,sans-Serif" font-size="10.00">/base_object.hpp</text>
</a>
</g>
</g>
<!-- Node4&#45;&gt;Node8 -->
<g id="edge7" class="edge">
<title>Node4&#45;&gt;Node8</title>
<path fill="none" stroke="#63b8ff" d="M349.46,-65.62C356.74,-58.4 367.33,-47.89 376.9,-38.41"/>
<polygon fill="#63b8ff" stroke="#63b8ff" points="379.23,-41.03 383.86,-31.51 374.3,-36.06 379.23,-41.03"/>
</g>
<!-- Node9 -->
<g id="node9" class="node">
<title>Node9</title>
<g id="a_node9"><a xlink:title=" ">
<polygon fill="#e0e0e0" stroke="#999999" points="560,-30 465,-30 465,0 560,0 560,-30"/>
<text text-anchor="start" x="473" y="-18" font-family="Helvetica,sans-Serif" font-size="10.00">boost/serialization</text>
<text text-anchor="middle" x="512.5" y="-7" font-family="Helvetica,sans-Serif" font-size="10.00">/serialization.hpp</text>
</a>
</g>
</g>
<!-- Node4&#45;&gt;Node9 -->
<g id="edge8" class="edge">
<title>Node4&#45;&gt;Node9</title>
<path fill="none" stroke="#63b8ff" d="M366.62,-65.62C391.17,-57.27 428.64,-44.52 459.45,-34.04"/>
<polygon fill="#63b8ff" stroke="#63b8ff" points="460.27,-37.46 468.61,-30.93 458.02,-30.83 460.27,-37.46"/>
</g>
<!-- Node11 -->
<g id="node11" class="node">
<title>Node11</title>
<g id="a_node11"><a xlink:href="../../dd/d3a/common_8hpp.html" target="_top" xlink:title=" ">
<polygon fill="white" stroke="#666666" points="665.5,-85 585.5,-85 585.5,-66 665.5,-66 665.5,-85"/>
<text text-anchor="middle" x="625.5" y="-73" font-family="Helvetica,sans-Serif" font-size="10.00">../common.hpp</text>
</a>
</g>
</g>
<!-- Node10&#45;&gt;Node11 -->
<g id="edge10" class="edge">
<title>Node10&#45;&gt;Node11</title>
<path fill="none" stroke="#63b8ff" d="M976.75,-127.11C898.1,-115.78 754.18,-95.04 677.24,-83.96"/>
<polygon fill="#63b8ff" stroke="#63b8ff" points="677.84,-80.51 667.44,-82.54 676.84,-87.43 677.84,-80.51"/>
</g>
<!-- Node17 -->
<g id="node17" class="node">
<title>Node17</title>
<g id="a_node17"><a xlink:title=" ">
<polygon fill="#e0e0e0" stroke="#999999" points="835.5,-85 721.5,-85 721.5,-66 835.5,-66 835.5,-85"/>
<text text-anchor="middle" x="778.5" y="-73" font-family="Helvetica,sans-Serif" font-size="10.00">openssl/core_names.h</text>
</a>
</g>
</g>
<!-- Node10&#45;&gt;Node17 -->
<g id="edge20" class="edge">
<title>Node10&#45;&gt;Node17</title>
<path fill="none" stroke="#63b8ff" d="M992.8,-126.05C948.72,-115.86 876.56,-99.17 828.31,-88.02"/>
<polygon fill="#63b8ff" stroke="#63b8ff" points="829.2,-84.63 818.67,-85.79 827.63,-91.45 829.2,-84.63"/>
</g>
<!-- Node18 -->
<g id="node18" class="node">
<title>Node18</title>
<g id="a_node18"><a xlink:title=" ">
<polygon fill="#e0e0e0" stroke="#999999" points="925,-85 854,-85 854,-66 925,-66 925,-85"/>
<text text-anchor="middle" x="889.5" y="-73" font-family="Helvetica,sans-Serif" font-size="10.00">openssl/dh.h</text>
</a>
</g>
</g>
<!-- Node10&#45;&gt;Node18 -->
<g id="edge21" class="edge">
<title>Node10&#45;&gt;Node18</title>
<path fill="none" stroke="#63b8ff" d="M1009.93,-126.12C986.48,-116.45 948.73,-100.9 921.74,-89.78"/>
<polygon fill="#63b8ff" stroke="#63b8ff" points="923.25,-86.62 912.67,-86.05 920.58,-93.09 923.25,-86.62"/>
</g>
<!-- Node19 -->
<g id="node19" class="node">
<title>Node19</title>
<g id="a_node19"><a xlink:title=" ">
<polygon fill="#e0e0e0" stroke="#999999" points="1229.5,-85 1147.5,-85 1147.5,-66 1229.5,-66 1229.5,-85"/>
<text text-anchor="middle" x="1188.5" y="-73" font-family="Helvetica,sans-Serif" font-size="10.00">openssl/ecdh.h</text>
</a>
</g>
</g>
<!-- Node10&#45;&gt;Node19 -->
<g id="edge22" class="edge">
<title>Node10&#45;&gt;Node19</title>
<path fill="none" stroke="#63b8ff" d="M1055.34,-126.12C1081.51,-116.37 1123.76,-100.62 1153.64,-89.49"/>
<polygon fill="#63b8ff" stroke="#63b8ff" points="1154.86,-92.77 1163.01,-86 1152.42,-86.21 1154.86,-92.77"/>
</g>
<!-- Node20 -->
<g id="node20" class="node">
<title>Node20</title>
<g id="a_node20"><a xlink:title=" ">
<polygon fill="#e0e0e0" stroke="#999999" points="1325,-85 1248,-85 1248,-66 1325,-66 1325,-85"/>
<text text-anchor="middle" x="1286.5" y="-73" font-family="Helvetica,sans-Serif" font-size="10.00">openssl/evp.h</text>
</a>
</g>
</g>
<!-- Node10&#45;&gt;Node20 -->
<g id="edge23" class="edge">
<title>Node10&#45;&gt;Node20</title>
<path fill="none" stroke="#63b8ff" d="M1070.51,-126.05C1115.07,-115.83 1188.09,-99.08 1236.72,-87.92"/>
<polygon fill="#63b8ff" stroke="#63b8ff" points="1237.48,-91.34 1246.44,-85.69 1235.91,-84.51 1237.48,-91.34"/>
</g>
<!-- Node21 -->
<g id="node21" class="node">
<title>Node21</title>
<g id="a_node21"><a xlink:title=" ">
<polygon fill="#e0e0e0" stroke="#999999" points="1017.5,-85 943.5,-85 943.5,-66 1017.5,-66 1017.5,-85"/>
<text text-anchor="middle" x="980.5" y="-73" font-family="Helvetica,sans-Serif" font-size="10.00">openssl/kdf.h</text>
</a>
</g>
</g>
<!-- Node10&#45;&gt;Node21 -->
<g id="edge24" class="edge">
<title>Node10&#45;&gt;Node21</title>
<path fill="none" stroke="#63b8ff" d="M1023.97,-126.37C1016.52,-117.81 1004.89,-104.47 995.53,-93.74"/>
<polygon fill="#63b8ff" stroke="#63b8ff" points="998.26,-91.55 989.05,-86.31 992.98,-96.15 998.26,-91.55"/>
</g>
<!-- Node22 -->
<g id="node22" class="node">
<title>Node22</title>
<g id="a_node22"><a xlink:title=" ">
<polygon fill="#e0e0e0" stroke="#999999" points="1129,-85 1036,-85 1036,-66 1129,-66 1129,-85"/>
<text text-anchor="middle" x="1082.5" y="-73" font-family="Helvetica,sans-Serif" font-size="10.00">openssl/params.h</text>
</a>
</g>
</g>
<!-- Node10&#45;&gt;Node22 -->
<g id="edge25" class="edge">
<title>Node10&#45;&gt;Node22</title>
<path fill="none" stroke="#63b8ff" d="M1039.03,-126.37C1046.48,-117.81 1058.11,-104.47 1067.47,-93.74"/>
<polygon fill="#63b8ff" stroke="#63b8ff" points="1070.02,-96.15 1073.95,-86.31 1064.74,-91.55 1070.02,-96.15"/>
</g>
<!-- Node23 -->
<g id="node23" class="node">
<title>Node23</title>
<g id="a_node23"><a xlink:title=" ">
<polygon fill="#e0e0e0" stroke="#999999" points="1420,-85 1343,-85 1343,-66 1420,-66 1420,-85"/>
<text text-anchor="middle" x="1381.5" y="-73" font-family="Helvetica,sans-Serif" font-size="10.00">openssl/sha.h</text>
</a>
</g>
</g>
<!-- Node10&#45;&gt;Node23 -->
<g id="edge26" class="edge">
<title>Node10&#45;&gt;Node23</title>
<path fill="none" stroke="#63b8ff" d="M1086.28,-126.22C1144.63,-116.81 1240,-101.26 1331.4,-85.52"/>
<polygon fill="#63b8ff" stroke="#63b8ff" points="1331.78,-89 1341.03,-83.85 1330.58,-82.11 1331.78,-89"/>
</g>
<!-- Node11&#45;&gt;Node6 -->
<g id="edge11" class="edge">
<title>Node11&#45;&gt;Node6</title>
<path fill="none" stroke="#63b8ff" d="M585.05,-71.62C513.85,-66.21 361.34,-53.12 223.19,-30.33"/>
<polygon fill="#63b8ff" stroke="#63b8ff" points="223.93,-26.9 213.49,-28.71 222.77,-33.81 223.93,-26.9"/>
</g>
<!-- Node11&#45;&gt;Node7 -->
<g id="edge12" class="edge">
<title>Node11&#45;&gt;Node7</title>
<path fill="none" stroke="#63b8ff" d="M585.04,-69.04C532.13,-61.71 436.31,-47.75 344.82,-30.37"/>
<polygon fill="#63b8ff" stroke="#63b8ff" points="345.66,-26.96 335.18,-28.52 344.34,-33.84 345.66,-26.96"/>
</g>
<!-- Node11&#45;&gt;Node8 -->
<g id="edge13" class="edge">
<title>Node11&#45;&gt;Node8</title>
<path fill="none" stroke="#63b8ff" d="M591.18,-65.62C555.92,-56.49 500.39,-42.12 458.15,-31.18"/>
<polygon fill="#63b8ff" stroke="#63b8ff" points="459.2,-27.84 448.64,-28.72 457.44,-34.61 459.2,-27.84"/>
</g>
<!-- Node11&#45;&gt;Node9 -->
<g id="edge14" class="edge">
<title>Node11&#45;&gt;Node9</title>
<path fill="none" stroke="#63b8ff" d="M608.34,-65.62C593.06,-57.7 570.15,-45.85 550.57,-35.71"/>
<polygon fill="#63b8ff" stroke="#63b8ff" points="552.23,-32.62 541.74,-31.14 549.01,-38.84 552.23,-32.62"/>
</g>
<!-- Node12 -->
<g id="node12" class="node">
<title>Node12</title>
<g id="a_node12"><a xlink:title=" ">
<polygon fill="#e0e0e0" stroke="#999999" points="673,-30 578,-30 578,0 673,0 673,-30"/>
<text text-anchor="start" x="586" y="-18" font-family="Helvetica,sans-Serif" font-size="10.00">boost/serialization</text>
<text text-anchor="middle" x="625.5" y="-7" font-family="Helvetica,sans-Serif" font-size="10.00">/vector.hpp</text>
</a>
</g>
</g>
<!-- Node11&#45;&gt;Node12 -->
<g id="edge15" class="edge">
<title>Node11&#45;&gt;Node12</title>
<path fill="none" stroke="#63b8ff" d="M625.5,-65.87C625.5,-59.4 625.5,-50.2 625.5,-41.45"/>
<polygon fill="#63b8ff" stroke="#63b8ff" points="629,-41.63 625.5,-31.63 622,-41.63 629,-41.63"/>
</g>
<!-- Node11&#45;&gt;Node13 -->
<g id="edge16" class="edge">
<title>Node11&#45;&gt;Node13</title>
<path fill="none" stroke="#63b8ff" d="M665.83,-67.15C721.27,-57.05 821.46,-38.79 885.93,-27.04"/>
<polygon fill="#63b8ff" stroke="#63b8ff" points="886.44,-30.5 895.65,-25.27 885.19,-23.62 886.44,-30.5"/>
</g>
<!-- Node14 -->
<g id="node14" class="node">
<title>Node14</title>
<g id="a_node14"><a xlink:title=" ">
<polygon fill="#e0e0e0" stroke="#999999" points="740,-24.5 691,-24.5 691,-5.5 740,-5.5 740,-24.5"/>
<text text-anchor="middle" x="715.5" y="-12.5" font-family="Helvetica,sans-Serif" font-size="10.00">cstddef</text>
</a>
</g>
</g>
<!-- Node11&#45;&gt;Node14 -->
<g id="edge17" class="edge">
<title>Node11&#45;&gt;Node14</title>
<path fill="none" stroke="#63b8ff" d="M639.17,-65.62C653.31,-56.42 675.64,-41.91 692.51,-30.94"/>
<polygon fill="#63b8ff" stroke="#63b8ff" points="693.96,-34.18 700.43,-25.79 690.14,-28.31 693.96,-34.18"/>
</g>
<!-- Node15 -->
<g id="node15" class="node">
<title>Node15</title>
<g id="a_node15"><a xlink:title=" ">
<polygon fill="#e0e0e0" stroke="#999999" points="796.5,-24.5 758.5,-24.5 758.5,-5.5 796.5,-5.5 796.5,-24.5"/>
<text text-anchor="middle" x="777.5" y="-12.5" font-family="Helvetica,sans-Serif" font-size="10.00">span</text>
</a>
</g>
</g>
<!-- Node11&#45;&gt;Node15 -->
<g id="edge18" class="edge">
<title>Node11&#45;&gt;Node15</title>
<path fill="none" stroke="#63b8ff" d="M652.68,-65.56C677.81,-57.09 716.06,-43.66 748.5,-30 748.85,-29.85 749.2,-29.71 749.55,-29.55"/>
<polygon fill="#63b8ff" stroke="#63b8ff" points="750.81,-32.83 758.46,-25.51 747.91,-26.45 750.81,-32.83"/>
</g>
<!-- Node16 -->
<g id="node16" class="node">
<title>Node16</title>
<g id="a_node16"><a xlink:title=" ">
<polygon fill="#e0e0e0" stroke="#999999" points="858.5,-24.5 814.5,-24.5 814.5,-5.5 858.5,-5.5 858.5,-24.5"/>
<text text-anchor="middle" x="836.5" y="-12.5" font-family="Helvetica,sans-Serif" font-size="10.00">vector</text>
</a>
</g>
</g>
<!-- Node11&#45;&gt;Node16 -->
<g id="edge19" class="edge">
<title>Node11&#45;&gt;Node16</title>
<path fill="none" stroke="#63b8ff" d="M665.79,-66.73C702.67,-59.11 758.5,-46.27 805.5,-30 806.15,-29.78 806.8,-29.54 807.45,-29.31"/>
<polygon fill="#63b8ff" stroke="#63b8ff" points="808.69,-32.58 816.63,-25.57 806.05,-26.1 808.69,-32.58"/>
</g>
<!-- Node24&#45;&gt;Node10 -->
<g id="edge29" class="edge">
<title>Node24&#45;&gt;Node10</title>
<path fill="none" stroke="#63b8ff" d="M1257.66,-186.55C1210.94,-176.32 1134.34,-159.53 1083.43,-148.38"/>
<polygon fill="#63b8ff" stroke="#63b8ff" points="1084.33,-144.99 1073.82,-146.27 1082.84,-151.83 1084.33,-144.99"/>
</g>
<!-- Node24&#45;&gt;Node19 -->
<g id="edge32" class="edge">
<title>Node24&#45;&gt;Node19</title>
<path fill="none" stroke="#63b8ff" d="M1285.21,-186.52C1273.3,-178.12 1255.72,-164.82 1242.5,-151 1225.81,-133.56 1210.01,-110.74 1199.86,-94.98"/>
<polygon fill="#63b8ff" stroke="#63b8ff" points="1202.89,-93.23 1194.6,-86.63 1196.97,-96.96 1202.89,-93.23"/>
</g>
<!-- Node24&#45;&gt;Node20 -->
<g id="edge34" class="edge">
<title>Node24&#45;&gt;Node20</title>
<path fill="none" stroke="#63b8ff" d="M1283.67,-186.65C1272.22,-178.88 1257.23,-166.41 1250.5,-151 1245.17,-138.78 1246.05,-133.57 1250.5,-121 1254.17,-110.63 1261.4,-100.91 1268.42,-93.21"/>
<polygon fill="#63b8ff" stroke="#63b8ff" points="1270.74,-95.84 1275.28,-86.27 1265.76,-90.92 1270.74,-95.84"/>
</g>
<!-- Node24&#45;&gt;Node23 -->
<g id="edge36" class="edge">
<title>Node24&#45;&gt;Node23</title>
<path fill="none" stroke="#63b8ff" d="M1293.23,-186.93C1284.95,-172.24 1271.14,-141.83 1284.5,-121 1295.15,-104.39 1313.73,-93.9 1331.8,-87.31"/>
<polygon fill="#63b8ff" stroke="#63b8ff" points="1332.75,-90.68 1341.16,-84.25 1330.57,-84.03 1332.75,-90.68"/>
</g>
<!-- Node25 -->
<g id="node25" class="node">
<title>Node25</title>
<g id="a_node25"><a xlink:title=" ">
<polygon fill="#e0e0e0" stroke="#999999" points="1374,-145.5 1293,-145.5 1293,-126.5 1374,-126.5 1374,-145.5"/>
<text text-anchor="middle" x="1333.5" y="-133.5" font-family="Helvetica,sans-Serif" font-size="10.00">../utils/utils.hpp</text>
</a>
</g>
</g>
<!-- Node24&#45;&gt;Node25 -->
<g id="edge28" class="edge">
<title>Node24&#45;&gt;Node25</title>
<path fill="none" stroke="#63b8ff" d="M1303.66,-186.87C1308.63,-178.57 1316.28,-165.78 1322.6,-155.22"/>
<polygon fill="#63b8ff" stroke="#63b8ff" points="1325.41,-157.34 1327.54,-146.97 1319.4,-153.75 1325.41,-157.34"/>
</g>
<!-- Node26 -->
<g id="node26" class="node">
<title>Node26</title>
<g id="a_node26"><a xlink:title=" ">
<polygon fill="#e0e0e0" stroke="#999999" points="1466.5,-145.5 1392.5,-145.5 1392.5,-126.5 1466.5,-126.5 1466.5,-145.5"/>
<text text-anchor="middle" x="1429.5" y="-133.5" font-family="Helvetica,sans-Serif" font-size="10.00">openssl/bio.h</text>
</a>
</g>
</g>
<!-- Node24&#45;&gt;Node26 -->
<g id="edge30" class="edge">
<title>Node24&#45;&gt;Node26</title>
<path fill="none" stroke="#63b8ff" d="M1318.4,-186.62C1339.84,-177.04 1374.24,-161.68 1399.09,-150.58"/>
<polygon fill="#63b8ff" stroke="#63b8ff" points="1400.33,-153.86 1408.03,-146.59 1397.48,-147.47 1400.33,-153.86"/>
</g>
<!-- Node27 -->
<g id="node27" class="node">
<title>Node27</title>
<g id="a_node27"><a xlink:title=" ">
<polygon fill="#e0e0e0" stroke="#999999" points="1556,-145.5 1485,-145.5 1485,-126.5 1556,-126.5 1556,-145.5"/>
<text text-anchor="middle" x="1520.5" y="-133.5" font-family="Helvetica,sans-Serif" font-size="10.00">openssl/ec.h</text>
</a>
</g>
</g>
<!-- Node24&#45;&gt;Node27 -->
<g id="edge31" class="edge">
<title>Node24&#45;&gt;Node27</title>
<path fill="none" stroke="#63b8ff" d="M1336.64,-186.56C1372.6,-177.97 1427.91,-164.37 1475.5,-151 1477.48,-150.44 1479.51,-149.86 1481.55,-149.26"/>
<polygon fill="#63b8ff" stroke="#63b8ff" points="1482.47,-152.64 1491.04,-146.41 1480.45,-145.94 1482.47,-152.64"/>
</g>
<!-- Node28 -->
<g id="node28" class="node">
<title>Node28</title>
<g id="a_node28"><a xlink:title=" ">
<polygon fill="#e0e0e0" stroke="#999999" points="1661,-145.5 1574,-145.5 1574,-126.5 1661,-126.5 1661,-145.5"/>
<text text-anchor="middle" x="1617.5" y="-133.5" font-family="Helvetica,sans-Serif" font-size="10.00">openssl/ecdsa.h</text>
</a>
</g>
</g>
<!-- Node24&#45;&gt;Node28 -->
<g id="edge33" class="edge">
<title>Node24&#45;&gt;Node28</title>
<path fill="none" stroke="#63b8ff" d="M1342.22,-189.55C1395.31,-182.03 1487.43,-167.97 1565.5,-151 1568.67,-150.31 1571.93,-149.55 1575.21,-148.75"/>
<polygon fill="#63b8ff" stroke="#63b8ff" points="1575.98,-152.17 1584.81,-146.31 1574.25,-145.39 1575.98,-152.17"/>
</g>
<!-- Node29 -->
<g id="node29" class="node">
<title>Node29</title>
<g id="a_node29"><a xlink:title=" ">
<polygon fill="#e0e0e0" stroke="#999999" points="1759.5,-145.5 1679.5,-145.5 1679.5,-126.5 1759.5,-126.5 1759.5,-145.5"/>
<text text-anchor="middle" x="1719.5" y="-133.5" font-family="Helvetica,sans-Serif" font-size="10.00">openssl/pem.h</text>
</a>
</g>
</g>
<!-- Node24&#45;&gt;Node29 -->
<g id="edge35" class="edge">
<title>Node24&#45;&gt;Node29</title>
<path fill="none" stroke="#63b8ff" d="M1342.38,-192.53C1412.33,-187.28 1553.17,-174.62 1670.5,-151 1673.63,-150.37 1676.85,-149.64 1680.08,-148.85"/>
<polygon fill="#63b8ff" stroke="#63b8ff" points="1680.69,-152.31 1689.46,-146.38 1678.9,-145.54 1680.69,-152.31"/>
</g>
</g>
</svg>
        <g id="navigator" transform="translate(0 0)" fill="#404254">
                <rect fill="#f2f5e9" fill-opacity="0.5" stroke="#606060" stroke-width=".5" x="0" y="0" width="60" height="60"/>
                <use id="zoomplus" xlink:href="#zoomPlus" x="17" y="9" onmousedown="handleZoom(evt,'in')"/>
                <use id="zoomminus" xlink:href="#zoomMin" x="42" y="9" onmousedown="handleZoom(evt,'out')"/>
                <use id="reset" xlink:href="#resetDef" x="30" y="36" onmousedown="handleReset()"/>
                <g id="arrowUp" xlink:href="#dirArrow" transform="translate(30 24)" onmousedown="handlePan(0,-1)">
                  <use xlink:href="#rim" fill="#404040">
                        <set attributeName="fill" to="#808080" begin="arrowUp.mouseover" end="arrowUp.mouseout"/>
                  </use>
                  <path fill="none" stroke="white" stroke-width="1.5" d="M0,-3.0v7 M-2.5,-0.5L0,-3.0L2.5,-0.5"/>
                </g>
                <g id="arrowRight" xlink:href="#dirArrow" transform="rotate(90) translate(36 -43)" onmousedown="handlePan(1,0)">
                  <use xlink:href="#rim" fill="#404040">
                        <set attributeName="fill" to="#808080" begin="arrowRight.mouseover" end="arrowRight.mouseout"/>
                  </use>
                  <path fill="none" stroke="white" stroke-width="1.5" d="M0,-3.0v7 M-2.5,-0.5L0,-3.0L2.5,-0.5"/>
                </g>
                <g id="arrowDown" xlink:href="#dirArrow" transform="rotate(180) translate(-30 -48)" onmousedown="handlePan(0,1)">
                  <use xlink:href="#rim" fill="#404040">
                        <set attributeName="fill" to="#808080" begin="arrowDown.mouseover" end="arrowDown.mouseout"/>
                  </use>
                  <path fill="none" stroke="white" stroke-width="1.5" d="M0,-3.0v7 M-2.5,-0.5L0,-3.0L2.5,-0.5"/>
                </g>
                <g id="arrowLeft" xlink:href="#dirArrow" transform="rotate(270) translate(-36 17)" onmousedown="handlePan(-1,0)">
                  <use xlink:href="#rim" fill="#404040">
                        <set attributeName="fill" to="#808080" begin="arrowLeft.mouseover" end="arrowLeft.mouseout"/>
                  </use>
                  <path fill="none" stroke="white" stroke-width="1.5" d="M0,-3.0v7 M-2.5,-0.5L0,-3.0L2.5,-0.5"/>
                </g>
        </g>
        <svg viewBox="0 0 15 15" width="100%" height="30px" preserveAspectRatio="xMaxYMin meet">
         <g id="arrow_out" transform="scale(0.3 0.3)">
          <a xlink:href="packet-crypto_8hpp__incl_org.svg" target="_base">
           <rect id="button" ry="5" rx="5" y="6" x="6" height="38" width="38"
                fill="#f2f5e9" fill-opacity="0.5" stroke="#606060" stroke-width="1.0"/>
           <path id="arrow"
             d="M 11.500037,31.436501 C 11.940474,20.09759 22.043105,11.32322 32.158766,21.979434 L 37.068811,17.246167 C 37.068811,17.246167 37.088388,32 37.088388,32 L 22.160133,31.978069 C 22.160133,31.978069 26.997745,27.140456 26.997745,27.140456 C 18.528582,18.264221 13.291696,25.230495 11.500037,31.436501 z"
             style="fill:#404040;"/>
          </a>
         </g>
        </svg>
</svg>
