<?xml version="1.0" encoding="UTF-8" standalone="no"?>
<!DOCTYPE svg PUBLIC "-//W3C//DTD SVG 1.1//EN"
 "http://www.w3.org/Graphics/SVG/1.1/DTD/svg11.dtd">
<!-- Generated by graphviz version 8.1.0 (20230707.0739)
 -->
<!-- Title: mal_toolkit::Measurer::elapsed Pages: 1 -->
<svg width="420pt" height="39pt"
 viewBox="0.00 0.00 419.75 38.50" xmlns="http://www.w3.org/2000/svg" xmlns:xlink="http://www.w3.org/1999/xlink">
<g id="graph0" class="graph" transform="scale(1 1) rotate(0) translate(4 34.5)">
<title>mal_toolkit::Measurer::elapsed</title>
<!-- Node1 -->
<g id="Node000001" class="node">
<title>Node1</title>
<g id="a_Node000001"><a xlink:title="Get the total elapsed time since the start of the measurement.">
<polygon fill="#999999" stroke="#666666" points="411.75,-30.5 308,-30.5 308,0 411.75,0 411.75,-30.5"/>
<text text-anchor="start" x="316" y="-17" font-family="Times,serif" font-size="10.00">mal_toolkit::Measurer</text>
<text text-anchor="middle" x="359.88" y="-5.75" font-family="Times,serif" font-size="10.00">::elapsed</text>
</a>
</g>
</g>
<!-- Node2 -->
<g id="Node000002" class="node">
<title>Node2</title>
<g id="a_Node000002"><a xlink:href="../../d2/d9d/classmal__packet__weaver_1_1_packet.html#aec516b07bc3b09b17878bfd42004243c" target="_top" xlink:title="Get the time elapsed since the packet was created.">
<polygon fill="white" stroke="#666666" points="272,-30.5 135.25,-30.5 135.25,0 272,0 272,-30.5"/>
<text text-anchor="start" x="143.25" y="-17" font-family="Times,serif" font-size="10.00">mal_packet_weaver::</text>
<text text-anchor="middle" x="203.62" y="-5.75" font-family="Times,serif" font-size="10.00">Packet::get_packet_time_alive</text>
</a>
</g>
</g>
<!-- Node1&#45;&gt;Node2 -->
<g id="edge1_Node000001_Node000002" class="edge">
<title>Node1&#45;&gt;Node2</title>
<g id="a_edge1_Node000001_Node000002"><a xlink:title=" ">
<path fill="none" stroke="#63b8ff" d="M296.7,-15.25C288.65,-15.25 280.37,-15.25 272.23,-15.25"/>
<polygon fill="#63b8ff" stroke="#63b8ff" points="296.51,-18.75 306.51,-15.25 296.51,-11.75 296.51,-18.75"/>
</a>
</g>
</g>
<!-- Node3 -->
<g id="Node000003" class="node">
<title>Node3</title>
<g id="a_Node000003"><a xlink:href="../../d2/d9d/classmal__packet__weaver_1_1_packet.html#a573235a5877f469654754d62d85bbdd3" target="_top" xlink:title="Check if the packet has expired based on its time&#45;to&#45;live.">
<polygon fill="white" stroke="#666666" points="99.25,-30.5 0,-30.5 0,0 99.25,0 99.25,-30.5"/>
<text text-anchor="start" x="8" y="-17" font-family="Times,serif" font-size="10.00">mal_packet_weaver::</text>
<text text-anchor="middle" x="49.62" y="-5.75" font-family="Times,serif" font-size="10.00">Packet::expired</text>
</a>
</g>
</g>
<!-- Node2&#45;&gt;Node3 -->
<g id="edge2_Node000002_Node000003" class="edge">
<title>Node2&#45;&gt;Node3</title>
<g id="a_edge2_Node000002_Node000003"><a xlink:title=" ">
<path fill="none" stroke="#63b8ff" d="M124.15,-15.25C115.84,-15.25 107.57,-15.25 99.74,-15.25"/>
<polygon fill="#63b8ff" stroke="#63b8ff" points="124.07,-18.75 134.07,-15.25 124.07,-11.75 124.07,-18.75"/>
</a>
</g>
</g>
</g>
</svg>
