<?xml version="1.0" encoding="UTF-8" standalone="no"?>
<!DOCTYPE svg PUBLIC "-//W3C//DTD SVG 1.1//EN"
 "http://www.w3.org/Graphics/SVG/1.1/DTD/svg11.dtd">
<!-- Generated by graphviz version 9.0.0 (20230911.1827)
 -->
<!-- Title: mal_toolkit::Measurer::end Pages: 1 -->
<svg width="443pt" height="27pt"
 viewBox="0.00 0.00 443.00 27.25" xmlns="http://www.w3.org/2000/svg" xmlns:xlink="http://www.w3.org/1999/xlink">
<g id="graph0" class="graph" transform="scale(1 1) rotate(0) translate(4 23.25)">
<title>mal_toolkit::Measurer::end</title>
<!-- Node1 -->
<g id="Node000001" class="node">
<title>Node1</title>
<g id="a_Node000001"><a xlink:title="End measurement and log the result.">
<polygon fill="#999999" stroke="#666666" points="122.5,-19.25 0,-19.25 0,0 122.5,0 122.5,-19.25"/>
<text text-anchor="middle" x="61.25" y="-5.75" font-family="Times,serif" font-size="10.00">mal_toolkit::Measurer::end</text>
</a>
</g>
</g>
<!-- Node2 -->
<g id="Node000002" class="node">
<title>Node2</title>
<g id="a_Node000002"><a xlink:href="../../d1/d3a/structmal__toolkit_1_1_measurer.html#aea3e10503e8198a074f72c13e3615a52" target="_top" xlink:title="Log the accumulated measurements.">
<polygon fill="white" stroke="#666666" points="278,-19.25 158.5,-19.25 158.5,0 278,0 278,-19.25"/>
<text text-anchor="middle" x="218.25" y="-5.75" font-family="Times,serif" font-size="10.00">mal_toolkit::Measurer::log</text>
</a>
</g>
</g>
<!-- Node1&#45;&gt;Node2 -->
<g id="edge1_Node000001_Node000002" class="edge">
<title>Node1&#45;&gt;Node2</title>
<g id="a_edge1_Node000001_Node000002"><a xlink:title=" ">
<path fill="none" stroke="#63b8ff" d="M122.62,-9.62C130.54,-9.62 138.7,-9.62 146.77,-9.62"/>
<polygon fill="#63b8ff" stroke="#63b8ff" points="146.55,-13.13 156.55,-9.63 146.55,-6.13 146.55,-13.13"/>
</a>
</g>
</g>
<!-- Node3 -->
<g id="Node000003" class="node">
<title>Node3</title>
<g id="a_Node000003"><a xlink:href="../../d1/d3a/structmal__toolkit_1_1_measurer.html#ab4e7b2ae124cc9e9309760afeb98fe44" target="_top" xlink:title="Calculate the average execution time of the last N entries.">
<polygon fill="white" stroke="#666666" points="435,-19.25 314,-19.25 314,0 435,0 435,-19.25"/>
<text text-anchor="middle" x="374.5" y="-5.75" font-family="Times,serif" font-size="10.00">mal_toolkit::Measurer::avg</text>
</a>
</g>
</g>
<!-- Node2&#45;&gt;Node3 -->
<g id="edge2_Node000002_Node000003" class="edge">
<title>Node2&#45;&gt;Node3</title>
<g id="a_edge2_Node000002_Node000003"><a xlink:title=" ">
<path fill="none" stroke="#63b8ff" d="M278.45,-9.62C286.3,-9.62 294.42,-9.62 302.44,-9.62"/>
<polygon fill="#63b8ff" stroke="#63b8ff" points="302.18,-13.13 312.18,-9.63 302.18,-6.13 302.18,-13.13"/>
</a>
</g>
</g>
</g>
</svg>
