<?xml version="1.0" encoding="UTF-8" standalone="no"?>
<!DOCTYPE svg PUBLIC "-//W3C//DTD SVG 1.1//EN"
 "http://www.w3.org/Graphics/SVG/1.1/DTD/svg11.dtd">
<!-- Generated by graphviz version 9.0.0 (20230911.1827)
 -->
<!-- Title: mal_packet_weaver::portable_binary_iarchive::load Pages: 1 -->
<svg width="433pt" height="50pt"
 viewBox="0.00 0.00 432.50 49.75" xmlns="http://www.w3.org/2000/svg" xmlns:xlink="http://www.w3.org/1999/xlink">
<g id="graph0" class="graph" transform="scale(1 1) rotate(0) translate(4 45.75)">
<title>mal_packet_weaver::portable_binary_iarchive::load</title>
<!-- Node1 -->
<g id="Node000001" class="node">
<title>Node1</title>
<g id="a_Node000001"><a xlink:title=" ">
<polygon fill="#999999" stroke="#666666" points="137.5,-36.12 0,-36.12 0,-5.62 137.5,-5.62 137.5,-36.12"/>
<text text-anchor="start" x="8" y="-22.62" font-family="Times,serif" font-size="10.00">mal_packet_weaver::</text>
<text text-anchor="middle" x="68.75" y="-11.38" font-family="Times,serif" font-size="10.00">portable_binary_iarchive::load</text>
</a>
</g>
</g>
<!-- Node2 -->
<g id="Node000002" class="node">
<title>Node2</title>
<g id="a_Node000002"><a xlink:href="../../d8/d62/classmal__packet__weaver_1_1portable__binary__iarchive.html#ae953592c702c6691973415be252c343c" target="_top" xlink:title=" ">
<polygon fill="white" stroke="#666666" points="289.25,-41.75 173.5,-41.75 173.5,0 289.25,0 289.25,-41.75"/>
<text text-anchor="start" x="181.5" y="-28.25" font-family="Times,serif" font-size="10.00">mal_packet_weaver::</text>
<text text-anchor="start" x="181.5" y="-17" font-family="Times,serif" font-size="10.00">portable_binary_iarchive</text>
<text text-anchor="middle" x="231.38" y="-5.75" font-family="Times,serif" font-size="10.00">::load_impl</text>
</a>
</g>
</g>
<!-- Node1&#45;&gt;Node2 -->
<g id="edge1_Node000001_Node000002" class="edge">
<title>Node1&#45;&gt;Node2</title>
<g id="a_edge1_Node000001_Node000002"><a xlink:title=" ">
<path fill="none" stroke="#63b8ff" d="M137.87,-20.88C145.8,-20.88 153.89,-20.88 161.82,-20.88"/>
<polygon fill="#63b8ff" stroke="#63b8ff" points="161.78,-24.38 171.78,-20.88 161.78,-17.38 161.78,-24.38"/>
</a>
</g>
</g>
<!-- Node3 -->
<g id="Node000003" class="node">
<title>Node3</title>
<g id="a_Node000003"><a xlink:href="../../d6/de9/namespacemal__packet__weaver.html#a71615eb13401e9982f44e83260bd4fb5" target="_top" xlink:title=" ">
<polygon fill="white" stroke="#666666" points="424.5,-36.12 325.25,-36.12 325.25,-5.62 424.5,-5.62 424.5,-36.12"/>
<text text-anchor="start" x="333.25" y="-22.62" font-family="Times,serif" font-size="10.00">mal_packet_weaver::</text>
<text text-anchor="middle" x="374.88" y="-11.38" font-family="Times,serif" font-size="10.00">reverse_bytes</text>
</a>
</g>
</g>
<!-- Node2&#45;&gt;Node3 -->
<g id="edge2_Node000002_Node000003" class="edge">
<title>Node2&#45;&gt;Node3</title>
<g id="a_edge2_Node000002_Node000003"><a xlink:title=" ">
<path fill="none" stroke="#63b8ff" d="M289.52,-20.88C297.55,-20.88 305.82,-20.88 313.9,-20.88"/>
<polygon fill="#63b8ff" stroke="#63b8ff" points="313.64,-24.38 323.64,-20.88 313.64,-17.38 313.64,-24.38"/>
</a>
</g>
</g>
</g>
</svg>
