<?xml version="1.0" encoding="UTF-8" standalone="no"?>
<!DOCTYPE svg PUBLIC "-//W3C//DTD SVG 1.1//EN"
 "http://www.w3.org/Graphics/SVG/1.1/DTD/svg11.dtd">
<!-- Generated by graphviz version 8.1.0 (20230707.0739)
 -->
<!-- Title: mal_packet_weaver::portable_binary_iarchive::portable_binary_iarchive Pages: 1 -->
<svg width="759pt" height="50pt"
 viewBox="0.00 0.00 758.50 49.75" xmlns="http://www.w3.org/2000/svg" xmlns:xlink="http://www.w3.org/1999/xlink">
<g id="graph0" class="graph" transform="scale(1 1) rotate(0) translate(4 45.75)">
<title>mal_packet_weaver::portable_binary_iarchive::portable_binary_iarchive</title>
<!-- Node1 -->
<g id="Node000001" class="node">
<title>Node1</title>
<g id="a_Node000001"><a xlink:title=" ">
<polygon fill="#999999" stroke="#666666" points="120.25,-41.75 0,-41.75 0,0 120.25,0 120.25,-41.75"/>
<text text-anchor="start" x="8" y="-28.25" font-family="Times,serif" font-size="10.00">mal_packet_weaver::</text>
<text text-anchor="start" x="8" y="-17" font-family="Times,serif" font-size="10.00">portable_binary_iarchive</text>
<text text-anchor="middle" x="60.12" y="-5.75" font-family="Times,serif" font-size="10.00">::portable_binary_iarchive</text>
</a>
</g>
</g>
<!-- Node2 -->
<g id="Node000002" class="node">
<title>Node2</title>
<g id="a_Node000002"><a xlink:href="../../d8/d62/classmal__packet__weaver_1_1portable__binary__iarchive.html#a224feb5ec7dbb246cf813e07f09d75ac" target="_top" xlink:title=" ">
<polygon fill="white" stroke="#666666" points="290,-36.12 156.25,-36.12 156.25,-5.62 290,-5.62 290,-36.12"/>
<text text-anchor="start" x="164.25" y="-22.62" font-family="Times,serif" font-size="10.00">mal_packet_weaver::</text>
<text text-anchor="middle" x="223.12" y="-11.38" font-family="Times,serif" font-size="10.00">portable_binary_iarchive::init</text>
</a>
</g>
</g>
<!-- Node1&#45;&gt;Node2 -->
<g id="edge1_Node000001_Node000002" class="edge">
<title>Node1&#45;&gt;Node2</title>
<g id="a_edge1_Node000001_Node000002"><a xlink:title=" ">
<path fill="none" stroke="#63b8ff" d="M120.62,-20.88C128.59,-20.88 136.86,-20.88 145.08,-20.88"/>
<polygon fill="#63b8ff" stroke="#63b8ff" points="144.83,-24.38 154.83,-20.88 144.83,-17.38 144.83,-24.38"/>
</a>
</g>
</g>
<!-- Node3 -->
<g id="Node000003" class="node">
<title>Node3</title>
<g id="a_Node000003"><a xlink:href="../../d8/d62/classmal__packet__weaver_1_1portable__binary__iarchive.html#ae5f3ab1a61126fcace53161c3027ad1c" target="_top" xlink:title=" ">
<polygon fill="white" stroke="#666666" points="463.5,-36.12 326,-36.12 326,-5.62 463.5,-5.62 463.5,-36.12"/>
<text text-anchor="start" x="334" y="-22.62" font-family="Times,serif" font-size="10.00">mal_packet_weaver::</text>
<text text-anchor="middle" x="394.75" y="-11.38" font-family="Times,serif" font-size="10.00">portable_binary_iarchive::load</text>
</a>
</g>
</g>
<!-- Node2&#45;&gt;Node3 -->
<g id="edge2_Node000002_Node000003" class="edge">
<title>Node2&#45;&gt;Node3</title>
<g id="a_edge2_Node000002_Node000003"><a xlink:title=" ">
<path fill="none" stroke="#63b8ff" d="M290.19,-20.88C298.28,-20.88 306.6,-20.88 314.85,-20.88"/>
<polygon fill="#63b8ff" stroke="#63b8ff" points="314.63,-24.38 324.63,-20.88 314.63,-17.38 314.63,-24.38"/>
</a>
</g>
</g>
<!-- Node4 -->
<g id="Node000004" class="node">
<title>Node4</title>
<g id="a_Node000004"><a xlink:href="../../d8/d62/classmal__packet__weaver_1_1portable__binary__iarchive.html#ae953592c702c6691973415be252c343c" target="_top" xlink:title=" ">
<polygon fill="white" stroke="#666666" points="615.25,-41.75 499.5,-41.75 499.5,0 615.25,0 615.25,-41.75"/>
<text text-anchor="start" x="507.5" y="-28.25" font-family="Times,serif" font-size="10.00">mal_packet_weaver::</text>
<text text-anchor="start" x="507.5" y="-17" font-family="Times,serif" font-size="10.00">portable_binary_iarchive</text>
<text text-anchor="middle" x="557.38" y="-5.75" font-family="Times,serif" font-size="10.00">::load_impl</text>
</a>
</g>
</g>
<!-- Node3&#45;&gt;Node4 -->
<g id="edge3_Node000003_Node000004" class="edge">
<title>Node3&#45;&gt;Node4</title>
<g id="a_edge3_Node000003_Node000004"><a xlink:title=" ">
<path fill="none" stroke="#63b8ff" d="M463.87,-20.88C471.98,-20.88 480.26,-20.88 488.37,-20.88"/>
<polygon fill="#63b8ff" stroke="#63b8ff" points="488.3,-24.38 498.3,-20.88 488.3,-17.38 488.3,-24.38"/>
</a>
</g>
</g>
<!-- Node5 -->
<g id="Node000005" class="node">
<title>Node5</title>
<g id="a_Node000005"><a xlink:href="../../d6/de9/namespacemal__packet__weaver.html#a71615eb13401e9982f44e83260bd4fb5" target="_top" xlink:title=" ">
<polygon fill="white" stroke="#666666" points="750.5,-36.12 651.25,-36.12 651.25,-5.62 750.5,-5.62 750.5,-36.12"/>
<text text-anchor="start" x="659.25" y="-22.62" font-family="Times,serif" font-size="10.00">mal_packet_weaver::</text>
<text text-anchor="middle" x="700.88" y="-11.38" font-family="Times,serif" font-size="10.00">reverse_bytes</text>
</a>
</g>
</g>
<!-- Node4&#45;&gt;Node5 -->
<g id="edge4_Node000004_Node000005" class="edge">
<title>Node4&#45;&gt;Node5</title>
<g id="a_edge4_Node000004_Node000005"><a xlink:title=" ">
<path fill="none" stroke="#63b8ff" d="M615.52,-20.88C623.64,-20.88 632.01,-20.88 640.18,-20.88"/>
<polygon fill="#63b8ff" stroke="#63b8ff" points="640.15,-24.38 650.15,-20.88 640.15,-17.38 640.15,-24.38"/>
</a>
</g>
</g>
</g>
</svg>
