<?xml version="1.0" encoding="UTF-8" standalone="no"?>
<!DOCTYPE svg PUBLIC "-//W3C//DTD SVG 1.1//EN"
 "http://www.w3.org/Graphics/SVG/1.1/DTD/svg11.dtd">
<!-- Generated by graphviz version 9.0.0 (20230911.1827)
 -->
<!-- Title: mal_packet_weaver::portable_binary_iarchive::load Pages: 1 -->
<svg width="472pt" height="110pt"
 viewBox="0.00 0.00 471.50 109.75" xmlns="http://www.w3.org/2000/svg" xmlns:xlink="http://www.w3.org/1999/xlink">
<g id="graph0" class="graph" transform="scale(1 1) rotate(0) translate(4 105.75)">
<title>mal_packet_weaver::portable_binary_iarchive::load</title>
<!-- Node1 -->
<g id="Node000001" class="node">
<title>Node1</title>
<g id="a_Node000001"><a xlink:title=" ">
<polygon fill="#999999" stroke="#666666" points="463.5,-66.12 326,-66.12 326,-35.62 463.5,-35.62 463.5,-66.12"/>
<text text-anchor="start" x="334" y="-52.62" font-family="Times,serif" font-size="10.00">mal_packet_weaver::</text>
<text text-anchor="middle" x="394.75" y="-41.38" font-family="Times,serif" font-size="10.00">portable_binary_iarchive::load</text>
</a>
</g>
</g>
<!-- Node2 -->
<g id="Node000002" class="node">
<title>Node2</title>
<g id="a_Node000002"><a xlink:href="../../d8/d62/classmal__packet__weaver_1_1portable__binary__iarchive.html#a224feb5ec7dbb246cf813e07f09d75ac" target="_top" xlink:title=" ">
<polygon fill="white" stroke="#666666" points="290,-66.12 156.25,-66.12 156.25,-35.62 290,-35.62 290,-66.12"/>
<text text-anchor="start" x="164.25" y="-52.62" font-family="Times,serif" font-size="10.00">mal_packet_weaver::</text>
<text text-anchor="middle" x="223.12" y="-41.38" font-family="Times,serif" font-size="10.00">portable_binary_iarchive::init</text>
</a>
</g>
</g>
<!-- Node1&#45;&gt;Node2 -->
<g id="edge1_Node000001_Node000002" class="edge">
<title>Node1&#45;&gt;Node2</title>
<g id="a_edge1_Node000001_Node000002"><a xlink:title=" ">
<path fill="none" stroke="#63b8ff" d="M314.47,-50.88C306.45,-50.88 298.36,-50.88 290.5,-50.88"/>
<polygon fill="#63b8ff" stroke="#63b8ff" points="314.22,-54.38 324.22,-50.88 314.22,-47.38 314.22,-54.38"/>
</a>
</g>
</g>
<!-- Node3 -->
<g id="Node000003" class="node">
<title>Node3</title>
<g id="a_Node000003"><a xlink:href="../../d8/d62/classmal__packet__weaver_1_1portable__binary__iarchive.html#a241e1fb18840c71690869d6db286974f" target="_top" xlink:title=" ">
<polygon fill="white" stroke="#666666" points="120.25,-101.75 0,-101.75 0,-60 120.25,-60 120.25,-101.75"/>
<text text-anchor="start" x="8" y="-88.25" font-family="Times,serif" font-size="10.00">mal_packet_weaver::</text>
<text text-anchor="start" x="8" y="-77" font-family="Times,serif" font-size="10.00">portable_binary_iarchive</text>
<text text-anchor="middle" x="60.12" y="-65.75" font-family="Times,serif" font-size="10.00">::portable_binary_iarchive</text>
</a>
</g>
</g>
<!-- Node2&#45;&gt;Node3 -->
<g id="edge2_Node000002_Node000003" class="edge">
<title>Node2&#45;&gt;Node3</title>
<g id="a_edge2_Node000002_Node000003"><a xlink:title=" ">
<path fill="none" stroke="#63b8ff" d="M145.01,-65.24C136.78,-66.78 128.49,-68.32 120.51,-69.81"/>
<polygon fill="#63b8ff" stroke="#63b8ff" points="145.5,-68.71 154.69,-63.44 144.22,-61.83 145.5,-68.71"/>
</a>
</g>
</g>
<!-- Node4 -->
<g id="Node000004" class="node">
<title>Node4</title>
<g id="a_Node000004"><a xlink:href="../../d8/d62/classmal__packet__weaver_1_1portable__binary__iarchive.html#a7d4e4255ee91112bac1c21cc77e5e800" target="_top" xlink:title=" ">
<polygon fill="white" stroke="#666666" points="120.25,-41.75 0,-41.75 0,0 120.25,0 120.25,-41.75"/>
<text text-anchor="start" x="8" y="-28.25" font-family="Times,serif" font-size="10.00">mal_packet_weaver::</text>
<text text-anchor="start" x="8" y="-17" font-family="Times,serif" font-size="10.00">portable_binary_iarchive</text>
<text text-anchor="middle" x="60.12" y="-5.75" font-family="Times,serif" font-size="10.00">::portable_binary_iarchive</text>
</a>
</g>
</g>
<!-- Node2&#45;&gt;Node4 -->
<g id="edge3_Node000002_Node000004" class="edge">
<title>Node2&#45;&gt;Node4</title>
<g id="a_edge3_Node000002_Node000004"><a xlink:title=" ">
<path fill="none" stroke="#63b8ff" d="M145.01,-36.51C136.78,-34.97 128.49,-33.43 120.51,-31.94"/>
<polygon fill="#63b8ff" stroke="#63b8ff" points="144.22,-39.92 154.69,-38.31 145.5,-33.04 144.22,-39.92"/>
</a>
</g>
</g>
</g>
</svg>
