<?xml version="1.0" encoding="UTF-8" standalone="no"?>
<!DOCTYPE svg PUBLIC "-//W3C//DTD SVG 1.1//EN"
 "http://www.w3.org/Graphics/SVG/1.1/DTD/svg11.dtd">
<!-- Generated by graphviz version 11.0.0 (20240428.1522)
 -->
<!-- Title: mal_packet_weaver::Packet Pages: 1 -->
<!--zoomable 513 -->

<svg id="main" version="1.1" xmlns="http://www.w3.org/2000/svg" xmlns:xlink="http://www.w3.org/1999/xlink" xml:space="preserve" onload="init(evt)">
<style type="text/css"><![CDATA[
.node, .edge {opacity: 0.7;}
.node.selected, .edge.selected {opacity: 1;}
.edge:hover path { stroke: red; }
.edge:hover polygon { stroke: red; fill: red; }
]]></style>

<defs>
  <circle id="rim" cx="0" cy="0" r="7"/>
  <circle id="rim2" cx="0" cy="0" r="3.5"/>
  <g id="zoomPlus">
    <use xlink:href="#rim" fill="#404040"><set attributeName="fill" to="#808080" begin="zoomplus.mouseover" end="zoomplus.mouseout"/></use>
    <path d="M-4,0h8M0,-4v8" fill="none" stroke="white" stroke-width="1.5" pointer-events="none"/>
  </g>
  <g id="zoomMin">
    <use xlink:href="#rim" fill="#404040"><set attributeName="fill" to="#808080" begin="zoomminus.mouseover" end="zoomminus.mouseout"/></use>
    <path d="M-4,0h8" fill="none" stroke="white" stroke-width="1.5" pointer-events="none"/>
  </g>
  <g id="arrowUp" transform="translate(30 24)">
    <use xlink:href="#rim"/>
    <path pointer-events="none" fill="none" stroke="white" stroke-width="1.5" d="M0,-3.0v7 M-2.5,-0.5L0,-3.0L2.5,-0.5"/>
  </g>
  <g id="arrowRight" transform="rotate(90) translate(36 -43)">
    <use xlink:href="#rim"/>
    <path pointer-events="none" fill="none" stroke="white" stroke-width="1.5" d="M0,-3.0v7 M-2.5,-0.5L0,-3.0L2.5,-0.5"/>
  </g>
  <g id="arrowDown" transform="rotate(180) translate(-30 -48)">
    <use xlink:href="#rim"/>
    <path pointer-events="none" fill="none" stroke="white" stroke-width="1.5" d="M0,-3.0v7 M-2.5,-0.5L0,-3.0L2.5,-0.5"/>
  </g>
  <g id="arrowLeft" transform="rotate(270) translate(-36 17)">
    <use xlink:href="#rim"/>
    <path pointer-events="none" fill="none" stroke="white" stroke-width="1.5" d="M0,-3.0v7 M-2.5,-0.5L0,-3.0L2.5,-0.5"/>
  </g>
  <g id="resetDef">
    <use xlink:href="#rim2" fill="#404040"><set attributeName="fill" to="#808080" begin="reset.mouseover" end="reset.mouseout"/></use>
  </g>
</defs>
<script type="application/ecmascript">
var viewWidth = 1107;
var viewHeight = 513;
var sectionId = 'dynsection-1';
</script>
<script type="application/ecmascript" xlink:href="../../svg.min.js"/>
<svg id="graph" class="graph">
<g id="viewport">
<title>mal_packet_weaver::Packet</title>
<!-- Node1 -->
<g id="Node000001" class="node">
<title>Node1</title>
<g id="a_Node000001"><a xlink:title="Base class for all packets.">
<polygon fill="#999999" stroke="#666666" points="1098.75,-428.59 999.5,-428.59 999.5,-398.09 1098.75,-398.09 1098.75,-428.59"/>
<text text-anchor="start" x="1007.5" y="-415.09" font-family="Times,serif" font-size="10.00">mal_packet_weaver::</text>
<text text-anchor="middle" x="1049.12" y="-403.84" font-family="Times,serif" font-size="10.00">Packet</text>
</a>
</g>
</g>
<!-- Node2 -->
<g id="Node000002" class="node">
<title>Node2</title>
<g id="a_Node000002"><a xlink:href="../../d1/dd3/classmal__toolkit_1_1non__copyable.html" target="_top" xlink:title="A class that can&#39;t be copied.">
<polygon fill="white" stroke="#666666" points="924.5,-504.97 805,-504.97 805,-485.72 924.5,-485.72 924.5,-504.97"/>
<text text-anchor="middle" x="864.75" y="-491.47" font-family="Times,serif" font-size="10.00">mal_toolkit::non_copyable</text>
</a>
</g>
</g>
<!-- Node2&#45;&gt;Node1 -->
<g id="edge1_Node000001_Node000002" class="edge">
<title>Node2&#45;&gt;Node1</title>
<g id="a_edge1_Node000001_Node000002"><a xlink:title=" ">
<path fill="none" stroke="#63b8ff" d="M935.96,-486.77C951.46,-483.26 967.44,-478.31 981.5,-471.34 1002.52,-460.92 1022.21,-442.23 1034.66,-428.89"/>
<polygon fill="#63b8ff" stroke="#63b8ff" points="935.35,-483.32 926.27,-488.77 936.77,-490.18 935.35,-483.32"/>
</a>
</g>
</g>
<!-- Node3 -->
<g id="Node000003" class="node">
<title>Node3</title>
<g id="a_Node000003"><a xlink:href="../../d1/d3a/structmal__toolkit_1_1_measurer.html" target="_top" xlink:title=" ">
<polygon fill="white" stroke="#666666" points="916.62,-314.22 812.88,-314.22 812.88,-272.47 916.62,-272.47 916.62,-314.22"/>
<text text-anchor="start" x="820.88" y="-300.72" font-family="Times,serif" font-size="10.00">mal_toolkit::Measurer</text>
<text text-anchor="start" x="820.88" y="-289.47" font-family="Times,serif" font-size="10.00">&lt; std::chrono::steady</text>
<text text-anchor="middle" x="864.75" y="-278.22" font-family="Times,serif" font-size="10.00">_clock &gt;</text>
</a>
</g>
</g>
<!-- Node3&#45;&gt;Node1 -->
<g id="edge2_Node000001_Node000003" class="edge">
<title>Node3&#45;&gt;Node1</title>
<g id="a_edge2_Node000001_Node000003"><a xlink:title=" ">
<path fill="none" stroke="#9a32cd" stroke-dasharray="5,2" d="M907.26,-320.65C943.47,-344.48 994.72,-378.2 1024.39,-397.72"/>
<polygon fill="#9a32cd" stroke="#9a32cd" points="909.48,-317.92 899.2,-315.35 905.63,-323.77 909.48,-317.92"/>
</a>
</g>
<text text-anchor="middle" x="962" y="-369.09" font-family="Times,serif" font-size="10.00" fill="grey"> measurer</text>
</g>
<!-- Node4 -->
<g id="Node000004" class="node">
<title>Node4</title>
<g id="a_Node000004"><a xlink:href="../../d4/dc3/classfloat.html" target="_top" xlink:title=" ">
<polygon fill="white" stroke="#666666" points="34,-221.97 0,-221.97 0,-202.72 34,-202.72 34,-221.97"/>
<text text-anchor="middle" x="17" y="-208.47" font-family="Times,serif" font-size="10.00">float</text>
</a>
</g>
</g>
<!-- Node4&#45;&gt;Node1 -->
<g id="edge25_Node000001_Node000004" class="edge">
<title>Node4&#45;&gt;Node1</title>
<g id="a_edge25_Node000001_Node000004"><a xlink:title=" ">
<path fill="none" stroke="#9a32cd" stroke-dasharray="5,2" d="M20.45,-233.55C28.6,-293.07 60.51,-457.34 164.38,-457.34 164.38,-457.34 164.38,-457.34 865.75,-457.34 915.58,-457.34 970.99,-441.62 1007.51,-428.98"/>
<polygon fill="#9a32cd" stroke="#9a32cd" points="23.93,-233.23 19.21,-223.75 16.99,-234.11 23.93,-233.23"/>
</a>
</g>
<text text-anchor="middle" x="522.38" y="-470.34" font-family="Times,serif" font-size="10.00" fill="grey"> time_to_live</text>
<text text-anchor="middle" x="522.38" y="-459.09" font-family="Times,serif" font-size="10.00" fill="grey">timestamp_</text>
</g>
<!-- Node4&#45;&gt;Node3 -->
<g id="edge3_Node000003_Node000004" class="edge">
<title>Node4&#45;&gt;Node3</title>
<g id="a_edge3_Node000003_Node000004"><a xlink:title=" ">
<path fill="none" stroke="#9a32cd" stroke-dasharray="5,2" d="M32.88,-231.01C49.94,-250.76 79.9,-280.78 113.5,-293.34 236.38,-339.26 572.58,-299.56 703.75,-300.34 740.75,-300.56 750.04,-302.02 787,-300.34 795.29,-299.96 804.06,-299.36 812.6,-298.66"/>
<polygon fill="#9a32cd" stroke="#9a32cd" points="35.65,-228.86 26.56,-223.42 30.27,-233.34 35.65,-228.86"/>
</a>
</g>
<text text-anchor="middle" x="407.12" y="-316.09" font-family="Times,serif" font-size="10.00" fill="grey"> time_to_flush</text>
</g>
<!-- Node10 -->
<g id="Node000010" class="node">
<title>Node10</title>
<g id="a_Node000010"><a xlink:href="../../db/ddb/structmal__toolkit_1_1_measurer_1_1_entry.html" target="_top" xlink:title=" ">
<polygon fill="white" stroke="#666666" points="217.25,-78.59 113.5,-78.59 113.5,-48.09 217.25,-48.09 217.25,-78.59"/>
<text text-anchor="start" x="121.5" y="-65.09" font-family="Times,serif" font-size="10.00">mal_toolkit::Measurer</text>
<text text-anchor="middle" x="165.38" y="-53.84" font-family="Times,serif" font-size="10.00">&lt; clock &gt;::Entry</text>
</a>
</g>
</g>
<!-- Node4&#45;&gt;Node10 -->
<g id="edge10_Node000010_Node000004" class="edge">
<title>Node4&#45;&gt;Node10</title>
<g id="a_edge10_Node000010_Node000004"><a xlink:title=" ">
<path fill="none" stroke="#9a32cd" stroke-dasharray="5,2" d="M20,-191.19C23.85,-155.4 33.6,-85.25 52,-69.84 68.63,-55.91 91.97,-52.84 113.07,-53.83"/>
<polygon fill="#9a32cd" stroke="#9a32cd" points="16.55,-190.47 19.03,-200.77 23.52,-191.17 16.55,-190.47"/>
</a>
</g>
<text text-anchor="middle" x="73.75" y="-83.34" font-family="Times,serif" font-size="10.00" fill="grey"> elapsed</text>
<text text-anchor="middle" x="73.75" y="-72.09" font-family="Times,serif" font-size="10.00" fill="grey">entry_time</text>
</g>
<!-- Node17 -->
<g id="Node000017" class="node">
<title>Node17</title>
<g id="a_Node000017"><a xlink:href="../../d1/d3a/structmal__toolkit_1_1_measurer.html" target="_top" xlink:title="A class for measuring and logging the execution time of functions.">
<polygon fill="white" stroke="#666666" points="685.75,-154.59 582,-154.59 582,-124.09 685.75,-124.09 685.75,-154.59"/>
<text text-anchor="start" x="590" y="-141.09" font-family="Times,serif" font-size="10.00">mal_toolkit::Measurer</text>
<text text-anchor="middle" x="633.88" y="-129.84" font-family="Times,serif" font-size="10.00">&lt; clock &gt;</text>
</a>
</g>
</g>
<!-- Node4&#45;&gt;Node17 -->
<g id="edge18_Node000017_Node000004" class="edge">
<title>Node4&#45;&gt;Node17</title>
<g id="a_edge18_Node000017_Node000004"><a xlink:title=" ">
<path fill="none" stroke="#9a32cd" stroke-dasharray="5,2" d="M45.15,-202.72C101.41,-183.36 235.14,-140.27 351.5,-125.34 400.54,-119.05 413.35,-123.31 462.75,-125.34 502.72,-126.98 547.85,-130.79 581.57,-134.01"/>
<polygon fill="#9a32cd" stroke="#9a32cd" points="44.09,-199.38 35.79,-205.97 46.39,-206 44.09,-199.38"/>
</a>
</g>
<text text-anchor="middle" x="284.38" y="-149.09" font-family="Times,serif" font-size="10.00" fill="grey"> time_to_flush</text>
</g>
<!-- Node5 -->
<g id="Node000005" class="node">
<title>Node5</title>
<g id="a_Node000005"><a xlink:href="../../dd/de2/classsize__t.html" target="_top" xlink:title=" ">
<polygon fill="white" stroke="#666666" points="427.12,-222.97 387.12,-222.97 387.12,-203.72 427.12,-203.72 427.12,-222.97"/>
<text text-anchor="middle" x="407.12" y="-209.47" font-family="Times,serif" font-size="10.00">size_t</text>
</a>
</g>
</g>
<!-- Node5&#45;&gt;Node3 -->
<g id="edge4_Node000003_Node000005" class="edge">
<title>Node5&#45;&gt;Node3</title>
<g id="a_edge4_Node000003_Node000005"><a xlink:title=" ">
<path fill="none" stroke="#9a32cd" stroke-dasharray="5,2" d="M438.63,-216.65C489.91,-222.41 596.5,-235.28 685.75,-251.84 728.8,-259.83 777.17,-271.26 812.6,-280.11"/>
<polygon fill="#9a32cd" stroke="#9a32cd" points="439.24,-213.19 428.91,-215.57 438.46,-220.15 439.24,-213.19"/>
</a>
</g>
<text text-anchor="middle" x="633.88" y="-264.34" font-family="Times,serif" font-size="10.00" fill="grey"> index</text>
<text text-anchor="middle" x="633.88" y="-253.09" font-family="Times,serif" font-size="10.00" fill="grey">maximum_entries</text>
</g>
<!-- Node5&#45;&gt;Node17 -->
<g id="edge19_Node000017_Node000005" class="edge">
<title>Node5&#45;&gt;Node17</title>
<g id="a_edge19_Node000017_Node000005"><a xlink:title=" ">
<path fill="none" stroke="#9a32cd" stroke-dasharray="5,2" d="M438.56,-206.58C477.09,-197.88 541.21,-182.86 564,-174.34 578.2,-169.03 593.28,-161.59 605.7,-154.94"/>
<polygon fill="#9a32cd" stroke="#9a32cd" points="437.96,-203.13 428.97,-208.74 439.5,-209.96 437.96,-203.13"/>
</a>
</g>
<text text-anchor="middle" x="522.38" y="-210.34" font-family="Times,serif" font-size="10.00" fill="grey"> index</text>
<text text-anchor="middle" x="522.38" y="-199.09" font-family="Times,serif" font-size="10.00" fill="grey">maximum_entries</text>
</g>
<!-- Node6 -->
<g id="Node000006" class="node">
<title>Node6</title>
<g id="a_Node000006"><a xlink:href="../../d9/db9/classbool.html" target="_top" xlink:title=" ">
<polygon fill="white" stroke="#666666" points="423.75,-74.97 390.5,-74.97 390.5,-55.72 423.75,-55.72 423.75,-74.97"/>
<text text-anchor="middle" x="407.12" y="-61.47" font-family="Times,serif" font-size="10.00">bool</text>
</a>
</g>
</g>
<!-- Node6&#45;&gt;Node3 -->
<g id="edge5_Node000003_Node000006" class="edge">
<title>Node6&#45;&gt;Node3</title>
<g id="a_edge5_Node000003_Node000006"><a xlink:title=" ">
<path fill="none" stroke="#9a32cd" stroke-dasharray="5,2" d="M435.07,-61.17C506.65,-51.83 701.86,-37.96 787,-148.34 818.6,-189.3 774.65,-221.45 805,-263.34 807.35,-266.59 810.16,-269.51 813.25,-272.13"/>
<polygon fill="#9a32cd" stroke="#9a32cd" points="434.86,-57.67 425.44,-62.51 435.82,-64.6 434.86,-57.67"/>
</a>
</g>
<text text-anchor="middle" x="633.88" y="-79.09" font-family="Times,serif" font-size="10.00" fill="grey"> log_automatically</text>
</g>
<!-- Node6&#45;&gt;Node17 -->
<g id="edge20_Node000017_Node000006" class="edge">
<title>Node6&#45;&gt;Node17</title>
<g id="a_edge20_Node000017_Node000006"><a xlink:title=" ">
<path fill="none" stroke="#9a32cd" stroke-dasharray="5,2" d="M435.03,-63.35C467.07,-62.02 521.59,-63.09 564,-81.09 586.34,-90.57 606.88,-109.93 619.61,-123.72"/>
<polygon fill="#9a32cd" stroke="#9a32cd" points="435.23,-59.83 425.43,-63.86 435.6,-66.82 435.23,-59.83"/>
</a>
</g>
<text text-anchor="middle" x="522.38" y="-83.09" font-family="Times,serif" font-size="10.00" fill="grey"> log_automatically</text>
</g>
<!-- Node7 -->
<g id="Node000007" class="node">
<title>Node7</title>
<g id="a_Node000007"><a xlink:title=" ">
<polygon fill="white" stroke="#666666" points="435,-278.97 379.25,-278.97 379.25,-259.72 435,-259.72 435,-278.97"/>
<text text-anchor="middle" x="407.12" y="-265.47" font-family="Times,serif" font-size="10.00">std::string</text>
</a>
</g>
</g>
<!-- Node7&#45;&gt;Node3 -->
<g id="edge6_Node000003_Node000007" class="edge">
<title>Node7&#45;&gt;Node3</title>
<g id="a_edge6_Node000003_Node000007"><a xlink:title=" ">
<path fill="none" stroke="#9a32cd" stroke-dasharray="5,2" d="M446.52,-271.36C528.42,-275.68 720.27,-285.78 812.48,-290.64"/>
<polygon fill="#9a32cd" stroke="#9a32cd" points="446.94,-267.88 436.77,-270.85 446.58,-274.87 446.94,-267.88"/>
</a>
</g>
<text text-anchor="middle" x="633.88" y="-285.09" font-family="Times,serif" font-size="10.00" fill="grey"> output</text>
</g>
<!-- Node7&#45;&gt;Node17 -->
<g id="edge21_Node000017_Node000007" class="edge">
<title>Node7&#45;&gt;Node17</title>
<g id="a_edge21_Node000017_Node000007"><a xlink:title=" ">
<path fill="none" stroke="#9a32cd" stroke-dasharray="5,2" d="M446.36,-264.53C479.68,-258.89 528.13,-247.12 564,-223.34 590.88,-205.52 612.58,-174.03 624.03,-155.08"/>
<polygon fill="#9a32cd" stroke="#9a32cd" points="446.09,-261.03 436.75,-266.04 447.17,-267.94 446.09,-261.03"/>
</a>
</g>
<text text-anchor="middle" x="522.38" y="-258.09" font-family="Times,serif" font-size="10.00" fill="grey"> output</text>
</g>
<!-- Node8 -->
<g id="Node000008" class="node">
<title>Node8</title>
<g id="a_Node000008"><a xlink:title=" ">
<polygon fill="white" stroke="#666666" points="209,-284.59 121.75,-284.59 121.75,-254.09 209,-254.09 209,-284.59"/>
<text text-anchor="start" x="129.75" y="-271.09" font-family="Times,serif" font-size="10.00">std::basic_string&lt;</text>
<text text-anchor="middle" x="165.38" y="-259.84" font-family="Times,serif" font-size="10.00"> Char &gt;</text>
</a>
</g>
</g>
<!-- Node8&#45;&gt;Node7 -->
<g id="edge7_Node000007_Node000008" class="edge">
<title>Node8&#45;&gt;Node7</title>
<g id="a_edge7_Node000007_Node000008"><a xlink:title=" ">
<path fill="none" stroke="#63b8ff" d="M220.65,-269.34C269.94,-269.34 340.6,-269.34 378.91,-269.34"/>
<polygon fill="#63b8ff" stroke="#63b8ff" points="220.75,-265.84 210.75,-269.34 220.75,-272.84 220.75,-265.84"/>
</a>
</g>
</g>
<!-- Node9 -->
<g id="Node000009" class="node">
<title>Node9</title>
<g id="a_Node000009"><a xlink:title=" ">
<polygon fill="white" stroke="#666666" points="462.38,-34.59 351.88,-34.59 351.88,-4.09 462.38,-4.09 462.38,-34.59"/>
<text text-anchor="start" x="359.88" y="-21.09" font-family="Times,serif" font-size="10.00">std::vector&lt; mal_toolkit</text>
<text text-anchor="middle" x="407.12" y="-9.84" font-family="Times,serif" font-size="10.00">::Measurer::Entry &gt;</text>
</a>
</g>
</g>
<!-- Node9&#45;&gt;Node3 -->
<g id="edge8_Node000003_Node000009" class="edge">
<title>Node9&#45;&gt;Node3</title>
<g id="a_edge8_Node000003_Node000009"><a xlink:title=" ">
<path fill="none" stroke="#9a32cd" stroke-dasharray="5,2" d="M473.8,-6.93C562.02,5.44 715.92,10.93 787,-83.34 835.4,-147.54 759.66,-196.95 805,-263.34 807.2,-266.56 809.84,-269.45 812.79,-272.04"/>
<polygon fill="#9a32cd" stroke="#9a32cd" points="473.47,-3.44 464.09,-8.36 474.49,-10.36 473.47,-3.44"/>
</a>
</g>
<text text-anchor="middle" x="633.88" y="-17.09" font-family="Times,serif" font-size="10.00" fill="grey"> entries</text>
</g>
<!-- Node9&#45;&gt;Node17 -->
<g id="edge22_Node000017_Node000009" class="edge">
<title>Node9&#45;&gt;Node17</title>
<g id="a_edge22_Node000017_Node000009"><a xlink:title=" ">
<path fill="none" stroke="#9a32cd" stroke-dasharray="5,2" d="M474.23,-21.41C503.52,-24.88 537.31,-32.59 564,-49.09 593.51,-67.33 614.99,-103.15 625.54,-123.75"/>
<polygon fill="#9a32cd" stroke="#9a32cd" points="474.64,-17.94 464.34,-20.4 473.93,-24.9 474.64,-17.94"/>
</a>
</g>
<text text-anchor="middle" x="522.38" y="-51.09" font-family="Times,serif" font-size="10.00" fill="grey"> entries</text>
</g>
<!-- Node10&#45;&gt;Node9 -->
<g id="edge9_Node000009_Node000010" class="edge">
<title>Node10&#45;&gt;Node9</title>
<g id="a_edge9_Node000009_Node000010"><a xlink:title=" ">
<path fill="none" stroke="#9a32cd" stroke-dasharray="5,2" d="M228.86,-57.56C260.44,-54.03 299.23,-48.73 333.5,-41.34 341.61,-39.59 350.13,-37.37 358.36,-35.01"/>
<polygon fill="#9a32cd" stroke="#9a32cd" points="228.65,-54.07 219.08,-58.62 229.4,-61.03 228.65,-54.07"/>
</a>
</g>
<text text-anchor="middle" x="284.38" y="-59.09" font-family="Times,serif" font-size="10.00" fill="grey"> elements</text>
</g>
<!-- Node11 -->
<g id="Node000011" class="node">
<title>Node11</title>
<g id="a_Node000011"><a xlink:title=" ">
<polygon fill="white" stroke="#666666" points="205.25,-26.97 125.5,-26.97 125.5,-7.72 205.25,-7.72 205.25,-26.97"/>
<text text-anchor="middle" x="165.38" y="-13.47" font-family="Times,serif" font-size="10.00">std::vector&lt; T &gt;</text>
</a>
</g>
</g>
<!-- Node11&#45;&gt;Node9 -->
<g id="edge11_Node000009_Node000011" class="edge">
<title>Node11&#45;&gt;Node9</title>
<g id="a_edge11_Node000009_Node000011"><a xlink:title=" ">
<path fill="none" stroke="orange" stroke-dasharray="5,2" d="M217.16,-17.76C256.6,-18.09 311.18,-18.55 351.55,-18.89"/>
<polygon fill="orange" stroke="orange" points="217.24,-14.26 207.21,-17.68 217.18,-21.26 217.24,-14.26"/>
</a>
</g>
<text text-anchor="start" x="235.25" y="-32.34" font-family="Times,serif" font-size="10.00" fill="grey"> &lt; mal_toolkit::Measurer</text>
<text text-anchor="middle" x="284.38" y="-21.09" font-family="Times,serif" font-size="10.00" fill="grey">::Entry &gt;</text>
</g>
<!-- Node12 -->
<g id="Node000012" class="node">
<title>Node12</title>
<g id="a_Node000012"><a xlink:title=" ">
<polygon fill="white" stroke="#666666" points="31.4,-26.97 2.6,-26.97 2.6,-7.72 31.4,-7.72 31.4,-26.97"/>
<text text-anchor="middle" x="17" y="-13.47" font-family="Times,serif" font-size="10.00">T</text>
</a>
</g>
</g>
<!-- Node12&#45;&gt;Node11 -->
<g id="edge12_Node000011_Node000012" class="edge">
<title>Node12&#45;&gt;Node11</title>
<g id="a_edge12_Node000011_Node000012"><a xlink:title=" ">
<path fill="none" stroke="#9a32cd" stroke-dasharray="5,2" d="M43.03,-17.34C65.54,-17.34 98.97,-17.34 125.05,-17.34"/>
<polygon fill="#9a32cd" stroke="#9a32cd" points="43.28,-13.84 33.28,-17.34 43.28,-20.84 43.28,-13.84"/>
</a>
</g>
<text text-anchor="middle" x="73.75" y="-19.09" font-family="Times,serif" font-size="10.00" fill="grey"> elements</text>
</g>
<!-- Node13 -->
<g id="Node000013" class="node">
<title>Node13</title>
<g id="a_Node000013"><a xlink:href="../../db/d8f/classmal__toolkit_1_1_timer.html" target="_top" xlink:title=" ">
<polygon fill="white" stroke="#666666" points="682.38,-402.22 585.38,-402.22 585.38,-360.47 682.38,-360.47 682.38,-402.22"/>
<text text-anchor="start" x="593.38" y="-388.72" font-family="Times,serif" font-size="10.00">mal_toolkit::Timer</text>
<text text-anchor="start" x="593.38" y="-377.47" font-family="Times,serif" font-size="10.00">&lt; std::chrono::steady</text>
<text text-anchor="middle" x="633.88" y="-366.22" font-family="Times,serif" font-size="10.00">_clock &gt;</text>
</a>
</g>
</g>
<!-- Node13&#45;&gt;Node3 -->
<g id="edge13_Node000003_Node000013" class="edge">
<title>Node13&#45;&gt;Node3</title>
<g id="a_edge13_Node000003_Node000013"><a xlink:title=" ">
<path fill="none" stroke="#9a32cd" stroke-dasharray="5,2" d="M693.78,-373.14C722.7,-367.79 757.56,-359.32 787,-346.34 805.37,-338.24 823.95,-325.55 838.23,-314.62"/>
<polygon fill="#9a32cd" stroke="#9a32cd" points="693.34,-369.66 684.1,-374.85 694.56,-376.56 693.34,-369.66"/>
</a>
</g>
<text text-anchor="middle" x="745.38" y="-394.59" font-family="Times,serif" font-size="10.00" fill="grey"> entry_time</text>
<text text-anchor="middle" x="745.38" y="-383.34" font-family="Times,serif" font-size="10.00" fill="grey">flush</text>
<text text-anchor="middle" x="745.38" y="-372.09" font-family="Times,serif" font-size="10.00" fill="grey">measure</text>
</g>
<!-- Node14 -->
<g id="Node000014" class="node">
<title>Node14</title>
<g id="a_Node000014"><a xlink:href="../../d2/d24/classstd_1_1chrono_1_1time__point_3_01std_1_1chrono_1_1steady__clock_01_4.html" target="_top" xlink:title=" ">
<polygon fill="white" stroke="#666666" points="462.75,-429.59 351.5,-429.59 351.5,-399.09 462.75,-399.09 462.75,-429.59"/>
<text text-anchor="start" x="359.5" y="-416.09" font-family="Times,serif" font-size="10.00">time_point&lt; std::chrono</text>
<text text-anchor="middle" x="407.12" y="-404.84" font-family="Times,serif" font-size="10.00">::steady_clock &gt;</text>
</a>
</g>
</g>
<!-- Node14&#45;&gt;Node13 -->
<g id="edge14_Node000013_Node000014" class="edge">
<title>Node14&#45;&gt;Node13</title>
<g id="a_edge14_Node000013_Node000014"><a xlink:title=" ">
<path fill="none" stroke="#9a32cd" stroke-dasharray="5,2" d="M474.34,-404.62C509.81,-399.41 552.72,-393.11 584.94,-388.38"/>
<polygon fill="#9a32cd" stroke="#9a32cd" points="473.99,-401.13 464.6,-406.05 475,-408.06 473.99,-401.13"/>
</a>
</g>
<text text-anchor="middle" x="522.38" y="-416.34" font-family="Times,serif" font-size="10.00" fill="grey"> current_</text>
<text text-anchor="middle" x="522.38" y="-405.09" font-family="Times,serif" font-size="10.00" fill="grey">start_</text>
</g>
<!-- Node15 -->
<g id="Node000015" class="node">
<title>Node15</title>
<g id="a_Node000015"><a xlink:href="../../db/d8f/classmal__toolkit_1_1_timer.html" target="_top" xlink:title="A simple timer class for measuring elapsed time using various clock types.">
<polygon fill="white" stroke="#666666" points="452.25,-380.59 362,-380.59 362,-350.09 452.25,-350.09 452.25,-380.59"/>
<text text-anchor="start" x="370" y="-367.09" font-family="Times,serif" font-size="10.00">mal_toolkit::Timer</text>
<text text-anchor="middle" x="407.12" y="-355.84" font-family="Times,serif" font-size="10.00">&lt; clock &gt;</text>
</a>
</g>
</g>
<!-- Node15&#45;&gt;Node13 -->
<g id="edge15_Node000013_Node000015" class="edge">
<title>Node15&#45;&gt;Node13</title>
<g id="a_edge15_Node000013_Node000015"><a xlink:title=" ">
<path fill="none" stroke="orange" stroke-dasharray="5,2" d="M464.04,-363.21C493.81,-362.75 530.99,-363.24 564,-366.84 570.8,-367.58 577.92,-368.69 584.9,-369.98"/>
<polygon fill="orange" stroke="orange" points="464.05,-359.71 454.12,-363.41 464.19,-366.71 464.05,-359.71"/>
</a>
</g>
<text text-anchor="start" x="480.75" y="-379.34" font-family="Times,serif" font-size="10.00" fill="grey"> &lt; std::chrono::steady</text>
<text text-anchor="middle" x="522.38" y="-368.09" font-family="Times,serif" font-size="10.00" fill="grey">_clock &gt;</text>
</g>
<!-- Node16 -->
<g id="Node000016" class="node">
<title>Node16</title>
<g id="a_Node000016"><a xlink:title=" ">
<polygon fill="white" stroke="#666666" points="214.25,-374.97 116.5,-374.97 116.5,-355.72 214.25,-355.72 214.25,-374.97"/>
<text text-anchor="middle" x="165.38" y="-361.47" font-family="Times,serif" font-size="10.00">time_point&lt; clock &gt;</text>
</a>
</g>
</g>
<!-- Node16&#45;&gt;Node15 -->
<g id="edge16_Node000015_Node000016" class="edge">
<title>Node16&#45;&gt;Node15</title>
<g id="a_edge16_Node000015_Node000016"><a xlink:title=" ">
<path fill="none" stroke="#9a32cd" stroke-dasharray="5,2" d="M226.08,-365.34C268.1,-365.34 323.44,-365.34 361.61,-365.34"/>
<polygon fill="#9a32cd" stroke="#9a32cd" points="226.12,-361.84 216.12,-365.34 226.12,-368.84 226.12,-361.84"/>
</a>
</g>
<text text-anchor="middle" x="284.38" y="-378.34" font-family="Times,serif" font-size="10.00" fill="grey"> current_</text>
<text text-anchor="middle" x="284.38" y="-367.09" font-family="Times,serif" font-size="10.00" fill="grey">start_</text>
</g>
<!-- Node17&#45;&gt;Node3 -->
<g id="edge17_Node000003_Node000017" class="edge">
<title>Node17&#45;&gt;Node3</title>
<g id="a_edge17_Node000003_Node000017"><a xlink:title=" ">
<path fill="none" stroke="orange" stroke-dasharray="5,2" d="M697.22,-149.61C728.18,-157.76 763.82,-172.25 787,-197.84 807.27,-220.22 785.94,-239.93 805,-263.34 807.6,-266.54 810.64,-269.43 813.93,-272.04"/>
<polygon fill="orange" stroke="orange" points="698.07,-146.22 687.53,-147.24 696.41,-153.02 698.07,-146.22"/>
</a>
</g>
<text text-anchor="start" x="703.75" y="-211.34" font-family="Times,serif" font-size="10.00" fill="grey"> &lt; std::chrono::steady</text>
<text text-anchor="middle" x="745.38" y="-200.09" font-family="Times,serif" font-size="10.00" fill="grey">_clock &gt;</text>
</g>
<!-- Node18 -->
<g id="Node000018" class="node">
<title>Node18</title>
<g id="a_Node000018"><a xlink:title=" ">
<polygon fill="white" stroke="#666666" points="446.62,-153.97 367.62,-153.97 367.62,-134.72 446.62,-134.72 446.62,-153.97"/>
<text text-anchor="middle" x="407.12" y="-140.47" font-family="Times,serif" font-size="10.00">Timer&lt; clock &gt;</text>
</a>
</g>
</g>
<!-- Node18&#45;&gt;Node17 -->
<g id="edge23_Node000017_Node000018" class="edge">
<title>Node18&#45;&gt;Node17</title>
<g id="a_edge23_Node000017_Node000018"><a xlink:title=" ">
<path fill="none" stroke="#9a32cd" stroke-dasharray="5,2" d="M458.21,-141.47C465.76,-141.12 473.46,-140.81 480.75,-140.59 514.41,-139.58 552.28,-139.27 581.81,-139.21"/>
<polygon fill="#9a32cd" stroke="#9a32cd" points="458.26,-137.96 448.45,-141.95 458.61,-144.95 458.26,-137.96"/>
</a>
</g>
<text text-anchor="middle" x="522.38" y="-165.59" font-family="Times,serif" font-size="10.00" fill="grey"> entry_time</text>
<text text-anchor="middle" x="522.38" y="-154.34" font-family="Times,serif" font-size="10.00" fill="grey">flush</text>
<text text-anchor="middle" x="522.38" y="-143.09" font-family="Times,serif" font-size="10.00" fill="grey">measure</text>
</g>
<!-- Node19 -->
<g id="Node000019" class="node">
<title>Node19</title>
<g id="a_Node000019"><a xlink:title=" ">
<polygon fill="white" stroke="#666666" points="916.62,-253.97 812.88,-253.97 812.88,-234.72 916.62,-234.72 916.62,-253.97"/>
<text text-anchor="middle" x="864.75" y="-240.47" font-family="Times,serif" font-size="10.00">const UniquePacketID</text>
</a>
</g>
</g>
<!-- Node19&#45;&gt;Node1 -->
<g id="edge24_Node000001_Node000019" class="edge">
<title>Node19&#45;&gt;Node1</title>
<g id="a_edge24_Node000001_Node000019"><a xlink:title=" ">
<path fill="none" stroke="#9a32cd" stroke-dasharray="5,2" d="M917.39,-259.15C919.86,-260.44 922.24,-261.83 924.5,-263.34 978.96,-299.68 1021.87,-367.08 1039.47,-397.6"/>
<polygon fill="#9a32cd" stroke="#9a32cd" points="918.86,-255.97 908.3,-255.04 915.97,-262.35 918.86,-255.97"/>
</a>
</g>
<text text-anchor="middle" x="962" y="-314.09" font-family="Times,serif" font-size="10.00" fill="grey"> type</text>
</g>
</g>
</svg>

<g id="navigator" transform="translate(0 0)" fill="#404254">
  <rect fill="#f2f5e9" fill-opacity="0.5" stroke="#606060" stroke-width=".5" x="0" y="0" width="60" height="60"/>
  <use id="zoomplus" xlink:href="#zoomPlus" x="17" y="9" onmousedown="handleZoom(evt,'in')"/>
  <use id="zoomminus" xlink:href="#zoomMin" x="42" y="9" onmousedown="handleZoom(evt,'out')"/>
  <use id="reset" xlink:href="#resetDef" x="30" y="36" onmousedown="handleReset()"/>
   <use id="arrowup" xlink:href="#arrowUp" x="0" y="0" onmousedown="handlePan(0,-1)"/>
  <use id="arrowright" xlink:href="#arrowRight" x="0" y="0" onmousedown="handlePan(1,0)"/>
  <use id="arrowdown" xlink:href="#arrowDown" x="0" y="0" onmousedown="handlePan(0,1)"/>
  <use id="arrowleft" xlink:href="#arrowLeft" x="0" y="0" onmousedown="handlePan(-1,0)"/>
</g>
<svg viewBox="0 0 15 15" width="100%" height="30px" preserveAspectRatio="xMaxYMin meet">
 <g id="arrow_out" transform="scale(0.3 0.3)">
  <a xlink:href="classmal__packet__weaver_1_1_packet__coll__graph_org.svg" target="_base">
   <rect id="button" ry="5" rx="5" y="6" x="6" height="38" width="38"
        fill="#f2f5e9" fill-opacity="0.5" stroke="#606060" stroke-width="1.0"/>
   <path id="arrow"
     d="M 11.500037,31.436501 C 11.940474,20.09759 22.043105,11.32322 32.158766,21.979434 L 37.068811,17.246167 C 37.068811,17.246167 37.088388,32 37.088388,32 L 22.160133,31.978069 C 22.160133,31.978069 26.997745,27.140456 26.997745,27.140456 C 18.528582,18.264221 13.291696,25.230495 11.500037,31.436501 z"
     style="fill:#404040;"/>
  </a>
 </g>
</svg>

<style type='text/css'>
<![CDATA[
[data-mouse-over-selected='false'] { opacity: 0.7; }
[data-mouse-over-selected='true']  { opacity: 1.0; }
]]>
</style>
<script type="application/ecmascript"><![CDATA[
document.addEventListener('DOMContentLoaded', (event) => {
  highlightEdges();
  highlightAdjacentNodes();
});
]]></script>
</svg>
