<?xml version="1.0" encoding="UTF-8" standalone="no"?>
<!DOCTYPE svg PUBLIC "-//W3C//DTD SVG 1.1//EN"
 "http://www.w3.org/Graphics/SVG/1.1/DTD/svg11.dtd">
<!-- Generated by graphviz version 8.1.0 (20230707.0739)
 -->
<!-- Title: third_party/mal&#45;toolkit/mal&#45;toolkit/mal&#45;toolkit/detail/debug_with_source_location.hpp Pages: 1 -->
<svg width="2866pt" height="238pt"
 viewBox="0.00 0.00 2866.25 238.00" xmlns="http://www.w3.org/2000/svg" xmlns:xlink="http://www.w3.org/1999/xlink">
<g id="graph0" class="graph" transform="scale(1 1) rotate(0) translate(4 234)">
<title>third_party/mal&#45;toolkit/mal&#45;toolkit/mal&#45;toolkit/detail/debug_with_source_location.hpp</title>
<!-- Node1 -->
<g id="Node000001" class="node">
<title>Node1</title>
<g id="a_Node000001"><a xlink:title="This file provides utility functions for debugging and assertion handling.">
<polygon fill="#999999" stroke="#666666" points="1094.75,-230 973,-230 973,-177 1094.75,-177 1094.75,-230"/>
<text text-anchor="start" x="981" y="-216.5" font-family="Times,serif" font-size="10.00">third_party/mal&#45;toolkit</text>
<text text-anchor="start" x="981" y="-205.25" font-family="Times,serif" font-size="10.00">/mal&#45;toolkit/mal&#45;toolkit</text>
<text text-anchor="start" x="981" y="-194" font-family="Times,serif" font-size="10.00">/detail/debug_with_source</text>
<text text-anchor="middle" x="1033.88" y="-182.75" font-family="Times,serif" font-size="10.00">_location.hpp</text>
</a>
</g>
</g>
<!-- Node2 -->
<g id="Node000002" class="node">
<title>Node2</title>
<g id="a_Node000002"><a xlink:href="../../da/d7b/debug_8hpp.html" target="_top" xlink:title="Contains debugging&#45;related macros and utilities for assisting with debugging tasks.">
<polygon fill="white" stroke="#666666" points="1066.62,-141 1001.12,-141 1001.12,-121.75 1066.62,-121.75 1066.62,-141"/>
<text text-anchor="middle" x="1033.88" y="-127.5" font-family="Times,serif" font-size="10.00">../debug.hpp</text>
</a>
</g>
</g>
<!-- Node1&#45;&gt;Node2 -->
<g id="edge1_Node000001_Node000002" class="edge">
<title>Node1&#45;&gt;Node2</title>
<g id="a_edge1_Node000001_Node000002"><a xlink:title=" ">
<path fill="none" stroke="#63b8ff" d="M1027.34,-176.79C1026.96,-168.68 1027.08,-159.85 1027.72,-152.22"/>
<polygon fill="#63b8ff" stroke="#63b8ff" points="1031.3,-152.86 1029.16,-142.49 1024.37,-151.94 1031.3,-152.86"/>
</a>
</g>
</g>
<!-- Node2&#45;&gt;Node1 -->
<g id="edge44_Node000002_Node000001" class="edge">
<title>Node2&#45;&gt;Node1</title>
<g id="a_edge44_Node000002_Node000001"><a xlink:title=" ">
<path fill="none" stroke="#63b8ff" d="M1038.59,-141.49C1039.87,-147.83 1040.55,-156.75 1040.62,-165.82"/>
<polygon fill="#63b8ff" stroke="#63b8ff" points="1037.1,-165.72 1040.41,-175.79 1044.1,-165.86 1037.1,-165.72"/>
</a>
</g>
</g>
<!-- Node3 -->
<g id="Node000003" class="node">
<title>Node3</title>
<g id="a_Node000003"><a xlink:href="../../dd/db5/spdlog_8hpp.html" target="_top" xlink:title="Provides integration with the SPDLOG library for efficient logging and debugging.">
<polygon fill="white" stroke="#666666" points="411.75,-85.75 320,-85.75 320,-66.5 411.75,-66.5 411.75,-85.75"/>
<text text-anchor="middle" x="365.88" y="-72.25" font-family="Times,serif" font-size="10.00">include/spdlog.hpp</text>
</a>
</g>
</g>
<!-- Node2&#45;&gt;Node3 -->
<g id="edge2_Node000002_Node000003" class="edge">
<title>Node2&#45;&gt;Node3</title>
<g id="a_edge2_Node000002_Node000003"><a xlink:title=" ">
<path fill="none" stroke="#63b8ff" d="M1000.75,-127.73C893.97,-119.22 557.95,-92.44 422.9,-81.67"/>
<polygon fill="#63b8ff" stroke="#63b8ff" points="423.24,-78.11 413,-80.8 422.69,-85.09 423.24,-78.11"/>
</a>
</g>
</g>
<!-- Node10 -->
<g id="Node000010" class="node">
<title>Node10</title>
<g id="a_Node000010"><a xlink:href="../../db/d6e/library-pch_8hpp.html" target="_top" xlink:title="Precompiled header (PCH) file for common headers used across the library.">
<polygon fill="white" stroke="#666666" points="1742.38,-85.75 1663.38,-85.75 1663.38,-66.5 1742.38,-66.5 1742.38,-85.75"/>
<text text-anchor="middle" x="1702.88" y="-72.25" font-family="Times,serif" font-size="10.00">library&#45;pch.hpp</text>
</a>
</g>
</g>
<!-- Node2&#45;&gt;Node10 -->
<g id="edge9_Node000002_Node000010" class="edge">
<title>Node2&#45;&gt;Node10</title>
<g id="a_edge9_Node000002_Node000010"><a xlink:title=" ">
<path fill="none" stroke="#63b8ff" d="M1067.05,-127.73C1175.67,-119.09 1521.18,-91.59 1652.01,-81.17"/>
<polygon fill="#63b8ff" stroke="#63b8ff" points="1652.2,-84.59 1661.89,-80.31 1651.64,-77.61 1652.2,-84.59"/>
</a>
</g>
</g>
<!-- Node4 -->
<g id="Node000004" class="node">
<title>Node4</title>
<g id="a_Node000004"><a xlink:title=" ">
<polygon fill="#e0e0e0" stroke="#999999" points="73.75,-24.88 0,-24.88 0,-5.63 73.75,-5.63 73.75,-24.88"/>
<text text-anchor="middle" x="36.88" y="-11.38" font-family="Times,serif" font-size="10.00">spdlog/async.h</text>
</a>
</g>
</g>
<!-- Node3&#45;&gt;Node4 -->
<g id="edge3_Node000003_Node000004" class="edge">
<title>Node3&#45;&gt;Node4</title>
<g id="a_edge3_Node000003_Node000004"><a xlink:title=" ">
<path fill="none" stroke="#63b8ff" d="M319.72,-70.04C263.18,-63.32 164.71,-50.01 81.88,-30.5 79.22,-29.88 76.5,-29.17 73.77,-28.42"/>
<polygon fill="#63b8ff" stroke="#63b8ff" points="74.92,-24.82 64.34,-25.36 72.95,-31.54 74.92,-24.82"/>
</a>
</g>
</g>
<!-- Node5 -->
<g id="Node000005" class="node">
<title>Node5</title>
<g id="a_Node000005"><a xlink:title=" ">
<polygon fill="#e0e0e0" stroke="#999999" points="194.38,-30.5 91.38,-30.5 91.38,0 194.38,0 194.38,-30.5"/>
<text text-anchor="start" x="99.38" y="-17" font-family="Times,serif" font-size="10.00">spdlog/sinks/ansicolor</text>
<text text-anchor="middle" x="142.88" y="-5.75" font-family="Times,serif" font-size="10.00">_sink.h</text>
</a>
</g>
</g>
<!-- Node3&#45;&gt;Node5 -->
<g id="edge4_Node000003_Node000005" class="edge">
<title>Node3&#45;&gt;Node5</title>
<g id="a_edge4_Node000003_Node000005"><a xlink:title=" ">
<path fill="none" stroke="#63b8ff" d="M331.52,-66.05C297.92,-57.18 245.97,-43.47 205.09,-32.68"/>
<polygon fill="#63b8ff" stroke="#63b8ff" points="206.25,-29.1 195.69,-29.93 204.46,-35.87 206.25,-29.1"/>
</a>
</g>
</g>
<!-- Node6 -->
<g id="Node000006" class="node">
<title>Node6</title>
<g id="a_Node000006"><a xlink:title=" ">
<polygon fill="#e0e0e0" stroke="#999999" points="301.25,-30.5 212.5,-30.5 212.5,0 301.25,0 301.25,-30.5"/>
<text text-anchor="start" x="220.5" y="-17" font-family="Times,serif" font-size="10.00">spdlog/sinks/basic</text>
<text text-anchor="middle" x="256.88" y="-5.75" font-family="Times,serif" font-size="10.00">_file_sink.h</text>
</a>
</g>
</g>
<!-- Node3&#45;&gt;Node6 -->
<g id="edge5_Node000003_Node000006" class="edge">
<title>Node3&#45;&gt;Node6</title>
<g id="a_edge5_Node000003_Node000006"><a xlink:title=" ">
<path fill="none" stroke="#63b8ff" d="M349.32,-66.18C334.51,-58.18 312.28,-46.18 293.33,-35.94"/>
<polygon fill="#63b8ff" stroke="#63b8ff" points="295.24,-32.46 284.78,-30.78 291.91,-38.61 295.24,-32.46"/>
</a>
</g>
</g>
<!-- Node7 -->
<g id="Node000007" class="node">
<title>Node7</title>
<g id="a_Node000007"><a xlink:title=" ">
<polygon fill="#e0e0e0" stroke="#999999" points="412.5,-30.5 319.25,-30.5 319.25,0 412.5,0 412.5,-30.5"/>
<text text-anchor="start" x="327.25" y="-17" font-family="Times,serif" font-size="10.00">spdlog/sinks/stdout</text>
<text text-anchor="middle" x="365.88" y="-5.75" font-family="Times,serif" font-size="10.00">_color_sinks.h</text>
</a>
</g>
</g>
<!-- Node3&#45;&gt;Node7 -->
<g id="edge6_Node000003_Node000007" class="edge">
<title>Node3&#45;&gt;Node7</title>
<g id="a_edge6_Node000003_Node000007"><a xlink:title=" ">
<path fill="none" stroke="#63b8ff" d="M365.88,-66.18C365.88,-59.65 365.88,-50.45 365.88,-41.72"/>
<polygon fill="#63b8ff" stroke="#63b8ff" points="369.38,-41.78 365.88,-31.78 362.38,-41.78 369.38,-41.78"/>
</a>
</g>
</g>
<!-- Node8 -->
<g id="Node000008" class="node">
<title>Node8</title>
<g id="a_Node000008"><a xlink:title=" ">
<polygon fill="#e0e0e0" stroke="#999999" points="507.62,-24.88 430.12,-24.88 430.12,-5.63 507.62,-5.63 507.62,-24.88"/>
<text text-anchor="middle" x="468.88" y="-11.38" font-family="Times,serif" font-size="10.00">spdlog/spdlog.h</text>
</a>
</g>
</g>
<!-- Node3&#45;&gt;Node8 -->
<g id="edge7_Node000003_Node000008" class="edge">
<title>Node3&#45;&gt;Node8</title>
<g id="a_edge7_Node000003_Node000008"><a xlink:title=" ">
<path fill="none" stroke="#63b8ff" d="M381.52,-66.18C398,-56.76 424.22,-41.77 443.64,-30.68"/>
<polygon fill="#63b8ff" stroke="#63b8ff" points="445.14,-33.28 452.08,-25.28 441.67,-27.2 445.14,-33.28"/>
</a>
</g>
</g>
<!-- Node9 -->
<g id="Node000009" class="node">
<title>Node9</title>
<g id="a_Node000009"><a xlink:href="../../d4/dfc/win-undef_8hpp.html" target="_top" xlink:title=" ">
<polygon fill="white" stroke="#666666" points="600.5,-24.88 525.25,-24.88 525.25,-5.63 600.5,-5.63 600.5,-24.88"/>
<text text-anchor="middle" x="562.88" y="-11.38" font-family="Times,serif" font-size="10.00">win&#45;undef.hpp</text>
</a>
</g>
</g>
<!-- Node3&#45;&gt;Node9 -->
<g id="edge8_Node000003_Node000009" class="edge">
<title>Node3&#45;&gt;Node9</title>
<g id="a_edge8_Node000003_Node000009"><a xlink:title=" ">
<path fill="none" stroke="#63b8ff" d="M397.14,-66.01C427.71,-57.08 475.54,-43.01 516.88,-30.5 519,-29.86 521.18,-29.19 523.38,-28.52"/>
<polygon fill="#63b8ff" stroke="#63b8ff" points="524.16,-31.64 532.69,-25.35 522.1,-24.94 524.16,-31.64"/>
</a>
</g>
</g>
<!-- Node11 -->
<g id="Node000011" class="node">
<title>Node11</title>
<g id="a_Node000011"><a xlink:title=" ">
<polygon fill="#e0e0e0" stroke="#999999" points="665.25,-24.88 618.5,-24.88 618.5,-5.63 665.25,-5.63 665.25,-24.88"/>
<text text-anchor="middle" x="641.88" y="-11.38" font-family="Times,serif" font-size="10.00">assert.h</text>
</a>
</g>
</g>
<!-- Node10&#45;&gt;Node11 -->
<g id="edge10_Node000010_Node000011" class="edge">
<title>Node10&#45;&gt;Node11</title>
<g id="a_edge10_Node000010_Node000011"><a xlink:title=" ">
<path fill="none" stroke="#63b8ff" d="M1662.91,-75.38C1497.59,-76.14 866.86,-75.92 673.88,-30.5 672.32,-30.13 670.75,-29.69 669.18,-29.2"/>
<polygon fill="#63b8ff" stroke="#63b8ff" points="670.66,-25.63 660.07,-25.32 668.15,-32.17 670.66,-25.63"/>
</a>
</g>
</g>
<!-- Node12 -->
<g id="Node000012" class="node">
<title>Node12</title>
<g id="a_Node000012"><a xlink:title=" ">
<polygon fill="#e0e0e0" stroke="#999999" points="728.88,-24.88 682.88,-24.88 682.88,-5.63 728.88,-5.63 728.88,-24.88"/>
<text text-anchor="middle" x="705.88" y="-11.38" font-family="Times,serif" font-size="10.00">stdint.h</text>
</a>
</g>
</g>
<!-- Node10&#45;&gt;Node12 -->
<g id="edge11_Node000010_Node000012" class="edge">
<title>Node10&#45;&gt;Node12</title>
<g id="a_edge11_Node000010_Node000012"><a xlink:title=" ">
<path fill="none" stroke="#63b8ff" d="M1663,-75.25C1504.36,-75.43 917.9,-73.14 737.88,-30.5 736.32,-30.13 734.75,-29.69 733.18,-29.19"/>
<polygon fill="#63b8ff" stroke="#63b8ff" points="734.66,-25.63 724.07,-25.31 732.15,-32.16 734.66,-25.63"/>
</a>
</g>
</g>
<!-- Node13 -->
<g id="Node000013" class="node">
<title>Node13</title>
<g id="a_Node000013"><a xlink:title=" ">
<polygon fill="#e0e0e0" stroke="#999999" points="800.62,-24.88 747.12,-24.88 747.12,-5.63 800.62,-5.63 800.62,-24.88"/>
<text text-anchor="middle" x="773.88" y="-11.38" font-family="Times,serif" font-size="10.00">algorithm</text>
</a>
</g>
</g>
<!-- Node10&#45;&gt;Node13 -->
<g id="edge12_Node000010_Node000013" class="edge">
<title>Node10&#45;&gt;Node13</title>
<g id="a_edge12_Node000010_Node000013"><a xlink:title=" ">
<path fill="none" stroke="#63b8ff" d="M1662.97,-74.86C1512.03,-73.57 976.09,-66.52 809.88,-30.5 807.81,-30.05 805.7,-29.5 803.6,-28.87"/>
<polygon fill="#63b8ff" stroke="#63b8ff" points="804.91,-25.27 794.32,-25.28 802.61,-31.88 804.91,-25.27"/>
</a>
</g>
</g>
<!-- Node14 -->
<g id="Node000014" class="node">
<title>Node14</title>
<g id="a_Node000014"><a xlink:title=" ">
<polygon fill="#e0e0e0" stroke="#999999" points="855,-24.88 818.75,-24.88 818.75,-5.63 855,-5.63 855,-24.88"/>
<text text-anchor="middle" x="836.88" y="-11.38" font-family="Times,serif" font-size="10.00">array</text>
</a>
</g>
</g>
<!-- Node10&#45;&gt;Node14 -->
<g id="edge13_Node000010_Node000014" class="edge">
<title>Node10&#45;&gt;Node14</title>
<g id="a_edge13_Node000010_Node000014"><a xlink:title=" ">
<path fill="none" stroke="#63b8ff" d="M1663.03,-75.26C1517.78,-75.42 1017.13,-72.81 863.88,-30.5 862.94,-30.24 861.99,-29.95 861.05,-29.62"/>
<polygon fill="#63b8ff" stroke="#63b8ff" points="862.81,-26.13 852.25,-25.3 859.99,-32.54 862.81,-26.13"/>
</a>
</g>
</g>
<!-- Node15 -->
<g id="Node000015" class="node">
<title>Node15</title>
<g id="a_Node000015"><a xlink:title=" ">
<polygon fill="#e0e0e0" stroke="#999999" points="916.38,-24.88 873.38,-24.88 873.38,-5.63 916.38,-5.63 916.38,-24.88"/>
<text text-anchor="middle" x="894.88" y="-11.38" font-family="Times,serif" font-size="10.00">chrono</text>
</a>
</g>
</g>
<!-- Node10&#45;&gt;Node15 -->
<g id="edge14_Node000010_Node000015" class="edge">
<title>Node10&#45;&gt;Node15</title>
<g id="a_edge14_Node000010_Node000015"><a xlink:title=" ">
<path fill="none" stroke="#63b8ff" d="M1663.23,-74.79C1525.39,-73.33 1067.8,-65.85 925.88,-30.5 924.37,-30.12 922.84,-29.68 921.32,-29.17"/>
<polygon fill="#63b8ff" stroke="#63b8ff" points="923.1,-25.72 912.51,-25.28 920.51,-32.22 923.1,-25.72"/>
</a>
</g>
</g>
<!-- Node16 -->
<g id="Node000016" class="node">
<title>Node16</title>
<g id="a_Node000016"><a xlink:title=" ">
<polygon fill="#e0e0e0" stroke="#999999" points="975.25,-24.88 934.5,-24.88 934.5,-5.63 975.25,-5.63 975.25,-24.88"/>
<text text-anchor="middle" x="954.88" y="-11.38" font-family="Times,serif" font-size="10.00">cmath</text>
</a>
</g>
</g>
<!-- Node10&#45;&gt;Node16 -->
<g id="edge15_Node000010_Node000016" class="edge">
<title>Node10&#45;&gt;Node16</title>
<g id="a_edge15_Node000010_Node000016"><a xlink:title=" ">
<path fill="none" stroke="#63b8ff" d="M1663.07,-74.63C1531.97,-72.71 1114.72,-64.04 984.88,-30.5 983.56,-30.16 982.23,-29.76 980.9,-29.32"/>
<polygon fill="#63b8ff" stroke="#63b8ff" points="982.54,-25.8 971.95,-25.26 979.89,-32.28 982.54,-25.8"/>
</a>
</g>
</g>
<!-- Node17 -->
<g id="Node000017" class="node">
<title>Node17</title>
<g id="a_Node000017"><a xlink:title=" ">
<polygon fill="#e0e0e0" stroke="#999999" points="1044.12,-24.88 993.62,-24.88 993.62,-5.63 1044.12,-5.63 1044.12,-24.88"/>
<text text-anchor="middle" x="1018.88" y="-11.38" font-family="Times,serif" font-size="10.00">concepts</text>
</a>
</g>
</g>
<!-- Node10&#45;&gt;Node17 -->
<g id="edge16_Node000010_Node000017" class="edge">
<title>Node10&#45;&gt;Node17</title>
<g id="a_edge16_Node000010_Node000017"><a xlink:title=" ">
<path fill="none" stroke="#63b8ff" d="M1663.15,-74.04C1540.78,-70.45 1170.78,-57.58 1053.88,-30.5 1052.07,-30.08 1050.24,-29.58 1048.42,-29.03"/>
<polygon fill="#63b8ff" stroke="#63b8ff" points="1049.73,-25.43 1039.14,-25.37 1047.38,-32.02 1049.73,-25.43"/>
</a>
</g>
</g>
<!-- Node18 -->
<g id="Node000018" class="node">
<title>Node18</title>
<g id="a_Node000018"><a xlink:title=" ">
<polygon fill="#e0e0e0" stroke="#999999" points="1151.25,-24.88 1062.5,-24.88 1062.5,-5.63 1151.25,-5.63 1151.25,-24.88"/>
<text text-anchor="middle" x="1106.88" y="-11.38" font-family="Times,serif" font-size="10.00">condition_variable</text>
</a>
</g>
</g>
<!-- Node10&#45;&gt;Node18 -->
<g id="edge17_Node000010_Node000018" class="edge">
<title>Node10&#45;&gt;Node18</title>
<g id="a_edge17_Node000010_Node000018"><a xlink:title=" ">
<path fill="none" stroke="#63b8ff" d="M1663.05,-74.31C1572.84,-71.93 1346.25,-62.94 1159.88,-30.5 1155.77,-29.79 1151.52,-28.9 1147.29,-27.92"/>
<polygon fill="#63b8ff" stroke="#63b8ff" points="1148.48,-24.36 1137.93,-25.34 1146.79,-31.15 1148.48,-24.36"/>
</a>
</g>
</g>
<!-- Node19 -->
<g id="Node000019" class="node">
<title>Node19</title>
<g id="a_Node000019"><a xlink:title=" ">
<polygon fill="#e0e0e0" stroke="#999999" points="1212.38,-24.88 1169.38,-24.88 1169.38,-5.63 1212.38,-5.63 1212.38,-24.88"/>
<text text-anchor="middle" x="1190.88" y="-11.38" font-family="Times,serif" font-size="10.00">cstdint</text>
</a>
</g>
</g>
<!-- Node10&#45;&gt;Node19 -->
<g id="edge18_Node000010_Node000019" class="edge">
<title>Node10&#45;&gt;Node19</title>
<g id="a_edge18_Node000010_Node000019"><a xlink:title=" ">
<path fill="none" stroke="#63b8ff" d="M1663,-73.23C1563.05,-68.2 1303.94,-53.3 1220.88,-30.5 1219.74,-30.19 1218.59,-29.83 1217.43,-29.45"/>
<polygon fill="#63b8ff" stroke="#63b8ff" points="1218.88,-25.85 1208.29,-25.32 1216.23,-32.33 1218.88,-25.85"/>
</a>
</g>
</g>
<!-- Node20 -->
<g id="Node000020" class="node">
<title>Node20</title>
<g id="a_Node000020"><a xlink:title=" ">
<polygon fill="#e0e0e0" stroke="#999999" points="1273.38,-24.88 1230.38,-24.88 1230.38,-5.63 1273.38,-5.63 1273.38,-24.88"/>
<text text-anchor="middle" x="1251.88" y="-11.38" font-family="Times,serif" font-size="10.00">cstdlib</text>
</a>
</g>
</g>
<!-- Node10&#45;&gt;Node20 -->
<g id="edge19_Node000010_Node000020" class="edge">
<title>Node10&#45;&gt;Node20</title>
<g id="a_edge19_Node000010_Node000020"><a xlink:title=" ">
<path fill="none" stroke="#63b8ff" d="M1663.15,-75.33C1587.48,-74.76 1418.06,-68.86 1281.88,-30.5 1280.74,-30.18 1279.59,-29.82 1278.44,-29.43"/>
<polygon fill="#63b8ff" stroke="#63b8ff" points="1279.89,-25.83 1269.31,-25.27 1277.23,-32.3 1279.89,-25.83"/>
</a>
</g>
</g>
<!-- Node21 -->
<g id="Node000021" class="node">
<title>Node21</title>
<g id="a_Node000021"><a xlink:title=" ">
<polygon fill="#e0e0e0" stroke="#999999" points="1346.38,-24.88 1291.38,-24.88 1291.38,-5.63 1346.38,-5.63 1346.38,-24.88"/>
<text text-anchor="middle" x="1318.88" y="-11.38" font-family="Times,serif" font-size="10.00">filesystem</text>
</a>
</g>
</g>
<!-- Node10&#45;&gt;Node21 -->
<g id="edge20_Node000010_Node000021" class="edge">
<title>Node10&#45;&gt;Node21</title>
<g id="a_edge20_Node000010_Node000021"><a xlink:title=" ">
<path fill="none" stroke="#63b8ff" d="M1663.13,-73.25C1597.86,-69.46 1464.29,-58.7 1354.88,-30.5 1353.08,-30.04 1351.26,-29.51 1349.44,-28.94"/>
<polygon fill="#63b8ff" stroke="#63b8ff" points="1350.74,-25.33 1340.14,-25.29 1348.4,-31.93 1350.74,-25.33"/>
</a>
</g>
</g>
<!-- Node22 -->
<g id="Node000022" class="node">
<title>Node22</title>
<g id="a_Node000022"><a xlink:title=" ">
<polygon fill="#e0e0e0" stroke="#999999" points="1409.5,-24.88 1364.25,-24.88 1364.25,-5.63 1409.5,-5.63 1409.5,-24.88"/>
<text text-anchor="middle" x="1386.88" y="-11.38" font-family="Times,serif" font-size="10.00">fstream</text>
</a>
</g>
</g>
<!-- Node10&#45;&gt;Node22 -->
<g id="edge21_Node000010_Node000022" class="edge">
<title>Node10&#45;&gt;Node22</title>
<g id="a_edge21_Node000010_Node000022"><a xlink:title=" ">
<path fill="none" stroke="#63b8ff" d="M1663.11,-72.19C1607.51,-67.35 1503.83,-55.61 1418.88,-30.5 1417.56,-30.11 1416.23,-29.68 1414.9,-29.22"/>
<polygon fill="#63b8ff" stroke="#63b8ff" points="1416.42,-25.66 1405.84,-25.24 1413.85,-32.17 1416.42,-25.66"/>
</a>
</g>
</g>
<!-- Node23 -->
<g id="Node000023" class="node">
<title>Node23</title>
<g id="a_Node000023"><a xlink:title=" ">
<polygon fill="#e0e0e0" stroke="#999999" points="1482,-24.88 1427.75,-24.88 1427.75,-5.63 1482,-5.63 1482,-24.88"/>
<text text-anchor="middle" x="1454.88" y="-11.38" font-family="Times,serif" font-size="10.00">functional</text>
</a>
</g>
</g>
<!-- Node10&#45;&gt;Node23 -->
<g id="edge22_Node000010_Node000023" class="edge">
<title>Node10&#45;&gt;Node23</title>
<g id="a_edge22_Node000010_Node000023"><a xlink:title=" ">
<path fill="none" stroke="#63b8ff" d="M1662.91,-68.79C1619.91,-61.5 1549.76,-48.21 1490.88,-30.5 1489.35,-30.04 1487.79,-29.54 1486.23,-29.02"/>
<polygon fill="#63b8ff" stroke="#63b8ff" points="1487.58,-25.42 1476.98,-25.3 1485.19,-32 1487.58,-25.42"/>
</a>
</g>
</g>
<!-- Node24 -->
<g id="Node000024" class="node">
<title>Node24</title>
<g id="a_Node000024"><a xlink:title=" ">
<polygon fill="#e0e0e0" stroke="#999999" points="1548,-24.88 1499.75,-24.88 1499.75,-5.63 1548,-5.63 1548,-24.88"/>
<text text-anchor="middle" x="1523.88" y="-11.38" font-family="Times,serif" font-size="10.00">iomanip</text>
</a>
</g>
</g>
<!-- Node10&#45;&gt;Node24 -->
<g id="edge23_Node000010_Node000024" class="edge">
<title>Node10&#45;&gt;Node24</title>
<g id="a_edge23_Node000010_Node000024"><a xlink:title=" ">
<path fill="none" stroke="#63b8ff" d="M1669.48,-66.06C1639.65,-57.69 1594.94,-44.49 1556.88,-30.5 1555.95,-30.16 1555.02,-29.81 1554.08,-29.45"/>
<polygon fill="#63b8ff" stroke="#63b8ff" points="1555.56,-25.87 1544.98,-25.35 1552.93,-32.35 1555.56,-25.87"/>
</a>
</g>
</g>
<!-- Node25 -->
<g id="Node000025" class="node">
<title>Node25</title>
<g id="a_Node000025"><a xlink:title=" ">
<polygon fill="#e0e0e0" stroke="#999999" points="1611.5,-24.88 1566.25,-24.88 1566.25,-5.63 1611.5,-5.63 1611.5,-24.88"/>
<text text-anchor="middle" x="1588.88" y="-11.38" font-family="Times,serif" font-size="10.00">istream</text>
</a>
</g>
</g>
<!-- Node10&#45;&gt;Node25 -->
<g id="edge24_Node000010_Node000025" class="edge">
<title>Node10&#45;&gt;Node25</title>
<g id="a_edge24_Node000010_Node000025"><a xlink:title=" ">
<path fill="none" stroke="#63b8ff" d="M1685.56,-66.18C1667.06,-56.63 1637.5,-41.36 1615.92,-30.22"/>
<polygon fill="#63b8ff" stroke="#63b8ff" points="1617.84,-26.75 1607.35,-25.28 1614.63,-32.97 1617.84,-26.75"/>
</a>
</g>
</g>
<!-- Node26 -->
<g id="Node000026" class="node">
<title>Node26</title>
<g id="a_Node000026"><a xlink:title=" ">
<polygon fill="#e0e0e0" stroke="#999999" points="1667.75,-24.88 1630,-24.88 1630,-5.63 1667.75,-5.63 1667.75,-24.88"/>
<text text-anchor="middle" x="1648.88" y="-11.38" font-family="Times,serif" font-size="10.00">limits</text>
</a>
</g>
</g>
<!-- Node10&#45;&gt;Node26 -->
<g id="edge25_Node000010_Node000026" class="edge">
<title>Node10&#45;&gt;Node26</title>
<g id="a_edge25_Node000010_Node000026"><a xlink:title=" ">
<path fill="none" stroke="#63b8ff" d="M1694.67,-66.18C1686.66,-57.45 1674.28,-43.94 1664.4,-33.18"/>
<polygon fill="#63b8ff" stroke="#63b8ff" points="1667.49,-31.28 1658.15,-26.28 1662.33,-36.01 1667.49,-31.28"/>
</a>
</g>
</g>
<!-- Node27 -->
<g id="Node000027" class="node">
<title>Node27</title>
<g id="a_Node000027"><a xlink:title=" ">
<polygon fill="#e0e0e0" stroke="#999999" points="1719.5,-24.88 1686.25,-24.88 1686.25,-5.63 1719.5,-5.63 1719.5,-24.88"/>
<text text-anchor="middle" x="1702.88" y="-11.38" font-family="Times,serif" font-size="10.00">map</text>
</a>
</g>
</g>
<!-- Node10&#45;&gt;Node27 -->
<g id="edge26_Node000010_Node000027" class="edge">
<title>Node10&#45;&gt;Node27</title>
<g id="a_edge26_Node000010_Node000027"><a xlink:title=" ">
<path fill="none" stroke="#63b8ff" d="M1702.88,-66.18C1702.88,-58.23 1702.88,-46.31 1702.88,-36.12"/>
<polygon fill="#63b8ff" stroke="#63b8ff" points="1706.38,-36.28 1702.88,-26.28 1699.38,-36.28 1706.38,-36.28"/>
</a>
</g>
</g>
<!-- Node28 -->
<g id="Node000028" class="node">
<title>Node28</title>
<g id="a_Node000028"><a xlink:title=" ">
<polygon fill="#e0e0e0" stroke="#999999" points="1786,-24.88 1737.75,-24.88 1737.75,-5.63 1786,-5.63 1786,-24.88"/>
<text text-anchor="middle" x="1761.88" y="-11.38" font-family="Times,serif" font-size="10.00">memory</text>
</a>
</g>
</g>
<!-- Node10&#45;&gt;Node28 -->
<g id="edge27_Node000010_Node000028" class="edge">
<title>Node10&#45;&gt;Node28</title>
<g id="a_edge27_Node000010_Node000028"><a xlink:title=" ">
<path fill="none" stroke="#63b8ff" d="M1711.84,-66.18C1720.67,-57.37 1734.39,-43.68 1745.23,-32.86"/>
<polygon fill="#63b8ff" stroke="#63b8ff" points="1747.22,-35.82 1751.83,-26.28 1742.28,-30.86 1747.22,-35.82"/>
</a>
</g>
</g>
<!-- Node29 -->
<g id="Node000029" class="node">
<title>Node29</title>
<g id="a_Node000029"><a xlink:title=" ">
<polygon fill="#e0e0e0" stroke="#999999" points="1845.25,-24.88 1804.5,-24.88 1804.5,-5.63 1845.25,-5.63 1845.25,-24.88"/>
<text text-anchor="middle" x="1824.88" y="-11.38" font-family="Times,serif" font-size="10.00">mutex</text>
</a>
</g>
</g>
<!-- Node10&#45;&gt;Node29 -->
<g id="edge28_Node000010_Node000029" class="edge">
<title>Node10&#45;&gt;Node29</title>
<g id="a_edge28_Node000010_Node000029"><a xlink:title=" ">
<path fill="none" stroke="#63b8ff" d="M1721.67,-66.05C1741.61,-56.43 1773.35,-41.12 1796.37,-30.01"/>
<polygon fill="#63b8ff" stroke="#63b8ff" points="1797.77,-32.73 1805.26,-25.23 1794.73,-26.43 1797.77,-32.73"/>
</a>
</g>
</g>
<!-- Node30 -->
<g id="Node000030" class="node">
<title>Node30</title>
<g id="a_Node000030"><a xlink:title=" ">
<polygon fill="#e0e0e0" stroke="#999999" points="1914.12,-24.88 1863.62,-24.88 1863.62,-5.63 1914.12,-5.63 1914.12,-24.88"/>
<text text-anchor="middle" x="1888.88" y="-11.38" font-family="Times,serif" font-size="10.00">numbers</text>
</a>
</g>
</g>
<!-- Node10&#45;&gt;Node30 -->
<g id="edge29_Node000010_Node000030" class="edge">
<title>Node10&#45;&gt;Node30</title>
<g id="a_edge29_Node000010_Node000030"><a xlink:title=" ">
<path fill="none" stroke="#63b8ff" d="M1737.07,-66.06C1767.87,-57.65 1814.27,-44.37 1853.88,-30.5 1855.13,-30.06 1856.4,-29.6 1857.69,-29.13"/>
<polygon fill="#63b8ff" stroke="#63b8ff" points="1858.46,-32.2 1866.53,-25.33 1855.94,-25.66 1858.46,-32.2"/>
</a>
</g>
</g>
<!-- Node31 -->
<g id="Node000031" class="node">
<title>Node31</title>
<g id="a_Node000031"><a xlink:title=" ">
<polygon fill="#e0e0e0" stroke="#999999" points="1980,-24.88 1931.75,-24.88 1931.75,-5.63 1980,-5.63 1980,-24.88"/>
<text text-anchor="middle" x="1955.88" y="-11.38" font-family="Times,serif" font-size="10.00">numeric</text>
</a>
</g>
</g>
<!-- Node10&#45;&gt;Node31 -->
<g id="edge30_Node000010_Node000031" class="edge">
<title>Node10&#45;&gt;Node31</title>
<g id="a_edge30_Node000010_Node000031"><a xlink:title=" ">
<path fill="none" stroke="#63b8ff" d="M1742.84,-69.57C1787.41,-62.8 1861.33,-49.8 1922.88,-30.5 1924.15,-30.1 1925.44,-29.67 1926.73,-29.21"/>
<polygon fill="#63b8ff" stroke="#63b8ff" points="1927.54,-32.27 1935.59,-25.37 1925,-25.74 1927.54,-32.27"/>
</a>
</g>
</g>
<!-- Node32 -->
<g id="Node000032" class="node">
<title>Node32</title>
<g id="a_Node000032"><a xlink:title=" ">
<polygon fill="#e0e0e0" stroke="#999999" points="2045.25,-24.88 1998.5,-24.88 1998.5,-5.63 2045.25,-5.63 2045.25,-24.88"/>
<text text-anchor="middle" x="2021.88" y="-11.38" font-family="Times,serif" font-size="10.00">optional</text>
</a>
</g>
</g>
<!-- Node10&#45;&gt;Node32 -->
<g id="edge31_Node000010_Node000032" class="edge">
<title>Node10&#45;&gt;Node32</title>
<g id="a_edge31_Node000010_Node000032"><a xlink:title=" ">
<path fill="none" stroke="#63b8ff" d="M1742.41,-72.13C1798.24,-67.2 1902.94,-55.32 1988.88,-30.5 1990.37,-30.07 1991.89,-29.58 1993.42,-29.06"/>
<polygon fill="#63b8ff" stroke="#63b8ff" points="1994.26,-32.1 2002.33,-25.23 1991.74,-25.57 1994.26,-32.1"/>
</a>
</g>
</g>
<!-- Node33 -->
<g id="Node000033" class="node">
<title>Node33</title>
<g id="a_Node000033"><a xlink:title=" ">
<polygon fill="#e0e0e0" stroke="#999999" points="2110.62,-24.88 2063.12,-24.88 2063.12,-5.63 2110.62,-5.63 2110.62,-24.88"/>
<text text-anchor="middle" x="2086.88" y="-11.38" font-family="Times,serif" font-size="10.00">ostream</text>
</a>
</g>
</g>
<!-- Node10&#45;&gt;Node33 -->
<g id="edge32_Node000010_Node000033" class="edge">
<title>Node10&#45;&gt;Node33</title>
<g id="a_edge32_Node000010_Node000033"><a xlink:title=" ">
<path fill="none" stroke="#63b8ff" d="M1742.8,-73.69C1808.68,-70.52 1943.82,-60.61 2053.88,-30.5 2055.38,-30.09 2056.91,-29.62 2058.43,-29.11"/>
<polygon fill="#63b8ff" stroke="#63b8ff" points="2059.26,-32.16 2067.36,-25.33 2056.77,-25.62 2059.26,-32.16"/>
</a>
</g>
</g>
<!-- Node34 -->
<g id="Node000034" class="node">
<title>Node34</title>
<g id="a_Node000034"><a xlink:title=" ">
<polygon fill="#e0e0e0" stroke="#999999" points="2174.88,-24.88 2128.88,-24.88 2128.88,-5.63 2174.88,-5.63 2174.88,-24.88"/>
<text text-anchor="middle" x="2151.88" y="-11.38" font-family="Times,serif" font-size="10.00">random</text>
</a>
</g>
</g>
<!-- Node10&#45;&gt;Node34 -->
<g id="edge33_Node000010_Node000034" class="edge">
<title>Node10&#45;&gt;Node34</title>
<g id="a_edge33_Node000010_Node000034"><a xlink:title=" ">
<path fill="none" stroke="#63b8ff" d="M1742.72,-74.96C1817.82,-73.76 1984.88,-66.81 2119.88,-30.5 2121.38,-30.1 2122.9,-29.63 2124.43,-29.12"/>
<polygon fill="#63b8ff" stroke="#63b8ff" points="2125.26,-32.16 2133.3,-25.26 2122.71,-25.64 2125.26,-32.16"/>
</a>
</g>
</g>
<!-- Node35 -->
<g id="Node000035" class="node">
<title>Node35</title>
<g id="a_Node000035"><a xlink:title=" ">
<polygon fill="#e0e0e0" stroke="#999999" points="2265,-24.88 2192.75,-24.88 2192.75,-5.63 2265,-5.63 2265,-24.88"/>
<text text-anchor="middle" x="2228.88" y="-11.38" font-family="Times,serif" font-size="10.00">shared_mutex</text>
</a>
</g>
</g>
<!-- Node10&#45;&gt;Node35 -->
<g id="edge34_Node000010_Node000035" class="edge">
<title>Node10&#45;&gt;Node35</title>
<g id="a_edge34_Node000010_Node000035"><a xlink:title=" ">
<path fill="none" stroke="#63b8ff" d="M1742.57,-74.31C1825.4,-71.98 2022.35,-63.17 2183.88,-30.5 2186.89,-29.89 2189.98,-29.15 2193.07,-28.34"/>
<polygon fill="#63b8ff" stroke="#63b8ff" points="2193.79,-31.49 2202.42,-25.35 2191.85,-24.76 2193.79,-31.49"/>
</a>
</g>
</g>
<!-- Node36 -->
<g id="Node000036" class="node">
<title>Node36</title>
<g id="a_Node000036"><a xlink:title=" ">
<polygon fill="#e0e0e0" stroke="#999999" points="2318.25,-24.88 2283.5,-24.88 2283.5,-5.63 2318.25,-5.63 2318.25,-24.88"/>
<text text-anchor="middle" x="2300.88" y="-11.38" font-family="Times,serif" font-size="10.00">span</text>
</a>
</g>
</g>
<!-- Node10&#45;&gt;Node36 -->
<g id="edge35_Node000010_Node000036" class="edge">
<title>Node10&#45;&gt;Node36</title>
<g id="a_edge35_Node000010_Node000036"><a xlink:title=" ">
<path fill="none" stroke="#63b8ff" d="M1742.65,-74.11C1855.12,-70.91 2173.83,-59.47 2273.88,-30.5 2274.81,-30.23 2275.75,-29.92 2276.69,-29.59"/>
<polygon fill="#63b8ff" stroke="#63b8ff" points="2277.77,-32.5 2285.48,-25.23 2274.92,-26.1 2277.77,-32.5"/>
</a>
</g>
</g>
<!-- Node37 -->
<g id="Node000037" class="node">
<title>Node37</title>
<g id="a_Node000037"><a xlink:title=" ">
<polygon fill="#e0e0e0" stroke="#999999" points="2381.88,-24.88 2335.88,-24.88 2335.88,-5.63 2381.88,-5.63 2381.88,-24.88"/>
<text text-anchor="middle" x="2358.88" y="-11.38" font-family="Times,serif" font-size="10.00">sstream</text>
</a>
</g>
</g>
<!-- Node10&#45;&gt;Node37 -->
<g id="edge36_Node000010_Node000037" class="edge">
<title>Node10&#45;&gt;Node37</title>
<g id="a_edge36_Node000010_Node000037"><a xlink:title=" ">
<path fill="none" stroke="#63b8ff" d="M1742.78,-74.08C1862.22,-70.65 2215.45,-58.38 2326.88,-30.5 2328.39,-30.12 2329.92,-29.68 2331.45,-29.18"/>
<polygon fill="#63b8ff" stroke="#63b8ff" points="2332.25,-32.24 2340.33,-25.37 2329.74,-25.7 2332.25,-32.24"/>
</a>
</g>
</g>
<!-- Node38 -->
<g id="Node000038" class="node">
<title>Node38</title>
<g id="a_Node000038"><a xlink:title=" ">
<polygon fill="#e0e0e0" stroke="#999999" points="2454,-24.88 2399.75,-24.88 2399.75,-5.63 2454,-5.63 2454,-24.88"/>
<text text-anchor="middle" x="2426.88" y="-11.38" font-family="Times,serif" font-size="10.00">stdexcept</text>
</a>
</g>
</g>
<!-- Node10&#45;&gt;Node38 -->
<g id="edge37_Node000010_Node000038" class="edge">
<title>Node10&#45;&gt;Node38</title>
<g id="a_edge37_Node000010_Node000038"><a xlink:title=" ">
<path fill="none" stroke="#63b8ff" d="M1742.71,-74.17C1870.03,-70.86 2266.06,-58.52 2390.88,-30.5 2392.94,-30.04 2395.04,-29.47 2397.14,-28.84"/>
<polygon fill="#63b8ff" stroke="#63b8ff" points="2398.14,-31.84 2406.42,-25.23 2395.83,-25.24 2398.14,-31.84"/>
</a>
</g>
</g>
<!-- Node39 -->
<g id="Node000039" class="node">
<title>Node39</title>
<g id="a_Node000039"><a xlink:title=" ">
<polygon fill="#e0e0e0" stroke="#999999" points="2511.5,-24.88 2472.25,-24.88 2472.25,-5.63 2511.5,-5.63 2511.5,-24.88"/>
<text text-anchor="middle" x="2491.88" y="-11.38" font-family="Times,serif" font-size="10.00">string</text>
</a>
</g>
</g>
<!-- Node10&#45;&gt;Node39 -->
<g id="edge38_Node000010_Node000039" class="edge">
<title>Node10&#45;&gt;Node39</title>
<g id="a_edge38_Node000010_Node000039"><a xlink:title=" ">
<path fill="none" stroke="#63b8ff" d="M1742.63,-74.86C1878.69,-73.64 2324.84,-66.88 2462.88,-30.5 2464.01,-30.2 2465.16,-29.85 2466.31,-29.47"/>
<polygon fill="#63b8ff" stroke="#63b8ff" points="2467.48,-32.36 2475.36,-25.28 2464.79,-25.89 2467.48,-32.36"/>
</a>
</g>
</g>
<!-- Node40 -->
<g id="Node000040" class="node">
<title>Node40</title>
<g id="a_Node000040"><a xlink:title=" ">
<polygon fill="#e0e0e0" stroke="#999999" points="2570.62,-24.88 2529.12,-24.88 2529.12,-5.63 2570.62,-5.63 2570.62,-24.88"/>
<text text-anchor="middle" x="2549.88" y="-11.38" font-family="Times,serif" font-size="10.00">thread</text>
</a>
</g>
</g>
<!-- Node10&#45;&gt;Node40 -->
<g id="edge39_Node000010_Node000040" class="edge">
<title>Node10&#45;&gt;Node40</title>
<g id="a_edge39_Node000010_Node000040"><a xlink:title=" ">
<path fill="none" stroke="#63b8ff" d="M1742.66,-75.05C1885.4,-74.47 2371.23,-69.61 2520.88,-30.5 2522.01,-30.2 2523.16,-29.86 2524.31,-29.48"/>
<polygon fill="#63b8ff" stroke="#63b8ff" points="2525.48,-32.36 2533.37,-25.29 2522.79,-25.9 2525.48,-32.36"/>
</a>
</g>
</g>
<!-- Node41 -->
<g id="Node000041" class="node">
<title>Node41</title>
<g id="a_Node000041"><a xlink:title=" ">
<polygon fill="#e0e0e0" stroke="#999999" points="2647.25,-24.88 2588.5,-24.88 2588.5,-5.63 2647.25,-5.63 2647.25,-24.88"/>
<text text-anchor="middle" x="2617.88" y="-11.38" font-family="Times,serif" font-size="10.00">type_traits</text>
</a>
</g>
</g>
<!-- Node10&#45;&gt;Node41 -->
<g id="edge40_Node000010_Node000041" class="edge">
<title>Node10&#45;&gt;Node41</title>
<g id="a_edge40_Node000010_Node000041"><a xlink:title=" ">
<path fill="none" stroke="#63b8ff" d="M1742.81,-74.72C1892.02,-72.95 2416.61,-64.41 2579.88,-30.5 2582.23,-30.01 2584.63,-29.4 2587.03,-28.71"/>
<polygon fill="#63b8ff" stroke="#63b8ff" points="2587.93,-31.76 2596.31,-25.27 2585.72,-25.12 2587.93,-31.76"/>
</a>
</g>
</g>
<!-- Node42 -->
<g id="Node000042" class="node">
<title>Node42</title>
<g id="a_Node000042"><a xlink:title=" ">
<polygon fill="#e0e0e0" stroke="#999999" points="2738,-24.88 2665.75,-24.88 2665.75,-5.63 2738,-5.63 2738,-24.88"/>
<text text-anchor="middle" x="2701.88" y="-11.38" font-family="Times,serif" font-size="10.00">unordered_set</text>
</a>
</g>
</g>
<!-- Node10&#45;&gt;Node42 -->
<g id="edge41_Node000010_Node000042" class="edge">
<title>Node10&#45;&gt;Node42</title>
<g id="a_edge41_Node000010_Node000042"><a xlink:title=" ">
<path fill="none" stroke="#63b8ff" d="M1742.66,-74.6C1899.63,-72.34 2476.11,-62.02 2655.88,-30.5 2659.33,-29.89 2662.9,-29.1 2666.43,-28.2"/>
<polygon fill="#63b8ff" stroke="#63b8ff" points="2667.18,-31.35 2675.85,-25.26 2665.28,-24.61 2667.18,-31.35"/>
</a>
</g>
</g>
<!-- Node43 -->
<g id="Node000043" class="node">
<title>Node43</title>
<g id="a_Node000043"><a xlink:title=" ">
<polygon fill="#e0e0e0" stroke="#999999" points="2799.38,-24.88 2756.38,-24.88 2756.38,-5.63 2799.38,-5.63 2799.38,-24.88"/>
<text text-anchor="middle" x="2777.88" y="-11.38" font-family="Times,serif" font-size="10.00">variant</text>
</a>
</g>
</g>
<!-- Node10&#45;&gt;Node43 -->
<g id="edge42_Node000010_Node000043" class="edge">
<title>Node10&#45;&gt;Node43</title>
<g id="a_edge42_Node000010_Node000043"><a xlink:title=" ">
<path fill="none" stroke="#63b8ff" d="M1742.87,-75.47C1909.78,-76.61 2551.12,-77.74 2746.88,-30.5 2748.39,-30.14 2749.91,-29.7 2751.44,-29.2"/>
<polygon fill="#63b8ff" stroke="#63b8ff" points="2752.23,-32.25 2760.25,-25.32 2749.66,-25.74 2752.23,-32.25"/>
</a>
</g>
</g>
<!-- Node44 -->
<g id="Node000044" class="node">
<title>Node44</title>
<g id="a_Node000044"><a xlink:title=" ">
<polygon fill="#e0e0e0" stroke="#999999" points="2858.25,-24.88 2817.5,-24.88 2817.5,-5.63 2858.25,-5.63 2858.25,-24.88"/>
<text text-anchor="middle" x="2837.88" y="-11.38" font-family="Times,serif" font-size="10.00">vector</text>
</a>
</g>
</g>
<!-- Node10&#45;&gt;Node44 -->
<g id="edge43_Node000010_Node000044" class="edge">
<title>Node10&#45;&gt;Node44</title>
<g id="a_edge43_Node000010_Node000044"><a xlink:title=" ">
<path fill="none" stroke="#63b8ff" d="M1742.68,-74.5C1928.28,-71.43 2704.04,-57.1 2808.88,-30.5 2810.02,-30.21 2811.17,-29.87 2812.32,-29.5"/>
<polygon fill="#63b8ff" stroke="#63b8ff" points="2813.47,-32.39 2821.38,-25.33 2810.8,-25.92 2813.47,-32.39"/>
</a>
</g>
</g>
</g>
</svg>
