<?xml version="1.0" encoding="UTF-8" standalone="no"?>
<!DOCTYPE svg PUBLIC "-//W3C//DTD SVG 1.1//EN"
 "http://www.w3.org/Graphics/SVG/1.1/DTD/svg11.dtd">
<!-- Generated by graphviz version 7.0.5 (20221223.1930)
 -->
<!-- Title: third_party/mal&#45;toolkit/mal&#45;toolkit/mal&#45;toolkit/include/spdlog.hpp Pages: 1 -->
<svg width="654pt" height="115pt"
 viewBox="0.00 0.00 654.00 115.00" xmlns="http://www.w3.org/2000/svg" xmlns:xlink="http://www.w3.org/1999/xlink">
<g id="graph0" class="graph" transform="scale(1 1) rotate(0) translate(4 111)">
<title>third_party/mal&#45;toolkit/mal&#45;toolkit/mal&#45;toolkit/include/spdlog.hpp</title>
<!-- Node1 -->
<g id="node1" class="node">
<title>Node1</title>
<g id="a_node1"><a xlink:title="Provides integration with the SPDLOG library for efficient logging and debugging.">
<polygon fill="#999999" stroke="#666666" points="395,-107 282,-107 282,-66 395,-66 395,-107"/>
<text text-anchor="start" x="290" y="-95" font-family="Helvetica,sans-Serif" font-size="10.00">third_party/mal&#45;toolkit</text>
<text text-anchor="start" x="290" y="-84" font-family="Helvetica,sans-Serif" font-size="10.00">/mal&#45;toolkit/mal&#45;toolkit</text>
<text text-anchor="middle" x="338.5" y="-73" font-family="Helvetica,sans-Serif" font-size="10.00">/include/spdlog.hpp</text>
</a>
</g>
</g>
<!-- Node2 -->
<g id="node2" class="node">
<title>Node2</title>
<g id="a_node2"><a xlink:title=" ">
<polygon fill="#e0e0e0" stroke="#999999" points="81,-24.5 0,-24.5 0,-5.5 81,-5.5 81,-24.5"/>
<text text-anchor="middle" x="40.5" y="-12.5" font-family="Helvetica,sans-Serif" font-size="10.00">spdlog/async.h</text>
</a>
</g>
</g>
<!-- Node1&#45;&gt;Node2 -->
<g id="edge1" class="edge">
<title>Node1&#45;&gt;Node2</title>
<path fill="none" stroke="#63b8ff" d="M281.91,-73.88C231.29,-63.25 155.18,-46.69 89.5,-30 86.93,-29.35 84.29,-28.66 81.64,-27.94"/>
<polygon fill="#63b8ff" stroke="#63b8ff" points="82.77,-24.63 72.2,-25.35 80.92,-31.38 82.77,-24.63"/>
</g>
<!-- Node3 -->
<g id="node3" class="node">
<title>Node3</title>
<g id="a_node3"><a xlink:title=" ">
<polygon fill="#e0e0e0" stroke="#999999" points="212,-30 99,-30 99,0 212,0 212,-30"/>
<text text-anchor="start" x="107" y="-18" font-family="Helvetica,sans-Serif" font-size="10.00">spdlog/sinks/ansicolor</text>
<text text-anchor="middle" x="155.5" y="-7" font-family="Helvetica,sans-Serif" font-size="10.00">_sink.h</text>
</a>
</g>
</g>
<!-- Node1&#45;&gt;Node3 -->
<g id="edge2" class="edge">
<title>Node1&#45;&gt;Node3</title>
<path fill="none" stroke="#63b8ff" d="M286.06,-65.58C260.18,-55.76 229.18,-43.98 203.87,-34.37"/>
<polygon fill="#63b8ff" stroke="#63b8ff" points="205.42,-31.21 194.83,-30.94 202.93,-37.76 205.42,-31.21"/>
</g>
<!-- Node4 -->
<g id="node4" class="node">
<title>Node4</title>
<g id="a_node4"><a xlink:title=" ">
<polygon fill="#e0e0e0" stroke="#999999" points="328.5,-30 230.5,-30 230.5,0 328.5,0 328.5,-30"/>
<text text-anchor="start" x="238.5" y="-18" font-family="Helvetica,sans-Serif" font-size="10.00">spdlog/sinks/basic</text>
<text text-anchor="middle" x="279.5" y="-7" font-family="Helvetica,sans-Serif" font-size="10.00">_file_sink.h</text>
</a>
</g>
</g>
<!-- Node1&#45;&gt;Node4 -->
<g id="edge3" class="edge">
<title>Node1&#45;&gt;Node4</title>
<path fill="none" stroke="#63b8ff" d="M321.75,-65.77C314.67,-57.43 306.38,-47.66 299.02,-39"/>
<polygon fill="#63b8ff" stroke="#63b8ff" points="301.91,-36.99 292.77,-31.63 296.57,-41.52 301.91,-36.99"/>
</g>
<!-- Node5 -->
<g id="node5" class="node">
<title>Node5</title>
<g id="a_node5"><a xlink:title=" ">
<polygon fill="#e0e0e0" stroke="#999999" points="448,-30 347,-30 347,0 448,0 448,-30"/>
<text text-anchor="start" x="355" y="-18" font-family="Helvetica,sans-Serif" font-size="10.00">spdlog/sinks/stdout</text>
<text text-anchor="middle" x="397.5" y="-7" font-family="Helvetica,sans-Serif" font-size="10.00">_color_sinks.h</text>
</a>
</g>
</g>
<!-- Node1&#45;&gt;Node5 -->
<g id="edge4" class="edge">
<title>Node1&#45;&gt;Node5</title>
<path fill="none" stroke="#63b8ff" d="M355.25,-65.77C362.33,-57.43 370.62,-47.66 377.98,-39"/>
<polygon fill="#63b8ff" stroke="#63b8ff" points="380.43,-41.52 384.23,-31.63 375.09,-36.99 380.43,-41.52"/>
</g>
<!-- Node6 -->
<g id="node6" class="node">
<title>Node6</title>
<g id="a_node6"><a xlink:title=" ">
<polygon fill="#e0e0e0" stroke="#999999" points="550.5,-24.5 466.5,-24.5 466.5,-5.5 550.5,-5.5 550.5,-24.5"/>
<text text-anchor="middle" x="508.5" y="-12.5" font-family="Helvetica,sans-Serif" font-size="10.00">spdlog/spdlog.h</text>
</a>
</g>
</g>
<!-- Node1&#45;&gt;Node6 -->
<g id="edge5" class="edge">
<title>Node1&#45;&gt;Node6</title>
<path fill="none" stroke="#63b8ff" d="M387.22,-65.58C415.76,-53.91 451.03,-39.5 476.16,-29.22"/>
<polygon fill="#63b8ff" stroke="#63b8ff" points="477.26,-32.55 485.2,-25.53 474.62,-26.07 477.26,-32.55"/>
</g>
<!-- Node7 -->
<g id="node7" class="node">
<title>Node7</title>
<g id="a_node7"><a xlink:href="../../d4/dfc/win-undef_8hpp.html" target="_top" xlink:title=" ">
<polygon fill="white" stroke="#666666" points="646,-24.5 569,-24.5 569,-5.5 646,-5.5 646,-24.5"/>
<text text-anchor="middle" x="607.5" y="-12.5" font-family="Helvetica,sans-Serif" font-size="10.00">win&#45;undef.hpp</text>
</a>
</g>
</g>
<!-- Node1&#45;&gt;Node7 -->
<g id="edge6" class="edge">
<title>Node1&#45;&gt;Node7</title>
<path fill="none" stroke="#63b8ff" d="M395.43,-71.83C440.15,-60.94 503.95,-45.07 559.5,-30 561.76,-29.39 564.07,-28.75 566.41,-28.1"/>
<polygon fill="#63b8ff" stroke="#63b8ff" points="567.22,-31.5 575.88,-25.4 565.3,-24.77 567.22,-31.5"/>
</g>
</g>
</svg>
