<?xml version="1.0" encoding="UTF-8" standalone="no"?>
<!DOCTYPE svg PUBLIC "-//W3C//DTD SVG 1.1//EN"
 "http://www.w3.org/Graphics/SVG/1.1/DTD/svg11.dtd">
<!-- Generated by graphviz version 8.1.0 (20230707.0739)
 -->
<!-- Title: third_party/mal&#45;toolkit/mal&#45;toolkit/mal&#45;toolkit/include/spdlog.hpp Pages: 1 -->
<svg width="609pt" height="116pt"
 viewBox="0.00 0.00 608.50 116.25" xmlns="http://www.w3.org/2000/svg" xmlns:xlink="http://www.w3.org/1999/xlink">
<g id="graph0" class="graph" transform="scale(1 1) rotate(0) translate(4 112.25)">
<title>third_party/mal&#45;toolkit/mal&#45;toolkit/mal&#45;toolkit/include/spdlog.hpp</title>
<!-- Node1 -->
<g id="Node000001" class="node">
<title>Node1</title>
<g id="a_Node000001"><a xlink:title="Provides integration with the SPDLOG library for efficient logging and debugging.">
<polygon fill="#999999" stroke="#666666" points="364.62,-108.25 257.12,-108.25 257.12,-66.5 364.62,-66.5 364.62,-108.25"/>
<text text-anchor="start" x="265.12" y="-94.75" font-family="Times,serif" font-size="10.00">third_party/mal&#45;toolkit</text>
<text text-anchor="start" x="265.12" y="-83.5" font-family="Times,serif" font-size="10.00">/mal&#45;toolkit/mal&#45;toolkit</text>
<text text-anchor="middle" x="310.88" y="-72.25" font-family="Times,serif" font-size="10.00">/include/spdlog.hpp</text>
</a>
</g>
</g>
<!-- Node2 -->
<g id="Node000002" class="node">
<title>Node2</title>
<g id="a_Node000002"><a xlink:title=" ">
<polygon fill="#e0e0e0" stroke="#999999" points="73.75,-24.88 0,-24.88 0,-5.63 73.75,-5.63 73.75,-24.88"/>
<text text-anchor="middle" x="36.88" y="-11.38" font-family="Times,serif" font-size="10.00">spdlog/async.h</text>
</a>
</g>
</g>
<!-- Node1&#45;&gt;Node2 -->
<g id="edge1_Node000001_Node000002" class="edge">
<title>Node1&#45;&gt;Node2</title>
<g id="a_edge1_Node000001_Node000002"><a xlink:title=" ">
<path fill="none" stroke="#63b8ff" d="M256.94,-74.29C210.36,-63.61 141.38,-47.16 81.88,-30.5 79.57,-29.85 77.2,-29.17 74.81,-28.46"/>
<polygon fill="#63b8ff" stroke="#63b8ff" points="75.98,-24.85 65.39,-25.29 73.94,-31.55 75.98,-24.85"/>
</a>
</g>
</g>
<!-- Node3 -->
<g id="Node000003" class="node">
<title>Node3</title>
<g id="a_Node000003"><a xlink:title=" ">
<polygon fill="#e0e0e0" stroke="#999999" points="194.38,-30.5 91.38,-30.5 91.38,0 194.38,0 194.38,-30.5"/>
<text text-anchor="start" x="99.38" y="-17" font-family="Times,serif" font-size="10.00">spdlog/sinks/ansicolor</text>
<text text-anchor="middle" x="142.88" y="-5.75" font-family="Times,serif" font-size="10.00">_sink.h</text>
</a>
</g>
</g>
<!-- Node1&#45;&gt;Node3 -->
<g id="edge2_Node000001_Node000003" class="edge">
<title>Node1&#45;&gt;Node3</title>
<g id="a_edge2_Node000001_Node000003"><a xlink:title=" ">
<path fill="none" stroke="#63b8ff" d="M262.28,-66.09C238.92,-56.34 211.09,-44.72 188.17,-35.16"/>
<polygon fill="#63b8ff" stroke="#63b8ff" points="189.6,-31.54 179.02,-30.92 186.9,-38 189.6,-31.54"/>
</a>
</g>
</g>
<!-- Node4 -->
<g id="Node000004" class="node">
<title>Node4</title>
<g id="a_Node000004"><a xlink:title=" ">
<polygon fill="#e0e0e0" stroke="#999999" points="301.25,-30.5 212.5,-30.5 212.5,0 301.25,0 301.25,-30.5"/>
<text text-anchor="start" x="220.5" y="-17" font-family="Times,serif" font-size="10.00">spdlog/sinks/basic</text>
<text text-anchor="middle" x="256.88" y="-5.75" font-family="Times,serif" font-size="10.00">_file_sink.h</text>
</a>
</g>
</g>
<!-- Node1&#45;&gt;Node4 -->
<g id="edge3_Node000001_Node000004" class="edge">
<title>Node1&#45;&gt;Node4</title>
<g id="a_edge3_Node000001_Node000004"><a xlink:title=" ">
<path fill="none" stroke="#63b8ff" d="M295.26,-66.09C288.78,-57.69 281.24,-47.89 274.57,-39.22"/>
<polygon fill="#63b8ff" stroke="#63b8ff" points="276.88,-37.49 268,-31.7 271.33,-41.76 276.88,-37.49"/>
</a>
</g>
</g>
<!-- Node5 -->
<g id="Node000005" class="node">
<title>Node5</title>
<g id="a_Node000005"><a xlink:title=" ">
<polygon fill="#e0e0e0" stroke="#999999" points="412.5,-30.5 319.25,-30.5 319.25,0 412.5,0 412.5,-30.5"/>
<text text-anchor="start" x="327.25" y="-17" font-family="Times,serif" font-size="10.00">spdlog/sinks/stdout</text>
<text text-anchor="middle" x="365.88" y="-5.75" font-family="Times,serif" font-size="10.00">_color_sinks.h</text>
</a>
</g>
</g>
<!-- Node1&#45;&gt;Node5 -->
<g id="edge4_Node000001_Node000005" class="edge">
<title>Node1&#45;&gt;Node5</title>
<g id="a_edge4_Node000001_Node000005"><a xlink:title=" ">
<path fill="none" stroke="#63b8ff" d="M326.78,-66.09C333.38,-57.69 341.06,-47.89 347.86,-39.22"/>
<polygon fill="#63b8ff" stroke="#63b8ff" points="351.12,-41.73 354.54,-31.7 345.62,-37.41 351.12,-41.73"/>
</a>
</g>
</g>
<!-- Node6 -->
<g id="Node000006" class="node">
<title>Node6</title>
<g id="a_Node000006"><a xlink:title=" ">
<polygon fill="#e0e0e0" stroke="#999999" points="507.62,-24.88 430.12,-24.88 430.12,-5.63 507.62,-5.63 507.62,-24.88"/>
<text text-anchor="middle" x="468.88" y="-11.38" font-family="Times,serif" font-size="10.00">spdlog/spdlog.h</text>
</a>
</g>
</g>
<!-- Node1&#45;&gt;Node6 -->
<g id="edge5_Node000001_Node000006" class="edge">
<title>Node1&#45;&gt;Node6</title>
<g id="a_edge5_Node000001_Node000006"><a xlink:title=" ">
<path fill="none" stroke="#63b8ff" d="M356.58,-66.09C382.97,-54.38 415.44,-39.96 438.67,-29.66"/>
<polygon fill="#63b8ff" stroke="#63b8ff" points="439.91,-32.49 447.63,-25.23 437.07,-26.09 439.91,-32.49"/>
</a>
</g>
</g>
<!-- Node7 -->
<g id="Node000007" class="node">
<title>Node7</title>
<g id="a_Node000007"><a xlink:href="../../d4/dfc/win-undef_8hpp.html" target="_top" xlink:title=" ">
<polygon fill="white" stroke="#666666" points="600.5,-24.88 525.25,-24.88 525.25,-5.63 600.5,-5.63 600.5,-24.88"/>
<text text-anchor="middle" x="562.88" y="-11.38" font-family="Times,serif" font-size="10.00">win&#45;undef.hpp</text>
</a>
</g>
</g>
<!-- Node1&#45;&gt;Node7 -->
<g id="edge6_Node000001_Node000007" class="edge">
<title>Node1&#45;&gt;Node7</title>
<g id="a_edge6_Node000001_Node000007"><a xlink:title=" ">
<path fill="none" stroke="#63b8ff" d="M364.81,-72.31C406.45,-61.31 465.45,-45.43 516.88,-30.5 519.16,-29.84 521.5,-29.15 523.86,-28.44"/>
<polygon fill="#63b8ff" stroke="#63b8ff" points="524.66,-31.55 533.21,-25.3 522.63,-24.85 524.66,-31.55"/>
</a>
</g>
</g>
</g>
</svg>
