<?xml version="1.0" encoding="UTF-8" standalone="no"?>
<!DOCTYPE svg PUBLIC "-//W3C//DTD SVG 1.1//EN"
 "http://www.w3.org/Graphics/SVG/1.1/DTD/svg11.dtd">
<!-- Generated by graphviz version 8.1.0 (20230707.0739)
 -->
<!-- Title: third_party/mal&#45;toolkit/mal&#45;toolkit/mal&#45;toolkit/library&#45;pch.hpp Pages: 1 -->
<svg width="2248pt" height="105pt"
 viewBox="0.00 0.00 2247.75 105.00" xmlns="http://www.w3.org/2000/svg" xmlns:xlink="http://www.w3.org/1999/xlink">
<g id="graph0" class="graph" transform="scale(1 1) rotate(0) translate(4 101)">
<title>third_party/mal&#45;toolkit/mal&#45;toolkit/mal&#45;toolkit/library&#45;pch.hpp</title>
<!-- Node1 -->
<g id="Node000001" class="node">
<title>Node1</title>
<g id="a_Node000001"><a xlink:title="Precompiled header (PCH) file for common headers used across the library.">
<polygon fill="#999999" stroke="#666666" points="1167.12,-97 1059.62,-97 1059.62,-55.25 1167.12,-55.25 1167.12,-97"/>
<text text-anchor="start" x="1067.62" y="-83.5" font-family="Times,serif" font-size="10.00">third_party/mal&#45;toolkit</text>
<text text-anchor="start" x="1067.62" y="-72.25" font-family="Times,serif" font-size="10.00">/mal&#45;toolkit/mal&#45;toolkit</text>
<text text-anchor="middle" x="1113.38" y="-61" font-family="Times,serif" font-size="10.00">/library&#45;pch.hpp</text>
</a>
</g>
</g>
<!-- Node2 -->
<g id="Node000002" class="node">
<title>Node2</title>
<g id="a_Node000002"><a xlink:title=" ">
<polygon fill="#e0e0e0" stroke="#999999" points="46.75,-19.25 0,-19.25 0,0 46.75,0 46.75,-19.25"/>
<text text-anchor="middle" x="23.38" y="-5.75" font-family="Times,serif" font-size="10.00">assert.h</text>
</a>
</g>
</g>
<!-- Node1&#45;&gt;Node2 -->
<g id="edge1_Node000001_Node000002" class="edge">
<title>Node1&#45;&gt;Node2</title>
<g id="a_edge1_Node000001_Node000002"><a xlink:title=" ">
<path fill="none" stroke="#63b8ff" d="M1059.3,-73.77C875.23,-68.94 272.96,-51.19 57.88,-19.27"/>
<polygon fill="#63b8ff" stroke="#63b8ff" points="58.44,-15.66 48.02,-17.59 57.37,-22.58 58.44,-15.66"/>
</a>
</g>
</g>
<!-- Node3 -->
<g id="Node000003" class="node">
<title>Node3</title>
<g id="a_Node000003"><a xlink:title=" ">
<polygon fill="#e0e0e0" stroke="#999999" points="110.38,-19.25 64.38,-19.25 64.38,0 110.38,0 110.38,-19.25"/>
<text text-anchor="middle" x="87.38" y="-5.75" font-family="Times,serif" font-size="10.00">stdint.h</text>
</a>
</g>
</g>
<!-- Node1&#45;&gt;Node3 -->
<g id="edge2_Node000001_Node000003" class="edge">
<title>Node1&#45;&gt;Node3</title>
<g id="a_edge2_Node000001_Node000003"><a xlink:title=" ">
<path fill="none" stroke="#63b8ff" d="M1059.17,-73.56C882.49,-68.22 323.51,-49.49 121.46,-19.19"/>
<polygon fill="#63b8ff" stroke="#63b8ff" points="122.09,-15.59 111.67,-17.5 121.01,-22.5 122.09,-15.59"/>
</a>
</g>
</g>
<!-- Node4 -->
<g id="Node000004" class="node">
<title>Node4</title>
<g id="a_Node000004"><a xlink:title=" ">
<polygon fill="#e0e0e0" stroke="#999999" points="182.12,-19.25 128.62,-19.25 128.62,0 182.12,0 182.12,-19.25"/>
<text text-anchor="middle" x="155.38" y="-5.75" font-family="Times,serif" font-size="10.00">algorithm</text>
</a>
</g>
</g>
<!-- Node1&#45;&gt;Node4 -->
<g id="edge3_Node000001_Node000004" class="edge">
<title>Node1&#45;&gt;Node4</title>
<g id="a_edge3_Node000001_Node000004"><a xlink:title=" ">
<path fill="none" stroke="#63b8ff" d="M1059.25,-75.13C918.04,-74.45 526.84,-68.08 193.25,-19.24"/>
<polygon fill="#63b8ff" stroke="#63b8ff" points="193.81,-15.64 183.4,-17.64 192.78,-22.56 193.81,-15.64"/>
</a>
</g>
</g>
<!-- Node5 -->
<g id="Node000005" class="node">
<title>Node5</title>
<g id="a_Node000005"><a xlink:title=" ">
<polygon fill="#e0e0e0" stroke="#999999" points="236.5,-19.25 200.25,-19.25 200.25,0 236.5,0 236.5,-19.25"/>
<text text-anchor="middle" x="218.38" y="-5.75" font-family="Times,serif" font-size="10.00">array</text>
</a>
</g>
</g>
<!-- Node1&#45;&gt;Node5 -->
<g id="edge4_Node000001_Node000005" class="edge">
<title>Node1&#45;&gt;Node5</title>
<g id="a_edge4_Node000001_Node000005"><a xlink:title=" ">
<path fill="none" stroke="#63b8ff" d="M1059.2,-73.37C898.08,-67.9 422.7,-49.73 247.42,-19.11"/>
<polygon fill="#63b8ff" stroke="#63b8ff" points="248.28,-15.53 237.81,-17.17 247.02,-22.41 248.28,-15.53"/>
</a>
</g>
</g>
<!-- Node6 -->
<g id="Node000006" class="node">
<title>Node6</title>
<g id="a_Node000006"><a xlink:title=" ">
<polygon fill="#e0e0e0" stroke="#999999" points="297.88,-19.25 254.88,-19.25 254.88,0 297.88,0 297.88,-19.25"/>
<text text-anchor="middle" x="276.38" y="-5.75" font-family="Times,serif" font-size="10.00">chrono</text>
</a>
</g>
</g>
<!-- Node1&#45;&gt;Node6 -->
<g id="edge5_Node000001_Node000006" class="edge">
<title>Node1&#45;&gt;Node6</title>
<g id="a_edge5_Node000001_Node000006"><a xlink:title=" ">
<path fill="none" stroke="#63b8ff" d="M1059.16,-75.13C930.29,-74.34 595.61,-67.55 308.87,-19.12"/>
<polygon fill="#63b8ff" stroke="#63b8ff" points="309.71,-15.54 299.27,-17.31 308.53,-22.44 309.71,-15.54"/>
</a>
</g>
</g>
<!-- Node7 -->
<g id="Node000007" class="node">
<title>Node7</title>
<g id="a_Node000007"><a xlink:title=" ">
<polygon fill="#e0e0e0" stroke="#999999" points="356.75,-19.25 316,-19.25 316,0 356.75,0 356.75,-19.25"/>
<text text-anchor="middle" x="336.38" y="-5.75" font-family="Times,serif" font-size="10.00">cmath</text>
</a>
</g>
</g>
<!-- Node1&#45;&gt;Node7 -->
<g id="edge6_Node000001_Node000007" class="edge">
<title>Node1&#45;&gt;Node7</title>
<g id="a_edge6_Node000001_Node000007"><a xlink:title=" ">
<path fill="none" stroke="#63b8ff" d="M1059.46,-74.87C937.51,-73.48 631.25,-65.46 367.76,-19.09"/>
<polygon fill="#63b8ff" stroke="#63b8ff" points="368.69,-15.52 358.23,-17.21 367.46,-22.41 368.69,-15.52"/>
</a>
</g>
</g>
<!-- Node8 -->
<g id="Node000008" class="node">
<title>Node8</title>
<g id="a_Node000008"><a xlink:title=" ">
<polygon fill="#e0e0e0" stroke="#999999" points="425.62,-19.25 375.12,-19.25 375.12,0 425.62,0 425.62,-19.25"/>
<text text-anchor="middle" x="400.38" y="-5.75" font-family="Times,serif" font-size="10.00">concepts</text>
</a>
</g>
</g>
<!-- Node1&#45;&gt;Node8 -->
<g id="edge7_Node000001_Node000008" class="edge">
<title>Node1&#45;&gt;Node8</title>
<g id="a_edge7_Node000001_Node000008"><a xlink:title=" ">
<path fill="none" stroke="#63b8ff" d="M1059.41,-73.6C945.81,-69.75 673.71,-57.23 436.45,-19.13"/>
<polygon fill="#63b8ff" stroke="#63b8ff" points="437.32,-15.56 426.89,-17.41 436.2,-22.47 437.32,-15.56"/>
</a>
</g>
</g>
<!-- Node9 -->
<g id="Node000009" class="node">
<title>Node9</title>
<g id="a_Node000009"><a xlink:title=" ">
<polygon fill="#e0e0e0" stroke="#999999" points="532.75,-19.25 444,-19.25 444,0 532.75,0 532.75,-19.25"/>
<text text-anchor="middle" x="488.38" y="-5.75" font-family="Times,serif" font-size="10.00">condition_variable</text>
</a>
</g>
</g>
<!-- Node1&#45;&gt;Node9 -->
<g id="edge8_Node000001_Node000009" class="edge">
<title>Node1&#45;&gt;Node9</title>
<g id="a_edge8_Node000001_Node000009"><a xlink:title=" ">
<path fill="none" stroke="#63b8ff" d="M1059.22,-71C959.36,-63.13 739.24,-44.61 543.92,-19.51"/>
<polygon fill="#63b8ff" stroke="#63b8ff" points="544.53,-15.93 534.16,-18.12 543.63,-22.88 544.53,-15.93"/>
</a>
</g>
</g>
<!-- Node10 -->
<g id="Node000010" class="node">
<title>Node10</title>
<g id="a_Node000010"><a xlink:title=" ">
<polygon fill="#e0e0e0" stroke="#999999" points="593.88,-19.25 550.88,-19.25 550.88,0 593.88,0 593.88,-19.25"/>
<text text-anchor="middle" x="572.38" y="-5.75" font-family="Times,serif" font-size="10.00">cstdint</text>
</a>
</g>
</g>
<!-- Node1&#45;&gt;Node10 -->
<g id="edge9_Node000001_Node000010" class="edge">
<title>Node1&#45;&gt;Node10</title>
<g id="a_edge9_Node000001_Node000010"><a xlink:title=" ">
<path fill="none" stroke="#63b8ff" d="M1059.21,-72.25C967.34,-66.72 775.09,-52.28 604.88,-19.46"/>
<polygon fill="#63b8ff" stroke="#63b8ff" points="605.71,-15.86 595.22,-17.37 604.37,-22.73 605.71,-15.86"/>
</a>
</g>
</g>
<!-- Node11 -->
<g id="Node000011" class="node">
<title>Node11</title>
<g id="a_Node000011"><a xlink:title=" ">
<polygon fill="#e0e0e0" stroke="#999999" points="654.88,-19.25 611.88,-19.25 611.88,0 654.88,0 654.88,-19.25"/>
<text text-anchor="middle" x="633.38" y="-5.75" font-family="Times,serif" font-size="10.00">cstdlib</text>
</a>
</g>
</g>
<!-- Node1&#45;&gt;Node11 -->
<g id="edge10_Node000001_Node000011" class="edge">
<title>Node1&#45;&gt;Node11</title>
<g id="a_edge10_Node000001_Node000011"><a xlink:title=" ">
<path fill="none" stroke="#63b8ff" d="M1059.25,-71.16C976.28,-64.47 812.61,-48.91 665.77,-19.48"/>
<polygon fill="#63b8ff" stroke="#63b8ff" points="666.73,-15.9 656.23,-17.34 665.33,-22.76 666.73,-15.9"/>
</a>
</g>
</g>
<!-- Node12 -->
<g id="Node000012" class="node">
<title>Node12</title>
<g id="a_Node000012"><a xlink:title=" ">
<polygon fill="#e0e0e0" stroke="#999999" points="727.88,-19.25 672.88,-19.25 672.88,0 727.88,0 727.88,-19.25"/>
<text text-anchor="middle" x="700.38" y="-5.75" font-family="Times,serif" font-size="10.00">filesystem</text>
</a>
</g>
</g>
<!-- Node1&#45;&gt;Node12 -->
<g id="edge11_Node000001_Node000012" class="edge">
<title>Node1&#45;&gt;Node12</title>
<g id="a_edge11_Node000001_Node000012"><a xlink:title=" ">
<path fill="none" stroke="#63b8ff" d="M1059.43,-68.65C988.17,-59.76 858.58,-42.43 739.03,-19.63"/>
<polygon fill="#63b8ff" stroke="#63b8ff" points="739.71,-16.01 729.23,-17.55 738.39,-22.88 739.71,-16.01"/>
</a>
</g>
</g>
<!-- Node13 -->
<g id="Node000013" class="node">
<title>Node13</title>
<g id="a_Node000013"><a xlink:title=" ">
<polygon fill="#e0e0e0" stroke="#999999" points="791,-19.25 745.75,-19.25 745.75,0 791,0 791,-19.25"/>
<text text-anchor="middle" x="768.38" y="-5.75" font-family="Times,serif" font-size="10.00">fstream</text>
</a>
</g>
</g>
<!-- Node1&#45;&gt;Node13 -->
<g id="edge12_Node000001_Node000013" class="edge">
<title>Node1&#45;&gt;Node13</title>
<g id="a_edge12_Node000001_Node000013"><a xlink:title=" ">
<path fill="none" stroke="#63b8ff" d="M1059.37,-66.94C998.96,-57.46 898.02,-40.66 801.88,-19.42"/>
<polygon fill="#63b8ff" stroke="#63b8ff" points="802.91,-15.84 792.39,-17.08 801.39,-22.68 802.91,-15.84"/>
</a>
</g>
</g>
<!-- Node14 -->
<g id="Node000014" class="node">
<title>Node14</title>
<g id="a_Node000014"><a xlink:title=" ">
<polygon fill="#e0e0e0" stroke="#999999" points="863.5,-19.25 809.25,-19.25 809.25,0 863.5,0 863.5,-19.25"/>
<text text-anchor="middle" x="836.38" y="-5.75" font-family="Times,serif" font-size="10.00">functional</text>
</a>
</g>
</g>
<!-- Node1&#45;&gt;Node14 -->
<g id="edge13_Node000001_Node000014" class="edge">
<title>Node1&#45;&gt;Node14</title>
<g id="a_edge13_Node000001_Node000014"><a xlink:title=" ">
<path fill="none" stroke="#63b8ff" d="M1059.27,-62.7C1012.79,-52 943.7,-36.03 874.54,-19.75"/>
<polygon fill="#63b8ff" stroke="#63b8ff" points="875.42,-16.13 864.89,-17.24 873.82,-22.94 875.42,-16.13"/>
</a>
</g>
</g>
<!-- Node15 -->
<g id="Node000015" class="node">
<title>Node15</title>
<g id="a_Node000015"><a xlink:title=" ">
<polygon fill="#e0e0e0" stroke="#999999" points="929.5,-19.25 881.25,-19.25 881.25,0 929.5,0 929.5,-19.25"/>
<text text-anchor="middle" x="905.38" y="-5.75" font-family="Times,serif" font-size="10.00">iomanip</text>
</a>
</g>
</g>
<!-- Node1&#45;&gt;Node15 -->
<g id="edge14_Node000001_Node000015" class="edge">
<title>Node1&#45;&gt;Node15</title>
<g id="a_edge14_Node000001_Node000015"><a xlink:title=" ">
<path fill="none" stroke="#63b8ff" d="M1059.27,-58.35C1021.63,-46.68 972.58,-31.46 940.08,-21.39"/>
<polygon fill="#63b8ff" stroke="#63b8ff" points="941.32,-17.8 930.73,-18.18 939.25,-24.48 941.32,-17.8"/>
</a>
</g>
</g>
<!-- Node16 -->
<g id="Node000016" class="node">
<title>Node16</title>
<g id="a_Node000016"><a xlink:title=" ">
<polygon fill="#e0e0e0" stroke="#999999" points="993,-19.25 947.75,-19.25 947.75,0 993,0 993,-19.25"/>
<text text-anchor="middle" x="970.38" y="-5.75" font-family="Times,serif" font-size="10.00">istream</text>
</a>
</g>
</g>
<!-- Node1&#45;&gt;Node16 -->
<g id="edge15_Node000001_Node000016" class="edge">
<title>Node1&#45;&gt;Node16</title>
<g id="a_edge15_Node000001_Node000016"><a xlink:title=" ">
<path fill="none" stroke="#63b8ff" d="M1068.52,-54.89C1046.3,-44.87 1020.08,-33.04 1000.33,-24.14"/>
<polygon fill="#63b8ff" stroke="#63b8ff" points="1001.93,-20.57 991.37,-19.64 999.05,-26.95 1001.93,-20.57"/>
</a>
</g>
</g>
<!-- Node17 -->
<g id="Node000017" class="node">
<title>Node17</title>
<g id="a_Node000017"><a xlink:title=" ">
<polygon fill="#e0e0e0" stroke="#999999" points="1049.25,-19.25 1011.5,-19.25 1011.5,0 1049.25,0 1049.25,-19.25"/>
<text text-anchor="middle" x="1030.38" y="-5.75" font-family="Times,serif" font-size="10.00">limits</text>
</a>
</g>
</g>
<!-- Node1&#45;&gt;Node17 -->
<g id="edge16_Node000001_Node000017" class="edge">
<title>Node1&#45;&gt;Node17</title>
<g id="a_edge16_Node000001_Node000017"><a xlink:title=" ">
<path fill="none" stroke="#63b8ff" d="M1087.57,-55.07C1075.67,-45.83 1061.76,-35.01 1050.63,-26.37"/>
<polygon fill="#63b8ff" stroke="#63b8ff" points="1053.09,-23.07 1043.05,-19.7 1048.8,-28.6 1053.09,-23.07"/>
</a>
</g>
</g>
<!-- Node18 -->
<g id="Node000018" class="node">
<title>Node18</title>
<g id="a_Node000018"><a xlink:title=" ">
<polygon fill="#e0e0e0" stroke="#999999" points="1101,-19.25 1067.75,-19.25 1067.75,0 1101,0 1101,-19.25"/>
<text text-anchor="middle" x="1084.38" y="-5.75" font-family="Times,serif" font-size="10.00">map</text>
</a>
</g>
</g>
<!-- Node1&#45;&gt;Node18 -->
<g id="edge17_Node000001_Node000018" class="edge">
<title>Node1&#45;&gt;Node18</title>
<g id="a_edge17_Node000001_Node000018"><a xlink:title=" ">
<path fill="none" stroke="#63b8ff" d="M1104.36,-55.07C1100.7,-46.93 1096.5,-37.58 1092.89,-29.57"/>
<polygon fill="#63b8ff" stroke="#63b8ff" points="1095.75,-28.38 1088.45,-20.7 1089.36,-31.25 1095.75,-28.38"/>
</a>
</g>
</g>
<!-- Node19 -->
<g id="Node000019" class="node">
<title>Node19</title>
<g id="a_Node000019"><a xlink:title=" ">
<polygon fill="#e0e0e0" stroke="#999999" points="1167.5,-19.25 1119.25,-19.25 1119.25,0 1167.5,0 1167.5,-19.25"/>
<text text-anchor="middle" x="1143.38" y="-5.75" font-family="Times,serif" font-size="10.00">memory</text>
</a>
</g>
</g>
<!-- Node1&#45;&gt;Node19 -->
<g id="edge18_Node000001_Node000019" class="edge">
<title>Node1&#45;&gt;Node19</title>
<g id="a_edge18_Node000001_Node000019"><a xlink:title=" ">
<path fill="none" stroke="#63b8ff" d="M1122.7,-55.07C1126.49,-46.93 1130.84,-37.58 1134.57,-29.57"/>
<polygon fill="#63b8ff" stroke="#63b8ff" points="1138.11,-31.24 1139.16,-20.7 1131.77,-28.29 1138.11,-31.24"/>
</a>
</g>
</g>
<!-- Node20 -->
<g id="Node000020" class="node">
<title>Node20</title>
<g id="a_Node000020"><a xlink:title=" ">
<polygon fill="#e0e0e0" stroke="#999999" points="1226.75,-19.25 1186,-19.25 1186,0 1226.75,0 1226.75,-19.25"/>
<text text-anchor="middle" x="1206.38" y="-5.75" font-family="Times,serif" font-size="10.00">mutex</text>
</a>
</g>
</g>
<!-- Node1&#45;&gt;Node20 -->
<g id="edge19_Node000001_Node000020" class="edge">
<title>Node1&#45;&gt;Node20</title>
<g id="a_edge19_Node000001_Node000020"><a xlink:title=" ">
<path fill="none" stroke="#63b8ff" d="M1142.55,-54.89C1156.13,-45.47 1172.02,-34.46 1184.54,-25.77"/>
<polygon fill="#63b8ff" stroke="#63b8ff" points="1186.15,-28.22 1192.37,-19.64 1182.16,-22.47 1186.15,-28.22"/>
</a>
</g>
</g>
<!-- Node21 -->
<g id="Node000021" class="node">
<title>Node21</title>
<g id="a_Node000021"><a xlink:title=" ">
<polygon fill="#e0e0e0" stroke="#999999" points="1295.62,-19.25 1245.12,-19.25 1245.12,0 1295.62,0 1295.62,-19.25"/>
<text text-anchor="middle" x="1270.38" y="-5.75" font-family="Times,serif" font-size="10.00">numbers</text>
</a>
</g>
</g>
<!-- Node1&#45;&gt;Node21 -->
<g id="edge20_Node000001_Node000021" class="edge">
<title>Node1&#45;&gt;Node21</title>
<g id="a_edge20_Node000001_Node000021"><a xlink:title=" ">
<path fill="none" stroke="#63b8ff" d="M1162.62,-54.89C1187.35,-44.73 1216.6,-32.72 1238.38,-23.77"/>
<polygon fill="#63b8ff" stroke="#63b8ff" points="1239.5,-26.68 1247.42,-19.64 1236.84,-20.21 1239.5,-26.68"/>
</a>
</g>
</g>
<!-- Node22 -->
<g id="Node000022" class="node">
<title>Node22</title>
<g id="a_Node000022"><a xlink:title=" ">
<polygon fill="#e0e0e0" stroke="#999999" points="1361.5,-19.25 1313.25,-19.25 1313.25,0 1361.5,0 1361.5,-19.25"/>
<text text-anchor="middle" x="1337.38" y="-5.75" font-family="Times,serif" font-size="10.00">numeric</text>
</a>
</g>
</g>
<!-- Node1&#45;&gt;Node22 -->
<g id="edge21_Node000001_Node000022" class="edge">
<title>Node1&#45;&gt;Node22</title>
<g id="a_edge21_Node000001_Node000022"><a xlink:title=" ">
<path fill="none" stroke="#63b8ff" d="M1167.6,-59.51C1209.49,-47.45 1266.23,-31.11 1302.33,-20.72"/>
<polygon fill="#63b8ff" stroke="#63b8ff" points="1303.18,-23.82 1311.83,-17.69 1301.25,-17.1 1303.18,-23.82"/>
</a>
</g>
</g>
<!-- Node23 -->
<g id="Node000023" class="node">
<title>Node23</title>
<g id="a_Node000023"><a xlink:title=" ">
<polygon fill="#e0e0e0" stroke="#999999" points="1426.75,-19.25 1380,-19.25 1380,0 1426.75,0 1426.75,-19.25"/>
<text text-anchor="middle" x="1403.38" y="-5.75" font-family="Times,serif" font-size="10.00">optional</text>
</a>
</g>
</g>
<!-- Node1&#45;&gt;Node23 -->
<g id="edge22_Node000001_Node000023" class="edge">
<title>Node1&#45;&gt;Node23</title>
<g id="a_edge22_Node000001_Node000023"><a xlink:title=" ">
<path fill="none" stroke="#63b8ff" d="M1167.18,-64.11C1216.94,-53.76 1293.2,-37.53 1368.93,-19.51"/>
<polygon fill="#63b8ff" stroke="#63b8ff" points="1369.7,-22.69 1378.61,-16.96 1368.07,-15.88 1369.7,-22.69"/>
</a>
</g>
</g>
<!-- Node24 -->
<g id="Node000024" class="node">
<title>Node24</title>
<g id="a_Node000024"><a xlink:title=" ">
<polygon fill="#e0e0e0" stroke="#999999" points="1492.12,-19.25 1444.62,-19.25 1444.62,0 1492.12,0 1492.12,-19.25"/>
<text text-anchor="middle" x="1468.38" y="-5.75" font-family="Times,serif" font-size="10.00">ostream</text>
</a>
</g>
</g>
<!-- Node1&#45;&gt;Node24 -->
<g id="edge23_Node000001_Node000024" class="edge">
<title>Node1&#45;&gt;Node24</title>
<g id="a_edge23_Node000001_Node000024"><a xlink:title=" ">
<path fill="none" stroke="#63b8ff" d="M1167.48,-67.15C1229.49,-57.71 1334.33,-40.77 1433.75,-19.45"/>
<polygon fill="#63b8ff" stroke="#63b8ff" points="1434.25,-22.71 1443.28,-17.17 1432.77,-15.87 1434.25,-22.71"/>
</a>
</g>
</g>
<!-- Node25 -->
<g id="Node000025" class="node">
<title>Node25</title>
<g id="a_Node000025"><a xlink:title=" ">
<polygon fill="#e0e0e0" stroke="#999999" points="1556.38,-19.25 1510.38,-19.25 1510.38,0 1556.38,0 1556.38,-19.25"/>
<text text-anchor="middle" x="1533.38" y="-5.75" font-family="Times,serif" font-size="10.00">random</text>
</a>
</g>
</g>
<!-- Node1&#45;&gt;Node25 -->
<g id="edge24_Node000001_Node000025" class="edge">
<title>Node1&#45;&gt;Node25</title>
<g id="a_edge24_Node000001_Node000025"><a xlink:title=" ">
<path fill="none" stroke="#63b8ff" d="M1167.39,-69.42C1240.62,-61.24 1375.59,-44.53 1499.6,-19.4"/>
<polygon fill="#63b8ff" stroke="#63b8ff" points="1499.94,-22.7 1509.03,-17.26 1498.53,-15.84 1499.94,-22.7"/>
</a>
</g>
</g>
<!-- Node26 -->
<g id="Node000026" class="node">
<title>Node26</title>
<g id="a_Node000026"><a xlink:title=" ">
<polygon fill="#e0e0e0" stroke="#999999" points="1646.5,-19.25 1574.25,-19.25 1574.25,0 1646.5,0 1646.5,-19.25"/>
<text text-anchor="middle" x="1610.38" y="-5.75" font-family="Times,serif" font-size="10.00">shared_mutex</text>
</a>
</g>
</g>
<!-- Node1&#45;&gt;Node26 -->
<g id="edge25_Node000001_Node000026" class="edge">
<title>Node1&#45;&gt;Node26</title>
<g id="a_edge25_Node000001_Node000026"><a xlink:title=" ">
<path fill="none" stroke="#63b8ff" d="M1167.46,-69.61C1250.43,-60.9 1414.33,-42.67 1563.36,-19.48"/>
<polygon fill="#63b8ff" stroke="#63b8ff" points="1563.72,-22.81 1573.06,-17.8 1562.64,-15.89 1563.72,-22.81"/>
</a>
</g>
</g>
<!-- Node27 -->
<g id="Node000027" class="node">
<title>Node27</title>
<g id="a_Node000027"><a xlink:title=" ">
<polygon fill="#e0e0e0" stroke="#999999" points="1699.75,-19.25 1665,-19.25 1665,0 1699.75,0 1699.75,-19.25"/>
<text text-anchor="middle" x="1682.38" y="-5.75" font-family="Times,serif" font-size="10.00">span</text>
</a>
</g>
</g>
<!-- Node1&#45;&gt;Node27 -->
<g id="edge26_Node000001_Node000027" class="edge">
<title>Node1&#45;&gt;Node27</title>
<g id="a_edge26_Node000001_Node000027"><a xlink:title=" ">
<path fill="none" stroke="#63b8ff" d="M1167.41,-73.24C1263.67,-69.1 1471.11,-56.55 1653.89,-19.11"/>
<polygon fill="#63b8ff" stroke="#63b8ff" points="1654.43,-22.37 1663.5,-16.9 1653,-15.51 1654.43,-22.37"/>
</a>
</g>
</g>
<!-- Node28 -->
<g id="Node000028" class="node">
<title>Node28</title>
<g id="a_Node000028"><a xlink:title=" ">
<polygon fill="#e0e0e0" stroke="#999999" points="1763.38,-19.25 1717.38,-19.25 1717.38,0 1763.38,0 1763.38,-19.25"/>
<text text-anchor="middle" x="1740.38" y="-5.75" font-family="Times,serif" font-size="10.00">sstream</text>
</a>
</g>
</g>
<!-- Node1&#45;&gt;Node28 -->
<g id="edge27_Node000001_Node000028" class="edge">
<title>Node1&#45;&gt;Node28</title>
<g id="a_edge27_Node000001_Node000028"><a xlink:title=" ">
<path fill="none" stroke="#63b8ff" d="M1167.53,-73.11C1270.79,-68.62 1502.94,-55.31 1706.47,-19.3"/>
<polygon fill="#63b8ff" stroke="#63b8ff" points="1706.83,-22.61 1716.06,-17.4 1705.6,-15.72 1706.83,-22.61"/>
</a>
</g>
</g>
<!-- Node29 -->
<g id="Node000029" class="node">
<title>Node29</title>
<g id="a_Node000029"><a xlink:title=" ">
<polygon fill="#e0e0e0" stroke="#999999" points="1835.5,-19.25 1781.25,-19.25 1781.25,0 1835.5,0 1835.5,-19.25"/>
<text text-anchor="middle" x="1808.38" y="-5.75" font-family="Times,serif" font-size="10.00">stdexcept</text>
</a>
</g>
</g>
<!-- Node1&#45;&gt;Node29 -->
<g id="edge28_Node000001_Node000029" class="edge">
<title>Node1&#45;&gt;Node29</title>
<g id="a_edge28_Node000001_Node000029"><a xlink:title=" ">
<path fill="none" stroke="#63b8ff" d="M1167.53,-73.29C1278.86,-68.93 1541.52,-55.58 1770.41,-19.33"/>
<polygon fill="#63b8ff" stroke="#63b8ff" points="1770.62,-22.69 1779.94,-17.65 1769.52,-15.77 1770.62,-22.69"/>
</a>
</g>
</g>
<!-- Node30 -->
<g id="Node000030" class="node">
<title>Node30</title>
<g id="a_Node000030"><a xlink:title=" ">
<polygon fill="#e0e0e0" stroke="#999999" points="1893,-19.25 1853.75,-19.25 1853.75,0 1893,0 1893,-19.25"/>
<text text-anchor="middle" x="1873.38" y="-5.75" font-family="Times,serif" font-size="10.00">string</text>
</a>
</g>
</g>
<!-- Node1&#45;&gt;Node30 -->
<g id="edge29_Node000001_Node000030" class="edge">
<title>Node1&#45;&gt;Node30</title>
<g id="a_edge29_Node000001_Node000030"><a xlink:title=" ">
<path fill="none" stroke="#63b8ff" d="M1167.53,-74.91C1287.79,-73.58 1586.06,-65.66 1842.89,-19.09"/>
<polygon fill="#63b8ff" stroke="#63b8ff" points="1843.34,-22.38 1852.54,-17.13 1842.07,-15.5 1843.34,-22.38"/>
</a>
</g>
</g>
<!-- Node31 -->
<g id="Node000031" class="node">
<title>Node31</title>
<g id="a_Node000031"><a xlink:title=" ">
<polygon fill="#e0e0e0" stroke="#999999" points="1952.12,-19.25 1910.62,-19.25 1910.62,0 1952.12,0 1952.12,-19.25"/>
<text text-anchor="middle" x="1931.38" y="-5.75" font-family="Times,serif" font-size="10.00">thread</text>
</a>
</g>
</g>
<!-- Node1&#45;&gt;Node31 -->
<g id="edge30_Node000001_Node000031" class="edge">
<title>Node1&#45;&gt;Node31</title>
<g id="a_edge30_Node000001_Node000031"><a xlink:title=" ">
<path fill="none" stroke="#63b8ff" d="M1167.45,-75.34C1294.36,-74.98 1621.03,-69.04 1899.56,-19.41"/>
<polygon fill="#63b8ff" stroke="#63b8ff" points="1900.06,-22.7 1909.28,-17.48 1898.82,-15.81 1900.06,-22.7"/>
</a>
</g>
</g>
<!-- Node32 -->
<g id="Node000032" class="node">
<title>Node32</title>
<g id="a_Node000032"><a xlink:title=" ">
<polygon fill="#e0e0e0" stroke="#999999" points="2028.75,-19.25 1970,-19.25 1970,0 2028.75,0 2028.75,-19.25"/>
<text text-anchor="middle" x="1999.38" y="-5.75" font-family="Times,serif" font-size="10.00">type_traits</text>
</a>
</g>
</g>
<!-- Node1&#45;&gt;Node32 -->
<g id="edge31_Node000001_Node000032" class="edge">
<title>Node1&#45;&gt;Node32</title>
<g id="a_edge31_Node000001_Node000032"><a xlink:title=" ">
<path fill="none" stroke="#63b8ff" d="M1167.26,-74.51C1300.31,-72.36 1655.08,-62.82 1958.81,-19.41"/>
<polygon fill="#63b8ff" stroke="#63b8ff" points="1959.19,-22.75 1968.59,-17.85 1958.19,-15.82 1959.19,-22.75"/>
</a>
</g>
</g>
<!-- Node33 -->
<g id="Node000033" class="node">
<title>Node33</title>
<g id="a_Node000033"><a xlink:title=" ">
<polygon fill="#e0e0e0" stroke="#999999" points="2119.5,-19.25 2047.25,-19.25 2047.25,0 2119.5,0 2119.5,-19.25"/>
<text text-anchor="middle" x="2083.38" y="-5.75" font-family="Times,serif" font-size="10.00">unordered_set</text>
</a>
</g>
</g>
<!-- Node1&#45;&gt;Node33 -->
<g id="edge32_Node000001_Node000033" class="edge">
<title>Node1&#45;&gt;Node33</title>
<g id="a_edge32_Node000001_Node000033"><a xlink:title=" ">
<path fill="none" stroke="#63b8ff" d="M1167.49,-74.21C1308.77,-71.32 1700.47,-60.08 2036.36,-19.19"/>
<polygon fill="#63b8ff" stroke="#63b8ff" points="2036.28,-22.61 2045.78,-17.91 2035.43,-15.66 2036.28,-22.61"/>
</a>
</g>
</g>
<!-- Node34 -->
<g id="Node000034" class="node">
<title>Node34</title>
<g id="a_Node000034"><a xlink:title=" ">
<polygon fill="#e0e0e0" stroke="#999999" points="2180.88,-19.25 2137.88,-19.25 2137.88,0 2180.88,0 2180.88,-19.25"/>
<text text-anchor="middle" x="2159.38" y="-5.75" font-family="Times,serif" font-size="10.00">variant</text>
</a>
</g>
</g>
<!-- Node1&#45;&gt;Node34 -->
<g id="edge33_Node000001_Node000034" class="edge">
<title>Node1&#45;&gt;Node34</title>
<g id="a_edge33_Node000001_Node000034"><a xlink:title=" ">
<path fill="none" stroke="#63b8ff" d="M1167.46,-73.69C1346.55,-68.71 1920.09,-50.79 2126.75,-19.06"/>
<polygon fill="#63b8ff" stroke="#63b8ff" points="2127.17,-22.38 2136.49,-17.35 2126.06,-15.47 2127.17,-22.38"/>
</a>
</g>
</g>
<!-- Node35 -->
<g id="Node000035" class="node">
<title>Node35</title>
<g id="a_Node000035"><a xlink:title=" ">
<polygon fill="#e0e0e0" stroke="#999999" points="2239.75,-19.25 2199,-19.25 2199,0 2239.75,0 2239.75,-19.25"/>
<text text-anchor="middle" x="2219.38" y="-5.75" font-family="Times,serif" font-size="10.00">vector</text>
</a>
</g>
</g>
<!-- Node1&#45;&gt;Node35 -->
<g id="edge34_Node000001_Node000035" class="edge">
<title>Node1&#45;&gt;Node35</title>
<g id="a_edge34_Node000001_Node000035"><a xlink:title=" ">
<path fill="none" stroke="#63b8ff" d="M1167.46,-74.01C1353.84,-69.93 1969.5,-54.2 2187.89,-19.23"/>
<polygon fill="#63b8ff" stroke="#63b8ff" points="2188.32,-22.54 2197.61,-17.44 2187.17,-15.64 2188.32,-22.54"/>
</a>
</g>
</g>
</g>
</svg>
