<?xml version="1.0" encoding="UTF-8" standalone="no"?>
<!DOCTYPE svg PUBLIC "-//W3C//DTD SVG 1.1//EN"
 "http://www.w3.org/Graphics/SVG/1.1/DTD/svg11.dtd">
<!-- Generated by graphviz version 7.0.5 (20221223.1930)
 -->
<!-- Title: node_system::PacketDispatcher Pages: 1 -->
<svg width="929pt" height="452pt"
 viewBox="0.00 0.00 929.00 451.50" xmlns="http://www.w3.org/2000/svg" xmlns:xlink="http://www.w3.org/1999/xlink">
<g id="graph0" class="graph" transform="scale(1 1) rotate(0) translate(4 447.5)">
<title>node_system::PacketDispatcher</title>
<!-- Node1 -->
<g id="node1" class="node">
<title>Node1</title>
<g id="a_node1"><a xlink:title="The PacketDispatcher class is responsible for managing packet dispatching and handling.">
<polygon fill="#999999" stroke="#666666" points="921,-236 765,-236 765,-217 921,-217 921,-236"/>
<text text-anchor="middle" x="843" y="-224" font-family="Helvetica,sans-Serif" font-size="10.00">node_system::PacketDispatcher</text>
</a>
</g>
</g>
<!-- Node2 -->
<g id="node2" class="node">
<title>Node2</title>
<g id="a_node2"><a xlink:title=" ">
<polygon fill="white" stroke="#666666" points="405,-396 261,-396 261,-377 405,-377 405,-396"/>
<text text-anchor="middle" x="333" y="-384" font-family="Helvetica,sans-Serif" font-size="10.00">std::vector&lt; BasePacketPtr &gt;</text>
</a>
</g>
</g>
<!-- Node2&#45;&gt;Node1 -->
<g id="edge1" class="edge">
<title>Node2&#45;&gt;Node1</title>
<path fill="none" stroke="#9a32cd" stroke-dasharray="5,2" d="M380.23,-399.14C437.53,-413.01 538,-431.45 623,-416.5 680.74,-406.35 701.03,-407.88 747,-371.5 795.85,-332.84 827.81,-261.9 838.26,-236.15"/>
<polygon fill="#9a32cd" stroke="#9a32cd" points="381.39,-395.82 370.84,-396.81 379.7,-402.62 381.39,-395.82"/>
<text text-anchor="start" x="504.5" y="-435.5" font-family="Helvetica,sans-Serif" font-size="10.00"> unprocessed_packets</text>
<text text-anchor="middle" x="553.5" y="-424.5" font-family="Helvetica,sans-Serif" font-size="10.00">_input_</text>
</g>
<!-- Node8 -->
<g id="node8" class="node">
<title>Node8</title>
<g id="a_node8"><a xlink:title=" ">
<polygon fill="white" stroke="#666666" points="623,-407 484,-407 484,-366 623,-366 623,-407"/>
<text text-anchor="start" x="492" y="-395" font-family="Helvetica,sans-Serif" font-size="10.00">std::unordered_map</text>
<text text-anchor="start" x="492" y="-384" font-family="Helvetica,sans-Serif" font-size="10.00">&lt; UniquePacketID, std</text>
<text text-anchor="middle" x="553.5" y="-373" font-family="Helvetica,sans-Serif" font-size="10.00">::vector&lt; BasePacketPtr &gt; &gt;</text>
</a>
</g>
</g>
<!-- Node2&#45;&gt;Node8 -->
<g id="edge8" class="edge">
<title>Node2&#45;&gt;Node8</title>
<path fill="none" stroke="#9a32cd" stroke-dasharray="5,2" d="M416.63,-386.5C438.71,-386.5 462.33,-386.5 483.59,-386.5"/>
<polygon fill="#9a32cd" stroke="#9a32cd" points="416.76,-383 406.76,-386.5 416.76,-390 416.76,-383"/>
<text text-anchor="middle" x="444.5" y="-389.5" font-family="Helvetica,sans-Serif" font-size="10.00"> elements</text>
</g>
<!-- Node3 -->
<g id="node3" class="node">
<title>Node3</title>
<g id="a_node3"><a xlink:title=" ">
<polygon fill="white" stroke="#666666" points="181.5,-394 79.5,-394 79.5,-375 181.5,-375 181.5,-394"/>
<text text-anchor="middle" x="130.5" y="-382" font-family="Helvetica,sans-Serif" font-size="10.00">std::unique_ptr&lt; T &gt;</text>
</a>
</g>
</g>
<!-- Node3&#45;&gt;Node2 -->
<g id="edge2" class="edge">
<title>Node3&#45;&gt;Node2</title>
<path fill="none" stroke="#9a32cd" stroke-dasharray="5,2" d="M193.08,-385.11C214.49,-385.33 238.68,-385.57 260.81,-385.79"/>
<polygon fill="#9a32cd" stroke="#9a32cd" points="193.38,-381.62 183.35,-385.02 193.31,-388.62 193.38,-381.62"/>
<text text-anchor="middle" x="221.5" y="-388.5" font-family="Helvetica,sans-Serif" font-size="10.00"> elements</text>
</g>
<!-- Node4 -->
<g id="node4" class="node">
<title>Node4</title>
<g id="a_node4"><a xlink:title=" ">
<polygon fill="white" stroke="#666666" points="29,-373 0,-373 0,-354 29,-354 29,-373"/>
<text text-anchor="middle" x="14.5" y="-361" font-family="Helvetica,sans-Serif" font-size="10.00">T</text>
</a>
</g>
</g>
<!-- Node4&#45;&gt;Node3 -->
<g id="edge3" class="edge">
<title>Node4&#45;&gt;Node3</title>
<path fill="none" stroke="#9a32cd" stroke-dasharray="5,2" d="M40.68,-368.14C52.03,-370.23 65.86,-372.78 79.19,-375.23"/>
<polygon fill="#9a32cd" stroke="#9a32cd" points="41.44,-364.72 30.97,-366.35 40.17,-371.6 41.44,-364.72"/>
<text text-anchor="middle" x="54" y="-374.5" font-family="Helvetica,sans-Serif" font-size="10.00"> ptr</text>
</g>
<!-- Node11 -->
<g id="node11" class="node">
<title>Node11</title>
<g id="a_node11"><a xlink:title=" ">
<polygon fill="white" stroke="#666666" points="182,-355 79,-355 79,-336 182,-336 182,-355"/>
<text text-anchor="middle" x="130.5" y="-343" font-family="Helvetica,sans-Serif" font-size="10.00">std::shared_ptr&lt; T &gt;</text>
</a>
</g>
</g>
<!-- Node4&#45;&gt;Node11 -->
<g id="edge12" class="edge">
<title>Node4&#45;&gt;Node11</title>
<path fill="none" stroke="#9a32cd" stroke-dasharray="5,2" d="M39.93,-350.71C42.28,-349.83 44.66,-349.07 47,-348.5 57.16,-346.01 68.24,-344.69 78.88,-344.09"/>
<polygon fill="#9a32cd" stroke="#9a32cd" points="38.58,-347.48 30.85,-354.73 41.41,-353.88 38.58,-347.48"/>
<text text-anchor="middle" x="54" y="-351.5" font-family="Helvetica,sans-Serif" font-size="10.00"> ptr</text>
</g>
<!-- Node5 -->
<g id="node5" class="node">
<title>Node5</title>
<g id="a_node5"><a xlink:title=" ">
<polygon fill="white" stroke="#666666" points="619,-277 488,-277 488,-236 619,-236 619,-277"/>
<text text-anchor="start" x="496" y="-265" font-family="Helvetica,sans-Serif" font-size="10.00">std::vector&lt; std::pair</text>
<text text-anchor="start" x="496" y="-254" font-family="Helvetica,sans-Serif" font-size="10.00">&lt; UniquePacketID, shared</text>
<text text-anchor="middle" x="553.5" y="-243" font-family="Helvetica,sans-Serif" font-size="10.00">_packet_promise &gt; &gt;</text>
</a>
</g>
</g>
<!-- Node5&#45;&gt;Node1 -->
<g id="edge4" class="edge">
<title>Node5&#45;&gt;Node1</title>
<path fill="none" stroke="#9a32cd" stroke-dasharray="5,2" d="M630.77,-248.54C672.11,-244.23 723.08,-238.91 764.59,-234.58"/>
<polygon fill="#9a32cd" stroke="#9a32cd" points="630.47,-245.05 620.88,-249.57 631.19,-252.02 630.47,-245.05"/>
<text text-anchor="middle" x="694" y="-249.5" font-family="Helvetica,sans-Serif" font-size="10.00"> promise_map_input_</text>
</g>
<!-- Node6 -->
<g id="node6" class="node">
<title>Node6</title>
<g id="a_node6"><a xlink:title=" ">
<polygon fill="white" stroke="#666666" points="621.5,-218 485.5,-218 485.5,-177 621.5,-177 621.5,-218"/>
<text text-anchor="start" x="493.5" y="-206" font-family="Helvetica,sans-Serif" font-size="10.00">std::vector&lt; std::pair</text>
<text text-anchor="start" x="493.5" y="-195" font-family="Helvetica,sans-Serif" font-size="10.00">&lt; UniquePacketID, promise</text>
<text text-anchor="middle" x="553.5" y="-184" font-family="Helvetica,sans-Serif" font-size="10.00">_filter &gt; &gt;</text>
</a>
</g>
</g>
<!-- Node6&#45;&gt;Node1 -->
<g id="edge5" class="edge">
<title>Node6&#45;&gt;Node1</title>
<path fill="none" stroke="#9a32cd" stroke-dasharray="5,2" d="M632.97,-202.39C667.93,-204.89 709.58,-208.29 747,-212.5 757.19,-213.65 767.96,-215.05 778.46,-216.52"/>
<polygon fill="#9a32cd" stroke="#9a32cd" points="633.6,-198.93 623.38,-201.72 633.11,-205.91 633.6,-198.93"/>
<text text-anchor="start" x="651.5" y="-226.5" font-family="Helvetica,sans-Serif" font-size="10.00"> promise_filter_map</text>
<text text-anchor="middle" x="694" y="-215.5" font-family="Helvetica,sans-Serif" font-size="10.00">_input_</text>
</g>
<!-- Node7 -->
<g id="node7" class="node">
<title>Node7</title>
<g id="a_node7"><a xlink:title=" ">
<polygon fill="white" stroke="#666666" points="620,-159 487,-159 487,-118 620,-118 620,-159"/>
<text text-anchor="start" x="495" y="-147" font-family="Helvetica,sans-Serif" font-size="10.00">std::vector&lt; std::pair</text>
<text text-anchor="start" x="495" y="-136" font-family="Helvetica,sans-Serif" font-size="10.00">&lt; UniquePacketID, handler</text>
<text text-anchor="middle" x="553.5" y="-125" font-family="Helvetica,sans-Serif" font-size="10.00">_tuple &gt; &gt;</text>
</a>
</g>
</g>
<!-- Node7&#45;&gt;Node1 -->
<g id="edge6" class="edge">
<title>Node7&#45;&gt;Node1</title>
<path fill="none" stroke="#9a32cd" stroke-dasharray="5,2" d="M631.01,-155.37C666.61,-163.88 709.32,-175.04 747,-187.5 772.73,-196.01 801.4,-208.16 820.44,-216.63"/>
<polygon fill="#9a32cd" stroke="#9a32cd" points="632.21,-152.05 621.68,-153.16 630.6,-158.87 632.21,-152.05"/>
<text text-anchor="middle" x="694" y="-190.5" font-family="Helvetica,sans-Serif" font-size="10.00"> default_handlers_input_</text>
</g>
<!-- Node8&#45;&gt;Node1 -->
<g id="edge7" class="edge">
<title>Node8&#45;&gt;Node1</title>
<path fill="none" stroke="#9a32cd" stroke-dasharray="5,2" d="M633.11,-361.87C669.16,-348.89 711.65,-331.14 747,-309.5 782.12,-288 816.89,-253.32 832.89,-236.41"/>
<polygon fill="#9a32cd" stroke="#9a32cd" points="632.32,-358.43 624.06,-365.07 634.65,-365.03 632.32,-358.43"/>
<text text-anchor="middle" x="694" y="-359.5" font-family="Helvetica,sans-Serif" font-size="10.00"> unprocessed_packets_</text>
</g>
<!-- Node9 -->
<g id="node9" class="node">
<title>Node9</title>
<g id="a_node9"><a xlink:title=" ">
<polygon fill="white" stroke="#666666" points="613,-347.5 494,-347.5 494,-295.5 613,-295.5 613,-347.5"/>
<text text-anchor="start" x="502" y="-335.5" font-family="Helvetica,sans-Serif" font-size="10.00">std::unordered_map</text>
<text text-anchor="start" x="502" y="-324.5" font-family="Helvetica,sans-Serif" font-size="10.00">&lt; UniquePacketID, std</text>
<text text-anchor="start" x="502" y="-313.5" font-family="Helvetica,sans-Serif" font-size="10.00">::deque&lt; shared_packet</text>
<text text-anchor="middle" x="553.5" y="-302.5" font-family="Helvetica,sans-Serif" font-size="10.00">_promise &gt; &gt;</text>
</a>
</g>
</g>
<!-- Node9&#45;&gt;Node1 -->
<g id="edge9" class="edge">
<title>Node9&#45;&gt;Node1</title>
<path fill="none" stroke="#9a32cd" stroke-dasharray="5,2" d="M623.9,-300.8C660.64,-289.61 706.43,-275.29 747,-261.5 770.63,-253.47 797.28,-243.58 816.32,-236.36"/>
<polygon fill="#9a32cd" stroke="#9a32cd" points="623.3,-297.33 614.75,-303.58 625.33,-304.02 623.3,-297.33"/>
<text text-anchor="middle" x="694" y="-297.5" font-family="Helvetica,sans-Serif" font-size="10.00"> promise_map_</text>
</g>
<!-- Node10 -->
<g id="node10" class="node">
<title>Node10</title>
<g id="a_node10"><a xlink:title=" ">
<polygon fill="white" stroke="#666666" points="382.5,-348.5 283.5,-348.5 283.5,-318.5 382.5,-318.5 382.5,-348.5"/>
<text text-anchor="start" x="291.5" y="-336.5" font-family="Helvetica,sans-Serif" font-size="10.00">std::deque&lt; shared</text>
<text text-anchor="middle" x="333" y="-325.5" font-family="Helvetica,sans-Serif" font-size="10.00">_packet_promise &gt;</text>
</a>
</g>
</g>
<!-- Node10&#45;&gt;Node9 -->
<g id="edge10" class="edge">
<title>Node10&#45;&gt;Node9</title>
<path fill="none" stroke="#9a32cd" stroke-dasharray="5,2" d="M393.89,-330.21C424.99,-328.5 462.86,-326.42 493.79,-324.72"/>
<polygon fill="#9a32cd" stroke="#9a32cd" points="394.07,-326.7 384.27,-330.74 394.45,-333.69 394.07,-326.7"/>
<text text-anchor="middle" x="444.5" y="-331.5" font-family="Helvetica,sans-Serif" font-size="10.00"> elements</text>
</g>
<!-- Node11&#45;&gt;Node10 -->
<g id="edge11" class="edge">
<title>Node11&#45;&gt;Node10</title>
<path fill="none" stroke="#9a32cd" stroke-dasharray="5,2" d="M193.56,-341.79C222.44,-340.06 256.28,-338.03 283.28,-336.42"/>
<polygon fill="#9a32cd" stroke="#9a32cd" points="193.64,-338.27 183.86,-342.37 194.06,-345.26 193.64,-338.27"/>
<text text-anchor="middle" x="221.5" y="-343.5" font-family="Helvetica,sans-Serif" font-size="10.00"> elements</text>
</g>
<!-- Node12 -->
<g id="node12" class="node">
<title>Node12</title>
<g id="a_node12"><a xlink:title=" ">
<polygon fill="white" stroke="#666666" points="619,-100 488,-100 488,-59 619,-59 619,-100"/>
<text text-anchor="start" x="496" y="-88" font-family="Helvetica,sans-Serif" font-size="10.00">std::unordered_map</text>
<text text-anchor="start" x="496" y="-77" font-family="Helvetica,sans-Serif" font-size="10.00">&lt; UniquePacketID, std</text>
<text text-anchor="middle" x="553.5" y="-66" font-family="Helvetica,sans-Serif" font-size="10.00">::vector&lt; promise_filter &gt; &gt;</text>
</a>
</g>
</g>
<!-- Node12&#45;&gt;Node1 -->
<g id="edge13" class="edge">
<title>Node12&#45;&gt;Node1</title>
<path fill="none" stroke="#9a32cd" stroke-dasharray="5,2" d="M629.9,-96.51C666.71,-106.68 710.76,-121.74 747,-142.5 783.11,-163.18 817.68,-199.11 833.3,-216.5"/>
<polygon fill="#9a32cd" stroke="#9a32cd" points="631.25,-93.24 620.68,-94.03 629.43,-100 631.25,-93.24"/>
<text text-anchor="middle" x="694" y="-145.5" font-family="Helvetica,sans-Serif" font-size="10.00"> promise_filter_map_</text>
</g>
<!-- Node13 -->
<g id="node13" class="node">
<title>Node13</title>
<g id="a_node13"><a xlink:title=" ">
<polygon fill="white" stroke="#666666" points="385,-94.5 281,-94.5 281,-64.5 385,-64.5 385,-94.5"/>
<text text-anchor="start" x="289" y="-82.5" font-family="Helvetica,sans-Serif" font-size="10.00">std::vector&lt; promise</text>
<text text-anchor="middle" x="333" y="-71.5" font-family="Helvetica,sans-Serif" font-size="10.00">_filter &gt;</text>
</a>
</g>
</g>
<!-- Node13&#45;&gt;Node12 -->
<g id="edge14" class="edge">
<title>Node13&#45;&gt;Node12</title>
<path fill="none" stroke="#9a32cd" stroke-dasharray="5,2" d="M396.71,-79.5C425.29,-79.5 459.08,-79.5 487.88,-79.5"/>
<polygon fill="#9a32cd" stroke="#9a32cd" points="396.74,-76 386.74,-79.5 396.74,-83 396.74,-76"/>
<text text-anchor="middle" x="444.5" y="-82.5" font-family="Helvetica,sans-Serif" font-size="10.00"> elements</text>
</g>
<!-- Node14 -->
<g id="node14" class="node">
<title>Node14</title>
<g id="a_node14"><a xlink:title=" ">
<polygon fill="white" stroke="#666666" points="619,-41 488,-41 488,0 619,0 619,-41"/>
<text text-anchor="start" x="496" y="-29" font-family="Helvetica,sans-Serif" font-size="10.00">std::unordered_map</text>
<text text-anchor="start" x="496" y="-18" font-family="Helvetica,sans-Serif" font-size="10.00">&lt; UniquePacketID, std</text>
<text text-anchor="middle" x="553.5" y="-7" font-family="Helvetica,sans-Serif" font-size="10.00">::vector&lt; handler_tuple &gt; &gt;</text>
</a>
</g>
</g>
<!-- Node14&#45;&gt;Node1 -->
<g id="edge15" class="edge">
<title>Node14&#45;&gt;Node1</title>
<path fill="none" stroke="#9a32cd" stroke-dasharray="5,2" d="M630.28,-34.05C668.17,-43.66 713.05,-59.6 747,-85.5 795.34,-122.38 827.4,-191.21 838.08,-216.69"/>
<polygon fill="#9a32cd" stroke="#9a32cd" points="631.3,-30.7 620.75,-31.74 629.65,-37.5 631.3,-30.7"/>
<text text-anchor="middle" x="694" y="-88.5" font-family="Helvetica,sans-Serif" font-size="10.00"> default_handlers_</text>
</g>
<!-- Node15 -->
<g id="node15" class="node">
<title>Node15</title>
<g id="a_node15"><a xlink:title=" ">
<polygon fill="white" stroke="#666666" points="383.5,-35.5 282.5,-35.5 282.5,-5.5 383.5,-5.5 383.5,-35.5"/>
<text text-anchor="start" x="290.5" y="-23.5" font-family="Helvetica,sans-Serif" font-size="10.00">std::vector&lt; handler</text>
<text text-anchor="middle" x="333" y="-12.5" font-family="Helvetica,sans-Serif" font-size="10.00">_tuple &gt;</text>
</a>
</g>
</g>
<!-- Node15&#45;&gt;Node14 -->
<g id="edge16" class="edge">
<title>Node15&#45;&gt;Node14</title>
<path fill="none" stroke="#9a32cd" stroke-dasharray="5,2" d="M395,-20.5C423.81,-20.5 458.22,-20.5 487.51,-20.5"/>
<polygon fill="#9a32cd" stroke="#9a32cd" points="395.37,-17 385.37,-20.5 395.37,-24 395.37,-17"/>
<text text-anchor="middle" x="444.5" y="-23.5" font-family="Helvetica,sans-Serif" font-size="10.00"> elements</text>
</g>
</g>
</svg>
