<?xml version="1.0" encoding="UTF-8" standalone="no"?>
<!DOCTYPE svg PUBLIC "-//W3C//DTD SVG 1.1//EN"
 "http://www.w3.org/Graphics/SVG/1.1/DTD/svg11.dtd">
<!-- Generated by graphviz version 9.0.0 (20230911.1827)
 -->
<!-- Title: mal_toolkit::events::FilesChangedEvent Pages: 1 -->
<svg width="626pt" height="233pt"
 viewBox="0.00 0.00 625.55 233.25" xmlns="http://www.w3.org/2000/svg" xmlns:xlink="http://www.w3.org/1999/xlink">
<g id="graph0" class="graph" transform="scale(1 1) rotate(0) translate(4 229.25)">
<title>mal_toolkit::events::FilesChangedEvent</title>
<!-- Node1 -->
<g id="Node000001" class="node">
<title>Node1</title>
<g id="a_Node000001"><a xlink:title="Event class for files changed.">
<polygon fill="#999999" stroke="#666666" points="617.55,-113.88 519.05,-113.88 519.05,-83.38 617.55,-83.38 617.55,-113.88"/>
<text text-anchor="start" x="527.05" y="-100.38" font-family="Times,serif" font-size="10.00">mal_toolkit::events</text>
<text text-anchor="middle" x="568.3" y="-89.12" font-family="Times,serif" font-size="10.00">::FilesChangedEvent</text>
</a>
</g>
</g>
<!-- Node2 -->
<g id="Node000002" class="node">
<title>Node2</title>
<g id="a_Node000002"><a xlink:href="../../d5/dbd/classmal__toolkit_1_1events_1_1_event.html" target="_top" xlink:title="Base class for all events.">
<polygon fill="white" stroke="#666666" points="418.17,-174.88 327.92,-174.88 327.92,-144.38 418.17,-144.38 418.17,-174.88"/>
<text text-anchor="start" x="335.92" y="-161.38" font-family="Times,serif" font-size="10.00">mal_toolkit::events</text>
<text text-anchor="middle" x="373.05" y="-150.12" font-family="Times,serif" font-size="10.00">::Event</text>
</a>
</g>
</g>
<!-- Node2&#45;&gt;Node1 -->
<g id="edge1_Node000001_Node000002" class="edge">
<title>Node2&#45;&gt;Node1</title>
<g id="a_edge1_Node000001_Node000002"><a xlink:title=" ">
<path fill="none" stroke="#63b8ff" d="M429.29,-142.19C457.52,-133.28 491.56,-122.53 518.77,-113.94"/>
<polygon fill="#63b8ff" stroke="#63b8ff" points="428.31,-138.83 419.83,-145.17 430.42,-145.5 428.31,-138.83"/>
</a>
</g>
</g>
<!-- Node3 -->
<g id="Node000003" class="node">
<title>Node3</title>
<g id="a_Node000003"><a xlink:href="../../d9/db9/classbool.html" target="_top" xlink:title=" ">
<polygon fill="white" stroke="#666666" points="170.42,-225.25 137.17,-225.25 137.17,-206 170.42,-206 170.42,-225.25"/>
<text text-anchor="middle" x="153.8" y="-211.75" font-family="Times,serif" font-size="10.00">bool</text>
</a>
</g>
</g>
<!-- Node3&#45;&gt;Node2 -->
<g id="edge2_Node000002_Node000003" class="edge">
<title>Node3&#45;&gt;Node2</title>
<g id="a_edge2_Node000002_Node000003"><a xlink:title=" ">
<path fill="none" stroke="#9a32cd" stroke-dasharray="5,2" d="M181.91,-211.08C210.25,-206.09 255.89,-197.32 294.55,-186.62 306.22,-183.4 318.69,-179.33 330.13,-175.35"/>
<polygon fill="#9a32cd" stroke="#9a32cd" points="181.64,-207.58 172.38,-212.73 182.83,-214.48 181.64,-207.58"/>
</a>
</g>
<text text-anchor="middle" x="259.3" y="-204.38" font-family="Times,serif" font-size="10.00" fill="grey"> handled</text>
</g>
<!-- Node4 -->
<g id="Node000004" class="node">
<title>Node4</title>
<g id="a_Node000004"><a xlink:title=" ">
<polygon fill="white" stroke="#666666" points="194.42,-188.25 113.17,-188.25 113.17,-169 194.42,-169 194.42,-188.25"/>
<text text-anchor="middle" x="153.8" y="-174.75" font-family="Times,serif" font-size="10.00">const EventType</text>
</a>
</g>
</g>
<!-- Node4&#45;&gt;Node2 -->
<g id="edge3_Node000002_Node000004" class="edge">
<title>Node4&#45;&gt;Node2</title>
<g id="a_edge3_Node000002_Node000004"><a xlink:title=" ">
<path fill="none" stroke="#9a32cd" stroke-dasharray="5,2" d="M205.95,-174.15C242.92,-170.92 292.38,-166.59 327.7,-163.5"/>
<polygon fill="#9a32cd" stroke="#9a32cd" points="206.06,-170.63 196.41,-174.99 206.67,-177.6 206.06,-170.63"/>
</a>
</g>
<text text-anchor="middle" x="259.3" y="-173.38" font-family="Times,serif" font-size="10.00" fill="grey"> kType</text>
</g>
<!-- Node5 -->
<g id="Node000005" class="node">
<title>Node5</title>
<g id="a_Node000005"><a xlink:title=" ">
<polygon fill="white" stroke="#666666" points="187.3,-151.25 120.3,-151.25 120.3,-132 187.3,-132 187.3,-151.25"/>
<text text-anchor="middle" x="153.8" y="-137.75" font-family="Times,serif" font-size="10.00">const uint8_t</text>
</a>
</g>
</g>
<!-- Node5&#45;&gt;Node2 -->
<g id="edge4_Node000002_Node000005" class="edge">
<title>Node5&#45;&gt;Node2</title>
<g id="a_edge4_Node000002_Node000005"><a xlink:title=" ">
<path fill="none" stroke="#9a32cd" stroke-dasharray="5,2" d="M198.9,-141.06C226.46,-141.14 262.66,-142.04 294.55,-145.38 305.3,-146.5 316.79,-148.29 327.55,-150.22"/>
<polygon fill="#9a32cd" stroke="#9a32cd" points="199.16,-137.56 189.16,-141.07 199.17,-144.56 199.16,-137.56"/>
</a>
</g>
<text text-anchor="middle" x="259.3" y="-146.38" font-family="Times,serif" font-size="10.00" fill="grey"> kCategoryFlags</text>
</g>
<!-- Node6 -->
<g id="Node000006" class="node">
<title>Node6</title>
<g id="a_Node000006"><a xlink:title=" ">
<polygon fill="white" stroke="#666666" points="412.55,-108.25 333.55,-108.25 333.55,-89 412.55,-89 412.55,-108.25"/>
<text text-anchor="middle" x="373.05" y="-94.75" font-family="Times,serif" font-size="10.00">std::string_view</text>
</a>
</g>
</g>
<!-- Node6&#45;&gt;Node1 -->
<g id="edge5_Node000001_Node000006" class="edge">
<title>Node6&#45;&gt;Node1</title>
<g id="a_edge5_Node000001_Node000006"><a xlink:title=" ">
<path fill="none" stroke="#9a32cd" stroke-dasharray="5,2" d="M423.89,-98.62C453.09,-98.62 489.8,-98.62 518.77,-98.62"/>
<polygon fill="#9a32cd" stroke="#9a32cd" points="424.21,-95.13 414.21,-98.63 424.21,-102.13 424.21,-95.13"/>
</a>
</g>
<text text-anchor="middle" x="476.3" y="-100.38" font-family="Times,serif" font-size="10.00" fill="grey"> event_name</text>
</g>
<!-- Node7 -->
<g id="Node000007" class="node">
<title>Node7</title>
<g id="a_Node000007"><a xlink:title=" ">
<polygon fill="white" stroke="#666666" points="206.05,-113.88 101.55,-113.88 101.55,-83.38 206.05,-83.38 206.05,-113.88"/>
<text text-anchor="start" x="109.55" y="-100.38" font-family="Times,serif" font-size="10.00">std::basic_string_view</text>
<text text-anchor="middle" x="153.8" y="-89.12" font-family="Times,serif" font-size="10.00">&lt; Char &gt;</text>
</a>
</g>
</g>
<!-- Node7&#45;&gt;Node6 -->
<g id="edge6_Node000006_Node000007" class="edge">
<title>Node7&#45;&gt;Node6</title>
<g id="a_edge6_Node000006_Node000007"><a xlink:title=" ">
<path fill="none" stroke="#63b8ff" d="M217.56,-98.62C254.89,-98.62 301.07,-98.62 333.17,-98.62"/>
<polygon fill="#63b8ff" stroke="#63b8ff" points="217.8,-95.13 207.8,-98.63 217.8,-102.13 217.8,-95.13"/>
</a>
</g>
</g>
<!-- Node8 -->
<g id="Node000008" class="node">
<title>Node8</title>
<g id="a_Node000008"><a xlink:title=" ">
<polygon fill="white" stroke="#666666" points="433.55,-70.88 312.55,-70.88 312.55,-40.38 433.55,-40.38 433.55,-70.88"/>
<text text-anchor="start" x="320.55" y="-57.38" font-family="Times,serif" font-size="10.00">std::vector&lt; std::filesystem</text>
<text text-anchor="middle" x="373.05" y="-46.12" font-family="Times,serif" font-size="10.00">::path &gt;</text>
</a>
</g>
</g>
<!-- Node8&#45;&gt;Node1 -->
<g id="edge7_Node000001_Node000008" class="edge">
<title>Node8&#45;&gt;Node1</title>
<g id="a_edge7_Node000001_Node000008"><a xlink:title=" ">
<path fill="none" stroke="#9a32cd" stroke-dasharray="5,2" d="M445.02,-70.99C463.28,-74.98 482.9,-79.3 501.05,-83.38 506.81,-84.67 512.84,-86.04 518.83,-87.4"/>
<polygon fill="#9a32cd" stroke="#9a32cd" points="445.84,-67.58 435.32,-68.87 444.34,-74.42 445.84,-67.58"/>
</a>
</g>
<text text-anchor="middle" x="476.3" y="-84.38" font-family="Times,serif" font-size="10.00" fill="grey"> files_</text>
</g>
<!-- Node9 -->
<g id="Node000009" class="node">
<title>Node9</title>
<g id="a_Node000009"><a xlink:title=" ">
<polygon fill="white" stroke="#666666" points="170.8,-65.25 136.8,-65.25 136.8,-46 170.8,-46 170.8,-65.25"/>
<text text-anchor="middle" x="153.8" y="-51.75" font-family="Times,serif" font-size="10.00">path</text>
</a>
</g>
</g>
<!-- Node9&#45;&gt;Node8 -->
<g id="edge8_Node000008_Node000009" class="edge">
<title>Node9&#45;&gt;Node8</title>
<g id="a_edge8_Node000008_Node000009"><a xlink:title=" ">
<path fill="none" stroke="#9a32cd" stroke-dasharray="5,2" d="M182.44,-55.62C215,-55.62 270.04,-55.62 312.46,-55.62"/>
<polygon fill="#9a32cd" stroke="#9a32cd" points="182.64,-52.13 172.64,-55.63 182.64,-59.13 182.64,-52.13"/>
</a>
</g>
<text text-anchor="middle" x="259.3" y="-57.38" font-family="Times,serif" font-size="10.00" fill="grey"> elements</text>
</g>
<!-- Node10 -->
<g id="Node000010" class="node">
<title>Node10</title>
<g id="a_Node000010"><a xlink:title=" ">
<polygon fill="white" stroke="#666666" points="193.67,-19.25 113.92,-19.25 113.92,0 193.67,0 193.67,-19.25"/>
<text text-anchor="middle" x="153.8" y="-5.75" font-family="Times,serif" font-size="10.00">std::vector&lt; T &gt;</text>
</a>
</g>
</g>
<!-- Node10&#45;&gt;Node8 -->
<g id="edge9_Node000008_Node000010" class="edge">
<title>Node10&#45;&gt;Node8</title>
<g id="a_edge9_Node000008_Node000010"><a xlink:title=" ">
<path fill="none" stroke="orange" stroke-dasharray="5,2" d="M205.43,-14.33C232.17,-17.41 265.39,-22.17 294.55,-29.12 306.58,-31.99 319.39,-35.97 331.05,-39.98"/>
<polygon fill="orange" stroke="orange" points="205.85,-10.86 195.53,-13.24 205.09,-17.82 205.85,-10.86"/>
</a>
</g>
<text text-anchor="start" x="224.05" y="-42.62" font-family="Times,serif" font-size="10.00" fill="grey"> &lt; std::filesystem::</text>
<text text-anchor="middle" x="259.3" y="-31.38" font-family="Times,serif" font-size="10.00" fill="grey">path &gt;</text>
</g>
<!-- Node11 -->
<g id="Node000011" class="node">
<title>Node11</title>
<g id="a_Node000011"><a xlink:title=" ">
<polygon fill="white" stroke="#666666" points="28.8,-19.25 0,-19.25 0,0 28.8,0 28.8,-19.25"/>
<text text-anchor="middle" x="14.4" y="-5.75" font-family="Times,serif" font-size="10.00">T</text>
</a>
</g>
</g>
<!-- Node11&#45;&gt;Node10 -->
<g id="edge10_Node000010_Node000011" class="edge">
<title>Node11&#45;&gt;Node10</title>
<g id="a_edge10_Node000010_Node000011"><a xlink:title=" ">
<path fill="none" stroke="#9a32cd" stroke-dasharray="5,2" d="M40.55,-9.62C61,-9.62 90.21,-9.62 113.7,-9.62"/>
<polygon fill="#9a32cd" stroke="#9a32cd" points="40.59,-6.13 30.59,-9.63 40.59,-13.13 40.59,-6.13"/>
</a>
</g>
<text text-anchor="middle" x="65.17" y="-11.38" font-family="Times,serif" font-size="10.00" fill="grey"> elements</text>
</g>
</g>
</svg>
