<?xml version="1.0" encoding="UTF-8" standalone="no"?>
<!DOCTYPE svg PUBLIC "-//W3C//DTD SVG 1.1//EN"
 "http://www.w3.org/Graphics/SVG/1.1/DTD/svg11.dtd">
<!-- Generated by graphviz version 8.1.0 (20230707.0739)
 -->
<!-- Title: mal_toolkit::events::FilesChangedEvent Pages: 1 -->
<!--zoomable 233 -->

<svg id="main" version="1.1" xmlns="http://www.w3.org/2000/svg" xmlns:xlink="http://www.w3.org/1999/xlink" xml:space="preserve" onload="init(evt)">
<style type="text/css"><![CDATA[
.node, .edge {opacity: 0.7;}
.node.selected, .edge.selected {opacity: 1;}
.edge:hover path { stroke: red; }
.edge:hover polygon { stroke: red; fill: red; }
]]></style>

<defs>
  <circle id="rim" cx="0" cy="0" r="7"/>
  <circle id="rim2" cx="0" cy="0" r="3.5"/>
  <g id="zoomPlus">
    <use xlink:href="#rim" fill="#404040"><set attributeName="fill" to="#808080" begin="zoomplus.mouseover" end="zoomplus.mouseout"/></use>
    <path d="M-4,0h8M0,-4v8" fill="none" stroke="white" stroke-width="1.5" pointer-events="none"/>
  </g>
  <g id="zoomMin">
    <use xlink:href="#rim" fill="#404040"><set attributeName="fill" to="#808080" begin="zoomminus.mouseover" end="zoomminus.mouseout"/></use>
    <path d="M-4,0h8" fill="none" stroke="white" stroke-width="1.5" pointer-events="none"/>
  </g>
  <g id="arrowUp" transform="translate(30 24)">
    <use xlink:href="#rim"/>
    <path pointer-events="none" fill="none" stroke="white" stroke-width="1.5" d="M0,-3.0v7 M-2.5,-0.5L0,-3.0L2.5,-0.5"/>
  </g>
  <g id="arrowRight" transform="rotate(90) translate(36 -43)">
    <use xlink:href="#rim"/>
    <path pointer-events="none" fill="none" stroke="white" stroke-width="1.5" d="M0,-3.0v7 M-2.5,-0.5L0,-3.0L2.5,-0.5"/>
  </g>
  <g id="arrowDown" transform="rotate(180) translate(-30 -48)">
    <use xlink:href="#rim"/>
    <path pointer-events="none" fill="none" stroke="white" stroke-width="1.5" d="M0,-3.0v7 M-2.5,-0.5L0,-3.0L2.5,-0.5"/>
  </g>
  <g id="arrowLeft" transform="rotate(270) translate(-36 17)">
    <use xlink:href="#rim"/>
    <path pointer-events="none" fill="none" stroke="white" stroke-width="1.5" d="M0,-3.0v7 M-2.5,-0.5L0,-3.0L2.5,-0.5"/>
  </g>
  <g id="resetDef">
    <use xlink:href="#rim2" fill="#404040"><set attributeName="fill" to="#808080" begin="reset.mouseover" end="reset.mouseout"/></use>
  </g>
</defs>
<script type="application/ecmascript">
var viewWidth = 626;
var viewHeight = 233;
var sectionId = 'dynsection-1';
</script>
<script type="application/ecmascript" xlink:href="../../svg.min.js"/>
<svg id="graph" class="graph">
<g id="viewport">
<title>mal_toolkit::events::FilesChangedEvent</title>
<!-- Node1 -->
<g id="Node000001" class="node">
<title>Node1</title>
<g id="a_Node000001"><a xlink:title="Event class for files changed.">
<polygon fill="#999999" stroke="#666666" points="617.55,-113.88 519.05,-113.88 519.05,-83.38 617.55,-83.38 617.55,-113.88"/>
<text text-anchor="start" x="527.05" y="-100.38" font-family="Times,serif" font-size="10.00">mal_toolkit::events</text>
<text text-anchor="middle" x="568.3" y="-89.12" font-family="Times,serif" font-size="10.00">::FilesChangedEvent</text>
</a>
</g>
</g>
<!-- Node2 -->
<g id="Node000002" class="node">
<title>Node2</title>
<g id="a_Node000002"><a xlink:href="../../d5/dbd/classmal__toolkit_1_1events_1_1_event.html" target="_top" xlink:title="Base class for all events.">
<polygon fill="white" stroke="#666666" points="418.17,-174.88 327.92,-174.88 327.92,-144.38 418.17,-144.38 418.17,-174.88"/>
<text text-anchor="start" x="335.92" y="-161.38" font-family="Times,serif" font-size="10.00">mal_toolkit::events</text>
<text text-anchor="middle" x="373.05" y="-150.12" font-family="Times,serif" font-size="10.00">::Event</text>
</a>
</g>
</g>
<!-- Node2&#45;&gt;Node1 -->
<g id="edge1_Node000001_Node000002" class="edge">
<title>Node2&#45;&gt;Node1</title>
<g id="a_edge1_Node000001_Node000002"><a xlink:title=" ">
<path fill="none" stroke="#63b8ff" d="M428.54,-142.42C456.92,-133.47 491.32,-122.61 518.77,-113.94"/>
<polygon fill="#63b8ff" stroke="#63b8ff" points="427.87,-139.28 419.39,-145.63 429.98,-145.96 427.87,-139.28"/>
</a>
</g>
</g>
<!-- Node3 -->
<g id="Node000003" class="node">
<title>Node3</title>
<g id="a_Node000003"><a xlink:title=" ">
<polygon fill="white" stroke="#666666" points="170.42,-225.25 137.17,-225.25 137.17,-206 170.42,-206 170.42,-225.25"/>
<text text-anchor="middle" x="153.8" y="-211.75" font-family="Times,serif" font-size="10.00">bool</text>
</a>
</g>
</g>
<!-- Node3&#45;&gt;Node2 -->
<g id="edge2_Node000002_Node000003" class="edge">
<title>Node3&#45;&gt;Node2</title>
<g id="a_edge2_Node000002_Node000003"><a xlink:title=" ">
<path fill="none" stroke="#9a32cd" stroke-dasharray="5,2" d="M181.53,-211.15C209.84,-206.16 255.72,-197.37 294.55,-186.62 306.22,-183.4 318.69,-179.33 330.13,-175.35"/>
<polygon fill="#9a32cd" stroke="#9a32cd" points="181.15,-207.84 171.89,-212.99 182.34,-214.74 181.15,-207.84"/>
</a>
</g>
<text text-anchor="middle" x="259.3" y="-204.38" font-family="Times,serif" font-size="10.00" fill="grey"> handled</text>
</g>
<!-- Node4 -->
<g id="Node000004" class="node">
<title>Node4</title>
<g id="a_Node000004"><a xlink:title=" ">
<polygon fill="white" stroke="#666666" points="194.42,-188.25 113.17,-188.25 113.17,-169 194.42,-169 194.42,-188.25"/>
<text text-anchor="middle" x="153.8" y="-174.75" font-family="Times,serif" font-size="10.00">const EventType</text>
</a>
</g>
</g>
<!-- Node4&#45;&gt;Node2 -->
<g id="edge3_Node000002_Node000004" class="edge">
<title>Node4&#45;&gt;Node2</title>
<g id="a_edge3_Node000002_Node000004"><a xlink:title=" ">
<path fill="none" stroke="#9a32cd" stroke-dasharray="5,2" d="M205.47,-174.19C242.5,-170.96 292.23,-166.61 327.7,-163.5"/>
<polygon fill="#9a32cd" stroke="#9a32cd" points="205.56,-170.76 195.9,-175.12 206.17,-177.73 205.56,-170.76"/>
</a>
</g>
<text text-anchor="middle" x="259.3" y="-173.38" font-family="Times,serif" font-size="10.00" fill="grey"> kType</text>
</g>
<!-- Node5 -->
<g id="Node000005" class="node">
<title>Node5</title>
<g id="a_Node000005"><a xlink:title=" ">
<polygon fill="white" stroke="#666666" points="187.3,-151.25 120.3,-151.25 120.3,-132 187.3,-132 187.3,-151.25"/>
<text text-anchor="middle" x="153.8" y="-137.75" font-family="Times,serif" font-size="10.00">const uint8_t</text>
</a>
</g>
</g>
<!-- Node5&#45;&gt;Node2 -->
<g id="edge4_Node000002_Node000005" class="edge">
<title>Node5&#45;&gt;Node2</title>
<g id="a_edge4_Node000002_Node000005"><a xlink:title=" ">
<path fill="none" stroke="#9a32cd" stroke-dasharray="5,2" d="M198.53,-141.06C226.14,-141.14 262.51,-142.02 294.55,-145.38 305.3,-146.5 316.79,-148.29 327.55,-150.22"/>
<polygon fill="#9a32cd" stroke="#9a32cd" points="198.64,-137.56 188.65,-141.07 198.65,-144.56 198.64,-137.56"/>
</a>
</g>
<text text-anchor="middle" x="259.3" y="-146.38" font-family="Times,serif" font-size="10.00" fill="grey"> kCategoryFlags</text>
</g>
<!-- Node6 -->
<g id="Node000006" class="node">
<title>Node6</title>
<g id="a_Node000006"><a xlink:title=" ">
<polygon fill="white" stroke="#666666" points="412.55,-108.25 333.55,-108.25 333.55,-89 412.55,-89 412.55,-108.25"/>
<text text-anchor="middle" x="373.05" y="-94.75" font-family="Times,serif" font-size="10.00">std::string_view</text>
</a>
</g>
</g>
<!-- Node6&#45;&gt;Node1 -->
<g id="edge5_Node000001_Node000006" class="edge">
<title>Node6&#45;&gt;Node1</title>
<g id="a_edge5_Node000001_Node000006"><a xlink:title=" ">
<path fill="none" stroke="#9a32cd" stroke-dasharray="5,2" d="M423.5,-98.62C452.76,-98.62 489.67,-98.62 518.77,-98.62"/>
<polygon fill="#9a32cd" stroke="#9a32cd" points="423.69,-95.13 413.69,-98.62 423.69,-102.13 423.69,-95.13"/>
</a>
</g>
<text text-anchor="middle" x="476.3" y="-100.38" font-family="Times,serif" font-size="10.00" fill="grey"> event_name</text>
</g>
<!-- Node7 -->
<g id="Node000007" class="node">
<title>Node7</title>
<g id="a_Node000007"><a xlink:title=" ">
<polygon fill="white" stroke="#666666" points="206.05,-113.88 101.55,-113.88 101.55,-83.38 206.05,-83.38 206.05,-113.88"/>
<text text-anchor="start" x="109.55" y="-100.38" font-family="Times,serif" font-size="10.00">std::basic_string_view</text>
<text text-anchor="middle" x="153.8" y="-89.12" font-family="Times,serif" font-size="10.00">&lt; Char &gt;</text>
</a>
</g>
</g>
<!-- Node7&#45;&gt;Node6 -->
<g id="edge6_Node000006_Node000007" class="edge">
<title>Node7&#45;&gt;Node6</title>
<g id="a_edge6_Node000006_Node000007"><a xlink:title=" ">
<path fill="none" stroke="#63b8ff" d="M217.08,-98.62C254.49,-98.62 300.93,-98.62 333.17,-98.62"/>
<polygon fill="#63b8ff" stroke="#63b8ff" points="217.29,-95.13 207.29,-98.62 217.29,-102.13 217.29,-95.13"/>
</a>
</g>
</g>
<!-- Node8 -->
<g id="Node000008" class="node">
<title>Node8</title>
<g id="a_Node000008"><a xlink:title=" ">
<polygon fill="white" stroke="#666666" points="433.55,-70.88 312.55,-70.88 312.55,-40.38 433.55,-40.38 433.55,-70.88"/>
<text text-anchor="start" x="320.55" y="-57.38" font-family="Times,serif" font-size="10.00">std::vector&lt; std::filesystem</text>
<text text-anchor="middle" x="373.05" y="-46.12" font-family="Times,serif" font-size="10.00">::path &gt;</text>
</a>
</g>
</g>
<!-- Node8&#45;&gt;Node1 -->
<g id="edge7_Node000001_Node000008" class="edge">
<title>Node8&#45;&gt;Node1</title>
<g id="a_edge7_Node000001_Node000008"><a xlink:title=" ">
<path fill="none" stroke="#9a32cd" stroke-dasharray="5,2" d="M444.5,-70.87C462.91,-74.9 482.73,-79.27 501.05,-83.38 506.81,-84.67 512.84,-86.04 518.83,-87.4"/>
<polygon fill="#9a32cd" stroke="#9a32cd" points="445.36,-67.26 434.84,-68.55 443.86,-74.1 445.36,-67.26"/>
</a>
</g>
<text text-anchor="middle" x="476.3" y="-84.38" font-family="Times,serif" font-size="10.00" fill="grey"> files_</text>
</g>
<!-- Node9 -->
<g id="Node000009" class="node">
<title>Node9</title>
<g id="a_Node000009"><a xlink:title=" ">
<polygon fill="white" stroke="#666666" points="170.8,-65.25 136.8,-65.25 136.8,-46 170.8,-46 170.8,-65.25"/>
<text text-anchor="middle" x="153.8" y="-51.75" font-family="Times,serif" font-size="10.00">path</text>
</a>
</g>
</g>
<!-- Node9&#45;&gt;Node8 -->
<g id="edge8_Node000008_Node000009" class="edge">
<title>Node9&#45;&gt;Node8</title>
<g id="a_edge8_Node000008_Node000009"><a xlink:title=" ">
<path fill="none" stroke="#9a32cd" stroke-dasharray="5,2" d="M182.01,-55.62C214.52,-55.62 269.86,-55.62 312.46,-55.62"/>
<polygon fill="#9a32cd" stroke="#9a32cd" points="182.13,-52.13 172.13,-55.62 182.13,-59.13 182.13,-52.13"/>
</a>
</g>
<text text-anchor="middle" x="259.3" y="-57.38" font-family="Times,serif" font-size="10.00" fill="grey"> elements</text>
</g>
<!-- Node10 -->
<g id="Node000010" class="node">
<title>Node10</title>
<g id="a_Node000010"><a xlink:title=" ">
<polygon fill="white" stroke="#666666" points="193.67,-19.25 113.92,-19.25 113.92,0 193.67,0 193.67,-19.25"/>
<text text-anchor="middle" x="153.8" y="-5.75" font-family="Times,serif" font-size="10.00">std::vector&lt; T &gt;</text>
</a>
</g>
</g>
<!-- Node10&#45;&gt;Node8 -->
<g id="edge9_Node000008_Node000010" class="edge">
<title>Node10&#45;&gt;Node8</title>
<g id="a_edge9_Node000008_Node000010"><a xlink:title=" ">
<path fill="none" stroke="orange" stroke-dasharray="5,2" d="M204.72,-14.25C231.57,-17.32 265.12,-22.11 294.55,-29.12 306.58,-31.99 319.39,-35.97 331.05,-39.98"/>
<polygon fill="orange" stroke="orange" points="205.35,-10.69 195.03,-13.08 204.58,-17.65 205.35,-10.69"/>
</a>
</g>
<text text-anchor="start" x="224.05" y="-42.62" font-family="Times,serif" font-size="10.00" fill="grey"> &lt; std::filesystem::</text>
<text text-anchor="middle" x="259.3" y="-31.38" font-family="Times,serif" font-size="10.00" fill="grey">path &gt;</text>
</g>
<!-- Node11 -->
<g id="Node000011" class="node">
<title>Node11</title>
<g id="a_Node000011"><a xlink:title=" ">
<polygon fill="white" stroke="#666666" points="28.8,-19.25 0,-19.25 0,0 28.8,0 28.8,-19.25"/>
<text text-anchor="middle" x="14.4" y="-5.75" font-family="Times,serif" font-size="10.00">T</text>
</a>
</g>
</g>
<!-- Node11&#45;&gt;Node10 -->
<g id="edge10_Node000010_Node000011" class="edge">
<title>Node11&#45;&gt;Node10</title>
<g id="a_edge10_Node000010_Node000011"><a xlink:title=" ">
<path fill="none" stroke="#9a32cd" stroke-dasharray="5,2" d="M39.97,-9.62C60.44,-9.62 89.98,-9.62 113.7,-9.62"/>
<polygon fill="#9a32cd" stroke="#9a32cd" points="40.08,-6.13 30.08,-9.62 40.08,-13.13 40.08,-6.13"/>
</a>
</g>
<text text-anchor="middle" x="65.17" y="-11.38" font-family="Times,serif" font-size="10.00" fill="grey"> elements</text>
</g>
</g>
</svg>

<g id="navigator" transform="translate(0 0)" fill="#404254">
  <rect fill="#f2f5e9" fill-opacity="0.5" stroke="#606060" stroke-width=".5" x="0" y="0" width="60" height="60"/>
  <use id="zoomplus" xlink:href="#zoomPlus" x="17" y="9" onmousedown="handleZoom(evt,'in')"/>
  <use id="zoomminus" xlink:href="#zoomMin" x="42" y="9" onmousedown="handleZoom(evt,'out')"/>
  <use id="reset" xlink:href="#resetDef" x="30" y="36" onmousedown="handleReset()"/>
   <use id="arrowup" xlink:href="#arrowUp" x="0" y="0" onmousedown="handlePan(0,-1)"/>
  <use id="arrowright" xlink:href="#arrowRight" x="0" y="0" onmousedown="handlePan(1,0)"/>
  <use id="arrowdown" xlink:href="#arrowDown" x="0" y="0" onmousedown="handlePan(0,1)"/>
  <use id="arrowleft" xlink:href="#arrowLeft" x="0" y="0" onmousedown="handlePan(-1,0)"/>
</g>
<svg viewBox="0 0 15 15" width="100%" height="30px" preserveAspectRatio="xMaxYMin meet">
 <g id="arrow_out" transform="scale(0.3 0.3)">
  <a xlink:href="classmal__toolkit_1_1events_1_1_files_changed_event__coll__graph_org.svg" target="_base">
   <rect id="button" ry="5" rx="5" y="6" x="6" height="38" width="38"
        fill="#f2f5e9" fill-opacity="0.5" stroke="#606060" stroke-width="1.0"/>
   <path id="arrow"
     d="M 11.500037,31.436501 C 11.940474,20.09759 22.043105,11.32322 32.158766,21.979434 L 37.068811,17.246167 C 37.068811,17.246167 37.088388,32 37.088388,32 L 22.160133,31.978069 C 22.160133,31.978069 26.997745,27.140456 26.997745,27.140456 C 18.528582,18.264221 13.291696,25.230495 11.500037,31.436501 z"
     style="fill:#404040;"/>
  </a>
 </g>
</svg>

<style type='text/css'>
<![CDATA[
[data-mouse-over-selected='false'] { opacity: 0.7; }
[data-mouse-over-selected='true']  { opacity: 1.0; }
]]>
</style>
<script type="application/ecmascript"><![CDATA[
document.addEventListener('DOMContentLoaded', (event) => {
  highlightEdges();
  highlightAdjacentNodes();
});
]]></script>
</svg>
