<?xml version="1.0" encoding="UTF-8" standalone="no"?>
<!DOCTYPE svg PUBLIC "-//W3C//DTD SVG 1.1//EN"
 "http://www.w3.org/Graphics/SVG/1.1/DTD/svg11.dtd">
<!-- Generated by graphviz version 7.0.5 (20221223.1930)
 -->
<!-- Title: mal_toolkit::events::FilesChangedEvent Pages: 1 -->
<svg width="256pt" height="115pt"
 viewBox="0.00 0.00 255.50 115.00" xmlns="http://www.w3.org/2000/svg" xmlns:xlink="http://www.w3.org/1999/xlink">
<g id="graph0" class="graph" transform="scale(1 1) rotate(0) translate(4 111)">
<title>mal_toolkit::events::FilesChangedEvent</title>
<!-- Node1 -->
<g id="node1" class="node">
<title>Node1</title>
<g id="a_node1"><a xlink:title="Event class for files changed.">
<polygon fill="#999999" stroke="#666666" points="167.5,-30 62.5,-30 62.5,0 167.5,0 167.5,-30"/>
<text text-anchor="start" x="70.5" y="-18" font-family="Helvetica,sans-Serif" font-size="10.00">mal_toolkit::events</text>
<text text-anchor="middle" x="115" y="-7" font-family="Helvetica,sans-Serif" font-size="10.00">::FilesChangedEvent</text>
</a>
</g>
</g>
<!-- Node2 -->
<g id="node2" class="node">
<title>Node2</title>
<g id="a_node2"><a xlink:href="../../d5/dbd/classmal__toolkit_1_1events_1_1_event.html" target="_top" xlink:title="Base class for all events.">
<polygon fill="white" stroke="#666666" points="98,-107 0,-107 0,-77 98,-77 98,-107"/>
<text text-anchor="start" x="8" y="-95" font-family="Helvetica,sans-Serif" font-size="10.00">mal_toolkit::events</text>
<text text-anchor="middle" x="49" y="-84" font-family="Helvetica,sans-Serif" font-size="10.00">::Event</text>
</a>
</g>
</g>
<!-- Node2&#45;&gt;Node1 -->
<g id="edge1" class="edge">
<title>Node2&#45;&gt;Node1</title>
<path fill="none" stroke="#63b8ff" d="M69.12,-68.13C79.93,-55.85 92.92,-41.09 102.31,-30.42"/>
<polygon fill="#63b8ff" stroke="#63b8ff" points="66.7,-65.58 62.73,-75.4 71.96,-70.21 66.7,-65.58"/>
</g>
<!-- Node3 -->
<g id="node3" class="node">
<title>Node3</title>
<g id="a_node3"><a xlink:title=" ">
<polygon fill="white" stroke="#666666" points="247.5,-107 116.5,-107 116.5,-77 247.5,-77 247.5,-107"/>
<text text-anchor="start" x="124.5" y="-95" font-family="Helvetica,sans-Serif" font-size="10.00">std::vector&lt; std::filesystem</text>
<text text-anchor="middle" x="182" y="-84" font-family="Helvetica,sans-Serif" font-size="10.00">::path &gt;</text>
</a>
</g>
</g>
<!-- Node3&#45;&gt;Node1 -->
<g id="edge2" class="edge">
<title>Node3&#45;&gt;Node1</title>
<path fill="none" stroke="#9a32cd" stroke-dasharray="5,2" d="M161.57,-68.13C150.6,-55.85 137.42,-41.09 127.88,-30.42"/>
<polygon fill="#9a32cd" stroke="#9a32cd" points="158.8,-70.28 168.07,-75.41 164.02,-65.62 158.8,-70.28"/>
<text text-anchor="middle" x="164.5" y="-51" font-family="Helvetica,sans-Serif" font-size="10.00"> files_</text>
</g>
</g>
</svg>
