<?xml version="1.0" encoding="UTF-8" standalone="no"?>
<!DOCTYPE svg PUBLIC "-//W3C//DTD SVG 1.1//EN"
 "http://www.w3.org/Graphics/SVG/1.1/DTD/svg11.dtd">
<!-- Generated by graphviz version 7.0.5 (20221223.1930)
 -->
<!-- Title: node_system::crypto::KeyView Pages: 1 -->
<svg width="128pt" height="148pt"
 viewBox="0.00 0.00 128.00 148.00" xmlns="http://www.w3.org/2000/svg" xmlns:xlink="http://www.w3.org/1999/xlink">
<g id="graph0" class="graph" transform="scale(1 1) rotate(0) translate(4 144)">
<title>node_system::crypto::KeyView</title>
<!-- Node1 -->
<g id="node1" class="node">
<title>Node1</title>
<g id="a_node1"><a xlink:title="Represents a view of a cryptographic key as a byte view.">
<polygon fill="#999999" stroke="#666666" points="112.5,-30 7.5,-30 7.5,0 112.5,0 112.5,-30"/>
<text text-anchor="start" x="15.5" y="-18" font-family="Helvetica,sans-Serif" font-size="10.00">node_system::crypto</text>
<text text-anchor="middle" x="60" y="-7" font-family="Helvetica,sans-Serif" font-size="10.00">::KeyView</text>
</a>
</g>
</g>
<!-- Node2 -->
<g id="node2" class="node">
<title>Node2</title>
<g id="a_node2"><a xlink:href="../../d8/d4d/structnode__system_1_1_byte_view.html" target="_top" xlink:title="A lightweight view over a sequence of bytes.">
<polygon fill="white" stroke="#666666" points="120,-85 0,-85 0,-66 120,-66 120,-85"/>
<text text-anchor="middle" x="60" y="-73" font-family="Helvetica,sans-Serif" font-size="10.00">node_system::ByteView</text>
</a>
</g>
</g>
<!-- Node2&#45;&gt;Node1 -->
<g id="edge1" class="edge">
<title>Node2&#45;&gt;Node1</title>
<path fill="none" stroke="#63b8ff" d="M60,-54.51C60,-46.49 60,-37.43 60,-30.11"/>
<polygon fill="#63b8ff" stroke="#63b8ff" points="56.5,-54.35 60,-64.35 63.5,-54.35 56.5,-54.35"/>
</g>
<!-- Node3 -->
<g id="node3" class="node">
<title>Node3</title>
<g id="a_node3"><a xlink:title=" ">
<polygon fill="white" stroke="#666666" points="99,-140 21,-140 21,-121 99,-121 99,-140"/>
<text text-anchor="middle" x="60" y="-128" font-family="Helvetica,sans-Serif" font-size="10.00">std::span&lt; T &gt;</text>
</a>
</g>
</g>
<!-- Node3&#45;&gt;Node2 -->
<g id="edge2" class="edge">
<title>Node3&#45;&gt;Node2</title>
<path fill="none" stroke="#63b8ff" d="M60,-109.35C60,-101.1 60,-91.97 60,-85.44"/>
<polygon fill="#63b8ff" stroke="#63b8ff" points="56.5,-109.23 60,-119.23 63.5,-109.23 56.5,-109.23"/>
</g>
</g>
</svg>
