<?xml version="1.0" encoding="UTF-8" standalone="no"?>
<!DOCTYPE svg PUBLIC "-//W3C//DTD SVG 1.1//EN"
 "http://www.w3.org/Graphics/SVG/1.1/DTD/svg11.dtd">
<!-- Generated by graphviz version 9.0.0 (20230911.1827)
 -->
<!-- Title: mal_packet_weaver::SignalHandler::notify Pages: 1 -->
<svg width="429pt" height="230pt"
 viewBox="0.00 0.00 428.75 229.75" xmlns="http://www.w3.org/2000/svg" xmlns:xlink="http://www.w3.org/1999/xlink">

<svg id="main" version="1.1" xmlns="http://www.w3.org/2000/svg" xmlns:xlink="http://www.w3.org/1999/xlink" xml:space="preserve" onload="init(evt)">
<style type="text/css"><![CDATA[
.node, .edge {opacity: 0.7;}
.node.selected, .edge.selected {opacity: 1;}
.edge:hover path { stroke: red; }
.edge:hover polygon { stroke: red; fill: red; }
]]></style>
<script type="application/ecmascript" xlink:href="../../svg.min.js"/>
<svg id="graph" class="graph">
<g id="graph0" class="graph" transform="scale(1 1) rotate(0) translate(4 225.75)">
<title>mal_packet_weaver::SignalHandler::notify</title>
<!-- Node1 -->
<g id="Node000001" class="node">
<title>Node1</title>
<g id="a_Node000001"><a xlink:title=" ">
<polygon fill="#999999" stroke="#666666" points="420.75,-126.12 321.5,-126.12 321.5,-95.62 420.75,-95.62 420.75,-126.12"/>
<text text-anchor="start" x="329.5" y="-112.62" font-family="Times,serif" font-size="10.00">mal_packet_weaver::</text>
<text text-anchor="middle" x="371.12" y="-101.38" font-family="Times,serif" font-size="10.00">SignalHandler::notify</text>
</a>
</g>
</g>
<!-- Node2 -->
<g id="Node000002" class="node">
<title>Node2</title>
<g id="a_Node000002"><a xlink:href="../../d4/d61/classmal__packet__weaver_1_1_packet_dispatcher.html#a6cd127b3b0d7992ba74265243d8ed081" target="_top" xlink:title="Enqueues a promise with a filter associated with a packet.">
<polygon fill="white" stroke="#666666" points="285.5,-221.75 160.75,-221.75 160.75,-180 285.5,-180 285.5,-221.75"/>
<text text-anchor="start" x="168.75" y="-208.25" font-family="Times,serif" font-size="10.00">mal_packet_weaver::</text>
<text text-anchor="start" x="168.75" y="-197" font-family="Times,serif" font-size="10.00">PacketDispatcher::enqueue</text>
<text text-anchor="middle" x="223.12" y="-185.75" font-family="Times,serif" font-size="10.00">_filter_promise</text>
</a>
</g>
</g>
<!-- Node1&#45;&gt;Node2 -->
<g id="edge1_Node000001_Node000002" class="edge">
<title>Node1&#45;&gt;Node2</title>
<g id="a_edge1_Node000001_Node000002"><a xlink:title=" ">
<path fill="none" stroke="#63b8ff" d="M341.36,-133.03C325.34,-144.91 304.79,-159.42 285.5,-170.88 280.5,-173.84 275.17,-176.77 269.81,-179.57"/>
<polygon fill="#63b8ff" stroke="#63b8ff" points="343.12,-136.09 349.01,-127.29 338.92,-130.49 343.12,-136.09"/>
</a>
</g>
</g>
<!-- Node4 -->
<g id="Node000004" class="node">
<title>Node4</title>
<g id="a_Node000004"><a xlink:href="../../d4/d61/classmal__packet__weaver_1_1_packet_dispatcher.html#af4ee0a486c569b7e413cb5740b5625de" target="_top" xlink:title="Enqueues a promise associated with a packet.">
<polygon fill="white" stroke="#666666" points="285.5,-161.75 160.75,-161.75 160.75,-120 285.5,-120 285.5,-161.75"/>
<text text-anchor="start" x="168.75" y="-148.25" font-family="Times,serif" font-size="10.00">mal_packet_weaver::</text>
<text text-anchor="start" x="168.75" y="-137" font-family="Times,serif" font-size="10.00">PacketDispatcher::enqueue</text>
<text text-anchor="middle" x="223.12" y="-125.75" font-family="Times,serif" font-size="10.00">_promise</text>
</a>
</g>
</g>
<!-- Node1&#45;&gt;Node4 -->
<g id="edge3_Node000001_Node000004" class="edge">
<title>Node1&#45;&gt;Node4</title>
<g id="a_edge3_Node000001_Node000004"><a xlink:title=" ">
<path fill="none" stroke="#63b8ff" d="M310.05,-123.22C302.11,-124.85 293.96,-126.53 285.98,-128.16"/>
<polygon fill="#63b8ff" stroke="#63b8ff" points="310.53,-126.69 319.62,-121.25 309.12,-119.84 310.53,-126.69"/>
</a>
</g>
</g>
<!-- Node6 -->
<g id="Node000006" class="node">
<title>Node6</title>
<g id="a_Node000006"><a xlink:href="../../d4/d61/classmal__packet__weaver_1_1_packet_dispatcher.html#a346f02299048c0c8443aeead2fbf7d23" target="_top" xlink:title="Pushes an input packet to the unprocessed_packets_input_ queue.">
<polygon fill="white" stroke="#666666" points="278.75,-101.75 167.5,-101.75 167.5,-60 278.75,-60 278.75,-101.75"/>
<text text-anchor="start" x="175.5" y="-88.25" font-family="Times,serif" font-size="10.00">mal_packet_weaver::</text>
<text text-anchor="start" x="175.5" y="-77" font-family="Times,serif" font-size="10.00">PacketDispatcher::push</text>
<text text-anchor="middle" x="223.12" y="-65.75" font-family="Times,serif" font-size="10.00">_packet</text>
</a>
</g>
</g>
<!-- Node1&#45;&gt;Node6 -->
<g id="edge5_Node000001_Node000006" class="edge">
<title>Node1&#45;&gt;Node6</title>
<g id="a_edge5_Node000001_Node000006"><a xlink:title=" ">
<path fill="none" stroke="#63b8ff" d="M310.12,-98.55C299.84,-96.43 289.2,-94.25 279.05,-92.16"/>
<polygon fill="#63b8ff" stroke="#63b8ff" points="309.12,-101.91 319.62,-100.5 310.53,-95.06 309.12,-101.91"/>
</a>
</g>
</g>
<!-- Node8 -->
<g id="Node000008" class="node">
<title>Node8</title>
<g id="a_Node000008"><a xlink:href="../../d4/d61/classmal__packet__weaver_1_1_packet_dispatcher.html#a90f4839728ba615d085089e56fb99a08" target="_top" xlink:title="Registers a default handler for the provided packet type.">
<polygon fill="white" stroke="#666666" points="284,-41.75 162.25,-41.75 162.25,0 284,0 284,-41.75"/>
<text text-anchor="start" x="170.25" y="-28.25" font-family="Times,serif" font-size="10.00">mal_packet_weaver::</text>
<text text-anchor="start" x="170.25" y="-17" font-family="Times,serif" font-size="10.00">PacketDispatcher::register</text>
<text text-anchor="middle" x="223.12" y="-5.75" font-family="Times,serif" font-size="10.00">_default_handler</text>
</a>
</g>
</g>
<!-- Node1&#45;&gt;Node8 -->
<g id="edge7_Node000001_Node000008" class="edge">
<title>Node1&#45;&gt;Node8</title>
<g id="a_edge7_Node000001_Node000008"><a xlink:title=" ">
<path fill="none" stroke="#63b8ff" d="M341.36,-88.72C325.34,-76.84 304.79,-62.33 285.5,-50.88 280.5,-47.91 275.17,-44.98 269.81,-42.18"/>
<polygon fill="#63b8ff" stroke="#63b8ff" points="338.92,-91.26 349.01,-94.46 343.12,-85.66 338.92,-91.26"/>
</a>
</g>
</g>
<!-- Node3 -->
<g id="Node000003" class="node">
<title>Node3</title>
<g id="a_Node000003"><a xlink:href="../../d4/d61/classmal__packet__weaver_1_1_packet_dispatcher.html#a5fa270876e67889a7524a186b297cd11" target="_top" xlink:title="Wait until a packet satisfying the filter condition is registered in the dispatch system and return a...">
<polygon fill="white" stroke="#666666" points="118.38,-221.75 6.38,-221.75 6.38,-180 118.38,-180 118.38,-221.75"/>
<text text-anchor="start" x="14.38" y="-208.25" font-family="Times,serif" font-size="10.00">mal_packet_weaver::</text>
<text text-anchor="start" x="14.38" y="-197" font-family="Times,serif" font-size="10.00">PacketDispatcher::await</text>
<text text-anchor="middle" x="62.38" y="-185.75" font-family="Times,serif" font-size="10.00">_packet</text>
</a>
</g>
</g>
<!-- Node2&#45;&gt;Node3 -->
<g id="edge2_Node000002_Node000003" class="edge">
<title>Node2&#45;&gt;Node3</title>
<g id="a_edge2_Node000002_Node000003"><a xlink:title=" ">
<path fill="none" stroke="#63b8ff" d="M148.95,-200.88C138.83,-200.88 128.56,-200.88 118.83,-200.88"/>
<polygon fill="#63b8ff" stroke="#63b8ff" points="148.78,-204.38 158.78,-200.88 148.78,-197.38 148.78,-204.38"/>
</a>
</g>
</g>
<!-- Node5 -->
<g id="Node000005" class="node">
<title>Node5</title>
<g id="a_Node000005"><a xlink:href="../../d4/d61/classmal__packet__weaver_1_1_packet_dispatcher.html#a1e7e2c9e624018e4a1046297453e0596" target="_top" xlink:title="Wait until the packet is registered in the dispatch system and return as soon as possible.">
<polygon fill="white" stroke="#666666" points="118.38,-161.75 6.38,-161.75 6.38,-120 118.38,-120 118.38,-161.75"/>
<text text-anchor="start" x="14.38" y="-148.25" font-family="Times,serif" font-size="10.00">mal_packet_weaver::</text>
<text text-anchor="start" x="14.38" y="-137" font-family="Times,serif" font-size="10.00">PacketDispatcher::await</text>
<text text-anchor="middle" x="62.38" y="-125.75" font-family="Times,serif" font-size="10.00">_packet</text>
</a>
</g>
</g>
<!-- Node4&#45;&gt;Node5 -->
<g id="edge4_Node000004_Node000005" class="edge">
<title>Node4&#45;&gt;Node5</title>
<g id="a_edge4_Node000004_Node000005"><a xlink:title=" ">
<path fill="none" stroke="#63b8ff" d="M148.95,-140.88C138.83,-140.88 128.56,-140.88 118.83,-140.88"/>
<polygon fill="#63b8ff" stroke="#63b8ff" points="148.78,-144.38 158.78,-140.88 148.78,-137.38 148.78,-144.38"/>
</a>
</g>
</g>
<!-- Node7 -->
<g id="Node000007" class="node">
<title>Node7</title>
<g id="a_Node000007"><a xlink:href="../../d4/d61/classmal__packet__weaver_1_1_packet_dispatcher.html#a9bb612f197e6c11b943e3b223e79eac3" target="_top" xlink:title="Enqueues a packet for processing.">
<polygon fill="white" stroke="#666666" points="124.75,-101.75 0,-101.75 0,-60 124.75,-60 124.75,-101.75"/>
<text text-anchor="start" x="8" y="-88.25" font-family="Times,serif" font-size="10.00">mal_packet_weaver::</text>
<text text-anchor="start" x="8" y="-77" font-family="Times,serif" font-size="10.00">PacketDispatcher::enqueue</text>
<text text-anchor="middle" x="62.38" y="-65.75" font-family="Times,serif" font-size="10.00">_packet</text>
</a>
</g>
</g>
<!-- Node6&#45;&gt;Node7 -->
<g id="edge6_Node000006_Node000007" class="edge">
<title>Node6&#45;&gt;Node7</title>
<g id="a_edge6_Node000006_Node000007"><a xlink:title=" ">
<path fill="none" stroke="#63b8ff" d="M155.76,-80.88C145.62,-80.88 135.18,-80.88 125.15,-80.88"/>
<polygon fill="#63b8ff" stroke="#63b8ff" points="155.53,-84.38 165.53,-80.88 155.53,-77.38 155.53,-84.38"/>
</a>
</g>
</g>
</g>
</svg>
</svg>

<style type='text/css'>
<![CDATA[
[data-mouse-over-selected='false'] { opacity: 0.7; }
[data-mouse-over-selected='true']  { opacity: 1.0; }
]]>
</style>
<script type="application/ecmascript"><![CDATA[
document.addEventListener('DOMContentLoaded', (event) => {
  highlightEdges();
  highlightAdjacentNodes();
});
]]></script>
</svg>
