<?xml version="1.0" encoding="UTF-8" standalone="no"?>
<!DOCTYPE svg PUBLIC "-//W3C//DTD SVG 1.1//EN"
 "http://www.w3.org/Graphics/SVG/1.1/DTD/svg11.dtd">
<!-- Generated by graphviz version 11.0.0 (20240428.1522)
 -->
<!-- Title: mal_packet_weaver::Session Pages: 1 -->
<svg width="726pt" height="404pt"
 viewBox="0.00 0.00 726.05 403.50" xmlns="http://www.w3.org/2000/svg" xmlns:xlink="http://www.w3.org/1999/xlink">
<g id="graph0" class="graph" transform="scale(1 1) rotate(0) translate(4 399.5)">
<title>mal_packet_weaver::Session</title>
<!-- Node1 -->
<g id="Node000001" class="node">
<title>Node1</title>
<g id="a_Node000001"><a xlink:title="Represents a network session for sending and receiving packets.">
<polygon fill="#999999" stroke="#666666" points="718.05,-201.12 618.8,-201.12 618.8,-170.62 718.05,-170.62 718.05,-201.12"/>
<text text-anchor="start" x="626.8" y="-187.62" font-family="Times,serif" font-size="10.00">mal_packet_weaver::</text>
<text text-anchor="middle" x="668.42" y="-176.38" font-family="Times,serif" font-size="10.00">Session</text>
</a>
</g>
</g>
<!-- Node2 -->
<g id="Node000002" class="node">
<title>Node2</title>
<g id="a_Node000002"><a xlink:href="../../d2/df3/classmal__toolkit_1_1non__copyable__non__movable.html" target="_top" xlink:title="A class that can&#39;t be copied neither moved.">
<polygon fill="white" stroke="#666666" points="482.3,-383.12 362.8,-383.12 362.8,-352.62 482.3,-352.62 482.3,-383.12"/>
<text text-anchor="start" x="370.8" y="-369.62" font-family="Times,serif" font-size="10.00">mal_toolkit::non_copyable</text>
<text text-anchor="middle" x="422.55" y="-358.38" font-family="Times,serif" font-size="10.00">_non_movable</text>
</a>
</g>
</g>
<!-- Node2&#45;&gt;Node1 -->
<g id="edge1_Node000001_Node000002" class="edge">
<title>Node2&#45;&gt;Node1</title>
<g id="a_edge1_Node000001_Node000002"><a xlink:title=" ">
<path fill="none" stroke="#63b8ff" d="M493.67,-357.64C528.96,-349.55 570.56,-335.19 600.8,-309.88 636.03,-280.38 655.45,-227.33 663.28,-201.23"/>
<polygon fill="#63b8ff" stroke="#63b8ff" points="492.97,-354.21 483.93,-359.74 494.44,-361.06 492.97,-354.21"/>
</a>
</g>
</g>
<!-- Node3 -->
<g id="Node000003" class="node">
<title>Node3</title>
<g id="a_Node000003"><a xlink:href="../../d1/dd3/classmal__toolkit_1_1non__copyable.html" target="_top" xlink:title="A class that can&#39;t be copied.">
<polygon fill="white" stroke="#666666" points="201.55,-395.5 82.05,-395.5 82.05,-376.25 201.55,-376.25 201.55,-395.5"/>
<text text-anchor="middle" x="141.8" y="-382" font-family="Times,serif" font-size="10.00">mal_toolkit::non_copyable</text>
</a>
</g>
</g>
<!-- Node3&#45;&gt;Node2 -->
<g id="edge2_Node000002_Node000003" class="edge">
<title>Node3&#45;&gt;Node2</title>
<g id="a_edge2_Node000002_Node000003"><a xlink:title=" ">
<path fill="none" stroke="#63b8ff" d="M213.33,-381.32C259.42,-378.34 318.93,-374.5 362.52,-371.69"/>
<polygon fill="#63b8ff" stroke="#63b8ff" points="213.18,-377.82 203.43,-381.96 213.63,-384.81 213.18,-377.82"/>
</a>
</g>
</g>
<!-- Node4 -->
<g id="Node000004" class="node">
<title>Node4</title>
<g id="a_Node000004"><a xlink:href="../../db/d86/classmal__toolkit_1_1non__movable.html" target="_top" xlink:title="A class that can&#39;t be moved.">
<polygon fill="white" stroke="#666666" points="200.8,-358.5 82.8,-358.5 82.8,-339.25 200.8,-339.25 200.8,-358.5"/>
<text text-anchor="middle" x="141.8" y="-345" font-family="Times,serif" font-size="10.00">mal_toolkit::non_movable</text>
</a>
</g>
</g>
<!-- Node4&#45;&gt;Node2 -->
<g id="edge3_Node000002_Node000004" class="edge">
<title>Node4&#45;&gt;Node2</title>
<g id="a_edge3_Node000002_Node000004"><a xlink:title=" ">
<path fill="none" stroke="#63b8ff" d="M212.68,-353.64C258.93,-356.79 318.9,-360.88 362.71,-363.86"/>
<polygon fill="#63b8ff" stroke="#63b8ff" points="212.96,-350.15 202.75,-352.96 212.48,-357.13 212.96,-350.15"/>
</a>
</g>
</g>
<!-- Node5 -->
<g id="Node000005" class="node">
<title>Node5</title>
<g id="a_Node000005"><a xlink:title=" ">
<polygon fill="white" stroke="#666666" points="475.17,-334.12 369.92,-334.12 369.92,-303.62 475.17,-303.62 475.17,-334.12"/>
<text text-anchor="start" x="377.92" y="-320.62" font-family="Times,serif" font-size="10.00">std::enable_shared</text>
<text text-anchor="middle" x="422.55" y="-309.38" font-family="Times,serif" font-size="10.00">_from_this&lt; Session &gt;</text>
</a>
</g>
</g>
<!-- Node5&#45;&gt;Node1 -->
<g id="edge4_Node000001_Node000005" class="edge">
<title>Node5&#45;&gt;Node1</title>
<g id="a_edge4_Node000001_Node000005"><a xlink:title=" ">
<path fill="none" stroke="#63b8ff" d="M486.8,-310.28C522.52,-303.17 566.7,-290.43 600.8,-267.88 626.81,-250.67 647.66,-220.16 658.73,-201.6"/>
<polygon fill="#63b8ff" stroke="#63b8ff" points="486.2,-306.83 477.01,-312.12 487.49,-313.71 486.2,-306.83"/>
</a>
</g>
</g>
<!-- Node6 -->
<g id="Node000006" class="node">
<title>Node6</title>
<g id="a_Node000006"><a xlink:title=" ">
<polygon fill="white" stroke="#666666" points="474.05,-285.38 371.05,-285.38 371.05,-232.38 474.05,-232.38 474.05,-285.38"/>
<text text-anchor="start" x="379.05" y="-271.88" font-family="Times,serif" font-size="10.00">queue&lt; mal_toolkit</text>
<text text-anchor="start" x="379.05" y="-260.62" font-family="Times,serif" font-size="10.00">::ByteArray *, boost</text>
<text text-anchor="start" x="379.05" y="-249.38" font-family="Times,serif" font-size="10.00">::lockfree::fixed_sized</text>
<text text-anchor="middle" x="422.55" y="-238.12" font-family="Times,serif" font-size="10.00">&lt; true &gt; &gt;</text>
</a>
</g>
</g>
<!-- Node6&#45;&gt;Node1 -->
<g id="edge5_Node000001_Node000006" class="edge">
<title>Node6&#45;&gt;Node1</title>
<g id="a_edge5_Node000001_Node000006"><a xlink:title=" ">
<path fill="none" stroke="#9a32cd" stroke-dasharray="5,2" d="M485.3,-244.96C519.63,-236.69 562.94,-225.4 600.8,-212.88 610.75,-209.58 621.35,-205.54 631.09,-201.6"/>
<polygon fill="#9a32cd" stroke="#9a32cd" points="484.88,-241.46 475.96,-247.18 486.5,-248.27 484.88,-241.46"/>
</a>
</g>
<text text-anchor="middle" x="550.55" y="-253.88" font-family="Times,serif" font-size="10.00" fill="grey"> packets_to_send_</text>
<text text-anchor="middle" x="550.55" y="-242.62" font-family="Times,serif" font-size="10.00" fill="grey">received_packets_</text>
</g>
<!-- Node7 -->
<g id="Node000007" class="node">
<title>Node7</title>
<g id="a_Node000007"><a xlink:href="../../d9/db9/classbool.html" target="_top" xlink:title=" ">
<polygon fill="white" stroke="#666666" points="439.17,-214.5 405.92,-214.5 405.92,-195.25 439.17,-195.25 439.17,-214.5"/>
<text text-anchor="middle" x="422.55" y="-201" font-family="Times,serif" font-size="10.00">bool</text>
</a>
</g>
</g>
<!-- Node7&#45;&gt;Node1 -->
<g id="edge6_Node000001_Node000007" class="edge">
<title>Node7&#45;&gt;Node1</title>
<g id="a_edge6_Node000001_Node000007"><a xlink:title=" ">
<path fill="none" stroke="#9a32cd" stroke-dasharray="5,2" d="M450.93,-202.74C491.55,-199.58 568.41,-193.59 618.77,-189.67"/>
<polygon fill="#9a32cd" stroke="#9a32cd" points="450.76,-199.24 441.06,-203.51 451.3,-206.22 450.76,-199.24"/>
</a>
</g>
<text text-anchor="middle" x="550.55" y="-199.62" font-family="Times,serif" font-size="10.00" fill="grey"> alive_</text>
</g>
<!-- Node8 -->
<g id="Node000008" class="node">
<title>Node8</title>
<g id="a_Node000008"><a xlink:title=" ">
<polygon fill="white" stroke="#666666" points="443.3,-177.5 401.8,-177.5 401.8,-158.25 443.3,-158.25 443.3,-177.5"/>
<text text-anchor="middle" x="422.55" y="-164" font-family="Times,serif" font-size="10.00">socket</text>
</a>
</g>
</g>
<!-- Node8&#45;&gt;Node1 -->
<g id="edge7_Node000001_Node000008" class="edge">
<title>Node8&#45;&gt;Node1</title>
<g id="a_edge7_Node000001_Node000008"><a xlink:title=" ">
<path fill="none" stroke="#9a32cd" stroke-dasharray="5,2" d="M454.63,-166.76C490.11,-165.89 549.85,-165.69 600.8,-171.62 606.56,-172.3 612.55,-173.23 618.48,-174.31"/>
<polygon fill="#9a32cd" stroke="#9a32cd" points="454.98,-163.25 445.08,-167.03 455.18,-170.24 454.98,-163.25"/>
</a>
</g>
<text text-anchor="middle" x="550.55" y="-172.62" font-family="Times,serif" font-size="10.00" fill="grey"> socket_</text>
</g>
<!-- Node9 -->
<g id="Node000009" class="node">
<title>Node9</title>
<g id="a_Node000009"><a xlink:title=" ">
<polygon fill="white" stroke="#666666" points="478.17,-139.75 366.92,-139.75 366.92,-98 478.17,-98 478.17,-139.75"/>
<text text-anchor="start" x="374.92" y="-126.25" font-family="Times,serif" font-size="10.00">std::shared_ptr&lt; mal</text>
<text text-anchor="start" x="374.92" y="-115" font-family="Times,serif" font-size="10.00">_packet_weaver::crypto</text>
<text text-anchor="middle" x="422.55" y="-103.75" font-family="Times,serif" font-size="10.00">::EncryptionInterface &gt;</text>
</a>
</g>
</g>
<!-- Node9&#45;&gt;Node1 -->
<g id="edge8_Node000001_Node000009" class="edge">
<title>Node9&#45;&gt;Node1</title>
<g id="a_edge8_Node000001_Node000009"><a xlink:title=" ">
<path fill="none" stroke="#9a32cd" stroke-dasharray="5,2" d="M489.74,-125.79C523.59,-130.55 565.08,-138.31 600.8,-150.62 615.15,-155.57 630.18,-163.27 642.32,-170.22"/>
<polygon fill="#9a32cd" stroke="#9a32cd" points="490.44,-122.35 480.07,-124.48 489.51,-129.29 490.44,-122.35"/>
</a>
</g>
<text text-anchor="middle" x="550.55" y="-151.62" font-family="Times,serif" font-size="10.00" fill="grey"> encryption_</text>
</g>
<!-- Node10 -->
<g id="Node000010" class="node">
<title>Node10</title>
<g id="a_Node000010"><a xlink:href="../../d7/da7/classmal__packet__weaver_1_1crypto_1_1_encryption_interface.html" target="_top" xlink:title=" ">
<polygon fill="white" stroke="#666666" points="204.55,-157.12 79.05,-157.12 79.05,-126.62 204.55,-126.62 204.55,-157.12"/>
<text text-anchor="start" x="87.05" y="-143.62" font-family="Times,serif" font-size="10.00">mal_packet_weaver::</text>
<text text-anchor="middle" x="141.8" y="-132.38" font-family="Times,serif" font-size="10.00">crypto::EncryptionInterface</text>
</a>
</g>
</g>
<!-- Node10&#45;&gt;Node9 -->
<g id="edge9_Node000009_Node000010" class="edge">
<title>Node10&#45;&gt;Node9</title>
<g id="a_edge9_Node000009_Node000010"><a xlink:title=" ">
<path fill="none" stroke="#9a32cd" stroke-dasharray="5,2" d="M216.38,-135.8C263.5,-131.92 323.64,-126.95 366.6,-123.41"/>
<polygon fill="#9a32cd" stroke="#9a32cd" points="216.2,-132.31 206.52,-136.62 216.77,-139.28 216.2,-132.31"/>
</a>
</g>
<text text-anchor="middle" x="283.67" y="-136.62" font-family="Times,serif" font-size="10.00" fill="grey"> ptr</text>
</g>
<!-- Node11 -->
<g id="Node000011" class="node">
<title>Node11</title>
<g id="a_Node000011"><a xlink:title=" ">
<polygon fill="white" stroke="#666666" points="191.05,-105.5 92.55,-105.5 92.55,-86.25 191.05,-86.25 191.05,-105.5"/>
<text text-anchor="middle" x="141.8" y="-92" font-family="Times,serif" font-size="10.00">std::shared_ptr&lt; T &gt;</text>
</a>
</g>
</g>
<!-- Node11&#45;&gt;Node9 -->
<g id="edge10_Node000009_Node000011" class="edge">
<title>Node11&#45;&gt;Node9</title>
<g id="a_edge10_Node000009_Node000011"><a xlink:title=" ">
<path fill="none" stroke="orange" stroke-dasharray="5,2" d="M202.47,-92.74C242.84,-91.57 297.26,-91.84 344.8,-98.38 351.9,-99.35 359.29,-100.78 366.55,-102.43"/>
<polygon fill="orange" stroke="orange" points="202.6,-89.24 192.72,-93.07 202.83,-96.23 202.6,-89.24"/>
</a>
</g>
<text text-anchor="start" x="222.55" y="-110.88" font-family="Times,serif" font-size="10.00" fill="grey"> &lt; mal_packet_weaver</text>
<text text-anchor="middle" x="283.67" y="-99.62" font-family="Times,serif" font-size="10.00" fill="grey">::crypto::EncryptionInterface &gt;</text>
</g>
<!-- Node12 -->
<g id="Node000012" class="node">
<title>Node12</title>
<g id="a_Node000012"><a xlink:title=" ">
<polygon fill="white" stroke="#666666" points="28.8,-105.5 0,-105.5 0,-86.25 28.8,-86.25 28.8,-105.5"/>
<text text-anchor="middle" x="14.4" y="-92" font-family="Times,serif" font-size="10.00">T</text>
</a>
</g>
</g>
<!-- Node12&#45;&gt;Node11 -->
<g id="edge11_Node000011_Node000012" class="edge">
<title>Node12&#45;&gt;Node11</title>
<g id="a_edge11_Node000011_Node000012"><a xlink:title=" ">
<path fill="none" stroke="#9a32cd" stroke-dasharray="5,2" d="M40.56,-95.88C55.36,-95.88 74.58,-95.88 92.22,-95.88"/>
<polygon fill="#9a32cd" stroke="#9a32cd" points="40.81,-92.38 30.81,-95.88 40.81,-99.38 40.81,-92.38"/>
</a>
</g>
<text text-anchor="middle" x="53.92" y="-97.62" font-family="Times,serif" font-size="10.00" fill="grey"> ptr</text>
</g>
<!-- Node13 -->
<g id="Node000013" class="node">
<title>Node13</title>
<g id="a_Node000013"><a xlink:title=" ">
<polygon fill="white" stroke="#666666" points="451.17,-79.5 393.92,-79.5 393.92,-60.25 451.17,-60.25 451.17,-79.5"/>
<text text-anchor="middle" x="422.55" y="-66" font-family="Times,serif" font-size="10.00">std::mutex</text>
</a>
</g>
</g>
<!-- Node13&#45;&gt;Node1 -->
<g id="edge12_Node000001_Node000013" class="edge">
<title>Node13&#45;&gt;Node1</title>
<g id="a_edge12_Node000001_Node000013"><a xlink:title=" ">
<path fill="none" stroke="#9a32cd" stroke-dasharray="5,2" d="M462.6,-72.33C500.29,-76.19 557.8,-86.12 600.8,-111.62 625.53,-126.29 646.2,-153.16 657.68,-170.24"/>
<polygon fill="#9a32cd" stroke="#9a32cd" points="463.36,-68.89 453.09,-71.46 462.72,-75.86 463.36,-68.89"/>
</a>
</g>
<text text-anchor="middle" x="550.55" y="-112.62" font-family="Times,serif" font-size="10.00" fill="grey"> packet_receiver_mutex_</text>
</g>
<!-- Node14 -->
<g id="Node000014" class="node">
<title>Node14</title>
<g id="a_Node000014"><a xlink:title=" ">
<polygon fill="white" stroke="#666666" points="472.17,-41.75 372.92,-41.75 372.92,0 472.17,0 472.17,-41.75"/>
<text text-anchor="start" x="380.92" y="-28.25" font-family="Times,serif" font-size="10.00">function&lt; void(std</text>
<text text-anchor="start" x="380.92" y="-17" font-family="Times,serif" font-size="10.00">::unique_ptr&lt; Packet</text>
<text text-anchor="middle" x="422.55" y="-5.75" font-family="Times,serif" font-size="10.00"> &gt; &amp;&amp;)&gt;</text>
</a>
</g>
</g>
<!-- Node14&#45;&gt;Node1 -->
<g id="edge13_Node000001_Node000014" class="edge">
<title>Node14&#45;&gt;Node1</title>
<g id="a_edge13_Node000001_Node000014"><a xlink:title=" ">
<path fill="none" stroke="#9a32cd" stroke-dasharray="5,2" d="M483.68,-22.81C520.72,-26.76 567.36,-37.03 600.8,-62.62 637.11,-90.42 656.02,-143.86 663.51,-170.29"/>
<polygon fill="#9a32cd" stroke="#9a32cd" points="484.3,-19.35 474.02,-21.91 483.66,-26.32 484.3,-19.35"/>
</a>
</g>
<text text-anchor="middle" x="550.55" y="-63.62" font-family="Times,serif" font-size="10.00" fill="grey"> packet_receiver_</text>
</g>
</g>
</svg>
