<?xml version="1.0" encoding="UTF-8" standalone="no"?>
<!DOCTYPE svg PUBLIC "-//W3C//DTD SVG 1.1//EN"
 "http://www.w3.org/Graphics/SVG/1.1/DTD/svg11.dtd">
<!-- Generated by graphviz version 9.0.0 (20230911.1827)
 -->
<!-- Title: mal_packet_weaver::Session Pages: 1 -->
<svg width="726pt" height="441pt"
 viewBox="0.00 0.00 726.05 440.50" xmlns="http://www.w3.org/2000/svg" xmlns:xlink="http://www.w3.org/1999/xlink">
<g id="graph0" class="graph" transform="scale(1 1) rotate(0) translate(4 436.5)">
<title>mal_packet_weaver::Session</title>
<!-- Node1 -->
<g id="Node000001" class="node">
<title>Node1</title>
<g id="a_Node000001"><a xlink:title="Represents a network session for sending and receiving packets.">
<polygon fill="#999999" stroke="#666666" points="718.05,-220.12 618.8,-220.12 618.8,-189.62 718.05,-189.62 718.05,-220.12"/>
<text text-anchor="start" x="626.8" y="-206.62" font-family="Times,serif" font-size="10.00">mal_packet_weaver::</text>
<text text-anchor="middle" x="668.42" y="-195.38" font-family="Times,serif" font-size="10.00">Session</text>
</a>
</g>
</g>
<!-- Node2 -->
<g id="Node000002" class="node">
<title>Node2</title>
<g id="a_Node000002"><a xlink:href="../../d2/df3/classmal__toolkit_1_1non__copyable__non__movable.html" target="_top" xlink:title="A class that can&#39;t be copied neither moved.">
<polygon fill="white" stroke="#666666" points="482.3,-420.12 362.8,-420.12 362.8,-389.62 482.3,-389.62 482.3,-420.12"/>
<text text-anchor="start" x="370.8" y="-406.62" font-family="Times,serif" font-size="10.00">mal_toolkit::non_copyable</text>
<text text-anchor="middle" x="422.55" y="-395.38" font-family="Times,serif" font-size="10.00">_non_movable</text>
</a>
</g>
</g>
<!-- Node2&#45;&gt;Node1 -->
<g id="edge1_Node000001_Node000002" class="edge">
<title>Node2&#45;&gt;Node1</title>
<g id="a_edge1_Node000001_Node000002"><a xlink:title=" ">
<path fill="none" stroke="#63b8ff" d="M493.28,-392.71C528.89,-383.51 570.89,-367.69 600.8,-340.88 638.19,-307.35 656.88,-248.15 663.95,-220.24"/>
<polygon fill="#63b8ff" stroke="#63b8ff" points="492.81,-389.22 483.92,-394.99 494.47,-396.02 492.81,-389.22"/>
</a>
</g>
</g>
<!-- Node3 -->
<g id="Node000003" class="node">
<title>Node3</title>
<g id="a_Node000003"><a xlink:href="../../d1/dd3/classmal__toolkit_1_1non__copyable.html" target="_top" xlink:title="A class that can&#39;t be copied.">
<polygon fill="white" stroke="#666666" points="201.55,-432.5 82.05,-432.5 82.05,-413.25 201.55,-413.25 201.55,-432.5"/>
<text text-anchor="middle" x="141.8" y="-419" font-family="Times,serif" font-size="10.00">mal_toolkit::non_copyable</text>
</a>
</g>
</g>
<!-- Node3&#45;&gt;Node2 -->
<g id="edge2_Node000002_Node000003" class="edge">
<title>Node3&#45;&gt;Node2</title>
<g id="a_edge2_Node000002_Node000003"><a xlink:title=" ">
<path fill="none" stroke="#63b8ff" d="M213.33,-418.32C259.42,-415.34 318.93,-411.5 362.52,-408.69"/>
<polygon fill="#63b8ff" stroke="#63b8ff" points="213.18,-414.82 203.43,-418.96 213.63,-421.81 213.18,-414.82"/>
</a>
</g>
</g>
<!-- Node4 -->
<g id="Node000004" class="node">
<title>Node4</title>
<g id="a_Node000004"><a xlink:href="../../db/d86/classmal__toolkit_1_1non__movable.html" target="_top" xlink:title="A class that can&#39;t be moved.">
<polygon fill="white" stroke="#666666" points="200.8,-395.5 82.8,-395.5 82.8,-376.25 200.8,-376.25 200.8,-395.5"/>
<text text-anchor="middle" x="141.8" y="-382" font-family="Times,serif" font-size="10.00">mal_toolkit::non_movable</text>
</a>
</g>
</g>
<!-- Node4&#45;&gt;Node2 -->
<g id="edge3_Node000002_Node000004" class="edge">
<title>Node4&#45;&gt;Node2</title>
<g id="a_edge3_Node000002_Node000004"><a xlink:title=" ">
<path fill="none" stroke="#63b8ff" d="M212.68,-390.64C258.93,-393.79 318.9,-397.88 362.71,-400.86"/>
<polygon fill="#63b8ff" stroke="#63b8ff" points="212.96,-387.15 202.75,-389.96 212.48,-394.13 212.96,-387.15"/>
</a>
</g>
</g>
<!-- Node5 -->
<g id="Node000005" class="node">
<title>Node5</title>
<g id="a_Node000005"><a xlink:title=" ">
<polygon fill="white" stroke="#666666" points="475.17,-371.12 369.92,-371.12 369.92,-340.62 475.17,-340.62 475.17,-371.12"/>
<text text-anchor="start" x="377.92" y="-357.62" font-family="Times,serif" font-size="10.00">std::enable_shared</text>
<text text-anchor="middle" x="422.55" y="-346.38" font-family="Times,serif" font-size="10.00">_from_this&lt; Session &gt;</text>
</a>
</g>
</g>
<!-- Node5&#45;&gt;Node1 -->
<g id="edge4_Node000001_Node000005" class="edge">
<title>Node5&#45;&gt;Node1</title>
<g id="a_edge4_Node000001_Node000005"><a xlink:title=" ">
<path fill="none" stroke="#63b8ff" d="M486.46,-349.62C522.7,-343.45 567.51,-331.2 600.8,-306.88 631.54,-284.42 651.99,-243.11 661.42,-220.57"/>
<polygon fill="#63b8ff" stroke="#63b8ff" points="486.34,-346.1 477.01,-351.11 487.43,-353.01 486.34,-346.1"/>
</a>
</g>
</g>
<!-- Node6 -->
<g id="Node000006" class="node">
<title>Node6</title>
<g id="a_Node000006"><a xlink:title=" ">
<polygon fill="white" stroke="#666666" points="474.05,-322.38 371.05,-322.38 371.05,-269.38 474.05,-269.38 474.05,-322.38"/>
<text text-anchor="start" x="379.05" y="-308.88" font-family="Times,serif" font-size="10.00">queue&lt; mal_toolkit</text>
<text text-anchor="start" x="379.05" y="-297.62" font-family="Times,serif" font-size="10.00">::ByteArray *, boost</text>
<text text-anchor="start" x="379.05" y="-286.38" font-family="Times,serif" font-size="10.00">::lockfree::fixed_sized</text>
<text text-anchor="middle" x="422.55" y="-275.12" font-family="Times,serif" font-size="10.00">&lt; true &gt; &gt;</text>
</a>
</g>
</g>
<!-- Node6&#45;&gt;Node1 -->
<g id="edge5_Node000001_Node000006" class="edge">
<title>Node6&#45;&gt;Node1</title>
<g id="a_edge5_Node000001_Node000006"><a xlink:title=" ">
<path fill="none" stroke="#9a32cd" stroke-dasharray="5,2" d="M485.22,-284.1C520.05,-276.24 563.87,-264.31 600.8,-247.88 617.15,-240.6 634.08,-229.62 646.78,-220.58"/>
<polygon fill="#9a32cd" stroke="#9a32cd" points="484.74,-280.62 475.72,-286.18 486.24,-287.45 484.74,-280.62"/>
</a>
</g>
<text text-anchor="middle" x="550.55" y="-292.88" font-family="Times,serif" font-size="10.00" fill="grey"> packets_to_send_</text>
<text text-anchor="middle" x="550.55" y="-281.62" font-family="Times,serif" font-size="10.00" fill="grey">received_packets_</text>
</g>
<!-- Node7 -->
<g id="Node000007" class="node">
<title>Node7</title>
<g id="a_Node000007"><a xlink:href="../../d9/db9/classbool.html" target="_top" xlink:title=" ">
<polygon fill="white" stroke="#666666" points="439.17,-251.5 405.92,-251.5 405.92,-232.25 439.17,-232.25 439.17,-251.5"/>
<text text-anchor="middle" x="422.55" y="-238" font-family="Times,serif" font-size="10.00">bool</text>
</a>
</g>
</g>
<!-- Node7&#45;&gt;Node1 -->
<g id="edge6_Node000001_Node000007" class="edge">
<title>Node7&#45;&gt;Node1</title>
<g id="a_edge6_Node000001_Node000007"><a xlink:title=" ">
<path fill="none" stroke="#9a32cd" stroke-dasharray="5,2" d="M450.37,-239.37C485.2,-235.93 547.79,-229.11 600.8,-219.88 606.52,-218.88 612.5,-217.71 618.41,-216.48"/>
<polygon fill="#9a32cd" stroke="#9a32cd" points="450.4,-235.85 440.78,-240.3 451.07,-242.82 450.4,-235.85"/>
</a>
</g>
<text text-anchor="middle" x="550.55" y="-234.62" font-family="Times,serif" font-size="10.00" fill="grey"> alive_</text>
</g>
<!-- Node8 -->
<g id="Node000008" class="node">
<title>Node8</title>
<g id="a_Node000008"><a xlink:title=" ">
<polygon fill="white" stroke="#666666" points="450.8,-214.5 394.3,-214.5 394.3,-195.25 450.8,-195.25 450.8,-214.5"/>
<text text-anchor="middle" x="422.55" y="-201" font-family="Times,serif" font-size="10.00">streambuf</text>
</a>
</g>
</g>
<!-- Node8&#45;&gt;Node1 -->
<g id="edge7_Node000001_Node000008" class="edge">
<title>Node8&#45;&gt;Node1</title>
<g id="a_edge7_Node000001_Node000008"><a xlink:title=" ">
<path fill="none" stroke="#9a32cd" stroke-dasharray="5,2" d="M462.55,-204.88C504.93,-204.88 572.7,-204.88 618.58,-204.88"/>
<polygon fill="#9a32cd" stroke="#9a32cd" points="462.57,-201.38 452.57,-204.88 462.57,-208.38 462.57,-201.38"/>
</a>
</g>
<text text-anchor="middle" x="550.55" y="-206.62" font-family="Times,serif" font-size="10.00" fill="grey"> buffer_</text>
</g>
<!-- Node9 -->
<g id="Node000009" class="node">
<title>Node9</title>
<g id="a_Node000009"><a xlink:title=" ">
<polygon fill="white" stroke="#666666" points="443.3,-177.5 401.8,-177.5 401.8,-158.25 443.3,-158.25 443.3,-177.5"/>
<text text-anchor="middle" x="422.55" y="-164" font-family="Times,serif" font-size="10.00">socket</text>
</a>
</g>
</g>
<!-- Node9&#45;&gt;Node1 -->
<g id="edge8_Node000001_Node000009" class="edge">
<title>Node9&#45;&gt;Node1</title>
<g id="a_edge8_Node000001_Node000009"><a xlink:title=" ">
<path fill="none" stroke="#9a32cd" stroke-dasharray="5,2" d="M454.65,-170.71C490.16,-174.18 549.91,-180.7 600.8,-189.62 606.53,-190.63 612.5,-191.81 618.42,-193.06"/>
<polygon fill="#9a32cd" stroke="#9a32cd" points="455.38,-167.27 445.09,-169.8 454.71,-174.24 455.38,-167.27"/>
</a>
</g>
<text text-anchor="middle" x="550.55" y="-190.62" font-family="Times,serif" font-size="10.00" fill="grey"> socket_</text>
</g>
<!-- Node10 -->
<g id="Node000010" class="node">
<title>Node10</title>
<g id="a_Node000010"><a xlink:title=" ">
<polygon fill="white" stroke="#666666" points="478.17,-139.75 366.92,-139.75 366.92,-98 478.17,-98 478.17,-139.75"/>
<text text-anchor="start" x="374.92" y="-126.25" font-family="Times,serif" font-size="10.00">std::shared_ptr&lt; mal</text>
<text text-anchor="start" x="374.92" y="-115" font-family="Times,serif" font-size="10.00">_packet_weaver::crypto</text>
<text text-anchor="middle" x="422.55" y="-103.75" font-family="Times,serif" font-size="10.00">::EncryptionInterface &gt;</text>
</a>
</g>
</g>
<!-- Node10&#45;&gt;Node1 -->
<g id="edge9_Node000001_Node000010" class="edge">
<title>Node10&#45;&gt;Node1</title>
<g id="a_edge9_Node000001_Node000010"><a xlink:title=" ">
<path fill="none" stroke="#9a32cd" stroke-dasharray="5,2" d="M489.91,-128.73C523.98,-135.21 565.61,-145.38 600.8,-160.62 617.75,-167.97 635.07,-179.62 647.8,-189.13"/>
<polygon fill="#9a32cd" stroke="#9a32cd" points="490.62,-125.3 480.15,-126.94 489.36,-132.19 490.62,-125.3"/>
</a>
</g>
<text text-anchor="middle" x="550.55" y="-161.62" font-family="Times,serif" font-size="10.00" fill="grey"> encryption_</text>
</g>
<!-- Node11 -->
<g id="Node000011" class="node">
<title>Node11</title>
<g id="a_Node000011"><a xlink:href="../../d7/da7/classmal__packet__weaver_1_1crypto_1_1_encryption_interface.html" target="_top" xlink:title=" ">
<polygon fill="white" stroke="#666666" points="204.55,-157.12 79.05,-157.12 79.05,-126.62 204.55,-126.62 204.55,-157.12"/>
<text text-anchor="start" x="87.05" y="-143.62" font-family="Times,serif" font-size="10.00">mal_packet_weaver::</text>
<text text-anchor="middle" x="141.8" y="-132.38" font-family="Times,serif" font-size="10.00">crypto::EncryptionInterface</text>
</a>
</g>
</g>
<!-- Node11&#45;&gt;Node10 -->
<g id="edge10_Node000010_Node000011" class="edge">
<title>Node11&#45;&gt;Node10</title>
<g id="a_edge10_Node000010_Node000011"><a xlink:title=" ">
<path fill="none" stroke="#9a32cd" stroke-dasharray="5,2" d="M216.38,-135.8C263.5,-131.92 323.64,-126.95 366.6,-123.41"/>
<polygon fill="#9a32cd" stroke="#9a32cd" points="216.2,-132.31 206.52,-136.62 216.77,-139.28 216.2,-132.31"/>
</a>
</g>
<text text-anchor="middle" x="283.67" y="-136.62" font-family="Times,serif" font-size="10.00" fill="grey"> ptr</text>
</g>
<!-- Node12 -->
<g id="Node000012" class="node">
<title>Node12</title>
<g id="a_Node000012"><a xlink:title=" ">
<polygon fill="white" stroke="#666666" points="191.05,-105.5 92.55,-105.5 92.55,-86.25 191.05,-86.25 191.05,-105.5"/>
<text text-anchor="middle" x="141.8" y="-92" font-family="Times,serif" font-size="10.00">std::shared_ptr&lt; T &gt;</text>
</a>
</g>
</g>
<!-- Node12&#45;&gt;Node10 -->
<g id="edge11_Node000010_Node000012" class="edge">
<title>Node12&#45;&gt;Node10</title>
<g id="a_edge11_Node000010_Node000012"><a xlink:title=" ">
<path fill="none" stroke="orange" stroke-dasharray="5,2" d="M202.47,-92.74C242.84,-91.57 297.26,-91.84 344.8,-98.38 351.9,-99.35 359.29,-100.78 366.55,-102.43"/>
<polygon fill="orange" stroke="orange" points="202.6,-89.24 192.72,-93.07 202.83,-96.23 202.6,-89.24"/>
</a>
</g>
<text text-anchor="start" x="222.55" y="-110.88" font-family="Times,serif" font-size="10.00" fill="grey"> &lt; mal_packet_weaver</text>
<text text-anchor="middle" x="283.67" y="-99.62" font-family="Times,serif" font-size="10.00" fill="grey">::crypto::EncryptionInterface &gt;</text>
</g>
<!-- Node13 -->
<g id="Node000013" class="node">
<title>Node13</title>
<g id="a_Node000013"><a xlink:title=" ">
<polygon fill="white" stroke="#666666" points="28.8,-105.5 0,-105.5 0,-86.25 28.8,-86.25 28.8,-105.5"/>
<text text-anchor="middle" x="14.4" y="-92" font-family="Times,serif" font-size="10.00">T</text>
</a>
</g>
</g>
<!-- Node13&#45;&gt;Node12 -->
<g id="edge12_Node000012_Node000013" class="edge">
<title>Node13&#45;&gt;Node12</title>
<g id="a_edge12_Node000012_Node000013"><a xlink:title=" ">
<path fill="none" stroke="#9a32cd" stroke-dasharray="5,2" d="M40.56,-95.88C55.36,-95.88 74.58,-95.88 92.22,-95.88"/>
<polygon fill="#9a32cd" stroke="#9a32cd" points="40.81,-92.38 30.81,-95.88 40.81,-99.38 40.81,-92.38"/>
</a>
</g>
<text text-anchor="middle" x="53.92" y="-97.62" font-family="Times,serif" font-size="10.00" fill="grey"> ptr</text>
</g>
<!-- Node14 -->
<g id="Node000014" class="node">
<title>Node14</title>
<g id="a_Node000014"><a xlink:title=" ">
<polygon fill="white" stroke="#666666" points="451.17,-79.5 393.92,-79.5 393.92,-60.25 451.17,-60.25 451.17,-79.5"/>
<text text-anchor="middle" x="422.55" y="-66" font-family="Times,serif" font-size="10.00">std::mutex</text>
</a>
</g>
</g>
<!-- Node14&#45;&gt;Node1 -->
<g id="edge13_Node000001_Node000014" class="edge">
<title>Node14&#45;&gt;Node1</title>
<g id="a_edge13_Node000001_Node000014"><a xlink:title=" ">
<path fill="none" stroke="#9a32cd" stroke-dasharray="5,2" d="M462.5,-72.47C500.59,-76.63 558.83,-87.46 600.8,-115.62 628.9,-134.48 649.71,-169.26 660.07,-189.39"/>
<polygon fill="#9a32cd" stroke="#9a32cd" points="463.17,-69.02 452.88,-71.53 462.49,-75.99 463.17,-69.02"/>
</a>
</g>
<text text-anchor="middle" x="550.55" y="-116.62" font-family="Times,serif" font-size="10.00" fill="grey"> packet_receiver_mutex_</text>
</g>
<!-- Node15 -->
<g id="Node000015" class="node">
<title>Node15</title>
<g id="a_Node000015"><a xlink:title=" ">
<polygon fill="white" stroke="#666666" points="472.17,-41.75 372.92,-41.75 372.92,0 472.17,0 472.17,-41.75"/>
<text text-anchor="start" x="380.92" y="-28.25" font-family="Times,serif" font-size="10.00">function&lt; void(std</text>
<text text-anchor="start" x="380.92" y="-17" font-family="Times,serif" font-size="10.00">::unique_ptr&lt; Packet</text>
<text text-anchor="middle" x="422.55" y="-5.75" font-family="Times,serif" font-size="10.00"> &gt; &amp;&amp;)&gt;</text>
</a>
</g>
</g>
<!-- Node15&#45;&gt;Node1 -->
<g id="edge14_Node000001_Node000015" class="edge">
<title>Node15&#45;&gt;Node1</title>
<g id="a_edge14_Node000001_Node000015"><a xlink:title=" ">
<path fill="none" stroke="#9a32cd" stroke-dasharray="5,2" d="M483.81,-22.53C521.11,-26.44 567.99,-36.91 600.8,-63.62 641.38,-96.67 658.64,-160.17 664.68,-189.43"/>
<polygon fill="#9a32cd" stroke="#9a32cd" points="484.35,-19.06 474.08,-21.65 483.72,-26.03 484.35,-19.06"/>
</a>
</g>
<text text-anchor="middle" x="550.55" y="-64.62" font-family="Times,serif" font-size="10.00" fill="grey"> packet_receiver_</text>
</g>
</g>
</svg>
