<?xml version="1.0" encoding="UTF-8" standalone="no"?>
<!DOCTYPE svg PUBLIC "-//W3C//DTD SVG 1.1//EN"
 "http://www.w3.org/Graphics/SVG/1.1/DTD/svg11.dtd">
<!-- Generated by graphviz version 8.1.0 (20230707.0739)
 -->
<!-- Title: mal_packet_weaver::Session Pages: 1 -->
<!--zoomable 385 -->

<svg id="main" version="1.1" xmlns="http://www.w3.org/2000/svg" xmlns:xlink="http://www.w3.org/1999/xlink" xml:space="preserve" onload="init(evt)">
<style type="text/css"><![CDATA[
.node, .edge {opacity: 0.7;}
.node.selected, .edge.selected {opacity: 1;}
.edge:hover path { stroke: red; }
.edge:hover polygon { stroke: red; fill: red; }
]]></style>

<defs>
  <circle id="rim" cx="0" cy="0" r="7"/>
  <circle id="rim2" cx="0" cy="0" r="3.5"/>
  <g id="zoomPlus">
    <use xlink:href="#rim" fill="#404040"><set attributeName="fill" to="#808080" begin="zoomplus.mouseover" end="zoomplus.mouseout"/></use>
    <path d="M-4,0h8M0,-4v8" fill="none" stroke="white" stroke-width="1.5" pointer-events="none"/>
  </g>
  <g id="zoomMin">
    <use xlink:href="#rim" fill="#404040"><set attributeName="fill" to="#808080" begin="zoomminus.mouseover" end="zoomminus.mouseout"/></use>
    <path d="M-4,0h8" fill="none" stroke="white" stroke-width="1.5" pointer-events="none"/>
  </g>
  <g id="arrowUp" transform="translate(30 24)">
    <use xlink:href="#rim"/>
    <path pointer-events="none" fill="none" stroke="white" stroke-width="1.5" d="M0,-3.0v7 M-2.5,-0.5L0,-3.0L2.5,-0.5"/>
  </g>
  <g id="arrowRight" transform="rotate(90) translate(36 -43)">
    <use xlink:href="#rim"/>
    <path pointer-events="none" fill="none" stroke="white" stroke-width="1.5" d="M0,-3.0v7 M-2.5,-0.5L0,-3.0L2.5,-0.5"/>
  </g>
  <g id="arrowDown" transform="rotate(180) translate(-30 -48)">
    <use xlink:href="#rim"/>
    <path pointer-events="none" fill="none" stroke="white" stroke-width="1.5" d="M0,-3.0v7 M-2.5,-0.5L0,-3.0L2.5,-0.5"/>
  </g>
  <g id="arrowLeft" transform="rotate(270) translate(-36 17)">
    <use xlink:href="#rim"/>
    <path pointer-events="none" fill="none" stroke="white" stroke-width="1.5" d="M0,-3.0v7 M-2.5,-0.5L0,-3.0L2.5,-0.5"/>
  </g>
  <g id="resetDef">
    <use xlink:href="#rim2" fill="#404040"><set attributeName="fill" to="#808080" begin="reset.mouseover" end="reset.mouseout"/></use>
  </g>
</defs>
<script type="application/ecmascript">
var viewWidth = 1228;
var viewHeight = 385;
var sectionId = 'dynsection-1';
</script>
<script type="application/ecmascript" xlink:href="../../svg.min.js"/>
<svg id="graph" class="graph">
<g id="viewport">
<title>mal_packet_weaver::Session</title>
<!-- Node1 -->
<g id="Node000001" class="node">
<title>Node1</title>
<g id="a_Node000001"><a xlink:title="Represents a network session for sending and receiving packets.">
<polygon fill="#999999" stroke="#666666" points="1220.3,-220.12 1121.05,-220.12 1121.05,-189.62 1220.3,-189.62 1220.3,-220.12"/>
<text text-anchor="start" x="1129.05" y="-206.62" font-family="Times,serif" font-size="10.00">mal_packet_weaver::</text>
<text text-anchor="middle" x="1170.68" y="-195.38" font-family="Times,serif" font-size="10.00">Session</text>
</a>
</g>
</g>
<!-- Node2 -->
<g id="Node000002" class="node">
<title>Node2</title>
<g id="a_Node000002"><a xlink:title=" ">
<polygon fill="white" stroke="#666666" points="515.68,-341.12 423.93,-341.12 423.93,-310.62 515.68,-310.62 515.68,-341.12"/>
<text text-anchor="start" x="431.93" y="-327.62" font-family="Times,serif" font-size="10.00">utils::non_copyable</text>
<text text-anchor="middle" x="469.8" y="-316.38" font-family="Times,serif" font-size="10.00">_non_movable</text>
</a>
</g>
</g>
<!-- Node2&#45;&gt;Node1 -->
<g id="edge1_Node000001_Node000002" class="edge">
<title>Node2&#45;&gt;Node1</title>
<g id="a_edge1_Node000001_Node000002"><a xlink:title=" ">
<path fill="none" stroke="#63b8ff" d="M526.75,-338.69C621.39,-358.55 818.94,-392.16 984.55,-368.88 1038.81,-361.25 1060.73,-369.68 1103.05,-334.88 1140.26,-304.27 1158.94,-247.48 1166.09,-220.24"/>
<polygon fill="#63b8ff" stroke="#63b8ff" points="527.51,-335.06 517,-336.4 526.05,-341.91 527.51,-335.06"/>
</a>
</g>
</g>
<!-- Node9 -->
<g id="Node000009" class="node">
<title>Node9</title>
<g id="a_Node000009"><a xlink:href="../../d9/d37/classmal__packet__weaver_1_1crypto_1_1_a_e_s_1_1_a_e_s256.html" target="_top" xlink:title="Provides AES&#45;256 encryption and decryption functionality using OpenSSL.">
<polygon fill="white" stroke="#666666" points="801.3,-235.12 696.8,-235.12 696.8,-204.62 801.3,-204.62 801.3,-235.12"/>
<text text-anchor="start" x="704.8" y="-221.62" font-family="Times,serif" font-size="10.00">mal_packet_weaver::</text>
<text text-anchor="middle" x="749.05" y="-210.38" font-family="Times,serif" font-size="10.00">crypto::AES::AES256</text>
</a>
</g>
</g>
<!-- Node2&#45;&gt;Node9 -->
<g id="edge9_Node000009_Node000002" class="edge">
<title>Node2&#45;&gt;Node9</title>
<g id="a_edge9_Node000009_Node000002"><a xlink:title=" ">
<path fill="none" stroke="#8b1a1a" d="M526.58,-312.22C569.21,-300.89 628.93,-283.07 678.8,-260.88 694.76,-253.77 711.64,-243.83 724.74,-235.52"/>
<polygon fill="#8b1a1a" stroke="#8b1a1a" points="525.91,-309.04 517.12,-314.96 527.68,-315.81 525.91,-309.04"/>
</a>
</g>
</g>
<!-- Node3 -->
<g id="Node000003" class="node">
<title>Node3</title>
<g id="a_Node000003"><a xlink:title=" ">
<polygon fill="white" stroke="#666666" points="970.68,-360.12 865.43,-360.12 865.43,-329.62 970.68,-329.62 970.68,-360.12"/>
<text text-anchor="start" x="873.43" y="-346.62" font-family="Times,serif" font-size="10.00">std::enable_shared</text>
<text text-anchor="middle" x="918.05" y="-335.38" font-family="Times,serif" font-size="10.00">_from_this&lt; Session &gt;</text>
</a>
</g>
</g>
<!-- Node3&#45;&gt;Node1 -->
<g id="edge2_Node000001_Node000003" class="edge">
<title>Node3&#45;&gt;Node1</title>
<g id="a_edge2_Node000001_Node000003"><a xlink:title=" ">
<path fill="none" stroke="#63b8ff" d="M982.04,-342.43C1019.91,-338.29 1067.5,-328.14 1103.05,-303.88 1133.85,-282.85 1154.28,-242.45 1163.69,-220.31"/>
<polygon fill="#63b8ff" stroke="#63b8ff" points="981.74,-339.04 972.13,-343.49 982.42,-346.01 981.74,-339.04"/>
</a>
</g>
</g>
<!-- Node4 -->
<g id="Node000004" class="node">
<title>Node4</title>
<g id="a_Node000004"><a xlink:title=" ">
<polygon fill="white" stroke="#666666" points="984.55,-311.75 851.55,-311.75 851.55,-270 984.55,-270 984.55,-311.75"/>
<text text-anchor="start" x="859.55" y="-298.25" font-family="Times,serif" font-size="10.00">queue&lt; mal_packet_weaver</text>
<text text-anchor="start" x="859.55" y="-287" font-family="Times,serif" font-size="10.00">::ByteArray *, boost::lockfree</text>
<text text-anchor="middle" x="918.05" y="-275.75" font-family="Times,serif" font-size="10.00">::fixed_sized&lt; true &gt; &gt;</text>
</a>
</g>
</g>
<!-- Node4&#45;&gt;Node1 -->
<g id="edge3_Node000001_Node000004" class="edge">
<title>Node4&#45;&gt;Node1</title>
<g id="a_edge3_Node000001_Node000004"><a xlink:title=" ">
<path fill="none" stroke="#9a32cd" stroke-dasharray="5,2" d="M995.39,-279.13C1029.22,-272.4 1068.99,-262.33 1103.05,-247.88 1119.65,-240.83 1136.71,-229.73 1149.41,-220.58"/>
<polygon fill="#9a32cd" stroke="#9a32cd" points="994.79,-275.88 985.63,-281.2 996.11,-282.75 994.79,-275.88"/>
</a>
</g>
<text text-anchor="middle" x="1052.8" y="-289.88" font-family="Times,serif" font-size="10.00" fill="grey"> packets_to_send_</text>
<text text-anchor="middle" x="1052.8" y="-278.62" font-family="Times,serif" font-size="10.00" fill="grey">received_packets_</text>
</g>
<!-- Node5 -->
<g id="Node000005" class="node">
<title>Node5</title>
<g id="a_Node000005"><a xlink:title=" ">
<polygon fill="white" stroke="#666666" points="934.68,-251.5 901.43,-251.5 901.43,-232.25 934.68,-232.25 934.68,-251.5"/>
<text text-anchor="middle" x="918.05" y="-238" font-family="Times,serif" font-size="10.00">bool</text>
</a>
</g>
</g>
<!-- Node5&#45;&gt;Node1 -->
<g id="edge4_Node000001_Node000005" class="edge">
<title>Node5&#45;&gt;Node1</title>
<g id="a_edge4_Node000001_Node000005"><a xlink:title=" ">
<path fill="none" stroke="#9a32cd" stroke-dasharray="5,2" d="M945.4,-239.58C981.24,-236.27 1047.26,-229.46 1103.05,-219.88 1108.78,-218.89 1114.75,-217.73 1120.67,-216.51"/>
<polygon fill="#9a32cd" stroke="#9a32cd" points="945.52,-236.15 935.88,-240.53 946.16,-243.12 945.52,-236.15"/>
</a>
</g>
<text text-anchor="middle" x="1052.8" y="-234.62" font-family="Times,serif" font-size="10.00" fill="grey"> alive_</text>
</g>
<!-- Node6 -->
<g id="Node000006" class="node">
<title>Node6</title>
<g id="a_Node000006"><a xlink:title=" ">
<polygon fill="white" stroke="#666666" points="946.3,-214.5 889.8,-214.5 889.8,-195.25 946.3,-195.25 946.3,-214.5"/>
<text text-anchor="middle" x="918.05" y="-201" font-family="Times,serif" font-size="10.00">streambuf</text>
</a>
</g>
</g>
<!-- Node6&#45;&gt;Node1 -->
<g id="edge5_Node000001_Node000006" class="edge">
<title>Node6&#45;&gt;Node1</title>
<g id="a_edge5_Node000001_Node000006"><a xlink:title=" ">
<path fill="none" stroke="#9a32cd" stroke-dasharray="5,2" d="M957.12,-204.88C1000.95,-204.88 1073.06,-204.88 1120.95,-204.88"/>
<polygon fill="#9a32cd" stroke="#9a32cd" points="957.35,-201.38 947.35,-204.88 957.35,-208.38 957.35,-201.38"/>
</a>
</g>
<text text-anchor="middle" x="1052.8" y="-206.62" font-family="Times,serif" font-size="10.00" fill="grey"> buffer_</text>
</g>
<!-- Node7 -->
<g id="Node000007" class="node">
<title>Node7</title>
<g id="a_Node000007"><a xlink:title=" ">
<polygon fill="white" stroke="#666666" points="938.8,-177.5 897.3,-177.5 897.3,-158.25 938.8,-158.25 938.8,-177.5"/>
<text text-anchor="middle" x="918.05" y="-164" font-family="Times,serif" font-size="10.00">socket</text>
</a>
</g>
</g>
<!-- Node7&#45;&gt;Node1 -->
<g id="edge6_Node000001_Node000007" class="edge">
<title>Node7&#45;&gt;Node1</title>
<g id="a_edge6_Node000001_Node000007"><a xlink:title=" ">
<path fill="none" stroke="#9a32cd" stroke-dasharray="5,2" d="M949.97,-170.51C986.65,-173.87 1049.57,-180.37 1103.05,-189.62 1108.78,-190.62 1114.76,-191.79 1120.68,-193.03"/>
<polygon fill="#9a32cd" stroke="#9a32cd" points="950.3,-166.93 940.03,-169.53 949.68,-173.91 950.3,-166.93"/>
</a>
</g>
<text text-anchor="middle" x="1052.8" y="-190.62" font-family="Times,serif" font-size="10.00" fill="grey"> socket_</text>
</g>
<!-- Node8 -->
<g id="Node000008" class="node">
<title>Node8</title>
<g id="a_Node000008"><a xlink:title=" ">
<polygon fill="white" stroke="#666666" points="973.68,-139.75 862.43,-139.75 862.43,-98 973.68,-98 973.68,-139.75"/>
<text text-anchor="start" x="870.43" y="-126.25" font-family="Times,serif" font-size="10.00">std::unique_ptr&lt; mal</text>
<text text-anchor="start" x="870.43" y="-115" font-family="Times,serif" font-size="10.00">_packet_weaver::crypto</text>
<text text-anchor="middle" x="918.05" y="-103.75" font-family="Times,serif" font-size="10.00">::AES::AES256 &gt;</text>
</a>
</g>
</g>
<!-- Node8&#45;&gt;Node1 -->
<g id="edge7_Node000001_Node000008" class="edge">
<title>Node8&#45;&gt;Node1</title>
<g id="a_edge7_Node000001_Node000008"><a xlink:title=" ">
<path fill="none" stroke="#9a32cd" stroke-dasharray="5,2" d="M984.2,-127.73C1020.23,-134.07 1065.23,-144.43 1103.05,-160.62 1120.15,-167.95 1137.61,-179.73 1150.36,-189.3"/>
<polygon fill="#9a32cd" stroke="#9a32cd" points="985.25,-124.19 974.81,-125.96 984.08,-131.09 985.25,-124.19"/>
</a>
</g>
<text text-anchor="middle" x="1052.8" y="-161.62" font-family="Times,serif" font-size="10.00" fill="grey"> aes_</text>
</g>
<!-- Node9&#45;&gt;Node8 -->
<g id="edge8_Node000008_Node000009" class="edge">
<title>Node9&#45;&gt;Node8</title>
<g id="a_edge8_Node000008_Node000009"><a xlink:title=" ">
<path fill="none" stroke="#9a32cd" stroke-dasharray="5,2" d="M778.5,-197.89C798.36,-183.07 825.82,-163.61 851.55,-148.88 856.76,-145.89 862.32,-142.97 867.91,-140.2"/>
<polygon fill="#9a32cd" stroke="#9a32cd" points="776.82,-195.52 770.94,-204.34 781.04,-201.11 776.82,-195.52"/>
</a>
</g>
<text text-anchor="middle" x="826.43" y="-169.62" font-family="Times,serif" font-size="10.00" fill="grey"> ptr</text>
</g>
<!-- Node10 -->
<g id="Node000010" class="node">
<title>Node10</title>
<g id="a_Node000010"><a xlink:title=" ">
<polygon fill="white" stroke="#666666" points="526.55,-254.5 413.05,-254.5 413.05,-235.25 526.55,-235.25 526.55,-254.5"/>
<text text-anchor="middle" x="469.8" y="-241" font-family="Times,serif" font-size="10.00">static constexpr uint32_t</text>
</a>
</g>
</g>
<!-- Node10&#45;&gt;Node9 -->
<g id="edge10_Node000009_Node000010" class="edge">
<title>Node10&#45;&gt;Node9</title>
<g id="a_edge10_Node000009_Node000010"><a xlink:title=" ">
<path fill="none" stroke="#9a32cd" stroke-dasharray="5,2" d="M537.7,-238.84C586.59,-234.43 651.9,-228.55 696.7,-224.51"/>
<polygon fill="#9a32cd" stroke="#9a32cd" points="537.55,-235.43 527.91,-239.82 538.18,-242.4 537.55,-235.43"/>
</a>
</g>
<text text-anchor="middle" x="628.18" y="-246.88" font-family="Times,serif" font-size="10.00" fill="grey"> KEY_SIZE</text>
<text text-anchor="middle" x="628.18" y="-235.62" font-family="Times,serif" font-size="10.00" fill="grey">SALT_SIZE</text>
</g>
<!-- Node11 -->
<g id="Node000011" class="node">
<title>Node11</title>
<g id="a_Node000011"><a xlink:title=" ">
<polygon fill="white" stroke="#666666" points="559.55,-217.38 380.05,-217.38 380.05,-164.38 559.55,-164.38 559.55,-217.38"/>
<text text-anchor="start" x="388.05" y="-203.88" font-family="Times,serif" font-size="10.00">std::unique_ptr&lt; EVP</text>
<text text-anchor="start" x="388.05" y="-192.62" font-family="Times,serif" font-size="10.00">_CIPHER_CTX, OPENSSL</text>
<text text-anchor="start" x="388.05" y="-181.38" font-family="Times,serif" font-size="10.00">_OBJECT_WRAPPER&lt; EVP_CIPHER</text>
<text text-anchor="middle" x="469.8" y="-170.12" font-family="Times,serif" font-size="10.00">_CTX &gt; &gt;</text>
</a>
</g>
</g>
<!-- Node11&#45;&gt;Node9 -->
<g id="edge11_Node000009_Node000011" class="edge">
<title>Node11&#45;&gt;Node9</title>
<g id="a_edge11_Node000009_Node000011"><a xlink:title=" ">
<path fill="none" stroke="#9a32cd" stroke-dasharray="5,2" d="M570.42,-189.96C604.93,-190.96 643.74,-193.56 678.8,-199.38 685.97,-200.56 693.45,-202.27 700.73,-204.19"/>
<polygon fill="#9a32cd" stroke="#9a32cd" points="570.94,-186.45 560.85,-189.7 570.77,-193.45 570.94,-186.45"/>
</a>
</g>
<text text-anchor="middle" x="628.18" y="-211.88" font-family="Times,serif" font-size="10.00" fill="grey"> decrypt_context_</text>
<text text-anchor="middle" x="628.18" y="-200.62" font-family="Times,serif" font-size="10.00" fill="grey">encrypt_context_</text>
</g>
<!-- Node12 -->
<g id="Node000012" class="node">
<title>Node12</title>
<g id="a_Node000012"><a xlink:title=" ">
<polygon fill="white" stroke="#666666" points="180.55,-218.5 79.05,-218.5 79.05,-199.25 180.55,-199.25 180.55,-218.5"/>
<text text-anchor="middle" x="129.8" y="-205" font-family="Times,serif" font-size="10.00">EVP_CIPHER_CTX</text>
</a>
</g>
</g>
<!-- Node12&#45;&gt;Node11 -->
<g id="edge12_Node000011_Node000012" class="edge">
<title>Node12&#45;&gt;Node11</title>
<g id="a_edge12_Node000011_Node000012"><a xlink:title=" ">
<path fill="none" stroke="#9a32cd" stroke-dasharray="5,2" d="M191.85,-205.62C244.3,-202.83 320.6,-198.77 379.84,-195.61"/>
<polygon fill="#9a32cd" stroke="#9a32cd" points="191.84,-202.17 182.04,-206.2 192.21,-209.16 191.84,-202.17"/>
</a>
</g>
<text text-anchor="middle" x="280.3" y="-206.62" font-family="Times,serif" font-size="10.00" fill="grey"> ptr</text>
</g>
<!-- Node13 -->
<g id="Node000013" class="node">
<title>Node13</title>
<g id="a_Node000013"><a xlink:title=" ">
<polygon fill="white" stroke="#666666" points="179.43,-145.5 80.18,-145.5 80.18,-126.25 179.43,-126.25 179.43,-145.5"/>
<text text-anchor="middle" x="129.8" y="-132" font-family="Times,serif" font-size="10.00">std::unique_ptr&lt; T &gt;</text>
</a>
</g>
</g>
<!-- Node13&#45;&gt;Node8 -->
<g id="edge15_Node000008_Node000013" class="edge">
<title>Node13&#45;&gt;Node8</title>
<g id="a_edge15_Node000008_Node000013"><a xlink:title=" ">
<path fill="none" stroke="orange" stroke-dasharray="5,2" d="M190.33,-134.59C337.99,-131.4 719.49,-123.15 862.14,-120.06"/>
<polygon fill="orange" stroke="orange" points="190.61,-131.1 180.69,-134.82 190.76,-138.1 190.61,-131.1"/>
</a>
</g>
<text text-anchor="start" x="577.55" y="-138.88" font-family="Times,serif" font-size="10.00" fill="grey"> &lt; mal_packet_weaver</text>
<text text-anchor="middle" x="628.18" y="-127.62" font-family="Times,serif" font-size="10.00" fill="grey">::crypto::AES::AES256 &gt;</text>
</g>
<!-- Node13&#45;&gt;Node11 -->
<g id="edge13_Node000011_Node000013" class="edge">
<title>Node13&#45;&gt;Node11</title>
<g id="a_edge13_Node000011_Node000013"><a xlink:title=" ">
<path fill="none" stroke="orange" stroke-dasharray="5,2" d="M190.39,-138.3C237.38,-141.01 304.38,-146.63 362.05,-158.12 370.13,-159.74 378.47,-161.71 386.76,-163.89"/>
<polygon fill="orange" stroke="orange" points="190.67,-134.76 180.49,-137.71 190.29,-141.75 190.67,-134.76"/>
</a>
</g>
<text text-anchor="start" x="198.55" y="-182.12" font-family="Times,serif" font-size="10.00" fill="grey"> &lt; EVP_CIPHER_CTX, OPENSSL</text>
<text text-anchor="start" x="198.55" y="-170.88" font-family="Times,serif" font-size="10.00" fill="grey">_OBJECT_WRAPPER&lt; EVP_CIPHER</text>
<text text-anchor="middle" x="280.3" y="-159.62" font-family="Times,serif" font-size="10.00" fill="grey">_CTX &gt; &gt;</text>
</g>
<!-- Node14 -->
<g id="Node000014" class="node">
<title>Node14</title>
<g id="a_Node000014"><a xlink:title=" ">
<polygon fill="white" stroke="#666666" points="28.8,-145.5 0,-145.5 0,-126.25 28.8,-126.25 28.8,-145.5"/>
<text text-anchor="middle" x="14.4" y="-132" font-family="Times,serif" font-size="10.00">T</text>
</a>
</g>
</g>
<!-- Node14&#45;&gt;Node13 -->
<g id="edge14_Node000013_Node000014" class="edge">
<title>Node14&#45;&gt;Node13</title>
<g id="a_edge14_Node000013_Node000014"><a xlink:title=" ">
<path fill="none" stroke="#9a32cd" stroke-dasharray="5,2" d="M39.56,-135.88C51.34,-135.88 65.95,-135.88 79.92,-135.88"/>
<polygon fill="#9a32cd" stroke="#9a32cd" points="39.85,-132.38 29.85,-135.88 39.85,-139.38 39.85,-132.38"/>
</a>
</g>
<text text-anchor="middle" x="53.93" y="-137.62" font-family="Times,serif" font-size="10.00" fill="grey"> ptr</text>
</g>
<!-- Node15 -->
<g id="Node000015" class="node">
<title>Node15</title>
<g id="a_Node000015"><a xlink:title=" ">
<polygon fill="white" stroke="#666666" points="946.68,-79.5 889.43,-79.5 889.43,-60.25 946.68,-60.25 946.68,-79.5"/>
<text text-anchor="middle" x="918.05" y="-66" font-family="Times,serif" font-size="10.00">std::mutex</text>
</a>
</g>
</g>
<!-- Node15&#45;&gt;Node1 -->
<g id="edge16_Node000001_Node000015" class="edge">
<title>Node15&#45;&gt;Node1</title>
<g id="a_edge16_Node000001_Node000015"><a xlink:title=" ">
<path fill="none" stroke="#9a32cd" stroke-dasharray="5,2" d="M957.7,-71.95C997.18,-75.7 1058.79,-86.21 1103.05,-115.62 1131.23,-134.36 1152.02,-169.18 1162.35,-189.35"/>
<polygon fill="#9a32cd" stroke="#9a32cd" points="958.2,-68.39 947.94,-71.04 957.61,-75.37 958.2,-68.39"/>
</a>
</g>
<text text-anchor="middle" x="1052.8" y="-116.62" font-family="Times,serif" font-size="10.00" fill="grey"> packet_receiver_mutex_</text>
</g>
<!-- Node16 -->
<g id="Node000016" class="node">
<title>Node16</title>
<g id="a_Node000016"><a xlink:title=" ">
<polygon fill="white" stroke="#666666" points="967.68,-41.75 868.43,-41.75 868.43,0 967.68,0 967.68,-41.75"/>
<text text-anchor="start" x="876.43" y="-28.25" font-family="Times,serif" font-size="10.00">function&lt; void(std</text>
<text text-anchor="start" x="876.43" y="-17" font-family="Times,serif" font-size="10.00">::unique_ptr&lt; Packet</text>
<text text-anchor="middle" x="918.05" y="-5.75" font-family="Times,serif" font-size="10.00"> &gt; &amp;&amp;)&gt;</text>
</a>
</g>
</g>
<!-- Node16&#45;&gt;Node1 -->
<g id="edge17_Node000001_Node000016" class="edge">
<title>Node16&#45;&gt;Node1</title>
<g id="a_edge17_Node000001_Node000016"><a xlink:title=" ">
<path fill="none" stroke="#9a32cd" stroke-dasharray="5,2" d="M978.61,-21.3C1017.78,-24.48 1068.07,-34.46 1103.05,-62.62 1144.04,-95.64 1161.09,-159.72 1167,-189.27"/>
<polygon fill="#9a32cd" stroke="#9a32cd" points="979.1,-17.76 968.88,-20.57 978.62,-24.74 979.1,-17.76"/>
</a>
</g>
<text text-anchor="middle" x="1052.8" y="-63.62" font-family="Times,serif" font-size="10.00" fill="grey"> packet_receiver_</text>
</g>
</g>
</svg>

<g id="navigator" transform="translate(0 0)" fill="#404254">
  <rect fill="#f2f5e9" fill-opacity="0.5" stroke="#606060" stroke-width=".5" x="0" y="0" width="60" height="60"/>
  <use id="zoomplus" xlink:href="#zoomPlus" x="17" y="9" onmousedown="handleZoom(evt,'in')"/>
  <use id="zoomminus" xlink:href="#zoomMin" x="42" y="9" onmousedown="handleZoom(evt,'out')"/>
  <use id="reset" xlink:href="#resetDef" x="30" y="36" onmousedown="handleReset()"/>
   <use id="arrowup" xlink:href="#arrowUp" x="0" y="0" onmousedown="handlePan(0,-1)"/>
  <use id="arrowright" xlink:href="#arrowRight" x="0" y="0" onmousedown="handlePan(1,0)"/>
  <use id="arrowdown" xlink:href="#arrowDown" x="0" y="0" onmousedown="handlePan(0,1)"/>
  <use id="arrowleft" xlink:href="#arrowLeft" x="0" y="0" onmousedown="handlePan(-1,0)"/>
</g>
<svg viewBox="0 0 15 15" width="100%" height="30px" preserveAspectRatio="xMaxYMin meet">
 <g id="arrow_out" transform="scale(0.3 0.3)">
  <a xlink:href="classmal__packet__weaver_1_1_session__coll__graph_org.svg" target="_base">
   <rect id="button" ry="5" rx="5" y="6" x="6" height="38" width="38"
        fill="#f2f5e9" fill-opacity="0.5" stroke="#606060" stroke-width="1.0"/>
   <path id="arrow"
     d="M 11.500037,31.436501 C 11.940474,20.09759 22.043105,11.32322 32.158766,21.979434 L 37.068811,17.246167 C 37.068811,17.246167 37.088388,32 37.088388,32 L 22.160133,31.978069 C 22.160133,31.978069 26.997745,27.140456 26.997745,27.140456 C 18.528582,18.264221 13.291696,25.230495 11.500037,31.436501 z"
     style="fill:#404040;"/>
  </a>
 </g>
</svg>

<style type='text/css'>
<![CDATA[
[data-mouse-over-selected='false'] { opacity: 0.7; }
[data-mouse-over-selected='true']  { opacity: 1.0; }
]]>
</style>
<script type="application/ecmascript"><![CDATA[
document.addEventListener('DOMContentLoaded', (event) => {
  highlightEdges();
  highlightAdjacentNodes();
});
]]></script>
</svg>
