<?xml version="1.0" encoding="UTF-8" standalone="no"?>
<!DOCTYPE svg PUBLIC "-//W3C//DTD SVG 1.1//EN"
 "http://www.w3.org/Graphics/SVG/1.1/DTD/svg11.dtd">
<!-- Generated by graphviz version 8.1.0 (20230707.0739)
 -->
<!-- Title: mal_packet_weaver::Session Pages: 1 -->
<!--zoomable 405 -->

<svg id="main" version="1.1" xmlns="http://www.w3.org/2000/svg" xmlns:xlink="http://www.w3.org/1999/xlink" xml:space="preserve" onload="init(evt)">
<style type="text/css"><![CDATA[
.node, .edge {opacity: 0.7;}
.node.selected, .edge.selected {opacity: 1;}
.edge:hover path { stroke: red; }
.edge:hover polygon { stroke: red; fill: red; }
]]></style>

<defs>
  <circle id="rim" cx="0" cy="0" r="7"/>
  <circle id="rim2" cx="0" cy="0" r="3.5"/>
  <g id="zoomPlus">
    <use xlink:href="#rim" fill="#404040"><set attributeName="fill" to="#808080" begin="zoomplus.mouseover" end="zoomplus.mouseout"/></use>
    <path d="M-4,0h8M0,-4v8" fill="none" stroke="white" stroke-width="1.5" pointer-events="none"/>
  </g>
  <g id="zoomMin">
    <use xlink:href="#rim" fill="#404040"><set attributeName="fill" to="#808080" begin="zoomminus.mouseover" end="zoomminus.mouseout"/></use>
    <path d="M-4,0h8" fill="none" stroke="white" stroke-width="1.5" pointer-events="none"/>
  </g>
  <g id="arrowUp" transform="translate(30 24)">
    <use xlink:href="#rim"/>
    <path pointer-events="none" fill="none" stroke="white" stroke-width="1.5" d="M0,-3.0v7 M-2.5,-0.5L0,-3.0L2.5,-0.5"/>
  </g>
  <g id="arrowRight" transform="rotate(90) translate(36 -43)">
    <use xlink:href="#rim"/>
    <path pointer-events="none" fill="none" stroke="white" stroke-width="1.5" d="M0,-3.0v7 M-2.5,-0.5L0,-3.0L2.5,-0.5"/>
  </g>
  <g id="arrowDown" transform="rotate(180) translate(-30 -48)">
    <use xlink:href="#rim"/>
    <path pointer-events="none" fill="none" stroke="white" stroke-width="1.5" d="M0,-3.0v7 M-2.5,-0.5L0,-3.0L2.5,-0.5"/>
  </g>
  <g id="arrowLeft" transform="rotate(270) translate(-36 17)">
    <use xlink:href="#rim"/>
    <path pointer-events="none" fill="none" stroke="white" stroke-width="1.5" d="M0,-3.0v7 M-2.5,-0.5L0,-3.0L2.5,-0.5"/>
  </g>
  <g id="resetDef">
    <use xlink:href="#rim2" fill="#404040"><set attributeName="fill" to="#808080" begin="reset.mouseover" end="reset.mouseout"/></use>
  </g>
</defs>
<script type="application/ecmascript">
var viewWidth = 698;
var viewHeight = 405;
var sectionId = 'dynsection-1';
</script>
<script type="application/ecmascript" xlink:href="../../svg.min.js"/>
<svg id="graph" class="graph">
<g id="viewport">
<title>mal_packet_weaver::Session</title>
<!-- Node1 -->
<g id="Node000001" class="node">
<title>Node1</title>
<g id="a_Node000001"><a xlink:title="Represents a network session for sending and receiving packets.">
<polygon fill="#999999" stroke="#666666" points="690.3,-208.12 591.05,-208.12 591.05,-177.62 690.3,-177.62 690.3,-208.12"/>
<text text-anchor="start" x="599.05" y="-194.62" font-family="Times,serif" font-size="10.00">mal_packet_weaver::</text>
<text text-anchor="middle" x="640.67" y="-183.38" font-family="Times,serif" font-size="10.00">Session</text>
</a>
</g>
</g>
<!-- Node2 -->
<g id="Node000002" class="node">
<title>Node2</title>
<g id="a_Node000002"><a xlink:title=" ">
<polygon fill="white" stroke="#666666" points="447.8,-397.12 328.3,-397.12 328.3,-366.62 447.8,-366.62 447.8,-397.12"/>
<text text-anchor="start" x="336.3" y="-383.62" font-family="Times,serif" font-size="10.00">mal_toolkit::non_copyable</text>
<text text-anchor="middle" x="388.05" y="-372.38" font-family="Times,serif" font-size="10.00">_non_movable</text>
</a>
</g>
</g>
<!-- Node2&#45;&gt;Node1 -->
<g id="edge1_Node000001_Node000002" class="edge">
<title>Node2&#45;&gt;Node1</title>
<g id="a_edge1_Node000001_Node000002"><a xlink:title=" ">
<path fill="none" stroke="#63b8ff" d="M458.56,-372.78C495.97,-364.87 540.9,-350.16 573.05,-322.88 609.59,-291.86 628.49,-235.78 635.88,-208.55"/>
<polygon fill="#63b8ff" stroke="#63b8ff" points="458.35,-369.46 449.22,-374.84 459.71,-376.32 458.35,-369.46"/>
</a>
</g>
</g>
<!-- Node3 -->
<g id="Node000003" class="node">
<title>Node3</title>
<g id="a_Node000003"><a xlink:title=" ">
<polygon fill="white" stroke="#666666" points="440.67,-348.12 335.42,-348.12 335.42,-317.62 440.67,-317.62 440.67,-348.12"/>
<text text-anchor="start" x="343.42" y="-334.62" font-family="Times,serif" font-size="10.00">std::enable_shared</text>
<text text-anchor="middle" x="388.05" y="-323.38" font-family="Times,serif" font-size="10.00">_from_this&lt; Session &gt;</text>
</a>
</g>
</g>
<!-- Node3&#45;&gt;Node1 -->
<g id="edge2_Node000001_Node000003" class="edge">
<title>Node3&#45;&gt;Node1</title>
<g id="a_edge2_Node000001_Node000003"><a xlink:title=" ">
<path fill="none" stroke="#63b8ff" d="M452.04,-330.43C489.91,-326.29 537.5,-316.14 573.05,-291.88 603.85,-270.85 624.28,-230.45 633.69,-208.31"/>
<polygon fill="#63b8ff" stroke="#63b8ff" points="451.74,-327.04 442.13,-331.49 452.42,-334.01 451.74,-327.04"/>
</a>
</g>
</g>
<!-- Node4 -->
<g id="Node000004" class="node">
<title>Node4</title>
<g id="a_Node000004"><a xlink:title=" ">
<polygon fill="white" stroke="#666666" points="454.55,-299.75 321.55,-299.75 321.55,-258 454.55,-258 454.55,-299.75"/>
<text text-anchor="start" x="329.55" y="-286.25" font-family="Times,serif" font-size="10.00">queue&lt; mal_packet_weaver</text>
<text text-anchor="start" x="329.55" y="-275" font-family="Times,serif" font-size="10.00">::ByteArray *, boost::lockfree</text>
<text text-anchor="middle" x="388.05" y="-263.75" font-family="Times,serif" font-size="10.00">::fixed_sized&lt; true &gt; &gt;</text>
</a>
</g>
</g>
<!-- Node4&#45;&gt;Node1 -->
<g id="edge3_Node000001_Node000004" class="edge">
<title>Node4&#45;&gt;Node1</title>
<g id="a_edge3_Node000001_Node000004"><a xlink:title=" ">
<path fill="none" stroke="#9a32cd" stroke-dasharray="5,2" d="M465.39,-267.13C499.22,-260.4 538.99,-250.33 573.05,-235.88 589.65,-228.83 606.71,-217.73 619.41,-208.58"/>
<polygon fill="#9a32cd" stroke="#9a32cd" points="464.79,-263.88 455.63,-269.2 466.11,-270.75 464.79,-263.88"/>
</a>
</g>
<text text-anchor="middle" x="522.8" y="-277.88" font-family="Times,serif" font-size="10.00" fill="grey"> packets_to_send_</text>
<text text-anchor="middle" x="522.8" y="-266.62" font-family="Times,serif" font-size="10.00" fill="grey">received_packets_</text>
</g>
<!-- Node5 -->
<g id="Node000005" class="node">
<title>Node5</title>
<g id="a_Node000005"><a xlink:title=" ">
<polygon fill="white" stroke="#666666" points="404.67,-239.5 371.42,-239.5 371.42,-220.25 404.67,-220.25 404.67,-239.5"/>
<text text-anchor="middle" x="388.05" y="-226" font-family="Times,serif" font-size="10.00">bool</text>
</a>
</g>
</g>
<!-- Node5&#45;&gt;Node1 -->
<g id="edge4_Node000001_Node000005" class="edge">
<title>Node5&#45;&gt;Node1</title>
<g id="a_edge4_Node000001_Node000005"><a xlink:title=" ">
<path fill="none" stroke="#9a32cd" stroke-dasharray="5,2" d="M415.4,-227.58C451.24,-224.27 517.26,-217.46 573.05,-207.88 578.78,-206.89 584.75,-205.73 590.67,-204.51"/>
<polygon fill="#9a32cd" stroke="#9a32cd" points="415.52,-224.15 405.88,-228.53 416.16,-231.12 415.52,-224.15"/>
</a>
</g>
<text text-anchor="middle" x="522.8" y="-222.62" font-family="Times,serif" font-size="10.00" fill="grey"> alive_</text>
</g>
<!-- Node6 -->
<g id="Node000006" class="node">
<title>Node6</title>
<g id="a_Node000006"><a xlink:title=" ">
<polygon fill="white" stroke="#666666" points="416.3,-202.5 359.8,-202.5 359.8,-183.25 416.3,-183.25 416.3,-202.5"/>
<text text-anchor="middle" x="388.05" y="-189" font-family="Times,serif" font-size="10.00">streambuf</text>
</a>
</g>
</g>
<!-- Node6&#45;&gt;Node1 -->
<g id="edge5_Node000001_Node000006" class="edge">
<title>Node6&#45;&gt;Node1</title>
<g id="a_edge5_Node000001_Node000006"><a xlink:title=" ">
<path fill="none" stroke="#9a32cd" stroke-dasharray="5,2" d="M427.12,-192.88C470.95,-192.88 543.06,-192.88 590.95,-192.88"/>
<polygon fill="#9a32cd" stroke="#9a32cd" points="427.35,-189.38 417.35,-192.88 427.35,-196.38 427.35,-189.38"/>
</a>
</g>
<text text-anchor="middle" x="522.8" y="-194.62" font-family="Times,serif" font-size="10.00" fill="grey"> buffer_</text>
</g>
<!-- Node7 -->
<g id="Node000007" class="node">
<title>Node7</title>
<g id="a_Node000007"><a xlink:title=" ">
<polygon fill="white" stroke="#666666" points="408.8,-165.5 367.3,-165.5 367.3,-146.25 408.8,-146.25 408.8,-165.5"/>
<text text-anchor="middle" x="388.05" y="-152" font-family="Times,serif" font-size="10.00">socket</text>
</a>
</g>
</g>
<!-- Node7&#45;&gt;Node1 -->
<g id="edge6_Node000001_Node000007" class="edge">
<title>Node7&#45;&gt;Node1</title>
<g id="a_edge6_Node000001_Node000007"><a xlink:title=" ">
<path fill="none" stroke="#9a32cd" stroke-dasharray="5,2" d="M419.97,-158.51C456.65,-161.87 519.57,-168.37 573.05,-177.62 578.78,-178.62 584.76,-179.79 590.68,-181.03"/>
<polygon fill="#9a32cd" stroke="#9a32cd" points="420.3,-154.93 410.03,-157.53 419.68,-161.91 420.3,-154.93"/>
</a>
</g>
<text text-anchor="middle" x="522.8" y="-178.62" font-family="Times,serif" font-size="10.00" fill="grey"> socket_</text>
</g>
<!-- Node8 -->
<g id="Node000008" class="node">
<title>Node8</title>
<g id="a_Node000008"><a xlink:title=" ">
<polygon fill="white" stroke="#666666" points="443.67,-128.12 332.42,-128.12 332.42,-97.62 443.67,-97.62 443.67,-128.12"/>
<text text-anchor="start" x="340.42" y="-114.62" font-family="Times,serif" font-size="10.00">std::unique_ptr&lt; crypto</text>
<text text-anchor="middle" x="388.05" y="-103.38" font-family="Times,serif" font-size="10.00">::AES::AES256 &gt;</text>
</a>
</g>
</g>
<!-- Node8&#45;&gt;Node1 -->
<g id="edge7_Node000001_Node000008" class="edge">
<title>Node8&#45;&gt;Node1</title>
<g id="a_edge7_Node000001_Node000008"><a xlink:title=" ">
<path fill="none" stroke="#9a32cd" stroke-dasharray="5,2" d="M454.66,-119.25C490.62,-124.3 535.39,-133.19 573.05,-148.62 590.39,-155.74 607.97,-167.65 620.72,-177.33"/>
<polygon fill="#9a32cd" stroke="#9a32cd" points="455.18,-115.65 444.81,-117.8 454.26,-122.59 455.18,-115.65"/>
</a>
</g>
<text text-anchor="middle" x="522.8" y="-149.62" font-family="Times,serif" font-size="10.00" fill="grey"> aes_</text>
</g>
<!-- Node9 -->
<g id="Node000009" class="node">
<title>Node9</title>
<g id="a_Node000009"><a xlink:title=" ">
<polygon fill="white" stroke="#666666" points="153.92,-139.5 103.42,-139.5 103.42,-120.25 153.92,-120.25 153.92,-139.5"/>
<text text-anchor="middle" x="128.67" y="-126" font-family="Times,serif" font-size="10.00">AES256</text>
</a>
</g>
</g>
<!-- Node9&#45;&gt;Node8 -->
<g id="edge8_Node000008_Node000009" class="edge">
<title>Node9&#45;&gt;Node8</title>
<g id="a_edge8_Node000008_Node000009"><a xlink:title=" ">
<path fill="none" stroke="#9a32cd" stroke-dasharray="5,2" d="M165.15,-127.53C208.26,-124.68 281.48,-119.85 331.95,-116.51"/>
<polygon fill="#9a32cd" stroke="#9a32cd" points="165.1,-124.09 155.35,-128.24 165.56,-131.08 165.1,-124.09"/>
</a>
</g>
<text text-anchor="middle" x="249.92" y="-126.62" font-family="Times,serif" font-size="10.00" fill="grey"> ptr</text>
</g>
<!-- Node10 -->
<g id="Node000010" class="node">
<title>Node10</title>
<g id="a_Node000010"><a xlink:title=" ">
<polygon fill="white" stroke="#666666" points="178.3,-102.5 79.05,-102.5 79.05,-83.25 178.3,-83.25 178.3,-102.5"/>
<text text-anchor="middle" x="128.67" y="-89" font-family="Times,serif" font-size="10.00">std::unique_ptr&lt; T &gt;</text>
</a>
</g>
</g>
<!-- Node10&#45;&gt;Node8 -->
<g id="edge9_Node000008_Node000010" class="edge">
<title>Node10&#45;&gt;Node8</title>
<g id="a_edge9_Node000008_Node000010"><a xlink:title=" ">
<path fill="none" stroke="orange" stroke-dasharray="5,2" d="M189.03,-95.23C222.67,-96.81 265.51,-99.23 303.55,-102.62 312.86,-103.46 322.73,-104.51 332.31,-105.63"/>
<polygon fill="orange" stroke="orange" points="189.6,-91.71 179.45,-94.75 189.28,-98.7 189.6,-91.71"/>
</a>
</g>
<text text-anchor="middle" x="249.92" y="-103.62" font-family="Times,serif" font-size="10.00" fill="grey"> &lt; crypto::AES::AES256 &gt;</text>
</g>
<!-- Node11 -->
<g id="Node000011" class="node">
<title>Node11</title>
<g id="a_Node000011"><a xlink:title=" ">
<polygon fill="white" stroke="#666666" points="28.8,-102.5 0,-102.5 0,-83.25 28.8,-83.25 28.8,-102.5"/>
<text text-anchor="middle" x="14.4" y="-89" font-family="Times,serif" font-size="10.00">T</text>
</a>
</g>
</g>
<!-- Node11&#45;&gt;Node10 -->
<g id="edge10_Node000010_Node000011" class="edge">
<title>Node11&#45;&gt;Node10</title>
<g id="a_edge10_Node000010_Node000011"><a xlink:title=" ">
<path fill="none" stroke="#9a32cd" stroke-dasharray="5,2" d="M39.96,-92.88C51.32,-92.88 65.25,-92.88 78.63,-92.88"/>
<polygon fill="#9a32cd" stroke="#9a32cd" points="40.17,-89.38 30.17,-92.88 40.17,-96.38 40.17,-89.38"/>
</a>
</g>
<text text-anchor="middle" x="53.92" y="-94.62" font-family="Times,serif" font-size="10.00" fill="grey"> ptr</text>
</g>
<!-- Node12 -->
<g id="Node000012" class="node">
<title>Node12</title>
<g id="a_Node000012"><a xlink:title=" ">
<polygon fill="white" stroke="#666666" points="416.67,-79.5 359.42,-79.5 359.42,-60.25 416.67,-60.25 416.67,-79.5"/>
<text text-anchor="middle" x="388.05" y="-66" font-family="Times,serif" font-size="10.00">std::mutex</text>
</a>
</g>
</g>
<!-- Node12&#45;&gt;Node1 -->
<g id="edge11_Node000001_Node000012" class="edge">
<title>Node12&#45;&gt;Node1</title>
<g id="a_edge11_Node000001_Node000012"><a xlink:title=" ">
<path fill="none" stroke="#9a32cd" stroke-dasharray="5,2" d="M428.11,-69.89C467.47,-71.61 528.58,-79.05 573.05,-106.62 601.03,-123.98 621.75,-157.59 632.16,-177.34"/>
<polygon fill="#9a32cd" stroke="#9a32cd" points="428.23,-66.36 418.13,-69.54 428.01,-73.36 428.23,-66.36"/>
</a>
</g>
<text text-anchor="middle" x="522.8" y="-107.62" font-family="Times,serif" font-size="10.00" fill="grey"> packet_receiver_mutex_</text>
</g>
<!-- Node13 -->
<g id="Node000013" class="node">
<title>Node13</title>
<g id="a_Node000013"><a xlink:title=" ">
<polygon fill="white" stroke="#666666" points="437.67,-41.75 338.42,-41.75 338.42,0 437.67,0 437.67,-41.75"/>
<text text-anchor="start" x="346.42" y="-28.25" font-family="Times,serif" font-size="10.00">function&lt; void(std</text>
<text text-anchor="start" x="346.42" y="-17" font-family="Times,serif" font-size="10.00">::unique_ptr&lt; Packet</text>
<text text-anchor="middle" x="388.05" y="-5.75" font-family="Times,serif" font-size="10.00"> &gt; &amp;&amp;)&gt;</text>
</a>
</g>
</g>
<!-- Node13&#45;&gt;Node1 -->
<g id="edge12_Node000001_Node000013" class="edge">
<title>Node13&#45;&gt;Node1</title>
<g id="a_edge12_Node000001_Node000013"><a xlink:title=" ">
<path fill="none" stroke="#9a32cd" stroke-dasharray="5,2" d="M448.97,-20.13C487.92,-22.56 537.82,-31.49 573.05,-58.62 612.42,-88.95 630.13,-148.75 636.59,-177.17"/>
<polygon fill="#9a32cd" stroke="#9a32cd" points="449.19,-16.58 439.03,-19.59 448.85,-23.58 449.19,-16.58"/>
</a>
</g>
<text text-anchor="middle" x="522.8" y="-59.62" font-family="Times,serif" font-size="10.00" fill="grey"> packet_receiver_</text>
</g>
</g>
</svg>

<g id="navigator" transform="translate(0 0)" fill="#404254">
  <rect fill="#f2f5e9" fill-opacity="0.5" stroke="#606060" stroke-width=".5" x="0" y="0" width="60" height="60"/>
  <use id="zoomplus" xlink:href="#zoomPlus" x="17" y="9" onmousedown="handleZoom(evt,'in')"/>
  <use id="zoomminus" xlink:href="#zoomMin" x="42" y="9" onmousedown="handleZoom(evt,'out')"/>
  <use id="reset" xlink:href="#resetDef" x="30" y="36" onmousedown="handleReset()"/>
   <use id="arrowup" xlink:href="#arrowUp" x="0" y="0" onmousedown="handlePan(0,-1)"/>
  <use id="arrowright" xlink:href="#arrowRight" x="0" y="0" onmousedown="handlePan(1,0)"/>
  <use id="arrowdown" xlink:href="#arrowDown" x="0" y="0" onmousedown="handlePan(0,1)"/>
  <use id="arrowleft" xlink:href="#arrowLeft" x="0" y="0" onmousedown="handlePan(-1,0)"/>
</g>
<svg viewBox="0 0 15 15" width="100%" height="30px" preserveAspectRatio="xMaxYMin meet">
 <g id="arrow_out" transform="scale(0.3 0.3)">
  <a xlink:href="classmal__packet__weaver_1_1_session__coll__graph_org.svg" target="_base">
   <rect id="button" ry="5" rx="5" y="6" x="6" height="38" width="38"
        fill="#f2f5e9" fill-opacity="0.5" stroke="#606060" stroke-width="1.0"/>
   <path id="arrow"
     d="M 11.500037,31.436501 C 11.940474,20.09759 22.043105,11.32322 32.158766,21.979434 L 37.068811,17.246167 C 37.068811,17.246167 37.088388,32 37.088388,32 L 22.160133,31.978069 C 22.160133,31.978069 26.997745,27.140456 26.997745,27.140456 C 18.528582,18.264221 13.291696,25.230495 11.500037,31.436501 z"
     style="fill:#404040;"/>
  </a>
 </g>
</svg>

<style type='text/css'>
<![CDATA[
[data-mouse-over-selected='false'] { opacity: 0.7; }
[data-mouse-over-selected='true']  { opacity: 1.0; }
]]>
</style>
<script type="application/ecmascript"><![CDATA[
document.addEventListener('DOMContentLoaded', (event) => {
  highlightEdges();
  highlightAdjacentNodes();
});
]]></script>
</svg>
