<?xml version="1.0" encoding="UTF-8" standalone="no"?>
<!DOCTYPE svg PUBLIC "-//W3C//DTD SVG 1.1//EN"
 "http://www.w3.org/Graphics/SVG/1.1/DTD/svg11.dtd">
<!-- Generated by graphviz version 11.0.0 (20240428.1522)
 -->
<!-- Title: mal_packet_weaver::Session Pages: 1 -->
<svg width="318pt" height="160pt"
 viewBox="0.00 0.00 318.38 160.25" xmlns="http://www.w3.org/2000/svg" xmlns:xlink="http://www.w3.org/1999/xlink">
<g id="graph0" class="graph" transform="scale(1 1) rotate(0) translate(4 156.25)">
<title>mal_packet_weaver::Session</title>
<!-- Node1 -->
<g id="Node000001" class="node">
<title>Node1</title>
<g id="a_Node000001"><a xlink:title="Represents a network session for sending and receiving packets.">
<polygon fill="#999999" stroke="#666666" points="242.38,-30.5 143.12,-30.5 143.12,0 242.38,0 242.38,-30.5"/>
<text text-anchor="start" x="151.12" y="-17" font-family="Times,serif" font-size="10.00">mal_packet_weaver::</text>
<text text-anchor="middle" x="192.75" y="-5.75" font-family="Times,serif" font-size="10.00">Session</text>
</a>
</g>
</g>
<!-- Node2 -->
<g id="Node000002" class="node">
<title>Node2</title>
<g id="a_Node000002"><a xlink:href="../../d2/df3/classmal__toolkit_1_1non__copyable__non__movable.html" target="_top" xlink:title="A class that can&#39;t be copied neither moved.">
<polygon fill="white" stroke="#666666" points="187.5,-97 68,-97 68,-66.5 187.5,-66.5 187.5,-97"/>
<text text-anchor="start" x="76" y="-83.5" font-family="Times,serif" font-size="10.00">mal_toolkit::non_copyable</text>
<text text-anchor="middle" x="127.75" y="-72.25" font-family="Times,serif" font-size="10.00">_non_movable</text>
</a>
</g>
</g>
<!-- Node2&#45;&gt;Node1 -->
<g id="edge1_Node000001_Node000002" class="edge">
<title>Node2&#45;&gt;Node1</title>
<g id="a_edge1_Node000001_Node000002"><a xlink:title=" ">
<path fill="none" stroke="#63b8ff" d="M150.49,-58.19C159.64,-49.11 169.92,-38.9 178.06,-30.83"/>
<polygon fill="#63b8ff" stroke="#63b8ff" points="148.21,-55.52 143.57,-65.05 153.14,-60.49 148.21,-55.52"/>
</a>
</g>
</g>
<!-- Node3 -->
<g id="Node000003" class="node">
<title>Node3</title>
<g id="a_Node000003"><a xlink:href="../../d1/dd3/classmal__toolkit_1_1non__copyable.html" target="_top" xlink:title="A class that can&#39;t be copied.">
<polygon fill="white" stroke="#666666" points="119.5,-152.25 0,-152.25 0,-133 119.5,-133 119.5,-152.25"/>
<text text-anchor="middle" x="59.75" y="-138.75" font-family="Times,serif" font-size="10.00">mal_toolkit::non_copyable</text>
</a>
</g>
</g>
<!-- Node3&#45;&gt;Node2 -->
<g id="edge2_Node000002_Node000003" class="edge">
<title>Node3&#45;&gt;Node2</title>
<g id="a_edge2_Node000002_Node000003"><a xlink:title=" ">
<path fill="none" stroke="#63b8ff" d="M78.62,-125.29C88.76,-116.51 101.16,-105.77 110.97,-97.28"/>
<polygon fill="#63b8ff" stroke="#63b8ff" points="76.49,-122.5 71.22,-131.69 81.07,-127.79 76.49,-122.5"/>
</a>
</g>
</g>
<!-- Node4 -->
<g id="Node000004" class="node">
<title>Node4</title>
<g id="a_Node000004"><a xlink:href="../../db/d86/classmal__toolkit_1_1non__movable.html" target="_top" xlink:title="A class that can&#39;t be moved.">
<polygon fill="white" stroke="#666666" points="255.75,-152.25 137.75,-152.25 137.75,-133 255.75,-133 255.75,-152.25"/>
<text text-anchor="middle" x="196.75" y="-138.75" font-family="Times,serif" font-size="10.00">mal_toolkit::non_movable</text>
</a>
</g>
</g>
<!-- Node4&#45;&gt;Node2 -->
<g id="edge3_Node000002_Node000004" class="edge">
<title>Node4&#45;&gt;Node2</title>
<g id="a_edge3_Node000002_Node000004"><a xlink:title=" ">
<path fill="none" stroke="#63b8ff" d="M177.6,-125.29C167.31,-116.51 154.73,-105.77 144.78,-97.28"/>
<polygon fill="#63b8ff" stroke="#63b8ff" points="175.24,-127.87 185.12,-131.7 179.78,-122.55 175.24,-127.87"/>
</a>
</g>
</g>
<!-- Node5 -->
<g id="Node000005" class="node">
<title>Node5</title>
<g id="a_Node000005"><a xlink:title=" ">
<polygon fill="white" stroke="#666666" points="310.38,-97 205.12,-97 205.12,-66.5 310.38,-66.5 310.38,-97"/>
<text text-anchor="start" x="213.12" y="-83.5" font-family="Times,serif" font-size="10.00">std::enable_shared</text>
<text text-anchor="middle" x="257.75" y="-72.25" font-family="Times,serif" font-size="10.00">_from_this&lt; Session &gt;</text>
</a>
</g>
</g>
<!-- Node5&#45;&gt;Node1 -->
<g id="edge4_Node000001_Node000005" class="edge">
<title>Node5&#45;&gt;Node1</title>
<g id="a_edge4_Node000001_Node000005"><a xlink:title=" ">
<path fill="none" stroke="#63b8ff" d="M235.01,-58.19C225.86,-49.11 215.58,-38.9 207.44,-30.83"/>
<polygon fill="#63b8ff" stroke="#63b8ff" points="232.36,-60.49 241.93,-65.05 237.29,-55.52 232.36,-60.49"/>
</a>
</g>
</g>
</g>
</svg>
