<?xml version="1.0" encoding="UTF-8" standalone="no"?>
<!DOCTYPE svg PUBLIC "-//W3C//DTD SVG 1.1//EN"
 "http://www.w3.org/Graphics/SVG/1.1/DTD/svg11.dtd">
<!-- Generated by graphviz version 8.1.0 (20230707.0739)
 -->
<!-- Title: mal&#45;packet&#45;weaver/mal&#45;packet&#45;weaver/packet&#45;impl/portable&#45;binary&#45;archive.hpp Pages: 1 -->
<svg width="606pt" height="128pt"
 viewBox="0.00 0.00 606.00 127.50" xmlns="http://www.w3.org/2000/svg" xmlns:xlink="http://www.w3.org/1999/xlink">
<g id="graph0" class="graph" transform="scale(1 1) rotate(0) translate(4 123.5)">
<title>mal&#45;packet&#45;weaver/mal&#45;packet&#45;weaver/packet&#45;impl/portable&#45;binary&#45;archive.hpp</title>
<!-- Node1 -->
<g id="Node000001" class="node">
<title>Node1</title>
<g id="a_Node000001"><a xlink:title=" ">
<polygon fill="#999999" stroke="#666666" points="361.5,-119.5 254,-119.5 254,-66.5 361.5,-66.5 361.5,-119.5"/>
<text text-anchor="start" x="262" y="-106" font-family="Times,serif" font-size="10.00">mal&#45;packet&#45;weaver/mal</text>
<text text-anchor="start" x="262" y="-94.75" font-family="Times,serif" font-size="10.00">&#45;packet&#45;weaver/packet</text>
<text text-anchor="start" x="262" y="-83.5" font-family="Times,serif" font-size="10.00">&#45;impl/portable&#45;binary</text>
<text text-anchor="middle" x="307.75" y="-72.25" font-family="Times,serif" font-size="10.00">&#45;archive.hpp</text>
</a>
</g>
</g>
<!-- Node2 -->
<g id="Node000002" class="node">
<title>Node2</title>
<g id="a_Node000002"><a xlink:title=" ">
<polygon fill="#e0e0e0" stroke="#999999" points="83.5,-24.88 0,-24.88 0,-5.63 83.5,-5.63 83.5,-24.88"/>
<text text-anchor="middle" x="41.75" y="-11.38" font-family="Times,serif" font-size="10.00">boost/config.hpp</text>
</a>
</g>
</g>
<!-- Node1&#45;&gt;Node2 -->
<g id="edge1_Node000001_Node000002" class="edge">
<title>Node1&#45;&gt;Node2</title>
<g id="a_edge1_Node000001_Node000002"><a xlink:title=" ">
<path fill="none" stroke="#63b8ff" d="M253.6,-76.58C203.54,-62.32 130.14,-41.42 84.2,-28.34"/>
<polygon fill="#63b8ff" stroke="#63b8ff" points="85.28,-24.72 74.71,-25.35 83.36,-31.46 85.28,-24.72"/>
</a>
</g>
</g>
<!-- Node3 -->
<g id="Node000003" class="node">
<title>Node3</title>
<g id="a_Node000003"><a xlink:title=" ">
<polygon fill="#e0e0e0" stroke="#999999" points="188,-24.88 101.5,-24.88 101.5,-5.63 188,-5.63 188,-24.88"/>
<text text-anchor="middle" x="144.75" y="-11.38" font-family="Times,serif" font-size="10.00">boost/cstdint.hpp</text>
</a>
</g>
</g>
<!-- Node1&#45;&gt;Node3 -->
<g id="edge2_Node000001_Node000003" class="edge">
<title>Node1&#45;&gt;Node3</title>
<g id="a_edge2_Node000001_Node000003"><a xlink:title=" ">
<path fill="none" stroke="#63b8ff" d="M253.93,-66.99C227.35,-54.64 196.32,-40.21 174.14,-29.91"/>
<polygon fill="#63b8ff" stroke="#63b8ff" points="175.87,-26.39 165.33,-25.35 172.92,-32.74 175.87,-26.39"/>
</a>
</g>
</g>
<!-- Node4 -->
<g id="Node000004" class="node">
<title>Node4</title>
<g id="a_Node000004"><a xlink:title=" ">
<polygon fill="#e0e0e0" stroke="#999999" points="315.25,-24.88 206.25,-24.88 206.25,-5.63 315.25,-5.63 315.25,-24.88"/>
<text text-anchor="middle" x="260.75" y="-11.38" font-family="Times,serif" font-size="10.00">boost/static_assert.hpp</text>
</a>
</g>
</g>
<!-- Node1&#45;&gt;Node4 -->
<g id="edge3_Node000001_Node000004" class="edge">
<title>Node1&#45;&gt;Node4</title>
<g id="a_edge3_Node000001_Node000004"><a xlink:title=" ">
<path fill="none" stroke="#63b8ff" d="M291.84,-66.35C285.34,-55.89 277.99,-44.03 272.06,-34.48"/>
<polygon fill="#63b8ff" stroke="#63b8ff" points="274.54,-32.84 266.3,-26.19 268.6,-36.53 274.54,-32.84"/>
</a>
</g>
</g>
<!-- Node5 -->
<g id="Node000005" class="node">
<title>Node5</title>
<g id="a_Node000005"><a xlink:title=" ">
<polygon fill="#e0e0e0" stroke="#999999" points="375.88,-24.88 333.62,-24.88 333.62,-5.63 375.88,-5.63 375.88,-24.88"/>
<text text-anchor="middle" x="354.75" y="-11.38" font-family="Times,serif" font-size="10.00">climits</text>
</a>
</g>
</g>
<!-- Node1&#45;&gt;Node5 -->
<g id="edge4_Node000001_Node000005" class="edge">
<title>Node1&#45;&gt;Node5</title>
<g id="a_edge4_Node000001_Node000005"><a xlink:title=" ">
<path fill="none" stroke="#63b8ff" d="M323.66,-66.35C330.16,-55.89 337.51,-44.03 343.44,-34.48"/>
<polygon fill="#63b8ff" stroke="#63b8ff" points="346.9,-36.53 349.2,-26.19 340.96,-32.84 346.9,-36.53"/>
</a>
</g>
</g>
<!-- Node6 -->
<g id="Node000006" class="node">
<title>Node6</title>
<g id="a_Node000006"><a xlink:title=" ">
<polygon fill="#e0e0e0" stroke="#999999" points="487.38,-30.5 394.12,-30.5 394.12,0 487.38,0 487.38,-30.5"/>
<text text-anchor="start" x="402.12" y="-17" font-family="Times,serif" font-size="10.00">boost/archive/basic</text>
<text text-anchor="middle" x="440.75" y="-5.75" font-family="Times,serif" font-size="10.00">_archive.hpp</text>
</a>
</g>
</g>
<!-- Node1&#45;&gt;Node6 -->
<g id="edge5_Node000001_Node000006" class="edge">
<title>Node1&#45;&gt;Node6</title>
<g id="a_edge5_Node000001_Node000006"><a xlink:title=" ">
<path fill="none" stroke="#63b8ff" d="M353.15,-66.14C370.22,-56.42 389.37,-45.51 405.4,-36.38"/>
<polygon fill="#63b8ff" stroke="#63b8ff" points="406.97,-38.95 413.93,-30.96 403.51,-32.86 406.97,-38.95"/>
</a>
</g>
</g>
<!-- Node7 -->
<g id="Node000007" class="node">
<title>Node7</title>
<g id="a_Node000007"><a xlink:title=" ">
<polygon fill="#e0e0e0" stroke="#999999" points="598,-30.5 505.5,-30.5 505.5,0 598,0 598,-30.5"/>
<text text-anchor="start" x="513.5" y="-17" font-family="Times,serif" font-size="10.00">boost/predef/other</text>
<text text-anchor="middle" x="551.75" y="-5.75" font-family="Times,serif" font-size="10.00">/endian.h</text>
</a>
</g>
</g>
<!-- Node1&#45;&gt;Node7 -->
<g id="edge6_Node000001_Node000007" class="edge">
<title>Node1&#45;&gt;Node7</title>
<g id="a_edge6_Node000001_Node000007"><a xlink:title=" ">
<path fill="none" stroke="#63b8ff" d="M361.9,-75.19C401.34,-62.95 454.65,-46.4 494.74,-33.95"/>
<polygon fill="#63b8ff" stroke="#63b8ff" points="495.63,-37.03 504.15,-30.72 493.56,-30.34 495.63,-37.03"/>
</a>
</g>
</g>
</g>
</svg>
