<?xml version="1.0" encoding="UTF-8" standalone="no"?>
<!DOCTYPE svg PUBLIC "-//W3C//DTD SVG 1.1//EN"
 "http://www.w3.org/Graphics/SVG/1.1/DTD/svg11.dtd">
<!-- Generated by graphviz version 9.0.0 (20230911.1827)
 -->
<!-- Title: mal&#45;packet&#45;weaver/mal&#45;packet&#45;weaver/packet&#45;impl/portable&#45;binary&#45;archive.hpp Pages: 1 -->
<svg width="606pt" height="128pt"
 viewBox="0.00 0.00 606.00 127.50" xmlns="http://www.w3.org/2000/svg" xmlns:xlink="http://www.w3.org/1999/xlink">
<g id="graph0" class="graph" transform="scale(1 1) rotate(0) translate(4 123.5)">
<title>mal&#45;packet&#45;weaver/mal&#45;packet&#45;weaver/packet&#45;impl/portable&#45;binary&#45;archive.hpp</title>
<!-- Node1 -->
<g id="Node000001" class="node">
<title>Node1</title>
<g id="a_Node000001"><a xlink:title=" ">
<polygon fill="#999999" stroke="#666666" points="361.5,-119.5 254,-119.5 254,-66.5 361.5,-66.5 361.5,-119.5"/>
<text text-anchor="start" x="262" y="-106" font-family="Times,serif" font-size="10.00">mal&#45;packet&#45;weaver/mal</text>
<text text-anchor="start" x="262" y="-94.75" font-family="Times,serif" font-size="10.00">&#45;packet&#45;weaver/packet</text>
<text text-anchor="start" x="262" y="-83.5" font-family="Times,serif" font-size="10.00">&#45;impl/portable&#45;binary</text>
<text text-anchor="middle" x="307.75" y="-72.25" font-family="Times,serif" font-size="10.00">&#45;archive.hpp</text>
</a>
</g>
</g>
<!-- Node2 -->
<g id="Node000002" class="node">
<title>Node2</title>
<g id="a_Node000002"><a xlink:title=" ">
<polygon fill="#e0e0e0" stroke="#999999" points="83.5,-24.88 0,-24.88 0,-5.63 83.5,-5.63 83.5,-24.88"/>
<text text-anchor="middle" x="41.75" y="-11.38" font-family="Times,serif" font-size="10.00">boost/config.hpp</text>
</a>
</g>
</g>
<!-- Node1&#45;&gt;Node2 -->
<g id="edge1_Node000001_Node000002" class="edge">
<title>Node1&#45;&gt;Node2</title>
<g id="a_edge1_Node000001_Node000002"><a xlink:title=" ">
<path fill="none" stroke="#63b8ff" d="M253.6,-76.58C203.64,-62.35 130.45,-41.51 84.49,-28.42"/>
<polygon fill="#63b8ff" stroke="#63b8ff" points="85.74,-25.14 75.16,-25.76 83.82,-31.87 85.74,-25.14"/>
</a>
</g>
</g>
<!-- Node3 -->
<g id="Node000003" class="node">
<title>Node3</title>
<g id="a_Node000003"><a xlink:title=" ">
<polygon fill="#e0e0e0" stroke="#999999" points="188,-24.88 101.5,-24.88 101.5,-5.63 188,-5.63 188,-24.88"/>
<text text-anchor="middle" x="144.75" y="-11.38" font-family="Times,serif" font-size="10.00">boost/cstdint.hpp</text>
</a>
</g>
</g>
<!-- Node1&#45;&gt;Node3 -->
<g id="edge2_Node000001_Node000003" class="edge">
<title>Node1&#45;&gt;Node3</title>
<g id="a_edge2_Node000001_Node000003"><a xlink:title=" ">
<path fill="none" stroke="#63b8ff" d="M253.93,-66.99C227.59,-54.75 196.88,-40.47 174.75,-30.19"/>
<polygon fill="#63b8ff" stroke="#63b8ff" points="176.24,-27.03 165.7,-25.99 173.29,-33.37 176.24,-27.03"/>
</a>
</g>
</g>
<!-- Node4 -->
<g id="Node000004" class="node">
<title>Node4</title>
<g id="a_Node000004"><a xlink:title=" ">
<polygon fill="#e0e0e0" stroke="#999999" points="315.25,-24.88 206.25,-24.88 206.25,-5.63 315.25,-5.63 315.25,-24.88"/>
<text text-anchor="middle" x="260.75" y="-11.38" font-family="Times,serif" font-size="10.00">boost/static_assert.hpp</text>
</a>
</g>
</g>
<!-- Node1&#45;&gt;Node4 -->
<g id="edge3_Node000001_Node000004" class="edge">
<title>Node1&#45;&gt;Node4</title>
<g id="a_edge3_Node000001_Node000004"><a xlink:title=" ">
<path fill="none" stroke="#63b8ff" d="M291.84,-66.35C285.41,-56 278.14,-44.28 272.25,-34.78"/>
<polygon fill="#63b8ff" stroke="#63b8ff" points="275.34,-33.13 267.1,-26.48 269.39,-36.82 275.34,-33.13"/>
</a>
</g>
</g>
<!-- Node5 -->
<g id="Node000005" class="node">
<title>Node5</title>
<g id="a_Node000005"><a xlink:title=" ">
<polygon fill="#e0e0e0" stroke="#999999" points="375.88,-24.88 333.62,-24.88 333.62,-5.63 375.88,-5.63 375.88,-24.88"/>
<text text-anchor="middle" x="354.75" y="-11.38" font-family="Times,serif" font-size="10.00">climits</text>
</a>
</g>
</g>
<!-- Node1&#45;&gt;Node5 -->
<g id="edge4_Node000001_Node000005" class="edge">
<title>Node1&#45;&gt;Node5</title>
<g id="a_edge4_Node000001_Node000005"><a xlink:title=" ">
<path fill="none" stroke="#63b8ff" d="M323.66,-66.35C330.09,-56 337.36,-44.28 343.25,-34.78"/>
<polygon fill="#63b8ff" stroke="#63b8ff" points="346.11,-36.82 348.4,-26.48 340.16,-33.13 346.11,-36.82"/>
</a>
</g>
</g>
<!-- Node6 -->
<g id="Node000006" class="node">
<title>Node6</title>
<g id="a_Node000006"><a xlink:title=" ">
<polygon fill="#e0e0e0" stroke="#999999" points="487.38,-30.5 394.12,-30.5 394.12,0 487.38,0 487.38,-30.5"/>
<text text-anchor="start" x="402.12" y="-17" font-family="Times,serif" font-size="10.00">boost/archive/basic</text>
<text text-anchor="middle" x="440.75" y="-5.75" font-family="Times,serif" font-size="10.00">_archive.hpp</text>
</a>
</g>
</g>
<!-- Node1&#45;&gt;Node6 -->
<g id="edge5_Node000001_Node000006" class="edge">
<title>Node1&#45;&gt;Node6</title>
<g id="a_edge5_Node000001_Node000006"><a xlink:title=" ">
<path fill="none" stroke="#63b8ff" d="M353.15,-66.14C370.06,-56.51 389.01,-45.72 404.94,-36.64"/>
<polygon fill="#63b8ff" stroke="#63b8ff" points="406.66,-39.7 413.61,-31.71 403.19,-33.61 406.66,-39.7"/>
</a>
</g>
</g>
<!-- Node7 -->
<g id="Node000007" class="node">
<title>Node7</title>
<g id="a_Node000007"><a xlink:title=" ">
<polygon fill="#e0e0e0" stroke="#999999" points="598,-30.5 505.5,-30.5 505.5,0 598,0 598,-30.5"/>
<text text-anchor="start" x="513.5" y="-17" font-family="Times,serif" font-size="10.00">boost/predef/other</text>
<text text-anchor="middle" x="551.75" y="-5.75" font-family="Times,serif" font-size="10.00">/endian.h</text>
</a>
</g>
</g>
<!-- Node1&#45;&gt;Node7 -->
<g id="edge6_Node000001_Node000007" class="edge">
<title>Node1&#45;&gt;Node7</title>
<g id="a_edge6_Node000001_Node000007"><a xlink:title=" ">
<path fill="none" stroke="#63b8ff" d="M361.9,-75.19C401.17,-63 454.19,-46.54 494.22,-34.11"/>
<polygon fill="#63b8ff" stroke="#63b8ff" points="495.19,-37.47 503.7,-31.17 493.11,-30.79 495.19,-37.47"/>
</a>
</g>
</g>
</g>
</svg>
