<?xml version="1.0" encoding="UTF-8" standalone="no"?>
<!DOCTYPE svg PUBLIC "-//W3C//DTD SVG 1.1//EN"
 "http://www.w3.org/Graphics/SVG/1.1/DTD/svg11.dtd">
<!-- Generated by graphviz version 8.1.0 (20230707.0739)
 -->
<!-- Title: mal_packet_weaver::ByteView::as Pages: 1 -->
<!--zoomable 326 -->

<svg id="main" version="1.1" xmlns="http://www.w3.org/2000/svg" xmlns:xlink="http://www.w3.org/1999/xlink" xml:space="preserve" onload="init(evt)">
<style type="text/css"><![CDATA[
.node, .edge {opacity: 0.7;}
.node.selected, .edge.selected {opacity: 1;}
.edge:hover path { stroke: red; }
.edge:hover polygon { stroke: red; fill: red; }
]]></style>

<defs>
  <circle id="rim" cx="0" cy="0" r="7"/>
  <circle id="rim2" cx="0" cy="0" r="3.5"/>
  <g id="zoomPlus">
    <use xlink:href="#rim" fill="#404040"><set attributeName="fill" to="#808080" begin="zoomplus.mouseover" end="zoomplus.mouseout"/></use>
    <path d="M-4,0h8M0,-4v8" fill="none" stroke="white" stroke-width="1.5" pointer-events="none"/>
  </g>
  <g id="zoomMin">
    <use xlink:href="#rim" fill="#404040"><set attributeName="fill" to="#808080" begin="zoomminus.mouseover" end="zoomminus.mouseout"/></use>
    <path d="M-4,0h8" fill="none" stroke="white" stroke-width="1.5" pointer-events="none"/>
  </g>
  <g id="arrowUp" transform="translate(30 24)">
    <use xlink:href="#rim"/>
    <path pointer-events="none" fill="none" stroke="white" stroke-width="1.5" d="M0,-3.0v7 M-2.5,-0.5L0,-3.0L2.5,-0.5"/>
  </g>
  <g id="arrowRight" transform="rotate(90) translate(36 -43)">
    <use xlink:href="#rim"/>
    <path pointer-events="none" fill="none" stroke="white" stroke-width="1.5" d="M0,-3.0v7 M-2.5,-0.5L0,-3.0L2.5,-0.5"/>
  </g>
  <g id="arrowDown" transform="rotate(180) translate(-30 -48)">
    <use xlink:href="#rim"/>
    <path pointer-events="none" fill="none" stroke="white" stroke-width="1.5" d="M0,-3.0v7 M-2.5,-0.5L0,-3.0L2.5,-0.5"/>
  </g>
  <g id="arrowLeft" transform="rotate(270) translate(-36 17)">
    <use xlink:href="#rim"/>
    <path pointer-events="none" fill="none" stroke="white" stroke-width="1.5" d="M0,-3.0v7 M-2.5,-0.5L0,-3.0L2.5,-0.5"/>
  </g>
  <g id="resetDef">
    <use xlink:href="#rim2" fill="#404040"><set attributeName="fill" to="#808080" begin="reset.mouseover" end="reset.mouseout"/></use>
  </g>
</defs>
<script type="application/ecmascript">
var viewWidth = 622;
var viewHeight = 326;
var sectionId = 'dynsection-2';
</script>
<script type="application/ecmascript" xlink:href="../../svg.min.js"/>
<svg id="graph" class="graph">
<g id="viewport">
<title>mal_packet_weaver::ByteView::as</title>
<!-- Node1 -->
<g id="Node000001" class="node">
<title>Node1</title>
<g id="a_Node000001"><a xlink:title="Convert the ByteView to a typed view.">
<polygon fill="#999999" stroke="#666666" points="613.75,-177.12 514.5,-177.12 514.5,-146.62 613.75,-146.62 613.75,-177.12"/>
<text text-anchor="start" x="522.5" y="-163.62" font-family="Times,serif" font-size="10.00">mal_packet_weaver::</text>
<text text-anchor="middle" x="564.12" y="-152.38" font-family="Times,serif" font-size="10.00">ByteView::as</text>
</a>
</g>
</g>
<!-- Node2 -->
<g id="Node000002" class="node">
<title>Node2</title>
<g id="a_Node000002"><a xlink:href="../../d9/d37/classmal__packet__weaver_1_1crypto_1_1_a_e_s_1_1_a_e_s256.html#a7e57d3beac3e8a2c551e902de9979039" target="_top" xlink:title="Constructor to initialize AES256 with a key and salt.">
<polygon fill="white" stroke="#666666" points="466.12,-317.75 361.62,-317.75 361.62,-276 466.12,-276 466.12,-317.75"/>
<text text-anchor="start" x="369.62" y="-304.25" font-family="Times,serif" font-size="10.00">mal_packet_weaver::</text>
<text text-anchor="start" x="369.62" y="-293" font-family="Times,serif" font-size="10.00">crypto::AES::AES256</text>
<text text-anchor="middle" x="413.88" y="-281.75" font-family="Times,serif" font-size="10.00">::AES256</text>
</a>
</g>
</g>
<!-- Node1&#45;&gt;Node2 -->
<g id="edge1_Node000001_Node000002" class="edge">
<title>Node1&#45;&gt;Node2</title>
<g id="a_edge1_Node000001_Node000002"><a xlink:title=" ">
<path fill="none" stroke="#63b8ff" d="M548.05,-186.42C532.83,-209.59 507.48,-244.08 478.5,-266.88 474.47,-270.05 470.05,-272.98 465.47,-275.68"/>
<polygon fill="#63b8ff" stroke="#63b8ff" points="551.48,-188.56 553.94,-178.25 545.59,-184.78 551.48,-188.56"/>
</a>
</g>
</g>
<!-- Node3 -->
<g id="Node000003" class="node">
<title>Node3</title>
<g id="a_Node000003"><a xlink:href="../../dd/dd7/namespacemal__packet__weaver_1_1crypto_1_1_s_h_a.html#a11d1f9c659cddb5ebfa6f560e4772fb2" target="_top" xlink:title="Computes a hash value for the given data using the specified hash algorithm.">
<polygon fill="white" stroke="#666666" points="478.5,-258.12 349.25,-258.12 349.25,-227.62 478.5,-227.62 478.5,-258.12"/>
<text text-anchor="start" x="357.25" y="-244.62" font-family="Times,serif" font-size="10.00">mal_packet_weaver::</text>
<text text-anchor="middle" x="413.88" y="-233.38" font-family="Times,serif" font-size="10.00">crypto::SHA::ComputeHash</text>
</a>
</g>
</g>
<!-- Node1&#45;&gt;Node3 -->
<g id="edge2_Node000001_Node000003" class="edge">
<title>Node1&#45;&gt;Node3</title>
<g id="a_edge2_Node000001_Node000003"><a xlink:title=" ">
<path fill="none" stroke="#63b8ff" d="M533.96,-183.98C518.11,-195.35 497.84,-208.89 478.5,-218.88 472.73,-221.85 466.5,-224.66 460.28,-227.23"/>
<polygon fill="#63b8ff" stroke="#63b8ff" points="535.73,-186.3 541.75,-177.58 531.6,-180.64 535.73,-186.3"/>
</a>
</g>
</g>
<!-- Node9 -->
<g id="Node000009" class="node">
<title>Node9</title>
<g id="a_Node000009"><a xlink:href="../../d9/d37/classmal__packet__weaver_1_1crypto_1_1_a_e_s_1_1_a_e_s256.html#a28153e7739c614b38c24e720e2c6f787" target="_top" xlink:title="Decrypts ciphertext data using AES&#45;256 CBC mode.">
<polygon fill="white" stroke="#666666" points="466.12,-209.75 361.62,-209.75 361.62,-168 466.12,-168 466.12,-209.75"/>
<text text-anchor="start" x="369.62" y="-196.25" font-family="Times,serif" font-size="10.00">mal_packet_weaver::</text>
<text text-anchor="start" x="369.62" y="-185" font-family="Times,serif" font-size="10.00">crypto::AES::AES256</text>
<text text-anchor="middle" x="413.88" y="-173.75" font-family="Times,serif" font-size="10.00">::decrypt</text>
</a>
</g>
</g>
<!-- Node1&#45;&gt;Node9 -->
<g id="edge8_Node000001_Node000009" class="edge">
<title>Node1&#45;&gt;Node9</title>
<g id="a_edge8_Node000001_Node000009"><a xlink:title=" ">
<path fill="none" stroke="#63b8ff" d="M503.58,-172.72C491.33,-174.95 478.52,-177.28 466.58,-179.46"/>
<polygon fill="#63b8ff" stroke="#63b8ff" points="503.96,-176.03 513.17,-170.79 502.71,-169.14 503.96,-176.03"/>
</a>
</g>
</g>
<!-- Node10 -->
<g id="Node000010" class="node">
<title>Node10</title>
<g id="a_Node000010"><a xlink:href="../../dd/d2b/classmal__packet__weaver_1_1_derived_packet.html#a1622df3e4ea56438f22f362cf1bd77b9" target="_top" xlink:title="Deserialize a byte view into a unique pointer of the specified packet type.">
<polygon fill="white" stroke="#666666" points="474.75,-150.12 353,-150.12 353,-119.62 474.75,-119.62 474.75,-150.12"/>
<text text-anchor="start" x="361" y="-136.62" font-family="Times,serif" font-size="10.00">mal_packet_weaver::</text>
<text text-anchor="middle" x="413.88" y="-125.38" font-family="Times,serif" font-size="10.00">DerivedPacket::deserialize</text>
</a>
</g>
</g>
<!-- Node1&#45;&gt;Node10 -->
<g id="edge9_Node000001_Node000010" class="edge">
<title>Node1&#45;&gt;Node10</title>
<g id="a_edge9_Node000001_Node000010"><a xlink:title=" ">
<path fill="none" stroke="#63b8ff" d="M503.42,-151C494.11,-149.31 484.48,-147.55 475.15,-145.85"/>
<polygon fill="#63b8ff" stroke="#63b8ff" points="502.71,-154.61 513.17,-152.96 503.96,-147.72 502.71,-154.61"/>
</a>
</g>
</g>
<!-- Node11 -->
<g id="Node000011" class="node">
<title>Node11</title>
<g id="a_Node000011"><a xlink:href="../../d9/d37/classmal__packet__weaver_1_1crypto_1_1_a_e_s_1_1_a_e_s256.html#a4126e5bdba9b35fe6dee92a48f6528f0" target="_top" xlink:title="Encrypts plaintext data using AES&#45;256 CBC mode.">
<polygon fill="white" stroke="#666666" points="466.12,-101.75 361.62,-101.75 361.62,-60 466.12,-60 466.12,-101.75"/>
<text text-anchor="start" x="369.62" y="-88.25" font-family="Times,serif" font-size="10.00">mal_packet_weaver::</text>
<text text-anchor="start" x="369.62" y="-77" font-family="Times,serif" font-size="10.00">crypto::AES::AES256</text>
<text text-anchor="middle" x="413.88" y="-65.75" font-family="Times,serif" font-size="10.00">::encrypt</text>
</a>
</g>
</g>
<!-- Node1&#45;&gt;Node11 -->
<g id="edge10_Node000001_Node000011" class="edge">
<title>Node1&#45;&gt;Node11</title>
<g id="a_edge10_Node000001_Node000011"><a xlink:title=" ">
<path fill="none" stroke="#63b8ff" d="M529.59,-140.59C514.23,-131.12 495.66,-120.06 478.5,-110.88 473.01,-107.94 467.18,-104.98 461.37,-102.12"/>
<polygon fill="#63b8ff" stroke="#63b8ff" points="527.36,-143.94 537.7,-146.25 531.05,-138 527.36,-143.94"/>
</a>
</g>
</g>
<!-- Node12 -->
<g id="Node000012" class="node">
<title>Node12</title>
<g id="a_Node000012"><a xlink:href="../../df/d2a/classmal__packet__weaver_1_1crypto_1_1_e_c_d_s_a_1_1_verifier.html#a7dadcfb3708f7f300b62d57574c71543" target="_top" xlink:title="Verifies a hash&#39;s signature.">
<polygon fill="white" stroke="#666666" points="471.75,-41.75 356,-41.75 356,0 471.75,0 471.75,-41.75"/>
<text text-anchor="start" x="364" y="-28.25" font-family="Times,serif" font-size="10.00">mal_packet_weaver::</text>
<text text-anchor="start" x="364" y="-17" font-family="Times,serif" font-size="10.00">crypto::ECDSA::Verifier</text>
<text text-anchor="middle" x="413.88" y="-5.75" font-family="Times,serif" font-size="10.00">::verify_hash</text>
</a>
</g>
</g>
<!-- Node1&#45;&gt;Node12 -->
<g id="edge11_Node000001_Node000012" class="edge">
<title>Node1&#45;&gt;Node12</title>
<g id="a_edge11_Node000001_Node000012"><a xlink:title=" ">
<path fill="none" stroke="#63b8ff" d="M549.06,-137.02C534.16,-112.5 508.64,-75.25 478.5,-50.88 474.61,-47.73 470.33,-44.82 465.89,-42.15"/>
<polygon fill="#63b8ff" stroke="#63b8ff" points="546.49,-138.55 554.6,-145.36 552.51,-134.98 546.49,-138.55"/>
</a>
</g>
</g>
<!-- Node4 -->
<g id="Node000004" class="node">
<title>Node4</title>
<g id="a_Node000004"><a xlink:href="../../d5/d65/classmal__packet__weaver_1_1packet_1_1crypto_1_1_d_h_key_exchange_response_packet.html#a5b0b722412687c056ae381e0687f10ba" target="_top" xlink:title="Calculate the hash of the packet&#39;s contents.">
<polygon fill="white" stroke="#666666" points="313.25,-293.75 166,-293.75 166,-252 313.25,-252 313.25,-293.75"/>
<text text-anchor="start" x="174" y="-280.25" font-family="Times,serif" font-size="10.00">mal_packet_weaver::</text>
<text text-anchor="start" x="174" y="-269" font-family="Times,serif" font-size="10.00">packet::crypto::DHKeyExchange</text>
<text text-anchor="middle" x="239.62" y="-257.75" font-family="Times,serif" font-size="10.00">ResponsePacket::get_hash</text>
</a>
</g>
</g>
<!-- Node3&#45;&gt;Node4 -->
<g id="edge3_Node000003_Node000004" class="edge">
<title>Node3&#45;&gt;Node4</title>
<g id="a_edge3_Node000003_Node000004"><a xlink:title=" ">
<path fill="none" stroke="#63b8ff" d="M338.49,-255.83C330.24,-257.27 321.84,-258.73 313.61,-260.16"/>
<polygon fill="#63b8ff" stroke="#63b8ff" points="338.97,-259.12 348.22,-253.96 337.77,-252.23 338.97,-259.12"/>
</a>
</g>
</g>
<!-- Node5 -->
<g id="Node000005" class="node">
<title>Node5</title>
<g id="a_Node000005"><a xlink:href="../../d8/d88/classmal__packet__weaver_1_1crypto_1_1_e_c_d_s_a_1_1_signer.html#a80725b1d55e0efaa11469e3182f0b1c2" target="_top" xlink:title="Signs binary data using the private key.">
<polygon fill="white" stroke="#666666" points="294.12,-233.75 185.12,-233.75 185.12,-192 294.12,-192 294.12,-233.75"/>
<text text-anchor="start" x="193.12" y="-220.25" font-family="Times,serif" font-size="10.00">mal_packet_weaver::</text>
<text text-anchor="start" x="193.12" y="-209" font-family="Times,serif" font-size="10.00">crypto::ECDSA::Signer</text>
<text text-anchor="middle" x="239.62" y="-197.75" font-family="Times,serif" font-size="10.00">::sign_data</text>
</a>
</g>
</g>
<!-- Node3&#45;&gt;Node5 -->
<g id="edge4_Node000003_Node000005" class="edge">
<title>Node3&#45;&gt;Node5</title>
<g id="a_edge4_Node000003_Node000005"><a xlink:title=" ">
<path fill="none" stroke="#63b8ff" d="M338.53,-229.93C323.7,-227.34 308.39,-224.68 294.41,-222.24"/>
<polygon fill="#63b8ff" stroke="#63b8ff" points="337.77,-233.52 348.22,-231.79 338.97,-226.63 337.77,-233.52"/>
</a>
</g>
</g>
<!-- Node7 -->
<g id="Node000007" class="node">
<title>Node7</title>
<g id="a_Node000007"><a xlink:href="../../df/d2a/classmal__packet__weaver_1_1crypto_1_1_e_c_d_s_a_1_1_verifier.html#abcc0625ece25e293be526e07ad78d6d5" target="_top" xlink:title="Verifies the signature of binary data.">
<polygon fill="white" stroke="#666666" points="297.5,-149.75 181.75,-149.75 181.75,-108 297.5,-108 297.5,-149.75"/>
<text text-anchor="start" x="189.75" y="-136.25" font-family="Times,serif" font-size="10.00">mal_packet_weaver::</text>
<text text-anchor="start" x="189.75" y="-125" font-family="Times,serif" font-size="10.00">crypto::ECDSA::Verifier</text>
<text text-anchor="middle" x="239.62" y="-113.75" font-family="Times,serif" font-size="10.00">::verify_data</text>
</a>
</g>
</g>
<!-- Node3&#45;&gt;Node7 -->
<g id="edge6_Node000003_Node000007" class="edge">
<title>Node3&#45;&gt;Node7</title>
<g id="a_edge6_Node000003_Node000007"><a xlink:title=" ">
<path fill="none" stroke="#63b8ff" d="M354.78,-222.2C352.88,-221.14 351.04,-220.03 349.25,-218.88 330.24,-206.61 330.37,-197.67 313.25,-182.88 299.93,-171.37 284.37,-159.6 271.07,-149.99"/>
<polygon fill="#63b8ff" stroke="#63b8ff" points="353.05,-225.76 363.55,-227.17 356.23,-219.52 353.05,-225.76"/>
</a>
</g>
</g>
<!-- Node6 -->
<g id="Node000006" class="node">
<title>Node6</title>
<g id="a_Node000006"><a xlink:href="../../d2/d8f/namespacemal__packet__weaver_1_1crypto_1_1_e_c_d_s_a.html#ac3a3b5adbeac074fe5e7a57d22d44d7c" target="_top" xlink:title=" ">
<polygon fill="white" stroke="#666666" points="126.25,-228.12 3.75,-228.12 3.75,-197.62 126.25,-197.62 126.25,-228.12"/>
<text text-anchor="start" x="11.75" y="-214.62" font-family="Times,serif" font-size="10.00">mal_packet_weaver::</text>
<text text-anchor="middle" x="65" y="-203.38" font-family="Times,serif" font-size="10.00">crypto::ECDSA::sign_data</text>
</a>
</g>
</g>
<!-- Node5&#45;&gt;Node6 -->
<g id="edge5_Node000005_Node000006" class="edge">
<title>Node5&#45;&gt;Node6</title>
<g id="a_edge5_Node000005_Node000006"><a xlink:title=" ">
<path fill="none" stroke="#63b8ff" d="M174.32,-212.88C158.69,-212.88 142.02,-212.88 126.57,-212.88"/>
<polygon fill="#63b8ff" stroke="#63b8ff" points="173.95,-216.38 183.95,-212.88 173.95,-209.38 173.95,-216.38"/>
</a>
</g>
</g>
<!-- Node8 -->
<g id="Node000008" class="node">
<title>Node8</title>
<g id="a_Node000008"><a xlink:href="../../d2/d8f/namespacemal__packet__weaver_1_1crypto_1_1_e_c_d_s_a.html#a945499cfa6f78a7ab8ad28f12064a9ea" target="_top" xlink:title=" ">
<polygon fill="white" stroke="#666666" points="130,-144.12 0,-144.12 0,-113.62 130,-113.62 130,-144.12"/>
<text text-anchor="start" x="8" y="-130.62" font-family="Times,serif" font-size="10.00">mal_packet_weaver::</text>
<text text-anchor="middle" x="65" y="-119.38" font-family="Times,serif" font-size="10.00">crypto::ECDSA::verify_data</text>
</a>
</g>
</g>
<!-- Node7&#45;&gt;Node8 -->
<g id="edge7_Node000007_Node000008" class="edge">
<title>Node7&#45;&gt;Node8</title>
<g id="a_edge7_Node000007_Node000008"><a xlink:title=" ">
<path fill="none" stroke="#63b8ff" d="M170.66,-128.88C157.4,-128.88 143.54,-128.88 130.4,-128.88"/>
<polygon fill="#63b8ff" stroke="#63b8ff" points="170.62,-132.38 180.62,-128.88 170.62,-125.38 170.62,-132.38"/>
</a>
</g>
</g>
<!-- Node12&#45;&gt;Node7 -->
<g id="edge12_Node000012_Node000007" class="edge">
<title>Node12&#45;&gt;Node7</title>
<g id="a_edge12_Node000012_Node000007"><a xlink:title=" ">
<path fill="none" stroke="#63b8ff" d="M355.56,-47.29C353.41,-48.47 351.3,-49.67 349.25,-50.88 320.03,-68.06 288.81,-91.01 267.37,-107.57"/>
<polygon fill="#63b8ff" stroke="#63b8ff" points="356.93,-49.99 364.13,-42.22 353.65,-43.81 356.93,-49.99"/>
</a>
</g>
</g>
<!-- Node13 -->
<g id="Node000013" class="node">
<title>Node13</title>
<g id="a_Node000013"><a xlink:href="../../d2/d8f/namespacemal__packet__weaver_1_1crypto_1_1_e_c_d_s_a.html#ab6dd92f9047e147b5c13dd905bf6905a" target="_top" xlink:title=" ">
<polygon fill="white" stroke="#666666" points="305.38,-36.12 173.88,-36.12 173.88,-5.62 305.38,-5.62 305.38,-36.12"/>
<text text-anchor="start" x="181.88" y="-22.62" font-family="Times,serif" font-size="10.00">mal_packet_weaver::</text>
<text text-anchor="middle" x="239.62" y="-11.38" font-family="Times,serif" font-size="10.00">crypto::ECDSA::verify_hash</text>
</a>
</g>
</g>
<!-- Node12&#45;&gt;Node13 -->
<g id="edge13_Node000012_Node000013" class="edge">
<title>Node12&#45;&gt;Node13</title>
<g id="a_edge13_Node000012_Node000013"><a xlink:title=" ">
<path fill="none" stroke="#63b8ff" d="M344.86,-20.88C331.99,-20.88 318.55,-20.88 305.76,-20.88"/>
<polygon fill="#63b8ff" stroke="#63b8ff" points="344.52,-24.38 354.52,-20.88 344.52,-17.38 344.52,-24.38"/>
</a>
</g>
</g>
</g>
</svg>

<g id="navigator" transform="translate(0 0)" fill="#404254">
  <rect fill="#f2f5e9" fill-opacity="0.5" stroke="#606060" stroke-width=".5" x="0" y="0" width="60" height="60"/>
  <use id="zoomplus" xlink:href="#zoomPlus" x="17" y="9" onmousedown="handleZoom(evt,'in')"/>
  <use id="zoomminus" xlink:href="#zoomMin" x="42" y="9" onmousedown="handleZoom(evt,'out')"/>
  <use id="reset" xlink:href="#resetDef" x="30" y="36" onmousedown="handleReset()"/>
   <use id="arrowup" xlink:href="#arrowUp" x="0" y="0" onmousedown="handlePan(0,-1)"/>
  <use id="arrowright" xlink:href="#arrowRight" x="0" y="0" onmousedown="handlePan(1,0)"/>
  <use id="arrowdown" xlink:href="#arrowDown" x="0" y="0" onmousedown="handlePan(0,1)"/>
  <use id="arrowleft" xlink:href="#arrowLeft" x="0" y="0" onmousedown="handlePan(-1,0)"/>
</g>
<svg viewBox="0 0 15 15" width="100%" height="30px" preserveAspectRatio="xMaxYMin meet">
 <g id="arrow_out" transform="scale(0.3 0.3)">
  <a xlink:href="structmal__packet__weaver_1_1_byte_view_a642359fac9a65d40ddf6c01077ffade3_icgraph_org.svg" target="_base">
   <rect id="button" ry="5" rx="5" y="6" x="6" height="38" width="38"
        fill="#f2f5e9" fill-opacity="0.5" stroke="#606060" stroke-width="1.0"/>
   <path id="arrow"
     d="M 11.500037,31.436501 C 11.940474,20.09759 22.043105,11.32322 32.158766,21.979434 L 37.068811,17.246167 C 37.068811,17.246167 37.088388,32 37.088388,32 L 22.160133,31.978069 C 22.160133,31.978069 26.997745,27.140456 26.997745,27.140456 C 18.528582,18.264221 13.291696,25.230495 11.500037,31.436501 z"
     style="fill:#404040;"/>
  </a>
 </g>
</svg>

<style type='text/css'>
<![CDATA[
[data-mouse-over-selected='false'] { opacity: 0.7; }
[data-mouse-over-selected='true']  { opacity: 1.0; }
]]>
</style>
<script type="application/ecmascript"><![CDATA[
document.addEventListener('DOMContentLoaded', (event) => {
  highlightEdges();
  highlightAdjacentNodes();
});
]]></script>
</svg>
