<?xml version="1.0" encoding="UTF-8" standalone="no"?>
<!DOCTYPE svg PUBLIC "-//W3C//DTD SVG 1.1//EN"
 "http://www.w3.org/Graphics/SVG/1.1/DTD/svg11.dtd">
<!-- Generated by graphviz version 11.0.0 (20240428.1522)
 -->
<!-- Title: mal_packet_weaver::PacketFactory Pages: 1 -->
<svg width="975pt" height="144pt"
 viewBox="0.00 0.00 974.55 144.25" xmlns="http://www.w3.org/2000/svg" xmlns:xlink="http://www.w3.org/1999/xlink">
<g id="graph0" class="graph" transform="scale(1 1) rotate(0) translate(4 140.25)">
<title>mal_packet_weaver::PacketFactory</title>
<!-- Node1 -->
<g id="Node000001" class="node">
<title>Node1</title>
<g id="a_Node000001"><a xlink:title="A class responsible for registering and creating packet deserializers.">
<polygon fill="#999999" stroke="#666666" points="741.3,-70.88 642.05,-70.88 642.05,-40.38 741.3,-40.38 741.3,-70.88"/>
<text text-anchor="start" x="650.05" y="-57.38" font-family="Times,serif" font-size="10.00">mal_packet_weaver::</text>
<text text-anchor="middle" x="691.67" y="-46.12" font-family="Times,serif" font-size="10.00">PacketFactory</text>
</a>
</g>
</g>
<!-- Node2 -->
<g id="Node000002" class="node">
<title>Node2</title>
<g id="a_Node000002"><a xlink:title=" ">
<polygon fill="white" stroke="#666666" points="966.55,-104.88 817.05,-104.88 817.05,-74.38 966.55,-74.38 966.55,-104.88"/>
<text text-anchor="start" x="825.05" y="-91.38" font-family="Times,serif" font-size="10.00">std::unique_ptr&lt; mal</text>
<text text-anchor="middle" x="891.8" y="-80.12" font-family="Times,serif" font-size="10.00">_packet_weaver::PacketFactory &gt;</text>
</a>
</g>
</g>
<!-- Node1&#45;&gt;Node2 -->
<g id="edge2_Node000002_Node000001" class="edge">
<title>Node1&#45;&gt;Node2</title>
<g id="a_edge2_Node000002_Node000001"><a xlink:title=" ">
<path fill="none" stroke="#9a32cd" stroke-dasharray="5,2" d="M753.09,-66.54C755.19,-66.91 757.26,-67.27 759.3,-67.62 777.89,-70.85 797.97,-74.26 816.71,-77.39"/>
<polygon fill="#9a32cd" stroke="#9a32cd" points="753.73,-63.1 743.27,-64.8 752.51,-69.99 753.73,-63.1"/>
</a>
</g>
<text text-anchor="middle" x="779.17" y="-75.38" font-family="Times,serif" font-size="10.00" fill="grey"> ptr</text>
</g>
<!-- Node2&#45;&gt;Node1 -->
<g id="edge1_Node000001_Node000002" class="edge">
<title>Node2&#45;&gt;Node1</title>
<g id="a_edge1_Node000001_Node000002"><a xlink:title=" ">
<path fill="none" stroke="#9a32cd" stroke-dasharray="5,2" d="M845.98,-69.93C831.31,-64.43 814.75,-59.19 799.05,-56.38 780.51,-53.05 759.85,-52.26 741.72,-52.5"/>
<polygon fill="#9a32cd" stroke="#9a32cd" points="844.28,-73.03 854.87,-73.41 846.83,-66.51 844.28,-73.03"/>
</a>
</g>
<text text-anchor="middle" x="779.17" y="-57.38" font-family="Times,serif" font-size="10.00" fill="grey"> instance_</text>
</g>
<!-- Node3 -->
<g id="Node000003" class="node">
<title>Node3</title>
<g id="a_Node000003"><a xlink:title=" ">
<polygon fill="white" stroke="#666666" points="329.92,-136.25 230.67,-136.25 230.67,-117 329.92,-117 329.92,-136.25"/>
<text text-anchor="middle" x="280.3" y="-122.75" font-family="Times,serif" font-size="10.00">std::unique_ptr&lt; T &gt;</text>
</a>
</g>
</g>
<!-- Node3&#45;&gt;Node2 -->
<g id="edge3_Node000002_Node000003" class="edge">
<title>Node3&#45;&gt;Node2</title>
<g id="a_edge3_Node000002_Node000003"><a xlink:title=" ">
<path fill="none" stroke="orange" stroke-dasharray="5,2" d="M341.85,-122.95C454.25,-116.13 694.8,-101.52 816.71,-94.12"/>
<polygon fill="orange" stroke="orange" points="341.68,-119.45 331.92,-123.55 342.11,-126.44 341.68,-119.45"/>
</a>
</g>
<text text-anchor="start" x="534.8" y="-123.62" font-family="Times,serif" font-size="10.00" fill="grey"> &lt; mal_packet_weaver</text>
<text text-anchor="middle" x="579.42" y="-112.38" font-family="Times,serif" font-size="10.00" fill="grey">::PacketFactory &gt;</text>
</g>
<!-- Node4 -->
<g id="Node000004" class="node">
<title>Node4</title>
<g id="a_Node000004"><a xlink:title=" ">
<polygon fill="white" stroke="#666666" points="28.8,-126.25 0,-126.25 0,-107 28.8,-107 28.8,-126.25"/>
<text text-anchor="middle" x="14.4" y="-112.75" font-family="Times,serif" font-size="10.00">T</text>
</a>
</g>
</g>
<!-- Node4&#45;&gt;Node3 -->
<g id="edge4_Node000003_Node000004" class="edge">
<title>Node4&#45;&gt;Node3</title>
<g id="a_edge4_Node000003_Node000004"><a xlink:title=" ">
<path fill="none" stroke="#9a32cd" stroke-dasharray="5,2" d="M40.69,-117.58C84.27,-119.23 174.23,-122.64 230.39,-124.77"/>
<polygon fill="#9a32cd" stroke="#9a32cd" points="40.85,-114.09 30.73,-117.21 40.59,-121.08 40.85,-114.09"/>
</a>
</g>
<text text-anchor="middle" x="65.17" y="-120.38" font-family="Times,serif" font-size="10.00" fill="grey"> ptr</text>
</g>
<!-- Node8 -->
<g id="Node000008" class="node">
<title>Node8</title>
<g id="a_Node000008"><a xlink:title=" ">
<polygon fill="white" stroke="#666666" points="202.67,-104.88 107.92,-104.88 107.92,-74.38 202.67,-74.38 202.67,-104.88"/>
<text text-anchor="start" x="115.92" y="-91.38" font-family="Times,serif" font-size="10.00">std::unordered_map</text>
<text text-anchor="middle" x="155.3" y="-80.12" font-family="Times,serif" font-size="10.00">&lt; K, T &gt;</text>
</a>
</g>
</g>
<!-- Node4&#45;&gt;Node8 -->
<g id="edge10_Node000008_Node000004" class="edge">
<title>Node4&#45;&gt;Node8</title>
<g id="a_edge10_Node000008_Node000004"><a xlink:title=" ">
<path fill="none" stroke="#9a32cd" stroke-dasharray="5,2" d="M39.4,-102.17C41.85,-101.09 44.34,-100.13 46.8,-99.38 66.16,-93.46 88.31,-90.8 107.46,-89.71"/>
<polygon fill="#9a32cd" stroke="#9a32cd" points="37.86,-99.03 30.58,-106.73 41.07,-105.25 37.86,-99.03"/>
</a>
</g>
<text text-anchor="middle" x="65.17" y="-100.38" font-family="Times,serif" font-size="10.00" fill="grey"> elements</text>
</g>
<!-- Node5 -->
<g id="Node000005" class="node">
<title>Node5</title>
<g id="a_Node000005"><a xlink:title=" ">
<polygon fill="white" stroke="#666666" points="516.8,-68.5 351.55,-68.5 351.55,-26.75 516.8,-26.75 516.8,-68.5"/>
<text text-anchor="start" x="359.55" y="-55" font-family="Times,serif" font-size="10.00">std::unordered_map</text>
<text text-anchor="start" x="359.55" y="-43.75" font-family="Times,serif" font-size="10.00">&lt; UniquePacketID, PacketDeserialize</text>
<text text-anchor="middle" x="434.17" y="-32.5" font-family="Times,serif" font-size="10.00">Func &gt;</text>
</a>
</g>
</g>
<!-- Node5&#45;&gt;Node1 -->
<g id="edge5_Node000001_Node000005" class="edge">
<title>Node5&#45;&gt;Node1</title>
<g id="a_edge5_Node000001_Node000005"><a xlink:title=" ">
<path fill="none" stroke="#9a32cd" stroke-dasharray="5,2" d="M528.29,-50.54C566.66,-51.74 609.54,-53.08 641.59,-54.09"/>
<polygon fill="#9a32cd" stroke="#9a32cd" points="528.69,-47.05 518.58,-50.24 528.47,-54.05 528.69,-47.05"/>
</a>
</g>
<text text-anchor="middle" x="579.42" y="-54.38" font-family="Times,serif" font-size="10.00" fill="grey"> packet_deserializers_</text>
</g>
<!-- Node6 -->
<g id="Node000006" class="node">
<title>Node6</title>
<g id="a_Node000006"><a xlink:title=" ">
<polygon fill="white" stroke="#666666" points="195.92,-56.25 114.67,-56.25 114.67,-37 195.92,-37 195.92,-56.25"/>
<text text-anchor="middle" x="155.3" y="-42.75" font-family="Times,serif" font-size="10.00">UniquePacketID</text>
</a>
</g>
</g>
<!-- Node6&#45;&gt;Node5 -->
<g id="edge6_Node000005_Node000006" class="edge">
<title>Node6&#45;&gt;Node5</title>
<g id="a_edge6_Node000005_Node000006"><a xlink:title=" ">
<path fill="none" stroke="#9a32cd" stroke-dasharray="5,2" d="M207.68,-46.81C247.94,-46.96 304.73,-47.16 351.24,-47.33"/>
<polygon fill="#9a32cd" stroke="#9a32cd" points="207.79,-43.31 197.78,-46.77 207.77,-50.31 207.79,-43.31"/>
</a>
</g>
<text text-anchor="middle" x="280.3" y="-48.38" font-family="Times,serif" font-size="10.00" fill="grey"> keys</text>
</g>
<!-- Node7 -->
<g id="Node000007" class="node">
<title>Node7</title>
<g id="a_Node000007"><a xlink:title=" ">
<polygon fill="white" stroke="#666666" points="209.05,-19.25 101.55,-19.25 101.55,0 209.05,0 209.05,-19.25"/>
<text text-anchor="middle" x="155.3" y="-5.75" font-family="Times,serif" font-size="10.00">PacketDeserializeFunc</text>
</a>
</g>
</g>
<!-- Node7&#45;&gt;Node5 -->
<g id="edge7_Node000005_Node000007" class="edge">
<title>Node7&#45;&gt;Node5</title>
<g id="a_edge7_Node000005_Node000007"><a xlink:title=" ">
<path fill="none" stroke="#9a32cd" stroke-dasharray="5,2" d="M220.59,-16.89C254.28,-20.86 296.19,-26.04 333.55,-31.38 339.27,-32.19 345.18,-33.07 351.12,-33.98"/>
<polygon fill="#9a32cd" stroke="#9a32cd" points="221.34,-13.46 211.01,-15.77 220.53,-20.41 221.34,-13.46"/>
</a>
</g>
<text text-anchor="middle" x="280.3" y="-32.38" font-family="Times,serif" font-size="10.00" fill="grey"> elements</text>
</g>
<!-- Node8&#45;&gt;Node5 -->
<g id="edge8_Node000005_Node000008" class="edge">
<title>Node8&#45;&gt;Node5</title>
<g id="a_edge8_Node000005_Node000008"><a xlink:title=" ">
<path fill="none" stroke="orange" stroke-dasharray="5,2" d="M214.3,-80.83C254.01,-74.8 307.24,-66.73 351.27,-60.05"/>
<polygon fill="orange" stroke="orange" points="213.81,-77.36 204.45,-82.32 214.86,-84.28 213.81,-77.36"/>
</a>
</g>
<text text-anchor="start" x="227.05" y="-90.62" font-family="Times,serif" font-size="10.00" fill="grey"> &lt; UniquePacketID, Packet</text>
<text text-anchor="middle" x="280.3" y="-79.38" font-family="Times,serif" font-size="10.00" fill="grey">DeserializeFunc &gt;</text>
</g>
<!-- Node9 -->
<g id="Node000009" class="node">
<title>Node9</title>
<g id="a_Node000009"><a xlink:title=" ">
<polygon fill="white" stroke="#666666" points="28.8,-74.25 0,-74.25 0,-55 28.8,-55 28.8,-74.25"/>
<text text-anchor="middle" x="14.4" y="-60.75" font-family="Times,serif" font-size="10.00">K</text>
</a>
</g>
</g>
<!-- Node9&#45;&gt;Node8 -->
<g id="edge9_Node000008_Node000009" class="edge">
<title>Node9&#45;&gt;Node8</title>
<g id="a_edge9_Node000008_Node000009"><a xlink:title=" ">
<path fill="none" stroke="#9a32cd" stroke-dasharray="5,2" d="M40.42,-63.01C53.38,-62.64 69.41,-62.94 83.55,-65.38 94.17,-67.2 105.34,-70.4 115.59,-73.88"/>
<polygon fill="#9a32cd" stroke="#9a32cd" points="40.44,-59.5 30.6,-63.44 40.75,-66.49 40.44,-59.5"/>
</a>
</g>
<text text-anchor="middle" x="65.17" y="-66.38" font-family="Times,serif" font-size="10.00" fill="grey"> keys</text>
</g>
</g>
</svg>
