<?xml version="1.0" encoding="UTF-8" standalone="no"?>
<!DOCTYPE svg PUBLIC "-//W3C//DTD SVG 1.1//EN"
 "http://www.w3.org/Graphics/SVG/1.1/DTD/svg11.dtd">
<!-- Generated by graphviz version 8.1.0 (20230707.0739)
 -->
<!-- Title: mal_toolkit::namable Pages: 1 -->
<svg width="107pt" height="161pt"
 viewBox="0.00 0.00 106.50 161.25" xmlns="http://www.w3.org/2000/svg" xmlns:xlink="http://www.w3.org/1999/xlink">
<g id="graph0" class="graph" transform="scale(1 1) rotate(0) translate(4 157.25)">
<title>mal_toolkit::namable</title>
<!-- Node1 -->
<g id="Node000001" class="node">
<title>Node1</title>
<g id="a_Node000001"><a xlink:title="A class that contains a name and can be named and unnamed.">
<polygon fill="#999999" stroke="#666666" points="98.5,-19.25 0,-19.25 0,0 98.5,0 98.5,-19.25"/>
<text text-anchor="middle" x="49.25" y="-5.75" font-family="Times,serif" font-size="10.00">mal_toolkit::namable</text>
</a>
</g>
</g>
<!-- Node2 -->
<g id="Node000002" class="node">
<title>Node2</title>
<g id="a_Node000002"><a xlink:title=" ">
<polygon fill="white" stroke="#666666" points="77.12,-85.75 21.38,-85.75 21.38,-66.5 77.12,-66.5 77.12,-85.75"/>
<text text-anchor="middle" x="49.25" y="-72.25" font-family="Times,serif" font-size="10.00">std::string</text>
</a>
</g>
</g>
<!-- Node2&#45;&gt;Node1 -->
<g id="edge1_Node000001_Node000002" class="edge">
<title>Node2&#45;&gt;Node1</title>
<g id="a_edge1_Node000001_Node000002"><a xlink:title=" ">
<path fill="none" stroke="#9a32cd" stroke-dasharray="5,2" d="M49.25,-55.4C49.25,-43.43 49.25,-28.73 49.25,-19.52"/>
<polygon fill="#9a32cd" stroke="#9a32cd" points="45.75,-55.16 49.25,-65.16 52.75,-55.16 45.75,-55.16"/>
</a>
</g>
<text text-anchor="middle" x="63.5" y="-39" font-family="Times,serif" font-size="10.00" fill="grey"> name_</text>
</g>
<!-- Node3 -->
<g id="Node000003" class="node">
<title>Node3</title>
<g id="a_Node000003"><a xlink:title=" ">
<polygon fill="white" stroke="#666666" points="92.88,-153.25 5.63,-153.25 5.63,-122.75 92.88,-122.75 92.88,-153.25"/>
<text text-anchor="start" x="13.63" y="-139.75" font-family="Times,serif" font-size="10.00">std::basic_string&lt;</text>
<text text-anchor="middle" x="49.25" y="-128.5" font-family="Times,serif" font-size="10.00"> Char &gt;</text>
</a>
</g>
</g>
<!-- Node3&#45;&gt;Node2 -->
<g id="edge2_Node000002_Node000003" class="edge">
<title>Node3&#45;&gt;Node2</title>
<g id="a_edge2_Node000002_Node000003"><a xlink:title=" ">
<path fill="none" stroke="#63b8ff" d="M49.25,-111.58C49.25,-102.5 49.25,-92.86 49.25,-86.1"/>
<polygon fill="#63b8ff" stroke="#63b8ff" points="45.75,-111.51 49.25,-121.51 52.75,-111.51 45.75,-111.51"/>
</a>
</g>
</g>
</g>
</svg>
