<?xml version="1.0" encoding="UTF-8" standalone="no"?>
<!DOCTYPE svg PUBLIC "-//W3C//DTD SVG 1.1//EN"
 "http://www.w3.org/Graphics/SVG/1.1/DTD/svg11.dtd">
<!-- Generated by graphviz version 11.0.0 (20240428.1522)
 -->
<!-- Title: mal_toolkit::namable_protected Pages: 1 -->
<svg width="107pt" height="227pt"
 viewBox="0.00 0.00 106.50 226.75" xmlns="http://www.w3.org/2000/svg" xmlns:xlink="http://www.w3.org/1999/xlink">
<g id="graph0" class="graph" transform="scale(1 1) rotate(0) translate(4 222.75)">
<title>mal_toolkit::namable_protected</title>
<!-- Node1 -->
<g id="Node000001" class="node">
<title>Node1</title>
<g id="a_Node000001"><a xlink:title="A class that contains a name and can be named and unnamed, but you cant set the name from outside.">
<polygon fill="#999999" stroke="#666666" points="98.5,-30.5 0,-30.5 0,0 98.5,0 98.5,-30.5"/>
<text text-anchor="start" x="8" y="-17" font-family="Times,serif" font-size="10.00">mal_toolkit::namable</text>
<text text-anchor="middle" x="49.25" y="-5.75" font-family="Times,serif" font-size="10.00">_protected</text>
</a>
</g>
</g>
<!-- Node2 -->
<g id="Node000002" class="node">
<title>Node2</title>
<g id="a_Node000002"><a xlink:href="../../da/d90/classmal__toolkit_1_1namable.html" target="_top" xlink:title="A class that contains a name and can be named and unnamed.">
<polygon fill="white" stroke="#666666" points="98.5,-85.75 0,-85.75 0,-66.5 98.5,-66.5 98.5,-85.75"/>
<text text-anchor="middle" x="49.25" y="-72.25" font-family="Times,serif" font-size="10.00">mal_toolkit::namable</text>
</a>
</g>
</g>
<!-- Node2&#45;&gt;Node1 -->
<g id="edge1_Node000001_Node000002" class="edge">
<title>Node2&#45;&gt;Node1</title>
<g id="a_edge1_Node000001_Node000002"><a xlink:title=" ">
<path fill="none" stroke="#63b8ff" d="M49.25,-54.92C49.25,-46.99 49.25,-38.06 49.25,-30.78"/>
<polygon fill="#63b8ff" stroke="#63b8ff" points="45.75,-54.67 49.25,-64.67 52.75,-54.67 45.75,-54.67"/>
</a>
</g>
</g>
<!-- Node3 -->
<g id="Node000003" class="node">
<title>Node3</title>
<g id="a_Node000003"><a xlink:title=" ">
<polygon fill="white" stroke="#666666" points="77.12,-152.25 21.38,-152.25 21.38,-133 77.12,-133 77.12,-152.25"/>
<text text-anchor="middle" x="49.25" y="-138.75" font-family="Times,serif" font-size="10.00">std::string</text>
</a>
</g>
</g>
<!-- Node3&#45;&gt;Node2 -->
<g id="edge2_Node000002_Node000003" class="edge">
<title>Node3&#45;&gt;Node2</title>
<g id="a_edge2_Node000002_Node000003"><a xlink:title=" ">
<path fill="none" stroke="#9a32cd" stroke-dasharray="5,2" d="M49.25,-121.15C49.25,-109.32 49.25,-95.04 49.25,-86.02"/>
<polygon fill="#9a32cd" stroke="#9a32cd" points="45.75,-121.14 49.25,-131.14 52.75,-121.14 45.75,-121.14"/>
</a>
</g>
<text text-anchor="middle" x="63.5" y="-105.5" font-family="Times,serif" font-size="10.00" fill="grey"> name_</text>
</g>
<!-- Node4 -->
<g id="Node000004" class="node">
<title>Node4</title>
<g id="a_Node000004"><a xlink:title=" ">
<polygon fill="white" stroke="#666666" points="92.88,-218.75 5.63,-218.75 5.63,-188.25 92.88,-188.25 92.88,-218.75"/>
<text text-anchor="start" x="13.63" y="-205.25" font-family="Times,serif" font-size="10.00">std::basic_string&lt;</text>
<text text-anchor="middle" x="49.25" y="-194" font-family="Times,serif" font-size="10.00"> Char &gt;</text>
</a>
</g>
</g>
<!-- Node4&#45;&gt;Node3 -->
<g id="edge3_Node000003_Node000004" class="edge">
<title>Node4&#45;&gt;Node3</title>
<g id="a_edge3_Node000003_Node000004"><a xlink:title=" ">
<path fill="none" stroke="#63b8ff" d="M49.25,-176.48C49.25,-167.98 49.25,-159.09 49.25,-152.7"/>
<polygon fill="#63b8ff" stroke="#63b8ff" points="45.75,-176.43 49.25,-186.43 52.75,-176.43 45.75,-176.43"/>
</a>
</g>
</g>
</g>
</svg>
