<?xml version="1.0" encoding="UTF-8" standalone="no"?>
<!DOCTYPE svg PUBLIC "-//W3C//DTD SVG 1.1//EN"
 "http://www.w3.org/Graphics/SVG/1.1/DTD/svg11.dtd">
<!-- Generated by graphviz version 7.0.5 (20221223.1930)
 -->
<!-- Title: mal_toolkit::namable_protected Pages: 1 -->
<svg width="113pt" height="227pt"
 viewBox="0.00 0.00 113.00 227.00" xmlns="http://www.w3.org/2000/svg" xmlns:xlink="http://www.w3.org/1999/xlink">
<g id="graph0" class="graph" transform="scale(1 1) rotate(0) translate(4 223)">
<title>mal_toolkit::namable_protected</title>
<!-- Node1 -->
<g id="node1" class="node">
<title>Node1</title>
<g id="a_node1"><a xlink:title="A class that contains a name and can be named and unnamed, but you cant set the name from outside.">
<polygon fill="#999999" stroke="#666666" points="105,-30 0,-30 0,0 105,0 105,-30"/>
<text text-anchor="start" x="8" y="-18" font-family="Helvetica,sans-Serif" font-size="10.00">mal_toolkit::namable</text>
<text text-anchor="middle" x="52.5" y="-7" font-family="Helvetica,sans-Serif" font-size="10.00">_protected</text>
</a>
</g>
</g>
<!-- Node2 -->
<g id="node2" class="node">
<title>Node2</title>
<g id="a_node2"><a xlink:href="../../da/d90/classmal__toolkit_1_1namable.html" target="_top" xlink:title="A class that contains a name and can be named and unnamed.">
<polygon fill="white" stroke="#666666" points="105,-86 0,-86 0,-67 105,-67 105,-86"/>
<text text-anchor="middle" x="52.5" y="-74" font-family="Helvetica,sans-Serif" font-size="10.00">mal_toolkit::namable</text>
</a>
</g>
</g>
<!-- Node2&#45;&gt;Node1 -->
<g id="edge1" class="edge">
<title>Node2&#45;&gt;Node1</title>
<path fill="none" stroke="#63b8ff" d="M52.5,-55.46C52.5,-47.23 52.5,-37.89 52.5,-30.36"/>
<polygon fill="#63b8ff" stroke="#63b8ff" points="49,-55.21 52.5,-65.21 56,-55.21 49,-55.21"/>
</g>
<!-- Node3 -->
<g id="node3" class="node">
<title>Node3</title>
<g id="a_node3"><a xlink:title=" ">
<polygon fill="white" stroke="#666666" points="82,-152 23,-152 23,-133 82,-133 82,-152"/>
<text text-anchor="middle" x="52.5" y="-140" font-family="Helvetica,sans-Serif" font-size="10.00">std::string</text>
</a>
</g>
</g>
<!-- Node3&#45;&gt;Node2 -->
<g id="edge2" class="edge">
<title>Node3&#45;&gt;Node2</title>
<path fill="none" stroke="#9a32cd" stroke-dasharray="5,2" d="M52.5,-121.18C52.5,-109.44 52.5,-95.27 52.5,-86.32"/>
<polygon fill="#9a32cd" stroke="#9a32cd" points="49,-121.09 52.5,-131.09 56,-121.09 49,-121.09"/>
<text text-anchor="middle" x="68.5" y="-107" font-family="Helvetica,sans-Serif" font-size="10.00"> name_</text>
</g>
<!-- Node4 -->
<g id="node4" class="node">
<title>Node4</title>
<g id="a_node4"><a xlink:title=" ">
<polygon fill="white" stroke="#666666" points="99,-219 6,-219 6,-189 99,-189 99,-219"/>
<text text-anchor="start" x="14" y="-207" font-family="Helvetica,sans-Serif" font-size="10.00">std::basic_string&lt;</text>
<text text-anchor="middle" x="52.5" y="-196" font-family="Helvetica,sans-Serif" font-size="10.00"> Char &gt;</text>
</a>
</g>
</g>
<!-- Node4&#45;&gt;Node3 -->
<g id="edge3" class="edge">
<title>Node4&#45;&gt;Node3</title>
<path fill="none" stroke="#63b8ff" d="M52.5,-177.13C52.5,-168.29 52.5,-158.99 52.5,-152.42"/>
<polygon fill="#63b8ff" stroke="#63b8ff" points="49,-177.08 52.5,-187.08 56,-177.08 49,-177.08"/>
</g>
</g>
</svg>
