<?xml version="1.0" encoding="UTF-8" standalone="no"?>
<!DOCTYPE svg PUBLIC "-//W3C//DTD SVG 1.1//EN"
 "http://www.w3.org/Graphics/SVG/1.1/DTD/svg11.dtd">
<!-- Generated by graphviz version 9.0.0 (20230911.1827)
 -->
<!-- Title: mal_packet_weaver::crypto::Key Pages: 1 -->
<svg width="115pt" height="218pt"
 viewBox="0.00 0.00 114.75 217.50" xmlns="http://www.w3.org/2000/svg" xmlns:xlink="http://www.w3.org/1999/xlink">
<g id="graph0" class="graph" transform="scale(1 1) rotate(0) translate(4 213.5)">
<title>mal_packet_weaver::crypto::Key</title>
<!-- Node1 -->
<g id="Node000001" class="node">
<title>Node1</title>
<g id="a_Node000001"><a xlink:title="Represents a cryptographic key as a byte array.">
<polygon fill="#999999" stroke="#666666" points="103,-30.5 3.75,-30.5 3.75,0 103,0 103,-30.5"/>
<text text-anchor="start" x="11.75" y="-17" font-family="Times,serif" font-size="10.00">mal_packet_weaver::</text>
<text text-anchor="middle" x="53.38" y="-5.75" font-family="Times,serif" font-size="10.00">crypto::Key</text>
</a>
</g>
</g>
<!-- Node2 -->
<g id="Node000002" class="node">
<title>Node2</title>
<g id="a_Node000002"><a xlink:href="../../d8/d99/structmal__toolkit_1_1_byte_array.html" target="_top" xlink:title="A dynamically resizable array of bytes.">
<polygon fill="white" stroke="#666666" points="106.75,-86.75 0,-86.75 0,-67.5 106.75,-67.5 106.75,-86.75"/>
<text text-anchor="middle" x="53.38" y="-73.25" font-family="Times,serif" font-size="10.00">mal_toolkit::ByteArray</text>
</a>
</g>
</g>
<!-- Node2&#45;&gt;Node1 -->
<g id="edge1_Node000001_Node000002" class="edge">
<title>Node2&#45;&gt;Node1</title>
<g id="a_edge1_Node000001_Node000002"><a xlink:title=" ">
<path fill="none" stroke="#63b8ff" d="M53.38,-55.69C53.38,-47.43 53.38,-38.09 53.38,-30.57"/>
<polygon fill="#63b8ff" stroke="#63b8ff" points="49.88,-55.52 53.38,-65.52 56.88,-55.52 49.88,-55.52"/>
</a>
</g>
</g>
<!-- Node3 -->
<g id="Node000003" class="node">
<title>Node3</title>
<g id="a_Node000003"><a xlink:title=" ">
<polygon fill="white" stroke="#666666" points="93.25,-143 13.5,-143 13.5,-123.75 93.25,-123.75 93.25,-143"/>
<text text-anchor="middle" x="53.38" y="-129.5" font-family="Times,serif" font-size="10.00">std::vector&lt; T &gt;</text>
</a>
</g>
</g>
<!-- Node3&#45;&gt;Node2 -->
<g id="edge2_Node000002_Node000003" class="edge">
<title>Node3&#45;&gt;Node2</title>
<g id="a_edge2_Node000002_Node000003"><a xlink:title=" ">
<path fill="none" stroke="#63b8ff" d="M53.38,-112.19C53.38,-103.48 53.38,-93.74 53.38,-86.92"/>
<polygon fill="#63b8ff" stroke="#63b8ff" points="49.88,-111.9 53.38,-121.9 56.88,-111.9 49.88,-111.9"/>
</a>
</g>
</g>
<!-- Node4 -->
<g id="Node000004" class="node">
<title>Node4</title>
<g id="a_Node000004"><a xlink:title=" ">
<polygon fill="white" stroke="#666666" points="67.78,-209.5 38.98,-209.5 38.98,-190.25 67.78,-190.25 67.78,-209.5"/>
<text text-anchor="middle" x="53.38" y="-196" font-family="Times,serif" font-size="10.00">T</text>
</a>
</g>
</g>
<!-- Node4&#45;&gt;Node3 -->
<g id="edge3_Node000003_Node000004" class="edge">
<title>Node4&#45;&gt;Node3</title>
<g id="a_edge3_Node000003_Node000004"><a xlink:title=" ">
<path fill="none" stroke="#9a32cd" stroke-dasharray="5,2" d="M53.38,-178.4C53.38,-166.57 53.38,-152.29 53.38,-143.27"/>
<polygon fill="#9a32cd" stroke="#9a32cd" points="49.88,-178.39 53.38,-188.39 56.88,-178.39 49.88,-178.39"/>
</a>
</g>
<text text-anchor="middle" x="71.75" y="-162.75" font-family="Times,serif" font-size="10.00" fill="grey"> elements</text>
</g>
</g>
</svg>
