<?xml version="1.0" encoding="UTF-8" standalone="no"?>
<!DOCTYPE svg PUBLIC "-//W3C//DTD SVG 1.1//EN"
 "http://www.w3.org/Graphics/SVG/1.1/DTD/svg11.dtd">
<!-- Generated by graphviz version 9.0.0 (20230911.1827)
 -->
<!-- Title: mal_toolkit::CallbackSystem::RemoveCallback Pages: 1 -->
<svg width="303pt" height="88pt"
 viewBox="0.00 0.00 302.50 87.50" xmlns="http://www.w3.org/2000/svg" xmlns:xlink="http://www.w3.org/1999/xlink">
<g id="graph0" class="graph" transform="scale(1 1) rotate(0) translate(4 83.5)">
<title>mal_toolkit::CallbackSystem::RemoveCallback</title>
<!-- Node1 -->
<g id="Node000001" class="node">
<title>Node1</title>
<g id="a_Node000001"><a xlink:title="Remove a callback by its function object.">
<polygon fill="#999999" stroke="#666666" points="129.25,-54.5 0,-54.5 0,-24 129.25,-24 129.25,-54.5"/>
<text text-anchor="start" x="8" y="-41" font-family="Times,serif" font-size="10.00">mal_toolkit::CallbackSystem</text>
<text text-anchor="middle" x="64.62" y="-29.75" font-family="Times,serif" font-size="10.00">::RemoveCallback</text>
</a>
</g>
</g>
<!-- Node2 -->
<g id="Node000002" class="node">
<title>Node2</title>
<g id="a_Node000002"><a xlink:href="../../df/df5/namespacemal__toolkit.html#adcf0589e175aea12b4b7c10084105c61" target="_top" xlink:title="Get the address of a callable function.">
<polygon fill="white" stroke="#666666" points="287.75,-79.5 172,-79.5 172,-49 287.75,-49 287.75,-79.5"/>
<text text-anchor="start" x="180" y="-66" font-family="Times,serif" font-size="10.00">mal_toolkit::GetFunction</text>
<text text-anchor="middle" x="229.88" y="-54.75" font-family="Times,serif" font-size="10.00">Address</text>
</a>
</g>
</g>
<!-- Node1&#45;&gt;Node2 -->
<g id="edge1_Node000001_Node000002" class="edge">
<title>Node1&#45;&gt;Node2</title>
<g id="a_edge1_Node000001_Node000002"><a xlink:title=" ">
<path fill="none" stroke="#63b8ff" d="M129.68,-49.06C139.74,-50.6 150.17,-52.2 160.33,-53.75"/>
<polygon fill="#63b8ff" stroke="#63b8ff" points="159.73,-57.2 170.14,-55.26 160.79,-50.28 159.73,-57.2"/>
</a>
</g>
</g>
<!-- Node3 -->
<g id="Node000003" class="node">
<title>Node3</title>
<g id="a_Node000003"><a xlink:href="../../dd/d83/classmal__toolkit_1_1_callback_system.html#af7be6f4bf90bd19f7e68680149d176f1" target="_top" xlink:title="Remove a callback by its ID.">
<polygon fill="white" stroke="#666666" points="294.5,-30.5 165.25,-30.5 165.25,0 294.5,0 294.5,-30.5"/>
<text text-anchor="start" x="173.25" y="-17" font-family="Times,serif" font-size="10.00">mal_toolkit::CallbackSystem</text>
<text text-anchor="middle" x="229.88" y="-5.75" font-family="Times,serif" font-size="10.00">::RemoveCallback</text>
</a>
</g>
</g>
<!-- Node1&#45;&gt;Node3 -->
<g id="edge2_Node000001_Node000003" class="edge">
<title>Node1&#45;&gt;Node3</title>
<g id="a_edge2_Node000001_Node000003"><a xlink:title=" ">
<path fill="none" stroke="#63b8ff" d="M129.68,-29.83C137.57,-28.67 145.69,-27.48 153.73,-26.3"/>
<polygon fill="#63b8ff" stroke="#63b8ff" points="154.13,-29.78 163.51,-24.86 153.11,-22.85 154.13,-29.78"/>
</a>
</g>
</g>
</g>
</svg>
