<?xml version="1.0" encoding="UTF-8" standalone="no"?>
<!DOCTYPE svg PUBLIC "-//W3C//DTD SVG 1.1//EN"
 "http://www.w3.org/Graphics/SVG/1.1/DTD/svg11.dtd">
<!-- Generated by graphviz version 8.1.0 (20230707.0739)
 -->
<!-- Title: mal_packet_weaver::PacketDispatcher::PacketDispatcher Pages: 1 -->
<svg width="644pt" height="510pt"
 viewBox="0.00 0.00 643.50 510.02" xmlns="http://www.w3.org/2000/svg" xmlns:xlink="http://www.w3.org/1999/xlink">
<g id="graph0" class="graph" transform="scale(1 1) rotate(0) translate(4 506.02)">
<title>mal_packet_weaver::PacketDispatcher::PacketDispatcher</title>
<!-- Node1 -->
<g id="Node000001" class="node">
<title>Node1</title>
<g id="a_Node000001"><a xlink:title="Constructs a PacketDispatcher instance associated with the given io_context.">
<polygon fill="#999999" stroke="#666666" points="163,-411.75 0,-411.75 0,-381.25 163,-381.25 163,-411.75"/>
<text text-anchor="start" x="8" y="-398.25" font-family="Times,serif" font-size="10.00">mal_packet_weaver::</text>
<text text-anchor="middle" x="81.5" y="-387" font-family="Times,serif" font-size="10.00">PacketDispatcher::PacketDispatcher</text>
</a>
</g>
</g>
<!-- Node2 -->
<g id="Node000002" class="node">
<title>Node2</title>
<g id="a_Node000002"><a xlink:href="../../d4/d61/classmal__packet__weaver_1_1_packet_dispatcher.html#ae48b4ef1938ba5fb557d1d9269c1a323" target="_top" xlink:title="This function represents the main loop for running a task with exponential backoff and asynchronous I...">
<polygon fill="white" stroke="#666666" points="308,-411.75 199,-411.75 199,-381.25 308,-381.25 308,-411.75"/>
<text text-anchor="start" x="207" y="-398.25" font-family="Times,serif" font-size="10.00">mal_packet_weaver::</text>
<text text-anchor="middle" x="253.5" y="-387" font-family="Times,serif" font-size="10.00">PacketDispatcher::Run</text>
</a>
</g>
</g>
<!-- Node1&#45;&gt;Node2 -->
<g id="edge1_Node000001_Node000002" class="edge">
<title>Node1&#45;&gt;Node2</title>
<g id="a_edge1_Node000001_Node000002"><a xlink:title=" ">
<path fill="none" stroke="#63b8ff" d="M163.02,-396.5C171.4,-396.5 179.83,-396.5 188,-396.5"/>
<polygon fill="#63b8ff" stroke="#63b8ff" points="187.94,-400 197.94,-396.5 187.94,-393 187.94,-400"/>
</a>
</g>
</g>
<!-- Node3 -->
<g id="Node000003" class="node">
<title>Node3</title>
<g id="a_Node000003"><a xlink:href="../../db/d8f/classmal__toolkit_1_1_timer.html#a4ac9f05ebd618ab6f567aebd6d421ddb" target="_top" xlink:title="Calculates and returns the elapsed time since the timer was last reset.">
<polygon fill="white" stroke="#666666" points="608.5,-496.75 518.25,-496.75 518.25,-466.25 608.5,-466.25 608.5,-496.75"/>
<text text-anchor="start" x="526.25" y="-483.25" font-family="Times,serif" font-size="10.00">mal_toolkit::Timer</text>
<text text-anchor="middle" x="563.38" y="-472" font-family="Times,serif" font-size="10.00">::elapsed</text>
</a>
</g>
</g>
<!-- Node2&#45;&gt;Node3 -->
<g id="edge2_Node000002_Node000003" class="edge">
<title>Node2&#45;&gt;Node3</title>
<g id="a_edge2_Node000002_Node000003"><a xlink:title=" ">
<path fill="none" stroke="#63b8ff" d="M264.04,-411.92C278.33,-433.39 307.58,-471.35 344,-486.5 396.19,-508.2 461.63,-502.94 507.21,-494.75"/>
<polygon fill="#63b8ff" stroke="#63b8ff" points="507.6,-498.05 516.77,-492.74 506.29,-491.17 507.6,-498.05"/>
</a>
</g>
</g>
<!-- Node4 -->
<g id="Node000004" class="node">
<title>Node4</title>
<g id="a_Node000004"><a xlink:href="../../d4/d61/classmal__packet__weaver_1_1_packet_dispatcher.html#a777e68fdca73f97496bc360835a62c32" target="_top" xlink:title="Fulfills handlers associated with a packet ID and packet data.">
<polygon fill="white" stroke="#666666" points="455.25,-477.38 344,-477.38 344,-435.62 455.25,-435.62 455.25,-477.38"/>
<text text-anchor="start" x="352" y="-463.88" font-family="Times,serif" font-size="10.00">mal_packet_weaver::</text>
<text text-anchor="start" x="352" y="-452.62" font-family="Times,serif" font-size="10.00">PacketDispatcher::fulfill</text>
<text text-anchor="middle" x="399.62" y="-441.38" font-family="Times,serif" font-size="10.00">_handlers</text>
</a>
</g>
</g>
<!-- Node2&#45;&gt;Node4 -->
<g id="edge3_Node000002_Node000004" class="edge">
<title>Node2&#45;&gt;Node4</title>
<g id="a_edge3_Node000002_Node000004"><a xlink:title=" ">
<path fill="none" stroke="#63b8ff" d="M291.99,-412.11C305.88,-417.89 322.01,-424.61 337.46,-431.04"/>
<polygon fill="#63b8ff" stroke="#63b8ff" points="335.91,-434.6 346.49,-435.21 338.6,-428.14 335.91,-434.6"/>
</a>
</g>
</g>
<!-- Node5 -->
<g id="Node000005" class="node">
<title>Node5</title>
<g id="a_Node000005"><a xlink:href="../../d4/d61/classmal__packet__weaver_1_1_packet_dispatcher.html#a2ebc44d095b5fe14aaf3e851c3deef91" target="_top" xlink:title="Fulfills promises associated with a packet ID.">
<polygon fill="white" stroke="#666666" points="455.25,-417.38 344,-417.38 344,-375.62 455.25,-375.62 455.25,-417.38"/>
<text text-anchor="start" x="352" y="-403.88" font-family="Times,serif" font-size="10.00">mal_packet_weaver::</text>
<text text-anchor="start" x="352" y="-392.62" font-family="Times,serif" font-size="10.00">PacketDispatcher::fulfill</text>
<text text-anchor="middle" x="399.62" y="-381.38" font-family="Times,serif" font-size="10.00">_promises</text>
</a>
</g>
</g>
<!-- Node2&#45;&gt;Node5 -->
<g id="edge5_Node000002_Node000005" class="edge">
<title>Node2&#45;&gt;Node5</title>
<g id="a_edge5_Node000002_Node000005"><a xlink:title=" ">
<path fill="none" stroke="#63b8ff" d="M308.17,-396.5C316.29,-396.5 324.75,-396.5 333.09,-396.5"/>
<polygon fill="#63b8ff" stroke="#63b8ff" points="332.95,-400 342.95,-396.5 332.95,-393 332.95,-400"/>
</a>
</g>
</g>
<!-- Node6 -->
<g id="Node000006" class="node">
<title>Node6</title>
<g id="a_Node000006"><a xlink:href="../../d4/d61/classmal__packet__weaver_1_1_packet_dispatcher.html#a2b820a2094b9d5cfd27bb787183437ac" target="_top" xlink:title="Retrieves a shared pointer to the current dispatcher.">
<polygon fill="white" stroke="#666666" points="451.5,-357.38 347.75,-357.38 347.75,-315.62 451.5,-315.62 451.5,-357.38"/>
<text text-anchor="start" x="355.75" y="-343.88" font-family="Times,serif" font-size="10.00">mal_packet_weaver::</text>
<text text-anchor="start" x="355.75" y="-332.62" font-family="Times,serif" font-size="10.00">PacketDispatcher::get</text>
<text text-anchor="middle" x="399.62" y="-321.38" font-family="Times,serif" font-size="10.00">_shared_ptr</text>
</a>
</g>
</g>
<!-- Node2&#45;&gt;Node6 -->
<g id="edge6_Node000002_Node000006" class="edge">
<title>Node2&#45;&gt;Node6</title>
<g id="a_edge6_Node000002_Node000006"><a xlink:title=" ">
<path fill="none" stroke="#63b8ff" d="M291.99,-380.89C305.88,-375.11 322.01,-368.39 337.46,-361.96"/>
<polygon fill="#63b8ff" stroke="#63b8ff" points="338.6,-364.86 346.49,-357.79 335.91,-358.4 338.6,-364.86"/>
</a>
</g>
</g>
<!-- Node9 -->
<g id="Node000009" class="node">
<title>Node9</title>
<g id="a_Node000009"><a xlink:href="../../d4/d61/classmal__packet__weaver_1_1_packet_dispatcher.html#a87b159df2e43d0b4de204fd9b41d46be" target="_top" xlink:title="Pops input packets from input queues to local maps for processing.">
<polygon fill="white" stroke="#666666" points="453,-213.38 346.25,-213.38 346.25,-171.62 453,-171.62 453,-213.38"/>
<text text-anchor="start" x="354.25" y="-199.88" font-family="Times,serif" font-size="10.00">mal_packet_weaver::</text>
<text text-anchor="start" x="354.25" y="-188.62" font-family="Times,serif" font-size="10.00">PacketDispatcher::pop</text>
<text text-anchor="middle" x="399.62" y="-177.38" font-family="Times,serif" font-size="10.00">_inputs</text>
</a>
</g>
</g>
<!-- Node2&#45;&gt;Node9 -->
<g id="edge9_Node000002_Node000009" class="edge">
<title>Node2&#45;&gt;Node9</title>
<g id="a_edge9_Node000002_Node000009"><a xlink:title=" ">
<path fill="none" stroke="#63b8ff" d="M265.57,-380.83C289.51,-346.95 346.43,-266.38 377.5,-222.4"/>
<polygon fill="#63b8ff" stroke="#63b8ff" points="380.81,-224.79 383.72,-214.6 375.09,-220.75 380.81,-224.79"/>
</a>
</g>
</g>
<!-- Node4&#45;&gt;Node3 -->
<g id="edge4_Node000004_Node000003" class="edge">
<title>Node4&#45;&gt;Node3</title>
<g id="a_edge4_Node000004_Node000003"><a xlink:title=" ">
<path fill="none" stroke="#63b8ff" d="M455.39,-464.96C472.08,-467.54 490.43,-470.38 507.15,-472.96"/>
<polygon fill="#63b8ff" stroke="#63b8ff" points="506.45,-476.55 516.87,-474.62 507.52,-469.63 506.45,-476.55"/>
</a>
</g>
</g>
<!-- Node7 -->
<g id="Node000007" class="node">
<title>Node7</title>
<g id="a_Node000007"><a xlink:href="../../d1/da7/classmal__toolkit_1_1_exponential_backoff.html#a161c6f3c2d6e611ec15e3c6511182ec8" target="_top" xlink:title="Get the current backoff delay.">
<polygon fill="white" stroke="#666666" points="624.62,-400.75 502.12,-400.75 502.12,-370.25 624.62,-370.25 624.62,-400.75"/>
<text text-anchor="start" x="510.12" y="-387.25" font-family="Times,serif" font-size="10.00">mal_toolkit::Exponential</text>
<text text-anchor="middle" x="563.38" y="-376" font-family="Times,serif" font-size="10.00">Backoff::get_current_delay</text>
</a>
</g>
</g>
<!-- Node6&#45;&gt;Node7 -->
<g id="edge7_Node000006_Node000007" class="edge">
<title>Node6&#45;&gt;Node7</title>
<g id="a_edge7_Node000006_Node000007"><a xlink:title=" ">
<path fill="none" stroke="#63b8ff" d="M451.8,-352C467.14,-356.65 484.13,-361.8 500.1,-366.63"/>
<polygon fill="#63b8ff" stroke="#63b8ff" points="498.83,-370.21 509.42,-369.76 500.86,-363.51 498.83,-370.21"/>
</a>
</g>
</g>
<!-- Node8 -->
<g id="Node000008" class="node">
<title>Node8</title>
<g id="a_Node000008"><a xlink:href="../../d1/da7/classmal__toolkit_1_1_exponential_backoff.html#ad9374a1e0241fcbae8c9fa4d7c3175f8" target="_top" xlink:title="Increase the backoff delay using exponential factor.">
<polygon fill="white" stroke="#666666" points="619,-351.75 507.75,-351.75 507.75,-321.25 619,-321.25 619,-351.75"/>
<text text-anchor="start" x="515.75" y="-338.25" font-family="Times,serif" font-size="10.00">mal_toolkit::Exponential</text>
<text text-anchor="middle" x="563.38" y="-327" font-family="Times,serif" font-size="10.00">Backoff::increase_delay</text>
</a>
</g>
</g>
<!-- Node6&#45;&gt;Node8 -->
<g id="edge8_Node000006_Node000008" class="edge">
<title>Node6&#45;&gt;Node8</title>
<g id="a_edge8_Node000006_Node000008"><a xlink:title=" ">
<path fill="none" stroke="#63b8ff" d="M451.8,-336.5C466.03,-336.5 481.68,-336.5 496.61,-336.5"/>
<polygon fill="#63b8ff" stroke="#63b8ff" points="496.33,-340 506.33,-336.5 496.33,-333 496.33,-340"/>
</a>
</g>
</g>
<!-- Node10 -->
<g id="Node000010" class="node">
<title>Node10</title>
<g id="a_Node000010"><a xlink:href="../../d6/de9/namespacemal__packet__weaver.html#af2c5029afaa161f2ddd273bc2f46d4f5" target="_top" xlink:title="Awaiting an std::future with Boost.Asio integration.">
<polygon fill="white" stroke="#666666" points="613,-302.75 513.75,-302.75 513.75,-272.25 613,-272.25 613,-302.75"/>
<text text-anchor="start" x="521.75" y="-289.25" font-family="Times,serif" font-size="10.00">mal_packet_weaver::</text>
<text text-anchor="middle" x="563.38" y="-278" font-family="Times,serif" font-size="10.00">await_future</text>
</a>
</g>
</g>
<!-- Node9&#45;&gt;Node10 -->
<g id="edge10_Node000009_Node000010" class="edge">
<title>Node9&#45;&gt;Node10</title>
<g id="a_edge10_Node000009_Node000010"><a xlink:title=" ">
<path fill="none" stroke="#63b8ff" d="M423.31,-213.85C440.77,-229.36 466.1,-249.92 491.25,-263.5 495.18,-265.62 499.34,-267.61 503.59,-269.46"/>
<polygon fill="#63b8ff" stroke="#63b8ff" points="502.03,-273.01 512.62,-273.51 504.66,-266.52 502.03,-273.01"/>
</a>
</g>
</g>
<!-- Node11 -->
<g id="Node000011" class="node">
<title>Node11</title>
<g id="a_Node000011"><a xlink:href="../../d4/d61/classmal__packet__weaver_1_1_packet_dispatcher.html#ab72dbe23999515e3fa7db665a330f066" target="_top" xlink:title="Creates a default_handlers_input_pop_task and returns a future to await completion.">
<polygon fill="white" stroke="#666666" points="621.25,-254 505.5,-254 505.5,-201 621.25,-201 621.25,-254"/>
<text text-anchor="start" x="513.5" y="-240.5" font-family="Times,serif" font-size="10.00">mal_packet_weaver::</text>
<text text-anchor="start" x="513.5" y="-229.25" font-family="Times,serif" font-size="10.00">PacketDispatcher::create</text>
<text text-anchor="start" x="513.5" y="-218" font-family="Times,serif" font-size="10.00">_default_handlers_input</text>
<text text-anchor="middle" x="563.38" y="-206.75" font-family="Times,serif" font-size="10.00">_pop_task</text>
</a>
</g>
</g>
<!-- Node9&#45;&gt;Node11 -->
<g id="edge11_Node000009_Node000011" class="edge">
<title>Node9&#45;&gt;Node11</title>
<g id="a_edge11_Node000009_Node000011"><a xlink:title=" ">
<path fill="none" stroke="#63b8ff" d="M453.14,-203.86C466.37,-206.73 480.76,-209.84 494.63,-212.84"/>
<polygon fill="#63b8ff" stroke="#63b8ff" points="493.58,-216.41 504.1,-215.11 495.06,-209.57 493.58,-216.41"/>
</a>
</g>
</g>
<!-- Node12 -->
<g id="Node000012" class="node">
<title>Node12</title>
<g id="a_Node000012"><a xlink:href="../../d4/d61/classmal__packet__weaver_1_1_packet_dispatcher.html#a1fcf146e1842c61f10a6456e716f24a2" target="_top" xlink:title="Creates a promise_filter_map_input_pop_task and returns a future to await completion.">
<polygon fill="white" stroke="#666666" points="626.5,-183 500.25,-183 500.25,-130 626.5,-130 626.5,-183"/>
<text text-anchor="start" x="508.25" y="-169.5" font-family="Times,serif" font-size="10.00">mal_packet_weaver::</text>
<text text-anchor="start" x="508.25" y="-158.25" font-family="Times,serif" font-size="10.00">PacketDispatcher::create</text>
<text text-anchor="start" x="508.25" y="-147" font-family="Times,serif" font-size="10.00">_promise_filter_map_input</text>
<text text-anchor="middle" x="563.38" y="-135.75" font-family="Times,serif" font-size="10.00">_pop_task</text>
</a>
</g>
</g>
<!-- Node9&#45;&gt;Node12 -->
<g id="edge12_Node000009_Node000012" class="edge">
<title>Node9&#45;&gt;Node12</title>
<g id="a_edge12_Node000009_Node000012"><a xlink:title=" ">
<path fill="none" stroke="#63b8ff" d="M453.14,-180.81C464.7,-178.24 477.14,-175.47 489.34,-172.75"/>
<polygon fill="#63b8ff" stroke="#63b8ff" points="489.98,-175.98 498.98,-170.39 488.46,-169.14 489.98,-175.98"/>
</a>
</g>
</g>
<!-- Node13 -->
<g id="Node000013" class="node">
<title>Node13</title>
<g id="a_Node000013"><a xlink:href="../../d4/d61/classmal__packet__weaver_1_1_packet_dispatcher.html#a8e90b1f9723efb6f2bb12e3b89d1e27c" target="_top" xlink:title="Creates a promise_map_input_pop_task and returns a future to await completion.">
<polygon fill="white" stroke="#666666" points="635.5,-112.38 491.25,-112.38 491.25,-70.62 635.5,-70.62 635.5,-112.38"/>
<text text-anchor="start" x="499.25" y="-98.88" font-family="Times,serif" font-size="10.00">mal_packet_weaver::</text>
<text text-anchor="start" x="499.25" y="-87.62" font-family="Times,serif" font-size="10.00">PacketDispatcher::create</text>
<text text-anchor="middle" x="563.38" y="-76.38" font-family="Times,serif" font-size="10.00">_promise_map_input_pop_task</text>
</a>
</g>
</g>
<!-- Node9&#45;&gt;Node13 -->
<g id="edge13_Node000009_Node000013" class="edge">
<title>Node9&#45;&gt;Node13</title>
<g id="a_edge13_Node000009_Node000013"><a xlink:title=" ">
<path fill="none" stroke="#63b8ff" d="M423.98,-171.36C441.58,-156.16 466.79,-135.89 491.25,-121.5 493.44,-120.21 495.7,-118.95 498,-117.71"/>
<polygon fill="#63b8ff" stroke="#63b8ff" points="499.33,-120.46 506.66,-112.81 496.16,-114.21 499.33,-120.46"/>
</a>
</g>
</g>
<!-- Node14 -->
<g id="Node000014" class="node">
<title>Node14</title>
<g id="a_Node000014"><a xlink:href="../../d4/d61/classmal__packet__weaver_1_1_packet_dispatcher.html#af943e1f1d220396b11bfbbb24132e4c8" target="_top" xlink:title="Creates an unprocessed_packets_input_pop_task and returns a future to await completion.">
<polygon fill="white" stroke="#666666" points="630.25,-53 496.5,-53 496.5,0 630.25,0 630.25,-53"/>
<text text-anchor="start" x="504.5" y="-39.5" font-family="Times,serif" font-size="10.00">mal_packet_weaver::</text>
<text text-anchor="start" x="504.5" y="-28.25" font-family="Times,serif" font-size="10.00">PacketDispatcher::create</text>
<text text-anchor="start" x="504.5" y="-17" font-family="Times,serif" font-size="10.00">_unprocessed_packets_input</text>
<text text-anchor="middle" x="563.38" y="-5.75" font-family="Times,serif" font-size="10.00">_pop_task</text>
</a>
</g>
</g>
<!-- Node9&#45;&gt;Node14 -->
<g id="edge14_Node000009_Node000014" class="edge">
<title>Node9&#45;&gt;Node14</title>
<g id="a_edge14_Node000009_Node000014"><a xlink:title=" ">
<path fill="none" stroke="#63b8ff" d="M410.84,-171.43C425.37,-143.28 454.38,-93.28 491.25,-61.5 491.88,-60.96 492.51,-60.43 493.15,-59.9"/>
<polygon fill="#63b8ff" stroke="#63b8ff" points="495,-62.15 500.97,-53.39 490.84,-56.52 495,-62.15"/>
</a>
</g>
</g>
</g>
</svg>
