<?xml version="1.0" encoding="UTF-8" standalone="no"?>
<!DOCTYPE svg PUBLIC "-//W3C//DTD SVG 1.1//EN"
 "http://www.w3.org/Graphics/SVG/1.1/DTD/svg11.dtd">
<!-- Generated by graphviz version 8.1.0 (20230707.0739)
 -->
<!-- Title: mal_packet_weaver::PacketDispatcher::PacketDispatcher Pages: 1 -->
<!--zoomable 461 -->

<svg id="main" version="1.1" xmlns="http://www.w3.org/2000/svg" xmlns:xlink="http://www.w3.org/1999/xlink" xml:space="preserve" onload="init(evt)">
<style type="text/css"><![CDATA[
.node, .edge {opacity: 0.7;}
.node.selected, .edge.selected {opacity: 1;}
.edge:hover path { stroke: red; }
.edge:hover polygon { stroke: red; fill: red; }
]]></style>

<defs>
  <circle id="rim" cx="0" cy="0" r="7"/>
  <circle id="rim2" cx="0" cy="0" r="3.5"/>
  <g id="zoomPlus">
    <use xlink:href="#rim" fill="#404040"><set attributeName="fill" to="#808080" begin="zoomplus.mouseover" end="zoomplus.mouseout"/></use>
    <path d="M-4,0h8M0,-4v8" fill="none" stroke="white" stroke-width="1.5" pointer-events="none"/>
  </g>
  <g id="zoomMin">
    <use xlink:href="#rim" fill="#404040"><set attributeName="fill" to="#808080" begin="zoomminus.mouseover" end="zoomminus.mouseout"/></use>
    <path d="M-4,0h8" fill="none" stroke="white" stroke-width="1.5" pointer-events="none"/>
  </g>
  <g id="arrowUp" transform="translate(30 24)">
    <use xlink:href="#rim"/>
    <path pointer-events="none" fill="none" stroke="white" stroke-width="1.5" d="M0,-3.0v7 M-2.5,-0.5L0,-3.0L2.5,-0.5"/>
  </g>
  <g id="arrowRight" transform="rotate(90) translate(36 -43)">
    <use xlink:href="#rim"/>
    <path pointer-events="none" fill="none" stroke="white" stroke-width="1.5" d="M0,-3.0v7 M-2.5,-0.5L0,-3.0L2.5,-0.5"/>
  </g>
  <g id="arrowDown" transform="rotate(180) translate(-30 -48)">
    <use xlink:href="#rim"/>
    <path pointer-events="none" fill="none" stroke="white" stroke-width="1.5" d="M0,-3.0v7 M-2.5,-0.5L0,-3.0L2.5,-0.5"/>
  </g>
  <g id="arrowLeft" transform="rotate(270) translate(-36 17)">
    <use xlink:href="#rim"/>
    <path pointer-events="none" fill="none" stroke="white" stroke-width="1.5" d="M0,-3.0v7 M-2.5,-0.5L0,-3.0L2.5,-0.5"/>
  </g>
  <g id="resetDef">
    <use xlink:href="#rim2" fill="#404040"><set attributeName="fill" to="#808080" begin="reset.mouseover" end="reset.mouseout"/></use>
  </g>
</defs>
<script type="application/ecmascript">
var viewWidth = 644;
var viewHeight = 461;
var sectionId = 'dynsection-2';
</script>
<script type="application/ecmascript" xlink:href="../../svg.min.js"/>
<svg id="graph" class="graph">
<g id="viewport">
<title>mal_packet_weaver::PacketDispatcher::PacketDispatcher</title>
<!-- Node1 -->
<g id="Node000001" class="node">
<title>Node1</title>
<g id="a_Node000001"><a xlink:title="Constructs a PacketDispatcher instance associated with the given io_context.">
<polygon fill="#999999" stroke="#666666" points="163,-362.75 0,-362.75 0,-332.25 163,-332.25 163,-362.75"/>
<text text-anchor="start" x="8" y="-349.25" font-family="Times,serif" font-size="10.00">mal_packet_weaver::</text>
<text text-anchor="middle" x="81.5" y="-338" font-family="Times,serif" font-size="10.00">PacketDispatcher::PacketDispatcher</text>
</a>
</g>
</g>
<!-- Node2 -->
<g id="Node000002" class="node">
<title>Node2</title>
<g id="a_Node000002"><a xlink:href="../../d4/d61/classmal__packet__weaver_1_1_packet_dispatcher.html#ae48b4ef1938ba5fb557d1d9269c1a323" target="_top" xlink:title="This function represents the main loop for running a task with exponential backoff and asynchronous I...">
<polygon fill="white" stroke="#666666" points="308,-362.75 199,-362.75 199,-332.25 308,-332.25 308,-362.75"/>
<text text-anchor="start" x="207" y="-349.25" font-family="Times,serif" font-size="10.00">mal_packet_weaver::</text>
<text text-anchor="middle" x="253.5" y="-338" font-family="Times,serif" font-size="10.00">PacketDispatcher::Run</text>
</a>
</g>
</g>
<!-- Node1&#45;&gt;Node2 -->
<g id="edge1_Node000001_Node000002" class="edge">
<title>Node1&#45;&gt;Node2</title>
<g id="a_edge1_Node000001_Node000002"><a xlink:title=" ">
<path fill="none" stroke="#63b8ff" d="M163.02,-347.5C171.4,-347.5 179.83,-347.5 188,-347.5"/>
<polygon fill="#63b8ff" stroke="#63b8ff" points="187.94,-351 197.94,-347.5 187.94,-344 187.94,-351"/>
</a>
</g>
</g>
<!-- Node3 -->
<g id="Node000003" class="node">
<title>Node3</title>
<g id="a_Node000003"><a xlink:href="../../db/d8f/classmal__toolkit_1_1_timer.html#a4ac9f05ebd618ab6f567aebd6d421ddb" target="_top" xlink:title="Calculates and returns the elapsed time since the timer was last reset.">
<polygon fill="white" stroke="#666666" points="608.5,-447.75 518.25,-447.75 518.25,-417.25 608.5,-417.25 608.5,-447.75"/>
<text text-anchor="start" x="526.25" y="-434.25" font-family="Times,serif" font-size="10.00">mal_toolkit::Timer</text>
<text text-anchor="middle" x="563.38" y="-423" font-family="Times,serif" font-size="10.00">::elapsed</text>
</a>
</g>
</g>
<!-- Node2&#45;&gt;Node3 -->
<g id="edge2_Node000002_Node000003" class="edge">
<title>Node2&#45;&gt;Node3</title>
<g id="a_edge2_Node000002_Node000003"><a xlink:title=" ">
<path fill="none" stroke="#63b8ff" d="M264.04,-362.92C278.33,-384.39 307.58,-422.35 344,-437.5 396.19,-459.2 461.63,-453.94 507.21,-445.75"/>
<polygon fill="#63b8ff" stroke="#63b8ff" points="507.6,-449.05 516.77,-443.74 506.29,-442.17 507.6,-449.05"/>
</a>
</g>
</g>
<!-- Node4 -->
<g id="Node000004" class="node">
<title>Node4</title>
<g id="a_Node000004"><a xlink:href="../../d4/d61/classmal__packet__weaver_1_1_packet_dispatcher.html#a777e68fdca73f97496bc360835a62c32" target="_top" xlink:title="Fulfills handlers associated with a packet ID and packet data.">
<polygon fill="white" stroke="#666666" points="455.25,-428.38 344,-428.38 344,-386.62 455.25,-386.62 455.25,-428.38"/>
<text text-anchor="start" x="352" y="-414.88" font-family="Times,serif" font-size="10.00">mal_packet_weaver::</text>
<text text-anchor="start" x="352" y="-403.62" font-family="Times,serif" font-size="10.00">PacketDispatcher::fulfill</text>
<text text-anchor="middle" x="399.62" y="-392.38" font-family="Times,serif" font-size="10.00">_handlers</text>
</a>
</g>
</g>
<!-- Node2&#45;&gt;Node4 -->
<g id="edge3_Node000002_Node000004" class="edge">
<title>Node2&#45;&gt;Node4</title>
<g id="a_edge3_Node000002_Node000004"><a xlink:title=" ">
<path fill="none" stroke="#63b8ff" d="M291.99,-363.11C305.88,-368.89 322.01,-375.61 337.46,-382.04"/>
<polygon fill="#63b8ff" stroke="#63b8ff" points="335.91,-385.6 346.49,-386.21 338.6,-379.14 335.91,-385.6"/>
</a>
</g>
</g>
<!-- Node5 -->
<g id="Node000005" class="node">
<title>Node5</title>
<g id="a_Node000005"><a xlink:href="../../d4/d61/classmal__packet__weaver_1_1_packet_dispatcher.html#a2ebc44d095b5fe14aaf3e851c3deef91" target="_top" xlink:title="Fulfills promises associated with a packet ID.">
<polygon fill="white" stroke="#666666" points="455.25,-368.38 344,-368.38 344,-326.62 455.25,-326.62 455.25,-368.38"/>
<text text-anchor="start" x="352" y="-354.88" font-family="Times,serif" font-size="10.00">mal_packet_weaver::</text>
<text text-anchor="start" x="352" y="-343.62" font-family="Times,serif" font-size="10.00">PacketDispatcher::fulfill</text>
<text text-anchor="middle" x="399.62" y="-332.38" font-family="Times,serif" font-size="10.00">_promises</text>
</a>
</g>
</g>
<!-- Node2&#45;&gt;Node5 -->
<g id="edge5_Node000002_Node000005" class="edge">
<title>Node2&#45;&gt;Node5</title>
<g id="a_edge5_Node000002_Node000005"><a xlink:title=" ">
<path fill="none" stroke="#63b8ff" d="M308.17,-347.5C316.29,-347.5 324.75,-347.5 333.09,-347.5"/>
<polygon fill="#63b8ff" stroke="#63b8ff" points="332.95,-351 342.95,-347.5 332.95,-344 332.95,-351"/>
</a>
</g>
</g>
<!-- Node6 -->
<g id="Node000006" class="node">
<title>Node6</title>
<g id="a_Node000006"><a xlink:href="../../d4/d61/classmal__packet__weaver_1_1_packet_dispatcher.html#ad7cba4339fd22ce22ff13bd940f839ff" target="_top" xlink:title="Retrieves a shared pointer to the current dispatcher.">
<polygon fill="white" stroke="#666666" points="451.5,-308.38 347.75,-308.38 347.75,-266.62 451.5,-266.62 451.5,-308.38"/>
<text text-anchor="start" x="355.75" y="-294.88" font-family="Times,serif" font-size="10.00">mal_packet_weaver::</text>
<text text-anchor="start" x="355.75" y="-283.62" font-family="Times,serif" font-size="10.00">PacketDispatcher::get</text>
<text text-anchor="middle" x="399.62" y="-272.38" font-family="Times,serif" font-size="10.00">_shared_ptr</text>
</a>
</g>
</g>
<!-- Node2&#45;&gt;Node6 -->
<g id="edge6_Node000002_Node000006" class="edge">
<title>Node2&#45;&gt;Node6</title>
<g id="a_edge6_Node000002_Node000006"><a xlink:title=" ">
<path fill="none" stroke="#63b8ff" d="M291.99,-331.89C305.88,-326.11 322.01,-319.39 337.46,-312.96"/>
<polygon fill="#63b8ff" stroke="#63b8ff" points="338.6,-315.86 346.49,-308.79 335.91,-309.4 338.6,-315.86"/>
</a>
</g>
</g>
<!-- Node9 -->
<g id="Node000009" class="node">
<title>Node9</title>
<g id="a_Node000009"><a xlink:href="../../d4/d61/classmal__packet__weaver_1_1_packet_dispatcher.html#a87b159df2e43d0b4de204fd9b41d46be" target="_top" xlink:title="Pops input packets from input queues to local maps for processing.">
<polygon fill="white" stroke="#666666" points="453,-177.38 346.25,-177.38 346.25,-135.62 453,-135.62 453,-177.38"/>
<text text-anchor="start" x="354.25" y="-163.88" font-family="Times,serif" font-size="10.00">mal_packet_weaver::</text>
<text text-anchor="start" x="354.25" y="-152.62" font-family="Times,serif" font-size="10.00">PacketDispatcher::pop</text>
<text text-anchor="middle" x="399.62" y="-141.38" font-family="Times,serif" font-size="10.00">_inputs</text>
</a>
</g>
</g>
<!-- Node2&#45;&gt;Node9 -->
<g id="edge9_Node000002_Node000009" class="edge">
<title>Node2&#45;&gt;Node9</title>
<g id="a_edge9_Node000002_Node000009"><a xlink:title=" ">
<path fill="none" stroke="#63b8ff" d="M266.29,-331.87C290.23,-300.15 344.88,-227.73 375.94,-186.56"/>
<polygon fill="#63b8ff" stroke="#63b8ff" points="379.33,-188.88 382.56,-178.79 373.74,-184.66 379.33,-188.88"/>
</a>
</g>
</g>
<!-- Node4&#45;&gt;Node3 -->
<g id="edge4_Node000004_Node000003" class="edge">
<title>Node4&#45;&gt;Node3</title>
<g id="a_edge4_Node000004_Node000003"><a xlink:title=" ">
<path fill="none" stroke="#63b8ff" d="M455.39,-415.96C472.08,-418.54 490.43,-421.38 507.15,-423.96"/>
<polygon fill="#63b8ff" stroke="#63b8ff" points="506.45,-427.55 516.87,-425.62 507.52,-420.63 506.45,-427.55"/>
</a>
</g>
</g>
<!-- Node7 -->
<g id="Node000007" class="node">
<title>Node7</title>
<g id="a_Node000007"><a xlink:href="../../d1/da7/classmal__toolkit_1_1_exponential_backoff.html#a161c6f3c2d6e611ec15e3c6511182ec8" target="_top" xlink:title="Get the current backoff delay.">
<polygon fill="white" stroke="#666666" points="624.62,-351.75 502.12,-351.75 502.12,-321.25 624.62,-321.25 624.62,-351.75"/>
<text text-anchor="start" x="510.12" y="-338.25" font-family="Times,serif" font-size="10.00">mal_toolkit::Exponential</text>
<text text-anchor="middle" x="563.38" y="-327" font-family="Times,serif" font-size="10.00">Backoff::get_current_delay</text>
</a>
</g>
</g>
<!-- Node6&#45;&gt;Node7 -->
<g id="edge7_Node000006_Node000007" class="edge">
<title>Node6&#45;&gt;Node7</title>
<g id="a_edge7_Node000006_Node000007"><a xlink:title=" ">
<path fill="none" stroke="#63b8ff" d="M451.8,-303C467.14,-307.65 484.13,-312.8 500.1,-317.63"/>
<polygon fill="#63b8ff" stroke="#63b8ff" points="498.83,-321.21 509.42,-320.76 500.86,-314.51 498.83,-321.21"/>
</a>
</g>
</g>
<!-- Node8 -->
<g id="Node000008" class="node">
<title>Node8</title>
<g id="a_Node000008"><a xlink:href="../../d1/da7/classmal__toolkit_1_1_exponential_backoff.html#ad9374a1e0241fcbae8c9fa4d7c3175f8" target="_top" xlink:title="Increase the backoff delay using exponential factor.">
<polygon fill="white" stroke="#666666" points="619,-302.75 507.75,-302.75 507.75,-272.25 619,-272.25 619,-302.75"/>
<text text-anchor="start" x="515.75" y="-289.25" font-family="Times,serif" font-size="10.00">mal_toolkit::Exponential</text>
<text text-anchor="middle" x="563.38" y="-278" font-family="Times,serif" font-size="10.00">Backoff::increase_delay</text>
</a>
</g>
</g>
<!-- Node6&#45;&gt;Node8 -->
<g id="edge8_Node000006_Node000008" class="edge">
<title>Node6&#45;&gt;Node8</title>
<g id="a_edge8_Node000006_Node000008"><a xlink:title=" ">
<path fill="none" stroke="#63b8ff" d="M451.8,-287.5C466.03,-287.5 481.68,-287.5 496.61,-287.5"/>
<polygon fill="#63b8ff" stroke="#63b8ff" points="496.33,-291 506.33,-287.5 496.33,-284 496.33,-291"/>
</a>
</g>
</g>
<!-- Node10 -->
<g id="Node000010" class="node">
<title>Node10</title>
<g id="a_Node000010"><a xlink:href="../../d4/d61/classmal__packet__weaver_1_1_packet_dispatcher.html#ab72dbe23999515e3fa7db665a330f066" target="_top" xlink:title="Creates a default_handlers_input_pop_task and returns a future to await completion.">
<polygon fill="white" stroke="#666666" points="621.25,-254 505.5,-254 505.5,-201 621.25,-201 621.25,-254"/>
<text text-anchor="start" x="513.5" y="-240.5" font-family="Times,serif" font-size="10.00">mal_packet_weaver::</text>
<text text-anchor="start" x="513.5" y="-229.25" font-family="Times,serif" font-size="10.00">PacketDispatcher::create</text>
<text text-anchor="start" x="513.5" y="-218" font-family="Times,serif" font-size="10.00">_default_handlers_input</text>
<text text-anchor="middle" x="563.38" y="-206.75" font-family="Times,serif" font-size="10.00">_pop_task</text>
</a>
</g>
</g>
<!-- Node9&#45;&gt;Node10 -->
<g id="edge10_Node000009_Node000010" class="edge">
<title>Node9&#45;&gt;Node10</title>
<g id="a_edge10_Node000009_Node000010"><a xlink:title=" ">
<path fill="none" stroke="#63b8ff" d="M449.16,-177.8C463.58,-184.14 479.65,-191.19 495.05,-197.95"/>
<polygon fill="#63b8ff" stroke="#63b8ff" points="493.48,-201.52 504.05,-202.34 496.3,-195.11 493.48,-201.52"/>
</a>
</g>
</g>
<!-- Node11 -->
<g id="Node000011" class="node">
<title>Node11</title>
<g id="a_Node000011"><a xlink:href="../../d4/d61/classmal__packet__weaver_1_1_packet_dispatcher.html#a1fcf146e1842c61f10a6456e716f24a2" target="_top" xlink:title="Creates a promise_filter_map_input_pop_task and returns a future to await completion.">
<polygon fill="white" stroke="#666666" points="626.5,-183 500.25,-183 500.25,-130 626.5,-130 626.5,-183"/>
<text text-anchor="start" x="508.25" y="-169.5" font-family="Times,serif" font-size="10.00">mal_packet_weaver::</text>
<text text-anchor="start" x="508.25" y="-158.25" font-family="Times,serif" font-size="10.00">PacketDispatcher::create</text>
<text text-anchor="start" x="508.25" y="-147" font-family="Times,serif" font-size="10.00">_promise_filter_map_input</text>
<text text-anchor="middle" x="563.38" y="-135.75" font-family="Times,serif" font-size="10.00">_pop_task</text>
</a>
</g>
</g>
<!-- Node9&#45;&gt;Node11 -->
<g id="edge11_Node000009_Node000011" class="edge">
<title>Node9&#45;&gt;Node11</title>
<g id="a_edge11_Node000009_Node000011"><a xlink:title=" ">
<path fill="none" stroke="#63b8ff" d="M453.14,-156.5C464.7,-156.5 477.14,-156.5 489.34,-156.5"/>
<polygon fill="#63b8ff" stroke="#63b8ff" points="488.98,-160 498.98,-156.5 488.98,-153 488.98,-160"/>
</a>
</g>
</g>
<!-- Node12 -->
<g id="Node000012" class="node">
<title>Node12</title>
<g id="a_Node000012"><a xlink:href="../../d4/d61/classmal__packet__weaver_1_1_packet_dispatcher.html#a8e90b1f9723efb6f2bb12e3b89d1e27c" target="_top" xlink:title="Creates a promise_map_input_pop_task and returns a future to await completion.">
<polygon fill="white" stroke="#666666" points="635.5,-112.38 491.25,-112.38 491.25,-70.62 635.5,-70.62 635.5,-112.38"/>
<text text-anchor="start" x="499.25" y="-98.88" font-family="Times,serif" font-size="10.00">mal_packet_weaver::</text>
<text text-anchor="start" x="499.25" y="-87.62" font-family="Times,serif" font-size="10.00">PacketDispatcher::create</text>
<text text-anchor="middle" x="563.38" y="-76.38" font-family="Times,serif" font-size="10.00">_promise_map_input_pop_task</text>
</a>
</g>
</g>
<!-- Node9&#45;&gt;Node12 -->
<g id="edge12_Node000009_Node000012" class="edge">
<title>Node9&#45;&gt;Node12</title>
<g id="a_edge12_Node000009_Node000012"><a xlink:title=" ">
<path fill="none" stroke="#63b8ff" d="M453.14,-135.4C467.9,-129.47 484.09,-122.96 499.39,-116.81"/>
<polygon fill="#63b8ff" stroke="#63b8ff" points="500.32,-119.81 508.29,-112.83 497.71,-113.31 500.32,-119.81"/>
</a>
</g>
</g>
<!-- Node13 -->
<g id="Node000013" class="node">
<title>Node13</title>
<g id="a_Node000013"><a xlink:href="../../d4/d61/classmal__packet__weaver_1_1_packet_dispatcher.html#af943e1f1d220396b11bfbbb24132e4c8" target="_top" xlink:title="Creates an unprocessed_packets_input_pop_task and returns a future to await completion.">
<polygon fill="white" stroke="#666666" points="630.25,-53 496.5,-53 496.5,0 630.25,0 630.25,-53"/>
<text text-anchor="start" x="504.5" y="-39.5" font-family="Times,serif" font-size="10.00">mal_packet_weaver::</text>
<text text-anchor="start" x="504.5" y="-28.25" font-family="Times,serif" font-size="10.00">PacketDispatcher::create</text>
<text text-anchor="start" x="504.5" y="-17" font-family="Times,serif" font-size="10.00">_unprocessed_packets_input</text>
<text text-anchor="middle" x="563.38" y="-5.75" font-family="Times,serif" font-size="10.00">_pop_task</text>
</a>
</g>
</g>
<!-- Node9&#45;&gt;Node13 -->
<g id="edge13_Node000009_Node000013" class="edge">
<title>Node9&#45;&gt;Node13</title>
<g id="a_edge13_Node000009_Node000013"><a xlink:title=" ">
<path fill="none" stroke="#63b8ff" d="M417.21,-135.15C434.15,-114.4 462.03,-82.94 491.25,-61.5 492.34,-60.7 493.46,-59.91 494.59,-59.13"/>
<polygon fill="#63b8ff" stroke="#63b8ff" points="496.05,-61.7 502.56,-53.34 492.26,-55.82 496.05,-61.7"/>
</a>
</g>
</g>
</g>
</svg>

<g id="navigator" transform="translate(0 0)" fill="#404254">
  <rect fill="#f2f5e9" fill-opacity="0.5" stroke="#606060" stroke-width=".5" x="0" y="0" width="60" height="60"/>
  <use id="zoomplus" xlink:href="#zoomPlus" x="17" y="9" onmousedown="handleZoom(evt,'in')"/>
  <use id="zoomminus" xlink:href="#zoomMin" x="42" y="9" onmousedown="handleZoom(evt,'out')"/>
  <use id="reset" xlink:href="#resetDef" x="30" y="36" onmousedown="handleReset()"/>
   <use id="arrowup" xlink:href="#arrowUp" x="0" y="0" onmousedown="handlePan(0,-1)"/>
  <use id="arrowright" xlink:href="#arrowRight" x="0" y="0" onmousedown="handlePan(1,0)"/>
  <use id="arrowdown" xlink:href="#arrowDown" x="0" y="0" onmousedown="handlePan(0,1)"/>
  <use id="arrowleft" xlink:href="#arrowLeft" x="0" y="0" onmousedown="handlePan(-1,0)"/>
</g>
<svg viewBox="0 0 15 15" width="100%" height="30px" preserveAspectRatio="xMaxYMin meet">
 <g id="arrow_out" transform="scale(0.3 0.3)">
  <a xlink:href="classmal__packet__weaver_1_1_packet_dispatcher_ac22bb2ccd532850a73766ce512b50082_cgraph_org.svg" target="_base">
   <rect id="button" ry="5" rx="5" y="6" x="6" height="38" width="38"
        fill="#f2f5e9" fill-opacity="0.5" stroke="#606060" stroke-width="1.0"/>
   <path id="arrow"
     d="M 11.500037,31.436501 C 11.940474,20.09759 22.043105,11.32322 32.158766,21.979434 L 37.068811,17.246167 C 37.068811,17.246167 37.088388,32 37.088388,32 L 22.160133,31.978069 C 22.160133,31.978069 26.997745,27.140456 26.997745,27.140456 C 18.528582,18.264221 13.291696,25.230495 11.500037,31.436501 z"
     style="fill:#404040;"/>
  </a>
 </g>
</svg>

<style type='text/css'>
<![CDATA[
[data-mouse-over-selected='false'] { opacity: 0.7; }
[data-mouse-over-selected='true']  { opacity: 1.0; }
]]>
</style>
<script type="application/ecmascript"><![CDATA[
document.addEventListener('DOMContentLoaded', (event) => {
  highlightEdges();
  highlightAdjacentNodes();
});
]]></script>
</svg>
