<?xml version="1.0" encoding="UTF-8" standalone="no"?>
<!DOCTYPE svg PUBLIC "-//W3C//DTD SVG 1.1//EN"
 "http://www.w3.org/Graphics/SVG/1.1/DTD/svg11.dtd">
<!-- Generated by graphviz version 8.1.0 (20230707.0739)
 -->
<!-- Title: mal_packet_weaver::PacketDispatcher::Run Pages: 1 -->
<svg width="445pt" height="330pt"
 viewBox="0.00 0.00 444.50 329.75" xmlns="http://www.w3.org/2000/svg" xmlns:xlink="http://www.w3.org/1999/xlink">
<g id="graph0" class="graph" transform="scale(1 1) rotate(0) translate(4 325.75)">
<title>mal_packet_weaver::PacketDispatcher::Run</title>
<!-- Node1 -->
<g id="Node000001" class="node">
<title>Node1</title>
<g id="a_Node000001"><a xlink:title="This function represents the main loop for running a task with exponential backoff and asynchronous I...">
<polygon fill="#999999" stroke="#666666" points="109,-251.75 0,-251.75 0,-221.25 109,-221.25 109,-251.75"/>
<text text-anchor="start" x="8" y="-238.25" font-family="Times,serif" font-size="10.00">mal_packet_weaver::</text>
<text text-anchor="middle" x="54.5" y="-227" font-family="Times,serif" font-size="10.00">PacketDispatcher::Run</text>
</a>
</g>
</g>
<!-- Node2 -->
<g id="Node000002" class="node">
<title>Node2</title>
<g id="a_Node000002"><a xlink:href="../../db/d8f/classmal__toolkit_1_1_timer.html#a4ac9f05ebd618ab6f567aebd6d421ddb" target="_top" xlink:title="Calculates and returns the elapsed time since the timer was last reset.">
<polygon fill="white" stroke="#666666" points="409.5,-321.75 319.25,-321.75 319.25,-291.25 409.5,-291.25 409.5,-321.75"/>
<text text-anchor="start" x="327.25" y="-308.25" font-family="Times,serif" font-size="10.00">mal_toolkit::Timer</text>
<text text-anchor="middle" x="364.38" y="-297" font-family="Times,serif" font-size="10.00">::elapsed</text>
</a>
</g>
</g>
<!-- Node1&#45;&gt;Node2 -->
<g id="edge1_Node000001_Node000002" class="edge">
<title>Node1&#45;&gt;Node2</title>
<g id="a_edge1_Node000001_Node000002"><a xlink:title=" ">
<path fill="none" stroke="#63b8ff" d="M72.46,-252.08C89.41,-266.57 116.93,-287.25 145,-296.5 198.45,-314.1 263.24,-314.67 308.31,-312.03"/>
<polygon fill="#63b8ff" stroke="#63b8ff" points="308.29,-315.47 318.03,-311.32 307.82,-308.49 308.29,-315.47"/>
</a>
</g>
</g>
<!-- Node3 -->
<g id="Node000003" class="node">
<title>Node3</title>
<g id="a_Node000003"><a xlink:href="../../d4/d61/classmal__packet__weaver_1_1_packet_dispatcher.html#ae3d94e60dee99fdf2faf1b807c7d04ef" target="_top" xlink:title="Fulfills handlers associated with a packet ID and packet data.">
<polygon fill="white" stroke="#666666" points="256.25,-287.38 145,-287.38 145,-245.62 256.25,-245.62 256.25,-287.38"/>
<text text-anchor="start" x="153" y="-273.88" font-family="Times,serif" font-size="10.00">mal_packet_weaver::</text>
<text text-anchor="start" x="153" y="-262.62" font-family="Times,serif" font-size="10.00">PacketDispatcher::fulfill</text>
<text text-anchor="middle" x="200.62" y="-251.38" font-family="Times,serif" font-size="10.00">_handlers</text>
</a>
</g>
</g>
<!-- Node1&#45;&gt;Node3 -->
<g id="edge2_Node000001_Node000003" class="edge">
<title>Node1&#45;&gt;Node3</title>
<g id="a_edge2_Node000001_Node000003"><a xlink:title=" ">
<path fill="none" stroke="#63b8ff" d="M109.17,-247.67C117.38,-249.38 125.94,-251.16 134.37,-252.92"/>
<polygon fill="#63b8ff" stroke="#63b8ff" points="133.45,-256.51 143.95,-255.12 134.87,-249.66 133.45,-256.51"/>
</a>
</g>
</g>
<!-- Node4 -->
<g id="Node000004" class="node">
<title>Node4</title>
<g id="a_Node000004"><a xlink:href="../../d4/d61/classmal__packet__weaver_1_1_packet_dispatcher.html#a2ebc44d095b5fe14aaf3e851c3deef91" target="_top" xlink:title="Fulfills promises associated with a packet ID.">
<polygon fill="white" stroke="#666666" points="256.25,-227.38 145,-227.38 145,-185.62 256.25,-185.62 256.25,-227.38"/>
<text text-anchor="start" x="153" y="-213.88" font-family="Times,serif" font-size="10.00">mal_packet_weaver::</text>
<text text-anchor="start" x="153" y="-202.62" font-family="Times,serif" font-size="10.00">PacketDispatcher::fulfill</text>
<text text-anchor="middle" x="200.62" y="-191.38" font-family="Times,serif" font-size="10.00">_promises</text>
</a>
</g>
</g>
<!-- Node1&#45;&gt;Node4 -->
<g id="edge4_Node000001_Node000004" class="edge">
<title>Node1&#45;&gt;Node4</title>
<g id="a_edge4_Node000001_Node000004"><a xlink:title=" ">
<path fill="none" stroke="#63b8ff" d="M109.17,-225.33C117.38,-223.62 125.94,-221.84 134.37,-220.08"/>
<polygon fill="#63b8ff" stroke="#63b8ff" points="134.87,-223.34 143.95,-217.88 133.45,-216.49 134.87,-223.34"/>
</a>
</g>
</g>
<!-- Node5 -->
<g id="Node000005" class="node">
<title>Node5</title>
<g id="a_Node000005"><a xlink:href="../../d4/d61/classmal__packet__weaver_1_1_packet_dispatcher.html#a87b159df2e43d0b4de204fd9b41d46be" target="_top" xlink:title="Pops input packets from input queues to local maps for processing.">
<polygon fill="white" stroke="#666666" points="254,-167.38 147.25,-167.38 147.25,-125.62 254,-125.62 254,-167.38"/>
<text text-anchor="start" x="155.25" y="-153.88" font-family="Times,serif" font-size="10.00">mal_packet_weaver::</text>
<text text-anchor="start" x="155.25" y="-142.62" font-family="Times,serif" font-size="10.00">PacketDispatcher::pop</text>
<text text-anchor="middle" x="200.62" y="-131.38" font-family="Times,serif" font-size="10.00">_inputs</text>
</a>
</g>
</g>
<!-- Node1&#45;&gt;Node5 -->
<g id="edge5_Node000001_Node000005" class="edge">
<title>Node1&#45;&gt;Node5</title>
<g id="a_edge5_Node000001_Node000005"><a xlink:title=" ">
<path fill="none" stroke="#63b8ff" d="M77.58,-220.9C95.48,-208.45 121.5,-190.79 145,-176.5 146.8,-175.4 148.65,-174.3 150.52,-173.2"/>
<polygon fill="#63b8ff" stroke="#63b8ff" points="152.09,-175.75 159,-167.72 148.59,-169.69 152.09,-175.75"/>
</a>
</g>
</g>
<!-- Node3&#45;&gt;Node2 -->
<g id="edge3_Node000003_Node000002" class="edge">
<title>Node3&#45;&gt;Node2</title>
<g id="a_edge3_Node000003_Node000002"><a xlink:title=" ">
<path fill="none" stroke="#63b8ff" d="M256.39,-280.04C273.24,-284.21 291.78,-288.79 308.63,-292.96"/>
<polygon fill="#63b8ff" stroke="#63b8ff" points="307.32,-296.49 317.87,-295.49 309,-289.7 307.32,-296.49"/>
</a>
</g>
</g>
<!-- Node6 -->
<g id="Node000006" class="node">
<title>Node6</title>
<g id="a_Node000006"><a xlink:href="../../d4/d61/classmal__packet__weaver_1_1_packet_dispatcher.html#ab72dbe23999515e3fa7db665a330f066" target="_top" xlink:title="Creates a default_handlers_input_pop_task and returns a future to await completion.">
<polygon fill="white" stroke="#666666" points="422.25,-254 306.5,-254 306.5,-201 422.25,-201 422.25,-254"/>
<text text-anchor="start" x="314.5" y="-240.5" font-family="Times,serif" font-size="10.00">mal_packet_weaver::</text>
<text text-anchor="start" x="314.5" y="-229.25" font-family="Times,serif" font-size="10.00">PacketDispatcher::create</text>
<text text-anchor="start" x="314.5" y="-218" font-family="Times,serif" font-size="10.00">_default_handlers_input</text>
<text text-anchor="middle" x="364.38" y="-206.75" font-family="Times,serif" font-size="10.00">_pop_task</text>
</a>
</g>
</g>
<!-- Node5&#45;&gt;Node6 -->
<g id="edge6_Node000005_Node000006" class="edge">
<title>Node5&#45;&gt;Node6</title>
<g id="a_edge6_Node000005_Node000006"><a xlink:title=" ">
<path fill="none" stroke="#63b8ff" d="M243.08,-167.68C258.49,-175.52 276.15,-184.45 292.25,-192.5 294.4,-193.57 296.59,-194.67 298.8,-195.77"/>
<polygon fill="#63b8ff" stroke="#63b8ff" points="297.08,-199.31 307.59,-200.63 300.19,-193.04 297.08,-199.31"/>
</a>
</g>
</g>
<!-- Node7 -->
<g id="Node000007" class="node">
<title>Node7</title>
<g id="a_Node000007"><a xlink:href="../../d4/d61/classmal__packet__weaver_1_1_packet_dispatcher.html#a1fcf146e1842c61f10a6456e716f24a2" target="_top" xlink:title="Creates a promise_filter_map_input_pop_task and returns a future to await completion.">
<polygon fill="white" stroke="#666666" points="427.5,-183 301.25,-183 301.25,-130 427.5,-130 427.5,-183"/>
<text text-anchor="start" x="309.25" y="-169.5" font-family="Times,serif" font-size="10.00">mal_packet_weaver::</text>
<text text-anchor="start" x="309.25" y="-158.25" font-family="Times,serif" font-size="10.00">PacketDispatcher::create</text>
<text text-anchor="start" x="309.25" y="-147" font-family="Times,serif" font-size="10.00">_promise_filter_map_input</text>
<text text-anchor="middle" x="364.38" y="-135.75" font-family="Times,serif" font-size="10.00">_pop_task</text>
</a>
</g>
</g>
<!-- Node5&#45;&gt;Node7 -->
<g id="edge7_Node000005_Node000007" class="edge">
<title>Node5&#45;&gt;Node7</title>
<g id="a_edge7_Node000005_Node000007"><a xlink:title=" ">
<path fill="none" stroke="#63b8ff" d="M254.14,-149.75C265.7,-150.46 278.14,-151.23 290.34,-151.98"/>
<polygon fill="#63b8ff" stroke="#63b8ff" points="289.78,-155.52 299.98,-152.64 290.21,-148.53 289.78,-155.52"/>
</a>
</g>
</g>
<!-- Node8 -->
<g id="Node000008" class="node">
<title>Node8</title>
<g id="a_Node000008"><a xlink:href="../../d4/d61/classmal__packet__weaver_1_1_packet_dispatcher.html#a8e90b1f9723efb6f2bb12e3b89d1e27c" target="_top" xlink:title="Creates a promise_map_input_pop_task and returns a future to await completion.">
<polygon fill="white" stroke="#666666" points="436.5,-112.38 292.25,-112.38 292.25,-70.62 436.5,-70.62 436.5,-112.38"/>
<text text-anchor="start" x="300.25" y="-98.88" font-family="Times,serif" font-size="10.00">mal_packet_weaver::</text>
<text text-anchor="start" x="300.25" y="-87.62" font-family="Times,serif" font-size="10.00">PacketDispatcher::create</text>
<text text-anchor="middle" x="364.38" y="-76.38" font-family="Times,serif" font-size="10.00">_promise_map_input_pop_task</text>
</a>
</g>
</g>
<!-- Node5&#45;&gt;Node8 -->
<g id="edge8_Node000005_Node000008" class="edge">
<title>Node5&#45;&gt;Node8</title>
<g id="a_edge8_Node000005_Node000008"><a xlink:title=" ">
<path fill="none" stroke="#63b8ff" d="M254.14,-128.64C265.74,-124.7 278.24,-120.45 290.49,-116.28"/>
<polygon fill="#63b8ff" stroke="#63b8ff" points="291.35,-119.35 299.69,-112.81 289.1,-112.72 291.35,-119.35"/>
</a>
</g>
</g>
<!-- Node9 -->
<g id="Node000009" class="node">
<title>Node9</title>
<g id="a_Node000009"><a xlink:href="../../d4/d61/classmal__packet__weaver_1_1_packet_dispatcher.html#af943e1f1d220396b11bfbbb24132e4c8" target="_top" xlink:title="Creates an unprocessed_packets_input_pop_task and returns a future to await completion.">
<polygon fill="white" stroke="#666666" points="431.25,-53 297.5,-53 297.5,0 431.25,0 431.25,-53"/>
<text text-anchor="start" x="305.5" y="-39.5" font-family="Times,serif" font-size="10.00">mal_packet_weaver::</text>
<text text-anchor="start" x="305.5" y="-28.25" font-family="Times,serif" font-size="10.00">PacketDispatcher::create</text>
<text text-anchor="start" x="305.5" y="-17" font-family="Times,serif" font-size="10.00">_unprocessed_packets_input</text>
<text text-anchor="middle" x="364.38" y="-5.75" font-family="Times,serif" font-size="10.00">_pop_task</text>
</a>
</g>
</g>
<!-- Node5&#45;&gt;Node9 -->
<g id="edge9_Node000005_Node000009" class="edge">
<title>Node5&#45;&gt;Node9</title>
<g id="a_edge9_Node000005_Node000009"><a xlink:title=" ">
<path fill="none" stroke="#63b8ff" d="M220.65,-125.41C238.04,-106.97 265.11,-80.28 292.25,-61.5 293.4,-60.71 294.56,-59.92 295.75,-59.15"/>
<polygon fill="#63b8ff" stroke="#63b8ff" points="297.43,-61.6 304.1,-53.37 293.75,-55.65 297.43,-61.6"/>
</a>
</g>
</g>
</g>
</svg>
