<?xml version="1.0" encoding="UTF-8" standalone="no"?>
<!DOCTYPE svg PUBLIC "-//W3C//DTD SVG 1.1//EN"
 "http://www.w3.org/Graphics/SVG/1.1/DTD/svg11.dtd">
<!-- Generated by graphviz version 8.1.0 (20230707.0739)
 -->
<!-- Title: mal_packet_weaver::PacketDispatcher::PacketDispatcher Pages: 1 -->
<!--zoomable 272 -->

<svg id="main" version="1.1" xmlns="http://www.w3.org/2000/svg" xmlns:xlink="http://www.w3.org/1999/xlink" xml:space="preserve" onload="init(evt)">
<style type="text/css"><![CDATA[
.node, .edge {opacity: 0.7;}
.node.selected, .edge.selected {opacity: 1;}
.edge:hover path { stroke: red; }
.edge:hover polygon { stroke: red; fill: red; }
]]></style>

<defs>
  <circle id="rim" cx="0" cy="0" r="7"/>
  <circle id="rim2" cx="0" cy="0" r="3.5"/>
  <g id="zoomPlus">
    <use xlink:href="#rim" fill="#404040"><set attributeName="fill" to="#808080" begin="zoomplus.mouseover" end="zoomplus.mouseout"/></use>
    <path d="M-4,0h8M0,-4v8" fill="none" stroke="white" stroke-width="1.5" pointer-events="none"/>
  </g>
  <g id="zoomMin">
    <use xlink:href="#rim" fill="#404040"><set attributeName="fill" to="#808080" begin="zoomminus.mouseover" end="zoomminus.mouseout"/></use>
    <path d="M-4,0h8" fill="none" stroke="white" stroke-width="1.5" pointer-events="none"/>
  </g>
  <g id="arrowUp" transform="translate(30 24)">
    <use xlink:href="#rim"/>
    <path pointer-events="none" fill="none" stroke="white" stroke-width="1.5" d="M0,-3.0v7 M-2.5,-0.5L0,-3.0L2.5,-0.5"/>
  </g>
  <g id="arrowRight" transform="rotate(90) translate(36 -43)">
    <use xlink:href="#rim"/>
    <path pointer-events="none" fill="none" stroke="white" stroke-width="1.5" d="M0,-3.0v7 M-2.5,-0.5L0,-3.0L2.5,-0.5"/>
  </g>
  <g id="arrowDown" transform="rotate(180) translate(-30 -48)">
    <use xlink:href="#rim"/>
    <path pointer-events="none" fill="none" stroke="white" stroke-width="1.5" d="M0,-3.0v7 M-2.5,-0.5L0,-3.0L2.5,-0.5"/>
  </g>
  <g id="arrowLeft" transform="rotate(270) translate(-36 17)">
    <use xlink:href="#rim"/>
    <path pointer-events="none" fill="none" stroke="white" stroke-width="1.5" d="M0,-3.0v7 M-2.5,-0.5L0,-3.0L2.5,-0.5"/>
  </g>
  <g id="resetDef">
    <use xlink:href="#rim2" fill="#404040"><set attributeName="fill" to="#808080" begin="reset.mouseover" end="reset.mouseout"/></use>
  </g>
</defs>
<script type="application/ecmascript">
var viewWidth = 644;
var viewHeight = 272;
var sectionId = 'dynsection-1';
</script>
<script type="application/ecmascript" xlink:href="../../svg.min.js"/>
<svg id="graph" class="graph">
<g id="viewport">
<title>mal_packet_weaver::PacketDispatcher::PacketDispatcher</title>
<!-- Node1 -->
<g id="Node000001" class="node">
<title>Node1</title>
<g id="a_Node000001"><a xlink:title="Constructs a PacketDispatcher instance associated with the given io_context.">
<polygon fill="#999999" stroke="#666666" points="163,-198.75 0,-198.75 0,-168.25 163,-168.25 163,-198.75"/>
<text text-anchor="start" x="8" y="-185.25" font-family="Times,serif" font-size="10.00">mal_packet_weaver::</text>
<text text-anchor="middle" x="81.5" y="-174" font-family="Times,serif" font-size="10.00">PacketDispatcher::PacketDispatcher</text>
</a>
</g>
</g>
<!-- Node2 -->
<g id="Node000002" class="node">
<title>Node2</title>
<g id="a_Node000002"><a xlink:href="../../d4/d61/classmal__packet__weaver_1_1_packet_dispatcher.html#ae48b4ef1938ba5fb557d1d9269c1a323" target="_top" xlink:title="This function represents the main loop for running a task with exponential backoff and asynchronous I...">
<polygon fill="white" stroke="#666666" points="308,-198.75 199,-198.75 199,-168.25 308,-168.25 308,-198.75"/>
<text text-anchor="start" x="207" y="-185.25" font-family="Times,serif" font-size="10.00">mal_packet_weaver::</text>
<text text-anchor="middle" x="253.5" y="-174" font-family="Times,serif" font-size="10.00">PacketDispatcher::Run</text>
</a>
</g>
</g>
<!-- Node1&#45;&gt;Node2 -->
<g id="edge1_Node000001_Node000002" class="edge">
<title>Node1&#45;&gt;Node2</title>
<g id="a_edge1_Node000001_Node000002"><a xlink:title=" ">
<path fill="none" stroke="#63b8ff" d="M163.02,-183.5C171.4,-183.5 179.83,-183.5 188,-183.5"/>
<polygon fill="#63b8ff" stroke="#63b8ff" points="187.94,-187 197.94,-183.5 187.94,-180 187.94,-187"/>
</a>
</g>
</g>
<!-- Node3 -->
<g id="Node000003" class="node">
<title>Node3</title>
<g id="a_Node000003"><a xlink:href="../../d4/d61/classmal__packet__weaver_1_1_packet_dispatcher.html#a86790a057ddbae74eb0cf552cf654ceb" target="_top" xlink:title="Fulfills handlers associated with a packet ID and packet data.">
<polygon fill="white" stroke="#666666" points="455.25,-264.38 344,-264.38 344,-222.62 455.25,-222.62 455.25,-264.38"/>
<text text-anchor="start" x="352" y="-250.88" font-family="Times,serif" font-size="10.00">mal_packet_weaver::</text>
<text text-anchor="start" x="352" y="-239.62" font-family="Times,serif" font-size="10.00">PacketDispatcher::fulfill</text>
<text text-anchor="middle" x="399.62" y="-228.38" font-family="Times,serif" font-size="10.00">_handlers</text>
</a>
</g>
</g>
<!-- Node2&#45;&gt;Node3 -->
<g id="edge2_Node000002_Node000003" class="edge">
<title>Node2&#45;&gt;Node3</title>
<g id="a_edge2_Node000002_Node000003"><a xlink:title=" ">
<path fill="none" stroke="#63b8ff" d="M291.99,-199.11C305.88,-204.89 322.01,-211.61 337.46,-218.04"/>
<polygon fill="#63b8ff" stroke="#63b8ff" points="335.91,-221.6 346.49,-222.21 338.6,-215.14 335.91,-221.6"/>
</a>
</g>
</g>
<!-- Node4 -->
<g id="Node000004" class="node">
<title>Node4</title>
<g id="a_Node000004"><a xlink:href="../../d4/d61/classmal__packet__weaver_1_1_packet_dispatcher.html#a2ebc44d095b5fe14aaf3e851c3deef91" target="_top" xlink:title="Fulfills promises associated with a packet ID.">
<polygon fill="white" stroke="#666666" points="455.25,-204.38 344,-204.38 344,-162.62 455.25,-162.62 455.25,-204.38"/>
<text text-anchor="start" x="352" y="-190.88" font-family="Times,serif" font-size="10.00">mal_packet_weaver::</text>
<text text-anchor="start" x="352" y="-179.62" font-family="Times,serif" font-size="10.00">PacketDispatcher::fulfill</text>
<text text-anchor="middle" x="399.62" y="-168.38" font-family="Times,serif" font-size="10.00">_promises</text>
</a>
</g>
</g>
<!-- Node2&#45;&gt;Node4 -->
<g id="edge3_Node000002_Node000004" class="edge">
<title>Node2&#45;&gt;Node4</title>
<g id="a_edge3_Node000002_Node000004"><a xlink:title=" ">
<path fill="none" stroke="#63b8ff" d="M308.17,-183.5C316.29,-183.5 324.75,-183.5 333.09,-183.5"/>
<polygon fill="#63b8ff" stroke="#63b8ff" points="332.95,-187 342.95,-183.5 332.95,-180 332.95,-187"/>
</a>
</g>
</g>
<!-- Node5 -->
<g id="Node000005" class="node">
<title>Node5</title>
<g id="a_Node000005"><a xlink:href="../../d4/d61/classmal__packet__weaver_1_1_packet_dispatcher.html#a87b159df2e43d0b4de204fd9b41d46be" target="_top" xlink:title="Pops input packets from input queues to local maps for processing.">
<polygon fill="white" stroke="#666666" points="453,-144.38 346.25,-144.38 346.25,-102.62 453,-102.62 453,-144.38"/>
<text text-anchor="start" x="354.25" y="-130.88" font-family="Times,serif" font-size="10.00">mal_packet_weaver::</text>
<text text-anchor="start" x="354.25" y="-119.62" font-family="Times,serif" font-size="10.00">PacketDispatcher::pop</text>
<text text-anchor="middle" x="399.62" y="-108.38" font-family="Times,serif" font-size="10.00">_inputs</text>
</a>
</g>
</g>
<!-- Node2&#45;&gt;Node5 -->
<g id="edge4_Node000002_Node000005" class="edge">
<title>Node2&#45;&gt;Node5</title>
<g id="a_edge4_Node000002_Node000005"><a xlink:title=" ">
<path fill="none" stroke="#63b8ff" d="M291.99,-167.89C305.88,-162.11 322.01,-155.39 337.46,-148.96"/>
<polygon fill="#63b8ff" stroke="#63b8ff" points="338.6,-151.86 346.49,-144.79 335.91,-145.4 338.6,-151.86"/>
</a>
</g>
</g>
<!-- Node6 -->
<g id="Node000006" class="node">
<title>Node6</title>
<g id="a_Node000006"><a xlink:href="../../d4/d61/classmal__packet__weaver_1_1_packet_dispatcher.html#ab72dbe23999515e3fa7db665a330f066" target="_top" xlink:title="Creates a default_handlers_input_pop_task and returns a future to await completion.">
<polygon fill="white" stroke="#666666" points="621.25,-254 505.5,-254 505.5,-201 621.25,-201 621.25,-254"/>
<text text-anchor="start" x="513.5" y="-240.5" font-family="Times,serif" font-size="10.00">mal_packet_weaver::</text>
<text text-anchor="start" x="513.5" y="-229.25" font-family="Times,serif" font-size="10.00">PacketDispatcher::create</text>
<text text-anchor="start" x="513.5" y="-218" font-family="Times,serif" font-size="10.00">_default_handlers_input</text>
<text text-anchor="middle" x="563.38" y="-206.75" font-family="Times,serif" font-size="10.00">_pop_task</text>
</a>
</g>
</g>
<!-- Node5&#45;&gt;Node6 -->
<g id="edge5_Node000005_Node000006" class="edge">
<title>Node5&#45;&gt;Node6</title>
<g id="a_edge5_Node000005_Node000006"><a xlink:title=" ">
<path fill="none" stroke="#63b8ff" d="M442.68,-144.75C447.05,-147.5 451.33,-150.43 455.25,-153.5 473.83,-168.03 472.35,-178.39 491.25,-192.5 492.9,-193.74 494.61,-194.95 496.35,-196.13"/>
<polygon fill="#63b8ff" stroke="#63b8ff" points="494.02,-199.43 504.34,-201.83 497.77,-193.52 494.02,-199.43"/>
</a>
</g>
</g>
<!-- Node7 -->
<g id="Node000007" class="node">
<title>Node7</title>
<g id="a_Node000007"><a xlink:href="../../d4/d61/classmal__packet__weaver_1_1_packet_dispatcher.html#a1fcf146e1842c61f10a6456e716f24a2" target="_top" xlink:title="Creates a promise_filter_map_input_pop_task and returns a future to await completion.">
<polygon fill="white" stroke="#666666" points="626.5,-183 500.25,-183 500.25,-130 626.5,-130 626.5,-183"/>
<text text-anchor="start" x="508.25" y="-169.5" font-family="Times,serif" font-size="10.00">mal_packet_weaver::</text>
<text text-anchor="start" x="508.25" y="-158.25" font-family="Times,serif" font-size="10.00">PacketDispatcher::create</text>
<text text-anchor="start" x="508.25" y="-147" font-family="Times,serif" font-size="10.00">_promise_filter_map_input</text>
<text text-anchor="middle" x="563.38" y="-135.75" font-family="Times,serif" font-size="10.00">_pop_task</text>
</a>
</g>
</g>
<!-- Node5&#45;&gt;Node7 -->
<g id="edge6_Node000005_Node000007" class="edge">
<title>Node5&#45;&gt;Node7</title>
<g id="a_edge6_Node000005_Node000007"><a xlink:title=" ">
<path fill="none" stroke="#63b8ff" d="M453.14,-134.21C464.7,-136.57 477.14,-139.11 489.34,-141.6"/>
<polygon fill="#63b8ff" stroke="#63b8ff" points="488.48,-145.2 498.98,-143.77 489.88,-138.34 488.48,-145.2"/>
</a>
</g>
</g>
<!-- Node8 -->
<g id="Node000008" class="node">
<title>Node8</title>
<g id="a_Node000008"><a xlink:href="../../d4/d61/classmal__packet__weaver_1_1_packet_dispatcher.html#a8e90b1f9723efb6f2bb12e3b89d1e27c" target="_top" xlink:title="Creates a promise_map_input_pop_task and returns a future to await completion.">
<polygon fill="white" stroke="#666666" points="635.5,-112.38 491.25,-112.38 491.25,-70.62 635.5,-70.62 635.5,-112.38"/>
<text text-anchor="start" x="499.25" y="-98.88" font-family="Times,serif" font-size="10.00">mal_packet_weaver::</text>
<text text-anchor="start" x="499.25" y="-87.62" font-family="Times,serif" font-size="10.00">PacketDispatcher::create</text>
<text text-anchor="middle" x="563.38" y="-76.38" font-family="Times,serif" font-size="10.00">_promise_map_input_pop_task</text>
</a>
</g>
</g>
<!-- Node5&#45;&gt;Node8 -->
<g id="edge7_Node000005_Node000008" class="edge">
<title>Node5&#45;&gt;Node8</title>
<g id="a_edge7_Node000005_Node000008"><a xlink:title=" ">
<path fill="none" stroke="#63b8ff" d="M453.14,-113.11C461.83,-111.39 471.01,-109.58 480.22,-107.75"/>
<polygon fill="#63b8ff" stroke="#63b8ff" points="480.88,-110.99 490.01,-105.62 479.52,-104.13 480.88,-110.99"/>
</a>
</g>
</g>
<!-- Node9 -->
<g id="Node000009" class="node">
<title>Node9</title>
<g id="a_Node000009"><a xlink:href="../../d4/d61/classmal__packet__weaver_1_1_packet_dispatcher.html#af943e1f1d220396b11bfbbb24132e4c8" target="_top" xlink:title="Creates an unprocessed_packets_input_pop_task and returns a future to await completion.">
<polygon fill="white" stroke="#666666" points="630.25,-53 496.5,-53 496.5,0 630.25,0 630.25,-53"/>
<text text-anchor="start" x="504.5" y="-39.5" font-family="Times,serif" font-size="10.00">mal_packet_weaver::</text>
<text text-anchor="start" x="504.5" y="-28.25" font-family="Times,serif" font-size="10.00">PacketDispatcher::create</text>
<text text-anchor="start" x="504.5" y="-17" font-family="Times,serif" font-size="10.00">_unprocessed_packets_input</text>
<text text-anchor="middle" x="563.38" y="-5.75" font-family="Times,serif" font-size="10.00">_pop_task</text>
</a>
</g>
</g>
<!-- Node5&#45;&gt;Node9 -->
<g id="edge8_Node000005_Node000009" class="edge">
<title>Node5&#45;&gt;Node9</title>
<g id="a_edge8_Node000005_Node000009"><a xlink:title=" ">
<path fill="none" stroke="#63b8ff" d="M429.32,-102.31C446.82,-89.79 469.85,-74 491.25,-61.5 492.84,-60.57 494.46,-59.64 496.11,-58.72"/>
<polygon fill="#63b8ff" stroke="#63b8ff" points="497.59,-61.34 504.69,-53.48 494.24,-55.2 497.59,-61.34"/>
</a>
</g>
</g>
</g>
</svg>

<g id="navigator" transform="translate(0 0)" fill="#404254">
  <rect fill="#f2f5e9" fill-opacity="0.5" stroke="#606060" stroke-width=".5" x="0" y="0" width="60" height="60"/>
  <use id="zoomplus" xlink:href="#zoomPlus" x="17" y="9" onmousedown="handleZoom(evt,'in')"/>
  <use id="zoomminus" xlink:href="#zoomMin" x="42" y="9" onmousedown="handleZoom(evt,'out')"/>
  <use id="reset" xlink:href="#resetDef" x="30" y="36" onmousedown="handleReset()"/>
   <use id="arrowup" xlink:href="#arrowUp" x="0" y="0" onmousedown="handlePan(0,-1)"/>
  <use id="arrowright" xlink:href="#arrowRight" x="0" y="0" onmousedown="handlePan(1,0)"/>
  <use id="arrowdown" xlink:href="#arrowDown" x="0" y="0" onmousedown="handlePan(0,1)"/>
  <use id="arrowleft" xlink:href="#arrowLeft" x="0" y="0" onmousedown="handlePan(-1,0)"/>
</g>
<svg viewBox="0 0 15 15" width="100%" height="30px" preserveAspectRatio="xMaxYMin meet">
 <g id="arrow_out" transform="scale(0.3 0.3)">
  <a xlink:href="classmal__packet__weaver_1_1_packet_dispatcher_ac22bb2ccd532850a73766ce512b50082_cgraph_org.svg" target="_base">
   <rect id="button" ry="5" rx="5" y="6" x="6" height="38" width="38"
        fill="#f2f5e9" fill-opacity="0.5" stroke="#606060" stroke-width="1.0"/>
   <path id="arrow"
     d="M 11.500037,31.436501 C 11.940474,20.09759 22.043105,11.32322 32.158766,21.979434 L 37.068811,17.246167 C 37.068811,17.246167 37.088388,32 37.088388,32 L 22.160133,31.978069 C 22.160133,31.978069 26.997745,27.140456 26.997745,27.140456 C 18.528582,18.264221 13.291696,25.230495 11.500037,31.436501 z"
     style="fill:#404040;"/>
  </a>
 </g>
</svg>

<style type='text/css'>
<![CDATA[
[data-mouse-over-selected='false'] { opacity: 0.7; }
[data-mouse-over-selected='true']  { opacity: 1.0; }
]]>
</style>
<script type="application/ecmascript"><![CDATA[
document.addEventListener('DOMContentLoaded', (event) => {
  highlightEdges();
  highlightAdjacentNodes();
});
]]></script>
</svg>
