<?xml version="1.0" encoding="UTF-8" standalone="no"?>
<!DOCTYPE svg PUBLIC "-//W3C//DTD SVG 1.1//EN"
 "http://www.w3.org/Graphics/SVG/1.1/DTD/svg11.dtd">
<!-- Generated by graphviz version 8.1.0 (20230707.0739)
 -->
<!-- Title: mal_packet_weaver::PacketDispatcher::Run Pages: 1 -->
<svg width="445pt" height="510pt"
 viewBox="0.00 0.00 444.50 510.02" xmlns="http://www.w3.org/2000/svg" xmlns:xlink="http://www.w3.org/1999/xlink">
<g id="graph0" class="graph" transform="scale(1 1) rotate(0) translate(4 506.02)">
<title>mal_packet_weaver::PacketDispatcher::Run</title>
<!-- Node1 -->
<g id="Node000001" class="node">
<title>Node1</title>
<g id="a_Node000001"><a xlink:title="This function represents the main loop for running a task with exponential backoff and asynchronous I...">
<polygon fill="#999999" stroke="#666666" points="109,-411.75 0,-411.75 0,-381.25 109,-381.25 109,-411.75"/>
<text text-anchor="start" x="8" y="-398.25" font-family="Times,serif" font-size="10.00">mal_packet_weaver::</text>
<text text-anchor="middle" x="54.5" y="-387" font-family="Times,serif" font-size="10.00">PacketDispatcher::Run</text>
</a>
</g>
</g>
<!-- Node2 -->
<g id="Node000002" class="node">
<title>Node2</title>
<g id="a_Node000002"><a xlink:href="../../db/d8f/classmal__toolkit_1_1_timer.html#a4ac9f05ebd618ab6f567aebd6d421ddb" target="_top" xlink:title="Calculates and returns the elapsed time since the timer was last reset.">
<polygon fill="white" stroke="#666666" points="409.5,-496.75 319.25,-496.75 319.25,-466.25 409.5,-466.25 409.5,-496.75"/>
<text text-anchor="start" x="327.25" y="-483.25" font-family="Times,serif" font-size="10.00">mal_toolkit::Timer</text>
<text text-anchor="middle" x="364.38" y="-472" font-family="Times,serif" font-size="10.00">::elapsed</text>
</a>
</g>
</g>
<!-- Node1&#45;&gt;Node2 -->
<g id="edge1_Node000001_Node000002" class="edge">
<title>Node1&#45;&gt;Node2</title>
<g id="a_edge1_Node000001_Node000002"><a xlink:title=" ">
<path fill="none" stroke="#63b8ff" d="M65.04,-411.92C79.33,-433.39 108.58,-471.35 145,-486.5 197.19,-508.2 262.63,-502.94 308.21,-494.75"/>
<polygon fill="#63b8ff" stroke="#63b8ff" points="308.6,-498.05 317.77,-492.74 307.29,-491.17 308.6,-498.05"/>
</a>
</g>
</g>
<!-- Node3 -->
<g id="Node000003" class="node">
<title>Node3</title>
<g id="a_Node000003"><a xlink:href="../../d4/d61/classmal__packet__weaver_1_1_packet_dispatcher.html#a777e68fdca73f97496bc360835a62c32" target="_top" xlink:title="Fulfills handlers associated with a packet ID and packet data.">
<polygon fill="white" stroke="#666666" points="256.25,-477.38 145,-477.38 145,-435.62 256.25,-435.62 256.25,-477.38"/>
<text text-anchor="start" x="153" y="-463.88" font-family="Times,serif" font-size="10.00">mal_packet_weaver::</text>
<text text-anchor="start" x="153" y="-452.62" font-family="Times,serif" font-size="10.00">PacketDispatcher::fulfill</text>
<text text-anchor="middle" x="200.62" y="-441.38" font-family="Times,serif" font-size="10.00">_handlers</text>
</a>
</g>
</g>
<!-- Node1&#45;&gt;Node3 -->
<g id="edge2_Node000001_Node000003" class="edge">
<title>Node1&#45;&gt;Node3</title>
<g id="a_edge2_Node000001_Node000003"><a xlink:title=" ">
<path fill="none" stroke="#63b8ff" d="M92.99,-412.11C106.88,-417.89 123.01,-424.61 138.46,-431.04"/>
<polygon fill="#63b8ff" stroke="#63b8ff" points="136.91,-434.6 147.49,-435.21 139.6,-428.14 136.91,-434.6"/>
</a>
</g>
</g>
<!-- Node4 -->
<g id="Node000004" class="node">
<title>Node4</title>
<g id="a_Node000004"><a xlink:href="../../d4/d61/classmal__packet__weaver_1_1_packet_dispatcher.html#a2ebc44d095b5fe14aaf3e851c3deef91" target="_top" xlink:title="Fulfills promises associated with a packet ID.">
<polygon fill="white" stroke="#666666" points="256.25,-417.38 145,-417.38 145,-375.62 256.25,-375.62 256.25,-417.38"/>
<text text-anchor="start" x="153" y="-403.88" font-family="Times,serif" font-size="10.00">mal_packet_weaver::</text>
<text text-anchor="start" x="153" y="-392.62" font-family="Times,serif" font-size="10.00">PacketDispatcher::fulfill</text>
<text text-anchor="middle" x="200.62" y="-381.38" font-family="Times,serif" font-size="10.00">_promises</text>
</a>
</g>
</g>
<!-- Node1&#45;&gt;Node4 -->
<g id="edge4_Node000001_Node000004" class="edge">
<title>Node1&#45;&gt;Node4</title>
<g id="a_edge4_Node000001_Node000004"><a xlink:title=" ">
<path fill="none" stroke="#63b8ff" d="M109.17,-396.5C117.29,-396.5 125.75,-396.5 134.09,-396.5"/>
<polygon fill="#63b8ff" stroke="#63b8ff" points="133.95,-400 143.95,-396.5 133.95,-393 133.95,-400"/>
</a>
</g>
</g>
<!-- Node5 -->
<g id="Node000005" class="node">
<title>Node5</title>
<g id="a_Node000005"><a xlink:href="../../d4/d61/classmal__packet__weaver_1_1_packet_dispatcher.html#a2b820a2094b9d5cfd27bb787183437ac" target="_top" xlink:title="Retrieves a shared pointer to the current dispatcher.">
<polygon fill="white" stroke="#666666" points="252.5,-357.38 148.75,-357.38 148.75,-315.62 252.5,-315.62 252.5,-357.38"/>
<text text-anchor="start" x="156.75" y="-343.88" font-family="Times,serif" font-size="10.00">mal_packet_weaver::</text>
<text text-anchor="start" x="156.75" y="-332.62" font-family="Times,serif" font-size="10.00">PacketDispatcher::get</text>
<text text-anchor="middle" x="200.62" y="-321.38" font-family="Times,serif" font-size="10.00">_shared_ptr</text>
</a>
</g>
</g>
<!-- Node1&#45;&gt;Node5 -->
<g id="edge5_Node000001_Node000005" class="edge">
<title>Node1&#45;&gt;Node5</title>
<g id="a_edge5_Node000001_Node000005"><a xlink:title=" ">
<path fill="none" stroke="#63b8ff" d="M92.99,-380.89C106.88,-375.11 123.01,-368.39 138.46,-361.96"/>
<polygon fill="#63b8ff" stroke="#63b8ff" points="139.6,-364.86 147.49,-357.79 136.91,-358.4 139.6,-364.86"/>
</a>
</g>
</g>
<!-- Node8 -->
<g id="Node000008" class="node">
<title>Node8</title>
<g id="a_Node000008"><a xlink:href="../../d4/d61/classmal__packet__weaver_1_1_packet_dispatcher.html#a87b159df2e43d0b4de204fd9b41d46be" target="_top" xlink:title="Pops input packets from input queues to local maps for processing.">
<polygon fill="white" stroke="#666666" points="254,-213.38 147.25,-213.38 147.25,-171.62 254,-171.62 254,-213.38"/>
<text text-anchor="start" x="155.25" y="-199.88" font-family="Times,serif" font-size="10.00">mal_packet_weaver::</text>
<text text-anchor="start" x="155.25" y="-188.62" font-family="Times,serif" font-size="10.00">PacketDispatcher::pop</text>
<text text-anchor="middle" x="200.62" y="-177.38" font-family="Times,serif" font-size="10.00">_inputs</text>
</a>
</g>
</g>
<!-- Node1&#45;&gt;Node8 -->
<g id="edge8_Node000001_Node000008" class="edge">
<title>Node1&#45;&gt;Node8</title>
<g id="a_edge8_Node000001_Node000008"><a xlink:title=" ">
<path fill="none" stroke="#63b8ff" d="M66.57,-380.83C90.51,-346.95 147.43,-266.38 178.5,-222.4"/>
<polygon fill="#63b8ff" stroke="#63b8ff" points="181.81,-224.79 184.72,-214.6 176.09,-220.75 181.81,-224.79"/>
</a>
</g>
</g>
<!-- Node3&#45;&gt;Node2 -->
<g id="edge3_Node000003_Node000002" class="edge">
<title>Node3&#45;&gt;Node2</title>
<g id="a_edge3_Node000003_Node000002"><a xlink:title=" ">
<path fill="none" stroke="#63b8ff" d="M256.39,-464.96C273.08,-467.54 291.43,-470.38 308.15,-472.96"/>
<polygon fill="#63b8ff" stroke="#63b8ff" points="307.45,-476.55 317.87,-474.62 308.52,-469.63 307.45,-476.55"/>
</a>
</g>
</g>
<!-- Node6 -->
<g id="Node000006" class="node">
<title>Node6</title>
<g id="a_Node000006"><a xlink:href="../../d1/da7/classmal__toolkit_1_1_exponential_backoff.html#a161c6f3c2d6e611ec15e3c6511182ec8" target="_top" xlink:title="Get the current backoff delay.">
<polygon fill="white" stroke="#666666" points="425.62,-400.75 303.12,-400.75 303.12,-370.25 425.62,-370.25 425.62,-400.75"/>
<text text-anchor="start" x="311.12" y="-387.25" font-family="Times,serif" font-size="10.00">mal_toolkit::Exponential</text>
<text text-anchor="middle" x="364.38" y="-376" font-family="Times,serif" font-size="10.00">Backoff::get_current_delay</text>
</a>
</g>
</g>
<!-- Node5&#45;&gt;Node6 -->
<g id="edge6_Node000005_Node000006" class="edge">
<title>Node5&#45;&gt;Node6</title>
<g id="a_edge6_Node000005_Node000006"><a xlink:title=" ">
<path fill="none" stroke="#63b8ff" d="M252.8,-352C268.14,-356.65 285.13,-361.8 301.1,-366.63"/>
<polygon fill="#63b8ff" stroke="#63b8ff" points="299.83,-370.21 310.42,-369.76 301.86,-363.51 299.83,-370.21"/>
</a>
</g>
</g>
<!-- Node7 -->
<g id="Node000007" class="node">
<title>Node7</title>
<g id="a_Node000007"><a xlink:href="../../d1/da7/classmal__toolkit_1_1_exponential_backoff.html#ad9374a1e0241fcbae8c9fa4d7c3175f8" target="_top" xlink:title="Increase the backoff delay using exponential factor.">
<polygon fill="white" stroke="#666666" points="420,-351.75 308.75,-351.75 308.75,-321.25 420,-321.25 420,-351.75"/>
<text text-anchor="start" x="316.75" y="-338.25" font-family="Times,serif" font-size="10.00">mal_toolkit::Exponential</text>
<text text-anchor="middle" x="364.38" y="-327" font-family="Times,serif" font-size="10.00">Backoff::increase_delay</text>
</a>
</g>
</g>
<!-- Node5&#45;&gt;Node7 -->
<g id="edge7_Node000005_Node000007" class="edge">
<title>Node5&#45;&gt;Node7</title>
<g id="a_edge7_Node000005_Node000007"><a xlink:title=" ">
<path fill="none" stroke="#63b8ff" d="M252.8,-336.5C267.03,-336.5 282.68,-336.5 297.61,-336.5"/>
<polygon fill="#63b8ff" stroke="#63b8ff" points="297.33,-340 307.33,-336.5 297.33,-333 297.33,-340"/>
</a>
</g>
</g>
<!-- Node9 -->
<g id="Node000009" class="node">
<title>Node9</title>
<g id="a_Node000009"><a xlink:href="../../d6/de9/namespacemal__packet__weaver.html#af2c5029afaa161f2ddd273bc2f46d4f5" target="_top" xlink:title="Awaiting an std::future with Boost.Asio integration.">
<polygon fill="white" stroke="#666666" points="414,-302.75 314.75,-302.75 314.75,-272.25 414,-272.25 414,-302.75"/>
<text text-anchor="start" x="322.75" y="-289.25" font-family="Times,serif" font-size="10.00">mal_packet_weaver::</text>
<text text-anchor="middle" x="364.38" y="-278" font-family="Times,serif" font-size="10.00">await_future</text>
</a>
</g>
</g>
<!-- Node8&#45;&gt;Node9 -->
<g id="edge9_Node000008_Node000009" class="edge">
<title>Node8&#45;&gt;Node9</title>
<g id="a_edge9_Node000008_Node000009"><a xlink:title=" ">
<path fill="none" stroke="#63b8ff" d="M224.31,-213.85C241.77,-229.36 267.1,-249.92 292.25,-263.5 296.18,-265.62 300.34,-267.61 304.59,-269.46"/>
<polygon fill="#63b8ff" stroke="#63b8ff" points="303.03,-273.01 313.62,-273.51 305.66,-266.52 303.03,-273.01"/>
</a>
</g>
</g>
<!-- Node10 -->
<g id="Node000010" class="node">
<title>Node10</title>
<g id="a_Node000010"><a xlink:href="../../d4/d61/classmal__packet__weaver_1_1_packet_dispatcher.html#ab72dbe23999515e3fa7db665a330f066" target="_top" xlink:title="Creates a default_handlers_input_pop_task and returns a future to await completion.">
<polygon fill="white" stroke="#666666" points="422.25,-254 306.5,-254 306.5,-201 422.25,-201 422.25,-254"/>
<text text-anchor="start" x="314.5" y="-240.5" font-family="Times,serif" font-size="10.00">mal_packet_weaver::</text>
<text text-anchor="start" x="314.5" y="-229.25" font-family="Times,serif" font-size="10.00">PacketDispatcher::create</text>
<text text-anchor="start" x="314.5" y="-218" font-family="Times,serif" font-size="10.00">_default_handlers_input</text>
<text text-anchor="middle" x="364.38" y="-206.75" font-family="Times,serif" font-size="10.00">_pop_task</text>
</a>
</g>
</g>
<!-- Node8&#45;&gt;Node10 -->
<g id="edge10_Node000008_Node000010" class="edge">
<title>Node8&#45;&gt;Node10</title>
<g id="a_edge10_Node000008_Node000010"><a xlink:title=" ">
<path fill="none" stroke="#63b8ff" d="M254.14,-203.86C267.37,-206.73 281.76,-209.84 295.63,-212.84"/>
<polygon fill="#63b8ff" stroke="#63b8ff" points="294.58,-216.41 305.1,-215.11 296.06,-209.57 294.58,-216.41"/>
</a>
</g>
</g>
<!-- Node11 -->
<g id="Node000011" class="node">
<title>Node11</title>
<g id="a_Node000011"><a xlink:href="../../d4/d61/classmal__packet__weaver_1_1_packet_dispatcher.html#a1fcf146e1842c61f10a6456e716f24a2" target="_top" xlink:title="Creates a promise_filter_map_input_pop_task and returns a future to await completion.">
<polygon fill="white" stroke="#666666" points="427.5,-183 301.25,-183 301.25,-130 427.5,-130 427.5,-183"/>
<text text-anchor="start" x="309.25" y="-169.5" font-family="Times,serif" font-size="10.00">mal_packet_weaver::</text>
<text text-anchor="start" x="309.25" y="-158.25" font-family="Times,serif" font-size="10.00">PacketDispatcher::create</text>
<text text-anchor="start" x="309.25" y="-147" font-family="Times,serif" font-size="10.00">_promise_filter_map_input</text>
<text text-anchor="middle" x="364.38" y="-135.75" font-family="Times,serif" font-size="10.00">_pop_task</text>
</a>
</g>
</g>
<!-- Node8&#45;&gt;Node11 -->
<g id="edge11_Node000008_Node000011" class="edge">
<title>Node8&#45;&gt;Node11</title>
<g id="a_edge11_Node000008_Node000011"><a xlink:title=" ">
<path fill="none" stroke="#63b8ff" d="M254.14,-180.81C265.7,-178.24 278.14,-175.47 290.34,-172.75"/>
<polygon fill="#63b8ff" stroke="#63b8ff" points="290.98,-175.98 299.98,-170.39 289.46,-169.14 290.98,-175.98"/>
</a>
</g>
</g>
<!-- Node12 -->
<g id="Node000012" class="node">
<title>Node12</title>
<g id="a_Node000012"><a xlink:href="../../d4/d61/classmal__packet__weaver_1_1_packet_dispatcher.html#a8e90b1f9723efb6f2bb12e3b89d1e27c" target="_top" xlink:title="Creates a promise_map_input_pop_task and returns a future to await completion.">
<polygon fill="white" stroke="#666666" points="436.5,-112.38 292.25,-112.38 292.25,-70.62 436.5,-70.62 436.5,-112.38"/>
<text text-anchor="start" x="300.25" y="-98.88" font-family="Times,serif" font-size="10.00">mal_packet_weaver::</text>
<text text-anchor="start" x="300.25" y="-87.62" font-family="Times,serif" font-size="10.00">PacketDispatcher::create</text>
<text text-anchor="middle" x="364.38" y="-76.38" font-family="Times,serif" font-size="10.00">_promise_map_input_pop_task</text>
</a>
</g>
</g>
<!-- Node8&#45;&gt;Node12 -->
<g id="edge12_Node000008_Node000012" class="edge">
<title>Node8&#45;&gt;Node12</title>
<g id="a_edge12_Node000008_Node000012"><a xlink:title=" ">
<path fill="none" stroke="#63b8ff" d="M224.98,-171.36C242.58,-156.16 267.79,-135.89 292.25,-121.5 294.44,-120.21 296.7,-118.95 299,-117.71"/>
<polygon fill="#63b8ff" stroke="#63b8ff" points="300.33,-120.46 307.66,-112.81 297.16,-114.21 300.33,-120.46"/>
</a>
</g>
</g>
<!-- Node13 -->
<g id="Node000013" class="node">
<title>Node13</title>
<g id="a_Node000013"><a xlink:href="../../d4/d61/classmal__packet__weaver_1_1_packet_dispatcher.html#af943e1f1d220396b11bfbbb24132e4c8" target="_top" xlink:title="Creates an unprocessed_packets_input_pop_task and returns a future to await completion.">
<polygon fill="white" stroke="#666666" points="431.25,-53 297.5,-53 297.5,0 431.25,0 431.25,-53"/>
<text text-anchor="start" x="305.5" y="-39.5" font-family="Times,serif" font-size="10.00">mal_packet_weaver::</text>
<text text-anchor="start" x="305.5" y="-28.25" font-family="Times,serif" font-size="10.00">PacketDispatcher::create</text>
<text text-anchor="start" x="305.5" y="-17" font-family="Times,serif" font-size="10.00">_unprocessed_packets_input</text>
<text text-anchor="middle" x="364.38" y="-5.75" font-family="Times,serif" font-size="10.00">_pop_task</text>
</a>
</g>
</g>
<!-- Node8&#45;&gt;Node13 -->
<g id="edge13_Node000008_Node000013" class="edge">
<title>Node8&#45;&gt;Node13</title>
<g id="a_edge13_Node000008_Node000013"><a xlink:title=" ">
<path fill="none" stroke="#63b8ff" d="M211.84,-171.43C226.37,-143.28 255.38,-93.28 292.25,-61.5 292.88,-60.96 293.51,-60.43 294.15,-59.9"/>
<polygon fill="#63b8ff" stroke="#63b8ff" points="296,-62.15 301.97,-53.39 291.84,-56.52 296,-62.15"/>
</a>
</g>
</g>
</g>
</svg>
