<?xml version="1.0" encoding="UTF-8" standalone="no"?>
<!DOCTYPE svg PUBLIC "-//W3C//DTD SVG 1.1//EN"
 "http://www.w3.org/Graphics/SVG/1.1/DTD/svg11.dtd">
<!-- Generated by graphviz version 8.1.0 (20230707.0739)
 -->
<!-- Title: mal_packet_weaver::PacketDispatcher::Run Pages: 1 -->
<svg width="445pt" height="272pt"
 viewBox="0.00 0.00 444.50 272.38" xmlns="http://www.w3.org/2000/svg" xmlns:xlink="http://www.w3.org/1999/xlink">
<g id="graph0" class="graph" transform="scale(1 1) rotate(0) translate(4 268.38)">
<title>mal_packet_weaver::PacketDispatcher::Run</title>
<!-- Node1 -->
<g id="Node000001" class="node">
<title>Node1</title>
<g id="a_Node000001"><a xlink:title="This function represents the main loop for running a task with exponential backoff and asynchronous I...">
<polygon fill="#999999" stroke="#666666" points="109,-198.75 0,-198.75 0,-168.25 109,-168.25 109,-198.75"/>
<text text-anchor="start" x="8" y="-185.25" font-family="Times,serif" font-size="10.00">mal_packet_weaver::</text>
<text text-anchor="middle" x="54.5" y="-174" font-family="Times,serif" font-size="10.00">PacketDispatcher::Run</text>
</a>
</g>
</g>
<!-- Node2 -->
<g id="Node000002" class="node">
<title>Node2</title>
<g id="a_Node000002"><a xlink:href="../../d4/d61/classmal__packet__weaver_1_1_packet_dispatcher.html#a86790a057ddbae74eb0cf552cf654ceb" target="_top" xlink:title="Fulfills handlers associated with a packet ID and packet data.">
<polygon fill="white" stroke="#666666" points="256.25,-264.38 145,-264.38 145,-222.62 256.25,-222.62 256.25,-264.38"/>
<text text-anchor="start" x="153" y="-250.88" font-family="Times,serif" font-size="10.00">mal_packet_weaver::</text>
<text text-anchor="start" x="153" y="-239.62" font-family="Times,serif" font-size="10.00">PacketDispatcher::fulfill</text>
<text text-anchor="middle" x="200.62" y="-228.38" font-family="Times,serif" font-size="10.00">_handlers</text>
</a>
</g>
</g>
<!-- Node1&#45;&gt;Node2 -->
<g id="edge1_Node000001_Node000002" class="edge">
<title>Node1&#45;&gt;Node2</title>
<g id="a_edge1_Node000001_Node000002"><a xlink:title=" ">
<path fill="none" stroke="#63b8ff" d="M92.99,-199.11C106.88,-204.89 123.01,-211.61 138.46,-218.04"/>
<polygon fill="#63b8ff" stroke="#63b8ff" points="136.91,-221.6 147.49,-222.21 139.6,-215.14 136.91,-221.6"/>
</a>
</g>
</g>
<!-- Node3 -->
<g id="Node000003" class="node">
<title>Node3</title>
<g id="a_Node000003"><a xlink:href="../../d4/d61/classmal__packet__weaver_1_1_packet_dispatcher.html#a2ebc44d095b5fe14aaf3e851c3deef91" target="_top" xlink:title="Fulfills promises associated with a packet ID.">
<polygon fill="white" stroke="#666666" points="256.25,-204.38 145,-204.38 145,-162.62 256.25,-162.62 256.25,-204.38"/>
<text text-anchor="start" x="153" y="-190.88" font-family="Times,serif" font-size="10.00">mal_packet_weaver::</text>
<text text-anchor="start" x="153" y="-179.62" font-family="Times,serif" font-size="10.00">PacketDispatcher::fulfill</text>
<text text-anchor="middle" x="200.62" y="-168.38" font-family="Times,serif" font-size="10.00">_promises</text>
</a>
</g>
</g>
<!-- Node1&#45;&gt;Node3 -->
<g id="edge2_Node000001_Node000003" class="edge">
<title>Node1&#45;&gt;Node3</title>
<g id="a_edge2_Node000001_Node000003"><a xlink:title=" ">
<path fill="none" stroke="#63b8ff" d="M109.17,-183.5C117.29,-183.5 125.75,-183.5 134.09,-183.5"/>
<polygon fill="#63b8ff" stroke="#63b8ff" points="133.95,-187 143.95,-183.5 133.95,-180 133.95,-187"/>
</a>
</g>
</g>
<!-- Node4 -->
<g id="Node000004" class="node">
<title>Node4</title>
<g id="a_Node000004"><a xlink:href="../../d4/d61/classmal__packet__weaver_1_1_packet_dispatcher.html#a87b159df2e43d0b4de204fd9b41d46be" target="_top" xlink:title="Pops input packets from input queues to local maps for processing.">
<polygon fill="white" stroke="#666666" points="254,-144.38 147.25,-144.38 147.25,-102.62 254,-102.62 254,-144.38"/>
<text text-anchor="start" x="155.25" y="-130.88" font-family="Times,serif" font-size="10.00">mal_packet_weaver::</text>
<text text-anchor="start" x="155.25" y="-119.62" font-family="Times,serif" font-size="10.00">PacketDispatcher::pop</text>
<text text-anchor="middle" x="200.62" y="-108.38" font-family="Times,serif" font-size="10.00">_inputs</text>
</a>
</g>
</g>
<!-- Node1&#45;&gt;Node4 -->
<g id="edge3_Node000001_Node000004" class="edge">
<title>Node1&#45;&gt;Node4</title>
<g id="a_edge3_Node000001_Node000004"><a xlink:title=" ">
<path fill="none" stroke="#63b8ff" d="M92.99,-167.89C106.88,-162.11 123.01,-155.39 138.46,-148.96"/>
<polygon fill="#63b8ff" stroke="#63b8ff" points="139.6,-151.86 147.49,-144.79 136.91,-145.4 139.6,-151.86"/>
</a>
</g>
</g>
<!-- Node5 -->
<g id="Node000005" class="node">
<title>Node5</title>
<g id="a_Node000005"><a xlink:href="../../d4/d61/classmal__packet__weaver_1_1_packet_dispatcher.html#ab72dbe23999515e3fa7db665a330f066" target="_top" xlink:title="Creates a default_handlers_input_pop_task and returns a future to await completion.">
<polygon fill="white" stroke="#666666" points="422.25,-254 306.5,-254 306.5,-201 422.25,-201 422.25,-254"/>
<text text-anchor="start" x="314.5" y="-240.5" font-family="Times,serif" font-size="10.00">mal_packet_weaver::</text>
<text text-anchor="start" x="314.5" y="-229.25" font-family="Times,serif" font-size="10.00">PacketDispatcher::create</text>
<text text-anchor="start" x="314.5" y="-218" font-family="Times,serif" font-size="10.00">_default_handlers_input</text>
<text text-anchor="middle" x="364.38" y="-206.75" font-family="Times,serif" font-size="10.00">_pop_task</text>
</a>
</g>
</g>
<!-- Node4&#45;&gt;Node5 -->
<g id="edge4_Node000004_Node000005" class="edge">
<title>Node4&#45;&gt;Node5</title>
<g id="a_edge4_Node000004_Node000005"><a xlink:title=" ">
<path fill="none" stroke="#63b8ff" d="M243.68,-144.75C248.05,-147.5 252.33,-150.43 256.25,-153.5 274.83,-168.03 273.35,-178.39 292.25,-192.5 293.9,-193.74 295.61,-194.95 297.35,-196.13"/>
<polygon fill="#63b8ff" stroke="#63b8ff" points="295.02,-199.43 305.34,-201.83 298.77,-193.52 295.02,-199.43"/>
</a>
</g>
</g>
<!-- Node6 -->
<g id="Node000006" class="node">
<title>Node6</title>
<g id="a_Node000006"><a xlink:href="../../d4/d61/classmal__packet__weaver_1_1_packet_dispatcher.html#a1fcf146e1842c61f10a6456e716f24a2" target="_top" xlink:title="Creates a promise_filter_map_input_pop_task and returns a future to await completion.">
<polygon fill="white" stroke="#666666" points="427.5,-183 301.25,-183 301.25,-130 427.5,-130 427.5,-183"/>
<text text-anchor="start" x="309.25" y="-169.5" font-family="Times,serif" font-size="10.00">mal_packet_weaver::</text>
<text text-anchor="start" x="309.25" y="-158.25" font-family="Times,serif" font-size="10.00">PacketDispatcher::create</text>
<text text-anchor="start" x="309.25" y="-147" font-family="Times,serif" font-size="10.00">_promise_filter_map_input</text>
<text text-anchor="middle" x="364.38" y="-135.75" font-family="Times,serif" font-size="10.00">_pop_task</text>
</a>
</g>
</g>
<!-- Node4&#45;&gt;Node6 -->
<g id="edge5_Node000004_Node000006" class="edge">
<title>Node4&#45;&gt;Node6</title>
<g id="a_edge5_Node000004_Node000006"><a xlink:title=" ">
<path fill="none" stroke="#63b8ff" d="M254.14,-134.21C265.7,-136.57 278.14,-139.11 290.34,-141.6"/>
<polygon fill="#63b8ff" stroke="#63b8ff" points="289.48,-145.2 299.98,-143.77 290.88,-138.34 289.48,-145.2"/>
</a>
</g>
</g>
<!-- Node7 -->
<g id="Node000007" class="node">
<title>Node7</title>
<g id="a_Node000007"><a xlink:href="../../d4/d61/classmal__packet__weaver_1_1_packet_dispatcher.html#a8e90b1f9723efb6f2bb12e3b89d1e27c" target="_top" xlink:title="Creates a promise_map_input_pop_task and returns a future to await completion.">
<polygon fill="white" stroke="#666666" points="436.5,-112.38 292.25,-112.38 292.25,-70.62 436.5,-70.62 436.5,-112.38"/>
<text text-anchor="start" x="300.25" y="-98.88" font-family="Times,serif" font-size="10.00">mal_packet_weaver::</text>
<text text-anchor="start" x="300.25" y="-87.62" font-family="Times,serif" font-size="10.00">PacketDispatcher::create</text>
<text text-anchor="middle" x="364.38" y="-76.38" font-family="Times,serif" font-size="10.00">_promise_map_input_pop_task</text>
</a>
</g>
</g>
<!-- Node4&#45;&gt;Node7 -->
<g id="edge6_Node000004_Node000007" class="edge">
<title>Node4&#45;&gt;Node7</title>
<g id="a_edge6_Node000004_Node000007"><a xlink:title=" ">
<path fill="none" stroke="#63b8ff" d="M254.14,-113.11C262.83,-111.39 272.01,-109.58 281.22,-107.75"/>
<polygon fill="#63b8ff" stroke="#63b8ff" points="281.88,-110.99 291.01,-105.62 280.52,-104.13 281.88,-110.99"/>
</a>
</g>
</g>
<!-- Node8 -->
<g id="Node000008" class="node">
<title>Node8</title>
<g id="a_Node000008"><a xlink:href="../../d4/d61/classmal__packet__weaver_1_1_packet_dispatcher.html#af943e1f1d220396b11bfbbb24132e4c8" target="_top" xlink:title="Creates an unprocessed_packets_input_pop_task and returns a future to await completion.">
<polygon fill="white" stroke="#666666" points="431.25,-53 297.5,-53 297.5,0 431.25,0 431.25,-53"/>
<text text-anchor="start" x="305.5" y="-39.5" font-family="Times,serif" font-size="10.00">mal_packet_weaver::</text>
<text text-anchor="start" x="305.5" y="-28.25" font-family="Times,serif" font-size="10.00">PacketDispatcher::create</text>
<text text-anchor="start" x="305.5" y="-17" font-family="Times,serif" font-size="10.00">_unprocessed_packets_input</text>
<text text-anchor="middle" x="364.38" y="-5.75" font-family="Times,serif" font-size="10.00">_pop_task</text>
</a>
</g>
</g>
<!-- Node4&#45;&gt;Node8 -->
<g id="edge7_Node000004_Node000008" class="edge">
<title>Node4&#45;&gt;Node8</title>
<g id="a_edge7_Node000004_Node000008"><a xlink:title=" ">
<path fill="none" stroke="#63b8ff" d="M230.32,-102.31C247.82,-89.79 270.85,-74 292.25,-61.5 293.84,-60.57 295.46,-59.64 297.11,-58.72"/>
<polygon fill="#63b8ff" stroke="#63b8ff" points="298.59,-61.34 305.69,-53.48 295.24,-55.2 298.59,-61.34"/>
</a>
</g>
</g>
</g>
</svg>
