<?xml version="1.0" encoding="UTF-8" standalone="no"?>
<!DOCTYPE svg PUBLIC "-//W3C//DTD SVG 1.1//EN"
 "http://www.w3.org/Graphics/SVG/1.1/DTD/svg11.dtd">
<!-- Generated by graphviz version 9.0.0 (20230911.1827)
 -->
<!-- Title: mal_packet_weaver::PacketDispatcher::fulfill_handlers Pages: 1 -->
<svg width="327pt" height="88pt"
 viewBox="0.00 0.00 326.50 87.50" xmlns="http://www.w3.org/2000/svg" xmlns:xlink="http://www.w3.org/1999/xlink">
<g id="graph0" class="graph" transform="scale(1 1) rotate(0) translate(4 83.5)">
<title>mal_packet_weaver::PacketDispatcher::fulfill_handlers</title>
<!-- Node1 -->
<g id="Node000001" class="node">
<title>Node1</title>
<g id="a_Node000001"><a xlink:title="Fulfills handlers associated with a packet ID and packet data.">
<polygon fill="#999999" stroke="#666666" points="111.25,-60.12 0,-60.12 0,-18.38 111.25,-18.38 111.25,-60.12"/>
<text text-anchor="start" x="8" y="-46.62" font-family="Times,serif" font-size="10.00">mal_packet_weaver::</text>
<text text-anchor="start" x="8" y="-35.38" font-family="Times,serif" font-size="10.00">PacketDispatcher::fulfill</text>
<text text-anchor="middle" x="55.62" y="-24.12" font-family="Times,serif" font-size="10.00">_handlers</text>
</a>
</g>
</g>
<!-- Node2 -->
<g id="Node000002" class="node">
<title>Node2</title>
<g id="a_Node000002"><a xlink:href="../../db/d8f/classmal__toolkit_1_1_timer.html#a4ac9f05ebd618ab6f567aebd6d421ddb" target="_top" xlink:title="Calculates and returns the elapsed time since the timer was last reset.">
<polygon fill="white" stroke="#666666" points="278,-79.5 187.75,-79.5 187.75,-49 278,-49 278,-79.5"/>
<text text-anchor="start" x="195.75" y="-66" font-family="Times,serif" font-size="10.00">mal_toolkit::Timer</text>
<text text-anchor="middle" x="232.88" y="-54.75" font-family="Times,serif" font-size="10.00">::elapsed</text>
</a>
</g>
</g>
<!-- Node1&#45;&gt;Node2 -->
<g id="edge1_Node000001_Node000002" class="edge">
<title>Node1&#45;&gt;Node2</title>
<g id="a_edge1_Node000001_Node000002"><a xlink:title=" ">
<path fill="none" stroke="#63b8ff" d="M111.59,-47.09C132.18,-50.03 155.56,-53.36 176.21,-56.31"/>
<polygon fill="#63b8ff" stroke="#63b8ff" points="175.46,-59.74 185.86,-57.69 176.45,-52.81 175.46,-59.74"/>
</a>
</g>
</g>
<!-- Node3 -->
<g id="Node000003" class="node">
<title>Node3</title>
<g id="a_Node000003"><a xlink:href="../../d6/de9/namespacemal__packet__weaver.html#a0a953c31a1840b2bc81be049e31a8884" target="_top" xlink:title="Extract PacketSubsystemID from a UniquePacketID.">
<polygon fill="white" stroke="#666666" points="318.5,-30.5 147.25,-30.5 147.25,0 318.5,0 318.5,-30.5"/>
<text text-anchor="start" x="155.25" y="-17" font-family="Times,serif" font-size="10.00">mal_packet_weaver::</text>
<text text-anchor="middle" x="232.88" y="-5.75" font-family="Times,serif" font-size="10.00">UniquePacketIDToPacketSubsystemID</text>
</a>
</g>
</g>
<!-- Node1&#45;&gt;Node3 -->
<g id="edge2_Node000001_Node000003" class="edge">
<title>Node1&#45;&gt;Node3</title>
<g id="a_edge2_Node000001_Node000003"><a xlink:title=" ">
<path fill="none" stroke="#63b8ff" d="M111.59,-31.72C119.32,-30.66 127.45,-29.55 135.68,-28.42"/>
<polygon fill="#63b8ff" stroke="#63b8ff" points="136,-31.91 145.43,-27.09 135.05,-24.98 136,-31.91"/>
</a>
</g>
</g>
</g>
</svg>
