<?xml version="1.0" encoding="UTF-8" standalone="no"?>
<!DOCTYPE svg PUBLIC "-//W3C//DTD SVG 1.1//EN"
 "http://www.w3.org/Graphics/SVG/1.1/DTD/svg11.dtd">
<!-- Generated by graphviz version 8.1.0 (20230707.0739)
 -->
<!-- Title: mal_packet_weaver::PacketDispatcher::await_packet Pages: 1 -->
<svg width="472pt" height="141pt"
 viewBox="0.00 0.00 472.25 141.12" xmlns="http://www.w3.org/2000/svg" xmlns:xlink="http://www.w3.org/1999/xlink">
<g id="graph0" class="graph" transform="scale(1 1) rotate(0) translate(4 137.12)">
<title>mal_packet_weaver::PacketDispatcher::await_packet</title>
<!-- Node1 -->
<g id="Node000001" class="node">
<title>Node1</title>
<g id="a_Node000001"><a xlink:title="Wait until a packet satisfying the filter condition is registered in the dispatch system and return a...">
<polygon fill="#999999" stroke="#666666" points="112,-95.75 0,-95.75 0,-54 112,-54 112,-95.75"/>
<text text-anchor="start" x="8" y="-82.25" font-family="Times,serif" font-size="10.00">mal_packet_weaver::</text>
<text text-anchor="start" x="8" y="-71" font-family="Times,serif" font-size="10.00">PacketDispatcher::await</text>
<text text-anchor="middle" x="56" y="-59.75" font-family="Times,serif" font-size="10.00">_packet</text>
</a>
</g>
</g>
<!-- Node2 -->
<g id="Node000002" class="node">
<title>Node2</title>
<g id="a_Node000002"><a xlink:href="../../df/df5/namespacemal__toolkit.html#a1a10dbab8f9e26361eaa4af07f31713d" target="_top" xlink:title="Asserts a condition with customizable behavior based on debug mode.">
<polygon fill="white" stroke="#666666" points="256.25,-127.5 164.5,-127.5 164.5,-108.25 256.25,-108.25 256.25,-127.5"/>
<text text-anchor="middle" x="210.38" y="-114" font-family="Times,serif" font-size="10.00">mal_toolkit::Assert</text>
</a>
</g>
</g>
<!-- Node1&#45;&gt;Node2 -->
<g id="edge1_Node000001_Node000002" class="edge">
<title>Node1&#45;&gt;Node2</title>
<g id="a_edge1_Node000001_Node000002"><a xlink:title=" ">
<path fill="none" stroke="#63b8ff" d="M112.44,-90.52C129.19,-95.25 147.4,-100.38 163.45,-104.92"/>
<polygon fill="#63b8ff" stroke="#63b8ff" points="162.09,-108.45 172.66,-107.8 163.99,-101.71 162.09,-108.45"/>
</a>
</g>
</g>
<!-- Node4 -->
<g id="Node000004" class="node">
<title>Node4</title>
<g id="a_Node000004"><a xlink:href="../../d6/de9/namespacemal__packet__weaver.html#af2c5029afaa161f2ddd273bc2f46d4f5" target="_top" xlink:title="Awaiting an std::future with Boost.Asio integration.">
<polygon fill="white" stroke="#666666" points="260,-90.12 160.75,-90.12 160.75,-59.62 260,-59.62 260,-90.12"/>
<text text-anchor="start" x="168.75" y="-76.62" font-family="Times,serif" font-size="10.00">mal_packet_weaver::</text>
<text text-anchor="middle" x="210.38" y="-65.38" font-family="Times,serif" font-size="10.00">await_future</text>
</a>
</g>
</g>
<!-- Node1&#45;&gt;Node4 -->
<g id="edge3_Node000001_Node000004" class="edge">
<title>Node1&#45;&gt;Node4</title>
<g id="a_edge3_Node000001_Node000004"><a xlink:title=" ">
<path fill="none" stroke="#63b8ff" d="M112.44,-74.88C124.43,-74.88 137.16,-74.88 149.31,-74.88"/>
<polygon fill="#63b8ff" stroke="#63b8ff" points="149.28,-78.38 159.28,-74.88 149.28,-71.38 149.28,-78.38"/>
</a>
</g>
</g>
<!-- Node5 -->
<g id="Node000005" class="node">
<title>Node5</title>
<g id="a_Node000005"><a xlink:href="../../d4/d61/classmal__packet__weaver_1_1_packet_dispatcher.html#a6cd127b3b0d7992ba74265243d8ed081" target="_top" xlink:title="Enqueues a promise with a filter associated with a packet.">
<polygon fill="white" stroke="#666666" points="272.75,-41.75 148,-41.75 148,0 272.75,0 272.75,-41.75"/>
<text text-anchor="start" x="156" y="-28.25" font-family="Times,serif" font-size="10.00">mal_packet_weaver::</text>
<text text-anchor="start" x="156" y="-17" font-family="Times,serif" font-size="10.00">PacketDispatcher::enqueue</text>
<text text-anchor="middle" x="210.38" y="-5.75" font-family="Times,serif" font-size="10.00">_filter_promise</text>
</a>
</g>
</g>
<!-- Node1&#45;&gt;Node5 -->
<g id="edge4_Node000001_Node000005" class="edge">
<title>Node1&#45;&gt;Node5</title>
<g id="a_edge4_Node000001_Node000005"><a xlink:title=" ">
<path fill="none" stroke="#63b8ff" d="M112.44,-55.23C121,-52.19 129.95,-49.02 138.79,-45.89"/>
<polygon fill="#63b8ff" stroke="#63b8ff" points="139.83,-48.88 148.09,-42.24 137.49,-42.28 139.83,-48.88"/>
</a>
</g>
</g>
<!-- Node3 -->
<g id="Node000003" class="node">
<title>Node3</title>
<g id="a_Node000003"><a xlink:href="../../df/df5/namespacemal__toolkit.html#a27bf9441da264c7f90650042e9e30f40" target="_top" xlink:title="Returns an empty string representing the current source location.">
<polygon fill="white" stroke="#666666" points="448.12,-133.12 324.88,-133.12 324.88,-102.62 448.12,-102.62 448.12,-133.12"/>
<text text-anchor="start" x="332.88" y="-119.62" font-family="Times,serif" font-size="10.00">mal_toolkit::CurrentSource</text>
<text text-anchor="middle" x="386.5" y="-108.38" font-family="Times,serif" font-size="10.00">Location</text>
</a>
</g>
</g>
<!-- Node2&#45;&gt;Node3 -->
<g id="edge2_Node000002_Node000003" class="edge">
<title>Node2&#45;&gt;Node3</title>
<g id="a_edge2_Node000002_Node000003"><a xlink:title=" ">
<path fill="none" stroke="#63b8ff" d="M256.67,-117.88C274.1,-117.88 294.46,-117.88 313.79,-117.88"/>
<polygon fill="#63b8ff" stroke="#63b8ff" points="313.7,-121.38 323.7,-117.88 313.7,-114.38 313.7,-121.38"/>
</a>
</g>
</g>
<!-- Node6 -->
<g id="Node000006" class="node">
<title>Node6</title>
<g id="a_Node000006"><a xlink:href="../../d5/d60/classmal__packet__weaver_1_1_packet_dispatcher_1_1_synchronization_wrapper.html#a8008ca251a628a0a8b205b4fae4e42e5" target="_top" xlink:title="Pushes a value into the queue for asynchronous processing.">
<polygon fill="white" stroke="#666666" points="464.25,-41.75 308.75,-41.75 308.75,0 464.25,0 464.25,-41.75"/>
<text text-anchor="start" x="316.75" y="-28.25" font-family="Times,serif" font-size="10.00">mal_packet_weaver::</text>
<text text-anchor="start" x="316.75" y="-17" font-family="Times,serif" font-size="10.00">PacketDispatcher::Synchronization</text>
<text text-anchor="middle" x="386.5" y="-5.75" font-family="Times,serif" font-size="10.00">Wrapper::push</text>
</a>
</g>
</g>
<!-- Node5&#45;&gt;Node6 -->
<g id="edge5_Node000005_Node000006" class="edge">
<title>Node5&#45;&gt;Node6</title>
<g id="a_edge5_Node000005_Node000006"><a xlink:title=" ">
<path fill="none" stroke="#63b8ff" d="M272.76,-20.88C280.8,-20.88 289.15,-20.88 297.52,-20.88"/>
<polygon fill="#63b8ff" stroke="#63b8ff" points="297.49,-24.38 307.49,-20.88 297.49,-17.38 297.49,-24.38"/>
</a>
</g>
</g>
</g>
</svg>
