<?xml version="1.0" encoding="UTF-8" standalone="no"?>
<!DOCTYPE svg PUBLIC "-//W3C//DTD SVG 1.1//EN"
 "http://www.w3.org/Graphics/SVG/1.1/DTD/svg11.dtd">
<!-- Generated by graphviz version 7.0.5 (20221223.1930)
 -->
<!-- Title: node_system::DerivedPacket&lt; PacketType &gt; Pages: 1 -->
<svg width="151pt" height="148pt"
 viewBox="0.00 0.00 151.00 148.00" xmlns="http://www.w3.org/2000/svg" xmlns:xlink="http://www.w3.org/1999/xlink">
<g id="graph0" class="graph" transform="scale(1 1) rotate(0) translate(4 144)">
<title>node_system::DerivedPacket&lt; PacketType &gt;</title>
<!-- Node1 -->
<g id="node1" class="node">
<title>Node1</title>
<g id="a_node1"><a xlink:title="A templated class representing a derived packet from the base Packet class.">
<polygon fill="#999999" stroke="#666666" points="143,-30 0,-30 0,0 143,0 143,-30"/>
<text text-anchor="start" x="8" y="-18" font-family="Helvetica,sans-Serif" font-size="10.00">node_system::DerivedPacket</text>
<text text-anchor="middle" x="71.5" y="-7" font-family="Helvetica,sans-Serif" font-size="10.00">&lt; PacketType &gt;</text>
</a>
</g>
</g>
<!-- Node2 -->
<g id="node2" class="node">
<title>Node2</title>
<g id="a_node2"><a xlink:href="../../da/d22/classnode__system_1_1_packet.html" target="_top" xlink:title="Base class for all packets.">
<polygon fill="white" stroke="#666666" points="126.5,-85 16.5,-85 16.5,-66 126.5,-66 126.5,-85"/>
<text text-anchor="middle" x="71.5" y="-73" font-family="Helvetica,sans-Serif" font-size="10.00">node_system::Packet</text>
</a>
</g>
</g>
<!-- Node2&#45;&gt;Node1 -->
<g id="edge1" class="edge">
<title>Node2&#45;&gt;Node1</title>
<path fill="none" stroke="#63b8ff" d="M71.5,-54.51C71.5,-46.49 71.5,-37.43 71.5,-30.11"/>
<polygon fill="#63b8ff" stroke="#63b8ff" points="68,-54.35 71.5,-64.35 75,-54.35 68,-54.35"/>
</g>
<!-- Node3 -->
<g id="node3" class="node">
<title>Node3</title>
<g id="a_node3"><a xlink:title=" ">
<polygon fill="white" stroke="#666666" points="120.5,-140 22.5,-140 22.5,-121 120.5,-121 120.5,-140"/>
<text text-anchor="middle" x="71.5" y="-128" font-family="Helvetica,sans-Serif" font-size="10.00">utils::non_copyable</text>
</a>
</g>
</g>
<!-- Node3&#45;&gt;Node2 -->
<g id="edge2" class="edge">
<title>Node3&#45;&gt;Node2</title>
<path fill="none" stroke="#63b8ff" d="M71.5,-109.35C71.5,-101.1 71.5,-91.97 71.5,-85.44"/>
<polygon fill="#63b8ff" stroke="#63b8ff" points="68,-109.23 71.5,-119.23 75,-109.23 68,-109.23"/>
</g>
</g>
</svg>
