<?xml version="1.0" encoding="UTF-8" standalone="no"?>
<!DOCTYPE svg PUBLIC "-//W3C//DTD SVG 1.1//EN"
 "http://www.w3.org/Graphics/SVG/1.1/DTD/svg11.dtd">
<!-- Generated by graphviz version 8.1.0 (20230707.0739)
 -->
<!-- Title: mal_packet_weaver::packet::system::SystemInfoResponsePacket Pages: 1 -->
<svg width="242pt" height="341pt"
 viewBox="0.00 0.00 241.62 341.25" xmlns="http://www.w3.org/2000/svg" xmlns:xlink="http://www.w3.org/1999/xlink">
<g id="graph0" class="graph" transform="scale(1 1) rotate(0) translate(4 337.25)">
<title>mal_packet_weaver::packet::system::SystemInfoResponsePacket</title>
<!-- Node1 -->
<g id="Node000001" class="node">
<title>Node1</title>
<g id="a_Node000001"><a xlink:title="Packet containing system information in response to a request.">
<polygon fill="#999999" stroke="#666666" points="129.25,-41.75 6,-41.75 6,0 129.25,0 129.25,-41.75"/>
<text text-anchor="start" x="14" y="-28.25" font-family="Times,serif" font-size="10.00">mal_packet_weaver::</text>
<text text-anchor="start" x="14" y="-17" font-family="Times,serif" font-size="10.00">packet::system::SystemInfo</text>
<text text-anchor="middle" x="67.62" y="-5.75" font-family="Times,serif" font-size="10.00">ResponsePacket</text>
</a>
</g>
</g>
<!-- Node2 -->
<g id="Node000002" class="node">
<title>Node2</title>
<g id="a_Node000002"><a xlink:href="../../dd/d2b/classmal__packet__weaver_1_1_derived_packet.html" target="_top" xlink:title=" ">
<polygon fill="white" stroke="#666666" points="135.25,-120.5 0,-120.5 0,-78.75 135.25,-78.75 135.25,-120.5"/>
<text text-anchor="start" x="8" y="-107" font-family="Times,serif" font-size="10.00">mal_packet_weaver::</text>
<text text-anchor="start" x="8" y="-95.75" font-family="Times,serif" font-size="10.00">DerivedPacket&lt; class</text>
<text text-anchor="middle" x="67.62" y="-84.5" font-family="Times,serif" font-size="10.00"> SystemInfoResponsePacket &gt;</text>
</a>
</g>
</g>
<!-- Node2&#45;&gt;Node1 -->
<g id="edge1_Node000001_Node000002" class="edge">
<title>Node2&#45;&gt;Node1</title>
<g id="a_edge1_Node000001_Node000002"><a xlink:title=" ">
<path fill="none" stroke="#63b8ff" d="M67.62,-67.63C67.62,-59.06 67.62,-49.97 67.62,-42.17"/>
<polygon fill="#63b8ff" stroke="#63b8ff" points="64.13,-67.46 67.62,-77.46 71.13,-67.46 64.13,-67.46"/>
</a>
</g>
</g>
<!-- Node3 -->
<g id="Node000003" class="node">
<title>Node3</title>
<g id="a_Node000003"><a xlink:href="../../d2/d9d/classmal__packet__weaver_1_1_packet.html" target="_top" xlink:title="Base class for all packets.">
<polygon fill="white" stroke="#666666" points="113.25,-277 14,-277 14,-246.5 113.25,-246.5 113.25,-277"/>
<text text-anchor="start" x="22" y="-263.5" font-family="Times,serif" font-size="10.00">mal_packet_weaver::</text>
<text text-anchor="middle" x="63.62" y="-252.25" font-family="Times,serif" font-size="10.00">Packet</text>
</a>
</g>
</g>
<!-- Node3&#45;&gt;Node2 -->
<g id="edge2_Node000002_Node000003" class="edge">
<title>Node3&#45;&gt;Node2</title>
<g id="a_edge2_Node000002_Node000003"><a xlink:title=" ">
<path fill="none" stroke="#63b8ff" d="M64.26,-235.26C65.05,-203.54 66.39,-150 67.12,-120.91"/>
<polygon fill="#63b8ff" stroke="#63b8ff" points="60.74,-235.17 63.99,-245.26 67.74,-235.35 60.74,-235.17"/>
</a>
</g>
</g>
<!-- Node5 -->
<g id="Node000005" class="node">
<title>Node5</title>
<g id="a_Node000005"><a xlink:href="../../dd/d2b/classmal__packet__weaver_1_1_derived_packet.html" target="_top" xlink:title="A templated class representing a derived packet from the base Packet class.">
<polygon fill="white" stroke="#666666" points="217.38,-209.5 79.88,-209.5 79.88,-179 217.38,-179 217.38,-209.5"/>
<text text-anchor="start" x="87.88" y="-196" font-family="Times,serif" font-size="10.00">mal_packet_weaver::</text>
<text text-anchor="middle" x="148.62" y="-184.75" font-family="Times,serif" font-size="10.00">DerivedPacket&lt; PacketType &gt;</text>
</a>
</g>
</g>
<!-- Node3&#45;&gt;Node5 -->
<g id="edge5_Node000005_Node000003" class="edge">
<title>Node3&#45;&gt;Node5</title>
<g id="a_edge5_Node000005_Node000003"><a xlink:title=" ">
<path fill="none" stroke="#63b8ff" d="M91.18,-239.51C103.71,-229.86 118.22,-218.68 129.52,-209.97"/>
<polygon fill="#63b8ff" stroke="#63b8ff" points="89.27,-237.34 83.49,-246.21 93.55,-242.88 89.27,-237.34"/>
</a>
</g>
</g>
<!-- Node4 -->
<g id="Node000004" class="node">
<title>Node4</title>
<g id="a_Node000004"><a xlink:title=" ">
<polygon fill="white" stroke="#666666" points="123.38,-333.25 3.88,-333.25 3.88,-314 123.38,-314 123.38,-333.25"/>
<text text-anchor="middle" x="63.62" y="-319.75" font-family="Times,serif" font-size="10.00">mal_toolkit::non_copyable</text>
</a>
</g>
</g>
<!-- Node4&#45;&gt;Node3 -->
<g id="edge3_Node000003_Node000004" class="edge">
<title>Node4&#45;&gt;Node3</title>
<g id="a_edge3_Node000003_Node000004"><a xlink:title=" ">
<path fill="none" stroke="#63b8ff" d="M63.62,-302.77C63.62,-294.37 63.62,-284.76 63.62,-277.07"/>
<polygon fill="#63b8ff" stroke="#63b8ff" points="60.13,-302.53 63.62,-312.53 67.13,-302.53 60.13,-302.53"/>
</a>
</g>
</g>
<!-- Node5&#45;&gt;Node2 -->
<g id="edge4_Node000002_Node000005" class="edge">
<title>Node5&#45;&gt;Node2</title>
<g id="a_edge4_Node000002_Node000005"><a xlink:title=" ">
<path fill="none" stroke="orange" stroke-dasharray="5,2" d="M129.05,-170.86C115.71,-155.61 98.21,-135.6 85.3,-120.84"/>
<polygon fill="orange" stroke="orange" points="126.75,-172.55 135.97,-177.78 132.02,-167.95 126.75,-172.55"/>
</a>
</g>
<text text-anchor="start" x="119.62" y="-151.5" font-family="Times,serif" font-size="10.00" fill="grey"> &lt; class SystemInfoResponse</text>
<text text-anchor="middle" x="176.62" y="-140.25" font-family="Times,serif" font-size="10.00" fill="grey">Packet &gt;</text>
</g>
</g>
</svg>
