<?xml version="1.0" encoding="UTF-8" standalone="no"?>
<!DOCTYPE svg PUBLIC "-//W3C//DTD SVG 1.1//EN"
 "http://www.w3.org/Graphics/SVG/1.1/DTD/svg11.dtd">
<!-- Generated by graphviz version 7.0.5 (20221223.1930)
 -->
<!-- Title: mal&#45;packet&#45;weaver/mal&#45;packet&#45;weaver/common.hpp Pages: 1 -->
<svg width="266pt" height="269pt"
 viewBox="0.00 0.00 265.50 269.00" xmlns="http://www.w3.org/2000/svg" xmlns:xlink="http://www.w3.org/1999/xlink">
<g id="graph0" class="graph" transform="scale(1 1) rotate(0) translate(4 265)">
<title>mal&#45;packet&#45;weaver/mal&#45;packet&#45;weaver/common.hpp</title>
<!-- Node1 -->
<g id="node1" class="node">
<title>Node1</title>
<g id="a_node1"><a xlink:title=" ">
<polygon fill="#999999" stroke="#666666" points="224,-261 82,-261 82,-231 224,-231 224,-261"/>
<text text-anchor="start" x="90" y="-249" font-family="Helvetica,sans-Serif" font-size="10.00">mal&#45;packet&#45;weaver/mal</text>
<text text-anchor="middle" x="153" y="-238" font-family="Helvetica,sans-Serif" font-size="10.00">&#45;packet&#45;weaver/common.hpp</text>
</a>
</g>
</g>
<!-- Node2 -->
<g id="node2" class="node">
<title>Node2</title>
<g id="a_node2"><a xlink:href="../../d7/d87/crypto_2common_8hpp.html" target="_top" xlink:title=" ">
<polygon fill="white" stroke="#666666" points="212,-195 94,-195 94,-154 212,-154 212,-195"/>
<text text-anchor="start" x="102" y="-183" font-family="Helvetica,sans-Serif" font-size="10.00">mal&#45;packet&#45;weaver/mal</text>
<text text-anchor="start" x="102" y="-172" font-family="Helvetica,sans-Serif" font-size="10.00">&#45;packet&#45;weaver/crypto</text>
<text text-anchor="middle" x="153" y="-161" font-family="Helvetica,sans-Serif" font-size="10.00">/common.hpp</text>
</a>
</g>
</g>
<!-- Node1&#45;&gt;Node2 -->
<g id="edge1" class="edge">
<title>Node1&#45;&gt;Node2</title>
<path fill="none" stroke="#63b8ff" d="M153,-219.36C153,-211.45 153,-202.87 153,-195.42"/>
<polygon fill="#63b8ff" stroke="#63b8ff" points="149.5,-219.09 153,-229.09 156.5,-219.09 149.5,-219.09"/>
</g>
<!-- Node3 -->
<g id="node3" class="node">
<title>Node3</title>
<g id="a_node3"><a xlink:href="../../d8/d6d/sha_8hpp.html" target="_top" xlink:title=" ">
<polygon fill="white" stroke="#666666" points="169,-118 51,-118 51,-77 169,-77 169,-118"/>
<text text-anchor="start" x="59" y="-106" font-family="Helvetica,sans-Serif" font-size="10.00">mal&#45;packet&#45;weaver/mal</text>
<text text-anchor="start" x="59" y="-95" font-family="Helvetica,sans-Serif" font-size="10.00">&#45;packet&#45;weaver/crypto</text>
<text text-anchor="middle" x="110" y="-84" font-family="Helvetica,sans-Serif" font-size="10.00">/sha.hpp</text>
</a>
</g>
</g>
<!-- Node2&#45;&gt;Node3 -->
<g id="edge2" class="edge">
<title>Node2&#45;&gt;Node3</title>
<path fill="none" stroke="#63b8ff" d="M136.12,-144.06C131.17,-135.43 125.89,-126.21 121.37,-118.33"/>
<polygon fill="#63b8ff" stroke="#63b8ff" points="132.94,-145.55 140.95,-152.48 139.01,-142.07 132.94,-145.55"/>
</g>
<!-- Node5 -->
<g id="node5" class="node">
<title>Node5</title>
<g id="a_node5"><a xlink:href="../../d8/dac/packet-crypto_8hpp.html" target="_top" xlink:title=" ">
<polygon fill="white" stroke="#666666" points="257.5,-41 136.5,-41 136.5,0 257.5,0 257.5,-41"/>
<text text-anchor="start" x="144.5" y="-29" font-family="Helvetica,sans-Serif" font-size="10.00">mal&#45;packet&#45;weaver/mal</text>
<text text-anchor="start" x="144.5" y="-18" font-family="Helvetica,sans-Serif" font-size="10.00">&#45;packet&#45;weaver/packets</text>
<text text-anchor="middle" x="197" y="-7" font-family="Helvetica,sans-Serif" font-size="10.00">/packet&#45;crypto.hpp</text>
</a>
</g>
</g>
<!-- Node2&#45;&gt;Node5 -->
<g id="edge5" class="edge">
<title>Node2&#45;&gt;Node5</title>
<path fill="none" stroke="#63b8ff" d="M168.14,-143.22C171.75,-135.17 175.33,-126.38 178,-118 186.25,-92.13 191.58,-61.17 194.44,-41.42"/>
<polygon fill="#63b8ff" stroke="#63b8ff" points="164.98,-141.73 163.92,-152.27 171.32,-144.69 164.98,-141.73"/>
</g>
<!-- Node4 -->
<g id="node4" class="node">
<title>Node4</title>
<g id="a_node4"><a xlink:href="../../d4/d28/ecdsa_8hpp.html" target="_top" xlink:title=" ">
<polygon fill="white" stroke="#666666" points="118,-41 0,-41 0,0 118,0 118,-41"/>
<text text-anchor="start" x="8" y="-29" font-family="Helvetica,sans-Serif" font-size="10.00">mal&#45;packet&#45;weaver/mal</text>
<text text-anchor="start" x="8" y="-18" font-family="Helvetica,sans-Serif" font-size="10.00">&#45;packet&#45;weaver/crypto</text>
<text text-anchor="middle" x="59" y="-7" font-family="Helvetica,sans-Serif" font-size="10.00">/ecdsa.hpp</text>
</a>
</g>
</g>
<!-- Node3&#45;&gt;Node4 -->
<g id="edge3" class="edge">
<title>Node3&#45;&gt;Node4</title>
<path fill="none" stroke="#63b8ff" d="M90.17,-67.34C84.25,-58.63 77.9,-49.3 72.49,-41.33"/>
<polygon fill="#63b8ff" stroke="#63b8ff" points="87.23,-69.24 95.75,-75.54 93.02,-65.31 87.23,-69.24"/>
</g>
<!-- Node3&#45;&gt;Node5 -->
<g id="edge4" class="edge">
<title>Node3&#45;&gt;Node5</title>
<path fill="none" stroke="#63b8ff" d="M141.56,-69.29C152.29,-60.05 164.06,-49.89 173.99,-41.33"/>
<polygon fill="#63b8ff" stroke="#63b8ff" points="139.29,-66.63 134,-75.81 143.86,-71.93 139.29,-66.63"/>
</g>
</g>
</svg>
