<?xml version="1.0" encoding="UTF-8" standalone="no"?>
<!DOCTYPE svg PUBLIC "-//W3C//DTD SVG 1.1//EN"
 "http://www.w3.org/Graphics/SVG/1.1/DTD/svg11.dtd">
<!-- Generated by graphviz version 8.1.0 (20230707.0739)
 -->
<!-- Title: mal_packet_weaver::packet::network::EchoPacket Pages: 1 -->
<!--zoomable 295 -->

<svg id="main" version="1.1" xmlns="http://www.w3.org/2000/svg" xmlns:xlink="http://www.w3.org/1999/xlink" xml:space="preserve" onload="init(evt)">
<style type="text/css"><![CDATA[
.node, .edge {opacity: 0.7;}
.node.selected, .edge.selected {opacity: 1;}
.edge:hover path { stroke: red; }
.edge:hover polygon { stroke: red; fill: red; }
]]></style>

<defs>
  <circle id="rim" cx="0" cy="0" r="7"/>
  <circle id="rim2" cx="0" cy="0" r="3.5"/>
  <g id="zoomPlus">
    <use xlink:href="#rim" fill="#404040"><set attributeName="fill" to="#808080" begin="zoomplus.mouseover" end="zoomplus.mouseout"/></use>
    <path d="M-4,0h8M0,-4v8" fill="none" stroke="white" stroke-width="1.5" pointer-events="none"/>
  </g>
  <g id="zoomMin">
    <use xlink:href="#rim" fill="#404040"><set attributeName="fill" to="#808080" begin="zoomminus.mouseover" end="zoomminus.mouseout"/></use>
    <path d="M-4,0h8" fill="none" stroke="white" stroke-width="1.5" pointer-events="none"/>
  </g>
  <g id="arrowUp" transform="translate(30 24)">
    <use xlink:href="#rim"/>
    <path pointer-events="none" fill="none" stroke="white" stroke-width="1.5" d="M0,-3.0v7 M-2.5,-0.5L0,-3.0L2.5,-0.5"/>
  </g>
  <g id="arrowRight" transform="rotate(90) translate(36 -43)">
    <use xlink:href="#rim"/>
    <path pointer-events="none" fill="none" stroke="white" stroke-width="1.5" d="M0,-3.0v7 M-2.5,-0.5L0,-3.0L2.5,-0.5"/>
  </g>
  <g id="arrowDown" transform="rotate(180) translate(-30 -48)">
    <use xlink:href="#rim"/>
    <path pointer-events="none" fill="none" stroke="white" stroke-width="1.5" d="M0,-3.0v7 M-2.5,-0.5L0,-3.0L2.5,-0.5"/>
  </g>
  <g id="arrowLeft" transform="rotate(270) translate(-36 17)">
    <use xlink:href="#rim"/>
    <path pointer-events="none" fill="none" stroke="white" stroke-width="1.5" d="M0,-3.0v7 M-2.5,-0.5L0,-3.0L2.5,-0.5"/>
  </g>
  <g id="resetDef">
    <use xlink:href="#rim2" fill="#404040"><set attributeName="fill" to="#808080" begin="reset.mouseover" end="reset.mouseout"/></use>
  </g>
</defs>
<script type="application/ecmascript">
var viewWidth = 984;
var viewHeight = 295;
var sectionId = 'dynsection-1';
</script>
<script type="application/ecmascript" xlink:href="../../svg.min.js"/>
<svg id="graph" class="graph">
<g id="viewport">
<title>mal_packet_weaver::packet::network::EchoPacket</title>
<!-- Node1 -->
<g id="Node000001" class="node">
<title>Node1</title>
<g id="a_Node000001"><a xlink:title="Packet for echoing a received message.">
<polygon fill="#999999" stroke="#666666" points="975.75,-86.5 845.75,-86.5 845.75,-56 975.75,-56 975.75,-86.5"/>
<text text-anchor="start" x="853.75" y="-73" font-family="Times,serif" font-size="10.00">mal_packet_weaver::</text>
<text text-anchor="middle" x="910.75" y="-61.75" font-family="Times,serif" font-size="10.00">packet::network::EchoPacket</text>
</a>
</g>
</g>
<!-- Node2 -->
<g id="Node000002" class="node">
<title>Node2</title>
<g id="a_Node000002"><a xlink:href="../../dd/d2b/classmal__packet__weaver_1_1_derived_packet.html" target="_top" xlink:title=" ">
<polygon fill="white" stroke="#666666" points="728,-164.12 626.5,-164.12 626.5,-122.38 728,-122.38 728,-164.12"/>
<text text-anchor="start" x="634.5" y="-150.62" font-family="Times,serif" font-size="10.00">mal_packet_weaver::</text>
<text text-anchor="start" x="634.5" y="-139.38" font-family="Times,serif" font-size="10.00">DerivedPacket&lt; class</text>
<text text-anchor="middle" x="677.25" y="-128.12" font-family="Times,serif" font-size="10.00"> EchoPacket &gt;</text>
</a>
</g>
</g>
<!-- Node2&#45;&gt;Node1 -->
<g id="edge1_Node000001_Node000002" class="edge">
<title>Node2&#45;&gt;Node1</title>
<g id="a_edge1_Node000001_Node000002"><a xlink:title=" ">
<path fill="none" stroke="#63b8ff" d="M738.82,-129.31C766.21,-122.53 798.86,-113.79 827.75,-104.25 843.05,-99.2 859.59,-92.74 873.79,-86.88"/>
<polygon fill="#63b8ff" stroke="#63b8ff" points="738.09,-126.13 729.21,-131.91 739.75,-132.93 738.09,-126.13"/>
</a>
</g>
</g>
<!-- Node3 -->
<g id="Node000003" class="node">
<title>Node3</title>
<g id="a_Node000003"><a xlink:href="../../d2/d9d/classmal__packet__weaver_1_1_packet.html" target="_top" xlink:title="Base class for all packets.">
<polygon fill="white" stroke="#666666" points="307.25,-201.5 208,-201.5 208,-171 307.25,-171 307.25,-201.5"/>
<text text-anchor="start" x="216" y="-188" font-family="Times,serif" font-size="10.00">mal_packet_weaver::</text>
<text text-anchor="middle" x="257.62" y="-176.75" font-family="Times,serif" font-size="10.00">Packet</text>
</a>
</g>
</g>
<!-- Node3&#45;&gt;Node2 -->
<g id="edge2_Node000002_Node000003" class="edge">
<title>Node3&#45;&gt;Node2</title>
<g id="a_edge2_Node000002_Node000003"><a xlink:title=" ">
<path fill="none" stroke="#63b8ff" d="M318.27,-182.62C384.14,-178.28 493.26,-170.07 586.75,-158.25 599.57,-156.63 613.36,-154.51 626.18,-152.37"/>
<polygon fill="#63b8ff" stroke="#63b8ff" points="318.43,-179.17 308.68,-183.31 318.88,-186.16 318.43,-179.17"/>
</a>
</g>
</g>
<!-- Node9 -->
<g id="Node000009" class="node">
<title>Node9</title>
<g id="a_Node000009"><a xlink:href="../../dd/d2b/classmal__packet__weaver_1_1_derived_packet.html" target="_top" xlink:title="A templated class representing a derived packet from the base Packet class.">
<polygon fill="white" stroke="#666666" points="481.75,-158.5 344.25,-158.5 344.25,-128 481.75,-128 481.75,-158.5"/>
<text text-anchor="start" x="352.25" y="-145" font-family="Times,serif" font-size="10.00">mal_packet_weaver::</text>
<text text-anchor="middle" x="413" y="-133.75" font-family="Times,serif" font-size="10.00">DerivedPacket&lt; PacketType &gt;</text>
</a>
</g>
</g>
<!-- Node3&#45;&gt;Node9 -->
<g id="edge9_Node000009_Node000003" class="edge">
<title>Node3&#45;&gt;Node9</title>
<g id="a_edge9_Node000009_Node000003"><a xlink:title=" ">
<path fill="none" stroke="#63b8ff" d="M317.92,-169.63C330.45,-166.11 343.64,-162.42 356.04,-158.94"/>
<polygon fill="#63b8ff" stroke="#63b8ff" points="317.26,-166.46 308.58,-172.53 319.15,-173.2 317.26,-166.46"/>
</a>
</g>
</g>
<!-- Node4 -->
<g id="Node000004" class="node">
<title>Node4</title>
<g id="a_Node000004"><a xlink:title=" ">
<polygon fill="white" stroke="#666666" points="119.5,-286.88 0,-286.88 0,-267.62 119.5,-267.62 119.5,-286.88"/>
<text text-anchor="middle" x="59.75" y="-273.38" font-family="Times,serif" font-size="10.00">mal_toolkit::non_copyable</text>
</a>
</g>
</g>
<!-- Node4&#45;&gt;Node3 -->
<g id="edge3_Node000003_Node000004" class="edge">
<title>Node4&#45;&gt;Node3</title>
<g id="a_edge3_Node000003_Node000004"><a xlink:title=" ">
<path fill="none" stroke="#63b8ff" d="M103.48,-263.79C108.89,-261.98 114.34,-260.11 119.5,-258.25 151.22,-246.83 160.11,-245.84 190,-230.25 205.85,-221.98 222.65,-210.87 235.41,-201.89"/>
<polygon fill="#63b8ff" stroke="#63b8ff" points="102.61,-260.72 94.2,-267.17 104.79,-267.37 102.61,-260.72"/>
</a>
</g>
</g>
<!-- Node5 -->
<g id="Node000005" class="node">
<title>Node5</title>
<g id="a_Node000005"><a xlink:title=" ">
<polygon fill="white" stroke="#666666" points="112.75,-249.5 6.75,-249.5 6.75,-219 112.75,-219 112.75,-249.5"/>
<text text-anchor="start" x="14.75" y="-236" font-family="Times,serif" font-size="10.00">Measurer&lt; std::chrono</text>
<text text-anchor="middle" x="59.75" y="-224.75" font-family="Times,serif" font-size="10.00">::steady_clock &gt;</text>
</a>
</g>
</g>
<!-- Node5&#45;&gt;Node3 -->
<g id="edge4_Node000003_Node000005" class="edge">
<title>Node5&#45;&gt;Node3</title>
<g id="a_edge4_Node000003_Node000005"><a xlink:title=" ">
<path fill="none" stroke="#9a32cd" stroke-dasharray="5,2" d="M123.47,-219.4C144.62,-214.34 168.35,-208.61 190,-203.25 195.68,-201.84 201.62,-200.35 207.53,-198.86"/>
<polygon fill="#9a32cd" stroke="#9a32cd" points="122.9,-216.18 113.99,-221.9 124.53,-222.98 122.9,-216.18"/>
</a>
</g>
<text text-anchor="middle" x="163.75" y="-217" font-family="Times,serif" font-size="10.00" fill="grey"> measurer</text>
</g>
<!-- Node6 -->
<g id="Node000006" class="node">
<title>Node6</title>
<g id="a_Node000006"><a xlink:title=" ">
<polygon fill="white" stroke="#666666" points="111.62,-200.88 7.88,-200.88 7.88,-181.62 111.62,-181.62 111.62,-200.88"/>
<text text-anchor="middle" x="59.75" y="-187.38" font-family="Times,serif" font-size="10.00">const UniquePacketID</text>
</a>
</g>
</g>
<!-- Node6&#45;&gt;Node3 -->
<g id="edge5_Node000003_Node000006" class="edge">
<title>Node6&#45;&gt;Node3</title>
<g id="a_edge5_Node000003_Node000006"><a xlink:title=" ">
<path fill="none" stroke="#9a32cd" stroke-dasharray="5,2" d="M122.64,-189.67C150.11,-188.97 181.98,-188.16 207.74,-187.5"/>
<polygon fill="#9a32cd" stroke="#9a32cd" points="122.87,-186.19 112.96,-189.94 123.04,-193.19 122.87,-186.19"/>
</a>
</g>
<text text-anchor="middle" x="163.75" y="-190" font-family="Times,serif" font-size="10.00" fill="grey"> type</text>
</g>
<!-- Node7 -->
<g id="Node000007" class="node">
<title>Node7</title>
<g id="a_Node000007"><a xlink:title=" ">
<polygon fill="white" stroke="#666666" points="88,-163.88 31.5,-163.88 31.5,-144.62 88,-144.62 88,-163.88"/>
<text text-anchor="middle" x="59.75" y="-150.38" font-family="Times,serif" font-size="10.00">const float</text>
</a>
</g>
</g>
<!-- Node7&#45;&gt;Node3 -->
<g id="edge6_Node000003_Node000007" class="edge">
<title>Node7&#45;&gt;Node3</title>
<g id="a_edge6_Node000003_Node000007"><a xlink:title=" ">
<path fill="none" stroke="#9a32cd" stroke-dasharray="5,2" d="M98.89,-158.73C124.69,-161.95 159.49,-166.65 190,-172 195.71,-173 201.67,-174.14 207.59,-175.33"/>
<polygon fill="#9a32cd" stroke="#9a32cd" points="99.43,-155.15 89.07,-157.4 98.57,-162.1 99.43,-155.15"/>
</a>
</g>
<text text-anchor="middle" x="163.75" y="-173" font-family="Times,serif" font-size="10.00" fill="grey"> time_to_live</text>
</g>
<!-- Node8 -->
<g id="Node000008" class="node">
<title>Node8</title>
<g id="a_Node000008"><a xlink:title=" ">
<polygon fill="white" stroke="#666666" points="76.75,-113.88 42.75,-113.88 42.75,-94.62 76.75,-94.62 76.75,-113.88"/>
<text text-anchor="middle" x="59.75" y="-100.38" font-family="Times,serif" font-size="10.00">float</text>
</a>
</g>
</g>
<!-- Node8&#45;&gt;Node1 -->
<g id="edge11_Node000001_Node000008" class="edge">
<title>Node8&#45;&gt;Node1</title>
<g id="a_edge11_Node000001_Node000008"><a xlink:title=" ">
<path fill="none" stroke="#9a32cd" stroke-dasharray="5,2" d="M87.85,-101.09C125.61,-96.96 196.22,-90.25 256.62,-90.25 256.62,-90.25 256.62,-90.25 678.25,-90.25 734.91,-90.25 799.11,-84.53 845.5,-79.36"/>
<polygon fill="#9a32cd" stroke="#9a32cd" points="87.78,-97.68 78.23,-102.27 88.56,-104.64 87.78,-97.68"/>
</a>
</g>
<text text-anchor="middle" x="413" y="-92" font-family="Times,serif" font-size="10.00" fill="grey"> time_to_live</text>
</g>
<!-- Node8&#45;&gt;Node3 -->
<g id="edge7_Node000003_Node000008" class="edge">
<title>Node8&#45;&gt;Node3</title>
<g id="a_edge7_Node000003_Node000008"><a xlink:title=" ">
<path fill="none" stroke="#9a32cd" stroke-dasharray="5,2" d="M87.44,-111.63C113.99,-119.34 155.61,-132.49 190,-148 204.35,-154.47 219.62,-163.1 231.92,-170.53"/>
<polygon fill="#9a32cd" stroke="#9a32cd" points="88.63,-108.04 78.05,-108.66 86.71,-114.77 88.63,-108.04"/>
</a>
</g>
<text text-anchor="middle" x="163.75" y="-149" font-family="Times,serif" font-size="10.00" fill="grey"> timestamp_</text>
</g>
<!-- Node9&#45;&gt;Node2 -->
<g id="edge8_Node000002_Node000009" class="edge">
<title>Node9&#45;&gt;Node2</title>
<g id="a_edge8_Node000002_Node000009"><a xlink:title=" ">
<path fill="none" stroke="orange" stroke-dasharray="5,2" d="M493.01,-143.25C536.26,-143.25 588.55,-143.25 626.19,-143.25"/>
<polygon fill="orange" stroke="orange" points="493.22,-139.75 483.22,-143.25 493.22,-146.75 493.22,-139.75"/>
</a>
</g>
<text text-anchor="middle" x="543.25" y="-145" font-family="Times,serif" font-size="10.00" fill="grey"> &lt; class EchoPacket &gt;</text>
</g>
<!-- Node10 -->
<g id="Node000010" class="node">
<title>Node10</title>
<g id="a_Node000010"><a xlink:title=" ">
<polygon fill="white" stroke="#666666" points="749.75,-61.88 604.75,-61.88 604.75,-42.62 749.75,-42.62 749.75,-61.88"/>
<text text-anchor="middle" x="677.25" y="-48.38" font-family="Times,serif" font-size="10.00">static constexpr UniquePacketID</text>
</a>
</g>
</g>
<!-- Node10&#45;&gt;Node1 -->
<g id="edge10_Node000001_Node000010" class="edge">
<title>Node10&#45;&gt;Node1</title>
<g id="a_edge10_Node000001_Node000010"><a xlink:title=" ">
<path fill="none" stroke="#9a32cd" stroke-dasharray="5,2" d="M761.09,-59.05C788.78,-61.32 819.2,-63.82 845.28,-65.96"/>
<polygon fill="#9a32cd" stroke="#9a32cd" points="761.48,-55.49 751.23,-58.16 760.91,-62.46 761.48,-55.49"/>
</a>
</g>
<text text-anchor="middle" x="797.75" y="-65" font-family="Times,serif" font-size="10.00" fill="grey"> static_type</text>
</g>
<!-- Node11 -->
<g id="Node000011" class="node">
<title>Node11</title>
<g id="a_Node000011"><a xlink:title=" ">
<polygon fill="white" stroke="#666666" points="705.12,-24.88 649.38,-24.88 649.38,-5.62 705.12,-5.62 705.12,-24.88"/>
<text text-anchor="middle" x="677.25" y="-11.38" font-family="Times,serif" font-size="10.00">std::string</text>
</a>
</g>
</g>
<!-- Node11&#45;&gt;Node1 -->
<g id="edge12_Node000001_Node000011" class="edge">
<title>Node11&#45;&gt;Node1</title>
<g id="a_edge12_Node000001_Node000011"><a xlink:title=" ">
<path fill="none" stroke="#9a32cd" stroke-dasharray="5,2" d="M716.06,-21.11C746.47,-26.17 790.17,-34.19 827.75,-44 840.38,-47.3 853.89,-51.5 866.23,-55.61"/>
<polygon fill="#9a32cd" stroke="#9a32cd" points="716.93,-17.55 706.5,-19.39 715.8,-24.45 716.93,-17.55"/>
</a>
</g>
<text text-anchor="middle" x="797.75" y="-46" font-family="Times,serif" font-size="10.00" fill="grey"> echo_message</text>
</g>
<!-- Node12 -->
<g id="Node000012" class="node">
<title>Node12</title>
<g id="a_Node000012"><a xlink:title=" ">
<polygon fill="white" stroke="#666666" points="456.62,-30.5 369.38,-30.5 369.38,0 456.62,0 456.62,-30.5"/>
<text text-anchor="start" x="377.38" y="-17" font-family="Times,serif" font-size="10.00">std::basic_string&lt;</text>
<text text-anchor="middle" x="413" y="-5.75" font-family="Times,serif" font-size="10.00"> Char &gt;</text>
</a>
</g>
</g>
<!-- Node12&#45;&gt;Node11 -->
<g id="edge13_Node000011_Node000012" class="edge">
<title>Node12&#45;&gt;Node11</title>
<g id="a_edge13_Node000011_Node000012"><a xlink:title=" ">
<path fill="none" stroke="#63b8ff" d="M467.97,-15.25C523.02,-15.25 606.23,-15.25 648.9,-15.25"/>
<polygon fill="#63b8ff" stroke="#63b8ff" points="468.01,-11.75 458.01,-15.25 468.01,-18.75 468.01,-11.75"/>
</a>
</g>
</g>
</g>
</svg>

<g id="navigator" transform="translate(0 0)" fill="#404254">
  <rect fill="#f2f5e9" fill-opacity="0.5" stroke="#606060" stroke-width=".5" x="0" y="0" width="60" height="60"/>
  <use id="zoomplus" xlink:href="#zoomPlus" x="17" y="9" onmousedown="handleZoom(evt,'in')"/>
  <use id="zoomminus" xlink:href="#zoomMin" x="42" y="9" onmousedown="handleZoom(evt,'out')"/>
  <use id="reset" xlink:href="#resetDef" x="30" y="36" onmousedown="handleReset()"/>
   <use id="arrowup" xlink:href="#arrowUp" x="0" y="0" onmousedown="handlePan(0,-1)"/>
  <use id="arrowright" xlink:href="#arrowRight" x="0" y="0" onmousedown="handlePan(1,0)"/>
  <use id="arrowdown" xlink:href="#arrowDown" x="0" y="0" onmousedown="handlePan(0,1)"/>
  <use id="arrowleft" xlink:href="#arrowLeft" x="0" y="0" onmousedown="handlePan(-1,0)"/>
</g>
<svg viewBox="0 0 15 15" width="100%" height="30px" preserveAspectRatio="xMaxYMin meet">
 <g id="arrow_out" transform="scale(0.3 0.3)">
  <a xlink:href="classmal__packet__weaver_1_1packet_1_1network_1_1_echo_packet__coll__graph_org.svg" target="_base">
   <rect id="button" ry="5" rx="5" y="6" x="6" height="38" width="38"
        fill="#f2f5e9" fill-opacity="0.5" stroke="#606060" stroke-width="1.0"/>
   <path id="arrow"
     d="M 11.500037,31.436501 C 11.940474,20.09759 22.043105,11.32322 32.158766,21.979434 L 37.068811,17.246167 C 37.068811,17.246167 37.088388,32 37.088388,32 L 22.160133,31.978069 C 22.160133,31.978069 26.997745,27.140456 26.997745,27.140456 C 18.528582,18.264221 13.291696,25.230495 11.500037,31.436501 z"
     style="fill:#404040;"/>
  </a>
 </g>
</svg>

<style type='text/css'>
<![CDATA[
[data-mouse-over-selected='false'] { opacity: 0.7; }
[data-mouse-over-selected='true']  { opacity: 1.0; }
]]>
</style>
<script type="application/ecmascript"><![CDATA[
document.addEventListener('DOMContentLoaded', (event) => {
  highlightEdges();
  highlightAdjacentNodes();
});
]]></script>
</svg>
