<?xml version="1.0" encoding="UTF-8" standalone="no"?>
<!DOCTYPE svg PUBLIC "-//W3C//DTD SVG 1.1//EN"
 "http://www.w3.org/Graphics/SVG/1.1/DTD/svg11.dtd">
<!-- Generated by graphviz version 7.0.5 (20221223.1930)
 -->
<!-- Title: mal_packet_weaver::DispatcherSession Pages: 1 -->
<svg width="1418pt" height="662pt"
 viewBox="0.00 0.00 1418.00 661.50" xmlns="http://www.w3.org/2000/svg" xmlns:xlink="http://www.w3.org/1999/xlink">
<g id="graph0" class="graph" transform="scale(1 1) rotate(0) translate(4 657.5)">
<title>mal_packet_weaver::DispatcherSession</title>
<!-- Node1 -->
<g id="node1" class="node">
<title>Node1</title>
<g id="a_node1"><a xlink:title=" ">
<polygon fill="#999999" stroke="#666666" points="1410,-469.5 1302,-469.5 1302,-439.5 1410,-439.5 1410,-469.5"/>
<text text-anchor="start" x="1310" y="-457.5" font-family="Helvetica,sans-Serif" font-size="10.00">mal_packet_weaver::</text>
<text text-anchor="middle" x="1356" y="-446.5" font-family="Helvetica,sans-Serif" font-size="10.00">DispatcherSession</text>
</a>
</g>
</g>
<!-- Node2 -->
<g id="node2" class="node">
<title>Node2</title>
<g id="a_node2"><a xlink:title=" ">
<polygon fill="white" stroke="#666666" points="1197,-522.5 1061,-522.5 1061,-492.5 1197,-492.5 1197,-522.5"/>
<text text-anchor="start" x="1069" y="-510.5" font-family="Helvetica,sans-Serif" font-size="10.00">std::shared_ptr&lt; mal</text>
<text text-anchor="middle" x="1129" y="-499.5" font-family="Helvetica,sans-Serif" font-size="10.00">_packet_weaver::Session &gt;</text>
</a>
</g>
</g>
<!-- Node2&#45;&gt;Node1 -->
<g id="edge1" class="edge">
<title>Node2&#45;&gt;Node1</title>
<path fill="none" stroke="#9a32cd" stroke-dasharray="5,2" d="M1206.56,-489.46C1237.87,-482.09 1273.31,-473.74 1301.72,-467.05"/>
<polygon fill="#9a32cd" stroke="#9a32cd" points="1206.09,-485.98 1197.16,-491.68 1207.69,-492.79 1206.09,-485.98"/>
<text text-anchor="middle" x="1260" y="-483.5" font-family="Helvetica,sans-Serif" font-size="10.00"> session_</text>
</g>
<!-- Node3 -->
<g id="node3" class="node">
<title>Node3</title>
<g id="a_node3"><a xlink:href="../../d8/d39/classmal__packet__weaver_1_1_session.html" target="_top" xlink:title="Represents a network session for sending and receiving packets.">
<polygon fill="white" stroke="#666666" points="990,-551.5 882,-551.5 882,-521.5 990,-521.5 990,-551.5"/>
<text text-anchor="start" x="890" y="-539.5" font-family="Helvetica,sans-Serif" font-size="10.00">mal_packet_weaver::</text>
<text text-anchor="middle" x="936" y="-528.5" font-family="Helvetica,sans-Serif" font-size="10.00">Session</text>
</a>
</g>
</g>
<!-- Node3&#45;&gt;Node2 -->
<g id="edge2" class="edge">
<title>Node3&#45;&gt;Node2</title>
<path fill="none" stroke="#9a32cd" stroke-dasharray="5,2" d="M1001.69,-526.68C1020.66,-523.8 1041.43,-520.64 1060.56,-517.74"/>
<polygon fill="#9a32cd" stroke="#9a32cd" points="1001.32,-523.19 991.95,-528.16 1002.37,-530.12 1001.32,-523.19"/>
<text text-anchor="middle" x="1015" y="-527.5" font-family="Helvetica,sans-Serif" font-size="10.00"> ptr</text>
</g>
<!-- Node4 -->
<g id="node4" class="node">
<title>Node4</title>
<g id="a_node4"><a xlink:title=" ">
<polygon fill="white" stroke="#666666" points="220,-653.5 122,-653.5 122,-623.5 220,-623.5 220,-653.5"/>
<text text-anchor="start" x="130" y="-641.5" font-family="Helvetica,sans-Serif" font-size="10.00">utils::non_copyable</text>
<text text-anchor="middle" x="171" y="-630.5" font-family="Helvetica,sans-Serif" font-size="10.00">_non_movable</text>
</a>
</g>
</g>
<!-- Node4&#45;&gt;Node3 -->
<g id="edge3" class="edge">
<title>Node4&#45;&gt;Node3</title>
<path fill="none" stroke="#63b8ff" d="M231.8,-641.22C335.37,-644.89 554.57,-648.14 737,-620.5 794.89,-611.73 810.94,-610.25 864,-585.5 883.14,-576.57 902.73,-562.61 916.48,-551.88"/>
<polygon fill="#63b8ff" stroke="#63b8ff" points="231.98,-637.72 221.86,-640.85 231.72,-644.71 231.98,-637.72"/>
</g>
<!-- Node7 -->
<g id="node7" class="node">
<title>Node7</title>
<g id="a_node7"><a xlink:href="../../d9/d37/classmal__packet__weaver_1_1crypto_1_1_a_e_s_1_1_a_e_s256.html" target="_top" xlink:title="Provides AES&#45;256 encryption and decryption functionality using OpenSSL.">
<polygon fill="white" stroke="#666666" points="501,-605.5 393,-605.5 393,-575.5 501,-575.5 501,-605.5"/>
<text text-anchor="start" x="401" y="-593.5" font-family="Helvetica,sans-Serif" font-size="10.00">mal_packet_weaver::</text>
<text text-anchor="middle" x="447" y="-582.5" font-family="Helvetica,sans-Serif" font-size="10.00">crypto::AES::AES256</text>
</a>
</g>
</g>
<!-- Node4&#45;&gt;Node7 -->
<g id="edge7" class="edge">
<title>Node4&#45;&gt;Node7</title>
<path fill="none" stroke="#8b1a1a" d="M231.5,-628.08C279.44,-619.68 346.24,-607.98 392.51,-599.87"/>
<polygon fill="#8b1a1a" stroke="#8b1a1a" points="231.09,-624.59 221.85,-629.77 232.3,-631.49 231.09,-624.59"/>
</g>
<!-- Node5 -->
<g id="node5" class="node">
<title>Node5</title>
<g id="a_node5"><a xlink:title=" ">
<polygon fill="white" stroke="#666666" points="724.5,-551.5 610.5,-551.5 610.5,-521.5 724.5,-521.5 724.5,-551.5"/>
<text text-anchor="start" x="618.5" y="-539.5" font-family="Helvetica,sans-Serif" font-size="10.00">std::enable_shared</text>
<text text-anchor="middle" x="667.5" y="-528.5" font-family="Helvetica,sans-Serif" font-size="10.00">_from_this&lt; Session &gt;</text>
</a>
</g>
</g>
<!-- Node5&#45;&gt;Node3 -->
<g id="edge4" class="edge">
<title>Node5&#45;&gt;Node3</title>
<path fill="none" stroke="#63b8ff" d="M736.15,-536.5C781.27,-536.5 839.77,-536.5 881.61,-536.5"/>
<polygon fill="#63b8ff" stroke="#63b8ff" points="736.21,-533 726.21,-536.5 736.21,-540 736.21,-533"/>
</g>
<!-- Node6 -->
<g id="node6" class="node">
<title>Node6</title>
<g id="a_node6"><a xlink:title=" ">
<polygon fill="white" stroke="#666666" points="727,-611 608,-611 608,-570 727,-570 727,-611"/>
<text text-anchor="start" x="616" y="-599" font-family="Helvetica,sans-Serif" font-size="10.00">std::unique_ptr&lt; mal</text>
<text text-anchor="start" x="616" y="-588" font-family="Helvetica,sans-Serif" font-size="10.00">_packet_weaver::crypto</text>
<text text-anchor="middle" x="667.5" y="-577" font-family="Helvetica,sans-Serif" font-size="10.00">::AES::AES256 &gt;</text>
</a>
</g>
</g>
<!-- Node6&#45;&gt;Node3 -->
<g id="edge5" class="edge">
<title>Node6&#45;&gt;Node3</title>
<path fill="none" stroke="#9a32cd" stroke-dasharray="5,2" d="M738.43,-576.33C783.29,-567.24 840.61,-555.63 881.76,-547.29"/>
<polygon fill="#9a32cd" stroke="#9a32cd" points="737.9,-572.87 728.8,-578.28 739.29,-579.73 737.9,-572.87"/>
<text text-anchor="middle" x="809.5" y="-573.5" font-family="Helvetica,sans-Serif" font-size="10.00"> aes_</text>
</g>
<!-- Node7&#45;&gt;Node6 -->
<g id="edge6" class="edge">
<title>Node7&#45;&gt;Node6</title>
<path fill="none" stroke="#9a32cd" stroke-dasharray="5,2" d="M512.72,-590.5C542.87,-590.5 578.49,-590.5 607.84,-590.5"/>
<polygon fill="#9a32cd" stroke="#9a32cd" points="512.96,-587 502.96,-590.5 512.96,-594 512.96,-587"/>
<text text-anchor="middle" x="558.5" y="-593.5" font-family="Helvetica,sans-Serif" font-size="10.00"> ptr</text>
</g>
<!-- Node8 -->
<g id="node8" class="node">
<title>Node8</title>
<g id="a_node8"><a xlink:title=" ">
<polygon fill="white" stroke="#666666" points="263,-603.5 79,-603.5 79,-551.5 263,-551.5 263,-603.5"/>
<text text-anchor="start" x="87" y="-591.5" font-family="Helvetica,sans-Serif" font-size="10.00">std::unique_ptr&lt; EVP</text>
<text text-anchor="start" x="87" y="-580.5" font-family="Helvetica,sans-Serif" font-size="10.00">_CIPHER_CTX, OPENSSL</text>
<text text-anchor="start" x="87" y="-569.5" font-family="Helvetica,sans-Serif" font-size="10.00">_OBJECT_WRAPPER&lt; EVP_CIPHER</text>
<text text-anchor="middle" x="171" y="-558.5" font-family="Helvetica,sans-Serif" font-size="10.00">_CTX &gt; &gt;</text>
</a>
</g>
</g>
<!-- Node8&#45;&gt;Node7 -->
<g id="edge8" class="edge">
<title>Node8&#45;&gt;Node7</title>
<path fill="none" stroke="#9a32cd" stroke-dasharray="5,2" d="M274.71,-575.71C301.52,-575.88 330.37,-576.64 357,-578.5 368.67,-579.31 381.13,-580.68 392.93,-582.21"/>
<polygon fill="#9a32cd" stroke="#9a32cd" points="274.89,-572.21 264.88,-575.67 274.86,-579.21 274.89,-572.21"/>
<text text-anchor="middle" x="319" y="-592.5" font-family="Helvetica,sans-Serif" font-size="10.00"> decrypt_context_</text>
<text text-anchor="middle" x="319" y="-581.5" font-family="Helvetica,sans-Serif" font-size="10.00">encrypt_context_</text>
</g>
<!-- Node9 -->
<g id="node9" class="node">
<title>Node9</title>
<g id="a_node9"><a xlink:title=" ">
<polygon fill="white" stroke="#666666" points="698,-503 637,-503 637,-484 698,-484 698,-503"/>
<text text-anchor="middle" x="667.5" y="-491" font-family="Helvetica,sans-Serif" font-size="10.00">std::mutex</text>
</a>
</g>
</g>
<!-- Node9&#45;&gt;Node3 -->
<g id="edge9" class="edge">
<title>Node9&#45;&gt;Node3</title>
<path fill="none" stroke="#9a32cd" stroke-dasharray="5,2" d="M709.73,-498.6C749.38,-503.7 810.95,-512.11 864,-521.5 869.71,-522.51 875.65,-523.64 881.57,-524.82"/>
<polygon fill="#9a32cd" stroke="#9a32cd" points="710.27,-495.14 699.91,-497.35 709.39,-502.09 710.27,-495.14"/>
<text text-anchor="middle" x="809.5" y="-524.5" font-family="Helvetica,sans-Serif" font-size="10.00"> packet_receiver_mutex_</text>
</g>
<!-- Node10 -->
<g id="node10" class="node">
<title>Node10</title>
<g id="a_node10"><a xlink:title=" ">
<polygon fill="white" stroke="#666666" points="1218,-445.5 1040,-445.5 1040,-415.5 1218,-415.5 1218,-445.5"/>
<text text-anchor="start" x="1048" y="-433.5" font-family="Helvetica,sans-Serif" font-size="10.00">std::shared_ptr&lt; mal</text>
<text text-anchor="middle" x="1129" y="-422.5" font-family="Helvetica,sans-Serif" font-size="10.00">_packet_weaver::PacketDispatcher &gt;</text>
</a>
</g>
</g>
<!-- Node10&#45;&gt;Node1 -->
<g id="edge10" class="edge">
<title>Node10&#45;&gt;Node1</title>
<path fill="none" stroke="#9a32cd" stroke-dasharray="5,2" d="M1229.36,-435.99C1247.57,-437.45 1266.38,-439.26 1284,-441.5 1289.72,-442.23 1295.67,-443.11 1301.6,-444.07"/>
<polygon fill="#9a32cd" stroke="#9a32cd" points="1229.87,-432.52 1219.63,-435.24 1229.33,-439.5 1229.87,-432.52"/>
<text text-anchor="middle" x="1260" y="-444.5" font-family="Helvetica,sans-Serif" font-size="10.00"> dispatcher</text>
</g>
<!-- Node11 -->
<g id="node11" class="node">
<title>Node11</title>
<g id="a_node11"><a xlink:href="../../d4/d61/classmal__packet__weaver_1_1_packet_dispatcher.html" target="_top" xlink:title="The PacketDispatcher class is responsible for managing packet dispatching and handling.">
<polygon fill="white" stroke="#666666" points="990,-271.5 882,-271.5 882,-241.5 990,-241.5 990,-271.5"/>
<text text-anchor="start" x="890" y="-259.5" font-family="Helvetica,sans-Serif" font-size="10.00">mal_packet_weaver::</text>
<text text-anchor="middle" x="936" y="-248.5" font-family="Helvetica,sans-Serif" font-size="10.00">PacketDispatcher</text>
</a>
</g>
</g>
<!-- Node11&#45;&gt;Node10 -->
<g id="edge11" class="edge">
<title>Node11&#45;&gt;Node10</title>
<path fill="none" stroke="#9a32cd" stroke-dasharray="5,2" d="M962.28,-279.53C1001.86,-315.59 1077.42,-384.42 1111.09,-415.09"/>
<polygon fill="#9a32cd" stroke="#9a32cd" points="964.82,-277.11 955.07,-272.96 960.1,-282.28 964.82,-277.11"/>
<text text-anchor="middle" x="1015" y="-335.5" font-family="Helvetica,sans-Serif" font-size="10.00"> ptr</text>
</g>
<!-- Node12 -->
<g id="node12" class="node">
<title>Node12</title>
<g id="a_node12"><a xlink:title=" ">
<polygon fill="white" stroke="#666666" points="519,-396 375,-396 375,-377 519,-377 519,-396"/>
<text text-anchor="middle" x="447" y="-384" font-family="Helvetica,sans-Serif" font-size="10.00">std::vector&lt; BasePacketPtr &gt;</text>
</a>
</g>
</g>
<!-- Node12&#45;&gt;Node11 -->
<g id="edge12" class="edge">
<title>Node12&#45;&gt;Node11</title>
<path fill="none" stroke="#9a32cd" stroke-dasharray="5,2" d="M496.05,-399.08C553.56,-412.39 652.68,-429.77 737,-416.5 795.59,-407.28 817.6,-412.45 864,-375.5 899.19,-347.47 920.85,-296.9 929.98,-271.67"/>
<polygon fill="#9a32cd" stroke="#9a32cd" points="497.13,-395.74 486.59,-396.83 495.51,-402.55 497.13,-395.74"/>
<text text-anchor="start" x="618.5" y="-434.5" font-family="Helvetica,sans-Serif" font-size="10.00"> unprocessed_packets</text>
<text text-anchor="middle" x="667.5" y="-423.5" font-family="Helvetica,sans-Serif" font-size="10.00">_input_</text>
</g>
<!-- Node18 -->
<g id="node18" class="node">
<title>Node18</title>
<g id="a_node18"><a xlink:title=" ">
<polygon fill="white" stroke="#666666" points="737,-407 598,-407 598,-366 737,-366 737,-407"/>
<text text-anchor="start" x="606" y="-395" font-family="Helvetica,sans-Serif" font-size="10.00">std::unordered_map</text>
<text text-anchor="start" x="606" y="-384" font-family="Helvetica,sans-Serif" font-size="10.00">&lt; UniquePacketID, std</text>
<text text-anchor="middle" x="667.5" y="-373" font-family="Helvetica,sans-Serif" font-size="10.00">::vector&lt; BasePacketPtr &gt; &gt;</text>
</a>
</g>
</g>
<!-- Node12&#45;&gt;Node18 -->
<g id="edge19" class="edge">
<title>Node12&#45;&gt;Node18</title>
<path fill="none" stroke="#9a32cd" stroke-dasharray="5,2" d="M530.63,-386.5C552.71,-386.5 576.33,-386.5 597.59,-386.5"/>
<polygon fill="#9a32cd" stroke="#9a32cd" points="530.76,-383 520.76,-386.5 530.76,-390 530.76,-383"/>
<text text-anchor="middle" x="558.5" y="-389.5" font-family="Helvetica,sans-Serif" font-size="10.00"> elements</text>
</g>
<!-- Node13 -->
<g id="node13" class="node">
<title>Node13</title>
<g id="a_node13"><a xlink:title=" ">
<polygon fill="white" stroke="#666666" points="222,-381 120,-381 120,-362 222,-362 222,-381"/>
<text text-anchor="middle" x="171" y="-369" font-family="Helvetica,sans-Serif" font-size="10.00">std::unique_ptr&lt; T &gt;</text>
</a>
</g>
</g>
<!-- Node13&#45;&gt;Node12 -->
<g id="edge13" class="edge">
<title>Node13&#45;&gt;Node12</title>
<path fill="none" stroke="#9a32cd" stroke-dasharray="5,2" d="M233.67,-374.88C275.5,-377.17 330.92,-380.2 374.65,-382.59"/>
<polygon fill="#9a32cd" stroke="#9a32cd" points="233.94,-371.39 223.77,-374.33 233.56,-378.38 233.94,-371.39"/>
<text text-anchor="middle" x="319" y="-383.5" font-family="Helvetica,sans-Serif" font-size="10.00"> elements</text>
</g>
<!-- Node14 -->
<g id="node14" class="node">
<title>Node14</title>
<g id="a_node14"><a xlink:title=" ">
<polygon fill="white" stroke="#666666" points="29,-359 0,-359 0,-340 29,-340 29,-359"/>
<text text-anchor="middle" x="14.5" y="-347" font-family="Helvetica,sans-Serif" font-size="10.00">T</text>
</a>
</g>
</g>
<!-- Node14&#45;&gt;Node13 -->
<g id="edge14" class="edge">
<title>Node14&#45;&gt;Node13</title>
<path fill="none" stroke="#9a32cd" stroke-dasharray="5,2" d="M40.79,-353.1C62.1,-356.14 93.26,-360.57 119.64,-364.33"/>
<polygon fill="#9a32cd" stroke="#9a32cd" points="41.38,-349.65 30.98,-351.7 40.39,-356.58 41.38,-349.65"/>
<text text-anchor="middle" x="54" y="-357.5" font-family="Helvetica,sans-Serif" font-size="10.00"> ptr</text>
</g>
<!-- Node21 -->
<g id="node21" class="node">
<title>Node21</title>
<g id="a_node21"><a xlink:title=" ">
<polygon fill="white" stroke="#666666" points="222.5,-341 119.5,-341 119.5,-322 222.5,-322 222.5,-341"/>
<text text-anchor="middle" x="171" y="-329" font-family="Helvetica,sans-Serif" font-size="10.00">std::shared_ptr&lt; T &gt;</text>
</a>
</g>
</g>
<!-- Node14&#45;&gt;Node21 -->
<g id="edge23" class="edge">
<title>Node14&#45;&gt;Node21</title>
<path fill="none" stroke="#9a32cd" stroke-dasharray="5,2" d="M39.93,-336.68C42.27,-335.81 44.65,-335.06 47,-334.5 70.27,-328.94 96.72,-327.67 119.12,-328.01"/>
<polygon fill="#9a32cd" stroke="#9a32cd" points="38.57,-333.45 30.84,-340.69 41.4,-339.85 38.57,-333.45"/>
<text text-anchor="middle" x="54" y="-337.5" font-family="Helvetica,sans-Serif" font-size="10.00"> ptr</text>
</g>
<!-- Node15 -->
<g id="node15" class="node">
<title>Node15</title>
<g id="a_node15"><a xlink:title=" ">
<polygon fill="white" stroke="#666666" points="733,-277 602,-277 602,-236 733,-236 733,-277"/>
<text text-anchor="start" x="610" y="-265" font-family="Helvetica,sans-Serif" font-size="10.00">std::vector&lt; std::pair</text>
<text text-anchor="start" x="610" y="-254" font-family="Helvetica,sans-Serif" font-size="10.00">&lt; UniquePacketID, shared</text>
<text text-anchor="middle" x="667.5" y="-243" font-family="Helvetica,sans-Serif" font-size="10.00">_packet_promise &gt; &gt;</text>
</a>
</g>
</g>
<!-- Node15&#45;&gt;Node11 -->
<g id="edge15" class="edge">
<title>Node15&#45;&gt;Node11</title>
<path fill="none" stroke="#9a32cd" stroke-dasharray="5,2" d="M744.81,-256.5C788.53,-256.5 842.32,-256.5 881.53,-256.5"/>
<polygon fill="#9a32cd" stroke="#9a32cd" points="744.87,-253 734.87,-256.5 744.87,-260 744.87,-253"/>
<text text-anchor="middle" x="809.5" y="-259.5" font-family="Helvetica,sans-Serif" font-size="10.00"> promise_map_input_</text>
</g>
<!-- Node16 -->
<g id="node16" class="node">
<title>Node16</title>
<g id="a_node16"><a xlink:title=" ">
<polygon fill="white" stroke="#666666" points="735.5,-218 599.5,-218 599.5,-177 735.5,-177 735.5,-218"/>
<text text-anchor="start" x="607.5" y="-206" font-family="Helvetica,sans-Serif" font-size="10.00">std::vector&lt; std::pair</text>
<text text-anchor="start" x="607.5" y="-195" font-family="Helvetica,sans-Serif" font-size="10.00">&lt; UniquePacketID, promise</text>
<text text-anchor="middle" x="667.5" y="-184" font-family="Helvetica,sans-Serif" font-size="10.00">_filter &gt; &gt;</text>
</a>
</g>
</g>
<!-- Node16&#45;&gt;Node11 -->
<g id="edge16" class="edge">
<title>Node16&#45;&gt;Node11</title>
<path fill="none" stroke="#9a32cd" stroke-dasharray="5,2" d="M746.61,-207.32C782.67,-212.72 825.86,-220.39 864,-230.5 874.79,-233.36 886.24,-237.19 896.72,-241.02"/>
<polygon fill="#9a32cd" stroke="#9a32cd" points="747.56,-203.93 737.15,-205.94 746.54,-210.85 747.56,-203.93"/>
<text text-anchor="start" x="767" y="-244.5" font-family="Helvetica,sans-Serif" font-size="10.00"> promise_filter_map</text>
<text text-anchor="middle" x="809.5" y="-233.5" font-family="Helvetica,sans-Serif" font-size="10.00">_input_</text>
</g>
<!-- Node17 -->
<g id="node17" class="node">
<title>Node17</title>
<g id="a_node17"><a xlink:title=" ">
<polygon fill="white" stroke="#666666" points="734,-159 601,-159 601,-118 734,-118 734,-159"/>
<text text-anchor="start" x="609" y="-147" font-family="Helvetica,sans-Serif" font-size="10.00">std::vector&lt; std::pair</text>
<text text-anchor="start" x="609" y="-136" font-family="Helvetica,sans-Serif" font-size="10.00">&lt; UniquePacketID, handler</text>
<text text-anchor="middle" x="667.5" y="-125" font-family="Helvetica,sans-Serif" font-size="10.00">_tuple &gt; &gt;</text>
</a>
</g>
</g>
<!-- Node17&#45;&gt;Node11 -->
<g id="edge17" class="edge">
<title>Node17&#45;&gt;Node11</title>
<path fill="none" stroke="#9a32cd" stroke-dasharray="5,2" d="M745.12,-151.66C782.52,-160.14 827.25,-173.42 864,-193.5 886.71,-205.9 908.27,-226.79 921.54,-241.09"/>
<polygon fill="#9a32cd" stroke="#9a32cd" points="746.27,-148.33 735.75,-149.61 744.77,-155.17 746.27,-148.33"/>
<text text-anchor="middle" x="809.5" y="-196.5" font-family="Helvetica,sans-Serif" font-size="10.00"> default_handlers_input_</text>
</g>
<!-- Node18&#45;&gt;Node11 -->
<g id="edge18" class="edge">
<title>Node18&#45;&gt;Node11</title>
<path fill="none" stroke="#9a32cd" stroke-dasharray="5,2" d="M748,-363.24C784.55,-350.95 827.74,-334.11 864,-313.5 884.48,-301.86 905.17,-284.46 918.89,-271.95"/>
<polygon fill="#9a32cd" stroke="#9a32cd" points="747.22,-359.81 738.82,-366.27 749.41,-366.46 747.22,-359.81"/>
<text text-anchor="middle" x="809.5" y="-363.5" font-family="Helvetica,sans-Serif" font-size="10.00"> unprocessed_packets_</text>
</g>
<!-- Node19 -->
<g id="node19" class="node">
<title>Node19</title>
<g id="a_node19"><a xlink:title=" ">
<polygon fill="white" stroke="#666666" points="727,-347.5 608,-347.5 608,-295.5 727,-295.5 727,-347.5"/>
<text text-anchor="start" x="616" y="-335.5" font-family="Helvetica,sans-Serif" font-size="10.00">std::unordered_map</text>
<text text-anchor="start" x="616" y="-324.5" font-family="Helvetica,sans-Serif" font-size="10.00">&lt; UniquePacketID, std</text>
<text text-anchor="start" x="616" y="-313.5" font-family="Helvetica,sans-Serif" font-size="10.00">::deque&lt; shared_packet</text>
<text text-anchor="middle" x="667.5" y="-302.5" font-family="Helvetica,sans-Serif" font-size="10.00">_promise &gt; &gt;</text>
</a>
</g>
</g>
<!-- Node19&#45;&gt;Node11 -->
<g id="edge20" class="edge">
<title>Node19&#45;&gt;Node11</title>
<path fill="none" stroke="#9a32cd" stroke-dasharray="5,2" d="M738.43,-304.44C783.29,-293.5 840.61,-279.52 881.76,-269.48"/>
<polygon fill="#9a32cd" stroke="#9a32cd" points="737.67,-301.03 728.78,-306.8 739.33,-307.83 737.67,-301.03"/>
<text text-anchor="middle" x="809.5" y="-301.5" font-family="Helvetica,sans-Serif" font-size="10.00"> promise_map_</text>
</g>
<!-- Node20 -->
<g id="node20" class="node">
<title>Node20</title>
<g id="a_node20"><a xlink:title=" ">
<polygon fill="white" stroke="#666666" points="496.5,-338.5 397.5,-338.5 397.5,-308.5 496.5,-308.5 496.5,-338.5"/>
<text text-anchor="start" x="405.5" y="-326.5" font-family="Helvetica,sans-Serif" font-size="10.00">std::deque&lt; shared</text>
<text text-anchor="middle" x="447" y="-315.5" font-family="Helvetica,sans-Serif" font-size="10.00">_packet_promise &gt;</text>
</a>
</g>
</g>
<!-- Node20&#45;&gt;Node19 -->
<g id="edge21" class="edge">
<title>Node20&#45;&gt;Node19</title>
<path fill="none" stroke="#9a32cd" stroke-dasharray="5,2" d="M507.89,-322.95C538.99,-322.67 576.86,-322.32 607.79,-322.04"/>
<polygon fill="#9a32cd" stroke="#9a32cd" points="508.24,-319.45 498.28,-323.04 508.31,-326.45 508.24,-319.45"/>
<text text-anchor="middle" x="558.5" y="-325.5" font-family="Helvetica,sans-Serif" font-size="10.00"> elements</text>
</g>
<!-- Node21&#45;&gt;Node20 -->
<g id="edge22" class="edge">
<title>Node21&#45;&gt;Node20</title>
<path fill="none" stroke="#9a32cd" stroke-dasharray="5,2" d="M234.39,-329.68C283.78,-328.24 351.77,-326.25 397.22,-324.92"/>
<polygon fill="#9a32cd" stroke="#9a32cd" points="234.3,-326.18 224.41,-329.97 234.51,-333.18 234.3,-326.18"/>
<text text-anchor="middle" x="319" y="-330.5" font-family="Helvetica,sans-Serif" font-size="10.00"> elements</text>
</g>
<!-- Node22 -->
<g id="node22" class="node">
<title>Node22</title>
<g id="a_node22"><a xlink:title=" ">
<polygon fill="white" stroke="#666666" points="733,-100 602,-100 602,-59 733,-59 733,-100"/>
<text text-anchor="start" x="610" y="-88" font-family="Helvetica,sans-Serif" font-size="10.00">std::unordered_map</text>
<text text-anchor="start" x="610" y="-77" font-family="Helvetica,sans-Serif" font-size="10.00">&lt; UniquePacketID, std</text>
<text text-anchor="middle" x="667.5" y="-66" font-family="Helvetica,sans-Serif" font-size="10.00">::vector&lt; promise_filter &gt; &gt;</text>
</a>
</g>
</g>
<!-- Node22&#45;&gt;Node11 -->
<g id="edge24" class="edge">
<title>Node22&#45;&gt;Node11</title>
<path fill="none" stroke="#9a32cd" stroke-dasharray="5,2" d="M744.66,-89.16C783.55,-97.2 829.74,-111.85 864,-138.5 899.29,-165.95 920.91,-216.26 930,-241.39"/>
<polygon fill="#9a32cd" stroke="#9a32cd" points="745.35,-85.73 734.86,-87.26 744.01,-92.6 745.35,-85.73"/>
<text text-anchor="middle" x="809.5" y="-141.5" font-family="Helvetica,sans-Serif" font-size="10.00"> promise_filter_map_</text>
</g>
<!-- Node23 -->
<g id="node23" class="node">
<title>Node23</title>
<g id="a_node23"><a xlink:title=" ">
<polygon fill="white" stroke="#666666" points="499,-94.5 395,-94.5 395,-64.5 499,-64.5 499,-94.5"/>
<text text-anchor="start" x="403" y="-82.5" font-family="Helvetica,sans-Serif" font-size="10.00">std::vector&lt; promise</text>
<text text-anchor="middle" x="447" y="-71.5" font-family="Helvetica,sans-Serif" font-size="10.00">_filter &gt;</text>
</a>
</g>
</g>
<!-- Node23&#45;&gt;Node22 -->
<g id="edge25" class="edge">
<title>Node23&#45;&gt;Node22</title>
<path fill="none" stroke="#9a32cd" stroke-dasharray="5,2" d="M510.71,-79.5C539.29,-79.5 573.08,-79.5 601.88,-79.5"/>
<polygon fill="#9a32cd" stroke="#9a32cd" points="510.74,-76 500.74,-79.5 510.74,-83 510.74,-76"/>
<text text-anchor="middle" x="558.5" y="-82.5" font-family="Helvetica,sans-Serif" font-size="10.00"> elements</text>
</g>
<!-- Node24 -->
<g id="node24" class="node">
<title>Node24</title>
<g id="a_node24"><a xlink:title=" ">
<polygon fill="white" stroke="#666666" points="733,-41 602,-41 602,0 733,0 733,-41"/>
<text text-anchor="start" x="610" y="-29" font-family="Helvetica,sans-Serif" font-size="10.00">std::unordered_map</text>
<text text-anchor="start" x="610" y="-18" font-family="Helvetica,sans-Serif" font-size="10.00">&lt; UniquePacketID, std</text>
<text text-anchor="middle" x="667.5" y="-7" font-family="Helvetica,sans-Serif" font-size="10.00">::vector&lt; handler_tuple &gt; &gt;</text>
</a>
</g>
</g>
<!-- Node24&#45;&gt;Node11 -->
<g id="edge26" class="edge">
<title>Node24&#45;&gt;Node11</title>
<path fill="none" stroke="#9a32cd" stroke-dasharray="5,2" d="M744.49,-26.26C784.32,-32.9 831.45,-46.96 864,-76.5 913.87,-121.77 929.18,-206.54 933.47,-241.17"/>
<polygon fill="#9a32cd" stroke="#9a32cd" points="745.11,-22.82 734.7,-24.77 744.06,-29.74 745.11,-22.82"/>
<text text-anchor="middle" x="809.5" y="-79.5" font-family="Helvetica,sans-Serif" font-size="10.00"> default_handlers_</text>
</g>
<!-- Node25 -->
<g id="node25" class="node">
<title>Node25</title>
<g id="a_node25"><a xlink:title=" ">
<polygon fill="white" stroke="#666666" points="497.5,-35.5 396.5,-35.5 396.5,-5.5 497.5,-5.5 497.5,-35.5"/>
<text text-anchor="start" x="404.5" y="-23.5" font-family="Helvetica,sans-Serif" font-size="10.00">std::vector&lt; handler</text>
<text text-anchor="middle" x="447" y="-12.5" font-family="Helvetica,sans-Serif" font-size="10.00">_tuple &gt;</text>
</a>
</g>
</g>
<!-- Node25&#45;&gt;Node24 -->
<g id="edge27" class="edge">
<title>Node25&#45;&gt;Node24</title>
<path fill="none" stroke="#9a32cd" stroke-dasharray="5,2" d="M509,-20.5C537.81,-20.5 572.22,-20.5 601.51,-20.5"/>
<polygon fill="#9a32cd" stroke="#9a32cd" points="509.37,-17 499.37,-20.5 509.37,-24 509.37,-17"/>
<text text-anchor="middle" x="558.5" y="-23.5" font-family="Helvetica,sans-Serif" font-size="10.00"> elements</text>
</g>
</g>
</svg>
