<?xml version="1.0" encoding="UTF-8" standalone="no"?>
<!DOCTYPE svg PUBLIC "-//W3C//DTD SVG 1.1//EN"
 "http://www.w3.org/Graphics/SVG/1.1/DTD/svg11.dtd">
<!-- Generated by graphviz version 8.1.0 (20230707.0739)
 -->
<!-- Title: mal&#45;packet&#45;weaver/mal&#45;packet&#45;weaver/packet&#45;dispatcher.inl Pages: 1 -->
<svg width="2190pt" height="349pt"
 viewBox="0.00 0.00 2189.75 348.50" xmlns="http://www.w3.org/2000/svg" xmlns:xlink="http://www.w3.org/1999/xlink">
<g id="graph0" class="graph" transform="scale(1 1) rotate(0) translate(4 344.5)">
<title>mal&#45;packet&#45;weaver/mal&#45;packet&#45;weaver/packet&#45;dispatcher.inl</title>
<!-- Node1 -->
<g id="Node000001" class="node">
<title>Node1</title>
<g id="a_Node000001"><a xlink:title=" ">
<polygon fill="#999999" stroke="#666666" points="832.75,-340.5 725.25,-340.5 725.25,-298.75 832.75,-298.75 832.75,-340.5"/>
<text text-anchor="start" x="733.25" y="-327" font-family="Times,serif" font-size="10.00">mal&#45;packet&#45;weaver/mal</text>
<text text-anchor="start" x="733.25" y="-315.75" font-family="Times,serif" font-size="10.00">&#45;packet&#45;weaver/packet</text>
<text text-anchor="middle" x="779" y="-304.5" font-family="Times,serif" font-size="10.00">&#45;dispatcher.inl</text>
</a>
</g>
</g>
<!-- Node2 -->
<g id="Node000002" class="node">
<title>Node2</title>
<g id="a_Node000002"><a xlink:href="../../df/d1d/packet-dispatcher_8hpp.html" target="_top" xlink:title=" ">
<polygon fill="white" stroke="#666666" points="832,-262.75 726,-262.75 726,-243.5 832,-243.5 832,-262.75"/>
<text text-anchor="middle" x="779" y="-249.25" font-family="Times,serif" font-size="10.00">packet&#45;dispatcher.hpp</text>
</a>
</g>
</g>
<!-- Node1&#45;&gt;Node2 -->
<g id="edge1_Node000001_Node000002" class="edge">
<title>Node1&#45;&gt;Node2</title>
<g id="a_edge1_Node000001_Node000002"><a xlink:title=" ">
<path fill="none" stroke="#63b8ff" d="M772.7,-298.57C772.09,-290.71 772.1,-281.72 772.72,-273.89"/>
<polygon fill="#63b8ff" stroke="#63b8ff" points="776.29,-274.57 774.13,-264.2 769.35,-273.65 776.29,-274.57"/>
</a>
</g>
</g>
<!-- Node2&#45;&gt;Node1 -->
<g id="edge34_Node000002_Node000001" class="edge">
<title>Node2&#45;&gt;Node1</title>
<g id="a_edge34_Node000002_Node000001"><a xlink:title=" ">
<path fill="none" stroke="#63b8ff" d="M783.87,-263.2C785.19,-269.69 785.82,-278.85 785.74,-287.85"/>
<polygon fill="#63b8ff" stroke="#63b8ff" points="782.22,-287.43 785.3,-297.57 789.21,-287.72 782.22,-287.43"/>
</a>
</g>
</g>
<!-- Node3 -->
<g id="Node000003" class="node">
<title>Node3</title>
<g id="a_Node000003"><a xlink:title=" ">
<polygon fill="#e0e0e0" stroke="#999999" points="40,-207.5 0,-207.5 0,-188.25 40,-188.25 40,-207.5"/>
<text text-anchor="middle" x="20" y="-194" font-family="Times,serif" font-size="10.00">queue</text>
</a>
</g>
</g>
<!-- Node2&#45;&gt;Node3 -->
<g id="edge2_Node000002_Node000003" class="edge">
<title>Node2&#45;&gt;Node3</title>
<g id="a_edge2_Node000002_Node000003"><a xlink:title=" ">
<path fill="none" stroke="#63b8ff" d="M725.61,-250.44C583.71,-245.72 198.54,-231.24 51.07,-207.4"/>
<polygon fill="#63b8ff" stroke="#63b8ff" points="51.9,-203.82 41.46,-205.59 50.73,-210.72 51.9,-203.82"/>
</a>
</g>
</g>
<!-- Node4 -->
<g id="Node000004" class="node">
<title>Node4</title>
<g id="a_Node000004"><a xlink:title=" ">
<polygon fill="#e0e0e0" stroke="#999999" points="98,-207.5 58,-207.5 58,-188.25 98,-188.25 98,-207.5"/>
<text text-anchor="middle" x="78" y="-194" font-family="Times,serif" font-size="10.00">deque</text>
</a>
</g>
</g>
<!-- Node2&#45;&gt;Node4 -->
<g id="edge3_Node000002_Node000004" class="edge">
<title>Node2&#45;&gt;Node4</title>
<g id="a_edge3_Node000002_Node000004"><a xlink:title=" ">
<path fill="none" stroke="#63b8ff" d="M725.8,-252.59C613.27,-252.72 342.92,-248.5 109.21,-207.49"/>
<polygon fill="#63b8ff" stroke="#63b8ff" points="109.92,-203.88 99.46,-205.57 108.69,-210.78 109.92,-203.88"/>
</a>
</g>
</g>
<!-- Node5 -->
<g id="Node000005" class="node">
<title>Node5</title>
<g id="a_Node000005"><a xlink:title=" ">
<polygon fill="#e0e0e0" stroke="#999999" points="194.12,-207.5 115.88,-207.5 115.88,-188.25 194.12,-188.25 194.12,-207.5"/>
<text text-anchor="middle" x="155" y="-194" font-family="Times,serif" font-size="10.00">unordered_map</text>
</a>
</g>
</g>
<!-- Node2&#45;&gt;Node5 -->
<g id="edge4_Node000002_Node000005" class="edge">
<title>Node2&#45;&gt;Node5</title>
<g id="a_edge4_Node000002_Node000005"><a xlink:title=" ">
<path fill="none" stroke="#63b8ff" d="M725.61,-249.78C625.54,-245.01 402.75,-232.52 205.37,-207.68"/>
<polygon fill="#63b8ff" stroke="#63b8ff" points="205.87,-204.09 195.5,-206.3 204.98,-211.03 205.87,-204.09"/>
</a>
</g>
</g>
<!-- Node6 -->
<g id="Node000006" class="node">
<title>Node6</title>
<g id="a_Node000006"><a xlink:title=" ">
<polygon fill="#e0e0e0" stroke="#999999" points="252,-207.5 212,-207.5 212,-188.25 252,-188.25 252,-207.5"/>
<text text-anchor="middle" x="232" y="-194" font-family="Times,serif" font-size="10.00">future</text>
</a>
</g>
</g>
<!-- Node2&#45;&gt;Node6 -->
<g id="edge5_Node000002_Node000006" class="edge">
<title>Node2&#45;&gt;Node6</title>
<g id="a_edge5_Node000002_Node000006"><a xlink:title=" ">
<path fill="none" stroke="#63b8ff" d="M725.57,-251.09C632.96,-248.52 436.67,-239.67 263.08,-207.52"/>
<polygon fill="#63b8ff" stroke="#63b8ff" points="263.94,-203.94 253.47,-205.52 262.65,-210.81 263.94,-203.94"/>
</a>
</g>
</g>
<!-- Node7 -->
<g id="Node000007" class="node">
<title>Node7</title>
<g id="a_Node000007"><a xlink:title=" ">
<polygon fill="#e0e0e0" stroke="#999999" points="385.5,-207.5 270.5,-207.5 270.5,-188.25 385.5,-188.25 385.5,-207.5"/>
<text text-anchor="middle" x="328" y="-194" font-family="Times,serif" font-size="10.00">boost/asio/awaitable.hpp</text>
</a>
</g>
</g>
<!-- Node2&#45;&gt;Node7 -->
<g id="edge6_Node000002_Node000007" class="edge">
<title>Node2&#45;&gt;Node7</title>
<g id="a_edge6_Node000002_Node000007"><a xlink:title=" ">
<path fill="none" stroke="#63b8ff" d="M725.55,-246.12C653.44,-237.98 520.7,-222.83 396.57,-207.68"/>
<polygon fill="#63b8ff" stroke="#63b8ff" points="397.09,-204.09 386.74,-206.35 396.24,-211.04 397.09,-204.09"/>
</a>
</g>
</g>
<!-- Node8 -->
<g id="Node000008" class="node">
<title>Node8</title>
<g id="a_Node000008"><a xlink:title=" ">
<polygon fill="#e0e0e0" stroke="#999999" points="522,-207.5 404,-207.5 404,-188.25 522,-188.25 522,-207.5"/>
<text text-anchor="middle" x="463" y="-194" font-family="Times,serif" font-size="10.00">boost/asio/co_spawn.hpp</text>
</a>
</g>
</g>
<!-- Node2&#45;&gt;Node8 -->
<g id="edge7_Node000002_Node000008" class="edge">
<title>Node2&#45;&gt;Node8</title>
<g id="a_edge7_Node000002_Node000008"><a xlink:title=" ">
<path fill="none" stroke="#63b8ff" d="M725.75,-243.15C671.11,-233.94 586.04,-219.61 527.59,-209.76"/>
<polygon fill="#63b8ff" stroke="#63b8ff" points="528.44,-206.18 518,-207.97 527.27,-213.09 528.44,-206.18"/>
</a>
</g>
</g>
<!-- Node9 -->
<g id="Node000009" class="node">
<title>Node9</title>
<g id="a_Node000009"><a xlink:title=" ">
<polygon fill="#e0e0e0" stroke="#999999" points="655.5,-207.5 540.5,-207.5 540.5,-188.25 655.5,-188.25 655.5,-207.5"/>
<text text-anchor="middle" x="598" y="-194" font-family="Times,serif" font-size="10.00">boost/asio/detached.hpp</text>
</a>
</g>
</g>
<!-- Node2&#45;&gt;Node9 -->
<g id="edge8_Node000002_Node000009" class="edge">
<title>Node2&#45;&gt;Node9</title>
<g id="a_edge8_Node000002_Node000009"><a xlink:title=" ">
<path fill="none" stroke="#63b8ff" d="M748.3,-243.09C718.26,-234.26 672.33,-220.74 639.14,-210.98"/>
<polygon fill="#63b8ff" stroke="#63b8ff" points="640.44,-207.42 629.85,-207.95 638.46,-214.13 640.44,-207.42"/>
</a>
</g>
</g>
<!-- Node10 -->
<g id="Node000010" class="node">
<title>Node10</title>
<g id="a_Node000010"><a xlink:title=" ">
<polygon fill="#e0e0e0" stroke="#999999" points="768.75,-207.5 673.25,-207.5 673.25,-188.25 768.75,-188.25 768.75,-207.5"/>
<text text-anchor="middle" x="721" y="-194" font-family="Times,serif" font-size="10.00">boost/asio/read.hpp</text>
</a>
</g>
</g>
<!-- Node2&#45;&gt;Node10 -->
<g id="edge9_Node000002_Node000010" class="edge">
<title>Node2&#45;&gt;Node10</title>
<g id="a_edge9_Node000002_Node000010"><a xlink:title=" ">
<path fill="none" stroke="#63b8ff" d="M769.16,-243.09C760.86,-235.47 748.77,-224.37 738.78,-215.2"/>
<polygon fill="#63b8ff" stroke="#63b8ff" points="741.43,-212.96 731.69,-208.77 736.69,-218.12 741.43,-212.96"/>
</a>
</g>
</g>
<!-- Node11 -->
<g id="Node000011" class="node">
<title>Node11</title>
<g id="a_Node000011"><a xlink:title=" ">
<polygon fill="#e0e0e0" stroke="#999999" points="889.5,-207.5 786.5,-207.5 786.5,-188.25 889.5,-188.25 889.5,-207.5"/>
<text text-anchor="middle" x="838" y="-194" font-family="Times,serif" font-size="10.00">boost/asio/spawn.hpp</text>
</a>
</g>
</g>
<!-- Node2&#45;&gt;Node11 -->
<g id="edge10_Node000002_Node000011" class="edge">
<title>Node2&#45;&gt;Node11</title>
<g id="a_edge10_Node000002_Node000011"><a xlink:title=" ">
<path fill="none" stroke="#63b8ff" d="M789.01,-243.09C797.54,-235.4 810,-224.15 820.22,-214.93"/>
<polygon fill="#63b8ff" stroke="#63b8ff" points="822.06,-218.07 827.14,-208.77 817.37,-212.88 822.06,-218.07"/>
</a>
</g>
</g>
<!-- Node12 -->
<g id="Node000012" class="node">
<title>Node12</title>
<g id="a_Node000012"><a xlink:title=" ">
<polygon fill="#e0e0e0" stroke="#999999" points="1038,-207.5 908,-207.5 908,-188.25 1038,-188.25 1038,-207.5"/>
<text text-anchor="middle" x="973" y="-194" font-family="Times,serif" font-size="10.00">boost/asio/steady_timer.hpp</text>
</a>
</g>
</g>
<!-- Node2&#45;&gt;Node12 -->
<g id="edge11_Node000002_Node000012" class="edge">
<title>Node2&#45;&gt;Node12</title>
<g id="a_edge11_Node000002_Node000012"><a xlink:title=" ">
<path fill="none" stroke="#63b8ff" d="M811.91,-243.09C844.24,-234.22 893.76,-220.62 929.36,-210.85"/>
<polygon fill="#63b8ff" stroke="#63b8ff" points="930.21,-213.97 938.93,-207.95 928.36,-207.22 930.21,-213.97"/>
</a>
</g>
</g>
<!-- Node13 -->
<g id="Node000013" class="node">
<title>Node13</title>
<g id="a_Node000013"><a xlink:title=" ">
<polygon fill="#e0e0e0" stroke="#999999" points="1174.38,-207.5 1055.62,-207.5 1055.62,-188.25 1174.38,-188.25 1174.38,-207.5"/>
<text text-anchor="middle" x="1115" y="-194" font-family="Times,serif" font-size="10.00">boost/asio/streambuf.hpp</text>
</a>
</g>
</g>
<!-- Node2&#45;&gt;Node13 -->
<g id="edge12_Node000002_Node000013" class="edge">
<title>Node2&#45;&gt;Node13</title>
<g id="a_edge12_Node000002_Node000013"><a xlink:title=" ">
<path fill="none" stroke="#63b8ff" d="M832.24,-243.69C890.32,-234.48 983.44,-219.73 1046.82,-209.68"/>
<polygon fill="#63b8ff" stroke="#63b8ff" points="1047.18,-213.01 1056.51,-207.99 1046.08,-206.09 1047.18,-213.01"/>
</a>
</g>
</g>
<!-- Node14 -->
<g id="Node000014" class="node">
<title>Node14</title>
<g id="a_Node000014"><a xlink:title=" ">
<polygon fill="#e0e0e0" stroke="#999999" points="1291.25,-207.5 1192.75,-207.5 1192.75,-188.25 1291.25,-188.25 1291.25,-207.5"/>
<text text-anchor="middle" x="1242" y="-194" font-family="Times,serif" font-size="10.00">boost/asio/write.hpp</text>
</a>
</g>
</g>
<!-- Node2&#45;&gt;Node14 -->
<g id="edge13_Node000002_Node000014" class="edge">
<title>Node2&#45;&gt;Node14</title>
<g id="a_edge13_Node000002_Node000014"><a xlink:title=" ">
<path fill="none" stroke="#63b8ff" d="M832.33,-246.84C907.66,-239.23 1049.79,-224.4 1181.75,-207.62"/>
<polygon fill="#63b8ff" stroke="#63b8ff" points="1181.97,-210.99 1191.44,-206.25 1181.08,-204.05 1181.97,-210.99"/>
</a>
</g>
</g>
<!-- Node15 -->
<g id="Node000015" class="node">
<title>Node15</title>
<g id="a_Node000015"><a xlink:title=" ">
<polygon fill="#e0e0e0" stroke="#999999" points="1408.25,-207.5 1309.75,-207.5 1309.75,-188.25 1408.25,-188.25 1408.25,-207.5"/>
<text text-anchor="middle" x="1359" y="-194" font-family="Times,serif" font-size="10.00">boost/bind/bind.hpp</text>
</a>
</g>
</g>
<!-- Node2&#45;&gt;Node15 -->
<g id="edge14_Node000002_Node000015" class="edge">
<title>Node2&#45;&gt;Node15</title>
<g id="a_edge14_Node000002_Node000015"><a xlink:title=" ">
<path fill="none" stroke="#63b8ff" d="M832.36,-248.61C924.92,-242.28 1121.49,-227.83 1298.62,-207.59"/>
<polygon fill="#63b8ff" stroke="#63b8ff" points="1298.92,-210.96 1308.45,-206.34 1298.12,-204.01 1298.92,-210.96"/>
</a>
</g>
</g>
<!-- Node16 -->
<g id="Node000016" class="node">
<title>Node16</title>
<g id="a_Node000016"><a xlink:href="../../dd/db5/spdlog_8hpp.html" target="_top" xlink:title="Provides integration with the SPDLOG library for efficient logging and debugging.">
<polygon fill="white" stroke="#666666" points="1517.88,-207.5 1426.12,-207.5 1426.12,-188.25 1517.88,-188.25 1517.88,-207.5"/>
<text text-anchor="middle" x="1472" y="-194" font-family="Times,serif" font-size="10.00">include/spdlog.hpp</text>
</a>
</g>
</g>
<!-- Node2&#45;&gt;Node16 -->
<g id="edge15_Node000002_Node000016" class="edge">
<title>Node2&#45;&gt;Node16</title>
<g id="a_edge15_Node000002_Node000016"><a xlink:title=" ">
<path fill="none" stroke="#63b8ff" d="M832.49,-249.93C940.54,-245.17 1192.73,-232.36 1414.93,-207.63"/>
<polygon fill="#63b8ff" stroke="#63b8ff" points="1415.28,-211.01 1424.83,-206.41 1414.5,-204.05 1415.28,-211.01"/>
</a>
</g>
</g>
<!-- Node23 -->
<g id="Node000023" class="node">
<title>Node23</title>
<g id="a_Node000023"><a xlink:href="../../dd/dc6/backoffs_8hpp.html" target="_top" xlink:title=" ">
<polygon fill="white" stroke="#666666" points="1766.5,-207.5 1699.5,-207.5 1699.5,-188.25 1766.5,-188.25 1766.5,-207.5"/>
<text text-anchor="middle" x="1733" y="-194" font-family="Times,serif" font-size="10.00">backoffs.hpp</text>
</a>
</g>
</g>
<!-- Node2&#45;&gt;Node23 -->
<g id="edge22_Node000002_Node000023" class="edge">
<title>Node2&#45;&gt;Node23</title>
<g id="a_edge22_Node000002_Node000023"><a xlink:title=" ">
<path fill="none" stroke="#63b8ff" d="M832.34,-249.15C1002.67,-239.64 1531.57,-210.12 1688.61,-201.35"/>
<polygon fill="#63b8ff" stroke="#63b8ff" points="1688.47,-204.81 1698.26,-200.76 1688.08,-197.82 1688.47,-204.81"/>
</a>
</g>
</g>
<!-- Node27 -->
<g id="Node000027" class="node">
<title>Node27</title>
<g id="a_Node000027"><a xlink:href="../../d2/d3f/packet_8hpp.html" target="_top" xlink:title=" ">
<polygon fill="white" stroke="#666666" points="1912.12,-207.5 1851.88,-207.5 1851.88,-188.25 1912.12,-188.25 1912.12,-207.5"/>
<text text-anchor="middle" x="1882" y="-194" font-family="Times,serif" font-size="10.00">packet.hpp</text>
</a>
</g>
</g>
<!-- Node2&#45;&gt;Node27 -->
<g id="edge26_Node000002_Node000027" class="edge">
<title>Node2&#45;&gt;Node27</title>
<g id="a_edge26_Node000002_Node000027"><a xlink:title=" ">
<path fill="none" stroke="#63b8ff" d="M832.27,-250.42C981.38,-245.52 1415.68,-230.22 1776,-207.5 1797.36,-206.15 1821.1,-204.26 1840.7,-202.59"/>
<polygon fill="#63b8ff" stroke="#63b8ff" points="1840.75,-206.01 1850.41,-201.66 1840.14,-199.04 1840.75,-206.01"/>
</a>
</g>
</g>
<!-- Node17 -->
<g id="Node000017" class="node">
<title>Node17</title>
<g id="a_Node000017"><a xlink:title=" ">
<polygon fill="#e0e0e0" stroke="#999999" points="1128.88,-146.62 1055.12,-146.62 1055.12,-127.38 1128.88,-127.38 1128.88,-146.62"/>
<text text-anchor="middle" x="1092" y="-133.12" font-family="Times,serif" font-size="10.00">spdlog/async.h</text>
</a>
</g>
</g>
<!-- Node16&#45;&gt;Node17 -->
<g id="edge16_Node000016_Node000017" class="edge">
<title>Node16&#45;&gt;Node17</title>
<g id="a_edge16_Node000016_Node000017"><a xlink:title=" ">
<path fill="none" stroke="#63b8ff" d="M1425.8,-189.54C1422.82,-189.09 1419.87,-188.66 1417,-188.25 1292.79,-170.53 1259.52,-179.3 1137,-152.25 1134.17,-151.63 1131.27,-150.9 1128.36,-150.12"/>
<polygon fill="#63b8ff" stroke="#63b8ff" points="1129.54,-146.53 1118.96,-147.09 1127.58,-153.25 1129.54,-146.53"/>
</a>
</g>
</g>
<!-- Node18 -->
<g id="Node000018" class="node">
<title>Node18</title>
<g id="a_Node000018"><a xlink:title=" ">
<polygon fill="#e0e0e0" stroke="#999999" points="1249.5,-152.25 1146.5,-152.25 1146.5,-121.75 1249.5,-121.75 1249.5,-152.25"/>
<text text-anchor="start" x="1154.5" y="-138.75" font-family="Times,serif" font-size="10.00">spdlog/sinks/ansicolor</text>
<text text-anchor="middle" x="1198" y="-127.5" font-family="Times,serif" font-size="10.00">_sink.h</text>
</a>
</g>
</g>
<!-- Node16&#45;&gt;Node18 -->
<g id="edge17_Node000016_Node000018" class="edge">
<title>Node16&#45;&gt;Node18</title>
<g id="a_edge17_Node000016_Node000018"><a xlink:title=" ">
<path fill="none" stroke="#63b8ff" d="M1427.06,-187.77C1386.18,-179.42 1323.91,-166.53 1260.49,-152.55"/>
<polygon fill="#63b8ff" stroke="#63b8ff" points="1261.42,-148.95 1250.9,-150.21 1259.9,-155.79 1261.42,-148.95"/>
</a>
</g>
</g>
<!-- Node19 -->
<g id="Node000019" class="node">
<title>Node19</title>
<g id="a_Node000019"><a xlink:title=" ">
<polygon fill="#e0e0e0" stroke="#999999" points="1356.38,-152.25 1267.62,-152.25 1267.62,-121.75 1356.38,-121.75 1356.38,-152.25"/>
<text text-anchor="start" x="1275.62" y="-138.75" font-family="Times,serif" font-size="10.00">spdlog/sinks/basic</text>
<text text-anchor="middle" x="1312" y="-127.5" font-family="Times,serif" font-size="10.00">_file_sink.h</text>
</a>
</g>
</g>
<!-- Node16&#45;&gt;Node19 -->
<g id="edge18_Node000016_Node000019" class="edge">
<title>Node16&#45;&gt;Node19</title>
<g id="a_edge18_Node000016_Node000019"><a xlink:title=" ">
<path fill="none" stroke="#63b8ff" d="M1447.35,-187.8C1424.71,-179.47 1390.47,-166.87 1362.09,-156.43"/>
<polygon fill="#63b8ff" stroke="#63b8ff" points="1363.53,-152.86 1352.93,-152.69 1361.11,-159.43 1363.53,-152.86"/>
</a>
</g>
</g>
<!-- Node20 -->
<g id="Node000020" class="node">
<title>Node20</title>
<g id="a_Node000020"><a xlink:title=" ">
<polygon fill="#e0e0e0" stroke="#999999" points="1467.62,-152.25 1374.38,-152.25 1374.38,-121.75 1467.62,-121.75 1467.62,-152.25"/>
<text text-anchor="start" x="1382.38" y="-138.75" font-family="Times,serif" font-size="10.00">spdlog/sinks/stdout</text>
<text text-anchor="middle" x="1421" y="-127.5" font-family="Times,serif" font-size="10.00">_color_sinks.h</text>
</a>
</g>
</g>
<!-- Node16&#45;&gt;Node20 -->
<g id="edge19_Node000016_Node000020" class="edge">
<title>Node16&#45;&gt;Node20</title>
<g id="a_edge19_Node000016_Node000020"><a xlink:title=" ">
<path fill="none" stroke="#63b8ff" d="M1464.25,-187.93C1458.02,-180.74 1448.99,-170.31 1440.78,-160.84"/>
<polygon fill="#63b8ff" stroke="#63b8ff" points="1442.78,-158.8 1433.59,-153.53 1437.49,-163.38 1442.78,-158.8"/>
</a>
</g>
</g>
<!-- Node21 -->
<g id="Node000021" class="node">
<title>Node21</title>
<g id="a_Node000021"><a xlink:title=" ">
<polygon fill="#e0e0e0" stroke="#999999" points="1562.75,-146.62 1485.25,-146.62 1485.25,-127.38 1562.75,-127.38 1562.75,-146.62"/>
<text text-anchor="middle" x="1524" y="-133.12" font-family="Times,serif" font-size="10.00">spdlog/spdlog.h</text>
</a>
</g>
</g>
<!-- Node16&#45;&gt;Node21 -->
<g id="edge20_Node000016_Node000021" class="edge">
<title>Node16&#45;&gt;Node21</title>
<g id="a_edge20_Node000016_Node000021"><a xlink:title=" ">
<path fill="none" stroke="#63b8ff" d="M1479.9,-187.93C1487.53,-179.29 1499.3,-165.96 1508.77,-155.25"/>
<polygon fill="#63b8ff" stroke="#63b8ff" points="1511.03,-157.84 1515.03,-148.03 1505.78,-153.2 1511.03,-157.84"/>
</a>
</g>
</g>
<!-- Node22 -->
<g id="Node000022" class="node">
<title>Node22</title>
<g id="a_Node000022"><a xlink:href="../../d4/dfc/win-undef_8hpp.html" target="_top" xlink:title=" ">
<polygon fill="white" stroke="#666666" points="1655.62,-146.62 1580.38,-146.62 1580.38,-127.38 1655.62,-127.38 1655.62,-146.62"/>
<text text-anchor="middle" x="1618" y="-133.12" font-family="Times,serif" font-size="10.00">win&#45;undef.hpp</text>
</a>
</g>
</g>
<!-- Node16&#45;&gt;Node22 -->
<g id="edge21_Node000016_Node000022" class="edge">
<title>Node16&#45;&gt;Node22</title>
<g id="a_edge21_Node000016_Node000022"><a xlink:title=" ">
<path fill="none" stroke="#63b8ff" d="M1494.49,-187.8C1518.89,-177.97 1558.06,-162.17 1585.73,-151.01"/>
<polygon fill="#63b8ff" stroke="#63b8ff" points="1586.76,-153.97 1594.72,-146.98 1584.14,-147.48 1586.76,-153.97"/>
</a>
</g>
</g>
<!-- Node24 -->
<g id="Node000024" class="node">
<title>Node24</title>
<g id="a_Node000024"><a xlink:title=" ">
<polygon fill="#e0e0e0" stroke="#999999" points="1726.75,-146.62 1673.25,-146.62 1673.25,-127.38 1726.75,-127.38 1726.75,-146.62"/>
<text text-anchor="middle" x="1700" y="-133.12" font-family="Times,serif" font-size="10.00">algorithm</text>
</a>
</g>
</g>
<!-- Node23&#45;&gt;Node24 -->
<g id="edge23_Node000023_Node000024" class="edge">
<title>Node23&#45;&gt;Node24</title>
<g id="a_edge23_Node000023_Node000024"><a xlink:title=" ">
<path fill="none" stroke="#63b8ff" d="M1727.99,-187.93C1723.34,-179.63 1716.27,-167.02 1710.4,-156.55"/>
<polygon fill="#63b8ff" stroke="#63b8ff" points="1713,-155.04 1705.06,-148.03 1706.9,-158.46 1713,-155.04"/>
</a>
</g>
</g>
<!-- Node25 -->
<g id="Node000025" class="node">
<title>Node25</title>
<g id="a_Node000025"><a xlink:title=" ">
<polygon fill="#e0e0e0" stroke="#999999" points="1787.5,-146.62 1744.5,-146.62 1744.5,-127.38 1787.5,-127.38 1787.5,-146.62"/>
<text text-anchor="middle" x="1766" y="-133.12" font-family="Times,serif" font-size="10.00">chrono</text>
</a>
</g>
</g>
<!-- Node23&#45;&gt;Node25 -->
<g id="edge24_Node000023_Node000025" class="edge">
<title>Node23&#45;&gt;Node25</title>
<g id="a_edge24_Node000023_Node000025"><a xlink:title=" ">
<path fill="none" stroke="#63b8ff" d="M1738.01,-187.93C1742.66,-179.63 1749.73,-167.02 1755.6,-156.55"/>
<polygon fill="#63b8ff" stroke="#63b8ff" points="1759.1,-158.46 1760.94,-148.03 1753,-155.04 1759.1,-158.46"/>
</a>
</g>
</g>
<!-- Node26 -->
<g id="Node000026" class="node">
<title>Node26</title>
<g id="a_Node000026"><a xlink:title=" ">
<polygon fill="#e0e0e0" stroke="#999999" points="1852,-146.62 1806,-146.62 1806,-127.38 1852,-127.38 1852,-146.62"/>
<text text-anchor="middle" x="1829" y="-133.12" font-family="Times,serif" font-size="10.00">random</text>
</a>
</g>
</g>
<!-- Node23&#45;&gt;Node26 -->
<g id="edge25_Node000023_Node000026" class="edge">
<title>Node23&#45;&gt;Node26</title>
<g id="a_edge25_Node000023_Node000026"><a xlink:title=" ">
<path fill="none" stroke="#63b8ff" d="M1747.58,-187.93C1762.8,-178.6 1786.93,-163.8 1804.98,-152.73"/>
<polygon fill="#63b8ff" stroke="#63b8ff" points="1806.59,-155.24 1813.28,-147.03 1802.93,-149.27 1806.59,-155.24"/>
</a>
</g>
</g>
<!-- Node28 -->
<g id="Node000028" class="node">
<title>Node28</title>
<g id="a_Node000028"><a xlink:href="../../d3/d53/packet-factory_8hpp.html" target="_top" xlink:title=" ">
<polygon fill="white" stroke="#666666" points="1964.38,-152.25 1869.62,-152.25 1869.62,-121.75 1964.38,-121.75 1964.38,-152.25"/>
<text text-anchor="start" x="1877.62" y="-138.75" font-family="Times,serif" font-size="10.00">packet_impl/packet</text>
<text text-anchor="middle" x="1917" y="-127.5" font-family="Times,serif" font-size="10.00">&#45;factory.hpp</text>
</a>
</g>
</g>
<!-- Node27&#45;&gt;Node28 -->
<g id="edge27_Node000027_Node000028" class="edge">
<title>Node27&#45;&gt;Node28</title>
<g id="a_edge27_Node000027_Node000028"><a xlink:title=" ">
<path fill="none" stroke="#63b8ff" d="M1887.32,-187.93C1891.46,-180.96 1897.41,-170.95 1902.9,-161.71"/>
<polygon fill="#63b8ff" stroke="#63b8ff" points="1906.26,-163.92 1908.36,-153.53 1900.24,-160.34 1906.26,-163.92"/>
</a>
</g>
</g>
<!-- Node29 -->
<g id="Node000029" class="node">
<title>Node29</title>
<g id="a_Node000029"><a xlink:href="../../d9/d85/packet__impl_2packet_8hpp.html" target="_top" xlink:title=" ">
<polygon fill="white" stroke="#666666" points="1947.12,-85.75 1886.88,-85.75 1886.88,-66.5 1947.12,-66.5 1947.12,-85.75"/>
<text text-anchor="middle" x="1917" y="-72.25" font-family="Times,serif" font-size="10.00">packet.hpp</text>
</a>
</g>
</g>
<!-- Node28&#45;&gt;Node29 -->
<g id="edge28_Node000028_Node000029" class="edge">
<title>Node28&#45;&gt;Node29</title>
<g id="a_edge28_Node000028_Node000029"><a xlink:title=" ">
<path fill="none" stroke="#63b8ff" d="M1917,-121.45C1917,-114.12 1917,-105.12 1917,-97.16"/>
<polygon fill="#63b8ff" stroke="#63b8ff" points="1920.5,-97.2 1917,-87.2 1913.5,-97.2 1920.5,-97.2"/>
</a>
</g>
</g>
<!-- Node30 -->
<g id="Node000030" class="node">
<title>Node30</title>
<g id="a_Node000030"><a xlink:title=" ">
<polygon fill="#e0e0e0" stroke="#999999" points="1732.25,-24.88 1645.75,-24.88 1645.75,-5.63 1732.25,-5.63 1732.25,-24.88"/>
<text text-anchor="middle" x="1689" y="-11.38" font-family="Times,serif" font-size="10.00">../../utils/utils.hpp</text>
</a>
</g>
</g>
<!-- Node29&#45;&gt;Node30 -->
<g id="edge29_Node000029_Node000030" class="edge">
<title>Node29&#45;&gt;Node30</title>
<g id="a_edge29_Node000029_Node000030"><a xlink:title=" ">
<path fill="none" stroke="#63b8ff" d="M1886.62,-67.51C1851.69,-58.72 1792.65,-43.77 1742,-30.5 1739.06,-29.73 1736.03,-28.93 1732.98,-28.12"/>
<polygon fill="#63b8ff" stroke="#63b8ff" points="1734.19,-24.56 1723.63,-25.36 1732.39,-31.32 1734.19,-24.56"/>
</a>
</g>
</g>
<!-- Node31 -->
<g id="Node000031" class="node">
<title>Node31</title>
<g id="a_Node000031"><a xlink:title=" ">
<polygon fill="#e0e0e0" stroke="#999999" points="1849.25,-30.5 1750.75,-30.5 1750.75,0 1849.25,0 1849.25,-30.5"/>
<text text-anchor="start" x="1758.75" y="-17" font-family="Times,serif" font-size="10.00">boost/archive/binary</text>
<text text-anchor="middle" x="1800" y="-5.75" font-family="Times,serif" font-size="10.00">_iarchive.hpp</text>
</a>
</g>
</g>
<!-- Node29&#45;&gt;Node31 -->
<g id="edge30_Node000029_Node000031" class="edge">
<title>Node29&#45;&gt;Node31</title>
<g id="a_edge30_Node000029_Node000031"><a xlink:title=" ">
<path fill="none" stroke="#63b8ff" d="M1898.98,-66.05C1883,-58.02 1859.13,-46 1838.83,-35.79"/>
<polygon fill="#63b8ff" stroke="#63b8ff" points="1840.71,-32.31 1830.2,-30.94 1837.56,-38.57 1840.71,-32.31"/>
</a>
</g>
</g>
<!-- Node32 -->
<g id="Node000032" class="node">
<title>Node32</title>
<g id="a_Node000032"><a xlink:title=" ">
<polygon fill="#e0e0e0" stroke="#999999" points="1966.25,-30.5 1867.75,-30.5 1867.75,0 1966.25,0 1966.25,-30.5"/>
<text text-anchor="start" x="1875.75" y="-17" font-family="Times,serif" font-size="10.00">boost/archive/binary</text>
<text text-anchor="middle" x="1917" y="-5.75" font-family="Times,serif" font-size="10.00">_oarchive.hpp</text>
</a>
</g>
</g>
<!-- Node29&#45;&gt;Node32 -->
<g id="edge31_Node000029_Node000032" class="edge">
<title>Node29&#45;&gt;Node32</title>
<g id="a_edge31_Node000029_Node000032"><a xlink:title=" ">
<path fill="none" stroke="#63b8ff" d="M1917,-66.18C1917,-59.65 1917,-50.45 1917,-41.72"/>
<polygon fill="#63b8ff" stroke="#63b8ff" points="1920.5,-41.78 1917,-31.78 1913.5,-41.78 1920.5,-41.78"/>
</a>
</g>
</g>
<!-- Node33 -->
<g id="Node000033" class="node">
<title>Node33</title>
<g id="a_Node000033"><a xlink:title=" ">
<polygon fill="#e0e0e0" stroke="#999999" points="2073.75,-30.5 1984.25,-30.5 1984.25,0 2073.75,0 2073.75,-30.5"/>
<text text-anchor="start" x="1992.25" y="-17" font-family="Times,serif" font-size="10.00">boost/serialization</text>
<text text-anchor="middle" x="2029" y="-5.75" font-family="Times,serif" font-size="10.00">/base_object.hpp</text>
</a>
</g>
</g>
<!-- Node29&#45;&gt;Node33 -->
<g id="edge32_Node000029_Node000033" class="edge">
<title>Node29&#45;&gt;Node33</title>
<g id="a_edge32_Node000029_Node000033"><a xlink:title=" ">
<path fill="none" stroke="#63b8ff" d="M1934.01,-66.18C1949.3,-58.15 1972.28,-46.07 1991.81,-35.8"/>
<polygon fill="#63b8ff" stroke="#63b8ff" points="1993.13,-38.53 2000.36,-30.78 1989.87,-32.34 1993.13,-38.53"/>
</a>
</g>
</g>
<!-- Node34 -->
<g id="Node000034" class="node">
<title>Node34</title>
<g id="a_Node000034"><a xlink:title=" ">
<polygon fill="#e0e0e0" stroke="#999999" points="2181.75,-30.5 2092.25,-30.5 2092.25,0 2181.75,0 2181.75,-30.5"/>
<text text-anchor="start" x="2100.25" y="-17" font-family="Times,serif" font-size="10.00">boost/serialization</text>
<text text-anchor="middle" x="2137" y="-5.75" font-family="Times,serif" font-size="10.00">/serialization.hpp</text>
</a>
</g>
</g>
<!-- Node29&#45;&gt;Node34 -->
<g id="edge33_Node000029_Node000034" class="edge">
<title>Node29&#45;&gt;Node34</title>
<g id="a_edge33_Node000029_Node000034"><a xlink:title=" ">
<path fill="none" stroke="#63b8ff" d="M1947.59,-66.94C1982.09,-57.71 2038.92,-42.5 2081.34,-31.15"/>
<polygon fill="#63b8ff" stroke="#63b8ff" points="2082.04,-34.31 2090.79,-28.35 2080.23,-27.55 2082.04,-34.31"/>
</a>
</g>
</g>
</g>
</svg>
