<?xml version="1.0" encoding="UTF-8" standalone="no"?>
<!DOCTYPE svg PUBLIC "-//W3C//DTD SVG 1.1//EN"
 "http://www.w3.org/Graphics/SVG/1.1/DTD/svg11.dtd">
<!-- Generated by graphviz version 7.0.5 (20221223.1930)
 -->
<!-- Title: mal&#45;packet&#45;weaver/mal&#45;packet&#45;weaver/packet&#45;dispatcher.inl Pages: 1 -->
<svg width="2304pt" height="346pt"
 viewBox="0.00 0.00 2304.00 346.00" xmlns="http://www.w3.org/2000/svg" xmlns:xlink="http://www.w3.org/1999/xlink">
<g id="graph0" class="graph" transform="scale(1 1) rotate(0) translate(4 342)">
<title>mal&#45;packet&#45;weaver/mal&#45;packet&#45;weaver/packet&#45;dispatcher.inl</title>
<!-- Node1 -->
<g id="node1" class="node">
<title>Node1</title>
<g id="a_node1"><a xlink:title=" ">
<polygon fill="#999999" stroke="#666666" points="882.5,-338 764.5,-338 764.5,-297 882.5,-297 882.5,-338"/>
<text text-anchor="start" x="772.5" y="-326" font-family="Helvetica,sans-Serif" font-size="10.00">mal&#45;packet&#45;weaver/mal</text>
<text text-anchor="start" x="772.5" y="-315" font-family="Helvetica,sans-Serif" font-size="10.00">&#45;packet&#45;weaver/packet</text>
<text text-anchor="middle" x="823.5" y="-304" font-family="Helvetica,sans-Serif" font-size="10.00">&#45;dispatcher.inl</text>
</a>
</g>
</g>
<!-- Node2 -->
<g id="node2" class="node">
<title>Node2</title>
<g id="a_node2"><a xlink:href="../../df/d1d/packet-dispatcher_8hpp.html" target="_top" xlink:title=" ">
<polygon fill="white" stroke="#666666" points="879.5,-261 767.5,-261 767.5,-242 879.5,-242 879.5,-261"/>
<text text-anchor="middle" x="823.5" y="-249" font-family="Helvetica,sans-Serif" font-size="10.00">packet&#45;dispatcher.hpp</text>
</a>
</g>
</g>
<!-- Node1&#45;&gt;Node2 -->
<g id="edge1" class="edge">
<title>Node1&#45;&gt;Node2</title>
<path fill="none" stroke="#63b8ff" d="M817.2,-296.6C816.6,-288.89 816.6,-280.08 817.2,-272.38"/>
<polygon fill="#63b8ff" stroke="#63b8ff" points="820.64,-273.04 818.5,-262.66 813.7,-272.11 820.64,-273.04"/>
</g>
<!-- Node2&#45;&gt;Node1 -->
<g id="edge34" class="edge">
<title>Node2&#45;&gt;Node1</title>
<path fill="none" stroke="#63b8ff" d="M828.3,-261.16C829.64,-267.45 830.29,-276.38 830.25,-285.23"/>
<polygon fill="#63b8ff" stroke="#63b8ff" points="826.76,-284.96 829.86,-295.09 833.75,-285.23 826.76,-284.96"/>
</g>
<!-- Node3 -->
<g id="node3" class="node">
<title>Node3</title>
<g id="a_node3"><a xlink:title=" ">
<polygon fill="#e0e0e0" stroke="#999999" points="43,-206 0,-206 0,-187 43,-187 43,-206"/>
<text text-anchor="middle" x="21.5" y="-194" font-family="Helvetica,sans-Serif" font-size="10.00">queue</text>
</a>
</g>
</g>
<!-- Node2&#45;&gt;Node3 -->
<g id="edge2" class="edge">
<title>Node2&#45;&gt;Node3</title>
<path fill="none" stroke="#63b8ff" d="M767.05,-248.85C617.03,-244.21 209.81,-229.92 54.51,-206.09"/>
<polygon fill="#63b8ff" stroke="#63b8ff" points="55.25,-202.66 44.82,-204.52 54.14,-209.57 55.25,-202.66"/>
</g>
<!-- Node4 -->
<g id="node4" class="node">
<title>Node4</title>
<g id="a_node4"><a xlink:title=" ">
<polygon fill="#e0e0e0" stroke="#999999" points="104,-206 61,-206 61,-187 104,-187 104,-206"/>
<text text-anchor="middle" x="82.5" y="-194" font-family="Helvetica,sans-Serif" font-size="10.00">deque</text>
</a>
</g>
</g>
<!-- Node2&#45;&gt;Node4 -->
<g id="edge3" class="edge">
<title>Node2&#45;&gt;Node4</title>
<path fill="none" stroke="#63b8ff" d="M767.26,-251.04C648.29,-251.3 362.41,-247.33 115.68,-206.19"/>
<polygon fill="#63b8ff" stroke="#63b8ff" points="116.27,-202.74 105.82,-204.52 115.1,-209.64 116.27,-202.74"/>
</g>
<!-- Node5 -->
<g id="node5" class="node">
<title>Node5</title>
<g id="a_node5"><a xlink:title=" ">
<polygon fill="#e0e0e0" stroke="#999999" points="205,-206 122,-206 122,-187 205,-187 205,-206"/>
<text text-anchor="middle" x="163.5" y="-194" font-family="Helvetica,sans-Serif" font-size="10.00">unordered_map</text>
</a>
</g>
</g>
<!-- Node2&#45;&gt;Node5 -->
<g id="edge4" class="edge">
<title>Node2&#45;&gt;Node5</title>
<path fill="none" stroke="#63b8ff" d="M767.4,-248.2C661.6,-243.48 425.19,-231.07 216.64,-206.28"/>
<polygon fill="#63b8ff" stroke="#63b8ff" points="217.32,-202.83 206.97,-205.11 216.48,-209.78 217.32,-202.83"/>
</g>
<!-- Node6 -->
<g id="node6" class="node">
<title>Node6</title>
<g id="a_node6"><a xlink:title=" ">
<polygon fill="#e0e0e0" stroke="#999999" points="264,-206 223,-206 223,-187 264,-187 264,-206"/>
<text text-anchor="middle" x="243.5" y="-194" font-family="Helvetica,sans-Serif" font-size="10.00">future</text>
</a>
</g>
</g>
<!-- Node2&#45;&gt;Node6 -->
<g id="edge5" class="edge">
<title>Node2&#45;&gt;Node6</title>
<path fill="none" stroke="#63b8ff" d="M767.21,-249.56C669.12,-247.15 460.49,-238.53 275.66,-206"/>
<polygon fill="#63b8ff" stroke="#63b8ff" points="276.31,-202.56 265.85,-204.24 275.07,-209.45 276.31,-202.56"/>
</g>
<!-- Node7 -->
<g id="node7" class="node">
<title>Node7</title>
<g id="a_node7"><a xlink:title=" ">
<polygon fill="#e0e0e0" stroke="#999999" points="406.5,-206 282.5,-206 282.5,-187 406.5,-187 406.5,-206"/>
<text text-anchor="middle" x="344.5" y="-194" font-family="Helvetica,sans-Serif" font-size="10.00">boost/asio/awaitable.hpp</text>
</a>
</g>
</g>
<!-- Node2&#45;&gt;Node7 -->
<g id="edge6" class="edge">
<title>Node2&#45;&gt;Node7</title>
<path fill="none" stroke="#63b8ff" d="M767.05,-244.53C690.52,-236.4 549.27,-221.24 418.26,-206.31"/>
<polygon fill="#63b8ff" stroke="#63b8ff" points="418.67,-202.83 408.34,-205.17 417.88,-209.78 418.67,-202.83"/>
</g>
<!-- Node8 -->
<g id="node8" class="node">
<title>Node8</title>
<g id="a_node8"><a xlink:title=" ">
<polygon fill="#e0e0e0" stroke="#999999" points="552,-206 425,-206 425,-187 552,-187 552,-206"/>
<text text-anchor="middle" x="488.5" y="-194" font-family="Helvetica,sans-Serif" font-size="10.00">boost/asio/co_spawn.hpp</text>
</a>
</g>
</g>
<!-- Node2&#45;&gt;Node8 -->
<g id="edge7" class="edge">
<title>Node2&#45;&gt;Node8</title>
<path fill="none" stroke="#63b8ff" d="M767.05,-241.57C708.95,-232.38 618.39,-218.05 556.41,-208.24"/>
<polygon fill="#63b8ff" stroke="#63b8ff" points="557.1,-204.81 546.68,-206.7 556.01,-211.72 557.1,-204.81"/>
</g>
<!-- Node9 -->
<g id="node9" class="node">
<title>Node9</title>
<g id="a_node9"><a xlink:title=" ">
<polygon fill="#e0e0e0" stroke="#999999" points="692.5,-206 570.5,-206 570.5,-187 692.5,-187 692.5,-206"/>
<text text-anchor="middle" x="631.5" y="-194" font-family="Helvetica,sans-Serif" font-size="10.00">boost/asio/detached.hpp</text>
</a>
</g>
</g>
<!-- Node2&#45;&gt;Node9 -->
<g id="edge8" class="edge">
<title>Node2&#45;&gt;Node9</title>
<path fill="none" stroke="#63b8ff" d="M790.93,-241.51C758.97,-232.69 710.05,-219.18 674.82,-209.46"/>
<polygon fill="#63b8ff" stroke="#63b8ff" points="675.94,-206.14 665.37,-206.85 674.08,-212.88 675.94,-206.14"/>
</g>
<!-- Node10 -->
<g id="node10" class="node">
<title>Node10</title>
<g id="a_node10"><a xlink:title=" ">
<polygon fill="#e0e0e0" stroke="#999999" points="812,-206 711,-206 711,-187 812,-187 812,-206"/>
<text text-anchor="middle" x="761.5" y="-194" font-family="Helvetica,sans-Serif" font-size="10.00">boost/asio/read.hpp</text>
</a>
</g>
</g>
<!-- Node2&#45;&gt;Node10 -->
<g id="edge9" class="edge">
<title>Node2&#45;&gt;Node10</title>
<path fill="none" stroke="#63b8ff" d="M812.98,-241.51C804.11,-233.93 791.19,-222.88 780.51,-213.75"/>
<polygon fill="#63b8ff" stroke="#63b8ff" points="782.89,-211.18 773.01,-207.34 778.34,-216.5 782.89,-211.18"/>
</g>
<!-- Node11 -->
<g id="node11" class="node">
<title>Node11</title>
<g id="a_node11"><a xlink:title=" ">
<polygon fill="#e0e0e0" stroke="#999999" points="941,-206 830,-206 830,-187 941,-187 941,-206"/>
<text text-anchor="middle" x="885.5" y="-194" font-family="Helvetica,sans-Serif" font-size="10.00">boost/asio/spawn.hpp</text>
</a>
</g>
</g>
<!-- Node2&#45;&gt;Node11 -->
<g id="edge10" class="edge">
<title>Node2&#45;&gt;Node11</title>
<path fill="none" stroke="#63b8ff" d="M834.02,-241.51C842.89,-233.93 855.81,-222.88 866.49,-213.75"/>
<polygon fill="#63b8ff" stroke="#63b8ff" points="868.66,-216.5 873.99,-207.34 864.11,-211.18 868.66,-216.5"/>
</g>
<!-- Node12 -->
<g id="node12" class="node">
<title>Node12</title>
<g id="a_node12"><a xlink:title=" ">
<polygon fill="#e0e0e0" stroke="#999999" points="1097.5,-206 959.5,-206 959.5,-187 1097.5,-187 1097.5,-206"/>
<text text-anchor="middle" x="1028.5" y="-194" font-family="Helvetica,sans-Serif" font-size="10.00">boost/asio/steady_timer.hpp</text>
</a>
</g>
</g>
<!-- Node2&#45;&gt;Node12 -->
<g id="edge11" class="edge">
<title>Node2&#45;&gt;Node12</title>
<path fill="none" stroke="#63b8ff" d="M858.28,-241.51C892.69,-232.61 945.54,-218.95 983.22,-209.21"/>
<polygon fill="#63b8ff" stroke="#63b8ff" points="983.63,-212.72 992.43,-206.83 981.87,-205.94 983.63,-212.72"/>
</g>
<!-- Node13 -->
<g id="node13" class="node">
<title>Node13</title>
<g id="a_node13"><a xlink:title=" ">
<polygon fill="#e0e0e0" stroke="#999999" points="1241.5,-206 1115.5,-206 1115.5,-187 1241.5,-187 1241.5,-206"/>
<text text-anchor="middle" x="1178.5" y="-194" font-family="Helvetica,sans-Serif" font-size="10.00">boost/asio/streambuf.hpp</text>
</a>
</g>
</g>
<!-- Node2&#45;&gt;Node13 -->
<g id="edge12" class="edge">
<title>Node2&#45;&gt;Node13</title>
<path fill="none" stroke="#63b8ff" d="M879.75,-242.1C941.29,-232.91 1040.09,-218.16 1107.07,-208.16"/>
<polygon fill="#63b8ff" stroke="#63b8ff" points="1107.49,-211.64 1116.86,-206.7 1106.45,-204.72 1107.49,-211.64"/>
</g>
<!-- Node14 -->
<g id="node14" class="node">
<title>Node14</title>
<g id="a_node14"><a xlink:title=" ">
<polygon fill="#e0e0e0" stroke="#999999" points="1363.5,-206 1259.5,-206 1259.5,-187 1363.5,-187 1363.5,-206"/>
<text text-anchor="middle" x="1311.5" y="-194" font-family="Helvetica,sans-Serif" font-size="10.00">boost/asio/write.hpp</text>
</a>
</g>
</g>
<!-- Node2&#45;&gt;Node14 -->
<g id="edge13" class="edge">
<title>Node2&#45;&gt;Node14</title>
<path fill="none" stroke="#63b8ff" d="M879.87,-245.25C959.48,-237.7 1109.69,-222.95 1248.06,-206.26"/>
<polygon fill="#63b8ff" stroke="#63b8ff" points="1248.26,-209.76 1257.77,-205.08 1247.42,-202.81 1248.26,-209.76"/>
</g>
<!-- Node15 -->
<g id="node15" class="node">
<title>Node15</title>
<g id="a_node15"><a xlink:title=" ">
<polygon fill="#e0e0e0" stroke="#999999" points="1483,-206 1382,-206 1382,-187 1483,-187 1483,-206"/>
<text text-anchor="middle" x="1432.5" y="-194" font-family="Helvetica,sans-Serif" font-size="10.00">boost/bind/bind.hpp</text>
</a>
</g>
</g>
<!-- Node2&#45;&gt;Node15 -->
<g id="edge14" class="edge">
<title>Node2&#45;&gt;Node15</title>
<path fill="none" stroke="#63b8ff" d="M879.72,-247.06C977.25,-240.84 1184.37,-226.57 1370.41,-206.16"/>
<polygon fill="#63b8ff" stroke="#63b8ff" points="1370.73,-209.65 1380.28,-205.07 1369.96,-202.69 1370.73,-209.65"/>
</g>
<!-- Node16 -->
<g id="node16" class="node">
<title>Node16</title>
<g id="a_node16"><a xlink:href="../../dd/db5/spdlog_8hpp.html" target="_top" xlink:title="Provides integration with the SPDLOG library for efficient logging and debugging.">
<polygon fill="white" stroke="#666666" points="1598,-206 1501,-206 1501,-187 1598,-187 1598,-206"/>
<text text-anchor="middle" x="1549.5" y="-194" font-family="Helvetica,sans-Serif" font-size="10.00">include/spdlog.hpp</text>
</a>
</g>
</g>
<!-- Node2&#45;&gt;Node16 -->
<g id="edge15" class="edge">
<title>Node2&#45;&gt;Node16</title>
<path fill="none" stroke="#63b8ff" d="M879.58,-248.32C992.85,-243.57 1257.25,-230.81 1489.34,-206.26"/>
<polygon fill="#63b8ff" stroke="#63b8ff" points="1489.64,-209.75 1499.21,-205.2 1488.9,-202.79 1489.64,-209.75"/>
</g>
<!-- Node23 -->
<g id="node23" class="node">
<title>Node23</title>
<g id="a_node23"><a xlink:href="../../dd/dc6/backoffs_8hpp.html" target="_top" xlink:title=" ">
<polygon fill="white" stroke="#666666" points="1859,-206 1788,-206 1788,-187 1859,-187 1859,-206"/>
<text text-anchor="middle" x="1823.5" y="-194" font-family="Helvetica,sans-Serif" font-size="10.00">backoffs.hpp</text>
</a>
</g>
</g>
<!-- Node2&#45;&gt;Node23 -->
<g id="edge22" class="edge">
<title>Node2&#45;&gt;Node23</title>
<path fill="none" stroke="#63b8ff" d="M879.77,-247.52C1058.51,-238.04 1611.34,-208.74 1776.46,-199.99"/>
<polygon fill="#63b8ff" stroke="#63b8ff" points="1776.36,-203.5 1786.16,-199.48 1775.99,-196.51 1776.36,-203.5"/>
</g>
<!-- Node27 -->
<g id="node27" class="node">
<title>Node27</title>
<g id="a_node27"><a xlink:href="../../d2/d3f/packet_8hpp.html" target="_top" xlink:title=" ">
<polygon fill="white" stroke="#666666" points="2012.5,-206 1948.5,-206 1948.5,-187 2012.5,-187 2012.5,-206"/>
<text text-anchor="middle" x="1980.5" y="-194" font-family="Helvetica,sans-Serif" font-size="10.00">packet.hpp</text>
</a>
</g>
</g>
<!-- Node2&#45;&gt;Node27 -->
<g id="edge26" class="edge">
<title>Node2&#45;&gt;Node27</title>
<path fill="none" stroke="#63b8ff" d="M879.89,-248.76C1036.7,-243.77 1491.23,-228.34 1868.5,-206 1891.06,-204.66 1916.15,-202.8 1936.85,-201.15"/>
<polygon fill="#63b8ff" stroke="#63b8ff" points="1936.98,-204.65 1946.66,-200.36 1936.41,-197.67 1936.98,-204.65"/>
</g>
<!-- Node17 -->
<g id="node17" class="node">
<title>Node17</title>
<g id="a_node17"><a xlink:title=" ">
<polygon fill="#e0e0e0" stroke="#999999" points="1178,-145.5 1097,-145.5 1097,-126.5 1178,-126.5 1178,-145.5"/>
<text text-anchor="middle" x="1137.5" y="-133.5" font-family="Helvetica,sans-Serif" font-size="10.00">spdlog/async.h</text>
</a>
</g>
</g>
<!-- Node16&#45;&gt;Node17 -->
<g id="edge16" class="edge">
<title>Node16&#45;&gt;Node17</title>
<path fill="none" stroke="#63b8ff" d="M1500.7,-188.12C1497.92,-187.73 1495.18,-187.36 1492.5,-187 1356.76,-168.9 1320.77,-177.9 1186.5,-151 1183.37,-150.37 1180.15,-149.64 1176.92,-148.86"/>
<polygon fill="#63b8ff" stroke="#63b8ff" points="1178.1,-145.55 1167.53,-146.38 1176.31,-152.31 1178.1,-145.55"/>
</g>
<!-- Node18 -->
<g id="node18" class="node">
<title>Node18</title>
<g id="a_node18"><a xlink:title=" ">
<polygon fill="#e0e0e0" stroke="#999999" points="1309,-151 1196,-151 1196,-121 1309,-121 1309,-151"/>
<text text-anchor="start" x="1204" y="-139" font-family="Helvetica,sans-Serif" font-size="10.00">spdlog/sinks/ansicolor</text>
<text text-anchor="middle" x="1252.5" y="-128" font-family="Helvetica,sans-Serif" font-size="10.00">_sink.h</text>
</a>
</g>
</g>
<!-- Node16&#45;&gt;Node18 -->
<g id="edge17" class="edge">
<title>Node16&#45;&gt;Node18</title>
<path fill="none" stroke="#63b8ff" d="M1501.67,-186.56C1457.29,-178.2 1389.11,-165.2 1320.4,-151.36"/>
<polygon fill="#63b8ff" stroke="#63b8ff" points="1321.35,-147.98 1310.85,-149.43 1319.96,-154.84 1321.35,-147.98"/>
</g>
<!-- Node19 -->
<g id="node19" class="node">
<title>Node19</title>
<g id="a_node19"><a xlink:title=" ">
<polygon fill="#e0e0e0" stroke="#999999" points="1425.5,-151 1327.5,-151 1327.5,-121 1425.5,-121 1425.5,-151"/>
<text text-anchor="start" x="1335.5" y="-139" font-family="Helvetica,sans-Serif" font-size="10.00">spdlog/sinks/basic</text>
<text text-anchor="middle" x="1376.5" y="-128" font-family="Helvetica,sans-Serif" font-size="10.00">_file_sink.h</text>
</a>
</g>
</g>
<!-- Node16&#45;&gt;Node19 -->
<g id="edge18" class="edge">
<title>Node16&#45;&gt;Node19</title>
<path fill="none" stroke="#63b8ff" d="M1523.23,-186.62C1498.54,-178.27 1460.85,-165.52 1429.85,-155.04"/>
<polygon fill="#63b8ff" stroke="#63b8ff" points="1431.23,-151.81 1420.64,-151.92 1428.99,-158.44 1431.23,-151.81"/>
</g>
<!-- Node20 -->
<g id="node20" class="node">
<title>Node20</title>
<g id="a_node20"><a xlink:title=" ">
<polygon fill="#e0e0e0" stroke="#999999" points="1545,-151 1444,-151 1444,-121 1545,-121 1545,-151"/>
<text text-anchor="start" x="1452" y="-139" font-family="Helvetica,sans-Serif" font-size="10.00">spdlog/sinks/stdout</text>
<text text-anchor="middle" x="1494.5" y="-128" font-family="Helvetica,sans-Serif" font-size="10.00">_color_sinks.h</text>
</a>
</g>
</g>
<!-- Node16&#45;&gt;Node20 -->
<g id="edge19" class="edge">
<title>Node16&#45;&gt;Node20</title>
<path fill="none" stroke="#63b8ff" d="M1541.38,-186.87C1534.61,-179.67 1524.65,-169.07 1515.65,-159.49"/>
<polygon fill="#63b8ff" stroke="#63b8ff" points="1518.21,-157.11 1508.81,-152.22 1513.11,-161.9 1518.21,-157.11"/>
</g>
<!-- Node21 -->
<g id="node21" class="node">
<title>Node21</title>
<g id="a_node21"><a xlink:title=" ">
<polygon fill="#e0e0e0" stroke="#999999" points="1647.5,-145.5 1563.5,-145.5 1563.5,-126.5 1647.5,-126.5 1647.5,-145.5"/>
<text text-anchor="middle" x="1605.5" y="-133.5" font-family="Helvetica,sans-Serif" font-size="10.00">spdlog/spdlog.h</text>
</a>
</g>
</g>
<!-- Node16&#45;&gt;Node21 -->
<g id="edge20" class="edge">
<title>Node16&#45;&gt;Node21</title>
<path fill="none" stroke="#63b8ff" d="M1557.76,-186.87C1566.03,-178.23 1578.98,-164.7 1589.31,-153.92"/>
<polygon fill="#63b8ff" stroke="#63b8ff" points="1591.77,-156.4 1596.16,-146.76 1586.71,-151.56 1591.77,-156.4"/>
</g>
<!-- Node22 -->
<g id="node22" class="node">
<title>Node22</title>
<g id="a_node22"><a xlink:href="../../d4/dfc/win-undef_8hpp.html" target="_top" xlink:title=" ">
<polygon fill="white" stroke="#666666" points="1743,-145.5 1666,-145.5 1666,-126.5 1743,-126.5 1743,-145.5"/>
<text text-anchor="middle" x="1704.5" y="-133.5" font-family="Helvetica,sans-Serif" font-size="10.00">win&#45;undef.hpp</text>
</a>
</g>
</g>
<!-- Node16&#45;&gt;Node22 -->
<g id="edge21" class="edge">
<title>Node16&#45;&gt;Node22</title>
<path fill="none" stroke="#63b8ff" d="M1573.04,-186.62C1598.87,-176.87 1640.59,-161.12 1670.09,-149.99"/>
<polygon fill="#63b8ff" stroke="#63b8ff" points="1671.2,-153.31 1679.32,-146.5 1668.73,-146.76 1671.2,-153.31"/>
</g>
<!-- Node24 -->
<g id="node24" class="node">
<title>Node24</title>
<g id="a_node24"><a xlink:title=" ">
<polygon fill="#e0e0e0" stroke="#999999" points="1817.5,-145.5 1761.5,-145.5 1761.5,-126.5 1817.5,-126.5 1817.5,-145.5"/>
<text text-anchor="middle" x="1789.5" y="-133.5" font-family="Helvetica,sans-Serif" font-size="10.00">algorithm</text>
</a>
</g>
</g>
<!-- Node23&#45;&gt;Node24 -->
<g id="edge23" class="edge">
<title>Node23&#45;&gt;Node24</title>
<path fill="none" stroke="#63b8ff" d="M1818.48,-186.87C1813.71,-178.66 1806.38,-166.04 1800.28,-155.55"/>
<polygon fill="#63b8ff" stroke="#63b8ff" points="1803.35,-153.86 1795.3,-146.98 1797.3,-157.38 1803.35,-153.86"/>
</g>
<!-- Node25 -->
<g id="node25" class="node">
<title>Node25</title>
<g id="a_node25"><a xlink:title=" ">
<polygon fill="#e0e0e0" stroke="#999999" points="1881.5,-145.5 1835.5,-145.5 1835.5,-126.5 1881.5,-126.5 1881.5,-145.5"/>
<text text-anchor="middle" x="1858.5" y="-133.5" font-family="Helvetica,sans-Serif" font-size="10.00">chrono</text>
</a>
</g>
</g>
<!-- Node23&#45;&gt;Node25 -->
<g id="edge24" class="edge">
<title>Node23&#45;&gt;Node25</title>
<path fill="none" stroke="#63b8ff" d="M1828.66,-186.87C1833.63,-178.57 1841.28,-165.78 1847.6,-155.22"/>
<polygon fill="#63b8ff" stroke="#63b8ff" points="1850.41,-157.34 1852.54,-146.97 1844.4,-153.75 1850.41,-157.34"/>
</g>
<!-- Node26 -->
<g id="node26" class="node">
<title>Node26</title>
<g id="a_node26"><a xlink:title=" ">
<polygon fill="#e0e0e0" stroke="#999999" points="1949,-145.5 1900,-145.5 1900,-126.5 1949,-126.5 1949,-145.5"/>
<text text-anchor="middle" x="1924.5" y="-133.5" font-family="Helvetica,sans-Serif" font-size="10.00">random</text>
</a>
</g>
</g>
<!-- Node23&#45;&gt;Node26 -->
<g id="edge25" class="edge">
<title>Node23&#45;&gt;Node26</title>
<path fill="none" stroke="#63b8ff" d="M1838.84,-186.62C1854.86,-177.34 1880.24,-162.63 1899.23,-151.64"/>
<polygon fill="#63b8ff" stroke="#63b8ff" points="1900.81,-154.77 1907.71,-146.73 1897.3,-148.71 1900.81,-154.77"/>
</g>
<!-- Node28 -->
<g id="node28" class="node">
<title>Node28</title>
<g id="a_node28"><a xlink:href="../../d3/d53/packet-factory_8hpp.html" target="_top" xlink:title=" ">
<polygon fill="white" stroke="#666666" points="2068,-151 1967,-151 1967,-121 2068,-121 2068,-151"/>
<text text-anchor="start" x="1975" y="-139" font-family="Helvetica,sans-Serif" font-size="10.00">packet_impl/packet</text>
<text text-anchor="middle" x="2017.5" y="-128" font-family="Helvetica,sans-Serif" font-size="10.00">&#45;factory.hpp</text>
</a>
</g>
</g>
<!-- Node27&#45;&gt;Node28 -->
<g id="edge27" class="edge">
<title>Node27&#45;&gt;Node28</title>
<path fill="none" stroke="#63b8ff" d="M1985.96,-186.87C1990.33,-179.96 1996.67,-169.93 2002.53,-160.67"/>
<polygon fill="#63b8ff" stroke="#63b8ff" points="2005.38,-162.72 2007.76,-152.39 1999.46,-158.97 2005.38,-162.72"/>
</g>
<!-- Node29 -->
<g id="node29" class="node">
<title>Node29</title>
<g id="a_node29"><a xlink:href="../../d9/d85/packet__impl_2packet_8hpp.html" target="_top" xlink:title=" ">
<polygon fill="white" stroke="#666666" points="2049.5,-85 1985.5,-85 1985.5,-66 2049.5,-66 2049.5,-85"/>
<text text-anchor="middle" x="2017.5" y="-73" font-family="Helvetica,sans-Serif" font-size="10.00">packet.hpp</text>
</a>
</g>
</g>
<!-- Node28&#45;&gt;Node29 -->
<g id="edge28" class="edge">
<title>Node28&#45;&gt;Node29</title>
<path fill="none" stroke="#63b8ff" d="M2017.5,-120.54C2017.5,-113.34 2017.5,-104.53 2017.5,-96.68"/>
<polygon fill="#63b8ff" stroke="#63b8ff" points="2021,-96.69 2017.5,-86.69 2014,-96.69 2021,-96.69"/>
</g>
<!-- Node30 -->
<g id="node30" class="node">
<title>Node30</title>
<g id="a_node30"><a xlink:title=" ">
<polygon fill="#e0e0e0" stroke="#999999" points="1825,-24.5 1736,-24.5 1736,-5.5 1825,-5.5 1825,-24.5"/>
<text text-anchor="middle" x="1780.5" y="-12.5" font-family="Helvetica,sans-Serif" font-size="10.00">../../utils/utils.hpp</text>
</a>
</g>
</g>
<!-- Node29&#45;&gt;Node30 -->
<g id="edge29" class="edge">
<title>Node29&#45;&gt;Node30</title>
<path fill="none" stroke="#63b8ff" d="M1985.07,-66.77C1948.46,-58.01 1887.14,-43.22 1834.5,-30 1831.61,-29.27 1828.63,-28.52 1825.62,-27.75"/>
<polygon fill="#63b8ff" stroke="#63b8ff" points="1826.78,-24.44 1816.23,-25.34 1825.04,-31.22 1826.78,-24.44"/>
</g>
<!-- Node31 -->
<g id="node31" class="node">
<title>Node31</title>
<g id="a_node31"><a xlink:title=" ">
<polygon fill="#e0e0e0" stroke="#999999" points="1947.5,-30 1843.5,-30 1843.5,0 1947.5,0 1947.5,-30"/>
<text text-anchor="start" x="1851.5" y="-18" font-family="Helvetica,sans-Serif" font-size="10.00">boost/archive/binary</text>
<text text-anchor="middle" x="1895.5" y="-7" font-family="Helvetica,sans-Serif" font-size="10.00">_iarchive.hpp</text>
</a>
</g>
</g>
<!-- Node29&#45;&gt;Node31 -->
<g id="edge30" class="edge">
<title>Node29&#45;&gt;Node31</title>
<path fill="none" stroke="#63b8ff" d="M1998.97,-65.62C1982.24,-57.59 1957.06,-45.52 1935.72,-35.29"/>
<polygon fill="#63b8ff" stroke="#63b8ff" points="1937.51,-32.26 1926.98,-31.09 1934.48,-38.57 1937.51,-32.26"/>
</g>
<!-- Node32 -->
<g id="node32" class="node">
<title>Node32</title>
<g id="a_node32"><a xlink:title=" ">
<polygon fill="#e0e0e0" stroke="#999999" points="2069.5,-30 1965.5,-30 1965.5,0 2069.5,0 2069.5,-30"/>
<text text-anchor="start" x="1973.5" y="-18" font-family="Helvetica,sans-Serif" font-size="10.00">boost/archive/binary</text>
<text text-anchor="middle" x="2017.5" y="-7" font-family="Helvetica,sans-Serif" font-size="10.00">_oarchive.hpp</text>
</a>
</g>
</g>
<!-- Node29&#45;&gt;Node32 -->
<g id="edge31" class="edge">
<title>Node29&#45;&gt;Node32</title>
<path fill="none" stroke="#63b8ff" d="M2017.5,-65.87C2017.5,-59.4 2017.5,-50.2 2017.5,-41.45"/>
<polygon fill="#63b8ff" stroke="#63b8ff" points="2021,-41.63 2017.5,-31.63 2014,-41.63 2021,-41.63"/>
</g>
<!-- Node33 -->
<g id="node33" class="node">
<title>Node33</title>
<g id="a_node33"><a xlink:title=" ">
<polygon fill="#e0e0e0" stroke="#999999" points="2183,-30 2088,-30 2088,0 2183,0 2183,-30"/>
<text text-anchor="start" x="2096" y="-18" font-family="Helvetica,sans-Serif" font-size="10.00">boost/serialization</text>
<text text-anchor="middle" x="2135.5" y="-7" font-family="Helvetica,sans-Serif" font-size="10.00">/base_object.hpp</text>
</a>
</g>
</g>
<!-- Node29&#45;&gt;Node33 -->
<g id="edge32" class="edge">
<title>Node29&#45;&gt;Node33</title>
<path fill="none" stroke="#63b8ff" d="M2035.42,-65.62C2051.53,-57.63 2075.74,-45.63 2096.31,-35.43"/>
<polygon fill="#63b8ff" stroke="#63b8ff" points="2097.61,-38.69 2105.02,-31.11 2094.5,-32.42 2097.61,-38.69"/>
</g>
<!-- Node34 -->
<g id="node34" class="node">
<title>Node34</title>
<g id="a_node34"><a xlink:title=" ">
<polygon fill="#e0e0e0" stroke="#999999" points="2296,-30 2201,-30 2201,0 2296,0 2296,-30"/>
<text text-anchor="start" x="2209" y="-18" font-family="Helvetica,sans-Serif" font-size="10.00">boost/serialization</text>
<text text-anchor="middle" x="2248.5" y="-7" font-family="Helvetica,sans-Serif" font-size="10.00">/serialization.hpp</text>
</a>
</g>
</g>
<!-- Node29&#45;&gt;Node34 -->
<g id="edge33" class="edge">
<title>Node29&#45;&gt;Node34</title>
<path fill="none" stroke="#63b8ff" d="M2049.62,-66.37C2085.73,-57.22 2145.13,-42.18 2189.63,-30.91"/>
<polygon fill="#63b8ff" stroke="#63b8ff" points="2190.3,-34.35 2199.13,-28.5 2188.58,-27.56 2190.3,-34.35"/>
</g>
</g>
</svg>
