<?xml version="1.0" encoding="UTF-8" standalone="no"?>
<!DOCTYPE svg PUBLIC "-//W3C//DTD SVG 1.1//EN"
 "http://www.w3.org/Graphics/SVG/1.1/DTD/svg11.dtd">
<!-- Generated by graphviz version 8.1.0 (20230707.0739)
 -->
<!-- Title: third_party/mal&#45;toolkit/mal&#45;toolkit/mal&#45;toolkit/measurer.hpp Pages: 1 -->
<svg width="2866pt" height="238pt"
 viewBox="0.00 0.00 2866.25 238.00" xmlns="http://www.w3.org/2000/svg" xmlns:xlink="http://www.w3.org/1999/xlink">
<g id="graph0" class="graph" transform="scale(1 1) rotate(0) translate(4 234)">
<title>third_party/mal&#45;toolkit/mal&#45;toolkit/mal&#45;toolkit/measurer.hpp</title>
<!-- Node1 -->
<g id="Node000001" class="node">
<title>Node1</title>
<g id="a_Node000001"><a xlink:title="Implements performance measurement and profiling utilities.">
<polygon fill="#999999" stroke="#666666" points="1851.62,-230 1744.12,-230 1744.12,-188.25 1851.62,-188.25 1851.62,-230"/>
<text text-anchor="start" x="1752.12" y="-216.5" font-family="Times,serif" font-size="10.00">third_party/mal&#45;toolkit</text>
<text text-anchor="start" x="1752.12" y="-205.25" font-family="Times,serif" font-size="10.00">/mal&#45;toolkit/mal&#45;toolkit</text>
<text text-anchor="middle" x="1797.88" y="-194" font-family="Times,serif" font-size="10.00">/measurer.hpp</text>
</a>
</g>
</g>
<!-- Node2 -->
<g id="Node000002" class="node">
<title>Node2</title>
<g id="a_Node000002"><a xlink:href="../../da/d7b/debug_8hpp.html" target="_top" xlink:title="Contains debugging&#45;related macros and utilities for assisting with debugging tasks.">
<polygon fill="white" stroke="#666666" points="1789.88,-152.25 1731.88,-152.25 1731.88,-133 1789.88,-133 1789.88,-152.25"/>
<text text-anchor="middle" x="1760.88" y="-138.75" font-family="Times,serif" font-size="10.00">debug.hpp</text>
</a>
</g>
</g>
<!-- Node1&#45;&gt;Node2 -->
<g id="edge1_Node000001_Node000002" class="edge">
<title>Node1&#45;&gt;Node2</title>
<g id="a_edge1_Node000001_Node000002"><a xlink:title=" ">
<path fill="none" stroke="#63b8ff" d="M1786.37,-188.07C1781.6,-179.75 1776.1,-170.16 1771.43,-162.02"/>
<polygon fill="#63b8ff" stroke="#63b8ff" points="1774.09,-160.63 1766.08,-153.7 1768.02,-164.11 1774.09,-160.63"/>
</a>
</g>
</g>
<!-- Node46 -->
<g id="Node000046" class="node">
<title>Node46</title>
<g id="a_Node000046"><a xlink:href="../../df/d05/timer_8hpp.html" target="_top" xlink:title="Implements timer utilities for measuring elapsed time and intervals.">
<polygon fill="white" stroke="#666666" points="1863.75,-152.25 1808,-152.25 1808,-133 1863.75,-133 1863.75,-152.25"/>
<text text-anchor="middle" x="1835.88" y="-138.75" font-family="Times,serif" font-size="10.00">timer.hpp</text>
</a>
</g>
</g>
<!-- Node1&#45;&gt;Node46 -->
<g id="edge46_Node000001_Node000046" class="edge">
<title>Node1&#45;&gt;Node46</title>
<g id="a_edge46_Node000001_Node000046"><a xlink:title=" ">
<path fill="none" stroke="#63b8ff" d="M1809.69,-188.07C1814.59,-179.75 1820.24,-170.16 1825.04,-162.02"/>
<polygon fill="#63b8ff" stroke="#63b8ff" points="1828.47,-164.09 1830.53,-153.7 1822.44,-160.53 1828.47,-164.09"/>
</a>
</g>
</g>
<!-- Node3 -->
<g id="Node000003" class="node">
<title>Node3</title>
<g id="a_Node000003"><a xlink:href="../../dd/db5/spdlog_8hpp.html" target="_top" xlink:title="Provides integration with the SPDLOG library for efficient logging and debugging.">
<polygon fill="white" stroke="#666666" points="411.75,-91.38 320,-91.38 320,-72.12 411.75,-72.12 411.75,-91.38"/>
<text text-anchor="middle" x="365.88" y="-77.88" font-family="Times,serif" font-size="10.00">include/spdlog.hpp</text>
</a>
</g>
</g>
<!-- Node2&#45;&gt;Node3 -->
<g id="edge2_Node000002_Node000003" class="edge">
<title>Node2&#45;&gt;Node3</title>
<g id="a_edge2_Node000002_Node000003"><a xlink:title=" ">
<path fill="none" stroke="#63b8ff" d="M1731.42,-140.38C1557.01,-133.02 659.34,-95.14 422.97,-85.16"/>
<polygon fill="#63b8ff" stroke="#63b8ff" points="423.36,-81.63 413.22,-84.71 423.06,-88.62 423.36,-81.63"/>
</a>
</g>
</g>
<!-- Node10 -->
<g id="Node000010" class="node">
<title>Node10</title>
<g id="a_Node000010"><a xlink:href="../../db/d6e/library-pch_8hpp.html" target="_top" xlink:title="Precompiled header (PCH) file for common headers used across the library.">
<polygon fill="white" stroke="#666666" points="1742.38,-91.38 1663.38,-91.38 1663.38,-72.12 1742.38,-72.12 1742.38,-91.38"/>
<text text-anchor="middle" x="1702.88" y="-77.88" font-family="Times,serif" font-size="10.00">library&#45;pch.hpp</text>
</a>
</g>
</g>
<!-- Node2&#45;&gt;Node10 -->
<g id="edge9_Node000002_Node000010" class="edge">
<title>Node2&#45;&gt;Node10</title>
<g id="a_edge9_Node000002_Node000010"><a xlink:title=" ">
<path fill="none" stroke="#63b8ff" d="M1752.07,-132.68C1743.38,-123.87 1729.89,-110.18 1719.24,-99.36"/>
<polygon fill="#63b8ff" stroke="#63b8ff" points="1722.28,-97.44 1712.77,-92.78 1717.29,-102.36 1722.28,-97.44"/>
</a>
</g>
</g>
<!-- Node45 -->
<g id="Node000045" class="node">
<title>Node45</title>
<g id="a_Node000045"><a xlink:href="../../da/d43/debug__with__source__location_8hpp.html" target="_top" xlink:title="This file provides utility functions for debugging and assertion handling.">
<polygon fill="white" stroke="#666666" points="1879.25,-97 1760.5,-97 1760.5,-66.5 1879.25,-66.5 1879.25,-97"/>
<text text-anchor="start" x="1768.5" y="-83.5" font-family="Times,serif" font-size="10.00">detail/debug_with_source</text>
<text text-anchor="middle" x="1819.88" y="-72.25" font-family="Times,serif" font-size="10.00">_location.hpp</text>
</a>
</g>
</g>
<!-- Node2&#45;&gt;Node45 -->
<g id="edge44_Node000002_Node000045" class="edge">
<title>Node2&#45;&gt;Node45</title>
<g id="a_edge44_Node000002_Node000045"><a xlink:title=" ">
<path fill="none" stroke="#63b8ff" d="M1764.83,-132.68C1770.7,-125.27 1781.06,-114.42 1791.3,-104.72"/>
<polygon fill="#63b8ff" stroke="#63b8ff" points="1793.4,-107.63 1798.4,-98.28 1788.67,-102.47 1793.4,-107.63"/>
</a>
</g>
</g>
<!-- Node4 -->
<g id="Node000004" class="node">
<title>Node4</title>
<g id="a_Node000004"><a xlink:title=" ">
<polygon fill="#e0e0e0" stroke="#999999" points="73.75,-24.88 0,-24.88 0,-5.63 73.75,-5.63 73.75,-24.88"/>
<text text-anchor="middle" x="36.88" y="-11.38" font-family="Times,serif" font-size="10.00">spdlog/async.h</text>
</a>
</g>
</g>
<!-- Node3&#45;&gt;Node4 -->
<g id="edge3_Node000003_Node000004" class="edge">
<title>Node3&#45;&gt;Node4</title>
<g id="a_edge3_Node000003_Node000004"><a xlink:title=" ">
<path fill="none" stroke="#63b8ff" d="M319.74,-74.49C263.23,-66.39 164.78,-50.87 81.88,-30.5 79.23,-29.85 76.51,-29.13 73.78,-28.36"/>
<polygon fill="#63b8ff" stroke="#63b8ff" points="74.94,-24.76 64.36,-25.27 72.95,-31.47 74.94,-24.76"/>
</a>
</g>
</g>
<!-- Node5 -->
<g id="Node000005" class="node">
<title>Node5</title>
<g id="a_Node000005"><a xlink:title=" ">
<polygon fill="#e0e0e0" stroke="#999999" points="194.38,-30.5 91.38,-30.5 91.38,0 194.38,0 194.38,-30.5"/>
<text text-anchor="start" x="99.38" y="-17" font-family="Times,serif" font-size="10.00">spdlog/sinks/ansicolor</text>
<text text-anchor="middle" x="142.88" y="-5.75" font-family="Times,serif" font-size="10.00">_sink.h</text>
</a>
</g>
</g>
<!-- Node3&#45;&gt;Node5 -->
<g id="edge4_Node000003_Node000005" class="edge">
<title>Node3&#45;&gt;Node5</title>
<g id="a_edge4_Node000003_Node000005"><a xlink:title=" ">
<path fill="none" stroke="#63b8ff" d="M334.4,-71.65C300.64,-61.88 246.2,-46.14 203.97,-33.92"/>
<polygon fill="#63b8ff" stroke="#63b8ff" points="205.1,-30.32 194.52,-30.9 203.16,-37.04 205.1,-30.32"/>
</a>
</g>
</g>
<!-- Node6 -->
<g id="Node000006" class="node">
<title>Node6</title>
<g id="a_Node000006"><a xlink:title=" ">
<polygon fill="#e0e0e0" stroke="#999999" points="301.25,-30.5 212.5,-30.5 212.5,0 301.25,0 301.25,-30.5"/>
<text text-anchor="start" x="220.5" y="-17" font-family="Times,serif" font-size="10.00">spdlog/sinks/basic</text>
<text text-anchor="middle" x="256.88" y="-5.75" font-family="Times,serif" font-size="10.00">_file_sink.h</text>
</a>
</g>
</g>
<!-- Node3&#45;&gt;Node6 -->
<g id="edge5_Node000003_Node000006" class="edge">
<title>Node3&#45;&gt;Node6</title>
<g id="a_edge5_Node000003_Node000006"><a xlink:title=" ">
<path fill="none" stroke="#63b8ff" d="M350.72,-71.78C335.34,-62.68 311,-48.28 290.96,-36.42"/>
<polygon fill="#63b8ff" stroke="#63b8ff" points="292.92,-32.92 282.53,-30.84 289.36,-38.95 292.92,-32.92"/>
</a>
</g>
</g>
<!-- Node7 -->
<g id="Node000007" class="node">
<title>Node7</title>
<g id="a_Node000007"><a xlink:title=" ">
<polygon fill="#e0e0e0" stroke="#999999" points="412.5,-30.5 319.25,-30.5 319.25,0 412.5,0 412.5,-30.5"/>
<text text-anchor="start" x="327.25" y="-17" font-family="Times,serif" font-size="10.00">spdlog/sinks/stdout</text>
<text text-anchor="middle" x="365.88" y="-5.75" font-family="Times,serif" font-size="10.00">_color_sinks.h</text>
</a>
</g>
</g>
<!-- Node3&#45;&gt;Node7 -->
<g id="edge6_Node000003_Node000007" class="edge">
<title>Node3&#45;&gt;Node7</title>
<g id="a_edge6_Node000003_Node000007"><a xlink:title=" ">
<path fill="none" stroke="#63b8ff" d="M365.88,-71.78C365.88,-63.95 365.88,-52.2 365.88,-41.52"/>
<polygon fill="#63b8ff" stroke="#63b8ff" points="369.38,-41.59 365.88,-31.59 362.38,-41.59 369.38,-41.59"/>
</a>
</g>
</g>
<!-- Node8 -->
<g id="Node000008" class="node">
<title>Node8</title>
<g id="a_Node000008"><a xlink:title=" ">
<polygon fill="#e0e0e0" stroke="#999999" points="507.62,-24.88 430.12,-24.88 430.12,-5.63 507.62,-5.63 507.62,-24.88"/>
<text text-anchor="middle" x="468.88" y="-11.38" font-family="Times,serif" font-size="10.00">spdlog/spdlog.h</text>
</a>
</g>
</g>
<!-- Node3&#45;&gt;Node8 -->
<g id="edge7_Node000003_Node000008" class="edge">
<title>Node3&#45;&gt;Node8</title>
<g id="a_edge7_Node000003_Node000008"><a xlink:title=" ">
<path fill="none" stroke="#63b8ff" d="M380.2,-71.78C397.01,-61.25 425.15,-43.63 445.22,-31.06"/>
<polygon fill="#63b8ff" stroke="#63b8ff" points="446.73,-33.62 453.34,-25.35 443.01,-27.69 446.73,-33.62"/>
</a>
</g>
</g>
<!-- Node9 -->
<g id="Node000009" class="node">
<title>Node9</title>
<g id="a_Node000009"><a xlink:href="../../d4/dfc/win-undef_8hpp.html" target="_top" xlink:title=" ">
<polygon fill="white" stroke="#666666" points="600.5,-24.88 525.25,-24.88 525.25,-5.63 600.5,-5.63 600.5,-24.88"/>
<text text-anchor="middle" x="562.88" y="-11.38" font-family="Times,serif" font-size="10.00">win&#45;undef.hpp</text>
</a>
</g>
</g>
<!-- Node3&#45;&gt;Node9 -->
<g id="edge8_Node000003_Node000009" class="edge">
<title>Node3&#45;&gt;Node9</title>
<g id="a_edge8_Node000003_Node000009"><a xlink:title=" ">
<path fill="none" stroke="#63b8ff" d="M393.68,-71.65C428,-60.41 486.52,-41.25 524.94,-28.67"/>
<polygon fill="#63b8ff" stroke="#63b8ff" points="525.79,-31.75 534.21,-25.31 523.62,-25.09 525.79,-31.75"/>
</a>
</g>
</g>
<!-- Node11 -->
<g id="Node000011" class="node">
<title>Node11</title>
<g id="a_Node000011"><a xlink:title=" ">
<polygon fill="#e0e0e0" stroke="#999999" points="665.25,-24.88 618.5,-24.88 618.5,-5.63 665.25,-5.63 665.25,-24.88"/>
<text text-anchor="middle" x="641.88" y="-11.38" font-family="Times,serif" font-size="10.00">assert.h</text>
</a>
</g>
</g>
<!-- Node10&#45;&gt;Node11 -->
<g id="edge10_Node000010_Node000011" class="edge">
<title>Node10&#45;&gt;Node11</title>
<g id="a_edge10_Node000010_Node000011"><a xlink:title=" ">
<path fill="none" stroke="#63b8ff" d="M1662.91,-80.76C1497.57,-80.5 866.79,-76.46 673.88,-30.5 672.32,-30.13 670.75,-29.69 669.18,-29.19"/>
<polygon fill="#63b8ff" stroke="#63b8ff" points="670.66,-25.62 660.07,-25.3 668.15,-32.16 670.66,-25.62"/>
</a>
</g>
</g>
<!-- Node12 -->
<g id="Node000012" class="node">
<title>Node12</title>
<g id="a_Node000012"><a xlink:title=" ">
<polygon fill="#e0e0e0" stroke="#999999" points="728.88,-24.88 682.88,-24.88 682.88,-5.63 728.88,-5.63 728.88,-24.88"/>
<text text-anchor="middle" x="705.88" y="-11.38" font-family="Times,serif" font-size="10.00">stdint.h</text>
</a>
</g>
</g>
<!-- Node10&#45;&gt;Node12 -->
<g id="edge11_Node000010_Node000012" class="edge">
<title>Node10&#45;&gt;Node12</title>
<g id="a_edge11_Node000010_Node000012"><a xlink:title=" ">
<path fill="none" stroke="#63b8ff" d="M1663,-80.61C1504.34,-79.76 917.83,-73.68 737.88,-30.5 736.32,-30.13 734.75,-29.68 733.18,-29.18"/>
<polygon fill="#63b8ff" stroke="#63b8ff" points="734.66,-25.62 724.07,-25.29 732.15,-32.15 734.66,-25.62"/>
</a>
</g>
</g>
<!-- Node13 -->
<g id="Node000013" class="node">
<title>Node13</title>
<g id="a_Node000013"><a xlink:title=" ">
<polygon fill="#e0e0e0" stroke="#999999" points="800.62,-24.88 747.12,-24.88 747.12,-5.63 800.62,-5.63 800.62,-24.88"/>
<text text-anchor="middle" x="773.88" y="-11.38" font-family="Times,serif" font-size="10.00">algorithm</text>
</a>
</g>
</g>
<!-- Node10&#45;&gt;Node13 -->
<g id="edge12_Node000010_Node000013" class="edge">
<title>Node10&#45;&gt;Node13</title>
<g id="a_edge12_Node000010_Node000013"><a xlink:title=" ">
<path fill="none" stroke="#63b8ff" d="M1662.97,-80.2C1512.01,-77.85 976.03,-67.06 809.88,-30.5 807.81,-30.05 805.7,-29.49 803.6,-28.86"/>
<polygon fill="#63b8ff" stroke="#63b8ff" points="804.92,-25.26 794.32,-25.26 802.61,-31.87 804.92,-25.26"/>
</a>
</g>
</g>
<!-- Node14 -->
<g id="Node000014" class="node">
<title>Node14</title>
<g id="a_Node000014"><a xlink:title=" ">
<polygon fill="#e0e0e0" stroke="#999999" points="855,-24.88 818.75,-24.88 818.75,-5.63 855,-5.63 855,-24.88"/>
<text text-anchor="middle" x="836.88" y="-11.38" font-family="Times,serif" font-size="10.00">array</text>
</a>
</g>
</g>
<!-- Node10&#45;&gt;Node14 -->
<g id="edge13_Node000010_Node000014" class="edge">
<title>Node10&#45;&gt;Node14</title>
<g id="a_edge13_Node000010_Node000014"><a xlink:title=" ">
<path fill="none" stroke="#63b8ff" d="M1663.03,-80.59C1517.76,-79.66 1017.05,-73.34 863.88,-30.5 862.94,-30.24 861.99,-29.94 861.05,-29.61"/>
<polygon fill="#63b8ff" stroke="#63b8ff" points="862.82,-26.12 852.26,-25.28 859.99,-32.52 862.82,-26.12"/>
</a>
</g>
</g>
<!-- Node15 -->
<g id="Node000015" class="node">
<title>Node15</title>
<g id="a_Node000015"><a xlink:title=" ">
<polygon fill="#e0e0e0" stroke="#999999" points="916.38,-24.88 873.38,-24.88 873.38,-5.63 916.38,-5.63 916.38,-24.88"/>
<text text-anchor="middle" x="894.88" y="-11.38" font-family="Times,serif" font-size="10.00">chrono</text>
</a>
</g>
</g>
<!-- Node10&#45;&gt;Node15 -->
<g id="edge14_Node000010_Node000015" class="edge">
<title>Node10&#45;&gt;Node15</title>
<g id="a_edge14_Node000010_Node000015"><a xlink:title=" ">
<path fill="none" stroke="#63b8ff" d="M1663.22,-80.09C1525.37,-77.51 1067.74,-66.38 925.88,-30.5 924.37,-30.12 922.84,-29.67 921.32,-29.16"/>
<polygon fill="#63b8ff" stroke="#63b8ff" points="923.11,-25.7 912.52,-25.25 920.51,-32.21 923.11,-25.7"/>
</a>
</g>
</g>
<!-- Node16 -->
<g id="Node000016" class="node">
<title>Node16</title>
<g id="a_Node000016"><a xlink:title=" ">
<polygon fill="#e0e0e0" stroke="#999999" points="975.25,-24.88 934.5,-24.88 934.5,-5.63 975.25,-5.63 975.25,-24.88"/>
<text text-anchor="middle" x="954.88" y="-11.38" font-family="Times,serif" font-size="10.00">cmath</text>
</a>
</g>
</g>
<!-- Node10&#45;&gt;Node16 -->
<g id="edge15_Node000010_Node000016" class="edge">
<title>Node10&#45;&gt;Node16</title>
<g id="a_edge15_Node000010_Node000016"><a xlink:title=" ">
<path fill="none" stroke="#63b8ff" d="M1663.07,-79.91C1531.95,-76.84 1114.65,-64.56 984.88,-30.5 983.56,-30.15 982.23,-29.75 980.9,-29.3"/>
<polygon fill="#63b8ff" stroke="#63b8ff" points="982.54,-25.78 971.96,-25.24 979.89,-32.26 982.54,-25.78"/>
</a>
</g>
</g>
<!-- Node17 -->
<g id="Node000017" class="node">
<title>Node17</title>
<g id="a_Node000017"><a xlink:title=" ">
<polygon fill="#e0e0e0" stroke="#999999" points="1044.12,-24.88 993.62,-24.88 993.62,-5.63 1044.12,-5.63 1044.12,-24.88"/>
<text text-anchor="middle" x="1018.88" y="-11.38" font-family="Times,serif" font-size="10.00">concepts</text>
</a>
</g>
</g>
<!-- Node10&#45;&gt;Node17 -->
<g id="edge16_Node000010_Node000017" class="edge">
<title>Node10&#45;&gt;Node17</title>
<g id="a_edge16_Node000010_Node000017"><a xlink:title=" ">
<path fill="none" stroke="#63b8ff" d="M1663.15,-79.28C1540.77,-74.5 1170.73,-58.1 1053.88,-30.5 1052.08,-30.07 1050.25,-29.57 1048.42,-29.01"/>
<polygon fill="#63b8ff" stroke="#63b8ff" points="1049.74,-25.41 1039.15,-25.34 1047.38,-32 1049.74,-25.41"/>
</a>
</g>
</g>
<!-- Node18 -->
<g id="Node000018" class="node">
<title>Node18</title>
<g id="a_Node000018"><a xlink:title=" ">
<polygon fill="#e0e0e0" stroke="#999999" points="1151.25,-24.88 1062.5,-24.88 1062.5,-5.63 1151.25,-5.63 1151.25,-24.88"/>
<text text-anchor="middle" x="1106.88" y="-11.38" font-family="Times,serif" font-size="10.00">condition_variable</text>
</a>
</g>
</g>
<!-- Node10&#45;&gt;Node18 -->
<g id="edge17_Node000010_Node000018" class="edge">
<title>Node10&#45;&gt;Node18</title>
<g id="a_edge17_Node000010_Node000018"><a xlink:title=" ">
<path fill="none" stroke="#63b8ff" d="M1663.05,-79.39C1572.83,-75.79 1346.25,-63.93 1159.88,-30.5 1155.94,-29.79 1151.87,-28.94 1147.81,-28"/>
<polygon fill="#63b8ff" stroke="#63b8ff" points="1148.77,-24.38 1138.22,-25.36 1147.08,-31.17 1148.77,-24.38"/>
</a>
</g>
</g>
<!-- Node19 -->
<g id="Node000019" class="node">
<title>Node19</title>
<g id="a_Node000019"><a xlink:title=" ">
<polygon fill="#e0e0e0" stroke="#999999" points="1212.38,-24.88 1169.38,-24.88 1169.38,-5.63 1212.38,-5.63 1212.38,-24.88"/>
<text text-anchor="middle" x="1190.88" y="-11.38" font-family="Times,serif" font-size="10.00">cstdint</text>
</a>
</g>
</g>
<!-- Node10&#45;&gt;Node19 -->
<g id="edge18_Node000010_Node000019" class="edge">
<title>Node10&#45;&gt;Node19</title>
<g id="a_edge18_Node000010_Node000019"><a xlink:title=" ">
<path fill="none" stroke="#63b8ff" d="M1662.98,-81.11C1579.35,-80.89 1380.25,-75.24 1220.88,-30.5 1219.74,-30.18 1218.59,-29.82 1217.44,-29.43"/>
<polygon fill="#63b8ff" stroke="#63b8ff" points="1218.88,-25.83 1208.3,-25.28 1216.23,-32.31 1218.88,-25.83"/>
</a>
</g>
</g>
<!-- Node20 -->
<g id="Node000020" class="node">
<title>Node20</title>
<g id="a_Node000020"><a xlink:title=" ">
<polygon fill="#e0e0e0" stroke="#999999" points="1273.38,-24.88 1230.38,-24.88 1230.38,-5.63 1273.38,-5.63 1273.38,-24.88"/>
<text text-anchor="middle" x="1251.88" y="-11.38" font-family="Times,serif" font-size="10.00">cstdlib</text>
</a>
</g>
</g>
<!-- Node10&#45;&gt;Node20 -->
<g id="edge19_Node000010_Node000020" class="edge">
<title>Node10&#45;&gt;Node20</title>
<g id="a_edge19_Node000010_Node000020"><a xlink:title=" ">
<path fill="none" stroke="#63b8ff" d="M1663.14,-80.26C1587.46,-78.42 1418.01,-69.81 1281.88,-30.5 1280.74,-30.17 1279.59,-29.81 1278.45,-29.41"/>
<polygon fill="#63b8ff" stroke="#63b8ff" points="1279.9,-25.81 1269.32,-25.23 1277.23,-32.28 1279.9,-25.81"/>
</a>
</g>
</g>
<!-- Node21 -->
<g id="Node000021" class="node">
<title>Node21</title>
<g id="a_Node000021"><a xlink:title=" ">
<polygon fill="#e0e0e0" stroke="#999999" points="1346.38,-24.88 1291.38,-24.88 1291.38,-5.63 1346.38,-5.63 1346.38,-24.88"/>
<text text-anchor="middle" x="1318.88" y="-11.38" font-family="Times,serif" font-size="10.00">filesystem</text>
</a>
</g>
</g>
<!-- Node10&#45;&gt;Node21 -->
<g id="edge20_Node000010_Node000021" class="edge">
<title>Node10&#45;&gt;Node21</title>
<g id="a_edge20_Node000010_Node000021"><a xlink:title=" ">
<path fill="none" stroke="#63b8ff" d="M1663.13,-78.04C1597.86,-72.93 1464.3,-59.63 1354.88,-30.5 1353.09,-30.02 1351.27,-29.49 1349.45,-28.91"/>
<polygon fill="#63b8ff" stroke="#63b8ff" points="1350.75,-25.3 1340.16,-25.23 1348.4,-31.89 1350.75,-25.3"/>
</a>
</g>
</g>
<!-- Node22 -->
<g id="Node000022" class="node">
<title>Node22</title>
<g id="a_Node000022"><a xlink:title=" ">
<polygon fill="#e0e0e0" stroke="#999999" points="1409.5,-24.88 1364.25,-24.88 1364.25,-5.63 1409.5,-5.63 1409.5,-24.88"/>
<text text-anchor="middle" x="1386.88" y="-11.38" font-family="Times,serif" font-size="10.00">fstream</text>
</a>
</g>
</g>
<!-- Node10&#45;&gt;Node22 -->
<g id="edge21_Node000010_Node000022" class="edge">
<title>Node10&#45;&gt;Node22</title>
<g id="a_edge21_Node000010_Node000022"><a xlink:title=" ">
<path fill="none" stroke="#63b8ff" d="M1663.11,-76.81C1607.53,-70.61 1503.86,-56.51 1418.88,-30.5 1417.6,-30.11 1416.31,-29.68 1415.01,-29.22"/>
<polygon fill="#63b8ff" stroke="#63b8ff" points="1416.78,-25.76 1406.19,-25.32 1414.2,-32.27 1416.78,-25.76"/>
</a>
</g>
</g>
<!-- Node23 -->
<g id="Node000023" class="node">
<title>Node23</title>
<g id="a_Node000023"><a xlink:title=" ">
<polygon fill="#e0e0e0" stroke="#999999" points="1482,-24.88 1427.75,-24.88 1427.75,-5.63 1482,-5.63 1482,-24.88"/>
<text text-anchor="middle" x="1454.88" y="-11.38" font-family="Times,serif" font-size="10.00">functional</text>
</a>
</g>
</g>
<!-- Node10&#45;&gt;Node23 -->
<g id="edge22_Node000010_Node000023" class="edge">
<title>Node10&#45;&gt;Node23</title>
<g id="a_edge22_Node000010_Node000023"><a xlink:title=" ">
<path fill="none" stroke="#63b8ff" d="M1662.95,-73.08C1619.98,-64.41 1549.87,-49.06 1490.88,-30.5 1489.39,-30.03 1487.88,-29.53 1486.37,-29.01"/>
<polygon fill="#63b8ff" stroke="#63b8ff" points="1487.99,-25.51 1477.4,-25.35 1485.58,-32.09 1487.99,-25.51"/>
</a>
</g>
</g>
<!-- Node24 -->
<g id="Node000024" class="node">
<title>Node24</title>
<g id="a_Node000024"><a xlink:title=" ">
<polygon fill="#e0e0e0" stroke="#999999" points="1548,-24.88 1499.75,-24.88 1499.75,-5.63 1548,-5.63 1548,-24.88"/>
<text text-anchor="middle" x="1523.88" y="-11.38" font-family="Times,serif" font-size="10.00">iomanip</text>
</a>
</g>
</g>
<!-- Node10&#45;&gt;Node24 -->
<g id="edge23_Node000010_Node000024" class="edge">
<title>Node10&#45;&gt;Node24</title>
<g id="a_edge23_Node000010_Node000024"><a xlink:title=" ">
<path fill="none" stroke="#63b8ff" d="M1674.38,-71.66C1644.78,-62.04 1597.24,-46.14 1556.88,-30.5 1555.96,-30.14 1555.03,-29.78 1554.09,-29.41"/>
<polygon fill="#63b8ff" stroke="#63b8ff" points="1555.6,-25.83 1545.02,-25.24 1552.92,-32.3 1555.6,-25.83"/>
</a>
</g>
</g>
<!-- Node25 -->
<g id="Node000025" class="node">
<title>Node25</title>
<g id="a_Node000025"><a xlink:title=" ">
<polygon fill="#e0e0e0" stroke="#999999" points="1611.5,-24.88 1566.25,-24.88 1566.25,-5.63 1611.5,-5.63 1611.5,-24.88"/>
<text text-anchor="middle" x="1588.88" y="-11.38" font-family="Times,serif" font-size="10.00">istream</text>
</a>
</g>
</g>
<!-- Node10&#45;&gt;Node25 -->
<g id="edge24_Node000010_Node000025" class="edge">
<title>Node10&#45;&gt;Node25</title>
<g id="a_edge24_Node000010_Node000025"><a xlink:title=" ">
<path fill="none" stroke="#63b8ff" d="M1687.02,-71.78C1668.24,-61.16 1636.7,-43.31 1614.45,-30.72"/>
<polygon fill="#63b8ff" stroke="#63b8ff" points="1616.39,-27.23 1605.96,-25.35 1612.94,-33.32 1616.39,-27.23"/>
</a>
</g>
</g>
<!-- Node26 -->
<g id="Node000026" class="node">
<title>Node26</title>
<g id="a_Node000026"><a xlink:title=" ">
<polygon fill="#e0e0e0" stroke="#999999" points="1667.75,-24.88 1630,-24.88 1630,-5.63 1667.75,-5.63 1667.75,-24.88"/>
<text text-anchor="middle" x="1648.88" y="-11.38" font-family="Times,serif" font-size="10.00">limits</text>
</a>
</g>
</g>
<!-- Node10&#45;&gt;Node26 -->
<g id="edge25_Node000010_Node000026" class="edge">
<title>Node10&#45;&gt;Node26</title>
<g id="a_edge25_Node000010_Node000026"><a xlink:title=" ">
<path fill="none" stroke="#63b8ff" d="M1695.37,-71.78C1687.06,-61.87 1673.5,-45.66 1663.16,-33.31"/>
<polygon fill="#63b8ff" stroke="#63b8ff" points="1665.42,-31.56 1656.32,-26.14 1660.06,-36.06 1665.42,-31.56"/>
</a>
</g>
</g>
<!-- Node27 -->
<g id="Node000027" class="node">
<title>Node27</title>
<g id="a_Node000027"><a xlink:title=" ">
<polygon fill="#e0e0e0" stroke="#999999" points="1719.5,-24.88 1686.25,-24.88 1686.25,-5.63 1719.5,-5.63 1719.5,-24.88"/>
<text text-anchor="middle" x="1702.88" y="-11.38" font-family="Times,serif" font-size="10.00">map</text>
</a>
</g>
</g>
<!-- Node10&#45;&gt;Node27 -->
<g id="edge26_Node000010_Node000027" class="edge">
<title>Node10&#45;&gt;Node27</title>
<g id="a_edge26_Node000010_Node000027"><a xlink:title=" ">
<path fill="none" stroke="#63b8ff" d="M1702.88,-71.78C1702.88,-62.54 1702.88,-47.83 1702.88,-35.88"/>
<polygon fill="#63b8ff" stroke="#63b8ff" points="1706.38,-36.14 1702.88,-26.14 1699.38,-36.14 1706.38,-36.14"/>
</a>
</g>
</g>
<!-- Node28 -->
<g id="Node000028" class="node">
<title>Node28</title>
<g id="a_Node000028"><a xlink:title=" ">
<polygon fill="#e0e0e0" stroke="#999999" points="1786,-24.88 1737.75,-24.88 1737.75,-5.63 1786,-5.63 1786,-24.88"/>
<text text-anchor="middle" x="1761.88" y="-11.38" font-family="Times,serif" font-size="10.00">memory</text>
</a>
</g>
</g>
<!-- Node10&#45;&gt;Node28 -->
<g id="edge27_Node000010_Node000028" class="edge">
<title>Node10&#45;&gt;Node28</title>
<g id="a_edge27_Node000010_Node000028"><a xlink:title=" ">
<path fill="none" stroke="#63b8ff" d="M1711.08,-71.78C1720.24,-61.77 1735.26,-45.35 1746.6,-32.95"/>
<polygon fill="#63b8ff" stroke="#63b8ff" points="1748.57,-35.88 1752.74,-26.14 1743.41,-31.16 1748.57,-35.88"/>
</a>
</g>
</g>
<!-- Node29 -->
<g id="Node000029" class="node">
<title>Node29</title>
<g id="a_Node000029"><a xlink:title=" ">
<polygon fill="#e0e0e0" stroke="#999999" points="1845.25,-24.88 1804.5,-24.88 1804.5,-5.63 1845.25,-5.63 1845.25,-24.88"/>
<text text-anchor="middle" x="1824.88" y="-11.38" font-family="Times,serif" font-size="10.00">mutex</text>
</a>
</g>
</g>
<!-- Node10&#45;&gt;Node29 -->
<g id="edge28_Node000010_Node000029" class="edge">
<title>Node10&#45;&gt;Node29</title>
<g id="a_edge28_Node000010_Node000029"><a xlink:title=" ">
<path fill="none" stroke="#63b8ff" d="M1720.1,-71.65C1740.44,-60.89 1774.52,-42.87 1798.27,-30.32"/>
<polygon fill="#63b8ff" stroke="#63b8ff" points="1799.54,-33.08 1806.74,-25.31 1796.27,-26.89 1799.54,-33.08"/>
</a>
</g>
</g>
<!-- Node30 -->
<g id="Node000030" class="node">
<title>Node30</title>
<g id="a_Node000030"><a xlink:title=" ">
<polygon fill="#e0e0e0" stroke="#999999" points="1914.12,-24.88 1863.62,-24.88 1863.62,-5.63 1914.12,-5.63 1914.12,-24.88"/>
<text text-anchor="middle" x="1888.88" y="-11.38" font-family="Times,serif" font-size="10.00">numbers</text>
</a>
</g>
</g>
<!-- Node10&#45;&gt;Node30 -->
<g id="edge29_Node000010_Node000030" class="edge">
<title>Node10&#45;&gt;Node30</title>
<g id="a_edge29_Node000010_Node000030"><a xlink:title=" ">
<path fill="none" stroke="#63b8ff" d="M1732.02,-71.68C1762.57,-62.02 1811.89,-46.01 1853.88,-30.5 1854.95,-30.1 1856.05,-29.69 1857.15,-29.27"/>
<polygon fill="#63b8ff" stroke="#63b8ff" points="1858.08,-32.27 1866.12,-25.37 1855.53,-25.76 1858.08,-32.27"/>
</a>
</g>
</g>
<!-- Node31 -->
<g id="Node000031" class="node">
<title>Node31</title>
<g id="a_Node000031"><a xlink:title=" ">
<polygon fill="#e0e0e0" stroke="#999999" points="1980,-24.88 1931.75,-24.88 1931.75,-5.63 1980,-5.63 1980,-24.88"/>
<text text-anchor="middle" x="1955.88" y="-11.38" font-family="Times,serif" font-size="10.00">numeric</text>
</a>
</g>
</g>
<!-- Node10&#45;&gt;Node31 -->
<g id="edge30_Node000010_Node000031" class="edge">
<title>Node10&#45;&gt;Node31</title>
<g id="a_edge30_Node000010_Node000031"><a xlink:title=" ">
<path fill="none" stroke="#63b8ff" d="M1732.84,-71.65C1739.1,-69.85 1745.69,-68.05 1751.88,-66.5 1827.22,-47.64 1848.85,-54.01 1922.88,-30.5 1924.15,-30.1 1925.44,-29.66 1926.73,-29.2"/>
<polygon fill="#63b8ff" stroke="#63b8ff" points="1927.54,-32.25 1935.58,-25.35 1924.99,-25.73 1927.54,-32.25"/>
</a>
</g>
</g>
<!-- Node32 -->
<g id="Node000032" class="node">
<title>Node32</title>
<g id="a_Node000032"><a xlink:title=" ">
<polygon fill="#e0e0e0" stroke="#999999" points="2045.25,-24.88 1998.5,-24.88 1998.5,-5.63 2045.25,-5.63 2045.25,-24.88"/>
<text text-anchor="middle" x="2021.88" y="-11.38" font-family="Times,serif" font-size="10.00">optional</text>
</a>
</g>
</g>
<!-- Node10&#45;&gt;Node32 -->
<g id="edge31_Node000010_Node000032" class="edge">
<title>Node10&#45;&gt;Node32</title>
<g id="a_edge31_Node000010_Node000032"><a xlink:title=" ">
<path fill="none" stroke="#63b8ff" d="M1731.73,-71.67C1738.31,-69.79 1745.3,-67.95 1751.88,-66.5 1855.92,-43.57 1886.46,-59.86 1988.88,-30.5 1990.37,-30.07 1991.9,-29.59 1993.42,-29.07"/>
<polygon fill="#63b8ff" stroke="#63b8ff" points="1994.26,-32.11 2002.33,-25.24 1991.74,-25.58 1994.26,-32.11"/>
</a>
</g>
</g>
<!-- Node33 -->
<g id="Node000033" class="node">
<title>Node33</title>
<g id="a_Node000033"><a xlink:title=" ">
<polygon fill="#e0e0e0" stroke="#999999" points="2110.62,-24.88 2063.12,-24.88 2063.12,-5.63 2110.62,-5.63 2110.62,-24.88"/>
<text text-anchor="middle" x="2086.88" y="-11.38" font-family="Times,serif" font-size="10.00">ostream</text>
</a>
</g>
</g>
<!-- Node10&#45;&gt;Node33 -->
<g id="edge32_Node000010_Node000033" class="edge">
<title>Node10&#45;&gt;Node33</title>
<g id="a_edge32_Node000010_Node000033"><a xlink:title=" ">
<path fill="none" stroke="#63b8ff" d="M1731.18,-71.66C1737.91,-69.74 1745.1,-67.88 1751.88,-66.5 1884.33,-39.54 1923.36,-65.66 2053.88,-30.5 2055.38,-30.09 2056.91,-29.63 2058.44,-29.13"/>
<polygon fill="#63b8ff" stroke="#63b8ff" points="2059.26,-32.18 2067.36,-25.35 2056.77,-25.64 2059.26,-32.18"/>
</a>
</g>
</g>
<!-- Node34 -->
<g id="Node000034" class="node">
<title>Node34</title>
<g id="a_Node000034"><a xlink:title=" ">
<polygon fill="#e0e0e0" stroke="#999999" points="2174.88,-24.88 2128.88,-24.88 2128.88,-5.63 2174.88,-5.63 2174.88,-24.88"/>
<text text-anchor="middle" x="2151.88" y="-11.38" font-family="Times,serif" font-size="10.00">random</text>
</a>
</g>
</g>
<!-- Node10&#45;&gt;Node34 -->
<g id="edge33_Node000010_Node000034" class="edge">
<title>Node10&#45;&gt;Node34</title>
<g id="a_edge33_Node000010_Node000034"><a xlink:title=" ">
<path fill="none" stroke="#63b8ff" d="M1730.9,-71.63C1737.71,-69.69 1745,-67.82 1751.88,-66.5 1913.25,-35.42 1960.99,-72.47 2119.88,-30.5 2121.38,-30.1 2122.91,-29.64 2124.43,-29.13"/>
<polygon fill="#63b8ff" stroke="#63b8ff" points="2125.26,-32.18 2133.3,-25.29 2122.72,-25.66 2125.26,-32.18"/>
</a>
</g>
</g>
<!-- Node35 -->
<g id="Node000035" class="node">
<title>Node35</title>
<g id="a_Node000035"><a xlink:title=" ">
<polygon fill="#e0e0e0" stroke="#999999" points="2265,-24.88 2192.75,-24.88 2192.75,-5.63 2265,-5.63 2265,-24.88"/>
<text text-anchor="middle" x="2228.88" y="-11.38" font-family="Times,serif" font-size="10.00">shared_mutex</text>
</a>
</g>
</g>
<!-- Node10&#45;&gt;Node35 -->
<g id="edge34_Node000010_Node000035" class="edge">
<title>Node10&#45;&gt;Node35</title>
<g id="a_edge34_Node000010_Node000035"><a xlink:title=" ">
<path fill="none" stroke="#63b8ff" d="M1730.63,-71.63C1737.51,-69.67 1744.91,-67.79 1751.88,-66.5 1941.32,-31.42 1994.86,-67.81 2183.88,-30.5 2187.07,-29.87 2190.35,-29.09 2193.63,-28.23"/>
<polygon fill="#63b8ff" stroke="#63b8ff" points="2194.28,-31.39 2202.91,-25.25 2192.33,-24.67 2194.28,-31.39"/>
</a>
</g>
</g>
<!-- Node36 -->
<g id="Node000036" class="node">
<title>Node36</title>
<g id="a_Node000036"><a xlink:title=" ">
<polygon fill="#e0e0e0" stroke="#999999" points="2318.25,-24.88 2283.5,-24.88 2283.5,-5.63 2318.25,-5.63 2318.25,-24.88"/>
<text text-anchor="middle" x="2300.88" y="-11.38" font-family="Times,serif" font-size="10.00">span</text>
</a>
</g>
</g>
<!-- Node10&#45;&gt;Node36 -->
<g id="edge35_Node000010_Node000036" class="edge">
<title>Node10&#45;&gt;Node36</title>
<g id="a_edge35_Node000010_Node000036"><a xlink:title=" ">
<path fill="none" stroke="#63b8ff" d="M1730.36,-71.64C1737.31,-69.64 1744.81,-67.76 1751.88,-66.5 1980.84,-25.8 2050.2,-94.15 2273.88,-30.5 2274.81,-30.23 2275.75,-29.93 2276.69,-29.6"/>
<polygon fill="#63b8ff" stroke="#63b8ff" points="2277.77,-32.51 2285.49,-25.25 2274.93,-26.11 2277.77,-32.51"/>
</a>
</g>
</g>
<!-- Node37 -->
<g id="Node000037" class="node">
<title>Node37</title>
<g id="a_Node000037"><a xlink:title=" ">
<polygon fill="#e0e0e0" stroke="#999999" points="2381.88,-24.88 2335.88,-24.88 2335.88,-5.63 2381.88,-5.63 2381.88,-24.88"/>
<text text-anchor="middle" x="2358.88" y="-11.38" font-family="Times,serif" font-size="10.00">sstream</text>
</a>
</g>
</g>
<!-- Node10&#45;&gt;Node37 -->
<g id="edge36_Node000010_Node000037" class="edge">
<title>Node10&#45;&gt;Node37</title>
<g id="a_edge36_Node000010_Node000037"><a xlink:title=" ">
<path fill="none" stroke="#63b8ff" d="M1730.1,-71.68C1737.12,-69.66 1744.72,-67.75 1751.88,-66.5 2004.12,-22.48 2078.2,-91.55 2326.88,-30.5 2328.43,-30.12 2329.99,-29.67 2331.56,-29.16"/>
<polygon fill="#63b8ff" stroke="#63b8ff" points="2332.6,-32.12 2340.67,-25.25 2330.08,-25.6 2332.6,-32.12"/>
</a>
</g>
</g>
<!-- Node38 -->
<g id="Node000038" class="node">
<title>Node38</title>
<g id="a_Node000038"><a xlink:title=" ">
<polygon fill="#e0e0e0" stroke="#999999" points="2454,-24.88 2399.75,-24.88 2399.75,-5.63 2454,-5.63 2454,-24.88"/>
<text text-anchor="middle" x="2426.88" y="-11.38" font-family="Times,serif" font-size="10.00">stdexcept</text>
</a>
</g>
</g>
<!-- Node10&#45;&gt;Node38 -->
<g id="edge37_Node000010_Node000038" class="edge">
<title>Node10&#45;&gt;Node38</title>
<g id="a_edge37_Node000010_Node000038"><a xlink:title=" ">
<path fill="none" stroke="#63b8ff" d="M1730.09,-71.65C1737.11,-69.63 1744.71,-67.73 1751.88,-66.5 2032.24,-18.48 2113.07,-91.63 2390.88,-30.5 2392.94,-30.04 2395.05,-29.49 2397.15,-28.86"/>
<polygon fill="#63b8ff" stroke="#63b8ff" points="2398.14,-31.87 2406.43,-25.26 2395.83,-25.26 2398.14,-31.87"/>
</a>
</g>
</g>
<!-- Node39 -->
<g id="Node000039" class="node">
<title>Node39</title>
<g id="a_Node000039"><a xlink:title=" ">
<polygon fill="#e0e0e0" stroke="#999999" points="2511.5,-24.88 2472.25,-24.88 2472.25,-5.63 2511.5,-5.63 2511.5,-24.88"/>
<text text-anchor="middle" x="2491.88" y="-11.38" font-family="Times,serif" font-size="10.00">string</text>
</a>
</g>
</g>
<!-- Node10&#45;&gt;Node39 -->
<g id="edge38_Node000010_Node000039" class="edge">
<title>Node10&#45;&gt;Node39</title>
<g id="a_edge38_Node000010_Node000039"><a xlink:title=" ">
<path fill="none" stroke="#63b8ff" d="M1729.83,-71.7C1736.92,-69.65 1744.62,-67.72 1751.88,-66.5 2063.89,-13.97 2156.59,-109.9 2462.88,-30.5 2464.02,-30.2 2465.16,-29.86 2466.31,-29.48"/>
<polygon fill="#63b8ff" stroke="#63b8ff" points="2467.48,-32.37 2475.37,-25.3 2464.79,-25.91 2467.48,-32.37"/>
</a>
</g>
</g>
<!-- Node40 -->
<g id="Node000040" class="node">
<title>Node40</title>
<g id="a_Node000040"><a xlink:title=" ">
<polygon fill="#e0e0e0" stroke="#999999" points="2570.62,-24.88 2529.12,-24.88 2529.12,-5.63 2570.62,-5.63 2570.62,-24.88"/>
<text text-anchor="middle" x="2549.88" y="-11.38" font-family="Times,serif" font-size="10.00">thread</text>
</a>
</g>
</g>
<!-- Node10&#45;&gt;Node40 -->
<g id="edge39_Node000010_Node000040" class="edge">
<title>Node10&#45;&gt;Node40</title>
<g id="a_edge39_Node000010_Node000040"><a xlink:title=" ">
<path fill="none" stroke="#63b8ff" d="M1729.82,-71.68C1736.92,-69.63 1744.62,-67.71 1751.88,-66.5 2089.39,-10.34 2189.51,-115.73 2520.88,-30.5 2522.02,-30.21 2523.16,-29.87 2524.31,-29.49"/>
<polygon fill="#63b8ff" stroke="#63b8ff" points="2525.48,-32.38 2533.37,-25.31 2522.8,-25.91 2525.48,-32.38"/>
</a>
</g>
</g>
<!-- Node41 -->
<g id="Node000041" class="node">
<title>Node41</title>
<g id="a_Node000041"><a xlink:title=" ">
<polygon fill="#e0e0e0" stroke="#999999" points="2647.25,-24.88 2588.5,-24.88 2588.5,-5.63 2647.25,-5.63 2647.25,-24.88"/>
<text text-anchor="middle" x="2617.88" y="-11.38" font-family="Times,serif" font-size="10.00">type_traits</text>
</a>
</g>
</g>
<!-- Node10&#45;&gt;Node41 -->
<g id="edge40_Node000010_Node000041" class="edge">
<title>Node10&#45;&gt;Node41</title>
<g id="a_edge40_Node000010_Node000041"><a xlink:title=" ">
<path fill="none" stroke="#63b8ff" d="M1729.82,-71.66C1736.92,-69.61 1744.62,-67.69 1751.88,-66.5 2115.33,-6.64 2218.95,-104.08 2579.88,-30.5 2582.23,-30.02 2584.63,-29.41 2587.03,-28.73"/>
<polygon fill="#63b8ff" stroke="#63b8ff" points="2587.93,-31.78 2596.32,-25.3 2585.72,-25.14 2587.93,-31.78"/>
</a>
</g>
</g>
<!-- Node42 -->
<g id="Node000042" class="node">
<title>Node42</title>
<g id="a_Node000042"><a xlink:title=" ">
<polygon fill="#e0e0e0" stroke="#999999" points="2738,-24.88 2665.75,-24.88 2665.75,-5.63 2738,-5.63 2738,-24.88"/>
<text text-anchor="middle" x="2701.88" y="-11.38" font-family="Times,serif" font-size="10.00">unordered_set</text>
</a>
</g>
</g>
<!-- Node10&#45;&gt;Node42 -->
<g id="edge41_Node000010_Node000042" class="edge">
<title>Node10&#45;&gt;Node42</title>
<g id="a_edge41_Node000010_Node000042"><a xlink:title=" ">
<path fill="none" stroke="#63b8ff" d="M1729.82,-71.64C1736.91,-69.6 1744.62,-67.68 1751.88,-66.5 2148.74,-1.88 2259.58,-98.57 2655.88,-30.5 2659.34,-29.91 2662.9,-29.12 2666.44,-28.23"/>
<polygon fill="#63b8ff" stroke="#63b8ff" points="2667.18,-31.37 2675.86,-25.29 2665.28,-24.64 2667.18,-31.37"/>
</a>
</g>
</g>
<!-- Node43 -->
<g id="Node000043" class="node">
<title>Node43</title>
<g id="a_Node000043"><a xlink:title=" ">
<polygon fill="#e0e0e0" stroke="#999999" points="2799.38,-24.88 2756.38,-24.88 2756.38,-5.63 2799.38,-5.63 2799.38,-24.88"/>
<text text-anchor="middle" x="2777.88" y="-11.38" font-family="Times,serif" font-size="10.00">variant</text>
</a>
</g>
</g>
<!-- Node10&#45;&gt;Node43 -->
<g id="edge42_Node000010_Node000043" class="edge">
<title>Node10&#45;&gt;Node43</title>
<g id="a_edge42_Node000010_Node000043"><a xlink:title=" ">
<path fill="none" stroke="#63b8ff" d="M1729.56,-71.7C1736.73,-69.62 1744.53,-67.68 1751.88,-66.5 1970.32,-31.34 2531.62,-81.7 2746.88,-30.5 2748.39,-30.14 2749.92,-29.7 2751.44,-29.21"/>
<polygon fill="#63b8ff" stroke="#63b8ff" points="2752.23,-32.27 2760.25,-25.34 2749.67,-25.76 2752.23,-32.27"/>
</a>
</g>
</g>
<!-- Node44 -->
<g id="Node000044" class="node">
<title>Node44</title>
<g id="a_Node000044"><a xlink:title=" ">
<polygon fill="#e0e0e0" stroke="#999999" points="2858.25,-24.88 2817.5,-24.88 2817.5,-5.63 2858.25,-5.63 2858.25,-24.88"/>
<text text-anchor="middle" x="2837.88" y="-11.38" font-family="Times,serif" font-size="10.00">vector</text>
</a>
</g>
</g>
<!-- Node10&#45;&gt;Node44 -->
<g id="edge43_Node000010_Node000044" class="edge">
<title>Node10&#45;&gt;Node44</title>
<g id="a_edge43_Node000010_Node000044"><a xlink:title=" ">
<path fill="none" stroke="#63b8ff" d="M1729.56,-71.69C1736.72,-69.61 1744.53,-67.67 1751.88,-66.5 1983.95,-29.4 2580.89,-87.59 2808.88,-30.5 2810.02,-30.21 2811.17,-29.88 2812.32,-29.5"/>
<polygon fill="#63b8ff" stroke="#63b8ff" points="2813.47,-32.4 2821.38,-25.35 2810.8,-25.93 2813.47,-32.4"/>
</a>
</g>
</g>
<!-- Node45&#45;&gt;Node2 -->
<g id="edge45_Node000045_Node000002" class="edge">
<title>Node45&#45;&gt;Node2</title>
<g id="a_edge45_Node000045_Node000002"><a xlink:title=" ">
<path fill="none" stroke="#63b8ff" d="M1811.23,-97.28C1803.69,-105.86 1792.85,-116.73 1783.07,-125.56"/>
<polygon fill="#63b8ff" stroke="#63b8ff" points="1781.11,-123.49 1775.85,-132.68 1785.69,-128.78 1781.11,-123.49"/>
</a>
</g>
</g>
</g>
</svg>
