<?xml version="1.0" encoding="UTF-8" standalone="no"?>
<!DOCTYPE svg PUBLIC "-//W3C//DTD SVG 1.1//EN"
 "http://www.w3.org/Graphics/SVG/1.1/DTD/svg11.dtd">
<!-- Generated by graphviz version 9.0.0 (20230911.1827)
 -->
<!-- Title: mal_toolkit::CurrentSourceLocation Pages: 1 -->
<!--zoomable 170 -->

<svg id="main" version="1.1" xmlns="http://www.w3.org/2000/svg" xmlns:xlink="http://www.w3.org/1999/xlink" xml:space="preserve" onload="init(evt)">
<style type="text/css"><![CDATA[
.node, .edge {opacity: 0.7;}
.node.selected, .edge.selected {opacity: 1;}
.edge:hover path { stroke: red; }
.edge:hover polygon { stroke: red; fill: red; }
]]></style>

<defs>
  <circle id="rim" cx="0" cy="0" r="7"/>
  <circle id="rim2" cx="0" cy="0" r="3.5"/>
  <g id="zoomPlus">
    <use xlink:href="#rim" fill="#404040"><set attributeName="fill" to="#808080" begin="zoomplus.mouseover" end="zoomplus.mouseout"/></use>
    <path d="M-4,0h8M0,-4v8" fill="none" stroke="white" stroke-width="1.5" pointer-events="none"/>
  </g>
  <g id="zoomMin">
    <use xlink:href="#rim" fill="#404040"><set attributeName="fill" to="#808080" begin="zoomminus.mouseover" end="zoomminus.mouseout"/></use>
    <path d="M-4,0h8" fill="none" stroke="white" stroke-width="1.5" pointer-events="none"/>
  </g>
  <g id="arrowUp" transform="translate(30 24)">
    <use xlink:href="#rim"/>
    <path pointer-events="none" fill="none" stroke="white" stroke-width="1.5" d="M0,-3.0v7 M-2.5,-0.5L0,-3.0L2.5,-0.5"/>
  </g>
  <g id="arrowRight" transform="rotate(90) translate(36 -43)">
    <use xlink:href="#rim"/>
    <path pointer-events="none" fill="none" stroke="white" stroke-width="1.5" d="M0,-3.0v7 M-2.5,-0.5L0,-3.0L2.5,-0.5"/>
  </g>
  <g id="arrowDown" transform="rotate(180) translate(-30 -48)">
    <use xlink:href="#rim"/>
    <path pointer-events="none" fill="none" stroke="white" stroke-width="1.5" d="M0,-3.0v7 M-2.5,-0.5L0,-3.0L2.5,-0.5"/>
  </g>
  <g id="arrowLeft" transform="rotate(270) translate(-36 17)">
    <use xlink:href="#rim"/>
    <path pointer-events="none" fill="none" stroke="white" stroke-width="1.5" d="M0,-3.0v7 M-2.5,-0.5L0,-3.0L2.5,-0.5"/>
  </g>
  <g id="resetDef">
    <use xlink:href="#rim2" fill="#404040"><set attributeName="fill" to="#808080" begin="reset.mouseover" end="reset.mouseout"/></use>
  </g>
</defs>
<script type="application/ecmascript">
var viewWidth = 571;
var viewHeight = 170;
var sectionId = 'dynsection-8';
</script>
<script type="application/ecmascript" xlink:href="../../svg.min.js"/>
<svg id="graph" class="graph">
<g id="viewport">
<title>mal_toolkit::CurrentSourceLocation</title>
<!-- Node1 -->
<g id="Node000001" class="node">
<title>Node1</title>
<g id="a_Node000001"><a xlink:title="Returns an empty string representing the current source location.">
<polygon fill="#999999" stroke="#666666" points="562.75,-96.12 439.5,-96.12 439.5,-65.62 562.75,-65.62 562.75,-96.12"/>
<text text-anchor="start" x="447.5" y="-82.62" font-family="Times,serif" font-size="10.00">mal_toolkit::CurrentSource</text>
<text text-anchor="middle" x="501.12" y="-71.38" font-family="Times,serif" font-size="10.00">Location</text>
</a>
</g>
</g>
<!-- Node2 -->
<g id="Node000002" class="node">
<title>Node2</title>
<g id="a_Node000002"><a xlink:href="../../df/df5/namespacemal__toolkit.html#a8405b24c94e717d8a57da64b1483a4a9" target="_top" xlink:title="Always asserts a condition with customizable behavior.">
<polygon fill="white" stroke="#666666" points="403.5,-138.5 283.25,-138.5 283.25,-119.25 403.5,-119.25 403.5,-138.5"/>
<text text-anchor="middle" x="343.38" y="-125" font-family="Times,serif" font-size="10.00">mal_toolkit::AlwaysAssert</text>
</a>
</g>
</g>
<!-- Node1&#45;&gt;Node2 -->
<g id="edge1_Node000001_Node000002" class="edge">
<title>Node1&#45;&gt;Node2</title>
<g id="a_edge1_Node000001_Node000002"><a xlink:title=" ">
<path fill="none" stroke="#63b8ff" d="M438.32,-99.92C417.31,-106.4 394.66,-113.38 376.87,-118.86"/>
<polygon fill="#63b8ff" stroke="#63b8ff" points="439.15,-103.33 447.68,-97.04 437.09,-96.64 439.15,-103.33"/>
</a>
</g>
</g>
<!-- Node5 -->
<g id="Node000005" class="node">
<title>Node5</title>
<g id="a_Node000005"><a xlink:href="../../df/df5/namespacemal__toolkit.html#a1a10dbab8f9e26361eaa4af07f31713d" target="_top" xlink:title="Asserts a condition with customizable behavior based on debug mode.">
<polygon fill="white" stroke="#666666" points="389.25,-90.5 297.5,-90.5 297.5,-71.25 389.25,-71.25 389.25,-90.5"/>
<text text-anchor="middle" x="343.38" y="-77" font-family="Times,serif" font-size="10.00">mal_toolkit::Assert</text>
</a>
</g>
</g>
<!-- Node1&#45;&gt;Node5 -->
<g id="edge4_Node000001_Node000005" class="edge">
<title>Node1&#45;&gt;Node5</title>
<g id="a_edge4_Node000001_Node000005"><a xlink:title=" ">
<path fill="none" stroke="#63b8ff" d="M427.65,-80.88C414.62,-80.88 401.38,-80.88 389.42,-80.88"/>
<polygon fill="#63b8ff" stroke="#63b8ff" points="427.5,-84.38 437.5,-80.88 427.5,-77.38 427.5,-84.38"/>
</a>
</g>
</g>
<!-- Node8 -->
<g id="Node000008" class="node">
<title>Node8</title>
<g id="a_Node000008"><a xlink:href="../../d1/d3a/structmal__toolkit_1_1_measurer.html#a75ea1122ef872b467e5113888c1e5305" target="_top" xlink:title="Construct a Measurer object.">
<polygon fill="white" stroke="#666666" points="395.25,-53.12 291.5,-53.12 291.5,-22.62 395.25,-22.62 395.25,-53.12"/>
<text text-anchor="start" x="299.5" y="-39.62" font-family="Times,serif" font-size="10.00">mal_toolkit::Measurer</text>
<text text-anchor="middle" x="343.38" y="-28.38" font-family="Times,serif" font-size="10.00">::Measurer</text>
</a>
</g>
</g>
<!-- Node1&#45;&gt;Node8 -->
<g id="edge7_Node000001_Node000008" class="edge">
<title>Node1&#45;&gt;Node8</title>
<g id="a_edge7_Node000001_Node000008"><a xlink:title=" ">
<path fill="none" stroke="#63b8ff" d="M432.66,-62.25C420.22,-58.82 407.43,-55.28 395.58,-52.01"/>
<polygon fill="#63b8ff" stroke="#63b8ff" points="431.43,-65.54 442,-64.83 433.29,-58.79 431.43,-65.54"/>
</a>
</g>
</g>
<!-- Node3 -->
<g id="Node000003" class="node">
<title>Node3</title>
<g id="a_Node000003"><a xlink:href="../../d8/d39/classmal__packet__weaver_1_1_session.html#ab8d02d6502bb180c3b0f383b3fddc6ca" target="_top" xlink:title="Asynchronously forges new packets from the buffer.">
<polygon fill="white" stroke="#666666" points="242.75,-161.75 139.75,-161.75 139.75,-120 242.75,-120 242.75,-161.75"/>
<text text-anchor="start" x="147.75" y="-148.25" font-family="Times,serif" font-size="10.00">mal_packet_weaver::</text>
<text text-anchor="start" x="147.75" y="-137" font-family="Times,serif" font-size="10.00">Session::async_packet</text>
<text text-anchor="middle" x="191.25" y="-125.75" font-family="Times,serif" font-size="10.00">_forger</text>
</a>
</g>
</g>
<!-- Node2&#45;&gt;Node3 -->
<g id="edge2_Node000002_Node000003" class="edge">
<title>Node2&#45;&gt;Node3</title>
<g id="a_edge2_Node000002_Node000003"><a xlink:title=" ">
<path fill="none" stroke="#63b8ff" d="M271.72,-134.52C261.99,-135.3 252.18,-136.08 242.91,-136.83"/>
<polygon fill="#63b8ff" stroke="#63b8ff" points="271.84,-138.02 281.53,-133.74 271.29,-131.05 271.84,-138.02"/>
</a>
</g>
</g>
<!-- Node4 -->
<g id="Node000004" class="node">
<title>Node4</title>
<g id="a_Node000004"><a xlink:href="../../d8/d39/classmal__packet__weaver_1_1_session.html#a5cf271c70d7ec610cfb01d0ed8655693" target="_top" xlink:title="Constructor for the Session class.">
<polygon fill="white" stroke="#666666" points="99.25,-156.12 0,-156.12 0,-125.62 99.25,-125.62 99.25,-156.12"/>
<text text-anchor="start" x="8" y="-142.62" font-family="Times,serif" font-size="10.00">mal_packet_weaver::</text>
<text text-anchor="middle" x="49.62" y="-131.38" font-family="Times,serif" font-size="10.00">Session::Session</text>
</a>
</g>
</g>
<!-- Node3&#45;&gt;Node4 -->
<g id="edge3_Node000003_Node000004" class="edge">
<title>Node3&#45;&gt;Node4</title>
<g id="a_edge3_Node000003_Node000004"><a xlink:title=" ">
<path fill="none" stroke="#63b8ff" d="M128.21,-140.88C118.52,-140.88 108.63,-140.88 99.29,-140.88"/>
<polygon fill="#63b8ff" stroke="#63b8ff" points="127.93,-144.38 137.93,-140.88 127.93,-137.38 127.93,-144.38"/>
</a>
</g>
</g>
<!-- Node6 -->
<g id="Node000006" class="node">
<title>Node6</title>
<g id="a_Node000006"><a xlink:href="../../d4/d61/classmal__packet__weaver_1_1_packet_dispatcher.html#a1e7e2c9e624018e4a1046297453e0596" target="_top" xlink:title="Wait until the packet is registered in the dispatch system and return as soon as possible.">
<polygon fill="white" stroke="#666666" points="247.25,-101.75 135.25,-101.75 135.25,-60 247.25,-60 247.25,-101.75"/>
<text text-anchor="start" x="143.25" y="-88.25" font-family="Times,serif" font-size="10.00">mal_packet_weaver::</text>
<text text-anchor="start" x="143.25" y="-77" font-family="Times,serif" font-size="10.00">PacketDispatcher::await</text>
<text text-anchor="middle" x="191.25" y="-65.75" font-family="Times,serif" font-size="10.00">_packet</text>
</a>
</g>
</g>
<!-- Node5&#45;&gt;Node6 -->
<g id="edge5_Node000005_Node000006" class="edge">
<title>Node5&#45;&gt;Node6</title>
<g id="a_edge5_Node000005_Node000006"><a xlink:title=" ">
<path fill="none" stroke="#63b8ff" d="M286.04,-80.88C273.47,-80.88 260.15,-80.88 247.62,-80.88"/>
<polygon fill="#63b8ff" stroke="#63b8ff" points="285.82,-84.38 295.82,-80.88 285.82,-77.38 285.82,-84.38"/>
</a>
</g>
</g>
<!-- Node7 -->
<g id="Node000007" class="node">
<title>Node7</title>
<g id="a_Node000007"><a xlink:href="../../d4/d61/classmal__packet__weaver_1_1_packet_dispatcher.html#a5fa270876e67889a7524a186b297cd11" target="_top" xlink:title="Wait until a packet satisfying the filter condition is registered in the dispatch system and return a...">
<polygon fill="white" stroke="#666666" points="247.25,-41.75 135.25,-41.75 135.25,0 247.25,0 247.25,-41.75"/>
<text text-anchor="start" x="143.25" y="-28.25" font-family="Times,serif" font-size="10.00">mal_packet_weaver::</text>
<text text-anchor="start" x="143.25" y="-17" font-family="Times,serif" font-size="10.00">PacketDispatcher::await</text>
<text text-anchor="middle" x="191.25" y="-5.75" font-family="Times,serif" font-size="10.00">_packet</text>
</a>
</g>
</g>
<!-- Node5&#45;&gt;Node7 -->
<g id="edge6_Node000005_Node000007" class="edge">
<title>Node5&#45;&gt;Node7</title>
<g id="a_edge6_Node000005_Node000007"><a xlink:title=" ">
<path fill="none" stroke="#63b8ff" d="M297.9,-67.18C292.93,-65.47 287.96,-63.69 283.25,-61.88 267.89,-55.97 251.39,-48.8 236.72,-42.12"/>
<polygon fill="#63b8ff" stroke="#63b8ff" points="296.66,-70.46 307.25,-70.29 298.87,-63.81 296.66,-70.46"/>
</a>
</g>
</g>
</g>
</svg>

<g id="navigator" transform="translate(0 0)" fill="#404254">
  <rect fill="#f2f5e9" fill-opacity="0.5" stroke="#606060" stroke-width=".5" x="0" y="0" width="60" height="60"/>
  <use id="zoomplus" xlink:href="#zoomPlus" x="17" y="9" onmousedown="handleZoom(evt,'in')"/>
  <use id="zoomminus" xlink:href="#zoomMin" x="42" y="9" onmousedown="handleZoom(evt,'out')"/>
  <use id="reset" xlink:href="#resetDef" x="30" y="36" onmousedown="handleReset()"/>
   <use id="arrowup" xlink:href="#arrowUp" x="0" y="0" onmousedown="handlePan(0,-1)"/>
  <use id="arrowright" xlink:href="#arrowRight" x="0" y="0" onmousedown="handlePan(1,0)"/>
  <use id="arrowdown" xlink:href="#arrowDown" x="0" y="0" onmousedown="handlePan(0,1)"/>
  <use id="arrowleft" xlink:href="#arrowLeft" x="0" y="0" onmousedown="handlePan(-1,0)"/>
</g>
<svg viewBox="0 0 15 15" width="100%" height="30px" preserveAspectRatio="xMaxYMin meet">
 <g id="arrow_out" transform="scale(0.3 0.3)">
  <a xlink:href="namespacemal__toolkit_a27bf9441da264c7f90650042e9e30f40_icgraph_org.svg" target="_base">
   <rect id="button" ry="5" rx="5" y="6" x="6" height="38" width="38"
        fill="#f2f5e9" fill-opacity="0.5" stroke="#606060" stroke-width="1.0"/>
   <path id="arrow"
     d="M 11.500037,31.436501 C 11.940474,20.09759 22.043105,11.32322 32.158766,21.979434 L 37.068811,17.246167 C 37.068811,17.246167 37.088388,32 37.088388,32 L 22.160133,31.978069 C 22.160133,31.978069 26.997745,27.140456 26.997745,27.140456 C 18.528582,18.264221 13.291696,25.230495 11.500037,31.436501 z"
     style="fill:#404040;"/>
  </a>
 </g>
</svg>

<style type='text/css'>
<![CDATA[
[data-mouse-over-selected='false'] { opacity: 0.7; }
[data-mouse-over-selected='true']  { opacity: 1.0; }
]]>
</style>
<script type="application/ecmascript"><![CDATA[
document.addEventListener('DOMContentLoaded', (event) => {
  highlightEdges();
  highlightAdjacentNodes();
});
]]></script>
</svg>
