<?xml version="1.0" encoding="UTF-8" standalone="no"?>
<!DOCTYPE svg PUBLIC "-//W3C//DTD SVG 1.1//EN"
 "http://www.w3.org/Graphics/SVG/1.1/DTD/svg11.dtd">
<!-- Generated by graphviz version 8.1.0 (20230707.0739)
 -->
<!-- Title: mal_toolkit::CurrentSourceLocation Pages: 1 -->
<svg width="571pt" height="218pt"
 viewBox="0.00 0.00 570.75 218.12" xmlns="http://www.w3.org/2000/svg" xmlns:xlink="http://www.w3.org/1999/xlink">
<g id="graph0" class="graph" transform="scale(1 1) rotate(0) translate(4 214.12)">
<title>mal_toolkit::CurrentSourceLocation</title>
<!-- Node1 -->
<g id="Node000001" class="node">
<title>Node1</title>
<g id="a_Node000001"><a xlink:title="Returns an empty string representing the current source location.">
<polygon fill="#999999" stroke="#666666" points="562.75,-105.5 439.5,-105.5 439.5,-75 562.75,-75 562.75,-105.5"/>
<text text-anchor="start" x="447.5" y="-92" font-family="Times,serif" font-size="10.00">mal_toolkit::CurrentSource</text>
<text text-anchor="middle" x="501.12" y="-80.75" font-family="Times,serif" font-size="10.00">Location</text>
</a>
</g>
</g>
<!-- Node2 -->
<g id="Node000002" class="node">
<title>Node2</title>
<g id="a_Node000002"><a xlink:href="../../df/df5/namespacemal__toolkit.html#a8405b24c94e717d8a57da64b1483a4a9" target="_top" xlink:title="Always asserts a condition with customizable behavior.">
<polygon fill="white" stroke="#666666" points="403.5,-177.88 283.25,-177.88 283.25,-158.62 403.5,-158.62 403.5,-177.88"/>
<text text-anchor="middle" x="343.38" y="-164.38" font-family="Times,serif" font-size="10.00">mal_toolkit::AlwaysAssert</text>
</a>
</g>
</g>
<!-- Node1&#45;&gt;Node2 -->
<g id="edge1_Node000001_Node000002" class="edge">
<title>Node1&#45;&gt;Node2</title>
<g id="a_edge1_Node000001_Node000002"><a xlink:title=" ">
<path fill="none" stroke="#63b8ff" d="M459.46,-110.61C428.96,-125.89 388.5,-146.15 364.57,-158.13"/>
<polygon fill="#63b8ff" stroke="#63b8ff" points="460.61,-113.45 467.98,-105.85 457.47,-107.2 460.61,-113.45"/>
</a>
</g>
</g>
<!-- Node5 -->
<g id="Node000005" class="node">
<title>Node5</title>
<g id="a_Node000005"><a xlink:href="../../df/df5/namespacemal__toolkit.html#a1a10dbab8f9e26361eaa4af07f31713d" target="_top" xlink:title="Asserts a condition with customizable behavior based on debug mode.">
<polygon fill="white" stroke="#666666" points="389.25,-99.88 297.5,-99.88 297.5,-80.62 389.25,-80.62 389.25,-99.88"/>
<text text-anchor="middle" x="343.38" y="-86.38" font-family="Times,serif" font-size="10.00">mal_toolkit::Assert</text>
</a>
</g>
</g>
<!-- Node1&#45;&gt;Node5 -->
<g id="edge4_Node000001_Node000005" class="edge">
<title>Node1&#45;&gt;Node5</title>
<g id="a_edge4_Node000001_Node000005"><a xlink:title=" ">
<path fill="none" stroke="#63b8ff" d="M428.05,-90.25C414.89,-90.25 401.51,-90.25 389.42,-90.25"/>
<polygon fill="#63b8ff" stroke="#63b8ff" points="428.02,-93.75 438.02,-90.25 428.02,-86.75 428.02,-93.75"/>
</a>
</g>
</g>
<!-- Node9 -->
<g id="Node000009" class="node">
<title>Node9</title>
<g id="a_Node000009"><a xlink:href="../../d1/d3a/structmal__toolkit_1_1_measurer.html#a75ea1122ef872b467e5113888c1e5305" target="_top" xlink:title="Construct a Measurer object.">
<polygon fill="white" stroke="#666666" points="395.25,-62.5 291.5,-62.5 291.5,-32 395.25,-32 395.25,-62.5"/>
<text text-anchor="start" x="299.5" y="-49" font-family="Times,serif" font-size="10.00">mal_toolkit::Measurer</text>
<text text-anchor="middle" x="343.38" y="-37.75" font-family="Times,serif" font-size="10.00">::Measurer</text>
</a>
</g>
</g>
<!-- Node1&#45;&gt;Node9 -->
<g id="edge8_Node000001_Node000009" class="edge">
<title>Node1&#45;&gt;Node9</title>
<g id="a_edge8_Node000001_Node000009"><a xlink:title=" ">
<path fill="none" stroke="#63b8ff" d="M433.03,-71.73C420.48,-68.26 407.55,-64.69 395.58,-61.39"/>
<polygon fill="#63b8ff" stroke="#63b8ff" points="431.88,-75.32 442.46,-74.6 433.75,-68.57 431.88,-75.32"/>
</a>
</g>
</g>
<!-- Node3 -->
<g id="Node000003" class="node">
<title>Node3</title>
<g id="a_Node000003"><a xlink:href="../../d8/d39/classmal__packet__weaver_1_1_session.html#ab8d02d6502bb180c3b0f383b3fddc6ca" target="_top" xlink:title="Asynchronously forges new packets from the buffer.">
<polygon fill="white" stroke="#666666" points="242.75,-210.12 139.75,-210.12 139.75,-168.38 242.75,-168.38 242.75,-210.12"/>
<text text-anchor="start" x="147.75" y="-196.62" font-family="Times,serif" font-size="10.00">mal_packet_weaver::</text>
<text text-anchor="start" x="147.75" y="-185.38" font-family="Times,serif" font-size="10.00">Session::async_packet</text>
<text text-anchor="middle" x="191.25" y="-174.12" font-family="Times,serif" font-size="10.00">_forger</text>
</a>
</g>
</g>
<!-- Node2&#45;&gt;Node3 -->
<g id="edge2_Node000002_Node000003" class="edge">
<title>Node2&#45;&gt;Node3</title>
<g id="a_edge2_Node000002_Node000003"><a xlink:title=" ">
<path fill="none" stroke="#63b8ff" d="M272.35,-178.05C262.42,-179.43 252.38,-180.84 242.91,-182.16"/>
<polygon fill="#63b8ff" stroke="#63b8ff" points="272.62,-181.4 282.04,-176.55 271.65,-174.47 272.62,-181.4"/>
</a>
</g>
</g>
<!-- Node4 -->
<g id="Node000004" class="node">
<title>Node4</title>
<g id="a_Node000004"><a xlink:href="../../d8/d39/classmal__packet__weaver_1_1_session.html#a5cf271c70d7ec610cfb01d0ed8655693" target="_top" xlink:title="Constructor for the Session class.">
<polygon fill="white" stroke="#666666" points="99.25,-204.5 0,-204.5 0,-174 99.25,-174 99.25,-204.5"/>
<text text-anchor="start" x="8" y="-191" font-family="Times,serif" font-size="10.00">mal_packet_weaver::</text>
<text text-anchor="middle" x="49.62" y="-179.75" font-family="Times,serif" font-size="10.00">Session::Session</text>
</a>
</g>
</g>
<!-- Node3&#45;&gt;Node4 -->
<g id="edge3_Node000003_Node000004" class="edge">
<title>Node3&#45;&gt;Node4</title>
<g id="a_edge3_Node000003_Node000004"><a xlink:title=" ">
<path fill="none" stroke="#63b8ff" d="M128.53,-189.25C118.74,-189.25 108.73,-189.25 99.29,-189.25"/>
<polygon fill="#63b8ff" stroke="#63b8ff" points="128.45,-192.75 138.45,-189.25 128.45,-185.75 128.45,-192.75"/>
</a>
</g>
</g>
<!-- Node6 -->
<g id="Node000006" class="node">
<title>Node6</title>
<g id="a_Node000006"><a xlink:href="../../d4/d61/classmal__packet__weaver_1_1_packet_dispatcher.html#a1e7e2c9e624018e4a1046297453e0596" target="_top" xlink:title="Wait until the packet is registered in the dispatch system and return as soon as possible.">
<polygon fill="white" stroke="#666666" points="247.25,-150.12 135.25,-150.12 135.25,-108.38 247.25,-108.38 247.25,-150.12"/>
<text text-anchor="start" x="143.25" y="-136.62" font-family="Times,serif" font-size="10.00">mal_packet_weaver::</text>
<text text-anchor="start" x="143.25" y="-125.38" font-family="Times,serif" font-size="10.00">PacketDispatcher::await</text>
<text text-anchor="middle" x="191.25" y="-114.12" font-family="Times,serif" font-size="10.00">_packet</text>
</a>
</g>
</g>
<!-- Node5&#45;&gt;Node6 -->
<g id="edge5_Node000005_Node000006" class="edge">
<title>Node5&#45;&gt;Node6</title>
<g id="a_edge5_Node000005_Node000006"><a xlink:title=" ">
<path fill="none" stroke="#63b8ff" d="M293.34,-102.99C278.68,-106.8 262.5,-111 247.47,-114.9"/>
<polygon fill="#63b8ff" stroke="#63b8ff" points="293.92,-106.2 302.71,-100.29 292.16,-99.42 293.92,-106.2"/>
</a>
</g>
</g>
<!-- Node7 -->
<g id="Node000007" class="node">
<title>Node7</title>
<g id="a_Node000007"><a xlink:href="../../d4/d61/classmal__packet__weaver_1_1_packet_dispatcher.html#a5fa270876e67889a7524a186b297cd11" target="_top" xlink:title="Wait until a packet satisfying the filter condition is registered in the dispatch system and return a...">
<polygon fill="white" stroke="#666666" points="247.25,-90.12 135.25,-90.12 135.25,-48.38 247.25,-48.38 247.25,-90.12"/>
<text text-anchor="start" x="143.25" y="-76.62" font-family="Times,serif" font-size="10.00">mal_packet_weaver::</text>
<text text-anchor="start" x="143.25" y="-65.38" font-family="Times,serif" font-size="10.00">PacketDispatcher::await</text>
<text text-anchor="middle" x="191.25" y="-54.12" font-family="Times,serif" font-size="10.00">_packet</text>
</a>
</g>
</g>
<!-- Node5&#45;&gt;Node7 -->
<g id="edge6_Node000005_Node000007" class="edge">
<title>Node5&#45;&gt;Node7</title>
<g id="a_edge6_Node000005_Node000007"><a xlink:title=" ">
<path fill="none" stroke="#63b8ff" d="M286.81,-82.48C274.02,-80.69 260.41,-78.78 247.62,-77"/>
<polygon fill="#63b8ff" stroke="#63b8ff" points="285.94,-86.03 296.33,-83.95 286.91,-79.1 285.94,-86.03"/>
</a>
</g>
</g>
<!-- Node8 -->
<g id="Node000008" class="node">
<title>Node8</title>
<g id="a_Node000008"><a xlink:href="../../df/df5/namespacemal__toolkit.html#a6dd69b1a3c078b983b60645afa17b00c" target="_top" xlink:title="Convert a ByteView to an integer value of the specified type.">
<polygon fill="white" stroke="#666666" points="234.12,-30.5 148.38,-30.5 148.38,0 234.12,0 234.12,-30.5"/>
<text text-anchor="start" x="156.38" y="-17" font-family="Times,serif" font-size="10.00">mal_toolkit::bytes</text>
<text text-anchor="middle" x="191.25" y="-5.75" font-family="Times,serif" font-size="10.00">_to_integer</text>
</a>
</g>
</g>
<!-- Node5&#45;&gt;Node8 -->
<g id="edge7_Node000005_Node000008" class="edge">
<title>Node5&#45;&gt;Node8</title>
<g id="a_edge7_Node000005_Node000008"><a xlink:title=" ">
<path fill="none" stroke="#63b8ff" d="M293.29,-76.27C289.82,-74.74 286.44,-73.07 283.25,-71.25 264.66,-60.64 265.28,-50.78 247.25,-39.25 242.6,-36.27 237.52,-33.5 232.38,-30.98"/>
<polygon fill="#63b8ff" stroke="#63b8ff" points="291.64,-79.78 302.23,-80.22 294.22,-73.27 291.64,-79.78"/>
</a>
</g>
</g>
</g>
</svg>
