<?xml version="1.0" encoding="UTF-8" standalone="no"?>
<!DOCTYPE svg PUBLIC "-//W3C//DTD SVG 1.1//EN"
 "http://www.w3.org/Graphics/SVG/1.1/DTD/svg11.dtd">
<!-- Generated by graphviz version 9.0.0 (20230911.1827)
 -->
<!-- Title: mal_toolkit::GetFunctionAddress Pages: 1 -->
<svg width="289pt" height="88pt"
 viewBox="0.00 0.00 289.00 87.50" xmlns="http://www.w3.org/2000/svg" xmlns:xlink="http://www.w3.org/1999/xlink">
<g id="graph0" class="graph" transform="scale(1 1) rotate(0) translate(4 83.5)">
<title>mal_toolkit::GetFunctionAddress</title>
<!-- Node1 -->
<g id="Node000001" class="node">
<title>Node1</title>
<g id="a_Node000001"><a xlink:title="Get the address of a callable function.">
<polygon fill="#999999" stroke="#666666" points="281,-54.5 165.25,-54.5 165.25,-24 281,-24 281,-54.5"/>
<text text-anchor="start" x="173.25" y="-41" font-family="Times,serif" font-size="10.00">mal_toolkit::GetFunction</text>
<text text-anchor="middle" x="223.12" y="-29.75" font-family="Times,serif" font-size="10.00">Address</text>
</a>
</g>
</g>
<!-- Node2 -->
<g id="Node000002" class="node">
<title>Node2</title>
<g id="a_Node000002"><a xlink:href="../../dd/d83/classmal__toolkit_1_1_callback_system.html#a4bffec2006ea3caf16b5f1c1137cea05" target="_top" xlink:title="Add a new callback function.">
<polygon fill="white" stroke="#666666" points="129.25,-79.5 0,-79.5 0,-49 129.25,-49 129.25,-79.5"/>
<text text-anchor="start" x="8" y="-66" font-family="Times,serif" font-size="10.00">mal_toolkit::CallbackSystem</text>
<text text-anchor="middle" x="64.62" y="-54.75" font-family="Times,serif" font-size="10.00">::AddCallback</text>
</a>
</g>
</g>
<!-- Node1&#45;&gt;Node2 -->
<g id="edge1_Node000001_Node000002" class="edge">
<title>Node1&#45;&gt;Node2</title>
<g id="a_edge1_Node000001_Node000002"><a xlink:title=" ">
<path fill="none" stroke="#63b8ff" d="M153.93,-50.14C145.87,-51.43 137.67,-52.74 129.68,-54.02"/>
<polygon fill="#63b8ff" stroke="#63b8ff" points="154.36,-53.62 163.69,-48.59 153.26,-46.71 154.36,-53.62"/>
</a>
</g>
</g>
<!-- Node3 -->
<g id="Node000003" class="node">
<title>Node3</title>
<g id="a_Node000003"><a xlink:href="../../dd/d83/classmal__toolkit_1_1_callback_system.html#a8310ae5fc9ffc4084ca631ae6bd229ac" target="_top" xlink:title="Remove a callback by its function object.">
<polygon fill="white" stroke="#666666" points="129.25,-30.5 0,-30.5 0,0 129.25,0 129.25,-30.5"/>
<text text-anchor="start" x="8" y="-17" font-family="Times,serif" font-size="10.00">mal_toolkit::CallbackSystem</text>
<text text-anchor="middle" x="64.62" y="-5.75" font-family="Times,serif" font-size="10.00">::RemoveCallback</text>
</a>
</g>
</g>
<!-- Node1&#45;&gt;Node3 -->
<g id="edge2_Node000001_Node000003" class="edge">
<title>Node1&#45;&gt;Node3</title>
<g id="a_edge2_Node000001_Node000003"><a xlink:title=" ">
<path fill="none" stroke="#63b8ff" d="M153.93,-28.79C145.87,-27.56 137.67,-26.3 129.68,-25.07"/>
<polygon fill="#63b8ff" stroke="#63b8ff" points="153.27,-32.23 163.69,-30.29 154.33,-25.31 153.27,-32.23"/>
</a>
</g>
</g>
</g>
</svg>
