<?xml version="1.0" encoding="UTF-8" standalone="no"?>
<!DOCTYPE svg PUBLIC "-//W3C//DTD SVG 1.1//EN"
 "http://www.w3.org/Graphics/SVG/1.1/DTD/svg11.dtd">
<!-- Generated by graphviz version 9.0.0 (20230911.1827)
 -->
<!-- Title: mal_toolkit::bytes_to_integer Pages: 1 -->
<svg width="381pt" height="39pt"
 viewBox="0.00 0.00 380.75 38.50" xmlns="http://www.w3.org/2000/svg" xmlns:xlink="http://www.w3.org/1999/xlink">
<g id="graph0" class="graph" transform="scale(1 1) rotate(0) translate(4 34.5)">
<title>mal_toolkit::bytes_to_integer</title>
<!-- Node1 -->
<g id="Node000001" class="node">
<title>Node1</title>
<g id="a_Node000001"><a xlink:title="Convert a ByteView to an integer value of the specified type.">
<polygon fill="#999999" stroke="#666666" points="85.75,-30.5 0,-30.5 0,0 85.75,0 85.75,-30.5"/>
<text text-anchor="start" x="8" y="-17" font-family="Times,serif" font-size="10.00">mal_toolkit::bytes</text>
<text text-anchor="middle" x="42.88" y="-5.75" font-family="Times,serif" font-size="10.00">_to_integer</text>
</a>
</g>
</g>
<!-- Node2 -->
<g id="Node000002" class="node">
<title>Node2</title>
<g id="a_Node000002"><a xlink:href="../../df/df5/namespacemal__toolkit.html#a1a10dbab8f9e26361eaa4af07f31713d" target="_top" xlink:title="Asserts a condition with customizable behavior based on debug mode.">
<polygon fill="white" stroke="#666666" points="213.5,-24.88 121.75,-24.88 121.75,-5.63 213.5,-5.63 213.5,-24.88"/>
<text text-anchor="middle" x="167.62" y="-11.38" font-family="Times,serif" font-size="10.00">mal_toolkit::Assert</text>
</a>
</g>
</g>
<!-- Node1&#45;&gt;Node2 -->
<g id="edge1_Node000001_Node000002" class="edge">
<title>Node1&#45;&gt;Node2</title>
<g id="a_edge1_Node000001_Node000002"><a xlink:title=" ">
<path fill="none" stroke="#63b8ff" d="M86.12,-15.25C93.85,-15.25 102.03,-15.25 110.1,-15.25"/>
<polygon fill="#63b8ff" stroke="#63b8ff" points="109.86,-18.75 119.86,-15.25 109.86,-11.75 109.86,-18.75"/>
</a>
</g>
</g>
<!-- Node3 -->
<g id="Node000003" class="node">
<title>Node3</title>
<g id="a_Node000003"><a xlink:href="../../df/df5/namespacemal__toolkit.html#a27bf9441da264c7f90650042e9e30f40" target="_top" xlink:title="Returns an empty string representing the current source location.">
<polygon fill="white" stroke="#666666" points="372.75,-30.5 249.5,-30.5 249.5,0 372.75,0 372.75,-30.5"/>
<text text-anchor="start" x="257.5" y="-17" font-family="Times,serif" font-size="10.00">mal_toolkit::CurrentSource</text>
<text text-anchor="middle" x="311.12" y="-5.75" font-family="Times,serif" font-size="10.00">Location</text>
</a>
</g>
</g>
<!-- Node2&#45;&gt;Node3 -->
<g id="edge2_Node000002_Node000003" class="edge">
<title>Node2&#45;&gt;Node3</title>
<g id="a_edge2_Node000002_Node000003"><a xlink:title=" ">
<path fill="none" stroke="#63b8ff" d="M213.79,-15.25C221.43,-15.25 229.53,-15.25 237.66,-15.25"/>
<polygon fill="#63b8ff" stroke="#63b8ff" points="237.62,-18.75 247.62,-15.25 237.62,-11.75 237.62,-18.75"/>
</a>
</g>
</g>
</g>
</svg>
