<?xml version="1.0" encoding="UTF-8" standalone="no"?>
<!DOCTYPE svg PUBLIC "-//W3C//DTD SVG 1.1//EN"
 "http://www.w3.org/Graphics/SVG/1.1/DTD/svg11.dtd">
<!-- Generated by graphviz version 7.0.5 (20221223.1930)
 -->
<!-- Title: weaver::KeyView Pages: 1 -->
<svg width="102pt" height="205pt"
 viewBox="0.00 0.00 102.00 205.00" xmlns="http://www.w3.org/2000/svg" xmlns:xlink="http://www.w3.org/1999/xlink">
<g id="graph0" class="graph" transform="scale(1 1) rotate(0) translate(4 201)">
<title>weaver::KeyView</title>
<!-- Node1 -->
<g id="node1" class="node">
<title>Node1</title>
<g id="a_node1"><a xlink:title="Represents a view of a cryptographic key as a byte view.">
<polygon fill="#999999" stroke="#666666" points="92.5,-19 1.5,-19 1.5,0 92.5,0 92.5,-19"/>
<text text-anchor="middle" x="47" y="-7" font-family="Helvetica,sans-Serif" font-size="10.00">weaver::KeyView</text>
</a>
</g>
</g>
<!-- Node2 -->
<g id="node2" class="node">
<title>Node2</title>
<g id="a_node2"><a xlink:href="../../de/d13/structweaver_1_1_byte_view.html" target="_top" xlink:title="A lightweight view over a sequence of bytes.">
<polygon fill="white" stroke="#666666" points="94,-75 0,-75 0,-56 94,-56 94,-75"/>
<text text-anchor="middle" x="47" y="-63" font-family="Helvetica,sans-Serif" font-size="10.00">weaver::ByteView</text>
</a>
</g>
</g>
<!-- Node2&#45;&gt;Node1 -->
<g id="edge1" class="edge">
<title>Node2&#45;&gt;Node1</title>
<path fill="none" stroke="#63b8ff" d="M47,-44.11C47,-35.52 47,-25.97 47,-19.25"/>
<polygon fill="#63b8ff" stroke="#63b8ff" points="43.5,-44.07 47,-54.07 50.5,-44.07 43.5,-44.07"/>
</g>
<!-- Node3 -->
<g id="node3" class="node">
<title>Node3</title>
<g id="a_node3"><a xlink:title=" ">
<polygon fill="white" stroke="#666666" points="86,-131 8,-131 8,-112 86,-112 86,-131"/>
<text text-anchor="middle" x="47" y="-119" font-family="Helvetica,sans-Serif" font-size="10.00">std::span&lt; T &gt;</text>
</a>
</g>
</g>
<!-- Node3&#45;&gt;Node2 -->
<g id="edge2" class="edge">
<title>Node3&#45;&gt;Node2</title>
<path fill="none" stroke="#63b8ff" d="M47,-100.11C47,-91.52 47,-81.97 47,-75.25"/>
<polygon fill="#63b8ff" stroke="#63b8ff" points="43.5,-100.07 47,-110.07 50.5,-100.07 43.5,-100.07"/>
</g>
<!-- Node4 -->
<g id="node4" class="node">
<title>Node4</title>
<g id="a_node4"><a xlink:title=" ">
<polygon fill="white" stroke="#666666" points="61.5,-197 32.5,-197 32.5,-178 61.5,-178 61.5,-197"/>
<text text-anchor="middle" x="47" y="-185" font-family="Helvetica,sans-Serif" font-size="10.00">T</text>
</a>
</g>
</g>
<!-- Node4&#45;&gt;Node3 -->
<g id="edge3" class="edge">
<title>Node4&#45;&gt;Node3</title>
<path fill="none" stroke="#9a32cd" stroke-dasharray="5,2" d="M47,-166.18C47,-154.44 47,-140.27 47,-131.32"/>
<polygon fill="#9a32cd" stroke="#9a32cd" points="43.5,-166.09 47,-176.09 50.5,-166.09 43.5,-166.09"/>
<text text-anchor="middle" x="68.5" y="-152" font-family="Helvetica,sans-Serif" font-size="10.00"> elements</text>
</g>
</g>
</svg>
