<?xml version="1.0" encoding="UTF-8" standalone="no"?>
<!DOCTYPE svg PUBLIC "-//W3C//DTD SVG 1.1//EN"
 "http://www.w3.org/Graphics/SVG/1.1/DTD/svg11.dtd">
<!-- Generated by graphviz version 8.1.0 (20230707.0739)
 -->
<!-- Title: mal_packet_weaver::ExponentialBackoff::increase_delay Pages: 1 -->
<svg width="541pt" height="276pt"
 viewBox="0.00 0.00 540.75 276.12" xmlns="http://www.w3.org/2000/svg" xmlns:xlink="http://www.w3.org/1999/xlink">
<g id="graph0" class="graph" transform="scale(1 1) rotate(0) translate(4 272.12)">
<title>mal_packet_weaver::ExponentialBackoff::increase_delay</title>
<!-- Node1 -->
<g id="Node000001" class="node">
<title>Node1</title>
<g id="a_Node000001"><a xlink:title="Increase the backoff delay using exponential factor.">
<polygon fill="#999999" stroke="#666666" points="532.75,-149.12 433.5,-149.12 433.5,-107.38 532.75,-107.38 532.75,-149.12"/>
<text text-anchor="start" x="441.5" y="-135.62" font-family="Times,serif" font-size="10.00">mal_packet_weaver::</text>
<text text-anchor="start" x="441.5" y="-124.38" font-family="Times,serif" font-size="10.00">ExponentialBackoff::</text>
<text text-anchor="middle" x="483.12" y="-113.12" font-family="Times,serif" font-size="10.00">increase_delay</text>
</a>
</g>
</g>
<!-- Node2 -->
<g id="Node000002" class="node">
<title>Node2</title>
<g id="a_Node000002"><a xlink:href="../../d8/d39/classmal__packet__weaver_1_1_session.html#ab8d02d6502bb180c3b0f383b3fddc6ca" target="_top" xlink:title="Asynchronously forges new packets from the buffer.">
<polygon fill="white" stroke="#666666" points="238.25,-268.12 135.25,-268.12 135.25,-226.38 238.25,-226.38 238.25,-268.12"/>
<text text-anchor="start" x="143.25" y="-254.62" font-family="Times,serif" font-size="10.00">mal_packet_weaver::</text>
<text text-anchor="start" x="143.25" y="-243.38" font-family="Times,serif" font-size="10.00">Session::async_packet</text>
<text text-anchor="middle" x="186.75" y="-232.12" font-family="Times,serif" font-size="10.00">_forger</text>
</a>
</g>
</g>
<!-- Node1&#45;&gt;Node2 -->
<g id="edge1_Node000001_Node000002" class="edge">
<title>Node1&#45;&gt;Node2</title>
<g id="a_edge1_Node000001_Node000002"><a xlink:title=" ">
<path fill="none" stroke="#63b8ff" d="M454.12,-156.53C438.63,-170.69 418.34,-186.95 397.5,-197.25 346.66,-222.38 282.53,-235.28 238.65,-241.62"/>
<polygon fill="#63b8ff" stroke="#63b8ff" points="455.86,-159.76 460.76,-150.37 451.07,-154.66 455.86,-159.76"/>
</a>
</g>
</g>
<!-- Node4 -->
<g id="Node000004" class="node">
<title>Node4</title>
<g id="a_Node000004"><a xlink:href="../../d8/d39/classmal__packet__weaver_1_1_session.html#a95349691831542cec27090d0ab21ca88" target="_top" xlink:title="Asynchronously receives and processes incoming packets from the network.">
<polygon fill="white" stroke="#666666" points="238.25,-208.12 135.25,-208.12 135.25,-166.38 238.25,-166.38 238.25,-208.12"/>
<text text-anchor="start" x="143.25" y="-194.62" font-family="Times,serif" font-size="10.00">mal_packet_weaver::</text>
<text text-anchor="start" x="143.25" y="-183.38" font-family="Times,serif" font-size="10.00">Session::async_packet</text>
<text text-anchor="middle" x="186.75" y="-172.12" font-family="Times,serif" font-size="10.00">_sender</text>
</a>
</g>
</g>
<!-- Node1&#45;&gt;Node4 -->
<g id="edge3_Node000001_Node000004" class="edge">
<title>Node1&#45;&gt;Node4</title>
<g id="a_edge3_Node000001_Node000004"><a xlink:title=" ">
<path fill="none" stroke="#63b8ff" d="M441.56,-154.95C428.08,-162.53 412.63,-169.9 397.5,-174.25 344.73,-189.42 281.51,-191.25 238.37,-190.17"/>
<polygon fill="#63b8ff" stroke="#63b8ff" points="443.14,-157.5 450,-149.43 439.6,-151.45 443.14,-157.5"/>
</a>
</g>
</g>
<!-- Node5 -->
<g id="Node000005" class="node">
<title>Node5</title>
<g id="a_Node000005"><a xlink:href="../../d8/d39/classmal__packet__weaver_1_1_session.html#a44aae33be31d6dd7db9feb4142b3239e" target="_top" xlink:title="Retrieves a shared pointer to the current session.">
<polygon fill="white" stroke="#666666" points="391.12,-165.5 280.62,-165.5 280.62,-135 391.12,-135 391.12,-165.5"/>
<text text-anchor="start" x="288.62" y="-152" font-family="Times,serif" font-size="10.00">mal_packet_weaver::</text>
<text text-anchor="middle" x="335.88" y="-140.75" font-family="Times,serif" font-size="10.00">Session::get_shared_ptr</text>
</a>
</g>
</g>
<!-- Node1&#45;&gt;Node5 -->
<g id="edge5_Node000001_Node000005" class="edge">
<title>Node1&#45;&gt;Node5</title>
<g id="a_edge5_Node000001_Node000005"><a xlink:title=" ">
<path fill="none" stroke="#63b8ff" d="M422.76,-137.24C412.42,-138.81 401.72,-140.43 391.52,-141.97"/>
<polygon fill="#63b8ff" stroke="#63b8ff" points="422.99,-140.6 432.35,-135.64 421.94,-133.67 422.99,-140.6"/>
</a>
</g>
</g>
<!-- Node6 -->
<g id="Node000006" class="node">
<title>Node6</title>
<g id="a_Node000006"><a xlink:href="../../d8/d39/classmal__packet__weaver_1_1_session.html#a71ede34f71a6dc30d56d99015997caa3" target="_top" xlink:title="Asynchronously sends all packets in the queue through the network.">
<polygon fill="white" stroke="#666666" points="236.38,-148.5 137.12,-148.5 137.12,-118 236.38,-118 236.38,-148.5"/>
<text text-anchor="start" x="145.12" y="-135" font-family="Times,serif" font-size="10.00">mal_packet_weaver::</text>
<text text-anchor="middle" x="186.75" y="-123.75" font-family="Times,serif" font-size="10.00">Session::send_all</text>
</a>
</g>
</g>
<!-- Node1&#45;&gt;Node6 -->
<g id="edge9_Node000001_Node000006" class="edge">
<title>Node1&#45;&gt;Node6</title>
<g id="a_edge9_Node000001_Node000006"><a xlink:title=" ">
<path fill="none" stroke="#63b8ff" d="M422.46,-126.66C414.08,-126.49 405.57,-126.35 397.5,-126.25 342.73,-125.6 328.98,-124.04 274.25,-126.25 262.06,-126.74 248.92,-127.62 236.66,-128.6"/>
<polygon fill="#63b8ff" stroke="#63b8ff" points="422.28,-130.18 432.35,-126.9 422.43,-123.18 422.28,-130.18"/>
</a>
</g>
</g>
<!-- Node7 -->
<g id="Node000007" class="node">
<title>Node7</title>
<g id="a_Node000007"><a xlink:href="../../d8/d39/classmal__packet__weaver_1_1_session.html#a961d49d84fb1426fc605c529df1296d1" target="_top" xlink:title=" ">
<polygon fill="white" stroke="#666666" points="397.5,-79.5 274.25,-79.5 274.25,-49 397.5,-49 397.5,-79.5"/>
<text text-anchor="start" x="282.25" y="-66" font-family="Times,serif" font-size="10.00">mal_packet_weaver::</text>
<text text-anchor="middle" x="335.88" y="-54.75" font-family="Times,serif" font-size="10.00">Session::pop_packet_async</text>
</a>
</g>
</g>
<!-- Node1&#45;&gt;Node7 -->
<g id="edge8_Node000001_Node000007" class="edge">
<title>Node1&#45;&gt;Node7</title>
<g id="a_edge8_Node000001_Node000007"><a xlink:title=" ">
<path fill="none" stroke="#63b8ff" d="M424.14,-102.7C406.56,-94.95 387.78,-86.68 372.17,-79.8"/>
<polygon fill="#63b8ff" stroke="#63b8ff" points="422.2,-106.11 432.76,-106.94 425.02,-99.7 422.2,-106.11"/>
</a>
</g>
</g>
<!-- Node8 -->
<g id="Node000008" class="node">
<title>Node8</title>
<g id="a_Node000008"><a xlink:href="../../d8/d39/classmal__packet__weaver_1_1_session.html#a66b134c55cf54ac2e84daa77f381235e" target="_top" xlink:title="Sends any packet derived from DerivedPacket through the network.">
<polygon fill="white" stroke="#666666" points="385.5,-30.5 286.25,-30.5 286.25,0 385.5,0 385.5,-30.5"/>
<text text-anchor="start" x="294.25" y="-17" font-family="Times,serif" font-size="10.00">mal_packet_weaver::</text>
<text text-anchor="middle" x="335.88" y="-5.75" font-family="Times,serif" font-size="10.00">Session::send_packet</text>
</a>
</g>
</g>
<!-- Node1&#45;&gt;Node8 -->
<g id="edge10_Node000001_Node000008" class="edge">
<title>Node1&#45;&gt;Node8</title>
<g id="a_edge10_Node000001_Node000008"><a xlink:title=" ">
<path fill="none" stroke="#63b8ff" d="M459.01,-98.52C443.28,-79.84 421.09,-56.32 397.5,-40.25 392.42,-36.79 386.78,-33.68 381.06,-30.92"/>
<polygon fill="#63b8ff" stroke="#63b8ff" points="456.92,-100.49 465.98,-105.98 462.33,-96.04 456.92,-100.49"/>
</a>
</g>
</g>
<!-- Node3 -->
<g id="Node000003" class="node">
<title>Node3</title>
<g id="a_Node000003"><a xlink:href="../../d8/d39/classmal__packet__weaver_1_1_session.html#a5cf271c70d7ec610cfb01d0ed8655693" target="_top" xlink:title="Constructor for the Session class.">
<polygon fill="white" stroke="#666666" points="99.25,-202.5 0,-202.5 0,-172 99.25,-172 99.25,-202.5"/>
<text text-anchor="start" x="8" y="-189" font-family="Times,serif" font-size="10.00">mal_packet_weaver::</text>
<text text-anchor="middle" x="49.62" y="-177.75" font-family="Times,serif" font-size="10.00">Session::Session</text>
</a>
</g>
</g>
<!-- Node2&#45;&gt;Node3 -->
<g id="edge2_Node000002_Node000003" class="edge">
<title>Node2&#45;&gt;Node3</title>
<g id="a_edge2_Node000002_Node000003"><a xlink:title=" ">
<path fill="none" stroke="#63b8ff" d="M127.93,-221.57C113.58,-215.2 98.63,-208.57 85.75,-202.85"/>
<polygon fill="#63b8ff" stroke="#63b8ff" points="126.17,-225.07 136.73,-225.93 129.01,-218.67 126.17,-225.07"/>
</a>
</g>
</g>
<!-- Node4&#45;&gt;Node3 -->
<g id="edge4_Node000004_Node000003" class="edge">
<title>Node4&#45;&gt;Node3</title>
<g id="a_edge4_Node000004_Node000003"><a xlink:title=" ">
<path fill="none" stroke="#63b8ff" d="M124.21,-187.25C115.89,-187.25 107.43,-187.25 99.37,-187.25"/>
<polygon fill="#63b8ff" stroke="#63b8ff" points="124.05,-190.75 134.05,-187.25 124.05,-183.75 124.05,-190.75"/>
</a>
</g>
</g>
<!-- Node5&#45;&gt;Node6 -->
<g id="edge6_Node000005_Node000006" class="edge">
<title>Node5&#45;&gt;Node6</title>
<g id="a_edge6_Node000005_Node000006"><a xlink:title=" ">
<path fill="none" stroke="#63b8ff" d="M269.89,-142.74C258.69,-141.45 247.23,-140.12 236.55,-138.89"/>
<polygon fill="#63b8ff" stroke="#63b8ff" points="269.17,-146.3 279.51,-143.97 269.98,-139.34 269.17,-146.3"/>
</a>
</g>
</g>
<!-- Node6&#45;&gt;Node3 -->
<g id="edge7_Node000006_Node000003" class="edge">
<title>Node6&#45;&gt;Node3</title>
<g id="a_edge7_Node000006_Node000003"><a xlink:title=" ">
<path fill="none" stroke="#63b8ff" d="M136.72,-152.84C121.23,-159.04 104.32,-165.79 89.62,-171.67"/>
<polygon fill="#63b8ff" stroke="#63b8ff" points="137.68,-155.83 145.67,-148.87 135.08,-149.33 137.68,-155.83"/>
</a>
</g>
</g>
</g>
</svg>
