<?xml version="1.0" encoding="UTF-8" standalone="no"?>
<!DOCTYPE svg PUBLIC "-//W3C//DTD SVG 1.1//EN"
 "http://www.w3.org/Graphics/SVG/1.1/DTD/svg11.dtd">
<!-- Generated by graphviz version 8.1.0 (20230707.0739)
 -->
<!-- Title: mal_packet_weaver::portable_binary_iarchive Pages: 1 -->
<svg width="327pt" height="120pt"
 viewBox="0.00 0.00 326.50 120.38" xmlns="http://www.w3.org/2000/svg" xmlns:xlink="http://www.w3.org/1999/xlink">
<g id="graph0" class="graph" transform="scale(1 1) rotate(0) translate(4 116.38)">
<title>mal_packet_weaver::portable_binary_iarchive</title>
<!-- Node1 -->
<g id="Node000001" class="node">
<title>Node1</title>
<g id="a_Node000001"><a xlink:title=" ">
<polygon fill="#999999" stroke="#666666" points="318.5,-68.12 202.75,-68.12 202.75,-37.62 318.5,-37.62 318.5,-68.12"/>
<text text-anchor="start" x="210.75" y="-54.62" font-family="Times,serif" font-size="10.00">mal_packet_weaver::</text>
<text text-anchor="middle" x="260.62" y="-43.38" font-family="Times,serif" font-size="10.00">portable_binary_iarchive</text>
</a>
</g>
</g>
<!-- Node2 -->
<g id="Node000002" class="node">
<title>Node2</title>
<g id="a_Node000002"><a xlink:href="../../dd/d4d/classboost_1_1archive_1_1basic__binary__iprimitive.html" target="_top" xlink:title=" ">
<polygon fill="white" stroke="#666666" points="166.75,-112.38 0,-112.38 0,-59.38 166.75,-59.38 166.75,-112.38"/>
<text text-anchor="start" x="8" y="-98.88" font-family="Times,serif" font-size="10.00">boost::archive::basic</text>
<text text-anchor="start" x="8" y="-87.62" font-family="Times,serif" font-size="10.00">_binary_iprimitive&lt; portable</text>
<text text-anchor="start" x="8" y="-76.38" font-family="Times,serif" font-size="10.00">_binary_iarchive, std::istream</text>
<text text-anchor="middle" x="83.38" y="-65.12" font-family="Times,serif" font-size="10.00">::char_type, std::istream::traits_type &gt;</text>
</a>
</g>
</g>
<!-- Node2&#45;&gt;Node1 -->
<g id="edge1_Node000001_Node000002" class="edge">
<title>Node2&#45;&gt;Node1</title>
<g id="a_edge1_Node000001_Node000002"><a xlink:title=" ">
<path fill="none" stroke="#63b8ff" d="M177.79,-68.28C186.2,-66.7 194.53,-65.13 202.49,-63.63"/>
<polygon fill="#63b8ff" stroke="#63b8ff" points="177.3,-65 168.12,-70.29 178.6,-71.88 177.3,-65"/>
</a>
</g>
</g>
<!-- Node3 -->
<g id="Node000003" class="node">
<title>Node3</title>
<g id="a_Node000003"><a xlink:href="../../dd/dd2/classboost_1_1archive_1_1detail_1_1common__iarchive.html" target="_top" xlink:title=" ">
<polygon fill="white" stroke="#666666" points="149.12,-41.75 17.62,-41.75 17.62,0 149.12,0 149.12,-41.75"/>
<text text-anchor="start" x="25.62" y="-28.25" font-family="Times,serif" font-size="10.00">boost::archive::detail</text>
<text text-anchor="start" x="25.62" y="-17" font-family="Times,serif" font-size="10.00">::common_iarchive&lt; portable</text>
<text text-anchor="middle" x="83.38" y="-5.75" font-family="Times,serif" font-size="10.00">_binary_iarchive &gt;</text>
</a>
</g>
</g>
<!-- Node3&#45;&gt;Node1 -->
<g id="edge2_Node000001_Node000003" class="edge">
<title>Node3&#45;&gt;Node1</title>
<g id="a_edge2_Node000001_Node000003"><a xlink:title=" ">
<path fill="none" stroke="#63b8ff" d="M159.9,-34.67C174.13,-37.26 188.8,-39.94 202.35,-42.42"/>
<polygon fill="#63b8ff" stroke="#63b8ff" points="160.6,-31.05 150.13,-32.7 159.34,-37.94 160.6,-31.05"/>
</a>
</g>
</g>
</g>
</svg>
