<?xml version="1.0" encoding="UTF-8" standalone="no"?>
<!DOCTYPE svg PUBLIC "-//W3C//DTD SVG 1.1//EN"
 "http://www.w3.org/Graphics/SVG/1.1/DTD/svg11.dtd">
<!-- Generated by graphviz version 8.1.0 (20230707.0739)
 -->
<!-- Title: mal_packet_weaver::crypto::ECDSA::verify_data Pages: 1 -->
<!--zoomable 186 -->

<svg id="main" version="1.1" xmlns="http://www.w3.org/2000/svg" xmlns:xlink="http://www.w3.org/1999/xlink" xml:space="preserve" onload="init(evt)">
<style type="text/css"><![CDATA[
.node, .edge {opacity: 0.7;}
.node.selected, .edge.selected {opacity: 1;}
.edge:hover path { stroke: red; }
.edge:hover polygon { stroke: red; fill: red; }
]]></style>

<defs>
  <circle id="rim" cx="0" cy="0" r="7"/>
  <circle id="rim2" cx="0" cy="0" r="3.5"/>
  <g id="zoomPlus">
    <use xlink:href="#rim" fill="#404040"><set attributeName="fill" to="#808080" begin="zoomplus.mouseover" end="zoomplus.mouseout"/></use>
    <path d="M-4,0h8M0,-4v8" fill="none" stroke="white" stroke-width="1.5" pointer-events="none"/>
  </g>
  <g id="zoomMin">
    <use xlink:href="#rim" fill="#404040"><set attributeName="fill" to="#808080" begin="zoomminus.mouseover" end="zoomminus.mouseout"/></use>
    <path d="M-4,0h8" fill="none" stroke="white" stroke-width="1.5" pointer-events="none"/>
  </g>
  <g id="arrowUp" transform="translate(30 24)">
    <use xlink:href="#rim"/>
    <path pointer-events="none" fill="none" stroke="white" stroke-width="1.5" d="M0,-3.0v7 M-2.5,-0.5L0,-3.0L2.5,-0.5"/>
  </g>
  <g id="arrowRight" transform="rotate(90) translate(36 -43)">
    <use xlink:href="#rim"/>
    <path pointer-events="none" fill="none" stroke="white" stroke-width="1.5" d="M0,-3.0v7 M-2.5,-0.5L0,-3.0L2.5,-0.5"/>
  </g>
  <g id="arrowDown" transform="rotate(180) translate(-30 -48)">
    <use xlink:href="#rim"/>
    <path pointer-events="none" fill="none" stroke="white" stroke-width="1.5" d="M0,-3.0v7 M-2.5,-0.5L0,-3.0L2.5,-0.5"/>
  </g>
  <g id="arrowLeft" transform="rotate(270) translate(-36 17)">
    <use xlink:href="#rim"/>
    <path pointer-events="none" fill="none" stroke="white" stroke-width="1.5" d="M0,-3.0v7 M-2.5,-0.5L0,-3.0L2.5,-0.5"/>
  </g>
  <g id="resetDef">
    <use xlink:href="#rim2" fill="#404040"><set attributeName="fill" to="#808080" begin="reset.mouseover" end="reset.mouseout"/></use>
  </g>
</defs>
<script type="application/ecmascript">
var viewWidth = 597;
var viewHeight = 186;
var sectionId = 'dynsection-3';
</script>
<script type="application/ecmascript" xlink:href="../../svg.min.js"/>
<svg id="graph" class="graph">
<g id="viewport">
<title>mal_packet_weaver::crypto::ECDSA::verify_data</title>
<!-- Node1 -->
<g id="Node000001" class="node">
<title>Node1</title>
<g id="a_Node000001"><a xlink:title=" ">
<polygon fill="#999999" stroke="#666666" points="130,-106.5 0,-106.5 0,-76 130,-76 130,-106.5"/>
<text text-anchor="start" x="8" y="-93" font-family="Times,serif" font-size="10.00">mal_packet_weaver::</text>
<text text-anchor="middle" x="65" y="-81.75" font-family="Times,serif" font-size="10.00">crypto::ECDSA::verify_data</text>
</a>
</g>
</g>
<!-- Node2 -->
<g id="Node000002" class="node">
<title>Node2</title>
<g id="a_Node000002"><a xlink:href="../../df/d2a/classmal__packet__weaver_1_1crypto_1_1_e_c_d_s_a_1_1_verifier.html#abcc0625ece25e293be526e07ad78d6d5" target="_top" xlink:title="Verifies the signature of binary data.">
<polygon fill="white" stroke="#666666" points="281.75,-112.12 166,-112.12 166,-70.38 281.75,-70.38 281.75,-112.12"/>
<text text-anchor="start" x="174" y="-98.62" font-family="Times,serif" font-size="10.00">mal_packet_weaver::</text>
<text text-anchor="start" x="174" y="-87.38" font-family="Times,serif" font-size="10.00">crypto::ECDSA::Verifier</text>
<text text-anchor="middle" x="223.88" y="-76.12" font-family="Times,serif" font-size="10.00">::verify_data</text>
</a>
</g>
</g>
<!-- Node1&#45;&gt;Node2 -->
<g id="edge1_Node000001_Node000002" class="edge">
<title>Node1&#45;&gt;Node2</title>
<g id="a_edge1_Node000001_Node000002"><a xlink:title=" ">
<path fill="none" stroke="#63b8ff" d="M130.26,-91.25C138.29,-91.25 146.52,-91.25 154.61,-91.25"/>
<polygon fill="#63b8ff" stroke="#63b8ff" points="154.51,-94.75 164.51,-91.25 154.51,-87.75 154.51,-94.75"/>
</a>
</g>
</g>
<!-- Node3 -->
<g id="Node000003" class="node">
<title>Node3</title>
<g id="a_Node000003"><a xlink:href="../../dd/dd7/namespacemal__packet__weaver_1_1crypto_1_1_s_h_a.html#a11d1f9c659cddb5ebfa6f560e4772fb2" target="_top" xlink:title="Computes a hash value for the given data using the specified hash algorithm.">
<polygon fill="white" stroke="#666666" points="447,-133.5 317.75,-133.5 317.75,-103 447,-103 447,-133.5"/>
<text text-anchor="start" x="325.75" y="-120" font-family="Times,serif" font-size="10.00">mal_packet_weaver::</text>
<text text-anchor="middle" x="382.38" y="-108.75" font-family="Times,serif" font-size="10.00">crypto::SHA::ComputeHash</text>
</a>
</g>
</g>
<!-- Node2&#45;&gt;Node3 -->
<g id="edge2_Node000002_Node000003" class="edge">
<title>Node2&#45;&gt;Node3</title>
<g id="a_edge2_Node000002_Node000003"><a xlink:title=" ">
<path fill="none" stroke="#63b8ff" d="M281.82,-101.07C289.93,-102.47 298.37,-103.93 306.76,-105.38"/>
<polygon fill="#63b8ff" stroke="#63b8ff" points="305.87,-108.95 316.32,-107.2 307.06,-102.05 305.87,-108.95"/>
</a>
</g>
</g>
<!-- Node6 -->
<g id="Node000006" class="node">
<title>Node6</title>
<g id="a_Node000006"><a xlink:href="../../df/d2a/classmal__packet__weaver_1_1crypto_1_1_e_c_d_s_a_1_1_verifier.html#a7dadcfb3708f7f300b62d57574c71543" target="_top" xlink:title="Verifies a hash&#39;s signature.">
<polygon fill="white" stroke="#666666" points="440.25,-85.12 324.5,-85.12 324.5,-43.38 440.25,-43.38 440.25,-85.12"/>
<text text-anchor="start" x="332.5" y="-71.62" font-family="Times,serif" font-size="10.00">mal_packet_weaver::</text>
<text text-anchor="start" x="332.5" y="-60.38" font-family="Times,serif" font-size="10.00">crypto::ECDSA::Verifier</text>
<text text-anchor="middle" x="382.38" y="-49.12" font-family="Times,serif" font-size="10.00">::verify_hash</text>
</a>
</g>
</g>
<!-- Node2&#45;&gt;Node6 -->
<g id="edge5_Node000002_Node000006" class="edge">
<title>Node2&#45;&gt;Node6</title>
<g id="a_edge5_Node000002_Node000006"><a xlink:title=" ">
<path fill="none" stroke="#63b8ff" d="M281.82,-81.43C292.17,-79.64 303.07,-77.76 313.7,-75.93"/>
<polygon fill="#63b8ff" stroke="#63b8ff" points="313.95,-79.26 323.21,-74.11 312.76,-72.36 313.95,-79.26"/>
</a>
</g>
</g>
<!-- Node4 -->
<g id="Node000004" class="node">
<title>Node4</title>
<g id="a_Node000004"><a xlink:href="../../d4/d9d/structmal__packet__weaver_1_1_byte_array.html#a5ce0c445aa4f44df9f44ddcfe8bff0ef" target="_top" xlink:title="Convert the ByteArray to a typed pointer.">
<polygon fill="white" stroke="#666666" points="585.62,-177.5 486.38,-177.5 486.38,-147 585.62,-147 585.62,-177.5"/>
<text text-anchor="start" x="494.38" y="-164" font-family="Times,serif" font-size="10.00">mal_packet_weaver::</text>
<text text-anchor="middle" x="536" y="-152.75" font-family="Times,serif" font-size="10.00">ByteArray::as</text>
</a>
</g>
</g>
<!-- Node3&#45;&gt;Node4 -->
<g id="edge3_Node000003_Node000004" class="edge">
<title>Node3&#45;&gt;Node4</title>
<g id="a_edge3_Node000003_Node000004"><a xlink:title=" ">
<path fill="none" stroke="#63b8ff" d="M437.26,-133.89C449.69,-137.5 462.99,-141.35 475.65,-145.03"/>
<polygon fill="#63b8ff" stroke="#63b8ff" points="474.51,-148.63 485.09,-148.06 476.46,-141.91 474.51,-148.63"/>
</a>
</g>
</g>
<!-- Node5 -->
<g id="Node000005" class="node">
<title>Node5</title>
<g id="a_Node000005"><a xlink:href="../../d7/d41/structmal__packet__weaver_1_1_byte_view.html#a642359fac9a65d40ddf6c01077ffade3" target="_top" xlink:title="Convert the ByteView to a typed view.">
<polygon fill="white" stroke="#666666" points="585.62,-128.5 486.38,-128.5 486.38,-98 585.62,-98 585.62,-128.5"/>
<text text-anchor="start" x="494.38" y="-115" font-family="Times,serif" font-size="10.00">mal_packet_weaver::</text>
<text text-anchor="middle" x="536" y="-103.75" font-family="Times,serif" font-size="10.00">ByteView::as</text>
</a>
</g>
</g>
<!-- Node3&#45;&gt;Node5 -->
<g id="edge4_Node000003_Node000005" class="edge">
<title>Node3&#45;&gt;Node5</title>
<g id="a_edge4_Node000003_Node000005"><a xlink:title=" ">
<path fill="none" stroke="#63b8ff" d="M447.24,-116.14C456.44,-115.84 465.89,-115.53 475.02,-115.23"/>
<polygon fill="#63b8ff" stroke="#63b8ff" points="475.08,-118.7 484.95,-114.87 474.84,-111.7 475.08,-118.7"/>
</a>
</g>
</g>
<!-- Node6&#45;&gt;Node5 -->
<g id="edge6_Node000006_Node000005" class="edge">
<title>Node6&#45;&gt;Node5</title>
<g id="a_edge6_Node000006_Node000005"><a xlink:title=" ">
<path fill="none" stroke="#63b8ff" d="M440.7,-82.77C452.37,-86.55 464.67,-90.52 476.39,-94.31"/>
<polygon fill="#63b8ff" stroke="#63b8ff" points="474.92,-97.84 485.51,-97.58 477.07,-91.17 474.92,-97.84"/>
</a>
</g>
</g>
<!-- Node7 -->
<g id="Node000007" class="node">
<title>Node7</title>
<g id="a_Node000007"><a xlink:href="../../d4/dce/structmal__packet__weaver_1_1crypto_1_1_hash.html#a56814e7ed05e83459d82911f73a546a6" target="_top" xlink:title="Returns the hash value as an array of uint8_t.">
<polygon fill="white" stroke="#666666" points="589,-79.5 483,-79.5 483,-49 589,-49 589,-79.5"/>
<text text-anchor="start" x="491" y="-66" font-family="Times,serif" font-size="10.00">mal_packet_weaver::</text>
<text text-anchor="middle" x="536" y="-54.75" font-family="Times,serif" font-size="10.00">crypto::Hash::as_uint8</text>
</a>
</g>
</g>
<!-- Node6&#45;&gt;Node7 -->
<g id="edge7_Node000006_Node000007" class="edge">
<title>Node6&#45;&gt;Node7</title>
<g id="a_edge7_Node000006_Node000007"><a xlink:title=" ">
<path fill="none" stroke="#63b8ff" d="M440.7,-64.25C450.8,-64.25 461.36,-64.25 471.62,-64.25"/>
<polygon fill="#63b8ff" stroke="#63b8ff" points="471.59,-67.75 481.59,-64.25 471.59,-60.75 471.59,-67.75"/>
</a>
</g>
</g>
<!-- Node8 -->
<g id="Node000008" class="node">
<title>Node8</title>
<g id="a_Node000008"><a xlink:href="../../d4/dce/structmal__packet__weaver_1_1crypto_1_1_hash.html#a1a1c4c13a115cbd43ac275fef6f3966d" target="_top" xlink:title="Returns the size of the hash value in bytes.">
<polygon fill="white" stroke="#666666" points="585.62,-30.5 486.38,-30.5 486.38,0 585.62,0 585.62,-30.5"/>
<text text-anchor="start" x="494.38" y="-17" font-family="Times,serif" font-size="10.00">mal_packet_weaver::</text>
<text text-anchor="middle" x="536" y="-5.75" font-family="Times,serif" font-size="10.00">crypto::Hash::size</text>
</a>
</g>
</g>
<!-- Node6&#45;&gt;Node8 -->
<g id="edge8_Node000006_Node000008" class="edge">
<title>Node6&#45;&gt;Node8</title>
<g id="a_edge8_Node000006_Node000008"><a xlink:title=" ">
<path fill="none" stroke="#63b8ff" d="M440.7,-45.73C452.37,-41.95 464.67,-37.98 476.39,-34.19"/>
<polygon fill="#63b8ff" stroke="#63b8ff" points="477.07,-37.33 485.51,-30.92 474.92,-30.66 477.07,-37.33"/>
</a>
</g>
</g>
</g>
</svg>

<g id="navigator" transform="translate(0 0)" fill="#404254">
  <rect fill="#f2f5e9" fill-opacity="0.5" stroke="#606060" stroke-width=".5" x="0" y="0" width="60" height="60"/>
  <use id="zoomplus" xlink:href="#zoomPlus" x="17" y="9" onmousedown="handleZoom(evt,'in')"/>
  <use id="zoomminus" xlink:href="#zoomMin" x="42" y="9" onmousedown="handleZoom(evt,'out')"/>
  <use id="reset" xlink:href="#resetDef" x="30" y="36" onmousedown="handleReset()"/>
   <use id="arrowup" xlink:href="#arrowUp" x="0" y="0" onmousedown="handlePan(0,-1)"/>
  <use id="arrowright" xlink:href="#arrowRight" x="0" y="0" onmousedown="handlePan(1,0)"/>
  <use id="arrowdown" xlink:href="#arrowDown" x="0" y="0" onmousedown="handlePan(0,1)"/>
  <use id="arrowleft" xlink:href="#arrowLeft" x="0" y="0" onmousedown="handlePan(-1,0)"/>
</g>
<svg viewBox="0 0 15 15" width="100%" height="30px" preserveAspectRatio="xMaxYMin meet">
 <g id="arrow_out" transform="scale(0.3 0.3)">
  <a xlink:href="namespacemal__packet__weaver_1_1crypto_1_1_e_c_d_s_a_a945499cfa6f78a7ab8ad28f12064a9ea_cgraph_org.svg" target="_base">
   <rect id="button" ry="5" rx="5" y="6" x="6" height="38" width="38"
        fill="#f2f5e9" fill-opacity="0.5" stroke="#606060" stroke-width="1.0"/>
   <path id="arrow"
     d="M 11.500037,31.436501 C 11.940474,20.09759 22.043105,11.32322 32.158766,21.979434 L 37.068811,17.246167 C 37.068811,17.246167 37.088388,32 37.088388,32 L 22.160133,31.978069 C 22.160133,31.978069 26.997745,27.140456 26.997745,27.140456 C 18.528582,18.264221 13.291696,25.230495 11.500037,31.436501 z"
     style="fill:#404040;"/>
  </a>
 </g>
</svg>

<style type='text/css'>
<![CDATA[
[data-mouse-over-selected='false'] { opacity: 0.7; }
[data-mouse-over-selected='true']  { opacity: 1.0; }
]]>
</style>
<script type="application/ecmascript"><![CDATA[
document.addEventListener('DOMContentLoaded', (event) => {
  highlightEdges();
  highlightAdjacentNodes();
});
]]></script>
</svg>
