<?xml version="1.0" encoding="UTF-8" standalone="no"?>
<!DOCTYPE svg PUBLIC "-//W3C//DTD SVG 1.1//EN"
 "http://www.w3.org/Graphics/SVG/1.1/DTD/svg11.dtd">
<!-- Generated by graphviz version 8.1.0 (20230707.0739)
 -->
<!-- Title: mal_packet_weaver::crypto::ECDSA::verify_hash Pages: 1 -->
<svg width="433pt" height="137pt"
 viewBox="0.00 0.00 433.25 136.50" xmlns="http://www.w3.org/2000/svg" xmlns:xlink="http://www.w3.org/1999/xlink">
<g id="graph0" class="graph" transform="scale(1 1) rotate(0) translate(4 132.5)">
<title>mal_packet_weaver::crypto::ECDSA::verify_hash</title>
<!-- Node1 -->
<g id="Node000001" class="node">
<title>Node1</title>
<g id="a_Node000001"><a xlink:title=" ">
<polygon fill="#999999" stroke="#666666" points="131.5,-79.5 0,-79.5 0,-49 131.5,-49 131.5,-79.5"/>
<text text-anchor="start" x="8" y="-66" font-family="Times,serif" font-size="10.00">mal_packet_weaver::</text>
<text text-anchor="middle" x="65.75" y="-54.75" font-family="Times,serif" font-size="10.00">crypto::ECDSA::verify_hash</text>
</a>
</g>
</g>
<!-- Node2 -->
<g id="Node000002" class="node">
<title>Node2</title>
<g id="a_Node000002"><a xlink:href="../../df/d2a/classmal__packet__weaver_1_1crypto_1_1_e_c_d_s_a_1_1_verifier.html#a7dadcfb3708f7f300b62d57574c71543" target="_top" xlink:title="Verifies a hash&#39;s signature.">
<polygon fill="white" stroke="#666666" points="283.25,-85.12 167.5,-85.12 167.5,-43.38 283.25,-43.38 283.25,-85.12"/>
<text text-anchor="start" x="175.5" y="-71.62" font-family="Times,serif" font-size="10.00">mal_packet_weaver::</text>
<text text-anchor="start" x="175.5" y="-60.38" font-family="Times,serif" font-size="10.00">crypto::ECDSA::Verifier</text>
<text text-anchor="middle" x="225.38" y="-49.12" font-family="Times,serif" font-size="10.00">::verify_hash</text>
</a>
</g>
</g>
<!-- Node1&#45;&gt;Node2 -->
<g id="edge1_Node000001_Node000002" class="edge">
<title>Node1&#45;&gt;Node2</title>
<g id="a_edge1_Node000001_Node000002"><a xlink:title=" ">
<path fill="none" stroke="#63b8ff" d="M131.77,-64.25C139.82,-64.25 148.06,-64.25 156.15,-64.25"/>
<polygon fill="#63b8ff" stroke="#63b8ff" points="156.06,-67.75 166.06,-64.25 156.06,-60.75 156.06,-67.75"/>
</a>
</g>
</g>
<!-- Node3 -->
<g id="Node000003" class="node">
<title>Node3</title>
<g id="a_Node000003"><a xlink:href="../../d7/d41/structmal__packet__weaver_1_1_byte_view.html#a642359fac9a65d40ddf6c01077ffade3" target="_top" xlink:title="Convert the ByteView to a typed view.">
<polygon fill="white" stroke="#666666" points="421.88,-128.5 322.62,-128.5 322.62,-98 421.88,-98 421.88,-128.5"/>
<text text-anchor="start" x="330.62" y="-115" font-family="Times,serif" font-size="10.00">mal_packet_weaver::</text>
<text text-anchor="middle" x="372.25" y="-103.75" font-family="Times,serif" font-size="10.00">ByteView::as</text>
</a>
</g>
</g>
<!-- Node2&#45;&gt;Node3 -->
<g id="edge2_Node000002_Node000003" class="edge">
<title>Node2&#45;&gt;Node3</title>
<g id="a_edge2_Node000002_Node000003"><a xlink:title=" ">
<path fill="none" stroke="#63b8ff" d="M283.63,-83.62C293.95,-87.11 304.71,-90.74 315,-94.22"/>
<polygon fill="#63b8ff" stroke="#63b8ff" points="313.51,-97.75 324.11,-97.64 315.75,-91.12 313.51,-97.75"/>
</a>
</g>
</g>
<!-- Node4 -->
<g id="Node000004" class="node">
<title>Node4</title>
<g id="a_Node000004"><a xlink:href="../../d4/dce/structmal__packet__weaver_1_1crypto_1_1_hash.html#a56814e7ed05e83459d82911f73a546a6" target="_top" xlink:title="Returns the hash value as an array of uint8_t.">
<polygon fill="white" stroke="#666666" points="425.25,-79.5 319.25,-79.5 319.25,-49 425.25,-49 425.25,-79.5"/>
<text text-anchor="start" x="327.25" y="-66" font-family="Times,serif" font-size="10.00">mal_packet_weaver::</text>
<text text-anchor="middle" x="372.25" y="-54.75" font-family="Times,serif" font-size="10.00">crypto::Hash::as_uint8</text>
</a>
</g>
</g>
<!-- Node2&#45;&gt;Node4 -->
<g id="edge3_Node000002_Node000004" class="edge">
<title>Node2&#45;&gt;Node4</title>
<g id="a_edge3_Node000002_Node000004"><a xlink:title=" ">
<path fill="none" stroke="#63b8ff" d="M283.63,-64.25C291.68,-64.25 299.99,-64.25 308.14,-64.25"/>
<polygon fill="#63b8ff" stroke="#63b8ff" points="308.11,-67.75 318.11,-64.25 308.11,-60.75 308.11,-67.75"/>
</a>
</g>
</g>
<!-- Node5 -->
<g id="Node000005" class="node">
<title>Node5</title>
<g id="a_Node000005"><a xlink:href="../../d4/dce/structmal__packet__weaver_1_1crypto_1_1_hash.html#a1a1c4c13a115cbd43ac275fef6f3966d" target="_top" xlink:title="Returns the size of the hash value in bytes.">
<polygon fill="white" stroke="#666666" points="421.88,-30.5 322.62,-30.5 322.62,0 421.88,0 421.88,-30.5"/>
<text text-anchor="start" x="330.62" y="-17" font-family="Times,serif" font-size="10.00">mal_packet_weaver::</text>
<text text-anchor="middle" x="372.25" y="-5.75" font-family="Times,serif" font-size="10.00">crypto::Hash::size</text>
</a>
</g>
</g>
<!-- Node2&#45;&gt;Node5 -->
<g id="edge4_Node000002_Node000005" class="edge">
<title>Node2&#45;&gt;Node5</title>
<g id="a_edge4_Node000002_Node000005"><a xlink:title=" ">
<path fill="none" stroke="#63b8ff" d="M283.63,-44.88C293.95,-41.39 304.71,-37.76 315,-34.28"/>
<polygon fill="#63b8ff" stroke="#63b8ff" points="315.75,-37.38 324.11,-30.86 313.51,-30.75 315.75,-37.38"/>
</a>
</g>
</g>
</g>
</svg>
