<?xml version="1.0" encoding="UTF-8" standalone="no"?>
<!DOCTYPE svg PUBLIC "-//W3C//DTD SVG 1.1//EN"
 "http://www.w3.org/Graphics/SVG/1.1/DTD/svg11.dtd">
<!-- Generated by graphviz version 8.1.0 (20230707.0739)
 -->
<!-- Title: mal_packet_weaver::crypto::ECDSA::sign_data Pages: 1 -->
<svg width="583pt" height="186pt"
 viewBox="0.00 0.00 582.75 185.50" xmlns="http://www.w3.org/2000/svg" xmlns:xlink="http://www.w3.org/1999/xlink">
<g id="graph0" class="graph" transform="scale(1 1) rotate(0) translate(4 181.5)">
<title>mal_packet_weaver::crypto::ECDSA::sign_data</title>
<!-- Node1 -->
<g id="Node000001" class="node">
<title>Node1</title>
<g id="a_Node000001"><a xlink:title=" ">
<polygon fill="#999999" stroke="#666666" points="122.5,-106.5 0,-106.5 0,-76 122.5,-76 122.5,-106.5"/>
<text text-anchor="start" x="8" y="-93" font-family="Times,serif" font-size="10.00">mal_packet_weaver::</text>
<text text-anchor="middle" x="61.25" y="-81.75" font-family="Times,serif" font-size="10.00">crypto::ECDSA::sign_data</text>
</a>
</g>
</g>
<!-- Node2 -->
<g id="Node000002" class="node">
<title>Node2</title>
<g id="a_Node000002"><a xlink:href="../../d8/d88/classmal__packet__weaver_1_1crypto_1_1_e_c_d_s_a_1_1_signer.html#a80725b1d55e0efaa11469e3182f0b1c2" target="_top" xlink:title="Signs binary data using the private key.">
<polygon fill="white" stroke="#666666" points="267.5,-112.12 158.5,-112.12 158.5,-70.38 267.5,-70.38 267.5,-112.12"/>
<text text-anchor="start" x="166.5" y="-98.62" font-family="Times,serif" font-size="10.00">mal_packet_weaver::</text>
<text text-anchor="start" x="166.5" y="-87.38" font-family="Times,serif" font-size="10.00">crypto::ECDSA::Signer</text>
<text text-anchor="middle" x="213" y="-76.12" font-family="Times,serif" font-size="10.00">::sign_data</text>
</a>
</g>
</g>
<!-- Node1&#45;&gt;Node2 -->
<g id="edge1_Node000001_Node000002" class="edge">
<title>Node1&#45;&gt;Node2</title>
<g id="a_edge1_Node000001_Node000002"><a xlink:title=" ">
<path fill="none" stroke="#63b8ff" d="M122.73,-91.25C130.76,-91.25 139.03,-91.25 147.14,-91.25"/>
<polygon fill="#63b8ff" stroke="#63b8ff" points="147.06,-94.75 157.06,-91.25 147.06,-87.75 147.06,-94.75"/>
</a>
</g>
</g>
<!-- Node3 -->
<g id="Node000003" class="node">
<title>Node3</title>
<g id="a_Node000003"><a xlink:href="../../dd/dd7/namespacemal__packet__weaver_1_1crypto_1_1_s_h_a.html#a11d1f9c659cddb5ebfa6f560e4772fb2" target="_top" xlink:title="Computes a hash value for the given data using the specified hash algorithm.">
<polygon fill="white" stroke="#666666" points="432.75,-133.5 303.5,-133.5 303.5,-103 432.75,-103 432.75,-133.5"/>
<text text-anchor="start" x="311.5" y="-120" font-family="Times,serif" font-size="10.00">mal_packet_weaver::</text>
<text text-anchor="middle" x="368.12" y="-108.75" font-family="Times,serif" font-size="10.00">crypto::SHA::ComputeHash</text>
</a>
</g>
</g>
<!-- Node2&#45;&gt;Node3 -->
<g id="edge2_Node000002_Node000003" class="edge">
<title>Node2&#45;&gt;Node3</title>
<g id="a_edge2_Node000002_Node000003"><a xlink:title=" ">
<path fill="none" stroke="#63b8ff" d="M267.99,-100.77C275.89,-102.16 284.14,-103.62 292.37,-105.07"/>
<polygon fill="#63b8ff" stroke="#63b8ff" points="291.68,-108.68 302.14,-106.97 292.9,-101.78 291.68,-108.68"/>
</a>
</g>
</g>
<!-- Node6 -->
<g id="Node000006" class="node">
<title>Node6</title>
<g id="a_Node000006"><a xlink:href="../../d8/d88/classmal__packet__weaver_1_1crypto_1_1_e_c_d_s_a_1_1_signer.html#aa761598eda68fe2af6fd32c45dc0de64" target="_top" xlink:title="Signs a hash using the private key.">
<polygon fill="white" stroke="#666666" points="422.62,-85.12 313.62,-85.12 313.62,-43.38 422.62,-43.38 422.62,-85.12"/>
<text text-anchor="start" x="321.62" y="-71.62" font-family="Times,serif" font-size="10.00">mal_packet_weaver::</text>
<text text-anchor="start" x="321.62" y="-60.38" font-family="Times,serif" font-size="10.00">crypto::ECDSA::Signer</text>
<text text-anchor="middle" x="368.12" y="-49.12" font-family="Times,serif" font-size="10.00">::sign_hash</text>
</a>
</g>
</g>
<!-- Node2&#45;&gt;Node6 -->
<g id="edge5_Node000002_Node000006" class="edge">
<title>Node2&#45;&gt;Node6</title>
<g id="a_edge5_Node000002_Node000006"><a xlink:title=" ">
<path fill="none" stroke="#63b8ff" d="M267.99,-81.73C279.26,-79.74 291.25,-77.63 302.85,-75.58"/>
<polygon fill="#63b8ff" stroke="#63b8ff" points="303.13,-78.91 312.37,-73.73 301.91,-72.02 303.13,-78.91"/>
</a>
</g>
</g>
<!-- Node4 -->
<g id="Node000004" class="node">
<title>Node4</title>
<g id="a_Node000004"><a xlink:href="../../d4/d9d/structmal__packet__weaver_1_1_byte_array.html#a5ce0c445aa4f44df9f44ddcfe8bff0ef" target="_top" xlink:title="Convert the ByteArray to a typed pointer.">
<polygon fill="white" stroke="#666666" points="571.38,-128.5 472.12,-128.5 472.12,-98 571.38,-98 571.38,-128.5"/>
<text text-anchor="start" x="480.12" y="-115" font-family="Times,serif" font-size="10.00">mal_packet_weaver::</text>
<text text-anchor="middle" x="521.75" y="-103.75" font-family="Times,serif" font-size="10.00">ByteArray::as</text>
</a>
</g>
</g>
<!-- Node3&#45;&gt;Node4 -->
<g id="edge3_Node000003_Node000004" class="edge">
<title>Node3&#45;&gt;Node4</title>
<g id="a_edge3_Node000003_Node000004"><a xlink:title=" ">
<path fill="none" stroke="#63b8ff" d="M432.99,-116.14C442.19,-115.84 451.64,-115.53 460.77,-115.23"/>
<polygon fill="#63b8ff" stroke="#63b8ff" points="460.83,-118.7 470.7,-114.87 460.59,-111.7 460.83,-118.7"/>
</a>
</g>
</g>
<!-- Node5 -->
<g id="Node000005" class="node">
<title>Node5</title>
<g id="a_Node000005"><a xlink:href="../../d7/d41/structmal__packet__weaver_1_1_byte_view.html#a642359fac9a65d40ddf6c01077ffade3" target="_top" xlink:title="Convert the ByteView to a typed view.">
<polygon fill="white" stroke="#666666" points="571.38,-177.5 472.12,-177.5 472.12,-147 571.38,-147 571.38,-177.5"/>
<text text-anchor="start" x="480.12" y="-164" font-family="Times,serif" font-size="10.00">mal_packet_weaver::</text>
<text text-anchor="middle" x="521.75" y="-152.75" font-family="Times,serif" font-size="10.00">ByteView::as</text>
</a>
</g>
</g>
<!-- Node3&#45;&gt;Node5 -->
<g id="edge4_Node000003_Node000005" class="edge">
<title>Node3&#45;&gt;Node5</title>
<g id="a_edge4_Node000003_Node000005"><a xlink:title=" ">
<path fill="none" stroke="#63b8ff" d="M423.01,-133.89C435.44,-137.5 448.74,-141.35 461.4,-145.03"/>
<polygon fill="#63b8ff" stroke="#63b8ff" points="460.26,-148.63 470.84,-148.06 462.21,-141.91 460.26,-148.63"/>
</a>
</g>
</g>
<!-- Node6&#45;&gt;Node4 -->
<g id="edge6_Node000006_Node000004" class="edge">
<title>Node6&#45;&gt;Node4</title>
<g id="a_edge6_Node000006_Node000004"><a xlink:title=" ">
<path fill="none" stroke="#63b8ff" d="M423.01,-81.66C435.64,-85.74 449.15,-90.11 461.98,-94.26"/>
<polygon fill="#63b8ff" stroke="#63b8ff" points="460.5,-97.78 471.09,-97.52 462.65,-91.12 460.5,-97.78"/>
</a>
</g>
</g>
<!-- Node7 -->
<g id="Node000007" class="node">
<title>Node7</title>
<g id="a_Node000007"><a xlink:href="../../d4/dce/structmal__packet__weaver_1_1crypto_1_1_hash.html#a56814e7ed05e83459d82911f73a546a6" target="_top" xlink:title="Returns the hash value as an array of uint8_t.">
<polygon fill="white" stroke="#666666" points="574.75,-79.5 468.75,-79.5 468.75,-49 574.75,-49 574.75,-79.5"/>
<text text-anchor="start" x="476.75" y="-66" font-family="Times,serif" font-size="10.00">mal_packet_weaver::</text>
<text text-anchor="middle" x="521.75" y="-54.75" font-family="Times,serif" font-size="10.00">crypto::Hash::as_uint8</text>
</a>
</g>
</g>
<!-- Node6&#45;&gt;Node7 -->
<g id="edge7_Node000006_Node000007" class="edge">
<title>Node6&#45;&gt;Node7</title>
<g id="a_edge7_Node000006_Node000007"><a xlink:title=" ">
<path fill="none" stroke="#63b8ff" d="M423.01,-64.25C434.17,-64.25 446.02,-64.25 457.48,-64.25"/>
<polygon fill="#63b8ff" stroke="#63b8ff" points="457.31,-67.75 467.31,-64.25 457.31,-60.75 457.31,-67.75"/>
</a>
</g>
</g>
<!-- Node8 -->
<g id="Node000008" class="node">
<title>Node8</title>
<g id="a_Node000008"><a xlink:href="../../d4/dce/structmal__packet__weaver_1_1crypto_1_1_hash.html#a1a1c4c13a115cbd43ac275fef6f3966d" target="_top" xlink:title="Returns the size of the hash value in bytes.">
<polygon fill="white" stroke="#666666" points="571.38,-30.5 472.12,-30.5 472.12,0 571.38,0 571.38,-30.5"/>
<text text-anchor="start" x="480.12" y="-17" font-family="Times,serif" font-size="10.00">mal_packet_weaver::</text>
<text text-anchor="middle" x="521.75" y="-5.75" font-family="Times,serif" font-size="10.00">crypto::Hash::size</text>
</a>
</g>
</g>
<!-- Node6&#45;&gt;Node8 -->
<g id="edge8_Node000006_Node000008" class="edge">
<title>Node6&#45;&gt;Node8</title>
<g id="a_edge8_Node000006_Node000008"><a xlink:title=" ">
<path fill="none" stroke="#63b8ff" d="M423.01,-46.84C435.64,-42.76 449.15,-38.39 461.98,-34.24"/>
<polygon fill="#63b8ff" stroke="#63b8ff" points="462.65,-37.38 471.09,-30.98 460.5,-30.72 462.65,-37.38"/>
</a>
</g>
</g>
</g>
</svg>
