<?xml version="1.0" encoding="UTF-8" standalone="no"?>
<!DOCTYPE svg PUBLIC "-//W3C//DTD SVG 1.1//EN"
 "http://www.w3.org/Graphics/SVG/1.1/DTD/svg11.dtd">
<!-- Generated by graphviz version 8.1.0 (20230707.0739)
 -->
<!-- Title: mal_packet_weaver::crypto::ECDSA::generate_key_pair Pages: 1 -->
<svg width="454pt" height="50pt"
 viewBox="0.00 0.00 454.25 49.75" xmlns="http://www.w3.org/2000/svg" xmlns:xlink="http://www.w3.org/1999/xlink">
<g id="graph0" class="graph" transform="scale(1 1) rotate(0) translate(4 45.75)">
<title>mal_packet_weaver::crypto::ECDSA::generate_key_pair</title>
<!-- Node1 -->
<g id="Node000001" class="node">
<title>Node1</title>
<g id="a_Node000001"><a xlink:title=" ">
<polygon fill="#999999" stroke="#666666" points="118,-41.75 0,-41.75 0,0 118,0 118,-41.75"/>
<text text-anchor="start" x="8" y="-28.25" font-family="Times,serif" font-size="10.00">mal_packet_weaver::</text>
<text text-anchor="start" x="8" y="-17" font-family="Times,serif" font-size="10.00">crypto::ECDSA::generate</text>
<text text-anchor="middle" x="59" y="-5.75" font-family="Times,serif" font-size="10.00">_key_pair</text>
</a>
</g>
</g>
<!-- Node2 -->
<g id="Node000002" class="node">
<title>Node2</title>
<g id="a_Node000002"><a xlink:href="../../df/d10/classmal__packet__weaver_1_1crypto_1_1_e_c_d_s_a_1_1_key_pair_generator.html#a24a3aced4748f3729979c6e16f853068" target="_top" xlink:title="Generates an ECDSA key pair.">
<polygon fill="white" stroke="#666666" points="311,-41.75 154,-41.75 154,0 311,0 311,-41.75"/>
<text text-anchor="start" x="162" y="-28.25" font-family="Times,serif" font-size="10.00">mal_packet_weaver::</text>
<text text-anchor="start" x="162" y="-17" font-family="Times,serif" font-size="10.00">crypto::ECDSA::KeyPairGenerator</text>
<text text-anchor="middle" x="232.5" y="-5.75" font-family="Times,serif" font-size="10.00">::generate</text>
</a>
</g>
</g>
<!-- Node1&#45;&gt;Node2 -->
<g id="edge1_Node000001_Node000002" class="edge">
<title>Node1&#45;&gt;Node2</title>
<g id="a_edge1_Node000001_Node000002"><a xlink:title=" ">
<path fill="none" stroke="#63b8ff" d="M118.06,-20.88C126.03,-20.88 134.37,-20.88 142.73,-20.88"/>
<polygon fill="#63b8ff" stroke="#63b8ff" points="142.73,-24.38 152.73,-20.88 142.73,-17.38 142.73,-24.38"/>
</a>
</g>
</g>
<!-- Node3 -->
<g id="Node000003" class="node">
<title>Node3</title>
<g id="a_Node000003"><a xlink:href="../../d4/d9d/structmal__packet__weaver_1_1_byte_array.html#a5ce0c445aa4f44df9f44ddcfe8bff0ef" target="_top" xlink:title="Convert the ByteArray to a typed pointer.">
<polygon fill="white" stroke="#666666" points="446.25,-36.12 347,-36.12 347,-5.62 446.25,-5.62 446.25,-36.12"/>
<text text-anchor="start" x="355" y="-22.62" font-family="Times,serif" font-size="10.00">mal_packet_weaver::</text>
<text text-anchor="middle" x="396.62" y="-11.38" font-family="Times,serif" font-size="10.00">ByteArray::as</text>
</a>
</g>
</g>
<!-- Node2&#45;&gt;Node3 -->
<g id="edge2_Node000002_Node000003" class="edge">
<title>Node2&#45;&gt;Node3</title>
<g id="a_edge2_Node000002_Node000003"><a xlink:title=" ">
<path fill="none" stroke="#63b8ff" d="M311.24,-20.88C319.41,-20.88 327.63,-20.88 335.57,-20.88"/>
<polygon fill="#63b8ff" stroke="#63b8ff" points="335.55,-24.38 345.55,-20.88 335.55,-17.38 335.55,-24.38"/>
</a>
</g>
</g>
</g>
</svg>
