<?xml version="1.0" encoding="UTF-8" standalone="no"?>
<!DOCTYPE svg PUBLIC "-//W3C//DTD SVG 1.1//EN"
 "http://www.w3.org/Graphics/SVG/1.1/DTD/svg11.dtd">
<!-- Generated by graphviz version 8.1.0 (20230707.0739)
 -->
<!-- Title: third_party/mal&#45;toolkit/mal&#45;toolkit/mal&#45;toolkit/uuid.hpp Pages: 1 -->
<!--zoomable 216 -->

<svg id="main" version="1.1" xmlns="http://www.w3.org/2000/svg" xmlns:xlink="http://www.w3.org/1999/xlink" xml:space="preserve" onload="init(evt)">
<style type="text/css"><![CDATA[
.node, .edge {opacity: 0.7;}
.node.selected, .edge.selected {opacity: 1;}
.edge:hover path { stroke: red; }
.edge:hover polygon { stroke: red; fill: red; }
]]></style>

<defs>
  <circle id="rim" cx="0" cy="0" r="7"/>
  <circle id="rim2" cx="0" cy="0" r="3.5"/>
  <g id="zoomPlus">
    <use xlink:href="#rim" fill="#404040"><set attributeName="fill" to="#808080" begin="zoomplus.mouseover" end="zoomplus.mouseout"/></use>
    <path d="M-4,0h8M0,-4v8" fill="none" stroke="white" stroke-width="1.5" pointer-events="none"/>
  </g>
  <g id="zoomMin">
    <use xlink:href="#rim" fill="#404040"><set attributeName="fill" to="#808080" begin="zoomminus.mouseover" end="zoomminus.mouseout"/></use>
    <path d="M-4,0h8" fill="none" stroke="white" stroke-width="1.5" pointer-events="none"/>
  </g>
  <g id="arrowUp" transform="translate(30 24)">
    <use xlink:href="#rim"/>
    <path pointer-events="none" fill="none" stroke="white" stroke-width="1.5" d="M0,-3.0v7 M-2.5,-0.5L0,-3.0L2.5,-0.5"/>
  </g>
  <g id="arrowRight" transform="rotate(90) translate(36 -43)">
    <use xlink:href="#rim"/>
    <path pointer-events="none" fill="none" stroke="white" stroke-width="1.5" d="M0,-3.0v7 M-2.5,-0.5L0,-3.0L2.5,-0.5"/>
  </g>
  <g id="arrowDown" transform="rotate(180) translate(-30 -48)">
    <use xlink:href="#rim"/>
    <path pointer-events="none" fill="none" stroke="white" stroke-width="1.5" d="M0,-3.0v7 M-2.5,-0.5L0,-3.0L2.5,-0.5"/>
  </g>
  <g id="arrowLeft" transform="rotate(270) translate(-36 17)">
    <use xlink:href="#rim"/>
    <path pointer-events="none" fill="none" stroke="white" stroke-width="1.5" d="M0,-3.0v7 M-2.5,-0.5L0,-3.0L2.5,-0.5"/>
  </g>
  <g id="resetDef">
    <use xlink:href="#rim2" fill="#404040"><set attributeName="fill" to="#808080" begin="reset.mouseover" end="reset.mouseout"/></use>
  </g>
</defs>
<script type="application/ecmascript">
var viewWidth = 2248;
var viewHeight = 216;
var sectionId = 'dynsection-0';
</script>
<script type="application/ecmascript" xlink:href="../../svg.min.js"/>
<svg id="graph" class="graph">
<g id="viewport">
<title>third_party/mal&#45;toolkit/mal&#45;toolkit/mal&#45;toolkit/uuid.hpp</title>
<!-- Node1 -->
<g id="Node000001" class="node">
<title>Node1</title>
<g id="a_Node000001"><a xlink:title="Defines utilities for working with Universally Unique Identifiers (UUIDs).">
<polygon fill="#999999" stroke="#666666" points="1382.5,-207.5 1275,-207.5 1275,-165.75 1382.5,-165.75 1382.5,-207.5"/>
<text text-anchor="start" x="1283" y="-194" font-family="Times,serif" font-size="10.00">third_party/mal&#45;toolkit</text>
<text text-anchor="start" x="1283" y="-182.75" font-family="Times,serif" font-size="10.00">/mal&#45;toolkit/mal&#45;toolkit</text>
<text text-anchor="middle" x="1328.75" y="-171.5" font-family="Times,serif" font-size="10.00">/uuid.hpp</text>
</a>
</g>
</g>
<!-- Node2 -->
<g id="Node000002" class="node">
<title>Node2</title>
<g id="a_Node000002"><a xlink:href="../../d1/dcf/endianness_8hpp.html" target="_top" xlink:title="Provides functions and utilities for handling endianness conversions.">
<polygon fill="white" stroke="#666666" points="1379.88,-129.75 1277.62,-129.75 1277.62,-110.5 1379.88,-110.5 1379.88,-129.75"/>
<text text-anchor="middle" x="1328.75" y="-116.25" font-family="Times,serif" font-size="10.00">detail/endianness.hpp</text>
</a>
</g>
</g>
<!-- Node1&#45;&gt;Node2 -->
<g id="edge1_Node000001_Node000002" class="edge">
<title>Node1&#45;&gt;Node2</title>
<g id="a_edge1_Node000001_Node000002"><a xlink:title=" ">
<path fill="none" stroke="#63b8ff" d="M1328.75,-165.57C1328.75,-157.8 1328.75,-148.93 1328.75,-141.17"/>
<polygon fill="#63b8ff" stroke="#63b8ff" points="1332.25,-141.2 1328.75,-131.2 1325.25,-141.2 1332.25,-141.2"/>
</a>
</g>
</g>
<!-- Node3 -->
<g id="Node000003" class="node">
<title>Node3</title>
<g id="a_Node000003"><a xlink:href="../../db/d6e/library-pch_8hpp.html" target="_top" xlink:title="Precompiled header (PCH) file for common headers used across the library.">
<polygon fill="white" stroke="#666666" points="1154,-74.5 1067.5,-74.5 1067.5,-55.25 1154,-55.25 1154,-74.5"/>
<text text-anchor="middle" x="1110.75" y="-61" font-family="Times,serif" font-size="10.00">../library&#45;pch.hpp</text>
</a>
</g>
</g>
<!-- Node2&#45;&gt;Node3 -->
<g id="edge2_Node000002_Node000003" class="edge">
<title>Node2&#45;&gt;Node3</title>
<g id="a_edge2_Node000002_Node000003"><a xlink:title=" ">
<path fill="none" stroke="#63b8ff" d="M1291.77,-110.09C1255.05,-101.12 1198.59,-87.33 1158.5,-77.54"/>
<polygon fill="#63b8ff" stroke="#63b8ff" points="1159.46,-73.93 1148.91,-74.95 1157.8,-80.73 1159.46,-73.93"/>
</a>
</g>
</g>
<!-- Node38 -->
<g id="Node000038" class="node">
<title>Node38</title>
<g id="a_Node000038"><a xlink:title=" ">
<polygon fill="#e0e0e0" stroke="#999999" points="1237.5,-74.5 1172,-74.5 1172,-55.25 1237.5,-55.25 1237.5,-74.5"/>
<text text-anchor="middle" x="1204.75" y="-61" font-family="Times,serif" font-size="10.00">emmintrin.h</text>
</a>
</g>
</g>
<!-- Node2&#45;&gt;Node38 -->
<g id="edge37_Node000002_Node000038" class="edge">
<title>Node2&#45;&gt;Node38</title>
<g id="a_edge37_Node000002_Node000038"><a xlink:title=" ">
<path fill="none" stroke="#63b8ff" d="M1307.72,-110.09C1288.03,-101.64 1258.37,-88.9 1235.94,-79.27"/>
<polygon fill="#63b8ff" stroke="#63b8ff" points="1237.46,-75.68 1226.89,-74.95 1234.7,-82.11 1237.46,-75.68"/>
</a>
</g>
</g>
<!-- Node39 -->
<g id="Node000039" class="node">
<title>Node39</title>
<g id="a_Node000039"><a xlink:title=" ">
<polygon fill="#e0e0e0" stroke="#999999" points="1319.75,-74.5 1255.75,-74.5 1255.75,-55.25 1319.75,-55.25 1319.75,-74.5"/>
<text text-anchor="middle" x="1287.75" y="-61" font-family="Times,serif" font-size="10.00">immintrin.h</text>
</a>
</g>
</g>
<!-- Node2&#45;&gt;Node39 -->
<g id="edge38_Node000002_Node000039" class="edge">
<title>Node2&#45;&gt;Node39</title>
<g id="a_edge38_Node000002_Node000039"><a xlink:title=" ">
<path fill="none" stroke="#63b8ff" d="M1321.98,-110.33C1316.38,-103.05 1308.24,-92.48 1301.3,-83.48"/>
<polygon fill="#63b8ff" stroke="#63b8ff" points="1303.54,-81.65 1294.67,-75.86 1297.99,-85.92 1303.54,-81.65"/>
</a>
</g>
</g>
<!-- Node40 -->
<g id="Node000040" class="node">
<title>Node40</title>
<g id="a_Node000040"><a xlink:title=" ">
<polygon fill="#e0e0e0" stroke="#999999" points="1402.12,-74.5 1337.38,-74.5 1337.38,-55.25 1402.12,-55.25 1402.12,-74.5"/>
<text text-anchor="middle" x="1369.75" y="-61" font-family="Times,serif" font-size="10.00">smmintrin.h</text>
</a>
</g>
</g>
<!-- Node2&#45;&gt;Node40 -->
<g id="edge39_Node000002_Node000040" class="edge">
<title>Node2&#45;&gt;Node40</title>
<g id="a_edge39_Node000002_Node000040"><a xlink:title=" ">
<path fill="none" stroke="#63b8ff" d="M1335.52,-110.33C1341.12,-103.05 1349.26,-92.48 1356.2,-83.48"/>
<polygon fill="#63b8ff" stroke="#63b8ff" points="1359.51,-85.92 1362.83,-75.86 1353.96,-81.65 1359.51,-85.92"/>
</a>
</g>
</g>
<!-- Node41 -->
<g id="Node000041" class="node">
<title>Node41</title>
<g id="a_Node000041"><a xlink:title=" ">
<polygon fill="#e0e0e0" stroke="#999999" points="1483.75,-74.5 1419.75,-74.5 1419.75,-55.25 1483.75,-55.25 1483.75,-74.5"/>
<text text-anchor="middle" x="1451.75" y="-61" font-family="Times,serif" font-size="10.00">tmmintrin.h</text>
</a>
</g>
</g>
<!-- Node2&#45;&gt;Node41 -->
<g id="edge40_Node000002_Node000041" class="edge">
<title>Node2&#45;&gt;Node41</title>
<g id="a_edge40_Node000002_Node000041"><a xlink:title=" ">
<path fill="none" stroke="#63b8ff" d="M1349.62,-110.09C1369.14,-101.64 1398.56,-88.9 1420.81,-79.27"/>
<polygon fill="#63b8ff" stroke="#63b8ff" points="1422,-82.14 1429.78,-74.95 1419.21,-75.71 1422,-82.14"/>
</a>
</g>
</g>
<!-- Node42 -->
<g id="Node000042" class="node">
<title>Node42</title>
<g id="a_Node000042"><a xlink:title=" ">
<polygon fill="#e0e0e0" stroke="#999999" points="1530.15,-74.5 1501.35,-74.5 1501.35,-55.25 1530.15,-55.25 1530.15,-74.5"/>
<text text-anchor="middle" x="1515.75" y="-61" font-family="Times,serif" font-size="10.00">bit</text>
</a>
</g>
</g>
<!-- Node2&#45;&gt;Node42 -->
<g id="edge41_Node000002_Node000042" class="edge">
<title>Node2&#45;&gt;Node42</title>
<g id="a_edge41_Node000002_Node000042"><a xlink:title=" ">
<path fill="none" stroke="#63b8ff" d="M1366.17,-110C1397.38,-102.16 1443.19,-90.1 1491,-74.86"/>
<polygon fill="#63b8ff" stroke="#63b8ff" points="1491.78,-77.96 1500.22,-71.56 1489.63,-71.3 1491.78,-77.96"/>
</a>
</g>
</g>
<!-- Node4 -->
<g id="Node000004" class="node">
<title>Node4</title>
<g id="a_Node000004"><a xlink:title=" ">
<polygon fill="#e0e0e0" stroke="#999999" points="53.5,-19.25 0,-19.25 0,0 53.5,0 53.5,-19.25"/>
<text text-anchor="middle" x="26.75" y="-5.75" font-family="Times,serif" font-size="10.00">algorithm</text>
</a>
</g>
</g>
<!-- Node3&#45;&gt;Node4 -->
<g id="edge3_Node000003_Node000004" class="edge">
<title>Node3&#45;&gt;Node4</title>
<g id="a_edge3_Node000003_Node000004"><a xlink:title=" ">
<path fill="none" stroke="#63b8ff" d="M1067.06,-63.14C897.54,-60.1 282.38,-47.45 64.46,-19.14"/>
<polygon fill="#63b8ff" stroke="#63b8ff" points="65.15,-15.56 54.77,-17.69 64.21,-22.5 65.15,-15.56"/>
</a>
</g>
</g>
<!-- Node5 -->
<g id="Node000005" class="node">
<title>Node5</title>
<g id="a_Node000005"><a xlink:title=" ">
<polygon fill="#e0e0e0" stroke="#999999" points="107.88,-19.25 71.62,-19.25 71.62,0 107.88,0 107.88,-19.25"/>
<text text-anchor="middle" x="89.75" y="-5.75" font-family="Times,serif" font-size="10.00">array</text>
</a>
</g>
</g>
<!-- Node3&#45;&gt;Node5 -->
<g id="edge4_Node000003_Node000005" class="edge">
<title>Node3&#45;&gt;Node5</title>
<g id="a_edge4_Node000003_Node000005"><a xlink:title=" ">
<path fill="none" stroke="#63b8ff" d="M1067.04,-63.38C903.24,-61.32 325.07,-51.96 118.97,-18.85"/>
<polygon fill="#63b8ff" stroke="#63b8ff" points="119.71,-15.26 109.27,-17.05 118.55,-22.16 119.71,-15.26"/>
</a>
</g>
</g>
<!-- Node6 -->
<g id="Node000006" class="node">
<title>Node6</title>
<g id="a_Node000006"><a xlink:title=" ">
<polygon fill="#e0e0e0" stroke="#999999" points="173.12,-19.25 126.38,-19.25 126.38,0 173.12,0 173.12,-19.25"/>
<text text-anchor="middle" x="149.75" y="-5.75" font-family="Times,serif" font-size="10.00">assert.h</text>
</a>
</g>
</g>
<!-- Node3&#45;&gt;Node6 -->
<g id="edge5_Node000003_Node000006" class="edge">
<title>Node3&#45;&gt;Node6</title>
<g id="a_edge5_Node000003_Node000006"><a xlink:title=" ">
<path fill="none" stroke="#63b8ff" d="M1067.19,-63.03C910.71,-59.79 376.6,-47.05 184.21,-19.24"/>
<polygon fill="#63b8ff" stroke="#63b8ff" points="184.8,-15.64 174.39,-17.61 183.76,-22.56 184.8,-15.64"/>
</a>
</g>
</g>
<!-- Node7 -->
<g id="Node000007" class="node">
<title>Node7</title>
<g id="a_Node000007"><a xlink:title=" ">
<polygon fill="#e0e0e0" stroke="#999999" points="234.25,-19.25 191.25,-19.25 191.25,0 234.25,0 234.25,-19.25"/>
<text text-anchor="middle" x="212.75" y="-5.75" font-family="Times,serif" font-size="10.00">chrono</text>
</a>
</g>
</g>
<!-- Node3&#45;&gt;Node7 -->
<g id="edge6_Node000003_Node000007" class="edge">
<title>Node3&#45;&gt;Node7</title>
<g id="a_edge6_Node000003_Node000007"><a xlink:title=" ">
<path fill="none" stroke="#63b8ff" d="M1067.23,-62.9C917.76,-59.36 425.24,-46.05 245.27,-19.03"/>
<polygon fill="#63b8ff" stroke="#63b8ff" points="246.05,-15.45 235.63,-17.36 244.97,-22.37 246.05,-15.45"/>
</a>
</g>
</g>
<!-- Node8 -->
<g id="Node000008" class="node">
<title>Node8</title>
<g id="a_Node000008"><a xlink:title=" ">
<polygon fill="#e0e0e0" stroke="#999999" points="293.12,-19.25 252.38,-19.25 252.38,0 293.12,0 293.12,-19.25"/>
<text text-anchor="middle" x="272.75" y="-5.75" font-family="Times,serif" font-size="10.00">cmath</text>
</a>
</g>
</g>
<!-- Node3&#45;&gt;Node8 -->
<g id="edge7_Node000003_Node000008" class="edge">
<title>Node3&#45;&gt;Node8</title>
<g id="a_edge7_Node000003_Node000008"><a xlink:title=" ">
<path fill="none" stroke="#63b8ff" d="M1067.18,-62.76C924.58,-58.91 471.87,-45.08 304.22,-19"/>
<polygon fill="#63b8ff" stroke="#63b8ff" points="305.03,-15.42 294.59,-17.27 303.9,-22.33 305.03,-15.42"/>
</a>
</g>
</g>
<!-- Node9 -->
<g id="Node000009" class="node">
<title>Node9</title>
<g id="a_Node000009"><a xlink:title=" ">
<polygon fill="#e0e0e0" stroke="#999999" points="362,-19.25 311.5,-19.25 311.5,0 362,0 362,-19.25"/>
<text text-anchor="middle" x="336.75" y="-5.75" font-family="Times,serif" font-size="10.00">concepts</text>
</a>
</g>
</g>
<!-- Node3&#45;&gt;Node9 -->
<g id="edge8_Node000003_Node000009" class="edge">
<title>Node3&#45;&gt;Node9</title>
<g id="a_edge8_Node000003_Node000009"><a xlink:title=" ">
<path fill="none" stroke="#63b8ff" d="M1067.15,-63.99C954.03,-63.7 641.89,-59.19 373.01,-19.1"/>
<polygon fill="#63b8ff" stroke="#63b8ff" points="373.67,-15.51 363.26,-17.48 372.62,-22.43 373.67,-15.51"/>
</a>
</g>
</g>
<!-- Node10 -->
<g id="Node000010" class="node">
<title>Node10</title>
<g id="a_Node000010"><a xlink:title=" ">
<polygon fill="#e0e0e0" stroke="#999999" points="469.12,-19.25 380.38,-19.25 380.38,0 469.12,0 469.12,-19.25"/>
<text text-anchor="middle" x="424.75" y="-5.75" font-family="Times,serif" font-size="10.00">condition_variable</text>
</a>
</g>
</g>
<!-- Node3&#45;&gt;Node10 -->
<g id="edge9_Node000003_Node000010" class="edge">
<title>Node3&#45;&gt;Node10</title>
<g id="a_edge9_Node000003_Node000010"><a xlink:title=" ">
<path fill="none" stroke="#63b8ff" d="M1067.26,-62.17C966.07,-57.92 706.8,-45.34 480.29,-19.45"/>
<polygon fill="#63b8ff" stroke="#63b8ff" points="480.87,-15.88 470.53,-18.21 480.06,-22.83 480.87,-15.88"/>
</a>
</g>
</g>
<!-- Node11 -->
<g id="Node000011" class="node">
<title>Node11</title>
<g id="a_Node000011"><a xlink:title=" ">
<polygon fill="#e0e0e0" stroke="#999999" points="530.25,-19.25 487.25,-19.25 487.25,0 530.25,0 530.25,-19.25"/>
<text text-anchor="middle" x="508.75" y="-5.75" font-family="Times,serif" font-size="10.00">cstdint</text>
</a>
</g>
</g>
<!-- Node3&#45;&gt;Node11 -->
<g id="edge10_Node000003_Node000011" class="edge">
<title>Node3&#45;&gt;Node11</title>
<g id="a_edge10_Node000003_Node000011"><a xlink:title=" ">
<path fill="none" stroke="#63b8ff" d="M1067.32,-63.47C972.94,-61.95 742.11,-54.78 541.33,-19.38"/>
<polygon fill="#63b8ff" stroke="#63b8ff" points="542.04,-15.78 531.58,-17.45 540.81,-22.67 542.04,-15.78"/>
</a>
</g>
</g>
<!-- Node12 -->
<g id="Node000012" class="node">
<title>Node12</title>
<g id="a_Node000012"><a xlink:title=" ">
<polygon fill="#e0e0e0" stroke="#999999" points="591.25,-19.25 548.25,-19.25 548.25,0 591.25,0 591.25,-19.25"/>
<text text-anchor="middle" x="569.75" y="-5.75" font-family="Times,serif" font-size="10.00">cstdlib</text>
</a>
</g>
</g>
<!-- Node3&#45;&gt;Node12 -->
<g id="edge11_Node000003_Node000012" class="edge">
<title>Node3&#45;&gt;Node12</title>
<g id="a_edge11_Node000003_Node000012"><a xlink:title=" ">
<path fill="none" stroke="#63b8ff" d="M1067.3,-62.9C980.44,-60.34 779.19,-51.39 602.39,-19.42"/>
<polygon fill="#63b8ff" stroke="#63b8ff" points="603.06,-15.8 592.59,-17.43 601.79,-22.68 603.06,-15.8"/>
</a>
</g>
</g>
<!-- Node13 -->
<g id="Node000013" class="node">
<title>Node13</title>
<g id="a_Node000013"><a xlink:title=" ">
<polygon fill="#e0e0e0" stroke="#999999" points="664.25,-19.25 609.25,-19.25 609.25,0 664.25,0 664.25,-19.25"/>
<text text-anchor="middle" x="636.75" y="-5.75" font-family="Times,serif" font-size="10.00">filesystem</text>
</a>
</g>
</g>
<!-- Node3&#45;&gt;Node13 -->
<g id="edge12_Node000003_Node000013" class="edge">
<title>Node3&#45;&gt;Node13</title>
<g id="a_edge12_Node000003_Node000013"><a xlink:title=" ">
<path fill="none" stroke="#63b8ff" d="M1067.28,-61.38C990.15,-56.53 824.13,-44.21 675.27,-19.48"/>
<polygon fill="#63b8ff" stroke="#63b8ff" points="676.02,-15.89 665.58,-17.68 674.86,-22.8 676.02,-15.89"/>
</a>
</g>
</g>
<!-- Node14 -->
<g id="Node000014" class="node">
<title>Node14</title>
<g id="a_Node000014"><a xlink:title=" ">
<polygon fill="#e0e0e0" stroke="#999999" points="727.38,-19.25 682.12,-19.25 682.12,0 727.38,0 727.38,-19.25"/>
<text text-anchor="middle" x="704.75" y="-5.75" font-family="Times,serif" font-size="10.00">fstream</text>
</a>
</g>
</g>
<!-- Node3&#45;&gt;Node14 -->
<g id="edge13_Node000003_Node000014" class="edge">
<title>Node3&#45;&gt;Node14</title>
<g id="a_edge13_Node000003_Node000014"><a xlink:title=" ">
<path fill="none" stroke="#63b8ff" d="M1067.24,-60.74C999.09,-55.37 862.91,-42.86 738.22,-19.26"/>
<polygon fill="#63b8ff" stroke="#63b8ff" points="739.21,-15.7 728.73,-17.24 737.89,-22.57 739.21,-15.7"/>
</a>
</g>
</g>
<!-- Node15 -->
<g id="Node000015" class="node">
<title>Node15</title>
<g id="a_Node000015"><a xlink:title=" ">
<polygon fill="#e0e0e0" stroke="#999999" points="799.88,-19.25 745.62,-19.25 745.62,0 799.88,0 799.88,-19.25"/>
<text text-anchor="middle" x="772.75" y="-5.75" font-family="Times,serif" font-size="10.00">functional</text>
</a>
</g>
</g>
<!-- Node3&#45;&gt;Node15 -->
<g id="edge14_Node000003_Node000015" class="edge">
<title>Node3&#45;&gt;Node15</title>
<g id="a_edge14_Node000003_Node000015"><a xlink:title=" ">
<path fill="none" stroke="#63b8ff" d="M1067.04,-58.65C1010.19,-51.58 907.61,-37.91 810.77,-19.5"/>
<polygon fill="#63b8ff" stroke="#63b8ff" points="811.69,-15.92 801.21,-17.47 810.37,-22.79 811.69,-15.92"/>
</a>
</g>
</g>
<!-- Node16 -->
<g id="Node000016" class="node">
<title>Node16</title>
<g id="a_Node000016"><a xlink:title=" ">
<polygon fill="#e0e0e0" stroke="#999999" points="865.88,-19.25 817.62,-19.25 817.62,0 865.88,0 865.88,-19.25"/>
<text text-anchor="middle" x="841.75" y="-5.75" font-family="Times,serif" font-size="10.00">iomanip</text>
</a>
</g>
</g>
<!-- Node3&#45;&gt;Node16 -->
<g id="edge15_Node000003_Node000016" class="edge">
<title>Node3&#45;&gt;Node16</title>
<g id="a_edge15_Node000003_Node000016"><a xlink:title=" ">
<path fill="none" stroke="#63b8ff" d="M1067.07,-56.54C1021.79,-48.74 948.72,-35.57 876.81,-19.6"/>
<polygon fill="#63b8ff" stroke="#63b8ff" points="877.74,-15.99 867.21,-17.22 876.2,-22.82 877.74,-15.99"/>
</a>
</g>
</g>
<!-- Node17 -->
<g id="Node000017" class="node">
<title>Node17</title>
<g id="a_Node000017"><a xlink:title=" ">
<polygon fill="#e0e0e0" stroke="#999999" points="929.38,-19.25 884.12,-19.25 884.12,0 929.38,0 929.38,-19.25"/>
<text text-anchor="middle" x="906.75" y="-5.75" font-family="Times,serif" font-size="10.00">istream</text>
</a>
</g>
</g>
<!-- Node3&#45;&gt;Node17 -->
<g id="edge16_Node000003_Node000017" class="edge">
<title>Node3&#45;&gt;Node17</title>
<g id="a_edge16_Node000003_Node000017"><a xlink:title=" ">
<path fill="none" stroke="#63b8ff" d="M1075.48,-54.83C1042.87,-46.44 992.78,-33.5 940.33,-19.65"/>
<polygon fill="#63b8ff" stroke="#63b8ff" points="941.38,-16.04 930.82,-16.87 939.59,-22.81 941.38,-16.04"/>
</a>
</g>
</g>
<!-- Node18 -->
<g id="Node000018" class="node">
<title>Node18</title>
<g id="a_Node000018"><a xlink:title=" ">
<polygon fill="#e0e0e0" stroke="#999999" points="985.62,-19.25 947.88,-19.25 947.88,0 985.62,0 985.62,-19.25"/>
<text text-anchor="middle" x="966.75" y="-5.75" font-family="Times,serif" font-size="10.00">limits</text>
</a>
</g>
</g>
<!-- Node3&#45;&gt;Node18 -->
<g id="edge17_Node000003_Node000018" class="edge">
<title>Node3&#45;&gt;Node18</title>
<g id="a_edge17_Node000003_Node000018"><a xlink:title=" ">
<path fill="none" stroke="#63b8ff" d="M1086.32,-54.84C1061.36,-45.61 1022.58,-31.27 995.99,-21.44"/>
<polygon fill="#63b8ff" stroke="#63b8ff" points="997.36,-17.84 986.77,-17.66 994.93,-24.41 997.36,-17.84"/>
</a>
</g>
</g>
<!-- Node19 -->
<g id="Node000019" class="node">
<title>Node19</title>
<g id="a_Node000019"><a xlink:title=" ">
<polygon fill="#e0e0e0" stroke="#999999" points="1037.38,-19.25 1004.12,-19.25 1004.12,0 1037.38,0 1037.38,-19.25"/>
<text text-anchor="middle" x="1020.75" y="-5.75" font-family="Times,serif" font-size="10.00">map</text>
</a>
</g>
</g>
<!-- Node3&#45;&gt;Node19 -->
<g id="edge18_Node000003_Node000019" class="edge">
<title>Node3&#45;&gt;Node19</title>
<g id="a_edge18_Node000003_Node000019"><a xlink:title=" ">
<path fill="none" stroke="#63b8ff" d="M1095.48,-54.84C1081.78,-46.73 1061.41,-34.68 1045.4,-25.21"/>
<polygon fill="#63b8ff" stroke="#63b8ff" points="1047.48,-21.78 1037.09,-19.7 1043.92,-27.81 1047.48,-21.78"/>
</a>
</g>
</g>
<!-- Node20 -->
<g id="Node000020" class="node">
<title>Node20</title>
<g id="a_Node000020"><a xlink:title=" ">
<polygon fill="#e0e0e0" stroke="#999999" points="1103.88,-19.25 1055.62,-19.25 1055.62,0 1103.88,0 1103.88,-19.25"/>
<text text-anchor="middle" x="1079.75" y="-5.75" font-family="Times,serif" font-size="10.00">memory</text>
</a>
</g>
</g>
<!-- Node3&#45;&gt;Node20 -->
<g id="edge19_Node000003_Node000020" class="edge">
<title>Node3&#45;&gt;Node20</title>
<g id="a_edge19_Node000003_Node000020"><a xlink:title=" ">
<path fill="none" stroke="#63b8ff" d="M1105.63,-55.08C1101.53,-48.03 1095.63,-37.9 1090.5,-29.08"/>
<polygon fill="#63b8ff" stroke="#63b8ff" points="1093.04,-27.49 1084.98,-20.61 1086.99,-31.01 1093.04,-27.49"/>
</a>
</g>
</g>
<!-- Node21 -->
<g id="Node000021" class="node">
<title>Node21</title>
<g id="a_Node000021"><a xlink:title=" ">
<polygon fill="#e0e0e0" stroke="#999999" points="1163.12,-19.25 1122.38,-19.25 1122.38,0 1163.12,0 1163.12,-19.25"/>
<text text-anchor="middle" x="1142.75" y="-5.75" font-family="Times,serif" font-size="10.00">mutex</text>
</a>
</g>
</g>
<!-- Node3&#45;&gt;Node21 -->
<g id="edge20_Node000003_Node000021" class="edge">
<title>Node3&#45;&gt;Node21</title>
<g id="a_edge20_Node000003_Node000021"><a xlink:title=" ">
<path fill="none" stroke="#63b8ff" d="M1116.03,-55.08C1120.32,-47.96 1126.49,-37.68 1131.83,-28.8"/>
<polygon fill="#63b8ff" stroke="#63b8ff" points="1135.2,-30.98 1137.35,-20.61 1129.2,-27.38 1135.2,-30.98"/>
</a>
</g>
</g>
<!-- Node22 -->
<g id="Node000022" class="node">
<title>Node22</title>
<g id="a_Node000022"><a xlink:title=" ">
<polygon fill="#e0e0e0" stroke="#999999" points="1232,-19.25 1181.5,-19.25 1181.5,0 1232,0 1232,-19.25"/>
<text text-anchor="middle" x="1206.75" y="-5.75" font-family="Times,serif" font-size="10.00">numbers</text>
</a>
</g>
</g>
<!-- Node3&#45;&gt;Node22 -->
<g id="edge21_Node000003_Node000022" class="edge">
<title>Node3&#45;&gt;Node22</title>
<g id="a_edge21_Node000003_Node000022"><a xlink:title=" ">
<path fill="none" stroke="#63b8ff" d="M1127.04,-54.84C1141.79,-46.66 1163.79,-34.46 1180.94,-24.94"/>
<polygon fill="#63b8ff" stroke="#63b8ff" points="1182.34,-27.61 1189.39,-19.7 1178.94,-21.49 1182.34,-27.61"/>
</a>
</g>
</g>
<!-- Node23 -->
<g id="Node000023" class="node">
<title>Node23</title>
<g id="a_Node000023"><a xlink:title=" ">
<polygon fill="#e0e0e0" stroke="#999999" points="1297.88,-19.25 1249.62,-19.25 1249.62,0 1297.88,0 1297.88,-19.25"/>
<text text-anchor="middle" x="1273.75" y="-5.75" font-family="Times,serif" font-size="10.00">numeric</text>
</a>
</g>
</g>
<!-- Node3&#45;&gt;Node23 -->
<g id="edge22_Node000003_Node000023" class="edge">
<title>Node3&#45;&gt;Node23</title>
<g id="a_edge22_Node000003_Node000023"><a xlink:title=" ">
<path fill="none" stroke="#63b8ff" d="M1138.4,-54.84C1166.07,-45.8 1208.72,-31.87 1238.73,-22.06"/>
<polygon fill="#63b8ff" stroke="#63b8ff" points="1239.75,-25.09 1248.17,-18.66 1237.58,-18.43 1239.75,-25.09"/>
</a>
</g>
</g>
<!-- Node24 -->
<g id="Node000024" class="node">
<title>Node24</title>
<g id="a_Node000024"><a xlink:title=" ">
<polygon fill="#e0e0e0" stroke="#999999" points="1363.12,-19.25 1316.38,-19.25 1316.38,0 1363.12,0 1363.12,-19.25"/>
<text text-anchor="middle" x="1339.75" y="-5.75" font-family="Times,serif" font-size="10.00">optional</text>
</a>
</g>
</g>
<!-- Node3&#45;&gt;Node24 -->
<g id="edge23_Node000003_Node000024" class="edge">
<title>Node3&#45;&gt;Node24</title>
<g id="a_edge23_Node000003_Node000024"><a xlink:title=" ">
<path fill="none" stroke="#63b8ff" d="M1152.52,-54.77C1190.01,-46.51 1246.81,-33.77 1305.41,-19.52"/>
<polygon fill="#63b8ff" stroke="#63b8ff" points="1306.1,-22.71 1314.98,-16.93 1304.43,-15.91 1306.1,-22.71"/>
</a>
</g>
</g>
<!-- Node25 -->
<g id="Node000025" class="node">
<title>Node25</title>
<g id="a_Node000025"><a xlink:title=" ">
<polygon fill="#e0e0e0" stroke="#999999" points="1428.5,-19.25 1381,-19.25 1381,0 1428.5,0 1428.5,-19.25"/>
<text text-anchor="middle" x="1404.75" y="-5.75" font-family="Times,serif" font-size="10.00">ostream</text>
</a>
</g>
</g>
<!-- Node3&#45;&gt;Node25 -->
<g id="edge24_Node000003_Node000025" class="edge">
<title>Node3&#45;&gt;Node25</title>
<g id="a_edge24_Node000003_Node000025"><a xlink:title=" ">
<path fill="none" stroke="#63b8ff" d="M1154.49,-56.61C1216.92,-46.21 1327.97,-27.59 1370.11,-19.34"/>
<polygon fill="#63b8ff" stroke="#63b8ff" points="1370.56,-22.62 1379.66,-17.18 1369.16,-15.76 1370.56,-22.62"/>
</a>
</g>
</g>
<!-- Node26 -->
<g id="Node000026" class="node">
<title>Node26</title>
<g id="a_Node000026"><a xlink:title=" ">
<polygon fill="#e0e0e0" stroke="#999999" points="1492.75,-19.25 1446.75,-19.25 1446.75,0 1492.75,0 1492.75,-19.25"/>
<text text-anchor="middle" x="1469.75" y="-5.75" font-family="Times,serif" font-size="10.00">random</text>
</a>
</g>
</g>
<!-- Node3&#45;&gt;Node26 -->
<g id="edge25_Node000003_Node000026" class="edge">
<title>Node3&#45;&gt;Node26</title>
<g id="a_edge25_Node000003_Node000026"><a xlink:title=" ">
<path fill="none" stroke="#63b8ff" d="M1154.43,-56.52C1157.24,-56.08 1160.03,-55.65 1162.75,-55.25 1281.23,-37.67 1314.97,-43.01 1435.64,-19.44"/>
<polygon fill="#63b8ff" stroke="#63b8ff" points="1436.29,-22.68 1445.42,-17.3 1434.93,-15.81 1436.29,-22.68"/>
</a>
</g>
</g>
<!-- Node27 -->
<g id="Node000027" class="node">
<title>Node27</title>
<g id="a_Node000027"><a xlink:title=" ">
<polygon fill="#e0e0e0" stroke="#999999" points="1582.88,-19.25 1510.62,-19.25 1510.62,0 1582.88,0 1582.88,-19.25"/>
<text text-anchor="middle" x="1546.75" y="-5.75" font-family="Times,serif" font-size="10.00">shared_mutex</text>
</a>
</g>
</g>
<!-- Node3&#45;&gt;Node27 -->
<g id="edge26_Node000003_Node000027" class="edge">
<title>Node3&#45;&gt;Node27</title>
<g id="a_edge26_Node000003_Node000027"><a xlink:title=" ">
<path fill="none" stroke="#63b8ff" d="M1154.41,-56.44C1157.23,-56.02 1160.03,-55.62 1162.75,-55.25 1309.51,-35.3 1350.08,-41.24 1499.94,-19.4"/>
<polygon fill="#63b8ff" stroke="#63b8ff" points="1500.06,-22.78 1509.45,-17.85 1499.04,-15.85 1500.06,-22.78"/>
</a>
</g>
</g>
<!-- Node28 -->
<g id="Node000028" class="node">
<title>Node28</title>
<g id="a_Node000028"><a xlink:title=" ">
<polygon fill="#e0e0e0" stroke="#999999" points="1636.12,-19.25 1601.38,-19.25 1601.38,0 1636.12,0 1636.12,-19.25"/>
<text text-anchor="middle" x="1618.75" y="-5.75" font-family="Times,serif" font-size="10.00">span</text>
</a>
</g>
</g>
<!-- Node3&#45;&gt;Node28 -->
<g id="edge27_Node000003_Node000028" class="edge">
<title>Node3&#45;&gt;Node28</title>
<g id="a_edge27_Node000003_Node000028"><a xlink:title=" ">
<path fill="none" stroke="#63b8ff" d="M1154.41,-56.37C1157.23,-55.97 1160.03,-55.59 1162.75,-55.25 1349.19,-32 1402.19,-55.71 1590.36,-19.04"/>
<polygon fill="#63b8ff" stroke="#63b8ff" points="1590.76,-22.33 1599.89,-16.95 1589.4,-15.46 1590.76,-22.33"/>
</a>
</g>
</g>
<!-- Node29 -->
<g id="Node000029" class="node">
<title>Node29</title>
<g id="a_Node000029"><a xlink:title=" ">
<polygon fill="#e0e0e0" stroke="#999999" points="1699.75,-19.25 1653.75,-19.25 1653.75,0 1699.75,0 1699.75,-19.25"/>
<text text-anchor="middle" x="1676.75" y="-5.75" font-family="Times,serif" font-size="10.00">sstream</text>
</a>
</g>
</g>
<!-- Node3&#45;&gt;Node29 -->
<g id="edge28_Node000003_Node000029" class="edge">
<title>Node3&#45;&gt;Node29</title>
<g id="a_edge28_Node000003_Node000029"><a xlink:title=" ">
<path fill="none" stroke="#63b8ff" d="M1154.4,-56.34C1157.22,-55.95 1160.02,-55.58 1162.75,-55.25 1372.6,-30.06 1431.11,-54.55 1642.91,-19.24"/>
<polygon fill="#63b8ff" stroke="#63b8ff" points="1643.17,-22.57 1652.44,-17.45 1642,-15.67 1643.17,-22.57"/>
</a>
</g>
</g>
<!-- Node30 -->
<g id="Node000030" class="node">
<title>Node30</title>
<g id="a_Node000030"><a xlink:title=" ">
<polygon fill="#e0e0e0" stroke="#999999" points="1771.88,-19.25 1717.62,-19.25 1717.62,0 1771.88,0 1771.88,-19.25"/>
<text text-anchor="middle" x="1744.75" y="-5.75" font-family="Times,serif" font-size="10.00">stdexcept</text>
</a>
</g>
</g>
<!-- Node3&#45;&gt;Node30 -->
<g id="edge29_Node000003_Node000030" class="edge">
<title>Node3&#45;&gt;Node30</title>
<g id="a_edge29_Node000003_Node000030"><a xlink:title=" ">
<path fill="none" stroke="#63b8ff" d="M1154.4,-56.31C1157.22,-55.93 1160.02,-55.57 1162.75,-55.25 1400.8,-27.73 1466.39,-54.89 1706.5,-19.33"/>
<polygon fill="#63b8ff" stroke="#63b8ff" points="1706.96,-22.65 1716.33,-17.7 1705.92,-15.73 1706.96,-22.65"/>
</a>
</g>
</g>
<!-- Node31 -->
<g id="Node000031" class="node">
<title>Node31</title>
<g id="a_Node000031"><a xlink:title=" ">
<polygon fill="#e0e0e0" stroke="#999999" points="1835.75,-19.25 1789.75,-19.25 1789.75,0 1835.75,0 1835.75,-19.25"/>
<text text-anchor="middle" x="1812.75" y="-5.75" font-family="Times,serif" font-size="10.00">stdint.h</text>
</a>
</g>
</g>
<!-- Node3&#45;&gt;Node31 -->
<g id="edge30_Node000003_Node000031" class="edge">
<title>Node3&#45;&gt;Node31</title>
<g id="a_edge30_Node000003_Node000031"><a xlink:title=" ">
<path fill="none" stroke="#63b8ff" d="M1154.4,-56.29C1157.22,-55.91 1160.02,-55.55 1162.75,-55.25 1432.71,-25.08 1507.28,-62.31 1778.88,-19.2"/>
<polygon fill="#63b8ff" stroke="#63b8ff" points="1779.14,-22.54 1788.45,-17.5 1778.02,-15.63 1779.14,-22.54"/>
</a>
</g>
</g>
<!-- Node32 -->
<g id="Node000032" class="node">
<title>Node32</title>
<g id="a_Node000032"><a xlink:title=" ">
<polygon fill="#e0e0e0" stroke="#999999" points="1893.38,-19.25 1854.12,-19.25 1854.12,0 1893.38,0 1893.38,-19.25"/>
<text text-anchor="middle" x="1873.75" y="-5.75" font-family="Times,serif" font-size="10.00">string</text>
</a>
</g>
</g>
<!-- Node3&#45;&gt;Node32 -->
<g id="edge31_Node000003_Node000032" class="edge">
<title>Node3&#45;&gt;Node32</title>
<g id="a_edge31_Node000003_Node000032"><a xlink:title=" ">
<path fill="none" stroke="#63b8ff" d="M1154.39,-56.27C1157.22,-55.89 1160.02,-55.55 1162.75,-55.25 1460.96,-22.75 1543.71,-69.75 1843.18,-19.04"/>
<polygon fill="#63b8ff" stroke="#63b8ff" points="1843.67,-22.33 1852.93,-17.19 1842.48,-15.44 1843.67,-22.33"/>
</a>
</g>
</g>
<!-- Node33 -->
<g id="Node000033" class="node">
<title>Node33</title>
<g id="a_Node000033"><a xlink:title=" ">
<polygon fill="#e0e0e0" stroke="#999999" points="1952.5,-19.25 1911,-19.25 1911,0 1952.5,0 1952.5,-19.25"/>
<text text-anchor="middle" x="1931.75" y="-5.75" font-family="Times,serif" font-size="10.00">thread</text>
</a>
</g>
</g>
<!-- Node3&#45;&gt;Node33 -->
<g id="edge32_Node000003_Node000033" class="edge">
<title>Node3&#45;&gt;Node33</title>
<g id="a_edge32_Node000003_Node000033"><a xlink:title=" ">
<path fill="none" stroke="#63b8ff" d="M1154.39,-56.26C1157.22,-55.88 1160.02,-55.54 1162.75,-55.25 1486.65,-20.63 1576.24,-73.43 1900.03,-19.33"/>
<polygon fill="#63b8ff" stroke="#63b8ff" points="1900.39,-22.65 1909.67,-17.53 1899.22,-15.75 1900.39,-22.65"/>
</a>
</g>
</g>
<!-- Node34 -->
<g id="Node000034" class="node">
<title>Node34</title>
<g id="a_Node000034"><a xlink:title=" ">
<polygon fill="#e0e0e0" stroke="#999999" points="2029.12,-19.25 1970.38,-19.25 1970.38,0 2029.12,0 2029.12,-19.25"/>
<text text-anchor="middle" x="1999.75" y="-5.75" font-family="Times,serif" font-size="10.00">type_traits</text>
</a>
</g>
</g>
<!-- Node3&#45;&gt;Node34 -->
<g id="edge33_Node000003_Node000034" class="edge">
<title>Node3&#45;&gt;Node34</title>
<g id="a_edge33_Node000003_Node000034"><a xlink:title=" ">
<path fill="none" stroke="#63b8ff" d="M1154.39,-56.25C1157.22,-55.88 1160.02,-55.54 1162.75,-55.25 1512.74,-18.47 1607.58,-65.81 1959.22,-19.35"/>
<polygon fill="#63b8ff" stroke="#63b8ff" points="1959.52,-22.71 1968.97,-17.91 1958.59,-15.77 1959.52,-22.71"/>
</a>
</g>
</g>
<!-- Node35 -->
<g id="Node000035" class="node">
<title>Node35</title>
<g id="a_Node000035"><a xlink:title=" ">
<polygon fill="#e0e0e0" stroke="#999999" points="2119.88,-19.25 2047.62,-19.25 2047.62,0 2119.88,0 2119.88,-19.25"/>
<text text-anchor="middle" x="2083.75" y="-5.75" font-family="Times,serif" font-size="10.00">unordered_set</text>
</a>
</g>
</g>
<!-- Node3&#45;&gt;Node35 -->
<g id="edge34_Node000003_Node000035" class="edge">
<title>Node3&#45;&gt;Node35</title>
<g id="a_edge34_Node000003_Node000035"><a xlink:title=" ">
<path fill="none" stroke="#63b8ff" d="M1154.39,-56.24C1157.21,-55.87 1160.02,-55.53 1162.75,-55.25 1546.42,-15.69 1649.17,-62.37 2036.5,-19.18"/>
<polygon fill="#63b8ff" stroke="#63b8ff" points="2036.62,-22.58 2046.16,-17.98 2035.83,-15.62 2036.62,-22.58"/>
</a>
</g>
</g>
<!-- Node36 -->
<g id="Node000036" class="node">
<title>Node36</title>
<g id="a_Node000036"><a xlink:title=" ">
<polygon fill="#e0e0e0" stroke="#999999" points="2181.25,-19.25 2138.25,-19.25 2138.25,0 2181.25,0 2181.25,-19.25"/>
<text text-anchor="middle" x="2159.75" y="-5.75" font-family="Times,serif" font-size="10.00">variant</text>
</a>
</g>
</g>
<!-- Node3&#45;&gt;Node36 -->
<g id="edge35_Node000003_Node000036" class="edge">
<title>Node3&#45;&gt;Node36</title>
<g id="a_edge35_Node000003_Node000036"><a xlink:title=" ">
<path fill="none" stroke="#63b8ff" d="M1154.39,-56.22C1157.21,-55.86 1160.02,-55.53 1162.75,-55.25 1586.65,-12.37 1702.31,-84.07 2127.14,-19.06"/>
<polygon fill="#63b8ff" stroke="#63b8ff" points="2127.53,-22.38 2136.87,-17.39 2126.46,-15.47 2127.53,-22.38"/>
</a>
</g>
</g>
<!-- Node37 -->
<g id="Node000037" class="node">
<title>Node37</title>
<g id="a_Node000037"><a xlink:title=" ">
<polygon fill="#e0e0e0" stroke="#999999" points="2240.12,-19.25 2199.38,-19.25 2199.38,0 2240.12,0 2240.12,-19.25"/>
<text text-anchor="middle" x="2219.75" y="-5.75" font-family="Times,serif" font-size="10.00">vector</text>
</a>
</g>
</g>
<!-- Node3&#45;&gt;Node37 -->
<g id="edge36_Node000003_Node000037" class="edge">
<title>Node3&#45;&gt;Node37</title>
<g id="a_edge36_Node000003_Node000037"><a xlink:title=" ">
<path fill="none" stroke="#63b8ff" d="M1154.39,-56.22C1157.21,-55.85 1160.02,-55.52 1162.75,-55.25 1614.1,-10.11 1737.64,-91.71 2188.28,-19.23"/>
<polygon fill="#63b8ff" stroke="#63b8ff" points="2188.68,-22.55 2197.99,-17.49 2187.56,-15.64 2188.68,-22.55"/>
</a>
</g>
</g>
</g>
</svg>

<g id="navigator" transform="translate(0 0)" fill="#404254">
  <rect fill="#f2f5e9" fill-opacity="0.5" stroke="#606060" stroke-width=".5" x="0" y="0" width="60" height="60"/>
  <use id="zoomplus" xlink:href="#zoomPlus" x="17" y="9" onmousedown="handleZoom(evt,'in')"/>
  <use id="zoomminus" xlink:href="#zoomMin" x="42" y="9" onmousedown="handleZoom(evt,'out')"/>
  <use id="reset" xlink:href="#resetDef" x="30" y="36" onmousedown="handleReset()"/>
   <use id="arrowup" xlink:href="#arrowUp" x="0" y="0" onmousedown="handlePan(0,-1)"/>
  <use id="arrowright" xlink:href="#arrowRight" x="0" y="0" onmousedown="handlePan(1,0)"/>
  <use id="arrowdown" xlink:href="#arrowDown" x="0" y="0" onmousedown="handlePan(0,1)"/>
  <use id="arrowleft" xlink:href="#arrowLeft" x="0" y="0" onmousedown="handlePan(-1,0)"/>
</g>
<svg viewBox="0 0 15 15" width="100%" height="30px" preserveAspectRatio="xMaxYMin meet">
 <g id="arrow_out" transform="scale(0.3 0.3)">
  <a xlink:href="uuid_8hpp__incl_org.svg" target="_base">
   <rect id="button" ry="5" rx="5" y="6" x="6" height="38" width="38"
        fill="#f2f5e9" fill-opacity="0.5" stroke="#606060" stroke-width="1.0"/>
   <path id="arrow"
     d="M 11.500037,31.436501 C 11.940474,20.09759 22.043105,11.32322 32.158766,21.979434 L 37.068811,17.246167 C 37.068811,17.246167 37.088388,32 37.088388,32 L 22.160133,31.978069 C 22.160133,31.978069 26.997745,27.140456 26.997745,27.140456 C 18.528582,18.264221 13.291696,25.230495 11.500037,31.436501 z"
     style="fill:#404040;"/>
  </a>
 </g>
</svg>

<style type='text/css'>
<![CDATA[
[data-mouse-over-selected='false'] { opacity: 0.7; }
[data-mouse-over-selected='true']  { opacity: 1.0; }
]]>
</style>
<script type="application/ecmascript"><![CDATA[
document.addEventListener('DOMContentLoaded', (event) => {
  highlightEdges();
  highlightAdjacentNodes();
});
]]></script>
</svg>
