<?xml version="1.0" encoding="UTF-8" standalone="no"?>
<!DOCTYPE svg PUBLIC "-//W3C//DTD SVG 1.1//EN"
 "http://www.w3.org/Graphics/SVG/1.1/DTD/svg11.dtd">
<!-- Generated by graphviz version 8.1.0 (20230707.0739)
 -->
<!-- Title: mal_packet_weaver::ByteArray Pages: 1 -->
<svg width="107pt" height="161pt"
 viewBox="0.00 0.00 107.25 161.25" xmlns="http://www.w3.org/2000/svg" xmlns:xlink="http://www.w3.org/1999/xlink">
<g id="graph0" class="graph" transform="scale(1 1) rotate(0) translate(4 157.25)">
<title>mal_packet_weaver::ByteArray</title>
<!-- Node1 -->
<g id="Node000001" class="node">
<title>Node1</title>
<g id="a_Node000001"><a xlink:title="A dynamically resizable array of bytes.">
<polygon fill="#999999" stroke="#666666" points="99.25,-30.5 0,-30.5 0,0 99.25,0 99.25,-30.5"/>
<text text-anchor="start" x="8" y="-17" font-family="Times,serif" font-size="10.00">mal_packet_weaver::</text>
<text text-anchor="middle" x="49.62" y="-5.75" font-family="Times,serif" font-size="10.00">ByteArray</text>
</a>
</g>
</g>
<!-- Node2 -->
<g id="Node000002" class="node">
<title>Node2</title>
<g id="a_Node000002"><a xlink:title=" ">
<polygon fill="white" stroke="#666666" points="89.5,-86.75 9.75,-86.75 9.75,-67.5 89.5,-67.5 89.5,-86.75"/>
<text text-anchor="middle" x="49.62" y="-73.25" font-family="Times,serif" font-size="10.00">std::vector&lt; T &gt;</text>
</a>
</g>
</g>
<!-- Node2&#45;&gt;Node1 -->
<g id="edge1_Node000001_Node000002" class="edge">
<title>Node2&#45;&gt;Node1</title>
<g id="a_edge1_Node000001_Node000002"><a xlink:title=" ">
<path fill="none" stroke="#63b8ff" d="M49.62,-56.27C49.62,-47.87 49.62,-38.26 49.62,-30.57"/>
<polygon fill="#63b8ff" stroke="#63b8ff" points="46.13,-56.03 49.62,-66.03 53.13,-56.03 46.13,-56.03"/>
</a>
</g>
</g>
<!-- Node3 -->
<g id="Node000003" class="node">
<title>Node3</title>
<g id="a_Node000003"><a xlink:title=" ">
<polygon fill="white" stroke="#666666" points="64.03,-153.25 35.23,-153.25 35.23,-134 64.03,-134 64.03,-153.25"/>
<text text-anchor="middle" x="49.62" y="-139.75" font-family="Times,serif" font-size="10.00">T</text>
</a>
</g>
</g>
<!-- Node3&#45;&gt;Node2 -->
<g id="edge2_Node000002_Node000003" class="edge">
<title>Node3&#45;&gt;Node2</title>
<g id="a_edge2_Node000002_Node000003"><a xlink:title=" ">
<path fill="none" stroke="#9a32cd" stroke-dasharray="5,2" d="M49.62,-122.9C49.62,-110.93 49.62,-96.23 49.62,-87.02"/>
<polygon fill="#9a32cd" stroke="#9a32cd" points="46.13,-122.66 49.62,-132.66 53.13,-122.66 46.13,-122.66"/>
</a>
</g>
<text text-anchor="middle" x="68" y="-106.5" font-family="Times,serif" font-size="10.00" fill="grey"> elements</text>
</g>
</g>
</svg>
