<?xml version="1.0" encoding="UTF-8" standalone="no"?>
<!DOCTYPE svg PUBLIC "-//W3C//DTD SVG 1.1//EN"
 "http://www.w3.org/Graphics/SVG/1.1/DTD/svg11.dtd">
<!-- Generated by graphviz version 7.0.5 (20221223.1930)
 -->
<!-- Title: weaver::NodeInfoRequestPacket Pages: 1 -->
<svg width="173pt" height="203pt"
 viewBox="0.00 0.00 173.00 203.00" xmlns="http://www.w3.org/2000/svg" xmlns:xlink="http://www.w3.org/1999/xlink">
<g id="graph0" class="graph" transform="scale(1 1) rotate(0) translate(4 199)">
<title>weaver::NodeInfoRequestPacket</title>
<!-- Node1 -->
<g id="node1" class="node">
<title>Node1</title>
<g id="a_node1"><a xlink:title="Packet for requesting information from a node.">
<polygon fill="#999999" stroke="#666666" points="162,-19 3,-19 3,0 162,0 162,-19"/>
<text text-anchor="middle" x="82.5" y="-7" font-family="Helvetica,sans-Serif" font-size="10.00">weaver::NodeInfoRequestPacket</text>
</a>
</g>
</g>
<!-- Node2 -->
<g id="node2" class="node">
<title>Node2</title>
<g id="a_node2"><a xlink:href="../../d4/d4c/classweaver_1_1_derived_packet.html" target="_top" xlink:title=" ">
<polygon fill="white" stroke="#666666" points="165,-85 0,-85 0,-55 165,-55 165,-85"/>
<text text-anchor="start" x="8" y="-73" font-family="Helvetica,sans-Serif" font-size="10.00">weaver::DerivedPacket</text>
<text text-anchor="middle" x="82.5" y="-62" font-family="Helvetica,sans-Serif" font-size="10.00">&lt; class NodeInfoRequestPacket &gt;</text>
</a>
</g>
</g>
<!-- Node2&#45;&gt;Node1 -->
<g id="edge1" class="edge">
<title>Node2&#45;&gt;Node1</title>
<path fill="none" stroke="#63b8ff" d="M82.5,-43.3C82.5,-34.65 82.5,-25.58 82.5,-19.18"/>
<polygon fill="#63b8ff" stroke="#63b8ff" points="79,-43.03 82.5,-53.03 86,-43.03 79,-43.03"/>
</g>
<!-- Node3 -->
<g id="node3" class="node">
<title>Node3</title>
<g id="a_node3"><a xlink:href="../../d8/d0f/classweaver_1_1_packet.html" target="_top" xlink:title="Base class for all packets.">
<polygon fill="white" stroke="#666666" points="124,-140 41,-140 41,-121 124,-121 124,-140"/>
<text text-anchor="middle" x="82.5" y="-128" font-family="Helvetica,sans-Serif" font-size="10.00">weaver::Packet</text>
</a>
</g>
</g>
<!-- Node3&#45;&gt;Node2 -->
<g id="edge2" class="edge">
<title>Node3&#45;&gt;Node2</title>
<path fill="none" stroke="#63b8ff" d="M82.5,-109.51C82.5,-101.49 82.5,-92.43 82.5,-85.11"/>
<polygon fill="#63b8ff" stroke="#63b8ff" points="79,-109.35 82.5,-119.35 86,-109.35 79,-109.35"/>
</g>
<!-- Node4 -->
<g id="node4" class="node">
<title>Node4</title>
<g id="a_node4"><a xlink:title=" ">
<polygon fill="white" stroke="#666666" points="131.5,-195 33.5,-195 33.5,-176 131.5,-176 131.5,-195"/>
<text text-anchor="middle" x="82.5" y="-183" font-family="Helvetica,sans-Serif" font-size="10.00">utils::non_copyable</text>
</a>
</g>
</g>
<!-- Node4&#45;&gt;Node3 -->
<g id="edge3" class="edge">
<title>Node4&#45;&gt;Node3</title>
<path fill="none" stroke="#63b8ff" d="M82.5,-164.35C82.5,-156.1 82.5,-146.97 82.5,-140.44"/>
<polygon fill="#63b8ff" stroke="#63b8ff" points="79,-164.23 82.5,-174.23 86,-164.23 79,-164.23"/>
</g>
</g>
</svg>
