<?xml version="1.0" encoding="UTF-8" standalone="no"?>
<!DOCTYPE svg PUBLIC "-//W3C//DTD SVG 1.1//EN"
 "http://www.w3.org/Graphics/SVG/1.1/DTD/svg11.dtd">
<!-- Generated by graphviz version 9.0.0 (20230911.1827)
 -->
<!-- Title: mal_toolkit::non_copyable_non_movable Pages: 1 -->
<svg width="264pt" height="94pt"
 viewBox="0.00 0.00 263.75 93.75" xmlns="http://www.w3.org/2000/svg" xmlns:xlink="http://www.w3.org/1999/xlink">
<g id="graph0" class="graph" transform="scale(1 1) rotate(0) translate(4 89.75)">
<title>mal_toolkit::non_copyable_non_movable</title>
<!-- Node1 -->
<g id="Node000001" class="node">
<title>Node1</title>
<g id="a_Node000001"><a xlink:title="A class that can&#39;t be copied neither moved.">
<polygon fill="#999999" stroke="#666666" points="187.5,-30.5 68,-30.5 68,0 187.5,0 187.5,-30.5"/>
<text text-anchor="start" x="76" y="-17" font-family="Times,serif" font-size="10.00">mal_toolkit::non_copyable</text>
<text text-anchor="middle" x="127.75" y="-5.75" font-family="Times,serif" font-size="10.00">_non_movable</text>
</a>
</g>
</g>
<!-- Node2 -->
<g id="Node000002" class="node">
<title>Node2</title>
<g id="a_Node000002"><a xlink:href="../../d1/dd3/classmal__toolkit_1_1non__copyable.html" target="_top" xlink:title="A class that can&#39;t be copied.">
<polygon fill="white" stroke="#666666" points="119.5,-85.75 0,-85.75 0,-66.5 119.5,-66.5 119.5,-85.75"/>
<text text-anchor="middle" x="59.75" y="-72.25" font-family="Times,serif" font-size="10.00">mal_toolkit::non_copyable</text>
</a>
</g>
</g>
<!-- Node2&#45;&gt;Node1 -->
<g id="edge1_Node000001_Node000002" class="edge">
<title>Node2&#45;&gt;Node1</title>
<g id="a_edge1_Node000001_Node000002"><a xlink:title=" ">
<path fill="none" stroke="#63b8ff" d="M78.62,-58.79C88.76,-50.01 101.16,-39.27 110.97,-30.78"/>
<polygon fill="#63b8ff" stroke="#63b8ff" points="76.49,-56 71.22,-65.19 81.07,-61.29 76.49,-56"/>
</a>
</g>
</g>
<!-- Node3 -->
<g id="Node000003" class="node">
<title>Node3</title>
<g id="a_Node000003"><a xlink:href="../../db/d86/classmal__toolkit_1_1non__movable.html" target="_top" xlink:title="A class that can&#39;t be moved.">
<polygon fill="white" stroke="#666666" points="255.75,-85.75 137.75,-85.75 137.75,-66.5 255.75,-66.5 255.75,-85.75"/>
<text text-anchor="middle" x="196.75" y="-72.25" font-family="Times,serif" font-size="10.00">mal_toolkit::non_movable</text>
</a>
</g>
</g>
<!-- Node3&#45;&gt;Node1 -->
<g id="edge2_Node000001_Node000003" class="edge">
<title>Node3&#45;&gt;Node1</title>
<g id="a_edge2_Node000001_Node000003"><a xlink:title=" ">
<path fill="none" stroke="#63b8ff" d="M177.6,-58.79C167.31,-50.01 154.73,-39.27 144.78,-30.78"/>
<polygon fill="#63b8ff" stroke="#63b8ff" points="175.24,-61.37 185.12,-65.2 179.78,-56.05 175.24,-61.37"/>
</a>
</g>
</g>
</g>
</svg>
