<?xml version="1.0" encoding="UTF-8" standalone="no"?>
<!DOCTYPE svg PUBLIC "-//W3C//DTD SVG 1.1//EN"
 "http://www.w3.org/Graphics/SVG/1.1/DTD/svg11.dtd">
<!-- Generated by graphviz version 11.0.0 (20240428.1522)
 -->
<!-- Title: mal_toolkit::ByteArray Pages: 1 -->
<svg width="115pt" height="149pt"
 viewBox="0.00 0.00 114.75 149.00" xmlns="http://www.w3.org/2000/svg" xmlns:xlink="http://www.w3.org/1999/xlink">
<g id="graph0" class="graph" transform="scale(1 1) rotate(0) translate(4 145)">
<title>mal_toolkit::ByteArray</title>
<!-- Node1 -->
<g id="Node000001" class="node">
<title>Node1</title>
<g id="a_Node000001"><a xlink:title="A dynamically resizable array of bytes.">
<polygon fill="#999999" stroke="#666666" points="106.75,-85.75 0,-85.75 0,-66.5 106.75,-66.5 106.75,-85.75"/>
<text text-anchor="middle" x="53.38" y="-72.25" font-family="Times,serif" font-size="10.00">mal_toolkit::ByteArray</text>
</a>
</g>
</g>
<!-- Node3 -->
<g id="Node000003" class="node">
<title>Node3</title>
<g id="a_Node000003"><a xlink:href="../../da/d1a/classmal__packet__weaver_1_1crypto_1_1_key.html" target="_top" xlink:title="Represents a cryptographic key as a byte array.">
<polygon fill="white" stroke="#666666" points="103,-30.5 3.75,-30.5 3.75,0 103,0 103,-30.5"/>
<text text-anchor="start" x="11.75" y="-17" font-family="Times,serif" font-size="10.00">mal_packet_weaver::</text>
<text text-anchor="middle" x="53.38" y="-5.75" font-family="Times,serif" font-size="10.00">crypto::Key</text>
</a>
</g>
</g>
<!-- Node1&#45;&gt;Node3 -->
<g id="edge2_Node000001_Node000003" class="edge">
<title>Node1&#45;&gt;Node3</title>
<g id="a_edge2_Node000001_Node000003"><a xlink:title=" ">
<path fill="none" stroke="#63b8ff" d="M53.38,-54.92C53.38,-46.99 53.38,-38.06 53.38,-30.78"/>
<polygon fill="#63b8ff" stroke="#63b8ff" points="49.88,-54.67 53.38,-64.67 56.88,-54.67 49.88,-54.67"/>
</a>
</g>
</g>
<!-- Node2 -->
<g id="Node000002" class="node">
<title>Node2</title>
<g id="a_Node000002"><a xlink:title=" ">
<polygon fill="white" stroke="#666666" points="93.25,-141 13.5,-141 13.5,-121.75 93.25,-121.75 93.25,-141"/>
<text text-anchor="middle" x="53.38" y="-127.5" font-family="Times,serif" font-size="10.00">std::vector&lt; T &gt;</text>
</a>
</g>
</g>
<!-- Node2&#45;&gt;Node1 -->
<g id="edge1_Node000001_Node000002" class="edge">
<title>Node2&#45;&gt;Node1</title>
<g id="a_edge1_Node000001_Node000002"><a xlink:title=" ">
<path fill="none" stroke="#63b8ff" d="M53.38,-110.13C53.38,-101.84 53.38,-92.67 53.38,-86.11"/>
<polygon fill="#63b8ff" stroke="#63b8ff" points="49.88,-110.07 53.38,-120.07 56.88,-110.07 49.88,-110.07"/>
</a>
</g>
</g>
</g>
</svg>
