<?xml version="1.0" encoding="UTF-8" standalone="no"?>
<!DOCTYPE svg PUBLIC "-//W3C//DTD SVG 1.1//EN"
 "http://www.w3.org/Graphics/SVG/1.1/DTD/svg11.dtd">
<!-- Generated by graphviz version 7.0.5 (20221223.1930)
 -->
<!-- Title: weaver::Session Pages: 1 -->
<svg width="355pt" height="172pt"
 viewBox="0.00 0.00 355.00 171.50" xmlns="http://www.w3.org/2000/svg" xmlns:xlink="http://www.w3.org/1999/xlink">
<g id="graph0" class="graph" transform="scale(1 1) rotate(0) translate(4 167.5)">
<title>weaver::Session</title>
<!-- Node1 -->
<g id="node1" class="node">
<title>Node1</title>
<g id="a_node1"><a xlink:title="Represents a network session for sending and receiving packets.">
<polygon fill="#999999" stroke="#666666" points="347,-86 259,-86 259,-67 347,-67 347,-86"/>
<text text-anchor="middle" x="303" y="-74" font-family="Helvetica,sans-Serif" font-size="10.00">weaver::Session</text>
</a>
</g>
</g>
<!-- Node2 -->
<g id="node2" class="node">
<title>Node2</title>
<g id="a_node2"><a xlink:title=" ">
<polygon fill="white" stroke="#666666" points="106,-163.5 8,-163.5 8,-133.5 106,-133.5 106,-163.5"/>
<text text-anchor="start" x="16" y="-151.5" font-family="Helvetica,sans-Serif" font-size="10.00">utils::non_copyable</text>
<text text-anchor="middle" x="57" y="-140.5" font-family="Helvetica,sans-Serif" font-size="10.00">_non_movable</text>
</a>
</g>
</g>
<!-- Node2&#45;&gt;Node1 -->
<g id="edge1" class="edge">
<title>Node2&#45;&gt;Node1</title>
<path fill="none" stroke="#63b8ff" d="M117.15,-135.49C153.28,-127.01 200.23,-115.02 241,-101.5 254.14,-97.14 268.49,-91.32 279.97,-86.39"/>
<polygon fill="#63b8ff" stroke="#63b8ff" points="116.73,-132 107.78,-137.67 118.31,-138.81 116.73,-132"/>
</g>
<!-- Node3 -->
<g id="node3" class="node">
<title>Node3</title>
<g id="a_node3"><a xlink:title=" ">
<polygon fill="white" stroke="#666666" points="114,-115.5 0,-115.5 0,-85.5 114,-85.5 114,-115.5"/>
<text text-anchor="start" x="8" y="-103.5" font-family="Helvetica,sans-Serif" font-size="10.00">std::enable_shared</text>
<text text-anchor="middle" x="57" y="-92.5" font-family="Helvetica,sans-Serif" font-size="10.00">_from_this&lt; Session &gt;</text>
</a>
</g>
</g>
<!-- Node3&#45;&gt;Node1 -->
<g id="edge2" class="edge">
<title>Node3&#45;&gt;Node1</title>
<path fill="none" stroke="#63b8ff" d="M125.67,-93.84C168.15,-89.67 221.68,-84.4 258.55,-80.77"/>
<polygon fill="#63b8ff" stroke="#63b8ff" points="125.4,-90.35 115.79,-94.82 126.09,-97.32 125.4,-90.35"/>
</g>
<!-- Node4 -->
<g id="node4" class="node">
<title>Node4</title>
<g id="a_node4"><a xlink:title=" ">
<polygon fill="white" stroke="#666666" points="114,-67.5 0,-67.5 0,-37.5 114,-37.5 114,-67.5"/>
<text text-anchor="start" x="8" y="-55.5" font-family="Helvetica,sans-Serif" font-size="10.00">std::unique_ptr&lt; crypto</text>
<text text-anchor="middle" x="57" y="-44.5" font-family="Helvetica,sans-Serif" font-size="10.00">::AES::AES256 &gt;</text>
</a>
</g>
</g>
<!-- Node4&#45;&gt;Node1 -->
<g id="edge3" class="edge">
<title>Node4&#45;&gt;Node1</title>
<path fill="none" stroke="#9a32cd" stroke-dasharray="5,2" d="M125.55,-56.99C160.13,-59.55 202.87,-63.13 241,-67.5 246.74,-68.16 252.78,-68.94 258.72,-69.76"/>
<polygon fill="#9a32cd" stroke="#9a32cd" points="125.89,-53.5 115.67,-56.27 125.39,-60.49 125.89,-53.5"/>
<text text-anchor="middle" x="186.5" y="-70.5" font-family="Helvetica,sans-Serif" font-size="10.00"> aes_</text>
</g>
<!-- Node5 -->
<g id="node5" class="node">
<title>Node5</title>
<g id="a_node5"><a xlink:title=" ">
<polygon fill="white" stroke="#666666" points="87.5,-19 26.5,-19 26.5,0 87.5,0 87.5,-19"/>
<text text-anchor="middle" x="57" y="-7" font-family="Helvetica,sans-Serif" font-size="10.00">std::mutex</text>
</a>
</g>
</g>
<!-- Node5&#45;&gt;Node1 -->
<g id="edge4" class="edge">
<title>Node5&#45;&gt;Node1</title>
<path fill="none" stroke="#9a32cd" stroke-dasharray="5,2" d="M99.05,-12.58C136.84,-16.36 194,-24.5 241,-41.5 258.22,-47.73 276.21,-58.67 288.14,-66.67"/>
<polygon fill="#9a32cd" stroke="#9a32cd" points="99.76,-9.13 89.48,-11.68 99.11,-16.1 99.76,-9.13"/>
<text text-anchor="middle" x="186.5" y="-44.5" font-family="Helvetica,sans-Serif" font-size="10.00"> packet_receiver_mutex_</text>
</g>
</g>
</svg>
