<?xml version="1.0" encoding="UTF-8" standalone="no"?>
<!DOCTYPE svg PUBLIC "-//W3C//DTD SVG 1.1//EN"
 "http://www.w3.org/Graphics/SVG/1.1/DTD/svg11.dtd">
<!-- Generated by graphviz version 8.1.0 (20230707.0739)
 -->
<!-- Title: mal_toolkit::namable::name Pages: 1 -->
<svg width="241pt" height="88pt"
 viewBox="0.00 0.00 241.00 87.50" xmlns="http://www.w3.org/2000/svg" xmlns:xlink="http://www.w3.org/1999/xlink">
<g id="graph0" class="graph" transform="scale(1 1) rotate(0) translate(4 83.5)">
<title>mal_toolkit::namable::name</title>
<!-- Node1 -->
<g id="Node000001" class="node">
<title>Node1</title>
<g id="a_Node000001"><a xlink:title=" ">
<polygon fill="#999999" stroke="#666666" points="233,-54.5 134.5,-54.5 134.5,-24 233,-24 233,-54.5"/>
<text text-anchor="start" x="142.5" y="-41" font-family="Times,serif" font-size="10.00">mal_toolkit::namable</text>
<text text-anchor="middle" x="183.75" y="-29.75" font-family="Times,serif" font-size="10.00">::name</text>
</a>
</g>
</g>
<!-- Node2 -->
<g id="Node000002" class="node">
<title>Node2</title>
<g id="a_Node000002"><a xlink:href="../../da/d90/classmal__toolkit_1_1namable.html#aefd0f1c4f615944afacd0fee2ae9460f" target="_top" xlink:title=" ">
<polygon fill="white" stroke="#666666" points="98.5,-79.5 0,-79.5 0,-49 98.5,-49 98.5,-79.5"/>
<text text-anchor="start" x="8" y="-66" font-family="Times,serif" font-size="10.00">mal_toolkit::namable</text>
<text text-anchor="middle" x="49.25" y="-54.75" font-family="Times,serif" font-size="10.00">::set_name</text>
</a>
</g>
</g>
<!-- Node1&#45;&gt;Node2 -->
<g id="edge1_Node000001_Node000002" class="edge">
<title>Node1&#45;&gt;Node2</title>
<g id="a_edge1_Node000001_Node000002"><a xlink:title=" ">
<path fill="none" stroke="#63b8ff" d="M123.46,-50.44C115.22,-51.99 106.84,-53.57 98.83,-55.08"/>
<polygon fill="#63b8ff" stroke="#63b8ff" points="123.99,-53.71 133.16,-48.42 122.69,-46.83 123.99,-53.71"/>
</a>
</g>
</g>
<!-- Node3 -->
<g id="Node000003" class="node">
<title>Node3</title>
<g id="a_Node000003"><a xlink:href="../../da/d90/classmal__toolkit_1_1namable.html#ae8d0569fe65672799e92fd3744a150f5" target="_top" xlink:title=" ">
<polygon fill="white" stroke="#666666" points="98.5,-30.5 0,-30.5 0,0 98.5,0 98.5,-30.5"/>
<text text-anchor="start" x="8" y="-17" font-family="Times,serif" font-size="10.00">mal_toolkit::namable</text>
<text text-anchor="middle" x="49.25" y="-5.75" font-family="Times,serif" font-size="10.00">::set_name</text>
</a>
</g>
</g>
<!-- Node1&#45;&gt;Node3 -->
<g id="edge2_Node000001_Node000003" class="edge">
<title>Node1&#45;&gt;Node3</title>
<g id="a_edge2_Node000001_Node000003"><a xlink:title=" ">
<path fill="none" stroke="#63b8ff" d="M123.46,-28.51C115.22,-27.02 106.84,-25.5 98.83,-24.05"/>
<polygon fill="#63b8ff" stroke="#63b8ff" points="122.7,-32.11 133.16,-30.45 123.95,-25.22 122.7,-32.11"/>
</a>
</g>
</g>
</g>
</svg>
