<?xml version="1.0" encoding="UTF-8" standalone="no"?>
<!DOCTYPE svg PUBLIC "-//W3C//DTD SVG 1.1//EN"
 "http://www.w3.org/Graphics/SVG/1.1/DTD/svg11.dtd">
<!-- Generated by graphviz version 7.0.5 (20221223.1930)
 -->
<!-- Title: third_party/mal&#45;toolkit/mal&#45;toolkit/detail/endianness.hpp Pages: 1 -->
<svg width="2371pt" height="148pt"
 viewBox="0.00 0.00 2371.00 148.00" xmlns="http://www.w3.org/2000/svg" xmlns:xlink="http://www.w3.org/1999/xlink">
<g id="graph0" class="graph" transform="scale(1 1) rotate(0) translate(4 144)">
<title>third_party/mal&#45;toolkit/mal&#45;toolkit/detail/endianness.hpp</title>
<!-- Node1 -->
<g id="node1" class="node">
<title>Node1</title>
<g id="a_node1"><a xlink:title="Provides functions and utilities for handling endianness conversions.">
<polygon fill="#999999" stroke="#666666" points="1472.5,-140 1311.5,-140 1311.5,-110 1472.5,-110 1472.5,-140"/>
<text text-anchor="start" x="1319.5" y="-128" font-family="Helvetica,sans-Serif" font-size="10.00">third_party/mal&#45;toolkit</text>
<text text-anchor="middle" x="1392" y="-117" font-family="Helvetica,sans-Serif" font-size="10.00">/mal&#45;toolkit/detail/endianness.hpp</text>
</a>
</g>
</g>
<!-- Node2 -->
<g id="node2" class="node">
<title>Node2</title>
<g id="a_node2"><a xlink:href="../../db/d6e/library-pch_8hpp.html" target="_top" xlink:title="Precompiled header (PCH) file for common headers used across the library.">
<polygon fill="white" stroke="#666666" points="1214,-74 1128,-74 1128,-55 1214,-55 1214,-74"/>
<text text-anchor="middle" x="1171" y="-62" font-family="Helvetica,sans-Serif" font-size="10.00">../library&#45;pch.hpp</text>
</a>
</g>
</g>
<!-- Node1&#45;&gt;Node2 -->
<g id="edge1" class="edge">
<title>Node1&#45;&gt;Node2</title>
<path fill="none" stroke="#63b8ff" d="M1337.37,-109.54C1299.89,-99.62 1250.76,-86.61 1215.63,-77.31"/>
<polygon fill="#63b8ff" stroke="#63b8ff" points="1216.77,-73.99 1206.21,-74.82 1214.98,-80.76 1216.77,-73.99"/>
</g>
<!-- Node37 -->
<g id="node37" class="node">
<title>Node37</title>
<g id="a_node37"><a xlink:title=" ">
<polygon fill="#e0e0e0" stroke="#999999" points="1299.5,-74 1232.5,-74 1232.5,-55 1299.5,-55 1299.5,-74"/>
<text text-anchor="middle" x="1266" y="-62" font-family="Helvetica,sans-Serif" font-size="10.00">emmintrin.h</text>
</a>
</g>
</g>
<!-- Node1&#45;&gt;Node37 -->
<g id="edge36" class="edge">
<title>Node1&#45;&gt;Node37</title>
<path fill="none" stroke="#63b8ff" d="M1360.85,-109.54C1340.81,-100.23 1314.92,-88.22 1295.26,-79.09"/>
<polygon fill="#63b8ff" stroke="#63b8ff" points="1296.97,-76.02 1286.43,-74.98 1294.02,-82.37 1296.97,-76.02"/>
</g>
<!-- Node38 -->
<g id="node38" class="node">
<title>Node38</title>
<g id="a_node38"><a xlink:title=" ">
<polygon fill="#e0e0e0" stroke="#999999" points="1382,-74 1318,-74 1318,-55 1382,-55 1382,-74"/>
<text text-anchor="middle" x="1350" y="-62" font-family="Helvetica,sans-Serif" font-size="10.00">immintrin.h</text>
</a>
</g>
</g>
<!-- Node1&#45;&gt;Node38 -->
<g id="edge37" class="edge">
<title>Node1&#45;&gt;Node38</title>
<path fill="none" stroke="#63b8ff" d="M1381.62,-109.54C1375.95,-101.65 1368.89,-91.81 1362.88,-83.44"/>
<polygon fill="#63b8ff" stroke="#63b8ff" points="1365.79,-81.49 1357.11,-75.4 1360.1,-85.57 1365.79,-81.49"/>
</g>
<!-- Node39 -->
<g id="node39" class="node">
<title>Node39</title>
<g id="a_node39"><a xlink:title=" ">
<polygon fill="#e0e0e0" stroke="#999999" points="1467.5,-74 1400.5,-74 1400.5,-55 1467.5,-55 1467.5,-74"/>
<text text-anchor="middle" x="1434" y="-62" font-family="Helvetica,sans-Serif" font-size="10.00">smmintrin.h</text>
</a>
</g>
</g>
<!-- Node1&#45;&gt;Node39 -->
<g id="edge38" class="edge">
<title>Node1&#45;&gt;Node39</title>
<path fill="none" stroke="#63b8ff" d="M1402.38,-109.54C1408.05,-101.65 1415.11,-91.81 1421.12,-83.44"/>
<polygon fill="#63b8ff" stroke="#63b8ff" points="1423.9,-85.57 1426.89,-75.4 1418.21,-81.49 1423.9,-85.57"/>
</g>
<!-- Node40 -->
<g id="node40" class="node">
<title>Node40</title>
<g id="a_node40"><a xlink:title=" ">
<polygon fill="#e0e0e0" stroke="#999999" points="1550.5,-74 1485.5,-74 1485.5,-55 1550.5,-55 1550.5,-74"/>
<text text-anchor="middle" x="1518" y="-62" font-family="Helvetica,sans-Serif" font-size="10.00">tmmintrin.h</text>
</a>
</g>
</g>
<!-- Node1&#45;&gt;Node40 -->
<g id="edge39" class="edge">
<title>Node1&#45;&gt;Node40</title>
<path fill="none" stroke="#63b8ff" d="M1423.15,-109.54C1443.19,-100.23 1469.08,-88.22 1488.74,-79.09"/>
<polygon fill="#63b8ff" stroke="#63b8ff" points="1489.98,-82.37 1497.57,-74.98 1487.03,-76.02 1489.98,-82.37"/>
</g>
<!-- Node41 -->
<g id="node41" class="node">
<title>Node41</title>
<g id="a_node41"><a xlink:title=" ">
<polygon fill="#e0e0e0" stroke="#999999" points="1597.5,-74 1568.5,-74 1568.5,-55 1597.5,-55 1597.5,-74"/>
<text text-anchor="middle" x="1583" y="-62" font-family="Helvetica,sans-Serif" font-size="10.00">bit</text>
</a>
</g>
</g>
<!-- Node1&#45;&gt;Node41 -->
<g id="edge40" class="edge">
<title>Node1&#45;&gt;Node41</title>
<path fill="none" stroke="#63b8ff" d="M1443.74,-109.54C1474.56,-100.71 1514.64,-88.86 1557.73,-74.61"/>
<polygon fill="#63b8ff" stroke="#63b8ff" points="1558.63,-78 1567.01,-71.52 1556.42,-71.36 1558.63,-78"/>
</g>
<!-- Node3 -->
<g id="node3" class="node">
<title>Node3</title>
<g id="a_node3"><a xlink:title=" ">
<polygon fill="#e0e0e0" stroke="#999999" points="56,-19 0,-19 0,0 56,0 56,-19"/>
<text text-anchor="middle" x="28" y="-7" font-family="Helvetica,sans-Serif" font-size="10.00">algorithm</text>
</a>
</g>
</g>
<!-- Node2&#45;&gt;Node3 -->
<g id="edge2" class="edge">
<title>Node2&#45;&gt;Node3</title>
<path fill="none" stroke="#63b8ff" d="M1127.65,-62.83C952.79,-59.97 298.19,-47.64 67.5,-19.01"/>
<polygon fill="#63b8ff" stroke="#63b8ff" points="68.05,-15.55 57.68,-17.74 67.15,-22.49 68.05,-15.55"/>
</g>
<!-- Node4 -->
<g id="node4" class="node">
<title>Node4</title>
<g id="a_node4"><a xlink:title=" ">
<polygon fill="#e0e0e0" stroke="#999999" points="112,-19 74,-19 74,0 112,0 112,-19"/>
<text text-anchor="middle" x="93" y="-7" font-family="Helvetica,sans-Serif" font-size="10.00">array</text>
</a>
</g>
</g>
<!-- Node2&#45;&gt;Node4 -->
<g id="edge3" class="edge">
<title>Node2&#45;&gt;Node4</title>
<path fill="none" stroke="#63b8ff" d="M1127.76,-63.12C958.72,-61.41 341.64,-53.06 123.74,-18.94"/>
<polygon fill="#63b8ff" stroke="#63b8ff" points="124.36,-15.5 113.92,-17.33 123.23,-22.4 124.36,-15.5"/>
</g>
<!-- Node5 -->
<g id="node5" class="node">
<title>Node5</title>
<g id="a_node5"><a xlink:title=" ">
<polygon fill="#e0e0e0" stroke="#999999" points="181.5,-19 130.5,-19 130.5,0 181.5,0 181.5,-19"/>
<text text-anchor="middle" x="156" y="-7" font-family="Helvetica,sans-Serif" font-size="10.00">assert.h</text>
</a>
</g>
</g>
<!-- Node2&#45;&gt;Node5 -->
<g id="edge4" class="edge">
<title>Node2&#45;&gt;Node5</title>
<path fill="none" stroke="#63b8ff" d="M1127.64,-62.64C965.95,-59.28 397.47,-45.9 193.08,-18.92"/>
<polygon fill="#63b8ff" stroke="#63b8ff" points="193.77,-15.48 183.38,-17.58 192.81,-22.42 193.77,-15.48"/>
</g>
<!-- Node6 -->
<g id="node6" class="node">
<title>Node6</title>
<g id="a_node6"><a xlink:title=" ">
<polygon fill="#e0e0e0" stroke="#999999" points="246,-19 200,-19 200,0 246,0 246,-19"/>
<text text-anchor="middle" x="223" y="-7" font-family="Helvetica,sans-Serif" font-size="10.00">chrono</text>
</a>
</g>
</g>
<!-- Node2&#45;&gt;Node6 -->
<g id="edge5" class="edge">
<title>Node2&#45;&gt;Node6</title>
<path fill="none" stroke="#63b8ff" d="M1127.51,-62.6C972.7,-59.23 447.98,-46.16 257.54,-18.98"/>
<polygon fill="#63b8ff" stroke="#63b8ff" points="258.2,-15.54 247.79,-17.52 257.17,-22.46 258.2,-15.54"/>
</g>
<!-- Node7 -->
<g id="node7" class="node">
<title>Node7</title>
<g id="a_node7"><a xlink:title=" ">
<polygon fill="#e0e0e0" stroke="#999999" points="308,-19 264,-19 264,0 308,0 308,-19"/>
<text text-anchor="middle" x="286" y="-7" font-family="Helvetica,sans-Serif" font-size="10.00">cmath</text>
</a>
</g>
</g>
<!-- Node2&#45;&gt;Node7 -->
<g id="edge6" class="edge">
<title>Node2&#45;&gt;Node7</title>
<path fill="none" stroke="#63b8ff" d="M1127.61,-62.48C980,-58.8 497.03,-45.18 319.47,-18.96"/>
<polygon fill="#63b8ff" stroke="#63b8ff" points="320.14,-15.52 309.72,-17.44 319.07,-22.44 320.14,-15.52"/>
</g>
<!-- Node8 -->
<g id="node8" class="node">
<title>Node8</title>
<g id="a_node8"><a xlink:title=" ">
<polygon fill="#e0e0e0" stroke="#999999" points="382,-19 326,-19 326,0 382,0 382,-19"/>
<text text-anchor="middle" x="354" y="-7" font-family="Helvetica,sans-Serif" font-size="10.00">concepts</text>
</a>
</g>
</g>
<!-- Node2&#45;&gt;Node8 -->
<g id="edge7" class="edge">
<title>Node2&#45;&gt;Node8</title>
<path fill="none" stroke="#63b8ff" d="M1127.62,-63.58C1010.59,-63.27 678.55,-58.78 393.59,-19.1"/>
<polygon fill="#63b8ff" stroke="#63b8ff" points="394.08,-15.64 383.69,-17.7 393.1,-22.57 394.08,-15.64"/>
</g>
<!-- Node9 -->
<g id="node9" class="node">
<title>Node9</title>
<g id="a_node9"><a xlink:title=" ">
<polygon fill="#e0e0e0" stroke="#999999" points="495.5,-19 400.5,-19 400.5,0 495.5,0 495.5,-19"/>
<text text-anchor="middle" x="448" y="-7" font-family="Helvetica,sans-Serif" font-size="10.00">condition_variable</text>
</a>
</g>
</g>
<!-- Node2&#45;&gt;Node9 -->
<g id="edge8" class="edge">
<title>Node2&#45;&gt;Node9</title>
<path fill="none" stroke="#63b8ff" d="M1127.65,-61.83C1022.98,-57.52 747.95,-44.65 507.29,-19.15"/>
<polygon fill="#63b8ff" stroke="#63b8ff" points="507.68,-15.67 497.36,-18.09 506.93,-22.63 507.68,-15.67"/>
</g>
<!-- Node10 -->
<g id="node10" class="node">
<title>Node10</title>
<g id="a_node10"><a xlink:title=" ">
<polygon fill="#e0e0e0" stroke="#999999" points="560,-19 514,-19 514,0 560,0 560,-19"/>
<text text-anchor="middle" x="537" y="-7" font-family="Helvetica,sans-Serif" font-size="10.00">cstdint</text>
</a>
</g>
</g>
<!-- Node2&#45;&gt;Node10 -->
<g id="edge9" class="edge">
<title>Node2&#45;&gt;Node10</title>
<path fill="none" stroke="#63b8ff" d="M1127.6,-63.05C1029.82,-61.44 784.77,-54.12 571.41,-19.08"/>
<polygon fill="#63b8ff" stroke="#63b8ff" points="572.24,-15.67 561.8,-17.48 571.09,-22.58 572.24,-15.67"/>
</g>
<!-- Node11 -->
<g id="node11" class="node">
<title>Node11</title>
<g id="a_node11"><a xlink:title=" ">
<polygon fill="#e0e0e0" stroke="#999999" points="623.5,-19 578.5,-19 578.5,0 623.5,0 623.5,-19"/>
<text text-anchor="middle" x="601" y="-7" font-family="Helvetica,sans-Serif" font-size="10.00">cstdlib</text>
</a>
</g>
</g>
<!-- Node2&#45;&gt;Node11 -->
<g id="edge10" class="edge">
<title>Node2&#45;&gt;Node11</title>
<path fill="none" stroke="#63b8ff" d="M1127.78,-62.52C1037.81,-59.92 823.74,-50.84 635.2,-19.05"/>
<polygon fill="#63b8ff" stroke="#63b8ff" points="635.9,-15.62 625.46,-17.38 634.72,-22.52 635.9,-15.62"/>
</g>
<!-- Node12 -->
<g id="node12" class="node">
<title>Node12</title>
<g id="a_node12"><a xlink:title=" ">
<polygon fill="#e0e0e0" stroke="#999999" points="702,-19 642,-19 642,0 702,0 702,-19"/>
<text text-anchor="middle" x="672" y="-7" font-family="Helvetica,sans-Serif" font-size="10.00">filesystem</text>
</a>
</g>
</g>
<!-- Node2&#45;&gt;Node12 -->
<g id="edge11" class="edge">
<title>Node2&#45;&gt;Node12</title>
<path fill="none" stroke="#63b8ff" d="M1127.66,-61.02C1047.76,-56.08 871.7,-43.47 713.52,-19.21"/>
<polygon fill="#63b8ff" stroke="#63b8ff" points="714.08,-15.76 703.66,-17.68 713.01,-22.67 714.08,-15.76"/>
</g>
<!-- Node13 -->
<g id="node13" class="node">
<title>Node13</title>
<g id="a_node13"><a xlink:title=" ">
<polygon fill="#e0e0e0" stroke="#999999" points="770,-19 720,-19 720,0 770,0 770,-19"/>
<text text-anchor="middle" x="745" y="-7" font-family="Helvetica,sans-Serif" font-size="10.00">fstream</text>
</a>
</g>
</g>
<!-- Node2&#45;&gt;Node13 -->
<g id="edge12" class="edge">
<title>Node2&#45;&gt;Node13</title>
<path fill="none" stroke="#63b8ff" d="M1127.51,-60.45C1056.88,-55.08 912.69,-42.43 781.23,-19.17"/>
<polygon fill="#63b8ff" stroke="#63b8ff" points="782.12,-15.78 771.66,-17.45 780.88,-22.67 782.12,-15.78"/>
</g>
<!-- Node14 -->
<g id="node14" class="node">
<title>Node14</title>
<g id="a_node14"><a xlink:title=" ">
<polygon fill="#e0e0e0" stroke="#999999" points="847.5,-19 788.5,-19 788.5,0 847.5,0 847.5,-19"/>
<text text-anchor="middle" x="818" y="-7" font-family="Helvetica,sans-Serif" font-size="10.00">functional</text>
</a>
</g>
</g>
<!-- Node2&#45;&gt;Node14 -->
<g id="edge13" class="edge">
<title>Node2&#45;&gt;Node14</title>
<path fill="none" stroke="#63b8ff" d="M1127.67,-58.39C1069.08,-51.25 961.12,-37.3 858.91,-19.22"/>
<polygon fill="#63b8ff" stroke="#63b8ff" points="859.72,-15.81 849.26,-17.49 858.48,-22.7 859.72,-15.81"/>
</g>
<!-- Node15 -->
<g id="node15" class="node">
<title>Node15</title>
<g id="a_node15"><a xlink:title=" ">
<polygon fill="#e0e0e0" stroke="#999999" points="916,-19 866,-19 866,0 916,0 916,-19"/>
<text text-anchor="middle" x="891" y="-7" font-family="Helvetica,sans-Serif" font-size="10.00">iomanip</text>
</a>
</g>
</g>
<!-- Node2&#45;&gt;Node15 -->
<g id="edge14" class="edge">
<title>Node2&#45;&gt;Node15</title>
<path fill="none" stroke="#63b8ff" d="M1127.73,-56.56C1080.77,-48.83 1003.34,-35.53 927.4,-19.4"/>
<polygon fill="#63b8ff" stroke="#63b8ff" points="928.2,-15.99 917.69,-17.32 926.73,-22.84 928.2,-15.99"/>
</g>
<!-- Node16 -->
<g id="node16" class="node">
<title>Node16</title>
<g id="a_node16"><a xlink:title=" ">
<polygon fill="#e0e0e0" stroke="#999999" points="983.5,-19 934.5,-19 934.5,0 983.5,0 983.5,-19"/>
<text text-anchor="middle" x="959" y="-7" font-family="Helvetica,sans-Serif" font-size="10.00">istream</text>
</a>
</g>
</g>
<!-- Node2&#45;&gt;Node16 -->
<g id="edge15" class="edge">
<title>Node2&#45;&gt;Node16</title>
<path fill="none" stroke="#63b8ff" d="M1135.04,-54.51C1095.98,-44.75 1033.97,-29.24 994.93,-19.48"/>
<polygon fill="#63b8ff" stroke="#63b8ff" points="995.86,-16.11 985.31,-17.08 994.17,-22.9 995.86,-16.11"/>
</g>
<!-- Node17 -->
<g id="node17" class="node">
<title>Node17</title>
<g id="a_node17"><a xlink:title=" ">
<polygon fill="#e0e0e0" stroke="#999999" points="1042,-19 1002,-19 1002,0 1042,0 1042,-19"/>
<text text-anchor="middle" x="1022" y="-7" font-family="Helvetica,sans-Serif" font-size="10.00">limits</text>
</a>
</g>
</g>
<!-- Node2&#45;&gt;Node17 -->
<g id="edge16" class="edge">
<title>Node2&#45;&gt;Node17</title>
<path fill="none" stroke="#63b8ff" d="M1145.72,-54.51C1120.04,-45.37 1080.22,-31.21 1052.73,-21.43"/>
<polygon fill="#63b8ff" stroke="#63b8ff" points="1054.15,-18.22 1043.56,-18.17 1051.81,-24.82 1054.15,-18.22"/>
</g>
<!-- Node18 -->
<g id="node18" class="node">
<title>Node18</title>
<g id="a_node18"><a xlink:title=" ">
<polygon fill="#e0e0e0" stroke="#999999" points="1095.5,-19 1060.5,-19 1060.5,0 1095.5,0 1095.5,-19"/>
<text text-anchor="middle" x="1078" y="-7" font-family="Helvetica,sans-Serif" font-size="10.00">map</text>
</a>
</g>
</g>
<!-- Node2&#45;&gt;Node18 -->
<g id="edge17" class="edge">
<title>Node2&#45;&gt;Node18</title>
<path fill="none" stroke="#63b8ff" d="M1155.22,-54.51C1140.98,-46.39 1119.76,-34.3 1103.17,-24.85"/>
<polygon fill="#63b8ff" stroke="#63b8ff" points="1105.28,-22.02 1094.86,-20.11 1101.81,-28.1 1105.28,-22.02"/>
</g>
<!-- Node19 -->
<g id="node19" class="node">
<title>Node19</title>
<g id="a_node19"><a xlink:title=" ">
<polygon fill="#e0e0e0" stroke="#999999" points="1164.5,-19 1113.5,-19 1113.5,0 1164.5,0 1164.5,-19"/>
<text text-anchor="middle" x="1139" y="-7" font-family="Helvetica,sans-Serif" font-size="10.00">memory</text>
</a>
</g>
</g>
<!-- Node2&#45;&gt;Node19 -->
<g id="edge18" class="edge">
<title>Node2&#45;&gt;Node19</title>
<path fill="none" stroke="#63b8ff" d="M1165.72,-54.75C1161.53,-47.81 1155.52,-37.86 1150.27,-29.16"/>
<polygon fill="#63b8ff" stroke="#63b8ff" points="1153.35,-27.49 1145.18,-20.74 1147.35,-31.11 1153.35,-27.49"/>
</g>
<!-- Node20 -->
<g id="node20" class="node">
<title>Node20</title>
<g id="a_node20"><a xlink:title=" ">
<polygon fill="#e0e0e0" stroke="#999999" points="1225.5,-19 1182.5,-19 1182.5,0 1225.5,0 1225.5,-19"/>
<text text-anchor="middle" x="1204" y="-7" font-family="Helvetica,sans-Serif" font-size="10.00">mutex</text>
</a>
</g>
</g>
<!-- Node2&#45;&gt;Node20 -->
<g id="edge19" class="edge">
<title>Node2&#45;&gt;Node20</title>
<path fill="none" stroke="#63b8ff" d="M1176.45,-54.75C1180.77,-47.81 1186.96,-37.86 1192.38,-29.16"/>
<polygon fill="#63b8ff" stroke="#63b8ff" points="1195.32,-31.07 1197.63,-20.73 1189.38,-27.37 1195.32,-31.07"/>
</g>
<!-- Node21 -->
<g id="node21" class="node">
<title>Node21</title>
<g id="a_node21"><a xlink:title=" ">
<polygon fill="#e0e0e0" stroke="#999999" points="1298,-19 1244,-19 1244,0 1298,0 1298,-19"/>
<text text-anchor="middle" x="1271" y="-7" font-family="Helvetica,sans-Serif" font-size="10.00">numbers</text>
</a>
</g>
</g>
<!-- Node2&#45;&gt;Node21 -->
<g id="edge20" class="edge">
<title>Node2&#45;&gt;Node21</title>
<path fill="none" stroke="#63b8ff" d="M1187.96,-54.51C1203.36,-46.35 1226.31,-34.19 1244.19,-24.71"/>
<polygon fill="#63b8ff" stroke="#63b8ff" points="1245.75,-27.84 1252.95,-20.07 1242.47,-21.66 1245.75,-27.84"/>
</g>
<!-- Node22 -->
<g id="node22" class="node">
<title>Node22</title>
<g id="a_node22"><a xlink:title=" ">
<polygon fill="#e0e0e0" stroke="#999999" points="1367.5,-19 1316.5,-19 1316.5,0 1367.5,0 1367.5,-19"/>
<text text-anchor="middle" x="1342" y="-7" font-family="Helvetica,sans-Serif" font-size="10.00">numeric</text>
</a>
</g>
</g>
<!-- Node2&#45;&gt;Node22 -->
<g id="edge21" class="edge">
<title>Node2&#45;&gt;Node22</title>
<path fill="none" stroke="#63b8ff" d="M1200.01,-54.51C1229.03,-45.51 1273.78,-31.65 1305.26,-21.89"/>
<polygon fill="#63b8ff" stroke="#63b8ff" points="1306.25,-25.24 1314.77,-18.94 1304.18,-18.56 1306.25,-25.24"/>
</g>
<!-- Node23 -->
<g id="node23" class="node">
<title>Node23</title>
<g id="a_node23"><a xlink:title=" ">
<polygon fill="#e0e0e0" stroke="#999999" points="1436,-19 1386,-19 1386,0 1436,0 1436,-19"/>
<text text-anchor="middle" x="1411" y="-7" font-family="Helvetica,sans-Serif" font-size="10.00">optional</text>
</a>
</g>
</g>
<!-- Node2&#45;&gt;Node23 -->
<g id="edge22" class="edge">
<title>Node2&#45;&gt;Node23</title>
<path fill="none" stroke="#63b8ff" d="M1214.49,-54.53C1253.88,-46.31 1313.79,-33.58 1374.78,-19.46"/>
<polygon fill="#63b8ff" stroke="#63b8ff" points="1375.35,-22.92 1384.3,-17.25 1373.76,-16.1 1375.35,-22.92"/>
</g>
<!-- Node24 -->
<g id="node24" class="node">
<title>Node24</title>
<g id="a_node24"><a xlink:title=" ">
<polygon fill="#e0e0e0" stroke="#999999" points="1506,-19 1454,-19 1454,0 1506,0 1506,-19"/>
<text text-anchor="middle" x="1480" y="-7" font-family="Helvetica,sans-Serif" font-size="10.00">ostream</text>
</a>
</g>
</g>
<!-- Node2&#45;&gt;Node24 -->
<g id="edge23" class="edge">
<title>Node2&#45;&gt;Node24</title>
<path fill="none" stroke="#63b8ff" d="M1214.3,-56.56C1280.24,-45.97 1401.82,-26.41 1442.38,-19.23"/>
<polygon fill="#63b8ff" stroke="#63b8ff" points="1443,-22.67 1452.19,-17.4 1441.72,-15.79 1443,-22.67"/>
</g>
<!-- Node25 -->
<g id="node25" class="node">
<title>Node25</title>
<g id="a_node25"><a xlink:title=" ">
<polygon fill="#e0e0e0" stroke="#999999" points="1573.5,-19 1524.5,-19 1524.5,0 1573.5,0 1573.5,-19"/>
<text text-anchor="middle" x="1549" y="-7" font-family="Helvetica,sans-Serif" font-size="10.00">random</text>
</a>
</g>
</g>
<!-- Node2&#45;&gt;Node25 -->
<g id="edge24" class="edge">
<title>Node2&#45;&gt;Node25</title>
<path fill="none" stroke="#63b8ff" d="M1214.37,-56.41C1217.62,-55.92 1220.86,-55.45 1224,-55 1349.5,-37.18 1384.96,-42.53 1513.16,-19.12"/>
<polygon fill="#63b8ff" stroke="#63b8ff" points="1513.51,-22.61 1522.71,-17.35 1512.24,-15.73 1513.51,-22.61"/>
</g>
<!-- Node26 -->
<g id="node26" class="node">
<title>Node26</title>
<g id="a_node26"><a xlink:title=" ">
<polygon fill="#e0e0e0" stroke="#999999" points="1668.5,-19 1591.5,-19 1591.5,0 1668.5,0 1668.5,-19"/>
<text text-anchor="middle" x="1630" y="-7" font-family="Helvetica,sans-Serif" font-size="10.00">shared_mutex</text>
</a>
</g>
</g>
<!-- Node2&#45;&gt;Node26 -->
<g id="edge25" class="edge">
<title>Node2&#45;&gt;Node26</title>
<path fill="none" stroke="#63b8ff" d="M1214.36,-56.33C1217.62,-55.86 1220.86,-55.41 1224,-55 1379.44,-34.76 1422.29,-40.99 1580,-19.33"/>
<polygon fill="#63b8ff" stroke="#63b8ff" points="1580.13,-22.84 1589.56,-18 1579.17,-15.91 1580.13,-22.84"/>
</g>
<!-- Node27 -->
<g id="node27" class="node">
<title>Node27</title>
<g id="a_node27"><a xlink:title=" ">
<polygon fill="#e0e0e0" stroke="#999999" points="1725,-19 1687,-19 1687,0 1725,0 1725,-19"/>
<text text-anchor="middle" x="1706" y="-7" font-family="Helvetica,sans-Serif" font-size="10.00">span</text>
</a>
</g>
</g>
<!-- Node2&#45;&gt;Node27 -->
<g id="edge26" class="edge">
<title>Node2&#45;&gt;Node27</title>
<path fill="none" stroke="#63b8ff" d="M1214.35,-56.26C1217.61,-55.8 1220.85,-55.38 1224,-55 1421.35,-31.39 1477.11,-55.71 1675.46,-19.07"/>
<polygon fill="#63b8ff" stroke="#63b8ff" points="1675.88,-22.56 1685.06,-17.27 1674.59,-15.68 1675.88,-22.56"/>
</g>
<!-- Node28 -->
<g id="node28" class="node">
<title>Node28</title>
<g id="a_node28"><a xlink:title=" ">
<polygon fill="#e0e0e0" stroke="#999999" points="1795,-19 1743,-19 1743,0 1795,0 1795,-19"/>
<text text-anchor="middle" x="1769" y="-7" font-family="Helvetica,sans-Serif" font-size="10.00">sstream</text>
</a>
</g>
</g>
<!-- Node2&#45;&gt;Node28 -->
<g id="edge27" class="edge">
<title>Node2&#45;&gt;Node28</title>
<path fill="none" stroke="#63b8ff" d="M1214.34,-56.23C1217.61,-55.78 1220.85,-55.36 1224,-55 1446.1,-29.4 1507.5,-53.14 1731.58,-19.1"/>
<polygon fill="#63b8ff" stroke="#63b8ff" points="1731.88,-22.6 1741.23,-17.61 1730.81,-15.68 1731.88,-22.6"/>
</g>
<!-- Node29 -->
<g id="node29" class="node">
<title>Node29</title>
<g id="a_node29"><a xlink:title=" ">
<polygon fill="#e0e0e0" stroke="#999999" points="1872.5,-19 1813.5,-19 1813.5,0 1872.5,0 1872.5,-19"/>
<text text-anchor="middle" x="1843" y="-7" font-family="Helvetica,sans-Serif" font-size="10.00">stdexcept</text>
</a>
</g>
</g>
<!-- Node2&#45;&gt;Node29 -->
<g id="edge28" class="edge">
<title>Node2&#45;&gt;Node29</title>
<path fill="none" stroke="#63b8ff" d="M1214.34,-56.2C1217.6,-55.76 1220.85,-55.35 1224,-55 1477.06,-26.92 1546.24,-53.82 1802.13,-19.01"/>
<polygon fill="#63b8ff" stroke="#63b8ff" points="1802.35,-22.51 1811.77,-17.68 1801.39,-15.58 1802.35,-22.51"/>
</g>
<!-- Node30 -->
<g id="node30" class="node">
<title>Node30</title>
<g id="a_node30"><a xlink:title=" ">
<polygon fill="#e0e0e0" stroke="#999999" points="1939,-19 1891,-19 1891,0 1939,0 1939,-19"/>
<text text-anchor="middle" x="1915" y="-7" font-family="Helvetica,sans-Serif" font-size="10.00">stdint.h</text>
</a>
</g>
</g>
<!-- Node2&#45;&gt;Node30 -->
<g id="edge29" class="edge">
<title>Node2&#45;&gt;Node30</title>
<path fill="none" stroke="#63b8ff" d="M1214.34,-56.17C1217.6,-55.74 1220.85,-55.34 1224,-55 1511.51,-24.16 1590.56,-62.74 1879.36,-19.08"/>
<polygon fill="#63b8ff" stroke="#63b8ff" points="1879.75,-22.56 1889.11,-17.59 1878.69,-15.64 1879.75,-22.56"/>
</g>
<!-- Node31 -->
<g id="node31" class="node">
<title>Node31</title>
<g id="a_node31"><a xlink:title=" ">
<polygon fill="#e0e0e0" stroke="#999999" points="1998.5,-19 1957.5,-19 1957.5,0 1998.5,0 1998.5,-19"/>
<text text-anchor="middle" x="1978" y="-7" font-family="Helvetica,sans-Serif" font-size="10.00">string</text>
</a>
</g>
</g>
<!-- Node2&#45;&gt;Node31 -->
<g id="edge30" class="edge">
<title>Node2&#45;&gt;Node31</title>
<path fill="none" stroke="#63b8ff" d="M1214.33,-56.15C1217.6,-55.72 1220.85,-55.33 1224,-55 1540.82,-21.82 1628.14,-70.14 1946.23,-18.84"/>
<polygon fill="#63b8ff" stroke="#63b8ff" points="1946.36,-22.37 1955.66,-17.3 1945.23,-15.46 1946.36,-22.37"/>
</g>
<!-- Node32 -->
<g id="node32" class="node">
<title>Node32</title>
<g id="a_node32"><a xlink:title=" ">
<polygon fill="#e0e0e0" stroke="#999999" points="2061,-19 2017,-19 2017,0 2061,0 2061,-19"/>
<text text-anchor="middle" x="2039" y="-7" font-family="Helvetica,sans-Serif" font-size="10.00">thread</text>
</a>
</g>
</g>
<!-- Node2&#45;&gt;Node32 -->
<g id="edge31" class="edge">
<title>Node2&#45;&gt;Node32</title>
<path fill="none" stroke="#63b8ff" d="M1214.33,-56.14C1217.6,-55.71 1220.85,-55.32 1224,-55 1567.26,-19.71 1661.45,-72.3 2005.48,-19"/>
<polygon fill="#63b8ff" stroke="#63b8ff" points="2005.95,-22.47 2015.28,-17.46 2004.86,-15.56 2005.95,-22.47"/>
</g>
<!-- Node33 -->
<g id="node33" class="node">
<title>Node33</title>
<g id="a_node33"><a xlink:title=" ">
<polygon fill="#e0e0e0" stroke="#999999" points="2141,-19 2079,-19 2079,0 2141,0 2141,-19"/>
<text text-anchor="middle" x="2110" y="-7" font-family="Helvetica,sans-Serif" font-size="10.00">type_traits</text>
</a>
</g>
</g>
<!-- Node2&#45;&gt;Node33 -->
<g id="edge32" class="edge">
<title>Node2&#45;&gt;Node33</title>
<path fill="none" stroke="#63b8ff" d="M1214.33,-56.13C1217.6,-55.7 1220.85,-55.32 1224,-55 1594.68,-17.52 1694.65,-65.3 2067.26,-19.11"/>
<polygon fill="#63b8ff" stroke="#63b8ff" points="2067.65,-22.59 2077.14,-17.87 2066.78,-15.64 2067.65,-22.59"/>
</g>
<!-- Node34 -->
<g id="node34" class="node">
<title>Node34</title>
<g id="a_node34"><a xlink:title=" ">
<polygon fill="#e0e0e0" stroke="#999999" points="2237,-19 2159,-19 2159,0 2237,0 2237,-19"/>
<text text-anchor="middle" x="2198" y="-7" font-family="Helvetica,sans-Serif" font-size="10.00">unordered_set</text>
</a>
</g>
</g>
<!-- Node2&#45;&gt;Node34 -->
<g id="edge33" class="edge">
<title>Node2&#45;&gt;Node34</title>
<path fill="none" stroke="#63b8ff" d="M1214.33,-56.12C1217.6,-55.69 1220.85,-55.31 1224,-55 1630.15,-14.68 1738.54,-62.14 2147.26,-19.13"/>
<polygon fill="#63b8ff" stroke="#63b8ff" points="2147.43,-22.63 2157,-18.09 2146.69,-15.67 2147.43,-22.63"/>
</g>
<!-- Node35 -->
<g id="node35" class="node">
<title>Node35</title>
<g id="a_node35"><a xlink:title=" ">
<polygon fill="#e0e0e0" stroke="#999999" points="2301,-19 2255,-19 2255,0 2301,0 2301,-19"/>
<text text-anchor="middle" x="2278" y="-7" font-family="Helvetica,sans-Serif" font-size="10.00">variant</text>
</a>
</g>
</g>
<!-- Node2&#45;&gt;Node35 -->
<g id="edge34" class="edge">
<title>Node2&#45;&gt;Node35</title>
<path fill="none" stroke="#63b8ff" d="M1214.33,-56.1C1217.6,-55.68 1220.85,-55.31 1224,-55 1672.61,-11.3 1794.41,-84.53 2243.37,-19.01"/>
<polygon fill="#63b8ff" stroke="#63b8ff" points="2243.83,-22.48 2253.21,-17.55 2242.81,-15.55 2243.83,-22.48"/>
</g>
<!-- Node36 -->
<g id="node36" class="node">
<title>Node36</title>
<g id="a_node36"><a xlink:title=" ">
<polygon fill="#e0e0e0" stroke="#999999" points="2363,-19 2319,-19 2319,0 2363,0 2363,-19"/>
<text text-anchor="middle" x="2341" y="-7" font-family="Helvetica,sans-Serif" font-size="10.00">vector</text>
</a>
</g>
</g>
<!-- Node2&#45;&gt;Node36 -->
<g id="edge35" class="edge">
<title>Node2&#45;&gt;Node36</title>
<path fill="none" stroke="#63b8ff" d="M1214.33,-56.1C1217.6,-55.68 1220.85,-55.3 1224,-55 1700.95,-9.03 1830.5,-90.06 2307.45,-18.97"/>
<polygon fill="#63b8ff" stroke="#63b8ff" points="2307.92,-22.44 2317.29,-17.49 2306.88,-15.52 2307.92,-22.44"/>
</g>
</g>
</svg>
