<?xml version="1.0" encoding="UTF-8" standalone="no"?>
<!DOCTYPE svg PUBLIC "-//W3C//DTD SVG 1.1//EN"
 "http://www.w3.org/Graphics/SVG/1.1/DTD/svg11.dtd">
<!-- Generated by graphviz version 11.0.0 (20240428.1522)
 -->
<!-- Title: third_party/mal&#45;toolkit/mal&#45;toolkit/mal&#45;toolkit/detail/endianness.hpp Pages: 1 -->
<svg width="2248pt" height="160pt"
 viewBox="0.00 0.00 2247.75 160.25" xmlns="http://www.w3.org/2000/svg" xmlns:xlink="http://www.w3.org/1999/xlink">
<g id="graph0" class="graph" transform="scale(1 1) rotate(0) translate(4 156.25)">
<title>third_party/mal&#45;toolkit/mal&#45;toolkit/mal&#45;toolkit/detail/endianness.hpp</title>
<!-- Node1 -->
<g id="Node000001" class="node">
<title>Node1</title>
<g id="a_Node000001"><a xlink:title="Provides functions and utilities for handling endianness conversions.">
<polygon fill="#999999" stroke="#666666" points="986.12,-152.25 878.62,-152.25 878.62,-110.5 986.12,-110.5 986.12,-152.25"/>
<text text-anchor="start" x="886.62" y="-138.75" font-family="Times,serif" font-size="10.00">third_party/mal&#45;toolkit</text>
<text text-anchor="start" x="886.62" y="-127.5" font-family="Times,serif" font-size="10.00">/mal&#45;toolkit/mal&#45;toolkit</text>
<text text-anchor="middle" x="932.38" y="-116.25" font-family="Times,serif" font-size="10.00">/detail/endianness.hpp</text>
</a>
</g>
</g>
<!-- Node2 -->
<g id="Node000002" class="node">
<title>Node2</title>
<g id="a_Node000002"><a xlink:title=" ">
<polygon fill="#e0e0e0" stroke="#999999" points="759.12,-74.5 693.62,-74.5 693.62,-55.25 759.12,-55.25 759.12,-74.5"/>
<text text-anchor="middle" x="726.38" y="-61" font-family="Times,serif" font-size="10.00">emmintrin.h</text>
</a>
</g>
</g>
<!-- Node1&#45;&gt;Node2 -->
<g id="edge1_Node000001_Node000002" class="edge">
<title>Node1&#45;&gt;Node2</title>
<g id="a_edge1_Node000001_Node000002"><a xlink:title=" ">
<path fill="none" stroke="#63b8ff" d="M878.25,-113.43C843.06,-102.41 797.96,-88.29 766.08,-78.31"/>
<polygon fill="#63b8ff" stroke="#63b8ff" points="767.42,-75.06 756.84,-75.41 765.33,-81.74 767.42,-75.06"/>
</a>
</g>
</g>
<!-- Node3 -->
<g id="Node000003" class="node">
<title>Node3</title>
<g id="a_Node000003"><a xlink:title=" ">
<polygon fill="#e0e0e0" stroke="#999999" points="841.38,-74.5 777.38,-74.5 777.38,-55.25 841.38,-55.25 841.38,-74.5"/>
<text text-anchor="middle" x="809.38" y="-61" font-family="Times,serif" font-size="10.00">immintrin.h</text>
</a>
</g>
</g>
<!-- Node1&#45;&gt;Node3 -->
<g id="edge2_Node000001_Node000003" class="edge">
<title>Node1&#45;&gt;Node3</title>
<g id="a_edge2_Node000001_Node000003"><a xlink:title=" ">
<path fill="none" stroke="#63b8ff" d="M893.79,-110.14C875.12,-100.35 853.17,-88.84 836.32,-80.01"/>
<polygon fill="#63b8ff" stroke="#63b8ff" points="838.4,-77.14 827.92,-75.6 835.15,-83.34 838.4,-77.14"/>
</a>
</g>
</g>
<!-- Node4 -->
<g id="Node000004" class="node">
<title>Node4</title>
<g id="a_Node000004"><a xlink:title=" ">
<polygon fill="#e0e0e0" stroke="#999999" points="923.75,-74.5 859,-74.5 859,-55.25 923.75,-55.25 923.75,-74.5"/>
<text text-anchor="middle" x="891.38" y="-61" font-family="Times,serif" font-size="10.00">smmintrin.h</text>
</a>
</g>
</g>
<!-- Node1&#45;&gt;Node4 -->
<g id="edge3_Node000001_Node000004" class="edge">
<title>Node1&#45;&gt;Node4</title>
<g id="a_edge3_Node000001_Node000004"><a xlink:title=" ">
<path fill="none" stroke="#63b8ff" d="M919.63,-110.32C914.4,-102.09 908.38,-92.62 903.24,-84.54"/>
<polygon fill="#63b8ff" stroke="#63b8ff" points="906.27,-82.78 897.95,-76.22 900.36,-86.54 906.27,-82.78"/>
</a>
</g>
</g>
<!-- Node5 -->
<g id="Node000005" class="node">
<title>Node5</title>
<g id="a_Node000005"><a xlink:title=" ">
<polygon fill="#e0e0e0" stroke="#999999" points="1005.38,-74.5 941.38,-74.5 941.38,-55.25 1005.38,-55.25 1005.38,-74.5"/>
<text text-anchor="middle" x="973.38" y="-61" font-family="Times,serif" font-size="10.00">tmmintrin.h</text>
</a>
</g>
</g>
<!-- Node1&#45;&gt;Node5 -->
<g id="edge4_Node000001_Node000005" class="edge">
<title>Node1&#45;&gt;Node5</title>
<g id="a_edge4_Node000001_Node000005"><a xlink:title=" ">
<path fill="none" stroke="#63b8ff" d="M945.12,-110.32C950.35,-102.09 956.37,-92.62 961.51,-84.54"/>
<polygon fill="#63b8ff" stroke="#63b8ff" points="964.39,-86.54 966.8,-76.22 958.48,-82.78 964.39,-86.54"/>
</a>
</g>
</g>
<!-- Node6 -->
<g id="Node000006" class="node">
<title>Node6</title>
<g id="a_Node000006"><a xlink:title=" ">
<polygon fill="#e0e0e0" stroke="#999999" points="1051.78,-74.5 1022.98,-74.5 1022.98,-55.25 1051.78,-55.25 1051.78,-74.5"/>
<text text-anchor="middle" x="1037.38" y="-61" font-family="Times,serif" font-size="10.00">bit</text>
</a>
</g>
</g>
<!-- Node1&#45;&gt;Node6 -->
<g id="edge5_Node000001_Node000006" class="edge">
<title>Node1&#45;&gt;Node6</title>
<g id="a_edge5_Node000001_Node000006"><a xlink:title=" ">
<path fill="none" stroke="#63b8ff" d="M965.31,-110.14C980.8,-100.63 998.93,-89.49 1013.14,-80.76"/>
<polygon fill="#63b8ff" stroke="#63b8ff" points="1014.71,-83.9 1021.4,-75.69 1011.05,-77.94 1014.71,-83.9"/>
</a>
</g>
</g>
<!-- Node7 -->
<g id="Node000007" class="node">
<title>Node7</title>
<g id="a_Node000007"><a xlink:href="../../db/d6e/library-pch_8hpp.html" target="_top" xlink:title="Precompiled header (PCH) file for common headers used across the library.">
<polygon fill="white" stroke="#666666" points="1156.62,-74.5 1070.12,-74.5 1070.12,-55.25 1156.62,-55.25 1156.62,-74.5"/>
<text text-anchor="middle" x="1113.38" y="-61" font-family="Times,serif" font-size="10.00">../library&#45;pch.hpp</text>
</a>
</g>
</g>
<!-- Node1&#45;&gt;Node7 -->
<g id="edge6_Node000001_Node000007" class="edge">
<title>Node1&#45;&gt;Node7</title>
<g id="a_edge6_Node000001_Node000007"><a xlink:title=" ">
<path fill="none" stroke="#63b8ff" d="M986.19,-111.2C1015.73,-100.67 1051.55,-87.91 1077.64,-78.61"/>
<polygon fill="#63b8ff" stroke="#63b8ff" points="1078.51,-82.01 1086.76,-75.36 1076.16,-75.42 1078.51,-82.01"/>
</a>
</g>
</g>
<!-- Node8 -->
<g id="Node000008" class="node">
<title>Node8</title>
<g id="a_Node000008"><a xlink:title=" ">
<polygon fill="#e0e0e0" stroke="#999999" points="46.75,-19.25 0,-19.25 0,0 46.75,0 46.75,-19.25"/>
<text text-anchor="middle" x="23.38" y="-5.75" font-family="Times,serif" font-size="10.00">assert.h</text>
</a>
</g>
</g>
<!-- Node7&#45;&gt;Node8 -->
<g id="edge7_Node000007_Node000008" class="edge">
<title>Node7&#45;&gt;Node8</title>
<g id="a_edge7_Node000007_Node000008"><a xlink:title=" ">
<path fill="none" stroke="#63b8ff" d="M1069.76,-56.33C1066.59,-55.92 1063.44,-55.55 1060.38,-55.25 619.28,-11.63 499.33,-84.61 58.16,-19.31"/>
<polygon fill="#63b8ff" stroke="#63b8ff" points="58.92,-15.88 48.51,-17.86 57.88,-22.81 58.92,-15.88"/>
</a>
</g>
</g>
<!-- Node9 -->
<g id="Node000009" class="node">
<title>Node9</title>
<g id="a_Node000009"><a xlink:title=" ">
<polygon fill="#e0e0e0" stroke="#999999" points="110.38,-19.25 64.38,-19.25 64.38,0 110.38,0 110.38,-19.25"/>
<text text-anchor="middle" x="87.38" y="-5.75" font-family="Times,serif" font-size="10.00">stdint.h</text>
</a>
</g>
</g>
<!-- Node7&#45;&gt;Node9 -->
<g id="edge8_Node000007_Node000009" class="edge">
<title>Node7&#45;&gt;Node9</title>
<g id="a_edge8_Node000007_Node000009"><a xlink:title=" ">
<path fill="none" stroke="#63b8ff" d="M1069.76,-56.34C1066.59,-55.93 1063.44,-55.56 1060.38,-55.25 647.69,-13.94 535.18,-80.88 122.04,-19.27"/>
<polygon fill="#63b8ff" stroke="#63b8ff" points="122.57,-15.81 112.16,-17.78 121.53,-22.73 122.57,-15.81"/>
</a>
</g>
</g>
<!-- Node10 -->
<g id="Node000010" class="node">
<title>Node10</title>
<g id="a_Node000010"><a xlink:title=" ">
<polygon fill="#e0e0e0" stroke="#999999" points="182.12,-19.25 128.62,-19.25 128.62,0 182.12,0 182.12,-19.25"/>
<text text-anchor="middle" x="155.38" y="-5.75" font-family="Times,serif" font-size="10.00">algorithm</text>
</a>
</g>
</g>
<!-- Node7&#45;&gt;Node10 -->
<g id="edge9_Node000007_Node000010" class="edge">
<title>Node7&#45;&gt;Node10</title>
<g id="a_edge9_Node000007_Node000010"><a xlink:title=" ">
<path fill="none" stroke="#63b8ff" d="M1069.76,-56.35C1066.59,-55.94 1063.44,-55.56 1060.38,-55.25 679.56,-16.52 576.25,-71.44 193.79,-19.27"/>
<polygon fill="#63b8ff" stroke="#63b8ff" points="194.28,-15.8 183.89,-17.9 193.32,-22.74 194.28,-15.8"/>
</a>
</g>
</g>
<!-- Node11 -->
<g id="Node000011" class="node">
<title>Node11</title>
<g id="a_Node000011"><a xlink:title=" ">
<polygon fill="#e0e0e0" stroke="#999999" points="236.5,-19.25 200.25,-19.25 200.25,0 236.5,0 236.5,-19.25"/>
<text text-anchor="middle" x="218.38" y="-5.75" font-family="Times,serif" font-size="10.00">array</text>
</a>
</g>
</g>
<!-- Node7&#45;&gt;Node11 -->
<g id="edge10_Node000007_Node000011" class="edge">
<title>Node7&#45;&gt;Node11</title>
<g id="a_edge10_Node000007_Node000011"><a xlink:title=" ">
<path fill="none" stroke="#63b8ff" d="M1069.76,-56.36C1066.59,-55.94 1063.44,-55.57 1060.38,-55.25 703.41,-18.45 604.33,-81.65 247.96,-19.2"/>
<polygon fill="#63b8ff" stroke="#63b8ff" points="248.75,-15.79 238.29,-17.49 247.53,-22.68 248.75,-15.79"/>
</a>
</g>
</g>
<!-- Node12 -->
<g id="Node000012" class="node">
<title>Node12</title>
<g id="a_Node000012"><a xlink:title=" ">
<polygon fill="#e0e0e0" stroke="#999999" points="297.88,-19.25 254.88,-19.25 254.88,0 297.88,0 297.88,-19.25"/>
<text text-anchor="middle" x="276.38" y="-5.75" font-family="Times,serif" font-size="10.00">chrono</text>
</a>
</g>
</g>
<!-- Node7&#45;&gt;Node12 -->
<g id="edge11_Node000007_Node000012" class="edge">
<title>Node7&#45;&gt;Node12</title>
<g id="a_edge11_Node000007_Node000012"><a xlink:title=" ">
<path fill="none" stroke="#63b8ff" d="M1069.75,-56.37C1066.59,-55.95 1063.43,-55.57 1060.38,-55.25 730.9,-20.68 640.2,-71.32 309.61,-19.18"/>
<polygon fill="#63b8ff" stroke="#63b8ff" points="310.18,-15.73 299.75,-17.6 309.07,-22.64 310.18,-15.73"/>
</a>
</g>
</g>
<!-- Node13 -->
<g id="Node000013" class="node">
<title>Node13</title>
<g id="a_Node000013"><a xlink:title=" ">
<polygon fill="#e0e0e0" stroke="#999999" points="356.75,-19.25 316,-19.25 316,0 356.75,0 356.75,-19.25"/>
<text text-anchor="middle" x="336.38" y="-5.75" font-family="Times,serif" font-size="10.00">cmath</text>
</a>
</g>
</g>
<!-- Node7&#45;&gt;Node13 -->
<g id="edge12_Node000007_Node000013" class="edge">
<title>Node7&#45;&gt;Node13</title>
<g id="a_edge12_Node000007_Node000013"><a xlink:title=" ">
<path fill="none" stroke="#63b8ff" d="M1069.75,-56.39C1066.58,-55.96 1063.43,-55.58 1060.38,-55.25 756.87,-22.78 672.95,-69.14 368.15,-19.1"/>
<polygon fill="#63b8ff" stroke="#63b8ff" points="369.15,-15.71 358.71,-17.52 368,-22.62 369.15,-15.71"/>
</a>
</g>
</g>
<!-- Node14 -->
<g id="Node000014" class="node">
<title>Node14</title>
<g id="a_Node000014"><a xlink:title=" ">
<polygon fill="#e0e0e0" stroke="#999999" points="425.62,-19.25 375.12,-19.25 375.12,0 425.62,0 425.62,-19.25"/>
<text text-anchor="middle" x="400.38" y="-5.75" font-family="Times,serif" font-size="10.00">concepts</text>
</a>
</g>
</g>
<!-- Node7&#45;&gt;Node14 -->
<g id="edge13_Node000007_Node000014" class="edge">
<title>Node7&#45;&gt;Node14</title>
<g id="a_edge13_Node000007_Node000014"><a xlink:title=" ">
<path fill="none" stroke="#63b8ff" d="M1069.75,-56.41C1066.58,-55.98 1063.43,-55.59 1060.38,-55.25 787.45,-25.26 712.47,-59.78 437.03,-19.15"/>
<polygon fill="#63b8ff" stroke="#63b8ff" points="437.79,-15.73 427.38,-17.71 436.75,-22.65 437.79,-15.73"/>
</a>
</g>
</g>
<!-- Node15 -->
<g id="Node000015" class="node">
<title>Node15</title>
<g id="a_Node000015"><a xlink:title=" ">
<polygon fill="#e0e0e0" stroke="#999999" points="532.75,-19.25 444,-19.25 444,0 532.75,0 532.75,-19.25"/>
<text text-anchor="middle" x="488.38" y="-5.75" font-family="Times,serif" font-size="10.00">condition_variable</text>
</a>
</g>
</g>
<!-- Node7&#45;&gt;Node15 -->
<g id="edge14_Node000007_Node000015" class="edge">
<title>Node7&#45;&gt;Node15</title>
<g id="a_edge14_Node000007_Node000015"><a xlink:title=" ">
<path fill="none" stroke="#63b8ff" d="M1069.75,-56.45C1066.58,-56.01 1063.43,-55.6 1060.38,-55.25 834.39,-29.08 773.03,-45.31 544.52,-19.51"/>
<polygon fill="#63b8ff" stroke="#63b8ff" points="544.99,-16.04 534.66,-18.38 544.19,-23 544.99,-16.04"/>
</a>
</g>
</g>
<!-- Node16 -->
<g id="Node000016" class="node">
<title>Node16</title>
<g id="a_Node000016"><a xlink:title=" ">
<polygon fill="#e0e0e0" stroke="#999999" points="593.88,-19.25 550.88,-19.25 550.88,0 593.88,0 593.88,-19.25"/>
<text text-anchor="middle" x="572.38" y="-5.75" font-family="Times,serif" font-size="10.00">cstdint</text>
</a>
</g>
</g>
<!-- Node7&#45;&gt;Node16 -->
<g id="edge15_Node000007_Node000016" class="edge">
<title>Node7&#45;&gt;Node16</title>
<g id="a_edge15_Node000007_Node000016"><a xlink:title=" ">
<path fill="none" stroke="#63b8ff" d="M1069.74,-56.48C1066.58,-56.03 1063.43,-55.62 1060.38,-55.25 861.32,-31.27 805.3,-54.76 605.39,-19.46"/>
<polygon fill="#63b8ff" stroke="#63b8ff" points="606.16,-16.04 595.7,-17.72 604.92,-22.93 606.16,-16.04"/>
</a>
</g>
</g>
<!-- Node17 -->
<g id="Node000017" class="node">
<title>Node17</title>
<g id="a_Node000017"><a xlink:title=" ">
<polygon fill="#e0e0e0" stroke="#999999" points="654.88,-19.25 611.88,-19.25 611.88,0 654.88,0 654.88,-19.25"/>
<text text-anchor="middle" x="633.38" y="-5.75" font-family="Times,serif" font-size="10.00">cstdlib</text>
</a>
</g>
</g>
<!-- Node7&#45;&gt;Node17 -->
<g id="edge16_Node000007_Node000017" class="edge">
<title>Node7&#45;&gt;Node17</title>
<g id="a_edge16_Node000007_Node000017"><a xlink:title=" ">
<path fill="none" stroke="#63b8ff" d="M1069.74,-56.52C1066.57,-56.07 1063.43,-55.64 1060.38,-55.25 888.3,-33.47 839.55,-51.1 666.52,-19.52"/>
<polygon fill="#63b8ff" stroke="#63b8ff" points="667.17,-16.08 656.7,-17.7 665.9,-22.97 667.17,-16.08"/>
</a>
</g>
</g>
<!-- Node18 -->
<g id="Node000018" class="node">
<title>Node18</title>
<g id="a_Node000018"><a xlink:title=" ">
<polygon fill="#e0e0e0" stroke="#999999" points="727.88,-19.25 672.88,-19.25 672.88,0 727.88,0 727.88,-19.25"/>
<text text-anchor="middle" x="700.38" y="-5.75" font-family="Times,serif" font-size="10.00">filesystem</text>
</a>
</g>
</g>
<!-- Node7&#45;&gt;Node18 -->
<g id="edge17_Node000007_Node000018" class="edge">
<title>Node7&#45;&gt;Node18</title>
<g id="a_edge17_Node000007_Node000018"><a xlink:title=" ">
<path fill="none" stroke="#63b8ff" d="M1069.73,-56.59C1066.57,-56.12 1063.42,-55.67 1060.38,-55.25 920.47,-36.11 881.08,-43.76 739.49,-19.61"/>
<polygon fill="#63b8ff" stroke="#63b8ff" points="740.15,-16.17 729.7,-17.91 738.96,-23.07 740.15,-16.17"/>
</a>
</g>
</g>
<!-- Node19 -->
<g id="Node000019" class="node">
<title>Node19</title>
<g id="a_Node000019"><a xlink:title=" ">
<polygon fill="#e0e0e0" stroke="#999999" points="791,-19.25 745.75,-19.25 745.75,0 791,0 791,-19.25"/>
<text text-anchor="middle" x="768.38" y="-5.75" font-family="Times,serif" font-size="10.00">fstream</text>
</a>
</g>
</g>
<!-- Node7&#45;&gt;Node19 -->
<g id="edge18_Node000007_Node000019" class="edge">
<title>Node7&#45;&gt;Node19</title>
<g id="a_edge18_Node000007_Node000019"><a xlink:title=" ">
<path fill="none" stroke="#63b8ff" d="M1069.72,-56.69C1066.56,-56.19 1063.42,-55.71 1060.38,-55.25 948.51,-38.41 916.61,-42.22 802.32,-19.41"/>
<polygon fill="#63b8ff" stroke="#63b8ff" points="803.34,-16.05 792.85,-17.49 801.96,-22.91 803.34,-16.05"/>
</a>
</g>
</g>
<!-- Node20 -->
<g id="Node000020" class="node">
<title>Node20</title>
<g id="a_Node000020"><a xlink:title=" ">
<polygon fill="#e0e0e0" stroke="#999999" points="863.5,-19.25 809.25,-19.25 809.25,0 863.5,0 863.5,-19.25"/>
<text text-anchor="middle" x="836.38" y="-5.75" font-family="Times,serif" font-size="10.00">functional</text>
</a>
</g>
</g>
<!-- Node7&#45;&gt;Node20 -->
<g id="edge19_Node000007_Node000020" class="edge">
<title>Node7&#45;&gt;Node20</title>
<g id="a_edge19_Node000007_Node000020"><a xlink:title=" ">
<path fill="none" stroke="#63b8ff" d="M1069.7,-56.49C1023.59,-48.54 948.51,-35.16 874.73,-19.67"/>
<polygon fill="#63b8ff" stroke="#63b8ff" points="875.85,-16.32 865.34,-17.68 874.4,-23.17 875.85,-16.32"/>
</a>
</g>
</g>
<!-- Node21 -->
<g id="Node000021" class="node">
<title>Node21</title>
<g id="a_Node000021"><a xlink:title=" ">
<polygon fill="#e0e0e0" stroke="#999999" points="929.5,-19.25 881.25,-19.25 881.25,0 929.5,0 929.5,-19.25"/>
<text text-anchor="middle" x="905.38" y="-5.75" font-family="Times,serif" font-size="10.00">iomanip</text>
</a>
</g>
</g>
<!-- Node7&#45;&gt;Node21 -->
<g id="edge20_Node000007_Node000021" class="edge">
<title>Node7&#45;&gt;Node21</title>
<g id="a_edge20_Node000007_Node000021"><a xlink:title=" ">
<path fill="none" stroke="#63b8ff" d="M1077.5,-54.79C1044.39,-46.4 993.58,-33.48 940.81,-19.87"/>
<polygon fill="#63b8ff" stroke="#63b8ff" points="941.9,-16.54 931.34,-17.43 940.15,-23.31 941.9,-16.54"/>
</a>
</g>
</g>
<!-- Node22 -->
<g id="Node000022" class="node">
<title>Node22</title>
<g id="a_Node000022"><a xlink:title=" ">
<polygon fill="#e0e0e0" stroke="#999999" points="993,-19.25 947.75,-19.25 947.75,0 993,0 993,-19.25"/>
<text text-anchor="middle" x="970.38" y="-5.75" font-family="Times,serif" font-size="10.00">istream</text>
</a>
</g>
</g>
<!-- Node7&#45;&gt;Node22 -->
<g id="edge21_Node000007_Node000022" class="edge">
<title>Node7&#45;&gt;Node22</title>
<g id="a_edge21_Node000007_Node000022"><a xlink:title=" ">
<path fill="none" stroke="#63b8ff" d="M1089.12,-54.84C1065.69,-46.12 1030.01,-32.83 1003.88,-23.1"/>
<polygon fill="#63b8ff" stroke="#63b8ff" points="1005.34,-19.91 994.75,-19.7 1002.9,-26.47 1005.34,-19.91"/>
</a>
</g>
</g>
<!-- Node23 -->
<g id="Node000023" class="node">
<title>Node23</title>
<g id="a_Node000023"><a xlink:title=" ">
<polygon fill="#e0e0e0" stroke="#999999" points="1049.25,-19.25 1011.5,-19.25 1011.5,0 1049.25,0 1049.25,-19.25"/>
<text text-anchor="middle" x="1030.38" y="-5.75" font-family="Times,serif" font-size="10.00">limits</text>
</a>
</g>
</g>
<!-- Node7&#45;&gt;Node23 -->
<g id="edge22_Node000007_Node000023" class="edge">
<title>Node7&#45;&gt;Node23</title>
<g id="a_edge22_Node000007_Node000023"><a xlink:title=" ">
<path fill="none" stroke="#63b8ff" d="M1099.3,-54.84C1086.89,-46.89 1068.58,-35.14 1053.95,-25.75"/>
<polygon fill="#63b8ff" stroke="#63b8ff" points="1056.1,-22.97 1045.8,-20.52 1052.32,-28.87 1056.1,-22.97"/>
</a>
</g>
</g>
<!-- Node24 -->
<g id="Node000024" class="node">
<title>Node24</title>
<g id="a_Node000024"><a xlink:title=" ">
<polygon fill="#e0e0e0" stroke="#999999" points="1101,-19.25 1067.75,-19.25 1067.75,0 1101,0 1101,-19.25"/>
<text text-anchor="middle" x="1084.38" y="-5.75" font-family="Times,serif" font-size="10.00">map</text>
</a>
</g>
</g>
<!-- Node7&#45;&gt;Node24 -->
<g id="edge23_Node000007_Node000024" class="edge">
<title>Node7&#45;&gt;Node24</title>
<g id="a_edge23_Node000007_Node000024"><a xlink:title=" ">
<path fill="none" stroke="#63b8ff" d="M1108.59,-55.08C1104.83,-48.19 1099.47,-38.34 1094.74,-29.66"/>
<polygon fill="#63b8ff" stroke="#63b8ff" points="1097.85,-28.05 1089.99,-20.94 1091.7,-31.39 1097.85,-28.05"/>
</a>
</g>
</g>
<!-- Node25 -->
<g id="Node000025" class="node">
<title>Node25</title>
<g id="a_Node000025"><a xlink:title=" ">
<polygon fill="#e0e0e0" stroke="#999999" points="1167.5,-19.25 1119.25,-19.25 1119.25,0 1167.5,0 1167.5,-19.25"/>
<text text-anchor="middle" x="1143.38" y="-5.75" font-family="Times,serif" font-size="10.00">memory</text>
</a>
</g>
</g>
<!-- Node7&#45;&gt;Node25 -->
<g id="edge24_Node000007_Node000025" class="edge">
<title>Node7&#45;&gt;Node25</title>
<g id="a_edge24_Node000007_Node000025"><a xlink:title=" ">
<path fill="none" stroke="#63b8ff" d="M1118.33,-55.08C1122.26,-48.11 1127.89,-38.12 1132.81,-29.37"/>
<polygon fill="#63b8ff" stroke="#63b8ff" points="1135.71,-31.36 1137.57,-20.93 1129.61,-27.92 1135.71,-31.36"/>
</a>
</g>
</g>
<!-- Node26 -->
<g id="Node000026" class="node">
<title>Node26</title>
<g id="a_Node000026"><a xlink:title=" ">
<polygon fill="#e0e0e0" stroke="#999999" points="1226.75,-19.25 1186,-19.25 1186,0 1226.75,0 1226.75,-19.25"/>
<text text-anchor="middle" x="1206.38" y="-5.75" font-family="Times,serif" font-size="10.00">mutex</text>
</a>
</g>
</g>
<!-- Node7&#45;&gt;Node26 -->
<g id="edge25_Node000007_Node000026" class="edge">
<title>Node7&#45;&gt;Node26</title>
<g id="a_edge25_Node000007_Node000026"><a xlink:title=" ">
<path fill="none" stroke="#63b8ff" d="M1129.15,-54.84C1143.31,-46.73 1164.36,-34.68 1180.9,-25.21"/>
<polygon fill="#63b8ff" stroke="#63b8ff" points="1182.27,-28.46 1189.21,-20.45 1178.79,-22.39 1182.27,-28.46"/>
</a>
</g>
</g>
<!-- Node27 -->
<g id="Node000027" class="node">
<title>Node27</title>
<g id="a_Node000027"><a xlink:title=" ">
<polygon fill="#e0e0e0" stroke="#999999" points="1295.62,-19.25 1245.12,-19.25 1245.12,0 1295.62,0 1295.62,-19.25"/>
<text text-anchor="middle" x="1270.38" y="-5.75" font-family="Times,serif" font-size="10.00">numbers</text>
</a>
</g>
</g>
<!-- Node7&#45;&gt;Node27 -->
<g id="edge26_Node000007_Node000027" class="edge">
<title>Node7&#45;&gt;Node27</title>
<g id="a_edge26_Node000007_Node000027"><a xlink:title=" ">
<path fill="none" stroke="#63b8ff" d="M1140.01,-54.84C1165.8,-46.09 1205.13,-32.76 1233.84,-23.02"/>
<polygon fill="#63b8ff" stroke="#63b8ff" points="1234.88,-26.36 1243.22,-19.83 1232.63,-19.73 1234.88,-26.36"/>
</a>
</g>
</g>
<!-- Node28 -->
<g id="Node000028" class="node">
<title>Node28</title>
<g id="a_Node000028"><a xlink:title=" ">
<polygon fill="#e0e0e0" stroke="#999999" points="1361.5,-19.25 1313.25,-19.25 1313.25,0 1361.5,0 1361.5,-19.25"/>
<text text-anchor="middle" x="1337.38" y="-5.75" font-family="Times,serif" font-size="10.00">numeric</text>
</a>
</g>
</g>
<!-- Node7&#45;&gt;Node28 -->
<g id="edge27_Node000007_Node000028" class="edge">
<title>Node7&#45;&gt;Node28</title>
<g id="a_edge27_Node000007_Node000028"><a xlink:title=" ">
<path fill="none" stroke="#63b8ff" d="M1153.69,-54.78C1190.05,-46.5 1245.28,-33.75 1301.92,-19.81"/>
<polygon fill="#63b8ff" stroke="#63b8ff" points="1302.55,-23.26 1311.42,-17.46 1300.87,-16.47 1302.55,-23.26"/>
</a>
</g>
</g>
<!-- Node29 -->
<g id="Node000029" class="node">
<title>Node29</title>
<g id="a_Node000029"><a xlink:title=" ">
<polygon fill="#e0e0e0" stroke="#999999" points="1426.75,-19.25 1380,-19.25 1380,0 1426.75,0 1426.75,-19.25"/>
<text text-anchor="middle" x="1403.38" y="-5.75" font-family="Times,serif" font-size="10.00">optional</text>
</a>
</g>
</g>
<!-- Node7&#45;&gt;Node29 -->
<g id="edge28_Node000007_Node000029" class="edge">
<title>Node7&#45;&gt;Node29</title>
<g id="a_edge28_Node000007_Node000029"><a xlink:title=" ">
<path fill="none" stroke="#63b8ff" d="M1156.79,-57.47C1205.86,-49.99 1288.33,-36.65 1368.81,-19.43"/>
<polygon fill="#63b8ff" stroke="#63b8ff" points="1369.13,-22.94 1378.16,-17.4 1367.65,-16.1 1369.13,-22.94"/>
</a>
</g>
</g>
<!-- Node30 -->
<g id="Node000030" class="node">
<title>Node30</title>
<g id="a_Node000030"><a xlink:title=" ">
<polygon fill="#e0e0e0" stroke="#999999" points="1492.12,-19.25 1444.62,-19.25 1444.62,0 1492.12,0 1492.12,-19.25"/>
<text text-anchor="middle" x="1468.38" y="-5.75" font-family="Times,serif" font-size="10.00">ostream</text>
</a>
</g>
</g>
<!-- Node7&#45;&gt;Node30 -->
<g id="edge29_Node000007_Node000030" class="edge">
<title>Node7&#45;&gt;Node30</title>
<g id="a_edge29_Node000007_Node000030"><a xlink:title=" ">
<path fill="none" stroke="#63b8ff" d="M1156.88,-59.49C1216.88,-53.09 1328.6,-39.88 1433.22,-19.46"/>
<polygon fill="#63b8ff" stroke="#63b8ff" points="1433.69,-22.94 1442.82,-17.56 1432.33,-16.07 1433.69,-22.94"/>
</a>
</g>
</g>
<!-- Node31 -->
<g id="Node000031" class="node">
<title>Node31</title>
<g id="a_Node000031"><a xlink:title=" ">
<polygon fill="#e0e0e0" stroke="#999999" points="1556.38,-19.25 1510.38,-19.25 1510.38,0 1556.38,0 1556.38,-19.25"/>
<text text-anchor="middle" x="1533.38" y="-5.75" font-family="Times,serif" font-size="10.00">random</text>
</a>
</g>
</g>
<!-- Node7&#45;&gt;Node31 -->
<g id="edge30_Node000007_Node000031" class="edge">
<title>Node7&#45;&gt;Node31</title>
<g id="a_edge30_Node000007_Node000031"><a xlink:title=" ">
<path fill="none" stroke="#63b8ff" d="M1157.05,-60.98C1227.16,-55.87 1369.32,-43.62 1498.77,-19.48"/>
<polygon fill="#63b8ff" stroke="#63b8ff" points="1499.39,-22.93 1508.56,-17.62 1498.09,-16.05 1499.39,-22.93"/>
</a>
</g>
</g>
<!-- Node32 -->
<g id="Node000032" class="node">
<title>Node32</title>
<g id="a_Node000032"><a xlink:title=" ">
<polygon fill="#e0e0e0" stroke="#999999" points="1646.5,-19.25 1574.25,-19.25 1574.25,0 1646.5,0 1646.5,-19.25"/>
<text text-anchor="middle" x="1610.38" y="-5.75" font-family="Times,serif" font-size="10.00">shared_mutex</text>
</a>
</g>
</g>
<!-- Node7&#45;&gt;Node32 -->
<g id="edge31_Node000007_Node000032" class="edge">
<title>Node7&#45;&gt;Node32</title>
<g id="a_edge31_Node000007_Node000032"><a xlink:title=" ">
<path fill="none" stroke="#63b8ff" d="M1156.85,-60.9C1235.72,-55.23 1407.81,-41.54 1562.94,-19.48"/>
<polygon fill="#63b8ff" stroke="#63b8ff" points="1563.18,-22.98 1572.58,-18.09 1562.18,-16.05 1563.18,-22.98"/>
</a>
</g>
</g>
<!-- Node33 -->
<g id="Node000033" class="node">
<title>Node33</title>
<g id="a_Node000033"><a xlink:title=" ">
<polygon fill="#e0e0e0" stroke="#999999" points="1699.75,-19.25 1665,-19.25 1665,0 1699.75,0 1699.75,-19.25"/>
<text text-anchor="middle" x="1682.38" y="-5.75" font-family="Times,serif" font-size="10.00">span</text>
</a>
</g>
</g>
<!-- Node7&#45;&gt;Node33 -->
<g id="edge32_Node000007_Node000033" class="edge">
<title>Node7&#45;&gt;Node33</title>
<g id="a_edge32_Node000007_Node000033"><a xlink:title=" ">
<path fill="none" stroke="#63b8ff" d="M1157.05,-63.62C1247.94,-62.39 1464.04,-55.73 1653.24,-19.18"/>
<polygon fill="#63b8ff" stroke="#63b8ff" points="1653.89,-22.61 1663.03,-17.25 1652.54,-15.75 1653.89,-22.61"/>
</a>
</g>
</g>
<!-- Node34 -->
<g id="Node000034" class="node">
<title>Node34</title>
<g id="a_Node000034"><a xlink:title=" ">
<polygon fill="#e0e0e0" stroke="#999999" points="1763.38,-19.25 1717.38,-19.25 1717.38,0 1763.38,0 1763.38,-19.25"/>
<text text-anchor="middle" x="1740.38" y="-5.75" font-family="Times,serif" font-size="10.00">sstream</text>
</a>
</g>
</g>
<!-- Node7&#45;&gt;Node34 -->
<g id="edge33_Node000007_Node000034" class="edge">
<title>Node7&#45;&gt;Node34</title>
<g id="a_edge33_Node000007_Node000034"><a xlink:title=" ">
<path fill="none" stroke="#63b8ff" d="M1157.02,-63.41C1254.13,-61.77 1495.47,-54.38 1705.81,-19.36"/>
<polygon fill="#63b8ff" stroke="#63b8ff" points="1706.3,-22.82 1715.58,-17.7 1705.13,-15.92 1706.3,-22.82"/>
</a>
</g>
</g>
<!-- Node35 -->
<g id="Node000035" class="node">
<title>Node35</title>
<g id="a_Node000035"><a xlink:title=" ">
<polygon fill="#e0e0e0" stroke="#999999" points="1835.5,-19.25 1781.25,-19.25 1781.25,0 1835.5,0 1835.5,-19.25"/>
<text text-anchor="middle" x="1808.38" y="-5.75" font-family="Times,serif" font-size="10.00">stdexcept</text>
</a>
</g>
</g>
<!-- Node7&#45;&gt;Node35 -->
<g id="edge34_Node000007_Node000035" class="edge">
<title>Node7&#45;&gt;Node35</title>
<g id="a_edge34_Node000007_Node000035"><a xlink:title=" ">
<path fill="none" stroke="#63b8ff" d="M1156.83,-63.44C1261.06,-61.87 1533.56,-54.59 1769.73,-19.39"/>
<polygon fill="#63b8ff" stroke="#63b8ff" points="1770.09,-22.88 1779.45,-17.92 1769.04,-15.96 1770.09,-22.88"/>
</a>
</g>
</g>
<!-- Node36 -->
<g id="Node000036" class="node">
<title>Node36</title>
<g id="a_Node000036"><a xlink:title=" ">
<polygon fill="#e0e0e0" stroke="#999999" points="1893,-19.25 1853.75,-19.25 1853.75,0 1893,0 1893,-19.25"/>
<text text-anchor="middle" x="1873.38" y="-5.75" font-family="Times,serif" font-size="10.00">string</text>
</a>
</g>
</g>
<!-- Node7&#45;&gt;Node36 -->
<g id="edge35_Node000007_Node000036" class="edge">
<title>Node7&#45;&gt;Node36</title>
<g id="a_edge35_Node000007_Node000036"><a xlink:title=" ">
<path fill="none" stroke="#63b8ff" d="M1157.03,-62.52C1290.19,-58.17 1690.81,-43.57 1842.63,-19.03"/>
<polygon fill="#63b8ff" stroke="#63b8ff" points="1842.79,-22.55 1852.06,-17.42 1841.61,-15.65 1842.79,-22.55"/>
</a>
</g>
</g>
<!-- Node37 -->
<g id="Node000037" class="node">
<title>Node37</title>
<g id="a_Node000037"><a xlink:title=" ">
<polygon fill="#e0e0e0" stroke="#999999" points="1952.12,-19.25 1910.62,-19.25 1910.62,0 1952.12,0 1952.12,-19.25"/>
<text text-anchor="middle" x="1931.38" y="-5.75" font-family="Times,serif" font-size="10.00">thread</text>
</a>
</g>
</g>
<!-- Node7&#45;&gt;Node37 -->
<g id="edge36_Node000007_Node000037" class="edge">
<title>Node7&#45;&gt;Node37</title>
<g id="a_edge36_Node000007_Node000037"><a xlink:title=" ">
<path fill="none" stroke="#63b8ff" d="M1156.93,-62.75C1297.03,-58.91 1736.01,-45.24 1899.03,-19.4"/>
<polygon fill="#63b8ff" stroke="#63b8ff" points="1899.51,-22.87 1908.79,-17.76 1898.35,-15.96 1899.51,-22.87"/>
</a>
</g>
</g>
<!-- Node38 -->
<g id="Node000038" class="node">
<title>Node38</title>
<g id="a_Node000038"><a xlink:title=" ">
<polygon fill="#e0e0e0" stroke="#999999" points="2028.75,-19.25 1970,-19.25 1970,0 2028.75,0 2028.75,-19.25"/>
<text text-anchor="middle" x="1999.38" y="-5.75" font-family="Times,serif" font-size="10.00">type_traits</text>
</a>
</g>
</g>
<!-- Node7&#45;&gt;Node38 -->
<g id="edge37_Node000007_Node000038" class="edge">
<title>Node7&#45;&gt;Node38</title>
<g id="a_edge37_Node000007_Node000038"><a xlink:title=" ">
<path fill="none" stroke="#63b8ff" d="M1156.87,-64.19C1280.85,-64.55 1646.74,-61.77 1958.52,-19.41"/>
<polygon fill="#63b8ff" stroke="#63b8ff" points="1958.66,-22.93 1968.09,-18.1 1957.71,-15.99 1958.66,-22.93"/>
</a>
</g>
</g>
<!-- Node39 -->
<g id="Node000039" class="node">
<title>Node39</title>
<g id="a_Node000039"><a xlink:title=" ">
<polygon fill="#e0e0e0" stroke="#999999" points="2119.5,-19.25 2047.25,-19.25 2047.25,0 2119.5,0 2119.5,-19.25"/>
<text text-anchor="middle" x="2083.38" y="-5.75" font-family="Times,serif" font-size="10.00">unordered_set</text>
</a>
</g>
</g>
<!-- Node7&#45;&gt;Node39 -->
<g id="edge38_Node000007_Node000039" class="edge">
<title>Node7&#45;&gt;Node39</title>
<g id="a_edge38_Node000007_Node000039"><a xlink:title=" ">
<path fill="none" stroke="#63b8ff" d="M1156.85,-63.89C1287.98,-63.48 1691.22,-58.93 2035.59,-19.26"/>
<polygon fill="#63b8ff" stroke="#63b8ff" points="2035.76,-22.76 2045.28,-18.13 2034.94,-15.81 2035.76,-22.76"/>
</a>
</g>
</g>
<!-- Node40 -->
<g id="Node000040" class="node">
<title>Node40</title>
<g id="a_Node000040"><a xlink:title=" ">
<polygon fill="#e0e0e0" stroke="#999999" points="2180.88,-19.25 2137.88,-19.25 2137.88,0 2180.88,0 2180.88,-19.25"/>
<text text-anchor="middle" x="2159.38" y="-5.75" font-family="Times,serif" font-size="10.00">variant</text>
</a>
</g>
</g>
<!-- Node7&#45;&gt;Node40 -->
<g id="edge39_Node000007_Node000040" class="edge">
<title>Node7&#45;&gt;Node40</title>
<g id="a_edge39_Node000007_Node000040"><a xlink:title=" ">
<path fill="none" stroke="#63b8ff" d="M1156.87,-63.28C1322.53,-60.81 1914.92,-50.09 2126.22,-19.11"/>
<polygon fill="#63b8ff" stroke="#63b8ff" points="2126.65,-22.58 2136,-17.61 2125.58,-15.66 2126.65,-22.58"/>
</a>
</g>
</g>
<!-- Node41 -->
<g id="Node000041" class="node">
<title>Node41</title>
<g id="a_Node000041"><a xlink:title=" ">
<polygon fill="#e0e0e0" stroke="#999999" points="2239.75,-19.25 2199,-19.25 2199,0 2239.75,0 2239.75,-19.25"/>
<text text-anchor="middle" x="2219.38" y="-5.75" font-family="Times,serif" font-size="10.00">vector</text>
</a>
</g>
</g>
<!-- Node7&#45;&gt;Node41 -->
<g id="edge40_Node000007_Node000041" class="edge">
<title>Node7&#45;&gt;Node41</title>
<g id="a_edge40_Node000007_Node000041"><a xlink:title=" ">
<path fill="none" stroke="#63b8ff" d="M1157.12,-63.51C1329.7,-61.83 1964.31,-53.54 2187.35,-19.28"/>
<polygon fill="#63b8ff" stroke="#63b8ff" points="2187.8,-22.76 2197.12,-17.71 2186.69,-15.84 2187.8,-22.76"/>
</a>
</g>
</g>
</g>
</svg>
