<?xml version="1.0" encoding="UTF-8" standalone="no"?>
<!DOCTYPE svg PUBLIC "-//W3C//DTD SVG 1.1//EN"
 "http://www.w3.org/Graphics/SVG/1.1/DTD/svg11.dtd">
<!-- Generated by graphviz version 8.1.0 (20230707.0739)
 -->
<!-- Title: mal_packet_weaver::packet::network::PongPacket Pages: 1 -->
<!--zoomable 252 -->

<svg id="main" version="1.1" xmlns="http://www.w3.org/2000/svg" xmlns:xlink="http://www.w3.org/1999/xlink" xml:space="preserve" onload="init(evt)">
<style type="text/css"><![CDATA[
.node, .edge {opacity: 0.7;}
.node.selected, .edge.selected {opacity: 1;}
.edge:hover path { stroke: red; }
.edge:hover polygon { stroke: red; fill: red; }
]]></style>

<defs>
  <circle id="rim" cx="0" cy="0" r="7"/>
  <circle id="rim2" cx="0" cy="0" r="3.5"/>
  <g id="zoomPlus">
    <use xlink:href="#rim" fill="#404040"><set attributeName="fill" to="#808080" begin="zoomplus.mouseover" end="zoomplus.mouseout"/></use>
    <path d="M-4,0h8M0,-4v8" fill="none" stroke="white" stroke-width="1.5" pointer-events="none"/>
  </g>
  <g id="zoomMin">
    <use xlink:href="#rim" fill="#404040"><set attributeName="fill" to="#808080" begin="zoomminus.mouseover" end="zoomminus.mouseout"/></use>
    <path d="M-4,0h8" fill="none" stroke="white" stroke-width="1.5" pointer-events="none"/>
  </g>
  <g id="arrowUp" transform="translate(30 24)">
    <use xlink:href="#rim"/>
    <path pointer-events="none" fill="none" stroke="white" stroke-width="1.5" d="M0,-3.0v7 M-2.5,-0.5L0,-3.0L2.5,-0.5"/>
  </g>
  <g id="arrowRight" transform="rotate(90) translate(36 -43)">
    <use xlink:href="#rim"/>
    <path pointer-events="none" fill="none" stroke="white" stroke-width="1.5" d="M0,-3.0v7 M-2.5,-0.5L0,-3.0L2.5,-0.5"/>
  </g>
  <g id="arrowDown" transform="rotate(180) translate(-30 -48)">
    <use xlink:href="#rim"/>
    <path pointer-events="none" fill="none" stroke="white" stroke-width="1.5" d="M0,-3.0v7 M-2.5,-0.5L0,-3.0L2.5,-0.5"/>
  </g>
  <g id="arrowLeft" transform="rotate(270) translate(-36 17)">
    <use xlink:href="#rim"/>
    <path pointer-events="none" fill="none" stroke="white" stroke-width="1.5" d="M0,-3.0v7 M-2.5,-0.5L0,-3.0L2.5,-0.5"/>
  </g>
  <g id="resetDef">
    <use xlink:href="#rim2" fill="#404040"><set attributeName="fill" to="#808080" begin="reset.mouseover" end="reset.mouseout"/></use>
  </g>
</defs>
<script type="application/ecmascript">
var viewWidth = 967;
var viewHeight = 252;
var sectionId = 'dynsection-1';
</script>
<script type="application/ecmascript" xlink:href="../../svg.min.js"/>
<svg id="graph" class="graph">
<g id="viewport">
<title>mal_packet_weaver::packet::network::PongPacket</title>
<!-- Node1 -->
<g id="Node000001" class="node">
<title>Node1</title>
<g id="a_Node000001"><a xlink:title="Packet for responding to a ping signal.">
<polygon fill="#999999" stroke="#666666" points="958.5,-62.88 830,-62.88 830,-32.38 958.5,-32.38 958.5,-62.88"/>
<text text-anchor="start" x="838" y="-49.38" font-family="Times,serif" font-size="10.00">mal_packet_weaver::</text>
<text text-anchor="middle" x="894.25" y="-38.12" font-family="Times,serif" font-size="10.00">packet::network::PongPacket</text>
</a>
</g>
</g>
<!-- Node2 -->
<g id="Node000002" class="node">
<title>Node2</title>
<g id="a_Node000002"><a xlink:href="../../dd/d2b/classmal__packet__weaver_1_1_derived_packet.html" target="_top" xlink:title=" ">
<polygon fill="white" stroke="#666666" points="726.5,-121.5 625,-121.5 625,-79.75 726.5,-79.75 726.5,-121.5"/>
<text text-anchor="start" x="633" y="-108" font-family="Times,serif" font-size="10.00">mal_packet_weaver::</text>
<text text-anchor="start" x="633" y="-96.75" font-family="Times,serif" font-size="10.00">DerivedPacket&lt; class</text>
<text text-anchor="middle" x="675.75" y="-85.5" font-family="Times,serif" font-size="10.00"> PongPacket &gt;</text>
</a>
</g>
</g>
<!-- Node2&#45;&gt;Node1 -->
<g id="edge1_Node000001_Node000002" class="edge">
<title>Node2&#45;&gt;Node1</title>
<g id="a_edge1_Node000001_Node000002"><a xlink:title=" ">
<path fill="none" stroke="#63b8ff" d="M737.3,-85.8C766.11,-78.75 800.54,-70.32 829.72,-63.18"/>
<polygon fill="#63b8ff" stroke="#63b8ff" points="736.84,-82.56 727.96,-88.33 738.51,-89.35 736.84,-82.56"/>
</a>
</g>
</g>
<!-- Node3 -->
<g id="Node000003" class="node">
<title>Node3</title>
<g id="a_Node000003"><a xlink:href="../../d2/d9d/classmal__packet__weaver_1_1_packet.html" target="_top" xlink:title="Base class for all packets.">
<polygon fill="white" stroke="#666666" points="307.25,-158.88 208,-158.88 208,-128.38 307.25,-128.38 307.25,-158.88"/>
<text text-anchor="start" x="216" y="-145.38" font-family="Times,serif" font-size="10.00">mal_packet_weaver::</text>
<text text-anchor="middle" x="257.62" y="-134.12" font-family="Times,serif" font-size="10.00">Packet</text>
</a>
</g>
</g>
<!-- Node3&#45;&gt;Node2 -->
<g id="edge2_Node000002_Node000003" class="edge">
<title>Node3&#45;&gt;Node2</title>
<g id="a_edge2_Node000002_Node000003"><a xlink:title=" ">
<path fill="none" stroke="#63b8ff" d="M318.68,-139.95C384.32,-135.6 492.52,-127.41 585.25,-115.62 598.07,-114 611.85,-111.87 624.68,-109.74"/>
<polygon fill="#63b8ff" stroke="#63b8ff" points="318.48,-136.53 308.73,-140.67 318.94,-143.51 318.48,-136.53"/>
</a>
</g>
</g>
<!-- Node9 -->
<g id="Node000009" class="node">
<title>Node9</title>
<g id="a_Node000009"><a xlink:href="../../dd/d2b/classmal__packet__weaver_1_1_derived_packet.html" target="_top" xlink:title="A templated class representing a derived packet from the base Packet class.">
<polygon fill="white" stroke="#666666" points="481.75,-115.88 344.25,-115.88 344.25,-85.38 481.75,-85.38 481.75,-115.88"/>
<text text-anchor="start" x="352.25" y="-102.38" font-family="Times,serif" font-size="10.00">mal_packet_weaver::</text>
<text text-anchor="middle" x="413" y="-91.12" font-family="Times,serif" font-size="10.00">DerivedPacket&lt; PacketType &gt;</text>
</a>
</g>
</g>
<!-- Node3&#45;&gt;Node9 -->
<g id="edge9_Node000009_Node000003" class="edge">
<title>Node3&#45;&gt;Node9</title>
<g id="a_edge9_Node000009_Node000003"><a xlink:title=" ">
<path fill="none" stroke="#63b8ff" d="M317.92,-127C330.45,-123.49 343.64,-119.79 356.04,-116.31"/>
<polygon fill="#63b8ff" stroke="#63b8ff" points="317.26,-123.83 308.58,-129.9 319.15,-130.57 317.26,-123.83"/>
</a>
</g>
</g>
<!-- Node4 -->
<g id="Node000004" class="node">
<title>Node4</title>
<g id="a_Node000004"><a xlink:title=" ">
<polygon fill="white" stroke="#666666" points="119.5,-244.25 0,-244.25 0,-225 119.5,-225 119.5,-244.25"/>
<text text-anchor="middle" x="59.75" y="-230.75" font-family="Times,serif" font-size="10.00">mal_toolkit::non_copyable</text>
</a>
</g>
</g>
<!-- Node4&#45;&gt;Node3 -->
<g id="edge3_Node000003_Node000004" class="edge">
<title>Node4&#45;&gt;Node3</title>
<g id="a_edge3_Node000003_Node000004"><a xlink:title=" ">
<path fill="none" stroke="#63b8ff" d="M103.48,-221.17C108.89,-219.36 114.34,-217.48 119.5,-215.62 151.22,-204.21 160.11,-203.22 190,-187.62 205.85,-179.35 222.65,-168.25 235.41,-159.26"/>
<polygon fill="#63b8ff" stroke="#63b8ff" points="102.61,-218.1 94.2,-224.55 104.79,-224.75 102.61,-218.1"/>
</a>
</g>
</g>
<!-- Node5 -->
<g id="Node000005" class="node">
<title>Node5</title>
<g id="a_Node000005"><a xlink:title=" ">
<polygon fill="white" stroke="#666666" points="112.75,-206.88 6.75,-206.88 6.75,-176.38 112.75,-176.38 112.75,-206.88"/>
<text text-anchor="start" x="14.75" y="-193.38" font-family="Times,serif" font-size="10.00">Measurer&lt; std::chrono</text>
<text text-anchor="middle" x="59.75" y="-182.12" font-family="Times,serif" font-size="10.00">::steady_clock &gt;</text>
</a>
</g>
</g>
<!-- Node5&#45;&gt;Node3 -->
<g id="edge4_Node000003_Node000005" class="edge">
<title>Node5&#45;&gt;Node3</title>
<g id="a_edge4_Node000003_Node000005"><a xlink:title=" ">
<path fill="none" stroke="#9a32cd" stroke-dasharray="5,2" d="M123.47,-176.78C144.62,-171.72 168.35,-165.98 190,-160.62 195.68,-159.22 201.62,-157.73 207.53,-156.24"/>
<polygon fill="#9a32cd" stroke="#9a32cd" points="122.9,-173.55 113.99,-179.28 124.53,-180.36 122.9,-173.55"/>
</a>
</g>
<text text-anchor="middle" x="163.75" y="-174.38" font-family="Times,serif" font-size="10.00" fill="grey"> measurer</text>
</g>
<!-- Node6 -->
<g id="Node000006" class="node">
<title>Node6</title>
<g id="a_Node000006"><a xlink:title=" ">
<polygon fill="white" stroke="#666666" points="111.62,-158.25 7.88,-158.25 7.88,-139 111.62,-139 111.62,-158.25"/>
<text text-anchor="middle" x="59.75" y="-144.75" font-family="Times,serif" font-size="10.00">const UniquePacketID</text>
</a>
</g>
</g>
<!-- Node6&#45;&gt;Node3 -->
<g id="edge5_Node000003_Node000006" class="edge">
<title>Node6&#45;&gt;Node3</title>
<g id="a_edge5_Node000003_Node000006"><a xlink:title=" ">
<path fill="none" stroke="#9a32cd" stroke-dasharray="5,2" d="M122.64,-147.05C150.11,-146.34 181.98,-145.53 207.74,-144.87"/>
<polygon fill="#9a32cd" stroke="#9a32cd" points="122.87,-143.56 112.96,-147.32 123.04,-150.56 122.87,-143.56"/>
</a>
</g>
<text text-anchor="middle" x="163.75" y="-147.38" font-family="Times,serif" font-size="10.00" fill="grey"> type</text>
</g>
<!-- Node7 -->
<g id="Node000007" class="node">
<title>Node7</title>
<g id="a_Node000007"><a xlink:title=" ">
<polygon fill="white" stroke="#666666" points="88,-121.25 31.5,-121.25 31.5,-102 88,-102 88,-121.25"/>
<text text-anchor="middle" x="59.75" y="-107.75" font-family="Times,serif" font-size="10.00">const float</text>
</a>
</g>
</g>
<!-- Node7&#45;&gt;Node3 -->
<g id="edge6_Node000003_Node000007" class="edge">
<title>Node7&#45;&gt;Node3</title>
<g id="a_edge6_Node000003_Node000007"><a xlink:title=" ">
<path fill="none" stroke="#9a32cd" stroke-dasharray="5,2" d="M98.89,-116.11C124.69,-119.33 159.49,-124.02 190,-129.38 195.71,-130.38 201.67,-131.52 207.59,-132.7"/>
<polygon fill="#9a32cd" stroke="#9a32cd" points="99.43,-112.52 89.07,-114.78 98.57,-119.47 99.43,-112.52"/>
</a>
</g>
<text text-anchor="middle" x="163.75" y="-130.38" font-family="Times,serif" font-size="10.00" fill="grey"> time_to_live</text>
</g>
<!-- Node8 -->
<g id="Node000008" class="node">
<title>Node8</title>
<g id="a_Node000008"><a xlink:title=" ">
<polygon fill="white" stroke="#666666" points="76.75,-71.25 42.75,-71.25 42.75,-52 76.75,-52 76.75,-71.25"/>
<text text-anchor="middle" x="59.75" y="-57.75" font-family="Times,serif" font-size="10.00">float</text>
</a>
</g>
</g>
<!-- Node8&#45;&gt;Node1 -->
<g id="edge11_Node000001_Node000008" class="edge">
<title>Node8&#45;&gt;Node1</title>
<g id="a_edge11_Node000001_Node000008"><a xlink:title=" ">
<path fill="none" stroke="#9a32cd" stroke-dasharray="5,2" d="M87.85,-58.46C125.61,-54.33 196.22,-47.62 256.62,-47.62 256.62,-47.62 256.62,-47.62 676.75,-47.62 728.24,-47.62 786.63,-47.62 829.78,-47.62"/>
<polygon fill="#9a32cd" stroke="#9a32cd" points="87.78,-55.06 78.23,-59.65 88.56,-62.01 87.78,-55.06"/>
</a>
</g>
<text text-anchor="middle" x="413" y="-49.38" font-family="Times,serif" font-size="10.00" fill="grey"> time_to_live</text>
</g>
<!-- Node8&#45;&gt;Node3 -->
<g id="edge7_Node000003_Node000008" class="edge">
<title>Node8&#45;&gt;Node3</title>
<g id="a_edge7_Node000003_Node000008"><a xlink:title=" ">
<path fill="none" stroke="#9a32cd" stroke-dasharray="5,2" d="M87.44,-69C113.99,-76.72 155.61,-89.86 190,-105.38 204.35,-111.85 219.62,-120.48 231.92,-127.91"/>
<polygon fill="#9a32cd" stroke="#9a32cd" points="88.63,-65.41 78.05,-66.03 86.71,-72.15 88.63,-65.41"/>
</a>
</g>
<text text-anchor="middle" x="163.75" y="-106.38" font-family="Times,serif" font-size="10.00" fill="grey"> timestamp_</text>
</g>
<!-- Node9&#45;&gt;Node2 -->
<g id="edge8_Node000002_Node000009" class="edge">
<title>Node9&#45;&gt;Node2</title>
<g id="a_edge8_Node000002_Node000009"><a xlink:title=" ">
<path fill="none" stroke="orange" stroke-dasharray="5,2" d="M493.13,-100.62C535.92,-100.62 587.46,-100.62 624.69,-100.62"/>
<polygon fill="orange" stroke="orange" points="493.17,-97.13 483.17,-100.62 493.17,-104.13 493.17,-97.13"/>
</a>
</g>
<text text-anchor="middle" x="542.5" y="-102.38" font-family="Times,serif" font-size="10.00" fill="grey"> &lt; class PongPacket &gt;</text>
</g>
<!-- Node10 -->
<g id="Node000010" class="node">
<title>Node10</title>
<g id="a_Node000010"><a xlink:title=" ">
<polygon fill="white" stroke="#666666" points="748.25,-19.25 603.25,-19.25 603.25,0 748.25,0 748.25,-19.25"/>
<text text-anchor="middle" x="675.75" y="-5.75" font-family="Times,serif" font-size="10.00">static constexpr UniquePacketID</text>
</a>
</g>
</g>
<!-- Node10&#45;&gt;Node1 -->
<g id="edge10_Node000001_Node000010" class="edge">
<title>Node10&#45;&gt;Node1</title>
<g id="a_edge10_Node000001_Node000010"><a xlink:title=" ">
<path fill="none" stroke="#9a32cd" stroke-dasharray="5,2" d="M759.49,-14.68C776.93,-16.51 795.15,-19 812,-22.38 824.02,-24.78 836.79,-28.28 848.55,-31.91"/>
<polygon fill="#9a32cd" stroke="#9a32cd" points="760.04,-11.12 749.75,-13.63 759.36,-18.09 760.04,-11.12"/>
</a>
</g>
<text text-anchor="middle" x="789.12" y="-24.38" font-family="Times,serif" font-size="10.00" fill="grey"> static_type</text>
</g>
</g>
</svg>

<g id="navigator" transform="translate(0 0)" fill="#404254">
  <rect fill="#f2f5e9" fill-opacity="0.5" stroke="#606060" stroke-width=".5" x="0" y="0" width="60" height="60"/>
  <use id="zoomplus" xlink:href="#zoomPlus" x="17" y="9" onmousedown="handleZoom(evt,'in')"/>
  <use id="zoomminus" xlink:href="#zoomMin" x="42" y="9" onmousedown="handleZoom(evt,'out')"/>
  <use id="reset" xlink:href="#resetDef" x="30" y="36" onmousedown="handleReset()"/>
   <use id="arrowup" xlink:href="#arrowUp" x="0" y="0" onmousedown="handlePan(0,-1)"/>
  <use id="arrowright" xlink:href="#arrowRight" x="0" y="0" onmousedown="handlePan(1,0)"/>
  <use id="arrowdown" xlink:href="#arrowDown" x="0" y="0" onmousedown="handlePan(0,1)"/>
  <use id="arrowleft" xlink:href="#arrowLeft" x="0" y="0" onmousedown="handlePan(-1,0)"/>
</g>
<svg viewBox="0 0 15 15" width="100%" height="30px" preserveAspectRatio="xMaxYMin meet">
 <g id="arrow_out" transform="scale(0.3 0.3)">
  <a xlink:href="classmal__packet__weaver_1_1packet_1_1network_1_1_pong_packet__coll__graph_org.svg" target="_base">
   <rect id="button" ry="5" rx="5" y="6" x="6" height="38" width="38"
        fill="#f2f5e9" fill-opacity="0.5" stroke="#606060" stroke-width="1.0"/>
   <path id="arrow"
     d="M 11.500037,31.436501 C 11.940474,20.09759 22.043105,11.32322 32.158766,21.979434 L 37.068811,17.246167 C 37.068811,17.246167 37.088388,32 37.088388,32 L 22.160133,31.978069 C 22.160133,31.978069 26.997745,27.140456 26.997745,27.140456 C 18.528582,18.264221 13.291696,25.230495 11.500037,31.436501 z"
     style="fill:#404040;"/>
  </a>
 </g>
</svg>

<style type='text/css'>
<![CDATA[
[data-mouse-over-selected='false'] { opacity: 0.7; }
[data-mouse-over-selected='true']  { opacity: 1.0; }
]]>
</style>
<script type="application/ecmascript"><![CDATA[
document.addEventListener('DOMContentLoaded', (event) => {
  highlightEdges();
  highlightAdjacentNodes();
});
]]></script>
</svg>
