<?xml version="1.0" encoding="UTF-8" standalone="no"?>
<!DOCTYPE svg PUBLIC "-//W3C//DTD SVG 1.1//EN"
 "http://www.w3.org/Graphics/SVG/1.1/DTD/svg11.dtd">
<!-- Generated by graphviz version 7.0.5 (20221223.1930)
 -->
<!-- Title: mal&#45;packet&#45;weaver/mal&#45;packet&#45;weaver/crypto/sha.hpp Pages: 1 -->
<svg width="1249pt" height="225pt"
 viewBox="0.00 0.00 1249.00 225.00" xmlns="http://www.w3.org/2000/svg" xmlns:xlink="http://www.w3.org/1999/xlink">
<g id="graph0" class="graph" transform="scale(1 1) rotate(0) translate(4 221)">
<title>mal&#45;packet&#45;weaver/mal&#45;packet&#45;weaver/crypto/sha.hpp</title>
<!-- Node1 -->
<g id="node1" class="node">
<title>Node1</title>
<g id="a_node1"><a xlink:title=" ">
<polygon fill="#999999" stroke="#666666" points="905,-217 787,-217 787,-176 905,-176 905,-217"/>
<text text-anchor="start" x="795" y="-205" font-family="Helvetica,sans-Serif" font-size="10.00">mal&#45;packet&#45;weaver/mal</text>
<text text-anchor="start" x="795" y="-194" font-family="Helvetica,sans-Serif" font-size="10.00">&#45;packet&#45;weaver/crypto</text>
<text text-anchor="middle" x="846" y="-183" font-family="Helvetica,sans-Serif" font-size="10.00">/sha.hpp</text>
</a>
</g>
</g>
<!-- Node2 -->
<g id="node2" class="node">
<title>Node2</title>
<g id="a_node2"><a xlink:title=" ">
<polygon fill="#e0e0e0" stroke="#999999" points="651.5,-140 570.5,-140 570.5,-121 651.5,-121 651.5,-140"/>
<text text-anchor="middle" x="611" y="-128" font-family="Helvetica,sans-Serif" font-size="10.00">../utils/utils.hpp</text>
</a>
</g>
</g>
<!-- Node1&#45;&gt;Node2 -->
<g id="edge1" class="edge">
<title>Node1&#45;&gt;Node2</title>
<path fill="none" stroke="#63b8ff" d="M786.7,-179.35C745.67,-168.18 691.96,-153.55 654.78,-143.42"/>
<polygon fill="#63b8ff" stroke="#63b8ff" points="655.84,-140.08 645.27,-140.83 654,-146.84 655.84,-140.08"/>
</g>
<!-- Node3 -->
<g id="node3" class="node">
<title>Node3</title>
<g id="a_node3"><a xlink:href="../../d7/d87/crypto_2common_8hpp.html" target="_top" xlink:title=" ">
<polygon fill="white" stroke="#666666" points="780,-140 708,-140 708,-121 780,-121 780,-140"/>
<text text-anchor="middle" x="744" y="-128" font-family="Helvetica,sans-Serif" font-size="10.00">common.hpp</text>
</a>
</g>
</g>
<!-- Node1&#45;&gt;Node3 -->
<g id="edge2" class="edge">
<title>Node1&#45;&gt;Node3</title>
<path fill="none" stroke="#63b8ff" d="M814.29,-175.6C799.28,-166.19 781.66,-155.13 767.82,-146.44"/>
<polygon fill="#63b8ff" stroke="#63b8ff" points="769.69,-143.49 759.36,-141.14 765.97,-149.41 769.69,-143.49"/>
</g>
<!-- Node16 -->
<g id="node16" class="node">
<title>Node16</title>
<g id="a_node16"><a xlink:title=" ">
<polygon fill="#e0e0e0" stroke="#999999" points="348,-85 266,-85 266,-66 348,-66 348,-85"/>
<text text-anchor="middle" x="307" y="-73" font-family="Helvetica,sans-Serif" font-size="10.00">openssl/ecdh.h</text>
</a>
</g>
</g>
<!-- Node1&#45;&gt;Node16 -->
<g id="edge22" class="edge">
<title>Node1&#45;&gt;Node16</title>
<path fill="none" stroke="#63b8ff" d="M789.67,-175.62C762.1,-165.54 728.56,-152.75 699,-140 681.3,-132.36 678.5,-126.44 660,-121 533.32,-83.78 493.33,-103.27 359.53,-85.26"/>
<polygon fill="#63b8ff" stroke="#63b8ff" points="360.33,-81.84 349.95,-83.92 359.36,-88.77 360.33,-81.84"/>
</g>
<!-- Node17 -->
<g id="node17" class="node">
<title>Node17</title>
<g id="a_node17"><a xlink:title=" ">
<polygon fill="#e0e0e0" stroke="#999999" points="967.5,-85 890.5,-85 890.5,-66 967.5,-66 967.5,-85"/>
<text text-anchor="middle" x="929" y="-73" font-family="Helvetica,sans-Serif" font-size="10.00">openssl/evp.h</text>
</a>
</g>
</g>
<!-- Node1&#45;&gt;Node17 -->
<g id="edge24" class="edge">
<title>Node1&#45;&gt;Node17</title>
<path fill="none" stroke="#63b8ff" d="M835.01,-175.66C827.81,-159.73 821.48,-137.39 832,-121 842.65,-104.39 861.23,-93.9 879.3,-87.31"/>
<polygon fill="#63b8ff" stroke="#63b8ff" points="880.25,-90.68 888.66,-84.25 878.07,-84.03 880.25,-90.68"/>
</g>
<!-- Node20 -->
<g id="node20" class="node">
<title>Node20</title>
<g id="a_node20"><a xlink:title=" ">
<polygon fill="#e0e0e0" stroke="#999999" points="1062.5,-85 985.5,-85 985.5,-66 1062.5,-66 1062.5,-85"/>
<text text-anchor="middle" x="1024" y="-73" font-family="Helvetica,sans-Serif" font-size="10.00">openssl/sha.h</text>
</a>
</g>
</g>
<!-- Node1&#45;&gt;Node20 -->
<g id="edge26" class="edge">
<title>Node1&#45;&gt;Node20</title>
<path fill="none" stroke="#63b8ff" d="M845.84,-175.79C846.78,-159.06 850.82,-135.51 865,-121 872.83,-112.98 930.43,-98.16 974.07,-87.83"/>
<polygon fill="#63b8ff" stroke="#63b8ff" points="974.7,-91.28 983.63,-85.59 973.1,-84.46 974.7,-91.28"/>
</g>
<!-- Node21 -->
<g id="node21" class="node">
<title>Node21</title>
<g id="a_node21"><a xlink:title=" ">
<polygon fill="#e0e0e0" stroke="#999999" points="948,-140 874,-140 874,-121 948,-121 948,-140"/>
<text text-anchor="middle" x="911" y="-128" font-family="Helvetica,sans-Serif" font-size="10.00">openssl/bio.h</text>
</a>
</g>
</g>
<!-- Node1&#45;&gt;Node21 -->
<g id="edge20" class="edge">
<title>Node1&#45;&gt;Node21</title>
<path fill="none" stroke="#63b8ff" d="M866.21,-175.6C875.17,-166.78 885.6,-156.51 894.13,-148.11"/>
<polygon fill="#63b8ff" stroke="#63b8ff" points="896.45,-150.73 901.12,-141.22 891.54,-145.75 896.45,-150.73"/>
</g>
<!-- Node22 -->
<g id="node22" class="node">
<title>Node22</title>
<g id="a_node22"><a xlink:title=" ">
<polygon fill="#e0e0e0" stroke="#999999" points="1037.5,-140 966.5,-140 966.5,-121 1037.5,-121 1037.5,-140"/>
<text text-anchor="middle" x="1002" y="-128" font-family="Helvetica,sans-Serif" font-size="10.00">openssl/ec.h</text>
</a>
</g>
</g>
<!-- Node1&#45;&gt;Node22 -->
<g id="edge21" class="edge">
<title>Node1&#45;&gt;Node22</title>
<path fill="none" stroke="#63b8ff" d="M894.5,-175.6C919.03,-165.54 948.12,-153.61 969.85,-144.69"/>
<polygon fill="#63b8ff" stroke="#63b8ff" points="971.15,-147.94 979.07,-140.91 968.49,-141.46 971.15,-147.94"/>
</g>
<!-- Node23 -->
<g id="node23" class="node">
<title>Node23</title>
<g id="a_node23"><a xlink:title=" ">
<polygon fill="#e0e0e0" stroke="#999999" points="1142.5,-140 1055.5,-140 1055.5,-121 1142.5,-121 1142.5,-140"/>
<text text-anchor="middle" x="1099" y="-128" font-family="Helvetica,sans-Serif" font-size="10.00">openssl/ecdsa.h</text>
</a>
</g>
</g>
<!-- Node1&#45;&gt;Node23 -->
<g id="edge23" class="edge">
<title>Node1&#45;&gt;Node23</title>
<path fill="none" stroke="#63b8ff" d="M905.32,-180.49C950.17,-169.15 1010.91,-153.78 1052.33,-143.31"/>
<polygon fill="#63b8ff" stroke="#63b8ff" points="1053.17,-146.7 1062,-140.86 1051.45,-139.92 1053.17,-146.7"/>
</g>
<!-- Node24 -->
<g id="node24" class="node">
<title>Node24</title>
<g id="a_node24"><a xlink:title=" ">
<polygon fill="#e0e0e0" stroke="#999999" points="1241,-140 1161,-140 1161,-121 1241,-121 1241,-140"/>
<text text-anchor="middle" x="1201" y="-128" font-family="Helvetica,sans-Serif" font-size="10.00">openssl/pem.h</text>
</a>
</g>
</g>
<!-- Node1&#45;&gt;Node24 -->
<g id="edge25" class="edge">
<title>Node1&#45;&gt;Node24</title>
<path fill="none" stroke="#63b8ff" d="M905.42,-184.79C973.76,-172.47 1084.83,-152.44 1149.59,-140.77"/>
<polygon fill="#63b8ff" stroke="#63b8ff" points="1150.03,-144.25 1159.25,-139.03 1148.79,-137.36 1150.03,-144.25"/>
</g>
<!-- Node4 -->
<g id="node4" class="node">
<title>Node4</title>
<g id="a_node4"><a xlink:href="../../dd/d3a/common_8hpp.html" target="_top" xlink:title=" ">
<polygon fill="white" stroke="#666666" points="558,-85 478,-85 478,-66 558,-66 558,-85"/>
<text text-anchor="middle" x="518" y="-73" font-family="Helvetica,sans-Serif" font-size="10.00">../common.hpp</text>
</a>
</g>
</g>
<!-- Node3&#45;&gt;Node4 -->
<g id="edge3" class="edge">
<title>Node3&#45;&gt;Node4</title>
<path fill="none" stroke="#63b8ff" d="M707.69,-120.98C669.63,-112.06 609.59,-97.98 567.27,-88.05"/>
<polygon fill="#63b8ff" stroke="#63b8ff" points="568.12,-84.66 557.58,-85.78 566.52,-91.47 568.12,-84.66"/>
</g>
<!-- Node14 -->
<g id="node14" class="node">
<title>Node14</title>
<g id="a_node14"><a xlink:title=" ">
<polygon fill="#e0e0e0" stroke="#999999" points="690,-85 576,-85 576,-66 690,-66 690,-85"/>
<text text-anchor="middle" x="633" y="-73" font-family="Helvetica,sans-Serif" font-size="10.00">openssl/core_names.h</text>
</a>
</g>
</g>
<!-- Node3&#45;&gt;Node14 -->
<g id="edge13" class="edge">
<title>Node3&#45;&gt;Node14</title>
<path fill="none" stroke="#63b8ff" d="M725.17,-120.51C707.84,-112.24 681.89,-99.84 661.93,-90.31"/>
<polygon fill="#63b8ff" stroke="#63b8ff" points="663.45,-87.16 652.92,-86.01 660.43,-93.48 663.45,-87.16"/>
</g>
<!-- Node15 -->
<g id="node15" class="node">
<title>Node15</title>
<g id="a_node15"><a xlink:title=" ">
<polygon fill="#e0e0e0" stroke="#999999" points="779.5,-85 708.5,-85 708.5,-66 779.5,-66 779.5,-85"/>
<text text-anchor="middle" x="744" y="-73" font-family="Helvetica,sans-Serif" font-size="10.00">openssl/dh.h</text>
</a>
</g>
</g>
<!-- Node3&#45;&gt;Node15 -->
<g id="edge14" class="edge">
<title>Node3&#45;&gt;Node15</title>
<path fill="none" stroke="#63b8ff" d="M744,-120.75C744,-114.27 744,-105.16 744,-96.9"/>
<polygon fill="#63b8ff" stroke="#63b8ff" points="747.5,-96.96 744,-86.96 740.5,-96.96 747.5,-96.96"/>
</g>
<!-- Node3&#45;&gt;Node16 -->
<g id="edge15" class="edge">
<title>Node3&#45;&gt;Node16</title>
<path fill="none" stroke="#63b8ff" d="M707.72,-123.06C703.11,-122.32 698.45,-121.62 694,-121 548.43,-100.87 508.16,-105.39 359.79,-85.3"/>
<polygon fill="#63b8ff" stroke="#63b8ff" points="360.32,-81.84 349.94,-83.95 359.37,-88.78 360.32,-81.84"/>
</g>
<!-- Node3&#45;&gt;Node17 -->
<g id="edge16" class="edge">
<title>Node3&#45;&gt;Node17</title>
<path fill="none" stroke="#63b8ff" d="M775.38,-120.51C806.04,-111.73 852.91,-98.3 886.81,-88.59"/>
<polygon fill="#63b8ff" stroke="#63b8ff" points="887.67,-91.98 896.32,-85.86 885.74,-85.25 887.67,-91.98"/>
</g>
<!-- Node18 -->
<g id="node18" class="node">
<title>Node18</title>
<g id="a_node18"><a xlink:title=" ">
<polygon fill="#e0e0e0" stroke="#999999" points="872,-85 798,-85 798,-66 872,-66 872,-85"/>
<text text-anchor="middle" x="835" y="-73" font-family="Helvetica,sans-Serif" font-size="10.00">openssl/kdf.h</text>
</a>
</g>
</g>
<!-- Node3&#45;&gt;Node18 -->
<g id="edge17" class="edge">
<title>Node3&#45;&gt;Node18</title>
<path fill="none" stroke="#63b8ff" d="M759.44,-120.51C773.25,-112.47 793.75,-100.53 809.91,-91.11"/>
<polygon fill="#63b8ff" stroke="#63b8ff" points="811.6,-94.18 818.48,-86.12 808.08,-88.13 811.6,-94.18"/>
</g>
<!-- Node19 -->
<g id="node19" class="node">
<title>Node19</title>
<g id="a_node19"><a xlink:title=" ">
<polygon fill="#e0e0e0" stroke="#999999" points="459.5,-85 366.5,-85 366.5,-66 459.5,-66 459.5,-85"/>
<text text-anchor="middle" x="413" y="-73" font-family="Helvetica,sans-Serif" font-size="10.00">openssl/params.h</text>
</a>
</g>
</g>
<!-- Node3&#45;&gt;Node19 -->
<g id="edge18" class="edge">
<title>Node3&#45;&gt;Node19</title>
<path fill="none" stroke="#63b8ff" d="M707.69,-123.28C703.08,-122.5 698.43,-121.73 694,-121 616.94,-108.35 527.88,-94.35 471.04,-85.49"/>
<polygon fill="#63b8ff" stroke="#63b8ff" points="471.68,-82.05 461.26,-83.97 470.6,-88.97 471.68,-82.05"/>
</g>
<!-- Node3&#45;&gt;Node20 -->
<g id="edge19" class="edge">
<title>Node3&#45;&gt;Node20</title>
<path fill="none" stroke="#63b8ff" d="M780.32,-122.63C829.74,-113.27 918.38,-96.49 974.04,-85.96"/>
<polygon fill="#63b8ff" stroke="#63b8ff" points="974.39,-89.45 983.56,-84.15 973.08,-82.58 974.39,-89.45"/>
</g>
<!-- Node5 -->
<g id="node5" class="node">
<title>Node5</title>
<g id="a_node5"><a xlink:title=" ">
<polygon fill="#e0e0e0" stroke="#999999" points="104,-30 0,-30 0,0 104,0 104,-30"/>
<text text-anchor="start" x="8" y="-18" font-family="Helvetica,sans-Serif" font-size="10.00">boost/archive/binary</text>
<text text-anchor="middle" x="52" y="-7" font-family="Helvetica,sans-Serif" font-size="10.00">_iarchive.hpp</text>
</a>
</g>
</g>
<!-- Node4&#45;&gt;Node5 -->
<g id="edge4" class="edge">
<title>Node4&#45;&gt;Node5</title>
<path fill="none" stroke="#63b8ff" d="M477.65,-67.4C474.39,-66.9 471.14,-66.43 468,-66 314.38,-45.18 271.39,-55.31 115.42,-30.27"/>
<polygon fill="#63b8ff" stroke="#63b8ff" points="116.42,-26.88 105.98,-28.73 115.29,-33.79 116.42,-26.88"/>
</g>
<!-- Node6 -->
<g id="node6" class="node">
<title>Node6</title>
<g id="a_node6"><a xlink:title=" ">
<polygon fill="#e0e0e0" stroke="#999999" points="226,-30 122,-30 122,0 226,0 226,-30"/>
<text text-anchor="start" x="130" y="-18" font-family="Helvetica,sans-Serif" font-size="10.00">boost/archive/binary</text>
<text text-anchor="middle" x="174" y="-7" font-family="Helvetica,sans-Serif" font-size="10.00">_oarchive.hpp</text>
</a>
</g>
</g>
<!-- Node4&#45;&gt;Node6 -->
<g id="edge5" class="edge">
<title>Node4&#45;&gt;Node6</title>
<path fill="none" stroke="#63b8ff" d="M477.62,-67.58C474.37,-67.04 471.13,-66.51 468,-66 368.1,-49.79 339.82,-49.72 237.35,-30.37"/>
<polygon fill="#63b8ff" stroke="#63b8ff" points="238.16,-26.96 227.68,-28.52 236.85,-33.83 238.16,-26.96"/>
</g>
<!-- Node7 -->
<g id="node7" class="node">
<title>Node7</title>
<g id="a_node7"><a xlink:title=" ">
<polygon fill="#e0e0e0" stroke="#999999" points="339.5,-30 244.5,-30 244.5,0 339.5,0 339.5,-30"/>
<text text-anchor="start" x="252.5" y="-18" font-family="Helvetica,sans-Serif" font-size="10.00">boost/serialization</text>
<text text-anchor="middle" x="292" y="-7" font-family="Helvetica,sans-Serif" font-size="10.00">/base_object.hpp</text>
</a>
</g>
</g>
<!-- Node4&#45;&gt;Node7 -->
<g id="edge6" class="edge">
<title>Node4&#45;&gt;Node7</title>
<path fill="none" stroke="#63b8ff" d="M483.68,-65.62C448.42,-56.49 392.89,-42.12 350.65,-31.18"/>
<polygon fill="#63b8ff" stroke="#63b8ff" points="351.7,-27.84 341.14,-28.72 349.94,-34.61 351.7,-27.84"/>
</g>
<!-- Node8 -->
<g id="node8" class="node">
<title>Node8</title>
<g id="a_node8"><a xlink:title=" ">
<polygon fill="#e0e0e0" stroke="#999999" points="452.5,-30 357.5,-30 357.5,0 452.5,0 452.5,-30"/>
<text text-anchor="start" x="365.5" y="-18" font-family="Helvetica,sans-Serif" font-size="10.00">boost/serialization</text>
<text text-anchor="middle" x="405" y="-7" font-family="Helvetica,sans-Serif" font-size="10.00">/serialization.hpp</text>
</a>
</g>
</g>
<!-- Node4&#45;&gt;Node8 -->
<g id="edge7" class="edge">
<title>Node4&#45;&gt;Node8</title>
<path fill="none" stroke="#63b8ff" d="M500.84,-65.62C485.56,-57.7 462.65,-45.85 443.07,-35.71"/>
<polygon fill="#63b8ff" stroke="#63b8ff" points="444.73,-32.62 434.24,-31.14 441.51,-38.84 444.73,-32.62"/>
</g>
<!-- Node9 -->
<g id="node9" class="node">
<title>Node9</title>
<g id="a_node9"><a xlink:title=" ">
<polygon fill="#e0e0e0" stroke="#999999" points="565.5,-30 470.5,-30 470.5,0 565.5,0 565.5,-30"/>
<text text-anchor="start" x="478.5" y="-18" font-family="Helvetica,sans-Serif" font-size="10.00">boost/serialization</text>
<text text-anchor="middle" x="518" y="-7" font-family="Helvetica,sans-Serif" font-size="10.00">/vector.hpp</text>
</a>
</g>
</g>
<!-- Node4&#45;&gt;Node9 -->
<g id="edge8" class="edge">
<title>Node4&#45;&gt;Node9</title>
<path fill="none" stroke="#63b8ff" d="M518,-65.87C518,-59.4 518,-50.2 518,-41.45"/>
<polygon fill="#63b8ff" stroke="#63b8ff" points="521.5,-41.63 518,-31.63 514.5,-41.63 521.5,-41.63"/>
</g>
<!-- Node10 -->
<g id="node10" class="node">
<title>Node10</title>
<g id="a_node10"><a xlink:title=" ">
<polygon fill="#e0e0e0" stroke="#999999" points="724,-24.5 584,-24.5 584,-5.5 724,-5.5 724,-24.5"/>
<text text-anchor="middle" x="654" y="-12.5" font-family="Helvetica,sans-Serif" font-size="10.00">boost/endian/conversion.hpp</text>
</a>
</g>
</g>
<!-- Node4&#45;&gt;Node10 -->
<g id="edge9" class="edge">
<title>Node4&#45;&gt;Node10</title>
<path fill="none" stroke="#63b8ff" d="M538.66,-65.62C561.02,-55.99 596.96,-40.54 622.77,-29.43"/>
<polygon fill="#63b8ff" stroke="#63b8ff" points="623.96,-32.73 631.76,-25.57 621.19,-26.3 623.96,-32.73"/>
</g>
<!-- Node11 -->
<g id="node11" class="node">
<title>Node11</title>
<g id="a_node11"><a xlink:title=" ">
<polygon fill="#e0e0e0" stroke="#999999" points="791.5,-24.5 742.5,-24.5 742.5,-5.5 791.5,-5.5 791.5,-24.5"/>
<text text-anchor="middle" x="767" y="-12.5" font-family="Helvetica,sans-Serif" font-size="10.00">cstddef</text>
</a>
</g>
</g>
<!-- Node4&#45;&gt;Node11 -->
<g id="edge10" class="edge">
<title>Node4&#45;&gt;Node11</title>
<path fill="none" stroke="#63b8ff" d="M558.47,-67.06C611.33,-57.18 700.93,-39.83 733,-30 734.16,-29.64 735.33,-29.26 736.52,-28.87"/>
<polygon fill="#63b8ff" stroke="#63b8ff" points="737.53,-32.23 745.67,-25.45 735.08,-25.67 737.53,-32.23"/>
</g>
<!-- Node12 -->
<g id="node12" class="node">
<title>Node12</title>
<g id="a_node12"><a xlink:title=" ">
<polygon fill="#e0e0e0" stroke="#999999" points="848,-24.5 810,-24.5 810,-5.5 848,-5.5 848,-24.5"/>
<text text-anchor="middle" x="829" y="-12.5" font-family="Helvetica,sans-Serif" font-size="10.00">span</text>
</a>
</g>
</g>
<!-- Node4&#45;&gt;Node12 -->
<g id="edge11" class="edge">
<title>Node4&#45;&gt;Node12</title>
<path fill="none" stroke="#63b8ff" d="M558.37,-67.44C561.29,-66.94 564.19,-66.46 567,-66 670.4,-49.04 699.94,-61.12 800,-30 800.8,-29.75 801.61,-29.48 802.42,-29.2"/>
<polygon fill="#63b8ff" stroke="#63b8ff" points="803.51,-32.54 811.39,-25.45 800.81,-26.08 803.51,-32.54"/>
</g>
<!-- Node13 -->
<g id="node13" class="node">
<title>Node13</title>
<g id="a_node13"><a xlink:title=" ">
<polygon fill="#e0e0e0" stroke="#999999" points="910,-24.5 866,-24.5 866,-5.5 910,-5.5 910,-24.5"/>
<text text-anchor="middle" x="888" y="-12.5" font-family="Helvetica,sans-Serif" font-size="10.00">vector</text>
</a>
</g>
</g>
<!-- Node4&#45;&gt;Node13 -->
<g id="edge12" class="edge">
<title>Node4&#45;&gt;Node13</title>
<path fill="none" stroke="#63b8ff" d="M558.35,-67.34C561.28,-66.87 564.18,-66.42 567,-66 695.47,-46.9 731.96,-65.12 857,-30 857.99,-29.72 859,-29.41 860.01,-29.08"/>
<polygon fill="#63b8ff" stroke="#63b8ff" points="861.18,-32.38 869.23,-25.49 858.64,-25.86 861.18,-32.38"/>
</g>
</g>
</svg>
