<?xml version="1.0" encoding="UTF-8" standalone="no"?>
<!DOCTYPE svg PUBLIC "-//W3C//DTD SVG 1.1//EN"
 "http://www.w3.org/Graphics/SVG/1.1/DTD/svg11.dtd">
<!-- Generated by graphviz version 7.0.5 (20221223.1930)
 -->
<!-- Title: third_party/mal&#45;toolkit/mal&#45;toolkit/mal&#45;toolkit/library&#45;pch.hpp Pages: 1 -->
<!--zoomable 291 -->
<svg id="main" version="1.1" xmlns="http://www.w3.org/2000/svg" xmlns:xlink="http://www.w3.org/1999/xlink" xml:space="preserve" onload="init(evt)">
<style type="text/css"><![CDATA[
.edge:hover path { stroke: red; }
.edge:hover polygon { stroke: red; fill: red; }
]]></style>
<script type="text/javascript"><![CDATA[
var edges = document.getElementsByTagName('g');
if (edges && edges.length) {
  for (var i=0;i<edges.length;i++) {
    if (edges[i].id.substr(0,4)=='edge') {
      edges[i].setAttribute('class','edge');
    }
  }
}
]]></script>
        <defs>
                <circle id="rim" cx="0" cy="0" r="7"/>
                <circle id="rim2" cx="0" cy="0" r="3.5"/>
                <g id="zoomPlus">
                        <use xlink:href="#rim" fill="#404040">
                                <set attributeName="fill" to="#808080" begin="zoomplus.mouseover" end="zoomplus.mouseout"/>
                        </use>
                        <path d="M-4,0h8M0,-4v8" fill="none" stroke="white" stroke-width="1.5" pointer-events="none"/>
                </g>
                <g id="zoomMin">
                        <use xlink:href="#rim" fill="#404040">
                                <set attributeName="fill" to="#808080" begin="zoomminus.mouseover" end="zoomminus.mouseout"/>
                        </use>
                        <path d="M-4,0h8" fill="none" stroke="white" stroke-width="1.5" pointer-events="none"/>
                </g>
                <g id="dirArrow">
                        <path fill="none" stroke="white" stroke-width="1.5" d="M0,-3.0v7 M-2.5,-0.5L0,-3.0L2.5,-0.5"/>
                </g>
               <g id="resetDef">
                       <use xlink:href="#rim2" fill="#404040">
                               <set attributeName="fill" to="#808080" begin="reset.mouseover" end="reset.mouseout"/>
                       </use>
               </g>
        </defs>

<script type="text/javascript">
var viewWidth = 1091;
var viewHeight = 291;
var sectionId = 'dynsection-1';
</script>
<script xlink:href="../../svgpan.js"/>
<svg id="graph" class="graph">
<g id="viewport">
<title>third_party/mal&#45;toolkit/mal&#45;toolkit/mal&#45;toolkit/library&#45;pch.hpp</title>
<!-- Node1 -->
<g id="node1" class="node">
<title>Node1</title>
<g id="a_node1"><a xlink:title="Precompiled header (PCH) file for common headers used across the library.">
<polygon fill="#999999" stroke="#666666" points="564,-283 451,-283 451,-242 564,-242 564,-283"/>
<text text-anchor="start" x="459" y="-271" font-family="Helvetica,sans-Serif" font-size="10.00">third_party/mal&#45;toolkit</text>
<text text-anchor="start" x="459" y="-260" font-family="Helvetica,sans-Serif" font-size="10.00">/mal&#45;toolkit/mal&#45;toolkit</text>
<text text-anchor="middle" x="507.5" y="-249" font-family="Helvetica,sans-Serif" font-size="10.00">/library&#45;pch.hpp</text>
</a>
</g>
</g>
<!-- Node2 -->
<g id="node2" class="node">
<title>Node2</title>
<g id="a_node2"><a xlink:href="../../da/df5/byte-helper_8hpp.html" target="_top" xlink:title=" ">
<polygon fill="white" stroke="#666666" points="113,-206 0,-206 0,-165 113,-165 113,-206"/>
<text text-anchor="start" x="8" y="-194" font-family="Helvetica,sans-Serif" font-size="10.00">third_party/mal&#45;toolkit</text>
<text text-anchor="start" x="8" y="-183" font-family="Helvetica,sans-Serif" font-size="10.00">/mal&#45;toolkit/mal&#45;toolkit</text>
<text text-anchor="middle" x="56.5" y="-172" font-family="Helvetica,sans-Serif" font-size="10.00">/byte&#45;helper.hpp</text>
</a>
</g>
</g>
<!-- Node1&#45;&gt;Node2 -->
<g id="edge1" class="edge">
<title>Node1&#45;&gt;Node2</title>
<path fill="none" stroke="#63b8ff" d="M439.43,-254.12C363.05,-245.24 235.66,-228.66 127.5,-206 122.87,-205.03 118.1,-203.93 113.32,-202.77"/>
<polygon fill="#63b8ff" stroke="#63b8ff" points="438.94,-257.59 449.28,-255.25 439.74,-250.63 438.94,-257.59"/>
</g>
<!-- Node3 -->
<g id="node3" class="node">
<title>Node3</title>
<g id="a_node3"><a xlink:href="../../d4/d80/common-structures_8hpp.html" target="_top" xlink:title="Defines common data structures and types that can be used anywhere.">
<polygon fill="white" stroke="#666666" points="151.5,-123.5 29.5,-123.5 29.5,-82.5 151.5,-82.5 151.5,-123.5"/>
<text text-anchor="start" x="37.5" y="-111.5" font-family="Helvetica,sans-Serif" font-size="10.00">third_party/mal&#45;toolkit</text>
<text text-anchor="start" x="37.5" y="-100.5" font-family="Helvetica,sans-Serif" font-size="10.00">/mal&#45;toolkit/mal&#45;toolkit</text>
<text text-anchor="middle" x="90.5" y="-89.5" font-family="Helvetica,sans-Serif" font-size="10.00">/common&#45;structures.hpp</text>
</a>
</g>
</g>
<!-- Node1&#45;&gt;Node3 -->
<g id="edge2" class="edge">
<title>Node1&#45;&gt;Node3</title>
<path fill="none" stroke="#63b8ff" d="M439.43,-256.55C353.17,-249.25 210.32,-233.4 165.5,-206 133.43,-186.39 110.74,-147.47 99.21,-123.78"/>
<polygon fill="#63b8ff" stroke="#63b8ff" points="438.93,-260.02 449.18,-257.36 439.51,-253.05 438.93,-260.02"/>
</g>
<!-- Node4 -->
<g id="node4" class="node">
<title>Node4</title>
<g id="a_node4"><a xlink:href="../../d1/d08/mal__toolkit_8hpp.html" target="_top" xlink:title="Main header file for the MAL Toolkit library, providing a comprehensive set of tools and utilities.">
<polygon fill="white" stroke="#666666" points="406,-41 293,-41 293,0 406,0 406,-41"/>
<text text-anchor="start" x="301" y="-29" font-family="Helvetica,sans-Serif" font-size="10.00">third_party/mal&#45;toolkit</text>
<text text-anchor="start" x="301" y="-18" font-family="Helvetica,sans-Serif" font-size="10.00">/mal&#45;toolkit/mal&#45;toolkit</text>
<text text-anchor="middle" x="349.5" y="-7" font-family="Helvetica,sans-Serif" font-size="10.00">/mal_toolkit.hpp</text>
</a>
</g>
</g>
<!-- Node1&#45;&gt;Node4 -->
<g id="edge19" class="edge">
<title>Node1&#45;&gt;Node4</title>
<path fill="none" stroke="#63b8ff" d="M439.37,-255.67C363.63,-244.97 245.75,-214.69 198.5,-129 187.34,-108.76 185.27,-95.95 198.5,-77 219.68,-46.65 259.38,-32.85 292.77,-26.6"/>
<polygon fill="#63b8ff" stroke="#63b8ff" points="438.81,-259.12 449.18,-256.97 439.73,-252.18 438.81,-259.12"/>
</g>
<!-- Node5 -->
<g id="node5" class="node">
<title>Node5</title>
<g id="a_node5"><a xlink:href="../../d1/d27/converter_8hpp.html" target="_top" xlink:title="Provides functions for converting between different data types.">
<polygon fill="white" stroke="#666666" points="321,-123.5 208,-123.5 208,-82.5 321,-82.5 321,-123.5"/>
<text text-anchor="start" x="216" y="-111.5" font-family="Helvetica,sans-Serif" font-size="10.00">third_party/mal&#45;toolkit</text>
<text text-anchor="start" x="216" y="-100.5" font-family="Helvetica,sans-Serif" font-size="10.00">/mal&#45;toolkit/mal&#45;toolkit</text>
<text text-anchor="middle" x="264.5" y="-89.5" font-family="Helvetica,sans-Serif" font-size="10.00">/converter.hpp</text>
</a>
</g>
</g>
<!-- Node1&#45;&gt;Node5 -->
<g id="edge4" class="edge">
<title>Node1&#45;&gt;Node5</title>
<path fill="none" stroke="#63b8ff" d="M440.07,-238.03C418.96,-229.36 396.07,-218.54 376.5,-206 339.52,-182.31 303.12,-146.12 282.29,-123.82"/>
<polygon fill="#63b8ff" stroke="#63b8ff" points="438.61,-241.21 449.19,-241.67 441.21,-234.71 438.61,-241.21"/>
</g>
<!-- Node6 -->
<g id="node6" class="node">
<title>Node6</title>
<g id="a_node6"><a xlink:href="../../da/d7b/debug_8hpp.html" target="_top" xlink:title="Contains debugging&#45;related macros and utilities for assisting with debugging tasks.">
<polygon fill="white" stroke="#666666" points="499,-206 386,-206 386,-165 499,-165 499,-206"/>
<text text-anchor="start" x="394" y="-194" font-family="Helvetica,sans-Serif" font-size="10.00">third_party/mal&#45;toolkit</text>
<text text-anchor="start" x="394" y="-183" font-family="Helvetica,sans-Serif" font-size="10.00">/mal&#45;toolkit/mal&#45;toolkit</text>
<text text-anchor="middle" x="442.5" y="-172" font-family="Helvetica,sans-Serif" font-size="10.00">/debug.hpp</text>
</a>
</g>
</g>
<!-- Node1&#45;&gt;Node6 -->
<g id="edge6" class="edge">
<title>Node1&#45;&gt;Node6</title>
<path fill="none" stroke="#63b8ff" d="M482.96,-233.18C475.21,-224.24 466.81,-214.55 459.69,-206.33"/>
<polygon fill="#63b8ff" stroke="#63b8ff" points="480.24,-235.39 489.43,-240.65 485.53,-230.8 480.24,-235.39"/>
</g>
<!-- Node10 -->
<g id="node10" class="node">
<title>Node10</title>
<g id="a_node10"><a xlink:href="../../d1/dcf/endianness_8hpp.html" target="_top" xlink:title="Provides functions and utilities for handling endianness conversions.">
<polygon fill="white" stroke="#666666" points="630,-206 517,-206 517,-165 630,-165 630,-206"/>
<text text-anchor="start" x="525" y="-194" font-family="Helvetica,sans-Serif" font-size="10.00">third_party/mal&#45;toolkit</text>
<text text-anchor="start" x="525" y="-183" font-family="Helvetica,sans-Serif" font-size="10.00">/mal&#45;toolkit/mal&#45;toolkit</text>
<text text-anchor="middle" x="573.5" y="-172" font-family="Helvetica,sans-Serif" font-size="10.00">/detail/endianness.hpp</text>
</a>
</g>
</g>
<!-- Node1&#45;&gt;Node10 -->
<g id="edge13" class="edge">
<title>Node1&#45;&gt;Node10</title>
<path fill="none" stroke="#63b8ff" d="M532.42,-233.18C540.29,-224.24 548.81,-214.55 556.05,-206.33"/>
<polygon fill="#63b8ff" stroke="#63b8ff" points="529.82,-230.84 525.84,-240.66 535.07,-235.46 529.82,-230.84"/>
</g>
<!-- Node12 -->
<g id="node12" class="node">
<title>Node12</title>
<g id="a_node12"><a xlink:href="../../dc/d94/event_8hpp.html" target="_top" xlink:title="Defines event handling and notification mechanisms.">
<polygon fill="white" stroke="#666666" points="761,-206 648,-206 648,-165 761,-165 761,-206"/>
<text text-anchor="start" x="656" y="-194" font-family="Helvetica,sans-Serif" font-size="10.00">third_party/mal&#45;toolkit</text>
<text text-anchor="start" x="656" y="-183" font-family="Helvetica,sans-Serif" font-size="10.00">/mal&#45;toolkit/mal&#45;toolkit</text>
<text text-anchor="middle" x="704.5" y="-172" font-family="Helvetica,sans-Serif" font-size="10.00">/event.hpp</text>
</a>
</g>
</g>
<!-- Node1&#45;&gt;Node12 -->
<g id="edge15" class="edge">
<title>Node1&#45;&gt;Node12</title>
<path fill="none" stroke="#63b8ff" d="M570.4,-237.55C596.69,-227.54 626.9,-216.04 651.98,-206.49"/>
<polygon fill="#63b8ff" stroke="#63b8ff" points="569.29,-234.23 561.19,-241.06 571.78,-240.77 569.29,-234.23"/>
</g>
<!-- Node13 -->
<g id="node13" class="node">
<title>Node13</title>
<g id="a_node13"><a xlink:href="../../dc/dad/file-watcher_8hpp.html" target="_top" xlink:title="Implements a file watcher that monitors changes to specified files or directories.">
<polygon fill="white" stroke="#666666" points="1062,-123.5 949,-123.5 949,-82.5 1062,-82.5 1062,-123.5"/>
<text text-anchor="start" x="957" y="-111.5" font-family="Helvetica,sans-Serif" font-size="10.00">third_party/mal&#45;toolkit</text>
<text text-anchor="start" x="957" y="-100.5" font-family="Helvetica,sans-Serif" font-size="10.00">/mal&#45;toolkit/mal&#45;toolkit</text>
<text text-anchor="middle" x="1005.5" y="-89.5" font-family="Helvetica,sans-Serif" font-size="10.00">/file&#45;watcher.hpp</text>
</a>
</g>
</g>
<!-- Node1&#45;&gt;Node13 -->
<g id="edge18" class="edge">
<title>Node1&#45;&gt;Node13</title>
<path fill="none" stroke="#63b8ff" d="M575.74,-258.15C631.03,-252.91 709.34,-239.61 769.5,-206 791.45,-193.73 786.91,-177.89 808.5,-165 860.71,-133.82 882.72,-147.94 940.5,-129 945.33,-127.42 950.32,-125.68 955.29,-123.89"/>
<polygon fill="#63b8ff" stroke="#63b8ff" points="575.47,-254.66 565.81,-259.01 576.08,-261.63 575.47,-254.66"/>
</g>
<!-- Node14 -->
<g id="node14" class="node">
<title>Node14</title>
<g id="a_node14"><a xlink:href="../../dd/db7/stl-helpers_8hpp.html" target="_top" xlink:title="Provides helper functions and extensions for the C++ Standard Library.">
<polygon fill="white" stroke="#666666" points="931,-206 818,-206 818,-165 931,-165 931,-206"/>
<text text-anchor="start" x="826" y="-194" font-family="Helvetica,sans-Serif" font-size="10.00">third_party/mal&#45;toolkit</text>
<text text-anchor="start" x="826" y="-183" font-family="Helvetica,sans-Serif" font-size="10.00">/mal&#45;toolkit/mal&#45;toolkit</text>
<text text-anchor="middle" x="874.5" y="-172" font-family="Helvetica,sans-Serif" font-size="10.00">/stl&#45;helpers.hpp</text>
</a>
</g>
</g>
<!-- Node1&#45;&gt;Node14 -->
<g id="edge20" class="edge">
<title>Node1&#45;&gt;Node14</title>
<path fill="none" stroke="#63b8ff" d="M575.52,-250.39C635.73,-240.17 725.84,-223.91 803.5,-206 808.11,-204.94 812.87,-203.77 817.64,-202.56"/>
<polygon fill="#63b8ff" stroke="#63b8ff" points="575.03,-246.93 565.75,-252.04 576.19,-253.83 575.03,-246.93"/>
</g>
<!-- Node15 -->
<g id="node15" class="node">
<title>Node15</title>
<g id="a_node15"><a xlink:href="../../d0/d8a/win-utils_8hpp.html" target="_top" xlink:title="Provides various Windows&#45;specific utility functions and macros.">
<polygon fill="white" stroke="#666666" points="1062,-206 949,-206 949,-165 1062,-165 1062,-206"/>
<text text-anchor="start" x="957" y="-194" font-family="Helvetica,sans-Serif" font-size="10.00">third_party/mal&#45;toolkit</text>
<text text-anchor="start" x="957" y="-183" font-family="Helvetica,sans-Serif" font-size="10.00">/mal&#45;toolkit/mal&#45;toolkit</text>
<text text-anchor="middle" x="1005.5" y="-172" font-family="Helvetica,sans-Serif" font-size="10.00">/win&#45;utils.hpp</text>
</a>
</g>
</g>
<!-- Node1&#45;&gt;Node15 -->
<g id="edge22" class="edge">
<title>Node1&#45;&gt;Node15</title>
<path fill="none" stroke="#63b8ff" d="M575.8,-256.23C661.62,-248.81 813.1,-233.08 940.5,-206 943.15,-205.44 945.85,-204.82 948.57,-204.16"/>
<polygon fill="#63b8ff" stroke="#63b8ff" points="575.57,-252.74 565.9,-257.07 576.16,-259.71 575.57,-252.74"/>
</g>
<!-- Node3&#45;&gt;Node4 -->
<g id="edge3" class="edge">
<title>Node3&#45;&gt;Node4</title>
<path fill="none" stroke="#63b8ff" d="M160.67,-78.54C162.29,-78.02 163.91,-77.51 165.5,-77 207.96,-63.52 256.17,-49.01 292.59,-38.21"/>
<polygon fill="#63b8ff" stroke="#63b8ff" points="159.69,-75.18 151.25,-81.59 161.84,-81.84 159.69,-75.18"/>
</g>
<!-- Node5&#45;&gt;Node4 -->
<g id="edge5" class="edge">
<title>Node5&#45;&gt;Node4</title>
<path fill="none" stroke="#63b8ff" d="M293.54,-74.5C305,-63.65 317.9,-51.42 328.44,-41.45"/>
<polygon fill="#63b8ff" stroke="#63b8ff" points="291.46,-71.64 286.61,-81.06 296.28,-76.73 291.46,-71.64"/>
</g>
<!-- Node6&#45;&gt;Node4 -->
<g id="edge10" class="edge">
<title>Node6&#45;&gt;Node4</title>
<path fill="none" stroke="#63b8ff" d="M395.96,-157.98C385.46,-149.94 375.39,-140.22 368.5,-129 351.83,-101.87 348.85,-64.05 348.78,-41.26"/>
<polygon fill="#63b8ff" stroke="#63b8ff" points="393.83,-160.76 404,-163.72 397.9,-155.06 393.83,-160.76"/>
</g>
<!-- Node7 -->
<g id="node7" class="node">
<title>Node7</title>
<g id="a_node7"><a xlink:href="../../da/d43/debug__with__source__location_8hpp.html" target="_top" xlink:title="This file provides utility functions for debugging and assertion handling.">
<polygon fill="white" stroke="#666666" points="507.5,-129 377.5,-129 377.5,-77 507.5,-77 507.5,-129"/>
<text text-anchor="start" x="385.5" y="-117" font-family="Helvetica,sans-Serif" font-size="10.00">third_party/mal&#45;toolkit</text>
<text text-anchor="start" x="385.5" y="-106" font-family="Helvetica,sans-Serif" font-size="10.00">/mal&#45;toolkit/mal&#45;toolkit</text>
<text text-anchor="start" x="385.5" y="-95" font-family="Helvetica,sans-Serif" font-size="10.00">/detail/debug_with_source</text>
<text text-anchor="middle" x="442.5" y="-84" font-family="Helvetica,sans-Serif" font-size="10.00">_location.hpp</text>
</a>
</g>
</g>
<!-- Node6&#45;&gt;Node7 -->
<g id="edge7" class="edge">
<title>Node6&#45;&gt;Node7</title>
<path fill="none" stroke="#63b8ff" d="M435.9,-153.2C435.63,-145.34 435.72,-136.99 436.17,-129.45"/>
<polygon fill="#63b8ff" stroke="#63b8ff" points="432.4,-153.32 436.49,-163.09 439.39,-152.9 432.4,-153.32"/>
</g>
<!-- Node8 -->
<g id="node8" class="node">
<title>Node8</title>
<g id="a_node8"><a xlink:href="../../d3/d4b/debug__without__source__location_8hpp.html" target="_top" xlink:title="Provides utility functions for debugging and assertion handling without source location information.">
<polygon fill="white" stroke="#666666" points="669,-129 526,-129 526,-77 669,-77 669,-129"/>
<text text-anchor="start" x="534" y="-117" font-family="Helvetica,sans-Serif" font-size="10.00">third_party/mal&#45;toolkit</text>
<text text-anchor="start" x="534" y="-106" font-family="Helvetica,sans-Serif" font-size="10.00">/mal&#45;toolkit/mal&#45;toolkit</text>
<text text-anchor="start" x="534" y="-95" font-family="Helvetica,sans-Serif" font-size="10.00">/detail/debug_without_source</text>
<text text-anchor="middle" x="597.5" y="-84" font-family="Helvetica,sans-Serif" font-size="10.00">_location.hpp</text>
</a>
</g>
</g>
<!-- Node6&#45;&gt;Node8 -->
<g id="edge9" class="edge">
<title>Node6&#45;&gt;Node8</title>
<path fill="none" stroke="#63b8ff" d="M490.98,-159.32C509.29,-149.81 530.13,-138.99 548.49,-129.45"/>
<polygon fill="#63b8ff" stroke="#63b8ff" points="489.42,-156.19 482.16,-163.9 492.65,-162.4 489.42,-156.19"/>
</g>
<!-- Node9 -->
<g id="node9" class="node">
<title>Node9</title>
<g id="a_node9"><a xlink:href="../../d0/db4/measurer_8hpp.html" target="_top" xlink:title="Implements performance measurement and profiling utilities.">
<polygon fill="white" stroke="#666666" points="800,-123.5 687,-123.5 687,-82.5 800,-82.5 800,-123.5"/>
<text text-anchor="start" x="695" y="-111.5" font-family="Helvetica,sans-Serif" font-size="10.00">third_party/mal&#45;toolkit</text>
<text text-anchor="start" x="695" y="-100.5" font-family="Helvetica,sans-Serif" font-size="10.00">/mal&#45;toolkit/mal&#45;toolkit</text>
<text text-anchor="middle" x="743.5" y="-89.5" font-family="Helvetica,sans-Serif" font-size="10.00">/measurer.hpp</text>
</a>
</g>
</g>
<!-- Node6&#45;&gt;Node9 -->
<g id="edge11" class="edge">
<title>Node6&#45;&gt;Node9</title>
<path fill="none" stroke="#63b8ff" d="M510.3,-164.4C584.33,-146.27 606.72,-149.77 677.5,-129 682.67,-127.48 688.02,-125.75 693.32,-123.92"/>
<polygon fill="#63b8ff" stroke="#63b8ff" points="509.81,-160.92 500.96,-166.74 511.51,-167.71 509.81,-160.92"/>
</g>
<!-- Node7&#45;&gt;Node6 -->
<g id="edge8" class="edge">
<title>Node7&#45;&gt;Node6</title>
<path fill="none" stroke="#63b8ff" d="M449.23,-140.78C449.33,-148.99 449.06,-157.39 448.42,-164.6"/>
<polygon fill="#63b8ff" stroke="#63b8ff" points="452.73,-140.84 448.88,-130.97 445.74,-141.08 452.73,-140.84"/>
</g>
<!-- Node9&#45;&gt;Node4 -->
<g id="edge12" class="edge">
<title>Node9&#45;&gt;Node4</title>
<path fill="none" stroke="#63b8ff" d="M683.16,-78.61C681.26,-78.05 679.37,-77.51 677.5,-77 584,-51.64 472.2,-35.68 406.23,-27.7"/>
<polygon fill="#63b8ff" stroke="#63b8ff" points="682.08,-81.94 692.67,-81.65 684.21,-75.27 682.08,-81.94"/>
</g>
<!-- Node11 -->
<g id="node11" class="node">
<title>Node11</title>
<g id="a_node11"><a xlink:href="../../d7/db4/uuid_8hpp.html" target="_top" xlink:title="Defines utilities for working with Universally Unique Identifiers (UUIDs).">
<polygon fill="white" stroke="#666666" points="931,-123.5 818,-123.5 818,-82.5 931,-82.5 931,-123.5"/>
<text text-anchor="start" x="826" y="-111.5" font-family="Helvetica,sans-Serif" font-size="10.00">third_party/mal&#45;toolkit</text>
<text text-anchor="start" x="826" y="-100.5" font-family="Helvetica,sans-Serif" font-size="10.00">/mal&#45;toolkit/mal&#45;toolkit</text>
<text text-anchor="middle" x="874.5" y="-89.5" font-family="Helvetica,sans-Serif" font-size="10.00">/uuid.hpp</text>
</a>
</g>
</g>
<!-- Node10&#45;&gt;Node11 -->
<g id="edge14" class="edge">
<title>Node10&#45;&gt;Node11</title>
<path fill="none" stroke="#63b8ff" d="M641.3,-164.4C715.33,-146.27 737.72,-149.77 808.5,-129 813.67,-127.48 819.02,-125.75 824.32,-123.92"/>
<polygon fill="#63b8ff" stroke="#63b8ff" points="640.81,-160.92 631.96,-166.74 642.51,-167.71 640.81,-160.92"/>
</g>
<!-- Node12&#45;&gt;Node13 -->
<g id="edge16" class="edge">
<title>Node12&#45;&gt;Node13</title>
<path fill="none" stroke="#63b8ff" d="M772.47,-165.75C773.48,-165.5 774.5,-165.25 775.5,-165 848.38,-147.05 868.6,-150.53 940.5,-129 945.6,-127.47 950.86,-125.73 956.09,-123.9"/>
<polygon fill="#63b8ff" stroke="#63b8ff" points="771.68,-162.34 762.86,-168.21 773.42,-169.12 771.68,-162.34"/>
</g>
<!-- Node13&#45;&gt;Node4 -->
<g id="edge17" class="edge">
<title>Node13&#45;&gt;Node4</title>
<path fill="none" stroke="#63b8ff" d="M947.05,-78.68C944.85,-78.07 942.66,-77.51 940.5,-77 748.11,-31.87 512.36,-23.21 406.14,-21.71"/>
<polygon fill="#63b8ff" stroke="#63b8ff" points="946.01,-82.02 956.6,-81.61 948.06,-75.33 946.01,-82.02"/>
</g>
<!-- Node14&#45;&gt;Node4 -->
<g id="edge21" class="edge">
<title>Node14&#45;&gt;Node4</title>
<path fill="none" stroke="#63b8ff" d="M942.49,-164.8C1002.68,-151.44 1036.97,-174.3 1071.5,-129 1085.51,-110.62 1087.2,-93.96 1071.5,-77 1026.63,-28.55 569,-22.24 406.42,-21.54"/>
<polygon fill="#63b8ff" stroke="#63b8ff" points="941.66,-161.4 932.83,-167.25 943.38,-168.19 941.66,-161.4"/>
</g>
</g>
</svg>
        <g id="navigator" transform="translate(0 0)" fill="#404254">
                <rect fill="#f2f5e9" fill-opacity="0.5" stroke="#606060" stroke-width=".5" x="0" y="0" width="60" height="60"/>
                <use id="zoomplus" xlink:href="#zoomPlus" x="17" y="9" onmousedown="handleZoom(evt,'in')"/>
                <use id="zoomminus" xlink:href="#zoomMin" x="42" y="9" onmousedown="handleZoom(evt,'out')"/>
                <use id="reset" xlink:href="#resetDef" x="30" y="36" onmousedown="handleReset()"/>
                <g id="arrowUp" xlink:href="#dirArrow" transform="translate(30 24)" onmousedown="handlePan(0,-1)">
                  <use xlink:href="#rim" fill="#404040">
                        <set attributeName="fill" to="#808080" begin="arrowUp.mouseover" end="arrowUp.mouseout"/>
                  </use>
                  <path fill="none" stroke="white" stroke-width="1.5" d="M0,-3.0v7 M-2.5,-0.5L0,-3.0L2.5,-0.5"/>
                </g>
                <g id="arrowRight" xlink:href="#dirArrow" transform="rotate(90) translate(36 -43)" onmousedown="handlePan(1,0)">
                  <use xlink:href="#rim" fill="#404040">
                        <set attributeName="fill" to="#808080" begin="arrowRight.mouseover" end="arrowRight.mouseout"/>
                  </use>
                  <path fill="none" stroke="white" stroke-width="1.5" d="M0,-3.0v7 M-2.5,-0.5L0,-3.0L2.5,-0.5"/>
                </g>
                <g id="arrowDown" xlink:href="#dirArrow" transform="rotate(180) translate(-30 -48)" onmousedown="handlePan(0,1)">
                  <use xlink:href="#rim" fill="#404040">
                        <set attributeName="fill" to="#808080" begin="arrowDown.mouseover" end="arrowDown.mouseout"/>
                  </use>
                  <path fill="none" stroke="white" stroke-width="1.5" d="M0,-3.0v7 M-2.5,-0.5L0,-3.0L2.5,-0.5"/>
                </g>
                <g id="arrowLeft" xlink:href="#dirArrow" transform="rotate(270) translate(-36 17)" onmousedown="handlePan(-1,0)">
                  <use xlink:href="#rim" fill="#404040">
                        <set attributeName="fill" to="#808080" begin="arrowLeft.mouseover" end="arrowLeft.mouseout"/>
                  </use>
                  <path fill="none" stroke="white" stroke-width="1.5" d="M0,-3.0v7 M-2.5,-0.5L0,-3.0L2.5,-0.5"/>
                </g>
        </g>
        <svg viewBox="0 0 15 15" width="100%" height="30px" preserveAspectRatio="xMaxYMin meet">
         <g id="arrow_out" transform="scale(0.3 0.3)">
          <a xlink:href="library-pch_8hpp__dep__incl_org.svg" target="_base">
           <rect id="button" ry="5" rx="5" y="6" x="6" height="38" width="38"
                fill="#f2f5e9" fill-opacity="0.5" stroke="#606060" stroke-width="1.0"/>
           <path id="arrow"
             d="M 11.500037,31.436501 C 11.940474,20.09759 22.043105,11.32322 32.158766,21.979434 L 37.068811,17.246167 C 37.068811,17.246167 37.088388,32 37.088388,32 L 22.160133,31.978069 C 22.160133,31.978069 26.997745,27.140456 26.997745,27.140456 C 18.528582,18.264221 13.291696,25.230495 11.500037,31.436501 z"
             style="fill:#404040;"/>
          </a>
         </g>
        </svg>
</svg>
