<?xml version="1.0" encoding="UTF-8" standalone="no"?>
<!DOCTYPE svg PUBLIC "-//W3C//DTD SVG 1.1//EN"
 "http://www.w3.org/Graphics/SVG/1.1/DTD/svg11.dtd">
<!-- Generated by graphviz version 8.1.0 (20230707.0739)
 -->
<!-- Title: third_party/mal&#45;toolkit/mal&#45;toolkit/mal&#45;toolkit/library&#45;pch.hpp Pages: 1 -->
<svg width="1272pt" height="827pt"
 viewBox="0.00 0.00 1271.50 827.25" xmlns="http://www.w3.org/2000/svg" xmlns:xlink="http://www.w3.org/1999/xlink">
<g id="graph0" class="graph" transform="scale(1 1) rotate(0) translate(4 823.25)">
<title>third_party/mal&#45;toolkit/mal&#45;toolkit/mal&#45;toolkit/library&#45;pch.hpp</title>
<!-- Node1 -->
<g id="Node000001" class="node">
<title>Node1</title>
<g id="a_Node000001"><a xlink:title="Precompiled header (PCH) file for common headers used across the library.">
<polygon fill="#999999" stroke="#666666" points="608.5,-819.25 501,-819.25 501,-777.5 608.5,-777.5 608.5,-819.25"/>
<text text-anchor="start" x="509" y="-805.75" font-family="Times,serif" font-size="10.00">third_party/mal&#45;toolkit</text>
<text text-anchor="start" x="509" y="-794.5" font-family="Times,serif" font-size="10.00">/mal&#45;toolkit/mal&#45;toolkit</text>
<text text-anchor="middle" x="554.75" y="-783.25" font-family="Times,serif" font-size="10.00">/library&#45;pch.hpp</text>
</a>
</g>
</g>
<!-- Node2 -->
<g id="Node000002" class="node">
<title>Node2</title>
<g id="a_Node000002"><a xlink:href="../../da/df5/byte-helper_8hpp.html" target="_top" xlink:title=" ">
<polygon fill="white" stroke="#666666" points="397.5,-658.12 290,-658.12 290,-616.38 397.5,-616.38 397.5,-658.12"/>
<text text-anchor="start" x="298" y="-644.62" font-family="Times,serif" font-size="10.00">third_party/mal&#45;toolkit</text>
<text text-anchor="start" x="298" y="-633.38" font-family="Times,serif" font-size="10.00">/mal&#45;toolkit/mal&#45;toolkit</text>
<text text-anchor="middle" x="343.75" y="-622.12" font-family="Times,serif" font-size="10.00">/byte&#45;helper.hpp</text>
</a>
</g>
</g>
<!-- Node1&#45;&gt;Node2 -->
<g id="edge1_Node000001_Node000002" class="edge">
<title>Node1&#45;&gt;Node2</title>
<g id="a_edge1_Node000001_Node000002"><a xlink:title=" ">
<path fill="none" stroke="#63b8ff" d="M542.43,-767.32C532.36,-745.98 516.27,-717.99 494.75,-699.75 494.22,-699.3 437.55,-676.27 393.79,-658.53"/>
<polygon fill="#63b8ff" stroke="#63b8ff" points="539.58,-768.51 546.89,-776.18 545.96,-765.63 539.58,-768.51"/>
</a>
</g>
</g>
<!-- Node3 -->
<g id="Node000003" class="node">
<title>Node3</title>
<g id="a_Node000003"><a xlink:href="../../d1/d8a/mal-toolkit_8hpp.html" target="_top" xlink:title="Main header file for the MAL Toolkit library, providing a comprehensive set of tools and utilities.">
<polygon fill="white" stroke="#666666" points="460.5,-574.75 353,-574.75 353,-533 460.5,-533 460.5,-574.75"/>
<text text-anchor="start" x="361" y="-561.25" font-family="Times,serif" font-size="10.00">third_party/mal&#45;toolkit</text>
<text text-anchor="start" x="361" y="-550" font-family="Times,serif" font-size="10.00">/mal&#45;toolkit/mal&#45;toolkit</text>
<text text-anchor="middle" x="406.75" y="-538.75" font-family="Times,serif" font-size="10.00">/mal&#45;toolkit.hpp</text>
</a>
</g>
</g>
<!-- Node1&#45;&gt;Node3 -->
<g id="edge50_Node000001_Node000003" class="edge">
<title>Node1&#45;&gt;Node3</title>
<g id="a_edge50_Node000001_Node000003"><a xlink:title=" ">
<path fill="none" stroke="#63b8ff" d="M619.52,-792.32C765.71,-778.65 1100.13,-733.34 988.75,-610.75 953.62,-572.08 598.59,-559.47 460.91,-556.02"/>
<polygon fill="#63b8ff" stroke="#63b8ff" points="619.55,-788.9 609.91,-793.29 620.19,-795.87 619.55,-788.9"/>
</a>
</g>
</g>
<!-- Node23 -->
<g id="Node000023" class="node">
<title>Node23</title>
<g id="a_Node000023"><a xlink:href="../../d4/d80/common-structures_8hpp.html" target="_top" xlink:title="Defines common data structures and types that can be used anywhere.">
<polygon fill="white" stroke="#666666" points="1137.5,-741.5 1024,-741.5 1024,-699.75 1137.5,-699.75 1137.5,-741.5"/>
<text text-anchor="start" x="1032" y="-728" font-family="Times,serif" font-size="10.00">third_party/mal&#45;toolkit</text>
<text text-anchor="start" x="1032" y="-716.75" font-family="Times,serif" font-size="10.00">/mal&#45;toolkit/mal&#45;toolkit</text>
<text text-anchor="middle" x="1080.75" y="-705.5" font-family="Times,serif" font-size="10.00">/common&#45;structures.hpp</text>
</a>
</g>
</g>
<!-- Node1&#45;&gt;Node23 -->
<g id="edge33_Node000001_Node000023" class="edge">
<title>Node1&#45;&gt;Node23</title>
<g id="a_edge33_Node000001_Node000023"><a xlink:title=" ">
<path fill="none" stroke="#63b8ff" d="M619.45,-792.52C708.12,-785.17 872.1,-769.06 1009.75,-741.5 1014.27,-740.6 1018.92,-739.55 1023.58,-738.43"/>
<polygon fill="#63b8ff" stroke="#63b8ff" points="619.43,-789.09 609.75,-793.39 620.01,-796.07 619.43,-789.09"/>
</a>
</g>
</g>
<!-- Node24 -->
<g id="Node000024" class="node">
<title>Node24</title>
<g id="a_Node000024"><a xlink:href="../../d1/d27/converter_8hpp.html" target="_top" xlink:title="Provides functions for converting between different data types.">
<polygon fill="white" stroke="#666666" points="107.5,-658.12 0,-658.12 0,-616.38 107.5,-616.38 107.5,-658.12"/>
<text text-anchor="start" x="8" y="-644.62" font-family="Times,serif" font-size="10.00">third_party/mal&#45;toolkit</text>
<text text-anchor="start" x="8" y="-633.38" font-family="Times,serif" font-size="10.00">/mal&#45;toolkit/mal&#45;toolkit</text>
<text text-anchor="middle" x="53.75" y="-622.12" font-family="Times,serif" font-size="10.00">/converter.hpp</text>
</a>
</g>
</g>
<!-- Node1&#45;&gt;Node24 -->
<g id="edge35_Node000001_Node000024" class="edge">
<title>Node1&#45;&gt;Node24</title>
<g id="a_edge35_Node000001_Node000024"><a xlink:title=" ">
<path fill="none" stroke="#63b8ff" d="M489.83,-795.68C417.41,-791.86 297.92,-779.7 202.75,-741.5 152.81,-721.45 103.1,-682.12 75.6,-658.21"/>
<polygon fill="#63b8ff" stroke="#63b8ff" points="489.44,-799.22 499.6,-796.21 489.78,-792.22 489.44,-799.22"/>
</a>
</g>
</g>
<!-- Node25 -->
<g id="Node000025" class="node">
<title>Node25</title>
<g id="a_Node000025"><a xlink:href="../../da/d7b/debug_8hpp.html" target="_top" xlink:title="Contains debugging&#45;related macros and utilities for assisting with debugging tasks.">
<polygon fill="white" stroke="#666666" points="649.5,-741.5 542,-741.5 542,-699.75 649.5,-699.75 649.5,-741.5"/>
<text text-anchor="start" x="550" y="-728" font-family="Times,serif" font-size="10.00">third_party/mal&#45;toolkit</text>
<text text-anchor="start" x="550" y="-716.75" font-family="Times,serif" font-size="10.00">/mal&#45;toolkit/mal&#45;toolkit</text>
<text text-anchor="middle" x="595.75" y="-705.5" font-family="Times,serif" font-size="10.00">/debug.hpp</text>
</a>
</g>
</g>
<!-- Node1&#45;&gt;Node25 -->
<g id="edge37_Node000001_Node000025" class="edge">
<title>Node1&#45;&gt;Node25</title>
<g id="a_edge37_Node000001_Node000025"><a xlink:title=" ">
<path fill="none" stroke="#63b8ff" d="M570.96,-767.43C575.58,-758.89 580.5,-749.8 584.73,-741.98"/>
<polygon fill="#63b8ff" stroke="#63b8ff" points="567.42,-765.61 565.74,-776.08 573.58,-768.95 567.42,-765.61"/>
</a>
</g>
</g>
<!-- Node29 -->
<g id="Node000029" class="node">
<title>Node29</title>
<g id="a_Node000029"><a xlink:href="../../d1/dcf/endianness_8hpp.html" target="_top" xlink:title="Provides functions and utilities for handling endianness conversions.">
<polygon fill="white" stroke="#666666" points="867.5,-741.5 760,-741.5 760,-699.75 867.5,-699.75 867.5,-741.5"/>
<text text-anchor="start" x="768" y="-728" font-family="Times,serif" font-size="10.00">third_party/mal&#45;toolkit</text>
<text text-anchor="start" x="768" y="-716.75" font-family="Times,serif" font-size="10.00">/mal&#45;toolkit/mal&#45;toolkit</text>
<text text-anchor="middle" x="813.75" y="-705.5" font-family="Times,serif" font-size="10.00">/detail/endianness.hpp</text>
</a>
</g>
</g>
<!-- Node1&#45;&gt;Node29 -->
<g id="edge44_Node000001_Node000029" class="edge">
<title>Node1&#45;&gt;Node29</title>
<g id="a_edge44_Node000001_Node000029"><a xlink:title=" ">
<path fill="none" stroke="#63b8ff" d="M619.16,-778.54C662.47,-765.87 718.91,-749.36 759.84,-737.39"/>
<polygon fill="#63b8ff" stroke="#63b8ff" points="618.35,-775.42 609.73,-781.59 620.31,-782.14 618.35,-775.42"/>
</a>
</g>
</g>
<!-- Node31 -->
<g id="Node000031" class="node">
<title>Node31</title>
<g id="a_Node000031"><a xlink:href="../../dc/d94/event_8hpp.html" target="_top" xlink:title="Defines event handling and notification mechanisms.">
<polygon fill="white" stroke="#666666" points="359.5,-741.5 252,-741.5 252,-699.75 359.5,-699.75 359.5,-741.5"/>
<text text-anchor="start" x="260" y="-728" font-family="Times,serif" font-size="10.00">third_party/mal&#45;toolkit</text>
<text text-anchor="start" x="260" y="-716.75" font-family="Times,serif" font-size="10.00">/mal&#45;toolkit/mal&#45;toolkit</text>
<text text-anchor="middle" x="305.75" y="-705.5" font-family="Times,serif" font-size="10.00">/event.hpp</text>
</a>
</g>
</g>
<!-- Node1&#45;&gt;Node31 -->
<g id="edge46_Node000001_Node000031" class="edge">
<title>Node1&#45;&gt;Node31</title>
<g id="a_edge46_Node000001_Node000031"><a xlink:title=" ">
<path fill="none" stroke="#63b8ff" d="M490.25,-778.24C454.43,-767.55 409.08,-753.92 368.75,-741.5 365.79,-740.59 362.75,-739.65 359.69,-738.7"/>
<polygon fill="#63b8ff" stroke="#63b8ff" points="488.98,-781.81 499.57,-781.31 490.98,-775.1 488.98,-781.81"/>
</a>
</g>
</g>
<!-- Node32 -->
<g id="Node000032" class="node">
<title>Node32</title>
<g id="a_Node000032"><a xlink:href="../../dc/dad/file-watcher_8hpp.html" target="_top" xlink:title="Implements a file watcher that monitors changes to specified files or directories.">
<polygon fill="white" stroke="#666666" points="233.5,-658.12 126,-658.12 126,-616.38 233.5,-616.38 233.5,-658.12"/>
<text text-anchor="start" x="134" y="-644.62" font-family="Times,serif" font-size="10.00">third_party/mal&#45;toolkit</text>
<text text-anchor="start" x="134" y="-633.38" font-family="Times,serif" font-size="10.00">/mal&#45;toolkit/mal&#45;toolkit</text>
<text text-anchor="middle" x="179.75" y="-622.12" font-family="Times,serif" font-size="10.00">/file&#45;watcher.hpp</text>
</a>
</g>
</g>
<!-- Node1&#45;&gt;Node32 -->
<g id="edge49_Node000001_Node000032" class="edge">
<title>Node1&#45;&gt;Node32</title>
<g id="a_edge49_Node000001_Node000032"><a xlink:title=" ">
<path fill="none" stroke="#63b8ff" d="M489.83,-792.02C410.51,-784.42 282,-768.36 242.75,-741.5 213.29,-721.34 195.17,-682.42 186.33,-658.55"/>
<polygon fill="#63b8ff" stroke="#63b8ff" points="489.4,-795.59 499.69,-793.04 490.06,-788.62 489.4,-795.59"/>
</a>
</g>
</g>
<!-- Node33 -->
<g id="Node000033" class="node">
<title>Node33</title>
<g id="a_Node000033"><a xlink:href="../../dd/db7/stl-helpers_8hpp.html" target="_top" xlink:title="Provides helper functions and extensions for the C++ Standard Library.">
<polygon fill="white" stroke="#666666" points="485.5,-741.5 378,-741.5 378,-699.75 485.5,-699.75 485.5,-741.5"/>
<text text-anchor="start" x="386" y="-728" font-family="Times,serif" font-size="10.00">third_party/mal&#45;toolkit</text>
<text text-anchor="start" x="386" y="-716.75" font-family="Times,serif" font-size="10.00">/mal&#45;toolkit/mal&#45;toolkit</text>
<text text-anchor="middle" x="431.75" y="-705.5" font-family="Times,serif" font-size="10.00">/stl&#45;helpers.hpp</text>
</a>
</g>
</g>
<!-- Node1&#45;&gt;Node33 -->
<g id="edge51_Node000001_Node000033" class="edge">
<title>Node1&#45;&gt;Node33</title>
<g id="a_edge51_Node000001_Node000033"><a xlink:title=" ">
<path fill="none" stroke="#63b8ff" d="M512.81,-771.55C497.14,-761.89 479.57,-751.07 464.8,-741.98"/>
<polygon fill="#63b8ff" stroke="#63b8ff" points="510.44,-774.81 520.79,-777.08 514.11,-768.85 510.44,-774.81"/>
</a>
</g>
</g>
<!-- Node34 -->
<g id="Node000034" class="node">
<title>Node34</title>
<g id="a_Node000034"><a xlink:href="../../d0/d8a/win-utils_8hpp.html" target="_top" xlink:title="Provides various Windows&#45;specific utility functions and macros.">
<polygon fill="white" stroke="#666666" points="1263.5,-741.5 1156,-741.5 1156,-699.75 1263.5,-699.75 1263.5,-741.5"/>
<text text-anchor="start" x="1164" y="-728" font-family="Times,serif" font-size="10.00">third_party/mal&#45;toolkit</text>
<text text-anchor="start" x="1164" y="-716.75" font-family="Times,serif" font-size="10.00">/mal&#45;toolkit/mal&#45;toolkit</text>
<text text-anchor="middle" x="1209.75" y="-705.5" font-family="Times,serif" font-size="10.00">/win&#45;utils.hpp</text>
</a>
</g>
</g>
<!-- Node1&#45;&gt;Node34 -->
<g id="edge53_Node000001_Node000034" class="edge">
<title>Node1&#45;&gt;Node34</title>
<g id="a_edge53_Node000001_Node000034"><a xlink:title=" ">
<path fill="none" stroke="#63b8ff" d="M619.64,-795.73C729.28,-791.95 957.71,-779.79 1146.75,-741.5 1149.67,-740.91 1152.65,-740.23 1155.64,-739.49"/>
<polygon fill="#63b8ff" stroke="#63b8ff" points="619.65,-792.26 609.78,-796.09 619.89,-799.26 619.65,-792.26"/>
</a>
</g>
</g>
<!-- Node2&#45;&gt;Node3 -->
<g id="edge2_Node000002_Node000003" class="edge">
<title>Node2&#45;&gt;Node3</title>
<g id="a_edge2_Node000002_Node000003"><a xlink:title=" ">
<path fill="none" stroke="#63b8ff" d="M366.02,-607.49C374.32,-596.76 383.56,-584.83 391.14,-575.04"/>
<polygon fill="#63b8ff" stroke="#63b8ff" points="362.68,-605.08 359.32,-615.13 368.21,-609.37 362.68,-605.08"/>
</a>
</g>
</g>
<!-- Node4 -->
<g id="Node000004" class="node">
<title>Node4</title>
<g id="a_Node000004"><a xlink:href="../../dd/d3a/common_8hpp.html" target="_top" xlink:title=" ">
<polygon fill="white" stroke="#666666" points="472.12,-497 341.38,-497 341.38,-466.5 472.12,-466.5 472.12,-497"/>
<text text-anchor="start" x="349.38" y="-483.5" font-family="Times,serif" font-size="10.00">mal&#45;packet&#45;weaver/mal</text>
<text text-anchor="middle" x="406.75" y="-472.25" font-family="Times,serif" font-size="10.00">&#45;packet&#45;weaver/common.hpp</text>
</a>
</g>
</g>
<!-- Node3&#45;&gt;Node4 -->
<g id="edge3_Node000003_Node000004" class="edge">
<title>Node3&#45;&gt;Node4</title>
<g id="a_edge3_Node000003_Node000004"><a xlink:title=" ">
<path fill="none" stroke="#63b8ff" d="M406.75,-521.71C406.75,-513.17 406.75,-504.31 406.75,-497.2"/>
<polygon fill="#63b8ff" stroke="#63b8ff" points="403.25,-521.59 406.75,-531.59 410.25,-521.59 403.25,-521.59"/>
</a>
</g>
</g>
<!-- Node5 -->
<g id="Node000005" class="node">
<title>Node5</title>
<g id="a_Node000005"><a xlink:href="../../d3/daa/encryption-interface_8hpp.html" target="_top" xlink:title=" ">
<polygon fill="white" stroke="#666666" points="219.38,-430.5 102.12,-430.5 102.12,-388.75 219.38,-388.75 219.38,-430.5"/>
<text text-anchor="start" x="110.12" y="-417" font-family="Times,serif" font-size="10.00">mal&#45;packet&#45;weaver/mal</text>
<text text-anchor="start" x="110.12" y="-405.75" font-family="Times,serif" font-size="10.00">&#45;packet&#45;weaver/crypto</text>
<text text-anchor="middle" x="160.75" y="-394.5" font-family="Times,serif" font-size="10.00">/encryption&#45;interface.hpp</text>
</a>
</g>
</g>
<!-- Node4&#45;&gt;Node5 -->
<g id="edge4_Node000004_Node000005" class="edge">
<title>Node4&#45;&gt;Node5</title>
<g id="a_edge4_Node000004_Node000005"><a xlink:title=" ">
<path fill="none" stroke="#63b8ff" d="M344.66,-463.05C306.29,-452.11 257.34,-438.16 219.59,-427.4"/>
<polygon fill="#63b8ff" stroke="#63b8ff" points="343.6,-466.67 354.18,-466.05 345.52,-459.94 343.6,-466.67"/>
</a>
</g>
</g>
<!-- Node12 -->
<g id="Node000012" class="node">
<title>Node12</title>
<g id="a_Node000012"><a xlink:href="../../de/d3a/crypto-common_8hpp.html" target="_top" xlink:title=" ">
<polygon fill="white" stroke="#666666" points="373.5,-430.5 242,-430.5 242,-388.75 373.5,-388.75 373.5,-430.5"/>
<text text-anchor="start" x="250" y="-417" font-family="Times,serif" font-size="10.00">mal&#45;packet&#45;weaver/mal</text>
<text text-anchor="start" x="250" y="-405.75" font-family="Times,serif" font-size="10.00">&#45;packet&#45;weaver/crypto</text>
<text text-anchor="middle" x="307.75" y="-394.5" font-family="Times,serif" font-size="10.00">/openssl/crypto&#45;common.hpp</text>
</a>
</g>
</g>
<!-- Node4&#45;&gt;Node12 -->
<g id="edge13_Node000004_Node000012" class="edge">
<title>Node4&#45;&gt;Node12</title>
<g id="a_edge13_Node000004_Node000012"><a xlink:title=" ">
<path fill="none" stroke="#63b8ff" d="M377.29,-459.89C364.4,-450.75 349.31,-440.06 336.5,-430.99"/>
<polygon fill="#63b8ff" stroke="#63b8ff" points="375.05,-463.3 385.24,-466.22 379.1,-457.58 375.05,-463.3"/>
</a>
</g>
</g>
<!-- Node15 -->
<g id="Node000015" class="node">
<title>Node15</title>
<g id="a_Node000015"><a xlink:href="../../d8/d1a/packet-dispatcher_8cpp.html" target="_top" xlink:title=" ">
<polygon fill="white" stroke="#666666" points="748.5,-119.5 641,-119.5 641,-77.75 748.5,-77.75 748.5,-119.5"/>
<text text-anchor="start" x="649" y="-106" font-family="Times,serif" font-size="10.00">mal&#45;packet&#45;weaver/mal</text>
<text text-anchor="start" x="649" y="-94.75" font-family="Times,serif" font-size="10.00">&#45;packet&#45;weaver/packet</text>
<text text-anchor="middle" x="694.75" y="-83.5" font-family="Times,serif" font-size="10.00">&#45;dispatcher.cpp</text>
</a>
</g>
</g>
<!-- Node4&#45;&gt;Node15 -->
<g id="edge20_Node000004_Node000015" class="edge">
<title>Node4&#45;&gt;Node15</title>
<g id="a_edge20_Node000004_Node000015"><a xlink:title=" ">
<path fill="none" stroke="#63b8ff" d="M483.06,-475.27C571.06,-464.31 703.75,-431.44 703.75,-332.88 703.75,-332.88 703.75,-332.88 703.75,-253.12 703.75,-205.34 699.35,-149.33 696.7,-119.96"/>
<polygon fill="#63b8ff" stroke="#63b8ff" points="482.82,-471.89 473.3,-476.53 483.63,-478.84 482.82,-471.89"/>
</a>
</g>
</g>
<!-- Node16 -->
<g id="Node000016" class="node">
<title>Node16</title>
<g id="a_Node000016"><a xlink:href="../../d3/d48/packet-impl_2packet_8hpp.html" target="_top" xlink:title=" ">
<polygon fill="white" stroke="#666666" points="546.5,-430.5 439,-430.5 439,-388.75 546.5,-388.75 546.5,-430.5"/>
<text text-anchor="start" x="447" y="-417" font-family="Times,serif" font-size="10.00">mal&#45;packet&#45;weaver/mal</text>
<text text-anchor="start" x="447" y="-405.75" font-family="Times,serif" font-size="10.00">&#45;packet&#45;weaver/packet</text>
<text text-anchor="middle" x="492.75" y="-394.5" font-family="Times,serif" font-size="10.00">&#45;impl/packet.hpp</text>
</a>
</g>
</g>
<!-- Node4&#45;&gt;Node16 -->
<g id="edge21_Node000004_Node000016" class="edge">
<title>Node4&#45;&gt;Node16</title>
<g id="a_edge21_Node000004_Node000016"><a xlink:title=" ">
<path fill="none" stroke="#63b8ff" d="M432.99,-459.35C444.05,-450.33 456.86,-439.89 467.78,-430.99"/>
<polygon fill="#63b8ff" stroke="#63b8ff" points="431.11,-457.19 425.57,-466.22 435.53,-462.61 431.11,-457.19"/>
</a>
</g>
</g>
<!-- Node19 -->
<g id="Node000019" class="node">
<title>Node19</title>
<g id="a_Node000019"><a xlink:href="../../d2/d3f/packet_8hpp.html" target="_top" xlink:title=" ">
<polygon fill="white" stroke="#666666" points="520.38,-269.38 397.12,-269.38 397.12,-238.88 520.38,-238.88 520.38,-269.38"/>
<text text-anchor="start" x="405.12" y="-255.88" font-family="Times,serif" font-size="10.00">mal&#45;packet&#45;weaver/mal</text>
<text text-anchor="middle" x="458.75" y="-244.62" font-family="Times,serif" font-size="10.00">&#45;packet&#45;weaver/packet.hpp</text>
</a>
</g>
</g>
<!-- Node4&#45;&gt;Node19 -->
<g id="edge32_Node000004_Node000019" class="edge">
<title>Node4&#45;&gt;Node19</title>
<g id="a_edge32_Node000004_Node000019"><a xlink:title=" ">
<path fill="none" stroke="#63b8ff" d="M406.31,-455.49C406.45,-421.7 409.27,-360.31 425.75,-311 430.82,-295.83 440.42,-280.29 447.96,-269.47"/>
<polygon fill="#63b8ff" stroke="#63b8ff" points="402.82,-455.25 406.36,-465.23 409.82,-455.22 402.82,-455.25"/>
</a>
</g>
</g>
<!-- Node6 -->
<g id="Node000006" class="node">
<title>Node6</title>
<g id="a_Node000006"><a xlink:href="../../d2/d62/crypto_8hpp.html" target="_top" xlink:title=" ">
<polygon fill="white" stroke="#666666" points="297.38,-191.62 174.12,-191.62 174.12,-161.12 297.38,-161.12 297.38,-191.62"/>
<text text-anchor="start" x="182.12" y="-178.12" font-family="Times,serif" font-size="10.00">mal&#45;packet&#45;weaver/mal</text>
<text text-anchor="middle" x="235.75" y="-166.88" font-family="Times,serif" font-size="10.00">&#45;packet&#45;weaver/crypto.hpp</text>
</a>
</g>
</g>
<!-- Node5&#45;&gt;Node6 -->
<g id="edge5_Node000005_Node000006" class="edge">
<title>Node5&#45;&gt;Node6</title>
<g id="a_edge5_Node000005_Node000006"><a xlink:title=" ">
<path fill="none" stroke="#63b8ff" d="M119.79,-381.41C110.88,-373.33 102.66,-363.67 97.75,-352.75 90.14,-335.83 90.51,-328.09 97.75,-311 120.84,-256.49 178.26,-213.33 211.29,-191.99"/>
<polygon fill="#63b8ff" stroke="#63b8ff" points="117.18,-384.62 127.09,-388.37 121.68,-379.26 117.18,-384.62"/>
</a>
</g>
</g>
<!-- Node11 -->
<g id="Node000011" class="node">
<title>Node11</title>
<g id="a_Node000011"><a xlink:href="../../df/d27/aes_8hpp.html" target="_top" xlink:title=" ">
<polygon fill="white" stroke="#666666" points="214.5,-352.75 107,-352.75 107,-311 214.5,-311 214.5,-352.75"/>
<text text-anchor="start" x="115" y="-339.25" font-family="Times,serif" font-size="10.00">mal&#45;packet&#45;weaver/mal</text>
<text text-anchor="start" x="115" y="-328" font-family="Times,serif" font-size="10.00">&#45;packet&#45;weaver/crypto</text>
<text text-anchor="middle" x="160.75" y="-316.75" font-family="Times,serif" font-size="10.00">/openssl/aes.hpp</text>
</a>
</g>
</g>
<!-- Node5&#45;&gt;Node11 -->
<g id="edge11_Node000005_Node000011" class="edge">
<title>Node5&#45;&gt;Node11</title>
<g id="a_edge11_Node000005_Node000011"><a xlink:title=" ">
<path fill="none" stroke="#63b8ff" d="M160.75,-377.56C160.75,-369.36 160.75,-360.71 160.75,-353.23"/>
<polygon fill="#63b8ff" stroke="#63b8ff" points="157.25,-377.33 160.75,-387.33 164.25,-377.33 157.25,-377.33"/>
</a>
</g>
</g>
<!-- Node7 -->
<g id="Node000007" class="node">
<title>Node7</title>
<g id="a_Node000007"><a xlink:href="../../d4/d5e/session_8hpp.html" target="_top" xlink:title=" ">
<polygon fill="white" stroke="#666666" points="320.12,-113.88 195.38,-113.88 195.38,-83.38 320.12,-83.38 320.12,-113.88"/>
<text text-anchor="start" x="203.38" y="-100.38" font-family="Times,serif" font-size="10.00">mal&#45;packet&#45;weaver/mal</text>
<text text-anchor="middle" x="257.75" y="-89.12" font-family="Times,serif" font-size="10.00">&#45;packet&#45;weaver/session.hpp</text>
</a>
</g>
</g>
<!-- Node6&#45;&gt;Node7 -->
<g id="edge6_Node000006_Node000007" class="edge">
<title>Node6&#45;&gt;Node7</title>
<g id="a_edge6_Node000006_Node000007"><a xlink:title=" ">
<path fill="none" stroke="#63b8ff" d="M242.99,-150.45C246.48,-138.44 250.54,-124.44 253.52,-114.19"/>
<polygon fill="#63b8ff" stroke="#63b8ff" points="239.42,-149.19 239.99,-159.77 246.14,-151.14 239.42,-149.19"/>
</a>
</g>
</g>
<!-- Node8 -->
<g id="Node000008" class="node">
<title>Node8</title>
<g id="a_Node000008"><a xlink:href="../../de/d5c/dispatcher-session_8hpp.html" target="_top" xlink:title=" ">
<polygon fill="white" stroke="#666666" points="529.62,-41.75 407.88,-41.75 407.88,0 529.62,0 529.62,-41.75"/>
<text text-anchor="start" x="415.88" y="-28.25" font-family="Times,serif" font-size="10.00">mal&#45;packet&#45;weaver/mal</text>
<text text-anchor="start" x="415.88" y="-17" font-family="Times,serif" font-size="10.00">&#45;packet&#45;weaver/dispatcher</text>
<text text-anchor="middle" x="468.75" y="-5.75" font-family="Times,serif" font-size="10.00">&#45;session.hpp</text>
</a>
</g>
</g>
<!-- Node7&#45;&gt;Node8 -->
<g id="edge7_Node000007_Node000008" class="edge">
<title>Node7&#45;&gt;Node8</title>
<g id="a_edge7_Node000007_Node000008"><a xlink:title=" ">
<path fill="none" stroke="#63b8ff" d="M308.93,-79.25C340.19,-68.03 380.2,-53.66 412.37,-42.12"/>
<polygon fill="#63b8ff" stroke="#63b8ff" points="307.91,-76.26 299.68,-82.93 310.28,-82.85 307.91,-76.26"/>
</a>
</g>
</g>
<!-- Node9 -->
<g id="Node000009" class="node">
<title>Node9</title>
<g id="a_Node000009"><a xlink:href="../../d9/d1a/session_8cpp.html" target="_top" xlink:title=" ">
<polygon fill="white" stroke="#666666" points="389.75,-36.12 265.75,-36.12 265.75,-5.62 389.75,-5.62 389.75,-36.12"/>
<text text-anchor="start" x="273.75" y="-22.62" font-family="Times,serif" font-size="10.00">mal&#45;packet&#45;weaver/mal</text>
<text text-anchor="middle" x="327.75" y="-11.38" font-family="Times,serif" font-size="10.00">&#45;packet&#45;weaver/session.cpp</text>
</a>
</g>
</g>
<!-- Node7&#45;&gt;Node9 -->
<g id="edge8_Node000007_Node000009" class="edge">
<title>Node7&#45;&gt;Node9</title>
<g id="a_edge8_Node000007_Node000009"><a xlink:title=" ">
<path fill="none" stroke="#63b8ff" d="M278.43,-75.25C290.02,-62.71 304.14,-47.43 314.29,-36.44"/>
<polygon fill="#63b8ff" stroke="#63b8ff" points="276.46,-72.3 272.25,-82.02 281.6,-77.05 276.46,-72.3"/>
</a>
</g>
</g>
<!-- Node10 -->
<g id="Node000010" class="node">
<title>Node10</title>
<g id="a_Node000010"><a xlink:href="../../d1/d16/session_8inl.html" target="_top" xlink:title=" ">
<polygon fill="white" stroke="#666666" points="247.5,-36.12 128,-36.12 128,-5.62 247.5,-5.62 247.5,-36.12"/>
<text text-anchor="start" x="136" y="-22.62" font-family="Times,serif" font-size="10.00">mal&#45;packet&#45;weaver/mal</text>
<text text-anchor="middle" x="187.75" y="-11.38" font-family="Times,serif" font-size="10.00">&#45;packet&#45;weaver/session.inl</text>
</a>
</g>
</g>
<!-- Node7&#45;&gt;Node10 -->
<g id="edge9_Node000007_Node000010" class="edge">
<title>Node7&#45;&gt;Node10</title>
<g id="a_edge9_Node000007_Node000010"><a xlink:title=" ">
<path fill="none" stroke="#63b8ff" d="M231.21,-75.6C218.62,-63 204.58,-47.53 195.75,-36.44"/>
<polygon fill="#63b8ff" stroke="#63b8ff" points="228.2,-77.53 237.8,-82.02 233.09,-72.53 228.2,-77.53"/>
</a>
</g>
</g>
<!-- Node10&#45;&gt;Node7 -->
<g id="edge10_Node000010_Node000007" class="edge">
<title>Node10&#45;&gt;Node7</title>
<g id="a_edge10_Node000010_Node000007"><a xlink:title=" ">
<path fill="none" stroke="#63b8ff" d="M214.24,-43.84C226.82,-56.44 240.87,-71.91 249.71,-83.02"/>
<polygon fill="#63b8ff" stroke="#63b8ff" points="217.26,-41.92 207.66,-37.44 212.37,-46.93 217.26,-41.92"/>
</a>
</g>
</g>
<!-- Node11&#45;&gt;Node6 -->
<g id="edge12_Node000011_Node000006" class="edge">
<title>Node11&#45;&gt;Node6</title>
<g id="a_edge12_Node000011_Node000006"><a xlink:title=" ">
<path fill="none" stroke="#63b8ff" d="M175.21,-301.28C191.23,-268.49 216.42,-216.94 228.63,-191.94"/>
<polygon fill="#63b8ff" stroke="#63b8ff" points="171.8,-299.29 170.55,-309.81 178.09,-302.36 171.8,-299.29"/>
</a>
</g>
</g>
<!-- Node12&#45;&gt;Node6 -->
<g id="edge14_Node000012_Node000006" class="edge">
<title>Node12&#45;&gt;Node6</title>
<g id="a_edge14_Node000012_Node000006"><a xlink:title=" ">
<path fill="none" stroke="#63b8ff" d="M334.68,-380.08C340.83,-371.86 346.5,-362.47 349.75,-352.75 366.57,-302.37 377.85,-278.32 349.75,-233.25 337.39,-213.42 315.72,-200.44 294.57,-192.02"/>
<polygon fill="#63b8ff" stroke="#63b8ff" points="331.45,-377.51 327.92,-387.49 336.91,-381.89 331.45,-377.51"/>
</a>
</g>
</g>
<!-- Node12&#45;&gt;Node11 -->
<g id="edge15_Node000012_Node000011" class="edge">
<title>Node12&#45;&gt;Node11</title>
<g id="a_edge15_Node000012_Node000011"><a xlink:title=" ">
<path fill="none" stroke="#63b8ff" d="M258.68,-383.34C239.68,-373.55 218.23,-362.49 200.25,-353.23"/>
<polygon fill="#63b8ff" stroke="#63b8ff" points="256.86,-386.86 267.36,-388.33 260.07,-380.63 256.86,-386.86"/>
</a>
</g>
</g>
<!-- Node13 -->
<g id="Node000013" class="node">
<title>Node13</title>
<g id="a_Node000013"><a xlink:href="../../d8/d6d/sha_8hpp.html" target="_top" xlink:title=" ">
<polygon fill="white" stroke="#666666" points="340.5,-352.75 233,-352.75 233,-311 340.5,-311 340.5,-352.75"/>
<text text-anchor="start" x="241" y="-339.25" font-family="Times,serif" font-size="10.00">mal&#45;packet&#45;weaver/mal</text>
<text text-anchor="start" x="241" y="-328" font-family="Times,serif" font-size="10.00">&#45;packet&#45;weaver/crypto</text>
<text text-anchor="middle" x="286.75" y="-316.75" font-family="Times,serif" font-size="10.00">/openssl/sha.hpp</text>
</a>
</g>
</g>
<!-- Node12&#45;&gt;Node13 -->
<g id="edge16_Node000012_Node000013" class="edge">
<title>Node12&#45;&gt;Node13</title>
<g id="a_edge16_Node000012_Node000013"><a xlink:title=" ">
<path fill="none" stroke="#63b8ff" d="M299.22,-377.84C296.92,-369.55 294.49,-360.79 292.39,-353.23"/>
<polygon fill="#63b8ff" stroke="#63b8ff" points="296.08,-378.62 302.12,-387.33 302.82,-376.75 296.08,-378.62"/>
</a>
</g>
</g>
<!-- Node13&#45;&gt;Node6 -->
<g id="edge17_Node000013_Node000006" class="edge">
<title>Node13&#45;&gt;Node6</title>
<g id="a_edge17_Node000013_Node000006"><a xlink:title=" ">
<path fill="none" stroke="#63b8ff" d="M245.79,-303.66C236.88,-295.58 228.66,-285.92 223.75,-275 211.42,-247.59 221.72,-211.73 229.36,-191.99"/>
<polygon fill="#63b8ff" stroke="#63b8ff" points="243.18,-306.87 253.09,-310.62 247.68,-301.51 243.18,-306.87"/>
</a>
</g>
</g>
<!-- Node14 -->
<g id="Node000014" class="node">
<title>Node14</title>
<g id="a_Node000014"><a xlink:href="../../d4/d28/ecdsa_8hpp.html" target="_top" xlink:title=" ">
<polygon fill="white" stroke="#666666" points="340.5,-275 233,-275 233,-233.25 340.5,-233.25 340.5,-275"/>
<text text-anchor="start" x="241" y="-261.5" font-family="Times,serif" font-size="10.00">mal&#45;packet&#45;weaver/mal</text>
<text text-anchor="start" x="241" y="-250.25" font-family="Times,serif" font-size="10.00">&#45;packet&#45;weaver/crypto</text>
<text text-anchor="middle" x="286.75" y="-239" font-family="Times,serif" font-size="10.00">/openssl/ecdsa.hpp</text>
</a>
</g>
</g>
<!-- Node13&#45;&gt;Node14 -->
<g id="edge18_Node000013_Node000014" class="edge">
<title>Node13&#45;&gt;Node14</title>
<g id="a_edge18_Node000013_Node000014"><a xlink:title=" ">
<path fill="none" stroke="#63b8ff" d="M286.75,-299.81C286.75,-291.61 286.75,-282.96 286.75,-275.48"/>
<polygon fill="#63b8ff" stroke="#63b8ff" points="283.25,-299.58 286.75,-309.58 290.25,-299.58 283.25,-299.58"/>
</a>
</g>
</g>
<!-- Node14&#45;&gt;Node6 -->
<g id="edge19_Node000014_Node000006" class="edge">
<title>Node14&#45;&gt;Node6</title>
<g id="a_edge19_Node000014_Node000006"><a xlink:title=" ">
<path fill="none" stroke="#63b8ff" d="M267.07,-223.89C259.64,-212.87 251.53,-200.81 245.41,-191.73"/>
<polygon fill="#63b8ff" stroke="#63b8ff" points="264.59,-225.48 273.08,-231.83 270.4,-221.58 264.59,-225.48"/>
</a>
</g>
</g>
<!-- Node17 -->
<g id="Node000017" class="node">
<title>Node17</title>
<g id="a_Node000017"><a xlink:href="../../d3/d53/packet-factory_8hpp.html" target="_top" xlink:title=" ">
<polygon fill="white" stroke="#666666" points="550.25,-352.75 435.25,-352.75 435.25,-311 550.25,-311 550.25,-352.75"/>
<text text-anchor="start" x="443.25" y="-339.25" font-family="Times,serif" font-size="10.00">mal&#45;packet&#45;weaver/mal</text>
<text text-anchor="start" x="443.25" y="-328" font-family="Times,serif" font-size="10.00">&#45;packet&#45;weaver/packet</text>
<text text-anchor="middle" x="492.75" y="-316.75" font-family="Times,serif" font-size="10.00">&#45;impl/packet&#45;factory.hpp</text>
</a>
</g>
</g>
<!-- Node16&#45;&gt;Node17 -->
<g id="edge22_Node000016_Node000017" class="edge">
<title>Node16&#45;&gt;Node17</title>
<g id="a_edge22_Node000016_Node000017"><a xlink:title=" ">
<path fill="none" stroke="#63b8ff" d="M492.75,-377.56C492.75,-369.36 492.75,-360.71 492.75,-353.23"/>
<polygon fill="#63b8ff" stroke="#63b8ff" points="489.25,-377.33 492.75,-387.33 496.25,-377.33 489.25,-377.33"/>
</a>
</g>
</g>
<!-- Node22 -->
<g id="Node000022" class="node">
<title>Node22</title>
<g id="a_Node000022"><a xlink:href="../../d3/dae/packet_8cpp.html" target="_top" xlink:title=" ">
<polygon fill="white" stroke="#666666" points="675.5,-352.75 568,-352.75 568,-311 675.5,-311 675.5,-352.75"/>
<text text-anchor="start" x="576" y="-339.25" font-family="Times,serif" font-size="10.00">mal&#45;packet&#45;weaver/mal</text>
<text text-anchor="start" x="576" y="-328" font-family="Times,serif" font-size="10.00">&#45;packet&#45;weaver/packet</text>
<text text-anchor="middle" x="621.75" y="-316.75" font-family="Times,serif" font-size="10.00">&#45;impl/packet.cpp</text>
</a>
</g>
</g>
<!-- Node16&#45;&gt;Node22 -->
<g id="edge31_Node000016_Node000022" class="edge">
<title>Node16&#45;&gt;Node22</title>
<g id="a_edge31_Node000016_Node000022"><a xlink:title=" ">
<path fill="none" stroke="#63b8ff" d="M536.73,-382.8C553.17,-373.14 571.6,-362.32 587.08,-353.23"/>
<polygon fill="#63b8ff" stroke="#63b8ff" points="535.17,-380.24 528.32,-388.33 538.72,-386.28 535.17,-380.24"/>
</a>
</g>
</g>
<!-- Node18 -->
<g id="Node000018" class="node">
<title>Node18</title>
<g id="a_Node000018"><a xlink:href="../../d2/db3/packet-factory_8cpp.html" target="_top" xlink:title=" ">
<polygon fill="white" stroke="#666666" points="652.88,-275 538.62,-275 538.62,-233.25 652.88,-233.25 652.88,-275"/>
<text text-anchor="start" x="546.62" y="-261.5" font-family="Times,serif" font-size="10.00">mal&#45;packet&#45;weaver/mal</text>
<text text-anchor="start" x="546.62" y="-250.25" font-family="Times,serif" font-size="10.00">&#45;packet&#45;weaver/packet</text>
<text text-anchor="middle" x="595.75" y="-239" font-family="Times,serif" font-size="10.00">&#45;impl/packet&#45;factory.cpp</text>
</a>
</g>
</g>
<!-- Node17&#45;&gt;Node18 -->
<g id="edge23_Node000017_Node000018" class="edge">
<title>Node17&#45;&gt;Node18</title>
<g id="a_edge23_Node000017_Node000018"><a xlink:title=" ">
<path fill="none" stroke="#63b8ff" d="M528.98,-304.23C541.82,-294.79 556.06,-284.32 568.07,-275.48"/>
<polygon fill="#63b8ff" stroke="#63b8ff" points="527.33,-301.83 521.35,-310.58 531.48,-307.47 527.33,-301.83"/>
</a>
</g>
</g>
<!-- Node17&#45;&gt;Node19 -->
<g id="edge24_Node000017_Node000019" class="edge">
<title>Node17&#45;&gt;Node19</title>
<g id="a_edge24_Node000017_Node000019"><a xlink:title=" ">
<path fill="none" stroke="#63b8ff" d="M479.18,-300.65C474.36,-289.89 469.14,-278.28 465.19,-269.48"/>
<polygon fill="#63b8ff" stroke="#63b8ff" points="476.35,-301.89 483.64,-309.58 482.74,-299.02 476.35,-301.89"/>
</a>
</g>
</g>
<!-- Node19&#45;&gt;Node7 -->
<g id="edge30_Node000019_Node000007" class="edge">
<title>Node19&#45;&gt;Node7</title>
<g id="a_edge30_Node000019_Node000007"><a xlink:title=" ">
<path fill="none" stroke="#63b8ff" d="M430.97,-231.91C389.56,-200.29 312.71,-141.6 276.96,-114.3"/>
<polygon fill="#63b8ff" stroke="#63b8ff" points="428.41,-235.12 438.48,-238.41 432.65,-229.56 428.41,-235.12"/>
</a>
</g>
</g>
<!-- Node20 -->
<g id="Node000020" class="node">
<title>Node20</title>
<g id="a_Node000020"><a xlink:href="../../df/d1d/packet-dispatcher_8hpp.html" target="_top" xlink:title=" ">
<polygon fill="white" stroke="#666666" points="604.5,-197.25 497,-197.25 497,-155.5 604.5,-155.5 604.5,-197.25"/>
<text text-anchor="start" x="505" y="-183.75" font-family="Times,serif" font-size="10.00">mal&#45;packet&#45;weaver/mal</text>
<text text-anchor="start" x="505" y="-172.5" font-family="Times,serif" font-size="10.00">&#45;packet&#45;weaver/packet</text>
<text text-anchor="middle" x="550.75" y="-161.25" font-family="Times,serif" font-size="10.00">&#45;dispatcher.hpp</text>
</a>
</g>
</g>
<!-- Node19&#45;&gt;Node20 -->
<g id="edge25_Node000019_Node000020" class="edge">
<title>Node19&#45;&gt;Node20</title>
<g id="a_edge25_Node000019_Node000020"><a xlink:title=" ">
<path fill="none" stroke="#63b8ff" d="M484.96,-231.54C497.89,-220.9 513.4,-208.13 526.11,-197.66"/>
<polygon fill="#63b8ff" stroke="#63b8ff" points="482.98,-229.46 477.49,-238.52 487.43,-234.87 482.98,-229.46"/>
</a>
</g>
</g>
<!-- Node20&#45;&gt;Node8 -->
<g id="edge26_Node000020_Node000008" class="edge">
<title>Node20&#45;&gt;Node8</title>
<g id="a_edge26_Node000020_Node000008"><a xlink:title=" ">
<path fill="none" stroke="#63b8ff" d="M512.25,-148.36C502.94,-140.1 493.92,-130.3 487.75,-119.5 473.88,-95.21 469.96,-62.57 468.94,-41.87"/>
<polygon fill="#63b8ff" stroke="#63b8ff" points="509.52,-151.47 519.43,-155.21 514.01,-146.11 509.52,-151.47"/>
</a>
</g>
</g>
<!-- Node20&#45;&gt;Node15 -->
<g id="edge27_Node000020_Node000015" class="edge">
<title>Node20&#45;&gt;Node15</title>
<g id="a_edge27_Node000020_Node000015"><a xlink:title=" ">
<path fill="none" stroke="#63b8ff" d="M598.82,-150.09C617.43,-140.3 638.45,-129.24 656.05,-119.98"/>
<polygon fill="#63b8ff" stroke="#63b8ff" points="597.56,-147.32 590.34,-155.08 600.82,-153.52 597.56,-147.32"/>
</a>
</g>
</g>
<!-- Node21 -->
<g id="Node000021" class="node">
<title>Node21</title>
<g id="a_Node000021"><a xlink:href="../../d2/d7d/packet-dispatcher_8inl.html" target="_top" xlink:title=" ">
<polygon fill="white" stroke="#666666" points="604.5,-119.5 497,-119.5 497,-77.75 604.5,-77.75 604.5,-119.5"/>
<text text-anchor="start" x="505" y="-106" font-family="Times,serif" font-size="10.00">mal&#45;packet&#45;weaver/mal</text>
<text text-anchor="start" x="505" y="-94.75" font-family="Times,serif" font-size="10.00">&#45;packet&#45;weaver/packet</text>
<text text-anchor="middle" x="550.75" y="-83.5" font-family="Times,serif" font-size="10.00">&#45;dispatcher.inl</text>
</a>
</g>
</g>
<!-- Node20&#45;&gt;Node21 -->
<g id="edge28_Node000020_Node000021" class="edge">
<title>Node20&#45;&gt;Node21</title>
<g id="a_edge28_Node000020_Node000021"><a xlink:title=" ">
<path fill="none" stroke="#63b8ff" d="M544.1,-144.31C543.86,-136.11 544.06,-127.46 544.69,-119.98"/>
<polygon fill="#63b8ff" stroke="#63b8ff" points="540.65,-144.28 544.69,-154.08 547.64,-143.9 540.65,-144.28"/>
</a>
</g>
</g>
<!-- Node21&#45;&gt;Node20 -->
<g id="edge29_Node000021_Node000020" class="edge">
<title>Node21&#45;&gt;Node20</title>
<g id="a_edge29_Node000021_Node000020"><a xlink:title=" ">
<path fill="none" stroke="#63b8ff" d="M557.4,-130.75C557.64,-138.96 557.44,-147.6 556.81,-155.08"/>
<polygon fill="#63b8ff" stroke="#63b8ff" points="560.86,-130.77 556.81,-120.98 553.87,-131.16 560.86,-130.77"/>
</a>
</g>
</g>
<!-- Node23&#45;&gt;Node3 -->
<g id="edge34_Node000023_Node000003" class="edge">
<title>Node23&#45;&gt;Node3</title>
<g id="a_edge34_Node000023_Node000003"><a xlink:title=" ">
<path fill="none" stroke="#63b8ff" d="M1073,-689.34C1064.78,-663.85 1049.09,-628.75 1021.75,-610.75 975.44,-580.25 602.36,-562.56 460.88,-556.89"/>
<polygon fill="#63b8ff" stroke="#63b8ff" points="1069.86,-690.03 1076.08,-698.6 1076.56,-688.02 1069.86,-690.03"/>
</a>
</g>
</g>
<!-- Node24&#45;&gt;Node3 -->
<g id="edge36_Node000024_Node000003" class="edge">
<title>Node24&#45;&gt;Node3</title>
<g id="a_edge36_Node000024_Node000003"><a xlink:title=" ">
<path fill="none" stroke="#63b8ff" d="M111.45,-612.39C113.23,-611.82 115,-611.27 116.75,-610.75 197.39,-586.91 293.72,-570.68 352.55,-562.1"/>
<polygon fill="#63b8ff" stroke="#63b8ff" points="110.54,-609.35 102.22,-615.9 112.81,-615.97 110.54,-609.35"/>
</a>
</g>
</g>
<!-- Node25&#45;&gt;Node3 -->
<g id="edge41_Node000025_Node000003" class="edge">
<title>Node25&#45;&gt;Node3</title>
<g id="a_edge41_Node000025_Node000003"><a xlink:title=" ">
<path fill="none" stroke="#63b8ff" d="M581.15,-689.8C566.95,-661.75 545.7,-622.38 532.75,-610.75 512.37,-592.44 485.01,-579.33 461,-570.44"/>
<polygon fill="#63b8ff" stroke="#63b8ff" points="578.42,-691.17 586.03,-698.55 584.68,-688.04 578.42,-691.17"/>
</a>
</g>
</g>
<!-- Node26 -->
<g id="Node000026" class="node">
<title>Node26</title>
<g id="a_Node000026"><a xlink:href="../../da/d43/debug__with__source__location_8hpp.html" target="_top" xlink:title="This file provides utility functions for debugging and assertion handling.">
<polygon fill="white" stroke="#666666" points="701.62,-663.75 579.88,-663.75 579.88,-610.75 701.62,-610.75 701.62,-663.75"/>
<text text-anchor="start" x="587.88" y="-650.25" font-family="Times,serif" font-size="10.00">third_party/mal&#45;toolkit</text>
<text text-anchor="start" x="587.88" y="-639" font-family="Times,serif" font-size="10.00">/mal&#45;toolkit/mal&#45;toolkit</text>
<text text-anchor="start" x="587.88" y="-627.75" font-family="Times,serif" font-size="10.00">/detail/debug_with_source</text>
<text text-anchor="middle" x="640.75" y="-616.5" font-family="Times,serif" font-size="10.00">_location.hpp</text>
</a>
</g>
</g>
<!-- Node25&#45;&gt;Node26 -->
<g id="edge38_Node000025_Node000026" class="edge">
<title>Node25&#45;&gt;Node26</title>
<g id="a_edge38_Node000025_Node000026"><a xlink:title=" ">
<path fill="none" stroke="#63b8ff" d="M605.78,-689.66C610.1,-681.23 615.2,-672.14 620.19,-663.98"/>
<polygon fill="#63b8ff" stroke="#63b8ff" points="602.21,-687.99 600.96,-698.51 608.5,-691.07 602.21,-687.99"/>
</a>
</g>
</g>
<!-- Node27 -->
<g id="Node000027" class="node">
<title>Node27</title>
<g id="a_Node000027"><a xlink:href="../../d3/d4b/debug__without__source__location_8hpp.html" target="_top" xlink:title="Provides utility functions for debugging and assertion handling without source location information.">
<polygon fill="white" stroke="#666666" points="854,-663.75 719.5,-663.75 719.5,-610.75 854,-610.75 854,-663.75"/>
<text text-anchor="start" x="727.5" y="-650.25" font-family="Times,serif" font-size="10.00">third_party/mal&#45;toolkit</text>
<text text-anchor="start" x="727.5" y="-639" font-family="Times,serif" font-size="10.00">/mal&#45;toolkit/mal&#45;toolkit</text>
<text text-anchor="start" x="727.5" y="-627.75" font-family="Times,serif" font-size="10.00">/detail/debug_without_source</text>
<text text-anchor="middle" x="786.75" y="-616.5" font-family="Times,serif" font-size="10.00">_location.hpp</text>
</a>
</g>
</g>
<!-- Node25&#45;&gt;Node27 -->
<g id="edge40_Node000025_Node000027" class="edge">
<title>Node25&#45;&gt;Node27</title>
<g id="a_edge40_Node000025_Node000027"><a xlink:title=" ">
<path fill="none" stroke="#63b8ff" d="M653.38,-695.07C676.31,-685.3 702.71,-674.05 725.94,-664.16"/>
<polygon fill="#63b8ff" stroke="#63b8ff" points="652.28,-692.16 644.45,-699.3 655.03,-698.6 652.28,-692.16"/>
</a>
</g>
</g>
<!-- Node28 -->
<g id="Node000028" class="node">
<title>Node28</title>
<g id="a_Node000028"><a xlink:href="../../d0/db4/measurer_8hpp.html" target="_top" xlink:title="Implements performance measurement and profiling utilities.">
<polygon fill="white" stroke="#666666" points="523.5,-658.12 416,-658.12 416,-616.38 523.5,-616.38 523.5,-658.12"/>
<text text-anchor="start" x="424" y="-644.62" font-family="Times,serif" font-size="10.00">third_party/mal&#45;toolkit</text>
<text text-anchor="start" x="424" y="-633.38" font-family="Times,serif" font-size="10.00">/mal&#45;toolkit/mal&#45;toolkit</text>
<text text-anchor="middle" x="469.75" y="-622.12" font-family="Times,serif" font-size="10.00">/measurer.hpp</text>
</a>
</g>
</g>
<!-- Node25&#45;&gt;Node28 -->
<g id="edge42_Node000025_Node000028" class="edge">
<title>Node25&#45;&gt;Node28</title>
<g id="a_edge42_Node000025_Node000028"><a xlink:title=" ">
<path fill="none" stroke="#63b8ff" d="M555.4,-693.56C537.87,-682.24 517.65,-669.18 501.26,-658.6"/>
<polygon fill="#63b8ff" stroke="#63b8ff" points="552.98,-696.82 563.28,-699.3 556.78,-690.94 552.98,-696.82"/>
</a>
</g>
</g>
<!-- Node26&#45;&gt;Node25 -->
<g id="edge39_Node000026_Node000025" class="edge">
<title>Node26&#45;&gt;Node25</title>
<g id="a_edge39_Node000026_Node000025"><a xlink:title=" ">
<path fill="none" stroke="#63b8ff" d="M627.84,-673.72C623.12,-682.55 617.79,-691.71 612.79,-699.51"/>
<polygon fill="#63b8ff" stroke="#63b8ff" points="631.38,-675.47 632.85,-664.98 625.16,-672.27 631.38,-675.47"/>
</a>
</g>
</g>
<!-- Node28&#45;&gt;Node3 -->
<g id="edge43_Node000028_Node000003" class="edge">
<title>Node28&#45;&gt;Node3</title>
<g id="a_edge43_Node000028_Node000003"><a xlink:title=" ">
<path fill="none" stroke="#63b8ff" d="M447.48,-607.49C439.18,-596.76 429.94,-584.83 422.36,-575.04"/>
<polygon fill="#63b8ff" stroke="#63b8ff" points="445.29,-609.37 454.18,-615.13 450.82,-605.08 445.29,-609.37"/>
</a>
</g>
</g>
<!-- Node30 -->
<g id="Node000030" class="node">
<title>Node30</title>
<g id="a_Node000030"><a xlink:href="../../d7/db4/uuid_8hpp.html" target="_top" xlink:title="Defines utilities for working with Universally Unique Identifiers (UUIDs).">
<polygon fill="white" stroke="#666666" points="979.5,-658.12 872,-658.12 872,-616.38 979.5,-616.38 979.5,-658.12"/>
<text text-anchor="start" x="880" y="-644.62" font-family="Times,serif" font-size="10.00">third_party/mal&#45;toolkit</text>
<text text-anchor="start" x="880" y="-633.38" font-family="Times,serif" font-size="10.00">/mal&#45;toolkit/mal&#45;toolkit</text>
<text text-anchor="middle" x="925.75" y="-622.12" font-family="Times,serif" font-size="10.00">/uuid.hpp</text>
</a>
</g>
</g>
<!-- Node29&#45;&gt;Node30 -->
<g id="edge45_Node000029_Node000030" class="edge">
<title>Node29&#45;&gt;Node30</title>
<g id="a_edge45_Node000029_Node000030"><a xlink:title=" ">
<path fill="none" stroke="#63b8ff" d="M850.48,-692.94C865.86,-681.77 883.44,-668.99 897.75,-658.6"/>
<polygon fill="#63b8ff" stroke="#63b8ff" points="848.76,-690.59 842.72,-699.3 852.87,-696.25 848.76,-690.59"/>
</a>
</g>
</g>
<!-- Node31&#45;&gt;Node32 -->
<g id="edge47_Node000031_Node000032" class="edge">
<title>Node31&#45;&gt;Node32</title>
<g id="a_edge47_Node000031_Node000032"><a xlink:title=" ">
<path fill="none" stroke="#63b8ff" d="M265.4,-693.56C247.87,-682.24 227.65,-669.18 211.26,-658.6"/>
<polygon fill="#63b8ff" stroke="#63b8ff" points="262.98,-696.82 273.28,-699.3 266.78,-690.94 262.98,-696.82"/>
</a>
</g>
</g>
<!-- Node32&#45;&gt;Node3 -->
<g id="edge48_Node000032_Node000003" class="edge">
<title>Node32&#45;&gt;Node3</title>
<g id="a_edge48_Node000032_Node000003"><a xlink:title=" ">
<path fill="none" stroke="#63b8ff" d="M243.81,-612.18C245.14,-611.7 246.45,-611.22 247.75,-610.75 282.54,-598.12 321.77,-584.32 352.56,-573.6"/>
<polygon fill="#63b8ff" stroke="#63b8ff" points="242.71,-609.23 234.53,-615.96 245.13,-615.8 242.71,-609.23"/>
</a>
</g>
</g>
<!-- Node33&#45;&gt;Node3 -->
<g id="edge52_Node000033_Node000003" class="edge">
<title>Node33&#45;&gt;Node3</title>
<g id="a_edge52_Node000033_Node000003"><a xlink:title=" ">
<path fill="none" stroke="#63b8ff" d="M367.62,-697.75C327.75,-683.84 283.52,-667.73 280.75,-663.75 267.29,-644.42 267.91,-630.5 280.75,-610.75 296.73,-586.18 326.27,-572.33 352.73,-564.56"/>
<polygon fill="#63b8ff" stroke="#63b8ff" points="366.31,-701.35 376.9,-701.32 368.6,-694.73 366.31,-701.35"/>
</a>
</g>
</g>
</g>
</svg>
