<?xml version="1.0" encoding="UTF-8" standalone="no"?>
<!DOCTYPE svg PUBLIC "-//W3C//DTD SVG 1.1//EN"
 "http://www.w3.org/Graphics/SVG/1.1/DTD/svg11.dtd">
<!-- Generated by graphviz version 7.0.5 (20221223.1930)
 -->
<!-- Title: third_party/mal&#45;toolkit/mal&#45;toolkit/library&#45;pch.hpp Pages: 1 -->
<!--zoomable 247 -->
<svg id="main" version="1.1" xmlns="http://www.w3.org/2000/svg" xmlns:xlink="http://www.w3.org/1999/xlink" xml:space="preserve" onload="init(evt)">
<style type="text/css"><![CDATA[
.edge:hover path { stroke: red; }
.edge:hover polygon { stroke: red; fill: red; }
]]></style>
<script type="text/javascript"><![CDATA[
var edges = document.getElementsByTagName('g');
if (edges && edges.length) {
  for (var i=0;i<edges.length;i++) {
    if (edges[i].id.substr(0,4)=='edge') {
      edges[i].setAttribute('class','edge');
    }
  }
}
]]></script>
        <defs>
                <circle id="rim" cx="0" cy="0" r="7"/>
                <circle id="rim2" cx="0" cy="0" r="3.5"/>
                <g id="zoomPlus">
                        <use xlink:href="#rim" fill="#404040">
                                <set attributeName="fill" to="#808080" begin="zoomplus.mouseover" end="zoomplus.mouseout"/>
                        </use>
                        <path d="M-4,0h8M0,-4v8" fill="none" stroke="white" stroke-width="1.5" pointer-events="none"/>
                </g>
                <g id="zoomMin">
                        <use xlink:href="#rim" fill="#404040">
                                <set attributeName="fill" to="#808080" begin="zoomminus.mouseover" end="zoomminus.mouseout"/>
                        </use>
                        <path d="M-4,0h8" fill="none" stroke="white" stroke-width="1.5" pointer-events="none"/>
                </g>
                <g id="dirArrow">
                        <path fill="none" stroke="white" stroke-width="1.5" d="M0,-3.0v7 M-2.5,-0.5L0,-3.0L2.5,-0.5"/>
                </g>
               <g id="resetDef">
                       <use xlink:href="#rim2" fill="#404040">
                               <set attributeName="fill" to="#808080" begin="reset.mouseover" end="reset.mouseout"/>
                       </use>
               </g>
        </defs>

<script type="text/javascript">
var viewWidth = 1176;
var viewHeight = 247;
var sectionId = 'dynsection-1';
</script>
<script xlink:href="../../svgpan.js"/>
<svg id="graph" class="graph">
<g id="viewport">
<title>third_party/mal&#45;toolkit/mal&#45;toolkit/library&#45;pch.hpp</title>
<!-- Node1 -->
<g id="node1" class="node">
<title>Node1</title>
<g id="a_node1"><a xlink:title="Precompiled header (PCH) file for common headers used across the library.">
<polygon fill="#999999" stroke="#666666" points="617.5,-239 487.5,-239 487.5,-209 617.5,-209 617.5,-239"/>
<text text-anchor="start" x="495.5" y="-227" font-family="Helvetica,sans-Serif" font-size="10.00">third_party/mal&#45;toolkit</text>
<text text-anchor="middle" x="552.5" y="-216" font-family="Helvetica,sans-Serif" font-size="10.00">/mal&#45;toolkit/library&#45;pch.hpp</text>
</a>
</g>
</g>
<!-- Node2 -->
<g id="node2" class="node">
<title>Node2</title>
<g id="a_node2"><a xlink:href="../../da/df5/byte-helper_8hpp.html" target="_top" xlink:title=" ">
<polygon fill="white" stroke="#666666" points="133,-173 0,-173 0,-143 133,-143 133,-173"/>
<text text-anchor="start" x="8" y="-161" font-family="Helvetica,sans-Serif" font-size="10.00">third_party/mal&#45;toolkit</text>
<text text-anchor="middle" x="66.5" y="-150" font-family="Helvetica,sans-Serif" font-size="10.00">/mal&#45;toolkit/byte&#45;helper.hpp</text>
</a>
</g>
</g>
<!-- Node1&#45;&gt;Node2 -->
<g id="edge1" class="edge">
<title>Node1&#45;&gt;Node2</title>
<path fill="none" stroke="#63b8ff" d="M475.98,-214.67C394.43,-205.53 261.62,-189.9 147.5,-173 142.84,-172.31 138.04,-171.57 133.2,-170.79"/>
<polygon fill="#63b8ff" stroke="#63b8ff" points="475.3,-218.11 485.63,-215.75 476.08,-211.16 475.3,-218.11"/>
</g>
<!-- Node3 -->
<g id="node3" class="node">
<title>Node3</title>
<g id="a_node3"><a xlink:href="../../d4/d80/common-structures_8hpp.html" target="_top" xlink:title="Defines common data structures and types that can be used anywhere.">
<polygon fill="white" stroke="#666666" points="171.5,-101.5 1.5,-101.5 1.5,-71.5 171.5,-71.5 171.5,-101.5"/>
<text text-anchor="start" x="9.5" y="-89.5" font-family="Helvetica,sans-Serif" font-size="10.00">third_party/mal&#45;toolkit</text>
<text text-anchor="middle" x="86.5" y="-78.5" font-family="Helvetica,sans-Serif" font-size="10.00">/mal&#45;toolkit/common&#45;structures.hpp</text>
</a>
</g>
</g>
<!-- Node1&#45;&gt;Node3 -->
<g id="edge2" class="edge">
<title>Node1&#45;&gt;Node3</title>
<path fill="none" stroke="#63b8ff" d="M475.9,-217.71C383.96,-210.47 235.86,-195.72 185.5,-173 166.46,-164.41 123.64,-124 101.07,-101.95"/>
<polygon fill="#63b8ff" stroke="#63b8ff" points="475.35,-221.18 485.6,-218.46 475.89,-214.2 475.35,-221.18"/>
</g>
<!-- Node4 -->
<g id="node4" class="node">
<title>Node4</title>
<g id="a_node4"><a xlink:href="../../d1/d08/mal__toolkit_8hpp.html" target="_top" xlink:title="Main header file for the MAL Toolkit library, providing a comprehensive set of tools and utilities.">
<polygon fill="white" stroke="#666666" points="448,-30 315,-30 315,0 448,0 448,-30"/>
<text text-anchor="start" x="323" y="-18" font-family="Helvetica,sans-Serif" font-size="10.00">third_party/mal&#45;toolkit</text>
<text text-anchor="middle" x="381.5" y="-7" font-family="Helvetica,sans-Serif" font-size="10.00">/mal&#45;toolkit/mal_toolkit.hpp</text>
</a>
</g>
</g>
<!-- Node1&#45;&gt;Node4 -->
<g id="edge19" class="edge">
<title>Node1&#45;&gt;Node4</title>
<path fill="none" stroke="#63b8ff" d="M476.09,-221.85C395.44,-215.93 272.66,-192.41 218.5,-107 208.74,-91.61 207.67,-80.65 218.5,-66 240.58,-36.13 280.19,-23.53 314.83,-18.44"/>
<polygon fill="#63b8ff" stroke="#63b8ff" points="475.46,-225.31 485.67,-222.47 475.92,-218.33 475.46,-225.31"/>
</g>
<!-- Node5 -->
<g id="node5" class="node">
<title>Node5</title>
<g id="a_node5"><a xlink:href="../../d1/d27/converter_8hpp.html" target="_top" xlink:title="Provides functions for converting between different data types.">
<polygon fill="white" stroke="#666666" points="353.5,-101.5 227.5,-101.5 227.5,-71.5 353.5,-71.5 353.5,-101.5"/>
<text text-anchor="start" x="235.5" y="-89.5" font-family="Helvetica,sans-Serif" font-size="10.00">third_party/mal&#45;toolkit</text>
<text text-anchor="middle" x="290.5" y="-78.5" font-family="Helvetica,sans-Serif" font-size="10.00">/mal&#45;toolkit/converter.hpp</text>
</a>
</g>
</g>
<!-- Node1&#45;&gt;Node5 -->
<g id="edge4" class="edge">
<title>Node1&#45;&gt;Node5</title>
<path fill="none" stroke="#63b8ff" d="M489.51,-205.03C464.28,-196.76 435.35,-185.9 410.5,-173 371,-152.49 329.76,-120.36 307.39,-101.89"/>
<polygon fill="#63b8ff" stroke="#63b8ff" points="488.41,-208.35 499,-208.07 490.55,-201.69 488.41,-208.35"/>
</g>
<!-- Node6 -->
<g id="node6" class="node">
<title>Node6</title>
<g id="a_node6"><a xlink:href="../../da/d7b/debug_8hpp.html" target="_top" xlink:title="Contains debugging&#45;related macros and utilities for assisting with debugging tasks.">
<polygon fill="white" stroke="#666666" points="531.5,-173 419.5,-173 419.5,-143 531.5,-143 531.5,-173"/>
<text text-anchor="start" x="427.5" y="-161" font-family="Helvetica,sans-Serif" font-size="10.00">third_party/mal&#45;toolkit</text>
<text text-anchor="middle" x="475.5" y="-150" font-family="Helvetica,sans-Serif" font-size="10.00">/mal&#45;toolkit/debug.hpp</text>
</a>
</g>
</g>
<!-- Node1&#45;&gt;Node6 -->
<g id="edge6" class="edge">
<title>Node1&#45;&gt;Node6</title>
<path fill="none" stroke="#63b8ff" d="M526.87,-201.7C515.68,-192.4 502.85,-181.73 492.81,-173.39"/>
<polygon fill="#63b8ff" stroke="#63b8ff" points="524.32,-204.13 534.25,-207.83 528.79,-198.75 524.32,-204.13"/>
</g>
<!-- Node10 -->
<g id="node10" class="node">
<title>Node10</title>
<g id="a_node10"><a xlink:href="../../d1/dcf/endianness_8hpp.html" target="_top" xlink:title="Provides functions and utilities for handling endianness conversions.">
<polygon fill="white" stroke="#666666" points="711,-173 550,-173 550,-143 711,-143 711,-173"/>
<text text-anchor="start" x="558" y="-161" font-family="Helvetica,sans-Serif" font-size="10.00">third_party/mal&#45;toolkit</text>
<text text-anchor="middle" x="630.5" y="-150" font-family="Helvetica,sans-Serif" font-size="10.00">/mal&#45;toolkit/detail/endianness.hpp</text>
</a>
</g>
</g>
<!-- Node1&#45;&gt;Node10 -->
<g id="edge13" class="edge">
<title>Node1&#45;&gt;Node10</title>
<path fill="none" stroke="#63b8ff" d="M578.46,-201.7C589.8,-192.4 602.8,-181.73 612.97,-173.39"/>
<polygon fill="#63b8ff" stroke="#63b8ff" points="576.49,-198.79 570.98,-207.84 580.93,-204.2 576.49,-198.79"/>
</g>
<!-- Node12 -->
<g id="node12" class="node">
<title>Node12</title>
<g id="a_node12"><a xlink:href="../../dc/d94/event_8hpp.html" target="_top" xlink:title="Defines event handling and notification mechanisms.">
<polygon fill="white" stroke="#666666" points="839.5,-173 729.5,-173 729.5,-143 839.5,-143 839.5,-173"/>
<text text-anchor="start" x="737.5" y="-161" font-family="Helvetica,sans-Serif" font-size="10.00">third_party/mal&#45;toolkit</text>
<text text-anchor="middle" x="784.5" y="-150" font-family="Helvetica,sans-Serif" font-size="10.00">/mal&#45;toolkit/event.hpp</text>
</a>
</g>
</g>
<!-- Node1&#45;&gt;Node12 -->
<g id="edge15" class="edge">
<title>Node1&#45;&gt;Node12</title>
<path fill="none" stroke="#63b8ff" d="M615.89,-205.51C652.45,-195.43 697.86,-182.9 732.34,-173.39"/>
<polygon fill="#63b8ff" stroke="#63b8ff" points="615.02,-202.12 606.31,-208.15 616.88,-208.87 615.02,-202.12"/>
</g>
<!-- Node13 -->
<g id="node13" class="node">
<title>Node13</title>
<g id="a_node13"><a xlink:href="../../dc/dad/file-watcher_8hpp.html" target="_top" xlink:title="Implements a file watcher that monitors changes to specified files or directories.">
<polygon fill="white" stroke="#666666" points="1130,-101.5 995,-101.5 995,-71.5 1130,-71.5 1130,-101.5"/>
<text text-anchor="start" x="1003" y="-89.5" font-family="Helvetica,sans-Serif" font-size="10.00">third_party/mal&#45;toolkit</text>
<text text-anchor="middle" x="1062.5" y="-78.5" font-family="Helvetica,sans-Serif" font-size="10.00">/mal&#45;toolkit/file&#45;watcher.hpp</text>
</a>
</g>
</g>
<!-- Node1&#45;&gt;Node13 -->
<g id="edge18" class="edge">
<title>Node1&#45;&gt;Node13</title>
<path fill="none" stroke="#63b8ff" d="M629,-220.48C690.6,-216.05 778.21,-204.21 848.5,-173 868.17,-164.27 867.48,-153.07 886.5,-143 908.02,-131.61 966.03,-114.18 1009.61,-101.9"/>
<polygon fill="#63b8ff" stroke="#63b8ff" points="629.06,-216.97 619.32,-221.13 629.53,-223.96 629.06,-216.97"/>
</g>
<!-- Node14 -->
<g id="node14" class="node">
<title>Node14</title>
<g id="a_node14"><a xlink:href="../../dd/db7/stl-helpers_8hpp.html" target="_top" xlink:title="Provides helper functions and extensions for the C++ Standard Library.">
<polygon fill="white" stroke="#666666" points="1027,-173 896,-173 896,-143 1027,-143 1027,-173"/>
<text text-anchor="start" x="904" y="-161" font-family="Helvetica,sans-Serif" font-size="10.00">third_party/mal&#45;toolkit</text>
<text text-anchor="middle" x="961.5" y="-150" font-family="Helvetica,sans-Serif" font-size="10.00">/mal&#45;toolkit/stl&#45;helpers.hpp</text>
</a>
</g>
</g>
<!-- Node1&#45;&gt;Node14 -->
<g id="edge20" class="edge">
<title>Node1&#45;&gt;Node14</title>
<path fill="none" stroke="#63b8ff" d="M629.04,-211.86C695.77,-202.04 795.13,-187.12 881.5,-173 886.09,-172.25 890.83,-171.46 895.6,-170.65"/>
<polygon fill="#63b8ff" stroke="#63b8ff" points="628.68,-208.38 619.3,-213.3 629.7,-215.3 628.68,-208.38"/>
</g>
<!-- Node15 -->
<g id="node15" class="node">
<title>Node15</title>
<g id="a_node15"><a xlink:href="../../d0/d8a/win-utils_8hpp.html" target="_top" xlink:title="Provides various Windows&#45;specific utility functions and macros.">
<polygon fill="white" stroke="#666666" points="1167.5,-173 1045.5,-173 1045.5,-143 1167.5,-143 1167.5,-173"/>
<text text-anchor="start" x="1053.5" y="-161" font-family="Helvetica,sans-Serif" font-size="10.00">third_party/mal&#45;toolkit</text>
<text text-anchor="middle" x="1106.5" y="-150" font-family="Helvetica,sans-Serif" font-size="10.00">/mal&#45;toolkit/win&#45;utils.hpp</text>
</a>
</g>
</g>
<!-- Node1&#45;&gt;Node15 -->
<g id="edge22" class="edge">
<title>Node1&#45;&gt;Node15</title>
<path fill="none" stroke="#63b8ff" d="M629.02,-217.34C724.67,-209.75 893.23,-194.68 1036.5,-173 1039.32,-172.57 1042.2,-172.11 1045.1,-171.62"/>
<polygon fill="#63b8ff" stroke="#63b8ff" points="628.93,-213.84 619.23,-218.11 629.48,-220.82 628.93,-213.84"/>
</g>
<!-- Node3&#45;&gt;Node4 -->
<g id="edge3" class="edge">
<title>Node3&#45;&gt;Node4</title>
<path fill="none" stroke="#63b8ff" d="M158.92,-68.44C208.38,-56.79 273.18,-41.52 320.1,-30.47"/>
<polygon fill="#63b8ff" stroke="#63b8ff" points="158.39,-64.97 149.46,-70.67 159.99,-71.78 158.39,-64.97"/>
</g>
<!-- Node5&#45;&gt;Node4 -->
<g id="edge5" class="edge">
<title>Node5&#45;&gt;Node4</title>
<path fill="none" stroke="#63b8ff" d="M318.33,-64.25C332.7,-53.27 349.86,-40.16 362.67,-30.38"/>
<polygon fill="#63b8ff" stroke="#63b8ff" points="316.38,-61.33 310.56,-70.18 320.63,-66.89 316.38,-61.33"/>
</g>
<!-- Node6&#45;&gt;Node4 -->
<g id="edge10" class="edge">
<title>Node6&#45;&gt;Node4</title>
<path fill="none" stroke="#63b8ff" d="M433.27,-136.89C421.01,-129.15 408.73,-119.17 400.5,-107 384.59,-83.47 381.58,-49.28 381.25,-30.21"/>
<polygon fill="#63b8ff" stroke="#63b8ff" points="431.31,-139.8 441.71,-141.86 434.86,-133.77 431.31,-139.8"/>
</g>
<!-- Node7 -->
<g id="node7" class="node">
<title>Node7</title>
<g id="a_node7"><a xlink:href="../../da/d43/debug__with__source__location_8hpp.html" target="_top" xlink:title="This file provides utility functions for debugging and assertion handling.">
<polygon fill="white" stroke="#666666" points="541,-107 410,-107 410,-66 541,-66 541,-107"/>
<text text-anchor="start" x="418" y="-95" font-family="Helvetica,sans-Serif" font-size="10.00">third_party/mal&#45;toolkit</text>
<text text-anchor="start" x="418" y="-84" font-family="Helvetica,sans-Serif" font-size="10.00">/mal&#45;toolkit/detail/debug</text>
<text text-anchor="middle" x="475.5" y="-73" font-family="Helvetica,sans-Serif" font-size="10.00">_with_source_location.hpp</text>
</a>
</g>
</g>
<!-- Node6&#45;&gt;Node7 -->
<g id="edge7" class="edge">
<title>Node6&#45;&gt;Node7</title>
<path fill="none" stroke="#63b8ff" d="M468.96,-131.36C468.59,-123.45 468.71,-114.87 469.33,-107.42"/>
<polygon fill="#63b8ff" stroke="#63b8ff" points="465.45,-131.42 469.78,-141.09 472.43,-130.83 465.45,-131.42"/>
</g>
<!-- Node8 -->
<g id="node8" class="node">
<title>Node8</title>
<g id="a_node8"><a xlink:href="../../d3/d4b/debug__without__source__location_8hpp.html" target="_top" xlink:title="Provides utility functions for debugging and assertion handling without source location information.">
<polygon fill="white" stroke="#666666" points="704,-107 559,-107 559,-66 704,-66 704,-107"/>
<text text-anchor="start" x="567" y="-95" font-family="Helvetica,sans-Serif" font-size="10.00">third_party/mal&#45;toolkit</text>
<text text-anchor="start" x="567" y="-84" font-family="Helvetica,sans-Serif" font-size="10.00">/mal&#45;toolkit/detail/debug</text>
<text text-anchor="middle" x="631.5" y="-73" font-family="Helvetica,sans-Serif" font-size="10.00">_without_source_location.hpp</text>
</a>
</g>
</g>
<!-- Node6&#45;&gt;Node8 -->
<g id="edge9" class="edge">
<title>Node6&#45;&gt;Node8</title>
<path fill="none" stroke="#63b8ff" d="M518.19,-137.98C539.49,-128.49 565.23,-117.02 586.8,-107.42"/>
<polygon fill="#63b8ff" stroke="#63b8ff" points="516.92,-134.72 509.21,-141.98 519.76,-141.11 516.92,-134.72"/>
</g>
<!-- Node9 -->
<g id="node9" class="node">
<title>Node9</title>
<g id="a_node9"><a xlink:href="../../d0/db4/measurer_8hpp.html" target="_top" xlink:title="Implements performance measurement and profiling utilities.">
<polygon fill="white" stroke="#666666" points="848.5,-101.5 722.5,-101.5 722.5,-71.5 848.5,-71.5 848.5,-101.5"/>
<text text-anchor="start" x="730.5" y="-89.5" font-family="Helvetica,sans-Serif" font-size="10.00">third_party/mal&#45;toolkit</text>
<text text-anchor="middle" x="785.5" y="-78.5" font-family="Helvetica,sans-Serif" font-size="10.00">/mal&#45;toolkit/measurer.hpp</text>
</a>
</g>
</g>
<!-- Node6&#45;&gt;Node9 -->
<g id="edge11" class="edge">
<title>Node6&#45;&gt;Node9</title>
<path fill="none" stroke="#63b8ff" d="M542.94,-142.5C618.77,-126.59 639.93,-124.27 712.5,-107 719.14,-105.42 726.09,-103.68 732.95,-101.9"/>
<polygon fill="#63b8ff" stroke="#63b8ff" points="542.41,-139.04 533.35,-144.53 543.85,-145.88 542.41,-139.04"/>
</g>
<!-- Node7&#45;&gt;Node6 -->
<g id="edge8" class="edge">
<title>Node7&#45;&gt;Node6</title>
<path fill="none" stroke="#63b8ff" d="M482.22,-118.79C482.36,-127.1 481.99,-135.68 481.09,-142.6"/>
<polygon fill="#63b8ff" stroke="#63b8ff" points="485.72,-118.75 481.74,-108.93 478.73,-119.08 485.72,-118.75"/>
</g>
<!-- Node9&#45;&gt;Node4 -->
<g id="edge12" class="edge">
<title>Node9&#45;&gt;Node4</title>
<path fill="none" stroke="#63b8ff" d="M723.29,-68.39C719.65,-67.54 716.03,-66.74 712.5,-66 621.75,-47.09 515.6,-32.33 448.46,-23.9"/>
<polygon fill="#63b8ff" stroke="#63b8ff" points="722.21,-71.73 732.75,-70.68 723.86,-64.92 722.21,-71.73"/>
</g>
<!-- Node11 -->
<g id="node11" class="node">
<title>Node11</title>
<g id="a_node11"><a xlink:href="../../d7/db4/uuid_8hpp.html" target="_top" xlink:title="Defines utilities for working with Universally Unique Identifiers (UUIDs).">
<polygon fill="white" stroke="#666666" points="976.5,-101.5 866.5,-101.5 866.5,-71.5 976.5,-71.5 976.5,-101.5"/>
<text text-anchor="start" x="874.5" y="-89.5" font-family="Helvetica,sans-Serif" font-size="10.00">third_party/mal&#45;toolkit</text>
<text text-anchor="middle" x="921.5" y="-78.5" font-family="Helvetica,sans-Serif" font-size="10.00">/mal&#45;toolkit/uuid.hpp</text>
</a>
</g>
</g>
<!-- Node10&#45;&gt;Node11 -->
<g id="edge14" class="edge">
<title>Node10&#45;&gt;Node11</title>
<path fill="none" stroke="#63b8ff" d="M714.45,-140.16C757.43,-131.12 810.47,-119.32 857.5,-107 863.34,-105.47 869.45,-103.76 875.48,-102"/>
<polygon fill="#63b8ff" stroke="#63b8ff" points="713.73,-136.73 704.66,-142.21 715.16,-143.59 713.73,-136.73"/>
</g>
<!-- Node12&#45;&gt;Node13 -->
<g id="edge16" class="edge">
<title>Node12&#45;&gt;Node13</title>
<path fill="none" stroke="#63b8ff" d="M850.96,-140.54C890.13,-130.82 940.65,-118.26 985.5,-107 992.05,-105.35 998.92,-103.63 1005.74,-101.9"/>
<polygon fill="#63b8ff" stroke="#63b8ff" points="850.3,-137.1 841.44,-142.9 851.99,-143.89 850.3,-137.1"/>
</g>
<!-- Node13&#45;&gt;Node4 -->
<g id="edge17" class="edge">
<title>Node13&#45;&gt;Node4</title>
<path fill="none" stroke="#63b8ff" d="M998.92,-68.53C994.39,-67.59 989.89,-66.73 985.5,-66 791.94,-33.71 559.84,-21.93 448.08,-17.91"/>
<polygon fill="#63b8ff" stroke="#63b8ff" points="998.14,-71.94 1008.66,-70.68 999.65,-65.11 998.14,-71.94"/>
</g>
<!-- Node14&#45;&gt;Node4 -->
<g id="edge21" class="edge">
<title>Node14&#45;&gt;Node4</title>
<path fill="none" stroke="#63b8ff" d="M1038.48,-139.92C1083.57,-129.13 1132.94,-115.66 1139.5,-107 1150.51,-92.48 1151.95,-79.3 1139.5,-66 1092.8,-16.12 624.92,-14.23 448.41,-15.32"/>
<polygon fill="#63b8ff" stroke="#63b8ff" points="1037.84,-136.47 1028.92,-142.18 1039.45,-143.28 1037.84,-136.47"/>
</g>
</g>
</svg>
        <g id="navigator" transform="translate(0 0)" fill="#404254">
                <rect fill="#f2f5e9" fill-opacity="0.5" stroke="#606060" stroke-width=".5" x="0" y="0" width="60" height="60"/>
                <use id="zoomplus" xlink:href="#zoomPlus" x="17" y="9" onmousedown="handleZoom(evt,'in')"/>
                <use id="zoomminus" xlink:href="#zoomMin" x="42" y="9" onmousedown="handleZoom(evt,'out')"/>
                <use id="reset" xlink:href="#resetDef" x="30" y="36" onmousedown="handleReset()"/>
                <g id="arrowUp" xlink:href="#dirArrow" transform="translate(30 24)" onmousedown="handlePan(0,-1)">
                  <use xlink:href="#rim" fill="#404040">
                        <set attributeName="fill" to="#808080" begin="arrowUp.mouseover" end="arrowUp.mouseout"/>
                  </use>
                  <path fill="none" stroke="white" stroke-width="1.5" d="M0,-3.0v7 M-2.5,-0.5L0,-3.0L2.5,-0.5"/>
                </g>
                <g id="arrowRight" xlink:href="#dirArrow" transform="rotate(90) translate(36 -43)" onmousedown="handlePan(1,0)">
                  <use xlink:href="#rim" fill="#404040">
                        <set attributeName="fill" to="#808080" begin="arrowRight.mouseover" end="arrowRight.mouseout"/>
                  </use>
                  <path fill="none" stroke="white" stroke-width="1.5" d="M0,-3.0v7 M-2.5,-0.5L0,-3.0L2.5,-0.5"/>
                </g>
                <g id="arrowDown" xlink:href="#dirArrow" transform="rotate(180) translate(-30 -48)" onmousedown="handlePan(0,1)">
                  <use xlink:href="#rim" fill="#404040">
                        <set attributeName="fill" to="#808080" begin="arrowDown.mouseover" end="arrowDown.mouseout"/>
                  </use>
                  <path fill="none" stroke="white" stroke-width="1.5" d="M0,-3.0v7 M-2.5,-0.5L0,-3.0L2.5,-0.5"/>
                </g>
                <g id="arrowLeft" xlink:href="#dirArrow" transform="rotate(270) translate(-36 17)" onmousedown="handlePan(-1,0)">
                  <use xlink:href="#rim" fill="#404040">
                        <set attributeName="fill" to="#808080" begin="arrowLeft.mouseover" end="arrowLeft.mouseout"/>
                  </use>
                  <path fill="none" stroke="white" stroke-width="1.5" d="M0,-3.0v7 M-2.5,-0.5L0,-3.0L2.5,-0.5"/>
                </g>
        </g>
        <svg viewBox="0 0 15 15" width="100%" height="30px" preserveAspectRatio="xMaxYMin meet">
         <g id="arrow_out" transform="scale(0.3 0.3)">
          <a xlink:href="library-pch_8hpp__dep__incl_org.svg" target="_base">
           <rect id="button" ry="5" rx="5" y="6" x="6" height="38" width="38"
                fill="#f2f5e9" fill-opacity="0.5" stroke="#606060" stroke-width="1.0"/>
           <path id="arrow"
             d="M 11.500037,31.436501 C 11.940474,20.09759 22.043105,11.32322 32.158766,21.979434 L 37.068811,17.246167 C 37.068811,17.246167 37.088388,32 37.088388,32 L 22.160133,31.978069 C 22.160133,31.978069 26.997745,27.140456 26.997745,27.140456 C 18.528582,18.264221 13.291696,25.230495 11.500037,31.436501 z"
             style="fill:#404040;"/>
          </a>
         </g>
        </svg>
</svg>
