<?xml version="1.0" encoding="UTF-8" standalone="no"?>
<!DOCTYPE svg PUBLIC "-//W3C//DTD SVG 1.1//EN"
 "http://www.w3.org/Graphics/SVG/1.1/DTD/svg11.dtd">
<!-- Generated by graphviz version 9.0.0 (20230911.1827)
 -->
<!-- Title: third_party/mal&#45;toolkit/mal&#45;toolkit/mal&#45;toolkit/library&#45;pch.hpp Pages: 1 -->
<svg width="1272pt" height="827pt"
 viewBox="0.00 0.00 1271.50 827.25" xmlns="http://www.w3.org/2000/svg" xmlns:xlink="http://www.w3.org/1999/xlink">
<g id="graph0" class="graph" transform="scale(1 1) rotate(0) translate(4 823.25)">
<title>third_party/mal&#45;toolkit/mal&#45;toolkit/mal&#45;toolkit/library&#45;pch.hpp</title>
<!-- Node1 -->
<g id="Node000001" class="node">
<title>Node1</title>
<g id="a_Node000001"><a xlink:title="Precompiled header (PCH) file for common headers used across the library.">
<polygon fill="#999999" stroke="#666666" points="608.5,-819.25 501,-819.25 501,-777.5 608.5,-777.5 608.5,-819.25"/>
<text text-anchor="start" x="509" y="-805.75" font-family="Times,serif" font-size="10.00">third_party/mal&#45;toolkit</text>
<text text-anchor="start" x="509" y="-794.5" font-family="Times,serif" font-size="10.00">/mal&#45;toolkit/mal&#45;toolkit</text>
<text text-anchor="middle" x="554.75" y="-783.25" font-family="Times,serif" font-size="10.00">/library&#45;pch.hpp</text>
</a>
</g>
</g>
<!-- Node2 -->
<g id="Node000002" class="node">
<title>Node2</title>
<g id="a_Node000002"><a xlink:href="../../da/df5/byte-helper_8hpp.html" target="_top" xlink:title=" ">
<polygon fill="white" stroke="#666666" points="397.5,-658.12 290,-658.12 290,-616.38 397.5,-616.38 397.5,-658.12"/>
<text text-anchor="start" x="298" y="-644.62" font-family="Times,serif" font-size="10.00">third_party/mal&#45;toolkit</text>
<text text-anchor="start" x="298" y="-633.38" font-family="Times,serif" font-size="10.00">/mal&#45;toolkit/mal&#45;toolkit</text>
<text text-anchor="middle" x="343.75" y="-622.12" font-family="Times,serif" font-size="10.00">/byte&#45;helper.hpp</text>
</a>
</g>
</g>
<!-- Node1&#45;&gt;Node2 -->
<g id="edge1_Node000001_Node000002" class="edge">
<title>Node1&#45;&gt;Node2</title>
<g id="a_edge1_Node000001_Node000002"><a xlink:title=" ">
<path fill="none" stroke="#63b8ff" d="M542.15,-766.73C532.06,-745.47 516.07,-717.83 494.75,-699.75 494.22,-699.3 437.55,-676.27 393.79,-658.53"/>
<polygon fill="#63b8ff" stroke="#63b8ff" points="538.95,-768.14 546.26,-775.81 545.32,-765.25 538.95,-768.14"/>
</a>
</g>
</g>
<!-- Node3 -->
<g id="Node000003" class="node">
<title>Node3</title>
<g id="a_Node000003"><a xlink:href="../../d1/d8a/mal-toolkit_8hpp.html" target="_top" xlink:title="Main header file for the MAL Toolkit library, providing a comprehensive set of tools and utilities.">
<polygon fill="white" stroke="#666666" points="460.5,-574.75 353,-574.75 353,-533 460.5,-533 460.5,-574.75"/>
<text text-anchor="start" x="361" y="-561.25" font-family="Times,serif" font-size="10.00">third_party/mal&#45;toolkit</text>
<text text-anchor="start" x="361" y="-550" font-family="Times,serif" font-size="10.00">/mal&#45;toolkit/mal&#45;toolkit</text>
<text text-anchor="middle" x="406.75" y="-538.75" font-family="Times,serif" font-size="10.00">/mal&#45;toolkit.hpp</text>
</a>
</g>
</g>
<!-- Node1&#45;&gt;Node3 -->
<g id="edge50_Node000001_Node000003" class="edge">
<title>Node1&#45;&gt;Node3</title>
<g id="a_edge50_Node000001_Node000003"><a xlink:title=" ">
<path fill="none" stroke="#63b8ff" d="M619.96,-792.28C766.38,-778.56 1100.02,-733.22 988.75,-610.75 953.62,-572.08 598.59,-559.47 460.91,-556.02"/>
<polygon fill="#63b8ff" stroke="#63b8ff" points="620.06,-788.76 610.42,-793.15 620.7,-795.73 620.06,-788.76"/>
</a>
</g>
</g>
<!-- Node23 -->
<g id="Node000023" class="node">
<title>Node23</title>
<g id="a_Node000023"><a xlink:href="../../d4/d80/common-structures_8hpp.html" target="_top" xlink:title="Defines common data structures and types that can be used anywhere.">
<polygon fill="white" stroke="#666666" points="1137.5,-741.5 1024,-741.5 1024,-699.75 1137.5,-699.75 1137.5,-741.5"/>
<text text-anchor="start" x="1032" y="-728" font-family="Times,serif" font-size="10.00">third_party/mal&#45;toolkit</text>
<text text-anchor="start" x="1032" y="-716.75" font-family="Times,serif" font-size="10.00">/mal&#45;toolkit/mal&#45;toolkit</text>
<text text-anchor="middle" x="1080.75" y="-705.5" font-family="Times,serif" font-size="10.00">/common&#45;structures.hpp</text>
</a>
</g>
</g>
<!-- Node1&#45;&gt;Node23 -->
<g id="edge33_Node000001_Node000023" class="edge">
<title>Node1&#45;&gt;Node23</title>
<g id="a_edge33_Node000001_Node000023"><a xlink:title=" ">
<path fill="none" stroke="#63b8ff" d="M619.99,-792.47C708.79,-785.1 872.38,-769 1009.75,-741.5 1014.27,-740.6 1018.92,-739.55 1023.58,-738.43"/>
<polygon fill="#63b8ff" stroke="#63b8ff" points="619.94,-788.97 610.26,-793.27 620.51,-795.94 619.94,-788.97"/>
</a>
</g>
</g>
<!-- Node24 -->
<g id="Node000024" class="node">
<title>Node24</title>
<g id="a_Node000024"><a xlink:href="../../d1/d27/converter_8hpp.html" target="_top" xlink:title="Provides functions for converting between different data types.">
<polygon fill="white" stroke="#666666" points="107.5,-658.12 0,-658.12 0,-616.38 107.5,-616.38 107.5,-658.12"/>
<text text-anchor="start" x="8" y="-644.62" font-family="Times,serif" font-size="10.00">third_party/mal&#45;toolkit</text>
<text text-anchor="start" x="8" y="-633.38" font-family="Times,serif" font-size="10.00">/mal&#45;toolkit/mal&#45;toolkit</text>
<text text-anchor="middle" x="53.75" y="-622.12" font-family="Times,serif" font-size="10.00">/converter.hpp</text>
</a>
</g>
</g>
<!-- Node1&#45;&gt;Node24 -->
<g id="edge35_Node000001_Node000024" class="edge">
<title>Node1&#45;&gt;Node24</title>
<g id="a_edge35_Node000001_Node000024"><a xlink:title=" ">
<path fill="none" stroke="#63b8ff" d="M489.38,-795.66C416.92,-791.81 297.73,-779.62 202.75,-741.5 152.81,-721.45 103.1,-682.12 75.6,-658.21"/>
<polygon fill="#63b8ff" stroke="#63b8ff" points="488.93,-799.14 499.09,-796.13 489.27,-792.15 488.93,-799.14"/>
</a>
</g>
</g>
<!-- Node25 -->
<g id="Node000025" class="node">
<title>Node25</title>
<g id="a_Node000025"><a xlink:href="../../da/d7b/debug_8hpp.html" target="_top" xlink:title="Contains debugging&#45;related macros and utilities for assisting with debugging tasks.">
<polygon fill="white" stroke="#666666" points="649.5,-741.5 542,-741.5 542,-699.75 649.5,-699.75 649.5,-741.5"/>
<text text-anchor="start" x="550" y="-728" font-family="Times,serif" font-size="10.00">third_party/mal&#45;toolkit</text>
<text text-anchor="start" x="550" y="-716.75" font-family="Times,serif" font-size="10.00">/mal&#45;toolkit/mal&#45;toolkit</text>
<text text-anchor="middle" x="595.75" y="-705.5" font-family="Times,serif" font-size="10.00">/debug.hpp</text>
</a>
</g>
</g>
<!-- Node1&#45;&gt;Node25 -->
<g id="edge37_Node000001_Node000025" class="edge">
<title>Node1&#45;&gt;Node25</title>
<g id="a_edge37_Node000001_Node000025"><a xlink:title=" ">
<path fill="none" stroke="#63b8ff" d="M571.11,-767.15C575.69,-758.7 580.55,-749.71 584.73,-741.98"/>
<polygon fill="#63b8ff" stroke="#63b8ff" points="568.14,-765.28 566.46,-775.74 574.3,-768.62 568.14,-765.28"/>
</a>
</g>
</g>
<!-- Node29 -->
<g id="Node000029" class="node">
<title>Node29</title>
<g id="a_Node000029"><a xlink:href="../../d1/dcf/endianness_8hpp.html" target="_top" xlink:title="Provides functions and utilities for handling endianness conversions.">
<polygon fill="white" stroke="#666666" points="867.5,-741.5 760,-741.5 760,-699.75 867.5,-699.75 867.5,-741.5"/>
<text text-anchor="start" x="768" y="-728" font-family="Times,serif" font-size="10.00">third_party/mal&#45;toolkit</text>
<text text-anchor="start" x="768" y="-716.75" font-family="Times,serif" font-size="10.00">/mal&#45;toolkit/mal&#45;toolkit</text>
<text text-anchor="middle" x="813.75" y="-705.5" font-family="Times,serif" font-size="10.00">/detail/endianness.hpp</text>
</a>
</g>
</g>
<!-- Node1&#45;&gt;Node29 -->
<g id="edge44_Node000001_Node000029" class="edge">
<title>Node1&#45;&gt;Node29</title>
<g id="a_edge44_Node000001_Node000029"><a xlink:title=" ">
<path fill="none" stroke="#63b8ff" d="M619.71,-778.38C662.95,-765.73 719.08,-749.31 759.84,-737.39"/>
<polygon fill="#63b8ff" stroke="#63b8ff" points="618.8,-775 610.18,-781.16 620.76,-781.71 618.8,-775"/>
</a>
</g>
</g>
<!-- Node31 -->
<g id="Node000031" class="node">
<title>Node31</title>
<g id="a_Node000031"><a xlink:href="../../dc/d94/event_8hpp.html" target="_top" xlink:title="Defines event handling and notification mechanisms.">
<polygon fill="white" stroke="#666666" points="359.5,-741.5 252,-741.5 252,-699.75 359.5,-699.75 359.5,-741.5"/>
<text text-anchor="start" x="260" y="-728" font-family="Times,serif" font-size="10.00">third_party/mal&#45;toolkit</text>
<text text-anchor="start" x="260" y="-716.75" font-family="Times,serif" font-size="10.00">/mal&#45;toolkit/mal&#45;toolkit</text>
<text text-anchor="middle" x="305.75" y="-705.5" font-family="Times,serif" font-size="10.00">/event.hpp</text>
</a>
</g>
</g>
<!-- Node1&#45;&gt;Node31 -->
<g id="edge46_Node000001_Node000031" class="edge">
<title>Node1&#45;&gt;Node31</title>
<g id="a_edge46_Node000001_Node000031"><a xlink:title=" ">
<path fill="none" stroke="#63b8ff" d="M489.79,-778.1C454.04,-767.43 408.9,-753.86 368.75,-741.5 365.79,-740.59 362.75,-739.65 359.69,-738.7"/>
<polygon fill="#63b8ff" stroke="#63b8ff" points="488.53,-781.38 499.12,-780.88 490.53,-774.67 488.53,-781.38"/>
</a>
</g>
</g>
<!-- Node32 -->
<g id="Node000032" class="node">
<title>Node32</title>
<g id="a_Node000032"><a xlink:href="../../dc/dad/file-watcher_8hpp.html" target="_top" xlink:title="Implements a file watcher that monitors changes to specified files or directories.">
<polygon fill="white" stroke="#666666" points="233.5,-658.12 126,-658.12 126,-616.38 233.5,-616.38 233.5,-658.12"/>
<text text-anchor="start" x="134" y="-644.62" font-family="Times,serif" font-size="10.00">third_party/mal&#45;toolkit</text>
<text text-anchor="start" x="134" y="-633.38" font-family="Times,serif" font-size="10.00">/mal&#45;toolkit/mal&#45;toolkit</text>
<text text-anchor="middle" x="179.75" y="-622.12" font-family="Times,serif" font-size="10.00">/file&#45;watcher.hpp</text>
</a>
</g>
</g>
<!-- Node1&#45;&gt;Node32 -->
<g id="edge49_Node000001_Node000032" class="edge">
<title>Node1&#45;&gt;Node32</title>
<g id="a_edge49_Node000001_Node000032"><a xlink:title=" ">
<path fill="none" stroke="#63b8ff" d="M489.35,-791.98C409.99,-784.36 281.92,-768.3 242.75,-741.5 213.29,-721.34 195.17,-682.42 186.33,-658.55"/>
<polygon fill="#63b8ff" stroke="#63b8ff" points="488.9,-795.45 499.18,-792.9 489.55,-788.48 488.9,-795.45"/>
</a>
</g>
</g>
<!-- Node33 -->
<g id="Node000033" class="node">
<title>Node33</title>
<g id="a_Node000033"><a xlink:href="../../dd/db7/stl-helpers_8hpp.html" target="_top" xlink:title="Provides helper functions and extensions for the C++ Standard Library.">
<polygon fill="white" stroke="#666666" points="485.5,-741.5 378,-741.5 378,-699.75 485.5,-699.75 485.5,-741.5"/>
<text text-anchor="start" x="386" y="-728" font-family="Times,serif" font-size="10.00">third_party/mal&#45;toolkit</text>
<text text-anchor="start" x="386" y="-716.75" font-family="Times,serif" font-size="10.00">/mal&#45;toolkit/mal&#45;toolkit</text>
<text text-anchor="middle" x="431.75" y="-705.5" font-family="Times,serif" font-size="10.00">/stl&#45;helpers.hpp</text>
</a>
</g>
</g>
<!-- Node1&#45;&gt;Node33 -->
<g id="edge51_Node000001_Node000033" class="edge">
<title>Node1&#45;&gt;Node33</title>
<g id="a_edge51_Node000001_Node000033"><a xlink:title=" ">
<path fill="none" stroke="#63b8ff" d="M512.37,-771.28C496.81,-761.69 479.43,-750.99 464.8,-741.98"/>
<polygon fill="#63b8ff" stroke="#63b8ff" points="510.15,-774.02 520.5,-776.28 513.82,-768.06 510.15,-774.02"/>
</a>
</g>
</g>
<!-- Node34 -->
<g id="Node000034" class="node">
<title>Node34</title>
<g id="a_Node000034"><a xlink:href="../../d0/d8a/win-utils_8hpp.html" target="_top" xlink:title="Provides various Windows&#45;specific utility functions and macros.">
<polygon fill="white" stroke="#666666" points="1263.5,-741.5 1156,-741.5 1156,-699.75 1263.5,-699.75 1263.5,-741.5"/>
<text text-anchor="start" x="1164" y="-728" font-family="Times,serif" font-size="10.00">third_party/mal&#45;toolkit</text>
<text text-anchor="start" x="1164" y="-716.75" font-family="Times,serif" font-size="10.00">/mal&#45;toolkit/mal&#45;toolkit</text>
<text text-anchor="middle" x="1209.75" y="-705.5" font-family="Times,serif" font-size="10.00">/win&#45;utils.hpp</text>
</a>
</g>
</g>
<!-- Node1&#45;&gt;Node34 -->
<g id="edge53_Node000001_Node000034" class="edge">
<title>Node1&#45;&gt;Node34</title>
<g id="a_edge53_Node000001_Node000034"><a xlink:title=" ">
<path fill="none" stroke="#63b8ff" d="M619.98,-795.72C729.74,-791.93 957.9,-779.75 1146.75,-741.5 1149.67,-740.91 1152.65,-740.23 1155.64,-739.49"/>
<polygon fill="#63b8ff" stroke="#63b8ff" points="620.17,-792.21 610.29,-796.04 620.4,-799.2 620.17,-792.21"/>
</a>
</g>
</g>
<!-- Node2&#45;&gt;Node3 -->
<g id="edge2_Node000002_Node000003" class="edge">
<title>Node2&#45;&gt;Node3</title>
<g id="a_edge2_Node000002_Node000003"><a xlink:title=" ">
<path fill="none" stroke="#63b8ff" d="M366.27,-607.16C374.5,-596.53 383.64,-584.73 391.14,-575.04"/>
<polygon fill="#63b8ff" stroke="#63b8ff" points="363.6,-604.89 360.25,-614.94 369.14,-609.17 363.6,-604.89"/>
</a>
</g>
</g>
<!-- Node4 -->
<g id="Node000004" class="node">
<title>Node4</title>
<g id="a_Node000004"><a xlink:href="../../dd/d3a/common_8hpp.html" target="_top" xlink:title=" ">
<polygon fill="white" stroke="#666666" points="472.12,-497 341.38,-497 341.38,-466.5 472.12,-466.5 472.12,-497"/>
<text text-anchor="start" x="349.38" y="-483.5" font-family="Times,serif" font-size="10.00">mal&#45;packet&#45;weaver/mal</text>
<text text-anchor="middle" x="406.75" y="-472.25" font-family="Times,serif" font-size="10.00">&#45;packet&#45;weaver/common.hpp</text>
</a>
</g>
</g>
<!-- Node3&#45;&gt;Node4 -->
<g id="edge3_Node000003_Node000004" class="edge">
<title>Node3&#45;&gt;Node4</title>
<g id="a_edge3_Node000003_Node000004"><a xlink:title=" ">
<path fill="none" stroke="#63b8ff" d="M406.75,-521.13C406.75,-512.77 406.75,-504.15 406.75,-497.2"/>
<polygon fill="#63b8ff" stroke="#63b8ff" points="403.25,-521.08 406.75,-531.08 410.25,-521.08 403.25,-521.08"/>
</a>
</g>
</g>
<!-- Node5 -->
<g id="Node000005" class="node">
<title>Node5</title>
<g id="a_Node000005"><a xlink:href="../../d3/daa/encryption-interface_8hpp.html" target="_top" xlink:title=" ">
<polygon fill="white" stroke="#666666" points="219.38,-430.5 102.12,-430.5 102.12,-388.75 219.38,-388.75 219.38,-430.5"/>
<text text-anchor="start" x="110.12" y="-417" font-family="Times,serif" font-size="10.00">mal&#45;packet&#45;weaver/mal</text>
<text text-anchor="start" x="110.12" y="-405.75" font-family="Times,serif" font-size="10.00">&#45;packet&#45;weaver/crypto</text>
<text text-anchor="middle" x="160.75" y="-394.5" font-family="Times,serif" font-size="10.00">/encryption&#45;interface.hpp</text>
</a>
</g>
</g>
<!-- Node4&#45;&gt;Node5 -->
<g id="edge4_Node000004_Node000005" class="edge">
<title>Node4&#45;&gt;Node5</title>
<g id="a_edge4_Node000004_Node000005"><a xlink:title=" ">
<path fill="none" stroke="#63b8ff" d="M344.16,-462.91C305.87,-451.99 257.18,-438.11 219.59,-427.4"/>
<polygon fill="#63b8ff" stroke="#63b8ff" points="343.15,-466.26 353.72,-465.63 345.07,-459.53 343.15,-466.26"/>
</a>
</g>
</g>
<!-- Node12 -->
<g id="Node000012" class="node">
<title>Node12</title>
<g id="a_Node000012"><a xlink:href="../../de/d3a/crypto-common_8hpp.html" target="_top" xlink:title=" ">
<polygon fill="white" stroke="#666666" points="373.5,-430.5 242,-430.5 242,-388.75 373.5,-388.75 373.5,-430.5"/>
<text text-anchor="start" x="250" y="-417" font-family="Times,serif" font-size="10.00">mal&#45;packet&#45;weaver/mal</text>
<text text-anchor="start" x="250" y="-405.75" font-family="Times,serif" font-size="10.00">&#45;packet&#45;weaver/crypto</text>
<text text-anchor="middle" x="307.75" y="-394.5" font-family="Times,serif" font-size="10.00">/openssl/crypto&#45;common.hpp</text>
</a>
</g>
</g>
<!-- Node4&#45;&gt;Node12 -->
<g id="edge13_Node000004_Node000012" class="edge">
<title>Node4&#45;&gt;Node12</title>
<g id="a_edge13_Node000004_Node000012"><a xlink:title=" ">
<path fill="none" stroke="#63b8ff" d="M376.92,-459.62C364.1,-450.54 349.19,-439.98 336.5,-430.99"/>
<polygon fill="#63b8ff" stroke="#63b8ff" points="374.82,-462.42 385,-465.35 378.86,-456.71 374.82,-462.42"/>
</a>
</g>
</g>
<!-- Node15 -->
<g id="Node000015" class="node">
<title>Node15</title>
<g id="a_Node000015"><a xlink:href="../../d8/d1a/packet-dispatcher_8cpp.html" target="_top" xlink:title=" ">
<polygon fill="white" stroke="#666666" points="748.5,-119.5 641,-119.5 641,-77.75 748.5,-77.75 748.5,-119.5"/>
<text text-anchor="start" x="649" y="-106" font-family="Times,serif" font-size="10.00">mal&#45;packet&#45;weaver/mal</text>
<text text-anchor="start" x="649" y="-94.75" font-family="Times,serif" font-size="10.00">&#45;packet&#45;weaver/packet</text>
<text text-anchor="middle" x="694.75" y="-83.5" font-family="Times,serif" font-size="10.00">&#45;dispatcher.cpp</text>
</a>
</g>
</g>
<!-- Node4&#45;&gt;Node15 -->
<g id="edge20_Node000004_Node000015" class="edge">
<title>Node4&#45;&gt;Node15</title>
<g id="a_edge20_Node000004_Node000015"><a xlink:title=" ">
<path fill="none" stroke="#63b8ff" d="M483.6,-475.2C571.6,-464.17 703.75,-431.24 703.75,-332.88 703.75,-332.88 703.75,-332.88 703.75,-253.12 703.75,-205.34 699.35,-149.33 696.7,-119.96"/>
<polygon fill="#63b8ff" stroke="#63b8ff" points="483.32,-471.71 473.8,-476.35 484.14,-478.66 483.32,-471.71"/>
</a>
</g>
</g>
<!-- Node16 -->
<g id="Node000016" class="node">
<title>Node16</title>
<g id="a_Node000016"><a xlink:href="../../d3/d48/packet-impl_2packet_8hpp.html" target="_top" xlink:title=" ">
<polygon fill="white" stroke="#666666" points="546.5,-430.5 439,-430.5 439,-388.75 546.5,-388.75 546.5,-430.5"/>
<text text-anchor="start" x="447" y="-417" font-family="Times,serif" font-size="10.00">mal&#45;packet&#45;weaver/mal</text>
<text text-anchor="start" x="447" y="-405.75" font-family="Times,serif" font-size="10.00">&#45;packet&#45;weaver/packet</text>
<text text-anchor="middle" x="492.75" y="-394.5" font-family="Times,serif" font-size="10.00">&#45;impl/packet.hpp</text>
</a>
</g>
</g>
<!-- Node4&#45;&gt;Node16 -->
<g id="edge21_Node000004_Node000016" class="edge">
<title>Node4&#45;&gt;Node16</title>
<g id="a_edge21_Node000004_Node000016"><a xlink:title=" ">
<path fill="none" stroke="#63b8ff" d="M433.32,-459.08C444.3,-450.13 456.97,-439.8 467.78,-430.99"/>
<polygon fill="#63b8ff" stroke="#63b8ff" points="431.28,-456.23 425.74,-465.26 435.7,-461.66 431.28,-456.23"/>
</a>
</g>
</g>
<!-- Node19 -->
<g id="Node000019" class="node">
<title>Node19</title>
<g id="a_Node000019"><a xlink:href="../../d2/d3f/packet_8hpp.html" target="_top" xlink:title=" ">
<polygon fill="white" stroke="#666666" points="520.38,-269.38 397.12,-269.38 397.12,-238.88 520.38,-238.88 520.38,-269.38"/>
<text text-anchor="start" x="405.12" y="-255.88" font-family="Times,serif" font-size="10.00">mal&#45;packet&#45;weaver/mal</text>
<text text-anchor="middle" x="458.75" y="-244.62" font-family="Times,serif" font-size="10.00">&#45;packet&#45;weaver/packet.hpp</text>
</a>
</g>
</g>
<!-- Node4&#45;&gt;Node19 -->
<g id="edge32_Node000004_Node000019" class="edge">
<title>Node4&#45;&gt;Node19</title>
<g id="a_edge32_Node000004_Node000019"><a xlink:title=" ">
<path fill="none" stroke="#63b8ff" d="M406.31,-455.05C406.48,-421.17 409.34,-360.1 425.75,-311 430.82,-295.83 440.42,-280.29 447.96,-269.47"/>
<polygon fill="#63b8ff" stroke="#63b8ff" points="402.81,-454.73 406.35,-464.72 409.81,-454.71 402.81,-454.73"/>
</a>
</g>
</g>
<!-- Node6 -->
<g id="Node000006" class="node">
<title>Node6</title>
<g id="a_Node000006"><a xlink:href="../../d2/d62/crypto_8hpp.html" target="_top" xlink:title=" ">
<polygon fill="white" stroke="#666666" points="297.38,-191.62 174.12,-191.62 174.12,-161.12 297.38,-161.12 297.38,-191.62"/>
<text text-anchor="start" x="182.12" y="-178.12" font-family="Times,serif" font-size="10.00">mal&#45;packet&#45;weaver/mal</text>
<text text-anchor="middle" x="235.75" y="-166.88" font-family="Times,serif" font-size="10.00">&#45;packet&#45;weaver/crypto.hpp</text>
</a>
</g>
</g>
<!-- Node5&#45;&gt;Node6 -->
<g id="edge5_Node000005_Node000006" class="edge">
<title>Node5&#45;&gt;Node6</title>
<g id="a_edge5_Node000005_Node000006"><a xlink:title=" ">
<path fill="none" stroke="#63b8ff" d="M119.52,-381.16C110.71,-373.13 102.61,-363.56 97.75,-352.75 90.14,-335.83 90.51,-328.09 97.75,-311 120.84,-256.49 178.26,-213.33 211.29,-191.99"/>
<polygon fill="#63b8ff" stroke="#63b8ff" points="117.03,-383.64 126.93,-387.4 121.53,-378.28 117.03,-383.64"/>
</a>
</g>
</g>
<!-- Node11 -->
<g id="Node000011" class="node">
<title>Node11</title>
<g id="a_Node000011"><a xlink:href="../../df/d27/aes_8hpp.html" target="_top" xlink:title=" ">
<polygon fill="white" stroke="#666666" points="214.5,-352.75 107,-352.75 107,-311 214.5,-311 214.5,-352.75"/>
<text text-anchor="start" x="115" y="-339.25" font-family="Times,serif" font-size="10.00">mal&#45;packet&#45;weaver/mal</text>
<text text-anchor="start" x="115" y="-328" font-family="Times,serif" font-size="10.00">&#45;packet&#45;weaver/crypto</text>
<text text-anchor="middle" x="160.75" y="-316.75" font-family="Times,serif" font-size="10.00">/openssl/aes.hpp</text>
</a>
</g>
</g>
<!-- Node5&#45;&gt;Node11 -->
<g id="edge11_Node000005_Node000011" class="edge">
<title>Node5&#45;&gt;Node11</title>
<g id="a_edge11_Node000005_Node000011"><a xlink:title=" ">
<path fill="none" stroke="#63b8ff" d="M160.75,-377C160.75,-368.96 160.75,-360.54 160.75,-353.23"/>
<polygon fill="#63b8ff" stroke="#63b8ff" points="157.25,-376.81 160.75,-386.81 164.25,-376.81 157.25,-376.81"/>
</a>
</g>
</g>
<!-- Node7 -->
<g id="Node000007" class="node">
<title>Node7</title>
<g id="a_Node000007"><a xlink:href="../../d4/d5e/session_8hpp.html" target="_top" xlink:title=" ">
<polygon fill="white" stroke="#666666" points="320.12,-113.88 195.38,-113.88 195.38,-83.38 320.12,-83.38 320.12,-113.88"/>
<text text-anchor="start" x="203.38" y="-100.38" font-family="Times,serif" font-size="10.00">mal&#45;packet&#45;weaver/mal</text>
<text text-anchor="middle" x="257.75" y="-89.12" font-family="Times,serif" font-size="10.00">&#45;packet&#45;weaver/session.hpp</text>
</a>
</g>
</g>
<!-- Node6&#45;&gt;Node7 -->
<g id="edge6_Node000006_Node000007" class="edge">
<title>Node6&#45;&gt;Node7</title>
<g id="a_edge6_Node000006_Node000007"><a xlink:title=" ">
<path fill="none" stroke="#63b8ff" d="M243.2,-149.72C246.64,-137.87 250.6,-124.24 253.52,-114.19"/>
<polygon fill="#63b8ff" stroke="#63b8ff" points="239.84,-148.74 240.41,-159.32 246.56,-150.69 239.84,-148.74"/>
</a>
</g>
</g>
<!-- Node8 -->
<g id="Node000008" class="node">
<title>Node8</title>
<g id="a_Node000008"><a xlink:href="../../de/d5c/dispatcher-session_8hpp.html" target="_top" xlink:title=" ">
<polygon fill="white" stroke="#666666" points="529.62,-41.75 407.88,-41.75 407.88,0 529.62,0 529.62,-41.75"/>
<text text-anchor="start" x="415.88" y="-28.25" font-family="Times,serif" font-size="10.00">mal&#45;packet&#45;weaver/mal</text>
<text text-anchor="start" x="415.88" y="-17" font-family="Times,serif" font-size="10.00">&#45;packet&#45;weaver/dispatcher</text>
<text text-anchor="middle" x="468.75" y="-5.75" font-family="Times,serif" font-size="10.00">&#45;session.hpp</text>
</a>
</g>
</g>
<!-- Node7&#45;&gt;Node8 -->
<g id="edge7_Node000007_Node000008" class="edge">
<title>Node7&#45;&gt;Node8</title>
<g id="a_edge7_Node000007_Node000008"><a xlink:title=" ">
<path fill="none" stroke="#63b8ff" d="M309.33,-79.11C340.54,-67.9 380.34,-53.61 412.37,-42.12"/>
<polygon fill="#63b8ff" stroke="#63b8ff" points="308.34,-75.75 300.11,-82.42 310.7,-82.33 308.34,-75.75"/>
</a>
</g>
</g>
<!-- Node9 -->
<g id="Node000009" class="node">
<title>Node9</title>
<g id="a_Node000009"><a xlink:href="../../d9/d1a/session_8cpp.html" target="_top" xlink:title=" ">
<polygon fill="white" stroke="#666666" points="389.75,-36.12 265.75,-36.12 265.75,-5.62 389.75,-5.62 389.75,-36.12"/>
<text text-anchor="start" x="273.75" y="-22.62" font-family="Times,serif" font-size="10.00">mal&#45;packet&#45;weaver/mal</text>
<text text-anchor="middle" x="327.75" y="-11.38" font-family="Times,serif" font-size="10.00">&#45;packet&#45;weaver/session.cpp</text>
</a>
</g>
</g>
<!-- Node7&#45;&gt;Node9 -->
<g id="edge8_Node000007_Node000009" class="edge">
<title>Node7&#45;&gt;Node9</title>
<g id="a_edge8_Node000007_Node000009"><a xlink:title=" ">
<path fill="none" stroke="#63b8ff" d="M278.76,-74.89C290.29,-62.42 304.23,-47.32 314.29,-36.44"/>
<polygon fill="#63b8ff" stroke="#63b8ff" points="276.49,-72.19 272.27,-81.91 281.63,-76.94 276.49,-72.19"/>
</a>
</g>
</g>
<!-- Node10 -->
<g id="Node000010" class="node">
<title>Node10</title>
<g id="a_Node000010"><a xlink:href="../../d1/d16/session_8inl.html" target="_top" xlink:title=" ">
<polygon fill="white" stroke="#666666" points="247.5,-36.12 128,-36.12 128,-5.62 247.5,-5.62 247.5,-36.12"/>
<text text-anchor="start" x="136" y="-22.62" font-family="Times,serif" font-size="10.00">mal&#45;packet&#45;weaver/mal</text>
<text text-anchor="middle" x="187.75" y="-11.38" font-family="Times,serif" font-size="10.00">&#45;packet&#45;weaver/session.inl</text>
</a>
</g>
</g>
<!-- Node7&#45;&gt;Node10 -->
<g id="edge9_Node000007_Node000010" class="edge">
<title>Node7&#45;&gt;Node10</title>
<g id="a_edge9_Node000007_Node000010"><a xlink:title=" ">
<path fill="none" stroke="#63b8ff" d="M230.85,-75.25C218.36,-62.71 204.49,-47.43 195.75,-36.44"/>
<polygon fill="#63b8ff" stroke="#63b8ff" points="228.12,-77.47 237.71,-81.96 233.01,-72.47 228.12,-77.47"/>
</a>
</g>
</g>
<!-- Node10&#45;&gt;Node7 -->
<g id="edge10_Node000010_Node000007" class="edge">
<title>Node10&#45;&gt;Node7</title>
<g id="a_edge10_Node000010_Node000007"><a xlink:title=" ">
<path fill="none" stroke="#63b8ff" d="M214.6,-44.2C227.09,-56.73 240.96,-72.02 249.71,-83.02"/>
<polygon fill="#63b8ff" stroke="#63b8ff" points="217.34,-41.98 207.74,-37.49 212.44,-46.99 217.34,-41.98"/>
</a>
</g>
</g>
<!-- Node11&#45;&gt;Node6 -->
<g id="edge12_Node000011_Node000006" class="edge">
<title>Node11&#45;&gt;Node6</title>
<g id="a_edge12_Node000011_Node000006"><a xlink:title=" ">
<path fill="none" stroke="#63b8ff" d="M175.42,-300.86C191.45,-268.05 216.47,-216.83 228.63,-191.94"/>
<polygon fill="#63b8ff" stroke="#63b8ff" points="172.46,-298.93 171.22,-309.45 178.75,-302 172.46,-298.93"/>
</a>
</g>
</g>
<!-- Node12&#45;&gt;Node6 -->
<g id="edge14_Node000012_Node000006" class="edge">
<title>Node12&#45;&gt;Node6</title>
<g id="a_edge14_Node000012_Node000006"><a xlink:title=" ">
<path fill="none" stroke="#63b8ff" d="M335.07,-379.55C341.07,-371.46 346.57,-362.26 349.75,-352.75 366.57,-302.37 377.85,-278.32 349.75,-233.25 337.39,-213.42 315.72,-200.44 294.57,-192.02"/>
<polygon fill="#63b8ff" stroke="#63b8ff" points="332.38,-377.32 328.86,-387.31 337.84,-381.69 332.38,-377.32"/>
</a>
</g>
</g>
<!-- Node12&#45;&gt;Node11 -->
<g id="edge15_Node000012_Node000011" class="edge">
<title>Node12&#45;&gt;Node11</title>
<g id="a_edge15_Node000012_Node000011"><a xlink:title=" ">
<path fill="none" stroke="#63b8ff" d="M258.15,-383.07C239.29,-373.35 218.06,-362.41 200.25,-353.23"/>
<polygon fill="#63b8ff" stroke="#63b8ff" points="256.52,-386.16 267.01,-387.63 259.73,-379.94 256.52,-386.16"/>
</a>
</g>
</g>
<!-- Node13 -->
<g id="Node000013" class="node">
<title>Node13</title>
<g id="a_Node000013"><a xlink:href="../../d8/d6d/sha_8hpp.html" target="_top" xlink:title=" ">
<polygon fill="white" stroke="#666666" points="340.5,-352.75 233,-352.75 233,-311 340.5,-311 340.5,-352.75"/>
<text text-anchor="start" x="241" y="-339.25" font-family="Times,serif" font-size="10.00">mal&#45;packet&#45;weaver/mal</text>
<text text-anchor="start" x="241" y="-328" font-family="Times,serif" font-size="10.00">&#45;packet&#45;weaver/crypto</text>
<text text-anchor="middle" x="286.75" y="-316.75" font-family="Times,serif" font-size="10.00">/openssl/sha.hpp</text>
</a>
</g>
</g>
<!-- Node12&#45;&gt;Node13 -->
<g id="edge16_Node000012_Node000013" class="edge">
<title>Node12&#45;&gt;Node13</title>
<g id="a_edge16_Node000012_Node000013"><a xlink:title=" ">
<path fill="none" stroke="#63b8ff" d="M299.06,-377.28C296.81,-369.16 294.44,-360.62 292.39,-353.23"/>
<polygon fill="#63b8ff" stroke="#63b8ff" points="295.67,-378.17 301.72,-386.87 302.42,-376.3 295.67,-378.17"/>
</a>
</g>
</g>
<!-- Node13&#45;&gt;Node6 -->
<g id="edge17_Node000013_Node000006" class="edge">
<title>Node13&#45;&gt;Node6</title>
<g id="a_edge17_Node000013_Node000006"><a xlink:title=" ">
<path fill="none" stroke="#63b8ff" d="M245.52,-303.41C236.71,-295.38 228.61,-285.81 223.75,-275 211.42,-247.59 221.72,-211.73 229.36,-191.99"/>
<polygon fill="#63b8ff" stroke="#63b8ff" points="243.03,-305.89 252.93,-309.65 247.53,-300.53 243.03,-305.89"/>
</a>
</g>
</g>
<!-- Node14 -->
<g id="Node000014" class="node">
<title>Node14</title>
<g id="a_Node000014"><a xlink:href="../../d4/d28/ecdsa_8hpp.html" target="_top" xlink:title=" ">
<polygon fill="white" stroke="#666666" points="340.5,-275 233,-275 233,-233.25 340.5,-233.25 340.5,-275"/>
<text text-anchor="start" x="241" y="-261.5" font-family="Times,serif" font-size="10.00">mal&#45;packet&#45;weaver/mal</text>
<text text-anchor="start" x="241" y="-250.25" font-family="Times,serif" font-size="10.00">&#45;packet&#45;weaver/crypto</text>
<text text-anchor="middle" x="286.75" y="-239" font-family="Times,serif" font-size="10.00">/openssl/ecdsa.hpp</text>
</a>
</g>
</g>
<!-- Node13&#45;&gt;Node14 -->
<g id="edge18_Node000013_Node000014" class="edge">
<title>Node13&#45;&gt;Node14</title>
<g id="a_edge18_Node000013_Node000014"><a xlink:title=" ">
<path fill="none" stroke="#63b8ff" d="M286.75,-299.25C286.75,-291.21 286.75,-282.79 286.75,-275.48"/>
<polygon fill="#63b8ff" stroke="#63b8ff" points="283.25,-299.06 286.75,-309.06 290.25,-299.06 283.25,-299.06"/>
</a>
</g>
</g>
<!-- Node14&#45;&gt;Node6 -->
<g id="edge19_Node000014_Node000006" class="edge">
<title>Node14&#45;&gt;Node6</title>
<g id="a_edge19_Node000014_Node000006"><a xlink:title=" ">
<path fill="none" stroke="#63b8ff" d="M266.85,-223.56C259.48,-212.62 251.46,-200.71 245.41,-191.73"/>
<polygon fill="#63b8ff" stroke="#63b8ff" points="263.75,-225.23 272.24,-231.57 269.56,-221.32 263.75,-225.23"/>
</a>
</g>
</g>
<!-- Node17 -->
<g id="Node000017" class="node">
<title>Node17</title>
<g id="a_Node000017"><a xlink:href="../../d3/d53/packet-factory_8hpp.html" target="_top" xlink:title=" ">
<polygon fill="white" stroke="#666666" points="550.25,-352.75 435.25,-352.75 435.25,-311 550.25,-311 550.25,-352.75"/>
<text text-anchor="start" x="443.25" y="-339.25" font-family="Times,serif" font-size="10.00">mal&#45;packet&#45;weaver/mal</text>
<text text-anchor="start" x="443.25" y="-328" font-family="Times,serif" font-size="10.00">&#45;packet&#45;weaver/packet</text>
<text text-anchor="middle" x="492.75" y="-316.75" font-family="Times,serif" font-size="10.00">&#45;impl/packet&#45;factory.hpp</text>
</a>
</g>
</g>
<!-- Node16&#45;&gt;Node17 -->
<g id="edge22_Node000016_Node000017" class="edge">
<title>Node16&#45;&gt;Node17</title>
<g id="a_edge22_Node000016_Node000017"><a xlink:title=" ">
<path fill="none" stroke="#63b8ff" d="M492.75,-377C492.75,-368.96 492.75,-360.54 492.75,-353.23"/>
<polygon fill="#63b8ff" stroke="#63b8ff" points="489.25,-376.81 492.75,-386.81 496.25,-376.81 489.25,-376.81"/>
</a>
</g>
</g>
<!-- Node22 -->
<g id="Node000022" class="node">
<title>Node22</title>
<g id="a_Node000022"><a xlink:href="../../d3/dae/packet_8cpp.html" target="_top" xlink:title=" ">
<polygon fill="white" stroke="#666666" points="675.5,-352.75 568,-352.75 568,-311 675.5,-311 675.5,-352.75"/>
<text text-anchor="start" x="576" y="-339.25" font-family="Times,serif" font-size="10.00">mal&#45;packet&#45;weaver/mal</text>
<text text-anchor="start" x="576" y="-328" font-family="Times,serif" font-size="10.00">&#45;packet&#45;weaver/packet</text>
<text text-anchor="middle" x="621.75" y="-316.75" font-family="Times,serif" font-size="10.00">&#45;impl/packet.cpp</text>
</a>
</g>
</g>
<!-- Node16&#45;&gt;Node22 -->
<g id="edge31_Node000016_Node000022" class="edge">
<title>Node16&#45;&gt;Node22</title>
<g id="a_edge31_Node000016_Node000022"><a xlink:title=" ">
<path fill="none" stroke="#63b8ff" d="M537.19,-382.53C553.52,-372.94 571.75,-362.24 587.08,-353.23"/>
<polygon fill="#63b8ff" stroke="#63b8ff" points="535.48,-379.48 528.62,-387.56 539.02,-385.51 535.48,-379.48"/>
</a>
</g>
</g>
<!-- Node18 -->
<g id="Node000018" class="node">
<title>Node18</title>
<g id="a_Node000018"><a xlink:href="../../d2/db3/packet-factory_8cpp.html" target="_top" xlink:title=" ">
<polygon fill="white" stroke="#666666" points="652.88,-275 538.62,-275 538.62,-233.25 652.88,-233.25 652.88,-275"/>
<text text-anchor="start" x="546.62" y="-261.5" font-family="Times,serif" font-size="10.00">mal&#45;packet&#45;weaver/mal</text>
<text text-anchor="start" x="546.62" y="-250.25" font-family="Times,serif" font-size="10.00">&#45;packet&#45;weaver/packet</text>
<text text-anchor="middle" x="595.75" y="-239" font-family="Times,serif" font-size="10.00">&#45;impl/packet&#45;factory.cpp</text>
</a>
</g>
</g>
<!-- Node17&#45;&gt;Node18 -->
<g id="edge23_Node000017_Node000018" class="edge">
<title>Node17&#45;&gt;Node18</title>
<g id="a_edge23_Node000017_Node000018"><a xlink:title=" ">
<path fill="none" stroke="#63b8ff" d="M529.35,-303.96C542.09,-294.59 556.17,-284.23 568.07,-275.48"/>
<polygon fill="#63b8ff" stroke="#63b8ff" points="527.55,-300.93 521.57,-309.68 531.7,-306.57 527.55,-300.93"/>
</a>
</g>
</g>
<!-- Node17&#45;&gt;Node19 -->
<g id="edge24_Node000017_Node000019" class="edge">
<title>Node17&#45;&gt;Node19</title>
<g id="a_edge24_Node000017_Node000019"><a xlink:title=" ">
<path fill="none" stroke="#63b8ff" d="M479.03,-300.32C474.25,-289.66 469.1,-278.19 465.19,-269.48"/>
<polygon fill="#63b8ff" stroke="#63b8ff" points="475.73,-301.5 483.02,-309.19 482.12,-298.64 475.73,-301.5"/>
</a>
</g>
</g>
<!-- Node19&#45;&gt;Node7 -->
<g id="edge30_Node000019_Node000007" class="edge">
<title>Node19&#45;&gt;Node7</title>
<g id="a_edge30_Node000019_Node000007"><a xlink:title=" ">
<path fill="none" stroke="#63b8ff" d="M430.44,-231.51C388.92,-199.79 312.56,-141.48 276.96,-114.3"/>
<polygon fill="#63b8ff" stroke="#63b8ff" points="428.2,-234.2 438.27,-237.49 432.45,-228.64 428.2,-234.2"/>
</a>
</g>
</g>
<!-- Node20 -->
<g id="Node000020" class="node">
<title>Node20</title>
<g id="a_Node000020"><a xlink:href="../../df/d1d/packet-dispatcher_8hpp.html" target="_top" xlink:title=" ">
<polygon fill="white" stroke="#666666" points="604.5,-197.25 497,-197.25 497,-155.5 604.5,-155.5 604.5,-197.25"/>
<text text-anchor="start" x="505" y="-183.75" font-family="Times,serif" font-size="10.00">mal&#45;packet&#45;weaver/mal</text>
<text text-anchor="start" x="505" y="-172.5" font-family="Times,serif" font-size="10.00">&#45;packet&#45;weaver/packet</text>
<text text-anchor="middle" x="550.75" y="-161.25" font-family="Times,serif" font-size="10.00">&#45;dispatcher.hpp</text>
</a>
</g>
</g>
<!-- Node19&#45;&gt;Node20 -->
<g id="edge25_Node000019_Node000020" class="edge">
<title>Node19&#45;&gt;Node20</title>
<g id="a_edge25_Node000019_Node000020"><a xlink:title=" ">
<path fill="none" stroke="#63b8ff" d="M485.34,-231.23C498.19,-220.65 513.52,-208.03 526.11,-197.66"/>
<polygon fill="#63b8ff" stroke="#63b8ff" points="483.15,-228.5 477.66,-237.56 487.6,-233.9 483.15,-228.5"/>
</a>
</g>
</g>
<!-- Node20&#45;&gt;Node8 -->
<g id="edge26_Node000020_Node000008" class="edge">
<title>Node20&#45;&gt;Node8</title>
<g id="a_edge26_Node000020_Node000008"><a xlink:title=" ">
<path fill="none" stroke="#63b8ff" d="M511.68,-147.85C502.58,-139.7 493.79,-130.08 487.75,-119.5 473.88,-95.21 469.96,-62.57 468.94,-41.87"/>
<polygon fill="#63b8ff" stroke="#63b8ff" points="509.36,-150.48 519.27,-154.24 513.87,-145.12 509.36,-150.48"/>
</a>
</g>
</g>
<!-- Node20&#45;&gt;Node15 -->
<g id="edge27_Node000020_Node000015" class="edge">
<title>Node20&#45;&gt;Node15</title>
<g id="a_edge27_Node000020_Node000015"><a xlink:title=" ">
<path fill="none" stroke="#63b8ff" d="M599.33,-149.82C617.82,-140.1 638.61,-129.16 656.05,-119.98"/>
<polygon fill="#63b8ff" stroke="#63b8ff" points="597.9,-146.62 590.68,-154.37 601.16,-152.81 597.9,-146.62"/>
</a>
</g>
</g>
<!-- Node21 -->
<g id="Node000021" class="node">
<title>Node21</title>
<g id="a_Node000021"><a xlink:href="../../d2/d7d/packet-dispatcher_8inl.html" target="_top" xlink:title=" ">
<polygon fill="white" stroke="#666666" points="604.5,-119.5 497,-119.5 497,-77.75 604.5,-77.75 604.5,-119.5"/>
<text text-anchor="start" x="505" y="-106" font-family="Times,serif" font-size="10.00">mal&#45;packet&#45;weaver/mal</text>
<text text-anchor="start" x="505" y="-94.75" font-family="Times,serif" font-size="10.00">&#45;packet&#45;weaver/packet</text>
<text text-anchor="middle" x="550.75" y="-83.5" font-family="Times,serif" font-size="10.00">&#45;dispatcher.inl</text>
</a>
</g>
</g>
<!-- Node20&#45;&gt;Node21 -->
<g id="edge28_Node000020_Node000021" class="edge">
<title>Node20&#45;&gt;Node21</title>
<g id="a_edge28_Node000020_Node000021"><a xlink:title=" ">
<path fill="none" stroke="#63b8ff" d="M544.08,-143.75C543.87,-135.71 544.07,-127.29 544.69,-119.98"/>
<polygon fill="#63b8ff" stroke="#63b8ff" points="540.58,-143.77 544.61,-153.56 547.57,-143.39 540.58,-143.77"/>
</a>
</g>
</g>
<!-- Node21&#45;&gt;Node20 -->
<g id="edge29_Node000021_Node000020" class="edge">
<title>Node21&#45;&gt;Node20</title>
<g id="a_edge29_Node000021_Node000020"><a xlink:title=" ">
<path fill="none" stroke="#63b8ff" d="M557.42,-131.31C557.63,-139.35 557.43,-147.77 556.81,-155.08"/>
<polygon fill="#63b8ff" stroke="#63b8ff" points="560.92,-131.29 556.89,-121.49 553.93,-131.66 560.92,-131.29"/>
</a>
</g>
</g>
<!-- Node23&#45;&gt;Node3 -->
<g id="edge34_Node000023_Node000003" class="edge">
<title>Node23&#45;&gt;Node3</title>
<g id="a_edge34_Node000023_Node000003"><a xlink:title=" ">
<path fill="none" stroke="#63b8ff" d="M1072.78,-688.66C1064.49,-663.23 1048.84,-628.59 1021.75,-610.75 975.44,-580.25 602.36,-562.56 460.88,-556.89"/>
<polygon fill="#63b8ff" stroke="#63b8ff" points="1069.41,-689.59 1075.65,-698.15 1076.11,-687.57 1069.41,-689.59"/>
</a>
</g>
</g>
<!-- Node24&#45;&gt;Node3 -->
<g id="edge36_Node000024_Node000003" class="edge">
<title>Node24&#45;&gt;Node3</title>
<g id="a_edge36_Node000024_Node000003"><a xlink:title=" ">
<path fill="none" stroke="#63b8ff" d="M111.94,-612.23C113.55,-611.72 115.16,-611.22 116.75,-610.75 197.39,-586.91 293.72,-570.68 352.55,-562.1"/>
<polygon fill="#63b8ff" stroke="#63b8ff" points="110.98,-608.86 102.65,-615.41 113.24,-615.48 110.98,-608.86"/>
</a>
</g>
</g>
<!-- Node25&#45;&gt;Node3 -->
<g id="edge41_Node000025_Node000003" class="edge">
<title>Node25&#45;&gt;Node3</title>
<g id="a_edge41_Node000025_Node000003"><a xlink:title=" ">
<path fill="none" stroke="#63b8ff" d="M580.96,-689.43C566.77,-661.4 545.64,-622.33 532.75,-610.75 512.37,-592.44 485.01,-579.33 461,-570.44"/>
<polygon fill="#63b8ff" stroke="#63b8ff" points="577.74,-690.82 585.35,-698.19 584,-687.68 577.74,-690.82"/>
</a>
</g>
</g>
<!-- Node26 -->
<g id="Node000026" class="node">
<title>Node26</title>
<g id="a_Node000026"><a xlink:href="../../da/d43/debug__with__source__location_8hpp.html" target="_top" xlink:title="This file provides utility functions for debugging and assertion handling.">
<polygon fill="white" stroke="#666666" points="701.62,-663.75 579.88,-663.75 579.88,-610.75 701.62,-610.75 701.62,-663.75"/>
<text text-anchor="start" x="587.88" y="-650.25" font-family="Times,serif" font-size="10.00">third_party/mal&#45;toolkit</text>
<text text-anchor="start" x="587.88" y="-639" font-family="Times,serif" font-size="10.00">/mal&#45;toolkit/mal&#45;toolkit</text>
<text text-anchor="start" x="587.88" y="-627.75" font-family="Times,serif" font-size="10.00">/detail/debug_with_source</text>
<text text-anchor="middle" x="640.75" y="-616.5" font-family="Times,serif" font-size="10.00">_location.hpp</text>
</a>
</g>
</g>
<!-- Node25&#45;&gt;Node26 -->
<g id="edge38_Node000025_Node000026" class="edge">
<title>Node25&#45;&gt;Node26</title>
<g id="a_edge38_Node000025_Node000026"><a xlink:title=" ">
<path fill="none" stroke="#63b8ff" d="M605.93,-689.38C610.21,-681.03 615.26,-672.05 620.19,-663.98"/>
<polygon fill="#63b8ff" stroke="#63b8ff" points="602.89,-687.63 601.62,-698.15 609.17,-690.71 602.89,-687.63"/>
</a>
</g>
</g>
<!-- Node27 -->
<g id="Node000027" class="node">
<title>Node27</title>
<g id="a_Node000027"><a xlink:href="../../d3/d4b/debug__without__source__location_8hpp.html" target="_top" xlink:title="Provides utility functions for debugging and assertion handling without source location information.">
<polygon fill="white" stroke="#666666" points="854,-663.75 719.5,-663.75 719.5,-610.75 854,-610.75 854,-663.75"/>
<text text-anchor="start" x="727.5" y="-650.25" font-family="Times,serif" font-size="10.00">third_party/mal&#45;toolkit</text>
<text text-anchor="start" x="727.5" y="-639" font-family="Times,serif" font-size="10.00">/mal&#45;toolkit/mal&#45;toolkit</text>
<text text-anchor="start" x="727.5" y="-627.75" font-family="Times,serif" font-size="10.00">/detail/debug_without_source</text>
<text text-anchor="middle" x="786.75" y="-616.5" font-family="Times,serif" font-size="10.00">_location.hpp</text>
</a>
</g>
</g>
<!-- Node25&#45;&gt;Node27 -->
<g id="edge40_Node000025_Node000027" class="edge">
<title>Node25&#45;&gt;Node27</title>
<g id="a_edge40_Node000025_Node000027"><a xlink:title=" ">
<path fill="none" stroke="#63b8ff" d="M654,-694.81C676.78,-685.1 702.92,-673.97 725.94,-664.16"/>
<polygon fill="#63b8ff" stroke="#63b8ff" points="652.68,-691.57 644.85,-698.71 655.42,-698.01 652.68,-691.57"/>
</a>
</g>
</g>
<!-- Node28 -->
<g id="Node000028" class="node">
<title>Node28</title>
<g id="a_Node000028"><a xlink:href="../../d0/db4/measurer_8hpp.html" target="_top" xlink:title="Implements performance measurement and profiling utilities.">
<polygon fill="white" stroke="#666666" points="523.5,-658.12 416,-658.12 416,-616.38 523.5,-616.38 523.5,-658.12"/>
<text text-anchor="start" x="424" y="-644.62" font-family="Times,serif" font-size="10.00">third_party/mal&#45;toolkit</text>
<text text-anchor="start" x="424" y="-633.38" font-family="Times,serif" font-size="10.00">/mal&#45;toolkit/mal&#45;toolkit</text>
<text text-anchor="middle" x="469.75" y="-622.12" font-family="Times,serif" font-size="10.00">/measurer.hpp</text>
</a>
</g>
</g>
<!-- Node25&#45;&gt;Node28 -->
<g id="edge42_Node000025_Node000028" class="edge">
<title>Node25&#45;&gt;Node28</title>
<g id="a_edge42_Node000025_Node000028"><a xlink:title=" ">
<path fill="none" stroke="#63b8ff" d="M554.91,-693.25C537.5,-682 517.5,-669.09 501.26,-658.6"/>
<polygon fill="#63b8ff" stroke="#63b8ff" points="552.71,-695.99 563.01,-698.48 556.51,-690.11 552.71,-695.99"/>
</a>
</g>
</g>
<!-- Node26&#45;&gt;Node25 -->
<g id="edge39_Node000026_Node000025" class="edge">
<title>Node26&#45;&gt;Node25</title>
<g id="a_edge39_Node000026_Node000025"><a xlink:title=" ">
<path fill="none" stroke="#63b8ff" d="M627.68,-674C623.01,-682.75 617.74,-691.8 612.79,-699.51"/>
<polygon fill="#63b8ff" stroke="#63b8ff" points="630.69,-675.82 632.16,-665.33 624.46,-672.61 630.69,-675.82"/>
</a>
</g>
</g>
<!-- Node28&#45;&gt;Node3 -->
<g id="edge43_Node000028_Node000003" class="edge">
<title>Node28&#45;&gt;Node3</title>
<g id="a_edge43_Node000028_Node000003"><a xlink:title=" ">
<path fill="none" stroke="#63b8ff" d="M447.23,-607.16C439,-596.53 429.86,-584.73 422.36,-575.04"/>
<polygon fill="#63b8ff" stroke="#63b8ff" points="444.36,-609.17 453.25,-614.94 449.9,-604.89 444.36,-609.17"/>
</a>
</g>
</g>
<!-- Node30 -->
<g id="Node000030" class="node">
<title>Node30</title>
<g id="a_Node000030"><a xlink:href="../../d7/db4/uuid_8hpp.html" target="_top" xlink:title="Defines utilities for working with Universally Unique Identifiers (UUIDs).">
<polygon fill="white" stroke="#666666" points="979.5,-658.12 872,-658.12 872,-616.38 979.5,-616.38 979.5,-658.12"/>
<text text-anchor="start" x="880" y="-644.62" font-family="Times,serif" font-size="10.00">third_party/mal&#45;toolkit</text>
<text text-anchor="start" x="880" y="-633.38" font-family="Times,serif" font-size="10.00">/mal&#45;toolkit/mal&#45;toolkit</text>
<text text-anchor="middle" x="925.75" y="-622.12" font-family="Times,serif" font-size="10.00">/uuid.hpp</text>
</a>
</g>
</g>
<!-- Node29&#45;&gt;Node30 -->
<g id="edge45_Node000029_Node000030" class="edge">
<title>Node29&#45;&gt;Node30</title>
<g id="a_edge45_Node000029_Node000030"><a xlink:title=" ">
<path fill="none" stroke="#63b8ff" d="M850.91,-692.62C866.19,-681.53 883.58,-668.89 897.75,-658.6"/>
<polygon fill="#63b8ff" stroke="#63b8ff" points="848.98,-689.7 842.95,-698.41 853.1,-695.36 848.98,-689.7"/>
</a>
</g>
</g>
<!-- Node31&#45;&gt;Node32 -->
<g id="edge47_Node000031_Node000032" class="edge">
<title>Node31&#45;&gt;Node32</title>
<g id="a_edge47_Node000031_Node000032"><a xlink:title=" ">
<path fill="none" stroke="#63b8ff" d="M264.91,-693.25C247.5,-682 227.5,-669.09 211.26,-658.6"/>
<polygon fill="#63b8ff" stroke="#63b8ff" points="262.71,-695.99 273.01,-698.48 266.51,-690.11 262.71,-695.99"/>
</a>
</g>
</g>
<!-- Node32&#45;&gt;Node3 -->
<g id="edge48_Node000032_Node000003" class="edge">
<title>Node32&#45;&gt;Node3</title>
<g id="a_edge48_Node000032_Node000003"><a xlink:title=" ">
<path fill="none" stroke="#63b8ff" d="M244.25,-612.02C245.43,-611.59 246.59,-611.17 247.75,-610.75 282.54,-598.12 321.77,-584.32 352.56,-573.6"/>
<polygon fill="#63b8ff" stroke="#63b8ff" points="243.13,-608.71 234.95,-615.44 245.55,-615.28 243.13,-608.71"/>
</a>
</g>
</g>
<!-- Node33&#45;&gt;Node3 -->
<g id="edge52_Node000033_Node000003" class="edge">
<title>Node33&#45;&gt;Node3</title>
<g id="a_edge52_Node000033_Node000003"><a xlink:title=" ">
<path fill="none" stroke="#63b8ff" d="M367.11,-697.57C327.37,-683.71 283.51,-667.72 280.75,-663.75 267.29,-644.42 267.91,-630.5 280.75,-610.75 296.73,-586.18 326.27,-572.33 352.73,-564.56"/>
<polygon fill="#63b8ff" stroke="#63b8ff" points="365.88,-700.85 376.47,-700.83 368.17,-694.24 365.88,-700.85"/>
</a>
</g>
</g>
</g>
</svg>
