<?xml version="1.0" encoding="UTF-8" standalone="no"?>
<!DOCTYPE svg PUBLIC "-//W3C//DTD SVG 1.1//EN"
 "http://www.w3.org/Graphics/SVG/1.1/DTD/svg11.dtd">
<!-- Generated by graphviz version 9.0.0 (20230911.1827)
 -->
<!-- Title: mal_toolkit::events::Event Pages: 1 -->
<svg width="225pt" height="105pt"
 viewBox="0.00 0.00 225.12 105.00" xmlns="http://www.w3.org/2000/svg" xmlns:xlink="http://www.w3.org/1999/xlink">
<g id="graph0" class="graph" transform="scale(1 1) rotate(0) translate(4 101)">
<title>mal_toolkit::events::Event</title>
<!-- Node1 -->
<g id="Node000001" class="node">
<title>Node1</title>
<g id="a_Node000001"><a xlink:title="Base class for all events.">
<polygon fill="#999999" stroke="#666666" points="136.75,-30.5 46.5,-30.5 46.5,0 136.75,0 136.75,-30.5"/>
<text text-anchor="start" x="54.5" y="-17" font-family="Times,serif" font-size="10.00">mal_toolkit::events</text>
<text text-anchor="middle" x="91.62" y="-5.75" font-family="Times,serif" font-size="10.00">::Event</text>
</a>
</g>
</g>
<!-- Node2 -->
<g id="Node000002" class="node">
<title>Node2</title>
<g id="a_Node000002"><a xlink:href="../../d9/db9/classbool.html" target="_top" xlink:title=" ">
<polygon fill="white" stroke="#666666" points="33.25,-97 0,-97 0,-77.75 33.25,-77.75 33.25,-97"/>
<text text-anchor="middle" x="16.62" y="-83.5" font-family="Times,serif" font-size="10.00">bool</text>
</a>
</g>
</g>
<!-- Node2&#45;&gt;Node1 -->
<g id="edge1_Node000001_Node000002" class="edge">
<title>Node2&#45;&gt;Node1</title>
<g id="a_edge1_Node000001_Node000002"><a xlink:title=" ">
<path fill="none" stroke="#9a32cd" stroke-dasharray="5,2" d="M32.91,-69.19C39.32,-62.59 46.83,-55.07 53.88,-48.5 60.31,-42.5 67.61,-36.17 74.06,-30.71"/>
<polygon fill="#9a32cd" stroke="#9a32cd" points="30.44,-66.7 26.04,-76.34 35.49,-71.55 30.44,-66.7"/>
</a>
</g>
<text text-anchor="middle" x="71.5" y="-50.25" font-family="Times,serif" font-size="10.00" fill="grey"> handled</text>
</g>
<!-- Node3 -->
<g id="Node000003" class="node">
<title>Node3</title>
<g id="a_Node000003"><a xlink:title=" ">
<polygon fill="white" stroke="#666666" points="132.25,-97 51,-97 51,-77.75 132.25,-77.75 132.25,-97"/>
<text text-anchor="middle" x="91.62" y="-83.5" font-family="Times,serif" font-size="10.00">const EventType</text>
</a>
</g>
</g>
<!-- Node3&#45;&gt;Node1 -->
<g id="edge2_Node000001_Node000003" class="edge">
<title>Node3&#45;&gt;Node1</title>
<g id="a_edge2_Node000001_Node000003"><a xlink:title=" ">
<path fill="none" stroke="#9a32cd" stroke-dasharray="5,2" d="M91.62,-66.17C91.62,-54.91 91.62,-41.14 91.62,-30.92"/>
<polygon fill="#9a32cd" stroke="#9a32cd" points="88.13,-65.98 91.63,-75.98 95.13,-65.98 88.13,-65.98"/>
</a>
</g>
<text text-anchor="middle" x="105.5" y="-50.25" font-family="Times,serif" font-size="10.00" fill="grey"> kType</text>
</g>
<!-- Node4 -->
<g id="Node000004" class="node">
<title>Node4</title>
<g id="a_Node000004"><a xlink:title=" ">
<polygon fill="white" stroke="#666666" points="217.12,-97 150.12,-97 150.12,-77.75 217.12,-77.75 217.12,-97"/>
<text text-anchor="middle" x="183.62" y="-83.5" font-family="Times,serif" font-size="10.00">const uint8_t</text>
</a>
</g>
</g>
<!-- Node4&#45;&gt;Node1 -->
<g id="edge3_Node000001_Node000004" class="edge">
<title>Node4&#45;&gt;Node1</title>
<g id="a_edge3_Node000001_Node000004"><a xlink:title=" ">
<path fill="none" stroke="#9a32cd" stroke-dasharray="5,2" d="M163.1,-70.73C147.48,-58.83 126.15,-42.57 110.87,-30.92"/>
<polygon fill="#9a32cd" stroke="#9a32cd" points="160.69,-73.3 170.77,-76.58 164.94,-67.73 160.69,-73.3"/>
</a>
</g>
<text text-anchor="middle" x="179.88" y="-50.25" font-family="Times,serif" font-size="10.00" fill="grey"> kCategoryFlags</text>
</g>
</g>
</svg>
