<?xml version="1.0" encoding="UTF-8" standalone="no"?>
<!DOCTYPE svg PUBLIC "-//W3C//DTD SVG 1.1//EN"
 "http://www.w3.org/Graphics/SVG/1.1/DTD/svg11.dtd">
<!-- Generated by graphviz version 7.0.5 (20221223.1930)
 -->
<!-- Title: weaver::KeyPair Pages: 1 -->
<svg width="108pt" height="282pt"
 viewBox="0.00 0.00 107.50 282.00" xmlns="http://www.w3.org/2000/svg" xmlns:xlink="http://www.w3.org/1999/xlink">
<g id="graph0" class="graph" transform="scale(1 1) rotate(0) translate(4 278)">
<title>weaver::KeyPair</title>
<!-- Node1 -->
<g id="node1" class="node">
<title>Node1</title>
<g id="a_node1"><a xlink:title="Represents a pair of cryptographic keys (public and private keys).">
<polygon fill="#999999" stroke="#666666" points="90.5,-19 4.5,-19 4.5,0 90.5,0 90.5,-19"/>
<text text-anchor="middle" x="47.5" y="-7" font-family="Helvetica,sans-Serif" font-size="10.00">weaver::KeyPair</text>
</a>
</g>
</g>
<!-- Node2 -->
<g id="node2" class="node">
<title>Node2</title>
<g id="a_node2"><a xlink:href="../../dc/dfb/classweaver_1_1_key.html" target="_top" xlink:title="Represents a cryptographic key as a byte array.">
<polygon fill="white" stroke="#666666" points="82,-96 13,-96 13,-77 82,-77 82,-96"/>
<text text-anchor="middle" x="47.5" y="-84" font-family="Helvetica,sans-Serif" font-size="10.00">weaver::Key</text>
</a>
</g>
</g>
<!-- Node2&#45;&gt;Node1 -->
<g id="edge1" class="edge">
<title>Node2&#45;&gt;Node1</title>
<path fill="none" stroke="#9a32cd" stroke-dasharray="5,2" d="M47.5,-65.42C47.5,-50.43 47.5,-30.66 47.5,-19.39"/>
<polygon fill="#9a32cd" stroke="#9a32cd" points="44,-65.09 47.5,-75.09 51,-65.09 44,-65.09"/>
<text text-anchor="middle" x="73.5" y="-51" font-family="Helvetica,sans-Serif" font-size="10.00"> private_key</text>
<text text-anchor="middle" x="73.5" y="-40" font-family="Helvetica,sans-Serif" font-size="10.00">public_key</text>
</g>
<!-- Node3 -->
<g id="node3" class="node">
<title>Node3</title>
<g id="a_node3"><a xlink:href="../../d3/d21/structweaver_1_1_byte_array.html" target="_top" xlink:title="A dynamically resizable array of bytes.">
<polygon fill="white" stroke="#666666" points="95,-152 0,-152 0,-133 95,-133 95,-152"/>
<text text-anchor="middle" x="47.5" y="-140" font-family="Helvetica,sans-Serif" font-size="10.00">weaver::ByteArray</text>
</a>
</g>
</g>
<!-- Node3&#45;&gt;Node2 -->
<g id="edge2" class="edge">
<title>Node3&#45;&gt;Node2</title>
<path fill="none" stroke="#63b8ff" d="M47.5,-121.11C47.5,-112.52 47.5,-102.97 47.5,-96.25"/>
<polygon fill="#63b8ff" stroke="#63b8ff" points="44,-121.07 47.5,-131.07 51,-121.07 44,-121.07"/>
</g>
<!-- Node4 -->
<g id="node4" class="node">
<title>Node4</title>
<g id="a_node4"><a xlink:title=" ">
<polygon fill="white" stroke="#666666" points="89.5,-208 5.5,-208 5.5,-189 89.5,-189 89.5,-208"/>
<text text-anchor="middle" x="47.5" y="-196" font-family="Helvetica,sans-Serif" font-size="10.00">std::vector&lt; T &gt;</text>
</a>
</g>
</g>
<!-- Node4&#45;&gt;Node3 -->
<g id="edge3" class="edge">
<title>Node4&#45;&gt;Node3</title>
<path fill="none" stroke="#63b8ff" d="M47.5,-177.11C47.5,-168.52 47.5,-158.97 47.5,-152.25"/>
<polygon fill="#63b8ff" stroke="#63b8ff" points="44,-177.07 47.5,-187.07 51,-177.07 44,-177.07"/>
</g>
<!-- Node5 -->
<g id="node5" class="node">
<title>Node5</title>
<g id="a_node5"><a xlink:title=" ">
<polygon fill="white" stroke="#666666" points="62,-274 33,-274 33,-255 62,-255 62,-274"/>
<text text-anchor="middle" x="47.5" y="-262" font-family="Helvetica,sans-Serif" font-size="10.00">T</text>
</a>
</g>
</g>
<!-- Node5&#45;&gt;Node4 -->
<g id="edge4" class="edge">
<title>Node5&#45;&gt;Node4</title>
<path fill="none" stroke="#9a32cd" stroke-dasharray="5,2" d="M47.5,-243.18C47.5,-231.44 47.5,-217.27 47.5,-208.32"/>
<polygon fill="#9a32cd" stroke="#9a32cd" points="44,-243.09 47.5,-253.09 51,-243.09 44,-243.09"/>
<text text-anchor="middle" x="69" y="-229" font-family="Helvetica,sans-Serif" font-size="10.00"> elements</text>
</g>
</g>
</svg>
