<?xml version="1.0" encoding="UTF-8" standalone="no"?>
<!DOCTYPE svg PUBLIC "-//W3C//DTD SVG 1.1//EN"
 "http://www.w3.org/Graphics/SVG/1.1/DTD/svg11.dtd">
<!-- Generated by graphviz version 8.1.0 (20230707.0739)
 -->
<!-- Title: mal_packet_weaver::PacketDispatcher Pages: 1 -->
<svg width="1050pt" height="995pt"
 viewBox="0.00 0.00 1049.55 994.77" xmlns="http://www.w3.org/2000/svg" xmlns:xlink="http://www.w3.org/1999/xlink">
<g id="graph0" class="graph" transform="scale(1 1) rotate(0) translate(4 990.77)">
<title>mal_packet_weaver::PacketDispatcher</title>
<!-- Node1 -->
<g id="Node000001" class="node">
<title>Node1</title>
<g id="a_Node000001"><a xlink:title="The PacketDispatcher class is responsible for managing packet dispatching and handling.">
<polygon fill="#999999" stroke="#666666" points="1041.55,-572.39 942.3,-572.39 942.3,-541.89 1041.55,-541.89 1041.55,-572.39"/>
<text text-anchor="start" x="950.3" y="-558.89" font-family="Times,serif" font-size="10.00">mal_packet_weaver::</text>
<text text-anchor="middle" x="991.93" y="-547.64" font-family="Times,serif" font-size="10.00">PacketDispatcher</text>
</a>
</g>
</g>
<!-- Node2 -->
<g id="Node000002" class="node">
<title>Node2</title>
<g id="a_Node000002"><a xlink:href="../../d2/df3/classmal__toolkit_1_1non__copyable__non__movable.html" target="_top" xlink:title="A class that can&#39;t be copied neither moved.">
<polygon fill="white" stroke="#666666" points="797.18,-974.39 677.68,-974.39 677.68,-943.89 797.18,-943.89 797.18,-974.39"/>
<text text-anchor="start" x="685.68" y="-960.89" font-family="Times,serif" font-size="10.00">mal_toolkit::non_copyable</text>
<text text-anchor="middle" x="737.43" y="-949.64" font-family="Times,serif" font-size="10.00">_non_movable</text>
</a>
</g>
</g>
<!-- Node2&#45;&gt;Node1 -->
<g id="edge1_Node000001_Node000002" class="edge">
<title>Node2&#45;&gt;Node1</title>
<g id="a_edge1_Node000001_Node000002"><a xlink:title=" ">
<path fill="none" stroke="#63b8ff" d="M808.34,-964.03C847.57,-962.83 894.47,-954.17 924.3,-924.14 974.85,-873.27 987.8,-635.68 990.38,-572.57"/>
<polygon fill="#63b8ff" stroke="#63b8ff" points="808.45,-960.55 798.5,-964.19 808.55,-967.54 808.45,-960.55"/>
</a>
</g>
</g>
<!-- Node3 -->
<g id="Node000003" class="node">
<title>Node3</title>
<g id="a_Node000003"><a xlink:href="../../d1/dd3/classmal__toolkit_1_1non__copyable.html" target="_top" xlink:title="A class that can&#39;t be copied.">
<polygon fill="white" stroke="#666666" points="510.05,-986.77 390.55,-986.77 390.55,-967.52 510.05,-967.52 510.05,-986.77"/>
<text text-anchor="middle" x="450.3" y="-973.27" font-family="Times,serif" font-size="10.00">mal_toolkit::non_copyable</text>
</a>
</g>
</g>
<!-- Node3&#45;&gt;Node2 -->
<g id="edge2_Node000002_Node000003" class="edge">
<title>Node3&#45;&gt;Node2</title>
<g id="a_edge2_Node000002_Node000003"><a xlink:title=" ">
<path fill="none" stroke="#63b8ff" d="M521.29,-972.73C569.21,-969.7 632.04,-965.73 677.42,-962.87"/>
<polygon fill="#63b8ff" stroke="#63b8ff" points="521.14,-969.29 511.38,-973.41 521.58,-976.28 521.14,-969.29"/>
</a>
</g>
</g>
<!-- Node4 -->
<g id="Node000004" class="node">
<title>Node4</title>
<g id="a_Node000004"><a xlink:href="../../db/d86/classmal__toolkit_1_1non__movable.html" target="_top" xlink:title="A class that can&#39;t be moved.">
<polygon fill="white" stroke="#666666" points="509.3,-949.77 391.3,-949.77 391.3,-930.52 509.3,-930.52 509.3,-949.77"/>
<text text-anchor="middle" x="450.3" y="-936.27" font-family="Times,serif" font-size="10.00">mal_toolkit::non_movable</text>
</a>
</g>
</g>
<!-- Node4&#45;&gt;Node2 -->
<g id="edge3_Node000002_Node000004" class="edge">
<title>Node4&#45;&gt;Node2</title>
<g id="a_edge3_Node000002_Node000004"><a xlink:title=" ">
<path fill="none" stroke="#63b8ff" d="M520.63,-944.76C568.7,-947.97 632.02,-952.19 677.63,-955.23"/>
<polygon fill="#63b8ff" stroke="#63b8ff" points="520.9,-941.21 510.69,-944.03 520.43,-948.19 520.9,-941.21"/>
</a>
</g>
</g>
<!-- Node5 -->
<g id="Node000005" class="node">
<title>Node5</title>
<g id="a_Node000005"><a xlink:title=" ">
<polygon fill="white" stroke="#666666" points="811.05,-925.39 663.8,-925.39 663.8,-894.89 811.05,-894.89 811.05,-925.39"/>
<text text-anchor="start" x="671.8" y="-911.89" font-family="Times,serif" font-size="10.00">std::enable_shared</text>
<text text-anchor="middle" x="737.43" y="-900.64" font-family="Times,serif" font-size="10.00">_from_this&lt; PacketDispatcher &gt;</text>
</a>
</g>
</g>
<!-- Node5&#45;&gt;Node1 -->
<g id="edge4_Node000001_Node000005" class="edge">
<title>Node5&#45;&gt;Node1</title>
<g id="a_edge4_Node000001_Node000005"><a xlink:title=" ">
<path fill="none" stroke="#63b8ff" d="M822.19,-924.65C857.65,-925.98 896.99,-920.38 924.3,-896.14 973.64,-852.34 987.38,-633.47 990.27,-572.77"/>
<polygon fill="#63b8ff" stroke="#63b8ff" points="822.51,-921.1 812.32,-924.03 822.11,-928.09 822.51,-921.1"/>
</a>
</g>
</g>
<!-- Node6 -->
<g id="Node000006" class="node">
<title>Node6</title>
<g id="a_Node000006"><a xlink:title=" ">
<polygon fill="white" stroke="#666666" points="770.93,-876.77 703.93,-876.77 703.93,-857.52 770.93,-857.52 770.93,-876.77"/>
<text text-anchor="middle" x="737.43" y="-863.27" font-family="Times,serif" font-size="10.00">io_context &amp;</text>
</a>
</g>
</g>
<!-- Node6&#45;&gt;Node1 -->
<g id="edge5_Node000001_Node000006" class="edge">
<title>Node6&#45;&gt;Node1</title>
<g id="a_edge5_Node000001_Node000006"><a xlink:title=" ">
<path fill="none" stroke="#9a32cd" stroke-dasharray="5,2" d="M781.97,-877.49C823.55,-884.59 885.45,-887.53 924.3,-854.14 967.88,-816.69 985.5,-628.49 989.81,-572.73"/>
<polygon fill="#9a32cd" stroke="#9a32cd" points="782.82,-873.9 772.34,-875.51 781.53,-880.78 782.82,-873.9"/>
</a>
</g>
<text text-anchor="middle" x="876.68" y="-882.89" font-family="Times,serif" font-size="10.00" fill="grey"> io_context_</text>
</g>
<!-- Node7 -->
<g id="Node000007" class="node">
<title>Node7</title>
<g id="a_Node000007"><a xlink:title=" ">
<polygon fill="white" stroke="#666666" points="757.8,-772.77 717.05,-772.77 717.05,-753.52 757.8,-753.52 757.8,-772.77"/>
<text text-anchor="middle" x="737.43" y="-759.27" font-family="Times,serif" font-size="10.00">strand</text>
</a>
</g>
</g>
<!-- Node7&#45;&gt;Node1 -->
<g id="edge6_Node000001_Node000007" class="edge">
<title>Node7&#45;&gt;Node1</title>
<g id="a_edge6_Node000001_Node000007"><a xlink:title=" ">
<path fill="none" stroke="#9a32cd" stroke-dasharray="5,2" d="M769.12,-763.31C815.61,-762.94 900.95,-759.67 924.3,-741.14 977.93,-698.6 988.41,-609.03 990.44,-572.83"/>
<polygon fill="#9a32cd" stroke="#9a32cd" points="769.19,-759.81 759.2,-763.35 769.21,-766.81 769.19,-759.81"/>
</a>
</g>
<text text-anchor="start" x="829.05" y="-841.64" font-family="Times,serif" font-size="10.00" fill="grey"> default_handlers_input</text>
<text text-anchor="middle" x="876.68" y="-830.39" font-family="Times,serif" font-size="10.00" fill="grey">_strand_</text>
<text text-anchor="start" x="829.05" y="-819.14" font-family="Times,serif" font-size="10.00" fill="grey">promise_filter_map</text>
<text text-anchor="middle" x="876.68" y="-807.89" font-family="Times,serif" font-size="10.00" fill="grey">_input_strand_</text>
<text text-anchor="start" x="829.05" y="-796.64" font-family="Times,serif" font-size="10.00" fill="grey">promise_map_input</text>
<text text-anchor="middle" x="876.68" y="-785.39" font-family="Times,serif" font-size="10.00" fill="grey">_strand_</text>
<text text-anchor="start" x="829.05" y="-774.14" font-family="Times,serif" font-size="10.00" fill="grey">unprocessed_packets</text>
<text text-anchor="middle" x="876.68" y="-762.89" font-family="Times,serif" font-size="10.00" fill="grey">_input_strand_</text>
</g>
<!-- Node8 -->
<g id="Node000008" class="node">
<title>Node8</title>
<g id="a_Node000008"><a xlink:title=" ">
<polygon fill="white" stroke="#666666" points="768.3,-687.77 706.55,-687.77 706.55,-668.52 768.3,-668.52 768.3,-687.77"/>
<text text-anchor="middle" x="737.43" y="-674.27" font-family="Times,serif" font-size="10.00">atomic_flag</text>
</a>
</g>
</g>
<!-- Node8&#45;&gt;Node1 -->
<g id="edge7_Node000001_Node000008" class="edge">
<title>Node8&#45;&gt;Node1</title>
<g id="a_edge7_Node000001_Node000008"><a xlink:title=" ">
<path fill="none" stroke="#9a32cd" stroke-dasharray="5,2" d="M778.9,-665.59C794.52,-660.88 812.56,-655.59 829.05,-651.14 871.1,-639.81 886.66,-650.05 924.3,-628.14 948.26,-614.2 968.86,-588.98 980.58,-572.66"/>
<polygon fill="#9a32cd" stroke="#9a32cd" points="778.07,-662.49 769.52,-668.75 780.11,-669.18 778.07,-662.49"/>
</a>
</g>
<text text-anchor="start" x="829.05" y="-731.64" font-family="Times,serif" font-size="10.00" fill="grey"> default_handlers_input</text>
<text text-anchor="middle" x="876.68" y="-720.39" font-family="Times,serif" font-size="10.00" fill="grey">_updated_</text>
<text text-anchor="start" x="829.05" y="-709.14" font-family="Times,serif" font-size="10.00" fill="grey">promise_filter_map</text>
<text text-anchor="middle" x="876.68" y="-697.89" font-family="Times,serif" font-size="10.00" fill="grey">_input_updated_</text>
<text text-anchor="start" x="829.05" y="-686.64" font-family="Times,serif" font-size="10.00" fill="grey">promise_map_input</text>
<text text-anchor="middle" x="876.68" y="-675.39" font-family="Times,serif" font-size="10.00" fill="grey">_updated_</text>
<text text-anchor="start" x="829.05" y="-664.14" font-family="Times,serif" font-size="10.00" fill="grey">unprocessed_packets</text>
<text text-anchor="middle" x="876.68" y="-652.89" font-family="Times,serif" font-size="10.00" fill="grey">_input_updated_</text>
</g>
<!-- Node9 -->
<g id="Node000009" class="node">
<title>Node9</title>
<g id="a_Node000009"><a xlink:title=" ">
<polygon fill="white" stroke="#666666" points="516.05,-458.77 384.55,-458.77 384.55,-439.52 516.05,-439.52 516.05,-458.77"/>
<text text-anchor="middle" x="450.3" y="-445.27" font-family="Times,serif" font-size="10.00">std::vector&lt; BasePacketPtr &gt;</text>
</a>
</g>
</g>
<!-- Node9&#45;&gt;Node1 -->
<g id="edge8_Node000001_Node000009" class="edge">
<title>Node9&#45;&gt;Node1</title>
<g id="a_edge8_Node000001_Node000009"><a xlink:title=" ">
<path fill="none" stroke="#9a32cd" stroke-dasharray="5,2" d="M526.81,-459.4C599.89,-469.85 713.61,-487.5 811.05,-508.64 855.78,-518.35 906.01,-532.14 942,-542.54"/>
<polygon fill="#9a32cd" stroke="#9a32cd" points="527.72,-455.85 517.33,-457.91 526.74,-462.78 527.72,-455.85"/>
</a>
</g>
<text text-anchor="start" x="693.55" y="-521.14" font-family="Times,serif" font-size="10.00" fill="grey"> unprocessed_packets</text>
<text text-anchor="middle" x="737.43" y="-509.89" font-family="Times,serif" font-size="10.00" fill="grey">_input_</text>
</g>
<!-- Node19 -->
<g id="Node000019" class="node">
<title>Node19</title>
<g id="a_Node000019"><a xlink:title=" ">
<polygon fill="white" stroke="#666666" points="801.3,-438.02 673.55,-438.02 673.55,-396.27 801.3,-396.27 801.3,-438.02"/>
<text text-anchor="start" x="681.55" y="-424.52" font-family="Times,serif" font-size="10.00">std::unordered_map</text>
<text text-anchor="start" x="681.55" y="-413.27" font-family="Times,serif" font-size="10.00">&lt; UniquePacketID, std</text>
<text text-anchor="middle" x="737.43" y="-402.02" font-family="Times,serif" font-size="10.00">::vector&lt; BasePacketPtr &gt; &gt;</text>
</a>
</g>
</g>
<!-- Node9&#45;&gt;Node19 -->
<g id="edge24_Node000019_Node000009" class="edge">
<title>Node9&#45;&gt;Node19</title>
<g id="a_edge24_Node000019_Node000009"><a xlink:title=" ">
<path fill="none" stroke="#9a32cd" stroke-dasharray="5,2" d="M527.1,-441.87C563.09,-438.28 606.69,-433.74 645.8,-429.14 654.63,-428.11 663.93,-426.95 673.07,-425.77"/>
<polygon fill="#9a32cd" stroke="#9a32cd" points="526.79,-438.48 517.19,-442.95 527.48,-445.45 526.79,-438.48"/>
</a>
</g>
<text text-anchor="middle" x="589.93" y="-441.89" font-family="Times,serif" font-size="10.00" fill="grey"> elements</text>
</g>
<!-- Node10 -->
<g id="Node000010" class="node">
<title>Node10</title>
<g id="a_Node000010"><a xlink:title=" ">
<polygon fill="white" stroke="#666666" points="211.68,-406.77 112.43,-406.77 112.43,-387.52 211.68,-387.52 211.68,-406.77"/>
<text text-anchor="middle" x="162.05" y="-393.27" font-family="Times,serif" font-size="10.00">std::unique_ptr&lt; T &gt;</text>
</a>
</g>
</g>
<!-- Node10&#45;&gt;Node9 -->
<g id="edge9_Node000009_Node000010" class="edge">
<title>Node10&#45;&gt;Node9</title>
<g id="a_edge9_Node000009_Node000010"><a xlink:title=" ">
<path fill="none" stroke="#9a32cd" stroke-dasharray="5,2" d="M222.82,-407.32C263.4,-414.31 318.26,-423.91 366.55,-432.89 377.06,-434.85 388.3,-437.01 399.01,-439.1"/>
<polygon fill="#9a32cd" stroke="#9a32cd" points="223.48,-403.71 213.03,-405.47 222.29,-410.61 223.48,-403.71"/>
</a>
</g>
<text text-anchor="middle" x="303.55" y="-433.89" font-family="Times,serif" font-size="10.00" fill="grey"> elements</text>
</g>
<!-- Node11 -->
<g id="Node000011" class="node">
<title>Node11</title>
<g id="a_Node000011"><a xlink:title=" ">
<polygon fill="white" stroke="#666666" points="28.8,-198.77 0,-198.77 0,-179.52 28.8,-179.52 28.8,-198.77"/>
<text text-anchor="middle" x="14.4" y="-185.27" font-family="Times,serif" font-size="10.00">T</text>
</a>
</g>
</g>
<!-- Node11&#45;&gt;Node10 -->
<g id="edge10_Node000010_Node000011" class="edge">
<title>Node11&#45;&gt;Node10</title>
<g id="a_edge10_Node000010_Node000011"><a xlink:title=" ">
<path fill="none" stroke="#9a32cd" stroke-dasharray="5,2" d="M20.91,-209.67C31.34,-245.22 57.04,-318.9 101.55,-365.14 110.66,-374.61 123.19,-381.92 134.4,-387.14"/>
<polygon fill="#9a32cd" stroke="#9a32cd" points="24.03,-208.84 17.95,-200.16 17.29,-210.74 24.03,-208.84"/>
</a>
</g>
<text text-anchor="middle" x="65.18" y="-341.89" font-family="Times,serif" font-size="10.00" fill="grey"> ptr</text>
</g>
<!-- Node12 -->
<g id="Node000012" class="node">
<title>Node12</title>
<g id="a_Node000012"><a xlink:title=" ">
<polygon fill="white" stroke="#666666" points="201.93,-457.77 122.18,-457.77 122.18,-438.52 201.93,-438.52 201.93,-457.77"/>
<text text-anchor="middle" x="162.05" y="-444.27" font-family="Times,serif" font-size="10.00">std::vector&lt; T &gt;</text>
</a>
</g>
</g>
<!-- Node11&#45;&gt;Node12 -->
<g id="edge12_Node000012_Node000011" class="edge">
<title>Node11&#45;&gt;Node12</title>
<g id="a_edge12_Node000012_Node000011"><a xlink:title=" ">
<path fill="none" stroke="#9a32cd" stroke-dasharray="5,2" d="M15.79,-209.91C17.15,-242.49 22.94,-306.88 46.8,-355.14 62.95,-387.8 72.91,-393.62 101.55,-416.14 112.71,-424.92 126.61,-432.55 138.17,-438.15"/>
<polygon fill="#9a32cd" stroke="#9a32cd" points="19.26,-209.97 15.45,-200.08 12.26,-210.18 19.26,-209.97"/>
</a>
</g>
<text text-anchor="middle" x="65.18" y="-402.89" font-family="Times,serif" font-size="10.00" fill="grey"> elements</text>
</g>
<!-- Node21 -->
<g id="Node000021" class="node">
<title>Node21</title>
<g id="a_Node000021"><a xlink:title=" ">
<polygon fill="white" stroke="#666666" points="497.68,-204.39 402.93,-204.39 402.93,-173.89 497.68,-173.89 497.68,-204.39"/>
<text text-anchor="start" x="410.93" y="-190.89" font-family="Times,serif" font-size="10.00">std::unordered_map</text>
<text text-anchor="middle" x="450.3" y="-179.64" font-family="Times,serif" font-size="10.00">&lt; K, T &gt;</text>
</a>
</g>
</g>
<!-- Node11&#45;&gt;Node21 -->
<g id="edge27_Node000021_Node000011" class="edge">
<title>Node11&#45;&gt;Node21</title>
<g id="a_edge27_Node000021_Node000011"><a xlink:title=" ">
<path fill="none" stroke="#9a32cd" stroke-dasharray="5,2" d="M39.56,-189.14C109.13,-189.14 310.8,-189.14 402.69,-189.14"/>
<polygon fill="#9a32cd" stroke="#9a32cd" points="39.86,-185.64 29.86,-189.14 39.86,-192.64 39.86,-185.64"/>
</a>
</g>
<text text-anchor="middle" x="162.05" y="-190.89" font-family="Times,serif" font-size="10.00" fill="grey"> elements</text>
</g>
<!-- Node25 -->
<g id="Node000025" class="node">
<title>Node25</title>
<g id="a_Node000025"><a xlink:title=" ">
<polygon fill="white" stroke="#666666" points="211.3,-115.77 112.8,-115.77 112.8,-96.52 211.3,-96.52 211.3,-115.77"/>
<text text-anchor="middle" x="162.05" y="-102.27" font-family="Times,serif" font-size="10.00">std::shared_ptr&lt; T &gt;</text>
</a>
</g>
</g>
<!-- Node11&#45;&gt;Node25 -->
<g id="edge32_Node000025_Node000011" class="edge">
<title>Node11&#45;&gt;Node25</title>
<g id="a_edge32_Node000025_Node000011"><a xlink:title=" ">
<path fill="none" stroke="#9a32cd" stroke-dasharray="5,2" d="M23.05,-169.01C28.2,-158.01 36.03,-145.02 46.8,-136.89 65.66,-122.67 90.63,-115.02 112.41,-110.91"/>
<polygon fill="#9a32cd" stroke="#9a32cd" points="19.46,-167.51 18.79,-178.08 25.91,-170.24 19.46,-167.51"/>
</a>
</g>
<text text-anchor="middle" x="65.18" y="-138.89" font-family="Times,serif" font-size="10.00" fill="grey"> ptr</text>
</g>
<!-- Node26 -->
<g id="Node000026" class="node">
<title>Node26</title>
<g id="a_Node000026"><a xlink:title=" ">
<polygon fill="white" stroke="#666666" points="201.55,-152.77 122.55,-152.77 122.55,-133.52 201.55,-133.52 201.55,-152.77"/>
<text text-anchor="middle" x="162.05" y="-139.27" font-family="Times,serif" font-size="10.00">std::deque&lt; T &gt;</text>
</a>
</g>
</g>
<!-- Node11&#45;&gt;Node26 -->
<g id="edge34_Node000026_Node000011" class="edge">
<title>Node11&#45;&gt;Node26</title>
<g id="a_edge34_Node000026_Node000011"><a xlink:title=" ">
<path fill="none" stroke="#9a32cd" stroke-dasharray="5,2" d="M33.5,-172.11C37.63,-168.97 42.16,-166.01 46.8,-163.89 70.46,-153.09 99.28,-147.9 122.06,-145.42"/>
<polygon fill="#9a32cd" stroke="#9a32cd" points="31.66,-169.94 26.27,-179.06 36.17,-175.29 31.66,-169.94"/>
</a>
</g>
<text text-anchor="middle" x="65.18" y="-165.89" font-family="Times,serif" font-size="10.00" fill="grey"> elements</text>
</g>
<!-- Node12&#45;&gt;Node9 -->
<g id="edge11_Node000009_Node000012" class="edge">
<title>Node12&#45;&gt;Node9</title>
<g id="a_edge11_Node000009_Node000012"><a xlink:title=" ">
<path fill="none" stroke="orange" stroke-dasharray="5,2" d="M213.19,-448.32C260.72,-448.49 332.36,-448.74 384.26,-448.92"/>
<polygon fill="orange" stroke="orange" points="213.26,-444.82 203.25,-448.28 213.24,-451.82 213.26,-444.82"/>
</a>
</g>
<text text-anchor="middle" x="303.55" y="-449.89" font-family="Times,serif" font-size="10.00" fill="grey"> &lt; BasePacketPtr &gt;</text>
</g>
<!-- Node13 -->
<g id="Node000013" class="node">
<title>Node13</title>
<g id="a_Node000013"><a xlink:title=" ">
<polygon fill="white" stroke="#666666" points="510.43,-602.02 390.18,-602.02 390.18,-560.27 510.43,-560.27 510.43,-602.02"/>
<text text-anchor="start" x="398.18" y="-588.52" font-family="Times,serif" font-size="10.00">std::vector&lt; std::pair</text>
<text text-anchor="start" x="398.18" y="-577.27" font-family="Times,serif" font-size="10.00">&lt; UniquePacketID, shared</text>
<text text-anchor="middle" x="450.3" y="-566.02" font-family="Times,serif" font-size="10.00">_packet_promise &gt; &gt;</text>
</a>
</g>
</g>
<!-- Node12&#45;&gt;Node13 -->
<g id="edge15_Node000013_Node000012" class="edge">
<title>Node12&#45;&gt;Node13</title>
<g id="a_edge15_Node000013_Node000012"><a xlink:title=" ">
<path fill="none" stroke="orange" stroke-dasharray="5,2" d="M184.46,-465.04C196.66,-475.41 211.65,-489.49 222.55,-504.14 233.23,-518.5 226.18,-529.49 240.55,-540.14 286.18,-573.98 310.88,-550.35 366.55,-561.64 374.07,-563.17 381.95,-564.88 389.73,-566.64"/>
<polygon fill="orange" stroke="orange" points="187.1,-461.85 177.16,-458.18 182.64,-467.25 187.1,-461.85"/>
</a>
</g>
<text text-anchor="start" x="240.55" y="-574.14" font-family="Times,serif" font-size="10.00" fill="grey"> &lt; std::pair&lt; UniquePacket</text>
<text text-anchor="middle" x="303.55" y="-562.89" font-family="Times,serif" font-size="10.00" fill="grey">ID, shared_packet_promise &gt; &gt;</text>
</g>
<!-- Node15 -->
<g id="Node000015" class="node">
<title>Node15</title>
<g id="a_Node000015"><a xlink:title=" ">
<polygon fill="white" stroke="#666666" points="513.05,-663.02 387.55,-663.02 387.55,-621.27 513.05,-621.27 513.05,-663.02"/>
<text text-anchor="start" x="395.55" y="-649.52" font-family="Times,serif" font-size="10.00">std::vector&lt; std::pair</text>
<text text-anchor="start" x="395.55" y="-638.27" font-family="Times,serif" font-size="10.00">&lt; UniquePacketID, promise</text>
<text text-anchor="middle" x="450.3" y="-627.02" font-family="Times,serif" font-size="10.00">_filter &gt; &gt;</text>
</a>
</g>
</g>
<!-- Node12&#45;&gt;Node15 -->
<g id="edge18_Node000015_Node000012" class="edge">
<title>Node12&#45;&gt;Node15</title>
<g id="a_edge18_Node000015_Node000012"><a xlink:title=" ">
<path fill="none" stroke="orange" stroke-dasharray="5,2" d="M187.15,-464.7C199.73,-474.65 214.2,-488.42 222.55,-504.14 245.99,-548.28 204.65,-580.38 240.55,-615.14 251.02,-625.28 329.48,-633.27 387.14,-637.85"/>
<polygon fill="orange" stroke="orange" points="189.54,-461.36 179.44,-458.16 185.34,-466.96 189.54,-461.36"/>
</a>
</g>
<text text-anchor="start" x="250.3" y="-648.14" font-family="Times,serif" font-size="10.00" fill="grey"> &lt; std::pair&lt; UniquePacket</text>
<text text-anchor="middle" x="303.55" y="-636.89" font-family="Times,serif" font-size="10.00" fill="grey">ID, promise_filter &gt; &gt;</text>
</g>
<!-- Node17 -->
<g id="Node000017" class="node">
<title>Node17</title>
<g id="a_Node000017"><a xlink:title=" ">
<polygon fill="white" stroke="#666666" points="512.3,-542.02 388.3,-542.02 388.3,-500.27 512.3,-500.27 512.3,-542.02"/>
<text text-anchor="start" x="396.3" y="-528.52" font-family="Times,serif" font-size="10.00">std::vector&lt; std::pair</text>
<text text-anchor="start" x="396.3" y="-517.27" font-family="Times,serif" font-size="10.00">&lt; UniquePacketID, handler</text>
<text text-anchor="middle" x="450.3" y="-506.02" font-family="Times,serif" font-size="10.00">_tuple &gt; &gt;</text>
</a>
</g>
</g>
<!-- Node12&#45;&gt;Node17 -->
<g id="edge21_Node000017_Node000012" class="edge">
<title>Node12&#45;&gt;Node17</title>
<g id="a_edge21_Node000017_Node000012"><a xlink:title=" ">
<path fill="none" stroke="orange" stroke-dasharray="5,2" d="M212.82,-459.22C254.14,-468.6 314.37,-482.71 366.55,-496.64 373.5,-498.5 380.75,-500.52 387.95,-502.58"/>
<polygon fill="orange" stroke="orange" points="213.75,-455.61 203.22,-456.82 212.2,-462.44 213.75,-455.61"/>
</a>
</g>
<text text-anchor="start" x="250.3" y="-509.14" font-family="Times,serif" font-size="10.00" fill="grey"> &lt; std::pair&lt; UniquePacket</text>
<text text-anchor="middle" x="303.55" y="-497.89" font-family="Times,serif" font-size="10.00" fill="grey">ID, handler_tuple &gt; &gt;</text>
</g>
<!-- Node28 -->
<g id="Node000028" class="node">
<title>Node28</title>
<g id="a_Node000028"><a xlink:title=" ">
<polygon fill="white" stroke="#666666" points="498.8,-395.39 401.8,-395.39 401.8,-364.89 498.8,-364.89 498.8,-395.39"/>
<text text-anchor="start" x="409.8" y="-381.89" font-family="Times,serif" font-size="10.00">std::vector&lt; promise</text>
<text text-anchor="middle" x="450.3" y="-370.64" font-family="Times,serif" font-size="10.00">_filter &gt;</text>
</a>
</g>
</g>
<!-- Node12&#45;&gt;Node28 -->
<g id="edge40_Node000028_Node000012" class="edge">
<title>Node12&#45;&gt;Node28</title>
<g id="a_edge40_Node000028_Node000012"><a xlink:title=" ">
<path fill="none" stroke="orange" stroke-dasharray="5,2" d="M195.89,-433.3C204.96,-428.47 214.52,-422.65 222.55,-416.14 232.17,-408.35 229.51,-400.49 240.55,-394.89 290.94,-369.34 357.13,-369.39 401.34,-373.37"/>
<polygon fill="orange" stroke="orange" points="194.66,-430.51 187.32,-438.15 197.83,-436.75 194.66,-430.51"/>
</a>
</g>
<text text-anchor="middle" x="303.55" y="-395.89" font-family="Times,serif" font-size="10.00" fill="grey"> &lt; promise_filter &gt;</text>
</g>
<!-- Node31 -->
<g id="Node000031" class="node">
<title>Node31</title>
<g id="a_Node000031"><a xlink:title=" ">
<polygon fill="white" stroke="#666666" points="498.05,-293.39 402.55,-293.39 402.55,-262.89 498.05,-262.89 498.05,-293.39"/>
<text text-anchor="start" x="410.55" y="-279.89" font-family="Times,serif" font-size="10.00">std::vector&lt; handler</text>
<text text-anchor="middle" x="450.3" y="-268.64" font-family="Times,serif" font-size="10.00">_tuple &gt;</text>
</a>
</g>
</g>
<!-- Node12&#45;&gt;Node31 -->
<g id="edge46_Node000031_Node000012" class="edge">
<title>Node12&#45;&gt;Node31</title>
<g id="a_edge46_Node000031_Node000012"><a xlink:title=" ">
<path fill="none" stroke="orange" stroke-dasharray="5,2" d="M202.98,-433.06C210.44,-428.63 217.47,-423.05 222.55,-416.14 247.55,-382.14 211.01,-353.04 240.55,-322.89 251.83,-311.38 344.22,-294.84 402.24,-285.43"/>
<polygon fill="orange" stroke="orange" points="201.65,-430.34 194.43,-438.09 204.91,-436.53 201.65,-430.34"/>
</a>
</g>
<text text-anchor="middle" x="303.55" y="-323.89" font-family="Times,serif" font-size="10.00" fill="grey"> &lt; handler_tuple &gt;</text>
</g>
<!-- Node13&#45;&gt;Node1 -->
<g id="edge13_Node000001_Node000013" class="edge">
<title>Node13&#45;&gt;Node1</title>
<g id="a_edge13_Node000001_Node000013"><a xlink:title=" ">
<path fill="none" stroke="#9a32cd" stroke-dasharray="5,2" d="M521.6,-578.02C632.63,-573.08 845.83,-563.6 941.88,-559.33"/>
<polygon fill="#9a32cd" stroke="#9a32cd" points="521.69,-574.55 511.85,-578.5 522,-581.55 521.69,-574.55"/>
</a>
</g>
<text text-anchor="middle" x="737.43" y="-572.89" font-family="Times,serif" font-size="10.00" fill="grey"> promise_map_input_</text>
</g>
<!-- Node14 -->
<g id="Node000014" class="node">
<title>Node14</title>
<g id="a_Node000014"><a xlink:title=" ">
<polygon fill="white" stroke="#666666" points="222.55,-623.39 101.55,-623.39 101.55,-592.89 222.55,-592.89 222.55,-623.39"/>
<text text-anchor="start" x="109.55" y="-609.89" font-family="Times,serif" font-size="10.00">pair&lt; UniquePacketID,</text>
<text text-anchor="middle" x="162.05" y="-598.64" font-family="Times,serif" font-size="10.00"> shared_packet_promise &gt;</text>
</a>
</g>
</g>
<!-- Node14&#45;&gt;Node13 -->
<g id="edge14_Node000013_Node000014" class="edge">
<title>Node14&#45;&gt;Node13</title>
<g id="a_edge14_Node000013_Node000014"><a xlink:title=" ">
<path fill="none" stroke="#9a32cd" stroke-dasharray="5,2" d="M233.63,-601.49C281.57,-596.96 344.29,-591.05 389.72,-586.76"/>
<polygon fill="#9a32cd" stroke="#9a32cd" points="233.34,-598.09 223.71,-602.52 233.99,-605.06 233.34,-598.09"/>
</a>
</g>
<text text-anchor="middle" x="303.55" y="-601.89" font-family="Times,serif" font-size="10.00" fill="grey"> elements</text>
</g>
<!-- Node15&#45;&gt;Node1 -->
<g id="edge16_Node000001_Node000015" class="edge">
<title>Node15&#45;&gt;Node1</title>
<g id="a_edge16_Node000001_Node000015"><a xlink:title=" ">
<path fill="none" stroke="#9a32cd" stroke-dasharray="5,2" d="M524.05,-634.66C617.33,-624.41 783.82,-603.96 924.3,-575.14 930.05,-573.96 936.04,-572.58 941.97,-571.1"/>
<polygon fill="#9a32cd" stroke="#9a32cd" points="523.88,-631.26 514.32,-635.82 524.64,-638.22 523.88,-631.26"/>
</a>
</g>
<text text-anchor="start" x="697.3" y="-630.14" font-family="Times,serif" font-size="10.00" fill="grey"> promise_filter_map</text>
<text text-anchor="middle" x="737.43" y="-618.89" font-family="Times,serif" font-size="10.00" fill="grey">_input_</text>
</g>
<!-- Node16 -->
<g id="Node000016" class="node">
<title>Node16</title>
<g id="a_Node000016"><a xlink:title=" ">
<polygon fill="white" stroke="#666666" points="216.18,-703.39 107.93,-703.39 107.93,-672.89 216.18,-672.89 216.18,-703.39"/>
<text text-anchor="start" x="115.93" y="-689.89" font-family="Times,serif" font-size="10.00">pair&lt; UniquePacketID,</text>
<text text-anchor="middle" x="162.05" y="-678.64" font-family="Times,serif" font-size="10.00"> promise_filter &gt;</text>
</a>
</g>
</g>
<!-- Node16&#45;&gt;Node15 -->
<g id="edge17_Node000015_Node000016" class="edge">
<title>Node16&#45;&gt;Node15</title>
<g id="a_edge17_Node000015_Node000016"><a xlink:title=" ">
<path fill="none" stroke="#9a32cd" stroke-dasharray="5,2" d="M227.31,-684.08C267.57,-680.83 320.4,-675.26 366.55,-666.14 373.3,-664.81 380.3,-663.18 387.23,-661.41"/>
<polygon fill="#9a32cd" stroke="#9a32cd" points="227.26,-680.65 217.57,-684.92 227.81,-687.63 227.26,-680.65"/>
</a>
</g>
<text text-anchor="middle" x="303.55" y="-683.89" font-family="Times,serif" font-size="10.00" fill="grey"> elements</text>
</g>
<!-- Node17&#45;&gt;Node1 -->
<g id="edge19_Node000001_Node000017" class="edge">
<title>Node17&#45;&gt;Node1</title>
<g id="a_edge19_Node000001_Node000017"><a xlink:title=" ">
<path fill="none" stroke="#9a32cd" stroke-dasharray="5,2" d="M523.48,-525.96C635.03,-533.4 846.39,-547.5 941.89,-553.87"/>
<polygon fill="#9a32cd" stroke="#9a32cd" points="523.89,-522.41 513.68,-525.24 523.42,-529.4 523.89,-522.41"/>
</a>
</g>
<text text-anchor="middle" x="737.43" y="-545.89" font-family="Times,serif" font-size="10.00" fill="grey"> default_handlers_input_</text>
</g>
<!-- Node18 -->
<g id="Node000018" class="node">
<title>Node18</title>
<g id="a_Node000018"><a xlink:title=" ">
<polygon fill="white" stroke="#666666" points="216.18,-543.39 107.93,-543.39 107.93,-512.89 216.18,-512.89 216.18,-543.39"/>
<text text-anchor="start" x="115.93" y="-529.89" font-family="Times,serif" font-size="10.00">pair&lt; UniquePacketID,</text>
<text text-anchor="middle" x="162.05" y="-518.64" font-family="Times,serif" font-size="10.00"> handler_tuple &gt;</text>
</a>
</g>
</g>
<!-- Node18&#45;&gt;Node17 -->
<g id="edge20_Node000017_Node000018" class="edge">
<title>Node18&#45;&gt;Node17</title>
<g id="a_edge20_Node000017_Node000018"><a xlink:title=" ">
<path fill="none" stroke="#9a32cd" stroke-dasharray="5,2" d="M227.44,-526.57C275.44,-525.4 340.58,-523.8 387.86,-522.65"/>
<polygon fill="#9a32cd" stroke="#9a32cd" points="227.47,-523.09 217.56,-526.84 227.64,-530.09 227.47,-523.09"/>
</a>
</g>
<text text-anchor="middle" x="303.55" y="-526.89" font-family="Times,serif" font-size="10.00" fill="grey"> elements</text>
</g>
<!-- Node19&#45;&gt;Node1 -->
<g id="edge22_Node000001_Node000019" class="edge">
<title>Node19&#45;&gt;Node1</title>
<g id="a_edge22_Node000001_Node000019"><a xlink:title=" ">
<path fill="none" stroke="#9a32cd" stroke-dasharray="5,2" d="M812.36,-416.39C848.75,-419.27 891.69,-427.84 924.3,-449.89 957.53,-472.37 977.3,-517.52 985.87,-541.44"/>
<polygon fill="#9a32cd" stroke="#9a32cd" points="813,-412.86 802.79,-415.7 812.54,-419.84 813,-412.86"/>
</a>
</g>
<text text-anchor="middle" x="876.68" y="-450.89" font-family="Times,serif" font-size="10.00" fill="grey"> unprocessed_packets_</text>
</g>
<!-- Node20 -->
<g id="Node000020" class="node">
<title>Node20</title>
<g id="a_Node000020"><a xlink:title=" ">
<polygon fill="white" stroke="#666666" points="490.93,-244.77 409.68,-244.77 409.68,-225.52 490.93,-225.52 490.93,-244.77"/>
<text text-anchor="middle" x="450.3" y="-231.27" font-family="Times,serif" font-size="10.00">UniquePacketID</text>
</a>
</g>
</g>
<!-- Node20&#45;&gt;Node19 -->
<g id="edge23_Node000019_Node000020" class="edge">
<title>Node20&#45;&gt;Node19</title>
<g id="a_edge23_Node000019_Node000020"><a xlink:title=" ">
<path fill="none" stroke="#9a32cd" stroke-dasharray="5,2" d="M501.6,-243.33C507.07,-246.01 512.09,-249.53 516.05,-254.14 554.93,-299.38 492.14,-344.7 534.05,-387.14 553.08,-406.42 621.25,-413.37 673.27,-415.85"/>
<polygon fill="#9a32cd" stroke="#9a32cd" points="502.95,-239.71 492.36,-239.34 500.41,-246.23 502.95,-239.71"/>
</a>
</g>
<text text-anchor="middle" x="589.93" y="-414.89" font-family="Times,serif" font-size="10.00" fill="grey"> keys</text>
</g>
<!-- Node23 -->
<g id="Node000023" class="node">
<title>Node23</title>
<g id="a_Node000023"><a xlink:title=" ">
<polygon fill="white" stroke="#666666" points="792.68,-135.64 682.18,-135.64 682.18,-82.64 792.68,-82.64 792.68,-135.64"/>
<text text-anchor="start" x="690.18" y="-122.14" font-family="Times,serif" font-size="10.00">std::unordered_map</text>
<text text-anchor="start" x="690.18" y="-110.89" font-family="Times,serif" font-size="10.00">&lt; UniquePacketID, std</text>
<text text-anchor="start" x="690.18" y="-99.64" font-family="Times,serif" font-size="10.00">::deque&lt; shared_packet</text>
<text text-anchor="middle" x="737.43" y="-88.39" font-family="Times,serif" font-size="10.00">_promise &gt; &gt;</text>
</a>
</g>
</g>
<!-- Node20&#45;&gt;Node23 -->
<g id="edge29_Node000023_Node000020" class="edge">
<title>Node20&#45;&gt;Node23</title>
<g id="a_edge29_Node000023_Node000020"><a xlink:title=" ">
<path fill="none" stroke="#9a32cd" stroke-dasharray="5,2" d="M501.04,-224.58C506.71,-221.65 511.92,-217.91 516.05,-213.14 544.55,-180.26 501.11,-145.33 534.05,-116.89 574.11,-82.32 637.01,-85.72 682.05,-94.39"/>
<polygon fill="#9a32cd" stroke="#9a32cd" points="500.02,-221.64 492.2,-228.78 502.77,-228.08 500.02,-221.64"/>
</a>
</g>
<text text-anchor="middle" x="589.93" y="-118.89" font-family="Times,serif" font-size="10.00" fill="grey"> keys</text>
</g>
<!-- Node27 -->
<g id="Node000027" class="node">
<title>Node27</title>
<g id="a_Node000027"><a xlink:title=" ">
<polygon fill="white" stroke="#666666" points="800.18,-374.02 674.68,-374.02 674.68,-332.27 800.18,-332.27 800.18,-374.02"/>
<text text-anchor="start" x="682.68" y="-360.52" font-family="Times,serif" font-size="10.00">std::unordered_map</text>
<text text-anchor="start" x="682.68" y="-349.27" font-family="Times,serif" font-size="10.00">&lt; UniquePacketID, std</text>
<text text-anchor="middle" x="737.43" y="-338.02" font-family="Times,serif" font-size="10.00">::vector&lt; promise_filter &gt; &gt;</text>
</a>
</g>
</g>
<!-- Node20&#45;&gt;Node27 -->
<g id="edge37_Node000027_Node000020" class="edge">
<title>Node20&#45;&gt;Node27</title>
<g id="a_edge37_Node000027_Node000020"><a xlink:title=" ">
<path fill="none" stroke="#9a32cd" stroke-dasharray="5,2" d="M501.34,-243.84C506.81,-246.44 511.9,-249.81 516.05,-254.14 539.16,-278.28 509.11,-304.9 534.05,-327.14 544.46,-336.43 618.66,-344.13 674.22,-348.68"/>
<polygon fill="#9a32cd" stroke="#9a32cd" points="502.76,-240.25 492.17,-239.93 500.24,-246.79 502.76,-240.25"/>
</a>
</g>
<text text-anchor="middle" x="589.93" y="-346.89" font-family="Times,serif" font-size="10.00" fill="grey"> keys</text>
</g>
<!-- Node30 -->
<g id="Node000030" class="node">
<title>Node30</title>
<g id="a_Node000030"><a xlink:title=" ">
<polygon fill="white" stroke="#666666" points="799.8,-273.02 675.05,-273.02 675.05,-231.27 799.8,-231.27 799.8,-273.02"/>
<text text-anchor="start" x="683.05" y="-259.52" font-family="Times,serif" font-size="10.00">std::unordered_map</text>
<text text-anchor="start" x="683.05" y="-248.27" font-family="Times,serif" font-size="10.00">&lt; UniquePacketID, std</text>
<text text-anchor="middle" x="737.43" y="-237.02" font-family="Times,serif" font-size="10.00">::vector&lt; handler_tuple &gt; &gt;</text>
</a>
</g>
</g>
<!-- Node20&#45;&gt;Node30 -->
<g id="edge43_Node000030_Node000020" class="edge">
<title>Node20&#45;&gt;Node30</title>
<g id="a_edge43_Node000030_Node000020"><a xlink:title=" ">
<path fill="none" stroke="#9a32cd" stroke-dasharray="5,2" d="M502.14,-232.93C541.45,-231.81 597.18,-231.48 645.8,-235.89 655.19,-236.75 665.07,-238.07 674.71,-239.6"/>
<polygon fill="#9a32cd" stroke="#9a32cd" points="502.14,-229.46 492.25,-233.28 502.36,-236.46 502.14,-229.46"/>
</a>
</g>
<text text-anchor="middle" x="589.93" y="-236.89" font-family="Times,serif" font-size="10.00" fill="grey"> keys</text>
</g>
<!-- Node21&#45;&gt;Node19 -->
<g id="edge25_Node000019_Node000021" class="edge">
<title>Node21&#45;&gt;Node19</title>
<g id="a_edge25_Node000019_Node000021"><a xlink:title=" ">
<path fill="none" stroke="orange" stroke-dasharray="5,2" d="M507.07,-208.07C510.35,-210.45 513.4,-213.14 516.05,-216.14 535.88,-238.62 511.85,-261 534.05,-281.14 571.39,-315.02 609.41,-265.75 645.8,-300.64 672.89,-326.62 640.38,-353.82 663.8,-383.14 667.71,-388.04 672.49,-392.26 677.71,-395.9"/>
<polygon fill="orange" stroke="orange" points="509.24,-204.68 498.89,-202.4 505.56,-210.63 509.24,-204.68"/>
</a>
</g>
<text text-anchor="start" x="534.05" y="-313.14" font-family="Times,serif" font-size="10.00" fill="grey"> &lt; UniquePacketID, std</text>
<text text-anchor="middle" x="589.93" y="-301.89" font-family="Times,serif" font-size="10.00" fill="grey">::vector&lt; BasePacketPtr &gt; &gt;</text>
</g>
<!-- Node21&#45;&gt;Node23 -->
<g id="edge35_Node000023_Node000021" class="edge">
<title>Node21&#45;&gt;Node23</title>
<g id="a_edge35_Node000023_Node000021"><a xlink:title=" ">
<path fill="none" stroke="orange" stroke-dasharray="5,2" d="M483.19,-166.72C495.14,-156.79 507.81,-144.18 516.05,-130.14 533.8,-99.93 506.59,-75.16 534.05,-53.39 572.97,-22.54 600.62,-32.77 645.8,-53.39 656.91,-58.46 654.1,-66.73 663.8,-74.14 669.36,-78.39 675.52,-82.32 681.83,-85.88"/>
<polygon fill="orange" stroke="orange" points="481.35,-164.5 475.68,-173.45 485.7,-169.98 481.35,-164.5"/>
</a>
</g>
<text text-anchor="start" x="542.68" y="-78.39" font-family="Times,serif" font-size="10.00" fill="grey"> &lt; UniquePacketID, std</text>
<text text-anchor="start" x="542.68" y="-67.14" font-family="Times,serif" font-size="10.00" fill="grey">::deque&lt; shared_packet</text>
<text text-anchor="middle" x="589.93" y="-55.89" font-family="Times,serif" font-size="10.00" fill="grey">_promise &gt; &gt;</text>
</g>
<!-- Node21&#45;&gt;Node27 -->
<g id="edge41_Node000027_Node000021" class="edge">
<title>Node21&#45;&gt;Node27</title>
<g id="a_edge41_Node000027_Node000021"><a xlink:title=" ">
<path fill="none" stroke="orange" stroke-dasharray="5,2" d="M508.82,-177.59C551.6,-172.51 608.75,-173.66 645.8,-205.64 672.24,-228.47 646.63,-251.73 663.8,-282.14 674.72,-301.49 692.49,-318.99 707.71,-331.78"/>
<polygon fill="orange" stroke="orange" points="508.44,-174.24 499,-179.04 509.37,-181.18 508.44,-174.24"/>
</a>
</g>
<text text-anchor="start" x="535.18" y="-218.14" font-family="Times,serif" font-size="10.00" fill="grey"> &lt; UniquePacketID, std</text>
<text text-anchor="middle" x="589.93" y="-206.89" font-family="Times,serif" font-size="10.00" fill="grey">::vector&lt; promise_filter &gt; &gt;</text>
</g>
<!-- Node21&#45;&gt;Node30 -->
<g id="edge47_Node000030_Node000021" class="edge">
<title>Node21&#45;&gt;Node30</title>
<g id="a_edge47_Node000030_Node000021"><a xlink:title=" ">
<path fill="none" stroke="orange" stroke-dasharray="5,2" d="M482.46,-167.65C497.36,-158.64 515.88,-149.22 534.05,-144.64 582.21,-132.52 600.76,-123.71 645.8,-144.64 684.09,-162.45 712.02,-205.28 726.1,-231.19"/>
<polygon fill="orange" stroke="orange" points="480.84,-165.16 474.23,-173.45 484.56,-171.09 480.84,-165.16"/>
</a>
</g>
<text text-anchor="start" x="535.55" y="-158.14" font-family="Times,serif" font-size="10.00" fill="grey"> &lt; UniquePacketID, std</text>
<text text-anchor="middle" x="589.93" y="-146.89" font-family="Times,serif" font-size="10.00" fill="grey">::vector&lt; handler_tuple &gt; &gt;</text>
</g>
<!-- Node22 -->
<g id="Node000022" class="node">
<title>Node22</title>
<g id="a_Node000022"><a xlink:title=" ">
<polygon fill="white" stroke="#666666" points="176.45,-237.77 147.65,-237.77 147.65,-218.52 176.45,-218.52 176.45,-237.77"/>
<text text-anchor="middle" x="162.05" y="-224.27" font-family="Times,serif" font-size="10.00">K</text>
</a>
</g>
</g>
<!-- Node22&#45;&gt;Node21 -->
<g id="edge26_Node000021_Node000022" class="edge">
<title>Node22&#45;&gt;Node21</title>
<g id="a_edge26_Node000021_Node000022"><a xlink:title=" ">
<path fill="none" stroke="#9a32cd" stroke-dasharray="5,2" d="M187.74,-225.48C226.08,-221.25 302.21,-212.53 366.55,-203.14 378.23,-201.44 390.8,-199.41 402.53,-197.44"/>
<polygon fill="#9a32cd" stroke="#9a32cd" points="187.46,-222.1 177.9,-226.66 188.22,-229.05 187.46,-222.1"/>
</a>
</g>
<text text-anchor="middle" x="303.55" y="-220.89" font-family="Times,serif" font-size="10.00" fill="grey"> keys</text>
</g>
<!-- Node23&#45;&gt;Node1 -->
<g id="edge28_Node000001_Node000023" class="edge">
<title>Node23&#45;&gt;Node1</title>
<g id="a_edge28_Node000001_Node000023"><a xlink:title=" ">
<path fill="none" stroke="#9a32cd" stroke-dasharray="5,2" d="M793.47,-141.83C835.69,-169.77 892.03,-213.83 924.3,-266.89 980.85,-359.88 989.45,-496.19 990.72,-541.71"/>
<polygon fill="#9a32cd" stroke="#9a32cd" points="795.71,-138.46 785.42,-135.94 791.89,-144.32 795.71,-138.46"/>
</a>
</g>
<text text-anchor="middle" x="876.68" y="-267.89" font-family="Times,serif" font-size="10.00" fill="grey"> promise_map_</text>
</g>
<!-- Node24 -->
<g id="Node000024" class="node">
<title>Node24</title>
<g id="a_Node000024"><a xlink:title=" ">
<polygon fill="white" stroke="#666666" points="496.55,-121.39 404.05,-121.39 404.05,-90.89 496.55,-90.89 496.55,-121.39"/>
<text text-anchor="start" x="412.05" y="-107.89" font-family="Times,serif" font-size="10.00">std::deque&lt; shared</text>
<text text-anchor="middle" x="450.3" y="-96.64" font-family="Times,serif" font-size="10.00">_packet_promise &gt;</text>
</a>
</g>
</g>
<!-- Node24&#45;&gt;Node23 -->
<g id="edge30_Node000023_Node000024" class="edge">
<title>Node24&#45;&gt;Node23</title>
<g id="a_edge30_Node000023_Node000024"><a xlink:title=" ">
<path fill="none" stroke="#9a32cd" stroke-dasharray="5,2" d="M466.32,-81.47C480.72,-60.39 504.61,-31.55 534.05,-18.89 579.68,0.72 605.61,10.28 645.8,-18.89 666.7,-34.07 646.8,-54.7 663.8,-74.14 668.87,-79.94 675.11,-84.86 681.79,-89.02"/>
<polygon fill="#9a32cd" stroke="#9a32cd" points="462.94,-79.23 460.38,-89.51 468.79,-83.07 462.94,-79.23"/>
</a>
</g>
<text text-anchor="middle" x="589.93" y="-20.89" font-family="Times,serif" font-size="10.00" fill="grey"> elements</text>
</g>
<!-- Node25&#45;&gt;Node24 -->
<g id="edge31_Node000024_Node000025" class="edge">
<title>Node25&#45;&gt;Node24</title>
<g id="a_edge31_Node000024_Node000025"><a xlink:title=" ">
<path fill="none" stroke="#9a32cd" stroke-dasharray="5,2" d="M222.39,-106.14C276.31,-106.14 354.71,-106.14 403.82,-106.14"/>
<polygon fill="#9a32cd" stroke="#9a32cd" points="222.61,-102.64 212.61,-106.14 222.61,-109.64 222.61,-102.64"/>
</a>
</g>
<text text-anchor="middle" x="303.55" y="-107.89" font-family="Times,serif" font-size="10.00" fill="grey"> elements</text>
</g>
<!-- Node26&#45;&gt;Node24 -->
<g id="edge33_Node000024_Node000026" class="edge">
<title>Node26&#45;&gt;Node24</title>
<g id="a_edge33_Node000024_Node000026"><a xlink:title=" ">
<path fill="none" stroke="orange" stroke-dasharray="5,2" d="M212.61,-138.31C253.88,-134.11 314.14,-127.53 366.55,-120.14 378.67,-118.44 391.74,-116.34 403.84,-114.3"/>
<polygon fill="orange" stroke="orange" points="212.36,-134.92 202.76,-139.41 213.07,-141.89 212.36,-134.92"/>
</a>
</g>
<text text-anchor="middle" x="303.55" y="-137.89" font-family="Times,serif" font-size="10.00" fill="grey"> &lt; shared_packet_promise &gt;</text>
</g>
<!-- Node27&#45;&gt;Node1 -->
<g id="edge36_Node000001_Node000027" class="edge">
<title>Node27&#45;&gt;Node1</title>
<g id="a_edge36_Node000001_Node000027"><a xlink:title=" ">
<path fill="none" stroke="#9a32cd" stroke-dasharray="5,2" d="M811.33,-357.68C848.84,-363.44 893.12,-375.97 924.3,-402.89 967.57,-440.26 983.64,-510.83 988.79,-541.85"/>
<polygon fill="#9a32cd" stroke="#9a32cd" points="811.82,-354.08 801.43,-356.17 810.86,-361.01 811.82,-354.08"/>
</a>
</g>
<text text-anchor="middle" x="876.68" y="-403.89" font-family="Times,serif" font-size="10.00" fill="grey"> promise_filter_map_</text>
</g>
<!-- Node28&#45;&gt;Node27 -->
<g id="edge38_Node000027_Node000028" class="edge">
<title>Node28&#45;&gt;Node27</title>
<g id="a_edge38_Node000027_Node000028"><a xlink:title=" ">
<path fill="none" stroke="#9a32cd" stroke-dasharray="5,2" d="M509.85,-374.6C557.79,-370.06 625.44,-363.65 674.32,-359.03"/>
<polygon fill="#9a32cd" stroke="#9a32cd" points="509.65,-371.2 500.02,-375.62 510.31,-378.17 509.65,-371.2"/>
</a>
</g>
<text text-anchor="middle" x="589.93" y="-373.89" font-family="Times,serif" font-size="10.00" fill="grey"> elements</text>
</g>
<!-- Node29 -->
<g id="Node000029" class="node">
<title>Node29</title>
<g id="a_Node000029"><a xlink:title=" ">
<polygon fill="white" stroke="#666666" points="197.8,-355.77 126.3,-355.77 126.3,-336.52 197.8,-336.52 197.8,-355.77"/>
<text text-anchor="middle" x="162.05" y="-342.27" font-family="Times,serif" font-size="10.00">promise_filter</text>
</a>
</g>
</g>
<!-- Node29&#45;&gt;Node28 -->
<g id="edge39_Node000028_Node000029" class="edge">
<title>Node29&#45;&gt;Node28</title>
<g id="a_edge39_Node000028_Node000029"><a xlink:title=" ">
<path fill="none" stroke="#9a32cd" stroke-dasharray="5,2" d="M208.88,-341.43C250.44,-338.31 313.19,-336.47 366.55,-346.89 384.33,-350.37 403.14,-357.61 418.33,-364.45"/>
<polygon fill="#9a32cd" stroke="#9a32cd" points="208.69,-338.02 199.01,-342.32 209.26,-344.99 208.69,-338.02"/>
</a>
</g>
<text text-anchor="middle" x="303.55" y="-347.89" font-family="Times,serif" font-size="10.00" fill="grey"> elements</text>
</g>
<!-- Node30&#45;&gt;Node1 -->
<g id="edge42_Node000001_Node000030" class="edge">
<title>Node30&#45;&gt;Node1</title>
<g id="a_edge42_Node000001_Node000030"><a xlink:title=" ">
<path fill="none" stroke="#9a32cd" stroke-dasharray="5,2" d="M810.1,-273.04C848.82,-287.7 894.64,-311.01 924.3,-345.89 974.99,-405.52 987.19,-503.84 990.06,-541.66"/>
<polygon fill="#9a32cd" stroke="#9a32cd" points="811.5,-269.46 800.9,-269.32 809.09,-276.03 811.5,-269.46"/>
</a>
</g>
<text text-anchor="middle" x="876.68" y="-346.89" font-family="Times,serif" font-size="10.00" fill="grey"> default_handlers_</text>
</g>
<!-- Node31&#45;&gt;Node30 -->
<g id="edge44_Node000030_Node000031" class="edge">
<title>Node31&#45;&gt;Node30</title>
<g id="a_edge44_Node000030_Node000031"><a xlink:title=" ">
<path fill="none" stroke="#9a32cd" stroke-dasharray="5,2" d="M509.02,-272.3C517.42,-271.48 525.95,-270.65 534.05,-269.89 581.28,-265.47 634.74,-260.79 674.86,-257.35"/>
<polygon fill="#9a32cd" stroke="#9a32cd" points="508.72,-268.91 499.12,-273.38 509.41,-275.88 508.72,-268.91"/>
</a>
</g>
<text text-anchor="middle" x="589.93" y="-270.89" font-family="Times,serif" font-size="10.00" fill="grey"> elements</text>
</g>
<!-- Node32 -->
<g id="Node000032" class="node">
<title>Node32</title>
<g id="a_Node000032"><a xlink:title=" ">
<polygon fill="white" stroke="#666666" points="197.43,-287.77 126.68,-287.77 126.68,-268.52 197.43,-268.52 197.43,-287.77"/>
<text text-anchor="middle" x="162.05" y="-274.27" font-family="Times,serif" font-size="10.00">handler_tuple</text>
</a>
</g>
</g>
<!-- Node32&#45;&gt;Node31 -->
<g id="edge45_Node000031_Node000032" class="edge">
<title>Node32&#45;&gt;Node31</title>
<g id="a_edge45_Node000031_Node000032"><a xlink:title=" ">
<path fill="none" stroke="#9a32cd" stroke-dasharray="5,2" d="M208.62,-278.14C261.58,-278.14 348.54,-278.14 402.16,-278.14"/>
<polygon fill="#9a32cd" stroke="#9a32cd" points="208.86,-274.64 198.86,-278.14 208.86,-281.64 208.86,-274.64"/>
</a>
</g>
<text text-anchor="middle" x="303.55" y="-279.89" font-family="Times,serif" font-size="10.00" fill="grey"> elements</text>
</g>
<!-- Node33 -->
<g id="Node000033" class="node">
<title>Node33</title>
<g id="a_Node000033"><a xlink:title=" ">
<polygon fill="white" stroke="#666666" points="769.8,-64.77 705.05,-64.77 705.05,-45.52 769.8,-45.52 769.8,-64.77"/>
<text text-anchor="middle" x="737.43" y="-51.27" font-family="Times,serif" font-size="10.00">atomic_bool</text>
</a>
</g>
</g>
<!-- Node33&#45;&gt;Node1 -->
<g id="edge48_Node000001_Node000033" class="edge">
<title>Node33&#45;&gt;Node1</title>
<g id="a_edge48_Node000001_Node000033"><a xlink:title=" ">
<path fill="none" stroke="#9a32cd" stroke-dasharray="5,2" d="M780.46,-62.76C790.72,-65.38 801.49,-68.78 811.05,-73.14 867.05,-98.71 891.58,-100.75 924.3,-152.89 966.35,-219.93 985.64,-475.81 989.96,-541.63"/>
<polygon fill="#9a32cd" stroke="#9a32cd" points="781.56,-59.19 771.02,-60.32 779.96,-66.01 781.56,-59.19"/>
</a>
</g>
<text text-anchor="middle" x="876.68" y="-154.89" font-family="Times,serif" font-size="10.00" fill="grey"> alive_</text>
</g>
</g>
</svg>
