<?xml version="1.0" encoding="UTF-8" standalone="no"?>
<!DOCTYPE svg PUBLIC "-//W3C//DTD SVG 1.1//EN"
 "http://www.w3.org/Graphics/SVG/1.1/DTD/svg11.dtd">
<!-- Generated by graphviz version 8.1.0 (20230707.0739)
 -->
<!-- Title: mal_packet_weaver::PacketDispatcher Pages: 1 -->
<!--zoomable 945 -->

<svg id="main" version="1.1" xmlns="http://www.w3.org/2000/svg" xmlns:xlink="http://www.w3.org/1999/xlink" xml:space="preserve" onload="init(evt)">
<style type="text/css"><![CDATA[
.node, .edge {opacity: 0.7;}
.node.selected, .edge.selected {opacity: 1;}
.edge:hover path { stroke: red; }
.edge:hover polygon { stroke: red; fill: red; }
]]></style>

<defs>
  <circle id="rim" cx="0" cy="0" r="7"/>
  <circle id="rim2" cx="0" cy="0" r="3.5"/>
  <g id="zoomPlus">
    <use xlink:href="#rim" fill="#404040"><set attributeName="fill" to="#808080" begin="zoomplus.mouseover" end="zoomplus.mouseout"/></use>
    <path d="M-4,0h8M0,-4v8" fill="none" stroke="white" stroke-width="1.5" pointer-events="none"/>
  </g>
  <g id="zoomMin">
    <use xlink:href="#rim" fill="#404040"><set attributeName="fill" to="#808080" begin="zoomminus.mouseover" end="zoomminus.mouseout"/></use>
    <path d="M-4,0h8" fill="none" stroke="white" stroke-width="1.5" pointer-events="none"/>
  </g>
  <g id="arrowUp" transform="translate(30 24)">
    <use xlink:href="#rim"/>
    <path pointer-events="none" fill="none" stroke="white" stroke-width="1.5" d="M0,-3.0v7 M-2.5,-0.5L0,-3.0L2.5,-0.5"/>
  </g>
  <g id="arrowRight" transform="rotate(90) translate(36 -43)">
    <use xlink:href="#rim"/>
    <path pointer-events="none" fill="none" stroke="white" stroke-width="1.5" d="M0,-3.0v7 M-2.5,-0.5L0,-3.0L2.5,-0.5"/>
  </g>
  <g id="arrowDown" transform="rotate(180) translate(-30 -48)">
    <use xlink:href="#rim"/>
    <path pointer-events="none" fill="none" stroke="white" stroke-width="1.5" d="M0,-3.0v7 M-2.5,-0.5L0,-3.0L2.5,-0.5"/>
  </g>
  <g id="arrowLeft" transform="rotate(270) translate(-36 17)">
    <use xlink:href="#rim"/>
    <path pointer-events="none" fill="none" stroke="white" stroke-width="1.5" d="M0,-3.0v7 M-2.5,-0.5L0,-3.0L2.5,-0.5"/>
  </g>
  <g id="resetDef">
    <use xlink:href="#rim2" fill="#404040"><set attributeName="fill" to="#808080" begin="reset.mouseover" end="reset.mouseout"/></use>
  </g>
</defs>
<script type="application/ecmascript">
var viewWidth = 1050;
var viewHeight = 945;
var sectionId = 'dynsection-1';
</script>
<script type="application/ecmascript" xlink:href="../../svg.min.js"/>
<svg id="graph" class="graph">
<g id="viewport">
<title>mal_packet_weaver::PacketDispatcher</title>
<!-- Node1 -->
<g id="Node000001" class="node">
<title>Node1</title>
<g id="a_Node000001"><a xlink:title="The PacketDispatcher class is responsible for managing packet dispatching and handling.">
<polygon fill="#999999" stroke="#666666" points="1041.55,-540.81 942.3,-540.81 942.3,-510.31 1041.55,-510.31 1041.55,-540.81"/>
<text text-anchor="start" x="950.3" y="-527.31" font-family="Times,serif" font-size="10.00">mal_packet_weaver::</text>
<text text-anchor="middle" x="991.93" y="-516.06" font-family="Times,serif" font-size="10.00">PacketDispatcher</text>
</a>
</g>
</g>
<!-- Node2 -->
<g id="Node000002" class="node">
<title>Node2</title>
<g id="a_Node000002"><a xlink:title=" ">
<polygon fill="white" stroke="#666666" points="811.05,-936.81 663.8,-936.81 663.8,-906.31 811.05,-906.31 811.05,-936.81"/>
<text text-anchor="start" x="671.8" y="-923.31" font-family="Times,serif" font-size="10.00">std::enable_shared</text>
<text text-anchor="middle" x="737.43" y="-912.06" font-family="Times,serif" font-size="10.00">_from_this&lt; PacketDispatcher &gt;</text>
</a>
</g>
</g>
<!-- Node2&#45;&gt;Node1 -->
<g id="edge1_Node000001_Node000002" class="edge">
<title>Node2&#45;&gt;Node1</title>
<g id="a_edge1_Node000001_Node000002"><a xlink:title=" ">
<path fill="none" stroke="#63b8ff" d="M822.18,-934.27C857.84,-934.9 897.34,-928.5 924.3,-903.56 978.6,-853.34 988.83,-605.96 990.58,-541.14"/>
<polygon fill="#63b8ff" stroke="#63b8ff" points="822.38,-930.74 812.26,-933.87 822.12,-937.74 822.38,-930.74"/>
</a>
</g>
</g>
<!-- Node3 -->
<g id="Node000003" class="node">
<title>Node3</title>
<g id="a_Node000003"><a xlink:title=" ">
<polygon fill="white" stroke="#666666" points="770.93,-888.19 703.93,-888.19 703.93,-868.94 770.93,-868.94 770.93,-888.19"/>
<text text-anchor="middle" x="737.43" y="-874.69" font-family="Times,serif" font-size="10.00">io_context &amp;</text>
</a>
</g>
</g>
<!-- Node3&#45;&gt;Node1 -->
<g id="edge2_Node000001_Node000003" class="edge">
<title>Node3&#45;&gt;Node1</title>
<g id="a_edge2_Node000001_Node000003"><a xlink:title=" ">
<path fill="none" stroke="#9a32cd" stroke-dasharray="5,2" d="M782.05,-886.59C823.97,-891.6 886.37,-891.55 924.3,-856.56 971.59,-812.95 986.77,-600.79 990.13,-541.17"/>
<polygon fill="#9a32cd" stroke="#9a32cd" points="782.72,-883.01 772.34,-885.15 781.78,-889.95 782.72,-883.01"/>
</a>
</g>
<text text-anchor="middle" x="876.68" y="-890.31" font-family="Times,serif" font-size="10.00" fill="grey"> io_context_</text>
</g>
<!-- Node4 -->
<g id="Node000004" class="node">
<title>Node4</title>
<g id="a_Node000004"><a xlink:title=" ">
<polygon fill="white" stroke="#666666" points="757.8,-775.19 717.05,-775.19 717.05,-755.94 757.8,-755.94 757.8,-775.19"/>
<text text-anchor="middle" x="737.43" y="-761.69" font-family="Times,serif" font-size="10.00">strand</text>
</a>
</g>
</g>
<!-- Node4&#45;&gt;Node1 -->
<g id="edge3_Node000001_Node000004" class="edge">
<title>Node4&#45;&gt;Node1</title>
<g id="a_edge3_Node000001_Node000004"><a xlink:title=" ">
<path fill="none" stroke="#9a32cd" stroke-dasharray="5,2" d="M769.24,-765.87C815.88,-765.69 901.43,-762.68 924.3,-743.56 986.86,-691.29 991.88,-581.99 991.45,-541.28"/>
<polygon fill="#9a32cd" stroke="#9a32cd" points="769.28,-762.37 759.28,-765.86 769.27,-769.37 769.28,-762.37"/>
</a>
</g>
<text text-anchor="start" x="829.05" y="-844.06" font-family="Times,serif" font-size="10.00" fill="grey"> default_handlers_input</text>
<text text-anchor="middle" x="876.68" y="-832.81" font-family="Times,serif" font-size="10.00" fill="grey">_strand_</text>
<text text-anchor="start" x="829.05" y="-821.56" font-family="Times,serif" font-size="10.00" fill="grey">promise_filter_map</text>
<text text-anchor="middle" x="876.68" y="-810.31" font-family="Times,serif" font-size="10.00" fill="grey">_input_strand_</text>
<text text-anchor="start" x="829.05" y="-799.06" font-family="Times,serif" font-size="10.00" fill="grey">promise_map_input</text>
<text text-anchor="middle" x="876.68" y="-787.81" font-family="Times,serif" font-size="10.00" fill="grey">_strand_</text>
<text text-anchor="start" x="829.05" y="-776.56" font-family="Times,serif" font-size="10.00" fill="grey">unprocessed_packets</text>
<text text-anchor="middle" x="876.68" y="-765.31" font-family="Times,serif" font-size="10.00" fill="grey">_input_strand_</text>
</g>
<!-- Node5 -->
<g id="Node000005" class="node">
<title>Node5</title>
<g id="a_Node000005"><a xlink:title=" ">
<polygon fill="white" stroke="#666666" points="768.3,-679.19 706.55,-679.19 706.55,-659.94 768.3,-659.94 768.3,-679.19"/>
<text text-anchor="middle" x="737.43" y="-665.69" font-family="Times,serif" font-size="10.00">atomic_flag</text>
</a>
</g>
</g>
<!-- Node5&#45;&gt;Node1 -->
<g id="edge4_Node000001_Node000005" class="edge">
<title>Node5&#45;&gt;Node1</title>
<g id="a_edge4_Node000001_Node000005"><a xlink:title=" ">
<path fill="none" stroke="#9a32cd" stroke-dasharray="5,2" d="M779.38,-661.81C832.28,-651.67 918.32,-634.71 924.3,-630.56 956.59,-608.18 976.64,-564.55 985.54,-541.2"/>
<polygon fill="#9a32cd" stroke="#9a32cd" points="778.81,-658.55 769.64,-663.86 780.12,-665.42 778.81,-658.55"/>
</a>
</g>
<text text-anchor="start" x="829.05" y="-731.06" font-family="Times,serif" font-size="10.00" fill="grey"> default_handlers_input</text>
<text text-anchor="middle" x="876.68" y="-719.81" font-family="Times,serif" font-size="10.00" fill="grey">_updated_</text>
<text text-anchor="start" x="829.05" y="-708.56" font-family="Times,serif" font-size="10.00" fill="grey">promise_filter_map</text>
<text text-anchor="middle" x="876.68" y="-697.31" font-family="Times,serif" font-size="10.00" fill="grey">_input_updated_</text>
<text text-anchor="start" x="829.05" y="-686.06" font-family="Times,serif" font-size="10.00" fill="grey">promise_map_input</text>
<text text-anchor="middle" x="876.68" y="-674.81" font-family="Times,serif" font-size="10.00" fill="grey">_updated_</text>
<text text-anchor="start" x="829.05" y="-663.56" font-family="Times,serif" font-size="10.00" fill="grey">unprocessed_packets</text>
<text text-anchor="middle" x="876.68" y="-652.31" font-family="Times,serif" font-size="10.00" fill="grey">_input_updated_</text>
</g>
<!-- Node6 -->
<g id="Node000006" class="node">
<title>Node6</title>
<g id="a_Node000006"><a xlink:title=" ">
<polygon fill="white" stroke="#666666" points="516.05,-449.19 384.55,-449.19 384.55,-429.94 516.05,-429.94 516.05,-449.19"/>
<text text-anchor="middle" x="450.3" y="-435.69" font-family="Times,serif" font-size="10.00">std::vector&lt; BasePacketPtr &gt;</text>
</a>
</g>
</g>
<!-- Node6&#45;&gt;Node1 -->
<g id="edge5_Node000001_Node000006" class="edge">
<title>Node6&#45;&gt;Node1</title>
<g id="a_edge5_Node000001_Node000006"><a xlink:title=" ">
<path fill="none" stroke="#9a32cd" stroke-dasharray="5,2" d="M524.03,-451.2C527.41,-451.67 530.77,-452.13 534.05,-452.56 656.8,-468.73 689.06,-460.91 811.05,-482.06 855.84,-489.83 906.07,-502.3 942.05,-511.9"/>
<polygon fill="#9a32cd" stroke="#9a32cd" points="524.55,-447.59 514.16,-449.63 523.55,-454.52 524.55,-447.59"/>
</a>
</g>
<text text-anchor="start" x="693.55" y="-494.56" font-family="Times,serif" font-size="10.00" fill="grey"> unprocessed_packets</text>
<text text-anchor="middle" x="737.43" y="-483.31" font-family="Times,serif" font-size="10.00" fill="grey">_input_</text>
</g>
<!-- Node16 -->
<g id="Node000016" class="node">
<title>Node16</title>
<g id="a_Node000016"><a xlink:title=" ">
<polygon fill="white" stroke="#666666" points="801.3,-430.44 673.55,-430.44 673.55,-388.69 801.3,-388.69 801.3,-430.44"/>
<text text-anchor="start" x="681.55" y="-416.94" font-family="Times,serif" font-size="10.00">std::unordered_map</text>
<text text-anchor="start" x="681.55" y="-405.69" font-family="Times,serif" font-size="10.00">&lt; UniquePacketID, std</text>
<text text-anchor="middle" x="737.43" y="-394.44" font-family="Times,serif" font-size="10.00">::vector&lt; BasePacketPtr &gt; &gt;</text>
</a>
</g>
</g>
<!-- Node6&#45;&gt;Node16 -->
<g id="edge21_Node000016_Node000006" class="edge">
<title>Node6&#45;&gt;Node16</title>
<g id="a_edge21_Node000016_Node000006"><a xlink:title=" ">
<path fill="none" stroke="#9a32cd" stroke-dasharray="5,2" d="M527.29,-437.91C563.32,-436.45 606.91,-433.71 645.8,-428.56 654.72,-427.38 664.08,-425.81 673.25,-424.07"/>
<polygon fill="#9a32cd" stroke="#9a32cd" points="527.22,-434.45 517.36,-438.32 527.49,-441.44 527.22,-434.45"/>
</a>
</g>
<text text-anchor="middle" x="589.93" y="-439.31" font-family="Times,serif" font-size="10.00" fill="grey"> elements</text>
</g>
<!-- Node7 -->
<g id="Node000007" class="node">
<title>Node7</title>
<g id="a_Node000007"><a xlink:title=" ">
<polygon fill="white" stroke="#666666" points="211.68,-391.19 112.43,-391.19 112.43,-371.94 211.68,-371.94 211.68,-391.19"/>
<text text-anchor="middle" x="162.05" y="-377.69" font-family="Times,serif" font-size="10.00">std::unique_ptr&lt; T &gt;</text>
</a>
</g>
</g>
<!-- Node7&#45;&gt;Node6 -->
<g id="edge6_Node000006_Node000007" class="edge">
<title>Node7&#45;&gt;Node6</title>
<g id="a_edge6_Node000006_Node000007"><a xlink:title=" ">
<path fill="none" stroke="#9a32cd" stroke-dasharray="5,2" d="M223.02,-380.07C264.14,-380.52 319.53,-384.07 366.55,-397.31 391.7,-404.4 418.16,-419.44 434.2,-429.53"/>
<polygon fill="#9a32cd" stroke="#9a32cd" points="223.11,-376.56 213.09,-380.02 223.08,-383.56 223.11,-376.56"/>
</a>
</g>
<text text-anchor="middle" x="303.55" y="-398.31" font-family="Times,serif" font-size="10.00" fill="grey"> elements</text>
</g>
<!-- Node8 -->
<g id="Node000008" class="node">
<title>Node8</title>
<g id="a_Node000008"><a xlink:title=" ">
<polygon fill="white" stroke="#666666" points="28.8,-222.19 0,-222.19 0,-202.94 28.8,-202.94 28.8,-222.19"/>
<text text-anchor="middle" x="14.4" y="-208.69" font-family="Times,serif" font-size="10.00">T</text>
</a>
</g>
</g>
<!-- Node8&#45;&gt;Node7 -->
<g id="edge7_Node000007_Node000008" class="edge">
<title>Node8&#45;&gt;Node7</title>
<g id="a_edge7_Node000007_Node000008"><a xlink:title=" ">
<path fill="none" stroke="#9a32cd" stroke-dasharray="5,2" d="M24.26,-232.44C37.68,-260.79 65.47,-313.2 101.55,-347.56 111.98,-357.49 125.84,-365.63 137.56,-371.45"/>
<polygon fill="#9a32cd" stroke="#9a32cd" points="27.06,-231.14 19.69,-223.52 20.7,-234.07 27.06,-231.14"/>
</a>
</g>
<text text-anchor="middle" x="65.18" y="-326.31" font-family="Times,serif" font-size="10.00" fill="grey"> ptr</text>
</g>
<!-- Node9 -->
<g id="Node000009" class="node">
<title>Node9</title>
<g id="a_Node000009"><a xlink:title=" ">
<polygon fill="white" stroke="#666666" points="201.93,-508.19 122.18,-508.19 122.18,-488.94 201.93,-488.94 201.93,-508.19"/>
<text text-anchor="middle" x="162.05" y="-494.69" font-family="Times,serif" font-size="10.00">std::vector&lt; T &gt;</text>
</a>
</g>
</g>
<!-- Node8&#45;&gt;Node9 -->
<g id="edge9_Node000009_Node000008" class="edge">
<title>Node8&#45;&gt;Node9</title>
<g id="a_edge9_Node000009_Node000008"><a xlink:title=" ">
<path fill="none" stroke="#9a32cd" stroke-dasharray="5,2" d="M15.67,-233.28C17.49,-283.36 29.36,-411.83 101.55,-479.56 107.24,-484.91 114.44,-488.75 121.85,-491.51"/>
<polygon fill="#9a32cd" stroke="#9a32cd" points="19.15,-233.48 15.4,-223.57 12.15,-233.66 19.15,-233.48"/>
</a>
</g>
<text text-anchor="middle" x="65.18" y="-458.31" font-family="Times,serif" font-size="10.00" fill="grey"> elements</text>
</g>
<!-- Node18 -->
<g id="Node000018" class="node">
<title>Node18</title>
<g id="a_Node000018"><a xlink:title=" ">
<polygon fill="white" stroke="#666666" points="497.68,-199.81 402.93,-199.81 402.93,-169.31 497.68,-169.31 497.68,-199.81"/>
<text text-anchor="start" x="410.93" y="-186.31" font-family="Times,serif" font-size="10.00">std::unordered_map</text>
<text text-anchor="middle" x="450.3" y="-175.06" font-family="Times,serif" font-size="10.00">&lt; K, T &gt;</text>
</a>
</g>
</g>
<!-- Node8&#45;&gt;Node18 -->
<g id="edge24_Node000018_Node000008" class="edge">
<title>Node8&#45;&gt;Node18</title>
<g id="a_edge24_Node000018_Node000008"><a xlink:title=" ">
<path fill="none" stroke="#9a32cd" stroke-dasharray="5,2" d="M39.96,-211.69C97.24,-209.57 244.12,-203.53 366.55,-193.56 378.22,-192.62 390.79,-191.37 402.52,-190.1"/>
<polygon fill="#9a32cd" stroke="#9a32cd" points="40,-208.23 30.14,-212.09 40.26,-215.22 40,-208.23"/>
</a>
</g>
<text text-anchor="middle" x="162.05" y="-210.31" font-family="Times,serif" font-size="10.00" fill="grey"> elements</text>
</g>
<!-- Node22 -->
<g id="Node000022" class="node">
<title>Node22</title>
<g id="a_Node000022"><a xlink:title=" ">
<polygon fill="white" stroke="#666666" points="211.3,-139.19 112.8,-139.19 112.8,-119.94 211.3,-119.94 211.3,-139.19"/>
<text text-anchor="middle" x="162.05" y="-125.69" font-family="Times,serif" font-size="10.00">std::shared_ptr&lt; T &gt;</text>
</a>
</g>
</g>
<!-- Node8&#45;&gt;Node22 -->
<g id="edge29_Node000022_Node000008" class="edge">
<title>Node8&#45;&gt;Node22</title>
<g id="a_edge29_Node000022_Node000008"><a xlink:title=" ">
<path fill="none" stroke="#9a32cd" stroke-dasharray="5,2" d="M35.99,-195.77C39.57,-192.92 43.27,-190.01 46.8,-187.31 70.69,-169.05 74.62,-160.94 101.55,-147.56 107.64,-144.54 114.34,-141.92 120.97,-139.68"/>
<polygon fill="#9a32cd" stroke="#9a32cd" points="34.11,-193.59 28.52,-202.59 38.5,-199.05 34.11,-193.59"/>
</a>
</g>
<text text-anchor="middle" x="65.18" y="-188.31" font-family="Times,serif" font-size="10.00" fill="grey"> ptr</text>
</g>
<!-- Node23 -->
<g id="Node000023" class="node">
<title>Node23</title>
<g id="a_Node000023"><a xlink:title=" ">
<polygon fill="white" stroke="#666666" points="201.55,-102.19 122.55,-102.19 122.55,-82.94 201.55,-82.94 201.55,-102.19"/>
<text text-anchor="middle" x="162.05" y="-88.69" font-family="Times,serif" font-size="10.00">std::deque&lt; T &gt;</text>
</a>
</g>
</g>
<!-- Node8&#45;&gt;Node23 -->
<g id="edge31_Node000023_Node000008" class="edge">
<title>Node8&#45;&gt;Node23</title>
<g id="a_edge31_Node000023_Node000008"><a xlink:title=" ">
<path fill="none" stroke="#9a32cd" stroke-dasharray="5,2" d="M20.96,-192.37C25.85,-177.48 34.19,-157.44 46.8,-143.31 66.46,-121.29 97.47,-108.35 122.23,-101.05"/>
<polygon fill="#9a32cd" stroke="#9a32cd" points="17.42,-190.98 17.88,-201.57 24.12,-193.01 17.42,-190.98"/>
</a>
</g>
<text text-anchor="middle" x="65.18" y="-145.31" font-family="Times,serif" font-size="10.00" fill="grey"> elements</text>
</g>
<!-- Node9&#45;&gt;Node6 -->
<g id="edge8_Node000006_Node000009" class="edge">
<title>Node9&#45;&gt;Node6</title>
<g id="a_edge8_Node000006_Node000009"><a xlink:title=" ">
<path fill="none" stroke="orange" stroke-dasharray="5,2" d="M212.23,-486.15C215.9,-484.25 219.39,-482.07 222.55,-479.56 234.8,-469.83 227.13,-457.36 240.55,-449.31 288.93,-420.29 355.56,-422.93 400.41,-429.47"/>
<polygon fill="orange" stroke="orange" points="210.98,-483.31 203.23,-490.53 213.79,-489.73 210.98,-483.31"/>
</a>
</g>
<text text-anchor="middle" x="303.55" y="-450.31" font-family="Times,serif" font-size="10.00" fill="grey"> &lt; BasePacketPtr &gt;</text>
</g>
<!-- Node10 -->
<g id="Node000010" class="node">
<title>Node10</title>
<g id="a_Node000010"><a xlink:title=" ">
<polygon fill="white" stroke="#666666" points="510.43,-519.44 390.18,-519.44 390.18,-477.69 510.43,-477.69 510.43,-519.44"/>
<text text-anchor="start" x="398.18" y="-505.94" font-family="Times,serif" font-size="10.00">std::vector&lt; std::pair</text>
<text text-anchor="start" x="398.18" y="-494.69" font-family="Times,serif" font-size="10.00">&lt; UniquePacketID, shared</text>
<text text-anchor="middle" x="450.3" y="-483.44" font-family="Times,serif" font-size="10.00">_packet_promise &gt; &gt;</text>
</a>
</g>
</g>
<!-- Node9&#45;&gt;Node10 -->
<g id="edge12_Node000010_Node000009" class="edge">
<title>Node9&#45;&gt;Node10</title>
<g id="a_edge12_Node000010_Node000009"><a xlink:title=" ">
<path fill="none" stroke="orange" stroke-dasharray="5,2" d="M212.95,-498.56C262.15,-498.56 337.36,-498.56 389.68,-498.56"/>
<polygon fill="orange" stroke="orange" points="213.25,-495.06 203.25,-498.56 213.25,-502.06 213.25,-495.06"/>
</a>
</g>
<text text-anchor="start" x="240.55" y="-511.56" font-family="Times,serif" font-size="10.00" fill="grey"> &lt; std::pair&lt; UniquePacket</text>
<text text-anchor="middle" x="303.55" y="-500.31" font-family="Times,serif" font-size="10.00" fill="grey">ID, shared_packet_promise &gt; &gt;</text>
</g>
<!-- Node12 -->
<g id="Node000012" class="node">
<title>Node12</title>
<g id="a_Node000012"><a xlink:title=" ">
<polygon fill="white" stroke="#666666" points="513.05,-647.44 387.55,-647.44 387.55,-605.69 513.05,-605.69 513.05,-647.44"/>
<text text-anchor="start" x="395.55" y="-633.94" font-family="Times,serif" font-size="10.00">std::vector&lt; std::pair</text>
<text text-anchor="start" x="395.55" y="-622.69" font-family="Times,serif" font-size="10.00">&lt; UniquePacketID, promise</text>
<text text-anchor="middle" x="450.3" y="-611.44" font-family="Times,serif" font-size="10.00">_filter &gt; &gt;</text>
</a>
</g>
</g>
<!-- Node9&#45;&gt;Node12 -->
<g id="edge15_Node000012_Node000009" class="edge">
<title>Node9&#45;&gt;Node12</title>
<g id="a_edge15_Node000012_Node000009"><a xlink:title=" ">
<path fill="none" stroke="orange" stroke-dasharray="5,2" d="M180.45,-516.5C192.89,-529.77 209.65,-548.58 222.55,-566.56 231.84,-579.51 227.32,-588.68 240.55,-597.56 252.62,-605.67 330.23,-614.9 387.3,-620.72"/>
<polygon fill="orange" stroke="orange" points="183.41,-514.48 173.98,-509.64 178.34,-519.3 183.41,-514.48"/>
</a>
</g>
<text text-anchor="start" x="250.3" y="-630.56" font-family="Times,serif" font-size="10.00" fill="grey"> &lt; std::pair&lt; UniquePacket</text>
<text text-anchor="middle" x="303.55" y="-619.31" font-family="Times,serif" font-size="10.00" fill="grey">ID, promise_filter &gt; &gt;</text>
</g>
<!-- Node14 -->
<g id="Node000014" class="node">
<title>Node14</title>
<g id="a_Node000014"><a xlink:title=" ">
<polygon fill="white" stroke="#666666" points="512.3,-587.44 388.3,-587.44 388.3,-545.69 512.3,-545.69 512.3,-587.44"/>
<text text-anchor="start" x="396.3" y="-573.94" font-family="Times,serif" font-size="10.00">std::vector&lt; std::pair</text>
<text text-anchor="start" x="396.3" y="-562.69" font-family="Times,serif" font-size="10.00">&lt; UniquePacketID, handler</text>
<text text-anchor="middle" x="450.3" y="-551.44" font-family="Times,serif" font-size="10.00">_tuple &gt; &gt;</text>
</a>
</g>
</g>
<!-- Node9&#45;&gt;Node14 -->
<g id="edge18_Node000014_Node000009" class="edge">
<title>Node9&#45;&gt;Node14</title>
<g id="a_edge18_Node000014_Node000009"><a xlink:title=" ">
<path fill="none" stroke="orange" stroke-dasharray="5,2" d="M203.15,-511.89C215.11,-515.62 228.29,-519.49 240.55,-522.56 295.88,-536.47 310.78,-535.08 366.55,-547.06 373.48,-548.55 380.71,-550.17 387.9,-551.81"/>
<polygon fill="orange" stroke="orange" points="204.61,-508.36 194.02,-508.67 202.49,-515.03 204.61,-508.36"/>
</a>
</g>
<text text-anchor="start" x="250.3" y="-559.56" font-family="Times,serif" font-size="10.00" fill="grey"> &lt; std::pair&lt; UniquePacket</text>
<text text-anchor="middle" x="303.55" y="-548.31" font-family="Times,serif" font-size="10.00" fill="grey">ID, handler_tuple &gt; &gt;</text>
</g>
<!-- Node25 -->
<g id="Node000025" class="node">
<title>Node25</title>
<g id="a_Node000025"><a xlink:title=" ">
<polygon fill="white" stroke="#666666" points="498.8,-266.81 401.8,-266.81 401.8,-236.31 498.8,-236.31 498.8,-266.81"/>
<text text-anchor="start" x="409.8" y="-253.31" font-family="Times,serif" font-size="10.00">std::vector&lt; promise</text>
<text text-anchor="middle" x="450.3" y="-242.06" font-family="Times,serif" font-size="10.00">_filter &gt;</text>
</a>
</g>
</g>
<!-- Node9&#45;&gt;Node25 -->
<g id="edge37_Node000025_Node000009" class="edge">
<title>Node9&#45;&gt;Node25</title>
<g id="a_edge37_Node000025_Node000009"><a xlink:title=" ">
<path fill="none" stroke="orange" stroke-dasharray="5,2" d="M212.03,-488.46C216.01,-486.08 219.62,-483.16 222.55,-479.56 270.08,-421.28 192.14,-368.87 240.55,-311.31 251.07,-298.8 343.22,-275.81 401.51,-262.28"/>
<polygon fill="orange" stroke="orange" points="210.77,-485.65 203.21,-493.07 213.75,-491.99 210.77,-485.65"/>
</a>
</g>
<text text-anchor="middle" x="303.55" y="-312.31" font-family="Times,serif" font-size="10.00" fill="grey"> &lt; promise_filter &gt;</text>
</g>
<!-- Node28 -->
<g id="Node000028" class="node">
<title>Node28</title>
<g id="a_Node000028"><a xlink:title=" ">
<polygon fill="white" stroke="#666666" points="498.05,-352.81 402.55,-352.81 402.55,-322.31 498.05,-322.31 498.05,-352.81"/>
<text text-anchor="start" x="410.55" y="-339.31" font-family="Times,serif" font-size="10.00">std::vector&lt; handler</text>
<text text-anchor="middle" x="450.3" y="-328.06" font-family="Times,serif" font-size="10.00">_tuple &gt;</text>
</a>
</g>
</g>
<!-- Node9&#45;&gt;Node28 -->
<g id="edge43_Node000028_Node000009" class="edge">
<title>Node9&#45;&gt;Node28</title>
<g id="a_edge43_Node000028_Node000009"><a xlink:title=" ">
<path fill="none" stroke="orange" stroke-dasharray="5,2" d="M212.01,-488.21C215.96,-485.88 219.57,-483.04 222.55,-479.56 256.28,-440.19 203.39,-400.47 240.55,-364.31 251.94,-353.23 344.29,-344.86 402.27,-340.63"/>
<polygon fill="orange" stroke="orange" points="210.86,-485.35 203.29,-492.76 213.83,-491.69 210.86,-485.35"/>
</a>
</g>
<text text-anchor="middle" x="303.55" y="-365.31" font-family="Times,serif" font-size="10.00" fill="grey"> &lt; handler_tuple &gt;</text>
</g>
<!-- Node10&#45;&gt;Node1 -->
<g id="edge10_Node000001_Node000010" class="edge">
<title>Node10&#45;&gt;Node1</title>
<g id="a_edge10_Node000001_Node000010"><a xlink:title=" ">
<path fill="none" stroke="#9a32cd" stroke-dasharray="5,2" d="M521.6,-502.08C632.63,-507.64 845.83,-518.3 941.88,-523.11"/>
<polygon fill="#9a32cd" stroke="#9a32cd" points="522.01,-498.55 511.85,-501.54 521.66,-505.54 522.01,-498.55"/>
</a>
</g>
<text text-anchor="middle" x="737.43" y="-517.31" font-family="Times,serif" font-size="10.00" fill="grey"> promise_map_input_</text>
</g>
<!-- Node11 -->
<g id="Node000011" class="node">
<title>Node11</title>
<g id="a_Node000011"><a xlink:title=" ">
<polygon fill="white" stroke="#666666" points="222.55,-470.81 101.55,-470.81 101.55,-440.31 222.55,-440.31 222.55,-470.81"/>
<text text-anchor="start" x="109.55" y="-457.31" font-family="Times,serif" font-size="10.00">pair&lt; UniquePacketID,</text>
<text text-anchor="middle" x="162.05" y="-446.06" font-family="Times,serif" font-size="10.00"> shared_packet_promise &gt;</text>
</a>
</g>
</g>
<!-- Node11&#45;&gt;Node10 -->
<g id="edge11_Node000010_Node000011" class="edge">
<title>Node11&#45;&gt;Node10</title>
<g id="a_edge11_Node000010_Node000011"><a xlink:title=" ">
<path fill="none" stroke="#9a32cd" stroke-dasharray="5,2" d="M233.59,-464.36C272.81,-469.46 322.46,-476.25 366.55,-483.31 374.05,-484.52 381.92,-485.86 389.69,-487.24"/>
<polygon fill="#9a32cd" stroke="#9a32cd" points="234.18,-460.78 223.82,-462.97 233.29,-467.72 234.18,-460.78"/>
</a>
</g>
<text text-anchor="middle" x="303.55" y="-484.31" font-family="Times,serif" font-size="10.00" fill="grey"> elements</text>
</g>
<!-- Node12&#45;&gt;Node1 -->
<g id="edge13_Node000001_Node000012" class="edge">
<title>Node12&#45;&gt;Node1</title>
<g id="a_edge13_Node000001_Node000012"><a xlink:title=" ">
<path fill="none" stroke="#9a32cd" stroke-dasharray="5,2" d="M524.21,-619.92C617.99,-610.25 785.35,-589.22 924.3,-551.56 934.37,-548.84 945,-545.1 954.75,-541.31"/>
<polygon fill="#9a32cd" stroke="#9a32cd" points="524.01,-616.52 514.42,-621.01 524.72,-623.48 524.01,-616.52"/>
</a>
</g>
<text text-anchor="start" x="697.3" y="-614.56" font-family="Times,serif" font-size="10.00" fill="grey"> promise_filter_map</text>
<text text-anchor="middle" x="737.43" y="-603.31" font-family="Times,serif" font-size="10.00" fill="grey">_input_</text>
</g>
<!-- Node13 -->
<g id="Node000013" class="node">
<title>Node13</title>
<g id="a_Node000013"><a xlink:title=" ">
<polygon fill="white" stroke="#666666" points="216.18,-685.81 107.93,-685.81 107.93,-655.31 216.18,-655.31 216.18,-685.81"/>
<text text-anchor="start" x="115.93" y="-672.31" font-family="Times,serif" font-size="10.00">pair&lt; UniquePacketID,</text>
<text text-anchor="middle" x="162.05" y="-661.06" font-family="Times,serif" font-size="10.00"> promise_filter &gt;</text>
</a>
</g>
</g>
<!-- Node13&#45;&gt;Node12 -->
<g id="edge14_Node000012_Node000013" class="edge">
<title>Node13&#45;&gt;Node12</title>
<g id="a_edge14_Node000012_Node000013"><a xlink:title=" ">
<path fill="none" stroke="#9a32cd" stroke-dasharray="5,2" d="M227.24,-666.14C267.48,-662.75 320.31,-657.16 366.55,-648.56 373.27,-647.32 380.25,-645.8 387.18,-644.17"/>
<polygon fill="#9a32cd" stroke="#9a32cd" points="227.18,-662.72 217.5,-667.02 227.76,-669.69 227.18,-662.72"/>
</a>
</g>
<text text-anchor="middle" x="303.55" y="-666.31" font-family="Times,serif" font-size="10.00" fill="grey"> elements</text>
</g>
<!-- Node14&#45;&gt;Node1 -->
<g id="edge16_Node000001_Node000014" class="edge">
<title>Node14&#45;&gt;Node1</title>
<g id="a_edge16_Node000001_Node000014"><a xlink:title=" ">
<path fill="none" stroke="#9a32cd" stroke-dasharray="5,2" d="M523.56,-562.65C616.42,-557.35 782.55,-547.01 924.3,-533.56 929.98,-533.03 935.93,-532.4 941.84,-531.74"/>
<polygon fill="#9a32cd" stroke="#9a32cd" points="523.4,-559.21 513.61,-563.27 523.79,-566.2 523.4,-559.21"/>
</a>
</g>
<text text-anchor="middle" x="737.43" y="-555.31" font-family="Times,serif" font-size="10.00" fill="grey"> default_handlers_input_</text>
</g>
<!-- Node15 -->
<g id="Node000015" class="node">
<title>Node15</title>
<g id="a_Node000015"><a xlink:title=" ">
<polygon fill="white" stroke="#666666" points="216.18,-605.81 107.93,-605.81 107.93,-575.31 216.18,-575.31 216.18,-605.81"/>
<text text-anchor="start" x="115.93" y="-592.31" font-family="Times,serif" font-size="10.00">pair&lt; UniquePacketID,</text>
<text text-anchor="middle" x="162.05" y="-581.06" font-family="Times,serif" font-size="10.00"> handler_tuple &gt;</text>
</a>
</g>
</g>
<!-- Node15&#45;&gt;Node14 -->
<g id="edge17_Node000014_Node000015" class="edge">
<title>Node15&#45;&gt;Node14</title>
<g id="a_edge17_Node000014_Node000015"><a xlink:title=" ">
<path fill="none" stroke="#9a32cd" stroke-dasharray="5,2" d="M227.44,-585.17C275.44,-581.14 340.58,-575.68 387.86,-571.72"/>
<polygon fill="#9a32cd" stroke="#9a32cd" points="227.23,-581.76 217.56,-586.08 227.81,-588.73 227.23,-581.76"/>
</a>
</g>
<text text-anchor="middle" x="303.55" y="-584.31" font-family="Times,serif" font-size="10.00" fill="grey"> elements</text>
</g>
<!-- Node16&#45;&gt;Node1 -->
<g id="edge19_Node000001_Node000016" class="edge">
<title>Node16&#45;&gt;Node1</title>
<g id="a_edge19_Node000001_Node000016"><a xlink:title=" ">
<path fill="none" stroke="#9a32cd" stroke-dasharray="5,2" d="M812.62,-410.06C848.48,-413.22 890.87,-421.49 924.3,-441.31 952.05,-457.77 972.72,-490.46 983.21,-509.93"/>
<polygon fill="#9a32cd" stroke="#9a32cd" points="812.95,-406.5 802.71,-409.23 812.42,-413.48 812.95,-406.5"/>
</a>
</g>
<text text-anchor="middle" x="876.68" y="-442.31" font-family="Times,serif" font-size="10.00" fill="grey"> unprocessed_packets_</text>
</g>
<!-- Node17 -->
<g id="Node000017" class="node">
<title>Node17</title>
<g id="a_Node000017"><a xlink:title=" ">
<polygon fill="white" stroke="#666666" points="490.93,-304.19 409.68,-304.19 409.68,-284.94 490.93,-284.94 490.93,-304.19"/>
<text text-anchor="middle" x="450.3" y="-290.69" font-family="Times,serif" font-size="10.00">UniquePacketID</text>
</a>
</g>
</g>
<!-- Node17&#45;&gt;Node16 -->
<g id="edge20_Node000016_Node000017" class="edge">
<title>Node17&#45;&gt;Node16</title>
<g id="a_edge20_Node000016_Node000017"><a xlink:title=" ">
<path fill="none" stroke="#9a32cd" stroke-dasharray="5,2" d="M501.43,-303.17C506.89,-305.79 511.95,-309.18 516.05,-313.56 541.24,-340.5 506.16,-370.44 534.05,-394.56 554.27,-412.05 621.63,-414.08 673.14,-412.83"/>
<polygon fill="#9a32cd" stroke="#9a32cd" points="502.87,-299.59 492.28,-299.24 500.34,-306.12 502.87,-299.59"/>
</a>
</g>
<text text-anchor="middle" x="589.93" y="-414.31" font-family="Times,serif" font-size="10.00" fill="grey"> keys</text>
</g>
<!-- Node20 -->
<g id="Node000020" class="node">
<title>Node20</title>
<g id="a_Node000020"><a xlink:title=" ">
<polygon fill="white" stroke="#666666" points="792.68,-135.06 682.18,-135.06 682.18,-82.06 792.68,-82.06 792.68,-135.06"/>
<text text-anchor="start" x="690.18" y="-121.56" font-family="Times,serif" font-size="10.00">std::unordered_map</text>
<text text-anchor="start" x="690.18" y="-110.31" font-family="Times,serif" font-size="10.00">&lt; UniquePacketID, std</text>
<text text-anchor="start" x="690.18" y="-99.06" font-family="Times,serif" font-size="10.00">::deque&lt; shared_packet</text>
<text text-anchor="middle" x="737.43" y="-87.81" font-family="Times,serif" font-size="10.00">_promise &gt; &gt;</text>
</a>
</g>
</g>
<!-- Node17&#45;&gt;Node20 -->
<g id="edge26_Node000020_Node000017" class="edge">
<title>Node17&#45;&gt;Node20</title>
<g id="a_edge26_Node000020_Node000017"><a xlink:title=" ">
<path fill="none" stroke="#9a32cd" stroke-dasharray="5,2" d="M501.07,-286.75C506.77,-284.02 511.99,-280.39 516.05,-275.56 538.57,-248.83 508.59,-143.26 534.05,-119.31 572.76,-82.92 636.21,-85.72 681.75,-94.14"/>
<polygon fill="#9a32cd" stroke="#9a32cd" points="500.22,-283.71 492.13,-290.55 502.72,-290.25 500.22,-283.71"/>
</a>
</g>
<text text-anchor="middle" x="589.93" y="-121.31" font-family="Times,serif" font-size="10.00" fill="grey"> keys</text>
</g>
<!-- Node24 -->
<g id="Node000024" class="node">
<title>Node24</title>
<g id="a_Node000024"><a xlink:title=" ">
<polygon fill="white" stroke="#666666" points="800.18,-226.44 674.68,-226.44 674.68,-184.69 800.18,-184.69 800.18,-226.44"/>
<text text-anchor="start" x="682.68" y="-212.94" font-family="Times,serif" font-size="10.00">std::unordered_map</text>
<text text-anchor="start" x="682.68" y="-201.69" font-family="Times,serif" font-size="10.00">&lt; UniquePacketID, std</text>
<text text-anchor="middle" x="737.43" y="-190.44" font-family="Times,serif" font-size="10.00">::vector&lt; promise_filter &gt; &gt;</text>
</a>
</g>
</g>
<!-- Node17&#45;&gt;Node24 -->
<g id="edge34_Node000024_Node000017" class="edge">
<title>Node17&#45;&gt;Node24</title>
<g id="a_edge34_Node000024_Node000017"><a xlink:title=" ">
<path fill="none" stroke="#9a32cd" stroke-dasharray="5,2" d="M501.37,-285.31C506.76,-282.8 511.81,-279.61 516.05,-275.56 533.82,-258.6 514.7,-238.44 534.05,-223.31 555.24,-206.76 623,-203.63 674.33,-203.8"/>
<polygon fill="#9a32cd" stroke="#9a32cd" points="500.49,-282.29 492.42,-289.15 503.01,-288.82 500.49,-282.29"/>
</a>
</g>
<text text-anchor="middle" x="589.93" y="-224.31" font-family="Times,serif" font-size="10.00" fill="grey"> keys</text>
</g>
<!-- Node27 -->
<g id="Node000027" class="node">
<title>Node27</title>
<g id="a_Node000027"><a xlink:title=" ">
<polygon fill="white" stroke="#666666" points="799.8,-356.44 675.05,-356.44 675.05,-314.69 799.8,-314.69 799.8,-356.44"/>
<text text-anchor="start" x="683.05" y="-342.94" font-family="Times,serif" font-size="10.00">std::unordered_map</text>
<text text-anchor="start" x="683.05" y="-331.69" font-family="Times,serif" font-size="10.00">&lt; UniquePacketID, std</text>
<text text-anchor="middle" x="737.43" y="-320.44" font-family="Times,serif" font-size="10.00">::vector&lt; handler_tuple &gt; &gt;</text>
</a>
</g>
</g>
<!-- Node17&#45;&gt;Node27 -->
<g id="edge40_Node000027_Node000017" class="edge">
<title>Node17&#45;&gt;Node27</title>
<g id="a_edge40_Node000027_Node000017"><a xlink:title=" ">
<path fill="none" stroke="#9a32cd" stroke-dasharray="5,2" d="M502.09,-300.79C541.38,-305.73 597.1,-313 645.8,-320.31 655.11,-321.71 664.94,-323.28 674.56,-324.86"/>
<polygon fill="#9a32cd" stroke="#9a32cd" points="502.57,-297.2 492.22,-299.43 501.7,-304.15 502.57,-297.2"/>
</a>
</g>
<text text-anchor="middle" x="589.93" y="-321.31" font-family="Times,serif" font-size="10.00" fill="grey"> keys</text>
</g>
<!-- Node18&#45;&gt;Node16 -->
<g id="edge22_Node000016_Node000018" class="edge">
<title>Node18&#45;&gt;Node16</title>
<g id="a_edge22_Node000016_Node000018"><a xlink:title=" ">
<path fill="none" stroke="orange" stroke-dasharray="5,2" d="M494.77,-206.04C502.99,-211.96 510.68,-219.12 516.05,-227.56 545.21,-273.45 496.09,-309.64 534.05,-348.56 569.25,-384.66 597.65,-353.11 645.8,-368.06 662.66,-373.3 680.47,-380.95 695.8,-388.26"/>
<polygon fill="orange" stroke="orange" points="497.01,-202.67 486.73,-200.12 493.17,-208.53 497.01,-202.67"/>
</a>
</g>
<text text-anchor="start" x="534.05" y="-380.56" font-family="Times,serif" font-size="10.00" fill="grey"> &lt; UniquePacketID, std</text>
<text text-anchor="middle" x="589.93" y="-369.31" font-family="Times,serif" font-size="10.00" fill="grey">::vector&lt; BasePacketPtr &gt; &gt;</text>
</g>
<!-- Node18&#45;&gt;Node20 -->
<g id="edge32_Node000020_Node000018" class="edge">
<title>Node18&#45;&gt;Node20</title>
<g id="a_edge32_Node000020_Node000018"><a xlink:title=" ">
<path fill="none" stroke="orange" stroke-dasharray="5,2" d="M478.48,-161.79C491.51,-149.58 506.36,-133.57 516.05,-116.56 530.63,-90.99 510.57,-70.58 534.05,-52.81 573.65,-22.84 600.62,-32.19 645.8,-52.81 656.91,-57.88 654.1,-66.15 663.8,-73.56 669.36,-77.81 675.52,-81.74 681.83,-85.3"/>
<polygon fill="orange" stroke="orange" points="476.72,-158.57 471.66,-167.88 481.42,-163.76 476.72,-158.57"/>
</a>
</g>
<text text-anchor="start" x="542.68" y="-77.81" font-family="Times,serif" font-size="10.00" fill="grey"> &lt; UniquePacketID, std</text>
<text text-anchor="start" x="542.68" y="-66.56" font-family="Times,serif" font-size="10.00" fill="grey">::deque&lt; shared_packet</text>
<text text-anchor="middle" x="589.93" y="-55.31" font-family="Times,serif" font-size="10.00" fill="grey">_promise &gt; &gt;</text>
</g>
<!-- Node18&#45;&gt;Node24 -->
<g id="edge38_Node000024_Node000018" class="edge">
<title>Node18&#45;&gt;Node24</title>
<g id="a_edge38_Node000024_Node000018"><a xlink:title=" ">
<path fill="none" stroke="orange" stroke-dasharray="5,2" d="M485.39,-163.53C499.84,-155.79 517.21,-147.96 534.05,-144.06 582.44,-132.86 598.32,-129.48 645.8,-144.06 671.43,-151.94 696.32,-169.8 713.51,-184.25"/>
<polygon fill="orange" stroke="orange" points="483.93,-160.9 476.9,-168.82 487.34,-167.01 483.93,-160.9"/>
</a>
</g>
<text text-anchor="start" x="535.18" y="-157.56" font-family="Times,serif" font-size="10.00" fill="grey"> &lt; UniquePacketID, std</text>
<text text-anchor="middle" x="589.93" y="-146.31" font-family="Times,serif" font-size="10.00" fill="grey">::vector&lt; promise_filter &gt; &gt;</text>
</g>
<!-- Node18&#45;&gt;Node27 -->
<g id="edge44_Node000027_Node000018" class="edge">
<title>Node18&#45;&gt;Node27</title>
<g id="a_edge44_Node000027_Node000018"><a xlink:title=" ">
<path fill="none" stroke="orange" stroke-dasharray="5,2" d="M483.48,-205.78C498.5,-215.22 516.84,-226.09 534.05,-234.56 581.87,-258.1 598.24,-254.01 645.8,-278.06 666.75,-288.66 689.03,-302.76 706.26,-314.34"/>
<polygon fill="orange" stroke="orange" points="485.9,-202.54 475.59,-200.12 482.14,-208.44 485.9,-202.54"/>
</a>
</g>
<text text-anchor="start" x="535.55" y="-290.56" font-family="Times,serif" font-size="10.00" fill="grey"> &lt; UniquePacketID, std</text>
<text text-anchor="middle" x="589.93" y="-279.31" font-family="Times,serif" font-size="10.00" fill="grey">::vector&lt; handler_tuple &gt; &gt;</text>
</g>
<!-- Node19 -->
<g id="Node000019" class="node">
<title>Node19</title>
<g id="a_Node000019"><a xlink:title=" ">
<polygon fill="white" stroke="#666666" points="176.45,-176.19 147.65,-176.19 147.65,-156.94 176.45,-156.94 176.45,-176.19"/>
<text text-anchor="middle" x="162.05" y="-162.69" font-family="Times,serif" font-size="10.00">K</text>
</a>
</g>
</g>
<!-- Node19&#45;&gt;Node18 -->
<g id="edge23_Node000018_Node000019" class="edge">
<title>Node19&#45;&gt;Node18</title>
<g id="a_edge23_Node000018_Node000019"><a xlink:title=" ">
<path fill="none" stroke="#9a32cd" stroke-dasharray="5,2" d="M187.67,-168.11C235.34,-171.11 340.96,-177.75 402.43,-181.62"/>
<polygon fill="#9a32cd" stroke="#9a32cd" points="188.06,-164.57 177.86,-167.43 187.62,-171.55 188.06,-164.57"/>
</a>
</g>
<text text-anchor="middle" x="303.55" y="-180.31" font-family="Times,serif" font-size="10.00" fill="grey"> keys</text>
</g>
<!-- Node20&#45;&gt;Node1 -->
<g id="edge25_Node000001_Node000020" class="edge">
<title>Node20&#45;&gt;Node1</title>
<g id="a_edge25_Node000001_Node000020"><a xlink:title=" ">
<path fill="none" stroke="#9a32cd" stroke-dasharray="5,2" d="M802.39,-138.22C843.31,-160.43 894.18,-194.64 924.3,-239.31 984.34,-328.37 990.69,-464.51 991.05,-510.09"/>
<polygon fill="#9a32cd" stroke="#9a32cd" points="804.23,-134.71 793.76,-133.11 800.95,-140.89 804.23,-134.71"/>
</a>
</g>
<text text-anchor="middle" x="876.68" y="-240.31" font-family="Times,serif" font-size="10.00" fill="grey"> promise_map_</text>
</g>
<!-- Node21 -->
<g id="Node000021" class="node">
<title>Node21</title>
<g id="a_Node000021"><a xlink:title=" ">
<polygon fill="white" stroke="#666666" points="496.55,-107.81 404.05,-107.81 404.05,-77.31 496.55,-77.31 496.55,-107.81"/>
<text text-anchor="start" x="412.05" y="-94.31" font-family="Times,serif" font-size="10.00">std::deque&lt; shared</text>
<text text-anchor="middle" x="450.3" y="-83.06" font-family="Times,serif" font-size="10.00">_packet_promise &gt;</text>
</a>
</g>
</g>
<!-- Node21&#45;&gt;Node20 -->
<g id="edge27_Node000020_Node000021" class="edge">
<title>Node21&#45;&gt;Node20</title>
<g id="a_edge27_Node000020_Node000021"><a xlink:title=" ">
<path fill="none" stroke="#9a32cd" stroke-dasharray="5,2" d="M469.4,-68.83C484.49,-51.15 507.72,-28.4 534.05,-18.31 580.43,-0.56 605.61,10.86 645.8,-18.31 666.7,-33.49 646.8,-54.12 663.8,-73.56 668.87,-79.36 675.11,-84.28 681.79,-88.44"/>
<polygon fill="#9a32cd" stroke="#9a32cd" points="466.31,-66.08 462.67,-76.03 471.72,-70.52 466.31,-66.08"/>
</a>
</g>
<text text-anchor="middle" x="589.93" y="-20.31" font-family="Times,serif" font-size="10.00" fill="grey"> elements</text>
</g>
<!-- Node22&#45;&gt;Node21 -->
<g id="edge28_Node000021_Node000022" class="edge">
<title>Node22&#45;&gt;Node21</title>
<g id="a_edge28_Node000021_Node000022"><a xlink:title=" ">
<path fill="none" stroke="#9a32cd" stroke-dasharray="5,2" d="M222.46,-123.72C263.11,-119.51 318.18,-113.39 366.55,-106.56 378.67,-104.86 391.74,-102.76 403.84,-100.72"/>
<polygon fill="#9a32cd" stroke="#9a32cd" points="222.25,-120.33 212.66,-124.83 222.97,-127.29 222.25,-120.33"/>
</a>
</g>
<text text-anchor="middle" x="303.55" y="-124.31" font-family="Times,serif" font-size="10.00" fill="grey"> elements</text>
</g>
<!-- Node23&#45;&gt;Node21 -->
<g id="edge30_Node000021_Node000023" class="edge">
<title>Node23&#45;&gt;Node21</title>
<g id="a_edge30_Node000021_Node000023"><a xlink:title=" ">
<path fill="none" stroke="orange" stroke-dasharray="5,2" d="M212.95,-92.56C266.8,-92.56 351.82,-92.56 403.87,-92.56"/>
<polygon fill="orange" stroke="orange" points="212.95,-89.06 202.95,-92.56 212.95,-96.06 212.95,-89.06"/>
</a>
</g>
<text text-anchor="middle" x="303.55" y="-94.31" font-family="Times,serif" font-size="10.00" fill="grey"> &lt; shared_packet_promise &gt;</text>
</g>
<!-- Node24&#45;&gt;Node1 -->
<g id="edge33_Node000001_Node000024" class="edge">
<title>Node24&#45;&gt;Node1</title>
<g id="a_edge33_Node000001_Node000024"><a xlink:title=" ">
<path fill="none" stroke="#9a32cd" stroke-dasharray="5,2" d="M793.6,-232.01C834.84,-254.32 889.83,-289.89 924.3,-335.31 966.5,-390.93 983.39,-475.4 988.79,-509.98"/>
<polygon fill="#9a32cd" stroke="#9a32cd" points="795.44,-228.49 784.96,-226.9 792.16,-234.67 795.44,-228.49"/>
</a>
</g>
<text text-anchor="middle" x="876.68" y="-336.31" font-family="Times,serif" font-size="10.00" fill="grey"> promise_filter_map_</text>
</g>
<!-- Node25&#45;&gt;Node24 -->
<g id="edge35_Node000024_Node000025" class="edge">
<title>Node25&#45;&gt;Node24</title>
<g id="a_edge35_Node000024_Node000025"><a xlink:title=" ">
<path fill="none" stroke="#9a32cd" stroke-dasharray="5,2" d="M486.93,-230.04C496.71,-223.57 507.07,-216.16 516.05,-208.56 524.99,-201 523.31,-193.98 534.05,-189.31 578.35,-170.09 633.19,-176.1 674.61,-185.83"/>
<polygon fill="#9a32cd" stroke="#9a32cd" points="485.32,-227.56 478.81,-235.93 489.11,-233.45 485.32,-227.56"/>
</a>
</g>
<text text-anchor="middle" x="589.93" y="-190.31" font-family="Times,serif" font-size="10.00" fill="grey"> elements</text>
</g>
<!-- Node26 -->
<g id="Node000026" class="node">
<title>Node26</title>
<g id="a_Node000026"><a xlink:title=" ">
<polygon fill="white" stroke="#666666" points="197.8,-261.19 126.3,-261.19 126.3,-241.94 197.8,-241.94 197.8,-261.19"/>
<text text-anchor="middle" x="162.05" y="-247.69" font-family="Times,serif" font-size="10.00">promise_filter</text>
</a>
</g>
</g>
<!-- Node26&#45;&gt;Node25 -->
<g id="edge36_Node000025_Node000026" class="edge">
<title>Node26&#45;&gt;Node25</title>
<g id="a_edge36_Node000025_Node000026"><a xlink:title=" ">
<path fill="none" stroke="#9a32cd" stroke-dasharray="5,2" d="M208.88,-251.56C261.65,-251.56 347.93,-251.56 401.51,-251.56"/>
<polygon fill="#9a32cd" stroke="#9a32cd" points="209.15,-248.06 199.15,-251.56 209.15,-255.06 209.15,-248.06"/>
</a>
</g>
<text text-anchor="middle" x="303.55" y="-253.31" font-family="Times,serif" font-size="10.00" fill="grey"> elements</text>
</g>
<!-- Node27&#45;&gt;Node1 -->
<g id="edge39_Node000001_Node000027" class="edge">
<title>Node27&#45;&gt;Node1</title>
<g id="a_edge39_Node000001_Node000027"><a xlink:title=" ">
<path fill="none" stroke="#9a32cd" stroke-dasharray="5,2" d="M810.28,-345.62C847.74,-353.95 892.29,-369.05 924.3,-396.31 960.63,-427.25 979.63,-482.96 987.09,-510"/>
<polygon fill="#9a32cd" stroke="#9a32cd" points="811.43,-342.08 800.92,-343.45 809.99,-348.93 811.43,-342.08"/>
</a>
</g>
<text text-anchor="middle" x="876.68" y="-397.31" font-family="Times,serif" font-size="10.00" fill="grey"> default_handlers_</text>
</g>
<!-- Node28&#45;&gt;Node27 -->
<g id="edge41_Node000027_Node000028" class="edge">
<title>Node28&#45;&gt;Node27</title>
<g id="a_edge41_Node000027_Node000028"><a xlink:title=" ">
<path fill="none" stroke="#9a32cd" stroke-dasharray="5,2" d="M509.23,-337.16C557.28,-336.82 625.44,-336.34 674.55,-336"/>
<polygon fill="#9a32cd" stroke="#9a32cd" points="509.36,-333.66 499.38,-337.23 509.41,-340.66 509.36,-333.66"/>
</a>
</g>
<text text-anchor="middle" x="589.93" y="-338.31" font-family="Times,serif" font-size="10.00" fill="grey"> elements</text>
</g>
<!-- Node29 -->
<g id="Node000029" class="node">
<title>Node29</title>
<g id="a_Node000029"><a xlink:title=" ">
<polygon fill="white" stroke="#666666" points="197.43,-338.19 126.68,-338.19 126.68,-318.94 197.43,-318.94 197.43,-338.19"/>
<text text-anchor="middle" x="162.05" y="-324.69" font-family="Times,serif" font-size="10.00">handler_tuple</text>
</a>
</g>
</g>
<!-- Node29&#45;&gt;Node28 -->
<g id="edge42_Node000028_Node000029" class="edge">
<title>Node29&#45;&gt;Node28</title>
<g id="a_edge42_Node000028_Node000029"><a xlink:title=" ">
<path fill="none" stroke="#9a32cd" stroke-dasharray="5,2" d="M208.43,-327.49C249.7,-326.81 312.25,-326.51 366.55,-329.31 378.08,-329.91 390.49,-330.94 402.1,-332.07"/>
<polygon fill="#9a32cd" stroke="#9a32cd" points="208.58,-324.01 198.64,-327.69 208.71,-331 208.58,-324.01"/>
</a>
</g>
<text text-anchor="middle" x="303.55" y="-330.31" font-family="Times,serif" font-size="10.00" fill="grey"> elements</text>
</g>
<!-- Node30 -->
<g id="Node000030" class="node">
<title>Node30</title>
<g id="a_Node000030"><a xlink:title=" ">
<polygon fill="white" stroke="#666666" points="769.8,-64.19 705.05,-64.19 705.05,-44.94 769.8,-44.94 769.8,-64.19"/>
<text text-anchor="middle" x="737.43" y="-50.69" font-family="Times,serif" font-size="10.00">atomic_bool</text>
</a>
</g>
</g>
<!-- Node30&#45;&gt;Node1 -->
<g id="edge45_Node000001_Node000030" class="edge">
<title>Node30&#45;&gt;Node1</title>
<g id="a_edge45_Node000001_Node000030"><a xlink:title=" ">
<path fill="none" stroke="#9a32cd" stroke-dasharray="5,2" d="M780.67,-61.05C824.56,-70.23 891.32,-91.57 924.3,-139.31 967.23,-201.46 985.81,-446.29 989.98,-510.22"/>
<polygon fill="#9a32cd" stroke="#9a32cd" points="781.53,-57.46 771.05,-58.97 780.19,-64.33 781.53,-57.46"/>
</a>
</g>
<text text-anchor="middle" x="876.68" y="-141.31" font-family="Times,serif" font-size="10.00" fill="grey"> alive_</text>
</g>
</g>
</svg>

<g id="navigator" transform="translate(0 0)" fill="#404254">
  <rect fill="#f2f5e9" fill-opacity="0.5" stroke="#606060" stroke-width=".5" x="0" y="0" width="60" height="60"/>
  <use id="zoomplus" xlink:href="#zoomPlus" x="17" y="9" onmousedown="handleZoom(evt,'in')"/>
  <use id="zoomminus" xlink:href="#zoomMin" x="42" y="9" onmousedown="handleZoom(evt,'out')"/>
  <use id="reset" xlink:href="#resetDef" x="30" y="36" onmousedown="handleReset()"/>
   <use id="arrowup" xlink:href="#arrowUp" x="0" y="0" onmousedown="handlePan(0,-1)"/>
  <use id="arrowright" xlink:href="#arrowRight" x="0" y="0" onmousedown="handlePan(1,0)"/>
  <use id="arrowdown" xlink:href="#arrowDown" x="0" y="0" onmousedown="handlePan(0,1)"/>
  <use id="arrowleft" xlink:href="#arrowLeft" x="0" y="0" onmousedown="handlePan(-1,0)"/>
</g>
<svg viewBox="0 0 15 15" width="100%" height="30px" preserveAspectRatio="xMaxYMin meet">
 <g id="arrow_out" transform="scale(0.3 0.3)">
  <a xlink:href="classmal__packet__weaver_1_1_packet_dispatcher__coll__graph_org.svg" target="_base">
   <rect id="button" ry="5" rx="5" y="6" x="6" height="38" width="38"
        fill="#f2f5e9" fill-opacity="0.5" stroke="#606060" stroke-width="1.0"/>
   <path id="arrow"
     d="M 11.500037,31.436501 C 11.940474,20.09759 22.043105,11.32322 32.158766,21.979434 L 37.068811,17.246167 C 37.068811,17.246167 37.088388,32 37.088388,32 L 22.160133,31.978069 C 22.160133,31.978069 26.997745,27.140456 26.997745,27.140456 C 18.528582,18.264221 13.291696,25.230495 11.500037,31.436501 z"
     style="fill:#404040;"/>
  </a>
 </g>
</svg>

<style type='text/css'>
<![CDATA[
[data-mouse-over-selected='false'] { opacity: 0.7; }
[data-mouse-over-selected='true']  { opacity: 1.0; }
]]>
</style>
<script type="application/ecmascript"><![CDATA[
document.addEventListener('DOMContentLoaded', (event) => {
  highlightEdges();
  highlightAdjacentNodes();
});
]]></script>
</svg>
