<?xml version="1.0" encoding="UTF-8" standalone="no"?>
<!DOCTYPE svg PUBLIC "-//W3C//DTD SVG 1.1//EN"
 "http://www.w3.org/Graphics/SVG/1.1/DTD/svg11.dtd">
<!-- Generated by graphviz version 9.0.0 (20230911.1827)
 -->
<!-- Title: mal_toolkit::ExponentialBackoff::decrease_delay Pages: 1 -->
<svg width="394pt" height="158pt"
 viewBox="0.00 0.00 393.50 158.12" xmlns="http://www.w3.org/2000/svg" xmlns:xlink="http://www.w3.org/1999/xlink">
<g id="graph0" class="graph" transform="scale(1 1) rotate(0) translate(4 154.12)">
<title>mal_toolkit::ExponentialBackoff::decrease_delay</title>
<!-- Node1 -->
<g id="Node000001" class="node">
<title>Node1</title>
<g id="a_Node000001"><a xlink:title="Decrease the backoff delay using divisor factor.">
<polygon fill="#999999" stroke="#666666" points="385.5,-84.5 274.25,-84.5 274.25,-54 385.5,-54 385.5,-84.5"/>
<text text-anchor="start" x="282.25" y="-71" font-family="Times,serif" font-size="10.00">mal_toolkit::Exponential</text>
<text text-anchor="middle" x="329.88" y="-59.75" font-family="Times,serif" font-size="10.00">Backoff::decrease_delay</text>
</a>
</g>
</g>
<!-- Node2 -->
<g id="Node000002" class="node">
<title>Node2</title>
<g id="a_Node000002"><a xlink:href="../../d8/d39/classmal__packet__weaver_1_1_session.html#ab8d02d6502bb180c3b0f383b3fddc6ca" target="_top" xlink:title="Asynchronously forges new packets from the buffer.">
<polygon fill="white" stroke="#666666" points="238.25,-150.12 135.25,-150.12 135.25,-108.38 238.25,-108.38 238.25,-150.12"/>
<text text-anchor="start" x="143.25" y="-136.62" font-family="Times,serif" font-size="10.00">mal_packet_weaver::</text>
<text text-anchor="start" x="143.25" y="-125.38" font-family="Times,serif" font-size="10.00">Session::async_packet</text>
<text text-anchor="middle" x="186.75" y="-114.12" font-family="Times,serif" font-size="10.00">_forger</text>
</a>
</g>
</g>
<!-- Node1&#45;&gt;Node2 -->
<g id="edge1_Node000001_Node000002" class="edge">
<title>Node1&#45;&gt;Node2</title>
<g id="a_edge1_Node000001_Node000002"><a xlink:title=" ">
<path fill="none" stroke="#63b8ff" d="M281.7,-89.31C267.6,-95.3 252.1,-101.89 237.82,-107.96"/>
<polygon fill="#63b8ff" stroke="#63b8ff" points="282.94,-92.58 290.77,-85.45 280.2,-86.14 282.94,-92.58"/>
</a>
</g>
</g>
<!-- Node4 -->
<g id="Node000004" class="node">
<title>Node4</title>
<g id="a_Node000004"><a xlink:href="../../d8/d39/classmal__packet__weaver_1_1_session.html#a95349691831542cec27090d0ab21ca88" target="_top" xlink:title="Asynchronously receives and processes incoming packets from the network.">
<polygon fill="white" stroke="#666666" points="238.25,-90.12 135.25,-90.12 135.25,-48.38 238.25,-48.38 238.25,-90.12"/>
<text text-anchor="start" x="143.25" y="-76.62" font-family="Times,serif" font-size="10.00">mal_packet_weaver::</text>
<text text-anchor="start" x="143.25" y="-65.38" font-family="Times,serif" font-size="10.00">Session::async_packet</text>
<text text-anchor="middle" x="186.75" y="-54.12" font-family="Times,serif" font-size="10.00">_sender</text>
</a>
</g>
</g>
<!-- Node1&#45;&gt;Node4 -->
<g id="edge3_Node000001_Node000004" class="edge">
<title>Node1&#45;&gt;Node4</title>
<g id="a_edge3_Node000001_Node000004"><a xlink:title=" ">
<path fill="none" stroke="#63b8ff" d="M262.61,-69.25C254.56,-69.25 246.43,-69.25 238.65,-69.25"/>
<polygon fill="#63b8ff" stroke="#63b8ff" points="262.39,-72.75 272.39,-69.25 262.39,-65.75 262.39,-72.75"/>
</a>
</g>
</g>
<!-- Node5 -->
<g id="Node000005" class="node">
<title>Node5</title>
<g id="a_Node000005"><a xlink:href="../../d8/d39/classmal__packet__weaver_1_1_session.html#a71ede34f71a6dc30d56d99015997caa3" target="_top" xlink:title="Asynchronously sends all packets in the queue through the network.">
<polygon fill="white" stroke="#666666" points="236.38,-30.5 137.12,-30.5 137.12,0 236.38,0 236.38,-30.5"/>
<text text-anchor="start" x="145.12" y="-17" font-family="Times,serif" font-size="10.00">mal_packet_weaver::</text>
<text text-anchor="middle" x="186.75" y="-5.75" font-family="Times,serif" font-size="10.00">Session::send_all</text>
</a>
</g>
</g>
<!-- Node1&#45;&gt;Node5 -->
<g id="edge5_Node000001_Node000005" class="edge">
<title>Node1&#45;&gt;Node5</title>
<g id="a_edge5_Node000001_Node000005"><a xlink:title=" ">
<path fill="none" stroke="#63b8ff" d="M277.67,-49.66C261.49,-43.46 243.83,-36.71 228.48,-30.83"/>
<polygon fill="#63b8ff" stroke="#63b8ff" points="276.05,-52.79 286.64,-53.09 278.55,-46.25 276.05,-52.79"/>
</a>
</g>
</g>
<!-- Node3 -->
<g id="Node000003" class="node">
<title>Node3</title>
<g id="a_Node000003"><a xlink:href="../../d8/d39/classmal__packet__weaver_1_1_session.html#a5cf271c70d7ec610cfb01d0ed8655693" target="_top" xlink:title="Constructor for the Session class.">
<polygon fill="white" stroke="#666666" points="99.25,-84.5 0,-84.5 0,-54 99.25,-54 99.25,-84.5"/>
<text text-anchor="start" x="8" y="-71" font-family="Times,serif" font-size="10.00">mal_packet_weaver::</text>
<text text-anchor="middle" x="49.62" y="-59.75" font-family="Times,serif" font-size="10.00">Session::Session</text>
</a>
</g>
</g>
<!-- Node2&#45;&gt;Node3 -->
<g id="edge2_Node000002_Node000003" class="edge">
<title>Node2&#45;&gt;Node3</title>
<g id="a_edge2_Node000002_Node000003"><a xlink:title=" ">
<path fill="none" stroke="#63b8ff" d="M127.51,-103.39C113.29,-97.08 98.51,-90.51 85.75,-84.85"/>
<polygon fill="#63b8ff" stroke="#63b8ff" points="125.79,-106.45 136.35,-107.31 128.63,-100.06 125.79,-106.45"/>
</a>
</g>
</g>
<!-- Node4&#45;&gt;Node3 -->
<g id="edge4_Node000004_Node000003" class="edge">
<title>Node4&#45;&gt;Node3</title>
<g id="a_edge4_Node000004_Node000003"><a xlink:title=" ">
<path fill="none" stroke="#63b8ff" d="M123.65,-69.25C115.51,-69.25 107.25,-69.25 99.37,-69.25"/>
<polygon fill="#63b8ff" stroke="#63b8ff" points="123.54,-72.75 133.54,-69.25 123.54,-65.75 123.54,-72.75"/>
</a>
</g>
</g>
<!-- Node5&#45;&gt;Node3 -->
<g id="edge6_Node000005_Node000003" class="edge">
<title>Node5&#45;&gt;Node3</title>
<g id="a_edge6_Node000005_Node000003"><a xlink:title=" ">
<path fill="none" stroke="#63b8ff" d="M136.28,-35.02C120.9,-41.16 104.18,-47.85 89.62,-53.67"/>
<polygon fill="#63b8ff" stroke="#63b8ff" points="137.27,-38.39 145.26,-31.43 134.68,-31.89 137.27,-38.39"/>
</a>
</g>
</g>
</g>
</svg>
