<?xml version="1.0" encoding="UTF-8" standalone="no"?>
<!DOCTYPE svg PUBLIC "-//W3C//DTD SVG 1.1//EN"
 "http://www.w3.org/Graphics/SVG/1.1/DTD/svg11.dtd">
<!-- Generated by graphviz version 8.1.0 (20230707.0739)
 -->
<!-- Title: mal_toolkit::ExponentialBackoff::get_current_delay Pages: 1 -->
<svg width="634pt" height="305pt"
 viewBox="0.00 0.00 633.75 304.50" xmlns="http://www.w3.org/2000/svg" xmlns:xlink="http://www.w3.org/1999/xlink">
<g id="graph0" class="graph" transform="scale(1 1) rotate(0) translate(4 300.5)">
<title>mal_toolkit::ExponentialBackoff::get_current_delay</title>
<!-- Node1 -->
<g id="Node000001" class="node">
<title>Node1</title>
<g id="a_Node000001"><a xlink:title="Get the current backoff delay.">
<polygon fill="#999999" stroke="#666666" points="625.75,-182.5 503.25,-182.5 503.25,-152 625.75,-152 625.75,-182.5"/>
<text text-anchor="start" x="511.25" y="-169" font-family="Times,serif" font-size="10.00">mal_toolkit::Exponential</text>
<text text-anchor="middle" x="564.5" y="-157.75" font-family="Times,serif" font-size="10.00">Backoff::get_current_delay</text>
</a>
</g>
</g>
<!-- Node2 -->
<g id="Node000002" class="node">
<title>Node2</title>
<g id="a_Node000002"><a xlink:href="../../d8/d39/classmal__packet__weaver_1_1_session.html#ab8d02d6502bb180c3b0f383b3fddc6ca" target="_top" xlink:title="Asynchronously forges new packets from the buffer.">
<polygon fill="white" stroke="#666666" points="305,-248.12 202,-248.12 202,-206.38 305,-206.38 305,-248.12"/>
<text text-anchor="start" x="210" y="-234.62" font-family="Times,serif" font-size="10.00">mal_packet_weaver::</text>
<text text-anchor="start" x="210" y="-223.38" font-family="Times,serif" font-size="10.00">Session::async_packet</text>
<text text-anchor="middle" x="253.5" y="-212.12" font-family="Times,serif" font-size="10.00">_forger</text>
</a>
</g>
</g>
<!-- Node1&#45;&gt;Node2 -->
<g id="edge1_Node000001_Node000002" class="edge">
<title>Node1&#45;&gt;Node2</title>
<g id="a_edge1_Node000001_Node000002"><a xlink:title=" ">
<path fill="none" stroke="#63b8ff" d="M492.05,-181.12C434.91,-192.22 356.2,-207.5 305.32,-217.38"/>
<polygon fill="#63b8ff" stroke="#63b8ff" points="492.67,-184.37 501.82,-179.03 491.34,-177.5 492.67,-184.37"/>
</a>
</g>
</g>
<!-- Node4 -->
<g id="Node000004" class="node">
<title>Node4</title>
<g id="a_Node000004"><a xlink:href="../../d8/d39/classmal__packet__weaver_1_1_session.html#a95349691831542cec27090d0ab21ca88" target="_top" xlink:title="Asynchronously receives and processes incoming packets from the network.">
<polygon fill="white" stroke="#666666" points="305,-188.12 202,-188.12 202,-146.38 305,-146.38 305,-188.12"/>
<text text-anchor="start" x="210" y="-174.62" font-family="Times,serif" font-size="10.00">mal_packet_weaver::</text>
<text text-anchor="start" x="210" y="-163.38" font-family="Times,serif" font-size="10.00">Session::async_packet</text>
<text text-anchor="middle" x="253.5" y="-152.12" font-family="Times,serif" font-size="10.00">_sender</text>
</a>
</g>
</g>
<!-- Node1&#45;&gt;Node4 -->
<g id="edge3_Node000001_Node000004" class="edge">
<title>Node1&#45;&gt;Node4</title>
<g id="a_edge3_Node000001_Node000004"><a xlink:title=" ">
<path fill="none" stroke="#63b8ff" d="M492.05,-167.25C434.91,-167.25 356.2,-167.25 305.32,-167.25"/>
<polygon fill="#63b8ff" stroke="#63b8ff" points="491.82,-170.75 501.82,-167.25 491.82,-163.75 491.82,-170.75"/>
</a>
</g>
</g>
<!-- Node5 -->
<g id="Node000005" class="node">
<title>Node5</title>
<g id="a_Node000005"><a xlink:href="../../d4/d61/classmal__packet__weaver_1_1_packet_dispatcher.html#ad7cba4339fd22ce22ff13bd940f839ff" target="_top" xlink:title="Retrieves a shared pointer to the current dispatcher.">
<polygon fill="white" stroke="#666666" points="457.5,-139.12 353.75,-139.12 353.75,-97.38 457.5,-97.38 457.5,-139.12"/>
<text text-anchor="start" x="361.75" y="-125.62" font-family="Times,serif" font-size="10.00">mal_packet_weaver::</text>
<text text-anchor="start" x="361.75" y="-114.38" font-family="Times,serif" font-size="10.00">PacketDispatcher::get</text>
<text text-anchor="middle" x="405.62" y="-103.12" font-family="Times,serif" font-size="10.00">_shared_ptr</text>
</a>
</g>
</g>
<!-- Node1&#45;&gt;Node5 -->
<g id="edge5_Node000001_Node000005" class="edge">
<title>Node1&#45;&gt;Node5</title>
<g id="a_edge5_Node000001_Node000005"><a xlink:title=" ">
<path fill="none" stroke="#63b8ff" d="M503.24,-148.43C488.26,-143.75 472.34,-138.77 457.83,-134.25"/>
<polygon fill="#63b8ff" stroke="#63b8ff" points="501.84,-151.97 512.43,-151.61 503.93,-145.29 501.84,-151.97"/>
</a>
</g>
</g>
<!-- Node8 -->
<g id="Node000008" class="node">
<title>Node8</title>
<g id="a_Node000008"><a xlink:href="../../d8/d39/classmal__packet__weaver_1_1_session.html#a44aae33be31d6dd7db9feb4142b3239e" target="_top" xlink:title="Retrieves a shared pointer to the current session.">
<polygon fill="white" stroke="#666666" points="460.88,-263.5 350.38,-263.5 350.38,-233 460.88,-233 460.88,-263.5"/>
<text text-anchor="start" x="358.38" y="-250" font-family="Times,serif" font-size="10.00">mal_packet_weaver::</text>
<text text-anchor="middle" x="405.62" y="-238.75" font-family="Times,serif" font-size="10.00">Session::get_shared_ptr</text>
</a>
</g>
</g>
<!-- Node1&#45;&gt;Node8 -->
<g id="edge8_Node000001_Node000008" class="edge">
<title>Node1&#45;&gt;Node8</title>
<g id="a_edge8_Node000001_Node000008"><a xlink:title=" ">
<path fill="none" stroke="#63b8ff" d="M526.06,-188.03C508.34,-197.73 486.82,-209.29 467.25,-219.25 458.52,-223.7 448.99,-228.35 440.12,-232.59"/>
<polygon fill="#63b8ff" stroke="#63b8ff" points="527.39,-190.74 534.47,-182.86 524.02,-184.61 527.39,-190.74"/>
</a>
</g>
</g>
<!-- Node9 -->
<g id="Node000009" class="node">
<title>Node9</title>
<g id="a_Node000009"><a xlink:href="../../d8/d39/classmal__packet__weaver_1_1_session.html#a71ede34f71a6dc30d56d99015997caa3" target="_top" xlink:title="Asynchronously sends all packets in the queue through the network.">
<polygon fill="white" stroke="#666666" points="303.12,-296.5 203.88,-296.5 203.88,-266 303.12,-266 303.12,-296.5"/>
<text text-anchor="start" x="211.88" y="-283" font-family="Times,serif" font-size="10.00">mal_packet_weaver::</text>
<text text-anchor="middle" x="253.5" y="-271.75" font-family="Times,serif" font-size="10.00">Session::send_all</text>
</a>
</g>
</g>
<!-- Node1&#45;&gt;Node9 -->
<g id="edge12_Node000001_Node000009" class="edge">
<title>Node1&#45;&gt;Node9</title>
<g id="a_edge12_Node000001_Node000009"><a xlink:title=" ">
<path fill="none" stroke="#63b8ff" d="M549.14,-191.95C532.88,-217.25 503.83,-255.23 467.25,-272.25 415.3,-296.43 348.26,-294.63 303.46,-289.44"/>
<polygon fill="#63b8ff" stroke="#63b8ff" points="552.43,-194.28 554.73,-183.94 546.48,-190.59 552.43,-194.28"/>
</a>
</g>
</g>
<!-- Node10 -->
<g id="Node000010" class="node">
<title>Node10</title>
<g id="a_Node000010"><a xlink:href="../../d8/d39/classmal__packet__weaver_1_1_session.html#a961d49d84fb1426fc605c529df1296d1" target="_top" xlink:title=" ">
<polygon fill="white" stroke="#666666" points="467.25,-79.5 344,-79.5 344,-49 467.25,-49 467.25,-79.5"/>
<text text-anchor="start" x="352" y="-66" font-family="Times,serif" font-size="10.00">mal_packet_weaver::</text>
<text text-anchor="middle" x="405.62" y="-54.75" font-family="Times,serif" font-size="10.00">Session::pop_packet_async</text>
</a>
</g>
</g>
<!-- Node1&#45;&gt;Node10 -->
<g id="edge11_Node000001_Node000010" class="edge">
<title>Node1&#45;&gt;Node10</title>
<g id="a_edge11_Node000001_Node000010"><a xlink:title=" ">
<path fill="none" stroke="#63b8ff" d="M539.74,-144.17C521.16,-127.05 494.07,-104.04 467.25,-88.25 462.18,-85.26 456.66,-82.5 451.1,-79.99"/>
<polygon fill="#63b8ff" stroke="#63b8ff" points="536.95,-146.29 546.64,-150.57 541.74,-141.18 536.95,-146.29"/>
</a>
</g>
</g>
<!-- Node11 -->
<g id="Node000011" class="node">
<title>Node11</title>
<g id="a_Node000011"><a xlink:href="../../d8/d39/classmal__packet__weaver_1_1_session.html#a66b134c55cf54ac2e84daa77f381235e" target="_top" xlink:title="Sends any packet derived from DerivedPacket through the network.">
<polygon fill="white" stroke="#666666" points="455.25,-30.5 356,-30.5 356,0 455.25,0 455.25,-30.5"/>
<text text-anchor="start" x="364" y="-17" font-family="Times,serif" font-size="10.00">mal_packet_weaver::</text>
<text text-anchor="middle" x="405.62" y="-5.75" font-family="Times,serif" font-size="10.00">Session::send_packet</text>
</a>
</g>
</g>
<!-- Node1&#45;&gt;Node11 -->
<g id="edge13_Node000001_Node000011" class="edge">
<title>Node1&#45;&gt;Node11</title>
<g id="a_edge13_Node000001_Node000011"><a xlink:title=" ">
<path fill="none" stroke="#63b8ff" d="M550.08,-142.32C533.81,-114.15 503.94,-68.53 467.25,-40.25 462.65,-36.71 457.48,-33.58 452.14,-30.85"/>
<polygon fill="#63b8ff" stroke="#63b8ff" points="547.5,-143.86 555.45,-150.85 553.59,-140.42 547.5,-143.86"/>
</a>
</g>
</g>
<!-- Node3 -->
<g id="Node000003" class="node">
<title>Node3</title>
<g id="a_Node000003"><a xlink:href="../../d8/d39/classmal__packet__weaver_1_1_session.html#a5cf271c70d7ec610cfb01d0ed8655693" target="_top" xlink:title="Constructor for the Session class.">
<polygon fill="white" stroke="#666666" points="131.12,-242.5 31.88,-242.5 31.88,-212 131.12,-212 131.12,-242.5"/>
<text text-anchor="start" x="39.88" y="-229" font-family="Times,serif" font-size="10.00">mal_packet_weaver::</text>
<text text-anchor="middle" x="81.5" y="-217.75" font-family="Times,serif" font-size="10.00">Session::Session</text>
</a>
</g>
</g>
<!-- Node2&#45;&gt;Node3 -->
<g id="edge2_Node000002_Node000003" class="edge">
<title>Node2&#45;&gt;Node3</title>
<g id="a_edge2_Node000002_Node000003"><a xlink:title=" ">
<path fill="none" stroke="#63b8ff" d="M190.97,-227.25C171.37,-227.25 149.97,-227.25 131.39,-227.25"/>
<polygon fill="#63b8ff" stroke="#63b8ff" points="190.95,-230.75 200.95,-227.25 190.95,-223.75 190.95,-230.75"/>
</a>
</g>
</g>
<!-- Node4&#45;&gt;Node3 -->
<g id="edge4_Node000004_Node000003" class="edge">
<title>Node4&#45;&gt;Node3</title>
<g id="a_edge4_Node000004_Node000003"><a xlink:title=" ">
<path fill="none" stroke="#63b8ff" d="M191.69,-188.71C170.37,-196.24 146.82,-204.55 127.08,-211.52"/>
<polygon fill="#63b8ff" stroke="#63b8ff" points="192.69,-191.72 200.95,-185.09 190.36,-185.12 192.69,-191.72"/>
</a>
</g>
</g>
<!-- Node6 -->
<g id="Node000006" class="node">
<title>Node6</title>
<g id="a_Node000006"><a xlink:href="../../d4/d61/classmal__packet__weaver_1_1_packet_dispatcher.html#ae48b4ef1938ba5fb557d1d9269c1a323" target="_top" xlink:title="This function represents the main loop for running a task with exponential backoff and asynchronous I...">
<polygon fill="white" stroke="#666666" points="308,-128.5 199,-128.5 199,-98 308,-98 308,-128.5"/>
<text text-anchor="start" x="207" y="-115" font-family="Times,serif" font-size="10.00">mal_packet_weaver::</text>
<text text-anchor="middle" x="253.5" y="-103.75" font-family="Times,serif" font-size="10.00">PacketDispatcher::Run</text>
</a>
</g>
</g>
<!-- Node5&#45;&gt;Node6 -->
<g id="edge6_Node000005_Node000006" class="edge">
<title>Node5&#45;&gt;Node6</title>
<g id="a_edge6_Node000005_Node000006"><a xlink:title=" ">
<path fill="none" stroke="#63b8ff" d="M342.63,-116.19C331.25,-115.81 319.45,-115.41 308.33,-115.04"/>
<polygon fill="#63b8ff" stroke="#63b8ff" points="342.27,-119.71 352.38,-116.54 342.5,-112.71 342.27,-119.71"/>
</a>
</g>
</g>
<!-- Node7 -->
<g id="Node000007" class="node">
<title>Node7</title>
<g id="a_Node000007"><a xlink:href="../../d4/d61/classmal__packet__weaver_1_1_packet_dispatcher.html#ac22bb2ccd532850a73766ce512b50082" target="_top" xlink:title="Constructs a PacketDispatcher instance associated with the given io_context.">
<polygon fill="white" stroke="#666666" points="163,-128.5 0,-128.5 0,-98 163,-98 163,-128.5"/>
<text text-anchor="start" x="8" y="-115" font-family="Times,serif" font-size="10.00">mal_packet_weaver::</text>
<text text-anchor="middle" x="81.5" y="-103.75" font-family="Times,serif" font-size="10.00">PacketDispatcher::PacketDispatcher</text>
</a>
</g>
</g>
<!-- Node6&#45;&gt;Node7 -->
<g id="edge7_Node000006_Node000007" class="edge">
<title>Node6&#45;&gt;Node7</title>
<g id="a_edge7_Node000006_Node000007"><a xlink:title=" ">
<path fill="none" stroke="#63b8ff" d="M187.91,-113.25C179.85,-113.25 171.53,-113.25 163.27,-113.25"/>
<polygon fill="#63b8ff" stroke="#63b8ff" points="187.71,-116.75 197.71,-113.25 187.71,-109.75 187.71,-116.75"/>
</a>
</g>
</g>
<!-- Node8&#45;&gt;Node9 -->
<g id="edge9_Node000008_Node000009" class="edge">
<title>Node8&#45;&gt;Node9</title>
<g id="a_edge9_Node000008_Node000009"><a xlink:title=" ">
<path fill="none" stroke="#63b8ff" d="M339.48,-262.57C327.36,-265.23 314.89,-267.98 303.36,-270.51"/>
<polygon fill="#63b8ff" stroke="#63b8ff" points="339.99,-265.82 349,-260.26 338.48,-258.99 339.99,-265.82"/>
</a>
</g>
</g>
<!-- Node9&#45;&gt;Node3 -->
<g id="edge10_Node000009_Node000003" class="edge">
<title>Node9&#45;&gt;Node3</title>
<g id="a_edge10_Node000009_Node000003"><a xlink:title=" ">
<path fill="none" stroke="#63b8ff" d="M193.44,-262.49C173.23,-256.07 150.85,-248.96 131.52,-242.82"/>
<polygon fill="#63b8ff" stroke="#63b8ff" points="192.19,-266.08 202.78,-265.78 194.31,-259.41 192.19,-266.08"/>
</a>
</g>
</g>
</g>
</svg>
