<?xml version="1.0" encoding="UTF-8" standalone="no"?>
<!DOCTYPE svg PUBLIC "-//W3C//DTD SVG 1.1//EN"
 "http://www.w3.org/Graphics/SVG/1.1/DTD/svg11.dtd">
<!-- Generated by graphviz version 8.1.0 (20230707.0739)
 -->
<!-- Title: mal_toolkit::ExponentialBackoff::get_current_delay Pages: 1 -->
<svg width="564pt" height="276pt"
 viewBox="0.00 0.00 564.00 276.12" xmlns="http://www.w3.org/2000/svg" xmlns:xlink="http://www.w3.org/1999/xlink">
<g id="graph0" class="graph" transform="scale(1 1) rotate(0) translate(4 272.12)">
<title>mal_toolkit::ExponentialBackoff::get_current_delay</title>
<!-- Node1 -->
<g id="Node000001" class="node">
<title>Node1</title>
<g id="a_Node000001"><a xlink:title="Get the current backoff delay.">
<polygon fill="#999999" stroke="#666666" points="556,-143.5 433.5,-143.5 433.5,-113 556,-113 556,-143.5"/>
<text text-anchor="start" x="441.5" y="-130" font-family="Times,serif" font-size="10.00">mal_toolkit::Exponential</text>
<text text-anchor="middle" x="494.75" y="-118.75" font-family="Times,serif" font-size="10.00">Backoff::get_current_delay</text>
</a>
</g>
</g>
<!-- Node2 -->
<g id="Node000002" class="node">
<title>Node2</title>
<g id="a_Node000002"><a xlink:href="../../d8/d39/classmal__packet__weaver_1_1_session.html#ab8d02d6502bb180c3b0f383b3fddc6ca" target="_top" xlink:title="Asynchronously forges new packets from the buffer.">
<polygon fill="white" stroke="#666666" points="238.25,-268.12 135.25,-268.12 135.25,-226.38 238.25,-226.38 238.25,-268.12"/>
<text text-anchor="start" x="143.25" y="-254.62" font-family="Times,serif" font-size="10.00">mal_packet_weaver::</text>
<text text-anchor="start" x="143.25" y="-243.38" font-family="Times,serif" font-size="10.00">Session::async_packet</text>
<text text-anchor="middle" x="186.75" y="-232.12" font-family="Times,serif" font-size="10.00">_forger</text>
</a>
</g>
</g>
<!-- Node1&#45;&gt;Node2 -->
<g id="edge1_Node000001_Node000002" class="edge">
<title>Node1&#45;&gt;Node2</title>
<g id="a_edge1_Node000001_Node000002"><a xlink:title=" ">
<path fill="none" stroke="#63b8ff" d="M467.78,-150.71C449.3,-165.62 423.27,-184.53 397.5,-196.25 345.99,-219.68 282.27,-233.21 238.66,-240.37"/>
<polygon fill="#63b8ff" stroke="#63b8ff" points="469.72,-152.82 475.21,-143.76 465.27,-147.42 469.72,-152.82"/>
</a>
</g>
</g>
<!-- Node4 -->
<g id="Node000004" class="node">
<title>Node4</title>
<g id="a_Node000004"><a xlink:href="../../d8/d39/classmal__packet__weaver_1_1_session.html#a95349691831542cec27090d0ab21ca88" target="_top" xlink:title="Asynchronously receives and processes incoming packets from the network.">
<polygon fill="white" stroke="#666666" points="238.25,-208.12 135.25,-208.12 135.25,-166.38 238.25,-166.38 238.25,-208.12"/>
<text text-anchor="start" x="143.25" y="-194.62" font-family="Times,serif" font-size="10.00">mal_packet_weaver::</text>
<text text-anchor="start" x="143.25" y="-183.38" font-family="Times,serif" font-size="10.00">Session::async_packet</text>
<text text-anchor="middle" x="186.75" y="-172.12" font-family="Times,serif" font-size="10.00">_sender</text>
</a>
</g>
</g>
<!-- Node1&#45;&gt;Node4 -->
<g id="edge3_Node000001_Node000004" class="edge">
<title>Node1&#45;&gt;Node4</title>
<g id="a_edge3_Node000001_Node000004"><a xlink:title=" ">
<path fill="none" stroke="#63b8ff" d="M458.87,-148.92C441.12,-158.39 418.83,-168.72 397.5,-174.25 344.53,-187.99 281.62,-190.1 238.61,-189.48"/>
<polygon fill="#63b8ff" stroke="#63b8ff" points="460.15,-151.67 467.23,-143.79 456.78,-145.53 460.15,-151.67"/>
</a>
</g>
</g>
<!-- Node5 -->
<g id="Node000005" class="node">
<title>Node5</title>
<g id="a_Node000005"><a xlink:href="../../d8/d39/classmal__packet__weaver_1_1_session.html#a44aae33be31d6dd7db9feb4142b3239e" target="_top" xlink:title="Retrieves a shared pointer to the current session.">
<polygon fill="white" stroke="#666666" points="391.12,-165.5 280.62,-165.5 280.62,-135 391.12,-135 391.12,-165.5"/>
<text text-anchor="start" x="288.62" y="-152" font-family="Times,serif" font-size="10.00">mal_packet_weaver::</text>
<text text-anchor="middle" x="335.88" y="-140.75" font-family="Times,serif" font-size="10.00">Session::get_shared_ptr</text>
</a>
</g>
</g>
<!-- Node1&#45;&gt;Node5 -->
<g id="edge5_Node000001_Node000005" class="edge">
<title>Node1&#45;&gt;Node5</title>
<g id="a_edge5_Node000001_Node000005"><a xlink:title=" ">
<path fill="none" stroke="#63b8ff" d="M422.37,-138.26C411.99,-139.72 401.45,-141.19 391.47,-142.59"/>
<polygon fill="#63b8ff" stroke="#63b8ff" points="422.68,-141.61 432.1,-136.76 421.71,-134.68 422.68,-141.61"/>
</a>
</g>
</g>
<!-- Node6 -->
<g id="Node000006" class="node">
<title>Node6</title>
<g id="a_Node000006"><a xlink:href="../../d8/d39/classmal__packet__weaver_1_1_session.html#a71ede34f71a6dc30d56d99015997caa3" target="_top" xlink:title="Asynchronously sends all packets in the queue through the network.">
<polygon fill="white" stroke="#666666" points="236.38,-148.5 137.12,-148.5 137.12,-118 236.38,-118 236.38,-148.5"/>
<text text-anchor="start" x="145.12" y="-135" font-family="Times,serif" font-size="10.00">mal_packet_weaver::</text>
<text text-anchor="middle" x="186.75" y="-123.75" font-family="Times,serif" font-size="10.00">Session::send_all</text>
</a>
</g>
</g>
<!-- Node1&#45;&gt;Node6 -->
<g id="edge9_Node000001_Node000006" class="edge">
<title>Node1&#45;&gt;Node6</title>
<g id="a_edge9_Node000001_Node000006"><a xlink:title=" ">
<path fill="none" stroke="#63b8ff" d="M422.26,-125.81C379.33,-124.79 323.64,-124.25 274.25,-126.25 262.06,-126.74 248.92,-127.62 236.66,-128.6"/>
<polygon fill="#63b8ff" stroke="#63b8ff" points="422.08,-129.34 432.17,-126.09 422.26,-122.34 422.08,-129.34"/>
</a>
</g>
</g>
<!-- Node7 -->
<g id="Node000007" class="node">
<title>Node7</title>
<g id="a_Node000007"><a xlink:href="../../d8/d39/classmal__packet__weaver_1_1_session.html#a961d49d84fb1426fc605c529df1296d1" target="_top" xlink:title=" ">
<polygon fill="white" stroke="#666666" points="397.5,-79.5 274.25,-79.5 274.25,-49 397.5,-49 397.5,-79.5"/>
<text text-anchor="start" x="282.25" y="-66" font-family="Times,serif" font-size="10.00">mal_packet_weaver::</text>
<text text-anchor="middle" x="335.88" y="-54.75" font-family="Times,serif" font-size="10.00">Session::pop_packet_async</text>
</a>
</g>
</g>
<!-- Node1&#45;&gt;Node7 -->
<g id="edge8_Node000001_Node000007" class="edge">
<title>Node1&#45;&gt;Node7</title>
<g id="a_edge8_Node000001_Node000007"><a xlink:title=" ">
<path fill="none" stroke="#63b8ff" d="M445.35,-108.5C422.87,-99.33 396.5,-88.58 375.4,-79.97"/>
<polygon fill="#63b8ff" stroke="#63b8ff" points="443.79,-112.06 454.37,-112.59 446.44,-105.58 443.79,-112.06"/>
</a>
</g>
</g>
<!-- Node8 -->
<g id="Node000008" class="node">
<title>Node8</title>
<g id="a_Node000008"><a xlink:href="../../d8/d39/classmal__packet__weaver_1_1_session.html#a66b134c55cf54ac2e84daa77f381235e" target="_top" xlink:title="Sends any packet derived from DerivedPacket through the network.">
<polygon fill="white" stroke="#666666" points="385.5,-30.5 286.25,-30.5 286.25,0 385.5,0 385.5,-30.5"/>
<text text-anchor="start" x="294.25" y="-17" font-family="Times,serif" font-size="10.00">mal_packet_weaver::</text>
<text text-anchor="middle" x="335.88" y="-5.75" font-family="Times,serif" font-size="10.00">Session::send_packet</text>
</a>
</g>
</g>
<!-- Node1&#45;&gt;Node8 -->
<g id="edge10_Node000001_Node000008" class="edge">
<title>Node1&#45;&gt;Node8</title>
<g id="a_edge10_Node000001_Node000008"><a xlink:title=" ">
<path fill="none" stroke="#63b8ff" d="M472.59,-104.78C454.22,-85.48 426.14,-58.44 397.5,-40.25 392.12,-36.83 386.19,-33.71 380.21,-30.93"/>
<polygon fill="#63b8ff" stroke="#63b8ff" points="469.69,-106.88 479.08,-111.79 474.81,-102.09 469.69,-106.88"/>
</a>
</g>
</g>
<!-- Node3 -->
<g id="Node000003" class="node">
<title>Node3</title>
<g id="a_Node000003"><a xlink:href="../../d8/d39/classmal__packet__weaver_1_1_session.html#a5cf271c70d7ec610cfb01d0ed8655693" target="_top" xlink:title="Constructor for the Session class.">
<polygon fill="white" stroke="#666666" points="99.25,-202.5 0,-202.5 0,-172 99.25,-172 99.25,-202.5"/>
<text text-anchor="start" x="8" y="-189" font-family="Times,serif" font-size="10.00">mal_packet_weaver::</text>
<text text-anchor="middle" x="49.62" y="-177.75" font-family="Times,serif" font-size="10.00">Session::Session</text>
</a>
</g>
</g>
<!-- Node2&#45;&gt;Node3 -->
<g id="edge2_Node000002_Node000003" class="edge">
<title>Node2&#45;&gt;Node3</title>
<g id="a_edge2_Node000002_Node000003"><a xlink:title=" ">
<path fill="none" stroke="#63b8ff" d="M127.93,-221.57C113.58,-215.2 98.63,-208.57 85.75,-202.85"/>
<polygon fill="#63b8ff" stroke="#63b8ff" points="126.17,-225.07 136.73,-225.93 129.01,-218.67 126.17,-225.07"/>
</a>
</g>
</g>
<!-- Node4&#45;&gt;Node3 -->
<g id="edge4_Node000004_Node000003" class="edge">
<title>Node4&#45;&gt;Node3</title>
<g id="a_edge4_Node000004_Node000003"><a xlink:title=" ">
<path fill="none" stroke="#63b8ff" d="M124.21,-187.25C115.89,-187.25 107.43,-187.25 99.37,-187.25"/>
<polygon fill="#63b8ff" stroke="#63b8ff" points="124.05,-190.75 134.05,-187.25 124.05,-183.75 124.05,-190.75"/>
</a>
</g>
</g>
<!-- Node5&#45;&gt;Node6 -->
<g id="edge6_Node000005_Node000006" class="edge">
<title>Node5&#45;&gt;Node6</title>
<g id="a_edge6_Node000005_Node000006"><a xlink:title=" ">
<path fill="none" stroke="#63b8ff" d="M269.89,-142.74C258.69,-141.45 247.23,-140.12 236.55,-138.89"/>
<polygon fill="#63b8ff" stroke="#63b8ff" points="269.17,-146.3 279.51,-143.97 269.98,-139.34 269.17,-146.3"/>
</a>
</g>
</g>
<!-- Node6&#45;&gt;Node3 -->
<g id="edge7_Node000006_Node000003" class="edge">
<title>Node6&#45;&gt;Node3</title>
<g id="a_edge7_Node000006_Node000003"><a xlink:title=" ">
<path fill="none" stroke="#63b8ff" d="M136.72,-152.84C121.23,-159.04 104.32,-165.79 89.62,-171.67"/>
<polygon fill="#63b8ff" stroke="#63b8ff" points="137.68,-155.83 145.67,-148.87 135.08,-149.33 137.68,-155.83"/>
</a>
</g>
</g>
</g>
</svg>
