<?xml version="1.0" encoding="UTF-8" standalone="no"?>
<!DOCTYPE svg PUBLIC "-//W3C//DTD SVG 1.1//EN"
 "http://www.w3.org/Graphics/SVG/1.1/DTD/svg11.dtd">
<!-- Generated by graphviz version 9.0.0 (20230911.1827)
 -->
<!-- Title: mal_toolkit::ExponentialBackoff::get_current_delay Pages: 1 -->
<!--zoomable 320 -->

<svg id="main" version="1.1" xmlns="http://www.w3.org/2000/svg" xmlns:xlink="http://www.w3.org/1999/xlink" xml:space="preserve" onload="init(evt)">
<style type="text/css"><![CDATA[
.node, .edge {opacity: 0.7;}
.node.selected, .edge.selected {opacity: 1;}
.edge:hover path { stroke: red; }
.edge:hover polygon { stroke: red; fill: red; }
]]></style>

<defs>
  <circle id="rim" cx="0" cy="0" r="7"/>
  <circle id="rim2" cx="0" cy="0" r="3.5"/>
  <g id="zoomPlus">
    <use xlink:href="#rim" fill="#404040"><set attributeName="fill" to="#808080" begin="zoomplus.mouseover" end="zoomplus.mouseout"/></use>
    <path d="M-4,0h8M0,-4v8" fill="none" stroke="white" stroke-width="1.5" pointer-events="none"/>
  </g>
  <g id="zoomMin">
    <use xlink:href="#rim" fill="#404040"><set attributeName="fill" to="#808080" begin="zoomminus.mouseover" end="zoomminus.mouseout"/></use>
    <path d="M-4,0h8" fill="none" stroke="white" stroke-width="1.5" pointer-events="none"/>
  </g>
  <g id="arrowUp" transform="translate(30 24)">
    <use xlink:href="#rim"/>
    <path pointer-events="none" fill="none" stroke="white" stroke-width="1.5" d="M0,-3.0v7 M-2.5,-0.5L0,-3.0L2.5,-0.5"/>
  </g>
  <g id="arrowRight" transform="rotate(90) translate(36 -43)">
    <use xlink:href="#rim"/>
    <path pointer-events="none" fill="none" stroke="white" stroke-width="1.5" d="M0,-3.0v7 M-2.5,-0.5L0,-3.0L2.5,-0.5"/>
  </g>
  <g id="arrowDown" transform="rotate(180) translate(-30 -48)">
    <use xlink:href="#rim"/>
    <path pointer-events="none" fill="none" stroke="white" stroke-width="1.5" d="M0,-3.0v7 M-2.5,-0.5L0,-3.0L2.5,-0.5"/>
  </g>
  <g id="arrowLeft" transform="rotate(270) translate(-36 17)">
    <use xlink:href="#rim"/>
    <path pointer-events="none" fill="none" stroke="white" stroke-width="1.5" d="M0,-3.0v7 M-2.5,-0.5L0,-3.0L2.5,-0.5"/>
  </g>
  <g id="resetDef">
    <use xlink:href="#rim2" fill="#404040"><set attributeName="fill" to="#808080" begin="reset.mouseover" end="reset.mouseout"/></use>
  </g>
</defs>
<script type="application/ecmascript">
var viewWidth = 564;
var viewHeight = 320;
var sectionId = 'dynsection-2';
</script>
<script type="application/ecmascript" xlink:href="../../svg.min.js"/>
<svg id="graph" class="graph">
<g id="viewport">
<title>mal_toolkit::ExponentialBackoff::get_current_delay</title>
<!-- Node1 -->
<g id="Node000001" class="node">
<title>Node1</title>
<g id="a_Node000001"><a xlink:title="Get the current backoff delay.">
<polygon fill="#999999" stroke="#666666" points="556,-165.5 433.5,-165.5 433.5,-135 556,-135 556,-165.5"/>
<text text-anchor="start" x="441.5" y="-152" font-family="Times,serif" font-size="10.00">mal_toolkit::Exponential</text>
<text text-anchor="middle" x="494.75" y="-140.75" font-family="Times,serif" font-size="10.00">Backoff::get_current_delay</text>
</a>
</g>
</g>
<!-- Node2 -->
<g id="Node000002" class="node">
<title>Node2</title>
<g id="a_Node000002"><a xlink:href="../../d8/d39/classmal__packet__weaver_1_1_session.html#ab8d02d6502bb180c3b0f383b3fddc6ca" target="_top" xlink:title="Asynchronously forges new packets from the buffer.">
<polygon fill="white" stroke="#666666" points="238.25,-312.12 135.25,-312.12 135.25,-270.38 238.25,-270.38 238.25,-312.12"/>
<text text-anchor="start" x="143.25" y="-298.62" font-family="Times,serif" font-size="10.00">mal_packet_weaver::</text>
<text text-anchor="start" x="143.25" y="-287.38" font-family="Times,serif" font-size="10.00">Session::async_packet</text>
<text text-anchor="middle" x="186.75" y="-276.12" font-family="Times,serif" font-size="10.00">_forger</text>
</a>
</g>
</g>
<!-- Node1&#45;&gt;Node2 -->
<g id="edge1_Node000001_Node000002" class="edge">
<title>Node1&#45;&gt;Node2</title>
<g id="a_edge1_Node000001_Node000002"><a xlink:title=" ">
<path fill="none" stroke="#63b8ff" d="M477.86,-175.22C461,-199.51 432.05,-235.41 397.5,-254.25 348,-281.25 283.04,-289.21 238.61,-291.24"/>
<polygon fill="#63b8ff" stroke="#63b8ff" points="480.6,-177.43 483.28,-167.18 474.79,-173.52 480.6,-177.43"/>
</a>
</g>
</g>
<!-- Node4 -->
<g id="Node000004" class="node">
<title>Node4</title>
<g id="a_Node000004"><a xlink:href="../../d8/d39/classmal__packet__weaver_1_1_session.html#a95349691831542cec27090d0ab21ca88" target="_top" xlink:title="Asynchronously receives and processes incoming packets from the network.">
<polygon fill="white" stroke="#666666" points="238.25,-252.12 135.25,-252.12 135.25,-210.38 238.25,-210.38 238.25,-252.12"/>
<text text-anchor="start" x="143.25" y="-238.62" font-family="Times,serif" font-size="10.00">mal_packet_weaver::</text>
<text text-anchor="start" x="143.25" y="-227.38" font-family="Times,serif" font-size="10.00">Session::async_packet</text>
<text text-anchor="middle" x="186.75" y="-216.12" font-family="Times,serif" font-size="10.00">_sender</text>
</a>
</g>
</g>
<!-- Node1&#45;&gt;Node4 -->
<g id="edge3_Node000001_Node000004" class="edge">
<title>Node1&#45;&gt;Node4</title>
<g id="a_edge3_Node000001_Node000004"><a xlink:title=" ">
<path fill="none" stroke="#63b8ff" d="M474.85,-174.47C457.31,-194.79 429.2,-222.36 397.5,-234.25 346.01,-253.56 282.29,-249.05 238.68,-242.1"/>
<polygon fill="#63b8ff" stroke="#63b8ff" points="477.45,-176.8 481.17,-166.88 472.08,-172.32 477.45,-176.8"/>
</a>
</g>
</g>
<!-- Node5 -->
<g id="Node000005" class="node">
<title>Node5</title>
<g id="a_Node000005"><a xlink:href="../../d4/d61/classmal__packet__weaver_1_1_packet_dispatcher.html#a2b820a2094b9d5cfd27bb787183437ac" target="_top" xlink:title="Retrieves a shared pointer to the current dispatcher.">
<polygon fill="white" stroke="#666666" points="387.75,-225.12 284,-225.12 284,-183.38 387.75,-183.38 387.75,-225.12"/>
<text text-anchor="start" x="292" y="-211.62" font-family="Times,serif" font-size="10.00">mal_packet_weaver::</text>
<text text-anchor="start" x="292" y="-200.38" font-family="Times,serif" font-size="10.00">PacketDispatcher::get</text>
<text text-anchor="middle" x="335.88" y="-189.12" font-family="Times,serif" font-size="10.00">_shared_ptr</text>
</a>
</g>
</g>
<!-- Node1&#45;&gt;Node5 -->
<g id="edge5_Node000001_Node000005" class="edge">
<title>Node1&#45;&gt;Node5</title>
<g id="a_edge5_Node000001_Node000005"><a xlink:title=" ">
<path fill="none" stroke="#63b8ff" d="M437.5,-169.61C421.42,-175.15 403.98,-181.15 388.21,-186.58"/>
<polygon fill="#63b8ff" stroke="#63b8ff" points="438.63,-172.93 446.94,-166.36 436.35,-166.31 438.63,-172.93"/>
</a>
</g>
</g>
<!-- Node6 -->
<g id="Node000006" class="node">
<title>Node6</title>
<g id="a_Node000006"><a xlink:href="../../d8/d39/classmal__packet__weaver_1_1_session.html#a44aae33be31d6dd7db9feb4142b3239e" target="_top" xlink:title="Retrieves a shared pointer to the current session.">
<polygon fill="white" stroke="#666666" points="391.12,-165.5 280.62,-165.5 280.62,-135 391.12,-135 391.12,-165.5"/>
<text text-anchor="start" x="288.62" y="-152" font-family="Times,serif" font-size="10.00">mal_packet_weaver::</text>
<text text-anchor="middle" x="335.88" y="-140.75" font-family="Times,serif" font-size="10.00">Session::get_shared_ptr</text>
</a>
</g>
</g>
<!-- Node1&#45;&gt;Node6 -->
<g id="edge6_Node000001_Node000006" class="edge">
<title>Node1&#45;&gt;Node6</title>
<g id="a_edge6_Node000001_Node000006"><a xlink:title=" ">
<path fill="none" stroke="#63b8ff" d="M421.72,-150.25C411.55,-150.25 401.24,-150.25 391.47,-150.25"/>
<polygon fill="#63b8ff" stroke="#63b8ff" points="421.58,-153.75 431.58,-150.25 421.58,-146.75 421.58,-153.75"/>
</a>
</g>
</g>
<!-- Node7 -->
<g id="Node000007" class="node">
<title>Node7</title>
<g id="a_Node000007"><a xlink:href="../../d8/d39/classmal__packet__weaver_1_1_session.html#a71ede34f71a6dc30d56d99015997caa3" target="_top" xlink:title="Asynchronously sends all packets in the queue through the network.">
<polygon fill="white" stroke="#666666" points="236.38,-165.5 137.12,-165.5 137.12,-135 236.38,-135 236.38,-165.5"/>
<text text-anchor="start" x="145.12" y="-152" font-family="Times,serif" font-size="10.00">mal_packet_weaver::</text>
<text text-anchor="middle" x="186.75" y="-140.75" font-family="Times,serif" font-size="10.00">Session::send_all</text>
</a>
</g>
</g>
<!-- Node1&#45;&gt;Node7 -->
<g id="edge10_Node000001_Node000007" class="edge">
<title>Node1&#45;&gt;Node7</title>
<g id="a_edge10_Node000001_Node000007"><a xlink:title=" ">
<path fill="none" stroke="#63b8ff" d="M429.56,-131.94C418.93,-129.58 407.97,-127.54 397.5,-126.25 343.13,-119.57 328.53,-118.86 274.25,-126.25 261.43,-128 247.83,-131.13 235.31,-134.57"/>
<polygon fill="#63b8ff" stroke="#63b8ff" points="428.47,-135.28 439,-134.16 430.07,-128.47 428.47,-135.28"/>
</a>
</g>
</g>
<!-- Node8 -->
<g id="Node000008" class="node">
<title>Node8</title>
<g id="a_Node000008"><a xlink:href="../../d8/d39/classmal__packet__weaver_1_1_session.html#a961d49d84fb1426fc605c529df1296d1" target="_top" xlink:title=" ">
<polygon fill="white" stroke="#666666" points="397.5,-79.5 274.25,-79.5 274.25,-49 397.5,-49 397.5,-79.5"/>
<text text-anchor="start" x="282.25" y="-66" font-family="Times,serif" font-size="10.00">mal_packet_weaver::</text>
<text text-anchor="middle" x="335.88" y="-54.75" font-family="Times,serif" font-size="10.00">Session::pop_packet_async</text>
</a>
</g>
</g>
<!-- Node1&#45;&gt;Node8 -->
<g id="edge9_Node000001_Node000008" class="edge">
<title>Node1&#45;&gt;Node8</title>
<g id="a_edge9_Node000001_Node000008"><a xlink:title=" ">
<path fill="none" stroke="#63b8ff" d="M458.95,-128.63C440.84,-117.64 418.22,-104.31 397.5,-93.25 389.06,-88.74 379.81,-84.15 371.13,-79.98"/>
<polygon fill="#63b8ff" stroke="#63b8ff" points="457.12,-131.61 467.48,-133.84 460.77,-125.64 457.12,-131.61"/>
</a>
</g>
</g>
<!-- Node9 -->
<g id="Node000009" class="node">
<title>Node9</title>
<g id="a_Node000009"><a xlink:href="../../d8/d39/classmal__packet__weaver_1_1_session.html#a66b134c55cf54ac2e84daa77f381235e" target="_top" xlink:title="Sends any packet derived from DerivedPacket through the network.">
<polygon fill="white" stroke="#666666" points="385.5,-30.5 286.25,-30.5 286.25,0 385.5,0 385.5,-30.5"/>
<text text-anchor="start" x="294.25" y="-17" font-family="Times,serif" font-size="10.00">mal_packet_weaver::</text>
<text text-anchor="middle" x="335.88" y="-5.75" font-family="Times,serif" font-size="10.00">Session::send_packet</text>
</a>
</g>
</g>
<!-- Node1&#45;&gt;Node9 -->
<g id="edge11_Node000001_Node000009" class="edge">
<title>Node1&#45;&gt;Node9</title>
<g id="a_edge11_Node000001_Node000009"><a xlink:title=" ">
<path fill="none" stroke="#63b8ff" d="M477.21,-125.4C459.84,-100.93 430.5,-63.89 397.5,-40.25 392.59,-36.74 387.12,-33.61 381.53,-30.85"/>
<polygon fill="#63b8ff" stroke="#63b8ff" points="474.24,-127.27 482.82,-133.49 479.99,-123.28 474.24,-127.27"/>
</a>
</g>
</g>
<!-- Node3 -->
<g id="Node000003" class="node">
<title>Node3</title>
<g id="a_Node000003"><a xlink:href="../../d8/d39/classmal__packet__weaver_1_1_session.html#a5cf271c70d7ec610cfb01d0ed8655693" target="_top" xlink:title="Constructor for the Session class.">
<polygon fill="white" stroke="#666666" points="99.25,-246.5 0,-246.5 0,-216 99.25,-216 99.25,-246.5"/>
<text text-anchor="start" x="8" y="-233" font-family="Times,serif" font-size="10.00">mal_packet_weaver::</text>
<text text-anchor="middle" x="49.62" y="-221.75" font-family="Times,serif" font-size="10.00">Session::Session</text>
</a>
</g>
</g>
<!-- Node2&#45;&gt;Node3 -->
<g id="edge2_Node000002_Node000003" class="edge">
<title>Node2&#45;&gt;Node3</title>
<g id="a_edge2_Node000002_Node000003"><a xlink:title=" ">
<path fill="none" stroke="#63b8ff" d="M127.51,-265.39C113.29,-259.08 98.51,-252.51 85.75,-246.85"/>
<polygon fill="#63b8ff" stroke="#63b8ff" points="125.79,-268.45 136.35,-269.31 128.63,-262.06 125.79,-268.45"/>
</a>
</g>
</g>
<!-- Node4&#45;&gt;Node3 -->
<g id="edge4_Node000004_Node000003" class="edge">
<title>Node4&#45;&gt;Node3</title>
<g id="a_edge4_Node000004_Node000003"><a xlink:title=" ">
<path fill="none" stroke="#63b8ff" d="M123.65,-231.25C115.51,-231.25 107.25,-231.25 99.37,-231.25"/>
<polygon fill="#63b8ff" stroke="#63b8ff" points="123.54,-234.75 133.54,-231.25 123.54,-227.75 123.54,-234.75"/>
</a>
</g>
</g>
<!-- Node6&#45;&gt;Node7 -->
<g id="edge7_Node000006_Node000007" class="edge">
<title>Node6&#45;&gt;Node7</title>
<g id="a_edge7_Node000006_Node000007"><a xlink:title=" ">
<path fill="none" stroke="#63b8ff" d="M269.2,-150.25C258.22,-150.25 247.01,-150.25 236.55,-150.25"/>
<polygon fill="#63b8ff" stroke="#63b8ff" points="269,-153.75 279,-150.25 269,-146.75 269,-153.75"/>
</a>
</g>
</g>
<!-- Node7&#45;&gt;Node3 -->
<g id="edge8_Node000007_Node000003" class="edge">
<title>Node7&#45;&gt;Node3</title>
<g id="a_edge8_Node000007_Node000003"><a xlink:title=" ">
<path fill="none" stroke="#63b8ff" d="M149.93,-171.72C126.87,-185.55 97.42,-203.2 76.6,-215.68"/>
<polygon fill="#63b8ff" stroke="#63b8ff" points="151.62,-174.79 158.4,-166.65 148.02,-168.79 151.62,-174.79"/>
</a>
</g>
</g>
</g>
</svg>

<g id="navigator" transform="translate(0 0)" fill="#404254">
  <rect fill="#f2f5e9" fill-opacity="0.5" stroke="#606060" stroke-width=".5" x="0" y="0" width="60" height="60"/>
  <use id="zoomplus" xlink:href="#zoomPlus" x="17" y="9" onmousedown="handleZoom(evt,'in')"/>
  <use id="zoomminus" xlink:href="#zoomMin" x="42" y="9" onmousedown="handleZoom(evt,'out')"/>
  <use id="reset" xlink:href="#resetDef" x="30" y="36" onmousedown="handleReset()"/>
   <use id="arrowup" xlink:href="#arrowUp" x="0" y="0" onmousedown="handlePan(0,-1)"/>
  <use id="arrowright" xlink:href="#arrowRight" x="0" y="0" onmousedown="handlePan(1,0)"/>
  <use id="arrowdown" xlink:href="#arrowDown" x="0" y="0" onmousedown="handlePan(0,1)"/>
  <use id="arrowleft" xlink:href="#arrowLeft" x="0" y="0" onmousedown="handlePan(-1,0)"/>
</g>
<svg viewBox="0 0 15 15" width="100%" height="30px" preserveAspectRatio="xMaxYMin meet">
 <g id="arrow_out" transform="scale(0.3 0.3)">
  <a xlink:href="classmal__toolkit_1_1_exponential_backoff_a161c6f3c2d6e611ec15e3c6511182ec8_icgraph_org.svg" target="_base">
   <rect id="button" ry="5" rx="5" y="6" x="6" height="38" width="38"
        fill="#f2f5e9" fill-opacity="0.5" stroke="#606060" stroke-width="1.0"/>
   <path id="arrow"
     d="M 11.500037,31.436501 C 11.940474,20.09759 22.043105,11.32322 32.158766,21.979434 L 37.068811,17.246167 C 37.068811,17.246167 37.088388,32 37.088388,32 L 22.160133,31.978069 C 22.160133,31.978069 26.997745,27.140456 26.997745,27.140456 C 18.528582,18.264221 13.291696,25.230495 11.500037,31.436501 z"
     style="fill:#404040;"/>
  </a>
 </g>
</svg>

<style type='text/css'>
<![CDATA[
[data-mouse-over-selected='false'] { opacity: 0.7; }
[data-mouse-over-selected='true']  { opacity: 1.0; }
]]>
</style>
<script type="application/ecmascript"><![CDATA[
document.addEventListener('DOMContentLoaded', (event) => {
  highlightEdges();
  highlightAdjacentNodes();
});
]]></script>
</svg>
