<?xml version="1.0" encoding="UTF-8" standalone="no"?>
<!DOCTYPE svg PUBLIC "-//W3C//DTD SVG 1.1//EN"
 "http://www.w3.org/Graphics/SVG/1.1/DTD/svg11.dtd">
<!-- Generated by graphviz version 8.1.0 (20230707.0739)
 -->
<!-- Title: mal_toolkit::ExponentialBackoff::increase_delay Pages: 1 -->
<svg width="553pt" height="276pt"
 viewBox="0.00 0.00 552.75 276.12" xmlns="http://www.w3.org/2000/svg" xmlns:xlink="http://www.w3.org/1999/xlink">
<g id="graph0" class="graph" transform="scale(1 1) rotate(0) translate(4 272.12)">
<title>mal_toolkit::ExponentialBackoff::increase_delay</title>
<!-- Node1 -->
<g id="Node000001" class="node">
<title>Node1</title>
<g id="a_Node000001"><a xlink:title="Increase the backoff delay using exponential factor.">
<polygon fill="#999999" stroke="#666666" points="544.75,-143.5 433.5,-143.5 433.5,-113 544.75,-113 544.75,-143.5"/>
<text text-anchor="start" x="441.5" y="-130" font-family="Times,serif" font-size="10.00">mal_toolkit::Exponential</text>
<text text-anchor="middle" x="489.12" y="-118.75" font-family="Times,serif" font-size="10.00">Backoff::increase_delay</text>
</a>
</g>
</g>
<!-- Node2 -->
<g id="Node000002" class="node">
<title>Node2</title>
<g id="a_Node000002"><a xlink:href="../../d8/d39/classmal__packet__weaver_1_1_session.html#ab8d02d6502bb180c3b0f383b3fddc6ca" target="_top" xlink:title="Asynchronously forges new packets from the buffer.">
<polygon fill="white" stroke="#666666" points="238.25,-268.12 135.25,-268.12 135.25,-226.38 238.25,-226.38 238.25,-268.12"/>
<text text-anchor="start" x="143.25" y="-254.62" font-family="Times,serif" font-size="10.00">mal_packet_weaver::</text>
<text text-anchor="start" x="143.25" y="-243.38" font-family="Times,serif" font-size="10.00">Session::async_packet</text>
<text text-anchor="middle" x="186.75" y="-232.12" font-family="Times,serif" font-size="10.00">_forger</text>
</a>
</g>
</g>
<!-- Node1&#45;&gt;Node2 -->
<g id="edge1_Node000001_Node000002" class="edge">
<title>Node1&#45;&gt;Node2</title>
<g id="a_edge1_Node000001_Node000002"><a xlink:title=" ">
<path fill="none" stroke="#63b8ff" d="M463.89,-150.77C446.59,-165.71 422.11,-184.63 397.5,-196.25 346.16,-220.49 282.13,-233.9 238.4,-240.81"/>
<polygon fill="#63b8ff" stroke="#63b8ff" points="465.6,-154.05 470.78,-144.81 460.97,-148.8 465.6,-154.05"/>
</a>
</g>
</g>
<!-- Node4 -->
<g id="Node000004" class="node">
<title>Node4</title>
<g id="a_Node000004"><a xlink:href="../../d8/d39/classmal__packet__weaver_1_1_session.html#a95349691831542cec27090d0ab21ca88" target="_top" xlink:title="Asynchronously receives and processes incoming packets from the network.">
<polygon fill="white" stroke="#666666" points="238.25,-208.12 135.25,-208.12 135.25,-166.38 238.25,-166.38 238.25,-208.12"/>
<text text-anchor="start" x="143.25" y="-194.62" font-family="Times,serif" font-size="10.00">mal_packet_weaver::</text>
<text text-anchor="start" x="143.25" y="-183.38" font-family="Times,serif" font-size="10.00">Session::async_packet</text>
<text text-anchor="middle" x="186.75" y="-172.12" font-family="Times,serif" font-size="10.00">_sender</text>
</a>
</g>
</g>
<!-- Node1&#45;&gt;Node4 -->
<g id="edge3_Node000001_Node000004" class="edge">
<title>Node1&#45;&gt;Node4</title>
<g id="a_edge3_Node000001_Node000004"><a xlink:title=" ">
<path fill="none" stroke="#63b8ff" d="M454.97,-149.2C438.37,-158.6 417.57,-168.79 397.5,-174.25 344.69,-188.63 281.76,-190.62 238.69,-189.8"/>
<polygon fill="#63b8ff" stroke="#63b8ff" points="456.35,-151.87 463.22,-143.8 452.82,-145.82 456.35,-151.87"/>
</a>
</g>
</g>
<!-- Node5 -->
<g id="Node000005" class="node">
<title>Node5</title>
<g id="a_Node000005"><a xlink:href="../../d8/d39/classmal__packet__weaver_1_1_session.html#a44aae33be31d6dd7db9feb4142b3239e" target="_top" xlink:title="Retrieves a shared pointer to the current session.">
<polygon fill="white" stroke="#666666" points="391.12,-165.5 280.62,-165.5 280.62,-135 391.12,-135 391.12,-165.5"/>
<text text-anchor="start" x="288.62" y="-152" font-family="Times,serif" font-size="10.00">mal_packet_weaver::</text>
<text text-anchor="middle" x="335.88" y="-140.75" font-family="Times,serif" font-size="10.00">Session::get_shared_ptr</text>
</a>
</g>
</g>
<!-- Node1&#45;&gt;Node5 -->
<g id="edge5_Node000001_Node000005" class="edge">
<title>Node1&#45;&gt;Node5</title>
<g id="a_edge5_Node000001_Node000005"><a xlink:title=" ">
<path fill="none" stroke="#63b8ff" d="M422.48,-137.8C412.18,-139.3 401.63,-140.83 391.61,-142.29"/>
<polygon fill="#63b8ff" stroke="#63b8ff" points="422.7,-141.16 432.09,-136.25 421.69,-134.23 422.7,-141.16"/>
</a>
</g>
</g>
<!-- Node6 -->
<g id="Node000006" class="node">
<title>Node6</title>
<g id="a_Node000006"><a xlink:href="../../d8/d39/classmal__packet__weaver_1_1_session.html#a71ede34f71a6dc30d56d99015997caa3" target="_top" xlink:title="Asynchronously sends all packets in the queue through the network.">
<polygon fill="white" stroke="#666666" points="236.38,-148.5 137.12,-148.5 137.12,-118 236.38,-118 236.38,-148.5"/>
<text text-anchor="start" x="145.12" y="-135" font-family="Times,serif" font-size="10.00">mal_packet_weaver::</text>
<text text-anchor="middle" x="186.75" y="-123.75" font-family="Times,serif" font-size="10.00">Session::send_all</text>
</a>
</g>
</g>
<!-- Node1&#45;&gt;Node6 -->
<g id="edge9_Node000001_Node000006" class="edge">
<title>Node1&#45;&gt;Node6</title>
<g id="a_edge9_Node000001_Node000006"><a xlink:title=" ">
<path fill="none" stroke="#63b8ff" d="M422.16,-125.94C379.87,-124.88 323.81,-124.25 274.25,-126.25 262.06,-126.74 248.92,-127.62 236.66,-128.6"/>
<polygon fill="#63b8ff" stroke="#63b8ff" points="422.07,-129.47 432.16,-126.23 422.25,-122.47 422.07,-129.47"/>
</a>
</g>
</g>
<!-- Node7 -->
<g id="Node000007" class="node">
<title>Node7</title>
<g id="a_Node000007"><a xlink:href="../../d8/d39/classmal__packet__weaver_1_1_session.html#a961d49d84fb1426fc605c529df1296d1" target="_top" xlink:title=" ">
<polygon fill="white" stroke="#666666" points="397.5,-79.5 274.25,-79.5 274.25,-49 397.5,-49 397.5,-79.5"/>
<text text-anchor="start" x="282.25" y="-66" font-family="Times,serif" font-size="10.00">mal_packet_weaver::</text>
<text text-anchor="middle" x="335.88" y="-54.75" font-family="Times,serif" font-size="10.00">Session::pop_packet_async</text>
</a>
</g>
</g>
<!-- Node1&#45;&gt;Node7 -->
<g id="edge8_Node000001_Node000007" class="edge">
<title>Node1&#45;&gt;Node7</title>
<g id="a_edge8_Node000001_Node000007"><a xlink:title=" ">
<path fill="none" stroke="#63b8ff" d="M441.17,-108.38C419.55,-99.23 394.27,-88.54 374.02,-79.97"/>
<polygon fill="#63b8ff" stroke="#63b8ff" points="439.55,-111.92 450.13,-112.59 442.28,-105.47 439.55,-111.92"/>
</a>
</g>
</g>
<!-- Node8 -->
<g id="Node000008" class="node">
<title>Node8</title>
<g id="a_Node000008"><a xlink:href="../../d8/d39/classmal__packet__weaver_1_1_session.html#a66b134c55cf54ac2e84daa77f381235e" target="_top" xlink:title="Sends any packet derived from DerivedPacket through the network.">
<polygon fill="white" stroke="#666666" points="385.5,-30.5 286.25,-30.5 286.25,0 385.5,0 385.5,-30.5"/>
<text text-anchor="start" x="294.25" y="-17" font-family="Times,serif" font-size="10.00">mal_packet_weaver::</text>
<text text-anchor="middle" x="335.88" y="-5.75" font-family="Times,serif" font-size="10.00">Session::send_packet</text>
</a>
</g>
</g>
<!-- Node1&#45;&gt;Node8 -->
<g id="edge10_Node000001_Node000008" class="edge">
<title>Node1&#45;&gt;Node8</title>
<g id="a_edge10_Node000001_Node000008"><a xlink:title=" ">
<path fill="none" stroke="#63b8ff" d="M468.23,-104.44C451.09,-85.11 424.85,-58.2 397.5,-40.25 392.27,-36.81 386.48,-33.7 380.63,-30.93"/>
<polygon fill="#63b8ff" stroke="#63b8ff" points="466.24,-106.48 475.44,-111.73 471.52,-101.89 466.24,-106.48"/>
</a>
</g>
</g>
<!-- Node3 -->
<g id="Node000003" class="node">
<title>Node3</title>
<g id="a_Node000003"><a xlink:href="../../d8/d39/classmal__packet__weaver_1_1_session.html#a5cf271c70d7ec610cfb01d0ed8655693" target="_top" xlink:title="Constructor for the Session class.">
<polygon fill="white" stroke="#666666" points="99.25,-202.5 0,-202.5 0,-172 99.25,-172 99.25,-202.5"/>
<text text-anchor="start" x="8" y="-189" font-family="Times,serif" font-size="10.00">mal_packet_weaver::</text>
<text text-anchor="middle" x="49.62" y="-177.75" font-family="Times,serif" font-size="10.00">Session::Session</text>
</a>
</g>
</g>
<!-- Node2&#45;&gt;Node3 -->
<g id="edge2_Node000002_Node000003" class="edge">
<title>Node2&#45;&gt;Node3</title>
<g id="a_edge2_Node000002_Node000003"><a xlink:title=" ">
<path fill="none" stroke="#63b8ff" d="M127.93,-221.57C113.58,-215.2 98.63,-208.57 85.75,-202.85"/>
<polygon fill="#63b8ff" stroke="#63b8ff" points="126.17,-225.07 136.73,-225.93 129.01,-218.67 126.17,-225.07"/>
</a>
</g>
</g>
<!-- Node4&#45;&gt;Node3 -->
<g id="edge4_Node000004_Node000003" class="edge">
<title>Node4&#45;&gt;Node3</title>
<g id="a_edge4_Node000004_Node000003"><a xlink:title=" ">
<path fill="none" stroke="#63b8ff" d="M124.21,-187.25C115.89,-187.25 107.43,-187.25 99.37,-187.25"/>
<polygon fill="#63b8ff" stroke="#63b8ff" points="124.05,-190.75 134.05,-187.25 124.05,-183.75 124.05,-190.75"/>
</a>
</g>
</g>
<!-- Node5&#45;&gt;Node6 -->
<g id="edge6_Node000005_Node000006" class="edge">
<title>Node5&#45;&gt;Node6</title>
<g id="a_edge6_Node000005_Node000006"><a xlink:title=" ">
<path fill="none" stroke="#63b8ff" d="M269.89,-142.74C258.69,-141.45 247.23,-140.12 236.55,-138.89"/>
<polygon fill="#63b8ff" stroke="#63b8ff" points="269.17,-146.3 279.51,-143.97 269.98,-139.34 269.17,-146.3"/>
</a>
</g>
</g>
<!-- Node6&#45;&gt;Node3 -->
<g id="edge7_Node000006_Node000003" class="edge">
<title>Node6&#45;&gt;Node3</title>
<g id="a_edge7_Node000006_Node000003"><a xlink:title=" ">
<path fill="none" stroke="#63b8ff" d="M136.72,-152.84C121.23,-159.04 104.32,-165.79 89.62,-171.67"/>
<polygon fill="#63b8ff" stroke="#63b8ff" points="137.68,-155.83 145.67,-148.87 135.08,-149.33 137.68,-155.83"/>
</a>
</g>
</g>
</g>
</svg>
