<?xml version="1.0" encoding="UTF-8" standalone="no"?>
<!DOCTYPE svg PUBLIC "-//W3C//DTD SVG 1.1//EN"
 "http://www.w3.org/Graphics/SVG/1.1/DTD/svg11.dtd">
<!-- Generated by graphviz version 11.0.0 (20240428.1522)
 -->
<!-- Title: mal_toolkit::ExponentialBackoff::increase_delay Pages: 1 -->
<svg width="536pt" height="98pt"
 viewBox="0.00 0.00 536.25 98.12" xmlns="http://www.w3.org/2000/svg" xmlns:xlink="http://www.w3.org/1999/xlink">
<g id="graph0" class="graph" transform="scale(1 1) rotate(0) translate(4 94.12)">
<title>mal_toolkit::ExponentialBackoff::increase_delay</title>
<!-- Node1 -->
<g id="Node000001" class="node">
<title>Node1</title>
<g id="a_Node000001"><a xlink:title="Increase the backoff delay using exponential factor.">
<polygon fill="#999999" stroke="#666666" points="528.25,-57.5 417,-57.5 417,-27 528.25,-27 528.25,-57.5"/>
<text text-anchor="start" x="425" y="-44" font-family="Times,serif" font-size="10.00">mal_toolkit::Exponential</text>
<text text-anchor="middle" x="472.62" y="-32.75" font-family="Times,serif" font-size="10.00">Backoff::increase_delay</text>
</a>
</g>
</g>
<!-- Node2 -->
<g id="Node000002" class="node">
<title>Node2</title>
<g id="a_Node000002"><a xlink:href="../../d4/d61/classmal__packet__weaver_1_1_packet_dispatcher.html#a2b820a2094b9d5cfd27bb787183437ac" target="_top" xlink:title="Retrieves a shared pointer to the current dispatcher.">
<polygon fill="white" stroke="#666666" points="377.62,-90.12 273.88,-90.12 273.88,-48.38 377.62,-48.38 377.62,-90.12"/>
<text text-anchor="start" x="281.88" y="-76.62" font-family="Times,serif" font-size="10.00">mal_packet_weaver::</text>
<text text-anchor="start" x="281.88" y="-65.38" font-family="Times,serif" font-size="10.00">PacketDispatcher::get</text>
<text text-anchor="middle" x="325.75" y="-54.12" font-family="Times,serif" font-size="10.00">_shared_ptr</text>
</a>
</g>
</g>
<!-- Node1&#45;&gt;Node2 -->
<g id="edge1_Node000001_Node000002" class="edge">
<title>Node1&#45;&gt;Node2</title>
<g id="a_edge1_Node000001_Node000002"><a xlink:title=" ">
<path fill="none" stroke="#63b8ff" d="M405.58,-54.56C396.25,-56.3 386.77,-58.06 377.78,-59.74"/>
<polygon fill="#63b8ff" stroke="#63b8ff" points="406.18,-58.01 415.37,-52.73 404.89,-51.13 406.18,-58.01"/>
</a>
</g>
</g>
<!-- Node3 -->
<g id="Node000003" class="node">
<title>Node3</title>
<g id="a_Node000003"><a xlink:href="../../d8/d39/classmal__packet__weaver_1_1_session.html#a44aae33be31d6dd7db9feb4142b3239e" target="_top" xlink:title="Retrieves a shared pointer to the current session.">
<polygon fill="white" stroke="#666666" points="381,-30.5 270.5,-30.5 270.5,0 381,0 381,-30.5"/>
<text text-anchor="start" x="278.5" y="-17" font-family="Times,serif" font-size="10.00">mal_packet_weaver::</text>
<text text-anchor="middle" x="325.75" y="-5.75" font-family="Times,serif" font-size="10.00">Session::get_shared_ptr</text>
</a>
</g>
</g>
<!-- Node1&#45;&gt;Node3 -->
<g id="edge2_Node000001_Node000003" class="edge">
<title>Node1&#45;&gt;Node3</title>
<g id="a_edge2_Node000001_Node000003"><a xlink:title=" ">
<path fill="none" stroke="#63b8ff" d="M405.73,-29.97C397.5,-28.44 389.15,-26.88 381.12,-25.38"/>
<polygon fill="#63b8ff" stroke="#63b8ff" points="404.89,-33.37 415.37,-31.77 406.18,-26.49 404.89,-33.37"/>
</a>
</g>
</g>
<!-- Node4 -->
<g id="Node000004" class="node">
<title>Node4</title>
<g id="a_Node000004"><a xlink:href="../../d8/d39/classmal__packet__weaver_1_1_session.html#a71ede34f71a6dc30d56d99015997caa3" target="_top" xlink:title="Asynchronously sends all packets in the queue through the network.">
<polygon fill="white" stroke="#666666" points="234.5,-30.5 135.25,-30.5 135.25,0 234.5,0 234.5,-30.5"/>
<text text-anchor="start" x="143.25" y="-17" font-family="Times,serif" font-size="10.00">mal_packet_weaver::</text>
<text text-anchor="middle" x="184.88" y="-5.75" font-family="Times,serif" font-size="10.00">Session::send_all</text>
</a>
</g>
</g>
<!-- Node3&#45;&gt;Node4 -->
<g id="edge3_Node000003_Node000004" class="edge">
<title>Node3&#45;&gt;Node4</title>
<g id="a_edge3_Node000003_Node000004"><a xlink:title=" ">
<path fill="none" stroke="#63b8ff" d="M258.88,-15.25C250.77,-15.25 242.59,-15.25 234.79,-15.25"/>
<polygon fill="#63b8ff" stroke="#63b8ff" points="258.75,-18.75 268.75,-15.25 258.75,-11.75 258.75,-18.75"/>
</a>
</g>
</g>
<!-- Node5 -->
<g id="Node000005" class="node">
<title>Node5</title>
<g id="a_Node000005"><a xlink:href="../../d8/d39/classmal__packet__weaver_1_1_session.html#a5cf271c70d7ec610cfb01d0ed8655693" target="_top" xlink:title="Constructor for the Session class.">
<polygon fill="white" stroke="#666666" points="99.25,-30.5 0,-30.5 0,0 99.25,0 99.25,-30.5"/>
<text text-anchor="start" x="8" y="-17" font-family="Times,serif" font-size="10.00">mal_packet_weaver::</text>
<text text-anchor="middle" x="49.62" y="-5.75" font-family="Times,serif" font-size="10.00">Session::Session</text>
</a>
</g>
</g>
<!-- Node4&#45;&gt;Node5 -->
<g id="edge4_Node000004_Node000005" class="edge">
<title>Node4&#45;&gt;Node5</title>
<g id="a_edge4_Node000004_Node000005"><a xlink:title=" ">
<path fill="none" stroke="#63b8ff" d="M123.69,-15.25C115.59,-15.25 107.36,-15.25 99.48,-15.25"/>
<polygon fill="#63b8ff" stroke="#63b8ff" points="123.5,-18.75 133.5,-15.25 123.5,-11.75 123.5,-18.75"/>
</a>
</g>
</g>
</g>
</svg>
