<?xml version="1.0" encoding="UTF-8" standalone="no"?>
<!DOCTYPE svg PUBLIC "-//W3C//DTD SVG 1.1//EN"
 "http://www.w3.org/Graphics/SVG/1.1/DTD/svg11.dtd">
<!-- Generated by graphviz version 9.0.0 (20230911.1827)
 -->
<!-- Title: mal_toolkit::uuid::UUID::str Pages: 1 -->
<svg width="363pt" height="137pt"
 viewBox="0.00 0.00 362.75 136.50" xmlns="http://www.w3.org/2000/svg" xmlns:xlink="http://www.w3.org/1999/xlink">
<g id="graph0" class="graph" transform="scale(1 1) rotate(0) translate(4 132.5)">
<title>mal_toolkit::uuid::UUID::str</title>
<!-- Node1 -->
<g id="Node000001" class="node">
<title>Node1</title>
<g id="a_Node000001"><a xlink:title=" ">
<polygon fill="#999999" stroke="#666666" points="87.25,-79.5 0,-79.5 0,-49 87.25,-49 87.25,-79.5"/>
<text text-anchor="start" x="8" y="-66" font-family="Times,serif" font-size="10.00">mal_toolkit::uuid::</text>
<text text-anchor="middle" x="43.62" y="-54.75" font-family="Times,serif" font-size="10.00">UUID::str</text>
</a>
</g>
</g>
<!-- Node2 -->
<g id="Node000002" class="node">
<title>Node2</title>
<g id="a_Node000002"><a xlink:href="../../d4/dcc/namespacemal__toolkit_1_1uuid.html#a6fc05ef12aa7cf48b1a92d6402e27748" target="_top" xlink:title="Converts a 128&#45;bits unsigned int to an UUIDv4 string representation using SIMD via AVX2.">
<polygon fill="white" stroke="#666666" points="210.5,-79.5 123.25,-79.5 123.25,-49 210.5,-49 210.5,-79.5"/>
<text text-anchor="start" x="131.25" y="-66" font-family="Times,serif" font-size="10.00">mal_toolkit::uuid::</text>
<text text-anchor="middle" x="166.88" y="-54.75" font-family="Times,serif" font-size="10.00">m128itos</text>
</a>
</g>
</g>
<!-- Node1&#45;&gt;Node2 -->
<g id="edge1_Node000001_Node000002" class="edge">
<title>Node1&#45;&gt;Node2</title>
<g id="a_edge1_Node000001_Node000002"><a xlink:title=" ">
<path fill="none" stroke="#63b8ff" d="M87.71,-64.25C95.4,-64.25 103.49,-64.25 111.44,-64.25"/>
<polygon fill="#63b8ff" stroke="#63b8ff" points="111.41,-67.75 121.41,-64.25 111.41,-60.75 111.41,-67.75"/>
</a>
</g>
</g>
<!-- Node3 -->
<g id="Node000003" class="node">
<title>Node3</title>
<g id="a_Node000003"><a xlink:href="../../d6/d11/namespacemal__toolkit_1_1endianness.html#a0d4fdd76d493b47a3fb18f146f737c1f" target="_top" xlink:title="Converts a 16&#45;bit value between big&#45;endian and little&#45;endian.">
<polygon fill="white" stroke="#666666" points="354.75,-128.5 246.5,-128.5 246.5,-98 354.75,-98 354.75,-128.5"/>
<text text-anchor="start" x="254.5" y="-115" font-family="Times,serif" font-size="10.00">mal_toolkit::endianness</text>
<text text-anchor="middle" x="300.62" y="-103.75" font-family="Times,serif" font-size="10.00">::betole16</text>
</a>
</g>
</g>
<!-- Node2&#45;&gt;Node3 -->
<g id="edge2_Node000002_Node000003" class="edge">
<title>Node2&#45;&gt;Node3</title>
<g id="a_edge2_Node000002_Node000003"><a xlink:title=" ">
<path fill="none" stroke="#63b8ff" d="M209.92,-79.89C221.69,-84.26 234.63,-89.08 246.93,-93.65"/>
<polygon fill="#63b8ff" stroke="#63b8ff" points="245.51,-96.86 256.11,-97.06 247.95,-90.3 245.51,-96.86"/>
</a>
</g>
</g>
<!-- Node4 -->
<g id="Node000004" class="node">
<title>Node4</title>
<g id="a_Node000004"><a xlink:href="../../d6/d11/namespacemal__toolkit_1_1endianness.html#ae402a5cfb38c56dae866180918471551" target="_top" xlink:title="Converts a 256&#45;bit value between big&#45;endian and little&#45;endian using AVX2 intrinsics.">
<polygon fill="white" stroke="#666666" points="354.75,-79.5 246.5,-79.5 246.5,-49 354.75,-49 354.75,-79.5"/>
<text text-anchor="start" x="254.5" y="-66" font-family="Times,serif" font-size="10.00">mal_toolkit::endianness</text>
<text text-anchor="middle" x="300.62" y="-54.75" font-family="Times,serif" font-size="10.00">::betole256</text>
</a>
</g>
</g>
<!-- Node2&#45;&gt;Node4 -->
<g id="edge3_Node000002_Node000004" class="edge">
<title>Node2&#45;&gt;Node4</title>
<g id="a_edge3_Node000002_Node000004"><a xlink:title=" ">
<path fill="none" stroke="#63b8ff" d="M210.65,-64.25C218.5,-64.25 226.86,-64.25 235.18,-64.25"/>
<polygon fill="#63b8ff" stroke="#63b8ff" points="234.94,-67.75 244.94,-64.25 234.94,-60.75 234.94,-67.75"/>
</a>
</g>
</g>
<!-- Node5 -->
<g id="Node000005" class="node">
<title>Node5</title>
<g id="a_Node000005"><a xlink:href="../../d6/d11/namespacemal__toolkit_1_1endianness.html#ad60454ca97bca47f79dff8c3cf07abf3" target="_top" xlink:title="Converts a 32&#45;bit value between big&#45;endian and little&#45;endian.">
<polygon fill="white" stroke="#666666" points="354.75,-30.5 246.5,-30.5 246.5,0 354.75,0 354.75,-30.5"/>
<text text-anchor="start" x="254.5" y="-17" font-family="Times,serif" font-size="10.00">mal_toolkit::endianness</text>
<text text-anchor="middle" x="300.62" y="-5.75" font-family="Times,serif" font-size="10.00">::betole32</text>
</a>
</g>
</g>
<!-- Node2&#45;&gt;Node5 -->
<g id="edge4_Node000002_Node000005" class="edge">
<title>Node2&#45;&gt;Node5</title>
<g id="a_edge4_Node000002_Node000005"><a xlink:title=" ">
<path fill="none" stroke="#63b8ff" d="M209.92,-48.61C221.69,-44.24 234.63,-39.42 246.93,-34.85"/>
<polygon fill="#63b8ff" stroke="#63b8ff" points="247.95,-38.2 256.11,-31.44 245.51,-31.64 247.95,-38.2"/>
</a>
</g>
</g>
</g>
</svg>
