<?xml version="1.0" encoding="UTF-8" standalone="no"?>
<!DOCTYPE svg PUBLIC "-//W3C//DTD SVG 1.1//EN"
 "http://www.w3.org/Graphics/SVG/1.1/DTD/svg11.dtd">
<!-- Generated by graphviz version 11.0.0 (20240428.1522)
 -->
<!-- Title: mal_toolkit::uuid::UUID::fromStrFactory Pages: 1 -->
<svg width="382pt" height="137pt"
 viewBox="0.00 0.00 381.50 136.50" xmlns="http://www.w3.org/2000/svg" xmlns:xlink="http://www.w3.org/1999/xlink">
<g id="graph0" class="graph" transform="scale(1 1) rotate(0) translate(4 132.5)">
<title>mal_toolkit::uuid::UUID::fromStrFactory</title>
<!-- Node1 -->
<g id="Node000001" class="node">
<title>Node1</title>
<g id="a_Node000001"><a xlink:title=" ">
<polygon fill="#999999" stroke="#666666" points="106,-54.5 0,-54.5 0,-24 106,-24 106,-54.5"/>
<text text-anchor="start" x="8" y="-41" font-family="Times,serif" font-size="10.00">mal_toolkit::uuid::</text>
<text text-anchor="middle" x="53" y="-29.75" font-family="Times,serif" font-size="10.00">UUID::fromStrFactory</text>
</a>
</g>
</g>
<!-- Node2 -->
<g id="Node000002" class="node">
<title>Node2</title>
<g id="a_Node000002"><a xlink:href="../../d4/dcc/namespacemal__toolkit_1_1uuid.html#ac574774fc475c6fdada4ba48e1ed5b95" target="_top" xlink:title="Converts an UUIDv4 string representation to a 128&#45;bits unsigned int using SIMD via AVX2.">
<polygon fill="white" stroke="#666666" points="229.25,-79.5 142,-79.5 142,-49 229.25,-49 229.25,-79.5"/>
<text text-anchor="start" x="150" y="-66" font-family="Times,serif" font-size="10.00">mal_toolkit::uuid::</text>
<text text-anchor="middle" x="185.62" y="-54.75" font-family="Times,serif" font-size="10.00">stom128i</text>
</a>
</g>
</g>
<!-- Node1&#45;&gt;Node2 -->
<g id="edge1_Node000001_Node000002" class="edge">
<title>Node1&#45;&gt;Node2</title>
<g id="a_edge1_Node000001_Node000002"><a xlink:title=" ">
<path fill="none" stroke="#63b8ff" d="M106.38,-49.27C114.39,-50.81 122.66,-52.39 130.71,-53.93"/>
<polygon fill="#63b8ff" stroke="#63b8ff" points="129.9,-57.34 140.38,-55.78 131.21,-50.46 129.9,-57.34"/>
</a>
</g>
</g>
<!-- Node6 -->
<g id="Node000006" class="node">
<title>Node6</title>
<g id="a_Node000006"><a xlink:href="../../d5/d96/classmal__toolkit_1_1uuid_1_1_u_u_i_d.html#ab24203d4011f7ce3d546ac70c796e5bf" target="_top" xlink:title="Default constructor.">
<polygon fill="white" stroke="#666666" points="229.25,-30.5 142,-30.5 142,0 229.25,0 229.25,-30.5"/>
<text text-anchor="start" x="150" y="-17" font-family="Times,serif" font-size="10.00">mal_toolkit::uuid::</text>
<text text-anchor="middle" x="185.62" y="-5.75" font-family="Times,serif" font-size="10.00">UUID::UUID</text>
</a>
</g>
</g>
<!-- Node1&#45;&gt;Node6 -->
<g id="edge5_Node000001_Node000006" class="edge">
<title>Node1&#45;&gt;Node6</title>
<g id="a_edge5_Node000001_Node000006"><a xlink:title=" ">
<path fill="none" stroke="#63b8ff" d="M106.38,-29.63C114.39,-28.16 122.66,-26.63 130.71,-25.16"/>
<polygon fill="#63b8ff" stroke="#63b8ff" points="131.17,-28.63 140.37,-23.38 129.91,-21.75 131.17,-28.63"/>
</a>
</g>
</g>
<!-- Node3 -->
<g id="Node000003" class="node">
<title>Node3</title>
<g id="a_Node000003"><a xlink:href="../../d6/d11/namespacemal__toolkit_1_1endianness.html#a0d4fdd76d493b47a3fb18f146f737c1f" target="_top" xlink:title="Converts a 16&#45;bit value between big&#45;endian and little&#45;endian.">
<polygon fill="white" stroke="#666666" points="373.5,-128.5 265.25,-128.5 265.25,-98 373.5,-98 373.5,-128.5"/>
<text text-anchor="start" x="273.25" y="-115" font-family="Times,serif" font-size="10.00">mal_toolkit::endianness</text>
<text text-anchor="middle" x="319.38" y="-103.75" font-family="Times,serif" font-size="10.00">::betole16</text>
</a>
</g>
</g>
<!-- Node2&#45;&gt;Node3 -->
<g id="edge2_Node000002_Node000003" class="edge">
<title>Node2&#45;&gt;Node3</title>
<g id="a_edge2_Node000002_Node000003"><a xlink:title=" ">
<path fill="none" stroke="#63b8ff" d="M228.67,-79.89C240.44,-84.26 253.38,-89.08 265.68,-93.65"/>
<polygon fill="#63b8ff" stroke="#63b8ff" points="264.26,-96.86 274.86,-97.06 266.7,-90.3 264.26,-96.86"/>
</a>
</g>
</g>
<!-- Node4 -->
<g id="Node000004" class="node">
<title>Node4</title>
<g id="a_Node000004"><a xlink:href="../../d6/d11/namespacemal__toolkit_1_1endianness.html#ae402a5cfb38c56dae866180918471551" target="_top" xlink:title="Converts a 256&#45;bit value between big&#45;endian and little&#45;endian using AVX2 intrinsics.">
<polygon fill="white" stroke="#666666" points="373.5,-79.5 265.25,-79.5 265.25,-49 373.5,-49 373.5,-79.5"/>
<text text-anchor="start" x="273.25" y="-66" font-family="Times,serif" font-size="10.00">mal_toolkit::endianness</text>
<text text-anchor="middle" x="319.38" y="-54.75" font-family="Times,serif" font-size="10.00">::betole256</text>
</a>
</g>
</g>
<!-- Node2&#45;&gt;Node4 -->
<g id="edge3_Node000002_Node000004" class="edge">
<title>Node2&#45;&gt;Node4</title>
<g id="a_edge3_Node000002_Node000004"><a xlink:title=" ">
<path fill="none" stroke="#63b8ff" d="M229.4,-64.25C237.25,-64.25 245.61,-64.25 253.93,-64.25"/>
<polygon fill="#63b8ff" stroke="#63b8ff" points="253.69,-67.75 263.69,-64.25 253.69,-60.75 253.69,-67.75"/>
</a>
</g>
</g>
<!-- Node5 -->
<g id="Node000005" class="node">
<title>Node5</title>
<g id="a_Node000005"><a xlink:href="../../d6/d11/namespacemal__toolkit_1_1endianness.html#ad60454ca97bca47f79dff8c3cf07abf3" target="_top" xlink:title="Converts a 32&#45;bit value between big&#45;endian and little&#45;endian.">
<polygon fill="white" stroke="#666666" points="373.5,-30.5 265.25,-30.5 265.25,0 373.5,0 373.5,-30.5"/>
<text text-anchor="start" x="273.25" y="-17" font-family="Times,serif" font-size="10.00">mal_toolkit::endianness</text>
<text text-anchor="middle" x="319.38" y="-5.75" font-family="Times,serif" font-size="10.00">::betole32</text>
</a>
</g>
</g>
<!-- Node2&#45;&gt;Node5 -->
<g id="edge4_Node000002_Node000005" class="edge">
<title>Node2&#45;&gt;Node5</title>
<g id="a_edge4_Node000002_Node000005"><a xlink:title=" ">
<path fill="none" stroke="#63b8ff" d="M228.67,-48.61C240.44,-44.24 253.38,-39.42 265.68,-34.85"/>
<polygon fill="#63b8ff" stroke="#63b8ff" points="266.7,-38.2 274.86,-31.44 264.26,-31.64 266.7,-38.2"/>
</a>
</g>
</g>
</g>
</svg>
