<?xml version="1.0" encoding="UTF-8" standalone="no"?>
<!DOCTYPE svg PUBLIC "-//W3C//DTD SVG 1.1//EN"
 "http://www.w3.org/Graphics/SVG/1.1/DTD/svg11.dtd">
<!-- Generated by graphviz version 9.0.0 (20230911.1827)
 -->
<!-- Title: mal_toolkit::uuid::UUID::UUID Pages: 1 -->
<svg width="240pt" height="106pt"
 viewBox="0.00 0.00 239.50 105.50" xmlns="http://www.w3.org/2000/svg" xmlns:xlink="http://www.w3.org/1999/xlink">
<g id="graph0" class="graph" transform="scale(1 1) rotate(0) translate(4 101.5)">
<title>mal_toolkit::uuid::UUID::UUID</title>
<!-- Node1 -->
<g id="Node000001" class="node">
<title>Node1</title>
<g id="a_Node000001"><a xlink:title="Constructs an UUID from a byte string.">
<polygon fill="#999999" stroke="#666666" points="87.25,-63.5 0,-63.5 0,-33 87.25,-33 87.25,-63.5"/>
<text text-anchor="start" x="8" y="-50" font-family="Times,serif" font-size="10.00">mal_toolkit::uuid::</text>
<text text-anchor="middle" x="43.62" y="-38.75" font-family="Times,serif" font-size="10.00">UUID::UUID</text>
</a>
</g>
</g>
<!-- Node2 -->
<g id="Node000002" class="node">
<title>Node2</title>
<g id="a_Node000002"><a xlink:href="../../d6/d11/namespacemal__toolkit_1_1endianness.html#a029a712e464ad5771b3d1f4ed6c912c5" target="_top" xlink:title="Converts a 128&#45;bit value between big&#45;endian and little&#45;endian using SSE2 intrinsics.">
<polygon fill="white" stroke="#666666" points="231.5,-97.5 123.25,-97.5 123.25,-67 231.5,-67 231.5,-97.5"/>
<text text-anchor="start" x="131.25" y="-84" font-family="Times,serif" font-size="10.00">mal_toolkit::endianness</text>
<text text-anchor="middle" x="177.38" y="-72.75" font-family="Times,serif" font-size="10.00">::betole128</text>
</a>
</g>
</g>
<!-- Node1&#45;&gt;Node2 -->
<g id="edge1_Node000001_Node000002" class="edge">
<title>Node1&#45;&gt;Node2</title>
<g id="a_edge1_Node000001_Node000002"><a xlink:title=" ">
<path fill="none" stroke="#63b8ff" d="M87.4,-59.29C95.34,-61.34 103.8,-63.52 112.21,-65.69"/>
<polygon fill="#63b8ff" stroke="#63b8ff" points="111.19,-69.04 121.74,-68.15 112.93,-62.26 111.19,-69.04"/>
</a>
</g>
</g>
<!-- Node3 -->
<g id="Node000003" class="node">
<title>Node3</title>
<g id="a_Node000003"><a xlink:href="../../d5/d96/classmal__toolkit_1_1uuid_1_1_u_u_i_d.html#a7eff437a2fb7ead46dfe52a863894012" target="_top" xlink:title="Serializes the UUID to a byte string (16 bytes).">
<polygon fill="white" stroke="#666666" points="221,-30.5 133.75,-30.5 133.75,0 221,0 221,-30.5"/>
<text text-anchor="start" x="141.75" y="-17" font-family="Times,serif" font-size="10.00">mal_toolkit::uuid::</text>
<text text-anchor="middle" x="177.38" y="-5.75" font-family="Times,serif" font-size="10.00">UUID::bytes</text>
</a>
</g>
</g>
<!-- Node1&#45;&gt;Node3 -->
<g id="edge2_Node000001_Node000003" class="edge">
<title>Node1&#45;&gt;Node3</title>
<g id="a_edge2_Node000001_Node000003"><a xlink:title=" ">
<path fill="none" stroke="#63b8ff" d="M87.4,-37.54C98.56,-34.74 110.73,-31.69 122.39,-28.77"/>
<polygon fill="#63b8ff" stroke="#63b8ff" points="123.05,-32.22 131.9,-26.39 121.34,-25.43 123.05,-32.22"/>
</a>
</g>
</g>
<!-- Node3&#45;&gt;Node3 -->
<g id="edge3_Node000003_Node000003" class="edge">
<title>Node3&#45;&gt;Node3</title>
<g id="a_edge3_Node000003_Node000003"><a xlink:title=" ">
<path fill="none" stroke="#63b8ff" d="M153.67,-30.99C148.84,-40.06 156.74,-48.5 177.38,-48.5 188.66,-48.5 196.14,-45.97 199.81,-42.2"/>
<polygon fill="#63b8ff" stroke="#63b8ff" points="203.26,-42.82 200.91,-32.49 196.3,-42.03 203.26,-42.82"/>
</a>
</g>
</g>
</g>
</svg>
