<?xml version="1.0" encoding="UTF-8" standalone="no"?>
<!DOCTYPE svg PUBLIC "-//W3C//DTD SVG 1.1//EN"
 "http://www.w3.org/Graphics/SVG/1.1/DTD/svg11.dtd">
<!-- Generated by graphviz version 8.1.0 (20230707.0739)
 -->
<!-- Title: mal_toolkit::uuid::UUID::fromStrFactory Pages: 1 -->
<svg width="382pt" height="137pt"
 viewBox="0.00 0.00 381.50 136.50" xmlns="http://www.w3.org/2000/svg" xmlns:xlink="http://www.w3.org/1999/xlink">
<g id="graph0" class="graph" transform="scale(1 1) rotate(0) translate(4 132.5)">
<title>mal_toolkit::uuid::UUID::fromStrFactory</title>
<!-- Node1 -->
<g id="Node000001" class="node">
<title>Node1</title>
<g id="a_Node000001"><a xlink:title=" ">
<polygon fill="#999999" stroke="#666666" points="106,-103.5 0,-103.5 0,-73 106,-73 106,-103.5"/>
<text text-anchor="start" x="8" y="-90" font-family="Times,serif" font-size="10.00">mal_toolkit::uuid::</text>
<text text-anchor="middle" x="53" y="-78.75" font-family="Times,serif" font-size="10.00">UUID::fromStrFactory</text>
</a>
</g>
</g>
<!-- Node2 -->
<g id="Node000002" class="node">
<title>Node2</title>
<g id="a_Node000002"><a xlink:href="../../d5/d96/classmal__toolkit_1_1uuid_1_1_u_u_i_d.html#ab24203d4011f7ce3d546ac70c796e5bf" target="_top" xlink:title="Default constructor.">
<polygon fill="white" stroke="#666666" points="229.25,-128.5 142,-128.5 142,-98 229.25,-98 229.25,-128.5"/>
<text text-anchor="start" x="150" y="-115" font-family="Times,serif" font-size="10.00">mal_toolkit::uuid::</text>
<text text-anchor="middle" x="185.62" y="-103.75" font-family="Times,serif" font-size="10.00">UUID::UUID</text>
</a>
</g>
</g>
<!-- Node1&#45;&gt;Node2 -->
<g id="edge1_Node000001_Node000002" class="edge">
<title>Node1&#45;&gt;Node2</title>
<g id="a_edge1_Node000001_Node000002"><a xlink:title=" ">
<path fill="none" stroke="#63b8ff" d="M106.38,-98.27C114.57,-99.84 123.05,-101.46 131.26,-103.04"/>
<polygon fill="#63b8ff" stroke="#63b8ff" points="130.38,-106.62 140.86,-105.07 131.7,-99.75 130.38,-106.62"/>
</a>
</g>
</g>
<!-- Node3 -->
<g id="Node000003" class="node">
<title>Node3</title>
<g id="a_Node000003"><a xlink:href="../../d4/dcc/namespacemal__toolkit_1_1uuid.html#ac574774fc475c6fdada4ba48e1ed5b95" target="_top" xlink:title="Converts an UUIDv4 string representation to a 128&#45;bits unsigned int using SIMD via AVX2.">
<polygon fill="white" stroke="#666666" points="229.25,-79.5 142,-79.5 142,-49 229.25,-49 229.25,-79.5"/>
<text text-anchor="start" x="150" y="-66" font-family="Times,serif" font-size="10.00">mal_toolkit::uuid::</text>
<text text-anchor="middle" x="185.62" y="-54.75" font-family="Times,serif" font-size="10.00">stom128i</text>
</a>
</g>
</g>
<!-- Node1&#45;&gt;Node3 -->
<g id="edge2_Node000001_Node000003" class="edge">
<title>Node1&#45;&gt;Node3</title>
<g id="a_edge2_Node000001_Node000003"><a xlink:title=" ">
<path fill="none" stroke="#63b8ff" d="M106.38,-78.63C114.57,-77.12 123.05,-75.56 131.26,-74.05"/>
<polygon fill="#63b8ff" stroke="#63b8ff" points="131.66,-77.36 140.86,-72.11 130.39,-70.47 131.66,-77.36"/>
</a>
</g>
</g>
<!-- Node4 -->
<g id="Node000004" class="node">
<title>Node4</title>
<g id="a_Node000004"><a xlink:href="../../d6/d11/namespacemal__toolkit_1_1endianness.html#a0d4fdd76d493b47a3fb18f146f737c1f" target="_top" xlink:title="Converts a 16&#45;bit value between big&#45;endian and little&#45;endian.">
<polygon fill="white" stroke="#666666" points="373.5,-128.5 265.25,-128.5 265.25,-98 373.5,-98 373.5,-128.5"/>
<text text-anchor="start" x="273.25" y="-115" font-family="Times,serif" font-size="10.00">mal_toolkit::endianness</text>
<text text-anchor="middle" x="319.38" y="-103.75" font-family="Times,serif" font-size="10.00">::betole16</text>
</a>
</g>
</g>
<!-- Node3&#45;&gt;Node4 -->
<g id="edge3_Node000003_Node000004" class="edge">
<title>Node3&#45;&gt;Node4</title>
<g id="a_edge3_Node000003_Node000004"><a xlink:title=" ">
<path fill="none" stroke="#63b8ff" d="M228.67,-79.89C240.56,-84.31 253.64,-89.17 266.05,-93.79"/>
<polygon fill="#63b8ff" stroke="#63b8ff" points="264.68,-97.39 275.27,-97.59 267.12,-90.83 264.68,-97.39"/>
</a>
</g>
</g>
<!-- Node5 -->
<g id="Node000005" class="node">
<title>Node5</title>
<g id="a_Node000005"><a xlink:href="../../d6/d11/namespacemal__toolkit_1_1endianness.html#ae402a5cfb38c56dae866180918471551" target="_top" xlink:title="Converts a 256&#45;bit value between big&#45;endian and little&#45;endian using AVX2 intrinsics.">
<polygon fill="white" stroke="#666666" points="373.5,-79.5 265.25,-79.5 265.25,-49 373.5,-49 373.5,-79.5"/>
<text text-anchor="start" x="273.25" y="-66" font-family="Times,serif" font-size="10.00">mal_toolkit::endianness</text>
<text text-anchor="middle" x="319.38" y="-54.75" font-family="Times,serif" font-size="10.00">::betole256</text>
</a>
</g>
</g>
<!-- Node3&#45;&gt;Node5 -->
<g id="edge4_Node000003_Node000005" class="edge">
<title>Node3&#45;&gt;Node5</title>
<g id="a_edge4_Node000003_Node000005"><a xlink:title=" ">
<path fill="none" stroke="#63b8ff" d="M229.4,-64.25C237.34,-64.25 245.8,-64.25 254.21,-64.25"/>
<polygon fill="#63b8ff" stroke="#63b8ff" points="254.21,-67.75 264.21,-64.25 254.21,-60.75 254.21,-67.75"/>
</a>
</g>
</g>
<!-- Node6 -->
<g id="Node000006" class="node">
<title>Node6</title>
<g id="a_Node000006"><a xlink:href="../../d6/d11/namespacemal__toolkit_1_1endianness.html#ad60454ca97bca47f79dff8c3cf07abf3" target="_top" xlink:title="Converts a 32&#45;bit value between big&#45;endian and little&#45;endian.">
<polygon fill="white" stroke="#666666" points="373.5,-30.5 265.25,-30.5 265.25,0 373.5,0 373.5,-30.5"/>
<text text-anchor="start" x="273.25" y="-17" font-family="Times,serif" font-size="10.00">mal_toolkit::endianness</text>
<text text-anchor="middle" x="319.38" y="-5.75" font-family="Times,serif" font-size="10.00">::betole32</text>
</a>
</g>
</g>
<!-- Node3&#45;&gt;Node6 -->
<g id="edge5_Node000003_Node000006" class="edge">
<title>Node3&#45;&gt;Node6</title>
<g id="a_edge5_Node000003_Node000006"><a xlink:title=" ">
<path fill="none" stroke="#63b8ff" d="M228.67,-48.61C240.56,-44.19 253.64,-39.33 266.05,-34.71"/>
<polygon fill="#63b8ff" stroke="#63b8ff" points="267.12,-37.67 275.27,-30.91 264.68,-31.11 267.12,-37.67"/>
</a>
</g>
</g>
</g>
</svg>
