<?xml version="1.0" encoding="UTF-8" standalone="no"?>
<!DOCTYPE svg PUBLIC "-//W3C//DTD SVG 1.1//EN"
 "http://www.w3.org/Graphics/SVG/1.1/DTD/svg11.dtd">
<!-- Generated by graphviz version 11.0.0 (20240428.1522)
 -->
<!-- Title: mal&#45;packet&#45;weaver/mal&#45;packet&#45;weaver/packet&#45;impl/packet&#45;macro.hpp Pages: 1 -->
<svg width="662pt" height="272pt"
 viewBox="0.00 0.00 661.50 271.75" xmlns="http://www.w3.org/2000/svg" xmlns:xlink="http://www.w3.org/1999/xlink">
<g id="graph0" class="graph" transform="scale(1 1) rotate(0) translate(4 267.75)">
<title>mal&#45;packet&#45;weaver/mal&#45;packet&#45;weaver/packet&#45;impl/packet&#45;macro.hpp</title>
<!-- Node1 -->
<g id="Node000001" class="node">
<title>Node1</title>
<g id="a_Node000001"><a xlink:title=" ">
<polygon fill="#999999" stroke="#666666" points="372.75,-263.75 260.75,-263.75 260.75,-222 372.75,-222 372.75,-263.75"/>
<text text-anchor="start" x="268.75" y="-250.25" font-family="Times,serif" font-size="10.00">mal&#45;packet&#45;weaver/mal</text>
<text text-anchor="start" x="268.75" y="-239" font-family="Times,serif" font-size="10.00">&#45;packet&#45;weaver/packet</text>
<text text-anchor="middle" x="316.75" y="-227.75" font-family="Times,serif" font-size="10.00">&#45;impl/packet&#45;macro.hpp</text>
</a>
</g>
</g>
<!-- Node2 -->
<g id="Node000002" class="node">
<title>Node2</title>
<g id="a_Node000002"><a xlink:href="../../d2/d3f/packet_8hpp.html" target="_top" xlink:title=" ">
<polygon fill="white" stroke="#666666" points="378.38,-186 255.12,-186 255.12,-155.5 378.38,-155.5 378.38,-186"/>
<text text-anchor="start" x="263.12" y="-172.5" font-family="Times,serif" font-size="10.00">mal&#45;packet&#45;weaver/mal</text>
<text text-anchor="middle" x="316.75" y="-161.25" font-family="Times,serif" font-size="10.00">&#45;packet&#45;weaver/packet.hpp</text>
</a>
</g>
</g>
<!-- Node1&#45;&gt;Node2 -->
<g id="edge1_Node000001_Node000002" class="edge">
<title>Node1&#45;&gt;Node2</title>
<g id="a_edge1_Node000001_Node000002"><a xlink:title=" ">
<path fill="none" stroke="#63b8ff" d="M316.75,-210.13C316.75,-201.77 316.75,-193.15 316.75,-186.2"/>
<polygon fill="#63b8ff" stroke="#63b8ff" points="313.25,-210.08 316.75,-220.08 320.25,-210.08 313.25,-210.08"/>
</a>
</g>
</g>
<!-- Node3 -->
<g id="Node000003" class="node">
<title>Node3</title>
<g id="a_Node000003"><a xlink:href="../../df/d1d/packet-dispatcher_8hpp.html" target="_top" xlink:title=" ">
<polygon fill="white" stroke="#666666" points="233.5,-119.5 126,-119.5 126,-77.75 233.5,-77.75 233.5,-119.5"/>
<text text-anchor="start" x="134" y="-106" font-family="Times,serif" font-size="10.00">mal&#45;packet&#45;weaver/mal</text>
<text text-anchor="start" x="134" y="-94.75" font-family="Times,serif" font-size="10.00">&#45;packet&#45;weaver/packet</text>
<text text-anchor="middle" x="179.75" y="-83.5" font-family="Times,serif" font-size="10.00">&#45;dispatcher.hpp</text>
</a>
</g>
</g>
<!-- Node2&#45;&gt;Node3 -->
<g id="edge2_Node000002_Node000003" class="edge">
<title>Node2&#45;&gt;Node3</title>
<g id="a_edge2_Node000002_Node000003"><a xlink:title=" ">
<path fill="none" stroke="#63b8ff" d="M277.97,-149.9C259.64,-140.52 237.78,-129.33 219.34,-119.89"/>
<polygon fill="#63b8ff" stroke="#63b8ff" points="276.19,-152.92 286.68,-154.36 279.38,-146.69 276.19,-152.92"/>
</a>
</g>
</g>
<!-- Node7 -->
<g id="Node000007" class="node">
<title>Node7</title>
<g id="a_Node000007"><a xlink:href="../../d4/d5e/session_8hpp.html" target="_top" xlink:title=" ">
<polygon fill="white" stroke="#666666" points="516.12,-113.88 391.38,-113.88 391.38,-83.38 516.12,-83.38 516.12,-113.88"/>
<text text-anchor="start" x="399.38" y="-100.38" font-family="Times,serif" font-size="10.00">mal&#45;packet&#45;weaver/mal</text>
<text text-anchor="middle" x="453.75" y="-89.12" font-family="Times,serif" font-size="10.00">&#45;packet&#45;weaver/session.hpp</text>
</a>
</g>
</g>
<!-- Node2&#45;&gt;Node7 -->
<g id="edge7_Node000002_Node000007" class="edge">
<title>Node2&#45;&gt;Node7</title>
<g id="a_edge7_Node000002_Node000007"><a xlink:title=" ">
<path fill="none" stroke="#63b8ff" d="M355.54,-149.89C377.66,-138.57 404.89,-124.63 425.07,-114.31"/>
<polygon fill="#63b8ff" stroke="#63b8ff" points="354.12,-146.69 346.82,-154.36 357.31,-152.92 354.12,-146.69"/>
</a>
</g>
</g>
<!-- Node4 -->
<g id="Node000004" class="node">
<title>Node4</title>
<g id="a_Node000004"><a xlink:href="../../de/d5c/dispatcher-session_8hpp.html" target="_top" xlink:title=" ">
<polygon fill="white" stroke="#666666" points="373.62,-41.75 251.88,-41.75 251.88,0 373.62,0 373.62,-41.75"/>
<text text-anchor="start" x="259.88" y="-28.25" font-family="Times,serif" font-size="10.00">mal&#45;packet&#45;weaver/mal</text>
<text text-anchor="start" x="259.88" y="-17" font-family="Times,serif" font-size="10.00">&#45;packet&#45;weaver/dispatcher</text>
<text text-anchor="middle" x="312.75" y="-5.75" font-family="Times,serif" font-size="10.00">&#45;session.hpp</text>
</a>
</g>
</g>
<!-- Node3&#45;&gt;Node4 -->
<g id="edge3_Node000003_Node000004" class="edge">
<title>Node3&#45;&gt;Node4</title>
<g id="a_edge3_Node000003_Node000004"><a xlink:title=" ">
<path fill="none" stroke="#63b8ff" d="M225.1,-71.8C242.05,-62.14 261.05,-51.32 277.01,-42.23"/>
<polygon fill="#63b8ff" stroke="#63b8ff" points="223.66,-68.59 216.71,-76.58 227.13,-74.67 223.66,-68.59"/>
</a>
</g>
</g>
<!-- Node5 -->
<g id="Node000005" class="node">
<title>Node5</title>
<g id="a_Node000005"><a xlink:href="../../d8/d1a/packet-dispatcher_8cpp.html" target="_top" xlink:title=" ">
<polygon fill="white" stroke="#666666" points="107.5,-41.75 0,-41.75 0,0 107.5,0 107.5,-41.75"/>
<text text-anchor="start" x="8" y="-28.25" font-family="Times,serif" font-size="10.00">mal&#45;packet&#45;weaver/mal</text>
<text text-anchor="start" x="8" y="-17" font-family="Times,serif" font-size="10.00">&#45;packet&#45;weaver/packet</text>
<text text-anchor="middle" x="53.75" y="-5.75" font-family="Times,serif" font-size="10.00">&#45;dispatcher.cpp</text>
</a>
</g>
</g>
<!-- Node3&#45;&gt;Node5 -->
<g id="edge4_Node000003_Node000005" class="edge">
<title>Node3&#45;&gt;Node5</title>
<g id="a_edge4_Node000003_Node000005"><a xlink:title=" ">
<path fill="none" stroke="#63b8ff" d="M136.34,-71.53C120.39,-61.94 102.59,-51.24 87.61,-42.23"/>
<polygon fill="#63b8ff" stroke="#63b8ff" points="134.31,-74.39 144.69,-76.55 137.92,-68.39 134.31,-74.39"/>
</a>
</g>
</g>
<!-- Node6 -->
<g id="Node000006" class="node">
<title>Node6</title>
<g id="a_Node000006"><a xlink:href="../../d2/d7d/packet-dispatcher_8inl.html" target="_top" xlink:title=" ">
<polygon fill="white" stroke="#666666" points="233.5,-41.75 126,-41.75 126,0 233.5,0 233.5,-41.75"/>
<text text-anchor="start" x="134" y="-28.25" font-family="Times,serif" font-size="10.00">mal&#45;packet&#45;weaver/mal</text>
<text text-anchor="start" x="134" y="-17" font-family="Times,serif" font-size="10.00">&#45;packet&#45;weaver/packet</text>
<text text-anchor="middle" x="179.75" y="-5.75" font-family="Times,serif" font-size="10.00">&#45;dispatcher.inl</text>
</a>
</g>
</g>
<!-- Node3&#45;&gt;Node6 -->
<g id="edge5_Node000003_Node000006" class="edge">
<title>Node3&#45;&gt;Node6</title>
<g id="a_edge5_Node000003_Node000006"><a xlink:title=" ">
<path fill="none" stroke="#63b8ff" d="M173.08,-66C172.87,-57.96 173.07,-49.54 173.69,-42.23"/>
<polygon fill="#63b8ff" stroke="#63b8ff" points="169.58,-66.02 173.61,-75.81 176.57,-65.64 169.58,-66.02"/>
</a>
</g>
</g>
<!-- Node6&#45;&gt;Node3 -->
<g id="edge6_Node000006_Node000003" class="edge">
<title>Node6&#45;&gt;Node3</title>
<g id="a_edge6_Node000006_Node000003"><a xlink:title=" ">
<path fill="none" stroke="#63b8ff" d="M186.42,-53.56C186.63,-61.6 186.43,-70.02 185.81,-77.33"/>
<polygon fill="#63b8ff" stroke="#63b8ff" points="189.92,-53.54 185.89,-43.74 182.93,-53.91 189.92,-53.54"/>
</a>
</g>
</g>
<!-- Node7&#45;&gt;Node4 -->
<g id="edge8_Node000007_Node000004" class="edge">
<title>Node7&#45;&gt;Node4</title>
<g id="a_edge8_Node000007_Node000004"><a xlink:title=" ">
<path fill="none" stroke="#63b8ff" d="M416.69,-77.71C396.29,-66.75 371.02,-53.18 350.51,-42.16"/>
<polygon fill="#63b8ff" stroke="#63b8ff" points="414.76,-80.65 425.23,-82.3 418.08,-74.49 414.76,-80.65"/>
</a>
</g>
</g>
<!-- Node8 -->
<g id="Node000008" class="node">
<title>Node8</title>
<g id="a_Node000008"><a xlink:href="../../d9/d1a/session_8cpp.html" target="_top" xlink:title=" ">
<polygon fill="white" stroke="#666666" points="515.75,-36.12 391.75,-36.12 391.75,-5.62 515.75,-5.62 515.75,-36.12"/>
<text text-anchor="start" x="399.75" y="-22.62" font-family="Times,serif" font-size="10.00">mal&#45;packet&#45;weaver/mal</text>
<text text-anchor="middle" x="453.75" y="-11.38" font-family="Times,serif" font-size="10.00">&#45;packet&#45;weaver/session.cpp</text>
</a>
</g>
</g>
<!-- Node7&#45;&gt;Node8 -->
<g id="edge9_Node000007_Node000008" class="edge">
<title>Node7&#45;&gt;Node8</title>
<g id="a_edge9_Node000007_Node000008"><a xlink:title=" ">
<path fill="none" stroke="#63b8ff" d="M453.75,-71.6C453.75,-59.84 453.75,-46.38 453.75,-36.44"/>
<polygon fill="#63b8ff" stroke="#63b8ff" points="450.25,-71.51 453.75,-81.51 457.25,-71.51 450.25,-71.51"/>
</a>
</g>
</g>
<!-- Node9 -->
<g id="Node000009" class="node">
<title>Node9</title>
<g id="a_Node000009"><a xlink:href="../../d1/d16/session_8inl.html" target="_top" xlink:title=" ">
<polygon fill="white" stroke="#666666" points="653.5,-36.12 534,-36.12 534,-5.62 653.5,-5.62 653.5,-36.12"/>
<text text-anchor="start" x="542" y="-22.62" font-family="Times,serif" font-size="10.00">mal&#45;packet&#45;weaver/mal</text>
<text text-anchor="middle" x="593.75" y="-11.38" font-family="Times,serif" font-size="10.00">&#45;packet&#45;weaver/session.inl</text>
</a>
</g>
</g>
<!-- Node7&#45;&gt;Node9 -->
<g id="edge10_Node000007_Node000009" class="edge">
<title>Node7&#45;&gt;Node9</title>
<g id="a_edge10_Node000007_Node000009"><a xlink:title=" ">
<path fill="none" stroke="#63b8ff" d="M485.1,-77.39C507.77,-64.53 538.18,-48.18 561.13,-36.56"/>
<polygon fill="#63b8ff" stroke="#63b8ff" points="483.53,-74.25 476.6,-82.27 487.01,-80.32 483.53,-74.25"/>
</a>
</g>
</g>
<!-- Node9&#45;&gt;Node7 -->
<g id="edge11_Node000009_Node000007" class="edge">
<title>Node9&#45;&gt;Node7</title>
<g id="a_edge11_Node000009_Node000007"><a xlink:title=" ">
<path fill="none" stroke="#63b8ff" d="M562.45,-42.08C539.73,-54.97 509.2,-71.39 486.2,-83.02"/>
<polygon fill="#63b8ff" stroke="#63b8ff" points="564.05,-45.2 570.98,-37.19 560.56,-39.13 564.05,-45.2"/>
</a>
</g>
</g>
</g>
</svg>
