<?xml version="1.0" encoding="UTF-8" standalone="no"?>
<!DOCTYPE svg PUBLIC "-//W3C//DTD SVG 1.1//EN"
 "http://www.w3.org/Graphics/SVG/1.1/DTD/svg11.dtd">
<!-- Generated by graphviz version 7.0.5 (20221223.1930)
 -->
<!-- Title: node_system::Session Pages: 1 -->
<svg width="832pt" height="177pt"
 viewBox="0.00 0.00 832.00 176.50" xmlns="http://www.w3.org/2000/svg" xmlns:xlink="http://www.w3.org/1999/xlink">
<g id="graph0" class="graph" transform="scale(1 1) rotate(0) translate(4 172.5)">
<title>node_system::Session</title>
<!-- Node1 -->
<g id="node1" class="node">
<title>Node1</title>
<g id="a_node1"><a xlink:title="Represents a network session for sending and receiving packets.">
<polygon fill="#999999" stroke="#666666" points="824,-89 710,-89 710,-70 824,-70 824,-89"/>
<text text-anchor="middle" x="767" y="-77" font-family="Helvetica,sans-Serif" font-size="10.00">node_system::Session</text>
</a>
</g>
</g>
<!-- Node2 -->
<g id="node2" class="node">
<title>Node2</title>
<g id="a_node2"><a xlink:title=" ">
<polygon fill="white" stroke="#666666" points="141,-168.5 43,-168.5 43,-138.5 141,-138.5 141,-168.5"/>
<text text-anchor="start" x="51" y="-156.5" font-family="Helvetica,sans-Serif" font-size="10.00">utils::non_copyable</text>
<text text-anchor="middle" x="92" y="-145.5" font-family="Helvetica,sans-Serif" font-size="10.00">_non_movable</text>
</a>
</g>
</g>
<!-- Node2&#45;&gt;Node1 -->
<g id="edge1" class="edge">
<title>Node2&#45;&gt;Node1</title>
<path fill="none" stroke="#63b8ff" d="M152.71,-154.08C242.47,-154.34 417.39,-152.44 565,-136.5 622.03,-130.34 637.28,-130.72 692,-113.5 711.82,-107.26 733.28,-96.98 747.96,-89.35"/>
<polygon fill="#63b8ff" stroke="#63b8ff" points="152.93,-150.58 142.92,-154.04 152.91,-157.58 152.93,-150.58"/>
</g>
<!-- Node5 -->
<g id="node5" class="node">
<title>Node5</title>
<g id="a_node5"><a xlink:href="../../d1/dbc/classnode__system_1_1crypto_1_1_a_e_s_1_1_a_e_s256.html" target="_top" xlink:title="Provides AES&#45;256 encryption and decryption functionality using OpenSSL.">
<polygon fill="white" stroke="#666666" points="401,-121.5 296,-121.5 296,-91.5 401,-91.5 401,-121.5"/>
<text text-anchor="start" x="304" y="-109.5" font-family="Helvetica,sans-Serif" font-size="10.00">node_system::crypto</text>
<text text-anchor="middle" x="348.5" y="-98.5" font-family="Helvetica,sans-Serif" font-size="10.00">::AES::AES256</text>
</a>
</g>
</g>
<!-- Node2&#45;&gt;Node5 -->
<g id="edge5" class="edge">
<title>Node2&#45;&gt;Node5</title>
<path fill="none" stroke="#8b1a1a" d="M152.73,-142.47C196.13,-134.46 254.28,-123.72 295.71,-116.06"/>
<polygon fill="#8b1a1a" stroke="#8b1a1a" points="152.15,-139.02 142.96,-144.27 153.43,-145.9 152.15,-139.02"/>
</g>
<!-- Node3 -->
<g id="node3" class="node">
<title>Node3</title>
<g id="a_node3"><a xlink:title=" ">
<polygon fill="white" stroke="#666666" points="565,-67.5 451,-67.5 451,-37.5 565,-37.5 565,-67.5"/>
<text text-anchor="start" x="459" y="-55.5" font-family="Helvetica,sans-Serif" font-size="10.00">std::enable_shared</text>
<text text-anchor="middle" x="508" y="-44.5" font-family="Helvetica,sans-Serif" font-size="10.00">_from_this&lt; Session &gt;</text>
</a>
</g>
</g>
<!-- Node3&#45;&gt;Node1 -->
<g id="edge2" class="edge">
<title>Node3&#45;&gt;Node1</title>
<path fill="none" stroke="#63b8ff" d="M576.78,-59.62C618.22,-63.97 670.59,-69.48 709.73,-73.59"/>
<polygon fill="#63b8ff" stroke="#63b8ff" points="577.22,-56.15 566.9,-58.58 576.48,-63.11 577.22,-56.15"/>
</g>
<!-- Node4 -->
<g id="node4" class="node">
<title>Node4</title>
<g id="a_node4"><a xlink:title=" ">
<polygon fill="white" stroke="#666666" points="562.5,-127 453.5,-127 453.5,-86 562.5,-86 562.5,-127"/>
<text text-anchor="start" x="461.5" y="-115" font-family="Helvetica,sans-Serif" font-size="10.00">std::unique_ptr&lt; node</text>
<text text-anchor="start" x="461.5" y="-104" font-family="Helvetica,sans-Serif" font-size="10.00">_system::crypto::AES</text>
<text text-anchor="middle" x="508" y="-93" font-family="Helvetica,sans-Serif" font-size="10.00">::AES256 &gt;</text>
</a>
</g>
</g>
<!-- Node4&#45;&gt;Node1 -->
<g id="edge3" class="edge">
<title>Node4&#45;&gt;Node1</title>
<path fill="none" stroke="#9a32cd" stroke-dasharray="5,2" d="M574.31,-99.64C616.05,-95.25 669.63,-89.62 709.53,-85.43"/>
<polygon fill="#9a32cd" stroke="#9a32cd" points="573.96,-96.16 564.38,-100.68 574.69,-103.12 573.96,-96.16"/>
<text text-anchor="middle" x="637.5" y="-101.5" font-family="Helvetica,sans-Serif" font-size="10.00"> aes_</text>
</g>
<!-- Node5&#45;&gt;Node4 -->
<g id="edge4" class="edge">
<title>Node5&#45;&gt;Node4</title>
<path fill="none" stroke="#9a32cd" stroke-dasharray="5,2" d="M412.25,-106.5C425.79,-106.5 439.99,-106.5 453.15,-106.5"/>
<polygon fill="#9a32cd" stroke="#9a32cd" points="412.58,-103 402.58,-106.5 412.58,-110 412.58,-103"/>
<text text-anchor="middle" x="426" y="-109.5" font-family="Helvetica,sans-Serif" font-size="10.00"> ptr</text>
</g>
<!-- Node6 -->
<g id="node6" class="node">
<title>Node6</title>
<g id="a_node6"><a xlink:title=" ">
<polygon fill="white" stroke="#666666" points="184,-119.5 0,-119.5 0,-67.5 184,-67.5 184,-119.5"/>
<text text-anchor="start" x="8" y="-107.5" font-family="Helvetica,sans-Serif" font-size="10.00">std::unique_ptr&lt; EVP</text>
<text text-anchor="start" x="8" y="-96.5" font-family="Helvetica,sans-Serif" font-size="10.00">_CIPHER_CTX, OPENSSL</text>
<text text-anchor="start" x="8" y="-85.5" font-family="Helvetica,sans-Serif" font-size="10.00">_OBJECT_WRAPPER&lt; EVP_CIPHER</text>
<text text-anchor="middle" x="92" y="-74.5" font-family="Helvetica,sans-Serif" font-size="10.00">_CTX &gt; &gt;</text>
</a>
</g>
</g>
<!-- Node6&#45;&gt;Node5 -->
<g id="edge6" class="edge">
<title>Node6&#45;&gt;Node5</title>
<path fill="none" stroke="#9a32cd" stroke-dasharray="5,2" d="M195.77,-91.04C222.58,-91.22 251.41,-92.15 278,-94.5 283.73,-95.01 289.7,-95.73 295.63,-96.58"/>
<polygon fill="#9a32cd" stroke="#9a32cd" points="195.94,-87.54 185.93,-91 195.92,-94.54 195.94,-87.54"/>
<text text-anchor="middle" x="240" y="-108.5" font-family="Helvetica,sans-Serif" font-size="10.00"> decrypt_context_</text>
<text text-anchor="middle" x="240" y="-97.5" font-family="Helvetica,sans-Serif" font-size="10.00">encrypt_context_</text>
</g>
<!-- Node7 -->
<g id="node7" class="node">
<title>Node7</title>
<g id="a_node7"><a xlink:title=" ">
<polygon fill="white" stroke="#666666" points="538.5,-19 477.5,-19 477.5,0 538.5,0 538.5,-19"/>
<text text-anchor="middle" x="508" y="-7" font-family="Helvetica,sans-Serif" font-size="10.00">std::mutex</text>
</a>
</g>
</g>
<!-- Node7&#45;&gt;Node1 -->
<g id="edge7" class="edge">
<title>Node7&#45;&gt;Node1</title>
<path fill="none" stroke="#9a32cd" stroke-dasharray="5,2" d="M549.74,-14.29C587.33,-19.4 644.35,-28.95 692,-44.5 712,-51.02 733.6,-61.7 748.28,-69.55"/>
<polygon fill="#9a32cd" stroke="#9a32cd" points="550.61,-10.87 540.24,-13.04 549.69,-17.81 550.61,-10.87"/>
<text text-anchor="middle" x="637.5" y="-47.5" font-family="Helvetica,sans-Serif" font-size="10.00"> packet_receiver_mutex_</text>
</g>
</g>
</svg>
