<?xml version="1.0" encoding="UTF-8" standalone="no"?>
<!DOCTYPE svg PUBLIC "-//W3C//DTD SVG 1.1//EN"
 "http://www.w3.org/Graphics/SVG/1.1/DTD/svg11.dtd">
<!-- Generated by graphviz version 11.0.0 (20240428.1522)
 -->
<!-- Title: mal_toolkit::ByteArray Pages: 1 -->
<svg width="115pt" height="149pt"
 viewBox="0.00 0.00 114.75 149.00" xmlns="http://www.w3.org/2000/svg" xmlns:xlink="http://www.w3.org/1999/xlink">
<g id="graph0" class="graph" transform="scale(1 1) rotate(0) translate(4 145)">
<title>mal_toolkit::ByteArray</title>
<!-- Node1 -->
<g id="Node000001" class="node">
<title>Node1</title>
<g id="a_Node000001"><a xlink:title="A dynamically resizable array of bytes.">
<polygon fill="#999999" stroke="#666666" points="106.75,-19.25 0,-19.25 0,0 106.75,0 106.75,-19.25"/>
<text text-anchor="middle" x="53.38" y="-5.75" font-family="Times,serif" font-size="10.00">mal_toolkit::ByteArray</text>
</a>
</g>
</g>
<!-- Node2 -->
<g id="Node000002" class="node">
<title>Node2</title>
<g id="a_Node000002"><a xlink:title=" ">
<polygon fill="white" stroke="#666666" points="93.25,-74.5 13.5,-74.5 13.5,-55.25 93.25,-55.25 93.25,-74.5"/>
<text text-anchor="middle" x="53.38" y="-61" font-family="Times,serif" font-size="10.00">std::vector&lt; T &gt;</text>
</a>
</g>
</g>
<!-- Node2&#45;&gt;Node1 -->
<g id="edge1_Node000001_Node000002" class="edge">
<title>Node2&#45;&gt;Node1</title>
<g id="a_edge1_Node000001_Node000002"><a xlink:title=" ">
<path fill="none" stroke="#63b8ff" d="M53.38,-43.63C53.38,-35.34 53.38,-26.17 53.38,-19.61"/>
<polygon fill="#63b8ff" stroke="#63b8ff" points="49.88,-43.57 53.38,-53.57 56.88,-43.57 49.88,-43.57"/>
</a>
</g>
</g>
<!-- Node3 -->
<g id="Node000003" class="node">
<title>Node3</title>
<g id="a_Node000003"><a xlink:title=" ">
<polygon fill="white" stroke="#666666" points="67.78,-141 38.98,-141 38.98,-121.75 67.78,-121.75 67.78,-141"/>
<text text-anchor="middle" x="53.38" y="-127.5" font-family="Times,serif" font-size="10.00">T</text>
</a>
</g>
</g>
<!-- Node3&#45;&gt;Node2 -->
<g id="edge2_Node000002_Node000003" class="edge">
<title>Node3&#45;&gt;Node2</title>
<g id="a_edge2_Node000002_Node000003"><a xlink:title=" ">
<path fill="none" stroke="#9a32cd" stroke-dasharray="5,2" d="M53.38,-109.9C53.38,-98.07 53.38,-83.79 53.38,-74.77"/>
<polygon fill="#9a32cd" stroke="#9a32cd" points="49.88,-109.89 53.38,-119.89 56.88,-109.89 49.88,-109.89"/>
</a>
</g>
<text text-anchor="middle" x="71.75" y="-94.25" font-family="Times,serif" font-size="10.00" fill="grey"> elements</text>
</g>
</g>
</svg>
