<?xml version="1.0" encoding="UTF-8" standalone="no"?>
<!DOCTYPE svg PUBLIC "-//W3C//DTD SVG 1.1//EN"
 "http://www.w3.org/Graphics/SVG/1.1/DTD/svg11.dtd">
<!-- Generated by graphviz version 11.0.0 (20240428.1522)
 -->
<!-- Title: mal_packet_weaver::PacketFactory::instance Pages: 1 -->
<!--zoomable 140 -->

<svg id="main" version="1.1" xmlns="http://www.w3.org/2000/svg" xmlns:xlink="http://www.w3.org/1999/xlink" xml:space="preserve" onload="init(evt)">
<style type="text/css"><![CDATA[
.node, .edge {opacity: 0.7;}
.node.selected, .edge.selected {opacity: 1;}
.edge:hover path { stroke: red; }
.edge:hover polygon { stroke: red; fill: red; }
]]></style>

<defs>
  <circle id="rim" cx="0" cy="0" r="7"/>
  <circle id="rim2" cx="0" cy="0" r="3.5"/>
  <g id="zoomPlus">
    <use xlink:href="#rim" fill="#404040"><set attributeName="fill" to="#808080" begin="zoomplus.mouseover" end="zoomplus.mouseout"/></use>
    <path d="M-4,0h8M0,-4v8" fill="none" stroke="white" stroke-width="1.5" pointer-events="none"/>
  </g>
  <g id="zoomMin">
    <use xlink:href="#rim" fill="#404040"><set attributeName="fill" to="#808080" begin="zoomminus.mouseover" end="zoomminus.mouseout"/></use>
    <path d="M-4,0h8" fill="none" stroke="white" stroke-width="1.5" pointer-events="none"/>
  </g>
  <g id="arrowUp" transform="translate(30 24)">
    <use xlink:href="#rim"/>
    <path pointer-events="none" fill="none" stroke="white" stroke-width="1.5" d="M0,-3.0v7 M-2.5,-0.5L0,-3.0L2.5,-0.5"/>
  </g>
  <g id="arrowRight" transform="rotate(90) translate(36 -43)">
    <use xlink:href="#rim"/>
    <path pointer-events="none" fill="none" stroke="white" stroke-width="1.5" d="M0,-3.0v7 M-2.5,-0.5L0,-3.0L2.5,-0.5"/>
  </g>
  <g id="arrowDown" transform="rotate(180) translate(-30 -48)">
    <use xlink:href="#rim"/>
    <path pointer-events="none" fill="none" stroke="white" stroke-width="1.5" d="M0,-3.0v7 M-2.5,-0.5L0,-3.0L2.5,-0.5"/>
  </g>
  <g id="arrowLeft" transform="rotate(270) translate(-36 17)">
    <use xlink:href="#rim"/>
    <path pointer-events="none" fill="none" stroke="white" stroke-width="1.5" d="M0,-3.0v7 M-2.5,-0.5L0,-3.0L2.5,-0.5"/>
  </g>
  <g id="resetDef">
    <use xlink:href="#rim2" fill="#404040"><set attributeName="fill" to="#808080" begin="reset.mouseover" end="reset.mouseout"/></use>
  </g>
</defs>
<script type="application/ecmascript">
var viewWidth = 651;
var viewHeight = 140;
var sectionId = 'dynsection-3';
</script>
<script type="application/ecmascript" xlink:href="../../svg.min.js"/>
<svg id="graph" class="graph">
<g id="viewport">
<title>mal_packet_weaver::PacketFactory::instance</title>
<!-- Node1 -->
<g id="Node000001" class="node">
<title>Node1</title>
<g id="a_Node000001"><a xlink:title="Instance of the Packet Factory.">
<polygon fill="#999999" stroke="#666666" points="643,-79.5 534,-79.5 534,-49 643,-49 643,-79.5"/>
<text text-anchor="start" x="542" y="-66" font-family="Times,serif" font-size="10.00">mal_packet_weaver::</text>
<text text-anchor="middle" x="588.5" y="-54.75" font-family="Times,serif" font-size="10.00">PacketFactory::instance</text>
</a>
</g>
</g>
<!-- Node2 -->
<g id="Node000002" class="node">
<title>Node2</title>
<g id="a_Node000002"><a xlink:href="../../da/d61/classmal__packet__weaver_1_1_packet_factory.html#ad82f39abacb042a3900d3ca7e7a8fc47" target="_top" xlink:title="Deserialize a byte view into a unique pointer of the specified packet type.">
<polygon fill="white" stroke="#666666" points="479.25,-130.5 357.5,-130.5 357.5,-100 479.25,-100 479.25,-130.5"/>
<text text-anchor="start" x="365.5" y="-117" font-family="Times,serif" font-size="10.00">mal_packet_weaver::</text>
<text text-anchor="middle" x="418.38" y="-105.75" font-family="Times,serif" font-size="10.00">PacketFactory::Deserialize</text>
</a>
</g>
</g>
<!-- Node1&#45;&gt;Node2 -->
<g id="edge1_Node000001_Node000002" class="edge">
<title>Node1&#45;&gt;Node2</title>
<g id="a_edge1_Node000001_Node000002"><a xlink:title=" ">
<path fill="none" stroke="#63b8ff" d="M524.85,-83.25C507.12,-88.63 488.02,-94.43 471.02,-99.58"/>
<polygon fill="#63b8ff" stroke="#63b8ff" points="525.68,-86.66 534.24,-80.41 523.65,-79.96 525.68,-86.66"/>
</a>
</g>
</g>
<!-- Node5 -->
<g id="Node000005" class="node">
<title>Node5</title>
<g id="a_Node000005"><a xlink:href="../../da/d61/classmal__packet__weaver_1_1_packet_factory.html#a4b0c45890cddbf00a1e98ebad1a22fa9" target="_top" xlink:title="Register a packet deserializer function for a specific PacketType.">
<polygon fill="white" stroke="#666666" points="498,-79.5 338.75,-79.5 338.75,-49 498,-49 498,-79.5"/>
<text text-anchor="start" x="346.75" y="-66" font-family="Times,serif" font-size="10.00">mal_packet_weaver::</text>
<text text-anchor="middle" x="418.38" y="-54.75" font-family="Times,serif" font-size="10.00">PacketFactory::RegisterDeserializer</text>
</a>
</g>
</g>
<!-- Node1&#45;&gt;Node5 -->
<g id="edge4_Node000001_Node000005" class="edge">
<title>Node1&#45;&gt;Node5</title>
<g id="a_edge4_Node000001_Node000005"><a xlink:title=" ">
<path fill="none" stroke="#63b8ff" d="M522.44,-64.25C514.52,-64.25 506.36,-64.25 498.26,-64.25"/>
<polygon fill="#63b8ff" stroke="#63b8ff" points="522.33,-67.75 532.33,-64.25 522.33,-60.75 522.33,-67.75"/>
</a>
</g>
</g>
<!-- Node7 -->
<g id="Node000007" class="node">
<title>Node7</title>
<g id="a_Node000007"><a xlink:href="../../da/d61/classmal__packet__weaver_1_1_packet_factory.html#a24d22ae770d4049349f0e1153493dd02" target="_top" xlink:title="Register a packet deserializer function for a specific packet ID.">
<polygon fill="white" stroke="#666666" points="498,-30.5 338.75,-30.5 338.75,0 498,0 498,-30.5"/>
<text text-anchor="start" x="346.75" y="-17" font-family="Times,serif" font-size="10.00">mal_packet_weaver::</text>
<text text-anchor="middle" x="418.38" y="-5.75" font-family="Times,serif" font-size="10.00">PacketFactory::RegisterDeserializer</text>
</a>
</g>
</g>
<!-- Node1&#45;&gt;Node7 -->
<g id="edge6_Node000001_Node000007" class="edge">
<title>Node1&#45;&gt;Node7</title>
<g id="a_edge6_Node000001_Node000007"><a xlink:title=" ">
<path fill="none" stroke="#63b8ff" d="M523.22,-45.52C506.77,-40.72 489.26,-35.62 473.39,-30.99"/>
<polygon fill="#63b8ff" stroke="#63b8ff" points="521.81,-48.75 532.39,-48.19 523.77,-42.03 521.81,-48.75"/>
</a>
</g>
</g>
<!-- Node3 -->
<g id="Node000003" class="node">
<title>Node3</title>
<g id="a_Node000003"><a xlink:href="../../d8/d39/classmal__packet__weaver_1_1_session.html#a3b221a320f0fe93e2f463a52f9eab2a0" target="_top" xlink:title="Returns the earliest acquired packet. If packet queue is empty, returns nullptr.">
<polygon fill="white" stroke="#666666" points="289.62,-131.5 172.38,-131.5 172.38,-101 289.62,-101 289.62,-131.5"/>
<text text-anchor="start" x="180.38" y="-118" font-family="Times,serif" font-size="10.00">mal_packet_weaver::</text>
<text text-anchor="middle" x="231" y="-106.75" font-family="Times,serif" font-size="10.00">Session::pop_packet_now</text>
</a>
</g>
</g>
<!-- Node2&#45;&gt;Node3 -->
<g id="edge2_Node000002_Node000003" class="edge">
<title>Node2&#45;&gt;Node3</title>
<g id="a_edge2_Node000002_Node000003"><a xlink:title=" ">
<path fill="none" stroke="#63b8ff" d="M345.86,-115.64C327.37,-115.74 307.69,-115.84 289.99,-115.94"/>
<polygon fill="#63b8ff" stroke="#63b8ff" points="345.69,-119.14 355.68,-115.58 345.66,-112.14 345.69,-119.14"/>
</a>
</g>
</g>
<!-- Node4 -->
<g id="Node000004" class="node">
<title>Node4</title>
<g id="a_Node000004"><a xlink:href="../../d8/d39/classmal__packet__weaver_1_1_session.html#a961d49d84fb1426fc605c529df1296d1" target="_top" xlink:title=" ">
<polygon fill="white" stroke="#666666" points="123.25,-131.5 0,-131.5 0,-101 123.25,-101 123.25,-131.5"/>
<text text-anchor="start" x="8" y="-118" font-family="Times,serif" font-size="10.00">mal_packet_weaver::</text>
<text text-anchor="middle" x="61.62" y="-106.75" font-family="Times,serif" font-size="10.00">Session::pop_packet_async</text>
</a>
</g>
</g>
<!-- Node3&#45;&gt;Node4 -->
<g id="edge3_Node000003_Node000004" class="edge">
<title>Node3&#45;&gt;Node4</title>
<g id="a_edge3_Node000003_Node000004"><a xlink:title=" ">
<path fill="none" stroke="#63b8ff" d="M160.79,-116.25C148.5,-116.25 135.77,-116.25 123.72,-116.25"/>
<polygon fill="#63b8ff" stroke="#63b8ff" points="160.42,-119.75 170.42,-116.25 160.42,-112.75 160.42,-119.75"/>
</a>
</g>
</g>
<!-- Node6 -->
<g id="Node000006" class="node">
<title>Node6</title>
<g id="a_Node000006"><a xlink:href="../../db/d62/structmal__packet__weaver_1_1_packet_type_registration_helper.html#a311e049a67761a64b4c4754cfbdbf4d3" target="_top" xlink:title="Constructor. Registers the packet type with the PacketFactory.">
<polygon fill="white" stroke="#666666" points="302.75,-83.12 159.25,-83.12 159.25,-41.38 302.75,-41.38 302.75,-83.12"/>
<text text-anchor="start" x="167.25" y="-69.62" font-family="Times,serif" font-size="10.00">mal_packet_weaver::</text>
<text text-anchor="start" x="167.25" y="-58.38" font-family="Times,serif" font-size="10.00">PacketTypeRegistrationHelper</text>
<text text-anchor="middle" x="231" y="-47.12" font-family="Times,serif" font-size="10.00">::PacketTypeRegistrationHelper</text>
</a>
</g>
</g>
<!-- Node5&#45;&gt;Node6 -->
<g id="edge5_Node000005_Node000006" class="edge">
<title>Node5&#45;&gt;Node6</title>
<g id="a_edge5_Node000005_Node000006"><a xlink:title=" ">
<path fill="none" stroke="#63b8ff" d="M327.15,-63.28C319.11,-63.19 311.03,-63.1 303.18,-63.02"/>
<polygon fill="#63b8ff" stroke="#63b8ff" points="326.94,-66.77 336.98,-63.38 327.02,-59.77 326.94,-66.77"/>
</a>
</g>
</g>
</g>
</svg>

<g id="navigator" transform="translate(0 0)" fill="#404254">
  <rect fill="#f2f5e9" fill-opacity="0.5" stroke="#606060" stroke-width=".5" x="0" y="0" width="60" height="60"/>
  <use id="zoomplus" xlink:href="#zoomPlus" x="17" y="9" onmousedown="handleZoom(evt,'in')"/>
  <use id="zoomminus" xlink:href="#zoomMin" x="42" y="9" onmousedown="handleZoom(evt,'out')"/>
  <use id="reset" xlink:href="#resetDef" x="30" y="36" onmousedown="handleReset()"/>
   <use id="arrowup" xlink:href="#arrowUp" x="0" y="0" onmousedown="handlePan(0,-1)"/>
  <use id="arrowright" xlink:href="#arrowRight" x="0" y="0" onmousedown="handlePan(1,0)"/>
  <use id="arrowdown" xlink:href="#arrowDown" x="0" y="0" onmousedown="handlePan(0,1)"/>
  <use id="arrowleft" xlink:href="#arrowLeft" x="0" y="0" onmousedown="handlePan(-1,0)"/>
</g>
<svg viewBox="0 0 15 15" width="100%" height="30px" preserveAspectRatio="xMaxYMin meet">
 <g id="arrow_out" transform="scale(0.3 0.3)">
  <a xlink:href="classmal__packet__weaver_1_1_packet_factory_a8fdf5f5e58a23f9e31aa35b2737e355b_icgraph_org.svg" target="_base">
   <rect id="button" ry="5" rx="5" y="6" x="6" height="38" width="38"
        fill="#f2f5e9" fill-opacity="0.5" stroke="#606060" stroke-width="1.0"/>
   <path id="arrow"
     d="M 11.500037,31.436501 C 11.940474,20.09759 22.043105,11.32322 32.158766,21.979434 L 37.068811,17.246167 C 37.068811,17.246167 37.088388,32 37.088388,32 L 22.160133,31.978069 C 22.160133,31.978069 26.997745,27.140456 26.997745,27.140456 C 18.528582,18.264221 13.291696,25.230495 11.500037,31.436501 z"
     style="fill:#404040;"/>
  </a>
 </g>
</svg>

<style type='text/css'>
<![CDATA[
[data-mouse-over-selected='false'] { opacity: 0.7; }
[data-mouse-over-selected='true']  { opacity: 1.0; }
]]>
</style>
<script type="application/ecmascript"><![CDATA[
document.addEventListener('DOMContentLoaded', (event) => {
  highlightEdges();
  highlightAdjacentNodes();
});
]]></script>
</svg>
