<?xml version="1.0" encoding="UTF-8" standalone="no"?>
<!DOCTYPE svg PUBLIC "-//W3C//DTD SVG 1.1//EN"
 "http://www.w3.org/Graphics/SVG/1.1/DTD/svg11.dtd">
<!-- Generated by graphviz version 9.0.0 (20230911.1827)
 -->
<!-- Title: mal_packet_weaver::PacketFactory::instance Pages: 1 -->
<svg width="625pt" height="137pt"
 viewBox="0.00 0.00 624.75 136.50" xmlns="http://www.w3.org/2000/svg" xmlns:xlink="http://www.w3.org/1999/xlink">
<g id="graph0" class="graph" transform="scale(1 1) rotate(0) translate(4 132.5)">
<title>mal_packet_weaver::PacketFactory::instance</title>
<!-- Node1 -->
<g id="Node000001" class="node">
<title>Node1</title>
<g id="a_Node000001"><a xlink:title="Instance of the Packet Factory.">
<polygon fill="#999999" stroke="#666666" points="616.75,-79.5 507.75,-79.5 507.75,-49 616.75,-49 616.75,-79.5"/>
<text text-anchor="start" x="515.75" y="-66" font-family="Times,serif" font-size="10.00">mal_packet_weaver::</text>
<text text-anchor="middle" x="562.25" y="-54.75" font-family="Times,serif" font-size="10.00">PacketFactory::instance</text>
</a>
</g>
</g>
<!-- Node2 -->
<g id="Node000002" class="node">
<title>Node2</title>
<g id="a_Node000002"><a xlink:href="../../da/d61/classmal__packet__weaver_1_1_packet_factory.html#ad82f39abacb042a3900d3ca7e7a8fc47" target="_top" xlink:title="Deserialize a byte view into a unique pointer of the specified packet type.">
<polygon fill="white" stroke="#666666" points="453,-128.5 331.25,-128.5 331.25,-98 453,-98 453,-128.5"/>
<text text-anchor="start" x="339.25" y="-115" font-family="Times,serif" font-size="10.00">mal_packet_weaver::</text>
<text text-anchor="middle" x="392.12" y="-103.75" font-family="Times,serif" font-size="10.00">PacketFactory::Deserialize</text>
</a>
</g>
</g>
<!-- Node1&#45;&gt;Node2 -->
<g id="edge1_Node000001_Node000002" class="edge">
<title>Node1&#45;&gt;Node2</title>
<g id="a_edge1_Node000001_Node000002"><a xlink:title=" ">
<path fill="none" stroke="#63b8ff" d="M496.97,-82.98C480.52,-87.78 463.01,-92.88 447.14,-97.51"/>
<polygon fill="#63b8ff" stroke="#63b8ff" points="497.52,-86.47 506.14,-80.31 495.56,-79.75 497.52,-86.47"/>
</a>
</g>
</g>
<!-- Node5 -->
<g id="Node000005" class="node">
<title>Node5</title>
<g id="a_Node000005"><a xlink:href="../../da/d61/classmal__packet__weaver_1_1_packet_factory.html#a4b0c45890cddbf00a1e98ebad1a22fa9" target="_top" xlink:title="Register a packet deserializer function for a specific PacketType.">
<polygon fill="white" stroke="#666666" points="471.75,-79.5 312.5,-79.5 312.5,-49 471.75,-49 471.75,-79.5"/>
<text text-anchor="start" x="320.5" y="-66" font-family="Times,serif" font-size="10.00">mal_packet_weaver::</text>
<text text-anchor="middle" x="392.12" y="-54.75" font-family="Times,serif" font-size="10.00">PacketFactory::RegisterDeserializer</text>
</a>
</g>
</g>
<!-- Node1&#45;&gt;Node5 -->
<g id="edge4_Node000001_Node000005" class="edge">
<title>Node1&#45;&gt;Node5</title>
<g id="a_edge4_Node000001_Node000005"><a xlink:title=" ">
<path fill="none" stroke="#63b8ff" d="M496.19,-64.25C488.27,-64.25 480.11,-64.25 472.01,-64.25"/>
<polygon fill="#63b8ff" stroke="#63b8ff" points="496.08,-67.75 506.08,-64.25 496.08,-60.75 496.08,-67.75"/>
</a>
</g>
</g>
<!-- Node6 -->
<g id="Node000006" class="node">
<title>Node6</title>
<g id="a_Node000006"><a xlink:href="../../da/d61/classmal__packet__weaver_1_1_packet_factory.html#a24d22ae770d4049349f0e1153493dd02" target="_top" xlink:title="Register a packet deserializer function for a specific packet ID.">
<polygon fill="white" stroke="#666666" points="471.75,-30.5 312.5,-30.5 312.5,0 471.75,0 471.75,-30.5"/>
<text text-anchor="start" x="320.5" y="-17" font-family="Times,serif" font-size="10.00">mal_packet_weaver::</text>
<text text-anchor="middle" x="392.12" y="-5.75" font-family="Times,serif" font-size="10.00">PacketFactory::RegisterDeserializer</text>
</a>
</g>
</g>
<!-- Node1&#45;&gt;Node6 -->
<g id="edge5_Node000001_Node000006" class="edge">
<title>Node1&#45;&gt;Node6</title>
<g id="a_edge5_Node000001_Node000006"><a xlink:title=" ">
<path fill="none" stroke="#63b8ff" d="M496.97,-45.52C480.52,-40.72 463.01,-35.62 447.14,-30.99"/>
<polygon fill="#63b8ff" stroke="#63b8ff" points="495.56,-48.75 506.14,-48.19 497.52,-42.03 495.56,-48.75"/>
</a>
</g>
</g>
<!-- Node3 -->
<g id="Node000003" class="node">
<title>Node3</title>
<g id="a_Node000003"><a xlink:href="../../d8/d39/classmal__packet__weaver_1_1_session.html#a3b221a320f0fe93e2f463a52f9eab2a0" target="_top" xlink:title="Returns the earliest acquired packet. If packet queue is empty, returns nullptr.">
<polygon fill="white" stroke="#666666" points="276.5,-128.5 159.25,-128.5 159.25,-98 276.5,-98 276.5,-128.5"/>
<text text-anchor="start" x="167.25" y="-115" font-family="Times,serif" font-size="10.00">mal_packet_weaver::</text>
<text text-anchor="middle" x="217.88" y="-103.75" font-family="Times,serif" font-size="10.00">Session::pop_packet_now</text>
</a>
</g>
</g>
<!-- Node2&#45;&gt;Node3 -->
<g id="edge2_Node000002_Node000003" class="edge">
<title>Node2&#45;&gt;Node3</title>
<g id="a_edge2_Node000002_Node000003"><a xlink:title=" ">
<path fill="none" stroke="#63b8ff" d="M319.59,-113.25C305.32,-113.25 290.51,-113.25 276.77,-113.25"/>
<polygon fill="#63b8ff" stroke="#63b8ff" points="319.37,-116.75 329.37,-113.25 319.37,-109.75 319.37,-116.75"/>
</a>
</g>
</g>
<!-- Node4 -->
<g id="Node000004" class="node">
<title>Node4</title>
<g id="a_Node000004"><a xlink:href="../../d8/d39/classmal__packet__weaver_1_1_session.html#a961d49d84fb1426fc605c529df1296d1" target="_top" xlink:title=" ">
<polygon fill="white" stroke="#666666" points="123.25,-128.5 0,-128.5 0,-98 123.25,-98 123.25,-128.5"/>
<text text-anchor="start" x="8" y="-115" font-family="Times,serif" font-size="10.00">mal_packet_weaver::</text>
<text text-anchor="middle" x="61.62" y="-103.75" font-family="Times,serif" font-size="10.00">Session::pop_packet_async</text>
</a>
</g>
</g>
<!-- Node3&#45;&gt;Node4 -->
<g id="edge3_Node000003_Node000004" class="edge">
<title>Node3&#45;&gt;Node4</title>
<g id="a_edge3_Node000003_Node000004"><a xlink:title=" ">
<path fill="none" stroke="#63b8ff" d="M147.76,-113.25C139.72,-113.25 131.57,-113.25 123.66,-113.25"/>
<polygon fill="#63b8ff" stroke="#63b8ff" points="147.49,-116.75 157.49,-113.25 147.49,-109.75 147.49,-116.75"/>
</a>
</g>
</g>
</g>
</svg>
