<?xml version="1.0" encoding="UTF-8" standalone="no"?>
<!DOCTYPE svg PUBLIC "-//W3C//DTD SVG 1.1//EN"
 "http://www.w3.org/Graphics/SVG/1.1/DTD/svg11.dtd">
<!-- Generated by graphviz version 8.1.0 (20230707.0739)
 -->
<!-- Title: mal_packet_weaver::crypto::ECDSA::Signer::sign_hash Pages: 1 -->
<svg width="436pt" height="98pt"
 viewBox="0.00 0.00 435.50 98.12" xmlns="http://www.w3.org/2000/svg" xmlns:xlink="http://www.w3.org/1999/xlink">
<g id="graph0" class="graph" transform="scale(1 1) rotate(0) translate(4 94.12)">
<title>mal_packet_weaver::crypto::ECDSA::Signer::sign_hash</title>
<!-- Node1 -->
<g id="Node000001" class="node">
<title>Node1</title>
<g id="a_Node000001"><a xlink:title="Signs a hash using the private key.">
<polygon fill="#999999" stroke="#666666" points="427.5,-63.12 318.5,-63.12 318.5,-21.38 427.5,-21.38 427.5,-63.12"/>
<text text-anchor="start" x="326.5" y="-49.62" font-family="Times,serif" font-size="10.00">mal_packet_weaver::</text>
<text text-anchor="start" x="326.5" y="-38.38" font-family="Times,serif" font-size="10.00">crypto::ECDSA::Signer</text>
<text text-anchor="middle" x="373" y="-27.12" font-family="Times,serif" font-size="10.00">::sign_hash</text>
</a>
</g>
</g>
<!-- Node2 -->
<g id="Node000002" class="node">
<title>Node2</title>
<g id="a_Node000002"><a xlink:href="../../d8/d88/classmal__packet__weaver_1_1crypto_1_1_e_c_d_s_a_1_1_signer.html#a80725b1d55e0efaa11469e3182f0b1c2" target="_top" xlink:title="Signs binary data using the private key.">
<polygon fill="white" stroke="#666666" points="275,-90.12 166,-90.12 166,-48.38 275,-48.38 275,-90.12"/>
<text text-anchor="start" x="174" y="-76.62" font-family="Times,serif" font-size="10.00">mal_packet_weaver::</text>
<text text-anchor="start" x="174" y="-65.38" font-family="Times,serif" font-size="10.00">crypto::ECDSA::Signer</text>
<text text-anchor="middle" x="220.5" y="-54.12" font-family="Times,serif" font-size="10.00">::sign_data</text>
</a>
</g>
</g>
<!-- Node1&#45;&gt;Node2 -->
<g id="edge1_Node000001_Node000002" class="edge">
<title>Node1&#45;&gt;Node2</title>
<g id="a_edge1_Node000001_Node000002"><a xlink:title=" ">
<path fill="none" stroke="#63b8ff" d="M307.49,-53.82C296.75,-55.75 285.72,-57.73 275.29,-59.6"/>
<polygon fill="#63b8ff" stroke="#63b8ff" points="307.87,-57.13 317.09,-51.92 306.63,-50.24 307.87,-57.13"/>
</a>
</g>
</g>
<!-- Node4 -->
<g id="Node000004" class="node">
<title>Node4</title>
<g id="a_Node000004"><a xlink:href="../../d2/d8f/namespacemal__packet__weaver_1_1crypto_1_1_e_c_d_s_a.html#a17381fd8742dd748295e76f09b980cf0" target="_top" xlink:title=" ">
<polygon fill="white" stroke="#666666" points="282.5,-30.5 158.5,-30.5 158.5,0 282.5,0 282.5,-30.5"/>
<text text-anchor="start" x="166.5" y="-17" font-family="Times,serif" font-size="10.00">mal_packet_weaver::</text>
<text text-anchor="middle" x="220.5" y="-5.75" font-family="Times,serif" font-size="10.00">crypto::ECDSA::sign_hash</text>
</a>
</g>
</g>
<!-- Node1&#45;&gt;Node4 -->
<g id="edge3_Node000001_Node000004" class="edge">
<title>Node1&#45;&gt;Node4</title>
<g id="a_edge3_Node000001_Node000004"><a xlink:title=" ">
<path fill="none" stroke="#63b8ff" d="M307.52,-30.68C299.38,-29.22 291.06,-27.73 282.97,-26.28"/>
<polygon fill="#63b8ff" stroke="#63b8ff" points="306.63,-34.26 317.09,-32.58 307.87,-27.37 306.63,-34.26"/>
</a>
</g>
</g>
<!-- Node3 -->
<g id="Node000003" class="node">
<title>Node3</title>
<g id="a_Node000003"><a xlink:href="../../d2/d8f/namespacemal__packet__weaver_1_1crypto_1_1_e_c_d_s_a.html#ac3a3b5adbeac074fe5e7a57d22d44d7c" target="_top" xlink:title=" ">
<polygon fill="white" stroke="#666666" points="122.5,-84.5 0,-84.5 0,-54 122.5,-54 122.5,-84.5"/>
<text text-anchor="start" x="8" y="-71" font-family="Times,serif" font-size="10.00">mal_packet_weaver::</text>
<text text-anchor="middle" x="61.25" y="-59.75" font-family="Times,serif" font-size="10.00">crypto::ECDSA::sign_data</text>
</a>
</g>
</g>
<!-- Node2&#45;&gt;Node3 -->
<g id="edge2_Node000002_Node000003" class="edge">
<title>Node2&#45;&gt;Node3</title>
<g id="a_edge2_Node000002_Node000003"><a xlink:title=" ">
<path fill="none" stroke="#63b8ff" d="M154.96,-69.25C144.39,-69.25 133.46,-69.25 122.98,-69.25"/>
<polygon fill="#63b8ff" stroke="#63b8ff" points="154.82,-72.75 164.82,-69.25 154.82,-65.75 154.82,-72.75"/>
</a>
</g>
</g>
</g>
</svg>
