<?xml version="1.0" encoding="UTF-8" standalone="no"?>
<!DOCTYPE svg PUBLIC "-//W3C//DTD SVG 1.1//EN"
 "http://www.w3.org/Graphics/SVG/1.1/DTD/svg11.dtd">
<!-- Generated by graphviz version 8.1.0 (20230707.0739)
 -->
<!-- Title: mal_packet_weaver::packet::PacketFactory::Deserialize Pages: 1 -->
<svg width="424pt" height="50pt"
 viewBox="0.00 0.00 423.50 49.75" xmlns="http://www.w3.org/2000/svg" xmlns:xlink="http://www.w3.org/1999/xlink">
<g id="graph0" class="graph" transform="scale(1 1) rotate(0) translate(4 45.75)">
<title>mal_packet_weaver::packet::PacketFactory::Deserialize</title>
<!-- Node1 -->
<g id="Node000001" class="node">
<title>Node1</title>
<g id="a_Node000001"><a xlink:title="Deserialize a byte view into a unique pointer of the specified packet type.">
<polygon fill="#999999" stroke="#666666" points="415.5,-41.75 312.5,-41.75 312.5,0 415.5,0 415.5,-41.75"/>
<text text-anchor="start" x="320.5" y="-28.25" font-family="Times,serif" font-size="10.00">mal_packet_weaver::</text>
<text text-anchor="start" x="320.5" y="-17" font-family="Times,serif" font-size="10.00">packet::PacketFactory</text>
<text text-anchor="middle" x="364" y="-5.75" font-family="Times,serif" font-size="10.00">::Deserialize</text>
</a>
</g>
</g>
<!-- Node2 -->
<g id="Node000002" class="node">
<title>Node2</title>
<g id="a_Node000002"><a xlink:href="../../d8/d39/classmal__packet__weaver_1_1_session.html#a3b221a320f0fe93e2f463a52f9eab2a0" target="_top" xlink:title="Returns the earliest acquired packet. If packet queue is empty, returns nullptr.">
<polygon fill="white" stroke="#666666" points="276.5,-36.12 159.25,-36.12 159.25,-5.62 276.5,-5.62 276.5,-36.12"/>
<text text-anchor="start" x="167.25" y="-22.62" font-family="Times,serif" font-size="10.00">mal_packet_weaver::</text>
<text text-anchor="middle" x="217.88" y="-11.38" font-family="Times,serif" font-size="10.00">Session::pop_packet_now</text>
</a>
</g>
</g>
<!-- Node1&#45;&gt;Node2 -->
<g id="edge1_Node000001_Node000002" class="edge">
<title>Node1&#45;&gt;Node2</title>
<g id="a_edge1_Node000001_Node000002"><a xlink:title=" ">
<path fill="none" stroke="#63b8ff" d="M301.21,-20.88C293.04,-20.88 284.7,-20.88 276.61,-20.88"/>
<polygon fill="#63b8ff" stroke="#63b8ff" points="301.19,-24.38 311.19,-20.88 301.19,-17.38 301.19,-24.38"/>
</a>
</g>
</g>
<!-- Node3 -->
<g id="Node000003" class="node">
<title>Node3</title>
<g id="a_Node000003"><a xlink:href="../../d8/d39/classmal__packet__weaver_1_1_session.html#a961d49d84fb1426fc605c529df1296d1" target="_top" xlink:title=" ">
<polygon fill="white" stroke="#666666" points="123.25,-36.12 0,-36.12 0,-5.62 123.25,-5.62 123.25,-36.12"/>
<text text-anchor="start" x="8" y="-22.62" font-family="Times,serif" font-size="10.00">mal_packet_weaver::</text>
<text text-anchor="middle" x="61.62" y="-11.38" font-family="Times,serif" font-size="10.00">Session::pop_packet_async</text>
</a>
</g>
</g>
<!-- Node2&#45;&gt;Node3 -->
<g id="edge2_Node000002_Node000003" class="edge">
<title>Node2&#45;&gt;Node3</title>
<g id="a_edge2_Node000002_Node000003"><a xlink:title=" ">
<path fill="none" stroke="#63b8ff" d="M148.03,-20.88C139.91,-20.88 131.67,-20.88 123.66,-20.88"/>
<polygon fill="#63b8ff" stroke="#63b8ff" points="148,-24.38 158,-20.88 148,-17.38 148,-24.38"/>
</a>
</g>
</g>
</g>
</svg>
