<?xml version="1.0" encoding="UTF-8" standalone="no"?>
<!DOCTYPE svg PUBLIC "-//W3C//DTD SVG 1.1//EN"
 "http://www.w3.org/Graphics/SVG/1.1/DTD/svg11.dtd">
<!-- Generated by graphviz version 8.1.0 (20230707.0739)
 -->
<!-- Title: mal&#45;packet&#45;weaver/mal&#45;packet&#45;weaver/packet&#45;impl/portable&#45;binary&#45;oarchive.cpp Pages: 1 -->
<svg width="817pt" height="272pt"
 viewBox="0.00 0.00 816.70 271.75" xmlns="http://www.w3.org/2000/svg" xmlns:xlink="http://www.w3.org/1999/xlink">
<g id="graph0" class="graph" transform="scale(1 1) rotate(0) translate(4 267.75)">
<title>mal&#45;packet&#45;weaver/mal&#45;packet&#45;weaver/packet&#45;impl/portable&#45;binary&#45;oarchive.cpp</title>
<!-- Node1 -->
<g id="Node000001" class="node">
<title>Node1</title>
<g id="a_Node000001"><a xlink:title=" ">
<polygon fill="#999999" stroke="#666666" points="316.7,-263.75 209.2,-263.75 209.2,-210.75 316.7,-210.75 316.7,-263.75"/>
<text text-anchor="start" x="217.2" y="-250.25" font-family="Times,serif" font-size="10.00">mal&#45;packet&#45;weaver/mal</text>
<text text-anchor="start" x="217.2" y="-239" font-family="Times,serif" font-size="10.00">&#45;packet&#45;weaver/packet</text>
<text text-anchor="start" x="217.2" y="-227.75" font-family="Times,serif" font-size="10.00">&#45;impl/portable&#45;binary</text>
<text text-anchor="middle" x="262.95" y="-216.5" font-family="Times,serif" font-size="10.00">&#45;oarchive.cpp</text>
</a>
</g>
</g>
<!-- Node2 -->
<g id="Node000002" class="node">
<title>Node2</title>
<g id="a_Node000002"><a xlink:title=" ">
<polygon fill="#e0e0e0" stroke="#999999" points="61.7,-91.38 14.2,-91.38 14.2,-72.12 61.7,-72.12 61.7,-91.38"/>
<text text-anchor="middle" x="37.95" y="-77.88" font-family="Times,serif" font-size="10.00">ostream</text>
</a>
</g>
</g>
<!-- Node1&#45;&gt;Node2 -->
<g id="edge1_Node000001_Node000002" class="edge">
<title>Node1&#45;&gt;Node2</title>
<g id="a_edge1_Node000001_Node000002"><a xlink:title=" ">
<path fill="none" stroke="#63b8ff" d="M225.04,-210.38C177.7,-178.09 98.3,-123.92 59.97,-97.77"/>
<polygon fill="#63b8ff" stroke="#63b8ff" points="62.39,-94.5 52.16,-91.76 58.45,-100.28 62.39,-94.5"/>
</a>
</g>
</g>
<!-- Node3 -->
<g id="Node000003" class="node">
<title>Node3</title>
<g id="a_Node000003"><a xlink:title=" ">
<polygon fill="#e0e0e0" stroke="#999999" points="139.2,-30.5 46.7,-30.5 46.7,0 139.2,0 139.2,-30.5"/>
<text text-anchor="start" x="54.7" y="-17" font-family="Times,serif" font-size="10.00">boost/predef/other</text>
<text text-anchor="middle" x="92.95" y="-5.75" font-family="Times,serif" font-size="10.00">/endian.h</text>
</a>
</g>
</g>
<!-- Node1&#45;&gt;Node3 -->
<g id="edge2_Node000001_Node000003" class="edge">
<title>Node1&#45;&gt;Node3</title>
<g id="a_edge2_Node000001_Node000003"><a xlink:title=" ">
<path fill="none" stroke="#63b8ff" d="M208.86,-225.78C145.64,-210.2 44.63,-174.04 4.95,-97 -1.25,-84.95 -1.85,-78.22 4.95,-66.5 12.56,-53.4 25,-43.43 38.17,-35.96"/>
<polygon fill="#63b8ff" stroke="#63b8ff" points="39.56,-38.67 46.83,-30.96 36.34,-32.45 39.56,-38.67"/>
</a>
</g>
</g>
<!-- Node4 -->
<g id="Node000004" class="node">
<title>Node4</title>
<g id="a_Node000004"><a xlink:href="../../d7/dda/portable-binary-oarchive_8hpp.html" target="_top" xlink:title=" ">
<polygon fill="white" stroke="#666666" points="329.08,-163.5 196.83,-163.5 196.83,-144.25 329.08,-144.25 329.08,-163.5"/>
<text text-anchor="middle" x="262.95" y="-150" font-family="Times,serif" font-size="10.00">portable&#45;binary&#45;oarchive.hpp</text>
</a>
</g>
</g>
<!-- Node1&#45;&gt;Node4 -->
<g id="edge3_Node000001_Node000004" class="edge">
<title>Node1&#45;&gt;Node4</title>
<g id="a_edge3_Node000001_Node000004"><a xlink:title=" ">
<path fill="none" stroke="#63b8ff" d="M262.95,-210.5C262.95,-198.86 262.95,-185.33 262.95,-174.53"/>
<polygon fill="#63b8ff" stroke="#63b8ff" points="266.45,-174.74 262.95,-164.74 259.45,-174.74 266.45,-174.74"/>
</a>
</g>
</g>
<!-- Node16 -->
<g id="Node000016" class="node">
<title>Node16</title>
<g id="a_Node000016"><a xlink:title=" ">
<polygon fill="#e0e0e0" stroke="#999999" points="438.45,-174.75 347.45,-174.75 347.45,-133 438.45,-133 438.45,-174.75"/>
<text text-anchor="start" x="355.45" y="-161.25" font-family="Times,serif" font-size="10.00">boost/archive/impl</text>
<text text-anchor="start" x="355.45" y="-150" font-family="Times,serif" font-size="10.00">/archive_serializer</text>
<text text-anchor="middle" x="392.95" y="-138.75" font-family="Times,serif" font-size="10.00">_map.ipp</text>
</a>
</g>
</g>
<!-- Node1&#45;&gt;Node16 -->
<g id="edge17_Node000001_Node000016" class="edge">
<title>Node1&#45;&gt;Node16</title>
<g id="a_edge17_Node000001_Node000016"><a xlink:title=" ">
<path fill="none" stroke="#63b8ff" d="M304.44,-210.28C319.46,-200.88 336.41,-190.27 351.43,-180.87"/>
<polygon fill="#63b8ff" stroke="#63b8ff" points="352.87,-183.47 359.49,-175.19 349.16,-177.53 352.87,-183.47"/>
</a>
</g>
</g>
<!-- Node17 -->
<g id="Node000017" class="node">
<title>Node17</title>
<g id="a_Node000017"><a xlink:title=" ">
<polygon fill="#e0e0e0" stroke="#999999" points="587.7,-169.12 456.2,-169.12 456.2,-138.62 587.7,-138.62 587.7,-169.12"/>
<text text-anchor="start" x="464.2" y="-155.62" font-family="Times,serif" font-size="10.00">boost/archive/impl</text>
<text text-anchor="middle" x="521.95" y="-144.38" font-family="Times,serif" font-size="10.00">/basic_binary_oprimitive.ipp</text>
</a>
</g>
</g>
<!-- Node1&#45;&gt;Node17 -->
<g id="edge18_Node000001_Node000017" class="edge">
<title>Node1&#45;&gt;Node17</title>
<g id="a_edge18_Node000001_Node000017"><a xlink:title=" ">
<path fill="none" stroke="#63b8ff" d="M316.93,-219.29C360.31,-205.66 421.05,-186.58 465.15,-172.72"/>
<polygon fill="#63b8ff" stroke="#63b8ff" points="465.93,-175.83 474.42,-169.5 463.83,-169.15 465.93,-175.83"/>
</a>
</g>
</g>
<!-- Node4&#45;&gt;Node2 -->
<g id="edge4_Node000004_Node000002" class="edge">
<title>Node4&#45;&gt;Node2</title>
<g id="a_edge4_Node000004_Node000002"><a xlink:title=" ">
<path fill="none" stroke="#63b8ff" d="M226.79,-143.79C187.87,-133.68 124.36,-116.22 70.95,-97 69.87,-96.61 68.77,-96.2 67.66,-95.78"/>
<polygon fill="#63b8ff" stroke="#63b8ff" points="69.27,-92.25 58.69,-91.75 66.65,-98.74 69.27,-92.25"/>
</a>
</g>
</g>
<!-- Node5 -->
<g id="Node000005" class="node">
<title>Node5</title>
<g id="a_Node000005"><a xlink:title=" ">
<polygon fill="#e0e0e0" stroke="#999999" points="688.7,-97 599.2,-97 599.2,-66.5 688.7,-66.5 688.7,-97"/>
<text text-anchor="start" x="607.2" y="-83.5" font-family="Times,serif" font-size="10.00">boost/serialization</text>
<text text-anchor="middle" x="643.95" y="-72.25" font-family="Times,serif" font-size="10.00">/string.hpp</text>
</a>
</g>
</g>
<!-- Node4&#45;&gt;Node5 -->
<g id="edge5_Node000004_Node000005" class="edge">
<title>Node4&#45;&gt;Node5</title>
<g id="a_edge5_Node000004_Node000005"><a xlink:title=" ">
<path fill="none" stroke="#63b8ff" d="M293.78,-143.83C307.25,-140.1 323.3,-135.97 337.95,-133 445.89,-111.1 477.77,-119.25 588.35,-97.39"/>
<polygon fill="#63b8ff" stroke="#63b8ff" points="588.83,-100.66 597.94,-95.25 587.44,-93.8 588.83,-100.66"/>
</a>
</g>
</g>
<!-- Node6 -->
<g id="Node000006" class="node">
<title>Node6</title>
<g id="a_Node000006"><a xlink:title=" ">
<polygon fill="#e0e0e0" stroke="#999999" points="808.7,-97 707.2,-97 707.2,-66.5 808.7,-66.5 808.7,-97"/>
<text text-anchor="start" x="715.2" y="-83.5" font-family="Times,serif" font-size="10.00">boost/archive/archive</text>
<text text-anchor="middle" x="757.95" y="-72.25" font-family="Times,serif" font-size="10.00">_exception.hpp</text>
</a>
</g>
</g>
<!-- Node4&#45;&gt;Node6 -->
<g id="edge6_Node000004_Node000006" class="edge">
<title>Node4&#45;&gt;Node6</title>
<g id="a_edge6_Node000004_Node000006"><a xlink:title=" ">
<path fill="none" stroke="#63b8ff" d="M292.64,-143.84C306.32,-139.98 322.84,-135.74 337.95,-133 492.77,-104.93 537.47,-122.83 696.35,-97.1"/>
<polygon fill="#63b8ff" stroke="#63b8ff" points="696.69,-100.43 705.99,-95.34 695.55,-93.52 696.69,-100.43"/>
</a>
</g>
</g>
<!-- Node7 -->
<g id="Node000007" class="node">
<title>Node7</title>
<g id="a_Node000007"><a xlink:title=" ">
<polygon fill="#e0e0e0" stroke="#999999" points="190.2,-97 79.7,-97 79.7,-66.5 190.2,-66.5 190.2,-97"/>
<text text-anchor="start" x="87.7" y="-83.5" font-family="Times,serif" font-size="10.00">boost/archive/basic</text>
<text text-anchor="middle" x="134.95" y="-72.25" font-family="Times,serif" font-size="10.00">_binary_oprimitive.hpp</text>
</a>
</g>
</g>
<!-- Node4&#45;&gt;Node7 -->
<g id="edge7_Node000004_Node000007" class="edge">
<title>Node4&#45;&gt;Node7</title>
<g id="a_edge7_Node000004_Node000007"><a xlink:title=" ">
<path fill="none" stroke="#63b8ff" d="M246.48,-143.85C227.53,-133.47 195.83,-116.1 171.06,-102.53"/>
<polygon fill="#63b8ff" stroke="#63b8ff" points="173.06,-99.09 162.61,-97.35 169.7,-105.23 173.06,-99.09"/>
</a>
</g>
</g>
<!-- Node8 -->
<g id="Node000008" class="node">
<title>Node8</title>
<g id="a_Node000008"><a xlink:title=" ">
<polygon fill="#e0e0e0" stroke="#999999" points="317.83,-97 208.08,-97 208.08,-66.5 317.83,-66.5 317.83,-97"/>
<text text-anchor="start" x="216.08" y="-83.5" font-family="Times,serif" font-size="10.00">boost/archive/detail</text>
<text text-anchor="middle" x="262.95" y="-72.25" font-family="Times,serif" font-size="10.00">/common_oarchive.hpp</text>
</a>
</g>
</g>
<!-- Node4&#45;&gt;Node8 -->
<g id="edge8_Node000004_Node000008" class="edge">
<title>Node4&#45;&gt;Node8</title>
<g id="a_edge8_Node000004_Node000008"><a xlink:title=" ">
<path fill="none" stroke="#63b8ff" d="M262.95,-143.99C262.95,-135.02 262.95,-120.73 262.95,-108.21"/>
<polygon fill="#63b8ff" stroke="#63b8ff" points="266.45,-108.42 262.95,-98.42 259.45,-108.42 266.45,-108.42"/>
</a>
</g>
</g>
<!-- Node9 -->
<g id="Node000009" class="node">
<title>Node9</title>
<g id="a_Node000009"><a xlink:title=" ">
<polygon fill="#e0e0e0" stroke="#999999" points="436.33,-97 335.58,-97 335.58,-66.5 436.33,-66.5 436.33,-97"/>
<text text-anchor="start" x="343.58" y="-83.5" font-family="Times,serif" font-size="10.00">boost/archive/detail</text>
<text text-anchor="middle" x="385.95" y="-72.25" font-family="Times,serif" font-size="10.00">/register_archive.hpp</text>
</a>
</g>
</g>
<!-- Node4&#45;&gt;Node9 -->
<g id="edge9_Node000004_Node000009" class="edge">
<title>Node4&#45;&gt;Node9</title>
<g id="a_edge9_Node000004_Node000009"><a xlink:title=" ">
<path fill="none" stroke="#63b8ff" d="M278.78,-143.85C296.92,-133.51 327.19,-116.25 350.94,-102.71"/>
<polygon fill="#63b8ff" stroke="#63b8ff" points="352.39,-105.35 359.34,-97.35 348.92,-99.26 352.39,-105.35"/>
</a>
</g>
</g>
<!-- Node10 -->
<g id="Node000010" class="node">
<title>Node10</title>
<g id="a_Node000010"><a xlink:href="../../df/d44/portable-binary-archive_8hpp.html" target="_top" xlink:title=" ">
<polygon fill="white" stroke="#666666" points="581.45,-91.38 454.45,-91.38 454.45,-72.12 581.45,-72.12 581.45,-91.38"/>
<text text-anchor="middle" x="517.95" y="-77.88" font-family="Times,serif" font-size="10.00">portable&#45;binary&#45;archive.hpp</text>
</a>
</g>
</g>
<!-- Node4&#45;&gt;Node10 -->
<g id="edge10_Node000004_Node000010" class="edge">
<title>Node4&#45;&gt;Node10</title>
<g id="a_edge10_Node000004_Node000010"><a xlink:title=" ">
<path fill="none" stroke="#63b8ff" d="M296.03,-143.78C341.6,-131.25 423.8,-108.64 474.35,-94.74"/>
<polygon fill="#63b8ff" stroke="#63b8ff" points="475.22,-97.86 483.94,-91.83 473.37,-91.11 475.22,-97.86"/>
</a>
</g>
</g>
<!-- Node10&#45;&gt;Node3 -->
<g id="edge16_Node000010_Node000003" class="edge">
<title>Node10&#45;&gt;Node3</title>
<g id="a_edge16_Node000010_Node000003"><a xlink:title=" ">
<path fill="none" stroke="#63b8ff" d="M473.24,-71.65C463.91,-69.85 454.12,-68.05 444.95,-66.5 341.39,-49.01 220,-32.57 150.22,-23.51"/>
<polygon fill="#63b8ff" stroke="#63b8ff" points="150.85,-19.94 140.48,-22.12 149.95,-26.88 150.85,-19.94"/>
</a>
</g>
</g>
<!-- Node11 -->
<g id="Node000011" class="node">
<title>Node11</title>
<g id="a_Node000011"><a xlink:title=" ">
<polygon fill="#e0e0e0" stroke="#999999" points="751.7,-24.88 668.2,-24.88 668.2,-5.63 751.7,-5.63 751.7,-24.88"/>
<text text-anchor="middle" x="709.95" y="-11.38" font-family="Times,serif" font-size="10.00">boost/config.hpp</text>
</a>
</g>
</g>
<!-- Node10&#45;&gt;Node11 -->
<g id="edge11_Node000010_Node000011" class="edge">
<title>Node10&#45;&gt;Node11</title>
<g id="a_edge11_Node000010_Node000011"><a xlink:title=" ">
<path fill="none" stroke="#63b8ff" d="M545.06,-71.65C578.5,-60.41 635.54,-41.25 672.98,-28.67"/>
<polygon fill="#63b8ff" stroke="#63b8ff" points="673.63,-31.81 681.99,-25.31 671.4,-25.17 673.63,-31.81"/>
</a>
</g>
</g>
<!-- Node12 -->
<g id="Node000012" class="node">
<title>Node12</title>
<g id="a_Node000012"><a xlink:title=" ">
<polygon fill="#e0e0e0" stroke="#999999" points="351.2,-24.88 264.7,-24.88 264.7,-5.63 351.2,-5.63 351.2,-24.88"/>
<text text-anchor="middle" x="307.95" y="-11.38" font-family="Times,serif" font-size="10.00">boost/cstdint.hpp</text>
</a>
</g>
</g>
<!-- Node10&#45;&gt;Node12 -->
<g id="edge12_Node000010_Node000012" class="edge">
<title>Node10&#45;&gt;Node12</title>
<g id="a_edge12_Node000010_Node000012"><a xlink:title=" ">
<path fill="none" stroke="#63b8ff" d="M488.31,-71.65C451.57,-60.36 388.82,-41.09 347.87,-28.51"/>
<polygon fill="#63b8ff" stroke="#63b8ff" points="349.03,-24.9 338.45,-25.31 346.98,-31.59 349.03,-24.9"/>
</a>
</g>
</g>
<!-- Node13 -->
<g id="Node000013" class="node">
<title>Node13</title>
<g id="a_Node000013"><a xlink:title=" ">
<polygon fill="#e0e0e0" stroke="#999999" points="478.45,-24.88 369.45,-24.88 369.45,-5.63 478.45,-5.63 478.45,-24.88"/>
<text text-anchor="middle" x="423.95" y="-11.38" font-family="Times,serif" font-size="10.00">boost/static_assert.hpp</text>
</a>
</g>
</g>
<!-- Node10&#45;&gt;Node13 -->
<g id="edge13_Node000010_Node000013" class="edge">
<title>Node10&#45;&gt;Node13</title>
<g id="a_edge13_Node000010_Node000013"><a xlink:title=" ">
<path fill="none" stroke="#63b8ff" d="M504.88,-71.78C489.68,-61.35 464.32,-43.95 446.04,-31.4"/>
<polygon fill="#63b8ff" stroke="#63b8ff" points="448.44,-28.12 438.22,-25.35 444.48,-33.89 448.44,-28.12"/>
</a>
</g>
</g>
<!-- Node14 -->
<g id="Node000014" class="node">
<title>Node14</title>
<g id="a_Node000014"><a xlink:title=" ">
<polygon fill="#e0e0e0" stroke="#999999" points="539.08,-24.88 496.83,-24.88 496.83,-5.63 539.08,-5.63 539.08,-24.88"/>
<text text-anchor="middle" x="517.95" y="-11.38" font-family="Times,serif" font-size="10.00">climits</text>
</a>
</g>
</g>
<!-- Node10&#45;&gt;Node14 -->
<g id="edge14_Node000010_Node000014" class="edge">
<title>Node10&#45;&gt;Node14</title>
<g id="a_edge14_Node000010_Node000014"><a xlink:title=" ">
<path fill="none" stroke="#63b8ff" d="M517.95,-71.78C517.95,-62.54 517.95,-47.83 517.95,-35.88"/>
<polygon fill="#63b8ff" stroke="#63b8ff" points="521.45,-36.14 517.95,-26.14 514.45,-36.14 521.45,-36.14"/>
</a>
</g>
</g>
<!-- Node15 -->
<g id="Node000015" class="node">
<title>Node15</title>
<g id="a_Node000015"><a xlink:title=" ">
<polygon fill="#e0e0e0" stroke="#999999" points="650.58,-30.5 557.33,-30.5 557.33,0 650.58,0 650.58,-30.5"/>
<text text-anchor="start" x="565.33" y="-17" font-family="Times,serif" font-size="10.00">boost/archive/basic</text>
<text text-anchor="middle" x="603.95" y="-5.75" font-family="Times,serif" font-size="10.00">_archive.hpp</text>
</a>
</g>
</g>
<!-- Node10&#45;&gt;Node15 -->
<g id="edge15_Node000010_Node000015" class="edge">
<title>Node10&#45;&gt;Node15</title>
<g id="a_edge15_Node000010_Node000015"><a xlink:title=" ">
<path fill="none" stroke="#63b8ff" d="M529.91,-71.78C541.72,-62.93 560.21,-49.06 575.76,-37.4"/>
<polygon fill="#63b8ff" stroke="#63b8ff" points="577.6,-39.64 583.5,-30.84 573.4,-34.04 577.6,-39.64"/>
</a>
</g>
</g>
</g>
</svg>
