<?xml version="1.0" encoding="UTF-8" standalone="no"?>
<!DOCTYPE svg PUBLIC "-//W3C//DTD SVG 1.1//EN"
 "http://www.w3.org/Graphics/SVG/1.1/DTD/svg11.dtd">
<!-- Generated by graphviz version 9.0.0 (20230911.1827)
 -->
<!-- Title: mal&#45;packet&#45;weaver/mal&#45;packet&#45;weaver/packet&#45;impl/portable&#45;binary&#45;oarchive.cpp Pages: 1 -->
<!--zoomable 272 -->

<svg id="main" version="1.1" xmlns="http://www.w3.org/2000/svg" xmlns:xlink="http://www.w3.org/1999/xlink" xml:space="preserve" onload="init(evt)">
<style type="text/css"><![CDATA[
.node, .edge {opacity: 0.7;}
.node.selected, .edge.selected {opacity: 1;}
.edge:hover path { stroke: red; }
.edge:hover polygon { stroke: red; fill: red; }
]]></style>

<defs>
  <circle id="rim" cx="0" cy="0" r="7"/>
  <circle id="rim2" cx="0" cy="0" r="3.5"/>
  <g id="zoomPlus">
    <use xlink:href="#rim" fill="#404040"><set attributeName="fill" to="#808080" begin="zoomplus.mouseover" end="zoomplus.mouseout"/></use>
    <path d="M-4,0h8M0,-4v8" fill="none" stroke="white" stroke-width="1.5" pointer-events="none"/>
  </g>
  <g id="zoomMin">
    <use xlink:href="#rim" fill="#404040"><set attributeName="fill" to="#808080" begin="zoomminus.mouseover" end="zoomminus.mouseout"/></use>
    <path d="M-4,0h8" fill="none" stroke="white" stroke-width="1.5" pointer-events="none"/>
  </g>
  <g id="arrowUp" transform="translate(30 24)">
    <use xlink:href="#rim"/>
    <path pointer-events="none" fill="none" stroke="white" stroke-width="1.5" d="M0,-3.0v7 M-2.5,-0.5L0,-3.0L2.5,-0.5"/>
  </g>
  <g id="arrowRight" transform="rotate(90) translate(36 -43)">
    <use xlink:href="#rim"/>
    <path pointer-events="none" fill="none" stroke="white" stroke-width="1.5" d="M0,-3.0v7 M-2.5,-0.5L0,-3.0L2.5,-0.5"/>
  </g>
  <g id="arrowDown" transform="rotate(180) translate(-30 -48)">
    <use xlink:href="#rim"/>
    <path pointer-events="none" fill="none" stroke="white" stroke-width="1.5" d="M0,-3.0v7 M-2.5,-0.5L0,-3.0L2.5,-0.5"/>
  </g>
  <g id="arrowLeft" transform="rotate(270) translate(-36 17)">
    <use xlink:href="#rim"/>
    <path pointer-events="none" fill="none" stroke="white" stroke-width="1.5" d="M0,-3.0v7 M-2.5,-0.5L0,-3.0L2.5,-0.5"/>
  </g>
  <g id="resetDef">
    <use xlink:href="#rim2" fill="#404040"><set attributeName="fill" to="#808080" begin="reset.mouseover" end="reset.mouseout"/></use>
  </g>
</defs>
<script type="application/ecmascript">
var viewWidth = 817;
var viewHeight = 272;
var sectionId = 'dynsection-0';
</script>
<script type="application/ecmascript" xlink:href="../../svg.min.js"/>
<svg id="graph" class="graph">
<g id="viewport">
<title>mal&#45;packet&#45;weaver/mal&#45;packet&#45;weaver/packet&#45;impl/portable&#45;binary&#45;oarchive.cpp</title>
<!-- Node1 -->
<g id="Node000001" class="node">
<title>Node1</title>
<g id="a_Node000001"><a xlink:title=" ">
<polygon fill="#999999" stroke="#666666" points="316.7,-263.75 209.2,-263.75 209.2,-210.75 316.7,-210.75 316.7,-263.75"/>
<text text-anchor="start" x="217.2" y="-250.25" font-family="Times,serif" font-size="10.00">mal&#45;packet&#45;weaver/mal</text>
<text text-anchor="start" x="217.2" y="-239" font-family="Times,serif" font-size="10.00">&#45;packet&#45;weaver/packet</text>
<text text-anchor="start" x="217.2" y="-227.75" font-family="Times,serif" font-size="10.00">&#45;impl/portable&#45;binary</text>
<text text-anchor="middle" x="262.95" y="-216.5" font-family="Times,serif" font-size="10.00">&#45;oarchive.cpp</text>
</a>
</g>
</g>
<!-- Node2 -->
<g id="Node000002" class="node">
<title>Node2</title>
<g id="a_Node000002"><a xlink:title=" ">
<polygon fill="#e0e0e0" stroke="#999999" points="61.7,-91.38 14.2,-91.38 14.2,-72.12 61.7,-72.12 61.7,-91.38"/>
<text text-anchor="middle" x="37.95" y="-77.88" font-family="Times,serif" font-size="10.00">ostream</text>
</a>
</g>
</g>
<!-- Node1&#45;&gt;Node2 -->
<g id="edge1_Node000001_Node000002" class="edge">
<title>Node1&#45;&gt;Node2</title>
<g id="a_edge1_Node000001_Node000002"><a xlink:title=" ">
<path fill="none" stroke="#63b8ff" d="M225.04,-210.38C177.9,-178.23 98.97,-124.38 60.46,-98.11"/>
<polygon fill="#63b8ff" stroke="#63b8ff" points="62.64,-95.35 52.41,-92.61 58.7,-101.14 62.64,-95.35"/>
</a>
</g>
</g>
<!-- Node3 -->
<g id="Node000003" class="node">
<title>Node3</title>
<g id="a_Node000003"><a xlink:title=" ">
<polygon fill="#e0e0e0" stroke="#999999" points="139.2,-30.5 46.7,-30.5 46.7,0 139.2,0 139.2,-30.5"/>
<text text-anchor="start" x="54.7" y="-17" font-family="Times,serif" font-size="10.00">boost/predef/other</text>
<text text-anchor="middle" x="92.95" y="-5.75" font-family="Times,serif" font-size="10.00">/endian.h</text>
</a>
</g>
</g>
<!-- Node1&#45;&gt;Node3 -->
<g id="edge2_Node000001_Node000003" class="edge">
<title>Node1&#45;&gt;Node3</title>
<g id="a_edge2_Node000001_Node000003"><a xlink:title=" ">
<path fill="none" stroke="#63b8ff" d="M208.86,-225.78C145.64,-210.2 44.63,-174.04 4.95,-97 -1.25,-84.95 -1.85,-78.22 4.95,-66.5 12.49,-53.53 24.76,-43.62 37.79,-36.18"/>
<polygon fill="#63b8ff" stroke="#63b8ff" points="39.23,-39.37 46.49,-31.66 36,-33.16 39.23,-39.37"/>
</a>
</g>
</g>
<!-- Node4 -->
<g id="Node000004" class="node">
<title>Node4</title>
<g id="a_Node000004"><a xlink:href="../../d7/dda/portable-binary-oarchive_8hpp.html" target="_top" xlink:title=" ">
<polygon fill="white" stroke="#666666" points="329.08,-163.5 196.83,-163.5 196.83,-144.25 329.08,-144.25 329.08,-163.5"/>
<text text-anchor="middle" x="262.95" y="-150" font-family="Times,serif" font-size="10.00">portable&#45;binary&#45;oarchive.hpp</text>
</a>
</g>
</g>
<!-- Node1&#45;&gt;Node4 -->
<g id="edge3_Node000001_Node000004" class="edge">
<title>Node1&#45;&gt;Node4</title>
<g id="a_edge3_Node000001_Node000004"><a xlink:title=" ">
<path fill="none" stroke="#63b8ff" d="M262.95,-210.5C262.95,-199.11 262.95,-185.91 262.95,-175.23"/>
<polygon fill="#63b8ff" stroke="#63b8ff" points="266.45,-175.25 262.95,-165.25 259.45,-175.25 266.45,-175.25"/>
</a>
</g>
</g>
<!-- Node16 -->
<g id="Node000016" class="node">
<title>Node16</title>
<g id="a_Node000016"><a xlink:title=" ">
<polygon fill="#e0e0e0" stroke="#999999" points="438.45,-174.75 347.45,-174.75 347.45,-133 438.45,-133 438.45,-174.75"/>
<text text-anchor="start" x="355.45" y="-161.25" font-family="Times,serif" font-size="10.00">boost/archive/impl</text>
<text text-anchor="start" x="355.45" y="-150" font-family="Times,serif" font-size="10.00">/archive_serializer</text>
<text text-anchor="middle" x="392.95" y="-138.75" font-family="Times,serif" font-size="10.00">_map.ipp</text>
</a>
</g>
</g>
<!-- Node1&#45;&gt;Node16 -->
<g id="edge17_Node000001_Node000016" class="edge">
<title>Node1&#45;&gt;Node16</title>
<g id="a_edge17_Node000001_Node000016"><a xlink:title=" ">
<path fill="none" stroke="#63b8ff" d="M304.44,-210.28C319.32,-200.97 336.09,-190.47 351,-181.14"/>
<polygon fill="#63b8ff" stroke="#63b8ff" points="352.59,-184.27 359.21,-176 348.88,-178.34 352.59,-184.27"/>
</a>
</g>
</g>
<!-- Node17 -->
<g id="Node000017" class="node">
<title>Node17</title>
<g id="a_Node000017"><a xlink:title=" ">
<polygon fill="#e0e0e0" stroke="#999999" points="587.7,-169.12 456.2,-169.12 456.2,-138.62 587.7,-138.62 587.7,-169.12"/>
<text text-anchor="start" x="464.2" y="-155.62" font-family="Times,serif" font-size="10.00">boost/archive/impl</text>
<text text-anchor="middle" x="521.95" y="-144.38" font-family="Times,serif" font-size="10.00">/basic_binary_oprimitive.ipp</text>
</a>
</g>
</g>
<!-- Node1&#45;&gt;Node17 -->
<g id="edge18_Node000001_Node000017" class="edge">
<title>Node1&#45;&gt;Node17</title>
<g id="a_edge18_Node000001_Node000017"><a xlink:title=" ">
<path fill="none" stroke="#63b8ff" d="M316.93,-219.29C360.12,-205.72 420.54,-186.74 464.59,-172.9"/>
<polygon fill="#63b8ff" stroke="#63b8ff" points="465.48,-176.29 473.98,-169.95 463.39,-169.61 465.48,-176.29"/>
</a>
</g>
</g>
<!-- Node4&#45;&gt;Node2 -->
<g id="edge4_Node000004_Node000002" class="edge">
<title>Node4&#45;&gt;Node2</title>
<g id="a_edge4_Node000004_Node000002"><a xlink:title=" ">
<path fill="none" stroke="#63b8ff" d="M226.79,-143.79C187.87,-133.68 124.36,-116.22 70.95,-97 70,-96.66 69.04,-96.3 68.07,-95.94"/>
<polygon fill="#63b8ff" stroke="#63b8ff" points="69.67,-92.81 59.09,-92.31 67.06,-99.3 69.67,-92.81"/>
</a>
</g>
</g>
<!-- Node5 -->
<g id="Node000005" class="node">
<title>Node5</title>
<g id="a_Node000005"><a xlink:title=" ">
<polygon fill="#e0e0e0" stroke="#999999" points="688.7,-97 599.2,-97 599.2,-66.5 688.7,-66.5 688.7,-97"/>
<text text-anchor="start" x="607.2" y="-83.5" font-family="Times,serif" font-size="10.00">boost/serialization</text>
<text text-anchor="middle" x="643.95" y="-72.25" font-family="Times,serif" font-size="10.00">/string.hpp</text>
</a>
</g>
</g>
<!-- Node4&#45;&gt;Node5 -->
<g id="edge5_Node000004_Node000005" class="edge">
<title>Node4&#45;&gt;Node5</title>
<g id="a_edge5_Node000004_Node000005"><a xlink:title=" ">
<path fill="none" stroke="#63b8ff" d="M293.78,-143.83C307.25,-140.1 323.3,-135.97 337.95,-133 445.68,-111.14 477.64,-119.22 587.68,-97.52"/>
<polygon fill="#63b8ff" stroke="#63b8ff" points="588.34,-100.96 597.45,-95.55 586.96,-94.1 588.34,-100.96"/>
</a>
</g>
</g>
<!-- Node6 -->
<g id="Node000006" class="node">
<title>Node6</title>
<g id="a_Node000006"><a xlink:title=" ">
<polygon fill="#e0e0e0" stroke="#999999" points="808.7,-97 707.2,-97 707.2,-66.5 808.7,-66.5 808.7,-97"/>
<text text-anchor="start" x="715.2" y="-83.5" font-family="Times,serif" font-size="10.00">boost/archive/archive</text>
<text text-anchor="middle" x="757.95" y="-72.25" font-family="Times,serif" font-size="10.00">_exception.hpp</text>
</a>
</g>
</g>
<!-- Node4&#45;&gt;Node6 -->
<g id="edge6_Node000004_Node000006" class="edge">
<title>Node4&#45;&gt;Node6</title>
<g id="a_edge6_Node000004_Node000006"><a xlink:title=" ">
<path fill="none" stroke="#63b8ff" d="M292.64,-143.84C306.32,-139.98 322.84,-135.74 337.95,-133 492.62,-104.96 537.38,-122.79 695.88,-97.18"/>
<polygon fill="#63b8ff" stroke="#63b8ff" points="696.2,-100.67 705.49,-95.59 695.06,-93.77 696.2,-100.67"/>
</a>
</g>
</g>
<!-- Node7 -->
<g id="Node000007" class="node">
<title>Node7</title>
<g id="a_Node000007"><a xlink:title=" ">
<polygon fill="#e0e0e0" stroke="#999999" points="190.2,-97 79.7,-97 79.7,-66.5 190.2,-66.5 190.2,-97"/>
<text text-anchor="start" x="87.7" y="-83.5" font-family="Times,serif" font-size="10.00">boost/archive/basic</text>
<text text-anchor="middle" x="134.95" y="-72.25" font-family="Times,serif" font-size="10.00">_binary_oprimitive.hpp</text>
</a>
</g>
</g>
<!-- Node4&#45;&gt;Node7 -->
<g id="edge7_Node000004_Node000007" class="edge">
<title>Node4&#45;&gt;Node7</title>
<g id="a_edge7_Node000004_Node000007"><a xlink:title=" ">
<path fill="none" stroke="#63b8ff" d="M246.48,-143.85C227.61,-133.51 196.11,-116.25 171.39,-102.71"/>
<polygon fill="#63b8ff" stroke="#63b8ff" points="173.39,-99.81 162.94,-98.08 170.02,-105.95 173.39,-99.81"/>
</a>
</g>
</g>
<!-- Node8 -->
<g id="Node000008" class="node">
<title>Node8</title>
<g id="a_Node000008"><a xlink:title=" ">
<polygon fill="#e0e0e0" stroke="#999999" points="317.83,-97 208.08,-97 208.08,-66.5 317.83,-66.5 317.83,-97"/>
<text text-anchor="start" x="216.08" y="-83.5" font-family="Times,serif" font-size="10.00">boost/archive/detail</text>
<text text-anchor="middle" x="262.95" y="-72.25" font-family="Times,serif" font-size="10.00">/common_oarchive.hpp</text>
</a>
</g>
</g>
<!-- Node4&#45;&gt;Node8 -->
<g id="edge8_Node000004_Node000008" class="edge">
<title>Node4&#45;&gt;Node8</title>
<g id="a_edge8_Node000004_Node000008"><a xlink:title=" ">
<path fill="none" stroke="#63b8ff" d="M262.95,-143.99C262.95,-135.11 262.95,-121.02 262.95,-108.6"/>
<polygon fill="#63b8ff" stroke="#63b8ff" points="266.45,-108.93 262.95,-98.93 259.45,-108.93 266.45,-108.93"/>
</a>
</g>
</g>
<!-- Node9 -->
<g id="Node000009" class="node">
<title>Node9</title>
<g id="a_Node000009"><a xlink:title=" ">
<polygon fill="#e0e0e0" stroke="#999999" points="436.33,-97 335.58,-97 335.58,-66.5 436.33,-66.5 436.33,-97"/>
<text text-anchor="start" x="343.58" y="-83.5" font-family="Times,serif" font-size="10.00">boost/archive/detail</text>
<text text-anchor="middle" x="385.95" y="-72.25" font-family="Times,serif" font-size="10.00">/register_archive.hpp</text>
</a>
</g>
</g>
<!-- Node4&#45;&gt;Node9 -->
<g id="edge9_Node000004_Node000009" class="edge">
<title>Node4&#45;&gt;Node9</title>
<g id="a_edge9_Node000004_Node000009"><a xlink:title=" ">
<path fill="none" stroke="#63b8ff" d="M278.78,-143.85C296.84,-133.56 326.92,-116.41 350.63,-102.89"/>
<polygon fill="#63b8ff" stroke="#63b8ff" points="352.07,-106.1 359.03,-98.1 348.61,-100.01 352.07,-106.1"/>
</a>
</g>
</g>
<!-- Node10 -->
<g id="Node000010" class="node">
<title>Node10</title>
<g id="a_Node000010"><a xlink:href="../../df/d44/portable-binary-archive_8hpp.html" target="_top" xlink:title=" ">
<polygon fill="white" stroke="#666666" points="581.45,-91.38 454.45,-91.38 454.45,-72.12 581.45,-72.12 581.45,-91.38"/>
<text text-anchor="middle" x="517.95" y="-77.88" font-family="Times,serif" font-size="10.00">portable&#45;binary&#45;archive.hpp</text>
</a>
</g>
</g>
<!-- Node4&#45;&gt;Node10 -->
<g id="edge10_Node000004_Node000010" class="edge">
<title>Node4&#45;&gt;Node10</title>
<g id="a_edge10_Node000004_Node000010"><a xlink:title=" ">
<path fill="none" stroke="#63b8ff" d="M296.03,-143.78C341.51,-131.27 423.45,-108.74 474.03,-94.83"/>
<polygon fill="#63b8ff" stroke="#63b8ff" points="474.76,-98.26 483.48,-92.23 472.91,-91.51 474.76,-98.26"/>
</a>
</g>
</g>
<!-- Node10&#45;&gt;Node3 -->
<g id="edge16_Node000010_Node000003" class="edge">
<title>Node10&#45;&gt;Node3</title>
<g id="a_edge16_Node000010_Node000003"><a xlink:title=" ">
<path fill="none" stroke="#63b8ff" d="M473.24,-71.65C463.91,-69.85 454.12,-68.05 444.95,-66.5 341.6,-49.05 220.5,-32.64 150.65,-23.57"/>
<polygon fill="#63b8ff" stroke="#63b8ff" points="151.35,-20.13 140.98,-22.32 150.45,-27.07 151.35,-20.13"/>
</a>
</g>
</g>
<!-- Node11 -->
<g id="Node000011" class="node">
<title>Node11</title>
<g id="a_Node000011"><a xlink:title=" ">
<polygon fill="#e0e0e0" stroke="#999999" points="751.7,-24.88 668.2,-24.88 668.2,-5.63 751.7,-5.63 751.7,-24.88"/>
<text text-anchor="middle" x="709.95" y="-11.38" font-family="Times,serif" font-size="10.00">boost/config.hpp</text>
</a>
</g>
</g>
<!-- Node10&#45;&gt;Node11 -->
<g id="edge11_Node000010_Node000011" class="edge">
<title>Node10&#45;&gt;Node11</title>
<g id="a_edge11_Node000010_Node000011"><a xlink:title=" ">
<path fill="none" stroke="#63b8ff" d="M545.06,-71.65C578.36,-60.46 635.05,-41.41 672.5,-28.83"/>
<polygon fill="#63b8ff" stroke="#63b8ff" points="673.19,-32.29 681.56,-25.79 670.96,-25.66 673.19,-32.29"/>
</a>
</g>
</g>
<!-- Node12 -->
<g id="Node000012" class="node">
<title>Node12</title>
<g id="a_Node000012"><a xlink:title=" ">
<polygon fill="#e0e0e0" stroke="#999999" points="351.2,-24.88 264.7,-24.88 264.7,-5.63 351.2,-5.63 351.2,-24.88"/>
<text text-anchor="middle" x="307.95" y="-11.38" font-family="Times,serif" font-size="10.00">boost/cstdint.hpp</text>
</a>
</g>
</g>
<!-- Node10&#45;&gt;Node12 -->
<g id="edge12_Node000010_Node000012" class="edge">
<title>Node10&#45;&gt;Node12</title>
<g id="a_edge12_Node000010_Node000012"><a xlink:title=" ">
<path fill="none" stroke="#63b8ff" d="M488.31,-71.65C451.73,-60.41 389.35,-41.25 348.39,-28.67"/>
<polygon fill="#63b8ff" stroke="#63b8ff" points="349.48,-25.34 338.89,-25.75 347.42,-32.03 349.48,-25.34"/>
</a>
</g>
</g>
<!-- Node13 -->
<g id="Node000013" class="node">
<title>Node13</title>
<g id="a_Node000013"><a xlink:title=" ">
<polygon fill="#e0e0e0" stroke="#999999" points="478.45,-24.88 369.45,-24.88 369.45,-5.63 478.45,-5.63 478.45,-24.88"/>
<text text-anchor="middle" x="423.95" y="-11.38" font-family="Times,serif" font-size="10.00">boost/static_assert.hpp</text>
</a>
</g>
</g>
<!-- Node10&#45;&gt;Node13 -->
<g id="edge13_Node000010_Node000013" class="edge">
<title>Node10&#45;&gt;Node13</title>
<g id="a_edge13_Node000010_Node000013"><a xlink:title=" ">
<path fill="none" stroke="#63b8ff" d="M504.88,-71.78C489.82,-61.44 464.79,-44.27 446.55,-31.75"/>
<polygon fill="#63b8ff" stroke="#63b8ff" points="448.69,-28.98 438.46,-26.21 444.73,-34.75 448.69,-28.98"/>
</a>
</g>
</g>
<!-- Node14 -->
<g id="Node000014" class="node">
<title>Node14</title>
<g id="a_Node000014"><a xlink:title=" ">
<polygon fill="#e0e0e0" stroke="#999999" points="539.08,-24.88 496.83,-24.88 496.83,-5.63 539.08,-5.63 539.08,-24.88"/>
<text text-anchor="middle" x="517.95" y="-11.38" font-family="Times,serif" font-size="10.00">climits</text>
</a>
</g>
</g>
<!-- Node10&#45;&gt;Node14 -->
<g id="edge14_Node000010_Node000014" class="edge">
<title>Node10&#45;&gt;Node14</title>
<g id="a_edge14_Node000010_Node000014"><a xlink:title=" ">
<path fill="none" stroke="#63b8ff" d="M517.95,-71.78C517.95,-62.73 517.95,-48.45 517.95,-36.63"/>
<polygon fill="#63b8ff" stroke="#63b8ff" points="521.45,-36.66 517.95,-26.66 514.45,-36.66 521.45,-36.66"/>
</a>
</g>
</g>
<!-- Node15 -->
<g id="Node000015" class="node">
<title>Node15</title>
<g id="a_Node000015"><a xlink:title=" ">
<polygon fill="#e0e0e0" stroke="#999999" points="650.58,-30.5 557.33,-30.5 557.33,0 650.58,0 650.58,-30.5"/>
<text text-anchor="start" x="565.33" y="-17" font-family="Times,serif" font-size="10.00">boost/archive/basic</text>
<text text-anchor="middle" x="603.95" y="-5.75" font-family="Times,serif" font-size="10.00">_archive.hpp</text>
</a>
</g>
</g>
<!-- Node10&#45;&gt;Node15 -->
<g id="edge15_Node000010_Node000015" class="edge">
<title>Node10&#45;&gt;Node15</title>
<g id="a_edge15_Node000010_Node000015"><a xlink:title=" ">
<path fill="none" stroke="#63b8ff" d="M529.91,-71.78C541.61,-63.01 559.86,-49.32 575.32,-37.73"/>
<polygon fill="#63b8ff" stroke="#63b8ff" points="577.39,-40.55 583.29,-31.75 573.19,-34.95 577.39,-40.55"/>
</a>
</g>
</g>
</g>
</svg>

<g id="navigator" transform="translate(0 0)" fill="#404254">
  <rect fill="#f2f5e9" fill-opacity="0.5" stroke="#606060" stroke-width=".5" x="0" y="0" width="60" height="60"/>
  <use id="zoomplus" xlink:href="#zoomPlus" x="17" y="9" onmousedown="handleZoom(evt,'in')"/>
  <use id="zoomminus" xlink:href="#zoomMin" x="42" y="9" onmousedown="handleZoom(evt,'out')"/>
  <use id="reset" xlink:href="#resetDef" x="30" y="36" onmousedown="handleReset()"/>
   <use id="arrowup" xlink:href="#arrowUp" x="0" y="0" onmousedown="handlePan(0,-1)"/>
  <use id="arrowright" xlink:href="#arrowRight" x="0" y="0" onmousedown="handlePan(1,0)"/>
  <use id="arrowdown" xlink:href="#arrowDown" x="0" y="0" onmousedown="handlePan(0,1)"/>
  <use id="arrowleft" xlink:href="#arrowLeft" x="0" y="0" onmousedown="handlePan(-1,0)"/>
</g>
<svg viewBox="0 0 15 15" width="100%" height="30px" preserveAspectRatio="xMaxYMin meet">
 <g id="arrow_out" transform="scale(0.3 0.3)">
  <a xlink:href="portable-binary-oarchive_8cpp__incl_org.svg" target="_base">
   <rect id="button" ry="5" rx="5" y="6" x="6" height="38" width="38"
        fill="#f2f5e9" fill-opacity="0.5" stroke="#606060" stroke-width="1.0"/>
   <path id="arrow"
     d="M 11.500037,31.436501 C 11.940474,20.09759 22.043105,11.32322 32.158766,21.979434 L 37.068811,17.246167 C 37.068811,17.246167 37.088388,32 37.088388,32 L 22.160133,31.978069 C 22.160133,31.978069 26.997745,27.140456 26.997745,27.140456 C 18.528582,18.264221 13.291696,25.230495 11.500037,31.436501 z"
     style="fill:#404040;"/>
  </a>
 </g>
</svg>

<style type='text/css'>
<![CDATA[
[data-mouse-over-selected='false'] { opacity: 0.7; }
[data-mouse-over-selected='true']  { opacity: 1.0; }
]]>
</style>
<script type="application/ecmascript"><![CDATA[
document.addEventListener('DOMContentLoaded', (event) => {
  highlightEdges();
  highlightAdjacentNodes();
});
]]></script>
</svg>
