<?xml version="1.0" encoding="UTF-8" standalone="no"?>
<!DOCTYPE svg PUBLIC "-//W3C//DTD SVG 1.1//EN"
 "http://www.w3.org/Graphics/SVG/1.1/DTD/svg11.dtd">
<!-- Generated by graphviz version 7.0.5 (20221223.1930)
 -->
<!-- Title: mal&#45;packet&#45;weaver/mal&#45;packet&#45;weaver/crypto/ecdsa.hpp Pages: 1 -->
<svg width="1006pt" height="280pt"
 viewBox="0.00 0.00 1006.00 280.00" xmlns="http://www.w3.org/2000/svg" xmlns:xlink="http://www.w3.org/1999/xlink">
<g id="graph0" class="graph" transform="scale(1 1) rotate(0) translate(4 276)">
<title>mal&#45;packet&#45;weaver/mal&#45;packet&#45;weaver/crypto/ecdsa.hpp</title>
<!-- Node1 -->
<g id="node1" class="node">
<title>Node1</title>
<g id="a_node1"><a xlink:title=" ">
<polygon fill="#999999" stroke="#666666" points="691,-272 573,-272 573,-231 691,-231 691,-272"/>
<text text-anchor="start" x="581" y="-260" font-family="Helvetica,sans-Serif" font-size="10.00">mal&#45;packet&#45;weaver/mal</text>
<text text-anchor="start" x="581" y="-249" font-family="Helvetica,sans-Serif" font-size="10.00">&#45;packet&#45;weaver/crypto</text>
<text text-anchor="middle" x="632" y="-238" font-family="Helvetica,sans-Serif" font-size="10.00">/ecdsa.hpp</text>
</a>
</g>
</g>
<!-- Node2 -->
<g id="node2" class="node">
<title>Node2</title>
<g id="a_node2"><a xlink:href="../../d8/d6d/sha_8hpp.html" target="_top" xlink:title=" ">
<polygon fill="white" stroke="#666666" points="631,-195 581,-195 581,-176 631,-176 631,-195"/>
<text text-anchor="middle" x="606" y="-183" font-family="Helvetica,sans-Serif" font-size="10.00">sha.hpp</text>
</a>
</g>
</g>
<!-- Node1&#45;&gt;Node2 -->
<g id="edge1" class="edge">
<title>Node1&#45;&gt;Node2</title>
<path fill="none" stroke="#63b8ff" d="M623.92,-230.6C620.71,-222.71 617.03,-213.66 613.85,-205.82"/>
<polygon fill="#63b8ff" stroke="#63b8ff" points="617.1,-204.51 610.09,-196.56 610.61,-207.15 617.1,-204.51"/>
</g>
<!-- Node17 -->
<g id="node17" class="node">
<title>Node17</title>
<g id="a_node17"><a xlink:title=" ">
<polygon fill="#e0e0e0" stroke="#999999" points="160,-85 78,-85 78,-66 160,-66 160,-85"/>
<text text-anchor="middle" x="119" y="-73" font-family="Helvetica,sans-Serif" font-size="10.00">openssl/ecdh.h</text>
</a>
</g>
</g>
<!-- Node1&#45;&gt;Node17 -->
<g id="edge30" class="edge">
<title>Node1&#45;&gt;Node17</title>
<path fill="none" stroke="#63b8ff" d="M572.53,-239.22C522.77,-229.26 450.16,-213.46 388,-195 320.33,-174.91 303.45,-168.79 239,-140 205.26,-124.92 167.83,-104.49 143.89,-90.92"/>
<polygon fill="#63b8ff" stroke="#63b8ff" points="145.94,-88.06 135.52,-86.14 142.47,-94.14 145.94,-88.06"/>
</g>
<!-- Node18 -->
<g id="node18" class="node">
<title>Node18</title>
<g id="a_node18"><a xlink:title=" ">
<polygon fill="#e0e0e0" stroke="#999999" points="874.5,-85 797.5,-85 797.5,-66 874.5,-66 874.5,-85"/>
<text text-anchor="middle" x="836" y="-73" font-family="Helvetica,sans-Serif" font-size="10.00">openssl/evp.h</text>
</a>
</g>
</g>
<!-- Node1&#45;&gt;Node18 -->
<g id="edge32" class="edge">
<title>Node1&#45;&gt;Node18</title>
<path fill="none" stroke="#63b8ff" d="M578.56,-230.53C522,-206.5 445.79,-164 484,-121 527.11,-72.48 703.43,-92.82 786.02,-84.91"/>
<polygon fill="#63b8ff" stroke="#63b8ff" points="786.24,-88.4 795.76,-83.74 785.41,-81.45 786.24,-88.4"/>
</g>
<!-- Node21 -->
<g id="node21" class="node">
<title>Node21</title>
<g id="a_node21"><a xlink:title=" ">
<polygon fill="#e0e0e0" stroke="#999999" points="255.5,-85 178.5,-85 178.5,-66 255.5,-66 255.5,-85"/>
<text text-anchor="middle" x="217" y="-73" font-family="Helvetica,sans-Serif" font-size="10.00">openssl/sha.h</text>
</a>
</g>
</g>
<!-- Node1&#45;&gt;Node21 -->
<g id="edge34" class="edge">
<title>Node1&#45;&gt;Node21</title>
<path fill="none" stroke="#63b8ff" d="M572.57,-236.17C505.35,-218.68 393.71,-185.67 305,-140 279.28,-126.76 252.75,-106.55 235.64,-92.5"/>
<polygon fill="#63b8ff" stroke="#63b8ff" points="238.24,-90.12 228.33,-86.39 233.75,-95.49 238.24,-90.12"/>
</g>
<!-- Node22 -->
<g id="node22" class="node">
<title>Node22</title>
<g id="a_node22"><a xlink:title=" ">
<polygon fill="#e0e0e0" stroke="#999999" points="705,-140 631,-140 631,-121 705,-121 705,-140"/>
<text text-anchor="middle" x="668" y="-128" font-family="Helvetica,sans-Serif" font-size="10.00">openssl/bio.h</text>
</a>
</g>
</g>
<!-- Node1&#45;&gt;Node22 -->
<g id="edge28" class="edge">
<title>Node1&#45;&gt;Node22</title>
<path fill="none" stroke="#63b8ff" d="M638.03,-230.58C644.68,-208.58 655.34,-173.35 661.99,-151.37"/>
<polygon fill="#63b8ff" stroke="#63b8ff" points="665.32,-152.45 664.86,-141.87 658.62,-150.43 665.32,-152.45"/>
</g>
<!-- Node23 -->
<g id="node23" class="node">
<title>Node23</title>
<g id="a_node23"><a xlink:title=" ">
<polygon fill="#e0e0e0" stroke="#999999" points="794.5,-140 723.5,-140 723.5,-121 794.5,-121 794.5,-140"/>
<text text-anchor="middle" x="759" y="-128" font-family="Helvetica,sans-Serif" font-size="10.00">openssl/ec.h</text>
</a>
</g>
</g>
<!-- Node1&#45;&gt;Node23 -->
<g id="edge29" class="edge">
<title>Node1&#45;&gt;Node23</title>
<path fill="none" stroke="#63b8ff" d="M653.26,-230.58C677.94,-207.45 718.22,-169.71 741.28,-148.1"/>
<polygon fill="#63b8ff" stroke="#63b8ff" points="743.47,-150.84 748.38,-141.45 738.69,-145.74 743.47,-150.84"/>
</g>
<!-- Node24 -->
<g id="node24" class="node">
<title>Node24</title>
<g id="a_node24"><a xlink:title=" ">
<polygon fill="#e0e0e0" stroke="#999999" points="899.5,-140 812.5,-140 812.5,-121 899.5,-121 899.5,-140"/>
<text text-anchor="middle" x="856" y="-128" font-family="Helvetica,sans-Serif" font-size="10.00">openssl/ecdsa.h</text>
</a>
</g>
</g>
<!-- Node1&#45;&gt;Node24 -->
<g id="edge31" class="edge">
<title>Node1&#45;&gt;Node24</title>
<path fill="none" stroke="#63b8ff" d="M669.49,-230.58C714.67,-206.58 789.45,-166.85 829.21,-145.73"/>
<polygon fill="#63b8ff" stroke="#63b8ff" points="830.69,-148.91 837.88,-141.13 827.4,-142.73 830.69,-148.91"/>
</g>
<!-- Node25 -->
<g id="node25" class="node">
<title>Node25</title>
<g id="a_node25"><a xlink:title=" ">
<polygon fill="#e0e0e0" stroke="#999999" points="998,-140 918,-140 918,-121 998,-121 998,-140"/>
<text text-anchor="middle" x="958" y="-128" font-family="Helvetica,sans-Serif" font-size="10.00">openssl/pem.h</text>
</a>
</g>
</g>
<!-- Node1&#45;&gt;Node25 -->
<g id="edge33" class="edge">
<title>Node1&#45;&gt;Node25</title>
<path fill="none" stroke="#63b8ff" d="M686.57,-230.58C753.86,-206.02 866.27,-164.98 923,-144.28"/>
<polygon fill="#63b8ff" stroke="#63b8ff" points="923.95,-147.65 932.15,-140.94 921.55,-141.08 923.95,-147.65"/>
</g>
<!-- Node3 -->
<g id="node3" class="node">
<title>Node3</title>
<g id="a_node3"><a xlink:title=" ">
<polygon fill="#e0e0e0" stroke="#999999" points="574.5,-140 493.5,-140 493.5,-121 574.5,-121 574.5,-140"/>
<text text-anchor="middle" x="534" y="-128" font-family="Helvetica,sans-Serif" font-size="10.00">../utils/utils.hpp</text>
</a>
</g>
</g>
<!-- Node2&#45;&gt;Node3 -->
<g id="edge2" class="edge">
<title>Node2&#45;&gt;Node3</title>
<path fill="none" stroke="#63b8ff" d="M593.79,-175.51C583.17,-167.7 567.56,-156.21 554.96,-146.93"/>
<polygon fill="#63b8ff" stroke="#63b8ff" points="557.38,-144.36 547.25,-141.26 553.23,-150 557.38,-144.36"/>
</g>
<!-- Node4 -->
<g id="node4" class="node">
<title>Node4</title>
<g id="a_node4"><a xlink:href="../../d7/d87/crypto_2common_8hpp.html" target="_top" xlink:title=" ">
<polygon fill="white" stroke="#666666" points="437,-140 365,-140 365,-121 437,-121 437,-140"/>
<text text-anchor="middle" x="401" y="-128" font-family="Helvetica,sans-Serif" font-size="10.00">common.hpp</text>
</a>
</g>
</g>
<!-- Node2&#45;&gt;Node4 -->
<g id="edge3" class="edge">
<title>Node2&#45;&gt;Node4</title>
<path fill="none" stroke="#63b8ff" d="M580.86,-178C547.47,-169.37 487.87,-153.96 446.48,-143.26"/>
<polygon fill="#63b8ff" stroke="#63b8ff" points="447.61,-139.94 437.05,-140.82 445.86,-146.71 447.61,-139.94"/>
</g>
<!-- Node2&#45;&gt;Node17 -->
<g id="edge23" class="edge">
<title>Node2&#45;&gt;Node17</title>
<path fill="none" stroke="#63b8ff" d="M580.73,-182.33C528.61,-177.52 405.62,-164.4 305,-140 250,-126.67 188.2,-103.96 151.5,-89.62"/>
<polygon fill="#63b8ff" stroke="#63b8ff" points="152.94,-86.43 142.35,-86.01 150.37,-92.94 152.94,-86.43"/>
</g>
<!-- Node2&#45;&gt;Node18 -->
<g id="edge25" class="edge">
<title>Node2&#45;&gt;Node18</title>
<path fill="none" stroke="#63b8ff" d="M605.5,-175.69C605.24,-161.95 606.9,-135.48 622,-121 627.96,-115.28 724.86,-96.75 786.2,-85.48"/>
<polygon fill="#63b8ff" stroke="#63b8ff" points="786.51,-88.98 795.72,-83.74 785.25,-82.1 786.51,-88.98"/>
</g>
<!-- Node2&#45;&gt;Node21 -->
<g id="edge27" class="edge">
<title>Node2&#45;&gt;Node21</title>
<path fill="none" stroke="#63b8ff" d="M580.66,-182.12C534.94,-177.37 435.96,-164.94 356,-140 314.86,-127.17 269.96,-105.05 242.64,-90.6"/>
<polygon fill="#63b8ff" stroke="#63b8ff" points="244.54,-87.65 234.08,-86.01 241.23,-93.82 244.54,-87.65"/>
</g>
<!-- Node2&#45;&gt;Node22 -->
<g id="edge21" class="edge">
<title>Node2&#45;&gt;Node22</title>
<path fill="none" stroke="#63b8ff" d="M616.52,-175.51C625.39,-167.93 638.31,-156.88 648.99,-147.75"/>
<polygon fill="#63b8ff" stroke="#63b8ff" points="651.16,-150.5 656.49,-141.34 646.61,-145.18 651.16,-150.5"/>
</g>
<!-- Node2&#45;&gt;Node23 -->
<g id="edge22" class="edge">
<title>Node2&#45;&gt;Node23</title>
<path fill="none" stroke="#63b8ff" d="M631.26,-175.75C656.14,-167.13 694.4,-153.88 722.56,-144.12"/>
<polygon fill="#63b8ff" stroke="#63b8ff" points="723.45,-147.52 731.76,-140.94 721.16,-140.9 723.45,-147.52"/>
</g>
<!-- Node2&#45;&gt;Node24 -->
<g id="edge24" class="edge">
<title>Node2&#45;&gt;Node24</title>
<path fill="none" stroke="#63b8ff" d="M631.35,-179.13C671.25,-170.67 749.58,-154.06 802.38,-142.87"/>
<polygon fill="#63b8ff" stroke="#63b8ff" points="803.02,-146.31 812.08,-140.81 801.57,-139.46 803.02,-146.31"/>
</g>
<!-- Node2&#45;&gt;Node25 -->
<g id="edge26" class="edge">
<title>Node2&#45;&gt;Node25</title>
<path fill="none" stroke="#63b8ff" d="M631.17,-181.03C681.43,-174.05 798.01,-157.62 906.49,-140.37"/>
<polygon fill="#63b8ff" stroke="#63b8ff" points="906.82,-143.86 916.14,-138.83 905.72,-136.95 906.82,-143.86"/>
</g>
<!-- Node5 -->
<g id="node5" class="node">
<title>Node5</title>
<g id="a_node5"><a xlink:href="../../dd/d3a/common_8hpp.html" target="_top" xlink:title=" ">
<polygon fill="white" stroke="#666666" points="558,-85 478,-85 478,-66 558,-66 558,-85"/>
<text text-anchor="middle" x="518" y="-73" font-family="Helvetica,sans-Serif" font-size="10.00">../common.hpp</text>
</a>
</g>
</g>
<!-- Node4&#45;&gt;Node5 -->
<g id="edge4" class="edge">
<title>Node4&#45;&gt;Node5</title>
<path fill="none" stroke="#63b8ff" d="M420.85,-120.51C439.28,-112.16 466.98,-99.61 488.09,-90.05"/>
<polygon fill="#63b8ff" stroke="#63b8ff" points="489.4,-93.3 497.07,-85.98 486.51,-86.92 489.4,-93.3"/>
</g>
<!-- Node15 -->
<g id="node15" class="node">
<title>Node15</title>
<g id="a_node15"><a xlink:title=" ">
<polygon fill="#e0e0e0" stroke="#999999" points="690,-85 576,-85 576,-66 690,-66 690,-85"/>
<text text-anchor="middle" x="633" y="-73" font-family="Helvetica,sans-Serif" font-size="10.00">openssl/core_names.h</text>
</a>
</g>
</g>
<!-- Node4&#45;&gt;Node15 -->
<g id="edge14" class="edge">
<title>Node4&#45;&gt;Node15</title>
<path fill="none" stroke="#63b8ff" d="M437.25,-121.22C476.41,-112.27 539.06,-97.96 582.91,-87.94"/>
<polygon fill="#63b8ff" stroke="#63b8ff" points="583.46,-91.41 592.43,-85.77 581.9,-84.58 583.46,-91.41"/>
</g>
<!-- Node16 -->
<g id="node16" class="node">
<title>Node16</title>
<g id="a_node16"><a xlink:title=" ">
<polygon fill="#e0e0e0" stroke="#999999" points="779.5,-85 708.5,-85 708.5,-66 779.5,-66 779.5,-85"/>
<text text-anchor="middle" x="744" y="-73" font-family="Helvetica,sans-Serif" font-size="10.00">openssl/dh.h</text>
</a>
</g>
</g>
<!-- Node4&#45;&gt;Node16 -->
<g id="edge15" class="edge">
<title>Node4&#45;&gt;Node16</title>
<path fill="none" stroke="#63b8ff" d="M437.3,-123.22C441.91,-122.46 446.56,-121.7 451,-121 557.47,-104.22 587.25,-103.38 696.93,-85.28"/>
<polygon fill="#63b8ff" stroke="#63b8ff" points="697.38,-88.75 706.67,-83.66 696.23,-81.85 697.38,-88.75"/>
</g>
<!-- Node4&#45;&gt;Node17 -->
<g id="edge16" class="edge">
<title>Node4&#45;&gt;Node17</title>
<path fill="none" stroke="#63b8ff" d="M364.71,-122.68C315.58,-113.45 227.61,-96.91 171.33,-86.34"/>
<polygon fill="#63b8ff" stroke="#63b8ff" points="172.14,-82.93 161.67,-84.52 170.85,-89.81 172.14,-82.93"/>
</g>
<!-- Node4&#45;&gt;Node18 -->
<g id="edge17" class="edge">
<title>Node4&#45;&gt;Node18</title>
<path fill="none" stroke="#63b8ff" d="M437.28,-123.06C441.89,-122.32 446.55,-121.62 451,-121 596.57,-100.87 636.91,-105.88 785.63,-85.24"/>
<polygon fill="#63b8ff" stroke="#63b8ff" points="786.09,-88.71 795.5,-83.85 785.11,-81.77 786.09,-88.71"/>
</g>
<!-- Node19 -->
<g id="node19" class="node">
<title>Node19</title>
<g id="a_node19"><a xlink:title=" ">
<polygon fill="#e0e0e0" stroke="#999999" points="348,-85 274,-85 274,-66 348,-66 348,-85"/>
<text text-anchor="middle" x="311" y="-73" font-family="Helvetica,sans-Serif" font-size="10.00">openssl/kdf.h</text>
</a>
</g>
</g>
<!-- Node4&#45;&gt;Node19 -->
<g id="edge18" class="edge">
<title>Node4&#45;&gt;Node19</title>
<path fill="none" stroke="#63b8ff" d="M385.73,-120.51C372.07,-112.47 351.8,-100.53 335.82,-91.11"/>
<polygon fill="#63b8ff" stroke="#63b8ff" points="337.74,-88.18 327.35,-86.13 334.19,-94.22 337.74,-88.18"/>
</g>
<!-- Node20 -->
<g id="node20" class="node">
<title>Node20</title>
<g id="a_node20"><a xlink:title=" ">
<polygon fill="#e0e0e0" stroke="#999999" points="459.5,-85 366.5,-85 366.5,-66 459.5,-66 459.5,-85"/>
<text text-anchor="middle" x="413" y="-73" font-family="Helvetica,sans-Serif" font-size="10.00">openssl/params.h</text>
</a>
</g>
</g>
<!-- Node4&#45;&gt;Node20 -->
<g id="edge19" class="edge">
<title>Node4&#45;&gt;Node20</title>
<path fill="none" stroke="#63b8ff" d="M402.98,-120.75C404.47,-114.19 406.56,-104.95 408.45,-96.6"/>
<polygon fill="#63b8ff" stroke="#63b8ff" points="411.85,-97.44 410.64,-86.92 405.02,-95.9 411.85,-97.44"/>
</g>
<!-- Node4&#45;&gt;Node21 -->
<g id="edge20" class="edge">
<title>Node4&#45;&gt;Node21</title>
<path fill="none" stroke="#63b8ff" d="M369.79,-120.51C339.3,-111.73 292.68,-98.3 258.96,-88.59"/>
<polygon fill="#63b8ff" stroke="#63b8ff" points="260.09,-85.27 249.51,-85.87 258.15,-92 260.09,-85.27"/>
</g>
<!-- Node6 -->
<g id="node6" class="node">
<title>Node6</title>
<g id="a_node6"><a xlink:title=" ">
<polygon fill="#e0e0e0" stroke="#999999" points="104,-30 0,-30 0,0 104,0 104,-30"/>
<text text-anchor="start" x="8" y="-18" font-family="Helvetica,sans-Serif" font-size="10.00">boost/archive/binary</text>
<text text-anchor="middle" x="52" y="-7" font-family="Helvetica,sans-Serif" font-size="10.00">_iarchive.hpp</text>
</a>
</g>
</g>
<!-- Node5&#45;&gt;Node6 -->
<g id="edge5" class="edge">
<title>Node5&#45;&gt;Node6</title>
<path fill="none" stroke="#63b8ff" d="M477.65,-67.4C474.39,-66.9 471.14,-66.43 468,-66 314.38,-45.18 271.39,-55.31 115.42,-30.27"/>
<polygon fill="#63b8ff" stroke="#63b8ff" points="116.42,-26.88 105.98,-28.73 115.29,-33.79 116.42,-26.88"/>
</g>
<!-- Node7 -->
<g id="node7" class="node">
<title>Node7</title>
<g id="a_node7"><a xlink:title=" ">
<polygon fill="#e0e0e0" stroke="#999999" points="226,-30 122,-30 122,0 226,0 226,-30"/>
<text text-anchor="start" x="130" y="-18" font-family="Helvetica,sans-Serif" font-size="10.00">boost/archive/binary</text>
<text text-anchor="middle" x="174" y="-7" font-family="Helvetica,sans-Serif" font-size="10.00">_oarchive.hpp</text>
</a>
</g>
</g>
<!-- Node5&#45;&gt;Node7 -->
<g id="edge6" class="edge">
<title>Node5&#45;&gt;Node7</title>
<path fill="none" stroke="#63b8ff" d="M477.62,-67.58C474.37,-67.04 471.13,-66.51 468,-66 368.1,-49.79 339.82,-49.72 237.35,-30.37"/>
<polygon fill="#63b8ff" stroke="#63b8ff" points="238.16,-26.96 227.68,-28.52 236.85,-33.83 238.16,-26.96"/>
</g>
<!-- Node8 -->
<g id="node8" class="node">
<title>Node8</title>
<g id="a_node8"><a xlink:title=" ">
<polygon fill="#e0e0e0" stroke="#999999" points="339.5,-30 244.5,-30 244.5,0 339.5,0 339.5,-30"/>
<text text-anchor="start" x="252.5" y="-18" font-family="Helvetica,sans-Serif" font-size="10.00">boost/serialization</text>
<text text-anchor="middle" x="292" y="-7" font-family="Helvetica,sans-Serif" font-size="10.00">/base_object.hpp</text>
</a>
</g>
</g>
<!-- Node5&#45;&gt;Node8 -->
<g id="edge7" class="edge">
<title>Node5&#45;&gt;Node8</title>
<path fill="none" stroke="#63b8ff" d="M483.68,-65.62C448.42,-56.49 392.89,-42.12 350.65,-31.18"/>
<polygon fill="#63b8ff" stroke="#63b8ff" points="351.7,-27.84 341.14,-28.72 349.94,-34.61 351.7,-27.84"/>
</g>
<!-- Node9 -->
<g id="node9" class="node">
<title>Node9</title>
<g id="a_node9"><a xlink:title=" ">
<polygon fill="#e0e0e0" stroke="#999999" points="452.5,-30 357.5,-30 357.5,0 452.5,0 452.5,-30"/>
<text text-anchor="start" x="365.5" y="-18" font-family="Helvetica,sans-Serif" font-size="10.00">boost/serialization</text>
<text text-anchor="middle" x="405" y="-7" font-family="Helvetica,sans-Serif" font-size="10.00">/serialization.hpp</text>
</a>
</g>
</g>
<!-- Node5&#45;&gt;Node9 -->
<g id="edge8" class="edge">
<title>Node5&#45;&gt;Node9</title>
<path fill="none" stroke="#63b8ff" d="M500.84,-65.62C485.56,-57.7 462.65,-45.85 443.07,-35.71"/>
<polygon fill="#63b8ff" stroke="#63b8ff" points="444.73,-32.62 434.24,-31.14 441.51,-38.84 444.73,-32.62"/>
</g>
<!-- Node10 -->
<g id="node10" class="node">
<title>Node10</title>
<g id="a_node10"><a xlink:title=" ">
<polygon fill="#e0e0e0" stroke="#999999" points="565.5,-30 470.5,-30 470.5,0 565.5,0 565.5,-30"/>
<text text-anchor="start" x="478.5" y="-18" font-family="Helvetica,sans-Serif" font-size="10.00">boost/serialization</text>
<text text-anchor="middle" x="518" y="-7" font-family="Helvetica,sans-Serif" font-size="10.00">/vector.hpp</text>
</a>
</g>
</g>
<!-- Node5&#45;&gt;Node10 -->
<g id="edge9" class="edge">
<title>Node5&#45;&gt;Node10</title>
<path fill="none" stroke="#63b8ff" d="M518,-65.87C518,-59.4 518,-50.2 518,-41.45"/>
<polygon fill="#63b8ff" stroke="#63b8ff" points="521.5,-41.63 518,-31.63 514.5,-41.63 521.5,-41.63"/>
</g>
<!-- Node11 -->
<g id="node11" class="node">
<title>Node11</title>
<g id="a_node11"><a xlink:title=" ">
<polygon fill="#e0e0e0" stroke="#999999" points="724,-24.5 584,-24.5 584,-5.5 724,-5.5 724,-24.5"/>
<text text-anchor="middle" x="654" y="-12.5" font-family="Helvetica,sans-Serif" font-size="10.00">boost/endian/conversion.hpp</text>
</a>
</g>
</g>
<!-- Node5&#45;&gt;Node11 -->
<g id="edge10" class="edge">
<title>Node5&#45;&gt;Node11</title>
<path fill="none" stroke="#63b8ff" d="M538.66,-65.62C561.02,-55.99 596.96,-40.54 622.77,-29.43"/>
<polygon fill="#63b8ff" stroke="#63b8ff" points="623.96,-32.73 631.76,-25.57 621.19,-26.3 623.96,-32.73"/>
</g>
<!-- Node12 -->
<g id="node12" class="node">
<title>Node12</title>
<g id="a_node12"><a xlink:title=" ">
<polygon fill="#e0e0e0" stroke="#999999" points="791.5,-24.5 742.5,-24.5 742.5,-5.5 791.5,-5.5 791.5,-24.5"/>
<text text-anchor="middle" x="767" y="-12.5" font-family="Helvetica,sans-Serif" font-size="10.00">cstddef</text>
</a>
</g>
</g>
<!-- Node5&#45;&gt;Node12 -->
<g id="edge11" class="edge">
<title>Node5&#45;&gt;Node12</title>
<path fill="none" stroke="#63b8ff" d="M558.47,-67.06C611.33,-57.18 700.93,-39.83 733,-30 734.16,-29.64 735.33,-29.26 736.52,-28.87"/>
<polygon fill="#63b8ff" stroke="#63b8ff" points="737.53,-32.23 745.67,-25.45 735.08,-25.67 737.53,-32.23"/>
</g>
<!-- Node13 -->
<g id="node13" class="node">
<title>Node13</title>
<g id="a_node13"><a xlink:title=" ">
<polygon fill="#e0e0e0" stroke="#999999" points="848,-24.5 810,-24.5 810,-5.5 848,-5.5 848,-24.5"/>
<text text-anchor="middle" x="829" y="-12.5" font-family="Helvetica,sans-Serif" font-size="10.00">span</text>
</a>
</g>
</g>
<!-- Node5&#45;&gt;Node13 -->
<g id="edge12" class="edge">
<title>Node5&#45;&gt;Node13</title>
<path fill="none" stroke="#63b8ff" d="M558.37,-67.44C561.29,-66.94 564.19,-66.46 567,-66 670.4,-49.04 699.94,-61.12 800,-30 800.8,-29.75 801.61,-29.48 802.42,-29.2"/>
<polygon fill="#63b8ff" stroke="#63b8ff" points="803.51,-32.54 811.39,-25.45 800.81,-26.08 803.51,-32.54"/>
</g>
<!-- Node14 -->
<g id="node14" class="node">
<title>Node14</title>
<g id="a_node14"><a xlink:title=" ">
<polygon fill="#e0e0e0" stroke="#999999" points="910,-24.5 866,-24.5 866,-5.5 910,-5.5 910,-24.5"/>
<text text-anchor="middle" x="888" y="-12.5" font-family="Helvetica,sans-Serif" font-size="10.00">vector</text>
</a>
</g>
</g>
<!-- Node5&#45;&gt;Node14 -->
<g id="edge13" class="edge">
<title>Node5&#45;&gt;Node14</title>
<path fill="none" stroke="#63b8ff" d="M558.35,-67.34C561.28,-66.87 564.18,-66.42 567,-66 695.47,-46.9 731.96,-65.12 857,-30 857.99,-29.72 859,-29.41 860.01,-29.08"/>
<polygon fill="#63b8ff" stroke="#63b8ff" points="861.18,-32.38 869.23,-25.49 858.64,-25.86 861.18,-32.38"/>
</g>
</g>
</svg>
