<?xml version="1.0" encoding="UTF-8" standalone="no"?>
<!DOCTYPE svg PUBLIC "-//W3C//DTD SVG 1.1//EN"
 "http://www.w3.org/Graphics/SVG/1.1/DTD/svg11.dtd">
<!-- Generated by graphviz version 8.1.0 (20230707.0739)
 -->
<!-- Title: mal&#45;packet&#45;weaver/mal&#45;packet&#45;weaver/crypto/ecdsa.hpp Pages: 1 -->
<!--zoomable 282 -->

<svg id="main" version="1.1" xmlns="http://www.w3.org/2000/svg" xmlns:xlink="http://www.w3.org/1999/xlink" xml:space="preserve" onload="init(evt)">
<style type="text/css"><![CDATA[
.node, .edge {opacity: 0.7;}
.node.selected, .edge.selected {opacity: 1;}
.edge:hover path { stroke: red; }
.edge:hover polygon { stroke: red; fill: red; }
]]></style>

<defs>
  <circle id="rim" cx="0" cy="0" r="7"/>
  <circle id="rim2" cx="0" cy="0" r="3.5"/>
  <g id="zoomPlus">
    <use xlink:href="#rim" fill="#404040"><set attributeName="fill" to="#808080" begin="zoomplus.mouseover" end="zoomplus.mouseout"/></use>
    <path d="M-4,0h8M0,-4v8" fill="none" stroke="white" stroke-width="1.5" pointer-events="none"/>
  </g>
  <g id="zoomMin">
    <use xlink:href="#rim" fill="#404040"><set attributeName="fill" to="#808080" begin="zoomminus.mouseover" end="zoomminus.mouseout"/></use>
    <path d="M-4,0h8" fill="none" stroke="white" stroke-width="1.5" pointer-events="none"/>
  </g>
  <g id="arrowUp" transform="translate(30 24)">
    <use xlink:href="#rim"/>
    <path pointer-events="none" fill="none" stroke="white" stroke-width="1.5" d="M0,-3.0v7 M-2.5,-0.5L0,-3.0L2.5,-0.5"/>
  </g>
  <g id="arrowRight" transform="rotate(90) translate(36 -43)">
    <use xlink:href="#rim"/>
    <path pointer-events="none" fill="none" stroke="white" stroke-width="1.5" d="M0,-3.0v7 M-2.5,-0.5L0,-3.0L2.5,-0.5"/>
  </g>
  <g id="arrowDown" transform="rotate(180) translate(-30 -48)">
    <use xlink:href="#rim"/>
    <path pointer-events="none" fill="none" stroke="white" stroke-width="1.5" d="M0,-3.0v7 M-2.5,-0.5L0,-3.0L2.5,-0.5"/>
  </g>
  <g id="arrowLeft" transform="rotate(270) translate(-36 17)">
    <use xlink:href="#rim"/>
    <path pointer-events="none" fill="none" stroke="white" stroke-width="1.5" d="M0,-3.0v7 M-2.5,-0.5L0,-3.0L2.5,-0.5"/>
  </g>
  <g id="resetDef">
    <use xlink:href="#rim2" fill="#404040"><set attributeName="fill" to="#808080" begin="reset.mouseover" end="reset.mouseout"/></use>
  </g>
</defs>
<script type="application/ecmascript">
var viewWidth = 955;
var viewHeight = 282;
var sectionId = 'dynsection-0';
</script>
<script type="application/ecmascript" xlink:href="../../svg.min.js"/>
<svg id="graph" class="graph">
<g id="viewport">
<title>mal&#45;packet&#45;weaver/mal&#45;packet&#45;weaver/crypto/ecdsa.hpp</title>
<!-- Node1 -->
<g id="Node000001" class="node">
<title>Node1</title>
<g id="a_Node000001"><a xlink:title=" ">
<polygon fill="#999999" stroke="#666666" points="665,-274 557.5,-274 557.5,-232.25 665,-232.25 665,-274"/>
<text text-anchor="start" x="565.5" y="-260.5" font-family="Times,serif" font-size="10.00">mal&#45;packet&#45;weaver/mal</text>
<text text-anchor="start" x="565.5" y="-249.25" font-family="Times,serif" font-size="10.00">&#45;packet&#45;weaver/crypto</text>
<text text-anchor="middle" x="611.25" y="-238" font-family="Times,serif" font-size="10.00">/ecdsa.hpp</text>
</a>
</g>
</g>
<!-- Node2 -->
<g id="Node000002" class="node">
<title>Node2</title>
<g id="a_Node000002"><a xlink:href="../../d8/d6d/sha_8hpp.html" target="_top" xlink:title=" ">
<polygon fill="white" stroke="#666666" points="609,-196.25 561.5,-196.25 561.5,-177 609,-177 609,-196.25"/>
<text text-anchor="middle" x="585.25" y="-182.75" font-family="Times,serif" font-size="10.00">sha.hpp</text>
</a>
</g>
</g>
<!-- Node1&#45;&gt;Node2 -->
<g id="edge1_Node000001_Node000002" class="edge">
<title>Node1&#45;&gt;Node2</title>
<g id="a_edge1_Node000001_Node000002"><a xlink:title=" ">
<path fill="none" stroke="#63b8ff" d="M603.17,-232.07C599.92,-224.03 596.2,-214.8 593,-206.84"/>
<polygon fill="#63b8ff" stroke="#63b8ff" points="595.89,-205.66 588.91,-197.7 589.4,-208.28 595.89,-205.66"/>
</a>
</g>
</g>
<!-- Node17 -->
<g id="Node000017" class="node">
<title>Node17</title>
<g id="a_Node000017"><a xlink:title=" ">
<polygon fill="#e0e0e0" stroke="#999999" points="162.5,-85.75 88,-85.75 88,-66.5 162.5,-66.5 162.5,-85.75"/>
<text text-anchor="middle" x="125.25" y="-72.25" font-family="Times,serif" font-size="10.00">openssl/ecdh.h</text>
</a>
</g>
</g>
<!-- Node1&#45;&gt;Node17 -->
<g id="edge30_Node000001_Node000017" class="edge">
<title>Node1&#45;&gt;Node17</title>
<g id="a_edge30_Node000001_Node000017"><a xlink:title=" ">
<path fill="none" stroke="#63b8ff" d="M557.48,-242.41C507.78,-232.81 432.18,-216.63 368.25,-196.25 306.87,-176.69 291.96,-169.63 234.25,-141 203.75,-125.87 170.16,-105.6 148.45,-91.99"/>
<polygon fill="#63b8ff" stroke="#63b8ff" points="150.68,-88.63 140.36,-86.25 146.94,-94.55 150.68,-88.63"/>
</a>
</g>
</g>
<!-- Node18 -->
<g id="Node000018" class="node">
<title>Node18</title>
<g id="a_Node000018"><a xlink:title=" ">
<polygon fill="#e0e0e0" stroke="#999999" points="821.88,-85.75 752.62,-85.75 752.62,-66.5 821.88,-66.5 821.88,-85.75"/>
<text text-anchor="middle" x="787.25" y="-72.25" font-family="Times,serif" font-size="10.00">openssl/evp.h</text>
</a>
</g>
</g>
<!-- Node1&#45;&gt;Node18 -->
<g id="edge32_Node000001_Node000018" class="edge">
<title>Node1&#45;&gt;Node18</title>
<g id="a_edge32_Node000001_Node000018"><a xlink:title=" ">
<path fill="none" stroke="#63b8ff" d="M558.81,-231.86C503.33,-207.52 428.59,-164.6 466.25,-121.75 505.45,-77.15 666.64,-94.07 742.07,-85.72"/>
<polygon fill="#63b8ff" stroke="#63b8ff" points="742.12,-89.11 751.55,-84.3 741.17,-82.18 742.12,-89.11"/>
</a>
</g>
</g>
<!-- Node21 -->
<g id="Node000021" class="node">
<title>Node21</title>
<g id="a_Node000021"><a xlink:title=" ">
<polygon fill="#e0e0e0" stroke="#999999" points="249.5,-85.75 181,-85.75 181,-66.5 249.5,-66.5 249.5,-85.75"/>
<text text-anchor="middle" x="215.25" y="-72.25" font-family="Times,serif" font-size="10.00">openssl/sha.h</text>
</a>
</g>
</g>
<!-- Node1&#45;&gt;Node21 -->
<g id="edge34_Node000001_Node000021" class="edge">
<title>Node1&#45;&gt;Node21</title>
<g id="a_edge34_Node000001_Node000021"><a xlink:title=" ">
<path fill="none" stroke="#63b8ff" d="M557.22,-239.08C492.37,-222.1 381.6,-188.84 295.25,-141 271.38,-127.77 247.36,-107.43 231.96,-93.27"/>
<polygon fill="#63b8ff" stroke="#63b8ff" points="235.03,-91.41 225.35,-87.12 230.24,-96.52 235.03,-91.41"/>
</a>
</g>
</g>
<!-- Node22 -->
<g id="Node000022" class="node">
<title>Node22</title>
<g id="a_Node000022"><a xlink:title=" ">
<polygon fill="#e0e0e0" stroke="#999999" points="679.12,-141 611.38,-141 611.38,-121.75 679.12,-121.75 679.12,-141"/>
<text text-anchor="middle" x="645.25" y="-127.5" font-family="Times,serif" font-size="10.00">openssl/bio.h</text>
</a>
</g>
</g>
<!-- Node1&#45;&gt;Node22 -->
<g id="edge28_Node000001_Node000022" class="edge">
<title>Node1&#45;&gt;Node22</title>
<g id="a_edge28_Node000001_Node000022"><a xlink:title=" ">
<path fill="none" stroke="#63b8ff" d="M617.02,-231.81C623.38,-209.41 633.53,-173.64 639.77,-151.66"/>
<polygon fill="#63b8ff" stroke="#63b8ff" points="643.35,-152.88 642.71,-142.31 636.62,-150.97 643.35,-152.88"/>
</a>
</g>
</g>
<!-- Node23 -->
<g id="Node000023" class="node">
<title>Node23</title>
<g id="a_Node000023"><a xlink:title=" ">
<polygon fill="#e0e0e0" stroke="#999999" points="761.25,-141 697.25,-141 697.25,-121.75 761.25,-121.75 761.25,-141"/>
<text text-anchor="middle" x="729.25" y="-127.5" font-family="Times,serif" font-size="10.00">openssl/ec.h</text>
</a>
</g>
</g>
<!-- Node1&#45;&gt;Node23 -->
<g id="edge29_Node000001_Node000023" class="edge">
<title>Node1&#45;&gt;Node23</title>
<g id="a_edge29_Node000001_Node000023"><a xlink:title=" ">
<path fill="none" stroke="#63b8ff" d="M631.27,-231.81C654.25,-208.48 691.53,-170.65 712.87,-149"/>
<polygon fill="#63b8ff" stroke="#63b8ff" points="714.92,-151.88 719.45,-142.31 709.94,-146.97 714.92,-151.88"/>
</a>
</g>
</g>
<!-- Node24 -->
<g id="Node000024" class="node">
<title>Node24</title>
<g id="a_Node000024"><a xlink:title=" ">
<polygon fill="#e0e0e0" stroke="#999999" points="857,-141 779.5,-141 779.5,-121.75 857,-121.75 857,-141"/>
<text text-anchor="middle" x="818.25" y="-127.5" font-family="Times,serif" font-size="10.00">openssl/ecdsa.h</text>
</a>
</g>
</g>
<!-- Node1&#45;&gt;Node24 -->
<g id="edge31_Node000001_Node000024" class="edge">
<title>Node1&#45;&gt;Node24</title>
<g id="a_edge31_Node000001_Node000024"><a xlink:title=" ">
<path fill="none" stroke="#63b8ff" d="M646.36,-231.81C688.01,-207.72 756.4,-168.16 793.1,-146.92"/>
<polygon fill="#63b8ff" stroke="#63b8ff" points="794.66,-149.49 801.56,-141.45 791.15,-143.43 794.66,-149.49"/>
</a>
</g>
</g>
<!-- Node25 -->
<g id="Node000025" class="node">
<title>Node25</title>
<g id="a_Node000025"><a xlink:title=" ">
<polygon fill="#e0e0e0" stroke="#999999" points="947.38,-141 875.12,-141 875.12,-121.75 947.38,-121.75 947.38,-141"/>
<text text-anchor="middle" x="911.25" y="-127.5" font-family="Times,serif" font-size="10.00">openssl/pem.h</text>
</a>
</g>
</g>
<!-- Node1&#45;&gt;Node25 -->
<g id="edge33_Node000001_Node000025" class="edge">
<title>Node1&#45;&gt;Node25</title>
<g id="a_edge33_Node000001_Node000025"><a xlink:title=" ">
<path fill="none" stroke="#63b8ff" d="M662.14,-231.81C723.92,-207.15 826.29,-166.29 878.47,-145.46"/>
<polygon fill="#63b8ff" stroke="#63b8ff" points="879.52,-148.41 887.51,-141.45 876.93,-141.91 879.52,-148.41"/>
</a>
</g>
</g>
<!-- Node3 -->
<g id="Node000003" class="node">
<title>Node3</title>
<g id="a_Node000003"><a xlink:title=" ">
<polygon fill="#e0e0e0" stroke="#999999" points="554.75,-141 475.75,-141 475.75,-121.75 554.75,-121.75 554.75,-141"/>
<text text-anchor="middle" x="515.25" y="-127.5" font-family="Times,serif" font-size="10.00">../utils/utils.hpp</text>
</a>
</g>
</g>
<!-- Node2&#45;&gt;Node3 -->
<g id="edge2_Node000002_Node000003" class="edge">
<title>Node2&#45;&gt;Node3</title>
<g id="a_edge2_Node000002_Node000003"><a xlink:title=" ">
<path fill="none" stroke="#63b8ff" d="M573.38,-176.59C563.06,-168.74 547.88,-157.2 535.62,-147.87"/>
<polygon fill="#63b8ff" stroke="#63b8ff" points="538.03,-144.54 527.95,-141.27 533.79,-150.11 538.03,-144.54"/>
</a>
</g>
</g>
<!-- Node4 -->
<g id="Node000004" class="node">
<title>Node4</title>
<g id="a_Node000004"><a xlink:href="../../d7/d87/crypto_2common_8hpp.html" target="_top" xlink:title=" ">
<polygon fill="white" stroke="#666666" points="419.12,-141 351.38,-141 351.38,-121.75 419.12,-121.75 419.12,-141"/>
<text text-anchor="middle" x="385.25" y="-127.5" font-family="Times,serif" font-size="10.00">common.hpp</text>
</a>
</g>
</g>
<!-- Node2&#45;&gt;Node4 -->
<g id="edge3_Node000002_Node000004" class="edge">
<title>Node2&#45;&gt;Node4</title>
<g id="a_edge3_Node000002_Node000004"><a xlink:title=" ">
<path fill="none" stroke="#63b8ff" d="M561.13,-179.2C528.7,-170.57 470.45,-155.06 429.91,-144.27"/>
<polygon fill="#63b8ff" stroke="#63b8ff" points="431.06,-140.68 420.5,-141.49 429.26,-147.45 431.06,-140.68"/>
</a>
</g>
</g>
<!-- Node2&#45;&gt;Node17 -->
<g id="edge23_Node000002_Node000017" class="edge">
<title>Node2&#45;&gt;Node17</title>
<g id="a_edge23_Node000002_Node000017"><a xlink:title=" ">
<path fill="none" stroke="#63b8ff" d="M561.23,-183.62C511.12,-179.08 392.08,-166.35 295.25,-141 244.88,-127.81 188.76,-105.06 155.27,-90.57"/>
<polygon fill="#63b8ff" stroke="#63b8ff" points="156.79,-86.98 146.22,-86.18 153.98,-93.39 156.79,-86.98"/>
</a>
</g>
</g>
<!-- Node2&#45;&gt;Node18 -->
<g id="edge25_Node000002_Node000018" class="edge">
<title>Node2&#45;&gt;Node18</title>
<g id="a_edge25_Node000002_Node000018"><a xlink:title=" ">
<path fill="none" stroke="#63b8ff" d="M584.94,-176.81C584.97,-163.05 587.15,-136.5 602.25,-121.75 607.32,-116.8 688.79,-98.42 741.9,-86.85"/>
<polygon fill="#63b8ff" stroke="#63b8ff" points="742.42,-90.1 751.45,-84.56 740.93,-83.26 742.42,-90.1"/>
</a>
</g>
</g>
<!-- Node2&#45;&gt;Node21 -->
<g id="edge27_Node000002_Node000021" class="edge">
<title>Node2&#45;&gt;Node21</title>
<g id="a_edge27_Node000002_Node000021"><a xlink:title=" ">
<path fill="none" stroke="#63b8ff" d="M561.23,-183.5C516.96,-179.08 419.92,-167.07 342.25,-141 304.62,-128.37 264.14,-106.4 239.25,-91.81"/>
<polygon fill="#63b8ff" stroke="#63b8ff" points="241.28,-88.35 230.9,-86.24 237.7,-94.36 241.28,-88.35"/>
</a>
</g>
</g>
<!-- Node2&#45;&gt;Node22 -->
<g id="edge21_Node000002_Node000022" class="edge">
<title>Node2&#45;&gt;Node22</title>
<g id="a_edge21_Node000002_Node000022"><a xlink:title=" ">
<path fill="none" stroke="#63b8ff" d="M595.43,-176.59C604.1,-168.9 616.77,-157.65 627.17,-148.43"/>
<polygon fill="#63b8ff" stroke="#63b8ff" points="629.07,-151.53 634.22,-142.27 624.42,-146.29 629.07,-151.53"/>
</a>
</g>
</g>
<!-- Node2&#45;&gt;Node23 -->
<g id="edge22_Node000002_Node000023" class="edge">
<title>Node2&#45;&gt;Node23</title>
<g id="a_edge22_Node000002_Node000023"><a xlink:title=" ">
<path fill="none" stroke="#63b8ff" d="M609.35,-176.71C632.57,-168.12 667.96,-155.04 694.28,-145.31"/>
<polygon fill="#63b8ff" stroke="#63b8ff" points="695.42,-148.25 703.59,-141.5 692.99,-141.68 695.42,-148.25"/>
</a>
</g>
</g>
<!-- Node2&#45;&gt;Node24 -->
<g id="edge24_Node000002_Node000024" class="edge">
<title>Node2&#45;&gt;Node24</title>
<g id="a_edge24_Node000002_Node000024"><a xlink:title=" ">
<path fill="none" stroke="#63b8ff" d="M609.31,-180.13C646.71,-171.58 719.59,-154.92 768.6,-143.72"/>
<polygon fill="#63b8ff" stroke="#63b8ff" points="769.32,-146.92 778.29,-141.28 767.76,-140.1 769.32,-146.92"/>
</a>
</g>
</g>
<!-- Node2&#45;&gt;Node25 -->
<g id="edge26_Node000002_Node000025" class="edge">
<title>Node2&#45;&gt;Node25</title>
<g id="a_edge26_Node000002_Node000025"><a xlink:title=" ">
<path fill="none" stroke="#63b8ff" d="M609.35,-182.06C656.33,-175.06 763.7,-158.79 864.27,-141.3"/>
<polygon fill="#63b8ff" stroke="#63b8ff" points="864.67,-144.61 873.92,-139.44 863.47,-137.71 864.67,-144.61"/>
</a>
</g>
</g>
<!-- Node5 -->
<g id="Node000005" class="node">
<title>Node5</title>
<g id="a_Node000005"><a xlink:href="../../dd/d3a/common_8hpp.html" target="_top" xlink:title=" ">
<polygon fill="white" stroke="#666666" points="531.88,-85.75 456.62,-85.75 456.62,-66.5 531.88,-66.5 531.88,-85.75"/>
<text text-anchor="middle" x="494.25" y="-72.25" font-family="Times,serif" font-size="10.00">../common.hpp</text>
</a>
</g>
</g>
<!-- Node4&#45;&gt;Node5 -->
<g id="edge4_Node000004_Node000005" class="edge">
<title>Node4&#45;&gt;Node5</title>
<g id="a_edge4_Node000004_Node000005"><a xlink:title=" ">
<path fill="none" stroke="#63b8ff" d="M403.74,-121.34C420.81,-113 446.41,-100.5 466.03,-90.91"/>
<polygon fill="#63b8ff" stroke="#63b8ff" points="467.22,-93.74 474.67,-86.2 464.15,-87.45 467.22,-93.74"/>
</a>
</g>
</g>
<!-- Node15 -->
<g id="Node000015" class="node">
<title>Node15</title>
<g id="a_Node000015"><a xlink:title=" ">
<polygon fill="#e0e0e0" stroke="#999999" points="651,-85.75 549.5,-85.75 549.5,-66.5 651,-66.5 651,-85.75"/>
<text text-anchor="middle" x="600.25" y="-72.25" font-family="Times,serif" font-size="10.00">openssl/core_names.h</text>
</a>
</g>
</g>
<!-- Node4&#45;&gt;Node15 -->
<g id="edge14_Node000004_Node000015" class="edge">
<title>Node4&#45;&gt;Node15</title>
<g id="a_edge14_Node000004_Node000015"><a xlink:title=" ">
<path fill="none" stroke="#63b8ff" d="M419.32,-121.94C455.33,-113.02 512.39,-98.88 552.8,-88.88"/>
<polygon fill="#63b8ff" stroke="#63b8ff" points="553.6,-92.04 562.46,-86.24 551.91,-85.24 553.6,-92.04"/>
</a>
</g>
</g>
<!-- Node16 -->
<g id="Node000016" class="node">
<title>Node16</title>
<g id="a_Node000016"><a xlink:title=" ">
<polygon fill="#e0e0e0" stroke="#999999" points="735,-85.75 669.5,-85.75 669.5,-66.5 735,-66.5 735,-85.75"/>
<text text-anchor="middle" x="702.25" y="-72.25" font-family="Times,serif" font-size="10.00">openssl/dh.h</text>
</a>
</g>
</g>
<!-- Node4&#45;&gt;Node16 -->
<g id="edge15_Node000004_Node000016" class="edge">
<title>Node4&#45;&gt;Node16</title>
<g id="a_edge15_Node000004_Node000016"><a xlink:title=" ">
<path fill="none" stroke="#63b8ff" d="M419.58,-124.12C424.18,-123.31 428.83,-122.5 433.25,-121.75 530.63,-105.28 557.95,-104.09 658.62,-85.97"/>
<polygon fill="#63b8ff" stroke="#63b8ff" points="659.05,-89.27 668.26,-84.05 657.8,-82.39 659.05,-89.27"/>
</a>
</g>
</g>
<!-- Node4&#45;&gt;Node17 -->
<g id="edge16_Node000004_Node000017" class="edge">
<title>Node4&#45;&gt;Node17</title>
<g id="a_edge16_Node000004_Node000017"><a xlink:title=" ">
<path fill="none" stroke="#63b8ff" d="M350.99,-123.36C305.55,-114.05 225.08,-97.57 173.5,-87.01"/>
<polygon fill="#63b8ff" stroke="#63b8ff" points="174.46,-83.43 163.96,-84.85 173.05,-90.28 174.46,-83.43"/>
</a>
</g>
</g>
<!-- Node4&#45;&gt;Node18 -->
<g id="edge17_Node000004_Node000018" class="edge">
<title>Node4&#45;&gt;Node18</title>
<g id="a_edge17_Node000004_Node000018"><a xlink:title=" ">
<path fill="none" stroke="#63b8ff" d="M419.56,-123.94C424.15,-123.16 428.81,-122.41 433.25,-121.75 567.54,-101.93 604.99,-107.17 742.08,-85.98"/>
<polygon fill="#63b8ff" stroke="#63b8ff" points="742.22,-89.34 751.56,-84.34 741.14,-82.43 742.22,-89.34"/>
</a>
</g>
</g>
<!-- Node19 -->
<g id="Node000019" class="node">
<title>Node19</title>
<g id="a_Node000019"><a xlink:title=" ">
<polygon fill="#e0e0e0" stroke="#999999" points="336.5,-85.75 268,-85.75 268,-66.5 336.5,-66.5 336.5,-85.75"/>
<text text-anchor="middle" x="302.25" y="-72.25" font-family="Times,serif" font-size="10.00">openssl/kdf.h</text>
</a>
</g>
</g>
<!-- Node4&#45;&gt;Node19 -->
<g id="edge18_Node000004_Node000019" class="edge">
<title>Node4&#45;&gt;Node19</title>
<g id="a_edge18_Node000004_Node000019"><a xlink:title=" ">
<path fill="none" stroke="#63b8ff" d="M371.17,-121.34C358.65,-113.31 340.1,-101.41 325.4,-91.98"/>
<polygon fill="#63b8ff" stroke="#63b8ff" points="327.71,-88.66 317.4,-86.2 323.93,-94.55 327.71,-88.66"/>
</a>
</g>
</g>
<!-- Node20 -->
<g id="Node000020" class="node">
<title>Node20</title>
<g id="a_Node000020"><a xlink:title=" ">
<polygon fill="#e0e0e0" stroke="#999999" points="438.38,-85.75 354.12,-85.75 354.12,-66.5 438.38,-66.5 438.38,-85.75"/>
<text text-anchor="middle" x="396.25" y="-72.25" font-family="Times,serif" font-size="10.00">openssl/params.h</text>
</a>
</g>
</g>
<!-- Node4&#45;&gt;Node20 -->
<g id="edge19_Node000004_Node000020" class="edge">
<title>Node4&#45;&gt;Node20</title>
<g id="a_edge19_Node000004_Node000020"><a xlink:title=" ">
<path fill="none" stroke="#63b8ff" d="M387.07,-121.58C388.46,-114.84 390.44,-105.27 392.2,-96.74"/>
<polygon fill="#63b8ff" stroke="#63b8ff" points="395.8,-97.61 394.39,-87.11 388.94,-96.19 395.8,-97.61"/>
</a>
</g>
</g>
<!-- Node4&#45;&gt;Node21 -->
<g id="edge20_Node000004_Node000021" class="edge">
<title>Node4&#45;&gt;Node21</title>
<g id="a_edge20_Node000004_Node000021"><a xlink:title=" ">
<path fill="none" stroke="#63b8ff" d="M356.41,-121.34C328.45,-112.58 285.81,-99.23 254.71,-89.48"/>
<polygon fill="#63b8ff" stroke="#63b8ff" points="255.82,-85.85 245.23,-86.2 253.73,-92.53 255.82,-85.85"/>
</a>
</g>
</g>
<!-- Node6 -->
<g id="Node000006" class="node">
<title>Node6</title>
<g id="a_Node000006"><a xlink:title=" ">
<polygon fill="#e0e0e0" stroke="#999999" points="98.5,-30.5 0,-30.5 0,0 98.5,0 98.5,-30.5"/>
<text text-anchor="start" x="8" y="-17" font-family="Times,serif" font-size="10.00">boost/archive/binary</text>
<text text-anchor="middle" x="49.25" y="-5.75" font-family="Times,serif" font-size="10.00">_iarchive.hpp</text>
</a>
</g>
</g>
<!-- Node5&#45;&gt;Node6 -->
<g id="edge5_Node000005_Node000006" class="edge">
<title>Node5&#45;&gt;Node6</title>
<g id="a_edge5_Node000005_Node000006"><a xlink:title=" ">
<path fill="none" stroke="#63b8ff" d="M456.33,-67.91C453.26,-67.41 450.21,-66.93 447.25,-66.5 300.66,-45.3 259.39,-55.84 109.25,-30.5"/>
<polygon fill="#63b8ff" stroke="#63b8ff" points="110.17,-26.94 99.73,-28.7 108.99,-33.84 110.17,-26.94"/>
</a>
</g>
</g>
<!-- Node7 -->
<g id="Node000007" class="node">
<title>Node7</title>
<g id="a_Node000007"><a xlink:title=" ">
<polygon fill="#e0e0e0" stroke="#999999" points="215.5,-30.5 117,-30.5 117,0 215.5,0 215.5,-30.5"/>
<text text-anchor="start" x="125" y="-17" font-family="Times,serif" font-size="10.00">boost/archive/binary</text>
<text text-anchor="middle" x="166.25" y="-5.75" font-family="Times,serif" font-size="10.00">_oarchive.hpp</text>
</a>
</g>
</g>
<!-- Node5&#45;&gt;Node7 -->
<g id="edge6_Node000005_Node000007" class="edge">
<title>Node5&#45;&gt;Node7</title>
<g id="a_edge6_Node000005_Node000007"><a xlink:title=" ">
<path fill="none" stroke="#63b8ff" d="M456.3,-68.09C453.24,-67.54 450.19,-67.01 447.25,-66.5 351.7,-50.02 324.47,-50.44 226.53,-30.87"/>
<polygon fill="#63b8ff" stroke="#63b8ff" points="227.36,-27.27 216.86,-28.72 225.97,-34.13 227.36,-27.27"/>
</a>
</g>
</g>
<!-- Node8 -->
<g id="Node000008" class="node">
<title>Node8</title>
<g id="a_Node000008"><a xlink:title=" ">
<polygon fill="#e0e0e0" stroke="#999999" points="323,-30.5 233.5,-30.5 233.5,0 323,0 323,-30.5"/>
<text text-anchor="start" x="241.5" y="-17" font-family="Times,serif" font-size="10.00">boost/serialization</text>
<text text-anchor="middle" x="278.25" y="-5.75" font-family="Times,serif" font-size="10.00">/base_object.hpp</text>
</a>
</g>
</g>
<!-- Node5&#45;&gt;Node8 -->
<g id="edge7_Node000005_Node000008" class="edge">
<title>Node5&#45;&gt;Node8</title>
<g id="a_edge7_Node000005_Node000008"><a xlink:title=" ">
<path fill="none" stroke="#63b8ff" d="M460.97,-66.05C427.08,-56.82 373.93,-42.33 333.67,-31.36"/>
<polygon fill="#63b8ff" stroke="#63b8ff" points="334.78,-27.76 324.21,-28.5 332.94,-34.51 334.78,-27.76"/>
</a>
</g>
</g>
<!-- Node9 -->
<g id="Node000009" class="node">
<title>Node9</title>
<g id="a_Node000009"><a xlink:title=" ">
<polygon fill="#e0e0e0" stroke="#999999" points="431,-30.5 341.5,-30.5 341.5,0 431,0 431,-30.5"/>
<text text-anchor="start" x="349.5" y="-17" font-family="Times,serif" font-size="10.00">boost/serialization</text>
<text text-anchor="middle" x="386.25" y="-5.75" font-family="Times,serif" font-size="10.00">/serialization.hpp</text>
</a>
</g>
</g>
<!-- Node5&#45;&gt;Node9 -->
<g id="edge8_Node000005_Node000009" class="edge">
<title>Node5&#45;&gt;Node9</title>
<g id="a_edge8_Node000005_Node000009"><a xlink:title=" ">
<path fill="none" stroke="#63b8ff" d="M477.85,-66.18C463.17,-58.18 441.15,-46.18 422.37,-35.94"/>
<polygon fill="#63b8ff" stroke="#63b8ff" points="424.36,-32.5 413.91,-30.78 421.01,-38.64 424.36,-32.5"/>
</a>
</g>
</g>
<!-- Node10 -->
<g id="Node000010" class="node">
<title>Node10</title>
<g id="a_Node000010"><a xlink:title=" ">
<polygon fill="#e0e0e0" stroke="#999999" points="539,-30.5 449.5,-30.5 449.5,0 539,0 539,-30.5"/>
<text text-anchor="start" x="457.5" y="-17" font-family="Times,serif" font-size="10.00">boost/serialization</text>
<text text-anchor="middle" x="494.25" y="-5.75" font-family="Times,serif" font-size="10.00">/vector.hpp</text>
</a>
</g>
</g>
<!-- Node5&#45;&gt;Node10 -->
<g id="edge9_Node000005_Node000010" class="edge">
<title>Node5&#45;&gt;Node10</title>
<g id="a_edge9_Node000005_Node000010"><a xlink:title=" ">
<path fill="none" stroke="#63b8ff" d="M494.25,-66.18C494.25,-59.65 494.25,-50.45 494.25,-41.72"/>
<polygon fill="#63b8ff" stroke="#63b8ff" points="497.75,-41.78 494.25,-31.78 490.75,-41.78 497.75,-41.78"/>
</a>
</g>
</g>
<!-- Node11 -->
<g id="Node000011" class="node">
<title>Node11</title>
<g id="a_Node000011"><a xlink:title=" ">
<polygon fill="#e0e0e0" stroke="#999999" points="687.62,-24.88 556.88,-24.88 556.88,-5.63 687.62,-5.63 687.62,-24.88"/>
<text text-anchor="middle" x="622.25" y="-11.38" font-family="Times,serif" font-size="10.00">boost/endian/conversion.hpp</text>
</a>
</g>
</g>
<!-- Node5&#45;&gt;Node11 -->
<g id="edge10_Node000005_Node000011" class="edge">
<title>Node5&#45;&gt;Node11</title>
<g id="a_edge10_Node000005_Node000011"><a xlink:title=" ">
<path fill="none" stroke="#63b8ff" d="M513.97,-66.05C535.08,-56.35 568.79,-40.84 592.99,-29.71"/>
<polygon fill="#63b8ff" stroke="#63b8ff" points="594.1,-32.59 601.72,-25.23 591.17,-26.23 594.1,-32.59"/>
</a>
</g>
</g>
<!-- Node12 -->
<g id="Node000012" class="node">
<title>Node12</title>
<g id="a_Node000012"><a xlink:title=" ">
<polygon fill="#e0e0e0" stroke="#999999" points="751.25,-24.88 705.25,-24.88 705.25,-5.63 751.25,-5.63 751.25,-24.88"/>
<text text-anchor="middle" x="728.25" y="-11.38" font-family="Times,serif" font-size="10.00">cstddef</text>
</a>
</g>
</g>
<!-- Node5&#45;&gt;Node12 -->
<g id="edge11_Node000005_Node000012" class="edge">
<title>Node5&#45;&gt;Node12</title>
<g id="a_edge11_Node000005_Node000012"><a xlink:title=" ">
<path fill="none" stroke="#63b8ff" d="M532.31,-67.67C582.01,-57.77 666.23,-40.39 696.25,-30.5 697.35,-30.14 698.46,-29.75 699.57,-29.35"/>
<polygon fill="#63b8ff" stroke="#63b8ff" points="700.58,-32.31 708.55,-25.33 697.96,-25.82 700.58,-32.31"/>
</a>
</g>
</g>
<!-- Node13 -->
<g id="Node000013" class="node">
<title>Node13</title>
<g id="a_Node000013"><a xlink:title=" ">
<polygon fill="#e0e0e0" stroke="#999999" points="803.62,-24.88 768.88,-24.88 768.88,-5.63 803.62,-5.63 803.62,-24.88"/>
<text text-anchor="middle" x="786.25" y="-11.38" font-family="Times,serif" font-size="10.00">span</text>
</a>
</g>
</g>
<!-- Node5&#45;&gt;Node13 -->
<g id="edge12_Node000005_Node000013" class="edge">
<title>Node5&#45;&gt;Node13</title>
<g id="a_edge12_Node000005_Node000013"><a xlink:title=" ">
<path fill="none" stroke="#63b8ff" d="M531.89,-67.99C534.72,-67.48 537.53,-66.98 540.25,-66.5 637.84,-49.37 666.58,-62.77 760.25,-30.5 760.86,-30.29 761.47,-30.07 762.08,-29.83"/>
<polygon fill="#63b8ff" stroke="#63b8ff" points="763.22,-32.7 770.8,-25.29 760.26,-26.35 763.22,-32.7"/>
</a>
</g>
</g>
<!-- Node14 -->
<g id="Node000014" class="node">
<title>Node14</title>
<g id="a_Node000014"><a xlink:title=" ">
<polygon fill="#e0e0e0" stroke="#999999" points="862.62,-24.88 821.88,-24.88 821.88,-5.63 862.62,-5.63 862.62,-24.88"/>
<text text-anchor="middle" x="842.25" y="-11.38" font-family="Times,serif" font-size="10.00">vector</text>
</a>
</g>
</g>
<!-- Node5&#45;&gt;Node14 -->
<g id="edge13_Node000005_Node000014" class="edge">
<title>Node5&#45;&gt;Node14</title>
<g id="a_edge13_Node000005_Node000014"><a xlink:title=" ">
<path fill="none" stroke="#63b8ff" d="M531.88,-67.9C534.71,-67.41 537.52,-66.94 540.25,-66.5 660.67,-47.26 695.31,-65.08 812.25,-30.5 813.36,-30.17 814.47,-29.81 815.59,-29.42"/>
<polygon fill="#63b8ff" stroke="#63b8ff" points="816.57,-32.39 824.48,-25.34 813.9,-25.92 816.57,-32.39"/>
</a>
</g>
</g>
</g>
</svg>

<g id="navigator" transform="translate(0 0)" fill="#404254">
  <rect fill="#f2f5e9" fill-opacity="0.5" stroke="#606060" stroke-width=".5" x="0" y="0" width="60" height="60"/>
  <use id="zoomplus" xlink:href="#zoomPlus" x="17" y="9" onmousedown="handleZoom(evt,'in')"/>
  <use id="zoomminus" xlink:href="#zoomMin" x="42" y="9" onmousedown="handleZoom(evt,'out')"/>
  <use id="reset" xlink:href="#resetDef" x="30" y="36" onmousedown="handleReset()"/>
   <use id="arrowup" xlink:href="#arrowUp" x="0" y="0" onmousedown="handlePan(0,-1)"/>
  <use id="arrowright" xlink:href="#arrowRight" x="0" y="0" onmousedown="handlePan(1,0)"/>
  <use id="arrowdown" xlink:href="#arrowDown" x="0" y="0" onmousedown="handlePan(0,1)"/>
  <use id="arrowleft" xlink:href="#arrowLeft" x="0" y="0" onmousedown="handlePan(-1,0)"/>
</g>
<svg viewBox="0 0 15 15" width="100%" height="30px" preserveAspectRatio="xMaxYMin meet">
 <g id="arrow_out" transform="scale(0.3 0.3)">
  <a xlink:href="ecdsa_8hpp__incl_org.svg" target="_base">
   <rect id="button" ry="5" rx="5" y="6" x="6" height="38" width="38"
        fill="#f2f5e9" fill-opacity="0.5" stroke="#606060" stroke-width="1.0"/>
   <path id="arrow"
     d="M 11.500037,31.436501 C 11.940474,20.09759 22.043105,11.32322 32.158766,21.979434 L 37.068811,17.246167 C 37.068811,17.246167 37.088388,32 37.088388,32 L 22.160133,31.978069 C 22.160133,31.978069 26.997745,27.140456 26.997745,27.140456 C 18.528582,18.264221 13.291696,25.230495 11.500037,31.436501 z"
     style="fill:#404040;"/>
  </a>
 </g>
</svg>

<style type='text/css'>
<![CDATA[
[data-mouse-over-selected='false'] { opacity: 0.7; }
[data-mouse-over-selected='true']  { opacity: 1.0; }
]]>
</style>
<script type="application/ecmascript"><![CDATA[
document.addEventListener('DOMContentLoaded', (event) => {
  highlightEdges();
  highlightAdjacentNodes();
});
]]></script>
</svg>
