<?xml version="1.0" encoding="UTF-8" standalone="no"?>
<!DOCTYPE svg PUBLIC "-//W3C//DTD SVG 1.1//EN"
 "http://www.w3.org/Graphics/SVG/1.1/DTD/svg11.dtd">
<!-- Generated by graphviz version 7.0.5 (20221223.1930)
 -->
<!-- Title: mal&#45;packet&#45;weaver/mal&#45;packet&#45;weaver/session.inl Pages: 1 -->
<svg width="2487pt" height="335pt"
 viewBox="0.00 0.00 2486.88 335.00" xmlns="http://www.w3.org/2000/svg" xmlns:xlink="http://www.w3.org/1999/xlink">
<g id="graph0" class="graph" transform="scale(1 1) rotate(0) translate(4 331)">
<title>mal&#45;packet&#45;weaver/mal&#45;packet&#45;weaver/session.inl</title>
<!-- Node1 -->
<g id="node1" class="node">
<title>Node1</title>
<g id="a_node1"><a xlink:title=" ">
<polygon fill="#999999" stroke="#666666" points="1361.38,-327 1229.38,-327 1229.38,-297 1361.38,-297 1361.38,-327"/>
<text text-anchor="start" x="1237.38" y="-315" font-family="Helvetica,sans-Serif" font-size="10.00">mal&#45;packet&#45;weaver/mal</text>
<text text-anchor="middle" x="1295.38" y="-304" font-family="Helvetica,sans-Serif" font-size="10.00">&#45;packet&#45;weaver/session.inl</text>
</a>
</g>
</g>
<!-- Node2 -->
<g id="node2" class="node">
<title>Node2</title>
<g id="a_node2"><a xlink:href="../../d4/d5e/session_8hpp.html" target="_top" xlink:title=" ">
<polygon fill="white" stroke="#666666" points="1329.38,-261 1261.38,-261 1261.38,-242 1329.38,-242 1329.38,-261"/>
<text text-anchor="middle" x="1295.38" y="-249" font-family="Helvetica,sans-Serif" font-size="10.00">session.hpp</text>
</a>
</g>
</g>
<!-- Node1&#45;&gt;Node2 -->
<g id="edge1" class="edge">
<title>Node1&#45;&gt;Node2</title>
<path fill="none" stroke="#63b8ff" d="M1289.47,-296.54C1288.57,-289.26 1288.39,-280.31 1288.95,-272.39"/>
<polygon fill="#63b8ff" stroke="#63b8ff" points="1292.39,-273.05 1290.22,-262.68 1285.45,-272.14 1292.39,-273.05"/>
</g>
<!-- Node2&#45;&gt;Node1 -->
<g id="edge36" class="edge">
<title>Node2&#45;&gt;Node1</title>
<path fill="none" stroke="#63b8ff" d="M1300.35,-261.18C1301.72,-267.58 1302.3,-276.65 1302.09,-285.3"/>
<polygon fill="#63b8ff" stroke="#63b8ff" points="1298.61,-284.81 1301.4,-295.03 1305.6,-285.3 1298.61,-284.81"/>
</g>
<!-- Node3 -->
<g id="node3" class="node">
<title>Node3</title>
<g id="a_node3"><a xlink:title=" ">
<polygon fill="#e0e0e0" stroke="#999999" points="884.38,-145.5 828.38,-145.5 828.38,-126.5 884.38,-126.5 884.38,-145.5"/>
<text text-anchor="middle" x="856.38" y="-133.5" font-family="Helvetica,sans-Serif" font-size="10.00">algorithm</text>
</a>
</g>
</g>
<!-- Node2&#45;&gt;Node3 -->
<g id="edge2" class="edge">
<title>Node2&#45;&gt;Node3</title>
<path fill="none" stroke="#63b8ff" d="M1261.17,-250.65C1061.04,-251.33 49.3,-252.5 4.38,-206 -1.49,-199.93 -1.41,-193.14 4.38,-187 32.59,-157.09 652.29,-141.46 816.66,-137.83"/>
<polygon fill="#63b8ff" stroke="#63b8ff" points="816.69,-141.33 826.62,-137.61 816.54,-134.33 816.69,-141.33"/>
</g>
<!-- Node4 -->
<g id="node4" class="node">
<title>Node4</title>
<g id="a_node4"><a xlink:title=" ">
<polygon fill="#e0e0e0" stroke="#999999" points="137.38,-206 13.38,-206 13.38,-187 137.38,-187 137.38,-206"/>
<text text-anchor="middle" x="75.38" y="-194" font-family="Helvetica,sans-Serif" font-size="10.00">boost/asio/awaitable.hpp</text>
</a>
</g>
</g>
<!-- Node2&#45;&gt;Node4 -->
<g id="edge3" class="edge">
<title>Node2&#45;&gt;Node4</title>
<path fill="none" stroke="#63b8ff" d="M1261.01,-250.18C1122.88,-248.67 594.56,-240.88 148.87,-206.13"/>
<polygon fill="#63b8ff" stroke="#63b8ff" points="149.44,-202.66 139.2,-205.37 148.9,-209.64 149.44,-202.66"/>
</g>
<!-- Node5 -->
<g id="node5" class="node">
<title>Node5</title>
<g id="a_node5"><a xlink:title=" ">
<polygon fill="#e0e0e0" stroke="#999999" points="282.88,-206 155.88,-206 155.88,-187 282.88,-187 282.88,-206"/>
<text text-anchor="middle" x="219.38" y="-194" font-family="Helvetica,sans-Serif" font-size="10.00">boost/asio/co_spawn.hpp</text>
</a>
</g>
</g>
<!-- Node2&#45;&gt;Node5 -->
<g id="edge4" class="edge">
<title>Node2&#45;&gt;Node5</title>
<path fill="none" stroke="#63b8ff" d="M1261.12,-249.87C1134.47,-247.35 680.56,-236.66 294.46,-206.1"/>
<polygon fill="#63b8ff" stroke="#63b8ff" points="294.81,-202.61 284.57,-205.31 294.26,-209.59 294.81,-202.61"/>
</g>
<!-- Node6 -->
<g id="node6" class="node">
<title>Node6</title>
<g id="a_node6"><a xlink:title=" ">
<polygon fill="#e0e0e0" stroke="#999999" points="423.38,-206 301.38,-206 301.38,-187 423.38,-187 423.38,-206"/>
<text text-anchor="middle" x="362.38" y="-194" font-family="Helvetica,sans-Serif" font-size="10.00">boost/asio/detached.hpp</text>
</a>
</g>
</g>
<!-- Node2&#45;&gt;Node6 -->
<g id="edge5" class="edge">
<title>Node2&#45;&gt;Node6</title>
<path fill="none" stroke="#63b8ff" d="M1261.2,-249.59C1146.24,-246.35 762.86,-234.07 434.97,-206.16"/>
<polygon fill="#63b8ff" stroke="#63b8ff" points="435.59,-202.7 425.33,-205.33 434.99,-209.68 435.59,-202.7"/>
</g>
<!-- Node7 -->
<g id="node7" class="node">
<title>Node7</title>
<g id="a_node7"><a xlink:title=" ">
<polygon fill="#e0e0e0" stroke="#999999" points="548.88,-206 441.88,-206 441.88,-187 548.88,-187 548.88,-206"/>
<text text-anchor="middle" x="495.38" y="-194" font-family="Helvetica,sans-Serif" font-size="10.00">boost/asio/ip/tcp.hpp</text>
</a>
</g>
</g>
<!-- Node2&#45;&gt;Node7 -->
<g id="edge6" class="edge">
<title>Node2&#45;&gt;Node7</title>
<path fill="none" stroke="#63b8ff" d="M1261.1,-249.36C1157.2,-245.71 836.48,-233 560.17,-206.2"/>
<polygon fill="#63b8ff" stroke="#63b8ff" points="560.92,-202.76 550.63,-205.27 560.24,-209.73 560.92,-202.76"/>
</g>
<!-- Node8 -->
<g id="node8" class="node">
<title>Node8</title>
<g id="a_node8"><a xlink:title=" ">
<polygon fill="#e0e0e0" stroke="#999999" points="667.88,-206 566.88,-206 566.88,-187 667.88,-187 667.88,-206"/>
<text text-anchor="middle" x="617.38" y="-194" font-family="Helvetica,sans-Serif" font-size="10.00">boost/asio/read.hpp</text>
</a>
</g>
</g>
<!-- Node2&#45;&gt;Node8 -->
<g id="edge7" class="edge">
<title>Node2&#45;&gt;Node8</title>
<path fill="none" stroke="#63b8ff" d="M1261.08,-248.89C1168.79,-244.39 907.27,-230.43 679.37,-206.25"/>
<polygon fill="#63b8ff" stroke="#63b8ff" points="680.02,-202.8 669.71,-205.22 679.28,-209.76 680.02,-202.8"/>
</g>
<!-- Node9 -->
<g id="node9" class="node">
<title>Node9</title>
<g id="a_node9"><a xlink:title=" ">
<polygon fill="#e0e0e0" stroke="#999999" points="796.88,-206 685.88,-206 685.88,-187 796.88,-187 796.88,-206"/>
<text text-anchor="middle" x="741.38" y="-194" font-family="Helvetica,sans-Serif" font-size="10.00">boost/asio/spawn.hpp</text>
</a>
</g>
</g>
<!-- Node2&#45;&gt;Node9 -->
<g id="edge8" class="edge">
<title>Node2&#45;&gt;Node9</title>
<path fill="none" stroke="#63b8ff" d="M1260.95,-247.83C1182.69,-241.68 985.21,-225.57 808.38,-206.18"/>
<polygon fill="#63b8ff" stroke="#63b8ff" points="808.86,-202.71 798.54,-205.09 808.09,-209.67 808.86,-202.71"/>
</g>
<!-- Node10 -->
<g id="node10" class="node">
<title>Node10</title>
<g id="a_node10"><a xlink:title=" ">
<polygon fill="#e0e0e0" stroke="#999999" points="941.38,-206 815.38,-206 815.38,-187 941.38,-187 941.38,-206"/>
<text text-anchor="middle" x="878.38" y="-194" font-family="Helvetica,sans-Serif" font-size="10.00">boost/asio/streambuf.hpp</text>
</a>
</g>
</g>
<!-- Node2&#45;&gt;Node10 -->
<g id="edge9" class="edge">
<title>Node2&#45;&gt;Node10</title>
<path fill="none" stroke="#63b8ff" d="M1260.9,-246.12C1193.72,-237.58 1043.94,-218.54 953.01,-206.98"/>
<polygon fill="#63b8ff" stroke="#63b8ff" points="953.54,-203.52 943.18,-205.74 952.66,-210.47 953.54,-203.52"/>
</g>
<!-- Node11 -->
<g id="node11" class="node">
<title>Node11</title>
<g id="a_node11"><a xlink:title=" ">
<polygon fill="#e0e0e0" stroke="#999999" points="1063.38,-206 959.38,-206 959.38,-187 1063.38,-187 1063.38,-206"/>
<text text-anchor="middle" x="1011.38" y="-194" font-family="Helvetica,sans-Serif" font-size="10.00">boost/asio/write.hpp</text>
</a>
</g>
</g>
<!-- Node2&#45;&gt;Node11 -->
<g id="edge10" class="edge">
<title>Node2&#45;&gt;Node11</title>
<path fill="none" stroke="#63b8ff" d="M1261.13,-244.11C1213.96,-235.31 1128.33,-219.32 1070.65,-208.56"/>
<polygon fill="#63b8ff" stroke="#63b8ff" points="1071.47,-205.15 1061,-206.76 1070.19,-212.03 1071.47,-205.15"/>
</g>
<!-- Node12 -->
<g id="node12" class="node">
<title>Node12</title>
<g id="a_node12"><a xlink:title=" ">
<polygon fill="#e0e0e0" stroke="#999999" points="1221.38,-206 1081.38,-206 1081.38,-187 1221.38,-187 1221.38,-206"/>
<text text-anchor="middle" x="1151.38" y="-194" font-family="Helvetica,sans-Serif" font-size="10.00">boost/endian/conversion.hpp</text>
</a>
</g>
</g>
<!-- Node2&#45;&gt;Node12 -->
<g id="edge11" class="edge">
<title>Node2&#45;&gt;Node12</title>
<path fill="none" stroke="#63b8ff" d="M1270.95,-241.51C1247.64,-232.93 1212.29,-219.92 1186.07,-210.27"/>
<polygon fill="#63b8ff" stroke="#63b8ff" points="1187.46,-207.05 1176.87,-206.88 1185.04,-213.62 1187.46,-207.05"/>
</g>
<!-- Node13 -->
<g id="node13" class="node">
<title>Node13</title>
<g id="a_node13"><a xlink:title=" ">
<polygon fill="#e0e0e0" stroke="#999999" points="1351.38,-206 1239.38,-206 1239.38,-187 1351.38,-187 1351.38,-206"/>
<text text-anchor="middle" x="1295.38" y="-194" font-family="Helvetica,sans-Serif" font-size="10.00">boost/range/begin.hpp</text>
</a>
</g>
</g>
<!-- Node2&#45;&gt;Node13 -->
<g id="edge12" class="edge">
<title>Node2&#45;&gt;Node13</title>
<path fill="none" stroke="#63b8ff" d="M1295.38,-241.75C1295.38,-235.27 1295.38,-226.16 1295.38,-217.9"/>
<polygon fill="#63b8ff" stroke="#63b8ff" points="1298.88,-217.96 1295.38,-207.96 1291.88,-217.96 1298.88,-217.96"/>
</g>
<!-- Node14 -->
<g id="node14" class="node">
<title>Node14</title>
<g id="a_node14"><a xlink:title=" ">
<polygon fill="#e0e0e0" stroke="#999999" points="1473.38,-206 1369.38,-206 1369.38,-187 1473.38,-187 1473.38,-206"/>
<text text-anchor="middle" x="1421.38" y="-194" font-family="Helvetica,sans-Serif" font-size="10.00">boost/range/end.hpp</text>
</a>
</g>
</g>
<!-- Node2&#45;&gt;Node14 -->
<g id="edge13" class="edge">
<title>Node2&#45;&gt;Node14</title>
<path fill="none" stroke="#63b8ff" d="M1316.76,-241.51C1336.79,-233.08 1366.98,-220.38 1389.8,-210.79"/>
<polygon fill="#63b8ff" stroke="#63b8ff" points="1391.07,-214.05 1398.93,-206.94 1388.35,-207.6 1391.07,-214.05"/>
</g>
<!-- Node15 -->
<g id="node15" class="node">
<title>Node15</title>
<g id="a_node15"><a xlink:title=" ">
<polygon fill="#e0e0e0" stroke="#999999" points="1542.88,-206 1491.88,-206 1491.88,-187 1542.88,-187 1542.88,-206"/>
<text text-anchor="middle" x="1517.38" y="-194" font-family="Helvetica,sans-Serif" font-size="10.00">memory</text>
</a>
</g>
</g>
<!-- Node2&#45;&gt;Node15 -->
<g id="edge14" class="edge">
<title>Node2&#45;&gt;Node15</title>
<path fill="none" stroke="#63b8ff" d="M1329.86,-242.35C1365.19,-233.98 1422.01,-220.49 1480.46,-206.45"/>
<polygon fill="#63b8ff" stroke="#63b8ff" points="1481.01,-209.92 1489.92,-204.18 1479.38,-203.11 1481.01,-209.92"/>
</g>
<!-- Node16 -->
<g id="node16" class="node">
<title>Node16</title>
<g id="a_node16"><a xlink:title=" ">
<polygon fill="#e0e0e0" stroke="#999999" points="1603.88,-206 1560.88,-206 1560.88,-187 1603.88,-187 1603.88,-206"/>
<text text-anchor="middle" x="1582.38" y="-194" font-family="Helvetica,sans-Serif" font-size="10.00">mutex</text>
</a>
</g>
</g>
<!-- Node2&#45;&gt;Node16 -->
<g id="edge15" class="edge">
<title>Node2&#45;&gt;Node16</title>
<path fill="none" stroke="#63b8ff" d="M1329.54,-245.62C1376.75,-238.66 1464.78,-224.84 1549.34,-206.27"/>
<polygon fill="#63b8ff" stroke="#63b8ff" points="1549.95,-209.71 1558.95,-204.13 1548.43,-202.88 1549.95,-209.71"/>
</g>
<!-- Node17 -->
<g id="node17" class="node">
<title>Node17</title>
<g id="a_node17"><a xlink:title=" ">
<polygon fill="#e0e0e0" stroke="#999999" points="1664.88,-206 1621.88,-206 1621.88,-187 1664.88,-187 1664.88,-206"/>
<text text-anchor="middle" x="1643.38" y="-194" font-family="Helvetica,sans-Serif" font-size="10.00">queue</text>
</a>
</g>
</g>
<!-- Node2&#45;&gt;Node17 -->
<g id="edge16" class="edge">
<title>Node2&#45;&gt;Node17</title>
<path fill="none" stroke="#63b8ff" d="M1329.87,-247.12C1386.43,-241.27 1502.56,-227.93 1610.37,-206.16"/>
<polygon fill="#63b8ff" stroke="#63b8ff" points="1610.88,-209.63 1619.97,-204.19 1609.47,-202.77 1610.88,-209.63"/>
</g>
<!-- Node18 -->
<g id="node18" class="node">
<title>Node18</title>
<g id="a_node18"><a xlink:title=" ">
<polygon fill="#e0e0e0" stroke="#999999" points="1807.88,-206 1682.88,-206 1682.88,-187 1807.88,-187 1807.88,-206"/>
<text text-anchor="middle" x="1745.38" y="-194" font-family="Helvetica,sans-Serif" font-size="10.00">boost/lockfree/queue.hpp</text>
</a>
</g>
</g>
<!-- Node2&#45;&gt;Node18 -->
<g id="edge17" class="edge">
<title>Node2&#45;&gt;Node18</title>
<path fill="none" stroke="#63b8ff" d="M1329.78,-246.45C1394.38,-238.86 1538.56,-221.89 1671.38,-206.24"/>
<polygon fill="#63b8ff" stroke="#63b8ff" points="1671.53,-209.74 1681.05,-205.1 1670.71,-202.79 1671.53,-209.74"/>
</g>
<!-- Node19 -->
<g id="node19" class="node">
<title>Node19</title>
<g id="a_node19"><a xlink:href="../../dd/dc6/backoffs_8hpp.html" target="_top" xlink:title=" ">
<polygon fill="white" stroke="#666666" points="1896.88,-206 1825.88,-206 1825.88,-187 1896.88,-187 1896.88,-206"/>
<text text-anchor="middle" x="1861.38" y="-194" font-family="Helvetica,sans-Serif" font-size="10.00">backoffs.hpp</text>
</a>
</g>
</g>
<!-- Node2&#45;&gt;Node19 -->
<g id="edge18" class="edge">
<title>Node2&#45;&gt;Node19</title>
<path fill="none" stroke="#63b8ff" d="M1329.65,-248.78C1411.54,-244.41 1625.23,-231.49 1814.31,-206.13"/>
<polygon fill="#63b8ff" stroke="#63b8ff" points="1814.64,-209.62 1824.07,-204.81 1813.69,-202.68 1814.64,-209.62"/>
</g>
<!-- Node22 -->
<g id="node22" class="node">
<title>Node22</title>
<g id="a_node22"><a xlink:href="../../df/d27/aes_8hpp.html" target="_top" xlink:title=" ">
<polygon fill="white" stroke="#666666" points="1995.38,-206 1915.38,-206 1915.38,-187 1995.38,-187 1995.38,-206"/>
<text text-anchor="middle" x="1955.38" y="-194" font-family="Helvetica,sans-Serif" font-size="10.00">crypto/aes.hpp</text>
</a>
</g>
</g>
<!-- Node2&#45;&gt;Node22 -->
<g id="edge22" class="edge">
<title>Node2&#45;&gt;Node22</title>
<path fill="none" stroke="#63b8ff" d="M1329.55,-249.15C1420.84,-245.31 1678.18,-232.9 1903.65,-206.07"/>
<polygon fill="#63b8ff" stroke="#63b8ff" points="1904.03,-209.55 1913.54,-204.88 1903.19,-202.6 1904.03,-209.55"/>
</g>
<!-- Node26 -->
<g id="node26" class="node">
<title>Node26</title>
<g id="a_node26"><a xlink:href="../../d2/d3f/packet_8hpp.html" target="_top" xlink:title=" ">
<polygon fill="white" stroke="#666666" points="2077.38,-206 2013.38,-206 2013.38,-187 2077.38,-187 2077.38,-206"/>
<text text-anchor="middle" x="2045.38" y="-194" font-family="Helvetica,sans-Serif" font-size="10.00">packet.hpp</text>
</a>
</g>
</g>
<!-- Node2&#45;&gt;Node26 -->
<g id="edge26" class="edge">
<title>Node2&#45;&gt;Node26</title>
<path fill="none" stroke="#63b8ff" d="M1329.86,-250.06C1431.35,-248.42 1737.92,-240.83 2001.88,-206.13"/>
<polygon fill="#63b8ff" stroke="#63b8ff" points="2002.28,-209.61 2011.73,-204.82 2001.35,-202.67 2002.28,-209.61"/>
</g>
<!-- Node34 -->
<g id="node34" class="node">
<title>Node34</title>
<g id="a_node34"><a xlink:title=" ">
<polygon fill="#e0e0e0" stroke="#999999" points="2169.38,-206 2095.38,-206 2095.38,-187 2169.38,-187 2169.38,-206"/>
<text text-anchor="middle" x="2132.38" y="-194" font-family="Helvetica,sans-Serif" font-size="10.00">utils/utils.hpp</text>
</a>
</g>
</g>
<!-- Node2&#45;&gt;Node34 -->
<g id="edge34" class="edge">
<title>Node2&#45;&gt;Node34</title>
<path fill="none" stroke="#63b8ff" d="M1329.83,-250.12C1438.89,-248.57 1786.53,-241.14 2084.03,-206.12"/>
<polygon fill="#63b8ff" stroke="#63b8ff" points="2084.02,-209.65 2093.53,-204.99 2083.19,-202.7 2084.02,-209.65"/>
</g>
<!-- Node35 -->
<g id="node35" class="node">
<title>Node35</title>
<g id="a_node35"><a xlink:title=" ">
<polygon fill="#e0e0e0" stroke="#999999" points="2291.38,-206 2187.38,-206 2187.38,-187 2291.38,-187 2291.38,-206"/>
<text text-anchor="middle" x="2239.38" y="-194" font-family="Helvetica,sans-Serif" font-size="10.00">../include/spdlog.hpp</text>
</a>
</g>
</g>
<!-- Node2&#45;&gt;Node35 -->
<g id="edge35" class="edge">
<title>Node2&#45;&gt;Node35</title>
<path fill="none" stroke="#63b8ff" d="M1329.55,-249.86C1446.22,-247.45 1839.72,-237.44 2175.75,-206.16"/>
<polygon fill="#63b8ff" stroke="#63b8ff" points="2176.04,-209.65 2185.67,-205.22 2175.38,-202.68 2176.04,-209.65"/>
</g>
<!-- Node19&#45;&gt;Node3 -->
<g id="edge19" class="edge">
<title>Node19&#45;&gt;Node3</title>
<path fill="none" stroke="#63b8ff" d="M1825.59,-188.29C1822.48,-187.8 1819.38,-187.36 1816.38,-187 1461.26,-144.41 1027.93,-138.09 896.22,-137.16"/>
<polygon fill="#63b8ff" stroke="#63b8ff" points="896.31,-133.66 886.29,-137.09 896.26,-140.66 896.31,-133.66"/>
</g>
<!-- Node20 -->
<g id="node20" class="node">
<title>Node20</title>
<g id="a_node20"><a xlink:title=" ">
<polygon fill="#e0e0e0" stroke="#999999" points="1775.38,-145.5 1729.38,-145.5 1729.38,-126.5 1775.38,-126.5 1775.38,-145.5"/>
<text text-anchor="middle" x="1752.38" y="-133.5" font-family="Helvetica,sans-Serif" font-size="10.00">chrono</text>
</a>
</g>
</g>
<!-- Node19&#45;&gt;Node20 -->
<g id="edge20" class="edge">
<title>Node19&#45;&gt;Node20</title>
<path fill="none" stroke="#63b8ff" d="M1844.83,-186.62C1827.38,-177.25 1799.64,-162.36 1779.09,-151.33"/>
<polygon fill="#63b8ff" stroke="#63b8ff" points="1780.89,-148.33 1770.43,-146.68 1777.58,-154.5 1780.89,-148.33"/>
</g>
<!-- Node21 -->
<g id="node21" class="node">
<title>Node21</title>
<g id="a_node21"><a xlink:title=" ">
<polygon fill="#e0e0e0" stroke="#999999" points="1842.88,-145.5 1793.88,-145.5 1793.88,-126.5 1842.88,-126.5 1842.88,-145.5"/>
<text text-anchor="middle" x="1818.38" y="-133.5" font-family="Helvetica,sans-Serif" font-size="10.00">random</text>
</a>
</g>
</g>
<!-- Node19&#45;&gt;Node21 -->
<g id="edge21" class="edge">
<title>Node19&#45;&gt;Node21</title>
<path fill="none" stroke="#63b8ff" d="M1855.04,-186.87C1848.88,-178.49 1839.34,-165.51 1831.53,-154.89"/>
<polygon fill="#63b8ff" stroke="#63b8ff" points="1834.39,-152.87 1825.65,-146.89 1828.75,-157.02 1834.39,-152.87"/>
</g>
<!-- Node23 -->
<g id="node23" class="node">
<title>Node23</title>
<g id="a_node23"><a xlink:title=" ">
<polygon fill="#e0e0e0" stroke="#999999" points="1941.88,-145.5 1860.88,-145.5 1860.88,-126.5 1941.88,-126.5 1941.88,-145.5"/>
<text text-anchor="middle" x="1901.38" y="-133.5" font-family="Helvetica,sans-Serif" font-size="10.00">../utils/utils.hpp</text>
</a>
</g>
</g>
<!-- Node22&#45;&gt;Node23 -->
<g id="edge23" class="edge">
<title>Node22&#45;&gt;Node23</title>
<path fill="none" stroke="#63b8ff" d="M1947.41,-186.87C1939.44,-178.23 1926.95,-164.7 1917,-153.92"/>
<polygon fill="#63b8ff" stroke="#63b8ff" points="1919.76,-151.75 1910.41,-146.78 1914.62,-156.5 1919.76,-151.75"/>
</g>
<!-- Node24 -->
<g id="node24" class="node">
<title>Node24</title>
<g id="a_node24"><a xlink:title=" ">
<polygon fill="#e0e0e0" stroke="#999999" points="2036.88,-145.5 1959.88,-145.5 1959.88,-126.5 2036.88,-126.5 2036.88,-145.5"/>
<text text-anchor="middle" x="1998.38" y="-133.5" font-family="Helvetica,sans-Serif" font-size="10.00">openssl/aes.h</text>
</a>
</g>
</g>
<!-- Node22&#45;&gt;Node24 -->
<g id="edge24" class="edge">
<title>Node22&#45;&gt;Node24</title>
<path fill="none" stroke="#63b8ff" d="M1961.73,-186.87C1967.89,-178.49 1977.43,-165.51 1985.23,-154.89"/>
<polygon fill="#63b8ff" stroke="#63b8ff" points="1988.01,-157.02 1991.11,-146.89 1982.37,-152.87 1988.01,-157.02"/>
</g>
<!-- Node25 -->
<g id="node25" class="node">
<title>Node25</title>
<g id="a_node25"><a xlink:title=" ">
<polygon fill="#e0e0e0" stroke="#999999" points="2131.88,-145.5 2054.88,-145.5 2054.88,-126.5 2131.88,-126.5 2131.88,-145.5"/>
<text text-anchor="middle" x="2093.38" y="-133.5" font-family="Helvetica,sans-Serif" font-size="10.00">openssl/evp.h</text>
</a>
</g>
</g>
<!-- Node22&#45;&gt;Node25 -->
<g id="edge25" class="edge">
<title>Node22&#45;&gt;Node25</title>
<path fill="none" stroke="#63b8ff" d="M1976.34,-186.62C1999.04,-176.99 2035.5,-161.54 2061.7,-150.43"/>
<polygon fill="#63b8ff" stroke="#63b8ff" points="2062.99,-153.68 2070.83,-146.56 2060.26,-147.24 2062.99,-153.68"/>
</g>
<!-- Node27 -->
<g id="node27" class="node">
<title>Node27</title>
<g id="a_node27"><a xlink:href="../../d3/d53/packet-factory_8hpp.html" target="_top" xlink:title=" ">
<polygon fill="white" stroke="#666666" points="2250.88,-151 2149.88,-151 2149.88,-121 2250.88,-121 2250.88,-151"/>
<text text-anchor="start" x="2157.88" y="-139" font-family="Helvetica,sans-Serif" font-size="10.00">packet_impl/packet</text>
<text text-anchor="middle" x="2200.38" y="-128" font-family="Helvetica,sans-Serif" font-size="10.00">&#45;factory.hpp</text>
</a>
</g>
</g>
<!-- Node26&#45;&gt;Node27 -->
<g id="edge27" class="edge">
<title>Node26&#45;&gt;Node27</title>
<path fill="none" stroke="#63b8ff" d="M2068.92,-186.62C2090.75,-178.38 2123.93,-165.86 2151.49,-155.45"/>
<polygon fill="#63b8ff" stroke="#63b8ff" points="2152.59,-158.78 2160.71,-151.97 2150.12,-152.23 2152.59,-158.78"/>
</g>
<!-- Node28 -->
<g id="node28" class="node">
<title>Node28</title>
<g id="a_node28"><a xlink:href="../../d9/d85/packet__impl_2packet_8hpp.html" target="_top" xlink:title=" ">
<polygon fill="white" stroke="#666666" points="2232.38,-85 2168.38,-85 2168.38,-66 2232.38,-66 2232.38,-85"/>
<text text-anchor="middle" x="2200.38" y="-73" font-family="Helvetica,sans-Serif" font-size="10.00">packet.hpp</text>
</a>
</g>
</g>
<!-- Node27&#45;&gt;Node28 -->
<g id="edge28" class="edge">
<title>Node27&#45;&gt;Node28</title>
<path fill="none" stroke="#63b8ff" d="M2200.38,-120.54C2200.38,-113.34 2200.38,-104.53 2200.38,-96.68"/>
<polygon fill="#63b8ff" stroke="#63b8ff" points="2203.88,-96.69 2200.38,-86.69 2196.88,-96.69 2203.88,-96.69"/>
</g>
<!-- Node29 -->
<g id="node29" class="node">
<title>Node29</title>
<g id="a_node29"><a xlink:title=" ">
<polygon fill="#e0e0e0" stroke="#999999" points="2007.88,-24.5 1918.88,-24.5 1918.88,-5.5 2007.88,-5.5 2007.88,-24.5"/>
<text text-anchor="middle" x="1963.38" y="-12.5" font-family="Helvetica,sans-Serif" font-size="10.00">../../utils/utils.hpp</text>
</a>
</g>
</g>
<!-- Node28&#45;&gt;Node29 -->
<g id="edge29" class="edge">
<title>Node28&#45;&gt;Node29</title>
<path fill="none" stroke="#63b8ff" d="M2167.95,-66.77C2131.34,-58.01 2070.02,-43.22 2017.38,-30 2014.49,-29.27 2011.51,-28.52 2008.51,-27.75"/>
<polygon fill="#63b8ff" stroke="#63b8ff" points="2009.66,-24.44 1999.11,-25.34 2007.92,-31.22 2009.66,-24.44"/>
</g>
<!-- Node30 -->
<g id="node30" class="node">
<title>Node30</title>
<g id="a_node30"><a xlink:title=" ">
<polygon fill="#e0e0e0" stroke="#999999" points="2130.38,-30 2026.38,-30 2026.38,0 2130.38,0 2130.38,-30"/>
<text text-anchor="start" x="2034.38" y="-18" font-family="Helvetica,sans-Serif" font-size="10.00">boost/archive/binary</text>
<text text-anchor="middle" x="2078.38" y="-7" font-family="Helvetica,sans-Serif" font-size="10.00">_iarchive.hpp</text>
</a>
</g>
</g>
<!-- Node28&#45;&gt;Node30 -->
<g id="edge30" class="edge">
<title>Node28&#45;&gt;Node30</title>
<path fill="none" stroke="#63b8ff" d="M2181.85,-65.62C2165.13,-57.59 2139.94,-45.52 2118.61,-35.29"/>
<polygon fill="#63b8ff" stroke="#63b8ff" points="2120.39,-32.26 2109.86,-31.09 2117.36,-38.57 2120.39,-32.26"/>
</g>
<!-- Node31 -->
<g id="node31" class="node">
<title>Node31</title>
<g id="a_node31"><a xlink:title=" ">
<polygon fill="#e0e0e0" stroke="#999999" points="2252.38,-30 2148.38,-30 2148.38,0 2252.38,0 2252.38,-30"/>
<text text-anchor="start" x="2156.38" y="-18" font-family="Helvetica,sans-Serif" font-size="10.00">boost/archive/binary</text>
<text text-anchor="middle" x="2200.38" y="-7" font-family="Helvetica,sans-Serif" font-size="10.00">_oarchive.hpp</text>
</a>
</g>
</g>
<!-- Node28&#45;&gt;Node31 -->
<g id="edge31" class="edge">
<title>Node28&#45;&gt;Node31</title>
<path fill="none" stroke="#63b8ff" d="M2200.38,-65.87C2200.38,-59.4 2200.38,-50.2 2200.38,-41.45"/>
<polygon fill="#63b8ff" stroke="#63b8ff" points="2203.88,-41.63 2200.38,-31.63 2196.88,-41.63 2203.88,-41.63"/>
</g>
<!-- Node32 -->
<g id="node32" class="node">
<title>Node32</title>
<g id="a_node32"><a xlink:title=" ">
<polygon fill="#e0e0e0" stroke="#999999" points="2365.88,-30 2270.88,-30 2270.88,0 2365.88,0 2365.88,-30"/>
<text text-anchor="start" x="2278.88" y="-18" font-family="Helvetica,sans-Serif" font-size="10.00">boost/serialization</text>
<text text-anchor="middle" x="2318.38" y="-7" font-family="Helvetica,sans-Serif" font-size="10.00">/base_object.hpp</text>
</a>
</g>
</g>
<!-- Node28&#45;&gt;Node32 -->
<g id="edge32" class="edge">
<title>Node28&#45;&gt;Node32</title>
<path fill="none" stroke="#63b8ff" d="M2218.3,-65.62C2234.41,-57.63 2258.62,-45.63 2279.2,-35.43"/>
<polygon fill="#63b8ff" stroke="#63b8ff" points="2280.5,-38.69 2287.9,-31.11 2277.39,-32.42 2280.5,-38.69"/>
</g>
<!-- Node33 -->
<g id="node33" class="node">
<title>Node33</title>
<g id="a_node33"><a xlink:title=" ">
<polygon fill="#e0e0e0" stroke="#999999" points="2478.88,-30 2383.88,-30 2383.88,0 2478.88,0 2478.88,-30"/>
<text text-anchor="start" x="2391.88" y="-18" font-family="Helvetica,sans-Serif" font-size="10.00">boost/serialization</text>
<text text-anchor="middle" x="2431.38" y="-7" font-family="Helvetica,sans-Serif" font-size="10.00">/serialization.hpp</text>
</a>
</g>
</g>
<!-- Node28&#45;&gt;Node33 -->
<g id="edge33" class="edge">
<title>Node28&#45;&gt;Node33</title>
<path fill="none" stroke="#63b8ff" d="M2232.5,-66.37C2268.62,-57.22 2328.02,-42.18 2372.51,-30.91"/>
<polygon fill="#63b8ff" stroke="#63b8ff" points="2373.18,-34.35 2382.02,-28.5 2371.46,-27.56 2373.18,-34.35"/>
</g>
</g>
</svg>
