<?xml version="1.0" encoding="UTF-8" standalone="no"?>
<!DOCTYPE svg PUBLIC "-//W3C//DTD SVG 1.1//EN"
 "http://www.w3.org/Graphics/SVG/1.1/DTD/svg11.dtd">
<!-- Generated by graphviz version 8.1.0 (20230707.0739)
 -->
<!-- Title: mal&#45;packet&#45;weaver/mal&#45;packet&#45;weaver/session.inl Pages: 1 -->
<svg width="2361pt" height="337pt"
 viewBox="0.00 0.00 2361.18 337.25" xmlns="http://www.w3.org/2000/svg" xmlns:xlink="http://www.w3.org/1999/xlink">
<g id="graph0" class="graph" transform="scale(1 1) rotate(0) translate(4 333.25)">
<title>mal&#45;packet&#45;weaver/mal&#45;packet&#45;weaver/session.inl</title>
<!-- Node1 -->
<g id="Node000001" class="node">
<title>Node1</title>
<g id="a_Node000001"><a xlink:title=" ">
<polygon fill="#999999" stroke="#666666" points="1288.18,-329.25 1168.68,-329.25 1168.68,-298.75 1288.18,-298.75 1288.18,-329.25"/>
<text text-anchor="start" x="1176.68" y="-315.75" font-family="Times,serif" font-size="10.00">mal&#45;packet&#45;weaver/mal</text>
<text text-anchor="middle" x="1228.43" y="-304.5" font-family="Times,serif" font-size="10.00">&#45;packet&#45;weaver/session.inl</text>
</a>
</g>
</g>
<!-- Node2 -->
<g id="Node000002" class="node">
<title>Node2</title>
<g id="a_Node000002"><a xlink:href="../../d4/d5e/session_8hpp.html" target="_top" xlink:title=" ">
<polygon fill="white" stroke="#666666" points="1259.31,-262.75 1197.56,-262.75 1197.56,-243.5 1259.31,-243.5 1259.31,-262.75"/>
<text text-anchor="middle" x="1228.43" y="-249.25" font-family="Times,serif" font-size="10.00">session.hpp</text>
</a>
</g>
</g>
<!-- Node1&#45;&gt;Node2 -->
<g id="edge1_Node000001_Node000002" class="edge">
<title>Node1&#45;&gt;Node2</title>
<g id="a_edge1_Node000001_Node000002"><a xlink:title=" ">
<path fill="none" stroke="#63b8ff" d="M1222.52,-298.45C1221.61,-291.03 1221.44,-281.91 1222.02,-273.88"/>
<polygon fill="#63b8ff" stroke="#63b8ff" points="1225.59,-274.57 1223.4,-264.2 1218.65,-273.67 1225.59,-274.57"/>
</a>
</g>
</g>
<!-- Node2&#45;&gt;Node1 -->
<g id="edge36_Node000002_Node000001" class="edge">
<title>Node2&#45;&gt;Node1</title>
<g id="a_edge36_Node000002_Node000001"><a xlink:title=" ">
<path fill="none" stroke="#63b8ff" d="M1233.47,-263.2C1234.82,-269.73 1235.37,-278.89 1235.13,-287.57"/>
<polygon fill="#63b8ff" stroke="#63b8ff" points="1231.57,-287.22 1234.35,-297.45 1238.55,-287.72 1231.57,-287.22"/>
</a>
</g>
</g>
<!-- Node3 -->
<g id="Node000003" class="node">
<title>Node3</title>
<g id="a_Node000003"><a xlink:title=" ">
<polygon fill="#e0e0e0" stroke="#999999" points="840.18,-146.62 786.68,-146.62 786.68,-127.38 840.18,-127.38 840.18,-146.62"/>
<text text-anchor="middle" x="813.43" y="-133.12" font-family="Times,serif" font-size="10.00">algorithm</text>
</a>
</g>
</g>
<!-- Node2&#45;&gt;Node3 -->
<g id="edge2_Node000002_Node000003" class="edge">
<title>Node2&#45;&gt;Node3</title>
<g id="a_edge2_Node000002_Node000003"><a xlink:title=" ">
<path fill="none" stroke="#63b8ff" d="M1197.22,-252.2C1010.41,-252.47 47.08,-251.72 4.43,-207.5 -1.5,-201.34 -1.43,-194.48 4.43,-188.25 31.17,-159.8 619.63,-142.91 775.72,-138.92"/>
<polygon fill="#63b8ff" stroke="#63b8ff" points="775.7,-142.4 785.61,-138.65 775.52,-135.4 775.7,-142.4"/>
</a>
</g>
</g>
<!-- Node4 -->
<g id="Node000004" class="node">
<title>Node4</title>
<g id="a_Node000004"><a xlink:title=" ">
<polygon fill="#e0e0e0" stroke="#999999" points="128.93,-207.5 13.93,-207.5 13.93,-188.25 128.93,-188.25 128.93,-207.5"/>
<text text-anchor="middle" x="71.43" y="-194" font-family="Times,serif" font-size="10.00">boost/asio/awaitable.hpp</text>
</a>
</g>
</g>
<!-- Node2&#45;&gt;Node4 -->
<g id="edge3_Node000002_Node000004" class="edge">
<title>Node2&#45;&gt;Node4</title>
<g id="a_edge3_Node000002_Node000004"><a xlink:title=" ">
<path fill="none" stroke="#63b8ff" d="M1197.16,-251.84C1068.19,-250.46 564.9,-243.02 139.8,-207.53"/>
<polygon fill="#63b8ff" stroke="#63b8ff" points="140.4,-203.98 130.14,-206.63 139.81,-210.95 140.4,-203.98"/>
</a>
</g>
</g>
<!-- Node5 -->
<g id="Node000005" class="node">
<title>Node5</title>
<g id="a_Node000005"><a xlink:title=" ">
<polygon fill="#e0e0e0" stroke="#999999" points="265.43,-207.5 147.43,-207.5 147.43,-188.25 265.43,-188.25 265.43,-207.5"/>
<text text-anchor="middle" x="206.43" y="-194" font-family="Times,serif" font-size="10.00">boost/asio/co_spawn.hpp</text>
</a>
</g>
</g>
<!-- Node2&#45;&gt;Node5 -->
<g id="edge4_Node000002_Node000005" class="edge">
<title>Node2&#45;&gt;Node5</title>
<g id="a_edge4_Node000002_Node000005"><a xlink:title=" ">
<path fill="none" stroke="#63b8ff" d="M1197.08,-251.56C1078.34,-249.24 644.78,-239.06 276.62,-207.62"/>
<polygon fill="#63b8ff" stroke="#63b8ff" points="277.01,-204.05 266.74,-206.68 276.41,-211.02 277.01,-204.05"/>
</a>
</g>
</g>
<!-- Node6 -->
<g id="Node000006" class="node">
<title>Node6</title>
<g id="a_Node000006"><a xlink:title=" ">
<polygon fill="#e0e0e0" stroke="#999999" points="398.93,-207.5 283.93,-207.5 283.93,-188.25 398.93,-188.25 398.93,-207.5"/>
<text text-anchor="middle" x="341.43" y="-194" font-family="Times,serif" font-size="10.00">boost/asio/detached.hpp</text>
</a>
</g>
</g>
<!-- Node2&#45;&gt;Node6 -->
<g id="edge5_Node000002_Node000006" class="edge">
<title>Node2&#45;&gt;Node6</title>
<g id="a_edge5_Node000002_Node000006"><a xlink:title=" ">
<path fill="none" stroke="#63b8ff" d="M1197.09,-251.25C1089.26,-248.07 723.45,-235.83 409.81,-207.55"/>
<polygon fill="#63b8ff" stroke="#63b8ff" points="410.42,-204 400.15,-206.58 409.79,-210.97 410.42,-204"/>
</a>
</g>
</g>
<!-- Node7 -->
<g id="Node000007" class="node">
<title>Node7</title>
<g id="a_Node000007"><a xlink:title=" ">
<polygon fill="#e0e0e0" stroke="#999999" points="519.56,-207.5 417.31,-207.5 417.31,-188.25 519.56,-188.25 519.56,-207.5"/>
<text text-anchor="middle" x="468.43" y="-194" font-family="Times,serif" font-size="10.00">boost/asio/ip/tcp.hpp</text>
</a>
</g>
</g>
<!-- Node2&#45;&gt;Node7 -->
<g id="edge6_Node000002_Node000007" class="edge">
<title>Node2&#45;&gt;Node7</title>
<g id="a_edge6_Node000002_Node000007"><a xlink:title=" ">
<path fill="none" stroke="#63b8ff" d="M1197.31,-251.02C1100.26,-247.39 794.34,-234.54 530.35,-207.62"/>
<polygon fill="#63b8ff" stroke="#63b8ff" points="531.09,-204.07 520.79,-206.53 530.38,-211.04 531.09,-204.07"/>
</a>
</g>
</g>
<!-- Node8 -->
<g id="Node000008" class="node">
<title>Node8</title>
<g id="a_Node000008"><a xlink:title=" ">
<polygon fill="#e0e0e0" stroke="#999999" points="633.18,-207.5 537.68,-207.5 537.68,-188.25 633.18,-188.25 633.18,-207.5"/>
<text text-anchor="middle" x="585.43" y="-194" font-family="Times,serif" font-size="10.00">boost/asio/read.hpp</text>
</a>
</g>
</g>
<!-- Node2&#45;&gt;Node8 -->
<g id="edge7_Node000002_Node000008" class="edge">
<title>Node2&#45;&gt;Node8</title>
<g id="a_edge7_Node000002_Node000008"><a xlink:title=" ">
<path fill="none" stroke="#63b8ff" d="M1197.17,-250.6C1110.79,-246.2 861.35,-232.27 644.3,-207.76"/>
<polygon fill="#63b8ff" stroke="#63b8ff" points="645,-204.2 634.67,-206.54 644.2,-211.16 645,-204.2"/>
</a>
</g>
</g>
<!-- Node9 -->
<g id="Node000009" class="node">
<title>Node9</title>
<g id="a_Node000009"><a xlink:title=" ">
<polygon fill="#e0e0e0" stroke="#999999" points="753.93,-207.5 650.93,-207.5 650.93,-188.25 753.93,-188.25 753.93,-207.5"/>
<text text-anchor="middle" x="702.43" y="-194" font-family="Times,serif" font-size="10.00">boost/asio/spawn.hpp</text>
</a>
</g>
</g>
<!-- Node2&#45;&gt;Node9 -->
<g id="edge8_Node000002_Node000009" class="edge">
<title>Node2&#45;&gt;Node9</title>
<g id="a_edge8_Node000002_Node000009"><a xlink:title=" ">
<path fill="none" stroke="#63b8ff" d="M1197.09,-249.6C1123.64,-243.6 934.48,-227.52 765.19,-207.66"/>
<polygon fill="#63b8ff" stroke="#63b8ff" points="765.67,-204.07 755.33,-206.37 764.85,-211.02 765.67,-204.07"/>
</a>
</g>
</g>
<!-- Node10 -->
<g id="Node000010" class="node">
<title>Node10</title>
<g id="a_Node000010"><a xlink:title=" ">
<polygon fill="#e0e0e0" stroke="#999999" points="890.81,-207.5 772.06,-207.5 772.06,-188.25 890.81,-188.25 890.81,-207.5"/>
<text text-anchor="middle" x="831.43" y="-194" font-family="Times,serif" font-size="10.00">boost/asio/streambuf.hpp</text>
</a>
</g>
</g>
<!-- Node2&#45;&gt;Node10 -->
<g id="edge9_Node000002_Node000010" class="edge">
<title>Node2&#45;&gt;Node10</title>
<g id="a_edge9_Node000002_Node000010"><a xlink:title=" ">
<path fill="none" stroke="#63b8ff" d="M1197.28,-247.95C1134.09,-239.47 989.44,-220.07 902.14,-208.36"/>
<polygon fill="#63b8ff" stroke="#63b8ff" points="902.64,-204.76 892.27,-206.9 901.71,-211.7 902.64,-204.76"/>
</a>
</g>
</g>
<!-- Node11 -->
<g id="Node000011" class="node">
<title>Node11</title>
<g id="a_Node000011"><a xlink:title=" ">
<polygon fill="#e0e0e0" stroke="#999999" points="1007.68,-207.5 909.18,-207.5 909.18,-188.25 1007.68,-188.25 1007.68,-207.5"/>
<text text-anchor="middle" x="958.43" y="-194" font-family="Times,serif" font-size="10.00">boost/asio/write.hpp</text>
</a>
</g>
</g>
<!-- Node2&#45;&gt;Node11 -->
<g id="edge10_Node000002_Node000011" class="edge">
<title>Node2&#45;&gt;Node11</title>
<g id="a_edge10_Node000002_Node000011"><a xlink:title=" ">
<path fill="none" stroke="#63b8ff" d="M1197.2,-245.96C1152.69,-237.19 1070.29,-220.94 1014.92,-210.01"/>
<polygon fill="#63b8ff" stroke="#63b8ff" points="1015.71,-206.41 1005.22,-207.91 1014.35,-213.27 1015.71,-206.41"/>
</a>
</g>
</g>
<!-- Node12 -->
<g id="Node000012" class="node">
<title>Node12</title>
<g id="a_Node000012"><a xlink:title=" ">
<polygon fill="#e0e0e0" stroke="#999999" points="1156.81,-207.5 1026.06,-207.5 1026.06,-188.25 1156.81,-188.25 1156.81,-207.5"/>
<text text-anchor="middle" x="1091.43" y="-194" font-family="Times,serif" font-size="10.00">boost/endian/conversion.hpp</text>
</a>
</g>
</g>
<!-- Node2&#45;&gt;Node12 -->
<g id="edge11_Node000002_Node000012" class="edge">
<title>Node2&#45;&gt;Node12</title>
<g id="a_edge11_Node000002_Node000012"><a xlink:title=" ">
<path fill="none" stroke="#63b8ff" d="M1205.19,-243.09C1183.15,-234.52 1149.79,-221.56 1124.89,-211.88"/>
<polygon fill="#63b8ff" stroke="#63b8ff" points="1126.38,-208.31 1115.79,-207.95 1123.84,-214.84 1126.38,-208.31"/>
</a>
</g>
</g>
<!-- Node13 -->
<g id="Node000013" class="node">
<title>Node13</title>
<g id="a_Node000013"><a xlink:title=" ">
<polygon fill="#e0e0e0" stroke="#999999" points="1282.18,-207.5 1174.68,-207.5 1174.68,-188.25 1282.18,-188.25 1282.18,-207.5"/>
<text text-anchor="middle" x="1228.43" y="-194" font-family="Times,serif" font-size="10.00">boost/range/begin.hpp</text>
</a>
</g>
</g>
<!-- Node2&#45;&gt;Node13 -->
<g id="edge12_Node000002_Node000013" class="edge">
<title>Node2&#45;&gt;Node13</title>
<g id="a_edge12_Node000002_Node000013"><a xlink:title=" ">
<path fill="none" stroke="#63b8ff" d="M1228.43,-243.33C1228.43,-236.67 1228.43,-227.24 1228.43,-218.78"/>
<polygon fill="#63b8ff" stroke="#63b8ff" points="1231.93,-218.86 1228.43,-208.86 1224.93,-218.86 1231.93,-218.86"/>
</a>
</g>
</g>
<!-- Node14 -->
<g id="Node000014" class="node">
<title>Node14</title>
<g id="a_Node000014"><a xlink:title=" ">
<polygon fill="#e0e0e0" stroke="#999999" points="1399.06,-207.5 1299.81,-207.5 1299.81,-188.25 1399.06,-188.25 1399.06,-207.5"/>
<text text-anchor="middle" x="1349.43" y="-194" font-family="Times,serif" font-size="10.00">boost/range/end.hpp</text>
</a>
</g>
</g>
<!-- Node2&#45;&gt;Node14 -->
<g id="edge13_Node000002_Node000014" class="edge">
<title>Node2&#45;&gt;Node14</title>
<g id="a_edge13_Node000002_Node000014"><a xlink:title=" ">
<path fill="none" stroke="#63b8ff" d="M1248.96,-243.09C1268.17,-234.64 1297.11,-221.9 1319,-212.27"/>
<polygon fill="#63b8ff" stroke="#63b8ff" points="1320.06,-215.18 1327.81,-207.95 1317.24,-208.78 1320.06,-215.18"/>
</a>
</g>
</g>
<!-- Node15 -->
<g id="Node000015" class="node">
<title>Node15</title>
<g id="a_Node000015"><a xlink:title=" ">
<polygon fill="#e0e0e0" stroke="#999999" points="1465.56,-207.5 1417.31,-207.5 1417.31,-188.25 1465.56,-188.25 1465.56,-207.5"/>
<text text-anchor="middle" x="1441.43" y="-194" font-family="Times,serif" font-size="10.00">memory</text>
</a>
</g>
</g>
<!-- Node2&#45;&gt;Node15 -->
<g id="edge14_Node000002_Node000015" class="edge">
<title>Node2&#45;&gt;Node15</title>
<g id="a_edge14_Node000002_Node000015"><a xlink:title=" ">
<path fill="none" stroke="#63b8ff" d="M1259.68,-244.51C1293.5,-236.23 1349.3,-222.5 1406.29,-208.02"/>
<polygon fill="#63b8ff" stroke="#63b8ff" points="1407.11,-211.17 1415.93,-205.31 1405.38,-204.39 1407.11,-211.17"/>
</a>
</g>
</g>
<!-- Node16 -->
<g id="Node000016" class="node">
<title>Node16</title>
<g id="a_Node000016"><a xlink:title=" ">
<polygon fill="#e0e0e0" stroke="#999999" points="1524.81,-207.5 1484.06,-207.5 1484.06,-188.25 1524.81,-188.25 1524.81,-207.5"/>
<text text-anchor="middle" x="1504.43" y="-194" font-family="Times,serif" font-size="10.00">mutex</text>
</a>
</g>
</g>
<!-- Node2&#45;&gt;Node16 -->
<g id="edge15_Node000002_Node000016" class="edge">
<title>Node2&#45;&gt;Node16</title>
<g id="a_edge15_Node000002_Node000016"><a xlink:title=" ">
<path fill="none" stroke="#63b8ff" d="M1259.71,-247.48C1304.71,-240.58 1390.52,-226.6 1473.25,-207.56"/>
<polygon fill="#63b8ff" stroke="#63b8ff" points="1473.9,-210.77 1482.85,-205.09 1472.32,-203.95 1473.9,-210.77"/>
</a>
</g>
</g>
<!-- Node17 -->
<g id="Node000017" class="node">
<title>Node17</title>
<g id="a_Node000017"><a xlink:title=" ">
<polygon fill="#e0e0e0" stroke="#999999" points="1582.43,-207.5 1542.43,-207.5 1542.43,-188.25 1582.43,-188.25 1582.43,-207.5"/>
<text text-anchor="middle" x="1562.43" y="-194" font-family="Times,serif" font-size="10.00">queue</text>
</a>
</g>
</g>
<!-- Node2&#45;&gt;Node17 -->
<g id="edge16_Node000002_Node000017" class="edge">
<title>Node2&#45;&gt;Node17</title>
<g id="a_edge16_Node000002_Node000017"><a xlink:title=" ">
<path fill="none" stroke="#63b8ff" d="M1259.44,-249.08C1313.08,-243.49 1426.77,-230.24 1531.5,-207.66"/>
<polygon fill="#63b8ff" stroke="#63b8ff" points="1531.92,-210.93 1540.93,-205.37 1530.42,-204.09 1531.92,-210.93"/>
</a>
</g>
</g>
<!-- Node18 -->
<g id="Node000018" class="node">
<title>Node18</title>
<g id="a_Node000018"><a xlink:title=" ">
<polygon fill="#e0e0e0" stroke="#999999" points="1718.81,-207.5 1600.06,-207.5 1600.06,-188.25 1718.81,-188.25 1718.81,-207.5"/>
<text text-anchor="middle" x="1659.43" y="-194" font-family="Times,serif" font-size="10.00">boost/lockfree/queue.hpp</text>
</a>
</g>
</g>
<!-- Node2&#45;&gt;Node18 -->
<g id="edge17_Node000002_Node000018" class="edge">
<title>Node2&#45;&gt;Node18</title>
<g id="a_edge17_Node000002_Node000018"><a xlink:title=" ">
<path fill="none" stroke="#63b8ff" d="M1259.52,-248.34C1320.55,-240.91 1460.63,-223.81 1588.94,-207.81"/>
<polygon fill="#63b8ff" stroke="#63b8ff" points="1589.24,-211.17 1598.73,-206.46 1588.38,-204.23 1589.24,-211.17"/>
</a>
</g>
</g>
<!-- Node19 -->
<g id="Node000019" class="node">
<title>Node19</title>
<g id="a_Node000019"><a xlink:href="../../dd/dc6/backoffs_8hpp.html" target="_top" xlink:title=" ">
<polygon fill="white" stroke="#666666" points="1803.93,-207.5 1736.93,-207.5 1736.93,-188.25 1803.93,-188.25 1803.93,-207.5"/>
<text text-anchor="middle" x="1770.43" y="-194" font-family="Times,serif" font-size="10.00">backoffs.hpp</text>
</a>
</g>
</g>
<!-- Node2&#45;&gt;Node19 -->
<g id="edge18_Node000002_Node000019" class="edge">
<title>Node2&#45;&gt;Node19</title>
<g id="a_edge18_Node000002_Node000019"><a xlink:title=" ">
<path fill="none" stroke="#63b8ff" d="M1259.81,-250.51C1337.16,-246.27 1543.34,-233.43 1725.82,-207.56"/>
<polygon fill="#63b8ff" stroke="#63b8ff" points="1726.29,-210.89 1735.69,-206 1725.3,-203.96 1726.29,-210.89"/>
</a>
</g>
</g>
<!-- Node22 -->
<g id="Node000022" class="node">
<title>Node22</title>
<g id="a_Node000022"><a xlink:href="../../df/d27/aes_8hpp.html" target="_top" xlink:title=" ">
<polygon fill="white" stroke="#666666" points="1898.43,-207.5 1822.43,-207.5 1822.43,-188.25 1898.43,-188.25 1898.43,-207.5"/>
<text text-anchor="middle" x="1860.43" y="-194" font-family="Times,serif" font-size="10.00">crypto/aes.hpp</text>
</a>
</g>
</g>
<!-- Node2&#45;&gt;Node22 -->
<g id="edge22_Node000002_Node000022" class="edge">
<title>Node2&#45;&gt;Node22</title>
<g id="a_edge22_Node000002_Node000022"><a xlink:title=" ">
<path fill="none" stroke="#63b8ff" d="M1259.57,-250.86C1345.6,-247.13 1593.95,-234.77 1811.32,-207.49"/>
<polygon fill="#63b8ff" stroke="#63b8ff" points="1811.49,-210.87 1820.97,-206.14 1810.61,-203.93 1811.49,-210.87"/>
</a>
</g>
</g>
<!-- Node26 -->
<g id="Node000026" class="node">
<title>Node26</title>
<g id="a_Node000026"><a xlink:href="../../d2/d3f/packet_8hpp.html" target="_top" xlink:title=" ">
<polygon fill="white" stroke="#666666" points="1976.56,-207.5 1916.31,-207.5 1916.31,-188.25 1976.56,-188.25 1976.56,-207.5"/>
<text text-anchor="middle" x="1946.43" y="-194" font-family="Times,serif" font-size="10.00">packet.hpp</text>
</a>
</g>
</g>
<!-- Node2&#45;&gt;Node26 -->
<g id="edge26_Node000002_Node000026" class="edge">
<title>Node2&#45;&gt;Node26</title>
<g id="a_edge26_Node000002_Node000026"><a xlink:title=" ">
<path fill="none" stroke="#63b8ff" d="M1259.74,-251.76C1355.23,-250.28 1651.25,-243.06 1905.32,-207.59"/>
<polygon fill="#63b8ff" stroke="#63b8ff" points="1905.45,-210.96 1914.86,-206.1 1904.47,-204.03 1905.45,-210.96"/>
</a>
</g>
</g>
<!-- Node34 -->
<g id="Node000034" class="node">
<title>Node34</title>
<g id="a_Node000034"><a xlink:title=" ">
<polygon fill="#e0e0e0" stroke="#999999" points="2066.18,-207.5 1994.68,-207.5 1994.68,-188.25 2066.18,-188.25 2066.18,-207.5"/>
<text text-anchor="middle" x="2030.43" y="-194" font-family="Times,serif" font-size="10.00">utils/utils.hpp</text>
</a>
</g>
</g>
<!-- Node2&#45;&gt;Node34 -->
<g id="edge34_Node000002_Node000034" class="edge">
<title>Node2&#45;&gt;Node34</title>
<g id="a_edge34_Node000002_Node000034"><a xlink:title=" ">
<path fill="none" stroke="#63b8ff" d="M1259.57,-251.74C1361.86,-250.18 1696.9,-242.65 1984.02,-207.49"/>
<polygon fill="#63b8ff" stroke="#63b8ff" points="1984.15,-210.88 1993.64,-206.17 1983.29,-203.93 1984.15,-210.88"/>
</a>
</g>
</g>
<!-- Node35 -->
<g id="Node000035" class="node">
<title>Node35</title>
<g id="a_Node000035"><a xlink:title=" ">
<polygon fill="#e0e0e0" stroke="#999999" points="2183.06,-207.5 2083.81,-207.5 2083.81,-188.25 2183.06,-188.25 2183.06,-207.5"/>
<text text-anchor="middle" x="2133.43" y="-194" font-family="Times,serif" font-size="10.00">../include/spdlog.hpp</text>
</a>
</g>
</g>
<!-- Node2&#45;&gt;Node35 -->
<g id="edge35_Node000002_Node000035" class="edge">
<title>Node2&#45;&gt;Node35</title>
<g id="a_edge35_Node000002_Node000035"><a xlink:title=" ">
<path fill="none" stroke="#63b8ff" d="M1259.66,-251.55C1369.67,-249.3 1749.58,-239.62 2072.97,-207.66"/>
<polygon fill="#63b8ff" stroke="#63b8ff" points="2072.88,-211.09 2082.48,-206.61 2072.19,-204.12 2072.88,-211.09"/>
</a>
</g>
</g>
<!-- Node19&#45;&gt;Node3 -->
<g id="edge19_Node000019_Node000003" class="edge">
<title>Node19&#45;&gt;Node3</title>
<g id="a_edge19_Node000019_Node000003"><a xlink:title=" ">
<path fill="none" stroke="#63b8ff" d="M1736.71,-189.64C1733.58,-189.11 1730.46,-188.63 1727.43,-188.25 1389.57,-145.3 976.85,-139.05 851.38,-138.15"/>
<polygon fill="#63b8ff" stroke="#63b8ff" points="851.5,-134.64 841.48,-138.08 851.46,-141.64 851.5,-134.64"/>
</a>
</g>
</g>
<!-- Node20 -->
<g id="Node000020" class="node">
<title>Node20</title>
<g id="a_Node000020"><a xlink:title=" ">
<polygon fill="#e0e0e0" stroke="#999999" points="1687.93,-146.62 1644.93,-146.62 1644.93,-127.38 1687.93,-127.38 1687.93,-146.62"/>
<text text-anchor="middle" x="1666.43" y="-133.12" font-family="Times,serif" font-size="10.00">chrono</text>
</a>
</g>
</g>
<!-- Node19&#45;&gt;Node20 -->
<g id="edge20_Node000019_Node000020" class="edge">
<title>Node19&#45;&gt;Node20</title>
<g id="a_edge20_Node000019_Node000020"><a xlink:title=" ">
<path fill="none" stroke="#63b8ff" d="M1754.64,-187.93C1737.99,-178.51 1711.52,-163.52 1691.92,-152.43"/>
<polygon fill="#63b8ff" stroke="#63b8ff" points="1693.8,-148.91 1683.38,-147.03 1690.36,-155 1693.8,-148.91"/>
</a>
</g>
</g>
<!-- Node21 -->
<g id="Node000021" class="node">
<title>Node21</title>
<g id="a_Node000021"><a xlink:title=" ">
<polygon fill="#e0e0e0" stroke="#999999" points="1752.43,-146.62 1706.43,-146.62 1706.43,-127.38 1752.43,-127.38 1752.43,-146.62"/>
<text text-anchor="middle" x="1729.43" y="-133.12" font-family="Times,serif" font-size="10.00">random</text>
</a>
</g>
</g>
<!-- Node19&#45;&gt;Node21 -->
<g id="edge21_Node000019_Node000021" class="edge">
<title>Node19&#45;&gt;Node21</title>
<g id="a_edge21_Node000019_Node000021"><a xlink:title=" ">
<path fill="none" stroke="#63b8ff" d="M1764.21,-187.93C1758.31,-179.46 1749.28,-166.49 1741.9,-155.89"/>
<polygon fill="#63b8ff" stroke="#63b8ff" points="1744.31,-154.23 1735.72,-148.03 1738.56,-158.23 1744.31,-154.23"/>
</a>
</g>
</g>
<!-- Node23 -->
<g id="Node000023" class="node">
<title>Node23</title>
<g id="a_Node000023"><a xlink:title=" ">
<polygon fill="#e0e0e0" stroke="#999999" points="1849.93,-146.62 1770.93,-146.62 1770.93,-127.38 1849.93,-127.38 1849.93,-146.62"/>
<text text-anchor="middle" x="1810.43" y="-133.12" font-family="Times,serif" font-size="10.00">../utils/utils.hpp</text>
</a>
</g>
</g>
<!-- Node22&#45;&gt;Node23 -->
<g id="edge23_Node000022_Node000023" class="edge">
<title>Node22&#45;&gt;Node23</title>
<g id="a_edge23_Node000022_Node000023"><a xlink:title=" ">
<path fill="none" stroke="#63b8ff" d="M1852.84,-187.93C1845.5,-179.29 1834.18,-165.96 1825.08,-155.25"/>
<polygon fill="#63b8ff" stroke="#63b8ff" points="1827.24,-153.38 1818.1,-148.03 1821.9,-157.91 1827.24,-153.38"/>
</a>
</g>
</g>
<!-- Node24 -->
<g id="Node000024" class="node">
<title>Node24</title>
<g id="a_Node000024"><a xlink:title=" ">
<polygon fill="#e0e0e0" stroke="#999999" points="1935.31,-146.62 1867.56,-146.62 1867.56,-127.38 1935.31,-127.38 1935.31,-146.62"/>
<text text-anchor="middle" x="1901.43" y="-133.12" font-family="Times,serif" font-size="10.00">openssl/aes.h</text>
</a>
</g>
</g>
<!-- Node22&#45;&gt;Node24 -->
<g id="edge24_Node000022_Node000024" class="edge">
<title>Node22&#45;&gt;Node24</title>
<g id="a_edge24_Node000022_Node000024"><a xlink:title=" ">
<path fill="none" stroke="#63b8ff" d="M1866.66,-187.93C1872.56,-179.46 1881.59,-166.49 1888.97,-155.89"/>
<polygon fill="#63b8ff" stroke="#63b8ff" points="1892.31,-158.23 1895.15,-148.03 1886.56,-154.23 1892.31,-158.23"/>
</a>
</g>
</g>
<!-- Node25 -->
<g id="Node000025" class="node">
<title>Node25</title>
<g id="a_Node000025"><a xlink:title=" ">
<polygon fill="#e0e0e0" stroke="#999999" points="2023.06,-146.62 1953.81,-146.62 1953.81,-127.38 2023.06,-127.38 2023.06,-146.62"/>
<text text-anchor="middle" x="1988.43" y="-133.12" font-family="Times,serif" font-size="10.00">openssl/evp.h</text>
</a>
</g>
</g>
<!-- Node22&#45;&gt;Node25 -->
<g id="edge25_Node000022_Node000025" class="edge">
<title>Node22&#45;&gt;Node25</title>
<g id="a_edge25_Node000022_Node000025"><a xlink:title=" ">
<path fill="none" stroke="#63b8ff" d="M1880.15,-187.8C1901.26,-178.1 1934.97,-162.59 1959.18,-151.46"/>
<polygon fill="#63b8ff" stroke="#63b8ff" points="1960.28,-154.34 1967.9,-146.98 1957.35,-147.98 1960.28,-154.34"/>
</a>
</g>
</g>
<!-- Node27 -->
<g id="Node000027" class="node">
<title>Node27</title>
<g id="a_Node000027"><a xlink:href="../../d3/d53/packet-factory_8hpp.html" target="_top" xlink:title=" ">
<polygon fill="white" stroke="#666666" points="2135.81,-152.25 2041.06,-152.25 2041.06,-121.75 2135.81,-121.75 2135.81,-152.25"/>
<text text-anchor="start" x="2049.06" y="-138.75" font-family="Times,serif" font-size="10.00">packet_impl/packet</text>
<text text-anchor="middle" x="2088.43" y="-127.5" font-family="Times,serif" font-size="10.00">&#45;factory.hpp</text>
</a>
</g>
</g>
<!-- Node26&#45;&gt;Node27 -->
<g id="edge27_Node000026_Node000027" class="edge">
<title>Node26&#45;&gt;Node27</title>
<g id="a_edge27_Node000026_Node000027"><a xlink:title=" ">
<path fill="none" stroke="#63b8ff" d="M1968.31,-187.8C1988.14,-179.58 2018,-167.2 2042.98,-156.85"/>
<polygon fill="#63b8ff" stroke="#63b8ff" points="2044.1,-159.76 2051.99,-152.69 2041.41,-153.29 2044.1,-159.76"/>
</a>
</g>
</g>
<!-- Node28 -->
<g id="Node000028" class="node">
<title>Node28</title>
<g id="a_Node000028"><a xlink:href="../../d9/d85/packet__impl_2packet_8hpp.html" target="_top" xlink:title=" ">
<polygon fill="white" stroke="#666666" points="2118.56,-85.75 2058.31,-85.75 2058.31,-66.5 2118.56,-66.5 2118.56,-85.75"/>
<text text-anchor="middle" x="2088.43" y="-72.25" font-family="Times,serif" font-size="10.00">packet.hpp</text>
</a>
</g>
</g>
<!-- Node27&#45;&gt;Node28 -->
<g id="edge28_Node000027_Node000028" class="edge">
<title>Node27&#45;&gt;Node28</title>
<g id="a_edge28_Node000027_Node000028"><a xlink:title=" ">
<path fill="none" stroke="#63b8ff" d="M2088.43,-121.45C2088.43,-114.12 2088.43,-105.12 2088.43,-97.16"/>
<polygon fill="#63b8ff" stroke="#63b8ff" points="2091.93,-97.2 2088.43,-87.2 2084.93,-97.2 2091.93,-97.2"/>
</a>
</g>
</g>
<!-- Node29 -->
<g id="Node000029" class="node">
<title>Node29</title>
<g id="a_Node000029"><a xlink:title=" ">
<polygon fill="#e0e0e0" stroke="#999999" points="1903.68,-24.88 1817.18,-24.88 1817.18,-5.63 1903.68,-5.63 1903.68,-24.88"/>
<text text-anchor="middle" x="1860.43" y="-11.38" font-family="Times,serif" font-size="10.00">../../utils/utils.hpp</text>
</a>
</g>
</g>
<!-- Node28&#45;&gt;Node29 -->
<g id="edge29_Node000028_Node000029" class="edge">
<title>Node28&#45;&gt;Node29</title>
<g id="a_edge29_Node000028_Node000029"><a xlink:title=" ">
<path fill="none" stroke="#63b8ff" d="M2058.05,-67.51C2023.13,-58.72 1964.09,-43.77 1913.43,-30.5 1910.5,-29.73 1907.47,-28.93 1904.42,-28.12"/>
<polygon fill="#63b8ff" stroke="#63b8ff" points="1905.63,-24.56 1895.06,-25.36 1903.82,-31.32 1905.63,-24.56"/>
</a>
</g>
</g>
<!-- Node30 -->
<g id="Node000030" class="node">
<title>Node30</title>
<g id="a_Node000030"><a xlink:title=" ">
<polygon fill="#e0e0e0" stroke="#999999" points="2020.68,-30.5 1922.18,-30.5 1922.18,0 2020.68,0 2020.68,-30.5"/>
<text text-anchor="start" x="1930.18" y="-17" font-family="Times,serif" font-size="10.00">boost/archive/binary</text>
<text text-anchor="middle" x="1971.43" y="-5.75" font-family="Times,serif" font-size="10.00">_iarchive.hpp</text>
</a>
</g>
</g>
<!-- Node28&#45;&gt;Node30 -->
<g id="edge30_Node000028_Node000030" class="edge">
<title>Node28&#45;&gt;Node30</title>
<g id="a_edge30_Node000028_Node000030"><a xlink:title=" ">
<path fill="none" stroke="#63b8ff" d="M2070.41,-66.05C2054.43,-58.02 2030.56,-46 2010.26,-35.79"/>
<polygon fill="#63b8ff" stroke="#63b8ff" points="2012.14,-32.31 2001.64,-30.94 2009,-38.57 2012.14,-32.31"/>
</a>
</g>
</g>
<!-- Node31 -->
<g id="Node000031" class="node">
<title>Node31</title>
<g id="a_Node000031"><a xlink:title=" ">
<polygon fill="#e0e0e0" stroke="#999999" points="2137.68,-30.5 2039.18,-30.5 2039.18,0 2137.68,0 2137.68,-30.5"/>
<text text-anchor="start" x="2047.18" y="-17" font-family="Times,serif" font-size="10.00">boost/archive/binary</text>
<text text-anchor="middle" x="2088.43" y="-5.75" font-family="Times,serif" font-size="10.00">_oarchive.hpp</text>
</a>
</g>
</g>
<!-- Node28&#45;&gt;Node31 -->
<g id="edge31_Node000028_Node000031" class="edge">
<title>Node28&#45;&gt;Node31</title>
<g id="a_edge31_Node000028_Node000031"><a xlink:title=" ">
<path fill="none" stroke="#63b8ff" d="M2088.43,-66.18C2088.43,-59.65 2088.43,-50.45 2088.43,-41.72"/>
<polygon fill="#63b8ff" stroke="#63b8ff" points="2091.93,-41.78 2088.43,-31.78 2084.93,-41.78 2091.93,-41.78"/>
</a>
</g>
</g>
<!-- Node32 -->
<g id="Node000032" class="node">
<title>Node32</title>
<g id="a_Node000032"><a xlink:title=" ">
<polygon fill="#e0e0e0" stroke="#999999" points="2245.18,-30.5 2155.68,-30.5 2155.68,0 2245.18,0 2245.18,-30.5"/>
<text text-anchor="start" x="2163.68" y="-17" font-family="Times,serif" font-size="10.00">boost/serialization</text>
<text text-anchor="middle" x="2200.43" y="-5.75" font-family="Times,serif" font-size="10.00">/base_object.hpp</text>
</a>
</g>
</g>
<!-- Node28&#45;&gt;Node32 -->
<g id="edge32_Node000028_Node000032" class="edge">
<title>Node28&#45;&gt;Node32</title>
<g id="a_edge32_Node000028_Node000032"><a xlink:title=" ">
<path fill="none" stroke="#63b8ff" d="M2105.44,-66.18C2120.73,-58.15 2143.71,-46.07 2163.24,-35.8"/>
<polygon fill="#63b8ff" stroke="#63b8ff" points="2164.57,-38.53 2171.79,-30.78 2161.31,-32.34 2164.57,-38.53"/>
</a>
</g>
</g>
<!-- Node33 -->
<g id="Node000033" class="node">
<title>Node33</title>
<g id="a_Node000033"><a xlink:title=" ">
<polygon fill="#e0e0e0" stroke="#999999" points="2353.18,-30.5 2263.68,-30.5 2263.68,0 2353.18,0 2353.18,-30.5"/>
<text text-anchor="start" x="2271.68" y="-17" font-family="Times,serif" font-size="10.00">boost/serialization</text>
<text text-anchor="middle" x="2308.43" y="-5.75" font-family="Times,serif" font-size="10.00">/serialization.hpp</text>
</a>
</g>
</g>
<!-- Node28&#45;&gt;Node33 -->
<g id="edge33_Node000028_Node000033" class="edge">
<title>Node28&#45;&gt;Node33</title>
<g id="a_edge33_Node000028_Node000033"><a xlink:title=" ">
<path fill="none" stroke="#63b8ff" d="M2119.02,-66.94C2153.53,-57.71 2210.35,-42.5 2252.77,-31.15"/>
<polygon fill="#63b8ff" stroke="#63b8ff" points="2253.47,-34.31 2262.22,-28.35 2251.66,-27.55 2253.47,-34.31"/>
</a>
</g>
</g>
</g>
</svg>
