<?xml version="1.0" encoding="UTF-8" standalone="no"?>
<!DOCTYPE svg PUBLIC "-//W3C//DTD SVG 1.1//EN"
 "http://www.w3.org/Graphics/SVG/1.1/DTD/svg11.dtd">
<!-- Generated by graphviz version 8.1.0 (20230707.0739)
 -->
<!-- Title: mal_packet_weaver::crypto::Hash::as_uint8 Pages: 1 -->
<svg width="599pt" height="209pt"
 viewBox="0.00 0.00 599.25 209.12" xmlns="http://www.w3.org/2000/svg" xmlns:xlink="http://www.w3.org/1999/xlink">
<g id="graph0" class="graph" transform="scale(1 1) rotate(0) translate(4 205.12)">
<title>mal_packet_weaver::crypto::Hash::as_uint8</title>
<!-- Node1 -->
<g id="Node000001" class="node">
<title>Node1</title>
<g id="a_Node000001"><a xlink:title="Returns the hash value as an array of uint8_t.">
<polygon fill="#999999" stroke="#666666" points="591.25,-112.5 485.25,-112.5 485.25,-82 591.25,-82 591.25,-112.5"/>
<text text-anchor="start" x="493.25" y="-99" font-family="Times,serif" font-size="10.00">mal_packet_weaver::</text>
<text text-anchor="middle" x="538.25" y="-87.75" font-family="Times,serif" font-size="10.00">crypto::Hash::as_uint8</text>
</a>
</g>
</g>
<!-- Node2 -->
<g id="Node000002" class="node">
<title>Node2</title>
<g id="a_Node000002"><a xlink:href="../../d8/d88/classmal__packet__weaver_1_1crypto_1_1_e_c_d_s_a_1_1_signer.html#aa761598eda68fe2af6fd32c45dc0de64" target="_top" xlink:title="Signs a hash using the private key.">
<polygon fill="white" stroke="#666666" points="445.88,-148.12 336.88,-148.12 336.88,-106.38 445.88,-106.38 445.88,-148.12"/>
<text text-anchor="start" x="344.88" y="-134.62" font-family="Times,serif" font-size="10.00">mal_packet_weaver::</text>
<text text-anchor="start" x="344.88" y="-123.38" font-family="Times,serif" font-size="10.00">crypto::ECDSA::Signer</text>
<text text-anchor="middle" x="391.38" y="-112.12" font-family="Times,serif" font-size="10.00">::sign_hash</text>
</a>
</g>
</g>
<!-- Node1&#45;&gt;Node2 -->
<g id="edge1_Node000001_Node000002" class="edge">
<title>Node1&#45;&gt;Node2</title>
<g id="a_edge1_Node000001_Node000002"><a xlink:title=" ">
<path fill="none" stroke="#63b8ff" d="M474.41,-110.26C464.96,-112.22 455.3,-114.22 446.06,-116.13"/>
<polygon fill="#63b8ff" stroke="#63b8ff" points="474.86,-113.54 483.95,-108.08 473.44,-106.68 474.86,-113.54"/>
</a>
</g>
</g>
<!-- Node6 -->
<g id="Node000006" class="node">
<title>Node6</title>
<g id="a_Node000006"><a xlink:href="../../df/d2a/classmal__packet__weaver_1_1crypto_1_1_e_c_d_s_a_1_1_verifier.html#a7dadcfb3708f7f300b62d57574c71543" target="_top" xlink:title="Verifies a hash&#39;s signature.">
<polygon fill="white" stroke="#666666" points="449.25,-88.12 333.5,-88.12 333.5,-46.38 449.25,-46.38 449.25,-88.12"/>
<text text-anchor="start" x="341.5" y="-74.62" font-family="Times,serif" font-size="10.00">mal_packet_weaver::</text>
<text text-anchor="start" x="341.5" y="-63.38" font-family="Times,serif" font-size="10.00">crypto::ECDSA::Verifier</text>
<text text-anchor="middle" x="391.38" y="-52.12" font-family="Times,serif" font-size="10.00">::verify_hash</text>
</a>
</g>
</g>
<!-- Node1&#45;&gt;Node6 -->
<g id="edge5_Node000001_Node000006" class="edge">
<title>Node1&#45;&gt;Node6</title>
<g id="a_edge5_Node000001_Node000006"><a xlink:title=" ">
<path fill="none" stroke="#63b8ff" d="M474.26,-84.21C466.03,-82.5 457.63,-80.76 449.5,-79.08"/>
<polygon fill="#63b8ff" stroke="#63b8ff" points="473.44,-87.82 483.95,-86.42 474.86,-80.96 473.44,-87.82"/>
</a>
</g>
</g>
<!-- Node3 -->
<g id="Node000003" class="node">
<title>Node3</title>
<g id="a_Node000003"><a xlink:href="../../d8/d88/classmal__packet__weaver_1_1crypto_1_1_e_c_d_s_a_1_1_signer.html#a80725b1d55e0efaa11469e3182f0b1c2" target="_top" xlink:title="Signs binary data using the private key.">
<polygon fill="white" stroke="#666666" points="286.25,-201.12 177.25,-201.12 177.25,-159.38 286.25,-159.38 286.25,-201.12"/>
<text text-anchor="start" x="185.25" y="-187.62" font-family="Times,serif" font-size="10.00">mal_packet_weaver::</text>
<text text-anchor="start" x="185.25" y="-176.38" font-family="Times,serif" font-size="10.00">crypto::ECDSA::Signer</text>
<text text-anchor="middle" x="231.75" y="-165.12" font-family="Times,serif" font-size="10.00">::sign_data</text>
</a>
</g>
</g>
<!-- Node2&#45;&gt;Node3 -->
<g id="edge2_Node000002_Node000003" class="edge">
<title>Node2&#45;&gt;Node3</title>
<g id="a_edge2_Node000002_Node000003"><a xlink:title=" ">
<path fill="none" stroke="#63b8ff" d="M326.18,-148.84C313.03,-153.26 299.32,-157.87 286.58,-162.15"/>
<polygon fill="#63b8ff" stroke="#63b8ff" points="327.21,-151.85 335.57,-145.34 324.98,-145.21 327.21,-151.85"/>
</a>
</g>
</g>
<!-- Node5 -->
<g id="Node000005" class="node">
<title>Node5</title>
<g id="a_Node000005"><a xlink:href="../../d2/d8f/namespacemal__packet__weaver_1_1crypto_1_1_e_c_d_s_a.html#a17381fd8742dd748295e76f09b980cf0" target="_top" xlink:title=" ">
<polygon fill="white" stroke="#666666" points="293.75,-141.5 169.75,-141.5 169.75,-111 293.75,-111 293.75,-141.5"/>
<text text-anchor="start" x="177.75" y="-128" font-family="Times,serif" font-size="10.00">mal_packet_weaver::</text>
<text text-anchor="middle" x="231.75" y="-116.75" font-family="Times,serif" font-size="10.00">crypto::ECDSA::sign_hash</text>
</a>
</g>
</g>
<!-- Node2&#45;&gt;Node5 -->
<g id="edge4_Node000002_Node000005" class="edge">
<title>Node2&#45;&gt;Node5</title>
<g id="a_edge4_Node000002_Node000005"><a xlink:title=" ">
<path fill="none" stroke="#63b8ff" d="M325.83,-126.84C315.36,-126.77 304.56,-126.71 294.17,-126.64"/>
<polygon fill="#63b8ff" stroke="#63b8ff" points="325.55,-130.35 335.57,-126.91 325.59,-123.35 325.55,-130.35"/>
</a>
</g>
</g>
<!-- Node4 -->
<g id="Node000004" class="node">
<title>Node4</title>
<g id="a_Node000004"><a xlink:href="../../d2/d8f/namespacemal__packet__weaver_1_1crypto_1_1_e_c_d_s_a.html#ac3a3b5adbeac074fe5e7a57d22d44d7c" target="_top" xlink:title=" ">
<polygon fill="white" stroke="#666666" points="126.25,-195.5 3.75,-195.5 3.75,-165 126.25,-165 126.25,-195.5"/>
<text text-anchor="start" x="11.75" y="-182" font-family="Times,serif" font-size="10.00">mal_packet_weaver::</text>
<text text-anchor="middle" x="65" y="-170.75" font-family="Times,serif" font-size="10.00">crypto::ECDSA::sign_data</text>
</a>
</g>
</g>
<!-- Node3&#45;&gt;Node4 -->
<g id="edge3_Node000003_Node000004" class="edge">
<title>Node3&#45;&gt;Node4</title>
<g id="a_edge3_Node000003_Node000004"><a xlink:title=" ">
<path fill="none" stroke="#63b8ff" d="M166.07,-180.25C153.08,-180.25 139.47,-180.25 126.63,-180.25"/>
<polygon fill="#63b8ff" stroke="#63b8ff" points="165.8,-183.75 175.8,-180.25 165.8,-176.75 165.8,-183.75"/>
</a>
</g>
</g>
<!-- Node7 -->
<g id="Node000007" class="node">
<title>Node7</title>
<g id="a_Node000007"><a xlink:href="../../df/d2a/classmal__packet__weaver_1_1crypto_1_1_e_c_d_s_a_1_1_verifier.html#abcc0625ece25e293be526e07ad78d6d5" target="_top" xlink:title="Verifies the signature of binary data.">
<polygon fill="white" stroke="#666666" points="289.62,-90.12 173.88,-90.12 173.88,-48.38 289.62,-48.38 289.62,-90.12"/>
<text text-anchor="start" x="181.88" y="-76.62" font-family="Times,serif" font-size="10.00">mal_packet_weaver::</text>
<text text-anchor="start" x="181.88" y="-65.38" font-family="Times,serif" font-size="10.00">crypto::ECDSA::Verifier</text>
<text text-anchor="middle" x="231.75" y="-54.12" font-family="Times,serif" font-size="10.00">::verify_data</text>
</a>
</g>
</g>
<!-- Node6&#45;&gt;Node7 -->
<g id="edge6_Node000006_Node000007" class="edge">
<title>Node6&#45;&gt;Node7</title>
<g id="a_edge6_Node000006_Node000007"><a xlink:title=" ">
<path fill="none" stroke="#63b8ff" d="M322.04,-68.12C311.37,-68.25 300.45,-68.39 290.06,-68.52"/>
<polygon fill="#63b8ff" stroke="#63b8ff" points="322.07,-71.6 332.02,-67.98 321.98,-64.6 322.07,-71.6"/>
</a>
</g>
</g>
<!-- Node9 -->
<g id="Node000009" class="node">
<title>Node9</title>
<g id="a_Node000009"><a xlink:href="../../d2/d8f/namespacemal__packet__weaver_1_1crypto_1_1_e_c_d_s_a.html#ab6dd92f9047e147b5c13dd905bf6905a" target="_top" xlink:title=" ">
<polygon fill="white" stroke="#666666" points="297.5,-30.5 166,-30.5 166,0 297.5,0 297.5,-30.5"/>
<text text-anchor="start" x="174" y="-17" font-family="Times,serif" font-size="10.00">mal_packet_weaver::</text>
<text text-anchor="middle" x="231.75" y="-5.75" font-family="Times,serif" font-size="10.00">crypto::ECDSA::verify_hash</text>
</a>
</g>
</g>
<!-- Node6&#45;&gt;Node9 -->
<g id="edge8_Node000006_Node000009" class="edge">
<title>Node6&#45;&gt;Node9</title>
<g id="a_edge8_Node000006_Node000009"><a xlink:title=" ">
<path fill="none" stroke="#63b8ff" d="M322.77,-44.95C308.53,-40.25 293.8,-35.39 280.47,-30.99"/>
<polygon fill="#63b8ff" stroke="#63b8ff" points="321.43,-48.52 332.02,-48.33 323.62,-41.87 321.43,-48.52"/>
</a>
</g>
</g>
<!-- Node8 -->
<g id="Node000008" class="node">
<title>Node8</title>
<g id="a_Node000008"><a xlink:href="../../d2/d8f/namespacemal__packet__weaver_1_1crypto_1_1_e_c_d_s_a.html#a945499cfa6f78a7ab8ad28f12064a9ea" target="_top" xlink:title=" ">
<polygon fill="white" stroke="#666666" points="130,-84.5 0,-84.5 0,-54 130,-54 130,-84.5"/>
<text text-anchor="start" x="8" y="-71" font-family="Times,serif" font-size="10.00">mal_packet_weaver::</text>
<text text-anchor="middle" x="65" y="-59.75" font-family="Times,serif" font-size="10.00">crypto::ECDSA::verify_data</text>
</a>
</g>
</g>
<!-- Node7&#45;&gt;Node8 -->
<g id="edge7_Node000007_Node000008" class="edge">
<title>Node7&#45;&gt;Node8</title>
<g id="a_edge7_Node000007_Node000008"><a xlink:title=" ">
<path fill="none" stroke="#63b8ff" d="M162.63,-69.25C151.96,-69.25 140.97,-69.25 130.39,-69.25"/>
<polygon fill="#63b8ff" stroke="#63b8ff" points="162.59,-72.75 172.59,-69.25 162.59,-65.75 162.59,-72.75"/>
</a>
</g>
</g>
</g>
</svg>
