<?xml version="1.0" encoding="UTF-8" standalone="no"?>
<!DOCTYPE svg PUBLIC "-//W3C//DTD SVG 1.1//EN"
 "http://www.w3.org/Graphics/SVG/1.1/DTD/svg11.dtd">
<!-- Generated by graphviz version 9.0.0 (20230911.1827)
 -->
<!-- Title: mal_packet_weaver::portable_binary_iarchive Pages: 1 -->
<svg width="360pt" height="158pt"
 viewBox="0.00 0.00 359.50 158.12" xmlns="http://www.w3.org/2000/svg" xmlns:xlink="http://www.w3.org/1999/xlink">
<g id="graph0" class="graph" transform="scale(1 1) rotate(0) translate(4 154.12)">
<title>mal_packet_weaver::portable_binary_iarchive</title>
<!-- Node1 -->
<g id="Node000001" class="node">
<title>Node1</title>
<g id="a_Node000001"><a xlink:title=" ">
<polygon fill="#999999" stroke="#666666" points="351.5,-73.88 235.75,-73.88 235.75,-43.38 351.5,-43.38 351.5,-73.88"/>
<text text-anchor="start" x="243.75" y="-60.38" font-family="Times,serif" font-size="10.00">mal_packet_weaver::</text>
<text text-anchor="middle" x="293.62" y="-49.12" font-family="Times,serif" font-size="10.00">portable_binary_iarchive</text>
</a>
</g>
</g>
<!-- Node2 -->
<g id="Node000002" class="node">
<title>Node2</title>
<g id="a_Node000002"><a xlink:href="../../dd/d4d/classboost_1_1archive_1_1basic__binary__iprimitive.html" target="_top" xlink:title=" ">
<polygon fill="white" stroke="#666666" points="166.75,-150.12 0,-150.12 0,-97.12 166.75,-97.12 166.75,-150.12"/>
<text text-anchor="start" x="8" y="-136.62" font-family="Times,serif" font-size="10.00">boost::archive::basic</text>
<text text-anchor="start" x="8" y="-125.38" font-family="Times,serif" font-size="10.00">_binary_iprimitive&lt; portable</text>
<text text-anchor="start" x="8" y="-114.12" font-family="Times,serif" font-size="10.00">_binary_iarchive, std::istream</text>
<text text-anchor="middle" x="83.38" y="-102.88" font-family="Times,serif" font-size="10.00">::char_type, std::istream::traits_type &gt;</text>
</a>
</g>
</g>
<!-- Node2&#45;&gt;Node1 -->
<g id="edge1_Node000001_Node000002" class="edge">
<title>Node2&#45;&gt;Node1</title>
<g id="a_edge1_Node000001_Node000002"><a xlink:title=" ">
<path fill="none" stroke="#63b8ff" d="M177.8,-94.46C199.98,-87.54 222.82,-80.41 242.23,-74.35"/>
<polygon fill="#63b8ff" stroke="#63b8ff" points="176.93,-91.07 168.42,-97.39 179.01,-97.75 176.93,-91.07"/>
</a>
</g>
</g>
<!-- Node3 -->
<g id="Node000003" class="node">
<title>Node3</title>
<g id="a_Node000003"><a xlink:href="../../dd/dd2/classboost_1_1archive_1_1detail_1_1common__iarchive.html" target="_top" xlink:title=" ">
<polygon fill="white" stroke="#666666" points="149.12,-79.5 17.62,-79.5 17.62,-37.75 149.12,-37.75 149.12,-79.5"/>
<text text-anchor="start" x="25.62" y="-66" font-family="Times,serif" font-size="10.00">boost::archive::detail</text>
<text text-anchor="start" x="25.62" y="-54.75" font-family="Times,serif" font-size="10.00">::common_iarchive&lt; portable</text>
<text text-anchor="middle" x="83.38" y="-43.5" font-family="Times,serif" font-size="10.00">_binary_iarchive &gt;</text>
</a>
</g>
</g>
<!-- Node3&#45;&gt;Node1 -->
<g id="edge2_Node000001_Node000003" class="edge">
<title>Node3&#45;&gt;Node1</title>
<g id="a_edge2_Node000001_Node000003"><a xlink:title=" ">
<path fill="none" stroke="#63b8ff" d="M160.6,-58.62C185.34,-58.62 212.36,-58.62 235.47,-58.62"/>
<polygon fill="#63b8ff" stroke="#63b8ff" points="160.92,-55.13 150.92,-58.63 160.92,-62.13 160.92,-55.13"/>
</a>
</g>
</g>
<!-- Node4 -->
<g id="Node000004" class="node">
<title>Node4</title>
<g id="a_Node000004"><a xlink:title=" ">
<polygon fill="white" stroke="#666666" points="115,-19.25 51.75,-19.25 51.75,0 115,0 115,-19.25"/>
<text text-anchor="middle" x="83.38" y="-5.75" font-family="Times,serif" font-size="10.00">unsigned int</text>
</a>
</g>
</g>
<!-- Node4&#45;&gt;Node1 -->
<g id="edge3_Node000001_Node000004" class="edge">
<title>Node4&#45;&gt;Node1</title>
<g id="a_edge3_Node000001_Node000004"><a xlink:title=" ">
<path fill="none" stroke="#9a32cd" stroke-dasharray="5,2" d="M126.28,-19.23C139.26,-22.22 153.6,-25.54 166.75,-28.62 189.17,-33.88 213.81,-39.74 235.31,-44.87"/>
<polygon fill="#9a32cd" stroke="#9a32cd" points="127.3,-15.87 116.76,-17.04 125.73,-22.69 127.3,-15.87"/>
</a>
</g>
<text text-anchor="middle" x="201.25" y="-41.38" font-family="Times,serif" font-size="10.00" fill="grey"> m_flags</text>
</g>
</g>
</svg>
