<?xml version="1.0" encoding="UTF-8" standalone="no"?>
<!DOCTYPE svg PUBLIC "-//W3C//DTD SVG 1.1//EN"
 "http://www.w3.org/Graphics/SVG/1.1/DTD/svg11.dtd">
<!-- Generated by graphviz version 8.1.0 (20230707.0739)
 -->
<!-- Title: mal&#45;packet&#45;weaver/mal&#45;packet&#45;weaver/crypto/aes.hpp Pages: 1 -->
<svg width="260pt" height="105pt"
 viewBox="0.00 0.00 260.12 105.00" xmlns="http://www.w3.org/2000/svg" xmlns:xlink="http://www.w3.org/1999/xlink">
<g id="graph0" class="graph" transform="scale(1 1) rotate(0) translate(4 101)">
<title>mal&#45;packet&#45;weaver/mal&#45;packet&#45;weaver/crypto/aes.hpp</title>
<!-- Node1 -->
<g id="Node000001" class="node">
<title>Node1</title>
<g id="a_Node000001"><a xlink:title=" ">
<polygon fill="#999999" stroke="#666666" points="184.25,-97 76.75,-97 76.75,-55.25 184.25,-55.25 184.25,-97"/>
<text text-anchor="start" x="84.75" y="-83.5" font-family="Times,serif" font-size="10.00">mal&#45;packet&#45;weaver/mal</text>
<text text-anchor="start" x="84.75" y="-72.25" font-family="Times,serif" font-size="10.00">&#45;packet&#45;weaver/crypto</text>
<text text-anchor="middle" x="130.5" y="-61" font-family="Times,serif" font-size="10.00">/aes.hpp</text>
</a>
</g>
</g>
<!-- Node2 -->
<g id="Node000002" class="node">
<title>Node2</title>
<g id="a_Node000002"><a xlink:title=" ">
<polygon fill="#e0e0e0" stroke="#999999" points="79,-19.25 0,-19.25 0,0 79,0 79,-19.25"/>
<text text-anchor="middle" x="39.5" y="-5.75" font-family="Times,serif" font-size="10.00">../utils/utils.hpp</text>
</a>
</g>
</g>
<!-- Node1&#45;&gt;Node2 -->
<g id="edge1_Node000001_Node000002" class="edge">
<title>Node1&#45;&gt;Node2</title>
<g id="a_edge1_Node000001_Node000002"><a xlink:title=" ">
<path fill="none" stroke="#63b8ff" d="M102.21,-55.07C88.9,-45.64 73.3,-34.58 60.98,-25.85"/>
<polygon fill="#63b8ff" stroke="#63b8ff" points="63.48,-22.62 53.3,-19.7 59.43,-28.33 63.48,-22.62"/>
</a>
</g>
</g>
<!-- Node3 -->
<g id="Node000003" class="node">
<title>Node3</title>
<g id="a_Node000003"><a xlink:title=" ">
<polygon fill="#e0e0e0" stroke="#999999" points="164.38,-19.25 96.62,-19.25 96.62,0 164.38,0 164.38,-19.25"/>
<text text-anchor="middle" x="130.5" y="-5.75" font-family="Times,serif" font-size="10.00">openssl/aes.h</text>
</a>
</g>
</g>
<!-- Node1&#45;&gt;Node3 -->
<g id="edge2_Node000001_Node000003" class="edge">
<title>Node1&#45;&gt;Node3</title>
<g id="a_edge2_Node000001_Node000003"><a xlink:title=" ">
<path fill="none" stroke="#63b8ff" d="M130.5,-55.07C130.5,-47.3 130.5,-38.43 130.5,-30.67"/>
<polygon fill="#63b8ff" stroke="#63b8ff" points="134,-30.7 130.5,-20.7 127,-30.7 134,-30.7"/>
</a>
</g>
</g>
<!-- Node4 -->
<g id="Node000004" class="node">
<title>Node4</title>
<g id="a_Node000004"><a xlink:title=" ">
<polygon fill="#e0e0e0" stroke="#999999" points="252.12,-19.25 182.88,-19.25 182.88,0 252.12,0 252.12,-19.25"/>
<text text-anchor="middle" x="217.5" y="-5.75" font-family="Times,serif" font-size="10.00">openssl/evp.h</text>
</a>
</g>
</g>
<!-- Node1&#45;&gt;Node4 -->
<g id="edge3_Node000001_Node000004" class="edge">
<title>Node1&#45;&gt;Node4</title>
<g id="a_edge3_Node000001_Node000004"><a xlink:title=" ">
<path fill="none" stroke="#63b8ff" d="M157.55,-55.07C170.15,-45.73 184.9,-34.8 196.62,-26.11"/>
<polygon fill="#63b8ff" stroke="#63b8ff" points="198.32,-28.46 204.27,-19.7 194.15,-22.84 198.32,-28.46"/>
</a>
</g>
</g>
</g>
</svg>
