<?xml version="1.0" encoding="UTF-8" standalone="no"?>
<!DOCTYPE svg PUBLIC "-//W3C//DTD SVG 1.1//EN"
 "http://www.w3.org/Graphics/SVG/1.1/DTD/svg11.dtd">
<!-- Generated by graphviz version 7.0.5 (20221223.1930)
 -->
<!-- Title: mal&#45;packet&#45;weaver/mal&#45;packet&#45;weaver/crypto/aes.hpp Pages: 1 -->
<svg width="279pt" height="104pt"
 viewBox="0.00 0.00 279.00 104.00" xmlns="http://www.w3.org/2000/svg" xmlns:xlink="http://www.w3.org/1999/xlink">
<g id="graph0" class="graph" transform="scale(1 1) rotate(0) translate(4 100)">
<title>mal&#45;packet&#45;weaver/mal&#45;packet&#45;weaver/crypto/aes.hpp</title>
<!-- Node1 -->
<g id="node1" class="node">
<title>Node1</title>
<g id="a_node1"><a xlink:title=" ">
<polygon fill="#999999" stroke="#666666" points="196.5,-96 78.5,-96 78.5,-55 196.5,-55 196.5,-96"/>
<text text-anchor="start" x="86.5" y="-84" font-family="Helvetica,sans-Serif" font-size="10.00">mal&#45;packet&#45;weaver/mal</text>
<text text-anchor="start" x="86.5" y="-73" font-family="Helvetica,sans-Serif" font-size="10.00">&#45;packet&#45;weaver/crypto</text>
<text text-anchor="middle" x="137.5" y="-62" font-family="Helvetica,sans-Serif" font-size="10.00">/aes.hpp</text>
</a>
</g>
</g>
<!-- Node2 -->
<g id="node2" class="node">
<title>Node2</title>
<g id="a_node2"><a xlink:title=" ">
<polygon fill="#e0e0e0" stroke="#999999" points="81,-19 0,-19 0,0 81,0 81,-19"/>
<text text-anchor="middle" x="40.5" y="-7" font-family="Helvetica,sans-Serif" font-size="10.00">../utils/utils.hpp</text>
</a>
</g>
</g>
<!-- Node1&#45;&gt;Node2 -->
<g id="edge1" class="edge">
<title>Node1&#45;&gt;Node2</title>
<path fill="none" stroke="#63b8ff" d="M107.34,-54.6C93.07,-45.19 76.32,-34.13 63.15,-25.44"/>
<polygon fill="#63b8ff" stroke="#63b8ff" points="65.42,-22.75 55.15,-20.16 61.57,-28.59 65.42,-22.75"/>
</g>
<!-- Node3 -->
<g id="node3" class="node">
<title>Node3</title>
<g id="a_node3"><a xlink:title=" ">
<polygon fill="#e0e0e0" stroke="#999999" points="176,-19 99,-19 99,0 176,0 176,-19"/>
<text text-anchor="middle" x="137.5" y="-7" font-family="Helvetica,sans-Serif" font-size="10.00">openssl/aes.h</text>
</a>
</g>
</g>
<!-- Node1&#45;&gt;Node3 -->
<g id="edge2" class="edge">
<title>Node1&#45;&gt;Node3</title>
<path fill="none" stroke="#63b8ff" d="M137.5,-54.6C137.5,-46.98 137.5,-38.3 137.5,-30.66"/>
<polygon fill="#63b8ff" stroke="#63b8ff" points="141,-30.68 137.5,-20.68 134,-30.68 141,-30.68"/>
</g>
<!-- Node4 -->
<g id="node4" class="node">
<title>Node4</title>
<g id="a_node4"><a xlink:title=" ">
<polygon fill="#e0e0e0" stroke="#999999" points="271,-19 194,-19 194,0 271,0 271,-19"/>
<text text-anchor="middle" x="232.5" y="-7" font-family="Helvetica,sans-Serif" font-size="10.00">openssl/evp.h</text>
</a>
</g>
</g>
<!-- Node1&#45;&gt;Node4 -->
<g id="edge3" class="edge">
<title>Node1&#45;&gt;Node4</title>
<path fill="none" stroke="#63b8ff" d="M167.04,-54.6C180.96,-45.22 197.3,-34.21 210.17,-25.54"/>
<polygon fill="#63b8ff" stroke="#63b8ff" points="212.05,-28.5 218.39,-20.01 208.14,-22.69 212.05,-28.5"/>
</g>
</g>
</svg>
