<?xml version="1.0" encoding="UTF-8" standalone="no"?>
<!DOCTYPE svg PUBLIC "-//W3C//DTD SVG 1.1//EN"
 "http://www.w3.org/Graphics/SVG/1.1/DTD/svg11.dtd">
<!-- Generated by graphviz version 7.0.5 (20221223.1930)
 -->
<!-- Title: mal_packet_weaver::crypto::ECDSA::KeyPairGenerator Pages: 1 -->
<svg width="397pt" height="98pt"
 viewBox="0.00 0.00 397.00 97.50" xmlns="http://www.w3.org/2000/svg" xmlns:xlink="http://www.w3.org/1999/xlink">
<g id="graph0" class="graph" transform="scale(1 1) rotate(0) translate(4 93.5)">
<title>mal_packet_weaver::crypto::ECDSA::KeyPairGenerator</title>
<!-- Node1 -->
<g id="node1" class="node">
<title>Node1</title>
<g id="a_node1"><a xlink:title="Generates ECDSA key pairs for a given curve.">
<polygon fill="#999999" stroke="#666666" points="389,-62.5 228,-62.5 228,-32.5 389,-32.5 389,-62.5"/>
<text text-anchor="start" x="236" y="-50.5" font-family="Helvetica,sans-Serif" font-size="10.00">mal_packet_weaver::</text>
<text text-anchor="middle" x="308.5" y="-39.5" font-family="Helvetica,sans-Serif" font-size="10.00">crypto::ECDSA::KeyPairGenerator</text>
</a>
</g>
</g>
<!-- Node2 -->
<g id="node2" class="node">
<title>Node2</title>
<g id="a_node2"><a xlink:title=" ">
<polygon fill="white" stroke="#666666" points="134.5,-89.5 36.5,-89.5 36.5,-59.5 134.5,-59.5 134.5,-89.5"/>
<text text-anchor="start" x="44.5" y="-77.5" font-family="Helvetica,sans-Serif" font-size="10.00">utils::non_copyable</text>
<text text-anchor="middle" x="85.5" y="-66.5" font-family="Helvetica,sans-Serif" font-size="10.00">_non_movable</text>
</a>
</g>
</g>
<!-- Node2&#45;&gt;Node1 -->
<g id="edge1" class="edge">
<title>Node2&#45;&gt;Node1</title>
<path fill="none" stroke="#8b1a1a" d="M146.2,-67.21C171.32,-64.14 200.91,-60.52 227.85,-57.23"/>
<polygon fill="#8b1a1a" stroke="#8b1a1a" points="146,-63.7 136.5,-68.39 146.85,-70.65 146,-63.7"/>
</g>
<!-- Node3 -->
<g id="node3" class="node">
<title>Node3</title>
<g id="a_node3"><a xlink:title=" ">
<polygon fill="white" stroke="#666666" points="171,-41 0,-41 0,0 171,0 171,-41"/>
<text text-anchor="start" x="8" y="-29" font-family="Helvetica,sans-Serif" font-size="10.00">std::unique_ptr&lt; EVP</text>
<text text-anchor="start" x="8" y="-18" font-family="Helvetica,sans-Serif" font-size="10.00">_PKEY_CTX, OPENSSL_OBJECT</text>
<text text-anchor="middle" x="85.5" y="-7" font-family="Helvetica,sans-Serif" font-size="10.00">_WRAPPER&lt; EVP_PKEY_CTX &gt; &gt;</text>
</a>
</g>
</g>
<!-- Node3&#45;&gt;Node1 -->
<g id="edge2" class="edge">
<title>Node3&#45;&gt;Node1</title>
<path fill="none" stroke="#9a32cd" stroke-dasharray="5,2" d="M182.69,-32.25C197.69,-34.08 213.05,-35.96 227.64,-37.74"/>
<polygon fill="#9a32cd" stroke="#9a32cd" points="183.17,-28.78 172.81,-31.05 182.32,-35.73 183.17,-28.78"/>
<text text-anchor="middle" x="199.5" y="-38.5" font-family="Helvetica,sans-Serif" font-size="10.00"> ctx_</text>
</g>
</g>
</svg>
