<?xml version="1.0" encoding="UTF-8" standalone="no"?>
<!DOCTYPE svg PUBLIC "-//W3C//DTD SVG 1.1//EN"
 "http://www.w3.org/Graphics/SVG/1.1/DTD/svg11.dtd">
<!-- Generated by graphviz version 8.1.0 (20230707.0739)
 -->
<!-- Title: mal_packet_weaver::crypto::ECDSA::KeyPairGenerator Pages: 1 -->
<svg width="758pt" height="115pt"
 viewBox="0.00 0.00 757.55 114.88" xmlns="http://www.w3.org/2000/svg" xmlns:xlink="http://www.w3.org/1999/xlink">
<g id="graph0" class="graph" transform="scale(1 1) rotate(0) translate(4 110.88)">
<title>mal_packet_weaver::crypto::ECDSA::KeyPairGenerator</title>
<!-- Node1 -->
<g id="Node000001" class="node">
<title>Node1</title>
<g id="a_Node000001"><a xlink:title="Generates ECDSA key pairs for a given curve.">
<polygon fill="#999999" stroke="#666666" points="749.55,-79.88 592.55,-79.88 592.55,-49.38 749.55,-49.38 749.55,-79.88"/>
<text text-anchor="start" x="600.55" y="-66.38" font-family="Times,serif" font-size="10.00">mal_packet_weaver::</text>
<text text-anchor="middle" x="671.05" y="-55.12" font-family="Times,serif" font-size="10.00">crypto::ECDSA::KeyPairGenerator</text>
</a>
</g>
</g>
<!-- Node2 -->
<g id="Node000002" class="node">
<title>Node2</title>
<g id="a_Node000002"><a xlink:title=" ">
<polygon fill="white" stroke="#666666" points="498.05,-106.88 406.3,-106.88 406.3,-76.38 498.05,-76.38 498.05,-106.88"/>
<text text-anchor="start" x="414.3" y="-93.38" font-family="Times,serif" font-size="10.00">utils::non_copyable</text>
<text text-anchor="middle" x="452.17" y="-82.12" font-family="Times,serif" font-size="10.00">_non_movable</text>
</a>
</g>
</g>
<!-- Node2&#45;&gt;Node1 -->
<g id="edge1_Node000001_Node000002" class="edge">
<title>Node2&#45;&gt;Node1</title>
<g id="a_edge1_Node000001_Node000002"><a xlink:title=" ">
<path fill="none" stroke="#8b1a1a" d="M509.27,-84.64C534.61,-81.49 564.97,-77.71 592.44,-74.29"/>
<polygon fill="#8b1a1a" stroke="#8b1a1a" points="508.87,-81.29 499.38,-86 509.73,-88.24 508.87,-81.29"/>
</a>
</g>
</g>
<!-- Node3 -->
<g id="Node000003" class="node">
<title>Node3</title>
<g id="a_Node000003"><a xlink:title=" ">
<polygon fill="white" stroke="#666666" points="537.05,-58.5 367.3,-58.5 367.3,-16.75 537.05,-16.75 537.05,-58.5"/>
<text text-anchor="start" x="375.3" y="-45" font-family="Times,serif" font-size="10.00">std::unique_ptr&lt; EVP</text>
<text text-anchor="start" x="375.3" y="-33.75" font-family="Times,serif" font-size="10.00">_PKEY_CTX, OPENSSL_OBJECT</text>
<text text-anchor="middle" x="452.17" y="-22.5" font-family="Times,serif" font-size="10.00">_WRAPPER&lt; EVP_PKEY_CTX &gt; &gt;</text>
</a>
</g>
</g>
<!-- Node3&#45;&gt;Node1 -->
<g id="edge2_Node000001_Node000003" class="edge">
<title>Node3&#45;&gt;Node1</title>
<g id="a_edge2_Node000001_Node000003"><a xlink:title=" ">
<path fill="none" stroke="#9a32cd" stroke-dasharray="5,2" d="M548.03,-49.43C562.83,-51.28 577.97,-53.16 592.32,-54.95"/>
<polygon fill="#9a32cd" stroke="#9a32cd" points="548.69,-45.86 538.33,-48.1 547.83,-52.81 548.69,-45.86"/>
</a>
</g>
<text text-anchor="middle" x="564.8" y="-53.38" font-family="Times,serif" font-size="10.00" fill="grey"> ctx_</text>
</g>
<!-- Node4 -->
<g id="Node000004" class="node">
<title>Node4</title>
<g id="a_Node000004"><a xlink:title=" ">
<polygon fill="white" stroke="#666666" points="174.17,-76.25 83.17,-76.25 83.17,-57 174.17,-57 174.17,-76.25"/>
<text text-anchor="middle" x="128.67" y="-62.75" font-family="Times,serif" font-size="10.00">EVP_PKEY_CTX</text>
</a>
</g>
</g>
<!-- Node4&#45;&gt;Node3 -->
<g id="edge3_Node000003_Node000004" class="edge">
<title>Node4&#45;&gt;Node3</title>
<g id="a_edge3_Node000003_Node000004"><a xlink:title=" ">
<path fill="none" stroke="#9a32cd" stroke-dasharray="5,2" d="M185.29,-61.61C235.3,-57.1 309.49,-50.41 366.8,-45.24"/>
<polygon fill="#9a32cd" stroke="#9a32cd" points="185.02,-58.21 175.38,-62.59 185.65,-65.18 185.02,-58.21"/>
</a>
</g>
<text text-anchor="middle" x="272.8" y="-61.38" font-family="Times,serif" font-size="10.00" fill="grey"> ptr</text>
</g>
<!-- Node5 -->
<g id="Node000005" class="node">
<title>Node5</title>
<g id="a_Node000005"><a xlink:title=" ">
<polygon fill="white" stroke="#666666" points="178.3,-19.25 79.05,-19.25 79.05,0 178.3,0 178.3,-19.25"/>
<text text-anchor="middle" x="128.67" y="-5.75" font-family="Times,serif" font-size="10.00">std::unique_ptr&lt; T &gt;</text>
</a>
</g>
</g>
<!-- Node5&#45;&gt;Node3 -->
<g id="edge4_Node000003_Node000005" class="edge">
<title>Node5&#45;&gt;Node3</title>
<g id="a_edge4_Node000003_Node000005"><a xlink:title=" ">
<path fill="none" stroke="orange" stroke-dasharray="5,2" d="M189.64,-5.93C233.95,-4.18 295.63,-3.79 349.3,-10.88 359,-12.16 369.09,-14.07 378.99,-16.29"/>
<polygon fill="orange" stroke="orange" points="189.6,-2.47 179.76,-6.4 189.91,-9.47 189.6,-2.47"/>
</a>
</g>
<text text-anchor="start" x="196.3" y="-35.88" font-family="Times,serif" font-size="10.00" fill="grey"> &lt; EVP_PKEY_CTX, OPENSSL</text>
<text text-anchor="start" x="196.3" y="-24.62" font-family="Times,serif" font-size="10.00" fill="grey">_OBJECT_WRAPPER&lt; EVP_PKEY</text>
<text text-anchor="middle" x="272.8" y="-13.38" font-family="Times,serif" font-size="10.00" fill="grey">_CTX &gt; &gt;</text>
</g>
<!-- Node6 -->
<g id="Node000006" class="node">
<title>Node6</title>
<g id="a_Node000006"><a xlink:title=" ">
<polygon fill="white" stroke="#666666" points="28.8,-19.25 0,-19.25 0,0 28.8,0 28.8,-19.25"/>
<text text-anchor="middle" x="14.4" y="-5.75" font-family="Times,serif" font-size="10.00">T</text>
</a>
</g>
</g>
<!-- Node6&#45;&gt;Node5 -->
<g id="edge5_Node000005_Node000006" class="edge">
<title>Node6&#45;&gt;Node5</title>
<g id="a_edge5_Node000005_Node000006"><a xlink:title=" ">
<path fill="none" stroke="#9a32cd" stroke-dasharray="5,2" d="M39.96,-9.62C51.32,-9.62 65.25,-9.62 78.63,-9.62"/>
<polygon fill="#9a32cd" stroke="#9a32cd" points="40.17,-6.13 30.17,-9.62 40.17,-13.13 40.17,-6.13"/>
</a>
</g>
<text text-anchor="middle" x="53.92" y="-11.38" font-family="Times,serif" font-size="10.00" fill="grey"> ptr</text>
</g>
</g>
</svg>
