<?xml version="1.0" encoding="UTF-8" standalone="no"?>
<!DOCTYPE svg PUBLIC "-//W3C//DTD SVG 1.1//EN"
 "http://www.w3.org/Graphics/SVG/1.1/DTD/svg11.dtd">
<!-- Generated by graphviz version 8.1.0 (20230707.0739)
 -->
<!-- Title: mal_packet_weaver::packet::crypto::DHKeyExchangeRequestPacket Pages: 1 -->
<svg width="271pt" height="341pt"
 viewBox="0.00 0.00 270.88 341.25" xmlns="http://www.w3.org/2000/svg" xmlns:xlink="http://www.w3.org/1999/xlink">
<g id="graph0" class="graph" transform="scale(1 1) rotate(0) translate(4 337.25)">
<title>mal_packet_weaver::packet::crypto::DHKeyExchangeRequestPacket</title>
<!-- Node1 -->
<g id="Node000001" class="node">
<title>Node1</title>
<g id="a_Node000001"><a xlink:title="Packet for Diffie&#45;Hellman key exchange request.">
<polygon fill="#999999" stroke="#666666" points="151,-41.75 3.75,-41.75 3.75,0 151,0 151,-41.75"/>
<text text-anchor="start" x="11.75" y="-28.25" font-family="Times,serif" font-size="10.00">mal_packet_weaver::</text>
<text text-anchor="start" x="11.75" y="-17" font-family="Times,serif" font-size="10.00">packet::crypto::DHKeyExchange</text>
<text text-anchor="middle" x="77.38" y="-5.75" font-family="Times,serif" font-size="10.00">RequestPacket</text>
</a>
</g>
</g>
<!-- Node2 -->
<g id="Node000002" class="node">
<title>Node2</title>
<g id="a_Node000002"><a xlink:href="../../dd/d2b/classmal__packet__weaver_1_1_derived_packet.html" target="_top" xlink:title=" ">
<polygon fill="white" stroke="#666666" points="154.75,-120.5 0,-120.5 0,-78.75 154.75,-78.75 154.75,-120.5"/>
<text text-anchor="start" x="8" y="-107" font-family="Times,serif" font-size="10.00">mal_packet_weaver::</text>
<text text-anchor="start" x="8" y="-95.75" font-family="Times,serif" font-size="10.00">DerivedPacket&lt; class</text>
<text text-anchor="middle" x="77.38" y="-84.5" font-family="Times,serif" font-size="10.00"> DHKeyExchangeRequestPacket &gt;</text>
</a>
</g>
</g>
<!-- Node2&#45;&gt;Node1 -->
<g id="edge1_Node000001_Node000002" class="edge">
<title>Node2&#45;&gt;Node1</title>
<g id="a_edge1_Node000001_Node000002"><a xlink:title=" ">
<path fill="none" stroke="#63b8ff" d="M77.38,-67.63C77.38,-59.06 77.38,-49.97 77.38,-42.17"/>
<polygon fill="#63b8ff" stroke="#63b8ff" points="73.88,-67.46 77.38,-77.46 80.88,-67.46 73.88,-67.46"/>
</a>
</g>
</g>
<!-- Node3 -->
<g id="Node000003" class="node">
<title>Node3</title>
<g id="a_Node000003"><a xlink:href="../../d2/d9d/classmal__packet__weaver_1_1_packet.html" target="_top" xlink:title="Base class for all packets.">
<polygon fill="white" stroke="#666666" points="123,-277 23.75,-277 23.75,-246.5 123,-246.5 123,-277"/>
<text text-anchor="start" x="31.75" y="-263.5" font-family="Times,serif" font-size="10.00">mal_packet_weaver::</text>
<text text-anchor="middle" x="73.38" y="-252.25" font-family="Times,serif" font-size="10.00">Packet</text>
</a>
</g>
</g>
<!-- Node3&#45;&gt;Node2 -->
<g id="edge2_Node000002_Node000003" class="edge">
<title>Node3&#45;&gt;Node2</title>
<g id="a_edge2_Node000002_Node000003"><a xlink:title=" ">
<path fill="none" stroke="#63b8ff" d="M74.01,-235.26C74.8,-203.54 76.14,-150 76.87,-120.91"/>
<polygon fill="#63b8ff" stroke="#63b8ff" points="70.49,-235.17 73.74,-245.26 77.49,-235.35 70.49,-235.17"/>
</a>
</g>
</g>
<!-- Node5 -->
<g id="Node000005" class="node">
<title>Node5</title>
<g id="a_Node000005"><a xlink:href="../../dd/d2b/classmal__packet__weaver_1_1_derived_packet.html" target="_top" xlink:title="A templated class representing a derived packet from the base Packet class.">
<polygon fill="white" stroke="#666666" points="227.12,-209.5 89.62,-209.5 89.62,-179 227.12,-179 227.12,-209.5"/>
<text text-anchor="start" x="97.62" y="-196" font-family="Times,serif" font-size="10.00">mal_packet_weaver::</text>
<text text-anchor="middle" x="158.38" y="-184.75" font-family="Times,serif" font-size="10.00">DerivedPacket&lt; PacketType &gt;</text>
</a>
</g>
</g>
<!-- Node3&#45;&gt;Node5 -->
<g id="edge5_Node000005_Node000003" class="edge">
<title>Node3&#45;&gt;Node5</title>
<g id="a_edge5_Node000005_Node000003"><a xlink:title=" ">
<path fill="none" stroke="#63b8ff" d="M100.93,-239.51C113.46,-229.86 127.97,-218.68 139.27,-209.97"/>
<polygon fill="#63b8ff" stroke="#63b8ff" points="99.02,-237.34 93.24,-246.21 103.3,-242.88 99.02,-237.34"/>
</a>
</g>
</g>
<!-- Node4 -->
<g id="Node000004" class="node">
<title>Node4</title>
<g id="a_Node000004"><a xlink:title=" ">
<polygon fill="white" stroke="#666666" points="119.25,-333.25 27.5,-333.25 27.5,-314 119.25,-314 119.25,-333.25"/>
<text text-anchor="middle" x="73.38" y="-319.75" font-family="Times,serif" font-size="10.00">utils::non_copyable</text>
</a>
</g>
</g>
<!-- Node4&#45;&gt;Node3 -->
<g id="edge3_Node000003_Node000004" class="edge">
<title>Node4&#45;&gt;Node3</title>
<g id="a_edge3_Node000003_Node000004"><a xlink:title=" ">
<path fill="none" stroke="#63b8ff" d="M73.38,-302.77C73.38,-294.37 73.38,-284.76 73.38,-277.07"/>
<polygon fill="#63b8ff" stroke="#63b8ff" points="69.88,-302.53 73.38,-312.53 76.88,-302.53 69.88,-302.53"/>
</a>
</g>
</g>
<!-- Node5&#45;&gt;Node2 -->
<g id="edge4_Node000002_Node000005" class="edge">
<title>Node5&#45;&gt;Node2</title>
<g id="a_edge4_Node000002_Node000005"><a xlink:title=" ">
<path fill="none" stroke="orange" stroke-dasharray="5,2" d="M138.8,-170.86C125.46,-155.61 107.96,-135.6 95.05,-120.84"/>
<polygon fill="orange" stroke="orange" points="136.5,-172.55 145.72,-177.78 141.77,-167.95 136.5,-172.55"/>
</a>
</g>
<text text-anchor="start" x="129.38" y="-151.5" font-family="Times,serif" font-size="10.00" fill="grey"> &lt; class DHKeyExchangeRequest</text>
<text text-anchor="middle" x="196.12" y="-140.25" font-family="Times,serif" font-size="10.00" fill="grey">Packet &gt;</text>
</g>
</g>
</svg>
