<?xml version="1.0" encoding="UTF-8" standalone="no"?>
<!DOCTYPE svg PUBLIC "-//W3C//DTD SVG 1.1//EN"
 "http://www.w3.org/Graphics/SVG/1.1/DTD/svg11.dtd">
<!-- Generated by graphviz version 8.1.0 (20230707.0739)
 -->
<!-- Title: mal_packet_weaver::crypto::ECDSA::Verifier::verify_data Pages: 1 -->
<svg width="431pt" height="186pt"
 viewBox="0.00 0.00 431.00 185.50" xmlns="http://www.w3.org/2000/svg" xmlns:xlink="http://www.w3.org/1999/xlink">

<svg id="main" version="1.1" xmlns="http://www.w3.org/2000/svg" xmlns:xlink="http://www.w3.org/1999/xlink" xml:space="preserve" onload="init(evt)">
<style type="text/css"><![CDATA[
.node, .edge {opacity: 0.7;}
.node.selected, .edge.selected {opacity: 1;}
.edge:hover path { stroke: red; }
.edge:hover polygon { stroke: red; fill: red; }
]]></style>
<script type="application/ecmascript" xlink:href="../../svg.min.js"/>
<svg id="graph" class="graph">
<g id="graph0" class="graph" transform="scale(1 1) rotate(0) translate(4 181.5)">
<title>mal_packet_weaver::crypto::ECDSA::Verifier::verify_data</title>
<!-- Node1 -->
<g id="Node000001" class="node">
<title>Node1</title>
<g id="a_Node000001"><a xlink:title="Verifies the signature of binary data.">
<polygon fill="#999999" stroke="#666666" points="115.75,-112.12 0,-112.12 0,-70.38 115.75,-70.38 115.75,-112.12"/>
<text text-anchor="start" x="8" y="-98.62" font-family="Times,serif" font-size="10.00">mal_packet_weaver::</text>
<text text-anchor="start" x="8" y="-87.38" font-family="Times,serif" font-size="10.00">crypto::ECDSA::Verifier</text>
<text text-anchor="middle" x="57.88" y="-76.12" font-family="Times,serif" font-size="10.00">::verify_data</text>
</a>
</g>
</g>
<!-- Node2 -->
<g id="Node000002" class="node">
<title>Node2</title>
<g id="a_Node000002"><a xlink:href="../../dd/dd7/namespacemal__packet__weaver_1_1crypto_1_1_s_h_a.html#a11d1f9c659cddb5ebfa6f560e4772fb2" target="_top" xlink:title="Computes a hash value for the given data using the specified hash algorithm.">
<polygon fill="white" stroke="#666666" points="281,-133.5 151.75,-133.5 151.75,-103 281,-103 281,-133.5"/>
<text text-anchor="start" x="159.75" y="-120" font-family="Times,serif" font-size="10.00">mal_packet_weaver::</text>
<text text-anchor="middle" x="216.38" y="-108.75" font-family="Times,serif" font-size="10.00">crypto::SHA::ComputeHash</text>
</a>
</g>
</g>
<!-- Node1&#45;&gt;Node2 -->
<g id="edge1_Node000001_Node000002" class="edge">
<title>Node1&#45;&gt;Node2</title>
<g id="a_edge1_Node000001_Node000002"><a xlink:title=" ">
<path fill="none" stroke="#63b8ff" d="M115.82,-101.07C123.93,-102.47 132.37,-103.93 140.76,-105.38"/>
<polygon fill="#63b8ff" stroke="#63b8ff" points="139.87,-108.95 150.32,-107.2 141.06,-102.05 139.87,-108.95"/>
</a>
</g>
</g>
<!-- Node5 -->
<g id="Node000005" class="node">
<title>Node5</title>
<g id="a_Node000005"><a xlink:href="../../df/d2a/classmal__packet__weaver_1_1crypto_1_1_e_c_d_s_a_1_1_verifier.html#a7dadcfb3708f7f300b62d57574c71543" target="_top" xlink:title="Verifies a hash&#39;s signature.">
<polygon fill="white" stroke="#666666" points="274.25,-85.12 158.5,-85.12 158.5,-43.38 274.25,-43.38 274.25,-85.12"/>
<text text-anchor="start" x="166.5" y="-71.62" font-family="Times,serif" font-size="10.00">mal_packet_weaver::</text>
<text text-anchor="start" x="166.5" y="-60.38" font-family="Times,serif" font-size="10.00">crypto::ECDSA::Verifier</text>
<text text-anchor="middle" x="216.38" y="-49.12" font-family="Times,serif" font-size="10.00">::verify_hash</text>
</a>
</g>
</g>
<!-- Node1&#45;&gt;Node5 -->
<g id="edge4_Node000001_Node000005" class="edge">
<title>Node1&#45;&gt;Node5</title>
<g id="a_edge4_Node000001_Node000005"><a xlink:title=" ">
<path fill="none" stroke="#63b8ff" d="M115.82,-81.43C126.17,-79.64 137.07,-77.76 147.7,-75.93"/>
<polygon fill="#63b8ff" stroke="#63b8ff" points="147.95,-79.26 157.21,-74.11 146.76,-72.36 147.95,-79.26"/>
</a>
</g>
</g>
<!-- Node3 -->
<g id="Node000003" class="node">
<title>Node3</title>
<g id="a_Node000003"><a xlink:href="../../d4/d9d/structmal__packet__weaver_1_1_byte_array.html#a5ce0c445aa4f44df9f44ddcfe8bff0ef" target="_top" xlink:title="Convert the ByteArray to a typed pointer.">
<polygon fill="white" stroke="#666666" points="419.62,-177.5 320.38,-177.5 320.38,-147 419.62,-147 419.62,-177.5"/>
<text text-anchor="start" x="328.38" y="-164" font-family="Times,serif" font-size="10.00">mal_packet_weaver::</text>
<text text-anchor="middle" x="370" y="-152.75" font-family="Times,serif" font-size="10.00">ByteArray::as</text>
</a>
</g>
</g>
<!-- Node2&#45;&gt;Node3 -->
<g id="edge2_Node000002_Node000003" class="edge">
<title>Node2&#45;&gt;Node3</title>
<g id="a_edge2_Node000002_Node000003"><a xlink:title=" ">
<path fill="none" stroke="#63b8ff" d="M271.26,-133.89C283.69,-137.5 296.99,-141.35 309.65,-145.03"/>
<polygon fill="#63b8ff" stroke="#63b8ff" points="308.51,-148.63 319.09,-148.06 310.46,-141.91 308.51,-148.63"/>
</a>
</g>
</g>
<!-- Node4 -->
<g id="Node000004" class="node">
<title>Node4</title>
<g id="a_Node000004"><a xlink:href="../../d7/d41/structmal__packet__weaver_1_1_byte_view.html#a642359fac9a65d40ddf6c01077ffade3" target="_top" xlink:title="Convert the ByteView to a typed view.">
<polygon fill="white" stroke="#666666" points="419.62,-128.5 320.38,-128.5 320.38,-98 419.62,-98 419.62,-128.5"/>
<text text-anchor="start" x="328.38" y="-115" font-family="Times,serif" font-size="10.00">mal_packet_weaver::</text>
<text text-anchor="middle" x="370" y="-103.75" font-family="Times,serif" font-size="10.00">ByteView::as</text>
</a>
</g>
</g>
<!-- Node2&#45;&gt;Node4 -->
<g id="edge3_Node000002_Node000004" class="edge">
<title>Node2&#45;&gt;Node4</title>
<g id="a_edge3_Node000002_Node000004"><a xlink:title=" ">
<path fill="none" stroke="#63b8ff" d="M281.24,-116.14C290.44,-115.84 299.89,-115.53 309.02,-115.23"/>
<polygon fill="#63b8ff" stroke="#63b8ff" points="309.08,-118.7 318.95,-114.87 308.84,-111.7 309.08,-118.7"/>
</a>
</g>
</g>
<!-- Node5&#45;&gt;Node4 -->
<g id="edge5_Node000005_Node000004" class="edge">
<title>Node5&#45;&gt;Node4</title>
<g id="a_edge5_Node000005_Node000004"><a xlink:title=" ">
<path fill="none" stroke="#63b8ff" d="M274.7,-82.77C286.37,-86.55 298.67,-90.52 310.39,-94.31"/>
<polygon fill="#63b8ff" stroke="#63b8ff" points="308.92,-97.84 319.51,-97.58 311.07,-91.17 308.92,-97.84"/>
</a>
</g>
</g>
<!-- Node6 -->
<g id="Node000006" class="node">
<title>Node6</title>
<g id="a_Node000006"><a xlink:href="../../d4/dce/structmal__packet__weaver_1_1crypto_1_1_hash.html#a56814e7ed05e83459d82911f73a546a6" target="_top" xlink:title="Returns the hash value as an array of uint8_t.">
<polygon fill="white" stroke="#666666" points="423,-79.5 317,-79.5 317,-49 423,-49 423,-79.5"/>
<text text-anchor="start" x="325" y="-66" font-family="Times,serif" font-size="10.00">mal_packet_weaver::</text>
<text text-anchor="middle" x="370" y="-54.75" font-family="Times,serif" font-size="10.00">crypto::Hash::as_uint8</text>
</a>
</g>
</g>
<!-- Node5&#45;&gt;Node6 -->
<g id="edge6_Node000005_Node000006" class="edge">
<title>Node5&#45;&gt;Node6</title>
<g id="a_edge6_Node000005_Node000006"><a xlink:title=" ">
<path fill="none" stroke="#63b8ff" d="M274.7,-64.25C284.8,-64.25 295.36,-64.25 305.62,-64.25"/>
<polygon fill="#63b8ff" stroke="#63b8ff" points="305.59,-67.75 315.59,-64.25 305.59,-60.75 305.59,-67.75"/>
</a>
</g>
</g>
<!-- Node7 -->
<g id="Node000007" class="node">
<title>Node7</title>
<g id="a_Node000007"><a xlink:href="../../d4/dce/structmal__packet__weaver_1_1crypto_1_1_hash.html#a1a1c4c13a115cbd43ac275fef6f3966d" target="_top" xlink:title="Returns the size of the hash value in bytes.">
<polygon fill="white" stroke="#666666" points="419.62,-30.5 320.38,-30.5 320.38,0 419.62,0 419.62,-30.5"/>
<text text-anchor="start" x="328.38" y="-17" font-family="Times,serif" font-size="10.00">mal_packet_weaver::</text>
<text text-anchor="middle" x="370" y="-5.75" font-family="Times,serif" font-size="10.00">crypto::Hash::size</text>
</a>
</g>
</g>
<!-- Node5&#45;&gt;Node7 -->
<g id="edge7_Node000005_Node000007" class="edge">
<title>Node5&#45;&gt;Node7</title>
<g id="a_edge7_Node000005_Node000007"><a xlink:title=" ">
<path fill="none" stroke="#63b8ff" d="M274.7,-45.73C286.37,-41.95 298.67,-37.98 310.39,-34.19"/>
<polygon fill="#63b8ff" stroke="#63b8ff" points="311.07,-37.33 319.51,-30.92 308.92,-30.66 311.07,-37.33"/>
</a>
</g>
</g>
</g>
</svg>
</svg>

<style type='text/css'>
<![CDATA[
[data-mouse-over-selected='false'] { opacity: 0.7; }
[data-mouse-over-selected='true']  { opacity: 1.0; }
]]>
</style>
<script type="application/ecmascript"><![CDATA[
document.addEventListener('DOMContentLoaded', (event) => {
  highlightEdges();
  highlightAdjacentNodes();
});
]]></script>
</svg>
