<?xml version="1.0" encoding="UTF-8" standalone="no"?>
<!DOCTYPE svg PUBLIC "-//W3C//DTD SVG 1.1//EN"
 "http://www.w3.org/Graphics/SVG/1.1/DTD/svg11.dtd">
<!-- Generated by graphviz version 8.1.0 (20230707.0739)
 -->
<!-- Title: mal_toolkit::Measurer&lt; clock &gt; Pages: 1 -->
<svg width="681pt" height="232pt"
 viewBox="0.00 0.00 681.00 231.88" xmlns="http://www.w3.org/2000/svg" xmlns:xlink="http://www.w3.org/1999/xlink">
<g id="graph0" class="graph" transform="scale(1 1) rotate(0) translate(4 227.88)">
<title>mal_toolkit::Measurer&lt; clock &gt;</title>
<!-- Node1 -->
<g id="Node000001" class="node">
<title>Node1</title>
<g id="a_Node000001"><a xlink:title="A class for measuring and logging the execution time of functions.">
<polygon fill="#999999" stroke="#666666" points="673,-132.88 569.25,-132.88 569.25,-102.38 673,-102.38 673,-132.88"/>
<text text-anchor="start" x="577.25" y="-119.38" font-family="Times,serif" font-size="10.00">mal_toolkit::Measurer</text>
<text text-anchor="middle" x="621.12" y="-108.12" font-family="Times,serif" font-size="10.00">&lt; clock &gt;</text>
</a>
</g>
</g>
<!-- Node2 -->
<g id="Node000002" class="node">
<title>Node2</title>
<g id="a_Node000002"><a xlink:title=" ">
<polygon fill="white" stroke="#666666" points="34,-213.25 0,-213.25 0,-194 34,-194 34,-213.25"/>
<text text-anchor="middle" x="17" y="-199.75" font-family="Times,serif" font-size="10.00">float</text>
</a>
</g>
</g>
<!-- Node2&#45;&gt;Node1 -->
<g id="edge1_Node000001_Node000002" class="edge">
<title>Node2&#45;&gt;Node1</title>
<g id="a_edge1_Node000001_Node000002"><a xlink:title=" ">
<path fill="none" stroke="#9a32cd" stroke-dasharray="5,2" d="M44.99,-208.83C47.35,-209.15 49.71,-209.42 52,-209.62 71.26,-211.31 76.17,-209.76 95.5,-209.62 258.4,-208.51 299.93,-221.04 462,-204.62 502.17,-200.56 515.64,-206.66 551.25,-187.62 575.91,-174.44 597.24,-149.42 609.39,-133.14"/>
<polygon fill="#9a32cd" stroke="#9a32cd" points="45.61,-205.22 35.18,-207.07 44.49,-212.13 45.61,-205.22"/>
</a>
</g>
<text text-anchor="middle" x="284.38" y="-214.38" font-family="Times,serif" font-size="10.00" fill="grey"> time_to_flush</text>
</g>
<!-- Node8 -->
<g id="Node000008" class="node">
<title>Node8</title>
<g id="a_Node000008"><a xlink:href="../../db/ddb/structmal__toolkit_1_1_measurer_1_1_entry.html" target="_top" xlink:title=" ">
<polygon fill="white" stroke="#666666" points="217.25,-195.88 113.5,-195.88 113.5,-165.38 217.25,-165.38 217.25,-195.88"/>
<text text-anchor="start" x="121.5" y="-182.38" font-family="Times,serif" font-size="10.00">mal_toolkit::Measurer</text>
<text text-anchor="middle" x="165.38" y="-171.12" font-family="Times,serif" font-size="10.00">&lt; clock &gt;::Entry</text>
</a>
</g>
</g>
<!-- Node2&#45;&gt;Node8 -->
<g id="edge8_Node000008_Node000002" class="edge">
<title>Node2&#45;&gt;Node8</title>
<g id="a_edge8_Node000008_Node000002"><a xlink:title=" ">
<path fill="none" stroke="#9a32cd" stroke-dasharray="5,2" d="M44.41,-189.6C46.93,-188.63 49.48,-187.78 52,-187.12 71.57,-182.03 93.69,-179.99 113.09,-179.37"/>
<polygon fill="#9a32cd" stroke="#9a32cd" points="43.16,-186.77 35.44,-194.03 46,-193.16 43.16,-186.77"/>
</a>
</g>
<text text-anchor="middle" x="73.75" y="-199.62" font-family="Times,serif" font-size="10.00" fill="grey"> elapsed</text>
<text text-anchor="middle" x="73.75" y="-188.38" font-family="Times,serif" font-size="10.00" fill="grey">entry_time</text>
</g>
<!-- Node3 -->
<g id="Node000003" class="node">
<title>Node3</title>
<g id="a_Node000003"><a xlink:title=" ">
<polygon fill="white" stroke="#666666" points="426.75,-147.25 386.75,-147.25 386.75,-128 426.75,-128 426.75,-147.25"/>
<text text-anchor="middle" x="406.75" y="-133.75" font-family="Times,serif" font-size="10.00">size_t</text>
</a>
</g>
</g>
<!-- Node3&#45;&gt;Node1 -->
<g id="edge2_Node000001_Node000003" class="edge">
<title>Node3&#45;&gt;Node1</title>
<g id="a_edge2_Node000001_Node000003"><a xlink:title=" ">
<path fill="none" stroke="#9a32cd" stroke-dasharray="5,2" d="M437.6,-134.81C471.62,-131.61 527.81,-126.32 568.87,-122.45"/>
<polygon fill="#9a32cd" stroke="#9a32cd" points="437.6,-131.39 427.97,-135.81 438.26,-138.36 437.6,-131.39"/>
</a>
</g>
<text text-anchor="middle" x="515.62" y="-142.62" font-family="Times,serif" font-size="10.00" fill="grey"> index</text>
<text text-anchor="middle" x="515.62" y="-131.38" font-family="Times,serif" font-size="10.00" fill="grey">maximum_entries</text>
</g>
<!-- Node4 -->
<g id="Node000004" class="node">
<title>Node4</title>
<g id="a_Node000004"><a xlink:title=" ">
<polygon fill="white" stroke="#666666" points="423.38,-110.25 390.12,-110.25 390.12,-91 423.38,-91 423.38,-110.25"/>
<text text-anchor="middle" x="406.75" y="-96.75" font-family="Times,serif" font-size="10.00">bool</text>
</a>
</g>
</g>
<!-- Node4&#45;&gt;Node1 -->
<g id="edge3_Node000001_Node000004" class="edge">
<title>Node4&#45;&gt;Node1</title>
<g id="a_edge3_Node000001_Node000004"><a xlink:title=" ">
<path fill="none" stroke="#9a32cd" stroke-dasharray="5,2" d="M434.59,-98.96C463.5,-97.59 510.81,-96.56 551.25,-101.38 556.98,-102.06 562.93,-103.04 568.83,-104.18"/>
<polygon fill="#9a32cd" stroke="#9a32cd" points="434.55,-95.51 424.75,-99.53 434.92,-102.5 434.55,-95.51"/>
</a>
</g>
<text text-anchor="middle" x="515.62" y="-102.38" font-family="Times,serif" font-size="10.00" fill="grey"> log_automatically</text>
</g>
<!-- Node5 -->
<g id="Node000005" class="node">
<title>Node5</title>
<g id="a_Node000005"><a xlink:title=" ">
<polygon fill="white" stroke="#666666" points="434.62,-73.25 378.88,-73.25 378.88,-54 434.62,-54 434.62,-73.25"/>
<text text-anchor="middle" x="406.75" y="-59.75" font-family="Times,serif" font-size="10.00">std::string</text>
</a>
</g>
</g>
<!-- Node5&#45;&gt;Node1 -->
<g id="edge4_Node000001_Node000005" class="edge">
<title>Node5&#45;&gt;Node1</title>
<g id="a_edge4_Node000001_Node000005"><a xlink:title=" ">
<path fill="none" stroke="#9a32cd" stroke-dasharray="5,2" d="M445.68,-65.04C475.06,-66.98 516.47,-71.56 551.25,-82.38 566.39,-87.08 582.2,-94.94 594.85,-102.04"/>
<polygon fill="#9a32cd" stroke="#9a32cd" points="446.24,-61.51 436.05,-64.42 445.83,-68.5 446.24,-61.51"/>
</a>
</g>
<text text-anchor="middle" x="515.62" y="-83.38" font-family="Times,serif" font-size="10.00" fill="grey"> output</text>
</g>
<!-- Node6 -->
<g id="Node000006" class="node">
<title>Node6</title>
<g id="a_Node000006"><a xlink:title=" ">
<polygon fill="white" stroke="#666666" points="209,-78.88 121.75,-78.88 121.75,-48.38 209,-48.38 209,-78.88"/>
<text text-anchor="start" x="129.75" y="-65.38" font-family="Times,serif" font-size="10.00">std::basic_string&lt;</text>
<text text-anchor="middle" x="165.38" y="-54.12" font-family="Times,serif" font-size="10.00"> Char &gt;</text>
</a>
</g>
</g>
<!-- Node6&#45;&gt;Node5 -->
<g id="edge5_Node000005_Node000006" class="edge">
<title>Node6&#45;&gt;Node5</title>
<g id="a_edge5_Node000005_Node000006"><a xlink:title=" ">
<path fill="none" stroke="#63b8ff" d="M220.23,-63.62C269.48,-63.62 340.32,-63.62 378.65,-63.62"/>
<polygon fill="#63b8ff" stroke="#63b8ff" points="220.45,-60.13 210.45,-63.62 220.45,-67.13 220.45,-60.13"/>
</a>
</g>
</g>
<!-- Node7 -->
<g id="Node000007" class="node">
<title>Node7</title>
<g id="a_Node000007"><a xlink:title=" ">
<polygon fill="white" stroke="#666666" points="462,-195.88 351.5,-195.88 351.5,-165.38 462,-165.38 462,-195.88"/>
<text text-anchor="start" x="359.5" y="-182.38" font-family="Times,serif" font-size="10.00">std::vector&lt; mal_toolkit</text>
<text text-anchor="middle" x="406.75" y="-171.12" font-family="Times,serif" font-size="10.00">::Measurer::Entry &gt;</text>
</a>
</g>
</g>
<!-- Node7&#45;&gt;Node1 -->
<g id="edge6_Node000001_Node000007" class="edge">
<title>Node7&#45;&gt;Node1</title>
<g id="a_edge6_Node000001_Node000007"><a xlink:title=" ">
<path fill="none" stroke="#9a32cd" stroke-dasharray="5,2" d="M473.19,-174.58C498.11,-171.01 526.47,-165.41 551.25,-156.62 567.44,-150.89 584.24,-141.46 597.2,-133.3"/>
<polygon fill="#9a32cd" stroke="#9a32cd" points="472.81,-171.23 463.37,-176.03 473.75,-178.17 472.81,-171.23"/>
</a>
</g>
<text text-anchor="middle" x="515.62" y="-174.38" font-family="Times,serif" font-size="10.00" fill="grey"> entries</text>
</g>
<!-- Node8&#45;&gt;Node7 -->
<g id="edge7_Node000007_Node000008" class="edge">
<title>Node8&#45;&gt;Node7</title>
<g id="a_edge7_Node000007_Node000008"><a xlink:title=" ">
<path fill="none" stroke="#9a32cd" stroke-dasharray="5,2" d="M228.65,-180.62C266.62,-180.62 314.68,-180.62 351.15,-180.62"/>
<polygon fill="#9a32cd" stroke="#9a32cd" points="228.73,-177.13 218.73,-180.62 228.73,-184.13 228.73,-177.13"/>
</a>
</g>
<text text-anchor="middle" x="284.38" y="-182.38" font-family="Times,serif" font-size="10.00" fill="grey"> elements</text>
</g>
<!-- Node9 -->
<g id="Node000009" class="node">
<title>Node9</title>
<g id="a_Node000009"><a xlink:title=" ">
<polygon fill="white" stroke="#666666" points="205.25,-144.25 125.5,-144.25 125.5,-125 205.25,-125 205.25,-144.25"/>
<text text-anchor="middle" x="165.38" y="-130.75" font-family="Times,serif" font-size="10.00">std::vector&lt; T &gt;</text>
</a>
</g>
</g>
<!-- Node9&#45;&gt;Node7 -->
<g id="edge9_Node000007_Node000009" class="edge">
<title>Node9&#45;&gt;Node7</title>
<g id="a_edge9_Node000007_Node000009"><a xlink:title=" ">
<path fill="none" stroke="orange" stroke-dasharray="5,2" d="M216.56,-137.39C250.03,-139.98 294.82,-144.91 333.5,-154.12 344.94,-156.85 357.05,-160.83 368.02,-164.89"/>
<polygon fill="orange" stroke="orange" points="216.89,-133.83 206.66,-136.59 216.38,-140.81 216.89,-133.83"/>
</a>
</g>
<text text-anchor="start" x="235.25" y="-166.62" font-family="Times,serif" font-size="10.00" fill="grey"> &lt; mal_toolkit::Measurer</text>
<text text-anchor="middle" x="284.38" y="-155.38" font-family="Times,serif" font-size="10.00" fill="grey">::Entry &gt;</text>
</g>
<!-- Node10 -->
<g id="Node000010" class="node">
<title>Node10</title>
<g id="a_Node000010"><a xlink:title=" ">
<polygon fill="white" stroke="#666666" points="31.4,-144.25 2.6,-144.25 2.6,-125 31.4,-125 31.4,-144.25"/>
<text text-anchor="middle" x="17" y="-130.75" font-family="Times,serif" font-size="10.00">T</text>
</a>
</g>
</g>
<!-- Node10&#45;&gt;Node9 -->
<g id="edge10_Node000009_Node000010" class="edge">
<title>Node10&#45;&gt;Node9</title>
<g id="a_edge10_Node000009_Node000010"><a xlink:title=" ">
<path fill="none" stroke="#9a32cd" stroke-dasharray="5,2" d="M42.72,-134.62C65.23,-134.62 98.85,-134.62 125.05,-134.62"/>
<polygon fill="#9a32cd" stroke="#9a32cd" points="42.77,-131.13 32.77,-134.62 42.77,-138.13 42.77,-131.13"/>
</a>
</g>
<text text-anchor="middle" x="73.75" y="-136.38" font-family="Times,serif" font-size="10.00" fill="grey"> elements</text>
</g>
<!-- Node11 -->
<g id="Node000011" class="node">
<title>Node11</title>
<g id="a_Node000011"><a xlink:title=" ">
<polygon fill="white" stroke="#666666" points="446.25,-19.25 367.25,-19.25 367.25,0 446.25,0 446.25,-19.25"/>
<text text-anchor="middle" x="406.75" y="-5.75" font-family="Times,serif" font-size="10.00">Timer&lt; clock &gt;</text>
</a>
</g>
</g>
<!-- Node11&#45;&gt;Node1 -->
<g id="edge11_Node000001_Node000011" class="edge">
<title>Node11&#45;&gt;Node1</title>
<g id="a_edge11_Node000001_Node000011"><a xlink:title=" ">
<path fill="none" stroke="#9a32cd" stroke-dasharray="5,2" d="M457.29,-7.65C486.4,-8.59 522.93,-13.56 551.25,-29.88 580.62,-46.8 602.02,-81.59 612.62,-101.91"/>
<polygon fill="#9a32cd" stroke="#9a32cd" points="457.58,-4.13 447.52,-7.47 457.46,-11.13 457.58,-4.13"/>
</a>
</g>
<text text-anchor="middle" x="515.62" y="-54.88" font-family="Times,serif" font-size="10.00" fill="grey"> entry_time</text>
<text text-anchor="middle" x="515.62" y="-43.62" font-family="Times,serif" font-size="10.00" fill="grey">flush</text>
<text text-anchor="middle" x="515.62" y="-32.38" font-family="Times,serif" font-size="10.00" fill="grey">measure</text>
</g>
</g>
</svg>
