<?xml version="1.0" encoding="UTF-8" standalone="no"?>
<!DOCTYPE svg PUBLIC "-//W3C//DTD SVG 1.1//EN"
 "http://www.w3.org/Graphics/SVG/1.1/DTD/svg11.dtd">
<!-- Generated by graphviz version 7.0.5 (20221223.1930)
 -->
<!-- Title: node_system::DispatcherSession Pages: 1 -->
<svg width="1484pt" height="662pt"
 viewBox="0.00 0.00 1484.00 661.50" xmlns="http://www.w3.org/2000/svg" xmlns:xlink="http://www.w3.org/1999/xlink">
<g id="graph0" class="graph" transform="scale(1 1) rotate(0) translate(4 657.5)">
<title>node_system::DispatcherSession</title>
<!-- Node1 -->
<g id="node1" class="node">
<title>Node1</title>
<g id="a_node1"><a xlink:title=" ">
<polygon fill="#999999" stroke="#666666" points="1476,-464 1315,-464 1315,-445 1476,-445 1476,-464"/>
<text text-anchor="middle" x="1395.5" y="-452" font-family="Helvetica,sans-Serif" font-size="10.00">node_system::DispatcherSession</text>
</a>
</g>
</g>
<!-- Node2 -->
<g id="node2" class="node">
<title>Node2</title>
<g id="a_node2"><a xlink:title=" ">
<polygon fill="white" stroke="#666666" points="1214.5,-522.5 1104.5,-522.5 1104.5,-492.5 1214.5,-492.5 1214.5,-522.5"/>
<text text-anchor="start" x="1112.5" y="-510.5" font-family="Helvetica,sans-Serif" font-size="10.00">std::shared_ptr&lt; node</text>
<text text-anchor="middle" x="1159.5" y="-499.5" font-family="Helvetica,sans-Serif" font-size="10.00">_system::Session &gt;</text>
</a>
</g>
</g>
<!-- Node2&#45;&gt;Node1 -->
<g id="edge1" class="edge">
<title>Node2&#45;&gt;Node1</title>
<path fill="none" stroke="#9a32cd" stroke-dasharray="5,2" d="M1225.99,-492.67C1265.82,-483.65 1315.6,-472.37 1350.69,-464.42"/>
<polygon fill="#9a32cd" stroke="#9a32cd" points="1225.23,-489.25 1216.25,-494.87 1226.77,-496.08 1225.23,-489.25"/>
<text text-anchor="middle" x="1273" y="-489.5" font-family="Helvetica,sans-Serif" font-size="10.00"> session_</text>
</g>
<!-- Node3 -->
<g id="node3" class="node">
<title>Node3</title>
<g id="a_node3"><a xlink:href="../../d4/d49/classnode__system_1_1_session.html" target="_top" xlink:title="Represents a network session for sending and receiving packets.">
<polygon fill="white" stroke="#666666" points="1017,-546 903,-546 903,-527 1017,-527 1017,-546"/>
<text text-anchor="middle" x="960" y="-534" font-family="Helvetica,sans-Serif" font-size="10.00">node_system::Session</text>
</a>
</g>
</g>
<!-- Node3&#45;&gt;Node2 -->
<g id="edge2" class="edge">
<title>Node3&#45;&gt;Node2</title>
<path fill="none" stroke="#9a32cd" stroke-dasharray="5,2" d="M1028.44,-526.6C1053.13,-522.97 1080.73,-518.92 1104.14,-515.48"/>
<polygon fill="#9a32cd" stroke="#9a32cd" points="1028.21,-523.09 1018.83,-528.01 1029.23,-530.02 1028.21,-523.09"/>
<text text-anchor="middle" x="1063" y="-524.5" font-family="Helvetica,sans-Serif" font-size="10.00"> ptr</text>
</g>
<!-- Node4 -->
<g id="node4" class="node">
<title>Node4</title>
<g id="a_node4"><a xlink:title=" ">
<polygon fill="white" stroke="#666666" points="220,-653.5 122,-653.5 122,-623.5 220,-623.5 220,-653.5"/>
<text text-anchor="start" x="130" y="-641.5" font-family="Helvetica,sans-Serif" font-size="10.00">utils::non_copyable</text>
<text text-anchor="middle" x="171" y="-630.5" font-family="Helvetica,sans-Serif" font-size="10.00">_non_movable</text>
</a>
</g>
</g>
<!-- Node4&#45;&gt;Node3 -->
<g id="edge3" class="edge">
<title>Node4&#45;&gt;Node3</title>
<path fill="none" stroke="#63b8ff" d="M231.75,-640.93C335.27,-644.18 554.38,-646.8 737,-620.5 794.72,-612.19 809.7,-608.78 864,-587.5 893.28,-576.03 925.04,-557.65 943.42,-546.37"/>
<polygon fill="#63b8ff" stroke="#63b8ff" points="231.93,-637.44 221.82,-640.6 231.7,-644.43 231.93,-637.44"/>
</g>
<!-- Node7 -->
<g id="node7" class="node">
<title>Node7</title>
<g id="a_node7"><a xlink:href="../../d1/dbc/classnode__system_1_1crypto_1_1_a_e_s_1_1_a_e_s256.html" target="_top" xlink:title="Provides AES&#45;256 encryption and decryption functionality using OpenSSL.">
<polygon fill="white" stroke="#666666" points="499.5,-605.5 394.5,-605.5 394.5,-575.5 499.5,-575.5 499.5,-605.5"/>
<text text-anchor="start" x="402.5" y="-593.5" font-family="Helvetica,sans-Serif" font-size="10.00">node_system::crypto</text>
<text text-anchor="middle" x="447" y="-582.5" font-family="Helvetica,sans-Serif" font-size="10.00">::AES::AES256</text>
</a>
</g>
</g>
<!-- Node4&#45;&gt;Node7 -->
<g id="edge7" class="edge">
<title>Node4&#45;&gt;Node7</title>
<path fill="none" stroke="#8b1a1a" d="M231.65,-628.05C280.24,-619.54 348.13,-607.64 394.4,-599.54"/>
<polygon fill="#8b1a1a" stroke="#8b1a1a" points="231.09,-624.59 221.85,-629.77 232.3,-631.49 231.09,-624.59"/>
</g>
<!-- Node5 -->
<g id="node5" class="node">
<title>Node5</title>
<g id="a_node5"><a xlink:title=" ">
<polygon fill="white" stroke="#666666" points="724.5,-551.5 610.5,-551.5 610.5,-521.5 724.5,-521.5 724.5,-551.5"/>
<text text-anchor="start" x="618.5" y="-539.5" font-family="Helvetica,sans-Serif" font-size="10.00">std::enable_shared</text>
<text text-anchor="middle" x="667.5" y="-528.5" font-family="Helvetica,sans-Serif" font-size="10.00">_from_this&lt; Session &gt;</text>
</a>
</g>
</g>
<!-- Node5&#45;&gt;Node3 -->
<g id="edge4" class="edge">
<title>Node5&#45;&gt;Node3</title>
<path fill="none" stroke="#63b8ff" d="M736.34,-536.5C786.94,-536.5 855.24,-536.5 902.8,-536.5"/>
<polygon fill="#63b8ff" stroke="#63b8ff" points="736.37,-533 726.37,-536.5 736.37,-540 736.37,-533"/>
</g>
<!-- Node6 -->
<g id="node6" class="node">
<title>Node6</title>
<g id="a_node6"><a xlink:title=" ">
<polygon fill="white" stroke="#666666" points="722,-611 613,-611 613,-570 722,-570 722,-611"/>
<text text-anchor="start" x="621" y="-599" font-family="Helvetica,sans-Serif" font-size="10.00">std::unique_ptr&lt; node</text>
<text text-anchor="start" x="621" y="-588" font-family="Helvetica,sans-Serif" font-size="10.00">_system::crypto::AES</text>
<text text-anchor="middle" x="667.5" y="-577" font-family="Helvetica,sans-Serif" font-size="10.00">::AES256 &gt;</text>
</a>
</g>
</g>
<!-- Node6&#45;&gt;Node3 -->
<g id="edge5" class="edge">
<title>Node6&#45;&gt;Node3</title>
<path fill="none" stroke="#9a32cd" stroke-dasharray="5,2" d="M733.51,-578.41C785.26,-568.8 856.81,-555.5 905.33,-546.48"/>
<polygon fill="#9a32cd" stroke="#9a32cd" points="733.14,-574.92 723.95,-580.19 734.42,-581.81 733.14,-574.92"/>
<text text-anchor="middle" x="809.5" y="-575.5" font-family="Helvetica,sans-Serif" font-size="10.00"> aes_</text>
</g>
<!-- Node7&#45;&gt;Node6 -->
<g id="edge6" class="edge">
<title>Node7&#45;&gt;Node6</title>
<path fill="none" stroke="#9a32cd" stroke-dasharray="5,2" d="M510.89,-590.5C543.13,-590.5 581.99,-590.5 612.81,-590.5"/>
<polygon fill="#9a32cd" stroke="#9a32cd" points="511.3,-587 501.29,-590.5 511.29,-594 511.3,-587"/>
<text text-anchor="middle" x="558.5" y="-593.5" font-family="Helvetica,sans-Serif" font-size="10.00"> ptr</text>
</g>
<!-- Node8 -->
<g id="node8" class="node">
<title>Node8</title>
<g id="a_node8"><a xlink:title=" ">
<polygon fill="white" stroke="#666666" points="263,-603.5 79,-603.5 79,-551.5 263,-551.5 263,-603.5"/>
<text text-anchor="start" x="87" y="-591.5" font-family="Helvetica,sans-Serif" font-size="10.00">std::unique_ptr&lt; EVP</text>
<text text-anchor="start" x="87" y="-580.5" font-family="Helvetica,sans-Serif" font-size="10.00">_CIPHER_CTX, OPENSSL</text>
<text text-anchor="start" x="87" y="-569.5" font-family="Helvetica,sans-Serif" font-size="10.00">_OBJECT_WRAPPER&lt; EVP_CIPHER</text>
<text text-anchor="middle" x="171" y="-558.5" font-family="Helvetica,sans-Serif" font-size="10.00">_CTX &gt; &gt;</text>
</a>
</g>
</g>
<!-- Node8&#45;&gt;Node7 -->
<g id="edge8" class="edge">
<title>Node8&#45;&gt;Node7</title>
<path fill="none" stroke="#9a32cd" stroke-dasharray="5,2" d="M274.71,-575.71C301.52,-575.88 330.37,-576.64 357,-578.5 369.13,-579.35 382.13,-580.79 394.35,-582.39"/>
<polygon fill="#9a32cd" stroke="#9a32cd" points="274.89,-572.21 264.88,-575.67 274.86,-579.21 274.89,-572.21"/>
<text text-anchor="middle" x="319" y="-592.5" font-family="Helvetica,sans-Serif" font-size="10.00"> decrypt_context_</text>
<text text-anchor="middle" x="319" y="-581.5" font-family="Helvetica,sans-Serif" font-size="10.00">encrypt_context_</text>
</g>
<!-- Node9 -->
<g id="node9" class="node">
<title>Node9</title>
<g id="a_node9"><a xlink:title=" ">
<polygon fill="white" stroke="#666666" points="698,-503 637,-503 637,-484 698,-484 698,-503"/>
<text text-anchor="middle" x="667.5" y="-491" font-family="Helvetica,sans-Serif" font-size="10.00">std::mutex</text>
</a>
</g>
</g>
<!-- Node9&#45;&gt;Node3 -->
<g id="edge9" class="edge">
<title>Node9&#45;&gt;Node3</title>
<path fill="none" stroke="#9a32cd" stroke-dasharray="5,2" d="M709.63,-499.22C749.21,-504.76 810.73,-513.48 864,-521.5 876.47,-523.38 889.84,-525.45 902.51,-527.44"/>
<polygon fill="#9a32cd" stroke="#9a32cd" points="710.22,-495.76 699.83,-497.85 709.25,-502.7 710.22,-495.76"/>
<text text-anchor="middle" x="809.5" y="-524.5" font-family="Helvetica,sans-Serif" font-size="10.00"> packet_receiver_mutex_</text>
</g>
<!-- Node10 -->
<g id="node10" class="node">
<title>Node10</title>
<g id="a_node10"><a xlink:title=" ">
<polygon fill="white" stroke="#666666" points="1231,-445.5 1088,-445.5 1088,-415.5 1231,-415.5 1231,-445.5"/>
<text text-anchor="start" x="1096" y="-433.5" font-family="Helvetica,sans-Serif" font-size="10.00">std::shared_ptr&lt; node</text>
<text text-anchor="middle" x="1159.5" y="-422.5" font-family="Helvetica,sans-Serif" font-size="10.00">_system::PacketDispatcher &gt;</text>
</a>
</g>
</g>
<!-- Node10&#45;&gt;Node1 -->
<g id="edge10" class="edge">
<title>Node10&#45;&gt;Node1</title>
<path fill="none" stroke="#9a32cd" stroke-dasharray="5,2" d="M1242.72,-436.43C1260.63,-437.91 1279.46,-439.63 1297,-441.5 1305.41,-442.4 1314.21,-443.44 1322.93,-444.52"/>
<polygon fill="#9a32cd" stroke="#9a32cd" points="1243.17,-432.95 1232.92,-435.63 1242.6,-439.93 1243.17,-432.95"/>
<text text-anchor="middle" x="1273" y="-444.5" font-family="Helvetica,sans-Serif" font-size="10.00"> dispatcher</text>
</g>
<!-- Node11 -->
<g id="node11" class="node">
<title>Node11</title>
<g id="a_node11"><a xlink:href="../../d4/de6/classnode__system_1_1_packet_dispatcher.html" target="_top" xlink:title="The PacketDispatcher class is responsible for managing packet dispatching and handling.">
<polygon fill="white" stroke="#666666" points="1038,-266 882,-266 882,-247 1038,-247 1038,-266"/>
<text text-anchor="middle" x="960" y="-254" font-family="Helvetica,sans-Serif" font-size="10.00">node_system::PacketDispatcher</text>
</a>
</g>
</g>
<!-- Node11&#45;&gt;Node10 -->
<g id="edge11" class="edge">
<title>Node11&#45;&gt;Node10</title>
<path fill="none" stroke="#9a32cd" stroke-dasharray="5,2" d="M980.49,-273.67C1018.95,-307.55 1104.09,-382.57 1140.94,-415.03"/>
<polygon fill="#9a32cd" stroke="#9a32cd" points="983.14,-271.34 973.32,-267.35 978.51,-276.59 983.14,-271.34"/>
<text text-anchor="middle" x="1063" y="-351.5" font-family="Helvetica,sans-Serif" font-size="10.00"> ptr</text>
</g>
<!-- Node12 -->
<g id="node12" class="node">
<title>Node12</title>
<g id="a_node12"><a xlink:title=" ">
<polygon fill="white" stroke="#666666" points="519,-396 375,-396 375,-377 519,-377 519,-396"/>
<text text-anchor="middle" x="447" y="-384" font-family="Helvetica,sans-Serif" font-size="10.00">std::vector&lt; BasePacketPtr &gt;</text>
</a>
</g>
</g>
<!-- Node12&#45;&gt;Node11 -->
<g id="edge12" class="edge">
<title>Node12&#45;&gt;Node11</title>
<path fill="none" stroke="#9a32cd" stroke-dasharray="5,2" d="M494.69,-399.15C552.04,-412.9 652.18,-431.08 737,-416.5 796.02,-406.35 814.93,-405.83 864,-371.5 906.44,-341.81 940.55,-288.32 953.44,-266.34"/>
<polygon fill="#9a32cd" stroke="#9a32cd" points="495.82,-395.82 485.27,-396.83 494.15,-402.62 495.82,-395.82"/>
<text text-anchor="start" x="618.5" y="-435.5" font-family="Helvetica,sans-Serif" font-size="10.00"> unprocessed_packets</text>
<text text-anchor="middle" x="667.5" y="-424.5" font-family="Helvetica,sans-Serif" font-size="10.00">_input_</text>
</g>
<!-- Node18 -->
<g id="node18" class="node">
<title>Node18</title>
<g id="a_node18"><a xlink:title=" ">
<polygon fill="white" stroke="#666666" points="737,-407 598,-407 598,-366 737,-366 737,-407"/>
<text text-anchor="start" x="606" y="-395" font-family="Helvetica,sans-Serif" font-size="10.00">std::unordered_map</text>
<text text-anchor="start" x="606" y="-384" font-family="Helvetica,sans-Serif" font-size="10.00">&lt; UniquePacketID, std</text>
<text text-anchor="middle" x="667.5" y="-373" font-family="Helvetica,sans-Serif" font-size="10.00">::vector&lt; BasePacketPtr &gt; &gt;</text>
</a>
</g>
</g>
<!-- Node12&#45;&gt;Node18 -->
<g id="edge19" class="edge">
<title>Node12&#45;&gt;Node18</title>
<path fill="none" stroke="#9a32cd" stroke-dasharray="5,2" d="M530.63,-386.5C552.71,-386.5 576.33,-386.5 597.59,-386.5"/>
<polygon fill="#9a32cd" stroke="#9a32cd" points="530.76,-383 520.76,-386.5 530.76,-390 530.76,-383"/>
<text text-anchor="middle" x="558.5" y="-389.5" font-family="Helvetica,sans-Serif" font-size="10.00"> elements</text>
</g>
<!-- Node13 -->
<g id="node13" class="node">
<title>Node13</title>
<g id="a_node13"><a xlink:title=" ">
<polygon fill="white" stroke="#666666" points="222,-381 120,-381 120,-362 222,-362 222,-381"/>
<text text-anchor="middle" x="171" y="-369" font-family="Helvetica,sans-Serif" font-size="10.00">std::unique_ptr&lt; T &gt;</text>
</a>
</g>
</g>
<!-- Node13&#45;&gt;Node12 -->
<g id="edge13" class="edge">
<title>Node13&#45;&gt;Node12</title>
<path fill="none" stroke="#9a32cd" stroke-dasharray="5,2" d="M233.67,-374.88C275.5,-377.17 330.92,-380.2 374.65,-382.59"/>
<polygon fill="#9a32cd" stroke="#9a32cd" points="233.94,-371.39 223.77,-374.33 233.56,-378.38 233.94,-371.39"/>
<text text-anchor="middle" x="319" y="-383.5" font-family="Helvetica,sans-Serif" font-size="10.00"> elements</text>
</g>
<!-- Node14 -->
<g id="node14" class="node">
<title>Node14</title>
<g id="a_node14"><a xlink:title=" ">
<polygon fill="white" stroke="#666666" points="29,-359 0,-359 0,-340 29,-340 29,-359"/>
<text text-anchor="middle" x="14.5" y="-347" font-family="Helvetica,sans-Serif" font-size="10.00">T</text>
</a>
</g>
</g>
<!-- Node14&#45;&gt;Node13 -->
<g id="edge14" class="edge">
<title>Node14&#45;&gt;Node13</title>
<path fill="none" stroke="#9a32cd" stroke-dasharray="5,2" d="M40.79,-353.1C62.1,-356.14 93.26,-360.57 119.64,-364.33"/>
<polygon fill="#9a32cd" stroke="#9a32cd" points="41.38,-349.65 30.98,-351.7 40.39,-356.58 41.38,-349.65"/>
<text text-anchor="middle" x="54" y="-357.5" font-family="Helvetica,sans-Serif" font-size="10.00"> ptr</text>
</g>
<!-- Node21 -->
<g id="node21" class="node">
<title>Node21</title>
<g id="a_node21"><a xlink:title=" ">
<polygon fill="white" stroke="#666666" points="222.5,-341 119.5,-341 119.5,-322 222.5,-322 222.5,-341"/>
<text text-anchor="middle" x="171" y="-329" font-family="Helvetica,sans-Serif" font-size="10.00">std::shared_ptr&lt; T &gt;</text>
</a>
</g>
</g>
<!-- Node14&#45;&gt;Node21 -->
<g id="edge23" class="edge">
<title>Node14&#45;&gt;Node21</title>
<path fill="none" stroke="#9a32cd" stroke-dasharray="5,2" d="M39.93,-336.68C42.27,-335.81 44.65,-335.06 47,-334.5 70.27,-328.94 96.72,-327.67 119.12,-328.01"/>
<polygon fill="#9a32cd" stroke="#9a32cd" points="38.57,-333.45 30.84,-340.69 41.4,-339.85 38.57,-333.45"/>
<text text-anchor="middle" x="54" y="-337.5" font-family="Helvetica,sans-Serif" font-size="10.00"> ptr</text>
</g>
<!-- Node15 -->
<g id="node15" class="node">
<title>Node15</title>
<g id="a_node15"><a xlink:title=" ">
<polygon fill="white" stroke="#666666" points="733,-277 602,-277 602,-236 733,-236 733,-277"/>
<text text-anchor="start" x="610" y="-265" font-family="Helvetica,sans-Serif" font-size="10.00">std::vector&lt; std::pair</text>
<text text-anchor="start" x="610" y="-254" font-family="Helvetica,sans-Serif" font-size="10.00">&lt; UniquePacketID, shared</text>
<text text-anchor="middle" x="667.5" y="-243" font-family="Helvetica,sans-Serif" font-size="10.00">_packet_promise &gt; &gt;</text>
</a>
</g>
</g>
<!-- Node15&#45;&gt;Node11 -->
<g id="edge15" class="edge">
<title>Node15&#45;&gt;Node11</title>
<path fill="none" stroke="#9a32cd" stroke-dasharray="5,2" d="M744.68,-256.5C786.92,-256.5 839.32,-256.5 881.73,-256.5"/>
<polygon fill="#9a32cd" stroke="#9a32cd" points="744.85,-253 734.85,-256.5 744.85,-260 744.85,-253"/>
<text text-anchor="middle" x="809.5" y="-259.5" font-family="Helvetica,sans-Serif" font-size="10.00"> promise_map_input_</text>
</g>
<!-- Node16 -->
<g id="node16" class="node">
<title>Node16</title>
<g id="a_node16"><a xlink:title=" ">
<polygon fill="white" stroke="#666666" points="735.5,-218 599.5,-218 599.5,-177 735.5,-177 735.5,-218"/>
<text text-anchor="start" x="607.5" y="-206" font-family="Helvetica,sans-Serif" font-size="10.00">std::vector&lt; std::pair</text>
<text text-anchor="start" x="607.5" y="-195" font-family="Helvetica,sans-Serif" font-size="10.00">&lt; UniquePacketID, promise</text>
<text text-anchor="middle" x="667.5" y="-184" font-family="Helvetica,sans-Serif" font-size="10.00">_filter &gt; &gt;</text>
</a>
</g>
</g>
<!-- Node16&#45;&gt;Node11 -->
<g id="edge16" class="edge">
<title>Node16&#45;&gt;Node11</title>
<path fill="none" stroke="#9a32cd" stroke-dasharray="5,2" d="M747.14,-208.94C782.95,-214.62 825.78,-222.07 864,-230.5 884.71,-235.07 907.64,-241.31 925.79,-246.54"/>
<polygon fill="#9a32cd" stroke="#9a32cd" points="747.69,-205.48 737.27,-207.39 746.61,-212.4 747.69,-205.48"/>
<text text-anchor="start" x="767" y="-244.5" font-family="Helvetica,sans-Serif" font-size="10.00"> promise_filter_map</text>
<text text-anchor="middle" x="809.5" y="-233.5" font-family="Helvetica,sans-Serif" font-size="10.00">_input_</text>
</g>
<!-- Node17 -->
<g id="node17" class="node">
<title>Node17</title>
<g id="a_node17"><a xlink:title=" ">
<polygon fill="white" stroke="#666666" points="734,-159 601,-159 601,-118 734,-118 734,-159"/>
<text text-anchor="start" x="609" y="-147" font-family="Helvetica,sans-Serif" font-size="10.00">std::vector&lt; std::pair</text>
<text text-anchor="start" x="609" y="-136" font-family="Helvetica,sans-Serif" font-size="10.00">&lt; UniquePacketID, handler</text>
<text text-anchor="middle" x="667.5" y="-125" font-family="Helvetica,sans-Serif" font-size="10.00">_tuple &gt; &gt;</text>
</a>
</g>
</g>
<!-- Node17&#45;&gt;Node11 -->
<g id="edge17" class="edge">
<title>Node17&#45;&gt;Node11</title>
<path fill="none" stroke="#9a32cd" stroke-dasharray="5,2" d="M745.61,-155.53C782.35,-165 826.38,-178.37 864,-195.5 895.4,-209.79 928.52,-233.27 946.16,-246.54"/>
<polygon fill="#9a32cd" stroke="#9a32cd" points="746.48,-152.14 735.93,-153.08 744.77,-158.92 746.48,-152.14"/>
<text text-anchor="middle" x="809.5" y="-198.5" font-family="Helvetica,sans-Serif" font-size="10.00"> default_handlers_input_</text>
</g>
<!-- Node18&#45;&gt;Node11 -->
<g id="edge18" class="edge">
<title>Node18&#45;&gt;Node11</title>
<path fill="none" stroke="#9a32cd" stroke-dasharray="5,2" d="M745.6,-362.01C782.17,-349.41 826.07,-332.85 864,-314.5 893.92,-300.03 926.52,-278.82 944.69,-266.46"/>
<polygon fill="#9a32cd" stroke="#9a32cd" points="744.76,-358.59 736.42,-365.13 747.02,-365.22 744.76,-358.59"/>
<text text-anchor="middle" x="809.5" y="-359.5" font-family="Helvetica,sans-Serif" font-size="10.00"> unprocessed_packets_</text>
</g>
<!-- Node19 -->
<g id="node19" class="node">
<title>Node19</title>
<g id="a_node19"><a xlink:title=" ">
<polygon fill="white" stroke="#666666" points="727,-347.5 608,-347.5 608,-295.5 727,-295.5 727,-347.5"/>
<text text-anchor="start" x="616" y="-335.5" font-family="Helvetica,sans-Serif" font-size="10.00">std::unordered_map</text>
<text text-anchor="start" x="616" y="-324.5" font-family="Helvetica,sans-Serif" font-size="10.00">&lt; UniquePacketID, std</text>
<text text-anchor="start" x="616" y="-313.5" font-family="Helvetica,sans-Serif" font-size="10.00">::deque&lt; shared_packet</text>
<text text-anchor="middle" x="667.5" y="-302.5" font-family="Helvetica,sans-Serif" font-size="10.00">_promise &gt; &gt;</text>
</a>
</g>
</g>
<!-- Node19&#45;&gt;Node11 -->
<g id="edge20" class="edge">
<title>Node19&#45;&gt;Node11</title>
<path fill="none" stroke="#9a32cd" stroke-dasharray="5,2" d="M738.31,-305.88C793.07,-293.63 867.63,-276.94 914.53,-266.45"/>
<polygon fill="#9a32cd" stroke="#9a32cd" points="737.76,-302.42 728.76,-308.02 739.29,-309.25 737.76,-302.42"/>
<text text-anchor="middle" x="809.5" y="-302.5" font-family="Helvetica,sans-Serif" font-size="10.00"> promise_map_</text>
</g>
<!-- Node20 -->
<g id="node20" class="node">
<title>Node20</title>
<g id="a_node20"><a xlink:title=" ">
<polygon fill="white" stroke="#666666" points="496.5,-338.5 397.5,-338.5 397.5,-308.5 496.5,-308.5 496.5,-338.5"/>
<text text-anchor="start" x="405.5" y="-326.5" font-family="Helvetica,sans-Serif" font-size="10.00">std::deque&lt; shared</text>
<text text-anchor="middle" x="447" y="-315.5" font-family="Helvetica,sans-Serif" font-size="10.00">_packet_promise &gt;</text>
</a>
</g>
</g>
<!-- Node20&#45;&gt;Node19 -->
<g id="edge21" class="edge">
<title>Node20&#45;&gt;Node19</title>
<path fill="none" stroke="#9a32cd" stroke-dasharray="5,2" d="M507.89,-322.95C538.99,-322.67 576.86,-322.32 607.79,-322.04"/>
<polygon fill="#9a32cd" stroke="#9a32cd" points="508.24,-319.45 498.28,-323.04 508.31,-326.45 508.24,-319.45"/>
<text text-anchor="middle" x="558.5" y="-325.5" font-family="Helvetica,sans-Serif" font-size="10.00"> elements</text>
</g>
<!-- Node21&#45;&gt;Node20 -->
<g id="edge22" class="edge">
<title>Node21&#45;&gt;Node20</title>
<path fill="none" stroke="#9a32cd" stroke-dasharray="5,2" d="M234.39,-329.68C283.78,-328.24 351.77,-326.25 397.22,-324.92"/>
<polygon fill="#9a32cd" stroke="#9a32cd" points="234.3,-326.18 224.41,-329.97 234.51,-333.18 234.3,-326.18"/>
<text text-anchor="middle" x="319" y="-330.5" font-family="Helvetica,sans-Serif" font-size="10.00"> elements</text>
</g>
<!-- Node22 -->
<g id="node22" class="node">
<title>Node22</title>
<g id="a_node22"><a xlink:title=" ">
<polygon fill="white" stroke="#666666" points="733,-100 602,-100 602,-59 733,-59 733,-100"/>
<text text-anchor="start" x="610" y="-88" font-family="Helvetica,sans-Serif" font-size="10.00">std::unordered_map</text>
<text text-anchor="start" x="610" y="-77" font-family="Helvetica,sans-Serif" font-size="10.00">&lt; UniquePacketID, std</text>
<text text-anchor="middle" x="667.5" y="-66" font-family="Helvetica,sans-Serif" font-size="10.00">::vector&lt; promise_filter &gt; &gt;</text>
</a>
</g>
</g>
<!-- Node22&#45;&gt;Node11 -->
<g id="edge24" class="edge">
<title>Node22&#45;&gt;Node11</title>
<path fill="none" stroke="#9a32cd" stroke-dasharray="5,2" d="M744.34,-93.93C782.52,-103.68 828.17,-119.3 864,-143.5 906.48,-172.19 940.57,-225.02 953.45,-246.76"/>
<polygon fill="#9a32cd" stroke="#9a32cd" points="745.28,-90.56 734.74,-91.57 743.61,-97.36 745.28,-90.56"/>
<text text-anchor="middle" x="809.5" y="-146.5" font-family="Helvetica,sans-Serif" font-size="10.00"> promise_filter_map_</text>
</g>
<!-- Node23 -->
<g id="node23" class="node">
<title>Node23</title>
<g id="a_node23"><a xlink:title=" ">
<polygon fill="white" stroke="#666666" points="499,-94.5 395,-94.5 395,-64.5 499,-64.5 499,-94.5"/>
<text text-anchor="start" x="403" y="-82.5" font-family="Helvetica,sans-Serif" font-size="10.00">std::vector&lt; promise</text>
<text text-anchor="middle" x="447" y="-71.5" font-family="Helvetica,sans-Serif" font-size="10.00">_filter &gt;</text>
</a>
</g>
</g>
<!-- Node23&#45;&gt;Node22 -->
<g id="edge25" class="edge">
<title>Node23&#45;&gt;Node22</title>
<path fill="none" stroke="#9a32cd" stroke-dasharray="5,2" d="M510.71,-79.5C539.29,-79.5 573.08,-79.5 601.88,-79.5"/>
<polygon fill="#9a32cd" stroke="#9a32cd" points="510.74,-76 500.74,-79.5 510.74,-83 510.74,-76"/>
<text text-anchor="middle" x="558.5" y="-82.5" font-family="Helvetica,sans-Serif" font-size="10.00"> elements</text>
</g>
<!-- Node24 -->
<g id="node24" class="node">
<title>Node24</title>
<g id="a_node24"><a xlink:title=" ">
<polygon fill="white" stroke="#666666" points="733,-41 602,-41 602,0 733,0 733,-41"/>
<text text-anchor="start" x="610" y="-29" font-family="Helvetica,sans-Serif" font-size="10.00">std::unordered_map</text>
<text text-anchor="start" x="610" y="-18" font-family="Helvetica,sans-Serif" font-size="10.00">&lt; UniquePacketID, std</text>
<text text-anchor="middle" x="667.5" y="-7" font-family="Helvetica,sans-Serif" font-size="10.00">::vector&lt; handler_tuple &gt; &gt;</text>
</a>
</g>
</g>
<!-- Node24&#45;&gt;Node11 -->
<g id="edge26" class="edge">
<title>Node24&#45;&gt;Node11</title>
<path fill="none" stroke="#9a32cd" stroke-dasharray="5,2" d="M744.49,-30.27C783.66,-38.53 830.18,-53.7 864,-81.5 920.62,-128.03 948.61,-217.51 956.56,-246.89"/>
<polygon fill="#9a32cd" stroke="#9a32cd" points="745.36,-26.88 734.87,-28.37 744,-33.75 745.36,-26.88"/>
<text text-anchor="middle" x="809.5" y="-84.5" font-family="Helvetica,sans-Serif" font-size="10.00"> default_handlers_</text>
</g>
<!-- Node25 -->
<g id="node25" class="node">
<title>Node25</title>
<g id="a_node25"><a xlink:title=" ">
<polygon fill="white" stroke="#666666" points="497.5,-35.5 396.5,-35.5 396.5,-5.5 497.5,-5.5 497.5,-35.5"/>
<text text-anchor="start" x="404.5" y="-23.5" font-family="Helvetica,sans-Serif" font-size="10.00">std::vector&lt; handler</text>
<text text-anchor="middle" x="447" y="-12.5" font-family="Helvetica,sans-Serif" font-size="10.00">_tuple &gt;</text>
</a>
</g>
</g>
<!-- Node25&#45;&gt;Node24 -->
<g id="edge27" class="edge">
<title>Node25&#45;&gt;Node24</title>
<path fill="none" stroke="#9a32cd" stroke-dasharray="5,2" d="M509,-20.5C537.81,-20.5 572.22,-20.5 601.51,-20.5"/>
<polygon fill="#9a32cd" stroke="#9a32cd" points="509.37,-17 499.37,-20.5 509.37,-24 509.37,-17"/>
<text text-anchor="middle" x="558.5" y="-23.5" font-family="Helvetica,sans-Serif" font-size="10.00"> elements</text>
</g>
</g>
</svg>
