<?xml version="1.0" encoding="UTF-8" standalone="no"?>
<!DOCTYPE svg PUBLIC "-//W3C//DTD SVG 1.1//EN"
 "http://www.w3.org/Graphics/SVG/1.1/DTD/svg11.dtd">
<!-- Generated by graphviz version 7.0.5 (20221223.1930)
 -->
<!-- Title: weaver::Key Pages: 1 -->
<svg width="103pt" height="137pt"
 viewBox="0.00 0.00 103.00 137.00" xmlns="http://www.w3.org/2000/svg" xmlns:xlink="http://www.w3.org/1999/xlink">
<g id="graph0" class="graph" transform="scale(1 1) rotate(0) translate(4 133)">
<title>weaver::Key</title>
<!-- Node1 -->
<g id="node1" class="node">
<title>Node1</title>
<g id="a_node1"><a xlink:title="Represents a cryptographic key as a byte array.">
<polygon fill="#999999" stroke="#666666" points="82,-19 13,-19 13,0 82,0 82,-19"/>
<text text-anchor="middle" x="47.5" y="-7" font-family="Helvetica,sans-Serif" font-size="10.00">weaver::Key</text>
</a>
</g>
</g>
<!-- Node2 -->
<g id="node2" class="node">
<title>Node2</title>
<g id="a_node2"><a xlink:href="../../d3/d21/structweaver_1_1_byte_array.html" target="_top" xlink:title="A dynamically resizable array of bytes.">
<polygon fill="white" stroke="#666666" points="95,-74 0,-74 0,-55 95,-55 95,-74"/>
<text text-anchor="middle" x="47.5" y="-62" font-family="Helvetica,sans-Serif" font-size="10.00">weaver::ByteArray</text>
</a>
</g>
</g>
<!-- Node2&#45;&gt;Node1 -->
<g id="edge1" class="edge">
<title>Node2&#45;&gt;Node1</title>
<path fill="none" stroke="#63b8ff" d="M47.5,-43.35C47.5,-35.1 47.5,-25.97 47.5,-19.44"/>
<polygon fill="#63b8ff" stroke="#63b8ff" points="44,-43.23 47.5,-53.23 51,-43.23 44,-43.23"/>
</g>
<!-- Node3 -->
<g id="node3" class="node">
<title>Node3</title>
<g id="a_node3"><a xlink:title=" ">
<polygon fill="white" stroke="#666666" points="89.5,-129 5.5,-129 5.5,-110 89.5,-110 89.5,-129"/>
<text text-anchor="middle" x="47.5" y="-117" font-family="Helvetica,sans-Serif" font-size="10.00">std::vector&lt; T &gt;</text>
</a>
</g>
</g>
<!-- Node3&#45;&gt;Node2 -->
<g id="edge2" class="edge">
<title>Node3&#45;&gt;Node2</title>
<path fill="none" stroke="#63b8ff" d="M47.5,-98.35C47.5,-90.1 47.5,-80.97 47.5,-74.44"/>
<polygon fill="#63b8ff" stroke="#63b8ff" points="44,-98.23 47.5,-108.23 51,-98.23 44,-98.23"/>
</g>
</g>
</svg>
