<?xml version="1.0" encoding="UTF-8" standalone="no"?>
<!DOCTYPE svg PUBLIC "-//W3C//DTD SVG 1.1//EN"
 "http://www.w3.org/Graphics/SVG/1.1/DTD/svg11.dtd">
<!-- Generated by graphviz version 8.1.0 (20230707.0739)
 -->
<!-- Title: third_party/mal&#45;toolkit/mal&#45;toolkit/mal&#45;toolkit/timer.hpp Pages: 1 -->
<svg width="682pt" height="738pt"
 viewBox="0.00 0.00 681.58 738.25" xmlns="http://www.w3.org/2000/svg" xmlns:xlink="http://www.w3.org/1999/xlink">
<g id="graph0" class="graph" transform="scale(1 1) rotate(0) translate(4 734.25)">
<title>third_party/mal&#45;toolkit/mal&#45;toolkit/mal&#45;toolkit/timer.hpp</title>
<!-- Node1 -->
<g id="Node000001" class="node">
<title>Node1</title>
<g id="a_Node000001"><a xlink:title="Implements timer utilities for measuring elapsed time and intervals.">
<polygon fill="#999999" stroke="#666666" points="374.58,-730.25 267.08,-730.25 267.08,-688.5 374.58,-688.5 374.58,-730.25"/>
<text text-anchor="start" x="275.08" y="-716.75" font-family="Times,serif" font-size="10.00">third_party/mal&#45;toolkit</text>
<text text-anchor="start" x="275.08" y="-705.5" font-family="Times,serif" font-size="10.00">/mal&#45;toolkit/mal&#45;toolkit</text>
<text text-anchor="middle" x="320.83" y="-694.25" font-family="Times,serif" font-size="10.00">/timer.hpp</text>
</a>
</g>
</g>
<!-- Node2 -->
<g id="Node000002" class="node">
<title>Node2</title>
<g id="a_Node000002"><a xlink:href="../../d1/d8a/mal-toolkit_8hpp.html" target="_top" xlink:title="Main header file for the MAL Toolkit library, providing a comprehensive set of tools and utilities.">
<polygon fill="white" stroke="#666666" points="374.58,-574.75 267.08,-574.75 267.08,-533 374.58,-533 374.58,-574.75"/>
<text text-anchor="start" x="275.08" y="-561.25" font-family="Times,serif" font-size="10.00">third_party/mal&#45;toolkit</text>
<text text-anchor="start" x="275.08" y="-550" font-family="Times,serif" font-size="10.00">/mal&#45;toolkit/mal&#45;toolkit</text>
<text text-anchor="middle" x="320.83" y="-538.75" font-family="Times,serif" font-size="10.00">/mal&#45;toolkit.hpp</text>
</a>
</g>
</g>
<!-- Node1&#45;&gt;Node2 -->
<g id="edge1_Node000001_Node000002" class="edge">
<title>Node1&#45;&gt;Node2</title>
<g id="a_edge1_Node000001_Node000002"><a xlink:title=" ">
<path fill="none" stroke="#63b8ff" d="M306.53,-678.09C303.36,-669.96 300.46,-661.05 298.83,-652.5 295.37,-634.27 295.37,-628.98 298.83,-610.75 301.17,-598.46 306.15,-585.41 310.78,-575.02"/>
<polygon fill="#63b8ff" stroke="#63b8ff" points="303.69,-679.36 310.78,-687.23 310.14,-676.65 303.69,-679.36"/>
</a>
</g>
</g>
<!-- Node22 -->
<g id="Node000022" class="node">
<title>Node22</title>
<g id="a_Node000022"><a xlink:href="../../d0/db4/measurer_8hpp.html" target="_top" xlink:title="Implements performance measurement and profiling utilities.">
<polygon fill="white" stroke="#666666" points="415.58,-652.5 308.08,-652.5 308.08,-610.75 415.58,-610.75 415.58,-652.5"/>
<text text-anchor="start" x="316.08" y="-639" font-family="Times,serif" font-size="10.00">third_party/mal&#45;toolkit</text>
<text text-anchor="start" x="316.08" y="-627.75" font-family="Times,serif" font-size="10.00">/mal&#45;toolkit/mal&#45;toolkit</text>
<text text-anchor="middle" x="361.83" y="-616.5" font-family="Times,serif" font-size="10.00">/measurer.hpp</text>
</a>
</g>
</g>
<!-- Node1&#45;&gt;Node22 -->
<g id="edge32_Node000001_Node000022" class="edge">
<title>Node1&#45;&gt;Node22</title>
<g id="a_edge32_Node000001_Node000022"><a xlink:title=" ">
<path fill="none" stroke="#63b8ff" d="M337.04,-678.43C341.66,-669.89 346.58,-660.8 350.82,-652.98"/>
<polygon fill="#63b8ff" stroke="#63b8ff" points="333.5,-676.61 331.82,-687.08 339.66,-679.95 333.5,-676.61"/>
</a>
</g>
</g>
<!-- Node3 -->
<g id="Node000003" class="node">
<title>Node3</title>
<g id="a_Node000003"><a xlink:href="../../dd/d3a/common_8hpp.html" target="_top" xlink:title=" ">
<polygon fill="white" stroke="#666666" points="386.21,-497 255.46,-497 255.46,-466.5 386.21,-466.5 386.21,-497"/>
<text text-anchor="start" x="263.46" y="-483.5" font-family="Times,serif" font-size="10.00">mal&#45;packet&#45;weaver/mal</text>
<text text-anchor="middle" x="320.83" y="-472.25" font-family="Times,serif" font-size="10.00">&#45;packet&#45;weaver/common.hpp</text>
</a>
</g>
</g>
<!-- Node2&#45;&gt;Node3 -->
<g id="edge2_Node000002_Node000003" class="edge">
<title>Node2&#45;&gt;Node3</title>
<g id="a_edge2_Node000002_Node000003"><a xlink:title=" ">
<path fill="none" stroke="#63b8ff" d="M320.83,-521.71C320.83,-513.17 320.83,-504.31 320.83,-497.2"/>
<polygon fill="#63b8ff" stroke="#63b8ff" points="317.33,-521.59 320.83,-531.59 324.33,-521.59 317.33,-521.59"/>
</a>
</g>
</g>
<!-- Node4 -->
<g id="Node000004" class="node">
<title>Node4</title>
<g id="a_Node000004"><a xlink:href="../../d3/daa/encryption-interface_8hpp.html" target="_top" xlink:title=" ">
<polygon fill="white" stroke="#666666" points="127.46,-430.5 10.21,-430.5 10.21,-388.75 127.46,-388.75 127.46,-430.5"/>
<text text-anchor="start" x="18.21" y="-417" font-family="Times,serif" font-size="10.00">mal&#45;packet&#45;weaver/mal</text>
<text text-anchor="start" x="18.21" y="-405.75" font-family="Times,serif" font-size="10.00">&#45;packet&#45;weaver/crypto</text>
<text text-anchor="middle" x="68.83" y="-394.5" font-family="Times,serif" font-size="10.00">/encryption&#45;interface.hpp</text>
</a>
</g>
</g>
<!-- Node3&#45;&gt;Node4 -->
<g id="edge3_Node000003_Node000004" class="edge">
<title>Node3&#45;&gt;Node4</title>
<g id="a_edge3_Node000003_Node000004"><a xlink:title=" ">
<path fill="none" stroke="#63b8ff" d="M257.62,-463.16C217.8,-452.08 166.74,-437.87 127.76,-427.02"/>
<polygon fill="#63b8ff" stroke="#63b8ff" points="256.43,-466.74 267.01,-466.05 258.31,-460 256.43,-466.74"/>
</a>
</g>
</g>
<!-- Node11 -->
<g id="Node000011" class="node">
<title>Node11</title>
<g id="a_Node000011"><a xlink:href="../../de/d3a/crypto-common_8hpp.html" target="_top" xlink:title=" ">
<polygon fill="white" stroke="#666666" points="284.58,-430.5 153.08,-430.5 153.08,-388.75 284.58,-388.75 284.58,-430.5"/>
<text text-anchor="start" x="161.08" y="-417" font-family="Times,serif" font-size="10.00">mal&#45;packet&#45;weaver/mal</text>
<text text-anchor="start" x="161.08" y="-405.75" font-family="Times,serif" font-size="10.00">&#45;packet&#45;weaver/crypto</text>
<text text-anchor="middle" x="218.83" y="-394.5" font-family="Times,serif" font-size="10.00">/openssl/crypto&#45;common.hpp</text>
</a>
</g>
</g>
<!-- Node3&#45;&gt;Node11 -->
<g id="edge12_Node000003_Node000011" class="edge">
<title>Node3&#45;&gt;Node11</title>
<g id="a_edge12_Node000003_Node000011"><a xlink:title=" ">
<path fill="none" stroke="#63b8ff" d="M290.87,-460.15C277.5,-450.96 261.78,-440.15 248.45,-430.99"/>
<polygon fill="#63b8ff" stroke="#63b8ff" points="288.48,-463.44 298.7,-466.22 292.44,-457.67 288.48,-463.44"/>
</a>
</g>
</g>
<!-- Node14 -->
<g id="Node000014" class="node">
<title>Node14</title>
<g id="a_Node000014"><a xlink:href="../../d8/d1a/packet-dispatcher_8cpp.html" target="_top" xlink:title=" ">
<polygon fill="white" stroke="#666666" points="673.58,-119.5 566.08,-119.5 566.08,-77.75 673.58,-77.75 673.58,-119.5"/>
<text text-anchor="start" x="574.08" y="-106" font-family="Times,serif" font-size="10.00">mal&#45;packet&#45;weaver/mal</text>
<text text-anchor="start" x="574.08" y="-94.75" font-family="Times,serif" font-size="10.00">&#45;packet&#45;weaver/packet</text>
<text text-anchor="middle" x="619.83" y="-83.5" font-family="Times,serif" font-size="10.00">&#45;dispatcher.cpp</text>
</a>
</g>
</g>
<!-- Node3&#45;&gt;Node14 -->
<g id="edge19_Node000003_Node000014" class="edge">
<title>Node3&#45;&gt;Node14</title>
<g id="a_edge19_Node000003_Node000014"><a xlink:title=" ">
<path fill="none" stroke="#63b8ff" d="M397.28,-475.96C487.04,-465.7 623.83,-433.56 623.83,-332.88 623.83,-332.88 623.83,-332.88 623.83,-253.12 623.83,-205.41 621.88,-149.37 620.7,-119.98"/>
<polygon fill="#63b8ff" stroke="#63b8ff" points="397.15,-472.56 387.58,-477.1 397.9,-479.52 397.15,-472.56"/>
</a>
</g>
</g>
<!-- Node15 -->
<g id="Node000015" class="node">
<title>Node15</title>
<g id="a_Node000015"><a xlink:href="../../d2/d3f/packet_8hpp.html" target="_top" xlink:title=" ">
<polygon fill="white" stroke="#666666" points="461.46,-269.38 338.21,-269.38 338.21,-238.88 461.46,-238.88 461.46,-269.38"/>
<text text-anchor="start" x="346.21" y="-255.88" font-family="Times,serif" font-size="10.00">mal&#45;packet&#45;weaver/mal</text>
<text text-anchor="middle" x="399.83" y="-244.62" font-family="Times,serif" font-size="10.00">&#45;packet&#45;weaver/packet.hpp</text>
</a>
</g>
</g>
<!-- Node3&#45;&gt;Node15 -->
<g id="edge20_Node000003_Node000015" class="edge">
<title>Node3&#45;&gt;Node15</title>
<g id="a_edge20_Node000003_Node000015"><a xlink:title=" ">
<path fill="none" stroke="#63b8ff" d="M318.4,-455.62C316.19,-421.08 316.24,-357.88 339.83,-311 348.34,-294.09 364.21,-279.67 377.48,-269.71"/>
<polygon fill="#63b8ff" stroke="#63b8ff" points="314.96,-455.47 319.21,-465.17 321.94,-454.93 314.96,-455.47"/>
</a>
</g>
</g>
<!-- Node18 -->
<g id="Node000018" class="node">
<title>Node18</title>
<g id="a_Node000018"><a xlink:href="../../d9/d85/packet__impl_2packet_8hpp.html" target="_top" xlink:title=" ">
<polygon fill="white" stroke="#666666" points="461.58,-430.5 354.08,-430.5 354.08,-388.75 461.58,-388.75 461.58,-430.5"/>
<text text-anchor="start" x="362.08" y="-417" font-family="Times,serif" font-size="10.00">mal&#45;packet&#45;weaver/mal</text>
<text text-anchor="start" x="362.08" y="-405.75" font-family="Times,serif" font-size="10.00">&#45;packet&#45;weaver/packet</text>
<text text-anchor="middle" x="407.83" y="-394.5" font-family="Times,serif" font-size="10.00">_impl/packet.hpp</text>
</a>
</g>
</g>
<!-- Node3&#45;&gt;Node18 -->
<g id="edge27_Node000003_Node000018" class="edge">
<title>Node3&#45;&gt;Node18</title>
<g id="a_edge27_Node000003_Node000018"><a xlink:title=" ">
<path fill="none" stroke="#63b8ff" d="M347.38,-459.35C358.57,-450.33 371.53,-439.89 382.57,-430.99"/>
<polygon fill="#63b8ff" stroke="#63b8ff" points="345.45,-457.22 339.86,-466.22 349.84,-462.67 345.45,-457.22"/>
</a>
</g>
</g>
<!-- Node5 -->
<g id="Node000005" class="node">
<title>Node5</title>
<g id="a_Node000005"><a xlink:href="../../d2/d62/crypto_8hpp.html" target="_top" xlink:title=" ">
<polygon fill="white" stroke="#666666" points="227.46,-191.62 104.21,-191.62 104.21,-161.12 227.46,-161.12 227.46,-191.62"/>
<text text-anchor="start" x="112.21" y="-178.12" font-family="Times,serif" font-size="10.00">mal&#45;packet&#45;weaver/mal</text>
<text text-anchor="middle" x="165.83" y="-166.88" font-family="Times,serif" font-size="10.00">&#45;packet&#45;weaver/crypto.hpp</text>
</a>
</g>
</g>
<!-- Node4&#45;&gt;Node5 -->
<g id="edge4_Node000004_Node000005" class="edge">
<title>Node4&#45;&gt;Node5</title>
<g id="a_edge4_Node000004_Node000005"><a xlink:title=" ">
<path fill="none" stroke="#63b8ff" d="M27.87,-381.41C18.97,-373.33 10.75,-363.67 5.83,-352.75 -1.78,-335.83 -2.03,-327.81 5.83,-311 32.59,-253.79 97.21,-212.49 135.64,-191.99"/>
<polygon fill="#63b8ff" stroke="#63b8ff" points="25.26,-384.62 35.17,-388.37 29.76,-379.26 25.26,-384.62"/>
</a>
</g>
</g>
<!-- Node10 -->
<g id="Node000010" class="node">
<title>Node10</title>
<g id="a_Node000010"><a xlink:href="../../df/d27/aes_8hpp.html" target="_top" xlink:title=" ">
<polygon fill="white" stroke="#666666" points="122.58,-352.75 15.08,-352.75 15.08,-311 122.58,-311 122.58,-352.75"/>
<text text-anchor="start" x="23.08" y="-339.25" font-family="Times,serif" font-size="10.00">mal&#45;packet&#45;weaver/mal</text>
<text text-anchor="start" x="23.08" y="-328" font-family="Times,serif" font-size="10.00">&#45;packet&#45;weaver/crypto</text>
<text text-anchor="middle" x="68.83" y="-316.75" font-family="Times,serif" font-size="10.00">/openssl/aes.hpp</text>
</a>
</g>
</g>
<!-- Node4&#45;&gt;Node10 -->
<g id="edge10_Node000004_Node000010" class="edge">
<title>Node4&#45;&gt;Node10</title>
<g id="a_edge10_Node000004_Node000010"><a xlink:title=" ">
<path fill="none" stroke="#63b8ff" d="M68.83,-377.56C68.83,-369.36 68.83,-360.71 68.83,-353.23"/>
<polygon fill="#63b8ff" stroke="#63b8ff" points="65.33,-377.33 68.83,-387.33 72.33,-377.33 65.33,-377.33"/>
</a>
</g>
</g>
<!-- Node6 -->
<g id="Node000006" class="node">
<title>Node6</title>
<g id="a_Node000006"><a xlink:href="../../d4/d5e/session_8hpp.html" target="_top" xlink:title=" ">
<polygon fill="white" stroke="#666666" points="327.21,-113.88 202.46,-113.88 202.46,-83.38 327.21,-83.38 327.21,-113.88"/>
<text text-anchor="start" x="210.46" y="-100.38" font-family="Times,serif" font-size="10.00">mal&#45;packet&#45;weaver/mal</text>
<text text-anchor="middle" x="264.83" y="-89.12" font-family="Times,serif" font-size="10.00">&#45;packet&#45;weaver/session.hpp</text>
</a>
</g>
</g>
<!-- Node5&#45;&gt;Node6 -->
<g id="edge5_Node000005_Node000006" class="edge">
<title>Node5&#45;&gt;Node6</title>
<g id="a_edge5_Node000005_Node000006"><a xlink:title=" ">
<path fill="none" stroke="#63b8ff" d="M193.22,-154.42C209.94,-141.63 230.89,-125.6 245.8,-114.19"/>
<polygon fill="#63b8ff" stroke="#63b8ff" points="191.74,-151.91 185.92,-160.77 195.99,-157.47 191.74,-151.91"/>
</a>
</g>
</g>
<!-- Node7 -->
<g id="Node000007" class="node">
<title>Node7</title>
<g id="a_Node000007"><a xlink:href="../../de/d5c/dispatcher-session_8hpp.html" target="_top" xlink:title=" ">
<polygon fill="white" stroke="#666666" points="464.71,-41.75 342.96,-41.75 342.96,0 464.71,0 464.71,-41.75"/>
<text text-anchor="start" x="350.96" y="-28.25" font-family="Times,serif" font-size="10.00">mal&#45;packet&#45;weaver/mal</text>
<text text-anchor="start" x="350.96" y="-17" font-family="Times,serif" font-size="10.00">&#45;packet&#45;weaver/dispatcher</text>
<text text-anchor="middle" x="403.83" y="-5.75" font-family="Times,serif" font-size="10.00">&#45;session.hpp</text>
</a>
</g>
</g>
<!-- Node6&#45;&gt;Node7 -->
<g id="edge6_Node000006_Node000007" class="edge">
<title>Node6&#45;&gt;Node7</title>
<g id="a_edge6_Node000006_Node000007"><a xlink:title=" ">
<path fill="none" stroke="#63b8ff" d="M301.1,-77.86C321.26,-66.88 346.29,-53.23 366.61,-42.16"/>
<polygon fill="#63b8ff" stroke="#63b8ff" points="299.74,-75.16 292.63,-83.02 303.09,-81.31 299.74,-75.16"/>
</a>
</g>
</g>
<!-- Node8 -->
<g id="Node000008" class="node">
<title>Node8</title>
<g id="a_Node000008"><a xlink:href="../../d9/d1a/session_8cpp.html" target="_top" xlink:title=" ">
<polygon fill="white" stroke="#666666" points="186.83,-36.12 62.83,-36.12 62.83,-5.62 186.83,-5.62 186.83,-36.12"/>
<text text-anchor="start" x="70.83" y="-22.62" font-family="Times,serif" font-size="10.00">mal&#45;packet&#45;weaver/mal</text>
<text text-anchor="middle" x="124.83" y="-11.38" font-family="Times,serif" font-size="10.00">&#45;packet&#45;weaver/session.cpp</text>
</a>
</g>
</g>
<!-- Node6&#45;&gt;Node8 -->
<g id="edge7_Node000006_Node000008" class="edge">
<title>Node6&#45;&gt;Node8</title>
<g id="a_edge7_Node000006_Node000008"><a xlink:title=" ">
<path fill="none" stroke="#63b8ff" d="M228.36,-77.89C204.37,-64.91 173.51,-48.21 151.74,-36.44"/>
<polygon fill="#63b8ff" stroke="#63b8ff" points="226.38,-81.34 236.84,-83.02 229.71,-75.18 226.38,-81.34"/>
</a>
</g>
</g>
<!-- Node9 -->
<g id="Node000009" class="node">
<title>Node9</title>
<g id="a_Node000009"><a xlink:href="../../d1/d16/session_8inl.html" target="_top" xlink:title=" ">
<polygon fill="white" stroke="#666666" points="324.58,-36.12 205.08,-36.12 205.08,-5.62 324.58,-5.62 324.58,-36.12"/>
<text text-anchor="start" x="213.08" y="-22.62" font-family="Times,serif" font-size="10.00">mal&#45;packet&#45;weaver/mal</text>
<text text-anchor="middle" x="264.83" y="-11.38" font-family="Times,serif" font-size="10.00">&#45;packet&#45;weaver/session.inl</text>
</a>
</g>
</g>
<!-- Node6&#45;&gt;Node9 -->
<g id="edge8_Node000006_Node000009" class="edge">
<title>Node6&#45;&gt;Node9</title>
<g id="a_edge8_Node000006_Node000009"><a xlink:title=" ">
<path fill="none" stroke="#63b8ff" d="M258.43,-72.34C257.75,-60.4 258.07,-46.59 259.38,-36.44"/>
<polygon fill="#63b8ff" stroke="#63b8ff" points="255,-72.37 259.38,-82.02 261.98,-71.75 255,-72.37"/>
</a>
</g>
</g>
<!-- Node9&#45;&gt;Node6 -->
<g id="edge9_Node000009_Node000006" class="edge">
<title>Node9&#45;&gt;Node6</title>
<g id="a_edge9_Node000009_Node000006"><a xlink:title=" ">
<path fill="none" stroke="#63b8ff" d="M271.24,-47.11C271.91,-59.04 271.6,-72.85 270.29,-83.02"/>
<polygon fill="#63b8ff" stroke="#63b8ff" points="274.66,-47.09 270.29,-37.44 267.69,-47.71 274.66,-47.09"/>
</a>
</g>
</g>
<!-- Node10&#45;&gt;Node5 -->
<g id="edge11_Node000010_Node000005" class="edge">
<title>Node10&#45;&gt;Node5</title>
<g id="a_edge11_Node000010_Node000005"><a xlink:title=" ">
<path fill="none" stroke="#63b8ff" d="M87.27,-301.71C107.97,-268.93 140.76,-217.05 156.63,-191.94"/>
<polygon fill="#63b8ff" stroke="#63b8ff" points="83.9,-299.48 81.51,-309.81 89.82,-303.22 83.9,-299.48"/>
</a>
</g>
</g>
<!-- Node11&#45;&gt;Node5 -->
<g id="edge13_Node000011_Node000005" class="edge">
<title>Node11&#45;&gt;Node5</title>
<g id="a_edge13_Node000011_Node000005"><a xlink:title=" ">
<path fill="none" stroke="#63b8ff" d="M187.3,-380.27C180.26,-372.14 173.73,-362.74 169.83,-352.75 148.06,-296.84 157.43,-223.13 162.9,-192.12"/>
<polygon fill="#63b8ff" stroke="#63b8ff" points="184.36,-382.33 193.74,-387.26 189.49,-377.55 184.36,-382.33"/>
</a>
</g>
</g>
<!-- Node11&#45;&gt;Node10 -->
<g id="edge14_Node000011_Node000010" class="edge">
<title>Node11&#45;&gt;Node10</title>
<g id="a_edge14_Node000011_Node000010"><a xlink:title=" ">
<path fill="none" stroke="#63b8ff" d="M169.03,-383.47C149.58,-373.65 127.57,-362.54 109.14,-353.23"/>
<polygon fill="#63b8ff" stroke="#63b8ff" points="167.13,-386.94 177.64,-388.33 170.29,-380.69 167.13,-386.94"/>
</a>
</g>
</g>
<!-- Node12 -->
<g id="Node000012" class="node">
<title>Node12</title>
<g id="a_Node000012"><a xlink:href="../../d8/d6d/sha_8hpp.html" target="_top" xlink:title=" ">
<polygon fill="white" stroke="#666666" points="286.58,-352.75 179.08,-352.75 179.08,-311 286.58,-311 286.58,-352.75"/>
<text text-anchor="start" x="187.08" y="-339.25" font-family="Times,serif" font-size="10.00">mal&#45;packet&#45;weaver/mal</text>
<text text-anchor="start" x="187.08" y="-328" font-family="Times,serif" font-size="10.00">&#45;packet&#45;weaver/crypto</text>
<text text-anchor="middle" x="232.83" y="-316.75" font-family="Times,serif" font-size="10.00">/openssl/sha.hpp</text>
</a>
</g>
</g>
<!-- Node11&#45;&gt;Node12 -->
<g id="edge15_Node000011_Node000012" class="edge">
<title>Node11&#45;&gt;Node12</title>
<g id="a_edge15_Node000011_Node000012"><a xlink:title=" ">
<path fill="none" stroke="#63b8ff" d="M224.57,-377.56C226.09,-369.36 227.69,-360.71 229.07,-353.23"/>
<polygon fill="#63b8ff" stroke="#63b8ff" points="220.96,-376.86 222.59,-387.33 227.84,-378.13 220.96,-376.86"/>
</a>
</g>
</g>
<!-- Node12&#45;&gt;Node5 -->
<g id="edge16_Node000012_Node000005" class="edge">
<title>Node12&#45;&gt;Node5</title>
<g id="a_edge16_Node000012_Node000005"><a xlink:title=" ">
<path fill="none" stroke="#63b8ff" d="M216.58,-301.02C212.26,-292.68 207.71,-283.57 203.83,-275 190.71,-246 177.77,-211.03 170.9,-191.8"/>
<polygon fill="#63b8ff" stroke="#63b8ff" points="213.93,-302.49 221.69,-309.7 220.12,-299.22 213.93,-302.49"/>
</a>
</g>
</g>
<!-- Node13 -->
<g id="Node000013" class="node">
<title>Node13</title>
<g id="a_Node000013"><a xlink:href="../../d4/d28/ecdsa_8hpp.html" target="_top" xlink:title=" ">
<polygon fill="white" stroke="#666666" points="320.58,-275 213.08,-275 213.08,-233.25 320.58,-233.25 320.58,-275"/>
<text text-anchor="start" x="221.08" y="-261.5" font-family="Times,serif" font-size="10.00">mal&#45;packet&#45;weaver/mal</text>
<text text-anchor="start" x="221.08" y="-250.25" font-family="Times,serif" font-size="10.00">&#45;packet&#45;weaver/crypto</text>
<text text-anchor="middle" x="266.83" y="-239" font-family="Times,serif" font-size="10.00">/openssl/ecdsa.hpp</text>
</a>
</g>
</g>
<!-- Node12&#45;&gt;Node13 -->
<g id="edge17_Node000012_Node000013" class="edge">
<title>Node12&#45;&gt;Node13</title>
<g id="a_edge17_Node000012_Node000013"><a xlink:title=" ">
<path fill="none" stroke="#63b8ff" d="M246.4,-300.65C250.19,-292.2 254.23,-283.21 257.7,-275.48"/>
<polygon fill="#63b8ff" stroke="#63b8ff" points="242.85,-299.02 241.94,-309.58 249.23,-301.89 242.85,-299.02"/>
</a>
</g>
</g>
<!-- Node13&#45;&gt;Node5 -->
<g id="edge18_Node000013_Node000005" class="edge">
<title>Node13&#45;&gt;Node5</title>
<g id="a_edge18_Node000013_Node000005"><a xlink:title=" ">
<path fill="none" stroke="#63b8ff" d="M230.99,-226.24C215.6,-214.7 198.22,-201.67 185.29,-191.96"/>
<polygon fill="#63b8ff" stroke="#63b8ff" points="228.67,-229.63 238.77,-232.83 232.87,-224.03 228.67,-229.63"/>
</a>
</g>
</g>
<!-- Node15&#45;&gt;Node6 -->
<g id="edge26_Node000015_Node000006" class="edge">
<title>Node15&#45;&gt;Node6</title>
<g id="a_edge26_Node000015_Node000006"><a xlink:title=" ">
<path fill="none" stroke="#63b8ff" d="M379.91,-230.48C351.75,-198.45 301.11,-140.87 277.54,-114.07"/>
<polygon fill="#63b8ff" stroke="#63b8ff" points="377.66,-232.21 386.89,-237.41 382.91,-227.59 377.66,-232.21"/>
</a>
</g>
</g>
<!-- Node16 -->
<g id="Node000016" class="node">
<title>Node16</title>
<g id="a_Node000016"><a xlink:href="../../df/d1d/packet-dispatcher_8hpp.html" target="_top" xlink:title=" ">
<polygon fill="white" stroke="#666666" points="539.58,-197.25 432.08,-197.25 432.08,-155.5 539.58,-155.5 539.58,-197.25"/>
<text text-anchor="start" x="440.08" y="-183.75" font-family="Times,serif" font-size="10.00">mal&#45;packet&#45;weaver/mal</text>
<text text-anchor="start" x="440.08" y="-172.5" font-family="Times,serif" font-size="10.00">&#45;packet&#45;weaver/packet</text>
<text text-anchor="middle" x="485.83" y="-161.25" font-family="Times,serif" font-size="10.00">&#45;dispatcher.hpp</text>
</a>
</g>
</g>
<!-- Node15&#45;&gt;Node16 -->
<g id="edge21_Node000015_Node000016" class="edge">
<title>Node15&#45;&gt;Node16</title>
<g id="a_edge21_Node000015_Node000016"><a xlink:title=" ">
<path fill="none" stroke="#63b8ff" d="M424.34,-231.54C436.42,-220.9 450.92,-208.13 462.8,-197.66"/>
<polygon fill="#63b8ff" stroke="#63b8ff" points="422.61,-228.28 417.42,-237.52 427.23,-233.54 422.61,-228.28"/>
</a>
</g>
</g>
<!-- Node16&#45;&gt;Node7 -->
<g id="edge22_Node000016_Node000007" class="edge">
<title>Node16&#45;&gt;Node7</title>
<g id="a_edge22_Node000016_Node000007"><a xlink:title=" ">
<path fill="none" stroke="#63b8ff" d="M447.33,-148.36C438.03,-140.1 429,-130.3 422.83,-119.5 408.97,-95.21 405.04,-62.57 404.03,-41.87"/>
<polygon fill="#63b8ff" stroke="#63b8ff" points="444.6,-151.47 454.51,-155.21 449.09,-146.11 444.6,-151.47"/>
</a>
</g>
</g>
<!-- Node16&#45;&gt;Node14 -->
<g id="edge23_Node000016_Node000014" class="edge">
<title>Node16&#45;&gt;Node14</title>
<g id="a_edge23_Node000016_Node000014"><a xlink:title=" ">
<path fill="none" stroke="#63b8ff" d="M531.04,-149.82C548.24,-140.1 567.59,-129.16 583.82,-119.98"/>
<polygon fill="#63b8ff" stroke="#63b8ff" points="529.73,-147.11 522.74,-155.08 533.17,-153.2 529.73,-147.11"/>
</a>
</g>
</g>
<!-- Node17 -->
<g id="Node000017" class="node">
<title>Node17</title>
<g id="a_Node000017"><a xlink:href="../../d2/d7d/packet-dispatcher_8inl.html" target="_top" xlink:title=" ">
<polygon fill="white" stroke="#666666" points="539.58,-119.5 432.08,-119.5 432.08,-77.75 539.58,-77.75 539.58,-119.5"/>
<text text-anchor="start" x="440.08" y="-106" font-family="Times,serif" font-size="10.00">mal&#45;packet&#45;weaver/mal</text>
<text text-anchor="start" x="440.08" y="-94.75" font-family="Times,serif" font-size="10.00">&#45;packet&#45;weaver/packet</text>
<text text-anchor="middle" x="485.83" y="-83.5" font-family="Times,serif" font-size="10.00">&#45;dispatcher.inl</text>
</a>
</g>
</g>
<!-- Node16&#45;&gt;Node17 -->
<g id="edge24_Node000016_Node000017" class="edge">
<title>Node16&#45;&gt;Node17</title>
<g id="a_edge24_Node000016_Node000017"><a xlink:title=" ">
<path fill="none" stroke="#63b8ff" d="M479.18,-144.31C478.94,-136.11 479.14,-127.46 479.77,-119.98"/>
<polygon fill="#63b8ff" stroke="#63b8ff" points="475.73,-144.28 479.78,-154.08 482.72,-143.9 475.73,-144.28"/>
</a>
</g>
</g>
<!-- Node17&#45;&gt;Node16 -->
<g id="edge25_Node000017_Node000016" class="edge">
<title>Node17&#45;&gt;Node16</title>
<g id="a_edge25_Node000017_Node000016"><a xlink:title=" ">
<path fill="none" stroke="#63b8ff" d="M492.49,-130.75C492.72,-138.96 492.52,-147.6 491.89,-155.08"/>
<polygon fill="#63b8ff" stroke="#63b8ff" points="495.94,-130.77 491.9,-120.98 488.95,-131.16 495.94,-130.77"/>
</a>
</g>
</g>
<!-- Node19 -->
<g id="Node000019" class="node">
<title>Node19</title>
<g id="a_Node000019"><a xlink:href="../../d3/d53/packet-factory_8hpp.html" target="_top" xlink:title=" ">
<polygon fill="white" stroke="#666666" points="466.46,-352.75 349.21,-352.75 349.21,-311 466.46,-311 466.46,-352.75"/>
<text text-anchor="start" x="357.21" y="-339.25" font-family="Times,serif" font-size="10.00">mal&#45;packet&#45;weaver/mal</text>
<text text-anchor="start" x="357.21" y="-328" font-family="Times,serif" font-size="10.00">&#45;packet&#45;weaver/packet</text>
<text text-anchor="middle" x="407.83" y="-316.75" font-family="Times,serif" font-size="10.00">_impl/packet&#45;factory.hpp</text>
</a>
</g>
</g>
<!-- Node18&#45;&gt;Node19 -->
<g id="edge28_Node000018_Node000019" class="edge">
<title>Node18&#45;&gt;Node19</title>
<g id="a_edge28_Node000018_Node000019"><a xlink:title=" ">
<path fill="none" stroke="#63b8ff" d="M407.83,-377.56C407.83,-369.36 407.83,-360.71 407.83,-353.23"/>
<polygon fill="#63b8ff" stroke="#63b8ff" points="404.33,-377.33 407.83,-387.33 411.33,-377.33 404.33,-377.33"/>
</a>
</g>
</g>
<!-- Node21 -->
<g id="Node000021" class="node">
<title>Node21</title>
<g id="a_Node000021"><a xlink:href="../../d3/dae/packet_8cpp.html" target="_top" xlink:title=" ">
<polygon fill="white" stroke="#666666" points="591.58,-352.75 484.08,-352.75 484.08,-311 591.58,-311 591.58,-352.75"/>
<text text-anchor="start" x="492.08" y="-339.25" font-family="Times,serif" font-size="10.00">mal&#45;packet&#45;weaver/mal</text>
<text text-anchor="start" x="492.08" y="-328" font-family="Times,serif" font-size="10.00">&#45;packet&#45;weaver/packet</text>
<text text-anchor="middle" x="537.83" y="-316.75" font-family="Times,serif" font-size="10.00">_impl/packet.cpp</text>
</a>
</g>
</g>
<!-- Node18&#45;&gt;Node21 -->
<g id="edge31_Node000018_Node000021" class="edge">
<title>Node18&#45;&gt;Node21</title>
<g id="a_edge31_Node000018_Node000021"><a xlink:title=" ">
<path fill="none" stroke="#63b8ff" d="M452.16,-382.8C468.73,-373.14 487.3,-362.32 502.9,-353.23"/>
<polygon fill="#63b8ff" stroke="#63b8ff" points="450.55,-380.27 443.67,-388.33 454.07,-386.31 450.55,-380.27"/>
</a>
</g>
</g>
<!-- Node19&#45;&gt;Node15 -->
<g id="edge29_Node000019_Node000015" class="edge">
<title>Node19&#45;&gt;Node15</title>
<g id="a_edge29_Node000019_Node000015"><a xlink:title=" ">
<path fill="none" stroke="#63b8ff" d="M404.54,-299.65C403.43,-289.18 402.25,-278.01 401.35,-269.48"/>
<polygon fill="#63b8ff" stroke="#63b8ff" points="401.16,-300 405.69,-309.58 408.12,-299.26 401.16,-300"/>
</a>
</g>
</g>
<!-- Node20 -->
<g id="Node000020" class="node">
<title>Node20</title>
<g id="a_Node000020"><a xlink:href="../../d2/db3/packet-factory_8cpp.html" target="_top" xlink:title=" ">
<polygon fill="white" stroke="#666666" points="596.08,-275 479.58,-275 479.58,-233.25 596.08,-233.25 596.08,-275"/>
<text text-anchor="start" x="487.58" y="-261.5" font-family="Times,serif" font-size="10.00">mal&#45;packet&#45;weaver/mal</text>
<text text-anchor="start" x="487.58" y="-250.25" font-family="Times,serif" font-size="10.00">&#45;packet&#45;weaver/packet</text>
<text text-anchor="middle" x="537.83" y="-239" font-family="Times,serif" font-size="10.00">_impl/packet&#45;factory.cpp</text>
</a>
</g>
</g>
<!-- Node19&#45;&gt;Node20 -->
<g id="edge30_Node000019_Node000020" class="edge">
<title>Node19&#45;&gt;Node20</title>
<g id="a_edge30_Node000019_Node000020"><a xlink:title=" ">
<path fill="none" stroke="#63b8ff" d="M452.16,-305.05C468.73,-295.39 487.3,-284.57 502.9,-275.48"/>
<polygon fill="#63b8ff" stroke="#63b8ff" points="450.55,-302.52 443.67,-310.58 454.07,-308.56 450.55,-302.52"/>
</a>
</g>
</g>
<!-- Node22&#45;&gt;Node2 -->
<g id="edge33_Node000022_Node000002" class="edge">
<title>Node22&#45;&gt;Node2</title>
<g id="a_edge33_Node000022_Node000002"><a xlink:title=" ">
<path fill="none" stroke="#63b8ff" d="M345.62,-600.68C341.01,-592.14 336.08,-583.05 331.85,-575.23"/>
<polygon fill="#63b8ff" stroke="#63b8ff" points="343.01,-602.2 350.85,-609.33 349.16,-598.86 343.01,-602.2"/>
</a>
</g>
</g>
</g>
</svg>
