<?xml version="1.0" encoding="UTF-8" standalone="no"?>
<!DOCTYPE svg PUBLIC "-//W3C//DTD SVG 1.1//EN"
 "http://www.w3.org/Graphics/SVG/1.1/DTD/svg11.dtd">
<!-- Generated by graphviz version 8.1.0 (20230707.0739)
 -->
<!-- Title: third_party/mal&#45;toolkit/mal&#45;toolkit/mal&#45;toolkit/common&#45;structures.hpp Pages: 1 -->
<svg width="2248pt" height="160pt"
 viewBox="0.00 0.00 2248.12 160.25" xmlns="http://www.w3.org/2000/svg" xmlns:xlink="http://www.w3.org/1999/xlink">
<g id="graph0" class="graph" transform="scale(1 1) rotate(0) translate(4 156.25)">
<title>third_party/mal&#45;toolkit/mal&#45;toolkit/mal&#45;toolkit/common&#45;structures.hpp</title>
<!-- Node1 -->
<g id="Node000001" class="node">
<title>Node1</title>
<g id="a_Node000001"><a xlink:title="Defines common data structures and types that can be used anywhere.">
<polygon fill="#999999" stroke="#666666" points="1167.5,-152.25 1054,-152.25 1054,-110.5 1167.5,-110.5 1167.5,-152.25"/>
<text text-anchor="start" x="1062" y="-138.75" font-family="Times,serif" font-size="10.00">third_party/mal&#45;toolkit</text>
<text text-anchor="start" x="1062" y="-127.5" font-family="Times,serif" font-size="10.00">/mal&#45;toolkit/mal&#45;toolkit</text>
<text text-anchor="middle" x="1110.75" y="-116.25" font-family="Times,serif" font-size="10.00">/common&#45;structures.hpp</text>
</a>
</g>
</g>
<!-- Node2 -->
<g id="Node000002" class="node">
<title>Node2</title>
<g id="a_Node000002"><a xlink:href="../../db/d6e/library-pch_8hpp.html" target="_top" xlink:title="Precompiled header (PCH) file for common headers used across the library.">
<polygon fill="white" stroke="#666666" points="1150.25,-74.5 1071.25,-74.5 1071.25,-55.25 1150.25,-55.25 1150.25,-74.5"/>
<text text-anchor="middle" x="1110.75" y="-61" font-family="Times,serif" font-size="10.00">library&#45;pch.hpp</text>
</a>
</g>
</g>
<!-- Node1&#45;&gt;Node2 -->
<g id="edge1_Node000001_Node000002" class="edge">
<title>Node1&#45;&gt;Node2</title>
<g id="a_edge1_Node000001_Node000002"><a xlink:title=" ">
<path fill="none" stroke="#63b8ff" d="M1110.75,-110.32C1110.75,-102.55 1110.75,-93.68 1110.75,-85.92"/>
<polygon fill="#63b8ff" stroke="#63b8ff" points="1114.25,-85.95 1110.75,-75.95 1107.25,-85.95 1114.25,-85.95"/>
</a>
</g>
</g>
<!-- Node3 -->
<g id="Node000003" class="node">
<title>Node3</title>
<g id="a_Node000003"><a xlink:title=" ">
<polygon fill="#e0e0e0" stroke="#999999" points="53.5,-19.25 0,-19.25 0,0 53.5,0 53.5,-19.25"/>
<text text-anchor="middle" x="26.75" y="-5.75" font-family="Times,serif" font-size="10.00">algorithm</text>
</a>
</g>
</g>
<!-- Node2&#45;&gt;Node3 -->
<g id="edge2_Node000002_Node000003" class="edge">
<title>Node2&#45;&gt;Node3</title>
<g id="a_edge2_Node000002_Node000003"><a xlink:title=" ">
<path fill="none" stroke="#63b8ff" d="M1070.8,-63.2C906.81,-60.29 284.1,-47.66 64.54,-19.15"/>
<polygon fill="#63b8ff" stroke="#63b8ff" points="65.15,-15.56 54.77,-17.69 64.21,-22.5 65.15,-15.56"/>
</a>
</g>
</g>
<!-- Node4 -->
<g id="Node000004" class="node">
<title>Node4</title>
<g id="a_Node000004"><a xlink:title=" ">
<polygon fill="#e0e0e0" stroke="#999999" points="107.88,-19.25 71.62,-19.25 71.62,0 107.88,0 107.88,-19.25"/>
<text text-anchor="middle" x="89.75" y="-5.75" font-family="Times,serif" font-size="10.00">array</text>
</a>
</g>
</g>
<!-- Node2&#45;&gt;Node4 -->
<g id="edge3_Node000002_Node000004" class="edge">
<title>Node2&#45;&gt;Node4</title>
<g id="a_edge3_Node000002_Node000004"><a xlink:title=" ">
<path fill="none" stroke="#63b8ff" d="M1070.95,-63.43C912.68,-61.47 326.84,-52.21 119.05,-18.86"/>
<polygon fill="#63b8ff" stroke="#63b8ff" points="119.71,-15.25 109.27,-17.05 118.55,-22.16 119.71,-15.25"/>
</a>
</g>
</g>
<!-- Node5 -->
<g id="Node000005" class="node">
<title>Node5</title>
<g id="a_Node000005"><a xlink:title=" ">
<polygon fill="#e0e0e0" stroke="#999999" points="173.12,-19.25 126.38,-19.25 126.38,0 173.12,0 173.12,-19.25"/>
<text text-anchor="middle" x="149.75" y="-5.75" font-family="Times,serif" font-size="10.00">assert.h</text>
</a>
</g>
</g>
<!-- Node2&#45;&gt;Node5 -->
<g id="edge4_Node000002_Node000005" class="edge">
<title>Node2&#45;&gt;Node5</title>
<g id="a_edge4_Node000002_Node000005"><a xlink:title=" ">
<path fill="none" stroke="#63b8ff" d="M1070.95,-63.1C919.42,-59.99 377.74,-47.25 184,-19.21"/>
<polygon fill="#63b8ff" stroke="#63b8ff" points="184.8,-15.64 174.39,-17.61 183.76,-22.56 184.8,-15.64"/>
</a>
</g>
</g>
<!-- Node6 -->
<g id="Node000006" class="node">
<title>Node6</title>
<g id="a_Node000006"><a xlink:title=" ">
<polygon fill="#e0e0e0" stroke="#999999" points="234.25,-19.25 191.25,-19.25 191.25,0 234.25,0 234.25,-19.25"/>
<text text-anchor="middle" x="212.75" y="-5.75" font-family="Times,serif" font-size="10.00">chrono</text>
</a>
</g>
</g>
<!-- Node2&#45;&gt;Node6 -->
<g id="edge5_Node000002_Node000006" class="edge">
<title>Node2&#45;&gt;Node6</title>
<g id="a_edge5_Node000002_Node000006"><a xlink:title=" ">
<path fill="none" stroke="#63b8ff" d="M1070.85,-62.99C925.92,-59.58 426.81,-46.26 245.35,-19.04"/>
<polygon fill="#63b8ff" stroke="#63b8ff" points="246.05,-15.45 235.63,-17.36 244.97,-22.37 246.05,-15.45"/>
</a>
</g>
</g>
<!-- Node7 -->
<g id="Node000007" class="node">
<title>Node7</title>
<g id="a_Node000007"><a xlink:title=" ">
<polygon fill="#e0e0e0" stroke="#999999" points="293.12,-19.25 252.38,-19.25 252.38,0 293.12,0 293.12,-19.25"/>
<text text-anchor="middle" x="272.75" y="-5.75" font-family="Times,serif" font-size="10.00">cmath</text>
</a>
</g>
</g>
<!-- Node2&#45;&gt;Node7 -->
<g id="edge6_Node000002_Node000007" class="edge">
<title>Node2&#45;&gt;Node7</title>
<g id="a_edge6_Node000002_Node000007"><a xlink:title=" ">
<path fill="none" stroke="#63b8ff" d="M1071.16,-62.87C933.23,-59.17 473.56,-45.32 304.31,-19.02"/>
<polygon fill="#63b8ff" stroke="#63b8ff" points="305.03,-15.42 294.59,-17.27 303.9,-22.33 305.03,-15.42"/>
</a>
</g>
</g>
<!-- Node8 -->
<g id="Node000008" class="node">
<title>Node8</title>
<g id="a_Node000008"><a xlink:title=" ">
<polygon fill="#e0e0e0" stroke="#999999" points="362,-19.25 311.5,-19.25 311.5,0 362,0 362,-19.25"/>
<text text-anchor="middle" x="336.75" y="-5.75" font-family="Times,serif" font-size="10.00">concepts</text>
</a>
</g>
</g>
<!-- Node2&#45;&gt;Node8 -->
<g id="edge7_Node000002_Node000008" class="edge">
<title>Node2&#45;&gt;Node8</title>
<g id="a_edge7_Node000002_Node000008"><a xlink:title=" ">
<path fill="none" stroke="#63b8ff" d="M1070.83,-64C960.96,-63.8 644.86,-59.62 373.12,-19.12"/>
<polygon fill="#63b8ff" stroke="#63b8ff" points="373.67,-15.51 363.26,-17.48 372.62,-22.43 373.67,-15.51"/>
</a>
</g>
</g>
<!-- Node9 -->
<g id="Node000009" class="node">
<title>Node9</title>
<g id="a_Node000009"><a xlink:title=" ">
<polygon fill="#e0e0e0" stroke="#999999" points="469.12,-19.25 380.38,-19.25 380.38,0 469.12,0 469.12,-19.25"/>
<text text-anchor="middle" x="424.75" y="-5.75" font-family="Times,serif" font-size="10.00">condition_variable</text>
</a>
</g>
</g>
<!-- Node2&#45;&gt;Node9 -->
<g id="edge8_Node000002_Node000009" class="edge">
<title>Node2&#45;&gt;Node9</title>
<g id="a_edge8_Node000002_Node000009"><a xlink:title=" ">
<path fill="none" stroke="#63b8ff" d="M1071.01,-62.33C972.62,-58.24 709.65,-45.66 480.42,-19.46"/>
<polygon fill="#63b8ff" stroke="#63b8ff" points="480.86,-15.88 470.53,-18.21 480.06,-22.83 480.86,-15.88"/>
</a>
</g>
</g>
<!-- Node10 -->
<g id="Node000010" class="node">
<title>Node10</title>
<g id="a_Node000010"><a xlink:title=" ">
<polygon fill="#e0e0e0" stroke="#999999" points="530.25,-19.25 487.25,-19.25 487.25,0 530.25,0 530.25,-19.25"/>
<text text-anchor="middle" x="508.75" y="-5.75" font-family="Times,serif" font-size="10.00">cstdint</text>
</a>
</g>
</g>
<!-- Node2&#45;&gt;Node10 -->
<g id="edge9_Node000002_Node000010" class="edge">
<title>Node2&#45;&gt;Node10</title>
<g id="a_edge9_Node000002_Node000010"><a xlink:title=" ">
<path fill="none" stroke="#63b8ff" d="M1070.87,-63.52C978.82,-62.13 744.45,-55.21 541.16,-19.35"/>
<polygon fill="#63b8ff" stroke="#63b8ff" points="542.04,-15.78 531.58,-17.45 540.81,-22.67 542.04,-15.78"/>
</a>
</g>
</g>
<!-- Node11 -->
<g id="Node000011" class="node">
<title>Node11</title>
<g id="a_Node000011"><a xlink:title=" ">
<polygon fill="#e0e0e0" stroke="#999999" points="591.25,-19.25 548.25,-19.25 548.25,0 591.25,0 591.25,-19.25"/>
<text text-anchor="middle" x="569.75" y="-5.75" font-family="Times,serif" font-size="10.00">cstdlib</text>
</a>
</g>
</g>
<!-- Node2&#45;&gt;Node11 -->
<g id="edge10_Node000002_Node000011" class="edge">
<title>Node2&#45;&gt;Node11</title>
<g id="a_edge10_Node000002_Node000011"><a xlink:title=" ">
<path fill="none" stroke="#63b8ff" d="M1070.97,-63.01C986.21,-60.6 781.53,-51.82 602.27,-19.4"/>
<polygon fill="#63b8ff" stroke="#63b8ff" points="603.06,-15.8 592.59,-17.43 601.79,-22.68 603.06,-15.8"/>
</a>
</g>
</g>
<!-- Node12 -->
<g id="Node000012" class="node">
<title>Node12</title>
<g id="a_Node000012"><a xlink:title=" ">
<polygon fill="#e0e0e0" stroke="#999999" points="664.25,-19.25 609.25,-19.25 609.25,0 664.25,0 664.25,-19.25"/>
<text text-anchor="middle" x="636.75" y="-5.75" font-family="Times,serif" font-size="10.00">filesystem</text>
</a>
</g>
</g>
<!-- Node2&#45;&gt;Node12 -->
<g id="edge11_Node000002_Node000012" class="edge">
<title>Node2&#45;&gt;Node12</title>
<g id="a_edge11_Node000002_Node000012"><a xlink:title=" ">
<path fill="none" stroke="#63b8ff" d="M1070.95,-61.61C995.47,-56.92 826.2,-44.57 674.98,-19.43"/>
<polygon fill="#63b8ff" stroke="#63b8ff" points="676.03,-15.89 665.58,-17.68 674.86,-22.8 676.03,-15.89"/>
</a>
</g>
</g>
<!-- Node13 -->
<g id="Node000013" class="node">
<title>Node13</title>
<g id="a_Node000013"><a xlink:title=" ">
<polygon fill="#e0e0e0" stroke="#999999" points="727.38,-19.25 682.12,-19.25 682.12,0 727.38,0 727.38,-19.25"/>
<text text-anchor="middle" x="704.75" y="-5.75" font-family="Times,serif" font-size="10.00">fstream</text>
</a>
</g>
</g>
<!-- Node2&#45;&gt;Node13 -->
<g id="edge12_Node000002_Node000013" class="edge">
<title>Node2&#45;&gt;Node13</title>
<g id="a_edge12_Node000002_Node000013"><a xlink:title=" ">
<path fill="none" stroke="#63b8ff" d="M1070.88,-61.02C1004.06,-55.83 865.16,-43.27 738.39,-19.29"/>
<polygon fill="#63b8ff" stroke="#63b8ff" points="739.21,-15.7 728.73,-17.24 737.89,-22.57 739.21,-15.7"/>
</a>
</g>
</g>
<!-- Node14 -->
<g id="Node000014" class="node">
<title>Node14</title>
<g id="a_Node000014"><a xlink:title=" ">
<polygon fill="#e0e0e0" stroke="#999999" points="799.88,-19.25 745.62,-19.25 745.62,0 799.88,0 799.88,-19.25"/>
<text text-anchor="middle" x="772.75" y="-5.75" font-family="Times,serif" font-size="10.00">functional</text>
</a>
</g>
</g>
<!-- Node2&#45;&gt;Node14 -->
<g id="edge13_Node000002_Node000014" class="edge">
<title>Node2&#45;&gt;Node14</title>
<g id="a_edge13_Node000002_Node000014"><a xlink:title=" ">
<path fill="none" stroke="#63b8ff" d="M1070.99,-59.14C1015.09,-52.23 909.89,-38.33 811,-19.54"/>
<polygon fill="#63b8ff" stroke="#63b8ff" points="811.69,-15.92 801.21,-17.47 810.37,-22.79 811.69,-15.92"/>
</a>
</g>
</g>
<!-- Node15 -->
<g id="Node000015" class="node">
<title>Node15</title>
<g id="a_Node000015"><a xlink:title=" ">
<polygon fill="#e0e0e0" stroke="#999999" points="865.88,-19.25 817.62,-19.25 817.62,0 865.88,0 865.88,-19.25"/>
<text text-anchor="middle" x="841.75" y="-5.75" font-family="Times,serif" font-size="10.00">iomanip</text>
</a>
</g>
</g>
<!-- Node2&#45;&gt;Node15 -->
<g id="edge14_Node000002_Node000015" class="edge">
<title>Node2&#45;&gt;Node15</title>
<g id="a_edge14_Node000002_Node000015"><a xlink:title=" ">
<path fill="none" stroke="#63b8ff" d="M1070.91,-57.2C1025.97,-49.49 950.47,-35.96 876.62,-19.55"/>
<polygon fill="#63b8ff" stroke="#63b8ff" points="877.74,-15.99 867.21,-17.22 876.2,-22.82 877.74,-15.99"/>
</a>
</g>
</g>
<!-- Node16 -->
<g id="Node000016" class="node">
<title>Node16</title>
<g id="a_Node000016"><a xlink:title=" ">
<polygon fill="#e0e0e0" stroke="#999999" points="929.38,-19.25 884.12,-19.25 884.12,0 929.38,0 929.38,-19.25"/>
<text text-anchor="middle" x="906.75" y="-5.75" font-family="Times,serif" font-size="10.00">istream</text>
</a>
</g>
</g>
<!-- Node2&#45;&gt;Node16 -->
<g id="edge15_Node000002_Node000016" class="edge">
<title>Node2&#45;&gt;Node16</title>
<g id="a_edge15_Node000002_Node000016"><a xlink:title=" ">
<path fill="none" stroke="#63b8ff" d="M1075.48,-54.83C1042.87,-46.44 992.78,-33.5 940.33,-19.65"/>
<polygon fill="#63b8ff" stroke="#63b8ff" points="941.38,-16.04 930.82,-16.87 939.59,-22.81 941.38,-16.04"/>
</a>
</g>
</g>
<!-- Node17 -->
<g id="Node000017" class="node">
<title>Node17</title>
<g id="a_Node000017"><a xlink:title=" ">
<polygon fill="#e0e0e0" stroke="#999999" points="985.62,-19.25 947.88,-19.25 947.88,0 985.62,0 985.62,-19.25"/>
<text text-anchor="middle" x="966.75" y="-5.75" font-family="Times,serif" font-size="10.00">limits</text>
</a>
</g>
</g>
<!-- Node2&#45;&gt;Node17 -->
<g id="edge16_Node000002_Node000017" class="edge">
<title>Node2&#45;&gt;Node17</title>
<g id="a_edge16_Node000002_Node000017"><a xlink:title=" ">
<path fill="none" stroke="#63b8ff" d="M1086.32,-54.84C1061.36,-45.61 1022.58,-31.27 995.99,-21.44"/>
<polygon fill="#63b8ff" stroke="#63b8ff" points="997.36,-17.84 986.77,-17.66 994.93,-24.41 997.36,-17.84"/>
</a>
</g>
</g>
<!-- Node18 -->
<g id="Node000018" class="node">
<title>Node18</title>
<g id="a_Node000018"><a xlink:title=" ">
<polygon fill="#e0e0e0" stroke="#999999" points="1037.38,-19.25 1004.12,-19.25 1004.12,0 1037.38,0 1037.38,-19.25"/>
<text text-anchor="middle" x="1020.75" y="-5.75" font-family="Times,serif" font-size="10.00">map</text>
</a>
</g>
</g>
<!-- Node2&#45;&gt;Node18 -->
<g id="edge17_Node000002_Node000018" class="edge">
<title>Node2&#45;&gt;Node18</title>
<g id="a_edge17_Node000002_Node000018"><a xlink:title=" ">
<path fill="none" stroke="#63b8ff" d="M1095.48,-54.84C1081.78,-46.73 1061.41,-34.68 1045.4,-25.21"/>
<polygon fill="#63b8ff" stroke="#63b8ff" points="1047.48,-21.78 1037.09,-19.7 1043.92,-27.81 1047.48,-21.78"/>
</a>
</g>
</g>
<!-- Node19 -->
<g id="Node000019" class="node">
<title>Node19</title>
<g id="a_Node000019"><a xlink:title=" ">
<polygon fill="#e0e0e0" stroke="#999999" points="1103.88,-19.25 1055.62,-19.25 1055.62,0 1103.88,0 1103.88,-19.25"/>
<text text-anchor="middle" x="1079.75" y="-5.75" font-family="Times,serif" font-size="10.00">memory</text>
</a>
</g>
</g>
<!-- Node2&#45;&gt;Node19 -->
<g id="edge18_Node000002_Node000019" class="edge">
<title>Node2&#45;&gt;Node19</title>
<g id="a_edge18_Node000002_Node000019"><a xlink:title=" ">
<path fill="none" stroke="#63b8ff" d="M1105.63,-55.08C1101.53,-48.03 1095.63,-37.9 1090.5,-29.08"/>
<polygon fill="#63b8ff" stroke="#63b8ff" points="1093.04,-27.49 1084.98,-20.61 1086.99,-31.01 1093.04,-27.49"/>
</a>
</g>
</g>
<!-- Node20 -->
<g id="Node000020" class="node">
<title>Node20</title>
<g id="a_Node000020"><a xlink:title=" ">
<polygon fill="#e0e0e0" stroke="#999999" points="1163.12,-19.25 1122.38,-19.25 1122.38,0 1163.12,0 1163.12,-19.25"/>
<text text-anchor="middle" x="1142.75" y="-5.75" font-family="Times,serif" font-size="10.00">mutex</text>
</a>
</g>
</g>
<!-- Node2&#45;&gt;Node20 -->
<g id="edge19_Node000002_Node000020" class="edge">
<title>Node2&#45;&gt;Node20</title>
<g id="a_edge19_Node000002_Node000020"><a xlink:title=" ">
<path fill="none" stroke="#63b8ff" d="M1116.03,-55.08C1120.32,-47.96 1126.49,-37.68 1131.83,-28.8"/>
<polygon fill="#63b8ff" stroke="#63b8ff" points="1135.2,-30.98 1137.35,-20.61 1129.2,-27.38 1135.2,-30.98"/>
</a>
</g>
</g>
<!-- Node21 -->
<g id="Node000021" class="node">
<title>Node21</title>
<g id="a_Node000021"><a xlink:title=" ">
<polygon fill="#e0e0e0" stroke="#999999" points="1232,-19.25 1181.5,-19.25 1181.5,0 1232,0 1232,-19.25"/>
<text text-anchor="middle" x="1206.75" y="-5.75" font-family="Times,serif" font-size="10.00">numbers</text>
</a>
</g>
</g>
<!-- Node2&#45;&gt;Node21 -->
<g id="edge20_Node000002_Node000021" class="edge">
<title>Node2&#45;&gt;Node21</title>
<g id="a_edge20_Node000002_Node000021"><a xlink:title=" ">
<path fill="none" stroke="#63b8ff" d="M1127.04,-54.84C1141.79,-46.66 1163.79,-34.46 1180.94,-24.94"/>
<polygon fill="#63b8ff" stroke="#63b8ff" points="1182.34,-27.61 1189.39,-19.7 1178.94,-21.49 1182.34,-27.61"/>
</a>
</g>
</g>
<!-- Node22 -->
<g id="Node000022" class="node">
<title>Node22</title>
<g id="a_Node000022"><a xlink:title=" ">
<polygon fill="#e0e0e0" stroke="#999999" points="1297.88,-19.25 1249.62,-19.25 1249.62,0 1297.88,0 1297.88,-19.25"/>
<text text-anchor="middle" x="1273.75" y="-5.75" font-family="Times,serif" font-size="10.00">numeric</text>
</a>
</g>
</g>
<!-- Node2&#45;&gt;Node22 -->
<g id="edge21_Node000002_Node000022" class="edge">
<title>Node2&#45;&gt;Node22</title>
<g id="a_edge21_Node000002_Node000022"><a xlink:title=" ">
<path fill="none" stroke="#63b8ff" d="M1138.4,-54.84C1166.07,-45.8 1208.72,-31.87 1238.73,-22.06"/>
<polygon fill="#63b8ff" stroke="#63b8ff" points="1239.75,-25.09 1248.17,-18.66 1237.58,-18.43 1239.75,-25.09"/>
</a>
</g>
</g>
<!-- Node23 -->
<g id="Node000023" class="node">
<title>Node23</title>
<g id="a_Node000023"><a xlink:title=" ">
<polygon fill="#e0e0e0" stroke="#999999" points="1363.12,-19.25 1316.38,-19.25 1316.38,0 1363.12,0 1363.12,-19.25"/>
<text text-anchor="middle" x="1339.75" y="-5.75" font-family="Times,serif" font-size="10.00">optional</text>
</a>
</g>
</g>
<!-- Node2&#45;&gt;Node23 -->
<g id="edge22_Node000002_Node000023" class="edge">
<title>Node2&#45;&gt;Node23</title>
<g id="a_edge22_Node000002_Node000023"><a xlink:title=" ">
<path fill="none" stroke="#63b8ff" d="M1150.63,-55.19C1188.13,-46.93 1246.08,-33.94 1305.63,-19.46"/>
<polygon fill="#63b8ff" stroke="#63b8ff" points="1306.1,-22.71 1314.98,-16.93 1304.43,-15.91 1306.1,-22.71"/>
</a>
</g>
</g>
<!-- Node24 -->
<g id="Node000024" class="node">
<title>Node24</title>
<g id="a_Node000024"><a xlink:title=" ">
<polygon fill="#e0e0e0" stroke="#999999" points="1428.5,-19.25 1381,-19.25 1381,0 1428.5,0 1428.5,-19.25"/>
<text text-anchor="middle" x="1404.75" y="-5.75" font-family="Times,serif" font-size="10.00">ostream</text>
</a>
</g>
</g>
<!-- Node2&#45;&gt;Node24 -->
<g id="edge23_Node000002_Node000024" class="edge">
<title>Node2&#45;&gt;Node24</title>
<g id="a_edge23_Node000002_Node000024"><a xlink:title=" ">
<path fill="none" stroke="#63b8ff" d="M1150.31,-58.2C1199.51,-50.9 1286.29,-37.25 1369.94,-19.48"/>
<polygon fill="#63b8ff" stroke="#63b8ff" points="1370.62,-22.7 1379.66,-17.18 1369.14,-15.86 1370.62,-22.7"/>
</a>
</g>
</g>
<!-- Node25 -->
<g id="Node000025" class="node">
<title>Node25</title>
<g id="a_Node000025"><a xlink:title=" ">
<polygon fill="#e0e0e0" stroke="#999999" points="1492.75,-19.25 1446.75,-19.25 1446.75,0 1492.75,0 1492.75,-19.25"/>
<text text-anchor="middle" x="1469.75" y="-5.75" font-family="Times,serif" font-size="10.00">random</text>
</a>
</g>
</g>
<!-- Node2&#45;&gt;Node25 -->
<g id="edge24_Node000002_Node000025" class="edge">
<title>Node2&#45;&gt;Node25</title>
<g id="a_edge24_Node000002_Node000025"><a xlink:title=" ">
<path fill="none" stroke="#63b8ff" d="M1150.54,-60.1C1210.44,-54.06 1327.5,-40.86 1435.95,-19.39"/>
<polygon fill="#63b8ff" stroke="#63b8ff" points="1436.3,-22.69 1445.41,-17.28 1434.92,-15.82 1436.3,-22.69"/>
</a>
</g>
</g>
<!-- Node26 -->
<g id="Node000026" class="node">
<title>Node26</title>
<g id="a_Node000026"><a xlink:title=" ">
<polygon fill="#e0e0e0" stroke="#999999" points="1582.88,-19.25 1510.62,-19.25 1510.62,0 1582.88,0 1582.88,-19.25"/>
<text text-anchor="middle" x="1546.75" y="-5.75" font-family="Times,serif" font-size="10.00">shared_mutex</text>
</a>
</g>
</g>
<!-- Node2&#45;&gt;Node26 -->
<g id="edge25_Node000002_Node000026" class="edge">
<title>Node2&#45;&gt;Node26</title>
<g id="a_edge25_Node000002_Node000026"><a xlink:title=" ">
<path fill="none" stroke="#63b8ff" d="M1150.57,-60.34C1219.54,-53.99 1365.94,-39.55 1499.61,-19.47"/>
<polygon fill="#63b8ff" stroke="#63b8ff" points="1500.08,-22.79 1509.44,-17.83 1499.03,-15.87 1500.08,-22.79"/>
</a>
</g>
</g>
<!-- Node27 -->
<g id="Node000027" class="node">
<title>Node27</title>
<g id="a_Node000027"><a xlink:title=" ">
<polygon fill="#e0e0e0" stroke="#999999" points="1636.12,-19.25 1601.38,-19.25 1601.38,0 1636.12,0 1636.12,-19.25"/>
<text text-anchor="middle" x="1618.75" y="-5.75" font-family="Times,serif" font-size="10.00">span</text>
</a>
</g>
</g>
<!-- Node2&#45;&gt;Node27 -->
<g id="edge26_Node000002_Node000027" class="edge">
<title>Node2&#45;&gt;Node27</title>
<g id="a_edge26_Node000002_Node000027"><a xlink:title=" ">
<path fill="none" stroke="#63b8ff" d="M1150.45,-63.09C1231.55,-60.87 1422.05,-52.49 1590.1,-19.11"/>
<polygon fill="#63b8ff" stroke="#63b8ff" points="1590.78,-22.34 1599.88,-16.93 1589.39,-15.48 1590.78,-22.34"/>
</a>
</g>
</g>
<!-- Node28 -->
<g id="Node000028" class="node">
<title>Node28</title>
<g id="a_Node000028"><a xlink:title=" ">
<polygon fill="#e0e0e0" stroke="#999999" points="1699.75,-19.25 1653.75,-19.25 1653.75,0 1699.75,0 1699.75,-19.25"/>
<text text-anchor="middle" x="1676.75" y="-5.75" font-family="Times,serif" font-size="10.00">sstream</text>
</a>
</g>
</g>
<!-- Node2&#45;&gt;Node28 -->
<g id="edge27_Node000002_Node000028" class="edge">
<title>Node2&#45;&gt;Node28</title>
<g id="a_edge27_Node000002_Node000028"><a xlink:title=" ">
<path fill="none" stroke="#63b8ff" d="M1150.59,-62.99C1238.1,-60.53 1453.73,-51.6 1642.75,-19.29"/>
<polygon fill="#63b8ff" stroke="#63b8ff" points="1643.19,-22.59 1652.44,-17.43 1641.99,-15.69 1643.19,-22.59"/>
</a>
</g>
</g>
<!-- Node29 -->
<g id="Node000029" class="node">
<title>Node29</title>
<g id="a_Node000029"><a xlink:title=" ">
<polygon fill="#e0e0e0" stroke="#999999" points="1771.88,-19.25 1717.62,-19.25 1717.62,0 1771.88,0 1771.88,-19.25"/>
<text text-anchor="middle" x="1744.75" y="-5.75" font-family="Times,serif" font-size="10.00">stdexcept</text>
</a>
</g>
</g>
<!-- Node2&#45;&gt;Node29 -->
<g id="edge28_Node000002_Node000029" class="edge">
<title>Node2&#45;&gt;Node29</title>
<g id="a_edge28_Node000002_Node000029"><a xlink:title=" ">
<path fill="none" stroke="#63b8ff" d="M1150.54,-63.11C1245.29,-60.82 1491.83,-52.09 1706.48,-19.35"/>
<polygon fill="#63b8ff" stroke="#63b8ff" points="1706.98,-22.66 1716.32,-17.68 1705.91,-15.75 1706.98,-22.66"/>
</a>
</g>
</g>
<!-- Node30 -->
<g id="Node000030" class="node">
<title>Node30</title>
<g id="a_Node000030"><a xlink:title=" ">
<polygon fill="#e0e0e0" stroke="#999999" points="1835.75,-19.25 1789.75,-19.25 1789.75,0 1835.75,0 1835.75,-19.25"/>
<text text-anchor="middle" x="1812.75" y="-5.75" font-family="Times,serif" font-size="10.00">stdint.h</text>
</a>
</g>
</g>
<!-- Node2&#45;&gt;Node30 -->
<g id="edge29_Node000002_Node000030" class="edge">
<title>Node2&#45;&gt;Node30</title>
<g id="a_edge29_Node000002_Node000030"><a xlink:title=" ">
<path fill="none" stroke="#63b8ff" d="M1150.71,-63.94C1253.55,-63.54 1535.72,-58.76 1778.64,-19.26"/>
<polygon fill="#63b8ff" stroke="#63b8ff" points="1779.15,-22.56 1788.45,-17.47 1778.01,-15.65 1779.15,-22.56"/>
</a>
</g>
</g>
<!-- Node31 -->
<g id="Node000031" class="node">
<title>Node31</title>
<g id="a_Node000031"><a xlink:title=" ">
<polygon fill="#e0e0e0" stroke="#999999" points="1893.38,-19.25 1854.12,-19.25 1854.12,0 1893.38,0 1893.38,-19.25"/>
<text text-anchor="middle" x="1873.75" y="-5.75" font-family="Times,serif" font-size="10.00">string</text>
</a>
</g>
</g>
<!-- Node2&#45;&gt;Node31 -->
<g id="edge30_Node000002_Node000031" class="edge">
<title>Node2&#45;&gt;Node31</title>
<g id="a_edge30_Node000002_Node000031"><a xlink:title=" ">
<path fill="none" stroke="#63b8ff" d="M1150.34,-62.66C1279.65,-58.51 1689.61,-43.87 1843.31,-18.98"/>
<polygon fill="#63b8ff" stroke="#63b8ff" points="1843.66,-22.3 1852.93,-17.17 1842.48,-15.4 1843.66,-22.3"/>
</a>
</g>
</g>
<!-- Node32 -->
<g id="Node000032" class="node">
<title>Node32</title>
<g id="a_Node000032"><a xlink:title=" ">
<polygon fill="#e0e0e0" stroke="#999999" points="1952.5,-19.25 1911,-19.25 1911,0 1952.5,0 1952.5,-19.25"/>
<text text-anchor="middle" x="1931.75" y="-5.75" font-family="Times,serif" font-size="10.00">thread</text>
</a>
</g>
</g>
<!-- Node2&#45;&gt;Node32 -->
<g id="edge31_Node000002_Node000032" class="edge">
<title>Node2&#45;&gt;Node32</title>
<g id="a_edge31_Node000002_Node000032"><a xlink:title=" ">
<path fill="none" stroke="#63b8ff" d="M1150.53,-62.86C1286.91,-59.18 1735.85,-45.5 1900.25,-19.26"/>
<polygon fill="#63b8ff" stroke="#63b8ff" points="1900.38,-22.62 1909.66,-17.51 1899.22,-15.72 1900.38,-22.62"/>
</a>
</g>
</g>
<!-- Node33 -->
<g id="Node000033" class="node">
<title>Node33</title>
<g id="a_Node000033"><a xlink:title=" ">
<polygon fill="#e0e0e0" stroke="#999999" points="2029.12,-19.25 1970.38,-19.25 1970.38,0 2029.12,0 2029.12,-19.25"/>
<text text-anchor="middle" x="1999.75" y="-5.75" font-family="Times,serif" font-size="10.00">type_traits</text>
</a>
</g>
</g>
<!-- Node2&#45;&gt;Node33 -->
<g id="edge32_Node000002_Node000033" class="edge">
<title>Node2&#45;&gt;Node33</title>
<g id="a_edge32_Node000002_Node000033"><a xlink:title=" ">
<path fill="none" stroke="#63b8ff" d="M1150.42,-64.19C1270.88,-64.65 1642.96,-62.33 1959.21,-19.37"/>
<polygon fill="#63b8ff" stroke="#63b8ff" points="1959.54,-22.72 1968.97,-17.89 1958.58,-15.79 1959.54,-22.72"/>
</a>
</g>
</g>
<!-- Node34 -->
<g id="Node000034" class="node">
<title>Node34</title>
<g id="a_Node000034"><a xlink:title=" ">
<polygon fill="#e0e0e0" stroke="#999999" points="2119.88,-19.25 2047.62,-19.25 2047.62,0 2119.88,0 2119.88,-19.25"/>
<text text-anchor="middle" x="2083.75" y="-5.75" font-family="Times,serif" font-size="10.00">unordered_set</text>
</a>
</g>
</g>
<!-- Node2&#45;&gt;Node34 -->
<g id="edge33_Node000002_Node000034" class="edge">
<title>Node2&#45;&gt;Node34</title>
<g id="a_edge33_Node000002_Node000034"><a xlink:title=" ">
<path fill="none" stroke="#63b8ff" d="M1150.66,-63.91C1278.23,-63.59 1687.58,-59.4 2036.34,-19.21"/>
<polygon fill="#63b8ff" stroke="#63b8ff" points="2036.63,-22.59 2046.16,-17.95 2035.82,-15.63 2036.63,-22.59"/>
</a>
</g>
</g>
<!-- Node35 -->
<g id="Node000035" class="node">
<title>Node35</title>
<g id="a_Node000035"><a xlink:title=" ">
<polygon fill="#e0e0e0" stroke="#999999" points="2181.25,-19.25 2138.25,-19.25 2138.25,0 2181.25,0 2181.25,-19.25"/>
<text text-anchor="middle" x="2159.75" y="-5.75" font-family="Times,serif" font-size="10.00">variant</text>
</a>
</g>
</g>
<!-- Node2&#45;&gt;Node35 -->
<g id="edge34_Node000002_Node000035" class="edge">
<title>Node2&#45;&gt;Node35</title>
<g id="a_edge34_Node000002_Node000035"><a xlink:title=" ">
<path fill="none" stroke="#63b8ff" d="M1150.69,-63.34C1311.69,-60.99 1914.17,-50.37 2127.12,-19.03"/>
<polygon fill="#63b8ff" stroke="#63b8ff" points="2127.52,-22.36 2136.87,-17.38 2126.46,-15.44 2127.52,-22.36"/>
</a>
</g>
</g>
<!-- Node36 -->
<g id="Node000036" class="node">
<title>Node36</title>
<g id="a_Node000036"><a xlink:title=" ">
<polygon fill="#e0e0e0" stroke="#999999" points="2240.12,-19.25 2199.38,-19.25 2199.38,0 2240.12,0 2240.12,-19.25"/>
<text text-anchor="middle" x="2219.75" y="-5.75" font-family="Times,serif" font-size="10.00">vector</text>
</a>
</g>
</g>
<!-- Node2&#45;&gt;Node36 -->
<g id="edge35_Node000002_Node000036" class="edge">
<title>Node2&#45;&gt;Node36</title>
<g id="a_edge35_Node000002_Node000036"><a xlink:title=" ">
<path fill="none" stroke="#63b8ff" d="M1150.53,-63.55C1317.54,-61.98 1963.42,-53.87 2188.28,-19.2"/>
<polygon fill="#63b8ff" stroke="#63b8ff" points="2188.67,-22.52 2197.99,-17.47 2187.56,-15.61 2188.67,-22.52"/>
</a>
</g>
</g>
</g>
</svg>
