<?xml version="1.0" encoding="UTF-8" standalone="no"?>
<!DOCTYPE svg PUBLIC "-//W3C//DTD SVG 1.1//EN"
 "http://www.w3.org/Graphics/SVG/1.1/DTD/svg11.dtd">
<!-- Generated by graphviz version 7.0.5 (20221223.1930)
 -->
<!-- Title: weaver::AES256 Pages: 1 -->
<svg width="392pt" height="108pt"
 viewBox="0.00 0.00 392.00 108.00" xmlns="http://www.w3.org/2000/svg" xmlns:xlink="http://www.w3.org/1999/xlink">
<g id="graph0" class="graph" transform="scale(1 1) rotate(0) translate(4 104)">
<title>weaver::AES256</title>
<!-- Node1 -->
<g id="node1" class="node">
<title>Node1</title>
<g id="a_node1"><a xlink:title="Provides AES&#45;256 encryption and decryption functionality using OpenSSL.">
<polygon fill="#999999" stroke="#666666" points="384,-64.5 296,-64.5 296,-45.5 384,-45.5 384,-64.5"/>
<text text-anchor="middle" x="340" y="-52.5" font-family="Helvetica,sans-Serif" font-size="10.00">weaver::AES256</text>
</a>
</g>
</g>
<!-- Node2 -->
<g id="node2" class="node">
<title>Node2</title>
<g id="a_node2"><a xlink:title=" ">
<polygon fill="white" stroke="#666666" points="141,-100 43,-100 43,-70 141,-70 141,-100"/>
<text text-anchor="start" x="51" y="-88" font-family="Helvetica,sans-Serif" font-size="10.00">utils::non_copyable</text>
<text text-anchor="middle" x="92" y="-77" font-family="Helvetica,sans-Serif" font-size="10.00">_non_movable</text>
</a>
</g>
</g>
<!-- Node2&#45;&gt;Node1 -->
<g id="edge1" class="edge">
<title>Node2&#45;&gt;Node1</title>
<path fill="none" stroke="#8b1a1a" d="M152.62,-83.23C189.03,-81.47 236.44,-77.96 278,-71 286.96,-69.5 296.53,-67.29 305.36,-64.99"/>
<polygon fill="#8b1a1a" stroke="#8b1a1a" points="152.55,-79.73 142.71,-83.67 152.86,-86.72 152.55,-79.73"/>
</g>
<!-- Node3 -->
<g id="node3" class="node">
<title>Node3</title>
<g id="a_node3"><a xlink:title=" ">
<polygon fill="white" stroke="#666666" points="184,-52 0,-52 0,0 184,0 184,-52"/>
<text text-anchor="start" x="8" y="-40" font-family="Helvetica,sans-Serif" font-size="10.00">std::unique_ptr&lt; EVP</text>
<text text-anchor="start" x="8" y="-29" font-family="Helvetica,sans-Serif" font-size="10.00">_CIPHER_CTX, OPENSSL</text>
<text text-anchor="start" x="8" y="-18" font-family="Helvetica,sans-Serif" font-size="10.00">_OBJECT_WRAPPER&lt; EVP_CIPHER</text>
<text text-anchor="middle" x="92" y="-7" font-family="Helvetica,sans-Serif" font-size="10.00">_CTX &gt; &gt;</text>
</a>
</g>
</g>
<!-- Node3&#45;&gt;Node1 -->
<g id="edge2" class="edge">
<title>Node3&#45;&gt;Node1</title>
<path fill="none" stroke="#9a32cd" stroke-dasharray="5,2" d="M195.54,-38.09C230.59,-42.22 267.93,-46.62 295.73,-49.9"/>
<polygon fill="#9a32cd" stroke="#9a32cd" points="196.1,-34.63 185.75,-36.93 195.28,-41.58 196.1,-34.63"/>
<text text-anchor="middle" x="240" y="-61" font-family="Helvetica,sans-Serif" font-size="10.00"> decrypt_context_</text>
<text text-anchor="middle" x="240" y="-50" font-family="Helvetica,sans-Serif" font-size="10.00">encrypt_context_</text>
</g>
</g>
</svg>
