<?xml version="1.0" encoding="UTF-8" standalone="no"?>
<!DOCTYPE svg PUBLIC "-//W3C//DTD SVG 1.1//EN"
 "http://www.w3.org/Graphics/SVG/1.1/DTD/svg11.dtd">
<!-- Generated by graphviz version 11.0.0 (20240428.1522)
 -->
<!-- Title: mal_toolkit::CallbackSystem&lt; F &gt; Pages: 1 -->
<!--zoomable 197 -->

<svg id="main" version="1.1" xmlns="http://www.w3.org/2000/svg" xmlns:xlink="http://www.w3.org/1999/xlink" xml:space="preserve" onload="init(evt)">
<style type="text/css"><![CDATA[
.node, .edge {opacity: 0.7;}
.node.selected, .edge.selected {opacity: 1;}
.edge:hover path { stroke: red; }
.edge:hover polygon { stroke: red; fill: red; }
]]></style>

<defs>
  <circle id="rim" cx="0" cy="0" r="7"/>
  <circle id="rim2" cx="0" cy="0" r="3.5"/>
  <g id="zoomPlus">
    <use xlink:href="#rim" fill="#404040"><set attributeName="fill" to="#808080" begin="zoomplus.mouseover" end="zoomplus.mouseout"/></use>
    <path d="M-4,0h8M0,-4v8" fill="none" stroke="white" stroke-width="1.5" pointer-events="none"/>
  </g>
  <g id="zoomMin">
    <use xlink:href="#rim" fill="#404040"><set attributeName="fill" to="#808080" begin="zoomminus.mouseover" end="zoomminus.mouseout"/></use>
    <path d="M-4,0h8" fill="none" stroke="white" stroke-width="1.5" pointer-events="none"/>
  </g>
  <g id="arrowUp" transform="translate(30 24)">
    <use xlink:href="#rim"/>
    <path pointer-events="none" fill="none" stroke="white" stroke-width="1.5" d="M0,-3.0v7 M-2.5,-0.5L0,-3.0L2.5,-0.5"/>
  </g>
  <g id="arrowRight" transform="rotate(90) translate(36 -43)">
    <use xlink:href="#rim"/>
    <path pointer-events="none" fill="none" stroke="white" stroke-width="1.5" d="M0,-3.0v7 M-2.5,-0.5L0,-3.0L2.5,-0.5"/>
  </g>
  <g id="arrowDown" transform="rotate(180) translate(-30 -48)">
    <use xlink:href="#rim"/>
    <path pointer-events="none" fill="none" stroke="white" stroke-width="1.5" d="M0,-3.0v7 M-2.5,-0.5L0,-3.0L2.5,-0.5"/>
  </g>
  <g id="arrowLeft" transform="rotate(270) translate(-36 17)">
    <use xlink:href="#rim"/>
    <path pointer-events="none" fill="none" stroke="white" stroke-width="1.5" d="M0,-3.0v7 M-2.5,-0.5L0,-3.0L2.5,-0.5"/>
  </g>
  <g id="resetDef">
    <use xlink:href="#rim2" fill="#404040"><set attributeName="fill" to="#808080" begin="reset.mouseover" end="reset.mouseout"/></use>
  </g>
</defs>
<script type="application/ecmascript">
var viewWidth = 730;
var viewHeight = 197;
var sectionId = 'dynsection-0';
</script>
<script type="application/ecmascript" xlink:href="../../svg.min.js"/>
<svg id="graph" class="graph">
<g id="viewport">
<title>mal_toolkit::CallbackSystem&lt; F &gt;</title>
<!-- Node1 -->
<g id="Node000001" class="node">
<title>Node1</title>
<g id="a_Node000001"><a xlink:title="A system for managing and invoking callback functions.">
<polygon fill="#999999" stroke="#666666" points="721.8,-66.25 570.05,-66.25 570.05,-47 721.8,-47 721.8,-66.25"/>
<text text-anchor="middle" x="645.92" y="-52.75" font-family="Times,serif" font-size="10.00">mal_toolkit::CallbackSystem&lt; F &gt;</text>
</a>
</g>
</g>
<!-- Node2 -->
<g id="Node000002" class="node">
<title>Node2</title>
<g id="a_Node000002"><a xlink:title=" ">
<polygon fill="white" stroke="#666666" points="450.05,-146.88 334.3,-146.88 334.3,-116.38 450.05,-116.38 450.05,-146.88"/>
<text text-anchor="start" x="342.3" y="-133.38" font-family="Times,serif" font-size="10.00">std::unordered_map</text>
<text text-anchor="middle" x="392.17" y="-122.12" font-family="Times,serif" font-size="10.00">&lt; CallbackId, Callback &gt;</text>
</a>
</g>
</g>
<!-- Node2&#45;&gt;Node1 -->
<g id="edge1_Node000001_Node000002" class="edge">
<title>Node2&#45;&gt;Node1</title>
<g id="a_edge1_Node000001_Node000002"><a xlink:title=" ">
<path fill="none" stroke="#9a32cd" stroke-dasharray="5,2" d="M456.77,-112.68C505.81,-98.07 571.72,-78.43 611.1,-66.7"/>
<polygon fill="#9a32cd" stroke="#9a32cd" points="455.99,-109.26 447.4,-115.47 457.98,-115.97 455.99,-109.26"/>
</a>
</g>
<text text-anchor="middle" x="510.05" y="-108.38" font-family="Times,serif" font-size="10.00" fill="grey"> callbacks_</text>
</g>
<!-- Node3 -->
<g id="Node000003" class="node">
<title>Node3</title>
<g id="a_Node000003"><a xlink:title=" ">
<polygon fill="white" stroke="#666666" points="178.67,-77.25 119.17,-77.25 119.17,-58 178.67,-58 178.67,-77.25"/>
<text text-anchor="middle" x="148.92" y="-63.75" font-family="Times,serif" font-size="10.00">CallbackId</text>
</a>
</g>
</g>
<!-- Node3&#45;&gt;Node2 -->
<g id="edge2_Node000002_Node000003" class="edge">
<title>Node3&#45;&gt;Node2</title>
<g id="a_edge2_Node000002_Node000003"><a xlink:title=" ">
<path fill="none" stroke="#9a32cd" stroke-dasharray="5,2" d="M190.64,-64.16C225.11,-62.64 275.31,-63.81 316.3,-78.38 338.85,-86.38 360.68,-103.29 374.89,-115.92"/>
<polygon fill="#9a32cd" stroke="#9a32cd" points="190.45,-60.67 180.66,-64.71 190.83,-67.66 190.45,-60.67"/>
</a>
</g>
<text text-anchor="middle" x="265.3" y="-79.38" font-family="Times,serif" font-size="10.00" fill="grey"> keys</text>
</g>
<!-- Node8 -->
<g id="Node000008" class="node">
<title>Node8</title>
<g id="a_Node000008"><a xlink:title=" ">
<polygon fill="white" stroke="#666666" points="444.42,-71.88 339.92,-71.88 339.92,-41.38 444.42,-41.38 444.42,-71.88"/>
<text text-anchor="start" x="347.92" y="-58.38" font-family="Times,serif" font-size="10.00">std::unordered_map</text>
<text text-anchor="middle" x="392.17" y="-47.12" font-family="Times,serif" font-size="10.00">&lt; CallbackId, size_t &gt;</text>
</a>
</g>
</g>
<!-- Node3&#45;&gt;Node8 -->
<g id="edge8_Node000008_Node000003" class="edge">
<title>Node3&#45;&gt;Node8</title>
<g id="a_edge8_Node000008_Node000003"><a xlink:title=" ">
<path fill="none" stroke="#9a32cd" stroke-dasharray="5,2" d="M182.47,-53.4C192.48,-49.7 203.67,-46.24 214.3,-44.38 256.14,-37.05 304.27,-41.18 339.75,-46.55"/>
<polygon fill="#9a32cd" stroke="#9a32cd" points="181.19,-50.14 173.16,-57.05 183.75,-56.66 181.19,-50.14"/>
</a>
</g>
<text text-anchor="middle" x="265.3" y="-45.38" font-family="Times,serif" font-size="10.00" fill="grey"> keys</text>
</g>
<!-- Node4 -->
<g id="Node000004" class="node">
<title>Node4</title>
<g id="a_Node000004"><a xlink:title=" ">
<polygon fill="white" stroke="#666666" points="174.55,-189.25 123.3,-189.25 123.3,-170 174.55,-170 174.55,-189.25"/>
<text text-anchor="middle" x="148.92" y="-175.75" font-family="Times,serif" font-size="10.00">Callback</text>
</a>
</g>
</g>
<!-- Node4&#45;&gt;Node2 -->
<g id="edge3_Node000002_Node000004" class="edge">
<title>Node4&#45;&gt;Node2</title>
<g id="a_edge3_Node000002_Node000004"><a xlink:title=" ">
<path fill="none" stroke="#9a32cd" stroke-dasharray="5,2" d="M185.93,-172.46C225.09,-164.67 288.23,-152.11 334.15,-142.97"/>
<polygon fill="#9a32cd" stroke="#9a32cd" points="185.44,-168.99 176.32,-174.37 186.81,-175.85 185.44,-168.99"/>
</a>
</g>
<text text-anchor="middle" x="265.3" y="-168.38" font-family="Times,serif" font-size="10.00" fill="grey"> elements</text>
</g>
<!-- Node5 -->
<g id="Node000005" class="node">
<title>Node5</title>
<g id="a_Node000005"><a xlink:title=" ">
<polygon fill="white" stroke="#666666" points="196.3,-136.88 101.55,-136.88 101.55,-106.38 196.3,-106.38 196.3,-136.88"/>
<text text-anchor="start" x="109.55" y="-123.38" font-family="Times,serif" font-size="10.00">std::unordered_map</text>
<text text-anchor="middle" x="148.92" y="-112.12" font-family="Times,serif" font-size="10.00">&lt; K, T &gt;</text>
</a>
</g>
</g>
<!-- Node5&#45;&gt;Node2 -->
<g id="edge4_Node000002_Node000005" class="edge">
<title>Node5&#45;&gt;Node2</title>
<g id="a_edge4_Node000002_Node000005"><a xlink:title=" ">
<path fill="none" stroke="orange" stroke-dasharray="5,2" d="M208.17,-124.04C246.31,-125.62 295.92,-127.68 333.87,-129.25"/>
<polygon fill="orange" stroke="orange" points="208.38,-120.54 198.24,-123.63 208.09,-127.54 208.38,-120.54"/>
</a>
</g>
<text text-anchor="middle" x="265.3" y="-129.38" font-family="Times,serif" font-size="10.00" fill="grey"> &lt; CallbackId, Callback &gt;</text>
</g>
<!-- Node5&#45;&gt;Node8 -->
<g id="edge10_Node000008_Node000005" class="edge">
<title>Node5&#45;&gt;Node8</title>
<g id="a_edge10_Node000008_Node000005"><a xlink:title=" ">
<path fill="none" stroke="orange" stroke-dasharray="5,2" d="M207.73,-111.17C251.51,-103.13 305.87,-92.88 316.3,-89.62 331.08,-85.01 346.85,-78.34 360.08,-72.21"/>
<polygon fill="orange" stroke="orange" points="207.26,-107.69 198.06,-112.94 208.52,-114.58 207.26,-107.69"/>
</a>
</g>
<text text-anchor="middle" x="265.3" y="-110.38" font-family="Times,serif" font-size="10.00" fill="grey"> &lt; CallbackId, size_t &gt;</text>
</g>
<!-- Node6 -->
<g id="Node000006" class="node">
<title>Node6</title>
<g id="a_Node000006"><a xlink:title=" ">
<polygon fill="white" stroke="#666666" points="28.8,-149.25 0,-149.25 0,-130 28.8,-130 28.8,-149.25"/>
<text text-anchor="middle" x="14.4" y="-135.75" font-family="Times,serif" font-size="10.00">K</text>
</a>
</g>
</g>
<!-- Node6&#45;&gt;Node5 -->
<g id="edge5_Node000005_Node000006" class="edge">
<title>Node6&#45;&gt;Node5</title>
<g id="a_edge5_Node000005_Node000006"><a xlink:title=" ">
<path fill="none" stroke="#9a32cd" stroke-dasharray="5,2" d="M40.34,-136.24C57.46,-133.91 80.7,-130.76 101.2,-127.97"/>
<polygon fill="#9a32cd" stroke="#9a32cd" points="40.02,-132.75 30.58,-137.56 40.96,-139.68 40.02,-132.75"/>
</a>
</g>
<text text-anchor="middle" x="65.17" y="-136.38" font-family="Times,serif" font-size="10.00" fill="grey"> keys</text>
</g>
<!-- Node7 -->
<g id="Node000007" class="node">
<title>Node7</title>
<g id="a_Node000007"><a xlink:title=" ">
<polygon fill="white" stroke="#666666" points="28.8,-112.25 0,-112.25 0,-93 28.8,-93 28.8,-112.25"/>
<text text-anchor="middle" x="14.4" y="-98.75" font-family="Times,serif" font-size="10.00">T</text>
</a>
</g>
</g>
<!-- Node7&#45;&gt;Node5 -->
<g id="edge6_Node000005_Node000007" class="edge">
<title>Node7&#45;&gt;Node5</title>
<g id="a_edge6_Node000005_Node000007"><a xlink:title=" ">
<path fill="none" stroke="#9a32cd" stroke-dasharray="5,2" d="M40.34,-106.2C57.46,-108.65 80.7,-111.99 101.2,-114.93"/>
<polygon fill="#9a32cd" stroke="#9a32cd" points="40.98,-102.76 30.58,-104.8 39.98,-109.69 40.98,-102.76"/>
</a>
</g>
<text text-anchor="middle" x="65.17" y="-113.38" font-family="Times,serif" font-size="10.00" fill="grey"> elements</text>
</g>
<!-- Node8&#45;&gt;Node1 -->
<g id="edge7_Node000001_Node000008" class="edge">
<title>Node8&#45;&gt;Node1</title>
<g id="a_edge7_Node000001_Node000008"><a xlink:title=" ">
<path fill="none" stroke="#9a32cd" stroke-dasharray="5,2" d="M456.05,-56.62C490.47,-56.62 533.36,-56.62 569.56,-56.62"/>
<polygon fill="#9a32cd" stroke="#9a32cd" points="456.24,-53.13 446.24,-56.63 456.24,-60.13 456.24,-53.13"/>
</a>
</g>
<text text-anchor="middle" x="510.05" y="-58.38" font-family="Times,serif" font-size="10.00" fill="grey"> callback_addresses_</text>
</g>
<!-- Node9 -->
<g id="Node000009" class="node">
<title>Node9</title>
<g id="a_Node000009"><a xlink:href="../../dd/de2/classsize__t.html" target="_top" xlink:title=" ">
<polygon fill="white" stroke="#666666" points="168.92,-19.25 128.92,-19.25 128.92,0 168.92,0 168.92,-19.25"/>
<text text-anchor="middle" x="148.92" y="-5.75" font-family="Times,serif" font-size="10.00">size_t</text>
</a>
</g>
</g>
<!-- Node9&#45;&gt;Node8 -->
<g id="edge9_Node000008_Node000009" class="edge">
<title>Node9&#45;&gt;Node8</title>
<g id="a_edge9_Node000008_Node000009"><a xlink:title=" ">
<path fill="none" stroke="#9a32cd" stroke-dasharray="5,2" d="M180.66,-9.25C214.46,-9.54 270.12,-12.13 316.3,-24.38 324.81,-26.63 326.25,-29.08 334.3,-32.62 340.48,-35.34 347.06,-38.18 353.48,-40.91"/>
<polygon fill="#9a32cd" stroke="#9a32cd" points="180.77,-5.75 170.77,-9.23 180.76,-12.75 180.77,-5.75"/>
</a>
</g>
<text text-anchor="middle" x="265.3" y="-25.38" font-family="Times,serif" font-size="10.00" fill="grey"> elements</text>
</g>
<!-- Node10 -->
<g id="Node000010" class="node">
<title>Node10</title>
<g id="a_Node000010"><a xlink:title=" ">
<polygon fill="white" stroke="#666666" points="417.05,-23.25 367.3,-23.25 367.3,-4 417.05,-4 417.05,-23.25"/>
<text text-anchor="middle" x="392.17" y="-9.75" font-family="Times,serif" font-size="10.00">uint32_t</text>
</a>
</g>
</g>
<!-- Node10&#45;&gt;Node1 -->
<g id="edge11_Node000001_Node000010" class="edge">
<title>Node10&#45;&gt;Node1</title>
<g id="a_edge11_Node000001_Node000010"><a xlink:title=" ">
<path fill="none" stroke="#9a32cd" stroke-dasharray="5,2" d="M428.55,-19.67C469.3,-26.63 536.89,-38.17 585.7,-46.51"/>
<polygon fill="#9a32cd" stroke="#9a32cd" points="429.25,-16.24 418.81,-18 428.07,-23.14 429.25,-16.24"/>
</a>
</g>
<text text-anchor="middle" x="510.05" y="-41.38" font-family="Times,serif" font-size="10.00" fill="grey"> next_id_</text>
</g>
</g>
</svg>

<g id="navigator" transform="translate(0 0)" fill="#404254">
  <rect fill="#f2f5e9" fill-opacity="0.5" stroke="#606060" stroke-width=".5" x="0" y="0" width="60" height="60"/>
  <use id="zoomplus" xlink:href="#zoomPlus" x="17" y="9" onmousedown="handleZoom(evt,'in')"/>
  <use id="zoomminus" xlink:href="#zoomMin" x="42" y="9" onmousedown="handleZoom(evt,'out')"/>
  <use id="reset" xlink:href="#resetDef" x="30" y="36" onmousedown="handleReset()"/>
   <use id="arrowup" xlink:href="#arrowUp" x="0" y="0" onmousedown="handlePan(0,-1)"/>
  <use id="arrowright" xlink:href="#arrowRight" x="0" y="0" onmousedown="handlePan(1,0)"/>
  <use id="arrowdown" xlink:href="#arrowDown" x="0" y="0" onmousedown="handlePan(0,1)"/>
  <use id="arrowleft" xlink:href="#arrowLeft" x="0" y="0" onmousedown="handlePan(-1,0)"/>
</g>
<svg viewBox="0 0 15 15" width="100%" height="30px" preserveAspectRatio="xMaxYMin meet">
 <g id="arrow_out" transform="scale(0.3 0.3)">
  <a xlink:href="classmal__toolkit_1_1_callback_system__coll__graph_org.svg" target="_base">
   <rect id="button" ry="5" rx="5" y="6" x="6" height="38" width="38"
        fill="#f2f5e9" fill-opacity="0.5" stroke="#606060" stroke-width="1.0"/>
   <path id="arrow"
     d="M 11.500037,31.436501 C 11.940474,20.09759 22.043105,11.32322 32.158766,21.979434 L 37.068811,17.246167 C 37.068811,17.246167 37.088388,32 37.088388,32 L 22.160133,31.978069 C 22.160133,31.978069 26.997745,27.140456 26.997745,27.140456 C 18.528582,18.264221 13.291696,25.230495 11.500037,31.436501 z"
     style="fill:#404040;"/>
  </a>
 </g>
</svg>

<style type='text/css'>
<![CDATA[
[data-mouse-over-selected='false'] { opacity: 0.7; }
[data-mouse-over-selected='true']  { opacity: 1.0; }
]]>
</style>
<script type="application/ecmascript"><![CDATA[
document.addEventListener('DOMContentLoaded', (event) => {
  highlightEdges();
  highlightAdjacentNodes();
});
]]></script>
</svg>
