<?xml version="1.0" encoding="UTF-8" standalone="no"?>
<!DOCTYPE svg PUBLIC "-//W3C//DTD SVG 1.1//EN"
 "http://www.w3.org/Graphics/SVG/1.1/DTD/svg11.dtd">
<!-- Generated by graphviz version 8.1.0 (20230707.0739)
 -->
<!-- Title: mal&#45;packet&#45;weaver/mal&#45;packet&#45;weaver/packet&#45;impl/portable&#45;binary&#45;oarchive.hpp Pages: 1 -->
<!--zoomable 194 -->

<svg id="main" version="1.1" xmlns="http://www.w3.org/2000/svg" xmlns:xlink="http://www.w3.org/1999/xlink" xml:space="preserve" onload="init(evt)">
<style type="text/css"><![CDATA[
.node, .edge {opacity: 0.7;}
.node.selected, .edge.selected {opacity: 1;}
.edge:hover path { stroke: red; }
.edge:hover polygon { stroke: red; fill: red; }
]]></style>

<defs>
  <circle id="rim" cx="0" cy="0" r="7"/>
  <circle id="rim2" cx="0" cy="0" r="3.5"/>
  <g id="zoomPlus">
    <use xlink:href="#rim" fill="#404040"><set attributeName="fill" to="#808080" begin="zoomplus.mouseover" end="zoomplus.mouseout"/></use>
    <path d="M-4,0h8M0,-4v8" fill="none" stroke="white" stroke-width="1.5" pointer-events="none"/>
  </g>
  <g id="zoomMin">
    <use xlink:href="#rim" fill="#404040"><set attributeName="fill" to="#808080" begin="zoomminus.mouseover" end="zoomminus.mouseout"/></use>
    <path d="M-4,0h8" fill="none" stroke="white" stroke-width="1.5" pointer-events="none"/>
  </g>
  <g id="arrowUp" transform="translate(30 24)">
    <use xlink:href="#rim"/>
    <path pointer-events="none" fill="none" stroke="white" stroke-width="1.5" d="M0,-3.0v7 M-2.5,-0.5L0,-3.0L2.5,-0.5"/>
  </g>
  <g id="arrowRight" transform="rotate(90) translate(36 -43)">
    <use xlink:href="#rim"/>
    <path pointer-events="none" fill="none" stroke="white" stroke-width="1.5" d="M0,-3.0v7 M-2.5,-0.5L0,-3.0L2.5,-0.5"/>
  </g>
  <g id="arrowDown" transform="rotate(180) translate(-30 -48)">
    <use xlink:href="#rim"/>
    <path pointer-events="none" fill="none" stroke="white" stroke-width="1.5" d="M0,-3.0v7 M-2.5,-0.5L0,-3.0L2.5,-0.5"/>
  </g>
  <g id="arrowLeft" transform="rotate(270) translate(-36 17)">
    <use xlink:href="#rim"/>
    <path pointer-events="none" fill="none" stroke="white" stroke-width="1.5" d="M0,-3.0v7 M-2.5,-0.5L0,-3.0L2.5,-0.5"/>
  </g>
  <g id="resetDef">
    <use xlink:href="#rim2" fill="#404040"><set attributeName="fill" to="#808080" begin="reset.mouseover" end="reset.mouseout"/></use>
  </g>
</defs>
<script type="application/ecmascript">
var viewWidth = 1030;
var viewHeight = 194;
var sectionId = 'dynsection-0';
</script>
<script type="application/ecmascript" xlink:href="../../svg.min.js"/>
<svg id="graph" class="graph">
<g id="viewport">
<title>mal&#45;packet&#45;weaver/mal&#45;packet&#45;weaver/packet&#45;impl/portable&#45;binary&#45;oarchive.hpp</title>
<!-- Node1 -->
<g id="Node000001" class="node">
<title>Node1</title>
<g id="a_Node000001"><a xlink:title=" ">
<polygon fill="#999999" stroke="#666666" points="402.5,-186 295,-186 295,-133 402.5,-133 402.5,-186"/>
<text text-anchor="start" x="303" y="-172.5" font-family="Times,serif" font-size="10.00">mal&#45;packet&#45;weaver/mal</text>
<text text-anchor="start" x="303" y="-161.25" font-family="Times,serif" font-size="10.00">&#45;packet&#45;weaver/packet</text>
<text text-anchor="start" x="303" y="-150" font-family="Times,serif" font-size="10.00">&#45;impl/portable&#45;binary</text>
<text text-anchor="middle" x="348.75" y="-138.75" font-family="Times,serif" font-size="10.00">&#45;oarchive.hpp</text>
</a>
</g>
</g>
<!-- Node2 -->
<g id="Node000002" class="node">
<title>Node2</title>
<g id="a_Node000002"><a xlink:title=" ">
<polygon fill="#e0e0e0" stroke="#999999" points="47.5,-91.38 0,-91.38 0,-72.12 47.5,-72.12 47.5,-91.38"/>
<text text-anchor="middle" x="23.75" y="-77.88" font-family="Times,serif" font-size="10.00">ostream</text>
</a>
</g>
</g>
<!-- Node1&#45;&gt;Node2 -->
<g id="edge1_Node000001_Node000002" class="edge">
<title>Node1&#45;&gt;Node2</title>
<g id="a_edge1_Node000001_Node000002"><a xlink:title=" ">
<path fill="none" stroke="#63b8ff" d="M294.63,-150.44C235.38,-140.84 137.97,-122.8 56.75,-97 55.48,-96.6 54.19,-96.16 52.89,-95.7"/>
<polygon fill="#63b8ff" stroke="#63b8ff" points="54.64,-92.23 44.05,-91.85 52.08,-98.75 54.64,-92.23"/>
</a>
</g>
</g>
<!-- Node3 -->
<g id="Node000003" class="node">
<title>Node3</title>
<g id="a_Node000003"><a xlink:title=" ">
<polygon fill="#e0e0e0" stroke="#999999" points="155.5,-97 66,-97 66,-66.5 155.5,-66.5 155.5,-97"/>
<text text-anchor="start" x="74" y="-83.5" font-family="Times,serif" font-size="10.00">boost/serialization</text>
<text text-anchor="middle" x="110.75" y="-72.25" font-family="Times,serif" font-size="10.00">/string.hpp</text>
</a>
</g>
</g>
<!-- Node1&#45;&gt;Node3 -->
<g id="edge2_Node000001_Node000003" class="edge">
<title>Node1&#45;&gt;Node3</title>
<g id="a_edge2_Node000001_Node000003"><a xlink:title=" ">
<path fill="none" stroke="#63b8ff" d="M294.74,-141.31C256.22,-129.05 204.59,-112.62 165.82,-100.28"/>
<polygon fill="#63b8ff" stroke="#63b8ff" points="167.35,-96.77 156.76,-97.07 165.22,-103.44 167.35,-96.77"/>
</a>
</g>
</g>
<!-- Node4 -->
<g id="Node000004" class="node">
<title>Node4</title>
<g id="a_Node000004"><a xlink:title=" ">
<polygon fill="#e0e0e0" stroke="#999999" points="275.5,-97 174,-97 174,-66.5 275.5,-66.5 275.5,-97"/>
<text text-anchor="start" x="182" y="-83.5" font-family="Times,serif" font-size="10.00">boost/archive/archive</text>
<text text-anchor="middle" x="224.75" y="-72.25" font-family="Times,serif" font-size="10.00">_exception.hpp</text>
</a>
</g>
</g>
<!-- Node1&#45;&gt;Node4 -->
<g id="edge3_Node000001_Node000004" class="edge">
<title>Node1&#45;&gt;Node4</title>
<g id="a_edge3_Node000001_Node000004"><a xlink:title=" ">
<path fill="none" stroke="#63b8ff" d="M306.42,-132.64C290.65,-123.01 272.99,-112.22 258.13,-103.14"/>
<polygon fill="#63b8ff" stroke="#63b8ff" points="260.18,-99.68 249.83,-97.46 256.53,-105.66 260.18,-99.68"/>
</a>
</g>
</g>
<!-- Node5 -->
<g id="Node000005" class="node">
<title>Node5</title>
<g id="a_Node000005"><a xlink:title=" ">
<polygon fill="#e0e0e0" stroke="#999999" points="404,-97 293.5,-97 293.5,-66.5 404,-66.5 404,-97"/>
<text text-anchor="start" x="301.5" y="-83.5" font-family="Times,serif" font-size="10.00">boost/archive/basic</text>
<text text-anchor="middle" x="348.75" y="-72.25" font-family="Times,serif" font-size="10.00">_binary_oprimitive.hpp</text>
</a>
</g>
</g>
<!-- Node1&#45;&gt;Node5 -->
<g id="edge4_Node000001_Node000005" class="edge">
<title>Node1&#45;&gt;Node5</title>
<g id="a_edge4_Node000001_Node000005"><a xlink:title=" ">
<path fill="none" stroke="#63b8ff" d="M348.75,-132.85C348.75,-124.9 348.75,-116.13 348.75,-108.18"/>
<polygon fill="#63b8ff" stroke="#63b8ff" points="352.25,-108.32 348.75,-98.32 345.25,-108.32 352.25,-108.32"/>
</a>
</g>
</g>
<!-- Node6 -->
<g id="Node000006" class="node">
<title>Node6</title>
<g id="a_Node000006"><a xlink:title=" ">
<polygon fill="#e0e0e0" stroke="#999999" points="531.62,-97 421.88,-97 421.88,-66.5 531.62,-66.5 531.62,-97"/>
<text text-anchor="start" x="429.88" y="-83.5" font-family="Times,serif" font-size="10.00">boost/archive/detail</text>
<text text-anchor="middle" x="476.75" y="-72.25" font-family="Times,serif" font-size="10.00">/common_oarchive.hpp</text>
</a>
</g>
</g>
<!-- Node1&#45;&gt;Node6 -->
<g id="edge5_Node000001_Node000006" class="edge">
<title>Node1&#45;&gt;Node6</title>
<g id="a_edge5_Node000001_Node000006"><a xlink:title=" ">
<path fill="none" stroke="#63b8ff" d="M392.44,-132.64C408.88,-122.92 427.3,-112.01 442.73,-102.88"/>
<polygon fill="#63b8ff" stroke="#63b8ff" points="444.07,-105.56 450.9,-97.46 440.51,-99.54 444.07,-105.56"/>
</a>
</g>
</g>
<!-- Node7 -->
<g id="Node000007" class="node">
<title>Node7</title>
<g id="a_Node000007"><a xlink:title=" ">
<polygon fill="#e0e0e0" stroke="#999999" points="650.12,-97 549.38,-97 549.38,-66.5 650.12,-66.5 650.12,-97"/>
<text text-anchor="start" x="557.38" y="-83.5" font-family="Times,serif" font-size="10.00">boost/archive/detail</text>
<text text-anchor="middle" x="599.75" y="-72.25" font-family="Times,serif" font-size="10.00">/register_archive.hpp</text>
</a>
</g>
</g>
<!-- Node1&#45;&gt;Node7 -->
<g id="edge6_Node000001_Node000007" class="edge">
<title>Node1&#45;&gt;Node7</title>
<g id="a_edge6_Node000001_Node000007"><a xlink:title=" ">
<path fill="none" stroke="#63b8ff" d="M402.9,-142.16C443.56,-129.89 499.17,-113.1 540.91,-100.51"/>
<polygon fill="#63b8ff" stroke="#63b8ff" points="541.65,-103.64 550.21,-97.4 539.63,-96.94 541.65,-103.64"/>
</a>
</g>
</g>
<!-- Node8 -->
<g id="Node000008" class="node">
<title>Node8</title>
<g id="a_Node000008"><a xlink:href="../../df/d44/portable-binary-archive_8hpp.html" target="_top" xlink:title=" ">
<polygon fill="white" stroke="#666666" points="795.25,-91.38 668.25,-91.38 668.25,-72.12 795.25,-72.12 795.25,-91.38"/>
<text text-anchor="middle" x="731.75" y="-77.88" font-family="Times,serif" font-size="10.00">portable&#45;binary&#45;archive.hpp</text>
</a>
</g>
</g>
<!-- Node1&#45;&gt;Node8 -->
<g id="edge7_Node000001_Node000008" class="edge">
<title>Node1&#45;&gt;Node8</title>
<g id="a_edge7_Node000001_Node000008"><a xlink:title=" ">
<path fill="none" stroke="#63b8ff" d="M402.81,-147.81C474.94,-133.54 602.05,-108.4 675.34,-93.91"/>
<polygon fill="#63b8ff" stroke="#63b8ff" points="675.62,-97.22 684.75,-91.85 674.27,-90.35 675.62,-97.22"/>
</a>
</g>
</g>
<!-- Node9 -->
<g id="Node000009" class="node">
<title>Node9</title>
<g id="a_Node000009"><a xlink:title=" ">
<polygon fill="#e0e0e0" stroke="#999999" points="507.5,-24.88 424,-24.88 424,-5.63 507.5,-5.63 507.5,-24.88"/>
<text text-anchor="middle" x="465.75" y="-11.38" font-family="Times,serif" font-size="10.00">boost/config.hpp</text>
</a>
</g>
</g>
<!-- Node8&#45;&gt;Node9 -->
<g id="edge8_Node000008_Node000009" class="edge">
<title>Node8&#45;&gt;Node9</title>
<g id="a_edge8_Node000008_Node000009"><a xlink:title=" ">
<path fill="none" stroke="#63b8ff" d="M690.4,-71.64C647.02,-61.95 576.9,-45.93 516.75,-30.5 513.93,-29.78 511.02,-29.01 508.09,-28.23"/>
<polygon fill="#63b8ff" stroke="#63b8ff" points="509.09,-24.6 498.52,-25.35 507.25,-31.36 509.09,-24.6"/>
</a>
</g>
</g>
<!-- Node10 -->
<g id="Node000010" class="node">
<title>Node10</title>
<g id="a_Node000010"><a xlink:title=" ">
<polygon fill="#e0e0e0" stroke="#999999" points="612,-24.88 525.5,-24.88 525.5,-5.63 612,-5.63 612,-24.88"/>
<text text-anchor="middle" x="568.75" y="-11.38" font-family="Times,serif" font-size="10.00">boost/cstdint.hpp</text>
</a>
</g>
</g>
<!-- Node8&#45;&gt;Node10 -->
<g id="edge9_Node000008_Node000010" class="edge">
<title>Node8&#45;&gt;Node10</title>
<g id="a_edge9_Node000008_Node000010"><a xlink:title=" ">
<path fill="none" stroke="#63b8ff" d="M708.74,-71.65C680.83,-60.6 633.58,-41.9 601.78,-29.32"/>
<polygon fill="#63b8ff" stroke="#63b8ff" points="603.23,-25.73 592.64,-25.31 600.65,-32.24 603.23,-25.73"/>
</a>
</g>
</g>
<!-- Node11 -->
<g id="Node000011" class="node">
<title>Node11</title>
<g id="a_Node000011"><a xlink:title=" ">
<polygon fill="#e0e0e0" stroke="#999999" points="739.25,-24.88 630.25,-24.88 630.25,-5.63 739.25,-5.63 739.25,-24.88"/>
<text text-anchor="middle" x="684.75" y="-11.38" font-family="Times,serif" font-size="10.00">boost/static_assert.hpp</text>
</a>
</g>
</g>
<!-- Node8&#45;&gt;Node11 -->
<g id="edge10_Node000008_Node000011" class="edge">
<title>Node8&#45;&gt;Node11</title>
<g id="a_edge10_Node000008_Node000011"><a xlink:title=" ">
<path fill="none" stroke="#63b8ff" d="M725.21,-71.78C718.06,-61.96 706.41,-45.98 697.44,-33.67"/>
<polygon fill="#63b8ff" stroke="#63b8ff" points="699.95,-32.16 691.23,-26.14 694.29,-36.29 699.95,-32.16"/>
</a>
</g>
</g>
<!-- Node12 -->
<g id="Node000012" class="node">
<title>Node12</title>
<g id="a_Node000012"><a xlink:title=" ">
<polygon fill="#e0e0e0" stroke="#999999" points="799.88,-24.88 757.62,-24.88 757.62,-5.63 799.88,-5.63 799.88,-24.88"/>
<text text-anchor="middle" x="778.75" y="-11.38" font-family="Times,serif" font-size="10.00">climits</text>
</a>
</g>
</g>
<!-- Node8&#45;&gt;Node12 -->
<g id="edge11_Node000008_Node000012" class="edge">
<title>Node8&#45;&gt;Node12</title>
<g id="a_edge11_Node000008_Node000012"><a xlink:title=" ">
<path fill="none" stroke="#63b8ff" d="M738.29,-71.78C745.44,-61.96 757.09,-45.98 766.06,-33.67"/>
<polygon fill="#63b8ff" stroke="#63b8ff" points="769.21,-36.29 772.27,-26.14 763.55,-32.16 769.21,-36.29"/>
</a>
</g>
</g>
<!-- Node13 -->
<g id="Node000013" class="node">
<title>Node13</title>
<g id="a_Node000013"><a xlink:title=" ">
<polygon fill="#e0e0e0" stroke="#999999" points="911.38,-30.5 818.12,-30.5 818.12,0 911.38,0 911.38,-30.5"/>
<text text-anchor="start" x="826.12" y="-17" font-family="Times,serif" font-size="10.00">boost/archive/basic</text>
<text text-anchor="middle" x="864.75" y="-5.75" font-family="Times,serif" font-size="10.00">_archive.hpp</text>
</a>
</g>
</g>
<!-- Node8&#45;&gt;Node13 -->
<g id="edge12_Node000008_Node000013" class="edge">
<title>Node8&#45;&gt;Node13</title>
<g id="a_edge12_Node000008_Node000013"><a xlink:title=" ">
<path fill="none" stroke="#63b8ff" d="M750.52,-71.65C769.72,-62.34 800.13,-47.59 824.74,-35.65"/>
<polygon fill="#63b8ff" stroke="#63b8ff" points="826.07,-38.41 833.54,-30.9 823.02,-32.11 826.07,-38.41"/>
</a>
</g>
</g>
<!-- Node14 -->
<g id="Node000014" class="node">
<title>Node14</title>
<g id="a_Node000014"><a xlink:title=" ">
<polygon fill="#e0e0e0" stroke="#999999" points="1022,-30.5 929.5,-30.5 929.5,0 1022,0 1022,-30.5"/>
<text text-anchor="start" x="937.5" y="-17" font-family="Times,serif" font-size="10.00">boost/predef/other</text>
<text text-anchor="middle" x="975.75" y="-5.75" font-family="Times,serif" font-size="10.00">/endian.h</text>
</a>
</g>
</g>
<!-- Node8&#45;&gt;Node14 -->
<g id="edge13_Node000008_Node000014" class="edge">
<title>Node8&#45;&gt;Node14</title>
<g id="a_edge13_Node000008_Node000014"><a xlink:title=" ">
<path fill="none" stroke="#63b8ff" d="M766.19,-71.65C805.88,-61.15 871.71,-43.75 919,-31.25"/>
<polygon fill="#63b8ff" stroke="#63b8ff" points="919.62,-34.44 928.39,-28.5 917.83,-27.68 919.62,-34.44"/>
</a>
</g>
</g>
</g>
</svg>

<g id="navigator" transform="translate(0 0)" fill="#404254">
  <rect fill="#f2f5e9" fill-opacity="0.5" stroke="#606060" stroke-width=".5" x="0" y="0" width="60" height="60"/>
  <use id="zoomplus" xlink:href="#zoomPlus" x="17" y="9" onmousedown="handleZoom(evt,'in')"/>
  <use id="zoomminus" xlink:href="#zoomMin" x="42" y="9" onmousedown="handleZoom(evt,'out')"/>
  <use id="reset" xlink:href="#resetDef" x="30" y="36" onmousedown="handleReset()"/>
   <use id="arrowup" xlink:href="#arrowUp" x="0" y="0" onmousedown="handlePan(0,-1)"/>
  <use id="arrowright" xlink:href="#arrowRight" x="0" y="0" onmousedown="handlePan(1,0)"/>
  <use id="arrowdown" xlink:href="#arrowDown" x="0" y="0" onmousedown="handlePan(0,1)"/>
  <use id="arrowleft" xlink:href="#arrowLeft" x="0" y="0" onmousedown="handlePan(-1,0)"/>
</g>
<svg viewBox="0 0 15 15" width="100%" height="30px" preserveAspectRatio="xMaxYMin meet">
 <g id="arrow_out" transform="scale(0.3 0.3)">
  <a xlink:href="portable-binary-oarchive_8hpp__incl_org.svg" target="_base">
   <rect id="button" ry="5" rx="5" y="6" x="6" height="38" width="38"
        fill="#f2f5e9" fill-opacity="0.5" stroke="#606060" stroke-width="1.0"/>
   <path id="arrow"
     d="M 11.500037,31.436501 C 11.940474,20.09759 22.043105,11.32322 32.158766,21.979434 L 37.068811,17.246167 C 37.068811,17.246167 37.088388,32 37.088388,32 L 22.160133,31.978069 C 22.160133,31.978069 26.997745,27.140456 26.997745,27.140456 C 18.528582,18.264221 13.291696,25.230495 11.500037,31.436501 z"
     style="fill:#404040;"/>
  </a>
 </g>
</svg>

<style type='text/css'>
<![CDATA[
[data-mouse-over-selected='false'] { opacity: 0.7; }
[data-mouse-over-selected='true']  { opacity: 1.0; }
]]>
</style>
<script type="application/ecmascript"><![CDATA[
document.addEventListener('DOMContentLoaded', (event) => {
  highlightEdges();
  highlightAdjacentNodes();
});
]]></script>
</svg>
